<?xml version="1.0" encoding="UTF-8" standalone="no"?>
<!DOCTYPE svg PUBLIC "-//W3C//DTD SVG 1.1//EN"
 "http://www.w3.org/Graphics/SVG/1.1/DTD/svg11.dtd">
<!-- Generated by graphviz version 2.43.0 (0)
 -->
<!-- Title: thrmask.h Pages: 1 -->
<svg width="107pt" height="196pt"
 viewBox="0.00 0.00 106.50 196.00" xmlns="http://www.w3.org/2000/svg" xmlns:xlink="http://www.w3.org/1999/xlink">
<g id="graph0" class="graph" transform="scale(1 1) rotate(0) translate(4 192)">
<title>thrmask.h</title>
<polygon fill="white" stroke="transparent" points="-4,4 -4,-192 102.5,-192 102.5,4 -4,4"/>
<!-- Node1 -->
<g id="node1" class="node">
<title>Node1</title>
<g id="a_node1"><a xlink:title=" ">
<polygon fill="#bfbfbf" stroke="black" points="32.5,-168.5 32.5,-187.5 98.5,-187.5 98.5,-168.5 32.5,-168.5"/>
<text text-anchor="middle" x="65.5" y="-175.5" font-family="Helvetica,sans-Serif" font-size="10.00">thrmask.h</text>
</a>
</g>
</g>
<!-- Node2 -->
<g id="node2" class="node">
<title>Node2</title>
<g id="a_node2"><a xlink:href="api_2spec_2schedule_8h.html" target="_top" xlink:title=" ">
<polygon fill="white" stroke="black" points="0,-112.5 0,-131.5 69,-131.5 69,-112.5 0,-112.5"/>
<text text-anchor="middle" x="34.5" y="-119.5" font-family="Helvetica,sans-Serif" font-size="10.00">schedule.h</text>
</a>
</g>
</g>
<!-- Node1&#45;&gt;Node2 -->
<g id="edge1" class="edge">
<title>Node1&#45;&gt;Node2</title>
<path fill="none" stroke="midnightblue" d="M55.32,-159.27C50.03,-150.05 43.78,-139.17 39.52,-131.75"/>
<polygon fill="midnightblue" stroke="midnightblue" points="52.37,-161.15 60.38,-168.08 58.44,-157.67 52.37,-161.15"/>
</g>
<!-- Node4 -->
<g id="node4" class="node">
<title>Node4</title>
<g id="a_node4"><a xlink:href="odp__api_8h.html" target="_top" xlink:title=" ">
<polygon fill="white" stroke="black" points="33.5,-0.5 33.5,-19.5 97.5,-19.5 97.5,-0.5 33.5,-0.5"/>
<text text-anchor="middle" x="65.5" y="-7.5" font-family="Helvetica,sans-Serif" font-size="10.00">odp_api.h</text>
</a>
</g>
</g>
<!-- Node1&#45;&gt;Node4 -->
<g id="edge4" class="edge">
<title>Node1&#45;&gt;Node4</title>
<path fill="none" stroke="midnightblue" d="M72.05,-158.7C74.61,-150.63 77.23,-140.96 78.5,-132 83.23,-98.56 83.23,-89.44 78.5,-56 76.68,-43.12 72.05,-28.76 68.84,-19.8"/>
<polygon fill="midnightblue" stroke="midnightblue" points="68.73,-157.6 68.84,-168.2 75.36,-159.84 68.73,-157.6"/>
</g>
<!-- Node3 -->
<g id="node3" class="node">
<title>Node3</title>
<g id="a_node3"><a xlink:href="api_2schedule_8h.html" target="_top" xlink:title=" ">
<polygon fill="white" stroke="black" points="0,-56.5 0,-75.5 69,-75.5 69,-56.5 0,-56.5"/>
<text text-anchor="middle" x="34.5" y="-63.5" font-family="Helvetica,sans-Serif" font-size="10.00">schedule.h</text>
</a>
</g>
</g>
<!-- Node2&#45;&gt;Node3 -->
<g id="edge2" class="edge">
<title>Node2&#45;&gt;Node3</title>
<path fill="none" stroke="midnightblue" d="M34.5,-101.8C34.5,-92.91 34.5,-82.78 34.5,-75.75"/>
<polygon fill="midnightblue" stroke="midnightblue" points="31,-102.08 34.5,-112.08 38,-102.08 31,-102.08"/>
</g>
<!-- Node3&#45;&gt;Node4 -->
<g id="edge3" class="edge">
<title>Node3&#45;&gt;Node4</title>
<path fill="none" stroke="midnightblue" d="M44.68,-47.27C49.97,-38.05 56.22,-27.17 60.48,-19.75"/>
<polygon fill="midnightblue" stroke="midnightblue" points="41.56,-45.67 39.62,-56.08 47.63,-49.15 41.56,-45.67"/>
</g>
</g>
</svg>
