<?xml version="1.0" encoding="UTF-8" standalone="no"?>
<!DOCTYPE svg PUBLIC "-//W3C//DTD SVG 1.1//EN"
 "http://www.w3.org/Graphics/SVG/1.1/DTD/svg11.dtd">
<!-- Generated by graphviz version 2.43.0 (0)
 -->
<!-- Title: event_types.h Pages: 1 -->
<svg width="829pt" height="700pt"
 viewBox="0.00 0.00 829.00 700.00" xmlns="http://www.w3.org/2000/svg" xmlns:xlink="http://www.w3.org/1999/xlink">
<g id="graph0" class="graph" transform="scale(1 1) rotate(0) translate(4 696)">
<title>event_types.h</title>
<polygon fill="white" stroke="transparent" points="-4,4 -4,-696 825,-696 825,4 -4,4"/>
<!-- Node1 -->
<g id="node1" class="node">
<title>Node1</title>
<g id="a_node1"><a xlink:title=" ">
<polygon fill="#bfbfbf" stroke="black" points="464.5,-672.5 464.5,-691.5 550.5,-691.5 550.5,-672.5 464.5,-672.5"/>
<text text-anchor="middle" x="507.5" y="-679.5" font-family="Helvetica,sans-Serif" font-size="10.00">event_types.h</text>
</a>
</g>
</g>
<!-- Node2 -->
<g id="node2" class="node">
<title>Node2</title>
<g id="a_node2"><a xlink:href="api_2event__types_8h.html" target="_top" xlink:title=" ">
<polygon fill="white" stroke="black" points="464.5,-616.5 464.5,-635.5 550.5,-635.5 550.5,-616.5 464.5,-616.5"/>
<text text-anchor="middle" x="507.5" y="-623.5" font-family="Helvetica,sans-Serif" font-size="10.00">event_types.h</text>
</a>
</g>
</g>
<!-- Node1&#45;&gt;Node2 -->
<g id="edge1" class="edge">
<title>Node1&#45;&gt;Node2</title>
<path fill="none" stroke="midnightblue" d="M507.5,-661.8C507.5,-652.91 507.5,-642.78 507.5,-635.75"/>
<polygon fill="midnightblue" stroke="midnightblue" points="504,-662.08 507.5,-672.08 511,-662.08 504,-662.08"/>
</g>
<!-- Node3 -->
<g id="node3" class="node">
<title>Node3</title>
<g id="a_node3"><a xlink:href="api_2spec_2buffer_8h.html" target="_top" xlink:title=" ">
<polygon fill="white" stroke="black" points="88,-336.5 88,-355.5 141,-355.5 141,-336.5 88,-336.5"/>
<text text-anchor="middle" x="114.5" y="-343.5" font-family="Helvetica,sans-Serif" font-size="10.00">buffer.h</text>
</a>
</g>
</g>
<!-- Node2&#45;&gt;Node3 -->
<g id="edge2" class="edge">
<title>Node2&#45;&gt;Node3</title>
<path fill="none" stroke="midnightblue" d="M454.08,-624.56C367.4,-622.83 201.2,-614.9 155.5,-580 130.64,-561.02 128.5,-546.28 128.5,-515 128.5,-515 128.5,-515 128.5,-457 128.5,-418.88 120.13,-373.93 116.33,-355.51"/>
<polygon fill="midnightblue" stroke="midnightblue" points="454.18,-628.07 464.24,-624.75 454.3,-621.07 454.18,-628.07"/>
</g>
<!-- Node6 -->
<g id="node6" class="node">
<title>Node6</title>
<g id="a_node6"><a xlink:href="api_2spec_2comp_8h.html" target="_top" xlink:title=" ">
<polygon fill="white" stroke="black" points="34,-560.5 34,-579.5 87,-579.5 87,-560.5 34,-560.5"/>
<text text-anchor="middle" x="60.5" y="-567.5" font-family="Helvetica,sans-Serif" font-size="10.00">comp.h</text>
</a>
</g>
</g>
<!-- Node2&#45;&gt;Node6 -->
<g id="edge5" class="edge">
<title>Node2&#45;&gt;Node6</title>
<path fill="none" stroke="midnightblue" d="M454.15,-619.77C378.46,-612.14 235.64,-597.02 114.5,-580 105.56,-578.74 95.82,-577.18 87.1,-575.71"/>
<polygon fill="midnightblue" stroke="midnightblue" points="454.08,-623.28 464.37,-620.79 454.77,-616.31 454.08,-623.28"/>
</g>
<!-- Node8 -->
<g id="node8" class="node">
<title>Node8</title>
<g id="a_node8"><a xlink:href="api_2spec_2dma__types_8h.html" target="_top" xlink:title=" ">
<polygon fill="white" stroke="black" points="332.5,-560.5 332.5,-579.5 412.5,-579.5 412.5,-560.5 332.5,-560.5"/>
<text text-anchor="middle" x="372.5" y="-567.5" font-family="Helvetica,sans-Serif" font-size="10.00">dma_types.h</text>
</a>
</g>
</g>
<!-- Node2&#45;&gt;Node8 -->
<g id="edge8" class="edge">
<title>Node2&#45;&gt;Node8</title>
<path fill="none" stroke="midnightblue" d="M476.59,-612.64C451.26,-602.5 416.07,-588.43 393.79,-579.52"/>
<polygon fill="midnightblue" stroke="midnightblue" points="475.52,-615.98 486.11,-616.44 478.12,-609.48 475.52,-615.98"/>
</g>
<!-- Node22 -->
<g id="node22" class="node">
<title>Node22</title>
<g id="a_node22"><a xlink:href="api_2spec_2packet_8h.html" target="_top" xlink:title=" ">
<polygon fill="white" stroke="black" points="160.5,-224.5 160.5,-243.5 218.5,-243.5 218.5,-224.5 160.5,-224.5"/>
<text text-anchor="middle" x="189.5" y="-231.5" font-family="Helvetica,sans-Serif" font-size="10.00">packet.h</text>
</a>
</g>
</g>
<!-- Node2&#45;&gt;Node22 -->
<g id="edge52" class="edge">
<title>Node2&#45;&gt;Node22</title>
<path fill="none" stroke="midnightblue" d="M454.33,-618.87C359.16,-606.42 169.5,-574.17 169.5,-515 169.5,-515 169.5,-515 169.5,-401 169.5,-340.33 182.83,-268.08 187.73,-243.6"/>
<polygon fill="midnightblue" stroke="midnightblue" points="453.98,-622.36 464.35,-620.16 454.87,-615.41 453.98,-622.36"/>
</g>
<!-- Node30 -->
<g id="node30" class="node">
<title>Node30</title>
<g id="a_node30"><a xlink:href="api_2spec_2timer_8h.html" target="_top" xlink:title=" ">
<polygon fill="white" stroke="black" points="566,-336.5 566,-355.5 617,-355.5 617,-336.5 566,-336.5"/>
<text text-anchor="middle" x="591.5" y="-343.5" font-family="Helvetica,sans-Serif" font-size="10.00">timer.h</text>
</a>
</g>
</g>
<!-- Node2&#45;&gt;Node30 -->
<g id="edge59" class="edge">
<title>Node2&#45;&gt;Node30</title>
<path fill="none" stroke="midnightblue" d="M529.27,-610.27C539.46,-602.37 550.98,-591.83 558.5,-580 574.64,-554.6 577.5,-545.1 577.5,-515 577.5,-515 577.5,-515 577.5,-457 577.5,-418.88 585.87,-373.93 589.67,-355.51"/>
<polygon fill="midnightblue" stroke="midnightblue" points="527.12,-607.51 521.15,-616.25 531.27,-613.14 527.12,-607.51"/>
</g>
<!-- Node32 -->
<g id="node32" class="node">
<title>Node32</title>
<g id="a_node32"><a xlink:href="api_2spec_2event_8h.html" target="_top" xlink:title=" ">
<polygon fill="white" stroke="black" points="606,-560.5 606,-579.5 659,-579.5 659,-560.5 606,-560.5"/>
<text text-anchor="middle" x="632.5" y="-567.5" font-family="Helvetica,sans-Serif" font-size="10.00">event.h</text>
</a>
</g>
</g>
<!-- Node2&#45;&gt;Node32 -->
<g id="edge49" class="edge">
<title>Node2&#45;&gt;Node32</title>
<path fill="none" stroke="midnightblue" d="M536.74,-612.37C560.15,-602.26 592.34,-588.35 612.79,-579.52"/>
<polygon fill="midnightblue" stroke="midnightblue" points="535.1,-609.26 527.31,-616.44 537.87,-615.69 535.1,-609.26"/>
</g>
<!-- Node34 -->
<g id="node34" class="node">
<title>Node34</title>
<g id="a_node34"><a xlink:href="api_2spec_2queue_8h.html" target="_top" xlink:title=" ">
<polygon fill="white" stroke="black" points="677.5,-560.5 677.5,-579.5 733.5,-579.5 733.5,-560.5 677.5,-560.5"/>
<text text-anchor="middle" x="705.5" y="-567.5" font-family="Helvetica,sans-Serif" font-size="10.00">queue.h</text>
</a>
</g>
</g>
<!-- Node2&#45;&gt;Node34 -->
<g id="edge53" class="edge">
<title>Node2&#45;&gt;Node34</title>
<path fill="none" stroke="midnightblue" d="M548.76,-613.75C587.33,-603.23 643.89,-587.8 677.47,-578.64"/>
<polygon fill="midnightblue" stroke="midnightblue" points="547.6,-610.44 538.87,-616.44 549.44,-617.19 547.6,-610.44"/>
</g>
<!-- Node36 -->
<g id="node36" class="node">
<title>Node36</title>
<g id="a_node36"><a xlink:href="api_2spec_2schedule_8h.html" target="_top" xlink:title=" ">
<polygon fill="white" stroke="black" points="752,-560.5 752,-579.5 821,-579.5 821,-560.5 752,-560.5"/>
<text text-anchor="middle" x="786.5" y="-567.5" font-family="Helvetica,sans-Serif" font-size="10.00">schedule.h</text>
</a>
</g>
</g>
<!-- Node2&#45;&gt;Node36 -->
<g id="edge56" class="edge">
<title>Node2&#45;&gt;Node36</title>
<path fill="none" stroke="midnightblue" d="M560.93,-614.97C608.59,-605.97 680.24,-592.33 742.5,-580 745.56,-579.39 748.74,-578.76 751.92,-578.12"/>
<polygon fill="midnightblue" stroke="midnightblue" points="560.02,-611.58 550.84,-616.87 561.32,-618.45 560.02,-611.58"/>
</g>
<!-- Node38 -->
<g id="node38" class="node">
<title>Node38</title>
<g id="a_node38"><a xlink:href="api_2spec_2timer__types_8h.html" target="_top" xlink:title=" ">
<polygon fill="white" stroke="black" points="465.5,-560.5 465.5,-579.5 549.5,-579.5 549.5,-560.5 465.5,-560.5"/>
<text text-anchor="middle" x="507.5" y="-567.5" font-family="Helvetica,sans-Serif" font-size="10.00">timer_types.h</text>
</a>
</g>
</g>
<!-- Node2&#45;&gt;Node38 -->
<g id="edge60" class="edge">
<title>Node2&#45;&gt;Node38</title>
<path fill="none" stroke="midnightblue" d="M507.5,-605.8C507.5,-596.91 507.5,-586.78 507.5,-579.75"/>
<polygon fill="midnightblue" stroke="midnightblue" points="504,-606.08 507.5,-616.08 511,-606.08 504,-606.08"/>
</g>
<!-- Node4 -->
<g id="node4" class="node">
<title>Node4</title>
<g id="a_node4"><a xlink:href="api_2buffer_8h.html" target="_top" xlink:title=" ">
<polygon fill="white" stroke="black" points="51,-112.5 51,-131.5 104,-131.5 104,-112.5 51,-112.5"/>
<text text-anchor="middle" x="77.5" y="-119.5" font-family="Helvetica,sans-Serif" font-size="10.00">buffer.h</text>
</a>
</g>
</g>
<!-- Node3&#45;&gt;Node4 -->
<g id="edge3" class="edge">
<title>Node3&#45;&gt;Node4</title>
<path fill="none" stroke="midnightblue" d="M111.38,-326.3C103.77,-280.64 84.48,-164.85 78.98,-131.88"/>
<polygon fill="midnightblue" stroke="midnightblue" points="107.95,-327.01 113.05,-336.3 114.86,-325.86 107.95,-327.01"/>
</g>
<!-- Node5 -->
<g id="node5" class="node">
<title>Node5</title>
<g id="a_node5"><a xlink:href="odp__api_8h.html" target="_top" xlink:title=" ">
<polygon fill="white" stroke="black" points="397.5,-0.5 397.5,-19.5 461.5,-19.5 461.5,-0.5 397.5,-0.5"/>
<text text-anchor="middle" x="429.5" y="-7.5" font-family="Helvetica,sans-Serif" font-size="10.00">odp_api.h</text>
</a>
</g>
</g>
<!-- Node4&#45;&gt;Node5 -->
<g id="edge4" class="edge">
<title>Node4&#45;&gt;Node5</title>
<path fill="none" stroke="midnightblue" d="M82.74,-102.34C87.99,-87.32 97.6,-66.95 113.5,-56 159.13,-24.56 326.34,-14.78 397.3,-12"/>
<polygon fill="midnightblue" stroke="midnightblue" points="79.33,-101.54 79.67,-112.13 86.01,-103.64 79.33,-101.54"/>
</g>
<!-- Node7 -->
<g id="node7" class="node">
<title>Node7</title>
<g id="a_node7"><a xlink:href="api_2comp_8h.html" target="_top" xlink:title=" ">
<polygon fill="white" stroke="black" points="0,-448.5 0,-467.5 53,-467.5 53,-448.5 0,-448.5"/>
<text text-anchor="middle" x="26.5" y="-455.5" font-family="Helvetica,sans-Serif" font-size="10.00">comp.h</text>
</a>
</g>
</g>
<!-- Node6&#45;&gt;Node7 -->
<g id="edge6" class="edge">
<title>Node6&#45;&gt;Node7</title>
<path fill="none" stroke="midnightblue" d="M54.84,-550.67C47.4,-526.62 34.66,-485.39 29.16,-467.59"/>
<polygon fill="midnightblue" stroke="midnightblue" points="51.54,-551.85 57.83,-560.37 58.22,-549.78 51.54,-551.85"/>
</g>
<!-- Node7&#45;&gt;Node5 -->
<g id="edge7" class="edge">
<title>Node7&#45;&gt;Node5</title>
<path fill="none" stroke="midnightblue" d="M25.4,-438.26C24.22,-416.37 22.5,-379.07 22.5,-347 22.5,-347 22.5,-347 22.5,-121 22.5,-78.54 54.1,-74.11 92.5,-56 146.29,-30.64 324.19,-17.32 397.5,-12.8"/>
<polygon fill="midnightblue" stroke="midnightblue" points="21.92,-438.66 25.98,-448.45 28.91,-438.27 21.92,-438.66"/>
</g>
<!-- Node9 -->
<g id="node9" class="node">
<title>Node9</title>
<g id="a_node9"><a xlink:href="api_2dma__types_8h.html" target="_top" xlink:title=" ">
<polygon fill="white" stroke="black" points="314.5,-504.5 314.5,-523.5 394.5,-523.5 394.5,-504.5 314.5,-504.5"/>
<text text-anchor="middle" x="354.5" y="-511.5" font-family="Helvetica,sans-Serif" font-size="10.00">dma_types.h</text>
</a>
</g>
</g>
<!-- Node8&#45;&gt;Node9 -->
<g id="edge9" class="edge">
<title>Node8&#45;&gt;Node9</title>
<path fill="none" stroke="midnightblue" d="M366.3,-550.4C363.29,-541.36 359.81,-530.94 357.42,-523.75"/>
<polygon fill="midnightblue" stroke="midnightblue" points="363.04,-551.7 369.53,-560.08 369.69,-549.49 363.04,-551.7"/>
</g>
<!-- Node10 -->
<g id="node10" class="node">
<title>Node10</title>
<g id="a_node10"><a xlink:href="spec_2dma_8h.html" target="_top" xlink:title=" ">
<polygon fill="white" stroke="black" points="198,-336.5 198,-355.5 245,-355.5 245,-336.5 198,-336.5"/>
<text text-anchor="middle" x="221.5" y="-343.5" font-family="Helvetica,sans-Serif" font-size="10.00">dma.h</text>
</a>
</g>
</g>
<!-- Node9&#45;&gt;Node10 -->
<g id="edge10" class="edge">
<title>Node9&#45;&gt;Node10</title>
<path fill="none" stroke="midnightblue" d="M335.94,-497.69C326.36,-489.37 314.78,-478.64 305.5,-468 271.54,-429.07 238.87,-376.24 226.6,-355.68"/>
<polygon fill="midnightblue" stroke="midnightblue" points="333.84,-500.5 343.73,-504.31 338.38,-495.17 333.84,-500.5"/>
</g>
<!-- Node12 -->
<g id="node12" class="node">
<title>Node12</title>
<g id="a_node12"><a xlink:href="api_2spec_2pool__types_8h.html" target="_top" xlink:title=" ">
<polygon fill="white" stroke="black" points="315,-448.5 315,-467.5 394,-467.5 394,-448.5 315,-448.5"/>
<text text-anchor="middle" x="354.5" y="-455.5" font-family="Helvetica,sans-Serif" font-size="10.00">pool_types.h</text>
</a>
</g>
</g>
<!-- Node9&#45;&gt;Node12 -->
<g id="edge13" class="edge">
<title>Node9&#45;&gt;Node12</title>
<path fill="none" stroke="midnightblue" d="M354.5,-493.8C354.5,-484.91 354.5,-474.78 354.5,-467.75"/>
<polygon fill="midnightblue" stroke="midnightblue" points="351,-494.08 354.5,-504.08 358,-494.08 351,-494.08"/>
</g>
<!-- Node11 -->
<g id="node11" class="node">
<title>Node11</title>
<g id="a_node11"><a xlink:href="dma_8h.html" target="_top" xlink:title=" ">
<polygon fill="white" stroke="black" points="123,-56.5 123,-75.5 170,-75.5 170,-56.5 123,-56.5"/>
<text text-anchor="middle" x="146.5" y="-63.5" font-family="Helvetica,sans-Serif" font-size="10.00">dma.h</text>
</a>
</g>
</g>
<!-- Node10&#45;&gt;Node11 -->
<g id="edge11" class="edge">
<title>Node10&#45;&gt;Node11</title>
<path fill="none" stroke="midnightblue" d="M198.86,-330.76C172.49,-312.22 132.5,-277.15 132.5,-235 132.5,-235 132.5,-235 132.5,-177 132.5,-138.88 140.87,-93.93 144.67,-75.51"/>
<polygon fill="midnightblue" stroke="midnightblue" points="196.96,-333.7 207.2,-336.4 200.88,-327.9 196.96,-333.7"/>
</g>
<!-- Node11&#45;&gt;Node5 -->
<g id="edge12" class="edge">
<title>Node11&#45;&gt;Node5</title>
<path fill="none" stroke="midnightblue" d="M180.22,-58.22C184.02,-57.46 187.84,-56.71 191.5,-56 264.97,-41.71 351.34,-25.53 397.14,-17.01"/>
<polygon fill="midnightblue" stroke="midnightblue" points="179.44,-54.8 170.31,-60.19 180.8,-61.67 179.44,-54.8"/>
</g>
<!-- Node13 -->
<g id="node13" class="node">
<title>Node13</title>
<g id="a_node13"><a xlink:href="api_2pool__types_8h.html" target="_top" xlink:title=" ">
<polygon fill="white" stroke="black" points="315,-392.5 315,-411.5 394,-411.5 394,-392.5 315,-392.5"/>
<text text-anchor="middle" x="354.5" y="-399.5" font-family="Helvetica,sans-Serif" font-size="10.00">pool_types.h</text>
</a>
</g>
</g>
<!-- Node12&#45;&gt;Node13 -->
<g id="edge14" class="edge">
<title>Node12&#45;&gt;Node13</title>
<path fill="none" stroke="midnightblue" d="M354.5,-437.8C354.5,-428.91 354.5,-418.78 354.5,-411.75"/>
<polygon fill="midnightblue" stroke="midnightblue" points="351,-438.08 354.5,-448.08 358,-438.08 351,-438.08"/>
</g>
<!-- Node13&#45;&gt;Node3 -->
<g id="edge15" class="edge">
<title>Node13&#45;&gt;Node3</title>
<path fill="none" stroke="midnightblue" d="M306.6,-390.22C256.95,-379.05 181.12,-361.99 141.2,-353.01"/>
<polygon fill="midnightblue" stroke="midnightblue" points="305.95,-393.66 316.47,-392.44 307.48,-386.83 305.95,-393.66"/>
</g>
<!-- Node13&#45;&gt;Node10 -->
<g id="edge29" class="edge">
<title>Node13&#45;&gt;Node10</title>
<path fill="none" stroke="midnightblue" d="M324.05,-388.64C299.09,-378.5 264.42,-364.43 242.48,-355.52"/>
<polygon fill="midnightblue" stroke="midnightblue" points="322.84,-391.92 333.43,-392.44 325.48,-385.44 322.84,-391.92"/>
</g>
<!-- Node14 -->
<g id="node14" class="node">
<title>Node14</title>
<g id="a_node14"><a xlink:href="api_2spec_2classification_8h.html" target="_top" xlink:title=" ">
<polygon fill="white" stroke="black" points="453,-224.5 453,-243.5 542,-243.5 542,-224.5 453,-224.5"/>
<text text-anchor="middle" x="497.5" y="-231.5" font-family="Helvetica,sans-Serif" font-size="10.00">classification.h</text>
</a>
</g>
</g>
<!-- Node13&#45;&gt;Node14 -->
<g id="edge16" class="edge">
<title>Node13&#45;&gt;Node14</title>
<path fill="none" stroke="midnightblue" d="M404.17,-395.63C430.81,-390.09 461.9,-378.83 480.5,-356 507.83,-322.45 502.4,-265.53 499.06,-243.8"/>
<polygon fill="midnightblue" stroke="midnightblue" points="403.4,-392.21 394.21,-397.49 404.68,-399.1 403.4,-392.21"/>
</g>
<!-- Node20 -->
<g id="node20" class="node">
<title>Node20</title>
<g id="a_node20"><a xlink:href="api_2spec_2crypto_8h.html" target="_top" xlink:title=" ">
<polygon fill="white" stroke="black" points="527.5,-280.5 527.5,-299.5 583.5,-299.5 583.5,-280.5 527.5,-280.5"/>
<text text-anchor="middle" x="555.5" y="-287.5" font-family="Helvetica,sans-Serif" font-size="10.00">crypto.h</text>
</a>
</g>
</g>
<!-- Node13&#45;&gt;Node20 -->
<g id="edge25" class="edge">
<title>Node13&#45;&gt;Node20</title>
<path fill="none" stroke="midnightblue" d="M404.26,-396.15C437.82,-390.8 481.61,-379.57 513.5,-356 533.6,-341.15 546.66,-313.56 552.3,-299.59"/>
<polygon fill="midnightblue" stroke="midnightblue" points="403.59,-392.71 394.2,-397.63 404.6,-399.64 403.59,-392.71"/>
</g>
<!-- Node13&#45;&gt;Node22 -->
<g id="edge30" class="edge">
<title>Node13&#45;&gt;Node22</title>
<path fill="none" stroke="midnightblue" d="M331.79,-386.44C319.6,-378.16 304.63,-367.23 292.5,-356 251.4,-317.96 210.72,-264.17 195.63,-243.52"/>
<polygon fill="midnightblue" stroke="midnightblue" points="330.21,-389.6 340.48,-392.22 334.09,-383.77 330.21,-389.6"/>
</g>
<!-- Node24 -->
<g id="node24" class="node">
<title>Node24</title>
<g id="a_node24"><a xlink:href="api_2spec_2packet__io__types_8h.html" target="_top" xlink:title=" ">
<polygon fill="white" stroke="black" points="367.5,-336.5 367.5,-355.5 471.5,-355.5 471.5,-336.5 367.5,-336.5"/>
<text text-anchor="middle" x="419.5" y="-343.5" font-family="Helvetica,sans-Serif" font-size="10.00">packet_io_types.h</text>
</a>
</g>
</g>
<!-- Node13&#45;&gt;Node24 -->
<g id="edge33" class="edge">
<title>Node13&#45;&gt;Node24</title>
<path fill="none" stroke="midnightblue" d="M372.77,-385.82C384.42,-376.15 399.1,-363.95 408.87,-355.83"/>
<polygon fill="midnightblue" stroke="midnightblue" points="370.4,-383.24 364.94,-392.32 374.87,-388.63 370.4,-383.24"/>
</g>
<!-- Node28 -->
<g id="node28" class="node">
<title>Node28</title>
<g id="a_node28"><a xlink:href="api_2spec_2pool_8h.html" target="_top" xlink:title=" ">
<polygon fill="white" stroke="black" points="302,-336.5 302,-355.5 349,-355.5 349,-336.5 302,-336.5"/>
<text text-anchor="middle" x="325.5" y="-343.5" font-family="Helvetica,sans-Serif" font-size="10.00">pool.h</text>
</a>
</g>
</g>
<!-- Node13&#45;&gt;Node28 -->
<g id="edge43" class="edge">
<title>Node13&#45;&gt;Node28</title>
<path fill="none" stroke="midnightblue" d="M344.82,-382.98C339.9,-373.82 334.14,-363.09 330.2,-355.75"/>
<polygon fill="midnightblue" stroke="midnightblue" points="341.9,-384.93 349.71,-392.08 348.06,-381.62 341.9,-384.93"/>
</g>
<!-- Node13&#45;&gt;Node30 -->
<g id="edge46" class="edge">
<title>Node13&#45;&gt;Node30</title>
<path fill="none" stroke="midnightblue" d="M401.85,-390.21C451.17,-378.97 526.59,-361.79 565.81,-352.85"/>
<polygon fill="midnightblue" stroke="midnightblue" points="401.03,-386.81 392.05,-392.44 402.58,-393.63 401.03,-386.81"/>
</g>
<!-- Node15 -->
<g id="node15" class="node">
<title>Node15</title>
<g id="a_node15"><a xlink:href="api_2classification_8h.html" target="_top" xlink:title=" ">
<polygon fill="white" stroke="black" points="453,-168.5 453,-187.5 542,-187.5 542,-168.5 453,-168.5"/>
<text text-anchor="middle" x="497.5" y="-175.5" font-family="Helvetica,sans-Serif" font-size="10.00">classification.h</text>
</a>
</g>
</g>
<!-- Node14&#45;&gt;Node15 -->
<g id="edge17" class="edge">
<title>Node14&#45;&gt;Node15</title>
<path fill="none" stroke="midnightblue" d="M497.5,-213.8C497.5,-204.91 497.5,-194.78 497.5,-187.75"/>
<polygon fill="midnightblue" stroke="midnightblue" points="494,-214.08 497.5,-224.08 501,-214.08 494,-214.08"/>
</g>
<!-- Node15&#45;&gt;Node5 -->
<g id="edge24" class="edge">
<title>Node15&#45;&gt;Node5</title>
<path fill="none" stroke="midnightblue" d="M504.1,-158.74C511.91,-133.78 521.73,-88.42 503.5,-56 493.48,-38.18 473.22,-26.59 456.43,-19.64"/>
<polygon fill="midnightblue" stroke="midnightblue" points="500.73,-157.78 500.86,-168.37 507.36,-160.01 500.73,-157.78"/>
</g>
<!-- Node16 -->
<g id="node16" class="node">
<title>Node16</title>
<g id="a_node16"><a xlink:href="api_2spec_2ipsec_8h.html" target="_top" xlink:title=" ">
<polygon fill="white" stroke="black" points="444,-112.5 444,-131.5 495,-131.5 495,-112.5 444,-112.5"/>
<text text-anchor="middle" x="469.5" y="-119.5" font-family="Helvetica,sans-Serif" font-size="10.00">ipsec.h</text>
</a>
</g>
</g>
<!-- Node15&#45;&gt;Node16 -->
<g id="edge18" class="edge">
<title>Node15&#45;&gt;Node16</title>
<path fill="none" stroke="midnightblue" d="M488.16,-158.98C483.41,-149.82 477.84,-139.09 474.04,-131.75"/>
<polygon fill="midnightblue" stroke="midnightblue" points="485.17,-160.82 492.88,-168.08 491.38,-157.59 485.17,-160.82"/>
</g>
<!-- Node18 -->
<g id="node18" class="node">
<title>Node18</title>
<g id="a_node18"><a xlink:href="api_2spec_2packet__io_8h.html" target="_top" xlink:title=" ">
<polygon fill="white" stroke="black" points="353.5,-112.5 353.5,-131.5 425.5,-131.5 425.5,-112.5 353.5,-112.5"/>
<text text-anchor="middle" x="389.5" y="-119.5" font-family="Helvetica,sans-Serif" font-size="10.00">packet_io.h</text>
</a>
</g>
</g>
<!-- Node15&#45;&gt;Node18 -->
<g id="edge21" class="edge">
<title>Node15&#45;&gt;Node18</title>
<path fill="none" stroke="midnightblue" d="M470.95,-163.73C450.95,-153.73 424.11,-140.31 406.81,-131.65"/>
<polygon fill="midnightblue" stroke="midnightblue" points="469.64,-166.98 480.15,-168.32 472.77,-160.72 469.64,-166.98"/>
</g>
<!-- Node17 -->
<g id="node17" class="node">
<title>Node17</title>
<g id="a_node17"><a xlink:href="api_2ipsec_8h.html" target="_top" xlink:title=" ">
<polygon fill="white" stroke="black" points="444,-56.5 444,-75.5 495,-75.5 495,-56.5 444,-56.5"/>
<text text-anchor="middle" x="469.5" y="-63.5" font-family="Helvetica,sans-Serif" font-size="10.00">ipsec.h</text>
</a>
</g>
</g>
<!-- Node16&#45;&gt;Node17 -->
<g id="edge19" class="edge">
<title>Node16&#45;&gt;Node17</title>
<path fill="none" stroke="midnightblue" d="M469.5,-101.8C469.5,-92.91 469.5,-82.78 469.5,-75.75"/>
<polygon fill="midnightblue" stroke="midnightblue" points="466,-102.08 469.5,-112.08 473,-102.08 466,-102.08"/>
</g>
<!-- Node17&#45;&gt;Node5 -->
<g id="edge20" class="edge">
<title>Node17&#45;&gt;Node5</title>
<path fill="none" stroke="midnightblue" d="M456.8,-47.86C449.87,-38.5 441.59,-27.33 435.98,-19.75"/>
<polygon fill="midnightblue" stroke="midnightblue" points="454.13,-50.13 462.89,-56.08 459.75,-45.96 454.13,-50.13"/>
</g>
<!-- Node19 -->
<g id="node19" class="node">
<title>Node19</title>
<g id="a_node19"><a xlink:href="api_2packet__io_8h.html" target="_top" xlink:title=" ">
<polygon fill="white" stroke="black" points="353.5,-56.5 353.5,-75.5 425.5,-75.5 425.5,-56.5 353.5,-56.5"/>
<text text-anchor="middle" x="389.5" y="-63.5" font-family="Helvetica,sans-Serif" font-size="10.00">packet_io.h</text>
</a>
</g>
</g>
<!-- Node18&#45;&gt;Node19 -->
<g id="edge22" class="edge">
<title>Node18&#45;&gt;Node19</title>
<path fill="none" stroke="midnightblue" d="M389.5,-101.8C389.5,-92.91 389.5,-82.78 389.5,-75.75"/>
<polygon fill="midnightblue" stroke="midnightblue" points="386,-102.08 389.5,-112.08 393,-102.08 386,-102.08"/>
</g>
<!-- Node19&#45;&gt;Node5 -->
<g id="edge23" class="edge">
<title>Node19&#45;&gt;Node5</title>
<path fill="none" stroke="midnightblue" d="M402.2,-47.86C409.13,-38.5 417.41,-27.33 423.02,-19.75"/>
<polygon fill="midnightblue" stroke="midnightblue" points="399.25,-45.96 396.11,-56.08 404.87,-50.13 399.25,-45.96"/>
</g>
<!-- Node21 -->
<g id="node21" class="node">
<title>Node21</title>
<g id="a_node21"><a xlink:href="api_2crypto_8h.html" target="_top" xlink:title=" ">
<polygon fill="white" stroke="black" points="559.5,-168.5 559.5,-187.5 615.5,-187.5 615.5,-168.5 559.5,-168.5"/>
<text text-anchor="middle" x="587.5" y="-175.5" font-family="Helvetica,sans-Serif" font-size="10.00">crypto.h</text>
</a>
</g>
</g>
<!-- Node20&#45;&gt;Node21 -->
<g id="edge26" class="edge">
<title>Node20&#45;&gt;Node21</title>
<path fill="none" stroke="midnightblue" d="M560.83,-270.67C567.83,-246.62 579.82,-205.39 585,-187.59"/>
<polygon fill="midnightblue" stroke="midnightblue" points="557.44,-269.79 558.01,-280.37 564.17,-271.74 557.44,-269.79"/>
</g>
<!-- Node21&#45;&gt;Node5 -->
<g id="edge28" class="edge">
<title>Node21&#45;&gt;Node5</title>
<path fill="none" stroke="midnightblue" d="M581.5,-158.56C572.28,-132.7 552.37,-85.52 521.5,-56 503.38,-38.67 477.31,-26.78 457.55,-19.59"/>
<polygon fill="midnightblue" stroke="midnightblue" points="578.26,-159.9 584.8,-168.23 584.88,-157.63 578.26,-159.9"/>
</g>
<!-- Node21&#45;&gt;Node16 -->
<g id="edge27" class="edge">
<title>Node21&#45;&gt;Node16</title>
<path fill="none" stroke="midnightblue" d="M559.6,-164.23C537.53,-154.13 507.32,-140.31 488.11,-131.52"/>
<polygon fill="midnightblue" stroke="midnightblue" points="558.25,-167.46 568.8,-168.44 561.17,-161.1 558.25,-167.46"/>
</g>
<!-- Node23 -->
<g id="node23" class="node">
<title>Node23</title>
<g id="a_node23"><a xlink:href="api_2packet_8h.html" target="_top" xlink:title=" ">
<polygon fill="white" stroke="black" points="160.5,-112.5 160.5,-131.5 218.5,-131.5 218.5,-112.5 160.5,-112.5"/>
<text text-anchor="middle" x="189.5" y="-119.5" font-family="Helvetica,sans-Serif" font-size="10.00">packet.h</text>
</a>
</g>
</g>
<!-- Node22&#45;&gt;Node23 -->
<g id="edge31" class="edge">
<title>Node22&#45;&gt;Node23</title>
<path fill="none" stroke="midnightblue" d="M189.5,-214.35C189.5,-190.25 189.5,-149.31 189.5,-131.59"/>
<polygon fill="midnightblue" stroke="midnightblue" points="186,-214.37 189.5,-224.37 193,-214.37 186,-214.37"/>
</g>
<!-- Node23&#45;&gt;Node5 -->
<g id="edge32" class="edge">
<title>Node23&#45;&gt;Node5</title>
<path fill="none" stroke="midnightblue" d="M196.77,-103.07C203.74,-88.19 215.69,-67.64 232.5,-56 282.69,-21.26 355.66,-12.95 397.26,-11.2"/>
<polygon fill="midnightblue" stroke="midnightblue" points="193.54,-101.73 192.75,-112.29 199.96,-104.53 193.54,-101.73"/>
</g>
<!-- Node25 -->
<g id="node25" class="node">
<title>Node25</title>
<g id="a_node25"><a xlink:href="api_2packet__io__types_8h.html" target="_top" xlink:title=" ">
<polygon fill="white" stroke="black" points="367.5,-280.5 367.5,-299.5 471.5,-299.5 471.5,-280.5 367.5,-280.5"/>
<text text-anchor="middle" x="419.5" y="-287.5" font-family="Helvetica,sans-Serif" font-size="10.00">packet_io_types.h</text>
</a>
</g>
</g>
<!-- Node24&#45;&gt;Node25 -->
<g id="edge34" class="edge">
<title>Node24&#45;&gt;Node25</title>
<path fill="none" stroke="midnightblue" d="M419.5,-325.8C419.5,-316.91 419.5,-306.78 419.5,-299.75"/>
<polygon fill="midnightblue" stroke="midnightblue" points="416,-326.08 419.5,-336.08 423,-326.08 416,-326.08"/>
</g>
<!-- Node25&#45;&gt;Node14 -->
<g id="edge35" class="edge">
<title>Node25&#45;&gt;Node14</title>
<path fill="none" stroke="midnightblue" d="M440.27,-274.62C454.52,-264.76 472.96,-251.99 485,-243.65"/>
<polygon fill="midnightblue" stroke="midnightblue" points="438.26,-271.75 432.03,-280.32 442.25,-277.51 438.26,-271.75"/>
</g>
<!-- Node25&#45;&gt;Node16 -->
<g id="edge36" class="edge">
<title>Node25&#45;&gt;Node16</title>
<path fill="none" stroke="midnightblue" d="M421.29,-270.24C424.04,-246 430.41,-202.78 443.5,-168 448.58,-154.49 457.47,-140.29 463.42,-131.54"/>
<polygon fill="midnightblue" stroke="midnightblue" points="417.81,-269.91 420.25,-280.22 424.77,-270.64 417.81,-269.91"/>
</g>
<!-- Node25&#45;&gt;Node18 -->
<g id="edge38" class="edge">
<title>Node25&#45;&gt;Node18</title>
<path fill="none" stroke="midnightblue" d="M357.5,-279.45C336.84,-272.99 315.93,-262.16 303.5,-244 284.42,-216.13 286.01,-196.9 303.5,-168 314.76,-149.4 336.51,-138.12 355.32,-131.51"/>
<polygon fill="midnightblue" stroke="midnightblue" points="356.7,-282.86 367.27,-282.2 358.6,-276.12 356.7,-282.86"/>
</g>
<!-- Node25&#45;&gt;Node22 -->
<g id="edge37" class="edge">
<title>Node25&#45;&gt;Node22</title>
<path fill="none" stroke="midnightblue" d="M373.31,-278.16C327.24,-267.34 257.86,-251.05 218.84,-241.89"/>
<polygon fill="midnightblue" stroke="midnightblue" points="372.52,-281.57 383.06,-280.44 374.12,-274.75 372.52,-281.57"/>
</g>
<!-- Node26 -->
<g id="node26" class="node">
<title>Node26</title>
<g id="a_node26"><a xlink:href="api_2spec_2traffic__mngr_8h.html" target="_top" xlink:title=" ">
<polygon fill="white" stroke="black" points="312.5,-224.5 312.5,-243.5 396.5,-243.5 396.5,-224.5 312.5,-224.5"/>
<text text-anchor="middle" x="354.5" y="-231.5" font-family="Helvetica,sans-Serif" font-size="10.00">traffic_mngr.h</text>
</a>
</g>
</g>
<!-- Node25&#45;&gt;Node26 -->
<g id="edge39" class="edge">
<title>Node25&#45;&gt;Node26</title>
<path fill="none" stroke="midnightblue" d="M401.23,-273.82C389.58,-264.15 374.9,-251.95 365.13,-243.83"/>
<polygon fill="midnightblue" stroke="midnightblue" points="399.13,-276.63 409.06,-280.32 403.6,-271.24 399.13,-276.63"/>
</g>
<!-- Node27 -->
<g id="node27" class="node">
<title>Node27</title>
<g id="a_node27"><a xlink:href="api_2traffic__mngr_8h.html" target="_top" xlink:title=" ">
<polygon fill="white" stroke="black" points="312.5,-168.5 312.5,-187.5 396.5,-187.5 396.5,-168.5 312.5,-168.5"/>
<text text-anchor="middle" x="354.5" y="-175.5" font-family="Helvetica,sans-Serif" font-size="10.00">traffic_mngr.h</text>
</a>
</g>
</g>
<!-- Node26&#45;&gt;Node27 -->
<g id="edge40" class="edge">
<title>Node26&#45;&gt;Node27</title>
<path fill="none" stroke="midnightblue" d="M354.5,-213.8C354.5,-204.91 354.5,-194.78 354.5,-187.75"/>
<polygon fill="midnightblue" stroke="midnightblue" points="351,-214.08 354.5,-224.08 358,-214.08 351,-214.08"/>
</g>
<!-- Node27&#45;&gt;Node5 -->
<g id="edge42" class="edge">
<title>Node27&#45;&gt;Node5</title>
<path fill="none" stroke="midnightblue" d="M346.83,-158.94C337.49,-133.89 325.19,-88.08 344.5,-56 355.95,-36.97 378.45,-25.57 397.42,-19.01"/>
<polygon fill="midnightblue" stroke="midnightblue" points="343.61,-160.3 350.55,-168.3 350.11,-157.72 343.61,-160.3"/>
</g>
<!-- Node27&#45;&gt;Node16 -->
<g id="edge41" class="edge">
<title>Node27&#45;&gt;Node16</title>
<path fill="none" stroke="midnightblue" d="M381.98,-164.1C403.47,-154.01 432.72,-140.27 451.36,-131.52"/>
<polygon fill="midnightblue" stroke="midnightblue" points="380.29,-161.02 372.72,-168.44 383.26,-167.36 380.29,-161.02"/>
</g>
<!-- Node29 -->
<g id="node29" class="node">
<title>Node29</title>
<g id="a_node29"><a xlink:href="api_2pool_8h.html" target="_top" xlink:title=" ">
<polygon fill="white" stroke="black" points="302,-280.5 302,-299.5 349,-299.5 349,-280.5 302,-280.5"/>
<text text-anchor="middle" x="325.5" y="-287.5" font-family="Helvetica,sans-Serif" font-size="10.00">pool.h</text>
</a>
</g>
</g>
<!-- Node28&#45;&gt;Node29 -->
<g id="edge44" class="edge">
<title>Node28&#45;&gt;Node29</title>
<path fill="none" stroke="midnightblue" d="M325.5,-325.8C325.5,-316.91 325.5,-306.78 325.5,-299.75"/>
<polygon fill="midnightblue" stroke="midnightblue" points="322,-326.08 325.5,-336.08 329,-326.08 322,-326.08"/>
</g>
<!-- Node29&#45;&gt;Node5 -->
<g id="edge45" class="edge">
<title>Node29&#45;&gt;Node5</title>
<path fill="none" stroke="midnightblue" d="M305.16,-273.97C281.75,-254.78 246.5,-219.21 246.5,-179 246.5,-179 246.5,-179 246.5,-121 246.5,-51.5 344.67,-24.8 397.2,-15.48"/>
<polygon fill="midnightblue" stroke="midnightblue" points="303.14,-276.83 313.16,-280.28 307.47,-271.34 303.14,-276.83"/>
</g>
<!-- Node31 -->
<g id="node31" class="node">
<title>Node31</title>
<g id="a_node31"><a xlink:href="api_2timer_8h.html" target="_top" xlink:title=" ">
<polygon fill="white" stroke="black" points="602,-280.5 602,-299.5 653,-299.5 653,-280.5 602,-280.5"/>
<text text-anchor="middle" x="627.5" y="-287.5" font-family="Helvetica,sans-Serif" font-size="10.00">timer.h</text>
</a>
</g>
</g>
<!-- Node30&#45;&gt;Node31 -->
<g id="edge47" class="edge">
<title>Node30&#45;&gt;Node31</title>
<path fill="none" stroke="midnightblue" d="M603.12,-327.57C609.32,-318.27 616.67,-307.25 621.67,-299.75"/>
<polygon fill="midnightblue" stroke="midnightblue" points="600.08,-325.82 597.44,-336.08 605.9,-329.7 600.08,-325.82"/>
</g>
<!-- Node31&#45;&gt;Node5 -->
<g id="edge48" class="edge">
<title>Node31&#45;&gt;Node5</title>
<path fill="none" stroke="midnightblue" d="M631.89,-270.34C636.63,-248.56 643.5,-211.37 643.5,-179 643.5,-179 643.5,-179 643.5,-121 643.5,-40.17 521.24,-18.69 461.54,-13.01"/>
<polygon fill="midnightblue" stroke="midnightblue" points="628.45,-269.7 629.66,-280.22 635.28,-271.24 628.45,-269.7"/>
</g>
<!-- Node33 -->
<g id="node33" class="node">
<title>Node33</title>
<g id="a_node33"><a xlink:href="api_2event_8h.html" target="_top" xlink:title=" ">
<polygon fill="white" stroke="black" points="620,-448.5 620,-467.5 673,-467.5 673,-448.5 620,-448.5"/>
<text text-anchor="middle" x="646.5" y="-455.5" font-family="Helvetica,sans-Serif" font-size="10.00">event.h</text>
</a>
</g>
</g>
<!-- Node32&#45;&gt;Node33 -->
<g id="edge50" class="edge">
<title>Node32&#45;&gt;Node33</title>
<path fill="none" stroke="midnightblue" d="M634.87,-550.35C637.94,-526.25 643.15,-485.31 645.41,-467.59"/>
<polygon fill="midnightblue" stroke="midnightblue" points="631.39,-550.01 633.6,-560.37 638.33,-550.89 631.39,-550.01"/>
</g>
<!-- Node33&#45;&gt;Node5 -->
<g id="edge51" class="edge">
<title>Node33&#45;&gt;Node5</title>
<path fill="none" stroke="midnightblue" d="M651.54,-438.06C661.22,-399.92 681.5,-311.02 681.5,-235 681.5,-235 681.5,-235 681.5,-121 681.5,-26.12 529.61,-12.26 461.67,-10.81"/>
<polygon fill="midnightblue" stroke="midnightblue" points="648.03,-437.64 648.91,-448.2 654.81,-439.4 648.03,-437.64"/>
</g>
<!-- Node35 -->
<g id="node35" class="node">
<title>Node35</title>
<g id="a_node35"><a xlink:href="api_2queue_8h.html" target="_top" xlink:title=" ">
<polygon fill="white" stroke="black" points="702.5,-392.5 702.5,-411.5 758.5,-411.5 758.5,-392.5 702.5,-392.5"/>
<text text-anchor="middle" x="730.5" y="-399.5" font-family="Helvetica,sans-Serif" font-size="10.00">queue.h</text>
</a>
</g>
</g>
<!-- Node34&#45;&gt;Node35 -->
<g id="edge54" class="edge">
<title>Node34&#45;&gt;Node35</title>
<path fill="none" stroke="midnightblue" d="M708.37,-549.93C713.8,-513.92 725.34,-437.23 729.21,-411.57"/>
<polygon fill="midnightblue" stroke="midnightblue" points="704.87,-549.67 706.84,-560.08 711.79,-550.71 704.87,-549.67"/>
</g>
<!-- Node35&#45;&gt;Node5 -->
<g id="edge55" class="edge">
<title>Node35&#45;&gt;Node5</title>
<path fill="none" stroke="midnightblue" d="M729.95,-382.25C729.36,-360.36 728.5,-323.06 728.5,-291 728.5,-291 728.5,-291 728.5,-121 728.5,-88.6 721.6,-75.2 695.5,-56 658.81,-29.01 524.33,-17.05 461.83,-12.87"/>
<polygon fill="midnightblue" stroke="midnightblue" points="726.46,-382.55 730.24,-392.44 733.46,-382.35 726.46,-382.55"/>
</g>
<!-- Node37 -->
<g id="node37" class="node">
<title>Node37</title>
<g id="a_node37"><a xlink:href="api_2schedule_8h.html" target="_top" xlink:title=" ">
<polygon fill="white" stroke="black" points="752,-504.5 752,-523.5 821,-523.5 821,-504.5 752,-504.5"/>
<text text-anchor="middle" x="786.5" y="-511.5" font-family="Helvetica,sans-Serif" font-size="10.00">schedule.h</text>
</a>
</g>
</g>
<!-- Node36&#45;&gt;Node37 -->
<g id="edge57" class="edge">
<title>Node36&#45;&gt;Node37</title>
<path fill="none" stroke="midnightblue" d="M786.5,-549.8C786.5,-540.91 786.5,-530.78 786.5,-523.75"/>
<polygon fill="midnightblue" stroke="midnightblue" points="783,-550.08 786.5,-560.08 790,-550.08 783,-550.08"/>
</g>
<!-- Node37&#45;&gt;Node5 -->
<g id="edge58" class="edge">
<title>Node37&#45;&gt;Node5</title>
<path fill="none" stroke="midnightblue" d="M786.5,-494.25C786.5,-472.36 786.5,-435.05 786.5,-403 786.5,-403 786.5,-403 786.5,-121 786.5,-79.83 757.29,-74.48 720.5,-56 675.51,-33.39 527.44,-18.93 461.58,-13.47"/>
<polygon fill="midnightblue" stroke="midnightblue" points="783,-494.44 786.5,-504.44 790,-494.44 783,-494.44"/>
</g>
<!-- Node39 -->
<g id="node39" class="node">
<title>Node39</title>
<g id="a_node39"><a xlink:href="api_2timer__types_8h.html" target="_top" xlink:title=" ">
<polygon fill="white" stroke="black" points="465.5,-392.5 465.5,-411.5 549.5,-411.5 549.5,-392.5 465.5,-392.5"/>
<text text-anchor="middle" x="507.5" y="-399.5" font-family="Helvetica,sans-Serif" font-size="10.00">timer_types.h</text>
</a>
</g>
</g>
<!-- Node38&#45;&gt;Node39 -->
<g id="edge61" class="edge">
<title>Node38&#45;&gt;Node39</title>
<path fill="none" stroke="midnightblue" d="M507.5,-549.93C507.5,-513.92 507.5,-437.23 507.5,-411.57"/>
<polygon fill="midnightblue" stroke="midnightblue" points="504,-550.08 507.5,-560.08 511,-550.08 504,-550.08"/>
</g>
<!-- Node39&#45;&gt;Node30 -->
<g id="edge62" class="edge">
<title>Node39&#45;&gt;Node30</title>
<path fill="none" stroke="midnightblue" d="M529.43,-386.9C544.84,-377 564.95,-364.07 578.04,-355.65"/>
<polygon fill="midnightblue" stroke="midnightblue" points="527.52,-383.97 521,-392.32 531.3,-389.86 527.52,-383.97"/>
</g>
</g>
</svg>
