<?xml version="1.0" encoding="UTF-8" standalone="no"?>
<!DOCTYPE svg PUBLIC "-//W3C//DTD SVG 1.1//EN"
 "http://www.w3.org/Graphics/SVG/1.1/DTD/svg11.dtd">
<!-- Generated by graphviz version 2.43.0 (0)
 -->
<!-- Title: pool.h Pages: 1 -->
<svg width="1336pt" height="979pt"
 viewBox="0.00 0.00 1336.00 979.00" xmlns="http://www.w3.org/2000/svg" xmlns:xlink="http://www.w3.org/1999/xlink">
<g id="graph0" class="graph" transform="scale(1 1) rotate(0) translate(4 975)">
<title>pool.h</title>
<polygon fill="white" stroke="transparent" points="-4,4 -4,-975 1332,-975 1332,4 -4,4"/>
<!-- Node1 -->
<g id="node1" class="node">
<title>Node1</title>
<g id="a_node1"><a xlink:title=" ">
<polygon fill="#bfbfbf" stroke="black" points="91.5,-951.5 91.5,-970.5 138.5,-970.5 138.5,-951.5 91.5,-951.5"/>
<text text-anchor="middle" x="115" y="-958.5" font-family="Helvetica,sans-Serif" font-size="10.00">pool.h</text>
</a>
</g>
</g>
<!-- Node2 -->
<g id="node2" class="node">
<title>Node2</title>
<g id="a_node2"><a xlink:title=" ">
<polygon fill="white" stroke="#bfbfbf" points="0,-895.5 0,-914.5 104,-914.5 104,-895.5 0,-895.5"/>
<text text-anchor="middle" x="52" y="-902.5" font-family="Helvetica,sans-Serif" font-size="10.00">odp/api/abi/pool.h</text>
</a>
</g>
</g>
<!-- Node1&#45;&gt;Node2 -->
<g id="edge1" class="edge">
<title>Node1&#45;&gt;Node2</title>
<path fill="none" stroke="midnightblue" d="M104.88,-951.32C95.47,-943.26 81.26,-931.08 69.93,-921.37"/>
<polygon fill="midnightblue" stroke="midnightblue" points="72.18,-918.68 62.31,-914.83 67.62,-924 72.18,-918.68"/>
</g>
<!-- Node3 -->
<g id="node3" class="node">
<title>Node3</title>
<g id="a_node3"><a xlink:href="api_2spec_2pool_8h.html" target="_top" xlink:title=" ">
<polygon fill="white" stroke="black" points="122.5,-895.5 122.5,-914.5 233.5,-914.5 233.5,-895.5 122.5,-895.5"/>
<text text-anchor="middle" x="178" y="-902.5" font-family="Helvetica,sans-Serif" font-size="10.00">odp/api/spec/pool.h</text>
</a>
</g>
</g>
<!-- Node1&#45;&gt;Node3 -->
<g id="edge2" class="edge">
<title>Node1&#45;&gt;Node3</title>
<path fill="none" stroke="midnightblue" d="M125.12,-951.32C134.53,-943.26 148.74,-931.08 160.07,-921.37"/>
<polygon fill="midnightblue" stroke="midnightblue" points="162.38,-924 167.69,-914.83 157.82,-918.68 162.38,-924"/>
</g>
<!-- Node4 -->
<g id="node4" class="node">
<title>Node4</title>
<g id="a_node4"><a xlink:href="visibility__begin_8h_source.html" target="_top" xlink:title=" ">
<polygon fill="white" stroke="black" points="938.5,-0.5 938.5,-19.5 1059.5,-19.5 1059.5,-0.5 938.5,-0.5"/>
<text text-anchor="middle" x="999" y="-7.5" font-family="Helvetica,sans-Serif" font-size="10.00">odp/visibility_begin.h</text>
</a>
</g>
</g>
<!-- Node3&#45;&gt;Node4 -->
<g id="edge3" class="edge">
<title>Node3&#45;&gt;Node4</title>
<path fill="none" stroke="midnightblue" d="M233.86,-904.59C464.16,-906.29 1328,-905.25 1328,-794 1328,-794 1328,-794 1328,-132 1328,-90.82 1309.85,-77.93 1275,-56 1241.71,-35.05 1139.99,-22.59 1069.81,-16.27"/>
<polygon fill="midnightblue" stroke="midnightblue" points="1069.96,-12.77 1059.69,-15.38 1069.35,-19.74 1069.96,-12.77"/>
</g>
<!-- Node5 -->
<g id="node5" class="node">
<title>Node5</title>
<g id="a_node5"><a xlink:href="api_2std__types_8h.html" target="_top" xlink:title=" ">
<polygon fill="white" stroke="black" points="321,-235.5 321,-254.5 433,-254.5 433,-235.5 321,-235.5"/>
<text text-anchor="middle" x="377" y="-242.5" font-family="Helvetica,sans-Serif" font-size="10.00">odp/api/std_types.h</text>
</a>
</g>
</g>
<!-- Node3&#45;&gt;Node5 -->
<g id="edge4" class="edge">
<title>Node3&#45;&gt;Node5</title>
<path fill="none" stroke="midnightblue" d="M171.05,-895.48C157.31,-877.75 128,-835.12 128,-794 128,-794 128,-794 128,-372.5 128,-290.42 236.89,-261.58 310.65,-251.46"/>
<polygon fill="midnightblue" stroke="midnightblue" points="311.34,-254.9 320.81,-250.15 310.44,-247.95 311.34,-254.9"/>
</g>
<!-- Node12 -->
<g id="node12" class="node">
<title>Node12</title>
<g id="a_node12"><a xlink:href="visibility__end_8h_source.html" target="_top" xlink:title=" ">
<polygon fill="white" stroke="black" points="463,-0.5 463,-19.5 575,-19.5 575,-0.5 463,-0.5"/>
<text text-anchor="middle" x="519" y="-7.5" font-family="Helvetica,sans-Serif" font-size="10.00">odp/visibility_end.h</text>
</a>
</g>
</g>
<!-- Node3&#45;&gt;Node12 -->
<g id="edge56" class="edge">
<title>Node3&#45;&gt;Node12</title>
<path fill="none" stroke="midnightblue" d="M153.71,-895.47C117.09,-880.88 52,-847.43 52,-794 52,-794 52,-794 52,-132 52,-92.28 65.39,-77.16 99,-56 156.3,-19.93 349.46,-12.48 452.68,-11.13"/>
<polygon fill="midnightblue" stroke="midnightblue" points="453.02,-14.63 462.98,-11.01 452.94,-7.63 453.02,-14.63"/>
</g>
<!-- Node13 -->
<g id="node13" class="node">
<title>Node13</title>
<g id="a_node13"><a xlink:href="api_2pool__types_8h.html" target="_top" xlink:title=" ">
<polygon fill="white" stroke="black" points="169,-839.5 169,-858.5 287,-858.5 287,-839.5 169,-839.5"/>
<text text-anchor="middle" x="228" y="-846.5" font-family="Helvetica,sans-Serif" font-size="10.00">odp/api/pool_types.h</text>
</a>
</g>
</g>
<!-- Node3&#45;&gt;Node13 -->
<g id="edge15" class="edge">
<title>Node3&#45;&gt;Node13</title>
<path fill="none" stroke="midnightblue" d="M186.26,-895.08C193.46,-887.3 204.11,-875.8 212.85,-866.37"/>
<polygon fill="midnightblue" stroke="midnightblue" points="215.67,-868.47 219.9,-858.75 210.53,-863.71 215.67,-868.47"/>
</g>
<!-- Node6 -->
<g id="node6" class="node">
<title>Node6</title>
<g id="a_node6"><a xlink:title=" ">
<polygon fill="white" stroke="#bfbfbf" points="160,-179.5 160,-198.5 290,-198.5 290,-179.5 160,-179.5"/>
<text text-anchor="middle" x="225" y="-186.5" font-family="Helvetica,sans-Serif" font-size="10.00">odp/api/abi/std_types.h</text>
</a>
</g>
</g>
<!-- Node5&#45;&gt;Node6 -->
<g id="edge5" class="edge">
<title>Node5&#45;&gt;Node6</title>
<path fill="none" stroke="midnightblue" d="M352.92,-235.44C327.46,-226.4 287.11,-212.06 258.54,-201.92"/>
<polygon fill="midnightblue" stroke="midnightblue" points="259.57,-198.57 248.97,-198.52 257.22,-205.16 259.57,-198.57"/>
</g>
<!-- Node7 -->
<g id="node7" class="node">
<title>Node7</title>
<g id="a_node7"><a xlink:href="api_2spec_2std__types_8h.html" target="_top" xlink:title=" ">
<polygon fill="white" stroke="black" points="308.5,-179.5 308.5,-198.5 445.5,-198.5 445.5,-179.5 308.5,-179.5"/>
<text text-anchor="middle" x="377" y="-186.5" font-family="Helvetica,sans-Serif" font-size="10.00">odp/api/spec/std_types.h</text>
</a>
</g>
</g>
<!-- Node5&#45;&gt;Node7 -->
<g id="edge6" class="edge">
<title>Node5&#45;&gt;Node7</title>
<path fill="none" stroke="midnightblue" d="M377,-235.08C377,-228.01 377,-217.86 377,-208.99"/>
<polygon fill="midnightblue" stroke="midnightblue" points="380.5,-208.75 377,-198.75 373.5,-208.75 380.5,-208.75"/>
</g>
<!-- Node7&#45;&gt;Node4 -->
<g id="edge7" class="edge">
<title>Node7&#45;&gt;Node4</title>
<path fill="none" stroke="midnightblue" d="M389.65,-179.41C401.33,-171.06 418.69,-157.52 431,-143 459.98,-108.81 444.11,-79.95 482,-56 518.83,-32.72 795.25,-18.93 928.11,-13.58"/>
<polygon fill="midnightblue" stroke="midnightblue" points="928.34,-17.07 938.19,-13.18 928.06,-10.08 928.34,-17.07"/>
</g>
<!-- Node8 -->
<g id="node8" class="node">
<title>Node8</title>
<g id="a_node8"><a xlink:title=" ">
<polygon fill="white" stroke="#bfbfbf" points="261.5,-123.5 261.5,-142.5 314.5,-142.5 314.5,-123.5 261.5,-123.5"/>
<text text-anchor="middle" x="288" y="-130.5" font-family="Helvetica,sans-Serif" font-size="10.00">stdint.h</text>
</a>
</g>
</g>
<!-- Node7&#45;&gt;Node8 -->
<g id="edge8" class="edge">
<title>Node7&#45;&gt;Node8</title>
<path fill="none" stroke="midnightblue" d="M362.7,-179.32C348.82,-170.9 327.51,-157.97 311.2,-148.07"/>
<polygon fill="midnightblue" stroke="midnightblue" points="312.63,-144.85 302.26,-142.65 309,-150.83 312.63,-144.85"/>
</g>
<!-- Node9 -->
<g id="node9" class="node">
<title>Node9</title>
<g id="a_node9"><a xlink:href="api_2align_8h.html" target="_top" xlink:title=" ">
<polygon fill="white" stroke="black" points="332.5,-123.5 332.5,-142.5 421.5,-142.5 421.5,-123.5 332.5,-123.5"/>
<text text-anchor="middle" x="377" y="-130.5" font-family="Helvetica,sans-Serif" font-size="10.00">odp/api/align.h</text>
</a>
</g>
</g>
<!-- Node7&#45;&gt;Node9 -->
<g id="edge9" class="edge">
<title>Node7&#45;&gt;Node9</title>
<path fill="none" stroke="midnightblue" d="M377,-179.08C377,-172.01 377,-161.86 377,-152.99"/>
<polygon fill="midnightblue" stroke="midnightblue" points="380.5,-152.75 377,-142.75 373.5,-152.75 380.5,-152.75"/>
</g>
<!-- Node7&#45;&gt;Node12 -->
<g id="edge14" class="edge">
<title>Node7&#45;&gt;Node12</title>
<path fill="none" stroke="midnightblue" d="M341.87,-179.45C273.59,-161.26 134.01,-115.49 186,-56 219.93,-17.18 365.75,-10.51 452.78,-10.11"/>
<polygon fill="midnightblue" stroke="midnightblue" points="452.83,-13.61 462.83,-10.09 452.82,-6.61 452.83,-13.61"/>
</g>
<!-- Node10 -->
<g id="node10" class="node">
<title>Node10</title>
<g id="a_node10"><a xlink:title=" ">
<polygon fill="white" stroke="#bfbfbf" points="194.5,-62 194.5,-81 301.5,-81 301.5,-62 194.5,-62"/>
<text text-anchor="middle" x="248" y="-69" font-family="Helvetica,sans-Serif" font-size="10.00">odp/api/abi/align.h</text>
</a>
</g>
</g>
<!-- Node9&#45;&gt;Node10 -->
<g id="edge10" class="edge">
<title>Node9&#45;&gt;Node10</title>
<path fill="none" stroke="midnightblue" d="M358.52,-123.48C336.87,-113.49 300.79,-96.85 275.77,-85.31"/>
<polygon fill="midnightblue" stroke="midnightblue" points="276.99,-82.02 266.45,-81.01 274.06,-88.38 276.99,-82.02"/>
</g>
<!-- Node11 -->
<g id="node11" class="node">
<title>Node11</title>
<g id="a_node11"><a xlink:href="api_2spec_2align_8h.html" target="_top" xlink:title=" ">
<polygon fill="white" stroke="black" points="320,-62 320,-81 434,-81 434,-62 320,-62"/>
<text text-anchor="middle" x="377" y="-69" font-family="Helvetica,sans-Serif" font-size="10.00">odp/api/spec/align.h</text>
</a>
</g>
</g>
<!-- Node9&#45;&gt;Node11 -->
<g id="edge11" class="edge">
<title>Node9&#45;&gt;Node11</title>
<path fill="none" stroke="midnightblue" d="M377,-123.48C377,-115.08 377,-101.98 377,-91.16"/>
<polygon fill="midnightblue" stroke="midnightblue" points="380.5,-91.01 377,-81.01 373.5,-91.01 380.5,-91.01"/>
</g>
<!-- Node11&#45;&gt;Node4 -->
<g id="edge12" class="edge">
<title>Node11&#45;&gt;Node4</title>
<path fill="none" stroke="midnightblue" d="M414.44,-61.98C425.22,-59.76 437.04,-57.56 448,-56 619.5,-31.57 823.06,-19.22 928.23,-14.06"/>
<polygon fill="midnightblue" stroke="midnightblue" points="928.58,-17.55 938.4,-13.57 928.24,-10.56 928.58,-17.55"/>
</g>
<!-- Node11&#45;&gt;Node12 -->
<g id="edge13" class="edge">
<title>Node11&#45;&gt;Node12</title>
<path fill="none" stroke="midnightblue" d="M397.35,-61.98C421.39,-51.9 461.6,-35.05 489.16,-23.5"/>
<polygon fill="midnightblue" stroke="midnightblue" points="490.82,-26.6 498.69,-19.51 488.12,-20.15 490.82,-26.6"/>
</g>
<!-- Node14 -->
<g id="node14" class="node">
<title>Node14</title>
<g id="a_node14"><a xlink:title=" ">
<polygon fill="white" stroke="#bfbfbf" points="318,-783.5 318,-802.5 454,-802.5 454,-783.5 318,-783.5"/>
<text text-anchor="middle" x="386" y="-790.5" font-family="Helvetica,sans-Serif" font-size="10.00">odp/api/abi/pool_types.h</text>
</a>
</g>
</g>
<!-- Node13&#45;&gt;Node14 -->
<g id="edge16" class="edge">
<title>Node13&#45;&gt;Node14</title>
<path fill="none" stroke="midnightblue" d="M253.04,-839.44C279.62,-830.36 321.81,-815.94 351.52,-805.78"/>
<polygon fill="midnightblue" stroke="midnightblue" points="352.75,-809.06 361.08,-802.52 350.49,-802.44 352.75,-809.06"/>
</g>
<!-- Node15 -->
<g id="node15" class="node">
<title>Node15</title>
<g id="a_node15"><a xlink:href="api_2spec_2pool__types_8h.html" target="_top" xlink:title=" ">
<polygon fill="white" stroke="black" points="156.5,-783.5 156.5,-802.5 299.5,-802.5 299.5,-783.5 156.5,-783.5"/>
<text text-anchor="middle" x="228" y="-790.5" font-family="Helvetica,sans-Serif" font-size="10.00">odp/api/spec/pool_types.h</text>
</a>
</g>
</g>
<!-- Node13&#45;&gt;Node15 -->
<g id="edge17" class="edge">
<title>Node13&#45;&gt;Node15</title>
<path fill="none" stroke="midnightblue" d="M228,-839.08C228,-832.01 228,-821.86 228,-812.99"/>
<polygon fill="midnightblue" stroke="midnightblue" points="231.5,-812.75 228,-802.75 224.5,-812.75 231.5,-812.75"/>
</g>
<!-- Node15&#45;&gt;Node4 -->
<g id="edge18" class="edge">
<title>Node15&#45;&gt;Node4</title>
<path fill="none" stroke="midnightblue" d="M299.55,-784.02C302.74,-783.67 305.9,-783.33 309,-783 417.95,-771.34 1290,-791.58 1290,-682 1290,-682 1290,-682 1290,-132 1290,-36.87 1155.77,-15.15 1069.64,-11"/>
<polygon fill="midnightblue" stroke="midnightblue" points="1069.79,-7.5 1059.65,-10.58 1069.5,-14.49 1069.79,-7.5"/>
</g>
<!-- Node15&#45;&gt;Node5 -->
<g id="edge19" class="edge">
<title>Node15&#45;&gt;Node5</title>
<path fill="none" stroke="midnightblue" d="M224.76,-783.3C218.21,-764.89 204,-720.51 204,-682 204,-682 204,-682 204,-372.5 204,-308.84 281.27,-273.77 332.53,-257.51"/>
<polygon fill="midnightblue" stroke="midnightblue" points="333.86,-260.76 342.41,-254.5 331.82,-254.07 333.86,-260.76"/>
</g>
<!-- Node15&#45;&gt;Node12 -->
<g id="edge55" class="edge">
<title>Node15&#45;&gt;Node12</title>
<path fill="none" stroke="midnightblue" d="M218.85,-783.25C201.61,-765.77 166,-724.53 166,-682 166,-682 166,-682 166,-439.5 166,-347.1 90,-338.4 90,-246 90,-246 90,-246 90,-132 90,-91.07 107,-77.21 142,-56 192.74,-25.26 358.51,-15.5 452.47,-12.41"/>
<polygon fill="midnightblue" stroke="midnightblue" points="452.83,-15.9 462.72,-12.1 452.62,-8.91 452.83,-15.9"/>
</g>
<!-- Node16 -->
<g id="node16" class="node">
<title>Node16</title>
<g id="a_node16"><a xlink:href="api_2dma__types_8h.html" target="_top" xlink:title=" ">
<polygon fill="white" stroke="black" points="451.5,-727.5 451.5,-746.5 570.5,-746.5 570.5,-727.5 451.5,-727.5"/>
<text text-anchor="middle" x="511" y="-734.5" font-family="Helvetica,sans-Serif" font-size="10.00">odp/api/dma_types.h</text>
</a>
</g>
</g>
<!-- Node15&#45;&gt;Node16 -->
<g id="edge20" class="edge">
<title>Node15&#45;&gt;Node16</title>
<path fill="none" stroke="midnightblue" d="M272.84,-783.44C322.62,-773.94 402.98,-758.61 456.39,-748.42"/>
<polygon fill="midnightblue" stroke="midnightblue" points="457.2,-751.83 466.37,-746.52 455.89,-744.95 457.2,-751.83"/>
</g>
<!-- Node17 -->
<g id="node17" class="node">
<title>Node17</title>
<g id="a_node17"><a xlink:title=" ">
<polygon fill="white" stroke="#bfbfbf" points="601.5,-671.5 601.5,-690.5 738.5,-690.5 738.5,-671.5 601.5,-671.5"/>
<text text-anchor="middle" x="670" y="-678.5" font-family="Helvetica,sans-Serif" font-size="10.00">odp/api/abi/dma_types.h</text>
</a>
</g>
</g>
<!-- Node16&#45;&gt;Node17 -->
<g id="edge21" class="edge">
<title>Node16&#45;&gt;Node17</title>
<path fill="none" stroke="midnightblue" d="M536.19,-727.44C562.94,-718.36 605.4,-703.94 635.31,-693.78"/>
<polygon fill="midnightblue" stroke="midnightblue" points="636.58,-697.05 644.92,-690.52 634.33,-690.42 636.58,-697.05"/>
</g>
<!-- Node18 -->
<g id="node18" class="node">
<title>Node18</title>
<g id="a_node18"><a xlink:href="api_2spec_2dma__types_8h.html" target="_top" xlink:title=" ">
<polygon fill="white" stroke="black" points="439,-671.5 439,-690.5 583,-690.5 583,-671.5 439,-671.5"/>
<text text-anchor="middle" x="511" y="-678.5" font-family="Helvetica,sans-Serif" font-size="10.00">odp/api/spec/dma_types.h</text>
</a>
</g>
</g>
<!-- Node16&#45;&gt;Node18 -->
<g id="edge22" class="edge">
<title>Node16&#45;&gt;Node18</title>
<path fill="none" stroke="midnightblue" d="M511,-727.08C511,-720.01 511,-709.86 511,-700.99"/>
<polygon fill="midnightblue" stroke="midnightblue" points="514.5,-700.75 511,-690.75 507.5,-700.75 514.5,-700.75"/>
</g>
<!-- Node18&#45;&gt;Node4 -->
<g id="edge23" class="edge">
<title>Node18&#45;&gt;Node4</title>
<path fill="none" stroke="midnightblue" d="M583.43,-671.93C586.66,-671.61 589.86,-671.3 593,-671 740.68,-656.98 1252,-712.84 1252,-564.5 1252,-564.5 1252,-564.5 1252,-132 1252,-50.86 1144.77,-24.08 1069.93,-15.28"/>
<polygon fill="midnightblue" stroke="midnightblue" points="1069.92,-11.75 1059.6,-14.15 1069.16,-18.71 1069.92,-11.75"/>
</g>
<!-- Node18&#45;&gt;Node5 -->
<g id="edge53" class="edge">
<title>Node18&#45;&gt;Node5</title>
<path fill="none" stroke="midnightblue" d="M498.31,-671.49C474.39,-654.32 425,-613 425,-564.5 425,-564.5 425,-564.5 425,-372.5 425,-331.21 402.37,-286.98 388.19,-263.32"/>
<polygon fill="midnightblue" stroke="midnightblue" points="391.13,-261.42 382.89,-254.77 385.18,-265.11 391.13,-261.42"/>
</g>
<!-- Node18&#45;&gt;Node12 -->
<g id="edge54" class="edge">
<title>Node18&#45;&gt;Node12</title>
<path fill="none" stroke="midnightblue" d="M438.91,-678.81C359.23,-673.22 242,-650.39 242,-564.5 242,-564.5 242,-564.5 242,-439.5 242,-266.16 46.45,-176.56 171,-56 209.99,-18.26 363.22,-11.26 452.82,-10.48"/>
<polygon fill="midnightblue" stroke="midnightblue" points="452.91,-13.98 462.89,-10.42 452.87,-6.98 452.91,-13.98"/>
</g>
<!-- Node19 -->
<g id="node19" class="node">
<title>Node19</title>
<g id="a_node19"><a xlink:href="api_2event__types_8h.html" target="_top" xlink:title=" ">
<polygon fill="white" stroke="black" points="499.5,-123.5 499.5,-142.5 624.5,-142.5 624.5,-123.5 499.5,-123.5"/>
<text text-anchor="middle" x="562" y="-130.5" font-family="Helvetica,sans-Serif" font-size="10.00">odp/api/event_types.h</text>
</a>
</g>
</g>
<!-- Node18&#45;&gt;Node19 -->
<g id="edge24" class="edge">
<title>Node18&#45;&gt;Node19</title>
<path fill="none" stroke="midnightblue" d="M511,-671.31C511,-652.06 511,-604.4 511,-564.5 511,-564.5 511,-564.5 511,-244 511,-208.24 533.45,-171.51 548.56,-150.84"/>
<polygon fill="midnightblue" stroke="midnightblue" points="551.43,-152.85 554.69,-142.77 545.86,-148.61 551.43,-152.85"/>
</g>
<!-- Node22 -->
<g id="node22" class="node">
<title>Node22</title>
<g id="a_node22"><a xlink:href="api_2packet__types_8h.html" target="_top" xlink:title=" ">
<polygon fill="white" stroke="black" points="903.5,-615.5 903.5,-634.5 1032.5,-634.5 1032.5,-615.5 903.5,-615.5"/>
<text text-anchor="middle" x="968" y="-622.5" font-family="Helvetica,sans-Serif" font-size="10.00">odp/api/packet_types.h</text>
</a>
</g>
</g>
<!-- Node18&#45;&gt;Node22 -->
<g id="edge29" class="edge">
<title>Node18&#45;&gt;Node22</title>
<path fill="none" stroke="midnightblue" d="M583.16,-671.47C667.76,-661.48 807.27,-644.99 893.05,-634.86"/>
<polygon fill="midnightblue" stroke="midnightblue" points="893.72,-638.3 903.24,-633.65 892.9,-631.35 893.72,-638.3"/>
</g>
<!-- Node29 -->
<g id="node29" class="node">
<title>Node29</title>
<g id="a_node29"><a xlink:href="api_2queue__types_8h.html" target="_top" xlink:title=" ">
<polygon fill="white" stroke="black" points="673.5,-492.5 673.5,-511.5 800.5,-511.5 800.5,-492.5 673.5,-492.5"/>
<text text-anchor="middle" x="737" y="-499.5" font-family="Helvetica,sans-Serif" font-size="10.00">odp/api/queue_types.h</text>
</a>
</g>
</g>
<!-- Node18&#45;&gt;Node29 -->
<g id="edge52" class="edge">
<title>Node18&#45;&gt;Node29</title>
<path fill="none" stroke="midnightblue" d="M521.9,-671.46C557.77,-643.37 672.42,-553.58 718.03,-517.86"/>
<polygon fill="midnightblue" stroke="midnightblue" points="720.23,-520.58 725.94,-511.66 715.91,-515.07 720.23,-520.58"/>
</g>
<!-- Node20 -->
<g id="node20" class="node">
<title>Node20</title>
<g id="a_node20"><a xlink:title=" ">
<polygon fill="white" stroke="#bfbfbf" points="490.5,-62 490.5,-81 633.5,-81 633.5,-62 490.5,-62"/>
<text text-anchor="middle" x="562" y="-69" font-family="Helvetica,sans-Serif" font-size="10.00">odp/api/abi/event_types.h</text>
</a>
</g>
</g>
<!-- Node19&#45;&gt;Node20 -->
<g id="edge25" class="edge">
<title>Node19&#45;&gt;Node20</title>
<path fill="none" stroke="midnightblue" d="M562,-123.48C562,-115.08 562,-101.98 562,-91.16"/>
<polygon fill="midnightblue" stroke="midnightblue" points="565.5,-91.01 562,-81.01 558.5,-91.01 565.5,-91.01"/>
</g>
<!-- Node21 -->
<g id="node21" class="node">
<title>Node21</title>
<g id="a_node21"><a xlink:href="api_2spec_2event__types_8h.html" target="_top" xlink:title=" ">
<polygon fill="white" stroke="black" points="728.5,-56.5 728.5,-86.5 837.5,-86.5 837.5,-56.5 728.5,-56.5"/>
<text text-anchor="start" x="736.5" y="-74.5" font-family="Helvetica,sans-Serif" font-size="10.00">odp/api/spec/event</text>
<text text-anchor="middle" x="783" y="-63.5" font-family="Helvetica,sans-Serif" font-size="10.00">_types.h</text>
</a>
</g>
</g>
<!-- Node19&#45;&gt;Node21 -->
<g id="edge26" class="edge">
<title>Node19&#45;&gt;Node21</title>
<path fill="none" stroke="midnightblue" d="M593.66,-123.48C626.81,-114.55 679.71,-100.31 721.18,-89.14"/>
<polygon fill="midnightblue" stroke="midnightblue" points="722.17,-92.5 730.91,-86.52 720.35,-85.74 722.17,-92.5"/>
</g>
<!-- Node21&#45;&gt;Node4 -->
<g id="edge27" class="edge">
<title>Node21&#45;&gt;Node4</title>
<path fill="none" stroke="midnightblue" d="M833.92,-56.47C871.83,-46.03 922.92,-31.96 958.17,-22.25"/>
<polygon fill="midnightblue" stroke="midnightblue" points="959.41,-25.54 968.12,-19.51 957.55,-18.79 959.41,-25.54"/>
</g>
<!-- Node21&#45;&gt;Node12 -->
<g id="edge28" class="edge">
<title>Node21&#45;&gt;Node12</title>
<path fill="none" stroke="midnightblue" d="M728.3,-58.17C680.7,-47.44 612.4,-32.05 566.91,-21.8"/>
<polygon fill="midnightblue" stroke="midnightblue" points="567.53,-18.35 557,-19.56 565.99,-25.18 567.53,-18.35"/>
</g>
<!-- Node23 -->
<g id="node23" class="node">
<title>Node23</title>
<g id="a_node23"><a xlink:title=" ">
<polygon fill="white" stroke="#bfbfbf" points="1103,-548.5 1103,-578.5 1209,-578.5 1209,-548.5 1103,-548.5"/>
<text text-anchor="start" x="1111" y="-566.5" font-family="Helvetica,sans-Serif" font-size="10.00">odp/api/abi/packet</text>
<text text-anchor="middle" x="1156" y="-555.5" font-family="Helvetica,sans-Serif" font-size="10.00">_io_types.h</text>
</a>
</g>
</g>
<!-- Node22&#45;&gt;Node23 -->
<g id="edge30" class="edge">
<title>Node22&#45;&gt;Node23</title>
<path fill="none" stroke="midnightblue" d="M994.94,-615.48C1022.78,-606.66 1067,-592.67 1102.07,-581.57"/>
<polygon fill="midnightblue" stroke="midnightblue" points="1103.21,-584.88 1111.69,-578.52 1101.1,-578.2 1103.21,-584.88"/>
</g>
<!-- Node24 -->
<g id="node24" class="node">
<title>Node24</title>
<g id="a_node24"><a xlink:title=" ">
<polygon fill="white" stroke="#bfbfbf" points="979,-548.5 979,-578.5 1085,-578.5 1085,-548.5 979,-548.5"/>
<text text-anchor="start" x="987" y="-566.5" font-family="Helvetica,sans-Serif" font-size="10.00">odp/api/abi/packet</text>
<text text-anchor="middle" x="1032" y="-555.5" font-family="Helvetica,sans-Serif" font-size="10.00">_types.h</text>
</a>
</g>
</g>
<!-- Node22&#45;&gt;Node24 -->
<g id="edge31" class="edge">
<title>Node22&#45;&gt;Node24</title>
<path fill="none" stroke="midnightblue" d="M977.17,-615.48C985.59,-607.64 998.42,-595.71 1009.56,-585.37"/>
<polygon fill="midnightblue" stroke="midnightblue" points="1011.98,-587.9 1016.92,-578.52 1007.21,-582.77 1011.98,-587.9"/>
</g>
<!-- Node25 -->
<g id="node25" class="node">
<title>Node25</title>
<g id="a_node25"><a xlink:href="api_2spec_2packet__types_8h.html" target="_top" xlink:title=" ">
<polygon fill="white" stroke="black" points="847.5,-548.5 847.5,-578.5 960.5,-578.5 960.5,-548.5 847.5,-548.5"/>
<text text-anchor="start" x="855.5" y="-566.5" font-family="Helvetica,sans-Serif" font-size="10.00">odp/api/spec/packet</text>
<text text-anchor="middle" x="904" y="-555.5" font-family="Helvetica,sans-Serif" font-size="10.00">_types.h</text>
</a>
</g>
</g>
<!-- Node22&#45;&gt;Node25 -->
<g id="edge32" class="edge">
<title>Node22&#45;&gt;Node25</title>
<path fill="none" stroke="midnightblue" d="M958.83,-615.48C950.41,-607.64 937.58,-595.71 926.44,-585.37"/>
<polygon fill="midnightblue" stroke="midnightblue" points="928.79,-582.77 919.08,-578.52 924.02,-587.9 928.79,-582.77"/>
</g>
<!-- Node25&#45;&gt;Node4 -->
<g id="edge33" class="edge">
<title>Node25&#45;&gt;Node4</title>
<path fill="none" stroke="midnightblue" d="M953.46,-548.49C1040.98,-523.01 1214,-469.12 1214,-441.5 1214,-441.5 1214,-441.5 1214,-132 1214,-64.41 1132.3,-34.17 1069.63,-20.92"/>
<polygon fill="midnightblue" stroke="midnightblue" points="1070.24,-17.47 1059.75,-18.93 1068.86,-24.33 1070.24,-17.47"/>
</g>
<!-- Node25&#45;&gt;Node12 -->
<g id="edge51" class="edge">
<title>Node25&#45;&gt;Node12</title>
<path fill="none" stroke="midnightblue" d="M904,-548.34C904,-525.75 904,-480.15 904,-441.5 904,-441.5 904,-441.5 904,-132 904,-89.78 883.39,-77.41 847,-56 803.9,-30.64 667.87,-18.97 585.14,-14.09"/>
<polygon fill="midnightblue" stroke="midnightblue" points="585.26,-10.59 575.08,-13.51 584.86,-17.58 585.26,-10.59"/>
</g>
<!-- Node26 -->
<g id="node26" class="node">
<title>Node26</title>
<g id="a_node26"><a xlink:href="api_2proto__stats__types_8h.html" target="_top" xlink:title=" ">
<polygon fill="white" stroke="black" points="932,-358.5 932,-388.5 1042,-388.5 1042,-358.5 932,-358.5"/>
<text text-anchor="start" x="940" y="-376.5" font-family="Helvetica,sans-Serif" font-size="10.00">odp/api/proto_stats</text>
<text text-anchor="middle" x="987" y="-365.5" font-family="Helvetica,sans-Serif" font-size="10.00">_types.h</text>
</a>
</g>
</g>
<!-- Node25&#45;&gt;Node26 -->
<g id="edge34" class="edge">
<title>Node25&#45;&gt;Node26</title>
<path fill="none" stroke="midnightblue" d="M910.24,-548.37C924.42,-516.24 959.21,-437.44 976.66,-397.91"/>
<polygon fill="midnightblue" stroke="midnightblue" points="979.97,-399.1 980.8,-388.54 973.56,-396.27 979.97,-399.1"/>
</g>
<!-- Node25&#45;&gt;Node29 -->
<g id="edge40" class="edge">
<title>Node25&#45;&gt;Node29</title>
<path fill="none" stroke="midnightblue" d="M864.42,-548.4C835.9,-538.24 797.83,-524.67 770.74,-515.02"/>
<polygon fill="midnightblue" stroke="midnightblue" points="771.89,-511.72 761.3,-511.66 769.55,-518.31 771.89,-511.72"/>
</g>
<!-- Node27 -->
<g id="node27" class="node">
<title>Node27</title>
<g id="a_node27"><a xlink:title=" ">
<polygon fill="white" stroke="#bfbfbf" points="1058,-291.5 1058,-321.5 1186,-321.5 1186,-291.5 1058,-291.5"/>
<text text-anchor="start" x="1066" y="-309.5" font-family="Helvetica,sans-Serif" font-size="10.00">odp/api/abi/proto_stats</text>
<text text-anchor="middle" x="1122" y="-298.5" font-family="Helvetica,sans-Serif" font-size="10.00">_types.h</text>
</a>
</g>
</g>
<!-- Node26&#45;&gt;Node27 -->
<g id="edge35" class="edge">
<title>Node26&#45;&gt;Node27</title>
<path fill="none" stroke="midnightblue" d="M1016.29,-358.4C1036.02,-348.9 1062.23,-336.28 1083.62,-325.98"/>
<polygon fill="midnightblue" stroke="midnightblue" points="1085.27,-329.07 1092.76,-321.58 1082.24,-322.76 1085.27,-329.07"/>
</g>
<!-- Node28 -->
<g id="node28" class="node">
<title>Node28</title>
<g id="a_node28"><a xlink:href="api_2spec_2proto__stats__types_8h.html" target="_top" xlink:title=" ">
<polygon fill="white" stroke="black" points="932.5,-291.5 932.5,-321.5 1039.5,-321.5 1039.5,-291.5 932.5,-291.5"/>
<text text-anchor="start" x="940.5" y="-309.5" font-family="Helvetica,sans-Serif" font-size="10.00">odp/api/spec/proto</text>
<text text-anchor="middle" x="986" y="-298.5" font-family="Helvetica,sans-Serif" font-size="10.00">_stats_types.h</text>
</a>
</g>
</g>
<!-- Node26&#45;&gt;Node28 -->
<g id="edge36" class="edge">
<title>Node26&#45;&gt;Node28</title>
<path fill="none" stroke="midnightblue" d="M986.78,-358.4C986.66,-350.64 986.51,-340.81 986.37,-331.86"/>
<polygon fill="midnightblue" stroke="midnightblue" points="989.87,-331.52 986.22,-321.58 982.87,-331.63 989.87,-331.52"/>
</g>
<!-- Node28&#45;&gt;Node4 -->
<g id="edge37" class="edge">
<title>Node28&#45;&gt;Node4</title>
<path fill="none" stroke="midnightblue" d="M992.63,-291.27C1002,-269.8 1018,-227.66 1018,-190 1018,-190 1018,-190 1018,-132 1018,-95.29 1009.36,-53.06 1003.73,-29.45"/>
<polygon fill="midnightblue" stroke="midnightblue" points="1007.13,-28.6 1001.33,-19.73 1000.33,-30.28 1007.13,-28.6"/>
</g>
<!-- Node28&#45;&gt;Node5 -->
<g id="edge38" class="edge">
<title>Node28&#45;&gt;Node5</title>
<path fill="none" stroke="midnightblue" d="M932.21,-299.78C906.44,-297.07 875.13,-293.81 847,-291 703.08,-276.6 534.27,-260.67 443.26,-252.16"/>
<polygon fill="midnightblue" stroke="midnightblue" points="443.37,-248.66 433.08,-251.21 442.72,-255.63 443.37,-248.66"/>
</g>
<!-- Node28&#45;&gt;Node12 -->
<g id="edge39" class="edge">
<title>Node28&#45;&gt;Node12</title>
<path fill="none" stroke="midnightblue" d="M976.67,-291.22C963.75,-270.03 942,-228.62 942,-190 942,-190 942,-190 942,-132 942,-96.58 945.35,-78.51 918,-56 868.63,-15.37 685.12,-9.86 585.08,-10"/>
<polygon fill="midnightblue" stroke="midnightblue" points="585.06,-6.5 575.07,-10.04 585.09,-13.5 585.06,-6.5"/>
</g>
<!-- Node30 -->
<g id="node30" class="node">
<title>Node30</title>
<g id="a_node30"><a xlink:title=" ">
<polygon fill="white" stroke="#bfbfbf" points="725.5,-431 725.5,-450 870.5,-450 870.5,-431 725.5,-431"/>
<text text-anchor="middle" x="798" y="-438" font-family="Helvetica,sans-Serif" font-size="10.00">odp/api/abi/queue_types.h</text>
</a>
</g>
</g>
<!-- Node29&#45;&gt;Node30 -->
<g id="edge41" class="edge">
<title>Node29&#45;&gt;Node30</title>
<path fill="none" stroke="midnightblue" d="M745.74,-492.48C755.16,-483.28 770.36,-468.46 781.95,-457.16"/>
<polygon fill="midnightblue" stroke="midnightblue" points="784.56,-459.5 789.28,-450.01 779.67,-454.49 784.56,-459.5"/>
</g>
<!-- Node31 -->
<g id="node31" class="node">
<title>Node31</title>
<g id="a_node31"><a xlink:href="api_2spec_2queue__types_8h.html" target="_top" xlink:title=" ">
<polygon fill="white" stroke="black" points="596.5,-425.5 596.5,-455.5 707.5,-455.5 707.5,-425.5 596.5,-425.5"/>
<text text-anchor="start" x="604.5" y="-443.5" font-family="Helvetica,sans-Serif" font-size="10.00">odp/api/spec/queue</text>
<text text-anchor="middle" x="652" y="-432.5" font-family="Helvetica,sans-Serif" font-size="10.00">_types.h</text>
</a>
</g>
</g>
<!-- Node29&#45;&gt;Node31 -->
<g id="edge42" class="edge">
<title>Node29&#45;&gt;Node31</title>
<path fill="none" stroke="midnightblue" d="M724.82,-492.48C713.31,-484.42 695.6,-472.02 680.53,-461.47"/>
<polygon fill="midnightblue" stroke="midnightblue" points="682.23,-458.39 672.03,-455.52 678.22,-464.12 682.23,-458.39"/>
</g>
<!-- Node31&#45;&gt;Node4 -->
<g id="edge43" class="edge">
<title>Node31&#45;&gt;Node4</title>
<path fill="none" stroke="midnightblue" d="M688.79,-425.39C749.97,-400.76 866,-348.64 866,-307.5 866,-307.5 866,-307.5 866,-188 866,-168.39 950.48,-67.61 984.78,-27.5"/>
<polygon fill="midnightblue" stroke="midnightblue" points="987.61,-29.57 991.47,-19.7 982.3,-25.02 987.61,-29.57"/>
</g>
<!-- Node31&#45;&gt;Node12 -->
<g id="edge50" class="edge">
<title>Node31&#45;&gt;Node12</title>
<path fill="none" stroke="midnightblue" d="M615.54,-425.32C599.68,-417.18 582.56,-405.28 573,-389 550.93,-351.41 560.04,-333.66 569,-291 591.5,-183.84 705.85,-145.67 643,-56 629.55,-36.8 607.03,-25.77 584.85,-19.43"/>
<polygon fill="midnightblue" stroke="midnightblue" points="585.61,-16.01 575.05,-16.91 583.86,-22.79 585.61,-16.01"/>
</g>
<!-- Node32 -->
<g id="node32" class="node">
<title>Node32</title>
<g id="a_node32"><a xlink:href="api_2schedule__types_8h.html" target="_top" xlink:title=" ">
<polygon fill="white" stroke="black" points="582,-364 582,-383 722,-383 722,-364 582,-364"/>
<text text-anchor="middle" x="652" y="-371" font-family="Helvetica,sans-Serif" font-size="10.00">odp/api/schedule_types.h</text>
</a>
</g>
</g>
<!-- Node31&#45;&gt;Node32 -->
<g id="edge44" class="edge">
<title>Node31&#45;&gt;Node32</title>
<path fill="none" stroke="midnightblue" d="M652,-425.4C652,-416.06 652,-403.71 652,-393.52"/>
<polygon fill="midnightblue" stroke="midnightblue" points="655.5,-393.19 652,-383.19 648.5,-393.19 655.5,-393.19"/>
</g>
<!-- Node33 -->
<g id="node33" class="node">
<title>Node33</title>
<g id="a_node33"><a xlink:title=" ">
<polygon fill="white" stroke="#bfbfbf" points="720.5,-291.5 720.5,-321.5 837.5,-321.5 837.5,-291.5 720.5,-291.5"/>
<text text-anchor="start" x="728.5" y="-309.5" font-family="Helvetica,sans-Serif" font-size="10.00">odp/api/abi/schedule</text>
<text text-anchor="middle" x="779" y="-298.5" font-family="Helvetica,sans-Serif" font-size="10.00">_types.h</text>
</a>
</g>
</g>
<!-- Node32&#45;&gt;Node33 -->
<g id="edge45" class="edge">
<title>Node32&#45;&gt;Node33</title>
<path fill="none" stroke="midnightblue" d="M668.86,-363.87C687.53,-354.31 718.18,-338.63 742.41,-326.22"/>
<polygon fill="midnightblue" stroke="midnightblue" points="744.04,-329.32 751.35,-321.65 740.85,-323.09 744.04,-329.32"/>
</g>
<!-- Node34 -->
<g id="node34" class="node">
<title>Node34</title>
<g id="a_node34"><a xlink:href="api_2spec_2schedule__types_8h.html" target="_top" xlink:title=" ">
<polygon fill="white" stroke="black" points="577.5,-291.5 577.5,-321.5 702.5,-321.5 702.5,-291.5 577.5,-291.5"/>
<text text-anchor="start" x="585.5" y="-309.5" font-family="Helvetica,sans-Serif" font-size="10.00">odp/api/spec/schedule</text>
<text text-anchor="middle" x="640" y="-298.5" font-family="Helvetica,sans-Serif" font-size="10.00">_types.h</text>
</a>
</g>
</g>
<!-- Node32&#45;&gt;Node34 -->
<g id="edge46" class="edge">
<title>Node32&#45;&gt;Node34</title>
<path fill="none" stroke="midnightblue" d="M650.38,-363.73C648.87,-355.54 646.54,-342.92 644.47,-331.71"/>
<polygon fill="midnightblue" stroke="midnightblue" points="647.86,-330.79 642.6,-321.59 640.97,-332.06 647.86,-330.79"/>
</g>
<!-- Node34&#45;&gt;Node4 -->
<g id="edge47" class="edge">
<title>Node34&#45;&gt;Node4</title>
<path fill="none" stroke="midnightblue" d="M656.16,-291.49C702.22,-251.57 832.19,-139.05 852,-123 896.31,-87.1 949.97,-47.05 978.62,-25.93"/>
<polygon fill="midnightblue" stroke="midnightblue" points="981.02,-28.51 987,-19.76 976.87,-22.87 981.02,-28.51"/>
</g>
<!-- Node34&#45;&gt;Node5 -->
<g id="edge48" class="edge">
<title>Node34&#45;&gt;Node5</title>
<path fill="none" stroke="midnightblue" d="M578.01,-291.47C531.05,-280.85 467.5,-266.47 424.52,-256.75"/>
<polygon fill="midnightblue" stroke="midnightblue" points="425.13,-253.3 414.6,-254.51 423.58,-260.13 425.13,-253.3"/>
</g>
<!-- Node34&#45;&gt;Node12 -->
<g id="edge49" class="edge">
<title>Node34&#45;&gt;Node12</title>
<path fill="none" stroke="midnightblue" d="M653.02,-291.42C670.67,-270.8 700,-230.45 700,-190 700,-190 700,-190 700,-132 700,-96.58 701.38,-80.71 676,-56 651.89,-32.53 616.4,-21.15 585.26,-15.69"/>
<polygon fill="midnightblue" stroke="midnightblue" points="585.75,-12.23 575.33,-14.12 584.66,-19.14 585.75,-12.23"/>
</g>
</g>
</svg>
