<?xml version="1.0" encoding="UTF-8" standalone="no"?>
<!DOCTYPE svg PUBLIC "-//W3C//DTD SVG 1.1//EN"
 "http://www.w3.org/Graphics/SVG/1.1/DTD/svg11.dtd">
<!-- Generated by graphviz version 2.43.0 (0)
 -->
<!-- Title: pool_types.h Pages: 1 -->
<svg width="625pt" height="476pt"
 viewBox="0.00 0.00 625.00 476.00" xmlns="http://www.w3.org/2000/svg" xmlns:xlink="http://www.w3.org/1999/xlink">
<g id="graph0" class="graph" transform="scale(1 1) rotate(0) translate(4 472)">
<title>pool_types.h</title>
<polygon fill="white" stroke="transparent" points="-4,4 -4,-472 621,-472 621,4 -4,4"/>
<!-- Node1 -->
<g id="node1" class="node">
<title>Node1</title>
<g id="a_node1"><a xlink:title=" ">
<polygon fill="#bfbfbf" stroke="black" points="232,-448.5 232,-467.5 311,-467.5 311,-448.5 232,-448.5"/>
<text text-anchor="middle" x="271.5" y="-455.5" font-family="Helvetica,sans-Serif" font-size="10.00">pool_types.h</text>
</a>
</g>
</g>
<!-- Node2 -->
<g id="node2" class="node">
<title>Node2</title>
<g id="a_node2"><a xlink:href="api_2pool__types_8h.html" target="_top" xlink:title=" ">
<polygon fill="white" stroke="black" points="232,-392.5 232,-411.5 311,-411.5 311,-392.5 232,-392.5"/>
<text text-anchor="middle" x="271.5" y="-399.5" font-family="Helvetica,sans-Serif" font-size="10.00">pool_types.h</text>
</a>
</g>
</g>
<!-- Node1&#45;&gt;Node2 -->
<g id="edge1" class="edge">
<title>Node1&#45;&gt;Node2</title>
<path fill="none" stroke="midnightblue" d="M271.5,-437.8C271.5,-428.91 271.5,-418.78 271.5,-411.75"/>
<polygon fill="midnightblue" stroke="midnightblue" points="268,-438.08 271.5,-448.08 275,-438.08 268,-438.08"/>
</g>
<!-- Node3 -->
<g id="node3" class="node">
<title>Node3</title>
<g id="a_node3"><a xlink:href="api_2spec_2buffer_8h.html" target="_top" xlink:title=" ">
<polygon fill="white" stroke="black" points="24,-336.5 24,-355.5 77,-355.5 77,-336.5 24,-336.5"/>
<text text-anchor="middle" x="50.5" y="-343.5" font-family="Helvetica,sans-Serif" font-size="10.00">buffer.h</text>
</a>
</g>
</g>
<!-- Node2&#45;&gt;Node3 -->
<g id="edge2" class="edge">
<title>Node2&#45;&gt;Node3</title>
<path fill="none" stroke="midnightblue" d="M226.7,-390.05C181.76,-379.07 114.07,-362.53 77.03,-353.48"/>
<polygon fill="midnightblue" stroke="midnightblue" points="225.94,-393.47 236.48,-392.44 227.6,-386.67 225.94,-393.47"/>
</g>
<!-- Node6 -->
<g id="node6" class="node">
<title>Node6</title>
<g id="a_node6"><a xlink:href="api_2spec_2classification_8h.html" target="_top" xlink:title=" ">
<polygon fill="white" stroke="black" points="184,-224.5 184,-243.5 273,-243.5 273,-224.5 184,-224.5"/>
<text text-anchor="middle" x="228.5" y="-231.5" font-family="Helvetica,sans-Serif" font-size="10.00">classification.h</text>
</a>
</g>
</g>
<!-- Node2&#45;&gt;Node6 -->
<g id="edge5" class="edge">
<title>Node2&#45;&gt;Node6</title>
<path fill="none" stroke="midnightblue" d="M266.56,-381.93C257.23,-345.92 237.37,-269.23 230.72,-243.57"/>
<polygon fill="midnightblue" stroke="midnightblue" points="263.29,-383.27 269.19,-392.08 270.07,-381.52 263.29,-383.27"/>
</g>
<!-- Node12 -->
<g id="node12" class="node">
<title>Node12</title>
<g id="a_node12"><a xlink:href="api_2spec_2crypto_8h.html" target="_top" xlink:title=" ">
<polygon fill="white" stroke="black" points="130.5,-280.5 130.5,-299.5 186.5,-299.5 186.5,-280.5 130.5,-280.5"/>
<text text-anchor="middle" x="158.5" y="-287.5" font-family="Helvetica,sans-Serif" font-size="10.00">crypto.h</text>
</a>
</g>
</g>
<!-- Node2&#45;&gt;Node12 -->
<g id="edge14" class="edge">
<title>Node2&#45;&gt;Node12</title>
<path fill="none" stroke="midnightblue" d="M252.52,-386.25C241.91,-377.75 228.62,-366.66 217.5,-356 197.7,-337.02 176.57,-312.59 165.78,-299.77"/>
<polygon fill="midnightblue" stroke="midnightblue" points="250.35,-389 260.36,-392.46 254.69,-383.51 250.35,-389"/>
</g>
<!-- Node14 -->
<g id="node14" class="node">
<title>Node14</title>
<g id="a_node14"><a xlink:href="spec_2dma_8h.html" target="_top" xlink:title=" ">
<polygon fill="white" stroke="black" points="108,-336.5 108,-355.5 155,-355.5 155,-336.5 108,-336.5"/>
<text text-anchor="middle" x="131.5" y="-343.5" font-family="Helvetica,sans-Serif" font-size="10.00">dma.h</text>
</a>
</g>
</g>
<!-- Node2&#45;&gt;Node14 -->
<g id="edge18" class="edge">
<title>Node2&#45;&gt;Node14</title>
<path fill="none" stroke="midnightblue" d="M239.8,-388.77C213.5,-378.63 176.78,-364.47 153.58,-355.52"/>
<polygon fill="midnightblue" stroke="midnightblue" points="238.73,-392.11 249.32,-392.44 241.25,-385.58 238.73,-392.11"/>
</g>
<!-- Node16 -->
<g id="node16" class="node">
<title>Node16</title>
<g id="a_node16"><a xlink:href="api_2spec_2packet_8h.html" target="_top" xlink:title=" ">
<polygon fill="white" stroke="black" points="469.5,-224.5 469.5,-243.5 527.5,-243.5 527.5,-224.5 469.5,-224.5"/>
<text text-anchor="middle" x="498.5" y="-231.5" font-family="Helvetica,sans-Serif" font-size="10.00">packet.h</text>
</a>
</g>
</g>
<!-- Node2&#45;&gt;Node16 -->
<g id="edge21" class="edge">
<title>Node2&#45;&gt;Node16</title>
<path fill="none" stroke="midnightblue" d="M320.97,-391.32C347.2,-384.49 378.98,-373.39 403.5,-356 448.16,-324.33 482.21,-265.79 494.01,-243.72"/>
<polygon fill="midnightblue" stroke="midnightblue" points="320.08,-387.94 311.22,-393.73 321.76,-394.73 320.08,-387.94"/>
</g>
<!-- Node18 -->
<g id="node18" class="node">
<title>Node18</title>
<g id="a_node18"><a xlink:href="api_2spec_2packet__io__types_8h.html" target="_top" xlink:title=" ">
<polygon fill="white" stroke="black" points="290.5,-336.5 290.5,-355.5 394.5,-355.5 394.5,-336.5 290.5,-336.5"/>
<text text-anchor="middle" x="342.5" y="-343.5" font-family="Helvetica,sans-Serif" font-size="10.00">packet_io_types.h</text>
</a>
</g>
</g>
<!-- Node2&#45;&gt;Node18 -->
<g id="edge24" class="edge">
<title>Node2&#45;&gt;Node18</title>
<path fill="none" stroke="midnightblue" d="M291.09,-386.1C303.87,-376.38 320.11,-364.03 330.89,-355.83"/>
<polygon fill="midnightblue" stroke="midnightblue" points="288.75,-383.48 282.91,-392.32 292.99,-389.06 288.75,-383.48"/>
</g>
<!-- Node22 -->
<g id="node22" class="node">
<title>Node22</title>
<g id="a_node22"><a xlink:href="api_2spec_2pool_8h.html" target="_top" xlink:title=" ">
<polygon fill="white" stroke="black" points="492,-336.5 492,-355.5 539,-355.5 539,-336.5 492,-336.5"/>
<text text-anchor="middle" x="515.5" y="-343.5" font-family="Helvetica,sans-Serif" font-size="10.00">pool.h</text>
</a>
</g>
</g>
<!-- Node2&#45;&gt;Node22 -->
<g id="edge34" class="edge">
<title>Node2&#45;&gt;Node22</title>
<path fill="none" stroke="midnightblue" d="M320.15,-390.23C372.09,-378.74 452.24,-361 491.77,-352.25"/>
<polygon fill="midnightblue" stroke="midnightblue" points="319.17,-386.87 310.16,-392.44 320.68,-393.7 319.17,-386.87"/>
</g>
<!-- Node24 -->
<g id="node24" class="node">
<title>Node24</title>
<g id="a_node24"><a xlink:href="api_2spec_2timer_8h.html" target="_top" xlink:title=" ">
<polygon fill="white" stroke="black" points="564,-336.5 564,-355.5 615,-355.5 615,-336.5 564,-336.5"/>
<text text-anchor="middle" x="589.5" y="-343.5" font-family="Helvetica,sans-Serif" font-size="10.00">timer.h</text>
</a>
</g>
</g>
<!-- Node2&#45;&gt;Node24 -->
<g id="edge37" class="edge">
<title>Node2&#45;&gt;Node24</title>
<path fill="none" stroke="midnightblue" d="M321.27,-393.64C376.64,-385.28 468.68,-370.86 547.5,-356 552.78,-355.01 558.41,-353.86 563.78,-352.72"/>
<polygon fill="midnightblue" stroke="midnightblue" points="320.74,-390.18 311.37,-395.13 321.78,-397.11 320.74,-390.18"/>
</g>
<!-- Node4 -->
<g id="node4" class="node">
<title>Node4</title>
<g id="a_node4"><a xlink:href="api_2buffer_8h.html" target="_top" xlink:title=" ">
<polygon fill="white" stroke="black" points="0,-112.5 0,-131.5 53,-131.5 53,-112.5 0,-112.5"/>
<text text-anchor="middle" x="26.5" y="-119.5" font-family="Helvetica,sans-Serif" font-size="10.00">buffer.h</text>
</a>
</g>
</g>
<!-- Node3&#45;&gt;Node4 -->
<g id="edge3" class="edge">
<title>Node3&#45;&gt;Node4</title>
<path fill="none" stroke="midnightblue" d="M48.48,-326.3C43.54,-280.64 31.02,-164.85 27.46,-131.88"/>
<polygon fill="midnightblue" stroke="midnightblue" points="45,-326.73 49.56,-336.3 51.96,-325.98 45,-326.73"/>
</g>
<!-- Node5 -->
<g id="node5" class="node">
<title>Node5</title>
<g id="a_node5"><a xlink:href="odp__api_8h.html" target="_top" xlink:title=" ">
<polygon fill="white" stroke="black" points="273.5,-0.5 273.5,-19.5 337.5,-19.5 337.5,-0.5 273.5,-0.5"/>
<text text-anchor="middle" x="305.5" y="-7.5" font-family="Helvetica,sans-Serif" font-size="10.00">odp_api.h</text>
</a>
</g>
</g>
<!-- Node4&#45;&gt;Node5 -->
<g id="edge4" class="edge">
<title>Node4&#45;&gt;Node5</title>
<path fill="none" stroke="midnightblue" d="M32.15,-102.51C37.7,-87.58 47.67,-67.27 63.5,-56 96.75,-32.33 215.09,-18.93 273.05,-13.65"/>
<polygon fill="midnightblue" stroke="midnightblue" points="28.76,-101.63 28.87,-112.22 35.39,-103.86 28.76,-101.63"/>
</g>
<!-- Node7 -->
<g id="node7" class="node">
<title>Node7</title>
<g id="a_node7"><a xlink:href="api_2classification_8h.html" target="_top" xlink:title=" ">
<polygon fill="white" stroke="black" points="184,-168.5 184,-187.5 273,-187.5 273,-168.5 184,-168.5"/>
<text text-anchor="middle" x="228.5" y="-175.5" font-family="Helvetica,sans-Serif" font-size="10.00">classification.h</text>
</a>
</g>
</g>
<!-- Node6&#45;&gt;Node7 -->
<g id="edge6" class="edge">
<title>Node6&#45;&gt;Node7</title>
<path fill="none" stroke="midnightblue" d="M228.5,-213.8C228.5,-204.91 228.5,-194.78 228.5,-187.75"/>
<polygon fill="midnightblue" stroke="midnightblue" points="225,-214.08 228.5,-224.08 232,-214.08 225,-214.08"/>
</g>
<!-- Node7&#45;&gt;Node5 -->
<g id="edge13" class="edge">
<title>Node7&#45;&gt;Node5</title>
<path fill="none" stroke="midnightblue" d="M223.55,-158.34C218,-133.23 212.01,-88.03 230.5,-56 240.82,-38.11 261.34,-26.53 278.32,-19.6"/>
<polygon fill="midnightblue" stroke="midnightblue" points="220.22,-159.45 225.98,-168.34 227.02,-157.79 220.22,-159.45"/>
</g>
<!-- Node8 -->
<g id="node8" class="node">
<title>Node8</title>
<g id="a_node8"><a xlink:href="api_2spec_2ipsec_8h.html" target="_top" xlink:title=" ">
<polygon fill="white" stroke="black" points="240,-112.5 240,-131.5 291,-131.5 291,-112.5 240,-112.5"/>
<text text-anchor="middle" x="265.5" y="-119.5" font-family="Helvetica,sans-Serif" font-size="10.00">ipsec.h</text>
</a>
</g>
</g>
<!-- Node7&#45;&gt;Node8 -->
<g id="edge7" class="edge">
<title>Node7&#45;&gt;Node8</title>
<path fill="none" stroke="midnightblue" d="M240.45,-159.57C246.81,-150.27 254.37,-139.25 259.5,-131.75"/>
<polygon fill="midnightblue" stroke="midnightblue" points="237.37,-157.86 234.61,-168.08 243.15,-161.81 237.37,-157.86"/>
</g>
<!-- Node10 -->
<g id="node10" class="node">
<title>Node10</title>
<g id="a_node10"><a xlink:href="api_2spec_2packet__io_8h.html" target="_top" xlink:title=" ">
<polygon fill="white" stroke="black" points="309.5,-112.5 309.5,-131.5 381.5,-131.5 381.5,-112.5 309.5,-112.5"/>
<text text-anchor="middle" x="345.5" y="-119.5" font-family="Helvetica,sans-Serif" font-size="10.00">packet_io.h</text>
</a>
</g>
</g>
<!-- Node7&#45;&gt;Node10 -->
<g id="edge10" class="edge">
<title>Node7&#45;&gt;Node10</title>
<path fill="none" stroke="midnightblue" d="M256.16,-164.23C278.05,-154.13 308,-140.31 327.05,-131.52"/>
<polygon fill="midnightblue" stroke="midnightblue" points="254.65,-161.08 247.04,-168.44 257.59,-167.43 254.65,-161.08"/>
</g>
<!-- Node9 -->
<g id="node9" class="node">
<title>Node9</title>
<g id="a_node9"><a xlink:href="api_2ipsec_8h.html" target="_top" xlink:title=" ">
<polygon fill="white" stroke="black" points="240,-56.5 240,-75.5 291,-75.5 291,-56.5 240,-56.5"/>
<text text-anchor="middle" x="265.5" y="-63.5" font-family="Helvetica,sans-Serif" font-size="10.00">ipsec.h</text>
</a>
</g>
</g>
<!-- Node8&#45;&gt;Node9 -->
<g id="edge8" class="edge">
<title>Node8&#45;&gt;Node9</title>
<path fill="none" stroke="midnightblue" d="M265.5,-101.8C265.5,-92.91 265.5,-82.78 265.5,-75.75"/>
<polygon fill="midnightblue" stroke="midnightblue" points="262,-102.08 265.5,-112.08 269,-102.08 262,-102.08"/>
</g>
<!-- Node9&#45;&gt;Node5 -->
<g id="edge9" class="edge">
<title>Node9&#45;&gt;Node5</title>
<path fill="none" stroke="midnightblue" d="M278.2,-47.86C285.13,-38.5 293.41,-27.33 299.02,-19.75"/>
<polygon fill="midnightblue" stroke="midnightblue" points="275.25,-45.96 272.11,-56.08 280.87,-50.13 275.25,-45.96"/>
</g>
<!-- Node11 -->
<g id="node11" class="node">
<title>Node11</title>
<g id="a_node11"><a xlink:href="api_2packet__io_8h.html" target="_top" xlink:title=" ">
<polygon fill="white" stroke="black" points="309.5,-56.5 309.5,-75.5 381.5,-75.5 381.5,-56.5 309.5,-56.5"/>
<text text-anchor="middle" x="345.5" y="-63.5" font-family="Helvetica,sans-Serif" font-size="10.00">packet_io.h</text>
</a>
</g>
</g>
<!-- Node10&#45;&gt;Node11 -->
<g id="edge11" class="edge">
<title>Node10&#45;&gt;Node11</title>
<path fill="none" stroke="midnightblue" d="M345.5,-101.8C345.5,-92.91 345.5,-82.78 345.5,-75.75"/>
<polygon fill="midnightblue" stroke="midnightblue" points="342,-102.08 345.5,-112.08 349,-102.08 342,-102.08"/>
</g>
<!-- Node11&#45;&gt;Node5 -->
<g id="edge12" class="edge">
<title>Node11&#45;&gt;Node5</title>
<path fill="none" stroke="midnightblue" d="M332.8,-47.86C325.87,-38.5 317.59,-27.33 311.98,-19.75"/>
<polygon fill="midnightblue" stroke="midnightblue" points="330.13,-50.13 338.89,-56.08 335.75,-45.96 330.13,-50.13"/>
</g>
<!-- Node13 -->
<g id="node13" class="node">
<title>Node13</title>
<g id="a_node13"><a xlink:href="api_2crypto_8h.html" target="_top" xlink:title=" ">
<polygon fill="white" stroke="black" points="109.5,-168.5 109.5,-187.5 165.5,-187.5 165.5,-168.5 109.5,-168.5"/>
<text text-anchor="middle" x="137.5" y="-175.5" font-family="Helvetica,sans-Serif" font-size="10.00">crypto.h</text>
</a>
</g>
</g>
<!-- Node12&#45;&gt;Node13 -->
<g id="edge15" class="edge">
<title>Node12&#45;&gt;Node13</title>
<path fill="none" stroke="midnightblue" d="M154.94,-270.35C150.34,-246.25 142.52,-205.31 139.14,-187.59"/>
<polygon fill="midnightblue" stroke="midnightblue" points="151.54,-271.2 156.85,-280.37 158.41,-269.89 151.54,-271.2"/>
</g>
<!-- Node13&#45;&gt;Node5 -->
<g id="edge17" class="edge">
<title>Node13&#45;&gt;Node5</title>
<path fill="none" stroke="midnightblue" d="M146.03,-159.08C158.93,-133.51 185.55,-86.3 219.5,-56 237.98,-39.51 263.59,-27.12 282.06,-19.56"/>
<polygon fill="midnightblue" stroke="midnightblue" points="142.76,-157.8 141.49,-168.32 149.04,-160.88 142.76,-157.8"/>
</g>
<!-- Node13&#45;&gt;Node8 -->
<g id="edge16" class="edge">
<title>Node13&#45;&gt;Node8</title>
<path fill="none" stroke="midnightblue" d="M167.12,-164.5C191.12,-154.38 224.28,-140.39 245.31,-131.52"/>
<polygon fill="midnightblue" stroke="midnightblue" points="165.64,-161.33 157.78,-168.44 168.36,-167.78 165.64,-161.33"/>
</g>
<!-- Node15 -->
<g id="node15" class="node">
<title>Node15</title>
<g id="a_node15"><a xlink:href="dma_8h.html" target="_top" xlink:title=" ">
<polygon fill="white" stroke="black" points="73,-56.5 73,-75.5 120,-75.5 120,-56.5 73,-56.5"/>
<text text-anchor="middle" x="96.5" y="-63.5" font-family="Helvetica,sans-Serif" font-size="10.00">dma.h</text>
</a>
</g>
</g>
<!-- Node14&#45;&gt;Node15 -->
<g id="edge19" class="edge">
<title>Node14&#45;&gt;Node15</title>
<path fill="none" stroke="midnightblue" d="M118.55,-328.44C103.74,-307.79 81.5,-270.82 81.5,-235 81.5,-235 81.5,-235 81.5,-177 81.5,-138.84 90.47,-93.91 94.54,-75.5"/>
<polygon fill="midnightblue" stroke="midnightblue" points="115.77,-330.55 124.55,-336.48 121.38,-326.37 115.77,-330.55"/>
</g>
<!-- Node15&#45;&gt;Node5 -->
<g id="edge20" class="edge">
<title>Node15&#45;&gt;Node5</title>
<path fill="none" stroke="midnightblue" d="M129.98,-56.35C169.35,-46.18 234.26,-29.41 273.14,-19.36"/>
<polygon fill="midnightblue" stroke="midnightblue" points="128.88,-53.02 120.07,-58.91 130.63,-59.8 128.88,-53.02"/>
</g>
<!-- Node17 -->
<g id="node17" class="node">
<title>Node17</title>
<g id="a_node17"><a xlink:href="api_2packet_8h.html" target="_top" xlink:title=" ">
<polygon fill="white" stroke="black" points="443.5,-112.5 443.5,-131.5 501.5,-131.5 501.5,-112.5 443.5,-112.5"/>
<text text-anchor="middle" x="472.5" y="-119.5" font-family="Helvetica,sans-Serif" font-size="10.00">packet.h</text>
</a>
</g>
</g>
<!-- Node16&#45;&gt;Node17 -->
<g id="edge22" class="edge">
<title>Node16&#45;&gt;Node17</title>
<path fill="none" stroke="midnightblue" d="M494.09,-214.35C488.4,-190.25 478.72,-149.31 474.53,-131.59"/>
<polygon fill="midnightblue" stroke="midnightblue" points="490.75,-215.44 496.46,-224.37 497.57,-213.83 490.75,-215.44"/>
</g>
<!-- Node17&#45;&gt;Node5 -->
<g id="edge23" class="edge">
<title>Node17&#45;&gt;Node5</title>
<path fill="none" stroke="midnightblue" d="M462.88,-103.2C454.26,-88.73 440.39,-68.69 423.5,-56 397.82,-36.7 362.89,-24.75 337.71,-18.06"/>
<polygon fill="midnightblue" stroke="midnightblue" points="460,-105.21 467.98,-112.18 466.08,-101.75 460,-105.21"/>
</g>
<!-- Node19 -->
<g id="node19" class="node">
<title>Node19</title>
<g id="a_node19"><a xlink:href="api_2packet__io__types_8h.html" target="_top" xlink:title=" ">
<polygon fill="white" stroke="black" points="303.5,-280.5 303.5,-299.5 407.5,-299.5 407.5,-280.5 303.5,-280.5"/>
<text text-anchor="middle" x="355.5" y="-287.5" font-family="Helvetica,sans-Serif" font-size="10.00">packet_io_types.h</text>
</a>
</g>
</g>
<!-- Node18&#45;&gt;Node19 -->
<g id="edge25" class="edge">
<title>Node18&#45;&gt;Node19</title>
<path fill="none" stroke="midnightblue" d="M347.05,-326.1C349.21,-317.14 351.68,-306.86 353.39,-299.75"/>
<polygon fill="midnightblue" stroke="midnightblue" points="343.58,-325.54 344.65,-336.08 350.39,-327.18 343.58,-325.54"/>
</g>
<!-- Node19&#45;&gt;Node6 -->
<g id="edge26" class="edge">
<title>Node19&#45;&gt;Node6</title>
<path fill="none" stroke="midnightblue" d="M326.11,-276.5C302.3,-266.38 269.39,-252.39 248.53,-243.52"/>
<polygon fill="midnightblue" stroke="midnightblue" points="324.8,-279.75 335.38,-280.44 327.54,-273.31 324.8,-279.75"/>
</g>
<!-- Node19&#45;&gt;Node8 -->
<g id="edge27" class="edge">
<title>Node19&#45;&gt;Node8</title>
<path fill="none" stroke="midnightblue" d="M341.35,-272.74C334.55,-264.47 326.58,-254.06 320.5,-244 296.38,-204.11 276.08,-151.84 268.59,-131.56"/>
<polygon fill="midnightblue" stroke="midnightblue" points="338.76,-275.09 347.88,-280.48 344.11,-270.58 338.76,-275.09"/>
</g>
<!-- Node19&#45;&gt;Node10 -->
<g id="edge29" class="edge">
<title>Node19&#45;&gt;Node10</title>
<path fill="none" stroke="midnightblue" d="M387.34,-275.94C400.74,-268.67 414.95,-258.17 422.5,-244 438.39,-214.19 439.31,-197.3 422.5,-168 412.1,-149.87 391.25,-138.35 373.87,-131.51"/>
<polygon fill="midnightblue" stroke="midnightblue" points="385.67,-272.87 378.29,-280.47 388.8,-279.13 385.67,-272.87"/>
</g>
<!-- Node19&#45;&gt;Node16 -->
<g id="edge28" class="edge">
<title>Node19&#45;&gt;Node16</title>
<path fill="none" stroke="midnightblue" d="M387.53,-276.91C414.41,-266.75 452.14,-252.51 475.95,-243.52"/>
<polygon fill="midnightblue" stroke="midnightblue" points="386.28,-273.64 378.16,-280.44 388.75,-280.19 386.28,-273.64"/>
</g>
<!-- Node20 -->
<g id="node20" class="node">
<title>Node20</title>
<g id="a_node20"><a xlink:href="api_2spec_2traffic__mngr_8h.html" target="_top" xlink:title=" ">
<polygon fill="white" stroke="black" points="329.5,-224.5 329.5,-243.5 413.5,-243.5 413.5,-224.5 329.5,-224.5"/>
<text text-anchor="middle" x="371.5" y="-231.5" font-family="Helvetica,sans-Serif" font-size="10.00">traffic_mngr.h</text>
</a>
</g>
</g>
<!-- Node19&#45;&gt;Node20 -->
<g id="edge30" class="edge">
<title>Node19&#45;&gt;Node20</title>
<path fill="none" stroke="midnightblue" d="M361.01,-270.4C363.69,-261.36 366.78,-250.94 368.91,-243.75"/>
<polygon fill="midnightblue" stroke="midnightblue" points="357.63,-269.5 358.14,-280.08 364.34,-271.49 357.63,-269.5"/>
</g>
<!-- Node21 -->
<g id="node21" class="node">
<title>Node21</title>
<g id="a_node21"><a xlink:href="api_2traffic__mngr_8h.html" target="_top" xlink:title=" ">
<polygon fill="white" stroke="black" points="329.5,-168.5 329.5,-187.5 413.5,-187.5 413.5,-168.5 329.5,-168.5"/>
<text text-anchor="middle" x="371.5" y="-175.5" font-family="Helvetica,sans-Serif" font-size="10.00">traffic_mngr.h</text>
</a>
</g>
</g>
<!-- Node20&#45;&gt;Node21 -->
<g id="edge31" class="edge">
<title>Node20&#45;&gt;Node21</title>
<path fill="none" stroke="midnightblue" d="M371.5,-213.8C371.5,-204.91 371.5,-194.78 371.5,-187.75"/>
<polygon fill="midnightblue" stroke="midnightblue" points="368,-214.08 371.5,-224.08 375,-214.08 368,-214.08"/>
</g>
<!-- Node21&#45;&gt;Node5 -->
<g id="edge33" class="edge">
<title>Node21&#45;&gt;Node5</title>
<path fill="none" stroke="midnightblue" d="M381.07,-159.35C393.13,-134.47 410.07,-88.5 390.5,-56 379.05,-36.97 356.55,-25.57 337.58,-19.01"/>
<polygon fill="midnightblue" stroke="midnightblue" points="377.91,-157.85 376.47,-168.34 384.14,-161.04 377.91,-157.85"/>
</g>
<!-- Node21&#45;&gt;Node8 -->
<g id="edge32" class="edge">
<title>Node21&#45;&gt;Node8</title>
<path fill="none" stroke="midnightblue" d="M345.44,-163.73C325.82,-153.73 299.47,-140.31 282.49,-131.65"/>
<polygon fill="midnightblue" stroke="midnightblue" points="343.97,-166.9 354.47,-168.32 347.15,-160.67 343.97,-166.9"/>
</g>
<!-- Node23 -->
<g id="node23" class="node">
<title>Node23</title>
<g id="a_node23"><a xlink:href="api_2pool_8h.html" target="_top" xlink:title=" ">
<polygon fill="white" stroke="black" points="496,-280.5 496,-299.5 543,-299.5 543,-280.5 496,-280.5"/>
<text text-anchor="middle" x="519.5" y="-287.5" font-family="Helvetica,sans-Serif" font-size="10.00">pool.h</text>
</a>
</g>
</g>
<!-- Node22&#45;&gt;Node23 -->
<g id="edge35" class="edge">
<title>Node22&#45;&gt;Node23</title>
<path fill="none" stroke="midnightblue" d="M516.9,-326.1C517.56,-317.14 518.33,-306.86 518.85,-299.75"/>
<polygon fill="midnightblue" stroke="midnightblue" points="513.41,-325.85 516.16,-336.08 520.39,-326.37 513.41,-325.85"/>
</g>
<!-- Node23&#45;&gt;Node5 -->
<g id="edge36" class="edge">
<title>Node23&#45;&gt;Node5</title>
<path fill="none" stroke="midnightblue" d="M529.09,-271.4C539.76,-250.15 555.5,-213.02 555.5,-179 555.5,-179 555.5,-179 555.5,-121 555.5,-26.87 405.19,-12.58 337.67,-10.91"/>
<polygon fill="midnightblue" stroke="midnightblue" points="525.88,-269.99 524.36,-280.47 532.09,-273.23 525.88,-269.99"/>
</g>
<!-- Node25 -->
<g id="node25" class="node">
<title>Node25</title>
<g id="a_node25"><a xlink:href="api_2timer_8h.html" target="_top" xlink:title=" ">
<polygon fill="white" stroke="black" points="566,-280.5 566,-299.5 617,-299.5 617,-280.5 566,-280.5"/>
<text text-anchor="middle" x="591.5" y="-287.5" font-family="Helvetica,sans-Serif" font-size="10.00">timer.h</text>
</a>
</g>
</g>
<!-- Node24&#45;&gt;Node25 -->
<g id="edge38" class="edge">
<title>Node24&#45;&gt;Node25</title>
<path fill="none" stroke="midnightblue" d="M590.21,-325.8C590.54,-316.91 590.92,-306.78 591.18,-299.75"/>
<polygon fill="midnightblue" stroke="midnightblue" points="586.7,-325.96 589.83,-336.08 593.7,-326.22 586.7,-325.96"/>
</g>
<!-- Node25&#45;&gt;Node5 -->
<g id="edge39" class="edge">
<title>Node25&#45;&gt;Node5</title>
<path fill="none" stroke="midnightblue" d="M592.05,-270.25C592.64,-248.36 593.5,-211.06 593.5,-179 593.5,-179 593.5,-179 593.5,-121 593.5,-85.09 575.93,-75.08 545.5,-56 511.29,-34.55 395.09,-20.11 337.88,-14.12"/>
<polygon fill="midnightblue" stroke="midnightblue" points="588.54,-270.35 591.76,-280.44 595.54,-270.55 588.54,-270.35"/>
</g>
</g>
</svg>
