<?xml version="1.0" encoding="UTF-8" standalone="no"?>
<!DOCTYPE svg PUBLIC "-//W3C//DTD SVG 1.1//EN"
 "http://www.w3.org/Graphics/SVG/1.1/DTD/svg11.dtd">
<!-- Generated by graphviz version 2.43.0 (0)
 -->
<!-- Title: buffer.h Pages: 1 -->
<svg width="1055pt" height="979pt"
 viewBox="0.00 0.00 1055.00 979.00" xmlns="http://www.w3.org/2000/svg" xmlns:xlink="http://www.w3.org/1999/xlink">
<g id="graph0" class="graph" transform="scale(1 1) rotate(0) translate(4 975)">
<title>buffer.h</title>
<polygon fill="white" stroke="transparent" points="-4,4 -4,-975 1051,-975 1051,4 -4,4"/>
<!-- Node1 -->
<g id="node1" class="node">
<title>Node1</title>
<g id="a_node1"><a xlink:title=" ">
<polygon fill="#bfbfbf" stroke="black" points="600.5,-951.5 600.5,-970.5 653.5,-970.5 653.5,-951.5 600.5,-951.5"/>
<text text-anchor="middle" x="627" y="-958.5" font-family="Helvetica,sans-Serif" font-size="10.00">buffer.h</text>
</a>
</g>
</g>
<!-- Node2 -->
<g id="node2" class="node">
<title>Node2</title>
<g id="a_node2"><a xlink:title=" ">
<polygon fill="white" stroke="#bfbfbf" points="506,-895.5 506,-914.5 616,-914.5 616,-895.5 506,-895.5"/>
<text text-anchor="middle" x="561" y="-902.5" font-family="Helvetica,sans-Serif" font-size="10.00">odp/api/abi/buffer.h</text>
</a>
</g>
</g>
<!-- Node1&#45;&gt;Node2 -->
<g id="edge1" class="edge">
<title>Node1&#45;&gt;Node2</title>
<path fill="none" stroke="midnightblue" d="M616.4,-951.32C606.54,-943.26 591.65,-931.08 579.78,-921.37"/>
<polygon fill="midnightblue" stroke="midnightblue" points="581.75,-918.46 571.8,-914.83 577.32,-923.88 581.75,-918.46"/>
</g>
<!-- Node3 -->
<g id="node3" class="node">
<title>Node3</title>
<g id="a_node3"><a xlink:href="api_2spec_2buffer_8h.html" target="_top" xlink:title=" ">
<polygon fill="white" stroke="black" points="634,-895.5 634,-914.5 752,-914.5 752,-895.5 634,-895.5"/>
<text text-anchor="middle" x="693" y="-902.5" font-family="Helvetica,sans-Serif" font-size="10.00">odp/api/spec/buffer.h</text>
</a>
</g>
</g>
<!-- Node1&#45;&gt;Node3 -->
<g id="edge2" class="edge">
<title>Node1&#45;&gt;Node3</title>
<path fill="none" stroke="midnightblue" d="M637.6,-951.32C647.46,-943.26 662.35,-931.08 674.22,-921.37"/>
<polygon fill="midnightblue" stroke="midnightblue" points="676.68,-923.88 682.2,-914.83 672.25,-918.46 676.68,-923.88"/>
</g>
<!-- Node4 -->
<g id="node4" class="node">
<title>Node4</title>
<g id="a_node4"><a xlink:href="visibility__begin_8h_source.html" target="_top" xlink:title=" ">
<polygon fill="white" stroke="black" points="110.5,-0.5 110.5,-19.5 231.5,-19.5 231.5,-0.5 110.5,-0.5"/>
<text text-anchor="middle" x="171" y="-7.5" font-family="Helvetica,sans-Serif" font-size="10.00">odp/visibility_begin.h</text>
</a>
</g>
</g>
<!-- Node3&#45;&gt;Node4 -->
<g id="edge3" class="edge">
<title>Node3&#45;&gt;Node4</title>
<path fill="none" stroke="midnightblue" d="M633.92,-896.17C466.33,-873.77 0,-809.99 0,-794 0,-794 0,-794 0,-132 0,-70.97 73.48,-37.96 124.1,-22.46"/>
<polygon fill="midnightblue" stroke="midnightblue" points="125.28,-25.76 133.9,-19.59 123.31,-19.04 125.28,-25.76"/>
</g>
<!-- Node5 -->
<g id="node5" class="node">
<title>Node5</title>
<g id="a_node5"><a xlink:href="api_2event__types_8h.html" target="_top" xlink:title=" ">
<polygon fill="white" stroke="black" points="234.5,-615.5 234.5,-634.5 359.5,-634.5 359.5,-615.5 234.5,-615.5"/>
<text text-anchor="middle" x="297" y="-622.5" font-family="Helvetica,sans-Serif" font-size="10.00">odp/api/event_types.h</text>
</a>
</g>
</g>
<!-- Node3&#45;&gt;Node5 -->
<g id="edge4" class="edge">
<title>Node3&#45;&gt;Node5</title>
<path fill="none" stroke="midnightblue" d="M639.03,-895.45C553.16,-880.3 395,-845.43 395,-794 395,-794 395,-794 395,-736 395,-692.38 351.51,-658.06 322.47,-640.01"/>
<polygon fill="midnightblue" stroke="midnightblue" points="324,-636.85 313.62,-634.73 320.42,-642.86 324,-636.85"/>
</g>
<!-- Node8 -->
<g id="node8" class="node">
<title>Node8</title>
<g id="a_node8"><a xlink:href="visibility__end_8h_source.html" target="_top" xlink:title=" ">
<polygon fill="white" stroke="black" points="666,-0.5 666,-19.5 778,-19.5 778,-0.5 666,-0.5"/>
<text text-anchor="middle" x="722" y="-7.5" font-family="Helvetica,sans-Serif" font-size="10.00">odp/visibility_end.h</text>
</a>
</g>
</g>
<!-- Node3&#45;&gt;Node8 -->
<g id="edge57" class="edge">
<title>Node3&#45;&gt;Node8</title>
<path fill="none" stroke="midnightblue" d="M752.25,-897.93C853.03,-885.95 1047,-854.98 1047,-794 1047,-794 1047,-794 1047,-132 1047,-90.82 1028.83,-77.98 994,-56 960.7,-34.98 857.82,-22.39 788.58,-16.08"/>
<polygon fill="midnightblue" stroke="midnightblue" points="788.46,-12.56 778.19,-15.16 787.84,-19.53 788.46,-12.56"/>
</g>
<!-- Node9 -->
<g id="node9" class="node">
<title>Node9</title>
<g id="a_node9"><a xlink:href="api_2pool__types_8h.html" target="_top" xlink:title=" ">
<polygon fill="white" stroke="black" points="730,-839.5 730,-858.5 848,-858.5 848,-839.5 730,-839.5"/>
<text text-anchor="middle" x="789" y="-846.5" font-family="Helvetica,sans-Serif" font-size="10.00">odp/api/pool_types.h</text>
</a>
</g>
</g>
<!-- Node3&#45;&gt;Node9 -->
<g id="edge9" class="edge">
<title>Node3&#45;&gt;Node9</title>
<path fill="none" stroke="midnightblue" d="M708.42,-895.32C723.54,-886.82 746.82,-873.73 764.47,-863.8"/>
<polygon fill="midnightblue" stroke="midnightblue" points="766.61,-866.61 773.61,-858.65 763.18,-860.51 766.61,-866.61"/>
</g>
<!-- Node12 -->
<g id="node12" class="node">
<title>Node12</title>
<g id="a_node12"><a xlink:href="api_2std__types_8h.html" target="_top" xlink:title=" ">
<polygon fill="white" stroke="black" points="765,-235.5 765,-254.5 877,-254.5 877,-235.5 765,-235.5"/>
<text text-anchor="middle" x="821" y="-242.5" font-family="Helvetica,sans-Serif" font-size="10.00">odp/api/std_types.h</text>
</a>
</g>
</g>
<!-- Node3&#45;&gt;Node12 -->
<g id="edge56" class="edge">
<title>Node3&#45;&gt;Node12</title>
<path fill="none" stroke="midnightblue" d="M691.44,-895.32C688.04,-873.36 682.45,-815.05 712,-783 758.18,-732.91 813.22,-795.56 861,-747 919.31,-687.75 902,-647.63 902,-564.5 902,-564.5 902,-564.5 902,-439.5 902,-369.56 856.42,-295.66 833.64,-263.1"/>
<polygon fill="midnightblue" stroke="midnightblue" points="836.3,-260.8 827.63,-254.71 830.61,-264.88 836.3,-260.8"/>
</g>
<!-- Node6 -->
<g id="node6" class="node">
<title>Node6</title>
<g id="a_node6"><a xlink:title=" ">
<polygon fill="white" stroke="#bfbfbf" points="104.5,-554 104.5,-573 247.5,-573 247.5,-554 104.5,-554"/>
<text text-anchor="middle" x="176" y="-561" font-family="Helvetica,sans-Serif" font-size="10.00">odp/api/abi/event_types.h</text>
</a>
</g>
</g>
<!-- Node5&#45;&gt;Node6 -->
<g id="edge5" class="edge">
<title>Node5&#45;&gt;Node6</title>
<path fill="none" stroke="midnightblue" d="M279.66,-615.48C259.45,-605.53 225.81,-588.99 202.36,-577.46"/>
<polygon fill="midnightblue" stroke="midnightblue" points="203.82,-574.28 193.3,-573.01 200.73,-580.56 203.82,-574.28"/>
</g>
<!-- Node7 -->
<g id="node7" class="node">
<title>Node7</title>
<g id="a_node7"><a xlink:href="api_2spec_2event__types_8h.html" target="_top" xlink:title=" ">
<polygon fill="white" stroke="black" points="256.5,-56.5 256.5,-86.5 365.5,-86.5 365.5,-56.5 256.5,-56.5"/>
<text text-anchor="start" x="264.5" y="-74.5" font-family="Helvetica,sans-Serif" font-size="10.00">odp/api/spec/event</text>
<text text-anchor="middle" x="311" y="-63.5" font-family="Helvetica,sans-Serif" font-size="10.00">_types.h</text>
</a>
</g>
</g>
<!-- Node5&#45;&gt;Node7 -->
<g id="edge6" class="edge">
<title>Node5&#45;&gt;Node7</title>
<path fill="none" stroke="midnightblue" d="M292.28,-615.1C275.19,-582.8 217.14,-472.77 211,-456 198.21,-421.08 192,-411.69 192,-374.5 192,-374.5 192,-374.5 192,-305.5 192,-219.63 256.9,-133.52 290.84,-94.35"/>
<polygon fill="midnightblue" stroke="midnightblue" points="293.58,-96.54 297.58,-86.72 288.34,-91.9 293.58,-96.54"/>
</g>
<!-- Node7&#45;&gt;Node4 -->
<g id="edge7" class="edge">
<title>Node7&#45;&gt;Node4</title>
<path fill="none" stroke="midnightblue" d="M277.82,-56.4C254.44,-46.46 223.39,-33.26 200.79,-23.66"/>
<polygon fill="midnightblue" stroke="midnightblue" points="201.94,-20.35 191.37,-19.66 199.21,-26.79 201.94,-20.35"/>
</g>
<!-- Node7&#45;&gt;Node8 -->
<g id="edge8" class="edge">
<title>Node7&#45;&gt;Node8</title>
<path fill="none" stroke="midnightblue" d="M365.58,-62.6C440.54,-51.75 575.23,-32.25 655.84,-20.58"/>
<polygon fill="midnightblue" stroke="midnightblue" points="656.48,-24.02 665.88,-19.12 655.48,-17.09 656.48,-24.02"/>
</g>
<!-- Node10 -->
<g id="node10" class="node">
<title>Node10</title>
<g id="a_node10"><a xlink:title=" ">
<polygon fill="white" stroke="#bfbfbf" points="721,-783.5 721,-802.5 857,-802.5 857,-783.5 721,-783.5"/>
<text text-anchor="middle" x="789" y="-790.5" font-family="Helvetica,sans-Serif" font-size="10.00">odp/api/abi/pool_types.h</text>
</a>
</g>
</g>
<!-- Node9&#45;&gt;Node10 -->
<g id="edge10" class="edge">
<title>Node9&#45;&gt;Node10</title>
<path fill="none" stroke="midnightblue" d="M789,-839.08C789,-832.01 789,-821.86 789,-812.99"/>
<polygon fill="midnightblue" stroke="midnightblue" points="792.5,-812.75 789,-802.75 785.5,-812.75 792.5,-812.75"/>
</g>
<!-- Node11 -->
<g id="node11" class="node">
<title>Node11</title>
<g id="a_node11"><a xlink:href="api_2spec_2pool__types_8h.html" target="_top" xlink:title=" ">
<polygon fill="white" stroke="black" points="875.5,-783.5 875.5,-802.5 1018.5,-802.5 1018.5,-783.5 875.5,-783.5"/>
<text text-anchor="middle" x="947" y="-790.5" font-family="Helvetica,sans-Serif" font-size="10.00">odp/api/spec/pool_types.h</text>
</a>
</g>
</g>
<!-- Node9&#45;&gt;Node11 -->
<g id="edge11" class="edge">
<title>Node9&#45;&gt;Node11</title>
<path fill="none" stroke="midnightblue" d="M814.04,-839.44C840.62,-830.36 882.81,-815.94 912.52,-805.78"/>
<polygon fill="midnightblue" stroke="midnightblue" points="913.75,-809.06 922.08,-802.52 911.49,-802.44 913.75,-809.06"/>
</g>
<!-- Node11&#45;&gt;Node4 -->
<g id="edge12" class="edge">
<title>Node11&#45;&gt;Node4</title>
<path fill="none" stroke="midnightblue" d="M875.29,-783.79C660.65,-759.16 38,-687.26 38,-682 38,-682 38,-682 38,-132 38,-77.75 99.28,-41.4 138.65,-23.64"/>
<polygon fill="midnightblue" stroke="midnightblue" points="140.35,-26.72 148.14,-19.53 137.57,-20.3 140.35,-26.72"/>
</g>
<!-- Node11&#45;&gt;Node8 -->
<g id="edge55" class="edge">
<title>Node11&#45;&gt;Node8</title>
<path fill="none" stroke="midnightblue" d="M956.15,-783.25C973.39,-765.77 1009,-724.53 1009,-682 1009,-682 1009,-682 1009,-132 1009,-36.65 872.84,-15.25 788.09,-11.16"/>
<polygon fill="midnightblue" stroke="midnightblue" points="788.15,-7.66 778.02,-10.74 787.86,-14.65 788.15,-7.66"/>
</g>
<!-- Node11&#45;&gt;Node12 -->
<g id="edge13" class="edge">
<title>Node11&#45;&gt;Node12</title>
<path fill="none" stroke="midnightblue" d="M946.08,-783.45C944.19,-764.97 940,-719.89 940,-682 940,-682 940,-682 940,-439.5 940,-372.08 949.91,-344.59 909,-291 897.42,-275.84 879.31,-265.35 862.51,-258.35"/>
<polygon fill="midnightblue" stroke="midnightblue" points="863.42,-254.95 852.83,-254.62 860.9,-261.48 863.42,-254.95"/>
</g>
<!-- Node19 -->
<g id="node19" class="node">
<title>Node19</title>
<g id="a_node19"><a xlink:href="api_2dma__types_8h.html" target="_top" xlink:title=" ">
<polygon fill="white" stroke="black" points="732.5,-727.5 732.5,-746.5 851.5,-746.5 851.5,-727.5 732.5,-727.5"/>
<text text-anchor="middle" x="792" y="-734.5" font-family="Helvetica,sans-Serif" font-size="10.00">odp/api/dma_types.h</text>
</a>
</g>
</g>
<!-- Node11&#45;&gt;Node19 -->
<g id="edge24" class="edge">
<title>Node11&#45;&gt;Node19</title>
<path fill="none" stroke="midnightblue" d="M922.44,-783.44C896.48,-774.4 855.33,-760.06 826.2,-749.92"/>
<polygon fill="midnightblue" stroke="midnightblue" points="827.04,-746.5 816.45,-746.52 824.74,-753.11 827.04,-746.5"/>
</g>
<!-- Node13 -->
<g id="node13" class="node">
<title>Node13</title>
<g id="a_node13"><a xlink:title=" ">
<polygon fill="white" stroke="#bfbfbf" points="756,-179.5 756,-198.5 886,-198.5 886,-179.5 756,-179.5"/>
<text text-anchor="middle" x="821" y="-186.5" font-family="Helvetica,sans-Serif" font-size="10.00">odp/api/abi/std_types.h</text>
</a>
</g>
</g>
<!-- Node12&#45;&gt;Node13 -->
<g id="edge14" class="edge">
<title>Node12&#45;&gt;Node13</title>
<path fill="none" stroke="midnightblue" d="M821,-235.08C821,-228.01 821,-217.86 821,-208.99"/>
<polygon fill="midnightblue" stroke="midnightblue" points="824.5,-208.75 821,-198.75 817.5,-208.75 824.5,-208.75"/>
</g>
<!-- Node14 -->
<g id="node14" class="node">
<title>Node14</title>
<g id="a_node14"><a xlink:href="api_2spec_2std__types_8h.html" target="_top" xlink:title=" ">
<polygon fill="white" stroke="black" points="600.5,-179.5 600.5,-198.5 737.5,-198.5 737.5,-179.5 600.5,-179.5"/>
<text text-anchor="middle" x="669" y="-186.5" font-family="Helvetica,sans-Serif" font-size="10.00">odp/api/spec/std_types.h</text>
</a>
</g>
</g>
<!-- Node12&#45;&gt;Node14 -->
<g id="edge15" class="edge">
<title>Node12&#45;&gt;Node14</title>
<path fill="none" stroke="midnightblue" d="M796.92,-235.44C771.46,-226.4 731.11,-212.06 702.54,-201.92"/>
<polygon fill="midnightblue" stroke="midnightblue" points="703.57,-198.57 692.97,-198.52 701.22,-205.16 703.57,-198.57"/>
</g>
<!-- Node14&#45;&gt;Node4 -->
<g id="edge16" class="edge">
<title>Node14&#45;&gt;Node4</title>
<path fill="none" stroke="midnightblue" d="M651.24,-179.48C596.5,-153.31 430.6,-74.72 374,-56 327.71,-40.69 273.77,-29.01 233.12,-21.39"/>
<polygon fill="midnightblue" stroke="midnightblue" points="233.56,-17.91 223.09,-19.54 232.29,-24.8 233.56,-17.91"/>
</g>
<!-- Node14&#45;&gt;Node8 -->
<g id="edge23" class="edge">
<title>Node14&#45;&gt;Node8</title>
<path fill="none" stroke="midnightblue" d="M687.15,-179.41C715.05,-164.97 767.04,-132.86 784,-87 788.78,-74.08 790.26,-68.27 784,-56 777,-42.27 763.63,-31.75 751.1,-24.35"/>
<polygon fill="midnightblue" stroke="midnightblue" points="752.68,-21.22 742.22,-19.51 749.33,-27.37 752.68,-21.22"/>
</g>
<!-- Node15 -->
<g id="node15" class="node">
<title>Node15</title>
<g id="a_node15"><a xlink:title=" ">
<polygon fill="white" stroke="#bfbfbf" points="832.5,-123.5 832.5,-142.5 885.5,-142.5 885.5,-123.5 832.5,-123.5"/>
<text text-anchor="middle" x="859" y="-130.5" font-family="Helvetica,sans-Serif" font-size="10.00">stdint.h</text>
</a>
</g>
</g>
<!-- Node14&#45;&gt;Node15 -->
<g id="edge17" class="edge">
<title>Node14&#45;&gt;Node15</title>
<path fill="none" stroke="midnightblue" d="M699.11,-179.44C732.53,-169.94 786.5,-154.61 822.35,-144.41"/>
<polygon fill="midnightblue" stroke="midnightblue" points="823.74,-147.66 832.41,-141.56 821.83,-140.93 823.74,-147.66"/>
</g>
<!-- Node16 -->
<g id="node16" class="node">
<title>Node16</title>
<g id="a_node16"><a xlink:href="api_2align_8h.html" target="_top" xlink:title=" ">
<polygon fill="white" stroke="black" points="638.5,-123.5 638.5,-142.5 727.5,-142.5 727.5,-123.5 638.5,-123.5"/>
<text text-anchor="middle" x="683" y="-130.5" font-family="Helvetica,sans-Serif" font-size="10.00">odp/api/align.h</text>
</a>
</g>
</g>
<!-- Node14&#45;&gt;Node16 -->
<g id="edge18" class="edge">
<title>Node14&#45;&gt;Node16</title>
<path fill="none" stroke="midnightblue" d="M671.31,-179.08C673.17,-171.93 675.84,-161.64 678.15,-152.69"/>
<polygon fill="midnightblue" stroke="midnightblue" points="681.61,-153.31 680.73,-142.75 674.83,-151.55 681.61,-153.31"/>
</g>
<!-- Node17 -->
<g id="node17" class="node">
<title>Node17</title>
<g id="a_node17"><a xlink:title=" ">
<polygon fill="white" stroke="#bfbfbf" points="668.5,-62 668.5,-81 775.5,-81 775.5,-62 668.5,-62"/>
<text text-anchor="middle" x="722" y="-69" font-family="Helvetica,sans-Serif" font-size="10.00">odp/api/abi/align.h</text>
</a>
</g>
</g>
<!-- Node16&#45;&gt;Node17 -->
<g id="edge19" class="edge">
<title>Node16&#45;&gt;Node17</title>
<path fill="none" stroke="midnightblue" d="M688.59,-123.48C694.38,-114.64 703.59,-100.59 710.87,-89.48"/>
<polygon fill="midnightblue" stroke="midnightblue" points="713.87,-91.29 716.42,-81.01 708.01,-87.45 713.87,-91.29"/>
</g>
<!-- Node18 -->
<g id="node18" class="node">
<title>Node18</title>
<g id="a_node18"><a xlink:href="api_2spec_2align_8h.html" target="_top" xlink:title=" ">
<polygon fill="white" stroke="black" points="460,-62 460,-81 574,-81 574,-62 460,-62"/>
<text text-anchor="middle" x="517" y="-69" font-family="Helvetica,sans-Serif" font-size="10.00">odp/api/spec/align.h</text>
</a>
</g>
</g>
<!-- Node16&#45;&gt;Node18 -->
<g id="edge20" class="edge">
<title>Node16&#45;&gt;Node18</title>
<path fill="none" stroke="midnightblue" d="M659.22,-123.48C630.62,-113.22 582.45,-95.96 550.2,-84.4"/>
<polygon fill="midnightblue" stroke="midnightblue" points="551.33,-81.09 540.74,-81.01 548.97,-87.68 551.33,-81.09"/>
</g>
<!-- Node18&#45;&gt;Node4 -->
<g id="edge21" class="edge">
<title>Node18&#45;&gt;Node4</title>
<path fill="none" stroke="midnightblue" d="M467.43,-61.98C404.86,-51.22 297.36,-32.73 230.45,-21.22"/>
<polygon fill="midnightblue" stroke="midnightblue" points="230.93,-17.75 220.48,-19.51 229.74,-24.65 230.93,-17.75"/>
</g>
<!-- Node18&#45;&gt;Node8 -->
<g id="edge22" class="edge">
<title>Node18&#45;&gt;Node8</title>
<path fill="none" stroke="midnightblue" d="M546.37,-61.98C582.3,-51.55 643.23,-33.86 683.04,-22.31"/>
<polygon fill="midnightblue" stroke="midnightblue" points="684.05,-25.66 692.68,-19.51 682.1,-18.94 684.05,-25.66"/>
</g>
<!-- Node20 -->
<g id="node20" class="node">
<title>Node20</title>
<g id="a_node20"><a xlink:title=" ">
<polygon fill="white" stroke="#bfbfbf" points="723.5,-671.5 723.5,-690.5 860.5,-690.5 860.5,-671.5 723.5,-671.5"/>
<text text-anchor="middle" x="792" y="-678.5" font-family="Helvetica,sans-Serif" font-size="10.00">odp/api/abi/dma_types.h</text>
</a>
</g>
</g>
<!-- Node19&#45;&gt;Node20 -->
<g id="edge25" class="edge">
<title>Node19&#45;&gt;Node20</title>
<path fill="none" stroke="midnightblue" d="M792,-727.08C792,-720.01 792,-709.86 792,-700.99"/>
<polygon fill="midnightblue" stroke="midnightblue" points="795.5,-700.75 792,-690.75 788.5,-700.75 795.5,-700.75"/>
</g>
<!-- Node21 -->
<g id="node21" class="node">
<title>Node21</title>
<g id="a_node21"><a xlink:href="api_2spec_2dma__types_8h.html" target="_top" xlink:title=" ">
<polygon fill="white" stroke="black" points="549,-671.5 549,-690.5 693,-690.5 693,-671.5 549,-671.5"/>
<text text-anchor="middle" x="621" y="-678.5" font-family="Helvetica,sans-Serif" font-size="10.00">odp/api/spec/dma_types.h</text>
</a>
</g>
</g>
<!-- Node19&#45;&gt;Node21 -->
<g id="edge26" class="edge">
<title>Node19&#45;&gt;Node21</title>
<path fill="none" stroke="midnightblue" d="M764.9,-727.44C736.01,-718.32 690.08,-703.81 657.89,-693.65"/>
<polygon fill="midnightblue" stroke="midnightblue" points="658.56,-690.19 647.97,-690.52 656.45,-696.87 658.56,-690.19"/>
</g>
<!-- Node21&#45;&gt;Node4 -->
<g id="edge27" class="edge">
<title>Node21&#45;&gt;Node4</title>
<path fill="none" stroke="midnightblue" d="M548.91,-679.63C400.79,-676.92 76,-660.07 76,-564.5 76,-564.5 76,-564.5 76,-132 76,-85.25 120.42,-45.86 148.51,-25.62"/>
<polygon fill="midnightblue" stroke="midnightblue" points="150.77,-28.32 156.98,-19.74 146.77,-22.57 150.77,-28.32"/>
</g>
<!-- Node21&#45;&gt;Node5 -->
<g id="edge28" class="edge">
<title>Node21&#45;&gt;Node5</title>
<path fill="none" stroke="midnightblue" d="M569.66,-671.44C512.19,-661.87 419.13,-646.36 358,-636.17"/>
<polygon fill="midnightblue" stroke="midnightblue" points="358.54,-632.71 348.1,-634.52 357.39,-639.61 358.54,-632.71"/>
</g>
<!-- Node21&#45;&gt;Node8 -->
<g id="edge54" class="edge">
<title>Node21&#45;&gt;Node8</title>
<path fill="none" stroke="midnightblue" d="M693.3,-674.13C730.25,-668.41 774.56,-657.15 809,-635 842.42,-613.5 864,-604.24 864,-564.5 864,-564.5 864,-564.5 864,-439.5 864,-341.23 971,-344.27 971,-246 971,-246 971,-246 971,-132 971,-50.64 862.11,-23.97 788.35,-15.24"/>
<polygon fill="midnightblue" stroke="midnightblue" points="788.51,-11.73 778.19,-14.12 787.75,-18.69 788.51,-11.73"/>
</g>
<!-- Node21&#45;&gt;Node12 -->
<g id="edge53" class="edge">
<title>Node21&#45;&gt;Node12</title>
<path fill="none" stroke="midnightblue" d="M683.62,-671.49C743.91,-659.35 826,-630.68 826,-564.5 826,-564.5 826,-564.5 826,-439.5 826,-375.49 823.23,-299.62 821.82,-264.96"/>
<polygon fill="midnightblue" stroke="midnightblue" points="825.31,-264.71 821.39,-254.87 818.31,-265.01 825.31,-264.71"/>
</g>
<!-- Node22 -->
<g id="node22" class="node">
<title>Node22</title>
<g id="a_node22"><a xlink:href="api_2packet__types_8h.html" target="_top" xlink:title=" ">
<polygon fill="white" stroke="black" points="556.5,-615.5 556.5,-634.5 685.5,-634.5 685.5,-615.5 556.5,-615.5"/>
<text text-anchor="middle" x="621" y="-622.5" font-family="Helvetica,sans-Serif" font-size="10.00">odp/api/packet_types.h</text>
</a>
</g>
</g>
<!-- Node21&#45;&gt;Node22 -->
<g id="edge29" class="edge">
<title>Node21&#45;&gt;Node22</title>
<path fill="none" stroke="midnightblue" d="M621,-671.08C621,-664.01 621,-653.86 621,-644.99"/>
<polygon fill="midnightblue" stroke="midnightblue" points="624.5,-644.75 621,-634.75 617.5,-644.75 624.5,-644.75"/>
</g>
<!-- Node29 -->
<g id="node29" class="node">
<title>Node29</title>
<g id="a_node29"><a xlink:href="api_2queue__types_8h.html" target="_top" xlink:title=" ">
<polygon fill="white" stroke="black" points="363.5,-492.5 363.5,-511.5 490.5,-511.5 490.5,-492.5 363.5,-492.5"/>
<text text-anchor="middle" x="427" y="-499.5" font-family="Helvetica,sans-Serif" font-size="10.00">odp/api/queue_types.h</text>
</a>
</g>
</g>
<!-- Node21&#45;&gt;Node29 -->
<g id="edge52" class="edge">
<title>Node21&#45;&gt;Node29</title>
<path fill="none" stroke="midnightblue" d="M578.47,-671.42C532,-659.52 459.8,-633.05 427,-579 416.54,-561.77 418.57,-538.04 421.9,-521.71"/>
<polygon fill="midnightblue" stroke="midnightblue" points="425.36,-522.29 424.28,-511.75 418.55,-520.66 425.36,-522.29"/>
</g>
<!-- Node23 -->
<g id="node23" class="node">
<title>Node23</title>
<g id="a_node23"><a xlink:title=" ">
<polygon fill="white" stroke="#bfbfbf" points="568,-548.5 568,-578.5 674,-578.5 674,-548.5 568,-548.5"/>
<text text-anchor="start" x="576" y="-566.5" font-family="Helvetica,sans-Serif" font-size="10.00">odp/api/abi/packet</text>
<text text-anchor="middle" x="621" y="-555.5" font-family="Helvetica,sans-Serif" font-size="10.00">_io_types.h</text>
</a>
</g>
</g>
<!-- Node22&#45;&gt;Node23 -->
<g id="edge30" class="edge">
<title>Node22&#45;&gt;Node23</title>
<path fill="none" stroke="midnightblue" d="M621,-615.48C621,-608.47 621,-598.19 621,-588.7"/>
<polygon fill="midnightblue" stroke="midnightblue" points="624.5,-588.52 621,-578.52 617.5,-588.52 624.5,-588.52"/>
</g>
<!-- Node24 -->
<g id="node24" class="node">
<title>Node24</title>
<g id="a_node24"><a xlink:title=" ">
<polygon fill="white" stroke="#bfbfbf" points="692,-548.5 692,-578.5 798,-578.5 798,-548.5 692,-548.5"/>
<text text-anchor="start" x="700" y="-566.5" font-family="Helvetica,sans-Serif" font-size="10.00">odp/api/abi/packet</text>
<text text-anchor="middle" x="745" y="-555.5" font-family="Helvetica,sans-Serif" font-size="10.00">_types.h</text>
</a>
</g>
</g>
<!-- Node22&#45;&gt;Node24 -->
<g id="edge31" class="edge">
<title>Node22&#45;&gt;Node24</title>
<path fill="none" stroke="midnightblue" d="M638.77,-615.48C656.42,-607 684.07,-593.74 706.73,-582.86"/>
<polygon fill="midnightblue" stroke="midnightblue" points="708.27,-586 715.78,-578.52 705.25,-579.69 708.27,-586"/>
</g>
<!-- Node25 -->
<g id="node25" class="node">
<title>Node25</title>
<g id="a_node25"><a xlink:href="api_2spec_2packet__types_8h.html" target="_top" xlink:title=" ">
<polygon fill="white" stroke="black" points="436.5,-548.5 436.5,-578.5 549.5,-578.5 549.5,-548.5 436.5,-548.5"/>
<text text-anchor="start" x="444.5" y="-566.5" font-family="Helvetica,sans-Serif" font-size="10.00">odp/api/spec/packet</text>
<text text-anchor="middle" x="493" y="-555.5" font-family="Helvetica,sans-Serif" font-size="10.00">_types.h</text>
</a>
</g>
</g>
<!-- Node22&#45;&gt;Node25 -->
<g id="edge32" class="edge">
<title>Node22&#45;&gt;Node25</title>
<path fill="none" stroke="midnightblue" d="M602.66,-615.48C584.43,-607 555.9,-593.74 532.5,-582.86"/>
<polygon fill="midnightblue" stroke="midnightblue" points="533.71,-579.56 523.17,-578.52 530.76,-585.91 533.71,-579.56"/>
</g>
<!-- Node25&#45;&gt;Node4 -->
<g id="edge33" class="edge">
<title>Node25&#45;&gt;Node4</title>
<path fill="none" stroke="midnightblue" d="M436.26,-556.33C330.53,-543.26 114,-508.33 114,-441.5 114,-441.5 114,-441.5 114,-132 114,-91.59 140.34,-50.21 157.21,-27.85"/>
<polygon fill="midnightblue" stroke="midnightblue" points="160.15,-29.77 163.55,-19.74 154.63,-25.46 160.15,-29.77"/>
</g>
<!-- Node25&#45;&gt;Node8 -->
<g id="edge51" class="edge">
<title>Node25&#45;&gt;Node8</title>
<path fill="none" stroke="midnightblue" d="M523.94,-548.43C599.95,-512.1 796.18,-407.21 886,-255 915.88,-204.36 921.93,-175.27 895,-123 867.69,-70 802.63,-38.54 760.54,-23.04"/>
<polygon fill="midnightblue" stroke="midnightblue" points="761.48,-19.66 750.89,-19.62 759.14,-26.26 761.48,-19.66"/>
</g>
<!-- Node26 -->
<g id="node26" class="node">
<title>Node26</title>
<g id="a_node26"><a xlink:href="api_2proto__stats__types_8h.html" target="_top" xlink:title=" ">
<polygon fill="white" stroke="black" points="537,-358.5 537,-388.5 647,-388.5 647,-358.5 537,-358.5"/>
<text text-anchor="start" x="545" y="-376.5" font-family="Helvetica,sans-Serif" font-size="10.00">odp/api/proto_stats</text>
<text text-anchor="middle" x="592" y="-365.5" font-family="Helvetica,sans-Serif" font-size="10.00">_types.h</text>
</a>
</g>
</g>
<!-- Node25&#45;&gt;Node26 -->
<g id="edge34" class="edge">
<title>Node25&#45;&gt;Node26</title>
<path fill="none" stroke="midnightblue" d="M500.44,-548.37C517.4,-516.17 559.03,-437.1 579.8,-397.66"/>
<polygon fill="midnightblue" stroke="midnightblue" points="583.05,-399.02 584.61,-388.54 576.85,-395.76 583.05,-399.02"/>
</g>
<!-- Node25&#45;&gt;Node29 -->
<g id="edge40" class="edge">
<title>Node25&#45;&gt;Node29</title>
<path fill="none" stroke="midnightblue" d="M477.36,-548.4C467.37,-539.4 454.42,-527.72 444.15,-518.47"/>
<polygon fill="midnightblue" stroke="midnightblue" points="446.37,-515.75 436.6,-511.66 441.69,-520.95 446.37,-515.75"/>
</g>
<!-- Node27 -->
<g id="node27" class="node">
<title>Node27</title>
<g id="a_node27"><a xlink:title=" ">
<polygon fill="white" stroke="#bfbfbf" points="663,-291.5 663,-321.5 791,-321.5 791,-291.5 663,-291.5"/>
<text text-anchor="start" x="671" y="-309.5" font-family="Helvetica,sans-Serif" font-size="10.00">odp/api/abi/proto_stats</text>
<text text-anchor="middle" x="727" y="-298.5" font-family="Helvetica,sans-Serif" font-size="10.00">_types.h</text>
</a>
</g>
</g>
<!-- Node26&#45;&gt;Node27 -->
<g id="edge35" class="edge">
<title>Node26&#45;&gt;Node27</title>
<path fill="none" stroke="midnightblue" d="M621.29,-358.4C641.02,-348.9 667.23,-336.28 688.62,-325.98"/>
<polygon fill="midnightblue" stroke="midnightblue" points="690.27,-329.07 697.76,-321.58 687.24,-322.76 690.27,-329.07"/>
</g>
<!-- Node28 -->
<g id="node28" class="node">
<title>Node28</title>
<g id="a_node28"><a xlink:href="api_2spec_2proto__stats__types_8h.html" target="_top" xlink:title=" ">
<polygon fill="white" stroke="black" points="537.5,-291.5 537.5,-321.5 644.5,-321.5 644.5,-291.5 537.5,-291.5"/>
<text text-anchor="start" x="545.5" y="-309.5" font-family="Helvetica,sans-Serif" font-size="10.00">odp/api/spec/proto</text>
<text text-anchor="middle" x="591" y="-298.5" font-family="Helvetica,sans-Serif" font-size="10.00">_stats_types.h</text>
</a>
</g>
</g>
<!-- Node26&#45;&gt;Node28 -->
<g id="edge36" class="edge">
<title>Node26&#45;&gt;Node28</title>
<path fill="none" stroke="midnightblue" d="M591.78,-358.4C591.66,-350.64 591.51,-340.81 591.37,-331.86"/>
<polygon fill="midnightblue" stroke="midnightblue" points="594.87,-331.52 591.22,-321.58 587.87,-331.63 594.87,-331.52"/>
</g>
<!-- Node28&#45;&gt;Node4 -->
<g id="edge37" class="edge">
<title>Node28&#45;&gt;Node4</title>
<path fill="none" stroke="midnightblue" d="M564.67,-291.41C505.27,-259.08 357.42,-175.5 247,-87 234.51,-76.99 204.65,-46.29 186.29,-27.1"/>
<polygon fill="midnightblue" stroke="midnightblue" points="188.65,-24.5 179.22,-19.68 183.58,-29.33 188.65,-24.5"/>
</g>
<!-- Node28&#45;&gt;Node8 -->
<g id="edge39" class="edge">
<title>Node28&#45;&gt;Node8</title>
<path fill="none" stroke="midnightblue" d="M588.71,-291.17C585.42,-267.41 580.79,-218.55 591,-179 606.61,-118.52 617.45,-102.64 659,-56 670.01,-43.64 685,-32.76 697.6,-24.8"/>
<polygon fill="midnightblue" stroke="midnightblue" points="699.53,-27.72 706.25,-19.54 695.89,-21.74 699.53,-27.72"/>
</g>
<!-- Node28&#45;&gt;Node12 -->
<g id="edge38" class="edge">
<title>Node28&#45;&gt;Node12</title>
<path fill="none" stroke="midnightblue" d="M644.63,-291.62C685.16,-281.14 740.06,-266.94 777.79,-257.18"/>
<polygon fill="midnightblue" stroke="midnightblue" points="779.14,-260.44 787.95,-254.55 777.39,-253.67 779.14,-260.44"/>
</g>
<!-- Node30 -->
<g id="node30" class="node">
<title>Node30</title>
<g id="a_node30"><a xlink:title=" ">
<polygon fill="white" stroke="#bfbfbf" points="220.5,-431 220.5,-450 365.5,-450 365.5,-431 220.5,-431"/>
<text text-anchor="middle" x="293" y="-438" font-family="Helvetica,sans-Serif" font-size="10.00">odp/api/abi/queue_types.h</text>
</a>
</g>
</g>
<!-- Node29&#45;&gt;Node30 -->
<g id="edge41" class="edge">
<title>Node29&#45;&gt;Node30</title>
<path fill="none" stroke="midnightblue" d="M407.8,-492.48C385.21,-482.45 347.5,-465.7 321.5,-454.15"/>
<polygon fill="midnightblue" stroke="midnightblue" points="322.72,-450.87 312.16,-450.01 319.88,-457.27 322.72,-450.87"/>
</g>
<!-- Node31 -->
<g id="node31" class="node">
<title>Node31</title>
<g id="a_node31"><a xlink:href="api_2spec_2queue__types_8h.html" target="_top" xlink:title=" ">
<polygon fill="white" stroke="black" points="383.5,-425.5 383.5,-455.5 494.5,-455.5 494.5,-425.5 383.5,-425.5"/>
<text text-anchor="start" x="391.5" y="-443.5" font-family="Helvetica,sans-Serif" font-size="10.00">odp/api/spec/queue</text>
<text text-anchor="middle" x="439" y="-432.5" font-family="Helvetica,sans-Serif" font-size="10.00">_types.h</text>
</a>
</g>
</g>
<!-- Node29&#45;&gt;Node31 -->
<g id="edge42" class="edge">
<title>Node29&#45;&gt;Node31</title>
<path fill="none" stroke="midnightblue" d="M428.72,-492.48C430.15,-485.4 432.25,-474.97 434.18,-465.39"/>
<polygon fill="midnightblue" stroke="midnightblue" points="437.63,-466.02 436.17,-455.52 430.76,-464.63 437.63,-466.02"/>
</g>
<!-- Node31&#45;&gt;Node4 -->
<g id="edge43" class="edge">
<title>Node31&#45;&gt;Node4</title>
<path fill="none" stroke="midnightblue" d="M383.32,-425.93C299.86,-403.95 152,-357.89 152,-307.5 152,-307.5 152,-307.5 152,-132 152,-95.29 160.64,-53.06 166.27,-29.45"/>
<polygon fill="midnightblue" stroke="midnightblue" points="169.67,-30.28 168.67,-19.73 162.87,-28.6 169.67,-30.28"/>
</g>
<!-- Node31&#45;&gt;Node8 -->
<g id="edge50" class="edge">
<title>Node31&#45;&gt;Node8</title>
<path fill="none" stroke="midnightblue" d="M456.96,-425.12C467.71,-415.75 480.98,-402.76 490,-389 515.61,-349.93 510.57,-334.34 528,-291 558.18,-215.95 565.46,-197.05 598,-123 611.2,-92.96 606,-79.4 629,-56 643.64,-41.1 664.2,-30.45 682.27,-23.26"/>
<polygon fill="midnightblue" stroke="midnightblue" points="683.86,-26.4 692,-19.62 681.4,-19.85 683.86,-26.4"/>
</g>
<!-- Node32 -->
<g id="node32" class="node">
<title>Node32</title>
<g id="a_node32"><a xlink:href="api_2schedule__types_8h.html" target="_top" xlink:title=" ">
<polygon fill="white" stroke="black" points="341,-364 341,-383 481,-383 481,-364 341,-364"/>
<text text-anchor="middle" x="411" y="-371" font-family="Helvetica,sans-Serif" font-size="10.00">odp/api/schedule_types.h</text>
</a>
</g>
</g>
<!-- Node31&#45;&gt;Node32 -->
<g id="edge44" class="edge">
<title>Node31&#45;&gt;Node32</title>
<path fill="none" stroke="midnightblue" d="M432.92,-425.4C428.77,-415.76 423.24,-402.91 418.77,-392.54"/>
<polygon fill="midnightblue" stroke="midnightblue" points="421.92,-390.99 414.75,-383.19 415.49,-393.76 421.92,-390.99"/>
</g>
<!-- Node33 -->
<g id="node33" class="node">
<title>Node33</title>
<g id="a_node33"><a xlink:title=" ">
<polygon fill="white" stroke="#bfbfbf" points="220.5,-291.5 220.5,-321.5 337.5,-321.5 337.5,-291.5 220.5,-291.5"/>
<text text-anchor="start" x="228.5" y="-309.5" font-family="Helvetica,sans-Serif" font-size="10.00">odp/api/abi/schedule</text>
<text text-anchor="middle" x="279" y="-298.5" font-family="Helvetica,sans-Serif" font-size="10.00">_types.h</text>
</a>
</g>
</g>
<!-- Node32&#45;&gt;Node33 -->
<g id="edge45" class="edge">
<title>Node32&#45;&gt;Node33</title>
<path fill="none" stroke="midnightblue" d="M393.47,-363.87C374.07,-354.31 342.21,-338.63 317.03,-326.22"/>
<polygon fill="midnightblue" stroke="midnightblue" points="318.26,-322.93 307.74,-321.65 315.16,-329.21 318.26,-322.93"/>
</g>
<!-- Node34 -->
<g id="node34" class="node">
<title>Node34</title>
<g id="a_node34"><a xlink:href="api_2spec_2schedule__types_8h.html" target="_top" xlink:title=" ">
<polygon fill="white" stroke="black" points="355.5,-291.5 355.5,-321.5 480.5,-321.5 480.5,-291.5 355.5,-291.5"/>
<text text-anchor="start" x="363.5" y="-309.5" font-family="Helvetica,sans-Serif" font-size="10.00">odp/api/spec/schedule</text>
<text text-anchor="middle" x="418" y="-298.5" font-family="Helvetica,sans-Serif" font-size="10.00">_types.h</text>
</a>
</g>
</g>
<!-- Node32&#45;&gt;Node34 -->
<g id="edge46" class="edge">
<title>Node32&#45;&gt;Node34</title>
<path fill="none" stroke="midnightblue" d="M411.94,-363.73C412.83,-355.54 414.19,-342.92 415.39,-331.71"/>
<polygon fill="midnightblue" stroke="midnightblue" points="418.89,-331.91 416.48,-321.59 411.93,-331.16 418.89,-331.91"/>
</g>
<!-- Node34&#45;&gt;Node4 -->
<g id="edge47" class="edge">
<title>Node34&#45;&gt;Node4</title>
<path fill="none" stroke="midnightblue" d="M402.61,-291.47C366.73,-258.27 275.86,-171.31 214,-87 200.32,-68.35 187.67,-44.93 179.68,-29.06"/>
<polygon fill="midnightblue" stroke="midnightblue" points="182.7,-27.27 175.15,-19.84 176.42,-30.36 182.7,-27.27"/>
</g>
<!-- Node34&#45;&gt;Node8 -->
<g id="edge49" class="edge">
<title>Node34&#45;&gt;Node8</title>
<path fill="none" stroke="midnightblue" d="M414.76,-291.22C406.05,-248.79 386.9,-122.26 451,-56 478.58,-27.5 584.71,-17.03 655.68,-13.2"/>
<polygon fill="midnightblue" stroke="midnightblue" points="656.08,-16.69 665.89,-12.69 655.72,-9.7 656.08,-16.69"/>
</g>
<!-- Node34&#45;&gt;Node12 -->
<g id="edge48" class="edge">
<title>Node34&#45;&gt;Node12</title>
<path fill="none" stroke="midnightblue" d="M480.53,-296.27C555,-285.27 678.87,-266.98 754.89,-255.76"/>
<polygon fill="midnightblue" stroke="midnightblue" points="755.45,-259.22 764.83,-254.29 754.43,-252.29 755.45,-259.22"/>
</g>
</g>
</svg>
