<?xml version="1.0" encoding="UTF-8" standalone="no"?>
<!DOCTYPE svg PUBLIC "-//W3C//DTD SVG 1.1//EN"
 "http://www.w3.org/Graphics/SVG/1.1/DTD/svg11.dtd">
<!-- Generated by graphviz version 2.43.0 (0)
 -->
<!-- Title: proto_stats_types.h Pages: 1 -->
<svg width="868pt" height="756pt"
 viewBox="0.00 0.00 868.00 756.00" xmlns="http://www.w3.org/2000/svg" xmlns:xlink="http://www.w3.org/1999/xlink">
<g id="graph0" class="graph" transform="scale(1 1) rotate(0) translate(4 752)">
<title>proto_stats_types.h</title>
<polygon fill="white" stroke="transparent" points="-4,4 -4,-752 864,-752 864,4 -4,4"/>
<!-- Node1 -->
<g id="node1" class="node">
<title>Node1</title>
<g id="a_node1"><a xlink:title=" ">
<polygon fill="#bfbfbf" stroke="black" points="443.5,-728.5 443.5,-747.5 556.5,-747.5 556.5,-728.5 443.5,-728.5"/>
<text text-anchor="middle" x="500" y="-735.5" font-family="Helvetica,sans-Serif" font-size="10.00">proto_stats_types.h</text>
</a>
</g>
</g>
<!-- Node2 -->
<g id="node2" class="node">
<title>Node2</title>
<g id="a_node2"><a xlink:href="api_2spec_2packet_8h.html" target="_top" xlink:title=" ">
<polygon fill="white" stroke="black" points="41,-224.5 41,-243.5 99,-243.5 99,-224.5 41,-224.5"/>
<text text-anchor="middle" x="70" y="-231.5" font-family="Helvetica,sans-Serif" font-size="10.00">packet.h</text>
</a>
</g>
</g>
<!-- Node1&#45;&gt;Node2 -->
<g id="edge1" class="edge">
<title>Node1&#45;&gt;Node2</title>
<path fill="none" stroke="midnightblue" d="M432.81,-736.12C296.43,-732.51 0,-714.6 0,-627 0,-627 0,-627 0,-345 0,-301.09 40.2,-260.56 59.67,-243.5"/>
<polygon fill="midnightblue" stroke="midnightblue" points="433.05,-739.63 443.13,-736.38 433.22,-732.63 433.05,-739.63"/>
</g>
<!-- Node5 -->
<g id="node5" class="node">
<title>Node5</title>
<g id="a_node5"><a xlink:href="api_2spec_2packet__types_8h.html" target="_top" xlink:title=" ">
<polygon fill="white" stroke="black" points="455,-672.5 455,-691.5 545,-691.5 545,-672.5 455,-672.5"/>
<text text-anchor="middle" x="500" y="-679.5" font-family="Helvetica,sans-Serif" font-size="10.00">packet_types.h</text>
</a>
</g>
</g>
<!-- Node1&#45;&gt;Node5 -->
<g id="edge4" class="edge">
<title>Node1&#45;&gt;Node5</title>
<path fill="none" stroke="midnightblue" d="M500,-717.8C500,-708.91 500,-698.78 500,-691.75"/>
<polygon fill="midnightblue" stroke="midnightblue" points="496.5,-718.08 500,-728.08 503.5,-718.08 496.5,-718.08"/>
</g>
<!-- Node37 -->
<g id="node37" class="node">
<title>Node37</title>
<g id="a_node37"><a xlink:href="api_2spec_2proto__stats_8h.html" target="_top" xlink:title=" ">
<polygon fill="white" stroke="black" points="688,-672.5 688,-691.5 768,-691.5 768,-672.5 688,-672.5"/>
<text text-anchor="middle" x="728" y="-679.5" font-family="Helvetica,sans-Serif" font-size="10.00">proto_stats.h</text>
</a>
</g>
</g>
<!-- Node1&#45;&gt;Node37 -->
<g id="edge60" class="edge">
<title>Node1&#45;&gt;Node37</title>
<path fill="none" stroke="midnightblue" d="M546.07,-726.09C589.15,-715.89 652.59,-700.86 692.04,-691.52"/>
<polygon fill="midnightblue" stroke="midnightblue" points="545.05,-722.73 536.13,-728.44 546.66,-729.54 545.05,-722.73"/>
</g>
<!-- Node3 -->
<g id="node3" class="node">
<title>Node3</title>
<g id="a_node3"><a xlink:href="api_2packet_8h.html" target="_top" xlink:title=" ">
<polygon fill="white" stroke="black" points="65,-112.5 65,-131.5 123,-131.5 123,-112.5 65,-112.5"/>
<text text-anchor="middle" x="94" y="-119.5" font-family="Helvetica,sans-Serif" font-size="10.00">packet.h</text>
</a>
</g>
</g>
<!-- Node2&#45;&gt;Node3 -->
<g id="edge2" class="edge">
<title>Node2&#45;&gt;Node3</title>
<path fill="none" stroke="midnightblue" d="M74.07,-214.35C79.33,-190.25 88.26,-149.31 92.13,-131.59"/>
<polygon fill="midnightblue" stroke="midnightblue" points="70.6,-213.85 71.88,-224.37 77.43,-215.34 70.6,-213.85"/>
</g>
<!-- Node4 -->
<g id="node4" class="node">
<title>Node4</title>
<g id="a_node4"><a xlink:href="odp__api_8h.html" target="_top" xlink:title=" ">
<polygon fill="white" stroke="black" points="400,-0.5 400,-19.5 464,-19.5 464,-0.5 400,-0.5"/>
<text text-anchor="middle" x="432" y="-7.5" font-family="Helvetica,sans-Serif" font-size="10.00">odp_api.h</text>
</a>
</g>
</g>
<!-- Node3&#45;&gt;Node4 -->
<g id="edge3" class="edge">
<title>Node3&#45;&gt;Node4</title>
<path fill="none" stroke="midnightblue" d="M104.32,-103.17C114.07,-88.04 130.15,-67.07 150,-56 192.43,-32.33 335.19,-18.52 399.78,-13.36"/>
<polygon fill="midnightblue" stroke="midnightblue" points="101.08,-101.75 98.84,-112.11 107.05,-105.41 101.08,-101.75"/>
</g>
<!-- Node6 -->
<g id="node6" class="node">
<title>Node6</title>
<g id="a_node6"><a xlink:href="api_2packet__types_8h.html" target="_top" xlink:title=" ">
<polygon fill="white" stroke="black" points="455,-616.5 455,-635.5 545,-635.5 545,-616.5 455,-616.5"/>
<text text-anchor="middle" x="500" y="-623.5" font-family="Helvetica,sans-Serif" font-size="10.00">packet_types.h</text>
</a>
</g>
</g>
<!-- Node5&#45;&gt;Node6 -->
<g id="edge5" class="edge">
<title>Node5&#45;&gt;Node6</title>
<path fill="none" stroke="midnightblue" d="M500,-661.8C500,-652.91 500,-642.78 500,-635.75"/>
<polygon fill="midnightblue" stroke="midnightblue" points="496.5,-662.08 500,-672.08 503.5,-662.08 496.5,-662.08"/>
</g>
<!-- Node6&#45;&gt;Node2 -->
<g id="edge54" class="edge">
<title>Node6&#45;&gt;Node2</title>
<path fill="none" stroke="midnightblue" d="M444.55,-623.4C321.82,-618.35 38,-597.72 38,-515 38,-515 38,-515 38,-345 38,-305.82 56.95,-261.8 65.68,-243.59"/>
<polygon fill="midnightblue" stroke="midnightblue" points="444.73,-626.91 454.86,-623.8 445,-619.91 444.73,-626.91"/>
</g>
<!-- Node7 -->
<g id="node7" class="node">
<title>Node7</title>
<g id="a_node7"><a xlink:href="api_2spec_2comp_8h.html" target="_top" xlink:title=" ">
<polygon fill="white" stroke="black" points="738.5,-560.5 738.5,-579.5 791.5,-579.5 791.5,-560.5 738.5,-560.5"/>
<text text-anchor="middle" x="765" y="-567.5" font-family="Helvetica,sans-Serif" font-size="10.00">comp.h</text>
</a>
</g>
</g>
<!-- Node6&#45;&gt;Node7 -->
<g id="edge6" class="edge">
<title>Node6&#45;&gt;Node7</title>
<path fill="none" stroke="midnightblue" d="M555.2,-614.97C601.69,-606.33 669.87,-593.19 729,-580 732.02,-579.33 735.17,-578.59 738.3,-577.84"/>
<polygon fill="midnightblue" stroke="midnightblue" points="554.53,-611.53 545.33,-616.8 555.8,-618.42 554.53,-611.53"/>
</g>
<!-- Node9 -->
<g id="node9" class="node">
<title>Node9</title>
<g id="a_node9"><a xlink:href="api_2spec_2crypto_8h.html" target="_top" xlink:title=" ">
<polygon fill="white" stroke="black" points="66,-336.5 66,-355.5 122,-355.5 122,-336.5 66,-336.5"/>
<text text-anchor="middle" x="94" y="-343.5" font-family="Helvetica,sans-Serif" font-size="10.00">crypto.h</text>
</a>
</g>
</g>
<!-- Node6&#45;&gt;Node9 -->
<g id="edge9" class="edge">
<title>Node6&#45;&gt;Node9</title>
<path fill="none" stroke="midnightblue" d="M444.83,-619.56C344.63,-608.13 143,-577.39 143,-515 143,-515 143,-515 143,-457 143,-416.02 114.28,-373.31 100.81,-355.54"/>
<polygon fill="midnightblue" stroke="midnightblue" points="444.46,-623.04 454.79,-620.67 445.24,-616.08 444.46,-623.04"/>
</g>
<!-- Node13 -->
<g id="node13" class="node">
<title>Node13</title>
<g id="a_node13"><a xlink:href="api_2spec_2dma__types_8h.html" target="_top" xlink:title=" ">
<polygon fill="white" stroke="black" points="426,-560.5 426,-579.5 506,-579.5 506,-560.5 426,-560.5"/>
<text text-anchor="middle" x="466" y="-567.5" font-family="Helvetica,sans-Serif" font-size="10.00">dma_types.h</text>
</a>
</g>
</g>
<!-- Node6&#45;&gt;Node13 -->
<g id="edge15" class="edge">
<title>Node6&#45;&gt;Node13</title>
<path fill="none" stroke="midnightblue" d="M489.02,-607.57C483.17,-598.27 476.23,-587.25 471.51,-579.75"/>
<polygon fill="midnightblue" stroke="midnightblue" points="486.1,-609.49 494.39,-616.08 492.02,-605.76 486.1,-609.49"/>
</g>
<!-- Node23 -->
<g id="node23" class="node">
<title>Node23</title>
<g id="a_node23"><a xlink:href="api_2spec_2packet__io_8h.html" target="_top" xlink:title=" ">
<polygon fill="white" stroke="black" points="436,-112.5 436,-131.5 508,-131.5 508,-112.5 436,-112.5"/>
<text text-anchor="middle" x="472" y="-119.5" font-family="Helvetica,sans-Serif" font-size="10.00">packet_io.h</text>
</a>
</g>
</g>
<!-- Node6&#45;&gt;Node23 -->
<g id="edge58" class="edge">
<title>Node6&#45;&gt;Node23</title>
<path fill="none" stroke="midnightblue" d="M513.28,-608.21C546.45,-564.19 628.28,-441.55 600,-336 576.33,-247.65 504.08,-159.56 479.95,-131.88"/>
<polygon fill="midnightblue" stroke="midnightblue" points="510.49,-606.09 507.17,-616.16 516.04,-610.36 510.49,-606.09"/>
</g>
<!-- Node25 -->
<g id="node25" class="node">
<title>Node25</title>
<g id="a_node25"><a xlink:href="api_2spec_2packet__io__types_8h.html" target="_top" xlink:title=" ">
<polygon fill="white" stroke="black" points="178,-336.5 178,-355.5 282,-355.5 282,-336.5 178,-336.5"/>
<text text-anchor="middle" x="230" y="-343.5" font-family="Helvetica,sans-Serif" font-size="10.00">packet_io_types.h</text>
</a>
</g>
</g>
<!-- Node6&#45;&gt;Node25 -->
<g id="edge59" class="edge">
<title>Node6&#45;&gt;Node25</title>
<path fill="none" stroke="midnightblue" d="M444.62,-621.44C378.29,-613.84 276,-589.95 276,-515 276,-515 276,-515 276,-457 276,-416.43 249.04,-373.5 236.4,-355.61"/>
<polygon fill="midnightblue" stroke="midnightblue" points="444.63,-624.96 454.94,-622.53 445.36,-618 444.63,-624.96"/>
</g>
<!-- Node33 -->
<g id="node33" class="node">
<title>Node33</title>
<g id="a_node33"><a xlink:href="api_2spec_2event_8h.html" target="_top" xlink:title=" ">
<polygon fill="white" stroke="black" points="562.5,-560.5 562.5,-579.5 615.5,-579.5 615.5,-560.5 562.5,-560.5"/>
<text text-anchor="middle" x="589" y="-567.5" font-family="Helvetica,sans-Serif" font-size="10.00">event.h</text>
</a>
</g>
</g>
<!-- Node6&#45;&gt;Node33 -->
<g id="edge51" class="edge">
<title>Node6&#45;&gt;Node33</title>
<path fill="none" stroke="midnightblue" d="M523.24,-610.9C539.56,-601 560.87,-588.07 574.74,-579.65"/>
<polygon fill="midnightblue" stroke="midnightblue" points="521.03,-608.14 514.3,-616.32 524.66,-614.13 521.03,-608.14"/>
</g>
<!-- Node35 -->
<g id="node35" class="node">
<title>Node35</title>
<g id="a_node35"><a xlink:href="api_2spec_2packet__flags_8h.html" target="_top" xlink:title=" ">
<polygon fill="white" stroke="black" points="634,-560.5 634,-579.5 720,-579.5 720,-560.5 634,-560.5"/>
<text text-anchor="middle" x="677" y="-567.5" font-family="Helvetica,sans-Serif" font-size="10.00">packet_flags.h</text>
</a>
</g>
</g>
<!-- Node6&#45;&gt;Node35 -->
<g id="edge55" class="edge">
<title>Node6&#45;&gt;Node35</title>
<path fill="none" stroke="midnightblue" d="M537.9,-613.44C571.28,-603.26 619.1,-588.66 649.09,-579.52"/>
<polygon fill="midnightblue" stroke="midnightblue" points="536.59,-610.18 528.05,-616.44 538.63,-616.87 536.59,-610.18"/>
</g>
<!-- Node8 -->
<g id="node8" class="node">
<title>Node8</title>
<g id="a_node8"><a xlink:href="api_2comp_8h.html" target="_top" xlink:title=" ">
<polygon fill="white" stroke="black" points="724.5,-392.5 724.5,-411.5 777.5,-411.5 777.5,-392.5 724.5,-392.5"/>
<text text-anchor="middle" x="751" y="-399.5" font-family="Helvetica,sans-Serif" font-size="10.00">comp.h</text>
</a>
</g>
</g>
<!-- Node7&#45;&gt;Node8 -->
<g id="edge7" class="edge">
<title>Node7&#45;&gt;Node8</title>
<path fill="none" stroke="midnightblue" d="M763.39,-549.93C760.35,-513.92 753.89,-437.23 751.72,-411.57"/>
<polygon fill="midnightblue" stroke="midnightblue" points="759.92,-550.4 764.25,-560.08 766.89,-549.82 759.92,-550.4"/>
</g>
<!-- Node8&#45;&gt;Node4 -->
<g id="edge8" class="edge">
<title>Node8&#45;&gt;Node4</title>
<path fill="none" stroke="midnightblue" d="M748.81,-382.28C746.44,-360.42 743,-323.14 743,-291 743,-291 743,-291 743,-121 743,-88.6 736.16,-75.11 710,-56 671.31,-27.74 528.9,-16.38 464.28,-12.6"/>
<polygon fill="midnightblue" stroke="midnightblue" points="745.36,-382.91 749.95,-392.46 752.31,-382.13 745.36,-382.91"/>
</g>
<!-- Node10 -->
<g id="node10" class="node">
<title>Node10</title>
<g id="a_node10"><a xlink:href="api_2crypto_8h.html" target="_top" xlink:title=" ">
<polygon fill="white" stroke="black" points="98,-168.5 98,-187.5 154,-187.5 154,-168.5 98,-168.5"/>
<text text-anchor="middle" x="126" y="-175.5" font-family="Helvetica,sans-Serif" font-size="10.00">crypto.h</text>
</a>
</g>
</g>
<!-- Node9&#45;&gt;Node10 -->
<g id="edge10" class="edge">
<title>Node9&#45;&gt;Node10</title>
<path fill="none" stroke="midnightblue" d="M97.68,-325.93C104.62,-289.92 119.4,-213.23 124.35,-187.57"/>
<polygon fill="midnightblue" stroke="midnightblue" points="94.18,-325.59 95.72,-336.08 101.05,-326.92 94.18,-325.59"/>
</g>
<!-- Node10&#45;&gt;Node4 -->
<g id="edge14" class="edge">
<title>Node10&#45;&gt;Node4</title>
<path fill="none" stroke="midnightblue" d="M131.12,-158.5C139.62,-131.42 159.37,-81.44 195,-56 227.46,-32.82 342.85,-19.22 399.77,-13.78"/>
<polygon fill="midnightblue" stroke="midnightblue" points="127.71,-157.69 128.23,-168.27 134.42,-159.67 127.71,-157.69"/>
</g>
<!-- Node11 -->
<g id="node11" class="node">
<title>Node11</title>
<g id="a_node11"><a xlink:href="api_2spec_2ipsec_8h.html" target="_top" xlink:title=" ">
<polygon fill="white" stroke="black" points="204.5,-112.5 204.5,-131.5 255.5,-131.5 255.5,-112.5 204.5,-112.5"/>
<text text-anchor="middle" x="230" y="-119.5" font-family="Helvetica,sans-Serif" font-size="10.00">ipsec.h</text>
</a>
</g>
</g>
<!-- Node10&#45;&gt;Node11 -->
<g id="edge11" class="edge">
<title>Node10&#45;&gt;Node11</title>
<path fill="none" stroke="midnightblue" d="M151.83,-163.59C171.06,-153.61 196.74,-140.27 213.33,-131.65"/>
<polygon fill="midnightblue" stroke="midnightblue" points="149.97,-160.61 142.71,-168.32 153.2,-166.82 149.97,-160.61"/>
</g>
<!-- Node12 -->
<g id="node12" class="node">
<title>Node12</title>
<g id="a_node12"><a xlink:href="api_2ipsec_8h.html" target="_top" xlink:title=" ">
<polygon fill="white" stroke="black" points="204.5,-56.5 204.5,-75.5 255.5,-75.5 255.5,-56.5 204.5,-56.5"/>
<text text-anchor="middle" x="230" y="-63.5" font-family="Helvetica,sans-Serif" font-size="10.00">ipsec.h</text>
</a>
</g>
</g>
<!-- Node11&#45;&gt;Node12 -->
<g id="edge12" class="edge">
<title>Node11&#45;&gt;Node12</title>
<path fill="none" stroke="midnightblue" d="M230,-101.8C230,-92.91 230,-82.78 230,-75.75"/>
<polygon fill="midnightblue" stroke="midnightblue" points="226.5,-102.08 230,-112.08 233.5,-102.08 226.5,-102.08"/>
</g>
<!-- Node12&#45;&gt;Node4 -->
<g id="edge13" class="edge">
<title>Node12&#45;&gt;Node4</title>
<path fill="none" stroke="midnightblue" d="M265.7,-55.46C303.74,-45.29 363.41,-29.34 399.98,-19.56"/>
<polygon fill="midnightblue" stroke="midnightblue" points="264.34,-52.2 255.58,-58.16 266.15,-58.96 264.34,-52.2"/>
</g>
<!-- Node14 -->
<g id="node14" class="node">
<title>Node14</title>
<g id="a_node14"><a xlink:href="api_2dma__types_8h.html" target="_top" xlink:title=" ">
<polygon fill="white" stroke="black" points="426,-504.5 426,-523.5 506,-523.5 506,-504.5 426,-504.5"/>
<text text-anchor="middle" x="466" y="-511.5" font-family="Helvetica,sans-Serif" font-size="10.00">dma_types.h</text>
</a>
</g>
</g>
<!-- Node13&#45;&gt;Node14 -->
<g id="edge16" class="edge">
<title>Node13&#45;&gt;Node14</title>
<path fill="none" stroke="midnightblue" d="M466,-549.8C466,-540.91 466,-530.78 466,-523.75"/>
<polygon fill="midnightblue" stroke="midnightblue" points="462.5,-550.08 466,-560.08 469.5,-550.08 462.5,-550.08"/>
</g>
<!-- Node15 -->
<g id="node15" class="node">
<title>Node15</title>
<g id="a_node15"><a xlink:href="spec_2dma_8h.html" target="_top" xlink:title=" ">
<polygon fill="white" stroke="black" points="544.5,-336.5 544.5,-355.5 591.5,-355.5 591.5,-336.5 544.5,-336.5"/>
<text text-anchor="middle" x="568" y="-343.5" font-family="Helvetica,sans-Serif" font-size="10.00">dma.h</text>
</a>
</g>
</g>
<!-- Node14&#45;&gt;Node15 -->
<g id="edge17" class="edge">
<title>Node14&#45;&gt;Node15</title>
<path fill="none" stroke="midnightblue" d="M476.87,-495.31C498.61,-459.92 546.76,-381.56 562.74,-355.57"/>
<polygon fill="midnightblue" stroke="midnightblue" points="473.74,-493.72 471.48,-504.08 479.7,-497.39 473.74,-493.72"/>
</g>
<!-- Node17 -->
<g id="node17" class="node">
<title>Node17</title>
<g id="a_node17"><a xlink:href="api_2spec_2pool__types_8h.html" target="_top" xlink:title=" ">
<polygon fill="white" stroke="black" points="389.5,-448.5 389.5,-467.5 468.5,-467.5 468.5,-448.5 389.5,-448.5"/>
<text text-anchor="middle" x="429" y="-455.5" font-family="Helvetica,sans-Serif" font-size="10.00">pool_types.h</text>
</a>
</g>
</g>
<!-- Node14&#45;&gt;Node17 -->
<g id="edge20" class="edge">
<title>Node14&#45;&gt;Node17</title>
<path fill="none" stroke="midnightblue" d="M454.05,-495.57C447.69,-486.27 440.13,-475.25 435,-467.75"/>
<polygon fill="midnightblue" stroke="midnightblue" points="451.35,-497.81 459.89,-504.08 457.13,-493.86 451.35,-497.81"/>
</g>
<!-- Node16 -->
<g id="node16" class="node">
<title>Node16</title>
<g id="a_node16"><a xlink:href="dma_8h.html" target="_top" xlink:title=" ">
<polygon fill="white" stroke="black" points="581.5,-112.5 581.5,-131.5 628.5,-131.5 628.5,-112.5 581.5,-112.5"/>
<text text-anchor="middle" x="605" y="-119.5" font-family="Helvetica,sans-Serif" font-size="10.00">dma.h</text>
</a>
</g>
</g>
<!-- Node15&#45;&gt;Node16 -->
<g id="edge18" class="edge">
<title>Node15&#45;&gt;Node16</title>
<path fill="none" stroke="midnightblue" d="M571.12,-326.3C578.73,-280.64 598.02,-164.85 603.52,-131.88"/>
<polygon fill="midnightblue" stroke="midnightblue" points="567.64,-325.86 569.45,-336.3 574.55,-327.01 567.64,-325.86"/>
</g>
<!-- Node16&#45;&gt;Node4 -->
<g id="edge19" class="edge">
<title>Node16&#45;&gt;Node4</title>
<path fill="none" stroke="midnightblue" d="M602.32,-102.16C599.29,-87.64 592.98,-68.08 580,-56 548.05,-26.27 497.03,-16.15 464.02,-12.73"/>
<polygon fill="midnightblue" stroke="midnightblue" points="598.88,-102.81 604.04,-112.06 605.77,-101.61 598.88,-102.81"/>
</g>
<!-- Node18 -->
<g id="node18" class="node">
<title>Node18</title>
<g id="a_node18"><a xlink:href="api_2pool__types_8h.html" target="_top" xlink:title=" ">
<polygon fill="white" stroke="black" points="351.5,-392.5 351.5,-411.5 430.5,-411.5 430.5,-392.5 351.5,-392.5"/>
<text text-anchor="middle" x="391" y="-399.5" font-family="Helvetica,sans-Serif" font-size="10.00">pool_types.h</text>
</a>
</g>
</g>
<!-- Node17&#45;&gt;Node18 -->
<g id="edge21" class="edge">
<title>Node17&#45;&gt;Node18</title>
<path fill="none" stroke="midnightblue" d="M416.94,-439.86C410.36,-430.5 402.49,-419.33 397.16,-411.75"/>
<polygon fill="midnightblue" stroke="midnightblue" points="414.11,-441.92 422.73,-448.08 419.83,-437.89 414.11,-441.92"/>
</g>
<!-- Node18&#45;&gt;Node2 -->
<g id="edge34" class="edge">
<title>Node18&#45;&gt;Node2</title>
<path fill="none" stroke="midnightblue" d="M341.2,-400.34C293.8,-397.64 222.03,-387.97 169,-356 121.12,-327.13 86.19,-266.37 74.37,-243.74"/>
<polygon fill="midnightblue" stroke="midnightblue" points="341.07,-403.84 351.23,-400.83 341.41,-396.85 341.07,-403.84"/>
</g>
<!-- Node18&#45;&gt;Node9 -->
<g id="edge32" class="edge">
<title>Node18&#45;&gt;Node9</title>
<path fill="none" stroke="midnightblue" d="M341.3,-392.78C289.84,-384.14 207.15,-369.9 136,-356 131.61,-355.14 126.97,-354.19 122.44,-353.24"/>
<polygon fill="midnightblue" stroke="midnightblue" points="340.72,-396.23 351.16,-394.43 341.88,-389.33 340.72,-396.23"/>
</g>
<!-- Node18&#45;&gt;Node15 -->
<g id="edge33" class="edge">
<title>Node18&#45;&gt;Node15</title>
<path fill="none" stroke="midnightblue" d="M428.91,-389.43C463.91,-378.76 514.79,-363.23 544.33,-354.22"/>
<polygon fill="midnightblue" stroke="midnightblue" points="427.59,-386.18 419.05,-392.44 429.63,-392.87 427.59,-386.18"/>
</g>
<!-- Node19 -->
<g id="node19" class="node">
<title>Node19</title>
<g id="a_node19"><a xlink:href="api_2spec_2buffer_8h.html" target="_top" xlink:title=" ">
<polygon fill="white" stroke="black" points="473.5,-336.5 473.5,-355.5 526.5,-355.5 526.5,-336.5 473.5,-336.5"/>
<text text-anchor="middle" x="500" y="-343.5" font-family="Helvetica,sans-Serif" font-size="10.00">buffer.h</text>
</a>
</g>
</g>
<!-- Node18&#45;&gt;Node19 -->
<g id="edge22" class="edge">
<title>Node18&#45;&gt;Node19</title>
<path fill="none" stroke="midnightblue" d="M417.52,-387.86C437.73,-377.85 464.99,-364.35 482.53,-355.65"/>
<polygon fill="midnightblue" stroke="midnightblue" points="415.92,-384.75 408.51,-392.32 419.03,-391.02 415.92,-384.75"/>
</g>
<!-- Node21 -->
<g id="node21" class="node">
<title>Node21</title>
<g id="a_node21"><a xlink:href="api_2spec_2classification_8h.html" target="_top" xlink:title=" ">
<polygon fill="white" stroke="black" points="426.5,-224.5 426.5,-243.5 515.5,-243.5 515.5,-224.5 426.5,-224.5"/>
<text text-anchor="middle" x="471" y="-231.5" font-family="Helvetica,sans-Serif" font-size="10.00">classification.h</text>
</a>
</g>
</g>
<!-- Node18&#45;&gt;Node21 -->
<g id="edge25" class="edge">
<title>Node18&#45;&gt;Node21</title>
<path fill="none" stroke="midnightblue" d="M405.24,-384.53C411.84,-376.33 419.44,-366.05 425,-356 446.97,-316.27 462.91,-263.9 468.66,-243.58"/>
<polygon fill="midnightblue" stroke="midnightblue" points="402.55,-382.29 398.84,-392.22 407.93,-386.77 402.55,-382.29"/>
</g>
<!-- Node18&#45;&gt;Node25 -->
<g id="edge35" class="edge">
<title>Node18&#45;&gt;Node25</title>
<path fill="none" stroke="midnightblue" d="M355.74,-389.17C325.42,-379 282.43,-364.59 255.39,-355.52"/>
<polygon fill="midnightblue" stroke="midnightblue" points="354.9,-392.58 365.49,-392.44 357.12,-385.95 354.9,-392.58"/>
</g>
<!-- Node29 -->
<g id="node29" class="node">
<title>Node29</title>
<g id="a_node29"><a xlink:href="api_2spec_2pool_8h.html" target="_top" xlink:title=" ">
<polygon fill="white" stroke="black" points="300.5,-336.5 300.5,-355.5 347.5,-355.5 347.5,-336.5 300.5,-336.5"/>
<text text-anchor="middle" x="324" y="-343.5" font-family="Helvetica,sans-Serif" font-size="10.00">pool.h</text>
</a>
</g>
</g>
<!-- Node18&#45;&gt;Node29 -->
<g id="edge45" class="edge">
<title>Node18&#45;&gt;Node29</title>
<path fill="none" stroke="midnightblue" d="M372.17,-385.82C360.16,-376.15 345.03,-363.95 334.96,-355.83"/>
<polygon fill="midnightblue" stroke="midnightblue" points="370.25,-388.77 380.24,-392.32 374.65,-383.32 370.25,-388.77"/>
</g>
<!-- Node31 -->
<g id="node31" class="node">
<title>Node31</title>
<g id="a_node31"><a xlink:href="api_2spec_2timer_8h.html" target="_top" xlink:title=" ">
<polygon fill="white" stroke="black" points="365.5,-336.5 365.5,-355.5 416.5,-355.5 416.5,-336.5 365.5,-336.5"/>
<text text-anchor="middle" x="391" y="-343.5" font-family="Helvetica,sans-Serif" font-size="10.00">timer.h</text>
</a>
</g>
</g>
<!-- Node18&#45;&gt;Node31 -->
<g id="edge48" class="edge">
<title>Node18&#45;&gt;Node31</title>
<path fill="none" stroke="midnightblue" d="M391,-381.8C391,-372.91 391,-362.78 391,-355.75"/>
<polygon fill="midnightblue" stroke="midnightblue" points="387.5,-382.08 391,-392.08 394.5,-382.08 387.5,-382.08"/>
</g>
<!-- Node20 -->
<g id="node20" class="node">
<title>Node20</title>
<g id="a_node20"><a xlink:href="api_2buffer_8h.html" target="_top" xlink:title=" ">
<polygon fill="white" stroke="black" points="518.5,-56.5 518.5,-75.5 571.5,-75.5 571.5,-56.5 518.5,-56.5"/>
<text text-anchor="middle" x="545" y="-63.5" font-family="Helvetica,sans-Serif" font-size="10.00">buffer.h</text>
</a>
</g>
</g>
<!-- Node19&#45;&gt;Node20 -->
<g id="edge23" class="edge">
<title>Node19&#45;&gt;Node20</title>
<path fill="none" stroke="midnightblue" d="M511.57,-327.93C524.6,-306.99 544,-269.96 544,-235 544,-235 544,-235 544,-177 544,-139.19 544.6,-94.06 544.87,-75.56"/>
<polygon fill="midnightblue" stroke="midnightblue" points="508.61,-326.05 506.12,-336.35 514.49,-329.85 508.61,-326.05"/>
</g>
<!-- Node20&#45;&gt;Node4 -->
<g id="edge24" class="edge">
<title>Node20&#45;&gt;Node4</title>
<path fill="none" stroke="midnightblue" d="M518,-52.1C496.89,-42.01 468.14,-28.27 449.82,-19.52"/>
<polygon fill="midnightblue" stroke="midnightblue" points="516.56,-55.29 527.09,-56.44 519.58,-48.97 516.56,-55.29"/>
</g>
<!-- Node22 -->
<g id="node22" class="node">
<title>Node22</title>
<g id="a_node22"><a xlink:href="api_2classification_8h.html" target="_top" xlink:title=" ">
<polygon fill="white" stroke="black" points="388.5,-168.5 388.5,-187.5 477.5,-187.5 477.5,-168.5 388.5,-168.5"/>
<text text-anchor="middle" x="433" y="-175.5" font-family="Helvetica,sans-Serif" font-size="10.00">classification.h</text>
</a>
</g>
</g>
<!-- Node21&#45;&gt;Node22 -->
<g id="edge26" class="edge">
<title>Node21&#45;&gt;Node22</title>
<path fill="none" stroke="midnightblue" d="M458.94,-215.86C452.36,-206.5 444.49,-195.33 439.16,-187.75"/>
<polygon fill="midnightblue" stroke="midnightblue" points="456.11,-217.92 464.73,-224.08 461.83,-213.89 456.11,-217.92"/>
</g>
<!-- Node22&#45;&gt;Node4 -->
<g id="edge31" class="edge">
<title>Node22&#45;&gt;Node4</title>
<path fill="none" stroke="midnightblue" d="M427.98,-158.73C422.12,-135 413.86,-92.33 419,-56 420.82,-43.12 425.45,-28.76 428.66,-19.8"/>
<polygon fill="midnightblue" stroke="midnightblue" points="424.61,-159.68 430.51,-168.47 431.38,-157.91 424.61,-159.68"/>
</g>
<!-- Node22&#45;&gt;Node11 -->
<g id="edge27" class="edge">
<title>Node22&#45;&gt;Node11</title>
<path fill="none" stroke="midnightblue" d="M390.92,-165.81C350.14,-154.96 289.6,-138.85 255.59,-129.81"/>
<polygon fill="midnightblue" stroke="midnightblue" points="390.27,-169.26 400.83,-168.44 392.07,-162.49 390.27,-169.26"/>
</g>
<!-- Node22&#45;&gt;Node23 -->
<g id="edge28" class="edge">
<title>Node22&#45;&gt;Node23</title>
<path fill="none" stroke="midnightblue" d="M445.38,-159.86C452.14,-150.5 460.21,-139.33 465.68,-131.75"/>
<polygon fill="midnightblue" stroke="midnightblue" points="442.46,-157.93 439.44,-168.08 448.13,-162.03 442.46,-157.93"/>
</g>
<!-- Node24 -->
<g id="node24" class="node">
<title>Node24</title>
<g id="a_node24"><a xlink:href="api_2packet__io_8h.html" target="_top" xlink:title=" ">
<polygon fill="white" stroke="black" points="428,-56.5 428,-75.5 500,-75.5 500,-56.5 428,-56.5"/>
<text text-anchor="middle" x="464" y="-63.5" font-family="Helvetica,sans-Serif" font-size="10.00">packet_io.h</text>
</a>
</g>
</g>
<!-- Node23&#45;&gt;Node24 -->
<g id="edge29" class="edge">
<title>Node23&#45;&gt;Node24</title>
<path fill="none" stroke="midnightblue" d="M469.2,-102.1C467.87,-93.14 466.35,-82.86 465.3,-75.75"/>
<polygon fill="midnightblue" stroke="midnightblue" points="465.75,-102.7 470.68,-112.08 472.68,-101.68 465.75,-102.7"/>
</g>
<!-- Node24&#45;&gt;Node4 -->
<g id="edge30" class="edge">
<title>Node24&#45;&gt;Node4</title>
<path fill="none" stroke="midnightblue" d="M453.5,-47.27C448.03,-38.05 441.58,-27.17 437.19,-19.75"/>
<polygon fill="midnightblue" stroke="midnightblue" points="450.61,-49.26 458.72,-56.08 456.63,-45.7 450.61,-49.26"/>
</g>
<!-- Node26 -->
<g id="node26" class="node">
<title>Node26</title>
<g id="a_node26"><a xlink:href="api_2packet__io__types_8h.html" target="_top" xlink:title=" ">
<polygon fill="white" stroke="black" points="178,-280.5 178,-299.5 282,-299.5 282,-280.5 178,-280.5"/>
<text text-anchor="middle" x="230" y="-287.5" font-family="Helvetica,sans-Serif" font-size="10.00">packet_io_types.h</text>
</a>
</g>
</g>
<!-- Node25&#45;&gt;Node26 -->
<g id="edge36" class="edge">
<title>Node25&#45;&gt;Node26</title>
<path fill="none" stroke="midnightblue" d="M230,-325.8C230,-316.91 230,-306.78 230,-299.75"/>
<polygon fill="midnightblue" stroke="midnightblue" points="226.5,-326.08 230,-336.08 233.5,-326.08 226.5,-326.08"/>
</g>
<!-- Node26&#45;&gt;Node2 -->
<g id="edge39" class="edge">
<title>Node26&#45;&gt;Node2</title>
<path fill="none" stroke="midnightblue" d="M194.95,-277.17C164.83,-267 122.1,-252.59 95.23,-243.52"/>
<polygon fill="midnightblue" stroke="midnightblue" points="194.05,-280.56 204.65,-280.44 196.29,-273.93 194.05,-280.56"/>
</g>
<!-- Node26&#45;&gt;Node11 -->
<g id="edge38" class="edge">
<title>Node26&#45;&gt;Node11</title>
<path fill="none" stroke="midnightblue" d="M216.01,-272.37C210.15,-264.34 204.01,-254.24 201,-244 191.46,-211.6 191.46,-200.4 201,-168 205.15,-153.91 215.22,-140.07 222.33,-131.54"/>
<polygon fill="midnightblue" stroke="midnightblue" points="213.41,-274.73 222.33,-280.46 218.93,-270.42 213.41,-274.73"/>
</g>
<!-- Node26&#45;&gt;Node21 -->
<g id="edge37" class="edge">
<title>Node26&#45;&gt;Node21</title>
<path fill="none" stroke="midnightblue" d="M278.12,-278.22C323.66,-268.01 391.11,-252.9 432.99,-243.52"/>
<polygon fill="midnightblue" stroke="midnightblue" points="277.18,-274.84 268.19,-280.44 278.71,-281.67 277.18,-274.84"/>
</g>
<!-- Node26&#45;&gt;Node23 -->
<g id="edge40" class="edge">
<title>Node26&#45;&gt;Node23</title>
<path fill="none" stroke="midnightblue" d="M266.43,-277.15C333.99,-254.83 473.02,-207.07 486,-188 497.82,-170.63 485.76,-145.11 477.8,-131.8"/>
<polygon fill="midnightblue" stroke="midnightblue" points="265.02,-273.93 256.62,-280.38 267.21,-280.58 265.02,-273.93"/>
</g>
<!-- Node27 -->
<g id="node27" class="node">
<title>Node27</title>
<g id="a_node27"><a xlink:href="api_2spec_2traffic__mngr_8h.html" target="_top" xlink:title=" ">
<polygon fill="white" stroke="black" points="210,-224.5 210,-243.5 294,-243.5 294,-224.5 210,-224.5"/>
<text text-anchor="middle" x="252" y="-231.5" font-family="Helvetica,sans-Serif" font-size="10.00">traffic_mngr.h</text>
</a>
</g>
</g>
<!-- Node26&#45;&gt;Node27 -->
<g id="edge41" class="edge">
<title>Node26&#45;&gt;Node27</title>
<path fill="none" stroke="midnightblue" d="M237.46,-270.69C241.17,-261.59 245.48,-251.01 248.43,-243.75"/>
<polygon fill="midnightblue" stroke="midnightblue" points="234.16,-269.5 233.63,-280.08 240.65,-272.14 234.16,-269.5"/>
</g>
<!-- Node28 -->
<g id="node28" class="node">
<title>Node28</title>
<g id="a_node28"><a xlink:href="api_2traffic__mngr_8h.html" target="_top" xlink:title=" ">
<polygon fill="white" stroke="black" points="210,-168.5 210,-187.5 294,-187.5 294,-168.5 210,-168.5"/>
<text text-anchor="middle" x="252" y="-175.5" font-family="Helvetica,sans-Serif" font-size="10.00">traffic_mngr.h</text>
</a>
</g>
</g>
<!-- Node27&#45;&gt;Node28 -->
<g id="edge42" class="edge">
<title>Node27&#45;&gt;Node28</title>
<path fill="none" stroke="midnightblue" d="M252,-213.8C252,-204.91 252,-194.78 252,-187.75"/>
<polygon fill="midnightblue" stroke="midnightblue" points="248.5,-214.08 252,-224.08 255.5,-214.08 248.5,-214.08"/>
</g>
<!-- Node28&#45;&gt;Node4 -->
<g id="edge44" class="edge">
<title>Node28&#45;&gt;Node4</title>
<path fill="none" stroke="midnightblue" d="M258.53,-158.57C269.52,-128.47 292.05,-70.64 308,-56 333.64,-32.46 372.55,-21.01 399.93,-15.59"/>
<polygon fill="midnightblue" stroke="midnightblue" points="255.13,-157.68 255.04,-168.28 261.72,-160.05 255.13,-157.68"/>
</g>
<!-- Node28&#45;&gt;Node11 -->
<g id="edge43" class="edge">
<title>Node28&#45;&gt;Node11</title>
<path fill="none" stroke="midnightblue" d="M244.54,-158.69C240.83,-149.59 236.52,-139.01 233.57,-131.75"/>
<polygon fill="midnightblue" stroke="midnightblue" points="241.35,-160.14 248.37,-168.08 247.84,-157.5 241.35,-160.14"/>
</g>
<!-- Node30 -->
<g id="node30" class="node">
<title>Node30</title>
<g id="a_node30"><a xlink:href="api_2pool_8h.html" target="_top" xlink:title=" ">
<polygon fill="white" stroke="black" points="300.5,-280.5 300.5,-299.5 347.5,-299.5 347.5,-280.5 300.5,-280.5"/>
<text text-anchor="middle" x="324" y="-287.5" font-family="Helvetica,sans-Serif" font-size="10.00">pool.h</text>
</a>
</g>
</g>
<!-- Node29&#45;&gt;Node30 -->
<g id="edge46" class="edge">
<title>Node29&#45;&gt;Node30</title>
<path fill="none" stroke="midnightblue" d="M324,-325.8C324,-316.91 324,-306.78 324,-299.75"/>
<polygon fill="midnightblue" stroke="midnightblue" points="320.5,-326.08 324,-336.08 327.5,-326.08 320.5,-326.08"/>
</g>
<!-- Node30&#45;&gt;Node4 -->
<g id="edge47" class="edge">
<title>Node30&#45;&gt;Node4</title>
<path fill="none" stroke="midnightblue" d="M323.45,-270.25C322.86,-248.36 322,-211.06 322,-179 322,-179 322,-179 322,-121 322,-70.36 381.01,-34.89 412.59,-19.54"/>
<polygon fill="midnightblue" stroke="midnightblue" points="319.96,-270.55 323.74,-280.44 326.96,-270.35 319.96,-270.55"/>
</g>
<!-- Node32 -->
<g id="node32" class="node">
<title>Node32</title>
<g id="a_node32"><a xlink:href="api_2timer_8h.html" target="_top" xlink:title=" ">
<polygon fill="white" stroke="black" points="365.5,-280.5 365.5,-299.5 416.5,-299.5 416.5,-280.5 365.5,-280.5"/>
<text text-anchor="middle" x="391" y="-287.5" font-family="Helvetica,sans-Serif" font-size="10.00">timer.h</text>
</a>
</g>
</g>
<!-- Node31&#45;&gt;Node32 -->
<g id="edge49" class="edge">
<title>Node31&#45;&gt;Node32</title>
<path fill="none" stroke="midnightblue" d="M391,-325.8C391,-316.91 391,-306.78 391,-299.75"/>
<polygon fill="midnightblue" stroke="midnightblue" points="387.5,-326.08 391,-336.08 394.5,-326.08 387.5,-326.08"/>
</g>
<!-- Node32&#45;&gt;Node4 -->
<g id="edge50" class="edge">
<title>Node32&#45;&gt;Node4</title>
<path fill="none" stroke="midnightblue" d="M388.12,-270.36C385.14,-250.13 380.71,-216.87 379,-188 375.02,-120.76 413.23,-44.73 427.1,-19.58"/>
<polygon fill="midnightblue" stroke="midnightblue" points="384.67,-271.02 389.63,-280.38 391.6,-269.97 384.67,-271.02"/>
</g>
<!-- Node34 -->
<g id="node34" class="node">
<title>Node34</title>
<g id="a_node34"><a xlink:href="api_2event_8h.html" target="_top" xlink:title=" ">
<polygon fill="white" stroke="black" points="612.5,-448.5 612.5,-467.5 665.5,-467.5 665.5,-448.5 612.5,-448.5"/>
<text text-anchor="middle" x="639" y="-455.5" font-family="Helvetica,sans-Serif" font-size="10.00">event.h</text>
</a>
</g>
</g>
<!-- Node33&#45;&gt;Node34 -->
<g id="edge52" class="edge">
<title>Node33&#45;&gt;Node34</title>
<path fill="none" stroke="midnightblue" d="M597.18,-551C608.09,-527 626.97,-485.47 635.09,-467.59"/>
<polygon fill="midnightblue" stroke="midnightblue" points="593.88,-549.82 592.92,-560.37 600.25,-552.71 593.88,-549.82"/>
</g>
<!-- Node34&#45;&gt;Node4 -->
<g id="edge53" class="edge">
<title>Node34&#45;&gt;Node4</title>
<path fill="none" stroke="midnightblue" d="M644.22,-438.39C649.84,-416.65 658,-379.51 658,-347 658,-347 658,-347 658,-121 658,-35.91 526.87,-16.62 464.38,-12.27"/>
<polygon fill="midnightblue" stroke="midnightblue" points="640.78,-437.68 641.56,-448.25 647.54,-439.5 640.78,-437.68"/>
</g>
<!-- Node36 -->
<g id="node36" class="node">
<title>Node36</title>
<g id="a_node36"><a xlink:href="api_2packet__flags_8h.html" target="_top" xlink:title=" ">
<polygon fill="white" stroke="black" points="635,-504.5 635,-523.5 721,-523.5 721,-504.5 635,-504.5"/>
<text text-anchor="middle" x="678" y="-511.5" font-family="Helvetica,sans-Serif" font-size="10.00">packet_flags.h</text>
</a>
</g>
</g>
<!-- Node35&#45;&gt;Node36 -->
<g id="edge56" class="edge">
<title>Node35&#45;&gt;Node36</title>
<path fill="none" stroke="midnightblue" d="M677.36,-549.8C677.52,-540.91 677.71,-530.78 677.84,-523.75"/>
<polygon fill="midnightblue" stroke="midnightblue" points="673.85,-550.02 677.17,-560.08 680.85,-550.15 673.85,-550.02"/>
</g>
<!-- Node36&#45;&gt;Node4 -->
<g id="edge57" class="edge">
<title>Node36&#45;&gt;Node4</title>
<path fill="none" stroke="midnightblue" d="M682.94,-494.37C688.27,-472.62 696,-435.46 696,-403 696,-403 696,-403 696,-121 696,-21.57 534.46,-10.39 464.11,-10.23"/>
<polygon fill="midnightblue" stroke="midnightblue" points="679.51,-493.68 680.43,-504.24 686.29,-495.41 679.51,-493.68"/>
</g>
<!-- Node38 -->
<g id="node38" class="node">
<title>Node38</title>
<g id="a_node38"><a xlink:href="api_2proto__stats_8h.html" target="_top" xlink:title=" ">
<polygon fill="white" stroke="black" points="780,-448.5 780,-467.5 860,-467.5 860,-448.5 780,-448.5"/>
<text text-anchor="middle" x="820" y="-455.5" font-family="Helvetica,sans-Serif" font-size="10.00">proto_stats.h</text>
</a>
</g>
</g>
<!-- Node37&#45;&gt;Node38 -->
<g id="edge61" class="edge">
<title>Node37&#45;&gt;Node38</title>
<path fill="none" stroke="midnightblue" d="M743.27,-665.06C760.28,-646.31 787.22,-613.46 801,-580 817.36,-540.28 819.73,-487.91 820,-467.58"/>
<polygon fill="midnightblue" stroke="midnightblue" points="740.68,-662.71 736.44,-672.42 745.81,-667.47 740.68,-662.71"/>
</g>
<!-- Node38&#45;&gt;Node4 -->
<g id="edge62" class="edge">
<title>Node38&#45;&gt;Node4</title>
<path fill="none" stroke="midnightblue" d="M818.08,-438.27C816.01,-416.4 813,-379.12 813,-347 813,-347 813,-347 813,-121 813,-75.87 776.18,-74.45 735,-56 643.03,-14.81 521.19,-9.94 464.1,-10.19"/>
<polygon fill="midnightblue" stroke="midnightblue" points="814.62,-438.85 819.08,-448.45 821.59,-438.16 814.62,-438.85"/>
</g>
</g>
</svg>
