<?xml version="1.0" encoding="UTF-8" standalone="no"?>
<!DOCTYPE svg PUBLIC "-//W3C//DTD SVG 1.1//EN"
 "http://www.w3.org/Graphics/SVG/1.1/DTD/svg11.dtd">
<!-- Generated by graphviz version 2.43.0 (0)
 -->
<!-- Title: packet_io_types.h Pages: 1 -->
<svg width="1600pt" height="990pt"
 viewBox="0.00 0.00 1600.00 990.00" xmlns="http://www.w3.org/2000/svg" xmlns:xlink="http://www.w3.org/1999/xlink">
<g id="graph0" class="graph" transform="scale(1 1) rotate(0) translate(4 986)">
<title>packet_io_types.h</title>
<polygon fill="white" stroke="transparent" points="-4,4 -4,-986 1596,-986 1596,4 -4,4"/>
<!-- Node1 -->
<g id="node1" class="node">
<title>Node1</title>
<g id="a_node1"><a xlink:title=" ">
<polygon fill="#bfbfbf" stroke="black" points="149,-962.5 149,-981.5 253,-981.5 253,-962.5 149,-962.5"/>
<text text-anchor="middle" x="201" y="-969.5" font-family="Helvetica,sans-Serif" font-size="10.00">packet_io_types.h</text>
</a>
</g>
</g>
<!-- Node2 -->
<g id="node2" class="node">
<title>Node2</title>
<g id="a_node2"><a xlink:title=" ">
<polygon fill="white" stroke="#bfbfbf" points="55,-548.5 55,-578.5 161,-578.5 161,-548.5 55,-548.5"/>
<text text-anchor="start" x="63" y="-566.5" font-family="Helvetica,sans-Serif" font-size="10.00">odp/api/abi/packet</text>
<text text-anchor="middle" x="108" y="-555.5" font-family="Helvetica,sans-Serif" font-size="10.00">_io_types.h</text>
</a>
</g>
</g>
<!-- Node1&#45;&gt;Node2 -->
<g id="edge1" class="edge">
<title>Node1&#45;&gt;Node2</title>
<path fill="none" stroke="midnightblue" d="M167.62,-962.47C119.93,-948.05 38,-913.97 38,-850 38,-850 38,-850 38,-680 38,-649.9 41.59,-640.86 57,-615 63.51,-604.07 72.94,-593.83 81.92,-585.46"/>
<polygon fill="midnightblue" stroke="midnightblue" points="84.47,-587.88 89.62,-578.62 79.82,-582.65 84.47,-587.88"/>
</g>
<!-- Node3 -->
<g id="node3" class="node">
<title>Node3</title>
<g id="a_node3"><a xlink:href="api_2spec_2packet__io__types_8h.html" target="_top" xlink:title=" ">
<polygon fill="white" stroke="black" points="354.5,-895.5 354.5,-925.5 467.5,-925.5 467.5,-895.5 354.5,-895.5"/>
<text text-anchor="start" x="362.5" y="-913.5" font-family="Helvetica,sans-Serif" font-size="10.00">odp/api/spec/packet</text>
<text text-anchor="middle" x="411" y="-902.5" font-family="Helvetica,sans-Serif" font-size="10.00">_io_types.h</text>
</a>
</g>
</g>
<!-- Node1&#45;&gt;Node3 -->
<g id="edge2" class="edge">
<title>Node1&#45;&gt;Node3</title>
<path fill="none" stroke="midnightblue" d="M231.09,-962.48C262.45,-953.59 312.43,-939.43 351.76,-928.29"/>
<polygon fill="midnightblue" stroke="midnightblue" points="352.84,-931.62 361.51,-925.52 350.93,-924.88 352.84,-931.62"/>
</g>
<!-- Node4 -->
<g id="node4" class="node">
<title>Node4</title>
<g id="a_node4"><a xlink:href="visibility__begin_8h_source.html" target="_top" xlink:title=" ">
<polygon fill="white" stroke="black" points="406.5,-0.5 406.5,-19.5 527.5,-19.5 527.5,-0.5 406.5,-0.5"/>
<text text-anchor="middle" x="467" y="-7.5" font-family="Helvetica,sans-Serif" font-size="10.00">odp/visibility_begin.h</text>
</a>
</g>
</g>
<!-- Node3&#45;&gt;Node4 -->
<g id="edge3" class="edge">
<title>Node3&#45;&gt;Node4</title>
<path fill="none" stroke="midnightblue" d="M354.33,-903.28C306.19,-896.57 236.03,-883.41 179,-859 90.72,-821.22 0,-834.03 0,-738 0,-738 0,-738 0,-132 0,-51.17 265.49,-23.44 396.12,-14.69"/>
<polygon fill="midnightblue" stroke="midnightblue" points="396.67,-18.16 406.43,-14.02 396.22,-11.18 396.67,-18.16"/>
</g>
<!-- Node5 -->
<g id="node5" class="node">
<title>Node5</title>
<g id="a_node5"><a xlink:href="deprecated_8h.html" target="_top" xlink:title=" ">
<polygon fill="white" stroke="black" points="255.5,-492.5 255.5,-511.5 374.5,-511.5 374.5,-492.5 255.5,-492.5"/>
<text text-anchor="middle" x="315" y="-499.5" font-family="Helvetica,sans-Serif" font-size="10.00">odp/api/deprecated.h</text>
</a>
</g>
</g>
<!-- Node3&#45;&gt;Node5 -->
<g id="edge4" class="edge">
<title>Node3&#45;&gt;Node5</title>
<path fill="none" stroke="midnightblue" d="M370.05,-895.41C329.05,-878.39 272,-845.46 272,-794 272,-794 272,-794 272,-680 272,-620.21 217.52,-600.58 246,-548 253.75,-533.7 268.23,-523.22 281.94,-515.99"/>
<polygon fill="midnightblue" stroke="midnightblue" points="283.74,-519.01 291.21,-511.5 280.69,-512.71 283.74,-519.01"/>
</g>
<!-- Node7 -->
<g id="node7" class="node">
<title>Node7</title>
<g id="a_node7"><a xlink:href="visibility__end_8h_source.html" target="_top" xlink:title=" ">
<polygon fill="white" stroke="black" points="1042,-0.5 1042,-19.5 1154,-19.5 1154,-0.5 1042,-0.5"/>
<text text-anchor="middle" x="1098" y="-7.5" font-family="Helvetica,sans-Serif" font-size="10.00">odp/visibility_end.h</text>
</a>
</g>
</g>
<!-- Node3&#45;&gt;Node7 -->
<g id="edge74" class="edge">
<title>Node3&#45;&gt;Node7</title>
<path fill="none" stroke="midnightblue" d="M467.5,-909.8C657.18,-910.33 1269.9,-908.12 1460,-859 1523.31,-842.64 1592,-859.39 1592,-794 1592,-794 1592,-794 1592,-132 1592,-85.47 1561.71,-76.63 1520,-56 1459.18,-25.92 1267.45,-15.83 1164.65,-12.54"/>
<polygon fill="midnightblue" stroke="midnightblue" points="1164.49,-9.03 1154.39,-12.22 1164.27,-16.03 1164.49,-9.03"/>
</g>
<!-- Node8 -->
<g id="node8" class="node">
<title>Node8</title>
<g id="a_node8"><a xlink:href="api_2packet__types_8h.html" target="_top" xlink:title=" ">
<polygon fill="white" stroke="black" points="300.5,-615.5 300.5,-634.5 429.5,-634.5 429.5,-615.5 300.5,-615.5"/>
<text text-anchor="middle" x="365" y="-622.5" font-family="Helvetica,sans-Serif" font-size="10.00">odp/api/packet_types.h</text>
</a>
</g>
</g>
<!-- Node3&#45;&gt;Node8 -->
<g id="edge8" class="edge">
<title>Node3&#45;&gt;Node8</title>
<path fill="none" stroke="midnightblue" d="M404.37,-895.27C395,-873.8 379,-831.66 379,-794 379,-794 379,-794 379,-736 379,-703.54 372.93,-666.12 368.78,-644.36"/>
<polygon fill="midnightblue" stroke="midnightblue" points="372.21,-643.64 366.83,-634.51 365.34,-645 372.21,-643.64"/>
</g>
<!-- Node14 -->
<g id="node14" class="node">
<title>Node14</title>
<g id="a_node14"><a xlink:href="api_2std__types_8h.html" target="_top" xlink:title=" ">
<polygon fill="white" stroke="black" points="1171,-235.5 1171,-254.5 1283,-254.5 1283,-235.5 1171,-235.5"/>
<text text-anchor="middle" x="1227" y="-242.5" font-family="Helvetica,sans-Serif" font-size="10.00">odp/api/std_types.h</text>
</a>
</g>
</g>
<!-- Node3&#45;&gt;Node14 -->
<g id="edge73" class="edge">
<title>Node3&#45;&gt;Node14</title>
<path fill="none" stroke="midnightblue" d="M467.56,-908.12C663.16,-902.6 1299,-878.19 1299,-794 1299,-794 1299,-794 1299,-372.5 1299,-327.71 1264.49,-284.31 1243.25,-261.84"/>
<polygon fill="midnightblue" stroke="midnightblue" points="1245.61,-259.24 1236.12,-254.54 1240.61,-264.14 1245.61,-259.24"/>
</g>
<!-- Node21 -->
<g id="node21" class="node">
<title>Node21</title>
<g id="a_node21"><a xlink:href="api_2queue__types_8h.html" target="_top" xlink:title=" ">
<polygon fill="white" stroke="black" points="469.5,-492.5 469.5,-511.5 596.5,-511.5 596.5,-492.5 469.5,-492.5"/>
<text text-anchor="middle" x="533" y="-499.5" font-family="Helvetica,sans-Serif" font-size="10.00">odp/api/queue_types.h</text>
</a>
</g>
</g>
<!-- Node3&#45;&gt;Node21 -->
<g id="edge67" class="edge">
<title>Node3&#45;&gt;Node21</title>
<path fill="none" stroke="midnightblue" d="M418.81,-895.26C442.89,-850.44 515.79,-707.63 540,-579 543.67,-559.51 540.65,-536.83 537.52,-521.35"/>
<polygon fill="midnightblue" stroke="midnightblue" points="540.91,-520.5 535.31,-511.51 534.08,-522.03 540.91,-520.5"/>
</g>
<!-- Node27 -->
<g id="node27" class="node">
<title>Node27</title>
<g id="a_node27"><a xlink:href="packet__io__stats_8h.html" target="_top" xlink:title=" ">
<polygon fill="white" stroke="black" points="66,-615.5 66,-634.5 206,-634.5 206,-615.5 66,-615.5"/>
<text text-anchor="middle" x="136" y="-622.5" font-family="Helvetica,sans-Serif" font-size="10.00">odp/api/packet_io_stats.h</text>
</a>
</g>
</g>
<!-- Node3&#45;&gt;Node27 -->
<g id="edge41" class="edge">
<title>Node3&#45;&gt;Node27</title>
<path fill="none" stroke="midnightblue" d="M354.48,-906.99C282.13,-900.39 166,-876.88 166,-794 166,-794 166,-794 166,-736 166,-702.64 153,-665.53 144.11,-644.07"/>
<polygon fill="midnightblue" stroke="midnightblue" points="147.22,-642.42 140.05,-634.62 140.79,-645.19 147.22,-642.42"/>
</g>
<!-- Node29 -->
<g id="node29" class="node">
<title>Node29</title>
<g id="a_node29"><a xlink:href="api_2pool__types_8h.html" target="_top" xlink:title=" ">
<polygon fill="white" stroke="black" points="647,-839.5 647,-858.5 765,-858.5 765,-839.5 647,-839.5"/>
<text text-anchor="middle" x="706" y="-846.5" font-family="Helvetica,sans-Serif" font-size="10.00">odp/api/pool_types.h</text>
</a>
</g>
</g>
<!-- Node3&#45;&gt;Node29 -->
<g id="edge48" class="edge">
<title>Node3&#45;&gt;Node29</title>
<path fill="none" stroke="midnightblue" d="M467.53,-898.1C521.17,-887.28 601.15,-871.15 653.44,-860.6"/>
<polygon fill="midnightblue" stroke="midnightblue" points="654.4,-863.98 663.51,-858.57 653.02,-857.12 654.4,-863.98"/>
</g>
<!-- Node38 -->
<g id="node38" class="node">
<title>Node38</title>
<g id="a_node38"><a xlink:href="reassembly_8h.html" target="_top" xlink:title=" ">
<polygon fill="white" stroke="black" points="1331,-839.5 1331,-858.5 1451,-858.5 1451,-839.5 1331,-839.5"/>
<text text-anchor="middle" x="1391" y="-846.5" font-family="Helvetica,sans-Serif" font-size="10.00">odp/api/reassembly.h</text>
</a>
</g>
</g>
<!-- Node3&#45;&gt;Node38 -->
<g id="edge68" class="edge">
<title>Node3&#45;&gt;Node38</title>
<path fill="none" stroke="midnightblue" d="M467.55,-907.49C609.77,-902.19 993.82,-886.33 1313,-859 1315.56,-858.78 1318.16,-858.55 1320.78,-858.3"/>
<polygon fill="midnightblue" stroke="midnightblue" points="1321.39,-861.76 1330.99,-857.29 1320.7,-854.79 1321.39,-861.76"/>
</g>
<!-- Node6 -->
<g id="node6" class="node">
<title>Node6</title>
<g id="a_node6"><a xlink:href="spec_2deprecated_8h.html" target="_top" xlink:title=" ">
<polygon fill="white" stroke="black" points="293.5,-62 293.5,-81 438.5,-81 438.5,-62 293.5,-62"/>
<text text-anchor="middle" x="366" y="-69" font-family="Helvetica,sans-Serif" font-size="10.00">odp/api/spec/deprecated.h</text>
</a>
</g>
</g>
<!-- Node5&#45;&gt;Node6 -->
<g id="edge5" class="edge">
<title>Node5&#45;&gt;Node6</title>
<path fill="none" stroke="midnightblue" d="M315.34,-492.41C316.13,-471.98 318,-418.88 318,-374.5 318,-374.5 318,-374.5 318,-188 318,-150.74 339.57,-111.53 353.79,-89.73"/>
<polygon fill="midnightblue" stroke="midnightblue" points="356.82,-91.5 359.53,-81.26 351.02,-87.58 356.82,-91.5"/>
</g>
<!-- Node6&#45;&gt;Node4 -->
<g id="edge6" class="edge">
<title>Node6&#45;&gt;Node4</title>
<path fill="none" stroke="midnightblue" d="M380.47,-61.98C396.97,-52.25 424.18,-36.23 443.68,-24.74"/>
<polygon fill="midnightblue" stroke="midnightblue" points="445.72,-27.6 452.56,-19.51 442.16,-21.57 445.72,-27.6"/>
</g>
<!-- Node6&#45;&gt;Node7 -->
<g id="edge7" class="edge">
<title>Node6&#45;&gt;Node7</title>
<path fill="none" stroke="midnightblue" d="M438.53,-64.6C580.73,-53.05 894.23,-27.56 1031.47,-16.41"/>
<polygon fill="midnightblue" stroke="midnightblue" points="1032.14,-19.86 1041.83,-15.57 1031.58,-12.89 1032.14,-19.86"/>
</g>
<!-- Node8&#45;&gt;Node2 -->
<g id="edge9" class="edge">
<title>Node8&#45;&gt;Node2</title>
<path fill="none" stroke="midnightblue" d="M328.18,-615.48C287.28,-606.01 220.52,-590.55 171.21,-579.14"/>
<polygon fill="midnightblue" stroke="midnightblue" points="171.82,-575.68 161.29,-576.84 170.24,-582.5 171.82,-575.68"/>
</g>
<!-- Node9 -->
<g id="node9" class="node">
<title>Node9</title>
<g id="a_node9"><a xlink:title=" ">
<polygon fill="white" stroke="#bfbfbf" points="255,-548.5 255,-578.5 361,-578.5 361,-548.5 255,-548.5"/>
<text text-anchor="start" x="263" y="-566.5" font-family="Helvetica,sans-Serif" font-size="10.00">odp/api/abi/packet</text>
<text text-anchor="middle" x="308" y="-555.5" font-family="Helvetica,sans-Serif" font-size="10.00">_types.h</text>
</a>
</g>
</g>
<!-- Node8&#45;&gt;Node9 -->
<g id="edge10" class="edge">
<title>Node8&#45;&gt;Node9</title>
<path fill="none" stroke="midnightblue" d="M356.83,-615.48C349.47,-607.79 338.34,-596.17 328.56,-585.96"/>
<polygon fill="midnightblue" stroke="midnightblue" points="330.88,-583.32 321.43,-578.52 325.82,-588.17 330.88,-583.32"/>
</g>
<!-- Node10 -->
<g id="node10" class="node">
<title>Node10</title>
<g id="a_node10"><a xlink:href="api_2spec_2packet__types_8h.html" target="_top" xlink:title=" ">
<polygon fill="white" stroke="black" points="625.5,-548.5 625.5,-578.5 738.5,-578.5 738.5,-548.5 625.5,-548.5"/>
<text text-anchor="start" x="633.5" y="-566.5" font-family="Helvetica,sans-Serif" font-size="10.00">odp/api/spec/packet</text>
<text text-anchor="middle" x="682" y="-555.5" font-family="Helvetica,sans-Serif" font-size="10.00">_types.h</text>
</a>
</g>
</g>
<!-- Node8&#45;&gt;Node10 -->
<g id="edge11" class="edge">
<title>Node8&#45;&gt;Node10</title>
<path fill="none" stroke="midnightblue" d="M410.42,-615.48C464.1,-605.4 553.88,-588.55 615.42,-577"/>
<polygon fill="midnightblue" stroke="midnightblue" points="616.24,-580.4 625.42,-575.12 614.95,-573.52 616.24,-580.4"/>
</g>
<!-- Node10&#45;&gt;Node4 -->
<g id="edge12" class="edge">
<title>Node10&#45;&gt;Node4</title>
<path fill="none" stroke="midnightblue" d="M676.06,-548.23C663.84,-520.52 633.25,-459.18 589,-425 550.95,-395.61 527.43,-415.01 487,-389 388.4,-325.56 357.27,-303.44 304,-199 274.84,-141.83 244.41,-106.51 284,-56 298.03,-38.11 350.76,-26.38 396.04,-19.39"/>
<polygon fill="midnightblue" stroke="midnightblue" points="396.79,-22.82 406.17,-17.89 395.76,-15.9 396.79,-22.82"/>
</g>
<!-- Node10&#45;&gt;Node7 -->
<g id="edge40" class="edge">
<title>Node10&#45;&gt;Node7</title>
<path fill="none" stroke="midnightblue" d="M737.58,-548.49C829.77,-521.94 1011.91,-454.69 1090,-322 1119.21,-272.36 1105.3,-89.57 1099.85,-29.94"/>
<polygon fill="midnightblue" stroke="midnightblue" points="1103.31,-29.36 1098.88,-19.74 1096.34,-30.02 1103.31,-29.36"/>
</g>
<!-- Node11 -->
<g id="node11" class="node">
<title>Node11</title>
<g id="a_node11"><a xlink:href="api_2proto__stats__types_8h.html" target="_top" xlink:title=" ">
<polygon fill="white" stroke="black" points="836,-358.5 836,-388.5 946,-388.5 946,-358.5 836,-358.5"/>
<text text-anchor="start" x="844" y="-376.5" font-family="Helvetica,sans-Serif" font-size="10.00">odp/api/proto_stats</text>
<text text-anchor="middle" x="891" y="-365.5" font-family="Helvetica,sans-Serif" font-size="10.00">_types.h</text>
</a>
</g>
</g>
<!-- Node10&#45;&gt;Node11 -->
<g id="edge13" class="edge">
<title>Node10&#45;&gt;Node11</title>
<path fill="none" stroke="midnightblue" d="M691.66,-548.17C710.22,-521.43 753.19,-463.17 800,-425 815.1,-412.69 833.63,-401.79 850.01,-393.29"/>
<polygon fill="midnightblue" stroke="midnightblue" points="852.01,-396.2 859.37,-388.58 848.86,-389.95 852.01,-396.2"/>
</g>
<!-- Node10&#45;&gt;Node21 -->
<g id="edge29" class="edge">
<title>Node10&#45;&gt;Node21</title>
<path fill="none" stroke="midnightblue" d="M646.69,-548.4C621.58,-538.37 588.16,-525.03 564.06,-515.4"/>
<polygon fill="midnightblue" stroke="midnightblue" points="565.27,-512.12 554.68,-511.66 562.67,-518.62 565.27,-512.12"/>
</g>
<!-- Node12 -->
<g id="node12" class="node">
<title>Node12</title>
<g id="a_node12"><a xlink:title=" ">
<polygon fill="white" stroke="#bfbfbf" points="827,-291.5 827,-321.5 955,-321.5 955,-291.5 827,-291.5"/>
<text text-anchor="start" x="835" y="-309.5" font-family="Helvetica,sans-Serif" font-size="10.00">odp/api/abi/proto_stats</text>
<text text-anchor="middle" x="891" y="-298.5" font-family="Helvetica,sans-Serif" font-size="10.00">_types.h</text>
</a>
</g>
</g>
<!-- Node11&#45;&gt;Node12 -->
<g id="edge14" class="edge">
<title>Node11&#45;&gt;Node12</title>
<path fill="none" stroke="midnightblue" d="M891,-358.4C891,-350.64 891,-340.81 891,-331.86"/>
<polygon fill="midnightblue" stroke="midnightblue" points="894.5,-331.58 891,-321.58 887.5,-331.58 894.5,-331.58"/>
</g>
<!-- Node13 -->
<g id="node13" class="node">
<title>Node13</title>
<g id="a_node13"><a xlink:href="api_2spec_2proto__stats__types_8h.html" target="_top" xlink:title=" ">
<polygon fill="white" stroke="black" points="973.5,-291.5 973.5,-321.5 1080.5,-321.5 1080.5,-291.5 973.5,-291.5"/>
<text text-anchor="start" x="981.5" y="-309.5" font-family="Helvetica,sans-Serif" font-size="10.00">odp/api/spec/proto</text>
<text text-anchor="middle" x="1027" y="-298.5" font-family="Helvetica,sans-Serif" font-size="10.00">_stats_types.h</text>
</a>
</g>
</g>
<!-- Node11&#45;&gt;Node13 -->
<g id="edge15" class="edge">
<title>Node11&#45;&gt;Node13</title>
<path fill="none" stroke="midnightblue" d="M920.51,-358.4C940.38,-348.9 966.79,-336.28 988.34,-325.98"/>
<polygon fill="midnightblue" stroke="midnightblue" points="990.03,-329.05 997.55,-321.58 987.02,-322.73 990.03,-329.05"/>
</g>
<!-- Node13&#45;&gt;Node4 -->
<g id="edge16" class="edge">
<title>Node13&#45;&gt;Node4</title>
<path fill="none" stroke="midnightblue" d="M985.14,-291.45C912.92,-266.42 761.26,-210.35 643,-143 606.54,-122.24 600.59,-112.14 567,-87 538.87,-65.95 506.52,-41.28 486.42,-25.9"/>
<polygon fill="midnightblue" stroke="midnightblue" points="488.42,-23.02 478.36,-19.72 484.17,-28.58 488.42,-23.02"/>
</g>
<!-- Node13&#45;&gt;Node7 -->
<g id="edge28" class="edge">
<title>Node13&#45;&gt;Node7</title>
<path fill="none" stroke="midnightblue" d="M1033.84,-291.29C1043.5,-269.85 1060,-227.75 1060,-190 1060,-190 1060,-190 1060,-132 1060,-93.81 1077.44,-51.83 1088.69,-28.72"/>
<polygon fill="midnightblue" stroke="midnightblue" points="1091.96,-30.02 1093.34,-19.52 1085.71,-26.86 1091.96,-30.02"/>
</g>
<!-- Node13&#45;&gt;Node14 -->
<g id="edge17" class="edge">
<title>Node13&#45;&gt;Node14</title>
<path fill="none" stroke="midnightblue" d="M1074.14,-291.47C1109.1,-281.08 1156.15,-267.08 1188.77,-257.37"/>
<polygon fill="midnightblue" stroke="midnightblue" points="1189.82,-260.71 1198.41,-254.51 1187.82,-254 1189.82,-260.71"/>
</g>
<!-- Node15 -->
<g id="node15" class="node">
<title>Node15</title>
<g id="a_node15"><a xlink:title=" ">
<polygon fill="white" stroke="#bfbfbf" points="1164,-179.5 1164,-198.5 1294,-198.5 1294,-179.5 1164,-179.5"/>
<text text-anchor="middle" x="1229" y="-186.5" font-family="Helvetica,sans-Serif" font-size="10.00">odp/api/abi/std_types.h</text>
</a>
</g>
</g>
<!-- Node14&#45;&gt;Node15 -->
<g id="edge18" class="edge">
<title>Node14&#45;&gt;Node15</title>
<path fill="none" stroke="midnightblue" d="M1227.33,-235.08C1227.59,-228.01 1227.97,-217.86 1228.3,-208.99"/>
<polygon fill="midnightblue" stroke="midnightblue" points="1231.8,-208.87 1228.68,-198.75 1224.81,-208.61 1231.8,-208.87"/>
</g>
<!-- Node16 -->
<g id="node16" class="node">
<title>Node16</title>
<g id="a_node16"><a xlink:href="api_2spec_2std__types_8h.html" target="_top" xlink:title=" ">
<polygon fill="white" stroke="black" points="1350.5,-179.5 1350.5,-198.5 1487.5,-198.5 1487.5,-179.5 1350.5,-179.5"/>
<text text-anchor="middle" x="1419" y="-186.5" font-family="Helvetica,sans-Serif" font-size="10.00">odp/api/spec/std_types.h</text>
</a>
</g>
</g>
<!-- Node14&#45;&gt;Node16 -->
<g id="edge19" class="edge">
<title>Node14&#45;&gt;Node16</title>
<path fill="none" stroke="midnightblue" d="M1257.42,-235.44C1290.28,-226.2 1342.78,-211.44 1378.97,-201.26"/>
<polygon fill="midnightblue" stroke="midnightblue" points="1380.04,-204.59 1388.72,-198.52 1378.15,-197.85 1380.04,-204.59"/>
</g>
<!-- Node16&#45;&gt;Node4 -->
<g id="edge20" class="edge">
<title>Node16&#45;&gt;Node4</title>
<path fill="none" stroke="midnightblue" d="M1350.18,-180.28C1345.39,-179.82 1340.62,-179.39 1336,-179 1201.12,-167.7 856.51,-185.47 728,-143 660.93,-120.83 658.33,-87.27 595,-56 566.84,-42.1 533.3,-30.47 507.62,-22.52"/>
<polygon fill="midnightblue" stroke="midnightblue" points="508.43,-19.11 497.84,-19.55 506.39,-25.81 508.43,-19.11"/>
</g>
<!-- Node16&#45;&gt;Node7 -->
<g id="edge27" class="edge">
<title>Node16&#45;&gt;Node7</title>
<path fill="none" stroke="midnightblue" d="M1422.86,-179.25C1426.56,-170.33 1431.89,-156.01 1434,-143 1440.46,-103.16 1439.57,-81.14 1408,-56 1371.46,-26.91 1244.36,-16.59 1164.7,-12.96"/>
<polygon fill="midnightblue" stroke="midnightblue" points="1164.41,-9.44 1154.27,-12.51 1164.11,-16.44 1164.41,-9.44"/>
</g>
<!-- Node17 -->
<g id="node17" class="node">
<title>Node17</title>
<g id="a_node17"><a xlink:title=" ">
<polygon fill="white" stroke="#bfbfbf" points="1371.5,-123.5 1371.5,-142.5 1424.5,-142.5 1424.5,-123.5 1371.5,-123.5"/>
<text text-anchor="middle" x="1398" y="-130.5" font-family="Helvetica,sans-Serif" font-size="10.00">stdint.h</text>
</a>
</g>
</g>
<!-- Node16&#45;&gt;Node17 -->
<g id="edge21" class="edge">
<title>Node16&#45;&gt;Node17</title>
<path fill="none" stroke="midnightblue" d="M1415.53,-179.08C1412.69,-171.77 1408.57,-161.18 1405.04,-152.1"/>
<polygon fill="midnightblue" stroke="midnightblue" points="1408.29,-150.8 1401.4,-142.75 1401.77,-153.34 1408.29,-150.8"/>
</g>
<!-- Node18 -->
<g id="node18" class="node">
<title>Node18</title>
<g id="a_node18"><a xlink:href="api_2align_8h.html" target="_top" xlink:title=" ">
<polygon fill="white" stroke="black" points="1225.5,-123.5 1225.5,-142.5 1314.5,-142.5 1314.5,-123.5 1225.5,-123.5"/>
<text text-anchor="middle" x="1270" y="-130.5" font-family="Helvetica,sans-Serif" font-size="10.00">odp/api/align.h</text>
</a>
</g>
</g>
<!-- Node16&#45;&gt;Node18 -->
<g id="edge22" class="edge">
<title>Node16&#45;&gt;Node18</title>
<path fill="none" stroke="midnightblue" d="M1395.39,-179.44C1370.54,-170.44 1331.23,-156.19 1303.25,-146.05"/>
<polygon fill="midnightblue" stroke="midnightblue" points="1304.09,-142.63 1293.5,-142.52 1301.71,-149.21 1304.09,-142.63"/>
</g>
<!-- Node19 -->
<g id="node19" class="node">
<title>Node19</title>
<g id="a_node19"><a xlink:title=" ">
<polygon fill="white" stroke="#bfbfbf" points="1258.5,-62 1258.5,-81 1365.5,-81 1365.5,-62 1258.5,-62"/>
<text text-anchor="middle" x="1312" y="-69" font-family="Helvetica,sans-Serif" font-size="10.00">odp/api/abi/align.h</text>
</a>
</g>
</g>
<!-- Node18&#45;&gt;Node19 -->
<g id="edge23" class="edge">
<title>Node18&#45;&gt;Node19</title>
<path fill="none" stroke="midnightblue" d="M1276.02,-123.48C1282.26,-114.64 1292.17,-100.59 1300.02,-89.48"/>
<polygon fill="midnightblue" stroke="midnightblue" points="1303.09,-91.2 1305.99,-81.01 1297.37,-87.16 1303.09,-91.2"/>
</g>
<!-- Node20 -->
<g id="node20" class="node">
<title>Node20</title>
<g id="a_node20"><a xlink:href="api_2spec_2align_8h.html" target="_top" xlink:title=" ">
<polygon fill="white" stroke="black" points="1126,-62 1126,-81 1240,-81 1240,-62 1126,-62"/>
<text text-anchor="middle" x="1183" y="-69" font-family="Helvetica,sans-Serif" font-size="10.00">odp/api/spec/align.h</text>
</a>
</g>
</g>
<!-- Node18&#45;&gt;Node20 -->
<g id="edge24" class="edge">
<title>Node18&#45;&gt;Node20</title>
<path fill="none" stroke="midnightblue" d="M1257.54,-123.48C1243.58,-113.93 1220.74,-98.31 1204.01,-86.87"/>
<polygon fill="midnightblue" stroke="midnightblue" points="1205.67,-83.77 1195.44,-81.01 1201.72,-89.54 1205.67,-83.77"/>
</g>
<!-- Node20&#45;&gt;Node4 -->
<g id="edge25" class="edge">
<title>Node20&#45;&gt;Node4</title>
<path fill="none" stroke="midnightblue" d="M1125.92,-65.76C996.31,-54.99 680.07,-28.71 538.08,-16.91"/>
<polygon fill="midnightblue" stroke="midnightblue" points="538,-13.39 527.75,-16.05 537.42,-20.36 538,-13.39"/>
</g>
<!-- Node20&#45;&gt;Node7 -->
<g id="edge26" class="edge">
<title>Node20&#45;&gt;Node7</title>
<path fill="none" stroke="midnightblue" d="M1170.82,-61.98C1157.19,-52.43 1134.87,-36.81 1118.53,-25.37"/>
<polygon fill="midnightblue" stroke="midnightblue" points="1120.36,-22.38 1110.16,-19.51 1116.34,-28.11 1120.36,-22.38"/>
</g>
<!-- Node22 -->
<g id="node22" class="node">
<title>Node22</title>
<g id="a_node22"><a xlink:title=" ">
<polygon fill="white" stroke="#bfbfbf" points="434.5,-431 434.5,-450 579.5,-450 579.5,-431 434.5,-431"/>
<text text-anchor="middle" x="507" y="-438" font-family="Helvetica,sans-Serif" font-size="10.00">odp/api/abi/queue_types.h</text>
</a>
</g>
</g>
<!-- Node21&#45;&gt;Node22 -->
<g id="edge30" class="edge">
<title>Node21&#45;&gt;Node22</title>
<path fill="none" stroke="midnightblue" d="M529.27,-492.48C525.53,-483.9 519.64,-470.43 514.86,-459.48"/>
<polygon fill="midnightblue" stroke="midnightblue" points="517.93,-457.77 510.72,-450.01 511.52,-460.57 517.93,-457.77"/>
</g>
<!-- Node23 -->
<g id="node23" class="node">
<title>Node23</title>
<g id="a_node23"><a xlink:href="api_2spec_2queue__types_8h.html" target="_top" xlink:title=" ">
<polygon fill="white" stroke="black" points="636.5,-425.5 636.5,-455.5 747.5,-455.5 747.5,-425.5 636.5,-425.5"/>
<text text-anchor="start" x="644.5" y="-443.5" font-family="Helvetica,sans-Serif" font-size="10.00">odp/api/spec/queue</text>
<text text-anchor="middle" x="692" y="-432.5" font-family="Helvetica,sans-Serif" font-size="10.00">_types.h</text>
</a>
</g>
</g>
<!-- Node21&#45;&gt;Node23 -->
<g id="edge31" class="edge">
<title>Node21&#45;&gt;Node23</title>
<path fill="none" stroke="midnightblue" d="M555.78,-492.48C578.93,-483.81 615.45,-470.15 644.86,-459.14"/>
<polygon fill="midnightblue" stroke="midnightblue" points="646.39,-462.31 654.53,-455.52 643.93,-455.75 646.39,-462.31"/>
</g>
<!-- Node23&#45;&gt;Node4 -->
<g id="edge32" class="edge">
<title>Node23&#45;&gt;Node4</title>
<path fill="none" stroke="midnightblue" d="M646.51,-425.46C574.92,-401.99 444,-352.86 444,-307.5 444,-307.5 444,-307.5 444,-244 444,-164.09 457.56,-69.5 463.86,-29.91"/>
<polygon fill="midnightblue" stroke="midnightblue" points="467.34,-30.29 465.49,-19.86 460.43,-29.17 467.34,-30.29"/>
</g>
<!-- Node23&#45;&gt;Node7 -->
<g id="edge39" class="edge">
<title>Node23&#45;&gt;Node7</title>
<path fill="none" stroke="midnightblue" d="M710.29,-425.47C721.08,-416.24 734.12,-403.25 742,-389 759.99,-356.44 761,-344.69 761,-307.5 761,-307.5 761,-307.5 761,-244 761,-179.9 951.02,-124.51 1003,-87 1030.77,-66.96 1061.48,-41.81 1080.26,-26.07"/>
<polygon fill="midnightblue" stroke="midnightblue" points="1082.6,-28.67 1088,-19.55 1078.09,-23.32 1082.6,-28.67"/>
</g>
<!-- Node24 -->
<g id="node24" class="node">
<title>Node24</title>
<g id="a_node24"><a xlink:href="api_2schedule__types_8h.html" target="_top" xlink:title=" ">
<polygon fill="white" stroke="black" points="593,-364 593,-383 733,-383 733,-364 593,-364"/>
<text text-anchor="middle" x="663" y="-371" font-family="Helvetica,sans-Serif" font-size="10.00">odp/api/schedule_types.h</text>
</a>
</g>
</g>
<!-- Node23&#45;&gt;Node24 -->
<g id="edge33" class="edge">
<title>Node23&#45;&gt;Node24</title>
<path fill="none" stroke="midnightblue" d="M685.71,-425.4C681.41,-415.76 675.68,-402.91 671.05,-392.54"/>
<polygon fill="midnightblue" stroke="midnightblue" points="674.15,-390.9 666.88,-383.19 667.76,-393.75 674.15,-390.9"/>
</g>
<!-- Node25 -->
<g id="node25" class="node">
<title>Node25</title>
<g id="a_node25"><a xlink:title=" ">
<polygon fill="white" stroke="#bfbfbf" points="472.5,-291.5 472.5,-321.5 589.5,-321.5 589.5,-291.5 472.5,-291.5"/>
<text text-anchor="start" x="480.5" y="-309.5" font-family="Helvetica,sans-Serif" font-size="10.00">odp/api/abi/schedule</text>
<text text-anchor="middle" x="531" y="-298.5" font-family="Helvetica,sans-Serif" font-size="10.00">_types.h</text>
</a>
</g>
</g>
<!-- Node24&#45;&gt;Node25 -->
<g id="edge34" class="edge">
<title>Node24&#45;&gt;Node25</title>
<path fill="none" stroke="midnightblue" d="M645.47,-363.87C626.07,-354.31 594.21,-338.63 569.03,-326.22"/>
<polygon fill="midnightblue" stroke="midnightblue" points="570.26,-322.93 559.74,-321.65 567.16,-329.21 570.26,-322.93"/>
</g>
<!-- Node26 -->
<g id="node26" class="node">
<title>Node26</title>
<g id="a_node26"><a xlink:href="api_2spec_2schedule__types_8h.html" target="_top" xlink:title=" ">
<polygon fill="white" stroke="black" points="607.5,-291.5 607.5,-321.5 732.5,-321.5 732.5,-291.5 607.5,-291.5"/>
<text text-anchor="start" x="615.5" y="-309.5" font-family="Helvetica,sans-Serif" font-size="10.00">odp/api/spec/schedule</text>
<text text-anchor="middle" x="670" y="-298.5" font-family="Helvetica,sans-Serif" font-size="10.00">_types.h</text>
</a>
</g>
</g>
<!-- Node24&#45;&gt;Node26 -->
<g id="edge35" class="edge">
<title>Node24&#45;&gt;Node26</title>
<path fill="none" stroke="midnightblue" d="M663.94,-363.73C664.83,-355.54 666.19,-342.92 667.39,-331.71"/>
<polygon fill="midnightblue" stroke="midnightblue" points="670.89,-331.91 668.48,-321.59 663.93,-331.16 670.89,-331.91"/>
</g>
<!-- Node26&#45;&gt;Node4 -->
<g id="edge36" class="edge">
<title>Node26&#45;&gt;Node4</title>
<path fill="none" stroke="midnightblue" d="M649.86,-291.4C636.6,-281.75 619.14,-268.34 605,-255 580.94,-232.31 574.24,-226.59 556,-199 517.73,-141.1 486.76,-64.17 473.7,-29.42"/>
<polygon fill="midnightblue" stroke="midnightblue" points="476.85,-27.86 470.1,-19.7 470.29,-30.29 476.85,-27.86"/>
</g>
<!-- Node26&#45;&gt;Node7 -->
<g id="edge38" class="edge">
<title>Node26&#45;&gt;Node7</title>
<path fill="none" stroke="midnightblue" d="M667.46,-291.28C660.71,-248.47 647.18,-119.77 715,-56 737.6,-34.75 928.2,-20.68 1031.72,-14.54"/>
<polygon fill="midnightblue" stroke="midnightblue" points="1031.98,-18.03 1041.76,-13.95 1031.57,-11.04 1031.98,-18.03"/>
</g>
<!-- Node26&#45;&gt;Node14 -->
<g id="edge37" class="edge">
<title>Node26&#45;&gt;Node14</title>
<path fill="none" stroke="midnightblue" d="M732.54,-298.82C838.4,-287.51 1051.93,-264.7 1160.45,-253.11"/>
<polygon fill="midnightblue" stroke="midnightblue" points="1161.04,-256.57 1170.61,-252.02 1160.3,-249.61 1161.04,-256.57"/>
</g>
<!-- Node27&#45;&gt;Node2 -->
<g id="edge42" class="edge">
<title>Node27&#45;&gt;Node2</title>
<path fill="none" stroke="midnightblue" d="M131.99,-615.48C128.59,-608.25 123.54,-597.53 118.95,-587.78"/>
<polygon fill="midnightblue" stroke="midnightblue" points="122.02,-586.08 114.6,-578.52 115.69,-589.06 122.02,-586.08"/>
</g>
<!-- Node28 -->
<g id="node28" class="node">
<title>Node28</title>
<g id="a_node28"><a xlink:href="spec_2packet__io__stats_8h.html" target="_top" xlink:title=" ">
<polygon fill="white" stroke="black" points="417.5,-548.5 417.5,-578.5 530.5,-578.5 530.5,-548.5 417.5,-548.5"/>
<text text-anchor="start" x="425.5" y="-566.5" font-family="Helvetica,sans-Serif" font-size="10.00">odp/api/spec/packet</text>
<text text-anchor="middle" x="474" y="-555.5" font-family="Helvetica,sans-Serif" font-size="10.00">_io_stats.h</text>
</a>
</g>
</g>
<!-- Node27&#45;&gt;Node28 -->
<g id="edge43" class="edge">
<title>Node27&#45;&gt;Node28</title>
<path fill="none" stroke="midnightblue" d="M184.43,-615.48C242.91,-605.18 341.57,-587.81 407.24,-576.25"/>
<polygon fill="midnightblue" stroke="midnightblue" points="408.25,-579.63 417.49,-574.45 407.03,-572.74 408.25,-579.63"/>
</g>
<!-- Node28&#45;&gt;Node4 -->
<g id="edge44" class="edge">
<title>Node28&#45;&gt;Node4</title>
<path fill="none" stroke="midnightblue" d="M455.71,-548.14C387.38,-494.47 151,-308.72 151,-307.5 151,-307.5 151,-307.5 151,-132 151,-96.58 148.11,-79.06 175,-56 207.31,-28.29 320.42,-17.6 396.01,-13.5"/>
<polygon fill="midnightblue" stroke="midnightblue" points="396.61,-16.98 406.42,-12.97 396.25,-9.99 396.61,-16.98"/>
</g>
<!-- Node28&#45;&gt;Node5 -->
<g id="edge45" class="edge">
<title>Node28&#45;&gt;Node5</title>
<path fill="none" stroke="midnightblue" d="M436.32,-548.4C409.4,-538.33 373.55,-524.91 347.81,-515.28"/>
<polygon fill="midnightblue" stroke="midnightblue" points="348.73,-511.88 338.14,-511.66 346.27,-518.44 348.73,-511.88"/>
</g>
<!-- Node28&#45;&gt;Node7 -->
<g id="edge47" class="edge">
<title>Node28&#45;&gt;Node7</title>
<path fill="none" stroke="midnightblue" d="M464.83,-548.04C446.27,-517.35 406,-442.88 406,-374.5 406,-374.5 406,-374.5 406,-305.5 406,-138.82 533.69,-123.71 686,-56 746.23,-29.22 931.26,-17.73 1031.62,-13.35"/>
<polygon fill="midnightblue" stroke="midnightblue" points="1031.81,-16.85 1041.65,-12.93 1031.51,-9.85 1031.81,-16.85"/>
</g>
<!-- Node28&#45;&gt;Node21 -->
<g id="edge46" class="edge">
<title>Node28&#45;&gt;Node21</title>
<path fill="none" stroke="midnightblue" d="M487.98,-548.4C496.73,-539.58 508.03,-528.18 517.12,-519.02"/>
<polygon fill="midnightblue" stroke="midnightblue" points="519.86,-521.22 524.41,-511.66 514.89,-516.29 519.86,-521.22"/>
</g>
<!-- Node30 -->
<g id="node30" class="node">
<title>Node30</title>
<g id="a_node30"><a xlink:title=" ">
<polygon fill="white" stroke="#bfbfbf" points="638,-783.5 638,-802.5 774,-802.5 774,-783.5 638,-783.5"/>
<text text-anchor="middle" x="706" y="-790.5" font-family="Helvetica,sans-Serif" font-size="10.00">odp/api/abi/pool_types.h</text>
</a>
</g>
</g>
<!-- Node29&#45;&gt;Node30 -->
<g id="edge49" class="edge">
<title>Node29&#45;&gt;Node30</title>
<path fill="none" stroke="midnightblue" d="M706,-839.08C706,-832.01 706,-821.86 706,-812.99"/>
<polygon fill="midnightblue" stroke="midnightblue" points="709.5,-812.75 706,-802.75 702.5,-812.75 709.5,-812.75"/>
</g>
<!-- Node31 -->
<g id="node31" class="node">
<title>Node31</title>
<g id="a_node31"><a xlink:href="api_2spec_2pool__types_8h.html" target="_top" xlink:title=" ">
<polygon fill="white" stroke="black" points="829.5,-783.5 829.5,-802.5 972.5,-802.5 972.5,-783.5 829.5,-783.5"/>
<text text-anchor="middle" x="901" y="-790.5" font-family="Helvetica,sans-Serif" font-size="10.00">odp/api/spec/pool_types.h</text>
</a>
</g>
</g>
<!-- Node29&#45;&gt;Node31 -->
<g id="edge50" class="edge">
<title>Node29&#45;&gt;Node31</title>
<path fill="none" stroke="midnightblue" d="M736.9,-839.44C770.27,-830.2 823.59,-815.44 860.35,-805.26"/>
<polygon fill="midnightblue" stroke="midnightblue" points="861.54,-808.56 870.25,-802.52 859.67,-801.81 861.54,-808.56"/>
</g>
<!-- Node31&#45;&gt;Node4 -->
<g id="edge51" class="edge">
<title>Node31&#45;&gt;Node4</title>
<path fill="none" stroke="midnightblue" d="M829.32,-785.7C710.51,-772.69 468.33,-735.18 291,-635 226.45,-598.53 189,-577.14 189,-503 189,-503 189,-503 189,-132 189,-93.19 200.47,-78.63 232,-56 257.84,-37.45 336.86,-24.99 396.19,-17.97"/>
<polygon fill="midnightblue" stroke="midnightblue" points="396.74,-21.43 406.27,-16.81 395.94,-14.48 396.74,-21.43"/>
</g>
<!-- Node31&#45;&gt;Node7 -->
<g id="edge66" class="edge">
<title>Node31&#45;&gt;Node7</title>
<path fill="none" stroke="midnightblue" d="M972.52,-788.83C1028.16,-784.31 1106.36,-773.38 1170,-747 1215.91,-727.97 1261,-731.7 1261,-682 1261,-682 1261,-682 1261,-624 1261,-391.27 1554,-422.73 1554,-190 1554,-190 1554,-190 1554,-132 1554,-84.23 1520.98,-76.85 1478,-56 1424.2,-29.91 1258.19,-18.26 1164.36,-13.64"/>
<polygon fill="midnightblue" stroke="midnightblue" points="1164.28,-10.14 1154.12,-13.15 1163.94,-17.13 1164.28,-10.14"/>
</g>
<!-- Node31&#45;&gt;Node14 -->
<g id="edge52" class="edge">
<title>Node31&#45;&gt;Node14</title>
<path fill="none" stroke="midnightblue" d="M964.62,-783.45C1058.46,-769.04 1223,-736.05 1223,-682 1223,-682 1223,-682 1223,-372.5 1223,-334.18 1224.86,-289.37 1226.04,-264.69"/>
<polygon fill="midnightblue" stroke="midnightblue" points="1229.54,-264.75 1226.54,-254.59 1222.55,-264.4 1229.54,-264.75"/>
</g>
<!-- Node32 -->
<g id="node32" class="node">
<title>Node32</title>
<g id="a_node32"><a xlink:href="api_2dma__types_8h.html" target="_top" xlink:title=" ">
<polygon fill="white" stroke="black" points="841.5,-727.5 841.5,-746.5 960.5,-746.5 960.5,-727.5 841.5,-727.5"/>
<text text-anchor="middle" x="901" y="-734.5" font-family="Helvetica,sans-Serif" font-size="10.00">odp/api/dma_types.h</text>
</a>
</g>
</g>
<!-- Node31&#45;&gt;Node32 -->
<g id="edge53" class="edge">
<title>Node31&#45;&gt;Node32</title>
<path fill="none" stroke="midnightblue" d="M901,-783.08C901,-776.01 901,-765.86 901,-756.99"/>
<polygon fill="midnightblue" stroke="midnightblue" points="904.5,-756.75 901,-746.75 897.5,-756.75 904.5,-756.75"/>
</g>
<!-- Node33 -->
<g id="node33" class="node">
<title>Node33</title>
<g id="a_node33"><a xlink:title=" ">
<polygon fill="white" stroke="#bfbfbf" points="905.5,-671.5 905.5,-690.5 1042.5,-690.5 1042.5,-671.5 905.5,-671.5"/>
<text text-anchor="middle" x="974" y="-678.5" font-family="Helvetica,sans-Serif" font-size="10.00">odp/api/abi/dma_types.h</text>
</a>
</g>
</g>
<!-- Node32&#45;&gt;Node33 -->
<g id="edge54" class="edge">
<title>Node32&#45;&gt;Node33</title>
<path fill="none" stroke="midnightblue" d="M912.73,-727.32C923.84,-719.11 940.74,-706.6 953.98,-696.81"/>
<polygon fill="midnightblue" stroke="midnightblue" points="956.1,-699.59 962.06,-690.83 951.94,-693.97 956.1,-699.59"/>
</g>
<!-- Node34 -->
<g id="node34" class="node">
<title>Node34</title>
<g id="a_node34"><a xlink:href="api_2spec_2dma__types_8h.html" target="_top" xlink:title=" ">
<polygon fill="white" stroke="black" points="743,-671.5 743,-690.5 887,-690.5 887,-671.5 743,-671.5"/>
<text text-anchor="middle" x="815" y="-678.5" font-family="Helvetica,sans-Serif" font-size="10.00">odp/api/spec/dma_types.h</text>
</a>
</g>
</g>
<!-- Node32&#45;&gt;Node34 -->
<g id="edge55" class="edge">
<title>Node32&#45;&gt;Node34</title>
<path fill="none" stroke="midnightblue" d="M887.18,-727.32C873.77,-718.9 853.18,-705.97 837.41,-696.07"/>
<polygon fill="midnightblue" stroke="midnightblue" points="839.11,-693.01 828.78,-690.65 835.39,-698.94 839.11,-693.01"/>
</g>
<!-- Node34&#45;&gt;Node4 -->
<g id="edge56" class="edge">
<title>Node34&#45;&gt;Node4</title>
<path fill="none" stroke="midnightblue" d="M742.86,-671.52C659.11,-659.57 518.47,-632.92 409,-579 389.14,-569.22 389.67,-558.17 370,-548 319.02,-521.65 286.18,-552.97 246,-512 223.28,-488.83 227,-473.95 227,-441.5 227,-441.5 227,-441.5 227,-132 227,-94.43 234.51,-79.27 264,-56 284.42,-39.89 346.15,-27.66 396.23,-20.05"/>
<polygon fill="midnightblue" stroke="midnightblue" points="397.02,-23.47 406.39,-18.54 395.99,-16.54 397.02,-23.47"/>
</g>
<!-- Node34&#45;&gt;Node7 -->
<g id="edge65" class="edge">
<title>Node34&#45;&gt;Node7</title>
<path fill="none" stroke="midnightblue" d="M876.28,-671.49C972.21,-656.41 1147,-621.18 1147,-564.5 1147,-564.5 1147,-564.5 1147,-372.5 1147,-286.43 1099.48,-244.77 1155,-179 1204.54,-120.32 1257.39,-181.22 1324,-143 1362.87,-120.69 1404.04,-90.14 1375,-56 1348.47,-24.81 1237.35,-15.18 1164.17,-12.24"/>
<polygon fill="midnightblue" stroke="midnightblue" points="1164.23,-8.74 1154.11,-11.87 1163.97,-15.74 1164.23,-8.74"/>
</g>
<!-- Node34&#45;&gt;Node8 -->
<g id="edge62" class="edge">
<title>Node34&#45;&gt;Node8</title>
<path fill="none" stroke="midnightblue" d="M743.7,-671.44C660.7,-661.48 524.26,-645.11 439.8,-634.98"/>
<polygon fill="midnightblue" stroke="midnightblue" points="440.11,-631.49 429.77,-633.77 439.28,-638.44 440.11,-631.49"/>
</g>
<!-- Node34&#45;&gt;Node14 -->
<g id="edge64" class="edge">
<title>Node34&#45;&gt;Node14</title>
<path fill="none" stroke="midnightblue" d="M887.4,-671.55C987.28,-659.75 1155.73,-639.31 1161,-635 1186.61,-614.03 1185,-597.6 1185,-564.5 1185,-564.5 1185,-564.5 1185,-372.5 1185,-331.8 1204.82,-287.32 1217.23,-263.46"/>
<polygon fill="midnightblue" stroke="midnightblue" points="1220.36,-265.03 1222.02,-254.57 1214.2,-261.71 1220.36,-265.03"/>
</g>
<!-- Node34&#45;&gt;Node21 -->
<g id="edge63" class="edge">
<title>Node34&#45;&gt;Node21</title>
<path fill="none" stroke="midnightblue" d="M794.05,-671.5C756.77,-655.91 677.21,-620.51 617,-579 590.84,-560.97 564.24,-535.42 548.18,-519.03"/>
<polygon fill="midnightblue" stroke="midnightblue" points="550.65,-516.56 541.19,-511.8 545.62,-521.42 550.65,-516.56"/>
</g>
<!-- Node35 -->
<g id="node35" class="node">
<title>Node35</title>
<g id="a_node35"><a xlink:href="api_2event__types_8h.html" target="_top" xlink:title=" ">
<polygon fill="white" stroke="black" points="736.5,-123.5 736.5,-142.5 861.5,-142.5 861.5,-123.5 736.5,-123.5"/>
<text text-anchor="middle" x="799" y="-130.5" font-family="Helvetica,sans-Serif" font-size="10.00">odp/api/event_types.h</text>
</a>
</g>
</g>
<!-- Node34&#45;&gt;Node35 -->
<g id="edge57" class="edge">
<title>Node34&#45;&gt;Node35</title>
<path fill="none" stroke="midnightblue" d="M819.84,-671.32C829.87,-652.48 852,-606.19 852,-564.5 852,-564.5 852,-564.5 852,-501 852,-450 835.96,-439.21 827,-389 821.72,-359.42 821.51,-351.84 818,-322 810.73,-260.21 803.8,-186.8 800.7,-152.89"/>
<polygon fill="midnightblue" stroke="midnightblue" points="804.16,-152.27 799.77,-142.63 797.19,-152.91 804.16,-152.27"/>
</g>
<!-- Node36 -->
<g id="node36" class="node">
<title>Node36</title>
<g id="a_node36"><a xlink:title=" ">
<polygon fill="white" stroke="#bfbfbf" points="850.5,-62 850.5,-81 993.5,-81 993.5,-62 850.5,-62"/>
<text text-anchor="middle" x="922" y="-69" font-family="Helvetica,sans-Serif" font-size="10.00">odp/api/abi/event_types.h</text>
</a>
</g>
</g>
<!-- Node35&#45;&gt;Node36 -->
<g id="edge58" class="edge">
<title>Node35&#45;&gt;Node36</title>
<path fill="none" stroke="midnightblue" d="M816.62,-123.48C837.17,-113.53 871.36,-96.99 895.21,-85.46"/>
<polygon fill="midnightblue" stroke="midnightblue" points="896.93,-88.51 904.41,-81.01 893.88,-82.21 896.93,-88.51"/>
</g>
<!-- Node37 -->
<g id="node37" class="node">
<title>Node37</title>
<g id="a_node37"><a xlink:href="api_2spec_2event__types_8h.html" target="_top" xlink:title=" ">
<polygon fill="white" stroke="black" points="723.5,-56.5 723.5,-86.5 832.5,-86.5 832.5,-56.5 723.5,-56.5"/>
<text text-anchor="start" x="731.5" y="-74.5" font-family="Helvetica,sans-Serif" font-size="10.00">odp/api/spec/event</text>
<text text-anchor="middle" x="778" y="-63.5" font-family="Helvetica,sans-Serif" font-size="10.00">_types.h</text>
</a>
</g>
</g>
<!-- Node35&#45;&gt;Node37 -->
<g id="edge59" class="edge">
<title>Node35&#45;&gt;Node37</title>
<path fill="none" stroke="midnightblue" d="M795.99,-123.48C793.47,-116.32 789.73,-105.75 786.32,-96.08"/>
<polygon fill="midnightblue" stroke="midnightblue" points="789.58,-94.79 782.95,-86.52 782.98,-97.12 789.58,-94.79"/>
</g>
<!-- Node37&#45;&gt;Node4 -->
<g id="edge60" class="edge">
<title>Node37&#45;&gt;Node4</title>
<path fill="none" stroke="midnightblue" d="M723.47,-60.07C666.78,-49.22 578.53,-32.34 521.75,-21.47"/>
<polygon fill="midnightblue" stroke="midnightblue" points="522.35,-18.03 511.88,-19.59 521.04,-24.9 522.35,-18.03"/>
</g>
<!-- Node37&#45;&gt;Node7 -->
<g id="edge61" class="edge">
<title>Node37&#45;&gt;Node7</title>
<path fill="none" stroke="midnightblue" d="M832.78,-57.91C835.89,-57.25 838.98,-56.61 842,-56 907.53,-42.83 982.94,-29.83 1034.85,-21.22"/>
<polygon fill="midnightblue" stroke="midnightblue" points="1035.61,-24.64 1044.91,-19.56 1034.47,-17.73 1035.61,-24.64"/>
</g>
<!-- Node39 -->
<g id="node39" class="node">
<title>Node39</title>
<g id="a_node39"><a xlink:href="spec_2reassembly_8h.html" target="_top" xlink:title=" ">
<polygon fill="white" stroke="black" points="1327,-297 1327,-316 1473,-316 1473,-297 1327,-297"/>
<text text-anchor="middle" x="1400" y="-304" font-family="Helvetica,sans-Serif" font-size="10.00">odp/api/spec/reassembly.h</text>
</a>
</g>
</g>
<!-- Node38&#45;&gt;Node39 -->
<g id="edge69" class="edge">
<title>Node38&#45;&gt;Node39</title>
<path fill="none" stroke="midnightblue" d="M1391.78,-839.45C1393.41,-820.96 1397,-775.87 1397,-738 1397,-738 1397,-738 1397,-439.5 1397,-399.15 1398.42,-351.87 1399.3,-326.28"/>
<polygon fill="midnightblue" stroke="midnightblue" points="1402.81,-326.27 1399.67,-316.15 1395.81,-326.02 1402.81,-326.27"/>
</g>
<!-- Node39&#45;&gt;Node4 -->
<g id="edge70" class="edge">
<title>Node39&#45;&gt;Node4</title>
<path fill="none" stroke="midnightblue" d="M1396.41,-296.67C1386.11,-272.62 1353.86,-205.95 1303,-179 1180.86,-114.28 813.43,-185.81 682,-143 660.14,-135.88 613.33,-100.89 595,-87 578.44,-74.45 577.29,-67.52 560,-56 540.55,-43.04 516.81,-31.62 498.18,-23.52"/>
<polygon fill="midnightblue" stroke="midnightblue" points="499.53,-20.29 488.96,-19.6 496.79,-26.73 499.53,-20.29"/>
</g>
<!-- Node39&#45;&gt;Node7 -->
<g id="edge72" class="edge">
<title>Node39&#45;&gt;Node7</title>
<path fill="none" stroke="midnightblue" d="M1419.68,-296.94C1452.77,-281.07 1516,-243.71 1516,-190 1516,-190 1516,-190 1516,-132 1516,-82.31 1478.95,-77.18 1434,-56 1387.55,-34.12 1248.35,-21.16 1164.4,-15.13"/>
<polygon fill="midnightblue" stroke="midnightblue" points="1164.41,-11.62 1154.19,-14.41 1163.92,-18.6 1164.41,-11.62"/>
</g>
<!-- Node39&#45;&gt;Node14 -->
<g id="edge71" class="edge">
<title>Node39&#45;&gt;Node14</title>
<path fill="none" stroke="midnightblue" d="M1375.21,-296.98C1345.41,-286.72 1295.21,-269.46 1261.6,-257.9"/>
<polygon fill="midnightblue" stroke="midnightblue" points="1262.34,-254.45 1251.74,-254.51 1260.06,-261.07 1262.34,-254.45"/>
</g>
</g>
</svg>
