<?xml version="1.0" encoding="UTF-8" standalone="no"?>
<!DOCTYPE svg PUBLIC "-//W3C//DTD SVG 1.1//EN"
 "http://www.w3.org/Graphics/SVG/1.1/DTD/svg11.dtd">
<!-- Generated by graphviz version 2.43.0 (0)
 -->
<!-- Title: align.h Pages: 1 -->
<svg width="2430pt" height="532pt"
 viewBox="0.00 0.00 2429.50 532.00" xmlns="http://www.w3.org/2000/svg" xmlns:xlink="http://www.w3.org/1999/xlink">
<g id="graph0" class="graph" transform="scale(1 1) rotate(0) translate(4 528)">
<title>align.h</title>
<polygon fill="white" stroke="transparent" points="-4,4 -4,-528 2425.5,-528 2425.5,4 -4,4"/>
<!-- Node1 -->
<g id="node1" class="node">
<title>Node1</title>
<g id="a_node1"><a xlink:title=" ">
<polygon fill="#bfbfbf" stroke="black" points="1027.5,-504.5 1027.5,-523.5 1077.5,-523.5 1077.5,-504.5 1027.5,-504.5"/>
<text text-anchor="middle" x="1052.5" y="-511.5" font-family="Helvetica,sans-Serif" font-size="10.00">align.h</text>
</a>
</g>
</g>
<!-- Node2 -->
<g id="node2" class="node">
<title>Node2</title>
<g id="a_node2"><a xlink:href="arch_2arm32-linux_2odp_2api_2abi_2align_8h_source.html" target="_top" xlink:title=" ">
<polygon fill="white" stroke="black" points="857.5,-448.5 857.5,-467.5 907.5,-467.5 907.5,-448.5 857.5,-448.5"/>
<text text-anchor="middle" x="882.5" y="-455.5" font-family="Helvetica,sans-Serif" font-size="10.00">align.h</text>
</a>
</g>
</g>
<!-- Node1&#45;&gt;Node2 -->
<g id="edge1" class="edge">
<title>Node1&#45;&gt;Node2</title>
<path fill="none" stroke="midnightblue" d="M1017.8,-501.98C985.09,-491.59 936.86,-476.27 907.69,-467"/>
<polygon fill="midnightblue" stroke="midnightblue" points="1016.83,-505.34 1027.42,-505.03 1018.94,-498.67 1016.83,-505.34"/>
</g>
<!-- Node3 -->
<g id="node3" class="node">
<title>Node3</title>
<g id="a_node3"><a xlink:href="arch_2arm64-linux_2odp_2api_2abi_2align_8h_source.html" target="_top" xlink:title=" ">
<polygon fill="white" stroke="black" points="925.5,-448.5 925.5,-467.5 975.5,-467.5 975.5,-448.5 925.5,-448.5"/>
<text text-anchor="middle" x="950.5" y="-455.5" font-family="Helvetica,sans-Serif" font-size="10.00">align.h</text>
</a>
</g>
</g>
<!-- Node1&#45;&gt;Node3 -->
<g id="edge2" class="edge">
<title>Node1&#45;&gt;Node3</title>
<path fill="none" stroke="midnightblue" d="M1027.17,-499.59C1008.31,-489.61 983.12,-476.27 966.85,-467.65"/>
<polygon fill="midnightblue" stroke="midnightblue" points="1025.64,-502.74 1036.11,-504.32 1028.91,-496.55 1025.64,-502.74"/>
</g>
<!-- Node4 -->
<g id="node4" class="node">
<title>Node4</title>
<g id="a_node4"><a xlink:href="arch_2default-linux_2odp_2api_2abi_2align_8h_source.html" target="_top" xlink:title=" ">
<polygon fill="white" stroke="black" points="993.5,-448.5 993.5,-467.5 1043.5,-467.5 1043.5,-448.5 993.5,-448.5"/>
<text text-anchor="middle" x="1018.5" y="-455.5" font-family="Helvetica,sans-Serif" font-size="10.00">align.h</text>
</a>
</g>
</g>
<!-- Node1&#45;&gt;Node4 -->
<g id="edge3" class="edge">
<title>Node1&#45;&gt;Node4</title>
<path fill="none" stroke="midnightblue" d="M1041.52,-495.57C1035.67,-486.27 1028.73,-475.25 1024.01,-467.75"/>
<polygon fill="midnightblue" stroke="midnightblue" points="1038.6,-497.49 1046.89,-504.08 1044.52,-493.76 1038.6,-497.49"/>
</g>
<!-- Node5 -->
<g id="node5" class="node">
<title>Node5</title>
<g id="a_node5"><a xlink:href="arch_2power64-linux_2odp_2api_2abi_2align_8h_source.html" target="_top" xlink:title=" ">
<polygon fill="white" stroke="black" points="1061.5,-448.5 1061.5,-467.5 1111.5,-467.5 1111.5,-448.5 1061.5,-448.5"/>
<text text-anchor="middle" x="1086.5" y="-455.5" font-family="Helvetica,sans-Serif" font-size="10.00">align.h</text>
</a>
</g>
</g>
<!-- Node1&#45;&gt;Node5 -->
<g id="edge4" class="edge">
<title>Node1&#45;&gt;Node5</title>
<path fill="none" stroke="midnightblue" d="M1063.48,-495.57C1069.33,-486.27 1076.27,-475.25 1080.99,-467.75"/>
<polygon fill="midnightblue" stroke="midnightblue" points="1060.48,-493.76 1058.11,-504.08 1066.4,-497.49 1060.48,-493.76"/>
</g>
<!-- Node6 -->
<g id="node6" class="node">
<title>Node6</title>
<g id="a_node6"><a xlink:href="arch_2x86__32-linux_2odp_2api_2abi_2align_8h_source.html" target="_top" xlink:title=" ">
<polygon fill="white" stroke="black" points="1129.5,-448.5 1129.5,-467.5 1179.5,-467.5 1179.5,-448.5 1129.5,-448.5"/>
<text text-anchor="middle" x="1154.5" y="-455.5" font-family="Helvetica,sans-Serif" font-size="10.00">align.h</text>
</a>
</g>
</g>
<!-- Node1&#45;&gt;Node6 -->
<g id="edge5" class="edge">
<title>Node1&#45;&gt;Node6</title>
<path fill="none" stroke="midnightblue" d="M1077.83,-499.59C1096.69,-489.61 1121.88,-476.27 1138.15,-467.65"/>
<polygon fill="midnightblue" stroke="midnightblue" points="1076.09,-496.55 1068.89,-504.32 1079.36,-502.74 1076.09,-496.55"/>
</g>
<!-- Node7 -->
<g id="node7" class="node">
<title>Node7</title>
<g id="a_node7"><a xlink:href="arch_2x86__64-linux_2odp_2api_2abi_2align_8h_source.html" target="_top" xlink:title=" ">
<polygon fill="white" stroke="black" points="1197.5,-448.5 1197.5,-467.5 1247.5,-467.5 1247.5,-448.5 1197.5,-448.5"/>
<text text-anchor="middle" x="1222.5" y="-455.5" font-family="Helvetica,sans-Serif" font-size="10.00">align.h</text>
</a>
</g>
</g>
<!-- Node1&#45;&gt;Node7 -->
<g id="edge6" class="edge">
<title>Node1&#45;&gt;Node7</title>
<path fill="none" stroke="midnightblue" d="M1087.2,-501.98C1119.91,-491.59 1168.14,-476.27 1197.31,-467"/>
<polygon fill="midnightblue" stroke="midnightblue" points="1086.06,-498.67 1077.58,-505.03 1088.17,-505.34 1086.06,-498.67"/>
</g>
<!-- Node8 -->
<g id="node8" class="node">
<title>Node8</title>
<g id="a_node8"><a xlink:href="api_2align_8h.html" target="_top" xlink:title=" ">
<polygon fill="white" stroke="black" points="1197.5,-392.5 1197.5,-411.5 1247.5,-411.5 1247.5,-392.5 1197.5,-392.5"/>
<text text-anchor="middle" x="1222.5" y="-399.5" font-family="Helvetica,sans-Serif" font-size="10.00">align.h</text>
</a>
</g>
</g>
<!-- Node7&#45;&gt;Node8 -->
<g id="edge7" class="edge">
<title>Node7&#45;&gt;Node8</title>
<path fill="none" stroke="midnightblue" d="M1222.5,-437.8C1222.5,-428.91 1222.5,-418.78 1222.5,-411.75"/>
<polygon fill="midnightblue" stroke="midnightblue" points="1219,-438.08 1222.5,-448.08 1226,-438.08 1219,-438.08"/>
</g>
<!-- Node9 -->
<g id="node9" class="node">
<title>Node9</title>
<g id="a_node9"><a xlink:href="api_2abi-default_2atomic_8h.html" target="_top" xlink:title=" ">
<polygon fill="white" stroke="black" points="269,-224.5 269,-243.5 328,-243.5 328,-224.5 269,-224.5"/>
<text text-anchor="middle" x="298.5" y="-231.5" font-family="Helvetica,sans-Serif" font-size="10.00">atomic.h</text>
</a>
</g>
</g>
<!-- Node8&#45;&gt;Node9 -->
<g id="edge8" class="edge">
<title>Node8&#45;&gt;Node9</title>
<path fill="none" stroke="midnightblue" d="M1187.38,-394.69C1039.08,-368.05 465.53,-265.01 328.18,-240.33"/>
<polygon fill="midnightblue" stroke="midnightblue" points="1186.84,-398.15 1197.31,-396.47 1188.08,-391.26 1186.84,-398.15"/>
</g>
<!-- Node25 -->
<g id="node19" class="node">
<title>Node25</title>
<g id="a_node19"><a xlink:href="odp__api_8h.html" target="_top" xlink:title=" ">
<polygon fill="white" stroke="black" points="1784.5,-0.5 1784.5,-19.5 1848.5,-19.5 1848.5,-0.5 1784.5,-0.5"/>
<text text-anchor="middle" x="1816.5" y="-7.5" font-family="Helvetica,sans-Serif" font-size="10.00">odp_api.h</text>
</a>
</g>
</g>
<!-- Node8&#45;&gt;Node25 -->
<g id="edge65" class="edge">
<title>Node8&#45;&gt;Node25</title>
<path fill="none" stroke="midnightblue" d="M1257.68,-399.66C1455.59,-391.92 2421.5,-351.04 2421.5,-291 2421.5,-291 2421.5,-291 2421.5,-121 2421.5,-62.22 1973.68,-23.16 1848.6,-13.4"/>
<polygon fill="midnightblue" stroke="midnightblue" points="1257.4,-396.17 1247.54,-400.06 1257.67,-403.17 1257.4,-396.17"/>
</g>
<!-- Node50 -->
<g id="node20" class="node">
<title>Node50</title>
<g id="a_node20"><a xlink:href="api_2abi-default_2cpumask_8h.html" target="_top" xlink:title=" ">
<polygon fill="white" stroke="black" points="594.5,-224.5 594.5,-243.5 664.5,-243.5 664.5,-224.5 594.5,-224.5"/>
<text text-anchor="middle" x="629.5" y="-231.5" font-family="Helvetica,sans-Serif" font-size="10.00">cpumask.h</text>
</a>
</g>
</g>
<!-- Node8&#45;&gt;Node50 -->
<g id="edge20" class="edge">
<title>Node8&#45;&gt;Node50</title>
<path fill="none" stroke="midnightblue" d="M1187.46,-391.19C1080.72,-361.31 760.78,-271.75 660.15,-243.58"/>
<polygon fill="midnightblue" stroke="midnightblue" points="1186.82,-394.65 1197.4,-393.97 1188.71,-387.91 1186.82,-394.65"/>
</g>
<!-- Node72 -->
<g id="node29" class="node">
<title>Node72</title>
<g id="a_node29"><a xlink:href="api_2spec_2std__types_8h.html" target="_top" xlink:title=" ">
<polygon fill="white" stroke="black" points="1502,-336.5 1502,-355.5 1575,-355.5 1575,-336.5 1502,-336.5"/>
<text text-anchor="middle" x="1538.5" y="-343.5" font-family="Helvetica,sans-Serif" font-size="10.00">std_types.h</text>
</a>
</g>
</g>
<!-- Node8&#45;&gt;Node72 -->
<g id="edge30" class="edge">
<title>Node8&#45;&gt;Node72</title>
<path fill="none" stroke="midnightblue" d="M1257.72,-394.98C1318.03,-384.68 1440.46,-363.75 1501.77,-353.28"/>
<polygon fill="midnightblue" stroke="midnightblue" points="1256.83,-391.58 1247.56,-396.72 1258.01,-398.48 1256.83,-391.58"/>
</g>
<!-- Node10 -->
<g id="node10" class="node">
<title>Node10</title>
<g id="a_node10"><a xlink:href="arch_2arm32-linux_2odp_2api_2abi_2atomic_8h_source.html" target="_top" xlink:title=" ">
<polygon fill="white" stroke="black" points="231,-168.5 231,-187.5 290,-187.5 290,-168.5 231,-168.5"/>
<text text-anchor="middle" x="260.5" y="-175.5" font-family="Helvetica,sans-Serif" font-size="10.00">atomic.h</text>
</a>
</g>
</g>
<!-- Node9&#45;&gt;Node10 -->
<g id="edge9" class="edge">
<title>Node9&#45;&gt;Node10</title>
<path fill="none" stroke="midnightblue" d="M286.44,-215.86C279.86,-206.5 271.99,-195.33 266.66,-187.75"/>
<polygon fill="midnightblue" stroke="midnightblue" points="283.61,-217.92 292.23,-224.08 289.33,-213.89 283.61,-217.92"/>
</g>
<!-- Node11 -->
<g id="node11" class="node">
<title>Node11</title>
<g id="a_node11"><a xlink:href="arch_2arm64-linux_2odp_2api_2abi_2atomic_8h_source.html" target="_top" xlink:title=" ">
<polygon fill="white" stroke="black" points="308,-168.5 308,-187.5 367,-187.5 367,-168.5 308,-168.5"/>
<text text-anchor="middle" x="337.5" y="-175.5" font-family="Helvetica,sans-Serif" font-size="10.00">atomic.h</text>
</a>
</g>
</g>
<!-- Node9&#45;&gt;Node11 -->
<g id="edge10" class="edge">
<title>Node9&#45;&gt;Node11</title>
<path fill="none" stroke="midnightblue" d="M310.88,-215.86C317.64,-206.5 325.71,-195.33 331.18,-187.75"/>
<polygon fill="midnightblue" stroke="midnightblue" points="307.96,-213.93 304.94,-224.08 313.63,-218.03 307.96,-213.93"/>
</g>
<!-- Node12 -->
<g id="node12" class="node">
<title>Node12</title>
<g id="a_node12"><a xlink:href="arch_2default-linux_2odp_2api_2abi_2atomic_8h_source.html" target="_top" xlink:title=" ">
<polygon fill="white" stroke="black" points="0,-168.5 0,-187.5 59,-187.5 59,-168.5 0,-168.5"/>
<text text-anchor="middle" x="29.5" y="-175.5" font-family="Helvetica,sans-Serif" font-size="10.00">atomic.h</text>
</a>
</g>
</g>
<!-- Node9&#45;&gt;Node12 -->
<g id="edge11" class="edge">
<title>Node9&#45;&gt;Node12</title>
<path fill="none" stroke="midnightblue" d="M259.01,-225.81C212.93,-217.3 134.52,-202.46 67.5,-188 64.85,-187.43 62.1,-186.82 59.35,-186.19"/>
<polygon fill="midnightblue" stroke="midnightblue" points="258.42,-229.26 268.89,-227.62 259.68,-222.37 258.42,-229.26"/>
</g>
<!-- Node13 -->
<g id="node13" class="node">
<title>Node13</title>
<g id="a_node13"><a xlink:href="arch_2power64-linux_2odp_2api_2abi_2atomic_8h_source.html" target="_top" xlink:title=" ">
<polygon fill="white" stroke="black" points="77,-168.5 77,-187.5 136,-187.5 136,-168.5 77,-168.5"/>
<text text-anchor="middle" x="106.5" y="-175.5" font-family="Helvetica,sans-Serif" font-size="10.00">atomic.h</text>
</a>
</g>
</g>
<!-- Node9&#45;&gt;Node13 -->
<g id="edge12" class="edge">
<title>Node9&#45;&gt;Node13</title>
<path fill="none" stroke="midnightblue" d="M259.11,-221.92C222.6,-211.65 169.11,-196.61 136.11,-187.33"/>
<polygon fill="midnightblue" stroke="midnightblue" points="258.35,-225.34 268.92,-224.68 260.24,-218.6 258.35,-225.34"/>
</g>
<!-- Node14 -->
<g id="node14" class="node">
<title>Node14</title>
<g id="a_node14"><a xlink:href="arch_2x86__32-linux_2odp_2api_2abi_2atomic_8h_source.html" target="_top" xlink:title=" ">
<polygon fill="white" stroke="black" points="154,-168.5 154,-187.5 213,-187.5 213,-168.5 154,-168.5"/>
<text text-anchor="middle" x="183.5" y="-175.5" font-family="Helvetica,sans-Serif" font-size="10.00">atomic.h</text>
</a>
</g>
</g>
<!-- Node9&#45;&gt;Node14 -->
<g id="edge13" class="edge">
<title>Node9&#45;&gt;Node14</title>
<path fill="none" stroke="midnightblue" d="M271.02,-220.1C249.53,-210.01 220.28,-196.27 201.64,-187.52"/>
<polygon fill="midnightblue" stroke="midnightblue" points="269.74,-223.36 280.28,-224.44 272.71,-217.02 269.74,-223.36"/>
</g>
<!-- Node15 -->
<g id="node15" class="node">
<title>Node15</title>
<g id="a_node15"><a xlink:href="arch_2x86__64-linux_2odp_2api_2abi_2atomic_8h_source.html" target="_top" xlink:title=" ">
<polygon fill="white" stroke="black" points="385,-168.5 385,-187.5 444,-187.5 444,-168.5 385,-168.5"/>
<text text-anchor="middle" x="414.5" y="-175.5" font-family="Helvetica,sans-Serif" font-size="10.00">atomic.h</text>
</a>
</g>
</g>
<!-- Node9&#45;&gt;Node15 -->
<g id="edge14" class="edge">
<title>Node9&#45;&gt;Node15</title>
<path fill="none" stroke="midnightblue" d="M326.22,-220.1C347.89,-210.01 377.4,-196.27 396.21,-187.52"/>
<polygon fill="midnightblue" stroke="midnightblue" points="324.47,-217.05 316.88,-224.44 327.42,-223.4 324.47,-217.05"/>
</g>
<!-- Node16 -->
<g id="node16" class="node">
<title>Node16</title>
<g id="a_node16"><a xlink:href="api_2atomic_8h.html" target="_top" xlink:title=" ">
<polygon fill="white" stroke="red" points="825,-112.5 825,-131.5 884,-131.5 884,-112.5 825,-112.5"/>
<text text-anchor="middle" x="854.5" y="-119.5" font-family="Helvetica,sans-Serif" font-size="10.00">atomic.h</text>
</a>
</g>
</g>
<!-- Node15&#45;&gt;Node16 -->
<g id="edge15" class="edge">
<title>Node15&#45;&gt;Node16</title>
<path fill="none" stroke="midnightblue" d="M454.19,-168.08C598.88,-143.79 759.75,-130.13 824.91,-125.15"/>
<polygon fill="midnightblue" stroke="midnightblue" points="453.51,-164.64 444.24,-169.77 454.68,-171.54 453.51,-164.64"/>
</g>
<!-- Node17 -->
<g id="node17" class="node">
<title>Node17</title>
<g id="a_node17"><a xlink:href="api_2abi-default_2barrier_8h.html" target="_top" xlink:title=" ">
<polygon fill="white" stroke="red" points="1110,-56.5 1110,-75.5 1167,-75.5 1167,-56.5 1110,-56.5"/>
<text text-anchor="middle" x="1138.5" y="-63.5" font-family="Helvetica,sans-Serif" font-size="10.00">barrier.h</text>
</a>
</g>
</g>
<!-- Node16&#45;&gt;Node17 -->
<g id="edge16" class="edge">
<title>Node16&#45;&gt;Node17</title>
<path fill="none" stroke="midnightblue" d="M893.98,-113.49C951.95,-102.47 1058.75,-82.16 1109.82,-72.45"/>
<polygon fill="midnightblue" stroke="midnightblue" points="893.26,-110.07 884.09,-115.37 894.57,-116.94 893.26,-110.07"/>
</g>
<!-- Node24 -->
<g id="node18" class="node">
<title>Node24</title>
<g id="a_node18"><a xlink:href="api_2barrier_8h.html" target="_top" xlink:title=" ">
<polygon fill="white" stroke="black" points="884,-56.5 884,-75.5 941,-75.5 941,-56.5 884,-56.5"/>
<text text-anchor="middle" x="912.5" y="-63.5" font-family="Helvetica,sans-Serif" font-size="10.00">barrier.h</text>
</a>
</g>
</g>
<!-- Node16&#45;&gt;Node24 -->
<g id="edge17" class="edge">
<title>Node16&#45;&gt;Node24</title>
<path fill="none" stroke="midnightblue" d="M871.41,-105.25C881.7,-95.67 894.47,-83.79 903.01,-75.83"/>
<polygon fill="midnightblue" stroke="midnightblue" points="868.75,-102.95 863.82,-112.32 873.52,-108.07 868.75,-102.95"/>
</g>
<!-- Node16&#45;&gt;Node25 -->
<g id="edge19" class="edge">
<title>Node16&#45;&gt;Node25</title>
<path fill="none" stroke="midnightblue" d="M854.8,-101.84C856.15,-86.82 860.68,-66.73 874.5,-56 911.2,-27.52 1623.48,-14.16 1784.39,-11.5"/>
<polygon fill="midnightblue" stroke="midnightblue" points="851.29,-101.93 854.28,-112.1 858.28,-102.29 851.29,-101.93"/>
</g>
<!-- Node24&#45;&gt;Node25 -->
<g id="edge18" class="edge">
<title>Node24&#45;&gt;Node25</title>
<path fill="none" stroke="midnightblue" d="M951.18,-62.69C1101.56,-53.71 1645.71,-21.2 1784.24,-12.93"/>
<polygon fill="midnightblue" stroke="midnightblue" points="950.82,-59.2 941.05,-63.29 951.24,-66.19 950.82,-59.2"/>
</g>
<!-- Node51 -->
<g id="node21" class="node">
<title>Node51</title>
<g id="a_node21"><a xlink:href="arch_2arm32-linux_2odp_2api_2abi_2cpumask_8h_source.html" target="_top" xlink:title=" ">
<polygon fill="white" stroke="black" points="726.5,-168.5 726.5,-187.5 796.5,-187.5 796.5,-168.5 726.5,-168.5"/>
<text text-anchor="middle" x="761.5" y="-175.5" font-family="Helvetica,sans-Serif" font-size="10.00">cpumask.h</text>
</a>
</g>
</g>
<!-- Node50&#45;&gt;Node51 -->
<g id="edge21" class="edge">
<title>Node50&#45;&gt;Node51</title>
<path fill="none" stroke="midnightblue" d="M659.72,-220.64C684.49,-210.5 718.9,-196.43 740.68,-187.52"/>
<polygon fill="midnightblue" stroke="midnightblue" points="658.35,-217.42 650.42,-224.44 661,-223.9 658.35,-217.42"/>
</g>
<!-- Node52 -->
<g id="node22" class="node">
<title>Node52</title>
<g id="a_node22"><a xlink:href="arch_2arm64-linux_2odp_2api_2abi_2cpumask_8h_source.html" target="_top" xlink:title=" ">
<polygon fill="white" stroke="black" points="814.5,-168.5 814.5,-187.5 884.5,-187.5 884.5,-168.5 814.5,-168.5"/>
<text text-anchor="middle" x="849.5" y="-175.5" font-family="Helvetica,sans-Serif" font-size="10.00">cpumask.h</text>
</a>
</g>
</g>
<!-- Node50&#45;&gt;Node52 -->
<g id="edge22" class="edge">
<title>Node50&#45;&gt;Node52</title>
<path fill="none" stroke="midnightblue" d="M674.22,-222.02C715.78,-211.82 776.81,-196.84 814.8,-187.52"/>
<polygon fill="midnightblue" stroke="midnightblue" points="673.24,-218.66 664.36,-224.44 674.91,-225.46 673.24,-218.66"/>
</g>
<!-- Node53 -->
<g id="node23" class="node">
<title>Node53</title>
<g id="a_node23"><a xlink:href="arch_2default-linux_2odp_2api_2abi_2cpumask_8h_source.html" target="_top" xlink:title=" ">
<polygon fill="white" stroke="black" points="462.5,-168.5 462.5,-187.5 532.5,-187.5 532.5,-168.5 462.5,-168.5"/>
<text text-anchor="middle" x="497.5" y="-175.5" font-family="Helvetica,sans-Serif" font-size="10.00">cpumask.h</text>
</a>
</g>
</g>
<!-- Node50&#45;&gt;Node53 -->
<g id="edge23" class="edge">
<title>Node50&#45;&gt;Node53</title>
<path fill="none" stroke="midnightblue" d="M599.28,-220.64C574.51,-210.5 540.1,-196.43 518.32,-187.52"/>
<polygon fill="midnightblue" stroke="midnightblue" points="598,-223.9 608.58,-224.44 600.65,-217.42 598,-223.9"/>
</g>
<!-- Node54 -->
<g id="node24" class="node">
<title>Node54</title>
<g id="a_node24"><a xlink:href="arch_2power64-linux_2odp_2api_2abi_2cpumask_8h_source.html" target="_top" xlink:title=" ">
<polygon fill="white" stroke="black" points="550.5,-168.5 550.5,-187.5 620.5,-187.5 620.5,-168.5 550.5,-168.5"/>
<text text-anchor="middle" x="585.5" y="-175.5" font-family="Helvetica,sans-Serif" font-size="10.00">cpumask.h</text>
</a>
</g>
</g>
<!-- Node50&#45;&gt;Node54 -->
<g id="edge24" class="edge">
<title>Node50&#45;&gt;Node54</title>
<path fill="none" stroke="midnightblue" d="M615.77,-216.14C608.1,-206.74 598.87,-195.4 592.63,-187.75"/>
<polygon fill="midnightblue" stroke="midnightblue" points="613.2,-218.54 622.23,-224.08 618.63,-214.12 613.2,-218.54"/>
</g>
<!-- Node55 -->
<g id="node25" class="node">
<title>Node55</title>
<g id="a_node25"><a xlink:href="arch_2x86__32-linux_2odp_2api_2abi_2cpumask_8h_source.html" target="_top" xlink:title=" ">
<polygon fill="white" stroke="black" points="638.5,-168.5 638.5,-187.5 708.5,-187.5 708.5,-168.5 638.5,-168.5"/>
<text text-anchor="middle" x="673.5" y="-175.5" font-family="Helvetica,sans-Serif" font-size="10.00">cpumask.h</text>
</a>
</g>
</g>
<!-- Node50&#45;&gt;Node55 -->
<g id="edge25" class="edge">
<title>Node50&#45;&gt;Node55</title>
<path fill="none" stroke="midnightblue" d="M643.23,-216.14C650.9,-206.74 660.13,-195.4 666.37,-187.75"/>
<polygon fill="midnightblue" stroke="midnightblue" points="640.37,-214.12 636.77,-224.08 645.8,-218.54 640.37,-214.12"/>
</g>
<!-- Node56 -->
<g id="node26" class="node">
<title>Node56</title>
<g id="a_node26"><a xlink:href="arch_2x86__64-linux_2odp_2api_2abi_2cpumask_8h_source.html" target="_top" xlink:title=" ">
<polygon fill="white" stroke="black" points="1110.5,-168.5 1110.5,-187.5 1180.5,-187.5 1180.5,-168.5 1110.5,-168.5"/>
<text text-anchor="middle" x="1145.5" y="-175.5" font-family="Helvetica,sans-Serif" font-size="10.00">cpumask.h</text>
</a>
</g>
</g>
<!-- Node50&#45;&gt;Node56 -->
<g id="edge26" class="edge">
<title>Node50&#45;&gt;Node56</title>
<path fill="none" stroke="midnightblue" d="M674.81,-227.98C686.74,-226.67 699.6,-225.27 711.5,-224 859.7,-208.18 1036.45,-190.1 1110.33,-182.57"/>
<polygon fill="midnightblue" stroke="midnightblue" points="674.17,-224.53 664.61,-229.1 674.93,-231.49 674.17,-224.53"/>
</g>
<!-- Node57 -->
<g id="node27" class="node">
<title>Node57</title>
<g id="a_node27"><a xlink:href="api_2cpumask_8h.html" target="_top" xlink:title=" ">
<polygon fill="white" stroke="red" points="1629.5,-112.5 1629.5,-131.5 1699.5,-131.5 1699.5,-112.5 1629.5,-112.5"/>
<text text-anchor="middle" x="1664.5" y="-119.5" font-family="Helvetica,sans-Serif" font-size="10.00">cpumask.h</text>
</a>
</g>
</g>
<!-- Node56&#45;&gt;Node57 -->
<g id="edge27" class="edge">
<title>Node56&#45;&gt;Node57</title>
<path fill="none" stroke="midnightblue" d="M1190.73,-172.29C1292.47,-161.71 1537.59,-136.2 1629.19,-126.67"/>
<polygon fill="midnightblue" stroke="midnightblue" points="1190.35,-168.81 1180.76,-173.33 1191.07,-175.78 1190.35,-168.81"/>
</g>
<!-- Node57&#45;&gt;Node25 -->
<g id="edge29" class="edge">
<title>Node57&#45;&gt;Node25</title>
<path fill="none" stroke="midnightblue" d="M1665.46,-101.93C1667.16,-87.57 1671.69,-68.32 1683.5,-56 1710.07,-28.29 1754.29,-17.64 1784.38,-13.55"/>
<polygon fill="midnightblue" stroke="midnightblue" points="1661.95,-101.92 1664.61,-112.17 1668.92,-102.49 1661.95,-101.92"/>
</g>
<!-- Node68 -->
<g id="node28" class="node">
<title>Node68</title>
<g id="a_node28"><a xlink:href="api_2spec_2init_8h.html" target="_top" xlink:title=" ">
<polygon fill="white" stroke="red" points="1693,-56.5 1693,-75.5 1734,-75.5 1734,-56.5 1693,-56.5"/>
<text text-anchor="middle" x="1713.5" y="-63.5" font-family="Helvetica,sans-Serif" font-size="10.00">init.h</text>
</a>
</g>
</g>
<!-- Node57&#45;&gt;Node68 -->
<g id="edge28" class="edge">
<title>Node57&#45;&gt;Node68</title>
<path fill="none" stroke="midnightblue" d="M1679.53,-104.43C1688.12,-94.97 1698.54,-83.48 1705.56,-75.75"/>
<polygon fill="midnightblue" stroke="midnightblue" points="1676.72,-102.33 1672.59,-112.08 1681.9,-107.03 1676.72,-102.33"/>
</g>
<!-- Node73 -->
<g id="node30" class="node">
<title>Node73</title>
<g id="a_node30"><a xlink:href="api_2std__types_8h.html" target="_top" xlink:title=" ">
<polygon fill="white" stroke="red" points="1502,-280.5 1502,-299.5 1575,-299.5 1575,-280.5 1502,-280.5"/>
<text text-anchor="middle" x="1538.5" y="-287.5" font-family="Helvetica,sans-Serif" font-size="10.00">std_types.h</text>
</a>
</g>
</g>
<!-- Node72&#45;&gt;Node73 -->
<g id="edge31" class="edge">
<title>Node72&#45;&gt;Node73</title>
<path fill="none" stroke="midnightblue" d="M1538.5,-325.8C1538.5,-316.91 1538.5,-306.78 1538.5,-299.75"/>
<polygon fill="midnightblue" stroke="midnightblue" points="1535,-326.08 1538.5,-336.08 1542,-326.08 1535,-326.08"/>
</g>
<!-- Node73&#45;&gt;Node9 -->
<g id="edge32" class="edge">
<title>Node73&#45;&gt;Node9</title>
<path fill="none" stroke="midnightblue" d="M1491.71,-286.96C1289.31,-278.15 491.92,-243.42 328.04,-236.29"/>
<polygon fill="midnightblue" stroke="midnightblue" points="1491.58,-290.46 1501.73,-287.4 1491.89,-283.47 1491.58,-290.46"/>
</g>
<!-- Node73&#45;&gt;Node17 -->
<g id="edge33" class="edge">
<title>Node73&#45;&gt;Node17</title>
<path fill="none" stroke="midnightblue" d="M1491.87,-283.68C1452.98,-277.87 1396.95,-266.26 1352.5,-244 1259.81,-197.59 1171.87,-104.29 1146.08,-75.59"/>
<polygon fill="midnightblue" stroke="midnightblue" points="1491.47,-287.16 1501.87,-285.1 1492.46,-280.22 1491.47,-287.16"/>
</g>
<!-- Node73&#45;&gt;Node24 -->
<g id="edge43" class="edge">
<title>Node73&#45;&gt;Node24</title>
<path fill="none" stroke="midnightblue" d="M1491.74,-288.21C1320.83,-285.11 738.48,-272.49 711.5,-244 705.39,-237.55 705.86,-230.87 711.5,-224 763.84,-160.29 836.36,-247.45 893.5,-188 923.71,-156.57 917.72,-97.89 914.14,-75.75"/>
<polygon fill="midnightblue" stroke="midnightblue" points="1491.87,-291.72 1501.93,-288.4 1491.99,-284.72 1491.87,-291.72"/>
</g>
<!-- Node73&#45;&gt;Node25 -->
<g id="edge64" class="edge">
<title>Node73&#45;&gt;Node25</title>
<path fill="none" stroke="midnightblue" d="M1585.16,-288.06C1678.5,-285.5 1884.6,-276.26 1946.5,-244 1980.57,-226.24 2003.5,-217.42 2003.5,-179 2003.5,-179 2003.5,-179 2003.5,-121 2003.5,-50 1902.11,-23.92 1848.65,-15.1"/>
<polygon fill="midnightblue" stroke="midnightblue" points="1585.06,-284.56 1575.15,-288.32 1585.24,-291.56 1585.06,-284.56"/>
</g>
<!-- Node73&#45;&gt;Node50 -->
<g id="edge35" class="edge">
<title>Node73&#45;&gt;Node50</title>
<path fill="none" stroke="midnightblue" d="M1491.8,-287.35C1336.49,-281.76 838.17,-262.76 678.5,-244 674.03,-243.48 669.36,-242.79 664.75,-242.04"/>
<polygon fill="midnightblue" stroke="midnightblue" points="1491.83,-290.86 1501.95,-287.72 1492.08,-283.86 1491.83,-290.86"/>
</g>
<!-- Node73&#45;&gt;Node68 -->
<g id="edge62" class="edge">
<title>Node73&#45;&gt;Node68</title>
<path fill="none" stroke="midnightblue" d="M1585.26,-286.99C1683.29,-282.29 1903.2,-269.04 1925.5,-244 1970.37,-193.61 1908.28,-146.84 1850.5,-112 1812.77,-89.25 1762.16,-76.51 1734.22,-70.77"/>
<polygon fill="midnightblue" stroke="midnightblue" points="1584.86,-283.5 1575.04,-287.47 1585.19,-290.49 1584.86,-283.5"/>
</g>
<!-- Node74 -->
<g id="node31" class="node">
<title>Node74</title>
<g id="a_node31"><a xlink:href="api_2abi-default_2byteorder_8h.html" target="_top" xlink:title=" ">
<polygon fill="white" stroke="red" points="2031.5,-224.5 2031.5,-243.5 2103.5,-243.5 2103.5,-224.5 2031.5,-224.5"/>
<text text-anchor="middle" x="2067.5" y="-231.5" font-family="Helvetica,sans-Serif" font-size="10.00">byteorder.h</text>
</a>
</g>
</g>
<!-- Node73&#45;&gt;Node74 -->
<g id="edge34" class="edge">
<title>Node73&#45;&gt;Node74</title>
<path fill="none" stroke="midnightblue" d="M1585.49,-285.91C1671.48,-279.96 1859.81,-265.56 2017.5,-244 2021.96,-243.39 2026.62,-242.67 2031.24,-241.9"/>
<polygon fill="midnightblue" stroke="midnightblue" points="1585.02,-282.43 1575.28,-286.61 1585.49,-289.42 1585.02,-282.43"/>
</g>
<!-- Node82 -->
<g id="node32" class="node">
<title>Node82</title>
<g id="a_node32"><a xlink:href="api_2abi-default_2init_8h.html" target="_top" xlink:title=" ">
<polygon fill="white" stroke="red" points="2122,-224.5 2122,-243.5 2163,-243.5 2163,-224.5 2122,-224.5"/>
<text text-anchor="middle" x="2142.5" y="-231.5" font-family="Helvetica,sans-Serif" font-size="10.00">init.h</text>
</a>
</g>
</g>
<!-- Node73&#45;&gt;Node82 -->
<g id="edge36" class="edge">
<title>Node73&#45;&gt;Node82</title>
<path fill="none" stroke="midnightblue" d="M1585.33,-288.69C1683.78,-287.32 1919.11,-280.16 2112.5,-244 2115.6,-243.42 2118.84,-242.64 2121.99,-241.78"/>
<polygon fill="midnightblue" stroke="midnightblue" points="1585.07,-285.2 1575.12,-288.82 1585.16,-292.2 1585.07,-285.2"/>
</g>
<!-- Node89 -->
<g id="node33" class="node">
<title>Node89</title>
<g id="a_node33"><a xlink:href="api_2abi-default_2ipsec_8h.html" target="_top" xlink:title=" ">
<polygon fill="white" stroke="red" points="2220,-224.5 2220,-243.5 2271,-243.5 2271,-224.5 2220,-224.5"/>
<text text-anchor="middle" x="2245.5" y="-231.5" font-family="Helvetica,sans-Serif" font-size="10.00">ipsec.h</text>
</a>
</g>
</g>
<!-- Node73&#45;&gt;Node89 -->
<g id="edge37" class="edge">
<title>Node73&#45;&gt;Node89</title>
<path fill="none" stroke="midnightblue" d="M1585.24,-288.32C1694.4,-286.18 1974.35,-277.6 2205.5,-244 2210.15,-243.32 2215.06,-242.4 2219.79,-241.4"/>
<polygon fill="midnightblue" stroke="midnightblue" points="1585.15,-284.82 1575.22,-288.5 1585.29,-291.82 1585.15,-284.82"/>
</g>
<!-- Node97 -->
<g id="node34" class="node">
<title>Node97</title>
<g id="a_node34"><a xlink:href="api_2abi-default_2packet__io__types_8h.html" target="_top" xlink:title=" ">
<polygon fill="white" stroke="red" points="2289.5,-224.5 2289.5,-243.5 2393.5,-243.5 2393.5,-224.5 2289.5,-224.5"/>
<text text-anchor="middle" x="2341.5" y="-231.5" font-family="Helvetica,sans-Serif" font-size="10.00">packet_io_types.h</text>
</a>
</g>
</g>
<!-- Node73&#45;&gt;Node97 -->
<g id="edge38" class="edge">
<title>Node73&#45;&gt;Node97</title>
<path fill="none" stroke="midnightblue" d="M1585.27,-287.52C1702.43,-283.51 2017.84,-270.89 2279.5,-244 2282.75,-243.67 2286.08,-243.29 2289.44,-242.88"/>
<polygon fill="midnightblue" stroke="midnightblue" points="1585.09,-284.02 1575.21,-287.86 1585.32,-291.02 1585.09,-284.02"/>
</g>
<!-- Node34 -->
<g id="node35" class="node">
<title>Node34</title>
<g id="a_node35"><a xlink:href="api_2abi-default_2rwlock__recursive_8h.html" target="_top" xlink:title=" ">
<polygon fill="white" stroke="red" points="720.5,-224.5 720.5,-243.5 828.5,-243.5 828.5,-224.5 720.5,-224.5"/>
<text text-anchor="middle" x="774.5" y="-231.5" font-family="Helvetica,sans-Serif" font-size="10.00">rwlock_recursive.h</text>
</a>
</g>
</g>
<!-- Node73&#45;&gt;Node34 -->
<g id="edge39" class="edge">
<title>Node73&#45;&gt;Node34</title>
<path fill="none" stroke="midnightblue" d="M1491.92,-287.26C1379.3,-282.79 1083.35,-269.41 837.5,-244 834.64,-243.7 831.72,-243.38 828.76,-243.03"/>
<polygon fill="midnightblue" stroke="midnightblue" points="1491.8,-290.76 1501.93,-287.66 1492.07,-283.77 1491.8,-290.76"/>
</g>
<!-- Node137 -->
<g id="node36" class="node">
<title>Node137</title>
<g id="a_node36"><a xlink:href="api_2abi-default_2schedule_8h.html" target="_top" xlink:title=" ">
<polygon fill="white" stroke="red" points="847,-224.5 847,-243.5 916,-243.5 916,-224.5 847,-224.5"/>
<text text-anchor="middle" x="881.5" y="-231.5" font-family="Helvetica,sans-Serif" font-size="10.00">schedule.h</text>
</a>
</g>
</g>
<!-- Node73&#45;&gt;Node137 -->
<g id="edge40" class="edge">
<title>Node73&#45;&gt;Node137</title>
<path fill="none" stroke="midnightblue" d="M1491.65,-287.61C1388.76,-284.12 1135.51,-273.06 925.5,-244 922.41,-243.57 919.21,-243.06 916.01,-242.5"/>
<polygon fill="midnightblue" stroke="midnightblue" points="1491.6,-291.11 1501.71,-287.95 1491.83,-284.12 1491.6,-291.11"/>
</g>
<!-- Node144 -->
<g id="node37" class="node">
<title>Node144</title>
<g id="a_node37"><a xlink:href="api_2abi-default_2spinlock__recursive_8h.html" target="_top" xlink:title=" ">
<polygon fill="white" stroke="red" points="934.5,-224.5 934.5,-243.5 1050.5,-243.5 1050.5,-224.5 934.5,-224.5"/>
<text text-anchor="middle" x="992.5" y="-231.5" font-family="Helvetica,sans-Serif" font-size="10.00">spinlock_recursive.h</text>
</a>
</g>
</g>
<!-- Node73&#45;&gt;Node144 -->
<g id="edge41" class="edge">
<title>Node73&#45;&gt;Node144</title>
<path fill="none" stroke="midnightblue" d="M1491.59,-285.22C1405.75,-278.16 1217.63,-262.04 1059.5,-244 1056.58,-243.67 1053.6,-243.31 1050.59,-242.95"/>
<polygon fill="midnightblue" stroke="midnightblue" points="1491.54,-288.73 1501.79,-286.05 1492.11,-281.75 1491.54,-288.73"/>
</g>
<!-- Node152 -->
<g id="node38" class="node">
<title>Node152</title>
<g id="a_node38"><a xlink:href="api_2abi-default_2traffic__mngr_8h.html" target="_top" xlink:title=" ">
<polygon fill="white" stroke="red" points="1068.5,-224.5 1068.5,-243.5 1152.5,-243.5 1152.5,-224.5 1068.5,-224.5"/>
<text text-anchor="middle" x="1110.5" y="-231.5" font-family="Helvetica,sans-Serif" font-size="10.00">traffic_mngr.h</text>
</a>
</g>
</g>
<!-- Node73&#45;&gt;Node152 -->
<g id="edge42" class="edge">
<title>Node73&#45;&gt;Node152</title>
<path fill="none" stroke="midnightblue" d="M1491.88,-284.35C1420.4,-277.03 1279.49,-261.78 1160.5,-244 1157.97,-243.62 1155.37,-243.21 1152.75,-242.79"/>
<polygon fill="midnightblue" stroke="midnightblue" points="1491.61,-287.84 1501.91,-285.38 1492.32,-280.88 1491.61,-287.84"/>
</g>
<!-- Node110 -->
<g id="node39" class="node">
<title>Node110</title>
<g id="a_node39"><a xlink:href="api_2classification_8h.html" target="_top" xlink:title=" ">
<polygon fill="white" stroke="red" points="1698,-168.5 1698,-187.5 1787,-187.5 1787,-168.5 1698,-168.5"/>
<text text-anchor="middle" x="1742.5" y="-175.5" font-family="Helvetica,sans-Serif" font-size="10.00">classification.h</text>
</a>
</g>
</g>
<!-- Node73&#45;&gt;Node110 -->
<g id="edge44" class="edge">
<title>Node73&#45;&gt;Node110</title>
<path fill="none" stroke="midnightblue" d="M1585.37,-286.13C1643.11,-281.5 1736.21,-270.11 1757.5,-244 1770.97,-227.48 1757.33,-201.13 1748.59,-187.61"/>
<polygon fill="midnightblue" stroke="midnightblue" points="1585.07,-282.64 1575.37,-286.89 1585.61,-289.62 1585.07,-282.64"/>
</g>
<!-- Node111 -->
<g id="node40" class="node">
<title>Node111</title>
<g id="a_node40"><a xlink:href="api_2spec_2ipsec_8h.html" target="_top" xlink:title=" ">
<polygon fill="white" stroke="red" points="1791,-112.5 1791,-131.5 1842,-131.5 1842,-112.5 1791,-112.5"/>
<text text-anchor="middle" x="1816.5" y="-119.5" font-family="Helvetica,sans-Serif" font-size="10.00">ipsec.h</text>
</a>
</g>
</g>
<!-- Node73&#45;&gt;Node111 -->
<g id="edge63" class="edge">
<title>Node73&#45;&gt;Node111</title>
<path fill="none" stroke="midnightblue" d="M1585.19,-285.48C1645.61,-280.03 1746.46,-267.63 1774.5,-244 1809.53,-214.48 1815.38,-154.12 1816.33,-131.67"/>
<polygon fill="midnightblue" stroke="midnightblue" points="1584.79,-282 1575.13,-286.35 1585.4,-288.97 1584.79,-282"/>
</g>
<!-- Node120 -->
<g id="node41" class="node">
<title>Node120</title>
<g id="a_node41"><a xlink:href="api_2crypto_8h.html" target="_top" xlink:title=" ">
<polygon fill="white" stroke="black" points="1843.5,-168.5 1843.5,-187.5 1899.5,-187.5 1899.5,-168.5 1843.5,-168.5"/>
<text text-anchor="middle" x="1871.5" y="-175.5" font-family="Helvetica,sans-Serif" font-size="10.00">crypto.h</text>
</a>
</g>
</g>
<!-- Node73&#45;&gt;Node120 -->
<g id="edge47" class="edge">
<title>Node73&#45;&gt;Node120</title>
<path fill="none" stroke="midnightblue" d="M1585.22,-286.72C1679.93,-281.63 1887.38,-267.84 1908.5,-244 1924.26,-226.21 1898.58,-200.64 1882.65,-187.5"/>
<polygon fill="midnightblue" stroke="midnightblue" points="1584.86,-283.24 1575.06,-287.26 1585.23,-290.23 1584.86,-283.24"/>
</g>
<!-- Node159 -->
<g id="node42" class="node">
<title>Node159</title>
<g id="a_node42"><a xlink:href="api_2proto__stats_8h.html" target="_top" xlink:title=" ">
<polygon fill="white" stroke="black" points="2114.5,-112.5 2114.5,-131.5 2194.5,-131.5 2194.5,-112.5 2114.5,-112.5"/>
<text text-anchor="middle" x="2154.5" y="-119.5" font-family="Helvetica,sans-Serif" font-size="10.00">proto_stats.h</text>
</a>
</g>
</g>
<!-- Node73&#45;&gt;Node159 -->
<g id="edge50" class="edge">
<title>Node73&#45;&gt;Node159</title>
<path fill="none" stroke="midnightblue" d="M1585.65,-289.26C1725.67,-289.53 2131.8,-286.63 2171.5,-244 2201.14,-212.18 2172.41,-153.73 2159.78,-131.7"/>
<polygon fill="midnightblue" stroke="midnightblue" points="1585.27,-285.76 1575.26,-289.23 1585.25,-292.76 1585.27,-285.76"/>
</g>
<!-- Node127 -->
<g id="node43" class="node">
<title>Node127</title>
<g id="a_node43"><a xlink:href="api_2spec_2buffer_8h.html" target="_top" xlink:title=" ">
<polygon fill="white" stroke="red" points="1170,-224.5 1170,-243.5 1223,-243.5 1223,-224.5 1170,-224.5"/>
<text text-anchor="middle" x="1196.5" y="-231.5" font-family="Helvetica,sans-Serif" font-size="10.00">buffer.h</text>
</a>
</g>
</g>
<!-- Node73&#45;&gt;Node127 -->
<g id="edge52" class="edge">
<title>Node73&#45;&gt;Node127</title>
<path fill="none" stroke="midnightblue" d="M1491.59,-283.57C1431.32,-276.25 1323.62,-262.04 1232.5,-244 1229.47,-243.4 1226.31,-242.71 1223.17,-241.98"/>
<polygon fill="midnightblue" stroke="midnightblue" points="1491.21,-287.05 1501.56,-284.77 1492.05,-280.1 1491.21,-287.05"/>
</g>
<!-- Node160 -->
<g id="node44" class="node">
<title>Node160</title>
<g id="a_node44"><a xlink:href="spec_2chksum_8h.html" target="_top" xlink:title=" ">
<polygon fill="white" stroke="red" points="1241.5,-224.5 1241.5,-243.5 1305.5,-243.5 1305.5,-224.5 1241.5,-224.5"/>
<text text-anchor="middle" x="1273.5" y="-231.5" font-family="Helvetica,sans-Serif" font-size="10.00">chksum.h</text>
</a>
</g>
</g>
<!-- Node73&#45;&gt;Node160 -->
<g id="edge53" class="edge">
<title>Node73&#45;&gt;Node160</title>
<path fill="none" stroke="midnightblue" d="M1492.02,-279.53C1438.51,-268.63 1352.05,-251.01 1305.55,-241.53"/>
<polygon fill="midnightblue" stroke="midnightblue" points="1491.43,-282.98 1501.93,-281.55 1492.83,-276.12 1491.43,-282.98"/>
</g>
<!-- Node109 -->
<g id="node45" class="node">
<title>Node109</title>
<g id="a_node45"><a xlink:href="api_2spec_2classification_8h.html" target="_top" xlink:title=" ">
<polygon fill="white" stroke="black" points="1494,-224.5 1494,-243.5 1583,-243.5 1583,-224.5 1494,-224.5"/>
<text text-anchor="middle" x="1538.5" y="-231.5" font-family="Helvetica,sans-Serif" font-size="10.00">classification.h</text>
</a>
</g>
</g>
<!-- Node73&#45;&gt;Node109 -->
<g id="edge54" class="edge">
<title>Node73&#45;&gt;Node109</title>
<path fill="none" stroke="midnightblue" d="M1538.5,-269.8C1538.5,-260.91 1538.5,-250.78 1538.5,-243.75"/>
<polygon fill="midnightblue" stroke="midnightblue" points="1535,-270.08 1538.5,-280.08 1542,-270.08 1535,-270.08"/>
</g>
<!-- Node117 -->
<g id="node46" class="node">
<title>Node117</title>
<g id="a_node46"><a xlink:href="api_2spec_2comp_8h.html" target="_top" xlink:title=" ">
<polygon fill="white" stroke="red" points="1362,-224.5 1362,-243.5 1415,-243.5 1415,-224.5 1362,-224.5"/>
<text text-anchor="middle" x="1388.5" y="-231.5" font-family="Helvetica,sans-Serif" font-size="10.00">comp.h</text>
</a>
</g>
</g>
<!-- Node73&#45;&gt;Node117 -->
<g id="edge56" class="edge">
<title>Node73&#45;&gt;Node117</title>
<path fill="none" stroke="midnightblue" d="M1505.28,-277.04C1477.05,-266.88 1437.24,-252.55 1412.16,-243.52"/>
<polygon fill="midnightblue" stroke="midnightblue" points="1504.14,-280.35 1514.73,-280.44 1506.51,-273.76 1504.14,-280.35"/>
</g>
<!-- Node162 -->
<g id="node47" class="node">
<title>Node162</title>
<g id="a_node47"><a xlink:href="api_2spec_2cpu_8h.html" target="_top" xlink:title=" ">
<polygon fill="white" stroke="red" points="1433,-224.5 1433,-243.5 1476,-243.5 1476,-224.5 1433,-224.5"/>
<text text-anchor="middle" x="1454.5" y="-231.5" font-family="Helvetica,sans-Serif" font-size="10.00">cpu.h</text>
</a>
</g>
</g>
<!-- Node73&#45;&gt;Node162 -->
<g id="edge57" class="edge">
<title>Node73&#45;&gt;Node162</title>
<path fill="none" stroke="midnightblue" d="M1516.57,-274.9C1501.16,-265 1481.05,-252.07 1467.96,-243.65"/>
<polygon fill="midnightblue" stroke="midnightblue" points="1514.7,-277.86 1525,-280.32 1518.48,-271.97 1514.7,-277.86"/>
</g>
<!-- Node119 -->
<g id="node48" class="node">
<title>Node119</title>
<g id="a_node48"><a xlink:href="api_2spec_2crypto_8h.html" target="_top" xlink:title=" ">
<polygon fill="white" stroke="black" points="1843.5,-224.5 1843.5,-243.5 1899.5,-243.5 1899.5,-224.5 1843.5,-224.5"/>
<text text-anchor="middle" x="1871.5" y="-231.5" font-family="Helvetica,sans-Serif" font-size="10.00">crypto.h</text>
</a>
</g>
</g>
<!-- Node73&#45;&gt;Node119 -->
<g id="edge58" class="edge">
<title>Node73&#45;&gt;Node119</title>
<path fill="none" stroke="midnightblue" d="M1585.62,-282.57C1643.29,-274.5 1743.83,-259.79 1829.5,-244 1833.9,-243.19 1838.54,-242.26 1843.08,-241.32"/>
<polygon fill="midnightblue" stroke="midnightblue" points="1584.79,-279.15 1575.36,-283.99 1585.75,-286.08 1584.79,-279.15"/>
</g>
<!-- Node121 -->
<g id="node49" class="node">
<title>Node121</title>
<g id="a_node49"><a xlink:href="api_2spec_2dma__types_8h.html" target="_top" xlink:title=" ">
<polygon fill="white" stroke="red" points="1601.5,-224.5 1601.5,-243.5 1681.5,-243.5 1681.5,-224.5 1601.5,-224.5"/>
<text text-anchor="middle" x="1641.5" y="-231.5" font-family="Helvetica,sans-Serif" font-size="10.00">dma_types.h</text>
</a>
</g>
</g>
<!-- Node73&#45;&gt;Node121 -->
<g id="edge60" class="edge">
<title>Node73&#45;&gt;Node121</title>
<path fill="none" stroke="midnightblue" d="M1564.08,-275.59C1583.12,-265.61 1608.56,-252.27 1624.99,-243.65"/>
<polygon fill="midnightblue" stroke="midnightblue" points="1562.28,-272.58 1555.05,-280.32 1565.53,-278.78 1562.28,-272.58"/>
</g>
<!-- Node164 -->
<g id="node50" class="node">
<title>Node164</title>
<g id="a_node50"><a xlink:href="api_2spec_2hash_8h.html" target="_top" xlink:title=" ">
<polygon fill="white" stroke="red" points="1700,-224.5 1700,-243.5 1749,-243.5 1749,-224.5 1700,-224.5"/>
<text text-anchor="middle" x="1724.5" y="-231.5" font-family="Helvetica,sans-Serif" font-size="10.00">hash.h</text>
</a>
</g>
</g>
<!-- Node73&#45;&gt;Node164 -->
<g id="edge61" class="edge">
<title>Node73&#45;&gt;Node164</title>
<path fill="none" stroke="midnightblue" d="M1577.89,-277.56C1614.8,-266.85 1668.8,-251.17 1699.92,-242.14"/>
<polygon fill="midnightblue" stroke="midnightblue" points="1576.6,-274.29 1567.97,-280.44 1578.55,-281.02 1576.6,-274.29"/>
</g>
<!-- Node110&#45;&gt;Node25 -->
<g id="edge46" class="edge">
<title>Node110&#45;&gt;Node25</title>
<path fill="none" stroke="midnightblue" d="M1750.59,-158.86C1766.46,-123.25 1801.14,-45.45 1812.68,-19.57"/>
<polygon fill="midnightblue" stroke="midnightblue" points="1747.35,-157.52 1746.48,-168.08 1753.75,-160.37 1747.35,-157.52"/>
</g>
<!-- Node110&#45;&gt;Node111 -->
<g id="edge45" class="edge">
<title>Node110&#45;&gt;Node111</title>
<path fill="none" stroke="midnightblue" d="M1762.53,-162.38C1775.91,-152.62 1793.06,-140.11 1804.39,-131.83"/>
<polygon fill="midnightblue" stroke="midnightblue" points="1760.4,-159.6 1754.39,-168.32 1764.53,-165.26 1760.4,-159.6"/>
</g>
<!-- Node120&#45;&gt;Node25 -->
<g id="edge49" class="edge">
<title>Node120&#45;&gt;Node25</title>
<path fill="none" stroke="midnightblue" d="M1865.59,-158.51C1861.42,-145.49 1855.67,-127.66 1850.5,-112 1839.2,-77.74 1825.39,-37.07 1819.45,-19.63"/>
<polygon fill="midnightblue" stroke="midnightblue" points="1862.3,-159.7 1868.68,-168.16 1868.97,-157.57 1862.3,-159.7"/>
</g>
<!-- Node120&#45;&gt;Node111 -->
<g id="edge48" class="edge">
<title>Node120&#45;&gt;Node111</title>
<path fill="none" stroke="midnightblue" d="M1855.21,-161C1845.46,-151.43 1833.45,-139.64 1825.41,-131.75"/>
<polygon fill="midnightblue" stroke="midnightblue" points="1852.83,-163.57 1862.42,-168.08 1857.73,-158.58 1852.83,-163.57"/>
</g>
<!-- Node159&#45;&gt;Node25 -->
<g id="edge51" class="edge">
<title>Node159&#45;&gt;Node25</title>
<path fill="none" stroke="midnightblue" d="M2130.33,-107.5C2103.48,-92.99 2058.51,-70.12 2017.5,-56 1959.51,-36.03 1889.01,-22.62 1848.79,-15.95"/>
<polygon fill="midnightblue" stroke="midnightblue" points="2128.9,-110.71 2139.36,-112.43 2132.26,-104.57 2128.9,-110.71"/>
</g>
<!-- Node109&#45;&gt;Node110 -->
<g id="edge55" class="edge">
<title>Node109&#45;&gt;Node110</title>
<path fill="none" stroke="midnightblue" d="M1580.7,-221.83C1619.22,-211.63 1675.32,-196.78 1710.33,-187.52"/>
<polygon fill="midnightblue" stroke="midnightblue" points="1579.6,-218.5 1570.82,-224.44 1581.39,-225.27 1579.6,-218.5"/>
</g>
<!-- Node119&#45;&gt;Node120 -->
<g id="edge59" class="edge">
<title>Node119&#45;&gt;Node120</title>
<path fill="none" stroke="midnightblue" d="M1871.5,-213.8C1871.5,-204.91 1871.5,-194.78 1871.5,-187.75"/>
<polygon fill="midnightblue" stroke="midnightblue" points="1868,-214.08 1871.5,-224.08 1875,-214.08 1868,-214.08"/>
</g>
</g>
</svg>
