<?xml version="1.0" encoding="UTF-8" standalone="no"?>
<!DOCTYPE svg PUBLIC "-//W3C//DTD SVG 1.1//EN"
 "http://www.w3.org/Graphics/SVG/1.1/DTD/svg11.dtd">
<!-- Generated by graphviz version 2.43.0 (0)
 -->
<!-- Title: crypto.h Pages: 1 -->
<svg width="93pt" height="196pt"
 viewBox="0.00 0.00 92.50 196.00" xmlns="http://www.w3.org/2000/svg" xmlns:xlink="http://www.w3.org/1999/xlink">
<g id="graph0" class="graph" transform="scale(1 1) rotate(0) translate(4 192)">
<title>crypto.h</title>
<polygon fill="white" stroke="transparent" points="-4,4 -4,-192 88.5,-192 88.5,4 -4,4"/>
<!-- Node1 -->
<g id="node1" class="node">
<title>Node1</title>
<g id="a_node1"><a xlink:title=" ">
<polygon fill="#bfbfbf" stroke="black" points="24.5,-168.5 24.5,-187.5 80.5,-187.5 80.5,-168.5 24.5,-168.5"/>
<text text-anchor="middle" x="52.5" y="-175.5" font-family="Helvetica,sans-Serif" font-size="10.00">crypto.h</text>
</a>
</g>
</g>
<!-- Node2 -->
<g id="node2" class="node">
<title>Node2</title>
<g id="a_node2"><a xlink:href="api_2spec_2ipsec_8h.html" target="_top" xlink:title=" ">
<polygon fill="white" stroke="black" points="0,-112.5 0,-131.5 51,-131.5 51,-112.5 0,-112.5"/>
<text text-anchor="middle" x="25.5" y="-119.5" font-family="Helvetica,sans-Serif" font-size="10.00">ipsec.h</text>
</a>
</g>
</g>
<!-- Node1&#45;&gt;Node2 -->
<g id="edge1" class="edge">
<title>Node1&#45;&gt;Node2</title>
<path fill="none" stroke="midnightblue" d="M43.49,-158.98C38.91,-149.82 33.55,-139.09 29.88,-131.75"/>
<polygon fill="midnightblue" stroke="midnightblue" points="40.44,-160.7 48.04,-168.08 46.7,-157.57 40.44,-160.7"/>
</g>
<!-- Node4 -->
<g id="node4" class="node">
<title>Node4</title>
<g id="a_node4"><a xlink:href="odp__api_8h.html" target="_top" xlink:title=" ">
<polygon fill="white" stroke="black" points="20.5,-0.5 20.5,-19.5 84.5,-19.5 84.5,-0.5 20.5,-0.5"/>
<text text-anchor="middle" x="52.5" y="-7.5" font-family="Helvetica,sans-Serif" font-size="10.00">odp_api.h</text>
</a>
</g>
</g>
<!-- Node1&#45;&gt;Node4 -->
<g id="edge4" class="edge">
<title>Node1&#45;&gt;Node4</title>
<path fill="none" stroke="midnightblue" d="M56.53,-158.57C58.11,-150.46 59.72,-140.8 60.5,-132 63.47,-98.35 63.47,-89.65 60.5,-56 59.37,-43.2 56.47,-28.58 54.49,-19.57"/>
<polygon fill="midnightblue" stroke="midnightblue" points="53.09,-157.93 54.49,-168.43 59.94,-159.35 53.09,-157.93"/>
</g>
<!-- Node3 -->
<g id="node3" class="node">
<title>Node3</title>
<g id="a_node3"><a xlink:href="api_2ipsec_8h.html" target="_top" xlink:title=" ">
<polygon fill="white" stroke="black" points="0,-56.5 0,-75.5 51,-75.5 51,-56.5 0,-56.5"/>
<text text-anchor="middle" x="25.5" y="-63.5" font-family="Helvetica,sans-Serif" font-size="10.00">ipsec.h</text>
</a>
</g>
</g>
<!-- Node2&#45;&gt;Node3 -->
<g id="edge2" class="edge">
<title>Node2&#45;&gt;Node3</title>
<path fill="none" stroke="midnightblue" d="M25.5,-101.8C25.5,-92.91 25.5,-82.78 25.5,-75.75"/>
<polygon fill="midnightblue" stroke="midnightblue" points="22,-102.08 25.5,-112.08 29,-102.08 22,-102.08"/>
</g>
<!-- Node3&#45;&gt;Node4 -->
<g id="edge3" class="edge">
<title>Node3&#45;&gt;Node4</title>
<path fill="none" stroke="midnightblue" d="M34.51,-46.98C39.09,-37.82 44.45,-27.09 48.12,-19.75"/>
<polygon fill="midnightblue" stroke="midnightblue" points="31.3,-45.57 29.96,-56.08 37.56,-48.7 31.3,-45.57"/>
</g>
</g>
</svg>
