<?xml version="1.0" encoding="UTF-8" standalone="no"?>
<!DOCTYPE svg PUBLIC "-//W3C//DTD SVG 1.1//EN"
 "http://www.w3.org/Graphics/SVG/1.1/DTD/svg11.dtd">
<!-- Generated by graphviz version 2.43.0 (0)
 -->
<!-- Title: cpumask.h Pages: 1 -->
<svg width="692pt" height="420pt"
 viewBox="0.00 0.00 692.00 420.00" xmlns="http://www.w3.org/2000/svg" xmlns:xlink="http://www.w3.org/1999/xlink">
<g id="graph0" class="graph" transform="scale(1 1) rotate(0) translate(4 416)">
<title>cpumask.h</title>
<polygon fill="white" stroke="transparent" points="-4,4 -4,-416 688,-416 688,4 -4,4"/>
<!-- Node1 -->
<g id="node1" class="node">
<title>Node1</title>
<g id="a_node1"><a xlink:title=" ">
<polygon fill="#bfbfbf" stroke="black" points="479,-392.5 479,-411.5 549,-411.5 549,-392.5 479,-392.5"/>
<text text-anchor="middle" x="514" y="-399.5" font-family="Helvetica,sans-Serif" font-size="10.00">cpumask.h</text>
</a>
</g>
</g>
<!-- Node2 -->
<g id="node2" class="node">
<title>Node2</title>
<g id="a_node2"><a xlink:href="api_2cpumask_8h.html" target="_top" xlink:title=" ">
<polygon fill="white" stroke="black" points="479,-336.5 479,-355.5 549,-355.5 549,-336.5 479,-336.5"/>
<text text-anchor="middle" x="514" y="-343.5" font-family="Helvetica,sans-Serif" font-size="10.00">cpumask.h</text>
</a>
</g>
</g>
<!-- Node1&#45;&gt;Node2 -->
<g id="edge1" class="edge">
<title>Node1&#45;&gt;Node2</title>
<path fill="none" stroke="midnightblue" d="M514,-381.8C514,-372.91 514,-362.78 514,-355.75"/>
<polygon fill="midnightblue" stroke="midnightblue" points="510.5,-382.08 514,-392.08 517.5,-382.08 510.5,-382.08"/>
</g>
<!-- Node3 -->
<g id="node3" class="node">
<title>Node3</title>
<g id="a_node3"><a xlink:href="api_2abi-default_2thrmask_8h.html" target="_top" xlink:title=" ">
<polygon fill="white" stroke="black" points="252,-280.5 252,-299.5 318,-299.5 318,-280.5 252,-280.5"/>
<text text-anchor="middle" x="285" y="-287.5" font-family="Helvetica,sans-Serif" font-size="10.00">thrmask.h</text>
</a>
</g>
</g>
<!-- Node2&#45;&gt;Node3 -->
<g id="edge2" class="edge">
<title>Node2&#45;&gt;Node3</title>
<path fill="none" stroke="midnightblue" d="M468.78,-334.34C424.39,-323.87 357.74,-308.15 318.09,-298.8"/>
<polygon fill="midnightblue" stroke="midnightblue" points="468.18,-337.79 478.72,-336.68 469.79,-330.98 468.18,-337.79"/>
</g>
<!-- Node13 -->
<g id="node13" class="node">
<title>Node13</title>
<g id="a_node13"><a xlink:href="odp__api_8h.html" target="_top" xlink:title=" ">
<polygon fill="white" stroke="black" points="482,-0.5 482,-19.5 546,-19.5 546,-0.5 482,-0.5"/>
<text text-anchor="middle" x="514" y="-7.5" font-family="Helvetica,sans-Serif" font-size="10.00">odp_api.h</text>
</a>
</g>
</g>
<!-- Node2&#45;&gt;Node13 -->
<g id="edge20" class="edge">
<title>Node2&#45;&gt;Node13</title>
<path fill="none" stroke="midnightblue" d="M514,-326.25C514,-304.36 514,-267.05 514,-235 514,-235 514,-235 514,-121 514,-83.19 514,-38.06 514,-19.56"/>
<polygon fill="midnightblue" stroke="midnightblue" points="510.5,-326.44 514,-336.44 517.5,-326.44 510.5,-326.44"/>
</g>
<!-- Node14 -->
<g id="node14" class="node">
<title>Node14</title>
<g id="a_node14"><a xlink:href="api_2spec_2init_8h.html" target="_top" xlink:title=" ">
<polygon fill="white" stroke="black" points="542.5,-280.5 542.5,-299.5 583.5,-299.5 583.5,-280.5 542.5,-280.5"/>
<text text-anchor="middle" x="563" y="-287.5" font-family="Helvetica,sans-Serif" font-size="10.00">init.h</text>
</a>
</g>
</g>
<!-- Node2&#45;&gt;Node14 -->
<g id="edge14" class="edge">
<title>Node2&#45;&gt;Node14</title>
<path fill="none" stroke="midnightblue" d="M529.03,-328.43C537.62,-318.97 548.04,-307.48 555.06,-299.75"/>
<polygon fill="midnightblue" stroke="midnightblue" points="526.22,-326.33 522.09,-336.08 531.4,-331.03 526.22,-326.33"/>
</g>
<!-- Node4 -->
<g id="node4" class="node">
<title>Node4</title>
<g id="a_node4"><a xlink:href="arch_2arm32-linux_2odp_2api_2abi_2thrmask_8h_source.html" target="_top" xlink:title=" ">
<polygon fill="white" stroke="black" points="0,-224.5 0,-243.5 66,-243.5 66,-224.5 0,-224.5"/>
<text text-anchor="middle" x="33" y="-231.5" font-family="Helvetica,sans-Serif" font-size="10.00">thrmask.h</text>
</a>
</g>
</g>
<!-- Node3&#45;&gt;Node4 -->
<g id="edge3" class="edge">
<title>Node3&#45;&gt;Node4</title>
<path fill="none" stroke="midnightblue" d="M241.98,-279.78C192.25,-269.12 111.45,-251.81 66.28,-242.13"/>
<polygon fill="midnightblue" stroke="midnightblue" points="241.28,-283.21 251.8,-281.88 242.75,-276.37 241.28,-283.21"/>
</g>
<!-- Node5 -->
<g id="node5" class="node">
<title>Node5</title>
<g id="a_node5"><a xlink:href="arch_2arm64-linux_2odp_2api_2abi_2thrmask_8h_source.html" target="_top" xlink:title=" ">
<polygon fill="white" stroke="black" points="84,-224.5 84,-243.5 150,-243.5 150,-224.5 84,-224.5"/>
<text text-anchor="middle" x="117" y="-231.5" font-family="Helvetica,sans-Serif" font-size="10.00">thrmask.h</text>
</a>
</g>
</g>
<!-- Node3&#45;&gt;Node5 -->
<g id="edge4" class="edge">
<title>Node3&#45;&gt;Node5</title>
<path fill="none" stroke="midnightblue" d="M248.61,-277.3C216.96,-267.13 171.83,-252.62 143.5,-243.52"/>
<polygon fill="midnightblue" stroke="midnightblue" points="247.79,-280.72 258.38,-280.44 249.93,-274.05 247.79,-280.72"/>
</g>
<!-- Node6 -->
<g id="node6" class="node">
<title>Node6</title>
<g id="a_node6"><a xlink:href="arch_2default-linux_2odp_2api_2abi_2thrmask_8h_source.html" target="_top" xlink:title=" ">
<polygon fill="white" stroke="black" points="168,-224.5 168,-243.5 234,-243.5 234,-224.5 168,-224.5"/>
<text text-anchor="middle" x="201" y="-231.5" font-family="Helvetica,sans-Serif" font-size="10.00">thrmask.h</text>
</a>
</g>
</g>
<!-- Node3&#45;&gt;Node6 -->
<g id="edge5" class="edge">
<title>Node3&#45;&gt;Node6</title>
<path fill="none" stroke="midnightblue" d="M263.07,-274.9C247.66,-265 227.55,-252.07 214.46,-243.65"/>
<polygon fill="midnightblue" stroke="midnightblue" points="261.2,-277.86 271.5,-280.32 264.98,-271.97 261.2,-277.86"/>
</g>
<!-- Node7 -->
<g id="node7" class="node">
<title>Node7</title>
<g id="a_node7"><a xlink:href="arch_2power64-linux_2odp_2api_2abi_2thrmask_8h_source.html" target="_top" xlink:title=" ">
<polygon fill="white" stroke="black" points="252,-224.5 252,-243.5 318,-243.5 318,-224.5 252,-224.5"/>
<text text-anchor="middle" x="285" y="-231.5" font-family="Helvetica,sans-Serif" font-size="10.00">thrmask.h</text>
</a>
</g>
</g>
<!-- Node3&#45;&gt;Node7 -->
<g id="edge6" class="edge">
<title>Node3&#45;&gt;Node7</title>
<path fill="none" stroke="midnightblue" d="M285,-269.8C285,-260.91 285,-250.78 285,-243.75"/>
<polygon fill="midnightblue" stroke="midnightblue" points="281.5,-270.08 285,-280.08 288.5,-270.08 281.5,-270.08"/>
</g>
<!-- Node8 -->
<g id="node8" class="node">
<title>Node8</title>
<g id="a_node8"><a xlink:href="arch_2x86__32-linux_2odp_2api_2abi_2thrmask_8h_source.html" target="_top" xlink:title=" ">
<polygon fill="white" stroke="black" points="336,-224.5 336,-243.5 402,-243.5 402,-224.5 336,-224.5"/>
<text text-anchor="middle" x="369" y="-231.5" font-family="Helvetica,sans-Serif" font-size="10.00">thrmask.h</text>
</a>
</g>
</g>
<!-- Node3&#45;&gt;Node8 -->
<g id="edge7" class="edge">
<title>Node3&#45;&gt;Node8</title>
<path fill="none" stroke="midnightblue" d="M306.93,-274.9C322.34,-265 342.45,-252.07 355.54,-243.65"/>
<polygon fill="midnightblue" stroke="midnightblue" points="305.02,-271.97 298.5,-280.32 308.8,-277.86 305.02,-271.97"/>
</g>
<!-- Node9 -->
<g id="node9" class="node">
<title>Node9</title>
<g id="a_node9"><a xlink:href="arch_2x86__64-linux_2odp_2api_2abi_2thrmask_8h_source.html" target="_top" xlink:title=" ">
<polygon fill="white" stroke="black" points="420,-224.5 420,-243.5 486,-243.5 486,-224.5 420,-224.5"/>
<text text-anchor="middle" x="453" y="-231.5" font-family="Helvetica,sans-Serif" font-size="10.00">thrmask.h</text>
</a>
</g>
</g>
<!-- Node3&#45;&gt;Node9 -->
<g id="edge8" class="edge">
<title>Node3&#45;&gt;Node9</title>
<path fill="none" stroke="midnightblue" d="M321.39,-277.3C353.04,-267.13 398.17,-252.62 426.5,-243.52"/>
<polygon fill="midnightblue" stroke="midnightblue" points="320.07,-274.05 311.62,-280.44 322.21,-280.72 320.07,-274.05"/>
</g>
<!-- Node10 -->
<g id="node10" class="node">
<title>Node10</title>
<g id="a_node10"><a xlink:href="api_2thrmask_8h.html" target="_top" xlink:title=" ">
<polygon fill="white" stroke="black" points="420,-168.5 420,-187.5 486,-187.5 486,-168.5 420,-168.5"/>
<text text-anchor="middle" x="453" y="-175.5" font-family="Helvetica,sans-Serif" font-size="10.00">thrmask.h</text>
</a>
</g>
</g>
<!-- Node9&#45;&gt;Node10 -->
<g id="edge9" class="edge">
<title>Node9&#45;&gt;Node10</title>
<path fill="none" stroke="midnightblue" d="M453,-213.8C453,-204.91 453,-194.78 453,-187.75"/>
<polygon fill="midnightblue" stroke="midnightblue" points="449.5,-214.08 453,-224.08 456.5,-214.08 449.5,-214.08"/>
</g>
<!-- Node11 -->
<g id="node11" class="node">
<title>Node11</title>
<g id="a_node11"><a xlink:href="api_2spec_2schedule_8h.html" target="_top" xlink:title=" ">
<polygon fill="white" stroke="black" points="378.5,-112.5 378.5,-131.5 447.5,-131.5 447.5,-112.5 378.5,-112.5"/>
<text text-anchor="middle" x="413" y="-119.5" font-family="Helvetica,sans-Serif" font-size="10.00">schedule.h</text>
</a>
</g>
</g>
<!-- Node10&#45;&gt;Node11 -->
<g id="edge10" class="edge">
<title>Node10&#45;&gt;Node11</title>
<path fill="none" stroke="midnightblue" d="M440.3,-159.86C433.37,-150.5 425.09,-139.33 419.48,-131.75"/>
<polygon fill="midnightblue" stroke="midnightblue" points="437.63,-162.13 446.39,-168.08 443.25,-157.96 437.63,-162.13"/>
</g>
<!-- Node10&#45;&gt;Node13 -->
<g id="edge13" class="edge">
<title>Node10&#45;&gt;Node13</title>
<path fill="none" stroke="midnightblue" d="M459.84,-158.39C473,-122.59 501.38,-45.34 510.85,-19.57"/>
<polygon fill="midnightblue" stroke="midnightblue" points="456.44,-157.48 456.28,-168.08 463.01,-159.9 456.44,-157.48"/>
</g>
<!-- Node12 -->
<g id="node12" class="node">
<title>Node12</title>
<g id="a_node12"><a xlink:href="api_2schedule_8h.html" target="_top" xlink:title=" ">
<polygon fill="white" stroke="black" points="378.5,-56.5 378.5,-75.5 447.5,-75.5 447.5,-56.5 378.5,-56.5"/>
<text text-anchor="middle" x="413" y="-63.5" font-family="Helvetica,sans-Serif" font-size="10.00">schedule.h</text>
</a>
</g>
</g>
<!-- Node11&#45;&gt;Node12 -->
<g id="edge11" class="edge">
<title>Node11&#45;&gt;Node12</title>
<path fill="none" stroke="midnightblue" d="M413,-101.8C413,-92.91 413,-82.78 413,-75.75"/>
<polygon fill="midnightblue" stroke="midnightblue" points="409.5,-102.08 413,-112.08 416.5,-102.08 409.5,-102.08"/>
</g>
<!-- Node12&#45;&gt;Node13 -->
<g id="edge12" class="edge">
<title>Node12&#45;&gt;Node13</title>
<path fill="none" stroke="midnightblue" d="M438.08,-51.59C456.76,-41.61 481.7,-28.27 497.81,-19.65"/>
<polygon fill="midnightblue" stroke="midnightblue" points="436.4,-48.52 429.23,-56.32 439.7,-54.7 436.4,-48.52"/>
</g>
<!-- Node15 -->
<g id="node15" class="node">
<title>Node15</title>
<g id="a_node15"><a xlink:href="api_2init_8h.html" target="_top" xlink:title=" ">
<polygon fill="white" stroke="black" points="542.5,-168.5 542.5,-187.5 583.5,-187.5 583.5,-168.5 542.5,-168.5"/>
<text text-anchor="middle" x="563" y="-175.5" font-family="Helvetica,sans-Serif" font-size="10.00">init.h</text>
</a>
</g>
</g>
<!-- Node14&#45;&gt;Node15 -->
<g id="edge15" class="edge">
<title>Node14&#45;&gt;Node15</title>
<path fill="none" stroke="midnightblue" d="M563,-270.35C563,-246.25 563,-205.31 563,-187.59"/>
<polygon fill="midnightblue" stroke="midnightblue" points="559.5,-270.37 563,-280.37 566.5,-270.37 559.5,-270.37"/>
</g>
<!-- Node15&#45;&gt;Node13 -->
<g id="edge19" class="edge">
<title>Node15&#45;&gt;Node13</title>
<path fill="none" stroke="midnightblue" d="M557.84,-158.73C551.11,-135.01 538.91,-92.34 528,-56 524.19,-43.3 519.6,-28.66 516.74,-19.61"/>
<polygon fill="midnightblue" stroke="midnightblue" points="554.51,-159.81 560.6,-168.47 561.24,-157.9 554.51,-159.81"/>
</g>
<!-- Node16 -->
<g id="node16" class="node">
<title>Node16</title>
<g id="a_node16"><a xlink:href="api_2spec_2shared__memory_8h.html" target="_top" xlink:title=" ">
<polygon fill="white" stroke="black" points="580,-112.5 580,-131.5 684,-131.5 684,-112.5 580,-112.5"/>
<text text-anchor="middle" x="632" y="-119.5" font-family="Helvetica,sans-Serif" font-size="10.00">shared_memory.h</text>
</a>
</g>
</g>
<!-- Node15&#45;&gt;Node16 -->
<g id="edge16" class="edge">
<title>Node15&#45;&gt;Node16</title>
<path fill="none" stroke="midnightblue" d="M582.04,-162.1C594.46,-152.38 610.24,-140.03 620.71,-131.83"/>
<polygon fill="midnightblue" stroke="midnightblue" points="579.8,-159.4 574.09,-168.32 584.12,-164.92 579.8,-159.4"/>
</g>
<!-- Node17 -->
<g id="node17" class="node">
<title>Node17</title>
<g id="a_node17"><a xlink:href="api_2shared__memory_8h.html" target="_top" xlink:title=" ">
<polygon fill="white" stroke="black" points="580,-56.5 580,-75.5 684,-75.5 684,-56.5 580,-56.5"/>
<text text-anchor="middle" x="632" y="-63.5" font-family="Helvetica,sans-Serif" font-size="10.00">shared_memory.h</text>
</a>
</g>
</g>
<!-- Node16&#45;&gt;Node17 -->
<g id="edge17" class="edge">
<title>Node16&#45;&gt;Node17</title>
<path fill="none" stroke="midnightblue" d="M632,-101.8C632,-92.91 632,-82.78 632,-75.75"/>
<polygon fill="midnightblue" stroke="midnightblue" points="628.5,-102.08 632,-112.08 635.5,-102.08 628.5,-102.08"/>
</g>
<!-- Node17&#45;&gt;Node13 -->
<g id="edge18" class="edge">
<title>Node17&#45;&gt;Node13</title>
<path fill="none" stroke="midnightblue" d="M604.1,-52.23C582.03,-42.13 551.82,-28.31 532.61,-19.52"/>
<polygon fill="midnightblue" stroke="midnightblue" points="602.75,-55.46 613.3,-56.44 605.67,-49.1 602.75,-55.46"/>
</g>
</g>
</svg>
