<?xml version="1.0" encoding="UTF-8" standalone="no"?>
<!DOCTYPE svg PUBLIC "-//W3C//DTD SVG 1.1//EN"
 "http://www.w3.org/Graphics/SVG/1.1/DTD/svg11.dtd">
<!-- Generated by graphviz version 2.43.0 (0)
 -->
<!-- Title: debug.h Pages: 1 -->
<svg width="438pt" height="196pt"
 viewBox="0.00 0.00 438.00 196.00" xmlns="http://www.w3.org/2000/svg" xmlns:xlink="http://www.w3.org/1999/xlink">
<g id="graph0" class="graph" transform="scale(1 1) rotate(0) translate(4 192)">
<title>debug.h</title>
<polygon fill="white" stroke="transparent" points="-4,4 -4,-192 434,-192 434,4 -4,4"/>
<!-- Node1 -->
<g id="node1" class="node">
<title>Node1</title>
<g id="a_node1"><a xlink:title=" ">
<polygon fill="#bfbfbf" stroke="black" points="185,-168.5 185,-187.5 241,-187.5 241,-168.5 185,-168.5"/>
<text text-anchor="middle" x="213" y="-175.5" font-family="Helvetica,sans-Serif" font-size="10.00">debug.h</text>
</a>
</g>
</g>
<!-- Node2 -->
<g id="node2" class="node">
<title>Node2</title>
<g id="a_node2"><a xlink:href="arch_2arm32-linux_2odp_2api_2abi_2debug_8h_source.html" target="_top" xlink:title=" ">
<polygon fill="white" stroke="black" points="0,-112.5 0,-131.5 56,-131.5 56,-112.5 0,-112.5"/>
<text text-anchor="middle" x="28" y="-119.5" font-family="Helvetica,sans-Serif" font-size="10.00">debug.h</text>
</a>
</g>
</g>
<!-- Node1&#45;&gt;Node2 -->
<g id="edge1" class="edge">
<title>Node1&#45;&gt;Node2</title>
<path fill="none" stroke="midnightblue" d="M174.95,-165.89C139.6,-155.58 87.78,-140.45 56.06,-131.19"/>
<polygon fill="midnightblue" stroke="midnightblue" points="174.32,-169.36 184.9,-168.8 176.28,-162.64 174.32,-169.36"/>
</g>
<!-- Node3 -->
<g id="node3" class="node">
<title>Node3</title>
<g id="a_node3"><a xlink:href="arch_2arm64-linux_2odp_2api_2abi_2debug_8h_source.html" target="_top" xlink:title=" ">
<polygon fill="white" stroke="black" points="74,-112.5 74,-131.5 130,-131.5 130,-112.5 74,-112.5"/>
<text text-anchor="middle" x="102" y="-119.5" font-family="Helvetica,sans-Serif" font-size="10.00">debug.h</text>
</a>
</g>
</g>
<!-- Node1&#45;&gt;Node3 -->
<g id="edge2" class="edge">
<title>Node1&#45;&gt;Node3</title>
<path fill="none" stroke="midnightblue" d="M185.99,-163.86C165.41,-153.85 137.66,-140.35 119.79,-131.65"/>
<polygon fill="midnightblue" stroke="midnightblue" points="184.64,-167.1 195.17,-168.32 187.7,-160.8 184.64,-167.1"/>
</g>
<!-- Node4 -->
<g id="node4" class="node">
<title>Node4</title>
<g id="a_node4"><a xlink:href="arch_2default-linux_2odp_2api_2abi_2debug_8h_source.html" target="_top" xlink:title=" ">
<polygon fill="white" stroke="black" points="148,-112.5 148,-131.5 204,-131.5 204,-112.5 148,-112.5"/>
<text text-anchor="middle" x="176" y="-119.5" font-family="Helvetica,sans-Serif" font-size="10.00">debug.h</text>
</a>
</g>
</g>
<!-- Node1&#45;&gt;Node4 -->
<g id="edge3" class="edge">
<title>Node1&#45;&gt;Node4</title>
<path fill="none" stroke="midnightblue" d="M201.05,-159.57C194.69,-150.27 187.13,-139.25 182,-131.75"/>
<polygon fill="midnightblue" stroke="midnightblue" points="198.35,-161.81 206.89,-168.08 204.13,-157.86 198.35,-161.81"/>
</g>
<!-- Node5 -->
<g id="node5" class="node">
<title>Node5</title>
<g id="a_node5"><a xlink:href="arch_2power64-linux_2odp_2api_2abi_2debug_8h_source.html" target="_top" xlink:title=" ">
<polygon fill="white" stroke="black" points="222,-112.5 222,-131.5 278,-131.5 278,-112.5 222,-112.5"/>
<text text-anchor="middle" x="250" y="-119.5" font-family="Helvetica,sans-Serif" font-size="10.00">debug.h</text>
</a>
</g>
</g>
<!-- Node1&#45;&gt;Node5 -->
<g id="edge4" class="edge">
<title>Node1&#45;&gt;Node5</title>
<path fill="none" stroke="midnightblue" d="M224.95,-159.57C231.31,-150.27 238.87,-139.25 244,-131.75"/>
<polygon fill="midnightblue" stroke="midnightblue" points="221.87,-157.86 219.11,-168.08 227.65,-161.81 221.87,-157.86"/>
</g>
<!-- Node6 -->
<g id="node6" class="node">
<title>Node6</title>
<g id="a_node6"><a xlink:href="arch_2x86__32-linux_2odp_2api_2abi_2debug_8h_source.html" target="_top" xlink:title=" ">
<polygon fill="white" stroke="black" points="296,-112.5 296,-131.5 352,-131.5 352,-112.5 296,-112.5"/>
<text text-anchor="middle" x="324" y="-119.5" font-family="Helvetica,sans-Serif" font-size="10.00">debug.h</text>
</a>
</g>
</g>
<!-- Node1&#45;&gt;Node6 -->
<g id="edge5" class="edge">
<title>Node1&#45;&gt;Node6</title>
<path fill="none" stroke="midnightblue" d="M240.01,-163.86C260.59,-153.85 288.34,-140.35 306.21,-131.65"/>
<polygon fill="midnightblue" stroke="midnightblue" points="238.3,-160.8 230.83,-168.32 241.36,-167.1 238.3,-160.8"/>
</g>
<!-- Node7 -->
<g id="node7" class="node">
<title>Node7</title>
<g id="a_node7"><a xlink:href="arch_2x86__64-linux_2odp_2api_2abi_2debug_8h_source.html" target="_top" xlink:title=" ">
<polygon fill="white" stroke="black" points="370,-112.5 370,-131.5 426,-131.5 426,-112.5 370,-112.5"/>
<text text-anchor="middle" x="398" y="-119.5" font-family="Helvetica,sans-Serif" font-size="10.00">debug.h</text>
</a>
</g>
</g>
<!-- Node1&#45;&gt;Node7 -->
<g id="edge6" class="edge">
<title>Node1&#45;&gt;Node7</title>
<path fill="none" stroke="midnightblue" d="M251.05,-165.89C286.4,-155.58 338.22,-140.45 369.94,-131.19"/>
<polygon fill="midnightblue" stroke="midnightblue" points="249.72,-162.64 241.1,-168.8 251.68,-169.36 249.72,-162.64"/>
</g>
<!-- Node8 -->
<g id="node8" class="node">
<title>Node8</title>
<g id="a_node8"><a xlink:href="api_2debug_8h.html" target="_top" xlink:title=" ">
<polygon fill="white" stroke="black" points="370,-56.5 370,-75.5 426,-75.5 426,-56.5 370,-56.5"/>
<text text-anchor="middle" x="398" y="-63.5" font-family="Helvetica,sans-Serif" font-size="10.00">debug.h</text>
</a>
</g>
</g>
<!-- Node7&#45;&gt;Node8 -->
<g id="edge7" class="edge">
<title>Node7&#45;&gt;Node8</title>
<path fill="none" stroke="midnightblue" d="M398,-101.8C398,-92.91 398,-82.78 398,-75.75"/>
<polygon fill="midnightblue" stroke="midnightblue" points="394.5,-102.08 398,-112.08 401.5,-102.08 394.5,-102.08"/>
</g>
<!-- Node9 -->
<g id="node9" class="node">
<title>Node9</title>
<g id="a_node9"><a xlink:href="odp__api_8h.html" target="_top" xlink:title=" ">
<polygon fill="white" stroke="black" points="366,-0.5 366,-19.5 430,-19.5 430,-0.5 366,-0.5"/>
<text text-anchor="middle" x="398" y="-7.5" font-family="Helvetica,sans-Serif" font-size="10.00">odp_api.h</text>
</a>
</g>
</g>
<!-- Node8&#45;&gt;Node9 -->
<g id="edge8" class="edge">
<title>Node8&#45;&gt;Node9</title>
<path fill="none" stroke="midnightblue" d="M398,-45.8C398,-36.91 398,-26.78 398,-19.75"/>
<polygon fill="midnightblue" stroke="midnightblue" points="394.5,-46.08 398,-56.08 401.5,-46.08 394.5,-46.08"/>
</g>
</g>
</svg>
