<?xml version="1.0" encoding="UTF-8" standalone="no"?>
<!DOCTYPE svg PUBLIC "-//W3C//DTD SVG 1.1//EN"
 "http://www.w3.org/Graphics/SVG/1.1/DTD/svg11.dtd">
<!-- Generated by graphviz version 2.43.0 (0)
 -->
<!-- Title: rwlock.h Pages: 1 -->
<svg width="765pt" height="364pt"
 viewBox="0.00 0.00 765.00 364.00" xmlns="http://www.w3.org/2000/svg" xmlns:xlink="http://www.w3.org/1999/xlink">
<g id="graph0" class="graph" transform="scale(1 1) rotate(0) translate(4 360)">
<title>rwlock.h</title>
<polygon fill="white" stroke="transparent" points="-4,4 -4,-360 761,-360 761,4 -4,4"/>
<!-- Node1 -->
<g id="node1" class="node">
<title>Node1</title>
<g id="a_node1"><a xlink:title=" ">
<polygon fill="#bfbfbf" stroke="black" points="380,-336.5 380,-355.5 438,-355.5 438,-336.5 380,-336.5"/>
<text text-anchor="middle" x="409" y="-343.5" font-family="Helvetica,sans-Serif" font-size="10.00">rwlock.h</text>
</a>
</g>
</g>
<!-- Node2 -->
<g id="node2" class="node">
<title>Node2</title>
<g id="a_node2"><a xlink:href="arch_2arm32-linux_2odp_2api_2abi_2rwlock_8h_source.html" target="_top" xlink:title=" ">
<polygon fill="white" stroke="black" points="190,-280.5 190,-299.5 248,-299.5 248,-280.5 190,-280.5"/>
<text text-anchor="middle" x="219" y="-287.5" font-family="Helvetica,sans-Serif" font-size="10.00">rwlock.h</text>
</a>
</g>
</g>
<!-- Node1&#45;&gt;Node2 -->
<g id="edge1" class="edge">
<title>Node1&#45;&gt;Node2</title>
<path fill="none" stroke="midnightblue" d="M370.02,-333.92C333.89,-323.65 280.95,-308.61 248.3,-299.33"/>
<polygon fill="midnightblue" stroke="midnightblue" points="369.15,-337.31 379.73,-336.68 371.07,-330.58 369.15,-337.31"/>
</g>
<!-- Node3 -->
<g id="node3" class="node">
<title>Node3</title>
<g id="a_node3"><a xlink:href="arch_2arm64-linux_2odp_2api_2abi_2rwlock_8h_source.html" target="_top" xlink:title=" ">
<polygon fill="white" stroke="black" points="266,-280.5 266,-299.5 324,-299.5 324,-280.5 266,-280.5"/>
<text text-anchor="middle" x="295" y="-287.5" font-family="Helvetica,sans-Serif" font-size="10.00">rwlock.h</text>
</a>
</g>
</g>
<!-- Node1&#45;&gt;Node3 -->
<g id="edge2" class="edge">
<title>Node1&#45;&gt;Node3</title>
<path fill="none" stroke="midnightblue" d="M381.76,-332.1C360.46,-322.01 331.46,-308.27 312.98,-299.52"/>
<polygon fill="midnightblue" stroke="midnightblue" points="380.4,-335.33 390.94,-336.44 383.4,-329 380.4,-335.33"/>
</g>
<!-- Node4 -->
<g id="node4" class="node">
<title>Node4</title>
<g id="a_node4"><a xlink:href="arch_2default-linux_2odp_2api_2abi_2rwlock_8h_source.html" target="_top" xlink:title=" ">
<polygon fill="white" stroke="black" points="342,-280.5 342,-299.5 400,-299.5 400,-280.5 342,-280.5"/>
<text text-anchor="middle" x="371" y="-287.5" font-family="Helvetica,sans-Serif" font-size="10.00">rwlock.h</text>
</a>
</g>
</g>
<!-- Node1&#45;&gt;Node4 -->
<g id="edge3" class="edge">
<title>Node1&#45;&gt;Node4</title>
<path fill="none" stroke="midnightblue" d="M396.94,-327.86C390.36,-318.5 382.49,-307.33 377.16,-299.75"/>
<polygon fill="midnightblue" stroke="midnightblue" points="394.11,-329.92 402.73,-336.08 399.83,-325.89 394.11,-329.92"/>
</g>
<!-- Node5 -->
<g id="node5" class="node">
<title>Node5</title>
<g id="a_node5"><a xlink:href="arch_2power64-linux_2odp_2api_2abi_2rwlock_8h_source.html" target="_top" xlink:title=" ">
<polygon fill="white" stroke="black" points="418,-280.5 418,-299.5 476,-299.5 476,-280.5 418,-280.5"/>
<text text-anchor="middle" x="447" y="-287.5" font-family="Helvetica,sans-Serif" font-size="10.00">rwlock.h</text>
</a>
</g>
</g>
<!-- Node1&#45;&gt;Node5 -->
<g id="edge4" class="edge">
<title>Node1&#45;&gt;Node5</title>
<path fill="none" stroke="midnightblue" d="M421.06,-327.86C427.64,-318.5 435.51,-307.33 440.84,-299.75"/>
<polygon fill="midnightblue" stroke="midnightblue" points="418.17,-325.89 415.27,-336.08 423.89,-329.92 418.17,-325.89"/>
</g>
<!-- Node6 -->
<g id="node6" class="node">
<title>Node6</title>
<g id="a_node6"><a xlink:href="arch_2x86__32-linux_2odp_2api_2abi_2rwlock_8h_source.html" target="_top" xlink:title=" ">
<polygon fill="white" stroke="black" points="494,-280.5 494,-299.5 552,-299.5 552,-280.5 494,-280.5"/>
<text text-anchor="middle" x="523" y="-287.5" font-family="Helvetica,sans-Serif" font-size="10.00">rwlock.h</text>
</a>
</g>
</g>
<!-- Node1&#45;&gt;Node6 -->
<g id="edge5" class="edge">
<title>Node1&#45;&gt;Node6</title>
<path fill="none" stroke="midnightblue" d="M436.24,-332.1C457.54,-322.01 486.54,-308.27 505.02,-299.52"/>
<polygon fill="midnightblue" stroke="midnightblue" points="434.6,-329 427.06,-336.44 437.6,-335.33 434.6,-329"/>
</g>
<!-- Node7 -->
<g id="node7" class="node">
<title>Node7</title>
<g id="a_node7"><a xlink:href="arch_2x86__64-linux_2odp_2api_2abi_2rwlock_8h_source.html" target="_top" xlink:title=" ">
<polygon fill="white" stroke="black" points="570,-280.5 570,-299.5 628,-299.5 628,-280.5 570,-280.5"/>
<text text-anchor="middle" x="599" y="-287.5" font-family="Helvetica,sans-Serif" font-size="10.00">rwlock.h</text>
</a>
</g>
</g>
<!-- Node1&#45;&gt;Node7 -->
<g id="edge6" class="edge">
<title>Node1&#45;&gt;Node7</title>
<path fill="none" stroke="midnightblue" d="M447.98,-333.92C484.11,-323.65 537.05,-308.61 569.7,-299.33"/>
<polygon fill="midnightblue" stroke="midnightblue" points="446.93,-330.58 438.27,-336.68 448.85,-337.31 446.93,-330.58"/>
</g>
<!-- Node8 -->
<g id="node8" class="node">
<title>Node8</title>
<g id="a_node8"><a xlink:href="api_2rwlock_8h.html" target="_top" xlink:title=" ">
<polygon fill="white" stroke="black" points="570,-224.5 570,-243.5 628,-243.5 628,-224.5 570,-224.5"/>
<text text-anchor="middle" x="599" y="-231.5" font-family="Helvetica,sans-Serif" font-size="10.00">rwlock.h</text>
</a>
</g>
</g>
<!-- Node7&#45;&gt;Node8 -->
<g id="edge7" class="edge">
<title>Node7&#45;&gt;Node8</title>
<path fill="none" stroke="midnightblue" d="M599,-269.8C599,-260.91 599,-250.78 599,-243.75"/>
<polygon fill="midnightblue" stroke="midnightblue" points="595.5,-270.08 599,-280.08 602.5,-270.08 595.5,-270.08"/>
</g>
<!-- Node9 -->
<g id="node9" class="node">
<title>Node9</title>
<g id="a_node9"><a xlink:href="api_2abi-default_2rwlock__recursive_8h.html" target="_top" xlink:title=" ">
<polygon fill="white" stroke="black" points="378,-168.5 378,-187.5 486,-187.5 486,-168.5 378,-168.5"/>
<text text-anchor="middle" x="432" y="-175.5" font-family="Helvetica,sans-Serif" font-size="10.00">rwlock_recursive.h</text>
</a>
</g>
</g>
<!-- Node8&#45;&gt;Node9 -->
<g id="edge8" class="edge">
<title>Node8&#45;&gt;Node9</title>
<path fill="none" stroke="midnightblue" d="M562.83,-221.3C531.36,-211.13 486.51,-196.62 458.34,-187.52"/>
<polygon fill="midnightblue" stroke="midnightblue" points="561.95,-224.7 572.54,-224.44 564.1,-218.04 561.95,-224.7"/>
</g>
<!-- Node17 -->
<g id="node17" class="node">
<title>Node17</title>
<g id="a_node17"><a xlink:href="odp__api_8h.html" target="_top" xlink:title=" ">
<polygon fill="white" stroke="black" points="693,-0.5 693,-19.5 757,-19.5 757,-0.5 693,-0.5"/>
<text text-anchor="middle" x="725" y="-7.5" font-family="Helvetica,sans-Serif" font-size="10.00">odp_api.h</text>
</a>
</g>
</g>
<!-- Node8&#45;&gt;Node17 -->
<g id="edge17" class="edge">
<title>Node8&#45;&gt;Node17</title>
<path fill="none" stroke="midnightblue" d="M633.62,-220.62C669.39,-205.74 723.23,-177 747,-132 762.78,-102.13 754.61,-88.91 747,-56 743.86,-42.44 736.05,-28.26 730.64,-19.52"/>
<polygon fill="midnightblue" stroke="midnightblue" points="632.04,-217.48 624.06,-224.45 634.64,-223.98 632.04,-217.48"/>
</g>
<!-- Node10 -->
<g id="node10" class="node">
<title>Node10</title>
<g id="a_node10"><a xlink:href="arch_2arm32-linux_2odp_2api_2abi_2rwlock__recursive_8h_source.html" target="_top" xlink:title=" ">
<polygon fill="white" stroke="black" points="0,-112.5 0,-131.5 108,-131.5 108,-112.5 0,-112.5"/>
<text text-anchor="middle" x="54" y="-119.5" font-family="Helvetica,sans-Serif" font-size="10.00">rwlock_recursive.h</text>
</a>
</g>
</g>
<!-- Node9&#45;&gt;Node10 -->
<g id="edge9" class="edge">
<title>Node9&#45;&gt;Node10</title>
<path fill="none" stroke="midnightblue" d="M367.84,-167.83C294.76,-157.39 176.64,-140.52 108.06,-130.72"/>
<polygon fill="midnightblue" stroke="midnightblue" points="367.45,-171.31 377.84,-169.26 368.44,-164.38 367.45,-171.31"/>
</g>
<!-- Node11 -->
<g id="node11" class="node">
<title>Node11</title>
<g id="a_node11"><a xlink:href="arch_2arm64-linux_2odp_2api_2abi_2rwlock__recursive_8h_source.html" target="_top" xlink:title=" ">
<polygon fill="white" stroke="black" points="126,-112.5 126,-131.5 234,-131.5 234,-112.5 126,-112.5"/>
<text text-anchor="middle" x="180" y="-119.5" font-family="Helvetica,sans-Serif" font-size="10.00">rwlock_recursive.h</text>
</a>
</g>
</g>
<!-- Node9&#45;&gt;Node11 -->
<g id="edge10" class="edge">
<title>Node9&#45;&gt;Node11</title>
<path fill="none" stroke="midnightblue" d="M382.28,-166.35C334.66,-156.14 263.72,-140.94 219.74,-131.52"/>
<polygon fill="midnightblue" stroke="midnightblue" points="381.56,-169.77 392.07,-168.44 383.03,-162.93 381.56,-169.77"/>
</g>
<!-- Node12 -->
<g id="node12" class="node">
<title>Node12</title>
<g id="a_node12"><a xlink:href="arch_2default-linux_2odp_2api_2abi_2rwlock__recursive_8h_source.html" target="_top" xlink:title=" ">
<polygon fill="white" stroke="black" points="252,-112.5 252,-131.5 360,-131.5 360,-112.5 252,-112.5"/>
<text text-anchor="middle" x="306" y="-119.5" font-family="Helvetica,sans-Serif" font-size="10.00">rwlock_recursive.h</text>
</a>
</g>
</g>
<!-- Node9&#45;&gt;Node12 -->
<g id="edge11" class="edge">
<title>Node9&#45;&gt;Node12</title>
<path fill="none" stroke="midnightblue" d="M402.84,-164.5C379.22,-154.38 346.57,-140.39 325.87,-131.52"/>
<polygon fill="midnightblue" stroke="midnightblue" points="401.46,-167.72 412.03,-168.44 404.22,-161.29 401.46,-167.72"/>
</g>
<!-- Node13 -->
<g id="node13" class="node">
<title>Node13</title>
<g id="a_node13"><a xlink:href="arch_2power64-linux_2odp_2api_2abi_2rwlock__recursive_8h_source.html" target="_top" xlink:title=" ">
<polygon fill="white" stroke="black" points="378,-112.5 378,-131.5 486,-131.5 486,-112.5 378,-112.5"/>
<text text-anchor="middle" x="432" y="-119.5" font-family="Helvetica,sans-Serif" font-size="10.00">rwlock_recursive.h</text>
</a>
</g>
</g>
<!-- Node9&#45;&gt;Node13 -->
<g id="edge12" class="edge">
<title>Node9&#45;&gt;Node13</title>
<path fill="none" stroke="midnightblue" d="M432,-157.8C432,-148.91 432,-138.78 432,-131.75"/>
<polygon fill="midnightblue" stroke="midnightblue" points="428.5,-158.08 432,-168.08 435.5,-158.08 428.5,-158.08"/>
</g>
<!-- Node14 -->
<g id="node14" class="node">
<title>Node14</title>
<g id="a_node14"><a xlink:href="arch_2x86__32-linux_2odp_2api_2abi_2rwlock__recursive_8h_source.html" target="_top" xlink:title=" ">
<polygon fill="white" stroke="black" points="504,-112.5 504,-131.5 612,-131.5 612,-112.5 504,-112.5"/>
<text text-anchor="middle" x="558" y="-119.5" font-family="Helvetica,sans-Serif" font-size="10.00">rwlock_recursive.h</text>
</a>
</g>
</g>
<!-- Node9&#45;&gt;Node14 -->
<g id="edge13" class="edge">
<title>Node9&#45;&gt;Node14</title>
<path fill="none" stroke="midnightblue" d="M461.16,-164.5C484.78,-154.38 517.43,-140.39 538.13,-131.52"/>
<polygon fill="midnightblue" stroke="midnightblue" points="459.78,-161.29 451.97,-168.44 462.54,-167.72 459.78,-161.29"/>
</g>
<!-- Node15 -->
<g id="node15" class="node">
<title>Node15</title>
<g id="a_node15"><a xlink:href="arch_2x86__64-linux_2odp_2api_2abi_2rwlock__recursive_8h_source.html" target="_top" xlink:title=" ">
<polygon fill="white" stroke="black" points="630,-112.5 630,-131.5 738,-131.5 738,-112.5 630,-112.5"/>
<text text-anchor="middle" x="684" y="-119.5" font-family="Helvetica,sans-Serif" font-size="10.00">rwlock_recursive.h</text>
</a>
</g>
</g>
<!-- Node9&#45;&gt;Node15 -->
<g id="edge14" class="edge">
<title>Node9&#45;&gt;Node15</title>
<path fill="none" stroke="midnightblue" d="M481.72,-166.35C529.34,-156.14 600.28,-140.94 644.26,-131.52"/>
<polygon fill="midnightblue" stroke="midnightblue" points="480.97,-162.93 471.93,-168.44 482.44,-169.77 480.97,-162.93"/>
</g>
<!-- Node16 -->
<g id="node16" class="node">
<title>Node16</title>
<g id="a_node16"><a xlink:href="api_2rwlock__recursive_8h.html" target="_top" xlink:title=" ">
<polygon fill="white" stroke="black" points="630,-56.5 630,-75.5 738,-75.5 738,-56.5 630,-56.5"/>
<text text-anchor="middle" x="684" y="-63.5" font-family="Helvetica,sans-Serif" font-size="10.00">rwlock_recursive.h</text>
</a>
</g>
</g>
<!-- Node15&#45;&gt;Node16 -->
<g id="edge15" class="edge">
<title>Node15&#45;&gt;Node16</title>
<path fill="none" stroke="midnightblue" d="M684,-101.8C684,-92.91 684,-82.78 684,-75.75"/>
<polygon fill="midnightblue" stroke="midnightblue" points="680.5,-102.08 684,-112.08 687.5,-102.08 680.5,-102.08"/>
</g>
<!-- Node16&#45;&gt;Node17 -->
<g id="edge16" class="edge">
<title>Node16&#45;&gt;Node17</title>
<path fill="none" stroke="midnightblue" d="M697.02,-47.86C704.12,-38.5 712.6,-27.33 718.36,-19.75"/>
<polygon fill="midnightblue" stroke="midnightblue" points="694.03,-46 690.77,-56.08 699.61,-50.24 694.03,-46"/>
</g>
</g>
</svg>
