<?xml version="1.0" encoding="UTF-8" standalone="no"?>
<!DOCTYPE svg PUBLIC "-//W3C//DTD SVG 1.1//EN"
 "http://www.w3.org/Graphics/SVG/1.1/DTD/svg11.dtd">
<!-- Generated by graphviz version 2.43.0 (0)
 -->
<!-- Title: schedule_types.h Pages: 1 -->
<svg width="1060pt" height="924pt"
 viewBox="0.00 0.00 1060.00 924.00" xmlns="http://www.w3.org/2000/svg" xmlns:xlink="http://www.w3.org/1999/xlink">
<g id="graph0" class="graph" transform="scale(1 1) rotate(0) translate(4 920)">
<title>schedule_types.h</title>
<polygon fill="white" stroke="transparent" points="-4,4 -4,-920 1056,-920 1056,4 -4,4"/>
<!-- Node1 -->
<g id="node1" class="node">
<title>Node1</title>
<g id="a_node1"><a xlink:title=" ">
<polygon fill="#bfbfbf" stroke="black" points="666,-896.5 666,-915.5 767,-915.5 767,-896.5 666,-896.5"/>
<text text-anchor="middle" x="716.5" y="-903.5" font-family="Helvetica,sans-Serif" font-size="10.00">schedule_types.h</text>
</a>
</g>
</g>
<!-- Node2 -->
<g id="node2" class="node">
<title>Node2</title>
<g id="a_node2"><a xlink:href="api_2schedule__types_8h.html" target="_top" xlink:title=" ">
<polygon fill="white" stroke="black" points="666,-840.5 666,-859.5 767,-859.5 767,-840.5 666,-840.5"/>
<text text-anchor="middle" x="716.5" y="-847.5" font-family="Helvetica,sans-Serif" font-size="10.00">schedule_types.h</text>
</a>
</g>
</g>
<!-- Node1&#45;&gt;Node2 -->
<g id="edge1" class="edge">
<title>Node1&#45;&gt;Node2</title>
<path fill="none" stroke="midnightblue" d="M716.5,-885.8C716.5,-876.91 716.5,-866.78 716.5,-859.75"/>
<polygon fill="midnightblue" stroke="midnightblue" points="713,-886.08 716.5,-896.08 720,-886.08 713,-886.08"/>
</g>
<!-- Node3 -->
<g id="node3" class="node">
<title>Node3</title>
<g id="a_node3"><a xlink:href="api_2spec_2queue__types_8h.html" target="_top" xlink:title=" ">
<polygon fill="white" stroke="black" points="636.5,-784.5 636.5,-803.5 724.5,-803.5 724.5,-784.5 636.5,-784.5"/>
<text text-anchor="middle" x="680.5" y="-791.5" font-family="Helvetica,sans-Serif" font-size="10.00">queue_types.h</text>
</a>
</g>
</g>
<!-- Node2&#45;&gt;Node3 -->
<g id="edge2" class="edge">
<title>Node2&#45;&gt;Node3</title>
<path fill="none" stroke="midnightblue" d="M704.88,-831.57C698.68,-822.27 691.33,-811.25 686.33,-803.75"/>
<polygon fill="midnightblue" stroke="midnightblue" points="702.1,-833.7 710.56,-840.08 707.92,-829.82 702.1,-833.7"/>
</g>
<!-- Node44 -->
<g id="node44" class="node">
<title>Node44</title>
<g id="a_node44"><a xlink:href="api_2spec_2schedule_8h.html" target="_top" xlink:title=" ">
<polygon fill="white" stroke="black" points="805,-672.5 805,-691.5 874,-691.5 874,-672.5 805,-672.5"/>
<text text-anchor="middle" x="839.5" y="-679.5" font-family="Helvetica,sans-Serif" font-size="10.00">schedule.h</text>
</a>
</g>
</g>
<!-- Node2&#45;&gt;Node44 -->
<g id="edge77" class="edge">
<title>Node2&#45;&gt;Node44</title>
<path fill="none" stroke="midnightblue" d="M729.27,-831.76C755.33,-796.59 813.81,-717.68 833.15,-691.57"/>
<polygon fill="midnightblue" stroke="midnightblue" points="726.25,-829.96 723.11,-840.08 731.88,-834.12 726.25,-829.96"/>
</g>
<!-- Node4 -->
<g id="node4" class="node">
<title>Node4</title>
<g id="a_node4"><a xlink:href="api_2queue__types_8h.html" target="_top" xlink:title=" ">
<polygon fill="white" stroke="black" points="548.5,-728.5 548.5,-747.5 636.5,-747.5 636.5,-728.5 548.5,-728.5"/>
<text text-anchor="middle" x="592.5" y="-735.5" font-family="Helvetica,sans-Serif" font-size="10.00">queue_types.h</text>
</a>
</g>
</g>
<!-- Node3&#45;&gt;Node4 -->
<g id="edge3" class="edge">
<title>Node3&#45;&gt;Node4</title>
<path fill="none" stroke="midnightblue" d="M657.52,-778.9C641.39,-769 620.32,-756.07 606.6,-747.65"/>
<polygon fill="midnightblue" stroke="midnightblue" points="656.01,-782.08 666.36,-784.32 659.67,-776.11 656.01,-782.08"/>
</g>
<!-- Node5 -->
<g id="node5" class="node">
<title>Node5</title>
<g id="a_node5"><a xlink:href="api_2spec_2comp_8h.html" target="_top" xlink:title=" ">
<polygon fill="white" stroke="black" points="873,-560.5 873,-579.5 926,-579.5 926,-560.5 873,-560.5"/>
<text text-anchor="middle" x="899.5" y="-567.5" font-family="Helvetica,sans-Serif" font-size="10.00">comp.h</text>
</a>
</g>
</g>
<!-- Node4&#45;&gt;Node5 -->
<g id="edge4" class="edge">
<title>Node4&#45;&gt;Node5</title>
<path fill="none" stroke="midnightblue" d="M619.5,-723.89C637.46,-715.08 661.52,-703.09 682.5,-692 759.35,-651.39 849.66,-599.74 884.63,-579.6"/>
<polygon fill="midnightblue" stroke="midnightblue" points="617.66,-720.9 610.21,-728.44 620.73,-727.19 617.66,-720.9"/>
</g>
<!-- Node8 -->
<g id="node8" class="node">
<title>Node8</title>
<g id="a_node8"><a xlink:href="api_2spec_2dma__types_8h.html" target="_top" xlink:title=" ">
<polygon fill="white" stroke="black" points="278.5,-560.5 278.5,-579.5 358.5,-579.5 358.5,-560.5 278.5,-560.5"/>
<text text-anchor="middle" x="318.5" y="-567.5" font-family="Helvetica,sans-Serif" font-size="10.00">dma_types.h</text>
</a>
</g>
</g>
<!-- Node4&#45;&gt;Node8 -->
<g id="edge7" class="edge">
<title>Node4&#45;&gt;Node8</title>
<path fill="none" stroke="midnightblue" d="M538.16,-731.32C479.04,-722.07 386.43,-698.02 337.5,-636 324.1,-619.02 320.15,-592.87 318.98,-579.5"/>
<polygon fill="midnightblue" stroke="midnightblue" points="537.67,-734.79 548.07,-732.78 538.69,-727.86 537.67,-734.79"/>
</g>
<!-- Node20 -->
<g id="node20" class="node">
<title>Node20</title>
<g id="a_node20"><a xlink:href="api_2spec_2packet__io_8h.html" target="_top" xlink:title=" ">
<polygon fill="white" stroke="black" points="449.5,-112.5 449.5,-131.5 521.5,-131.5 521.5,-112.5 449.5,-112.5"/>
<text text-anchor="middle" x="485.5" y="-119.5" font-family="Helvetica,sans-Serif" font-size="10.00">packet_io.h</text>
</a>
</g>
</g>
<!-- Node4&#45;&gt;Node20 -->
<g id="edge50" class="edge">
<title>Node4&#45;&gt;Node20</title>
<path fill="none" stroke="midnightblue" d="M582.36,-719.43C571.1,-698.24 554.5,-661.19 554.5,-627 554.5,-627 554.5,-627 554.5,-345 554.5,-258.23 505.83,-160.62 490.24,-131.58"/>
<polygon fill="midnightblue" stroke="midnightblue" points="579.32,-721.17 587.22,-728.23 585.45,-717.78 579.32,-721.17"/>
</g>
<!-- Node26 -->
<g id="node26" class="node">
<title>Node26</title>
<g id="a_node26"><a xlink:href="api_2spec_2packet__io__types_8h.html" target="_top" xlink:title=" ">
<polygon fill="white" stroke="black" points="422.5,-336.5 422.5,-355.5 526.5,-355.5 526.5,-336.5 422.5,-336.5"/>
<text text-anchor="middle" x="474.5" y="-343.5" font-family="Helvetica,sans-Serif" font-size="10.00">packet_io_types.h</text>
</a>
</g>
</g>
<!-- Node4&#45;&gt;Node26 -->
<g id="edge55" class="edge">
<title>Node4&#45;&gt;Node26</title>
<path fill="none" stroke="midnightblue" d="M562.03,-724.08C527.66,-707.21 476.5,-674.19 476.5,-627 476.5,-627 476.5,-627 476.5,-457 476.5,-419.18 475.3,-374.06 474.76,-355.56"/>
<polygon fill="midnightblue" stroke="midnightblue" points="560.69,-727.31 571.22,-728.4 563.67,-720.98 560.69,-727.31"/>
</g>
<!-- Node32 -->
<g id="node32" class="node">
<title>Node32</title>
<g id="a_node32"><a xlink:href="api_2spec_2timer_8h.html" target="_top" xlink:title=" ">
<polygon fill="white" stroke="black" points="0,-336.5 0,-355.5 51,-355.5 51,-336.5 0,-336.5"/>
<text text-anchor="middle" x="25.5" y="-343.5" font-family="Helvetica,sans-Serif" font-size="10.00">timer.h</text>
</a>
</g>
</g>
<!-- Node4&#45;&gt;Node32 -->
<g id="edge76" class="edge">
<title>Node4&#45;&gt;Node32</title>
<path fill="none" stroke="midnightblue" d="M537.62,-737.51C398.6,-737.33 43.5,-727.07 43.5,-627 43.5,-627 43.5,-627 43.5,-457 43.5,-418.88 32.84,-374.29 27.93,-355.76"/>
<polygon fill="midnightblue" stroke="midnightblue" points="538.04,-741.01 548.04,-737.5 538.04,-734.01 538.04,-741.01"/>
</g>
<!-- Node34 -->
<g id="node34" class="node">
<title>Node34</title>
<g id="a_node34"><a xlink:href="spec_2packet__io__stats_8h.html" target="_top" xlink:title=" ">
<polygon fill="white" stroke="black" points="347,-616.5 347,-635.5 448,-635.5 448,-616.5 347,-616.5"/>
<text text-anchor="middle" x="397.5" y="-623.5" font-family="Helvetica,sans-Serif" font-size="10.00">packet_io_stats.h</text>
</a>
</g>
</g>
<!-- Node4&#45;&gt;Node34 -->
<g id="edge51" class="edge">
<title>Node4&#45;&gt;Node34</title>
<path fill="none" stroke="midnightblue" d="M543.68,-725.75C518.24,-718.53 487.34,-707.55 462.5,-692 437.61,-676.42 414.92,-649.66 404.13,-635.84"/>
<polygon fill="midnightblue" stroke="midnightblue" points="542.92,-729.18 553.49,-728.43 544.77,-722.42 542.92,-729.18"/>
</g>
<!-- Node36 -->
<g id="node36" class="node">
<title>Node36</title>
<g id="a_node36"><a xlink:href="api_2spec_2packet__types_8h.html" target="_top" xlink:title=" ">
<polygon fill="white" stroke="black" points="583.5,-672.5 583.5,-691.5 673.5,-691.5 673.5,-672.5 583.5,-672.5"/>
<text text-anchor="middle" x="628.5" y="-679.5" font-family="Helvetica,sans-Serif" font-size="10.00">packet_types.h</text>
</a>
</g>
</g>
<!-- Node4&#45;&gt;Node36 -->
<g id="edge56" class="edge">
<title>Node4&#45;&gt;Node36</title>
<path fill="none" stroke="midnightblue" d="M604.12,-719.57C610.32,-710.27 617.67,-699.25 622.67,-691.75"/>
<polygon fill="midnightblue" stroke="midnightblue" points="601.08,-717.82 598.44,-728.08 606.9,-721.7 601.08,-717.82"/>
</g>
<!-- Node42 -->
<g id="node42" class="node">
<title>Node42</title>
<g id="a_node42"><a xlink:href="api_2spec_2queue_8h.html" target="_top" xlink:title=" ">
<polygon fill="white" stroke="black" points="730.5,-672.5 730.5,-691.5 786.5,-691.5 786.5,-672.5 730.5,-672.5"/>
<text text-anchor="middle" x="758.5" y="-679.5" font-family="Helvetica,sans-Serif" font-size="10.00">queue.h</text>
</a>
</g>
</g>
<!-- Node4&#45;&gt;Node42 -->
<g id="edge70" class="edge">
<title>Node4&#45;&gt;Node42</title>
<path fill="none" stroke="midnightblue" d="M628.45,-725.3C659.73,-715.13 704.32,-700.62 732.32,-691.52"/>
<polygon fill="midnightblue" stroke="midnightblue" points="627.23,-722.02 618.8,-728.44 629.4,-728.68 627.23,-722.02"/>
</g>
<!-- Node4&#45;&gt;Node44 -->
<g id="edge73" class="edge">
<title>Node4&#45;&gt;Node44</title>
<path fill="none" stroke="midnightblue" d="M641.56,-726.28C689.85,-715.72 762.38,-699.86 804.93,-690.56"/>
<polygon fill="midnightblue" stroke="midnightblue" points="640.66,-722.89 631.64,-728.44 642.15,-729.73 640.66,-722.89"/>
</g>
<!-- Node6 -->
<g id="node6" class="node">
<title>Node6</title>
<g id="a_node6"><a xlink:href="api_2comp_8h.html" target="_top" xlink:title=" ">
<polygon fill="white" stroke="black" points="874,-392.5 874,-411.5 927,-411.5 927,-392.5 874,-392.5"/>
<text text-anchor="middle" x="900.5" y="-399.5" font-family="Helvetica,sans-Serif" font-size="10.00">comp.h</text>
</a>
</g>
</g>
<!-- Node5&#45;&gt;Node6 -->
<g id="edge5" class="edge">
<title>Node5&#45;&gt;Node6</title>
<path fill="none" stroke="midnightblue" d="M899.61,-549.93C899.83,-513.92 900.29,-437.23 900.45,-411.57"/>
<polygon fill="midnightblue" stroke="midnightblue" points="896.11,-550.05 899.55,-560.08 903.11,-550.1 896.11,-550.05"/>
</g>
<!-- Node7 -->
<g id="node7" class="node">
<title>Node7</title>
<g id="a_node7"><a xlink:href="odp__api_8h.html" target="_top" xlink:title=" ">
<polygon fill="white" stroke="black" points="558.5,-0.5 558.5,-19.5 622.5,-19.5 622.5,-0.5 558.5,-0.5"/>
<text text-anchor="middle" x="590.5" y="-7.5" font-family="Helvetica,sans-Serif" font-size="10.00">odp_api.h</text>
</a>
</g>
</g>
<!-- Node6&#45;&gt;Node7 -->
<g id="edge6" class="edge">
<title>Node6&#45;&gt;Node7</title>
<path fill="none" stroke="midnightblue" d="M898.03,-382.29C895.37,-360.43 891.5,-323.16 891.5,-291 891.5,-291 891.5,-291 891.5,-121 891.5,-88.8 885.34,-75.22 859.5,-56 822.46,-28.45 685.77,-16.76 622.73,-12.75"/>
<polygon fill="midnightblue" stroke="midnightblue" points="894.59,-382.98 899.32,-392.46 901.54,-382.1 894.59,-382.98"/>
</g>
<!-- Node9 -->
<g id="node9" class="node">
<title>Node9</title>
<g id="a_node9"><a xlink:href="api_2dma__types_8h.html" target="_top" xlink:title=" ">
<polygon fill="white" stroke="black" points="198.5,-504.5 198.5,-523.5 278.5,-523.5 278.5,-504.5 198.5,-504.5"/>
<text text-anchor="middle" x="238.5" y="-511.5" font-family="Helvetica,sans-Serif" font-size="10.00">dma_types.h</text>
</a>
</g>
</g>
<!-- Node8&#45;&gt;Node9 -->
<g id="edge8" class="edge">
<title>Node8&#45;&gt;Node9</title>
<path fill="none" stroke="midnightblue" d="M297.2,-554.62C282.58,-544.76 263.67,-531.99 251.32,-523.65"/>
<polygon fill="midnightblue" stroke="midnightblue" points="295.4,-557.63 305.65,-560.32 299.32,-551.83 295.4,-557.63"/>
</g>
<!-- Node10 -->
<g id="node10" class="node">
<title>Node10</title>
<g id="a_node10"><a xlink:href="spec_2dma_8h.html" target="_top" xlink:title=" ">
<polygon fill="white" stroke="black" points="69,-336.5 69,-355.5 116,-355.5 116,-336.5 69,-336.5"/>
<text text-anchor="middle" x="92.5" y="-343.5" font-family="Helvetica,sans-Serif" font-size="10.00">dma.h</text>
</a>
</g>
</g>
<!-- Node9&#45;&gt;Node10 -->
<g id="edge9" class="edge">
<title>Node9&#45;&gt;Node10</title>
<path fill="none" stroke="midnightblue" d="M220.6,-497.74C211.04,-489.3 199.26,-478.44 189.5,-468 152.36,-428.27 113.44,-375.9 98.67,-355.58"/>
<polygon fill="midnightblue" stroke="midnightblue" points="218.48,-500.54 228.32,-504.46 223.07,-495.25 218.48,-500.54"/>
</g>
<!-- Node12 -->
<g id="node12" class="node">
<title>Node12</title>
<g id="a_node12"><a xlink:href="api_2spec_2pool__types_8h.html" target="_top" xlink:title=" ">
<polygon fill="white" stroke="black" points="199,-448.5 199,-467.5 278,-467.5 278,-448.5 199,-448.5"/>
<text text-anchor="middle" x="238.5" y="-455.5" font-family="Helvetica,sans-Serif" font-size="10.00">pool_types.h</text>
</a>
</g>
</g>
<!-- Node9&#45;&gt;Node12 -->
<g id="edge12" class="edge">
<title>Node9&#45;&gt;Node12</title>
<path fill="none" stroke="midnightblue" d="M238.5,-493.8C238.5,-484.91 238.5,-474.78 238.5,-467.75"/>
<polygon fill="midnightblue" stroke="midnightblue" points="235,-494.08 238.5,-504.08 242,-494.08 235,-494.08"/>
</g>
<!-- Node11 -->
<g id="node11" class="node">
<title>Node11</title>
<g id="a_node11"><a xlink:href="dma_8h.html" target="_top" xlink:title=" ">
<polygon fill="white" stroke="black" points="72,-56.5 72,-75.5 119,-75.5 119,-56.5 72,-56.5"/>
<text text-anchor="middle" x="95.5" y="-63.5" font-family="Helvetica,sans-Serif" font-size="10.00">dma.h</text>
</a>
</g>
</g>
<!-- Node10&#45;&gt;Node11 -->
<g id="edge10" class="edge">
<title>Node10&#45;&gt;Node11</title>
<path fill="none" stroke="midnightblue" d="M93.05,-326.25C93.64,-304.36 94.5,-267.06 94.5,-235 94.5,-235 94.5,-235 94.5,-177 94.5,-139.19 95.1,-94.06 95.37,-75.56"/>
<polygon fill="midnightblue" stroke="midnightblue" points="89.54,-326.35 92.76,-336.44 96.54,-326.55 89.54,-326.35"/>
</g>
<!-- Node11&#45;&gt;Node7 -->
<g id="edge11" class="edge">
<title>Node11&#45;&gt;Node7</title>
<path fill="none" stroke="midnightblue" d="M129.04,-56.8C130.55,-56.51 132.04,-56.24 133.5,-56 291.76,-29.59 483.62,-16.89 558.45,-12.67"/>
<polygon fill="midnightblue" stroke="midnightblue" points="128.18,-53.4 119.12,-58.89 129.62,-60.25 128.18,-53.4"/>
</g>
<!-- Node13 -->
<g id="node13" class="node">
<title>Node13</title>
<g id="a_node13"><a xlink:href="api_2pool__types_8h.html" target="_top" xlink:title=" ">
<polygon fill="white" stroke="black" points="199,-392.5 199,-411.5 278,-411.5 278,-392.5 199,-392.5"/>
<text text-anchor="middle" x="238.5" y="-399.5" font-family="Helvetica,sans-Serif" font-size="10.00">pool_types.h</text>
</a>
</g>
</g>
<!-- Node12&#45;&gt;Node13 -->
<g id="edge13" class="edge">
<title>Node12&#45;&gt;Node13</title>
<path fill="none" stroke="midnightblue" d="M238.5,-437.8C238.5,-428.91 238.5,-418.78 238.5,-411.75"/>
<polygon fill="midnightblue" stroke="midnightblue" points="235,-438.08 238.5,-448.08 242,-438.08 235,-438.08"/>
</g>
<!-- Node13&#45;&gt;Node10 -->
<g id="edge30" class="edge">
<title>Node13&#45;&gt;Node10</title>
<path fill="none" stroke="midnightblue" d="M205.8,-388.91C178.35,-378.75 139.83,-364.51 115.53,-355.52"/>
<polygon fill="midnightblue" stroke="midnightblue" points="204.77,-392.26 215.37,-392.44 207.2,-385.69 204.77,-392.26"/>
</g>
<!-- Node14 -->
<g id="node14" class="node">
<title>Node14</title>
<g id="a_node14"><a xlink:href="api_2spec_2buffer_8h.html" target="_top" xlink:title=" ">
<polygon fill="white" stroke="black" points="199,-336.5 199,-355.5 252,-355.5 252,-336.5 199,-336.5"/>
<text text-anchor="middle" x="225.5" y="-343.5" font-family="Helvetica,sans-Serif" font-size="10.00">buffer.h</text>
</a>
</g>
</g>
<!-- Node13&#45;&gt;Node14 -->
<g id="edge14" class="edge">
<title>Node13&#45;&gt;Node14</title>
<path fill="none" stroke="midnightblue" d="M233.95,-382.1C231.79,-373.14 229.32,-362.86 227.61,-355.75"/>
<polygon fill="midnightblue" stroke="midnightblue" points="230.61,-383.18 236.35,-392.08 237.42,-381.54 230.61,-383.18"/>
</g>
<!-- Node16 -->
<g id="node16" class="node">
<title>Node16</title>
<g id="a_node16"><a xlink:href="api_2spec_2classification_8h.html" target="_top" xlink:title=" ">
<polygon fill="white" stroke="black" points="362,-224.5 362,-243.5 451,-243.5 451,-224.5 362,-224.5"/>
<text text-anchor="middle" x="406.5" y="-231.5" font-family="Helvetica,sans-Serif" font-size="10.00">classification.h</text>
</a>
</g>
</g>
<!-- Node13&#45;&gt;Node16 -->
<g id="edge17" class="edge">
<title>Node13&#45;&gt;Node16</title>
<path fill="none" stroke="midnightblue" d="M255.05,-384.65C290.18,-349.94 371.18,-269.9 397.83,-243.57"/>
<polygon fill="midnightblue" stroke="midnightblue" points="252.19,-382.56 247.53,-392.08 257.11,-387.54 252.19,-382.56"/>
</g>
<!-- Node22 -->
<g id="node22" class="node">
<title>Node22</title>
<g id="a_node22"><a xlink:href="api_2spec_2crypto_8h.html" target="_top" xlink:title=" ">
<polygon fill="white" stroke="black" points="658.5,-336.5 658.5,-355.5 714.5,-355.5 714.5,-336.5 658.5,-336.5"/>
<text text-anchor="middle" x="686.5" y="-343.5" font-family="Helvetica,sans-Serif" font-size="10.00">crypto.h</text>
</a>
</g>
</g>
<!-- Node13&#45;&gt;Node22 -->
<g id="edge26" class="edge">
<title>Node13&#45;&gt;Node22</title>
<path fill="none" stroke="midnightblue" d="M288.4,-394.98C382.75,-383.61 584.46,-359.3 658.5,-350.38"/>
<polygon fill="midnightblue" stroke="midnightblue" points="287.77,-391.54 278.26,-396.21 288.6,-398.49 287.77,-391.54"/>
</g>
<!-- Node24 -->
<g id="node24" class="node">
<title>Node24</title>
<g id="a_node24"><a xlink:href="api_2spec_2packet_8h.html" target="_top" xlink:title=" ">
<polygon fill="white" stroke="black" points="247.5,-224.5 247.5,-243.5 305.5,-243.5 305.5,-224.5 247.5,-224.5"/>
<text text-anchor="middle" x="276.5" y="-231.5" font-family="Helvetica,sans-Serif" font-size="10.00">packet.h</text>
</a>
</g>
</g>
<!-- Node13&#45;&gt;Node24 -->
<g id="edge31" class="edge">
<title>Node13&#45;&gt;Node24</title>
<path fill="none" stroke="midnightblue" d="M248.68,-383.53C252.98,-375.41 257.64,-365.47 260.5,-356 272.81,-315.22 275.65,-263.89 276.31,-243.71"/>
<polygon fill="midnightblue" stroke="midnightblue" points="245.56,-381.94 243.77,-392.38 251.68,-385.34 245.56,-381.94"/>
</g>
<!-- Node13&#45;&gt;Node26 -->
<g id="edge34" class="edge">
<title>Node13&#45;&gt;Node26</title>
<path fill="none" stroke="midnightblue" d="M285.91,-390.15C330.5,-379.95 396.35,-364.88 437.28,-355.52"/>
<polygon fill="midnightblue" stroke="midnightblue" points="284.86,-386.8 275.89,-392.44 286.42,-393.62 284.86,-386.8"/>
</g>
<!-- Node30 -->
<g id="node30" class="node">
<title>Node30</title>
<g id="a_node30"><a xlink:href="api_2spec_2pool_8h.html" target="_top" xlink:title=" ">
<polygon fill="white" stroke="black" points="134,-336.5 134,-355.5 181,-355.5 181,-336.5 134,-336.5"/>
<text text-anchor="middle" x="157.5" y="-343.5" font-family="Helvetica,sans-Serif" font-size="10.00">pool.h</text>
</a>
</g>
</g>
<!-- Node13&#45;&gt;Node30 -->
<g id="edge44" class="edge">
<title>Node13&#45;&gt;Node30</title>
<path fill="none" stroke="midnightblue" d="M216.93,-386.62C202.14,-376.76 182.99,-363.99 170.48,-355.65"/>
<polygon fill="midnightblue" stroke="midnightblue" points="215.22,-389.69 225.49,-392.32 219.11,-383.86 215.22,-389.69"/>
</g>
<!-- Node13&#45;&gt;Node32 -->
<g id="edge47" class="edge">
<title>Node13&#45;&gt;Node32</title>
<path fill="none" stroke="midnightblue" d="M194.05,-389.99C157.8,-380.97 105.3,-367.82 59.5,-356 56.78,-355.3 53.94,-354.56 51.11,-353.82"/>
<polygon fill="midnightblue" stroke="midnightblue" points="193.27,-393.4 203.82,-392.42 194.96,-386.61 193.27,-393.4"/>
</g>
<!-- Node15 -->
<g id="node15" class="node">
<title>Node15</title>
<g id="a_node15"><a xlink:href="api_2buffer_8h.html" target="_top" xlink:title=" ">
<polygon fill="white" stroke="black" points="176,-224.5 176,-243.5 229,-243.5 229,-224.5 176,-224.5"/>
<text text-anchor="middle" x="202.5" y="-231.5" font-family="Helvetica,sans-Serif" font-size="10.00">buffer.h</text>
</a>
</g>
</g>
<!-- Node14&#45;&gt;Node15 -->
<g id="edge15" class="edge">
<title>Node14&#45;&gt;Node15</title>
<path fill="none" stroke="midnightblue" d="M221.6,-326.35C216.56,-302.25 208,-261.31 204.3,-243.59"/>
<polygon fill="midnightblue" stroke="midnightblue" points="218.22,-327.3 223.7,-336.37 225.07,-325.86 218.22,-327.3"/>
</g>
<!-- Node15&#45;&gt;Node7 -->
<g id="edge16" class="edge">
<title>Node15&#45;&gt;Node7</title>
<path fill="none" stroke="midnightblue" d="M209.27,-215.01C219.49,-189.69 240.85,-143.16 270.5,-112 349.01,-29.49 494.23,-14.1 558.49,-11.43"/>
<polygon fill="midnightblue" stroke="midnightblue" points="205.96,-213.87 205.58,-224.46 212.48,-216.42 205.96,-213.87"/>
</g>
<!-- Node17 -->
<g id="node17" class="node">
<title>Node17</title>
<g id="a_node17"><a xlink:href="api_2classification_8h.html" target="_top" xlink:title=" ">
<polygon fill="white" stroke="black" points="362,-168.5 362,-187.5 451,-187.5 451,-168.5 362,-168.5"/>
<text text-anchor="middle" x="406.5" y="-175.5" font-family="Helvetica,sans-Serif" font-size="10.00">classification.h</text>
</a>
</g>
</g>
<!-- Node16&#45;&gt;Node17 -->
<g id="edge18" class="edge">
<title>Node16&#45;&gt;Node17</title>
<path fill="none" stroke="midnightblue" d="M406.5,-213.8C406.5,-204.91 406.5,-194.78 406.5,-187.75"/>
<polygon fill="midnightblue" stroke="midnightblue" points="403,-214.08 406.5,-224.08 410,-214.08 403,-214.08"/>
</g>
<!-- Node17&#45;&gt;Node7 -->
<g id="edge25" class="edge">
<title>Node17&#45;&gt;Node7</title>
<path fill="none" stroke="midnightblue" d="M408.61,-158.09C412.54,-131.62 423.45,-83.69 452.5,-56 481.41,-28.44 527.42,-17.76 558.28,-13.62"/>
<polygon fill="midnightblue" stroke="midnightblue" points="405.1,-157.92 407.28,-168.29 412.04,-158.83 405.1,-157.92"/>
</g>
<!-- Node18 -->
<g id="node18" class="node">
<title>Node18</title>
<g id="a_node18"><a xlink:href="api_2spec_2ipsec_8h.html" target="_top" xlink:title=" ">
<polygon fill="white" stroke="black" points="565,-112.5 565,-131.5 616,-131.5 616,-112.5 565,-112.5"/>
<text text-anchor="middle" x="590.5" y="-119.5" font-family="Helvetica,sans-Serif" font-size="10.00">ipsec.h</text>
</a>
</g>
</g>
<!-- Node17&#45;&gt;Node18 -->
<g id="edge19" class="edge">
<title>Node17&#45;&gt;Node18</title>
<path fill="none" stroke="midnightblue" d="M445.33,-165.61C481.27,-155.06 533.71,-139.67 564.75,-130.56"/>
<polygon fill="midnightblue" stroke="midnightblue" points="444.27,-162.27 435.66,-168.44 446.24,-168.99 444.27,-162.27"/>
</g>
<!-- Node17&#45;&gt;Node20 -->
<g id="edge22" class="edge">
<title>Node17&#45;&gt;Node20</title>
<path fill="none" stroke="midnightblue" d="M427.53,-162.62C441.97,-152.76 460.64,-139.99 472.84,-131.65"/>
<polygon fill="midnightblue" stroke="midnightblue" points="425.47,-159.79 419.19,-168.32 429.42,-165.57 425.47,-159.79"/>
</g>
<!-- Node19 -->
<g id="node19" class="node">
<title>Node19</title>
<g id="a_node19"><a xlink:href="api_2ipsec_8h.html" target="_top" xlink:title=" ">
<polygon fill="white" stroke="black" points="565,-56.5 565,-75.5 616,-75.5 616,-56.5 565,-56.5"/>
<text text-anchor="middle" x="590.5" y="-63.5" font-family="Helvetica,sans-Serif" font-size="10.00">ipsec.h</text>
</a>
</g>
</g>
<!-- Node18&#45;&gt;Node19 -->
<g id="edge20" class="edge">
<title>Node18&#45;&gt;Node19</title>
<path fill="none" stroke="midnightblue" d="M590.5,-101.8C590.5,-92.91 590.5,-82.78 590.5,-75.75"/>
<polygon fill="midnightblue" stroke="midnightblue" points="587,-102.08 590.5,-112.08 594,-102.08 587,-102.08"/>
</g>
<!-- Node19&#45;&gt;Node7 -->
<g id="edge21" class="edge">
<title>Node19&#45;&gt;Node7</title>
<path fill="none" stroke="midnightblue" d="M590.5,-45.8C590.5,-36.91 590.5,-26.78 590.5,-19.75"/>
<polygon fill="midnightblue" stroke="midnightblue" points="587,-46.08 590.5,-56.08 594,-46.08 587,-46.08"/>
</g>
<!-- Node21 -->
<g id="node21" class="node">
<title>Node21</title>
<g id="a_node21"><a xlink:href="api_2packet__io_8h.html" target="_top" xlink:title=" ">
<polygon fill="white" stroke="black" points="461.5,-56.5 461.5,-75.5 533.5,-75.5 533.5,-56.5 461.5,-56.5"/>
<text text-anchor="middle" x="497.5" y="-63.5" font-family="Helvetica,sans-Serif" font-size="10.00">packet_io.h</text>
</a>
</g>
</g>
<!-- Node20&#45;&gt;Node21 -->
<g id="edge23" class="edge">
<title>Node20&#45;&gt;Node21</title>
<path fill="none" stroke="midnightblue" d="M489.7,-102.1C491.69,-93.14 493.98,-82.86 495.56,-75.75"/>
<polygon fill="midnightblue" stroke="midnightblue" points="486.23,-101.56 487.48,-112.08 493.07,-103.08 486.23,-101.56"/>
</g>
<!-- Node21&#45;&gt;Node7 -->
<g id="edge24" class="edge">
<title>Node21&#45;&gt;Node7</title>
<path fill="none" stroke="midnightblue" d="M521.31,-51.18C538.42,-41.24 560.97,-28.15 575.6,-19.65"/>
<polygon fill="midnightblue" stroke="midnightblue" points="519.33,-48.28 512.44,-56.32 522.85,-54.33 519.33,-48.28"/>
</g>
<!-- Node23 -->
<g id="node23" class="node">
<title>Node23</title>
<g id="a_node23"><a xlink:href="api_2crypto_8h.html" target="_top" xlink:title=" ">
<polygon fill="white" stroke="black" points="723.5,-168.5 723.5,-187.5 779.5,-187.5 779.5,-168.5 723.5,-168.5"/>
<text text-anchor="middle" x="751.5" y="-175.5" font-family="Helvetica,sans-Serif" font-size="10.00">crypto.h</text>
</a>
</g>
</g>
<!-- Node22&#45;&gt;Node23 -->
<g id="edge27" class="edge">
<title>Node22&#45;&gt;Node23</title>
<path fill="none" stroke="midnightblue" d="M693.79,-326.39C707.81,-290.59 738.05,-213.34 748.15,-187.57"/>
<polygon fill="midnightblue" stroke="midnightblue" points="690.38,-325.49 689.99,-336.08 696.9,-328.04 690.38,-325.49"/>
</g>
<!-- Node23&#45;&gt;Node7 -->
<g id="edge29" class="edge">
<title>Node23&#45;&gt;Node7</title>
<path fill="none" stroke="midnightblue" d="M738.16,-160.66C718.39,-136.79 679.76,-91.37 643.5,-56 629.68,-42.51 612.43,-28.31 601.44,-19.55"/>
<polygon fill="midnightblue" stroke="midnightblue" points="735.49,-162.92 744.55,-168.42 740.89,-158.48 735.49,-162.92"/>
</g>
<!-- Node23&#45;&gt;Node18 -->
<g id="edge28" class="edge">
<title>Node23&#45;&gt;Node18</title>
<path fill="none" stroke="midnightblue" d="M716.24,-165.17C685.92,-155 642.93,-140.59 615.89,-131.52"/>
<polygon fill="midnightblue" stroke="midnightblue" points="715.4,-168.58 725.99,-168.44 717.62,-161.95 715.4,-168.58"/>
</g>
<!-- Node25 -->
<g id="node25" class="node">
<title>Node25</title>
<g id="a_node25"><a xlink:href="api_2packet_8h.html" target="_top" xlink:title=" ">
<polygon fill="white" stroke="black" points="279.5,-112.5 279.5,-131.5 337.5,-131.5 337.5,-112.5 279.5,-112.5"/>
<text text-anchor="middle" x="308.5" y="-119.5" font-family="Helvetica,sans-Serif" font-size="10.00">packet.h</text>
</a>
</g>
</g>
<!-- Node24&#45;&gt;Node25 -->
<g id="edge32" class="edge">
<title>Node24&#45;&gt;Node25</title>
<path fill="none" stroke="midnightblue" d="M281.83,-214.67C288.83,-190.62 300.82,-149.39 306,-131.59"/>
<polygon fill="midnightblue" stroke="midnightblue" points="278.44,-213.79 279.01,-224.37 285.17,-215.74 278.44,-213.79"/>
</g>
<!-- Node25&#45;&gt;Node7 -->
<g id="edge33" class="edge">
<title>Node25&#45;&gt;Node7</title>
<path fill="none" stroke="midnightblue" d="M325.21,-105.35C341.98,-90.49 369.18,-68.6 396.5,-56 450.19,-31.24 518.71,-19.48 558.3,-14.4"/>
<polygon fill="midnightblue" stroke="midnightblue" points="322.5,-103.08 317.44,-112.4 327.2,-108.27 322.5,-103.08"/>
</g>
<!-- Node27 -->
<g id="node27" class="node">
<title>Node27</title>
<g id="a_node27"><a xlink:href="api_2packet__io__types_8h.html" target="_top" xlink:title=" ">
<polygon fill="white" stroke="black" points="422.5,-280.5 422.5,-299.5 526.5,-299.5 526.5,-280.5 422.5,-280.5"/>
<text text-anchor="middle" x="474.5" y="-287.5" font-family="Helvetica,sans-Serif" font-size="10.00">packet_io_types.h</text>
</a>
</g>
</g>
<!-- Node26&#45;&gt;Node27 -->
<g id="edge35" class="edge">
<title>Node26&#45;&gt;Node27</title>
<path fill="none" stroke="midnightblue" d="M474.5,-325.8C474.5,-316.91 474.5,-306.78 474.5,-299.75"/>
<polygon fill="midnightblue" stroke="midnightblue" points="471,-326.08 474.5,-336.08 478,-326.08 471,-326.08"/>
</g>
<!-- Node27&#45;&gt;Node16 -->
<g id="edge36" class="edge">
<title>Node27&#45;&gt;Node16</title>
<path fill="none" stroke="midnightblue" d="M455.74,-274.1C443.5,-264.38 427.94,-252.03 417.62,-243.83"/>
<polygon fill="midnightblue" stroke="midnightblue" points="453.57,-276.85 463.57,-280.32 457.92,-271.36 453.57,-276.85"/>
</g>
<!-- Node27&#45;&gt;Node18 -->
<g id="edge37" class="edge">
<title>Node27&#45;&gt;Node18</title>
<path fill="none" stroke="midnightblue" d="M486.55,-271.76C511.12,-236.59 566.27,-157.68 584.51,-131.57"/>
<polygon fill="midnightblue" stroke="midnightblue" points="483.6,-269.87 480.74,-280.08 489.33,-273.88 483.6,-269.87"/>
</g>
<!-- Node27&#45;&gt;Node20 -->
<g id="edge39" class="edge">
<title>Node27&#45;&gt;Node20</title>
<path fill="none" stroke="midnightblue" d="M475.76,-269.93C478.15,-233.92 483.23,-157.23 484.93,-131.57"/>
<polygon fill="midnightblue" stroke="midnightblue" points="472.26,-269.87 475.09,-280.08 479.25,-270.33 472.26,-269.87"/>
</g>
<!-- Node27&#45;&gt;Node24 -->
<g id="edge38" class="edge">
<title>Node27&#45;&gt;Node24</title>
<path fill="none" stroke="midnightblue" d="M433.36,-277.78C395.26,-267.39 339.55,-252.2 305.79,-242.99"/>
<polygon fill="midnightblue" stroke="midnightblue" points="432.56,-281.19 443.13,-280.44 434.4,-274.44 432.56,-281.19"/>
</g>
<!-- Node28 -->
<g id="node28" class="node">
<title>Node28</title>
<g id="a_node28"><a xlink:href="api_2spec_2traffic__mngr_8h.html" target="_top" xlink:title=" ">
<polygon fill="white" stroke="black" points="583.5,-224.5 583.5,-243.5 667.5,-243.5 667.5,-224.5 583.5,-224.5"/>
<text text-anchor="middle" x="625.5" y="-231.5" font-family="Helvetica,sans-Serif" font-size="10.00">traffic_mngr.h</text>
</a>
</g>
</g>
<!-- Node27&#45;&gt;Node28 -->
<g id="edge40" class="edge">
<title>Node27&#45;&gt;Node28</title>
<path fill="none" stroke="midnightblue" d="M507.95,-277.04C536.36,-266.88 576.44,-252.55 601.69,-243.52"/>
<polygon fill="midnightblue" stroke="midnightblue" points="506.66,-273.78 498.43,-280.44 509.02,-280.37 506.66,-273.78"/>
</g>
<!-- Node29 -->
<g id="node29" class="node">
<title>Node29</title>
<g id="a_node29"><a xlink:href="api_2traffic__mngr_8h.html" target="_top" xlink:title=" ">
<polygon fill="white" stroke="black" points="621.5,-168.5 621.5,-187.5 705.5,-187.5 705.5,-168.5 621.5,-168.5"/>
<text text-anchor="middle" x="663.5" y="-175.5" font-family="Helvetica,sans-Serif" font-size="10.00">traffic_mngr.h</text>
</a>
</g>
</g>
<!-- Node28&#45;&gt;Node29 -->
<g id="edge41" class="edge">
<title>Node28&#45;&gt;Node29</title>
<path fill="none" stroke="midnightblue" d="M637.56,-215.86C644.14,-206.5 652.01,-195.33 657.34,-187.75"/>
<polygon fill="midnightblue" stroke="midnightblue" points="634.67,-213.89 631.77,-224.08 640.39,-217.92 634.67,-213.89"/>
</g>
<!-- Node29&#45;&gt;Node7 -->
<g id="edge43" class="edge">
<title>Node29&#45;&gt;Node7</title>
<path fill="none" stroke="midnightblue" d="M659.55,-158.36C653.92,-133.92 642.25,-90.15 624.5,-56 617.36,-42.27 606.09,-28.35 598.5,-19.7"/>
<polygon fill="midnightblue" stroke="midnightblue" points="656.19,-159.39 661.77,-168.4 663.03,-157.88 656.19,-159.39"/>
</g>
<!-- Node29&#45;&gt;Node18 -->
<g id="edge42" class="edge">
<title>Node29&#45;&gt;Node18</title>
<path fill="none" stroke="midnightblue" d="M643.36,-162.1C630.22,-152.38 613.52,-140.03 602.44,-131.83"/>
<polygon fill="midnightblue" stroke="midnightblue" points="641.65,-165.19 651.77,-168.32 645.81,-159.56 641.65,-165.19"/>
</g>
<!-- Node31 -->
<g id="node31" class="node">
<title>Node31</title>
<g id="a_node31"><a xlink:href="api_2pool_8h.html" target="_top" xlink:title=" ">
<polygon fill="white" stroke="black" points="129,-280.5 129,-299.5 176,-299.5 176,-280.5 129,-280.5"/>
<text text-anchor="middle" x="152.5" y="-287.5" font-family="Helvetica,sans-Serif" font-size="10.00">pool.h</text>
</a>
</g>
</g>
<!-- Node30&#45;&gt;Node31 -->
<g id="edge45" class="edge">
<title>Node30&#45;&gt;Node31</title>
<path fill="none" stroke="midnightblue" d="M155.75,-326.1C154.92,-317.14 153.97,-306.86 153.31,-299.75"/>
<polygon fill="midnightblue" stroke="midnightblue" points="152.27,-326.45 156.67,-336.08 159.24,-325.8 152.27,-326.45"/>
</g>
<!-- Node31&#45;&gt;Node7 -->
<g id="edge46" class="edge">
<title>Node31&#45;&gt;Node7</title>
<path fill="none" stroke="midnightblue" d="M151.13,-270.26C149.65,-248.38 147.5,-211.09 147.5,-179 147.5,-179 147.5,-179 147.5,-121 147.5,-36.31 456.34,-16.36 558.28,-12.08"/>
<polygon fill="midnightblue" stroke="midnightblue" points="147.65,-270.72 151.85,-280.45 154.64,-270.23 147.65,-270.72"/>
</g>
<!-- Node33 -->
<g id="node33" class="node">
<title>Node33</title>
<g id="a_node33"><a xlink:href="api_2timer_8h.html" target="_top" xlink:title=" ">
<polygon fill="white" stroke="black" points="8,-280.5 8,-299.5 59,-299.5 59,-280.5 8,-280.5"/>
<text text-anchor="middle" x="33.5" y="-287.5" font-family="Helvetica,sans-Serif" font-size="10.00">timer.h</text>
</a>
</g>
</g>
<!-- Node32&#45;&gt;Node33 -->
<g id="edge48" class="edge">
<title>Node32&#45;&gt;Node33</title>
<path fill="none" stroke="midnightblue" d="M28.3,-326.1C29.63,-317.14 31.15,-306.86 32.2,-299.75"/>
<polygon fill="midnightblue" stroke="midnightblue" points="24.82,-325.68 26.82,-336.08 31.75,-326.7 24.82,-325.68"/>
</g>
<!-- Node33&#45;&gt;Node7 -->
<g id="edge49" class="edge">
<title>Node33&#45;&gt;Node7</title>
<path fill="none" stroke="midnightblue" d="M35.97,-270.29C38.63,-248.43 42.5,-211.16 42.5,-179 42.5,-179 42.5,-179 42.5,-121 42.5,-90.77 38.97,-74.97 62.5,-56 101.13,-24.85 449.67,-14.24 558.31,-11.68"/>
<polygon fill="midnightblue" stroke="midnightblue" points="32.46,-270.1 34.68,-280.46 39.41,-270.98 32.46,-270.1"/>
</g>
<!-- Node35 -->
<g id="node35" class="node">
<title>Node35</title>
<g id="a_node35"><a xlink:href="packet__io__stats_8h.html" target="_top" xlink:title=" ">
<polygon fill="white" stroke="black" points="347,-392.5 347,-411.5 448,-411.5 448,-392.5 347,-392.5"/>
<text text-anchor="middle" x="397.5" y="-399.5" font-family="Helvetica,sans-Serif" font-size="10.00">packet_io_stats.h</text>
</a>
</g>
</g>
<!-- Node34&#45;&gt;Node35 -->
<g id="edge52" class="edge">
<title>Node34&#45;&gt;Node35</title>
<path fill="none" stroke="midnightblue" d="M397.5,-606.3C397.5,-560.64 397.5,-444.85 397.5,-411.88"/>
<polygon fill="midnightblue" stroke="midnightblue" points="394,-606.3 397.5,-616.3 401,-606.3 394,-606.3"/>
</g>
<!-- Node35&#45;&gt;Node20 -->
<g id="edge53" class="edge">
<title>Node35&#45;&gt;Node20</title>
<path fill="none" stroke="midnightblue" d="M386.15,-383.76C360.47,-342.38 303.81,-235.87 352.5,-168 374.38,-137.5 418.07,-127.41 449.4,-124.21"/>
<polygon fill="midnightblue" stroke="midnightblue" points="383.33,-385.85 391.66,-392.4 389.23,-382.09 383.33,-385.85"/>
</g>
<!-- Node35&#45;&gt;Node26 -->
<g id="edge54" class="edge">
<title>Node35&#45;&gt;Node26</title>
<path fill="none" stroke="midnightblue" d="M418.4,-386.34C432.41,-376.52 450.38,-363.91 462.16,-355.65"/>
<polygon fill="midnightblue" stroke="midnightblue" points="416.05,-383.72 409.87,-392.32 420.07,-389.45 416.05,-383.72"/>
</g>
<!-- Node37 -->
<g id="node37" class="node">
<title>Node37</title>
<g id="a_node37"><a xlink:href="api_2packet__types_8h.html" target="_top" xlink:title=" ">
<polygon fill="white" stroke="black" points="584.5,-616.5 584.5,-635.5 674.5,-635.5 674.5,-616.5 584.5,-616.5"/>
<text text-anchor="middle" x="629.5" y="-623.5" font-family="Helvetica,sans-Serif" font-size="10.00">packet_types.h</text>
</a>
</g>
</g>
<!-- Node36&#45;&gt;Node37 -->
<g id="edge57" class="edge">
<title>Node36&#45;&gt;Node37</title>
<path fill="none" stroke="midnightblue" d="M628.86,-661.8C629.02,-652.91 629.21,-642.78 629.34,-635.75"/>
<polygon fill="midnightblue" stroke="midnightblue" points="625.35,-662.02 628.67,-672.08 632.35,-662.15 625.35,-662.02"/>
</g>
<!-- Node37&#45;&gt;Node5 -->
<g id="edge58" class="edge">
<title>Node37&#45;&gt;Node5</title>
<path fill="none" stroke="midnightblue" d="M684.59,-615.29C732.12,-606.7 802.53,-593.47 863.5,-580 866.52,-579.33 869.67,-578.6 872.8,-577.85"/>
<polygon fill="midnightblue" stroke="midnightblue" points="683.73,-611.89 674.51,-617.1 684.97,-618.78 683.73,-611.89"/>
</g>
<!-- Node37&#45;&gt;Node8 -->
<g id="edge60" class="edge">
<title>Node37&#45;&gt;Node8</title>
<path fill="none" stroke="midnightblue" d="M574.31,-615.42C512.51,-604.69 413.81,-587.55 358.83,-578"/>
<polygon fill="midnightblue" stroke="midnightblue" points="573.83,-618.89 584.28,-617.15 575.02,-611.99 573.83,-618.89"/>
</g>
<!-- Node37&#45;&gt;Node20 -->
<g id="edge68" class="edge">
<title>Node37&#45;&gt;Node20</title>
<path fill="none" stroke="midnightblue" d="M629.77,-606.25C630.07,-584.36 630.5,-547.05 630.5,-515 630.5,-515 630.5,-515 630.5,-401 630.5,-328.29 666.16,-315.97 676.5,-244 677.76,-235.2 681.09,-231.61 676.5,-224 673.97,-219.8 548.27,-155.14 502.19,-131.54"/>
<polygon fill="midnightblue" stroke="midnightblue" points="626.27,-606.39 629.63,-616.44 633.27,-606.49 626.27,-606.39"/>
</g>
<!-- Node37&#45;&gt;Node22 -->
<g id="edge59" class="edge">
<title>Node37&#45;&gt;Node22</title>
<path fill="none" stroke="midnightblue" d="M639.91,-607.46C651.46,-586.3 668.5,-549.28 668.5,-515 668.5,-515 668.5,-515 668.5,-457 668.5,-418.88 679.16,-374.29 684.07,-355.76"/>
<polygon fill="midnightblue" stroke="midnightblue" points="636.81,-605.83 634.92,-616.25 642.9,-609.28 636.81,-605.83"/>
</g>
<!-- Node37&#45;&gt;Node24 -->
<g id="edge64" class="edge">
<title>Node37&#45;&gt;Node24</title>
<path fill="none" stroke="midnightblue" d="M601.49,-611.96C543.76,-583.69 410.81,-511.24 337.5,-412 316.45,-383.5 287.02,-275.19 278.74,-243.66"/>
<polygon fill="midnightblue" stroke="midnightblue" points="600.2,-615.22 610.73,-616.42 603.25,-608.92 600.2,-615.22"/>
</g>
<!-- Node37&#45;&gt;Node26 -->
<g id="edge69" class="edge">
<title>Node37&#45;&gt;Node26</title>
<path fill="none" stroke="midnightblue" d="M619.64,-607.43C608.68,-586.21 592.5,-549.11 592.5,-515 592.5,-515 592.5,-515 592.5,-457 592.5,-405.05 530.54,-370.63 496.42,-355.61"/>
<polygon fill="midnightblue" stroke="midnightblue" points="616.69,-609.34 624.51,-616.49 622.86,-606.02 616.69,-609.34"/>
</g>
<!-- Node38 -->
<g id="node38" class="node">
<title>Node38</title>
<g id="a_node38"><a xlink:href="api_2spec_2event_8h.html" target="_top" xlink:title=" ">
<polygon fill="white" stroke="black" points="697,-560.5 697,-579.5 750,-579.5 750,-560.5 697,-560.5"/>
<text text-anchor="middle" x="723.5" y="-567.5" font-family="Helvetica,sans-Serif" font-size="10.00">event.h</text>
</a>
</g>
</g>
<!-- Node37&#45;&gt;Node38 -->
<g id="edge61" class="edge">
<title>Node37&#45;&gt;Node38</title>
<path fill="none" stroke="midnightblue" d="M653.56,-611.18C670.86,-601.24 693.65,-588.15 708.43,-579.65"/>
<polygon fill="midnightblue" stroke="midnightblue" points="651.53,-608.31 644.6,-616.32 655.02,-614.38 651.53,-608.31"/>
</g>
<!-- Node40 -->
<g id="node40" class="node">
<title>Node40</title>
<g id="a_node40"><a xlink:href="api_2spec_2packet__flags_8h.html" target="_top" xlink:title=" ">
<polygon fill="white" stroke="black" points="768.5,-560.5 768.5,-579.5 854.5,-579.5 854.5,-560.5 768.5,-560.5"/>
<text text-anchor="middle" x="811.5" y="-567.5" font-family="Helvetica,sans-Serif" font-size="10.00">packet_flags.h</text>
</a>
</g>
</g>
<!-- Node37&#45;&gt;Node40 -->
<g id="edge65" class="edge">
<title>Node37&#45;&gt;Node40</title>
<path fill="none" stroke="midnightblue" d="M668.03,-613.57C702.36,-603.38 751.83,-588.7 782.8,-579.52"/>
<polygon fill="midnightblue" stroke="midnightblue" points="666.93,-610.24 658.34,-616.44 668.92,-616.95 666.93,-610.24"/>
</g>
<!-- Node39 -->
<g id="node39" class="node">
<title>Node39</title>
<g id="a_node39"><a xlink:href="api_2event_8h.html" target="_top" xlink:title=" ">
<polygon fill="white" stroke="black" points="747,-112.5 747,-131.5 800,-131.5 800,-112.5 747,-112.5"/>
<text text-anchor="middle" x="773.5" y="-119.5" font-family="Helvetica,sans-Serif" font-size="10.00">event.h</text>
</a>
</g>
</g>
<!-- Node38&#45;&gt;Node39 -->
<g id="edge62" class="edge">
<title>Node38&#45;&gt;Node39</title>
<path fill="none" stroke="midnightblue" d="M727.8,-550.53C740.31,-495.67 776.58,-328.76 788.5,-188 789.25,-179.14 789.92,-176.77 788.5,-168 786.39,-154.99 781.06,-140.67 777.36,-131.75"/>
<polygon fill="midnightblue" stroke="midnightblue" points="724.34,-549.95 725.5,-560.48 731.16,-551.52 724.34,-549.95"/>
</g>
<!-- Node39&#45;&gt;Node7 -->
<g id="edge63" class="edge">
<title>Node39&#45;&gt;Node7</title>
<path fill="none" stroke="midnightblue" d="M762.32,-103.56C752.2,-89.02 736.05,-68.7 717.5,-56 688.45,-36.12 649.66,-24.06 622.63,-17.5"/>
<polygon fill="midnightblue" stroke="midnightblue" points="759.6,-105.78 768.07,-112.14 765.41,-101.88 759.6,-105.78"/>
</g>
<!-- Node41 -->
<g id="node41" class="node">
<title>Node41</title>
<g id="a_node41"><a xlink:href="api_2packet__flags_8h.html" target="_top" xlink:title=" ">
<polygon fill="white" stroke="black" points="786.5,-504.5 786.5,-523.5 872.5,-523.5 872.5,-504.5 786.5,-504.5"/>
<text text-anchor="middle" x="829.5" y="-511.5" font-family="Helvetica,sans-Serif" font-size="10.00">packet_flags.h</text>
</a>
</g>
</g>
<!-- Node40&#45;&gt;Node41 -->
<g id="edge66" class="edge">
<title>Node40&#45;&gt;Node41</title>
<path fill="none" stroke="midnightblue" d="M817.7,-550.4C820.71,-541.36 824.19,-530.94 826.58,-523.75"/>
<polygon fill="midnightblue" stroke="midnightblue" points="814.31,-549.49 814.47,-560.08 820.96,-551.7 814.31,-549.49"/>
</g>
<!-- Node41&#45;&gt;Node7 -->
<g id="edge67" class="edge">
<title>Node41&#45;&gt;Node7</title>
<path fill="none" stroke="midnightblue" d="M833.89,-494.34C838.63,-472.56 845.5,-435.37 845.5,-403 845.5,-403 845.5,-403 845.5,-121 845.5,-24.93 691.03,-11.77 622.54,-10.66"/>
<polygon fill="midnightblue" stroke="midnightblue" points="830.45,-493.7 831.66,-504.22 837.28,-495.24 830.45,-493.7"/>
</g>
<!-- Node43 -->
<g id="node43" class="node">
<title>Node43</title>
<g id="a_node43"><a xlink:href="api_2queue_8h.html" target="_top" xlink:title=" ">
<polygon fill="white" stroke="black" points="928.5,-448.5 928.5,-467.5 984.5,-467.5 984.5,-448.5 928.5,-448.5"/>
<text text-anchor="middle" x="956.5" y="-455.5" font-family="Helvetica,sans-Serif" font-size="10.00">queue.h</text>
</a>
</g>
</g>
<!-- Node42&#45;&gt;Node43 -->
<g id="edge71" class="edge">
<title>Node42&#45;&gt;Node43</title>
<path fill="none" stroke="midnightblue" d="M796.36,-670.11C837.48,-656.21 901.79,-628.02 935.5,-580 960.49,-544.4 958.99,-488.7 957.35,-467.54"/>
<polygon fill="midnightblue" stroke="midnightblue" points="795.12,-666.83 786.7,-673.26 797.29,-673.49 795.12,-666.83"/>
</g>
<!-- Node43&#45;&gt;Node7 -->
<g id="edge72" class="edge">
<title>Node43&#45;&gt;Node7</title>
<path fill="none" stroke="midnightblue" d="M956.23,-438.25C955.93,-416.36 955.5,-379.05 955.5,-347 955.5,-347 955.5,-347 955.5,-121 955.5,-77.89 922.44,-74.49 883.5,-56 795.87,-14.38 678.43,-9.66 622.59,-10.06"/>
<polygon fill="midnightblue" stroke="midnightblue" points="952.73,-438.49 956.37,-448.44 959.73,-438.39 952.73,-438.49"/>
</g>
<!-- Node45 -->
<g id="node45" class="node">
<title>Node45</title>
<g id="a_node45"><a xlink:href="api_2schedule_8h.html" target="_top" xlink:title=" ">
<polygon fill="white" stroke="black" points="983,-616.5 983,-635.5 1052,-635.5 1052,-616.5 983,-616.5"/>
<text text-anchor="middle" x="1017.5" y="-623.5" font-family="Helvetica,sans-Serif" font-size="10.00">schedule.h</text>
</a>
</g>
</g>
<!-- Node44&#45;&gt;Node45 -->
<g id="edge74" class="edge">
<title>Node44&#45;&gt;Node45</title>
<path fill="none" stroke="midnightblue" d="M877.62,-669.44C911.18,-659.26 959.27,-644.66 989.43,-635.52"/>
<polygon fill="midnightblue" stroke="midnightblue" points="876.26,-666.19 867.7,-672.44 878.29,-672.89 876.26,-666.19"/>
</g>
<!-- Node45&#45;&gt;Node7 -->
<g id="edge75" class="edge">
<title>Node45&#45;&gt;Node7</title>
<path fill="none" stroke="midnightblue" d="M1016.95,-606.25C1016.36,-584.36 1015.5,-547.06 1015.5,-515 1015.5,-515 1015.5,-515 1015.5,-121 1015.5,-39.93 721.97,-17.63 622.79,-12.42"/>
<polygon fill="midnightblue" stroke="midnightblue" points="1013.46,-606.55 1017.24,-616.44 1020.46,-606.35 1013.46,-606.55"/>
</g>
</g>
</svg>
