<?xml version="1.0" encoding="UTF-8" standalone="no"?>
<!DOCTYPE svg PUBLIC "-//W3C//DTD SVG 1.1//EN"
 "http://www.w3.org/Graphics/SVG/1.1/DTD/svg11.dtd">
<!-- Generated by graphviz version 2.43.0 (0)
 -->
<!-- Title: crypto.h Pages: 1 -->
<svg width="1434pt" height="979pt"
 viewBox="0.00 0.00 1434.00 979.00" xmlns="http://www.w3.org/2000/svg" xmlns:xlink="http://www.w3.org/1999/xlink">
<g id="graph0" class="graph" transform="scale(1 1) rotate(0) translate(4 975)">
<title>crypto.h</title>
<polygon fill="white" stroke="transparent" points="-4,4 -4,-975 1430,-975 1430,4 -4,4"/>
<!-- Node1 -->
<g id="node1" class="node">
<title>Node1</title>
<g id="a_node1"><a xlink:title=" ">
<polygon fill="#bfbfbf" stroke="black" points="1109,-951.5 1109,-970.5 1165,-970.5 1165,-951.5 1109,-951.5"/>
<text text-anchor="middle" x="1137" y="-958.5" font-family="Helvetica,sans-Serif" font-size="10.00">crypto.h</text>
</a>
</g>
</g>
<!-- Node2 -->
<g id="node2" class="node">
<title>Node2</title>
<g id="a_node2"><a xlink:href="api_2std__types_8h.html" target="_top" xlink:title=" ">
<polygon fill="white" stroke="black" points="153,-235.5 153,-254.5 265,-254.5 265,-235.5 153,-235.5"/>
<text text-anchor="middle" x="209" y="-242.5" font-family="Helvetica,sans-Serif" font-size="10.00">odp/api/std_types.h</text>
</a>
</g>
</g>
<!-- Node1&#45;&gt;Node2 -->
<g id="edge1" class="edge">
<title>Node1&#45;&gt;Node2</title>
<path fill="none" stroke="midnightblue" d="M1108.89,-960.12C940.83,-960.46 76,-957 76,-850 76,-850 76,-850 76,-372.5 76,-316.39 138.92,-277.62 178.21,-258.88"/>
<polygon fill="midnightblue" stroke="midnightblue" points="180.01,-261.91 187.63,-254.55 177.08,-255.55 180.01,-261.91"/>
</g>
<!-- Node11 -->
<g id="node11" class="node">
<title>Node11</title>
<g id="a_node11"><a xlink:title=" ">
<polygon fill="white" stroke="#bfbfbf" points="793,-548.5 793,-578.5 899,-578.5 899,-548.5 793,-548.5"/>
<text text-anchor="start" x="801" y="-566.5" font-family="Helvetica,sans-Serif" font-size="10.00">odp/api/abi/packet</text>
<text text-anchor="middle" x="846" y="-555.5" font-family="Helvetica,sans-Serif" font-size="10.00">_types.h</text>
</a>
</g>
</g>
<!-- Node1&#45;&gt;Node11 -->
<g id="edge12" class="edge">
<title>Node1&#45;&gt;Node11</title>
<path fill="none" stroke="midnightblue" d="M1134.44,-951.25C1129.25,-932.74 1118,-888.18 1118,-850 1118,-850 1118,-850 1118,-792 1118,-679.53 979.48,-611.73 900.15,-582.12"/>
<polygon fill="midnightblue" stroke="midnightblue" points="900.9,-578.67 890.31,-578.53 898.5,-585.24 900.9,-578.67"/>
</g>
<!-- Node12 -->
<g id="node12" class="node">
<title>Node12</title>
<g id="a_node12"><a xlink:title=" ">
<polygon fill="white" stroke="#bfbfbf" points="1184.5,-895.5 1184.5,-914.5 1297.5,-914.5 1297.5,-895.5 1184.5,-895.5"/>
<text text-anchor="middle" x="1241" y="-902.5" font-family="Helvetica,sans-Serif" font-size="10.00">odp/api/abi/crypto.h</text>
</a>
</g>
</g>
<!-- Node1&#45;&gt;Node12 -->
<g id="edge13" class="edge">
<title>Node1&#45;&gt;Node12</title>
<path fill="none" stroke="midnightblue" d="M1153.71,-951.32C1170.31,-942.7 1196,-929.36 1215.22,-919.39"/>
<polygon fill="midnightblue" stroke="midnightblue" points="1217.07,-922.37 1224.33,-914.65 1213.84,-916.16 1217.07,-922.37"/>
</g>
<!-- Node13 -->
<g id="node13" class="node">
<title>Node13</title>
<g id="a_node13"><a xlink:title=" ">
<polygon fill="white" stroke="#bfbfbf" points="1316,-895.5 1316,-914.5 1426,-914.5 1426,-895.5 1316,-895.5"/>
<text text-anchor="middle" x="1371" y="-902.5" font-family="Helvetica,sans-Serif" font-size="10.00">odp/api/abi/buffer.h</text>
</a>
</g>
</g>
<!-- Node1&#45;&gt;Node13 -->
<g id="edge14" class="edge">
<title>Node1&#45;&gt;Node13</title>
<path fill="none" stroke="midnightblue" d="M1165.23,-953.49C1204.6,-944.4 1276.53,-927.8 1324.05,-916.83"/>
<polygon fill="midnightblue" stroke="midnightblue" points="1324.85,-920.24 1333.8,-914.58 1323.27,-913.42 1324.85,-920.24"/>
</g>
<!-- Node14 -->
<g id="node14" class="node">
<title>Node14</title>
<g id="a_node14"><a xlink:title=" ">
<polygon fill="white" stroke="#bfbfbf" points="1070.5,-431 1070.5,-450 1215.5,-450 1215.5,-431 1070.5,-431"/>
<text text-anchor="middle" x="1143" y="-438" font-family="Helvetica,sans-Serif" font-size="10.00">odp/api/abi/queue_types.h</text>
</a>
</g>
</g>
<!-- Node1&#45;&gt;Node14 -->
<g id="edge15" class="edge">
<title>Node1&#45;&gt;Node14</title>
<path fill="none" stroke="midnightblue" d="M1139.56,-951.25C1144.75,-932.74 1156,-888.18 1156,-850 1156,-850 1156,-850 1156,-562.5 1156,-526.19 1150.14,-484.09 1146.29,-460.35"/>
<polygon fill="midnightblue" stroke="midnightblue" points="1149.7,-459.55 1144.59,-450.27 1142.8,-460.71 1149.7,-459.55"/>
</g>
<!-- Node15 -->
<g id="node15" class="node">
<title>Node15</title>
<g id="a_node15"><a xlink:href="api_2spec_2crypto_8h.html" target="_top" xlink:title=" ">
<polygon fill="white" stroke="black" points="333.5,-895.5 333.5,-914.5 454.5,-914.5 454.5,-895.5 333.5,-895.5"/>
<text text-anchor="middle" x="394" y="-902.5" font-family="Helvetica,sans-Serif" font-size="10.00">odp/api/spec/crypto.h</text>
</a>
</g>
</g>
<!-- Node1&#45;&gt;Node15 -->
<g id="edge16" class="edge">
<title>Node1&#45;&gt;Node15</title>
<path fill="none" stroke="midnightblue" d="M1108.78,-957.95C1002.37,-950.22 623.42,-922.67 464.71,-911.14"/>
<polygon fill="midnightblue" stroke="midnightblue" points="464.81,-907.64 454.58,-910.4 464.3,-914.62 464.81,-907.64"/>
</g>
<!-- Node3 -->
<g id="node3" class="node">
<title>Node3</title>
<g id="a_node3"><a xlink:title=" ">
<polygon fill="white" stroke="#bfbfbf" points="66,-179.5 66,-198.5 196,-198.5 196,-179.5 66,-179.5"/>
<text text-anchor="middle" x="131" y="-186.5" font-family="Helvetica,sans-Serif" font-size="10.00">odp/api/abi/std_types.h</text>
</a>
</g>
</g>
<!-- Node2&#45;&gt;Node3 -->
<g id="edge2" class="edge">
<title>Node2&#45;&gt;Node3</title>
<path fill="none" stroke="midnightblue" d="M196.47,-235.32C184.41,-226.98 165.97,-214.21 151.73,-204.35"/>
<polygon fill="midnightblue" stroke="midnightblue" points="153.72,-201.47 143.5,-198.65 149.73,-207.22 153.72,-201.47"/>
</g>
<!-- Node4 -->
<g id="node4" class="node">
<title>Node4</title>
<g id="a_node4"><a xlink:href="api_2spec_2std__types_8h.html" target="_top" xlink:title=" ">
<polygon fill="white" stroke="black" points="214.5,-179.5 214.5,-198.5 351.5,-198.5 351.5,-179.5 214.5,-179.5"/>
<text text-anchor="middle" x="283" y="-186.5" font-family="Helvetica,sans-Serif" font-size="10.00">odp/api/spec/std_types.h</text>
</a>
</g>
</g>
<!-- Node2&#45;&gt;Node4 -->
<g id="edge3" class="edge">
<title>Node2&#45;&gt;Node4</title>
<path fill="none" stroke="midnightblue" d="M220.89,-235.32C232.15,-227.11 249.29,-214.6 262.71,-204.81"/>
<polygon fill="midnightblue" stroke="midnightblue" points="264.88,-207.56 270.89,-198.83 260.75,-201.9 264.88,-207.56"/>
</g>
<!-- Node5 -->
<g id="node5" class="node">
<title>Node5</title>
<g id="a_node5"><a xlink:href="visibility__begin_8h_source.html" target="_top" xlink:title=" ">
<polygon fill="white" stroke="black" points="302.5,-0.5 302.5,-19.5 423.5,-19.5 423.5,-0.5 302.5,-0.5"/>
<text text-anchor="middle" x="363" y="-7.5" font-family="Helvetica,sans-Serif" font-size="10.00">odp/visibility_begin.h</text>
</a>
</g>
</g>
<!-- Node4&#45;&gt;Node5 -->
<g id="edge4" class="edge">
<title>Node4&#45;&gt;Node5</title>
<path fill="none" stroke="midnightblue" d="M214.32,-180.46C185.08,-174.32 152.21,-163.18 128,-143 96.8,-116.99 73.81,-87.05 100,-56 124.2,-27.31 223.12,-16.91 292.49,-13.14"/>
<polygon fill="midnightblue" stroke="midnightblue" points="292.69,-16.64 302.49,-12.63 292.33,-9.65 292.69,-16.64"/>
</g>
<!-- Node6 -->
<g id="node6" class="node">
<title>Node6</title>
<g id="a_node6"><a xlink:title=" ">
<polygon fill="white" stroke="#bfbfbf" points="137.5,-123.5 137.5,-142.5 190.5,-142.5 190.5,-123.5 137.5,-123.5"/>
<text text-anchor="middle" x="164" y="-130.5" font-family="Helvetica,sans-Serif" font-size="10.00">stdint.h</text>
</a>
</g>
</g>
<!-- Node4&#45;&gt;Node6 -->
<g id="edge5" class="edge">
<title>Node4&#45;&gt;Node6</title>
<path fill="none" stroke="midnightblue" d="M264.14,-179.44C244.73,-170.64 214.27,-156.81 192.04,-146.72"/>
<polygon fill="midnightblue" stroke="midnightblue" points="193.32,-143.46 182.77,-142.52 190.43,-149.84 193.32,-143.46"/>
</g>
<!-- Node7 -->
<g id="node7" class="node">
<title>Node7</title>
<g id="a_node7"><a xlink:href="api_2align_8h.html" target="_top" xlink:title=" ">
<polygon fill="white" stroke="black" points="285.5,-123.5 285.5,-142.5 374.5,-142.5 374.5,-123.5 285.5,-123.5"/>
<text text-anchor="middle" x="330" y="-130.5" font-family="Helvetica,sans-Serif" font-size="10.00">odp/api/align.h</text>
</a>
</g>
</g>
<!-- Node4&#45;&gt;Node7 -->
<g id="edge6" class="edge">
<title>Node4&#45;&gt;Node7</title>
<path fill="none" stroke="midnightblue" d="M290.76,-179.08C297.54,-171.3 307.54,-159.8 315.76,-150.37"/>
<polygon fill="midnightblue" stroke="midnightblue" points="318.46,-152.59 322.38,-142.75 313.18,-148 318.46,-152.59"/>
</g>
<!-- Node10 -->
<g id="node10" class="node">
<title>Node10</title>
<g id="a_node10"><a xlink:href="visibility__end_8h_source.html" target="_top" xlink:title=" ">
<polygon fill="white" stroke="black" points="829,-0.5 829,-19.5 941,-19.5 941,-0.5 829,-0.5"/>
<text text-anchor="middle" x="885" y="-7.5" font-family="Helvetica,sans-Serif" font-size="10.00">odp/visibility_end.h</text>
</a>
</g>
</g>
<!-- Node4&#45;&gt;Node10 -->
<g id="edge11" class="edge">
<title>Node4&#45;&gt;Node10</title>
<path fill="none" stroke="midnightblue" d="M310.95,-179.42C365.47,-162.55 489.75,-123.55 593,-87 629.34,-74.14 637.04,-66.94 674,-56 723.87,-41.24 781.73,-29.25 824.23,-21.37"/>
<polygon fill="midnightblue" stroke="midnightblue" points="824.93,-24.8 834.14,-19.55 823.67,-17.91 824.93,-24.8"/>
</g>
<!-- Node8 -->
<g id="node8" class="node">
<title>Node8</title>
<g id="a_node8"><a xlink:title=" ">
<polygon fill="white" stroke="#bfbfbf" points="180.5,-62 180.5,-81 287.5,-81 287.5,-62 180.5,-62"/>
<text text-anchor="middle" x="234" y="-69" font-family="Helvetica,sans-Serif" font-size="10.00">odp/api/abi/align.h</text>
</a>
</g>
</g>
<!-- Node7&#45;&gt;Node8 -->
<g id="edge7" class="edge">
<title>Node7&#45;&gt;Node8</title>
<path fill="none" stroke="midnightblue" d="M316.25,-123.48C300.63,-113.8 274.94,-97.87 256.42,-86.39"/>
<polygon fill="midnightblue" stroke="midnightblue" points="258.07,-83.3 247.73,-81.01 254.38,-89.25 258.07,-83.3"/>
</g>
<!-- Node9 -->
<g id="node9" class="node">
<title>Node9</title>
<g id="a_node9"><a xlink:href="api_2spec_2align_8h.html" target="_top" xlink:title=" ">
<polygon fill="white" stroke="black" points="306,-62 306,-81 420,-81 420,-62 306,-62"/>
<text text-anchor="middle" x="363" y="-69" font-family="Helvetica,sans-Serif" font-size="10.00">odp/api/spec/align.h</text>
</a>
</g>
</g>
<!-- Node7&#45;&gt;Node9 -->
<g id="edge8" class="edge">
<title>Node7&#45;&gt;Node9</title>
<path fill="none" stroke="midnightblue" d="M334.73,-123.48C339.58,-114.73 347.27,-100.87 353.4,-89.81"/>
<polygon fill="midnightblue" stroke="midnightblue" points="356.49,-91.45 358.28,-81.01 350.37,-88.06 356.49,-91.45"/>
</g>
<!-- Node9&#45;&gt;Node5 -->
<g id="edge9" class="edge">
<title>Node9&#45;&gt;Node5</title>
<path fill="none" stroke="midnightblue" d="M363,-61.98C363,-53.58 363,-40.48 363,-29.66"/>
<polygon fill="midnightblue" stroke="midnightblue" points="366.5,-29.51 363,-19.51 359.5,-29.51 366.5,-29.51"/>
</g>
<!-- Node9&#45;&gt;Node10 -->
<g id="edge10" class="edge">
<title>Node9&#45;&gt;Node10</title>
<path fill="none" stroke="midnightblue" d="M398.67,-61.99C408.76,-59.8 419.77,-57.61 430,-56 567.28,-34.43 729.59,-21.32 818.49,-15.18"/>
<polygon fill="midnightblue" stroke="midnightblue" points="818.96,-18.66 828.7,-14.49 818.48,-11.67 818.96,-18.66"/>
</g>
<!-- Node15&#45;&gt;Node2 -->
<g id="edge64" class="edge">
<title>Node15&#45;&gt;Node2</title>
<path fill="none" stroke="midnightblue" d="M333.47,-903.84C256.36,-900.08 133,-880.54 133,-794 133,-794 133,-794 133,-501 133,-408.36 179.64,-304.38 199.85,-263.67"/>
<polygon fill="midnightblue" stroke="midnightblue" points="203.08,-265.03 204.47,-254.53 196.83,-261.87 203.08,-265.03"/>
</g>
<!-- Node15&#45;&gt;Node5 -->
<g id="edge17" class="edge">
<title>Node15&#45;&gt;Node5</title>
<path fill="none" stroke="midnightblue" d="M333.3,-899.67C222.78,-890.11 0,-862.36 0,-794 0,-794 0,-794 0,-132 0,-92.28 13.76,-77.74 47,-56 86.25,-30.33 211.74,-18.93 292.27,-14.16"/>
<polygon fill="midnightblue" stroke="midnightblue" points="292.56,-17.65 302.34,-13.58 292.16,-10.66 292.56,-17.65"/>
</g>
<!-- Node15&#45;&gt;Node10 -->
<g id="edge65" class="edge">
<title>Node15&#45;&gt;Node10</title>
<path fill="none" stroke="midnightblue" d="M454.69,-897.35C654.93,-871.72 1282,-760.64 1282,-374.5 1282,-374.5 1282,-374.5 1282,-132 1282,-92.05 1267.68,-77.49 1234,-56 1188.42,-26.92 1039.04,-16.54 951.18,-12.9"/>
<polygon fill="midnightblue" stroke="midnightblue" points="951.18,-9.4 941.05,-12.5 950.9,-16.4 951.18,-9.4"/>
</g>
<!-- Node16 -->
<g id="node16" class="node">
<title>Node16</title>
<g id="a_node16"><a xlink:href="deprecated_8h.html" target="_top" xlink:title=" ">
<polygon fill="white" stroke="black" points="179.5,-839.5 179.5,-858.5 298.5,-858.5 298.5,-839.5 179.5,-839.5"/>
<text text-anchor="middle" x="239" y="-846.5" font-family="Helvetica,sans-Serif" font-size="10.00">odp/api/deprecated.h</text>
</a>
</g>
</g>
<!-- Node15&#45;&gt;Node16 -->
<g id="edge18" class="edge">
<title>Node15&#45;&gt;Node16</title>
<path fill="none" stroke="midnightblue" d="M369.44,-895.44C343.48,-886.4 302.33,-872.06 273.2,-861.92"/>
<polygon fill="midnightblue" stroke="midnightblue" points="274.04,-858.5 263.45,-858.52 271.74,-865.11 274.04,-858.5"/>
</g>
<!-- Node18 -->
<g id="node18" class="node">
<title>Node18</title>
<g id="a_node18"><a xlink:href="api_2packet__types_8h.html" target="_top" xlink:title=" ">
<polygon fill="white" stroke="black" points="568.5,-615.5 568.5,-634.5 697.5,-634.5 697.5,-615.5 568.5,-615.5"/>
<text text-anchor="middle" x="633" y="-622.5" font-family="Helvetica,sans-Serif" font-size="10.00">odp/api/packet_types.h</text>
</a>
</g>
</g>
<!-- Node15&#45;&gt;Node18 -->
<g id="edge22" class="edge">
<title>Node15&#45;&gt;Node18</title>
<path fill="none" stroke="midnightblue" d="M420.19,-895.41C458.42,-881.03 525,-848.2 525,-794 525,-794 525,-794 525,-736 525,-705.77 525.57,-694.15 545,-671 557.54,-656.06 576.3,-645.51 593.28,-638.41"/>
<polygon fill="midnightblue" stroke="midnightblue" points="594.96,-641.5 603.01,-634.61 592.42,-634.98 594.96,-641.5"/>
</g>
<!-- Node29 -->
<g id="node29" class="node">
<title>Node29</title>
<g id="a_node29"><a xlink:href="api_2pool__types_8h.html" target="_top" xlink:title=" ">
<polygon fill="white" stroke="black" points="335,-839.5 335,-858.5 453,-858.5 453,-839.5 335,-839.5"/>
<text text-anchor="middle" x="394" y="-846.5" font-family="Helvetica,sans-Serif" font-size="10.00">odp/api/pool_types.h</text>
</a>
</g>
</g>
<!-- Node15&#45;&gt;Node29 -->
<g id="edge45" class="edge">
<title>Node15&#45;&gt;Node29</title>
<path fill="none" stroke="midnightblue" d="M394,-895.08C394,-888.01 394,-877.86 394,-868.99"/>
<polygon fill="midnightblue" stroke="midnightblue" points="397.5,-868.75 394,-858.75 390.5,-868.75 397.5,-868.75"/>
</g>
<!-- Node17 -->
<g id="node17" class="node">
<title>Node17</title>
<g id="a_node17"><a xlink:href="spec_2deprecated_8h.html" target="_top" xlink:title=" ">
<polygon fill="white" stroke="black" points="438.5,-62 438.5,-81 583.5,-81 583.5,-62 438.5,-62"/>
<text text-anchor="middle" x="511" y="-69" font-family="Helvetica,sans-Serif" font-size="10.00">odp/api/spec/deprecated.h</text>
</a>
</g>
</g>
<!-- Node16&#45;&gt;Node17 -->
<g id="edge19" class="edge">
<title>Node16&#45;&gt;Node17</title>
<path fill="none" stroke="midnightblue" d="M224.34,-839.4C212.59,-831.58 196.97,-818.86 190,-803 186.42,-794.86 187.22,-791.44 190,-783 268.72,-543.91 454.78,-565.39 519,-322 541.08,-238.32 523.84,-133.38 515.2,-91.26"/>
<polygon fill="midnightblue" stroke="midnightblue" points="518.58,-90.37 513.07,-81.32 511.74,-91.83 518.58,-90.37"/>
</g>
<!-- Node17&#45;&gt;Node5 -->
<g id="edge20" class="edge">
<title>Node17&#45;&gt;Node5</title>
<path fill="none" stroke="midnightblue" d="M489.8,-61.98C464.63,-51.86 422.46,-34.9 393.72,-23.35"/>
<polygon fill="midnightblue" stroke="midnightblue" points="394.75,-19.99 384.17,-19.51 392.14,-26.49 394.75,-19.99"/>
</g>
<!-- Node17&#45;&gt;Node10 -->
<g id="edge21" class="edge">
<title>Node17&#45;&gt;Node10</title>
<path fill="none" stroke="midnightblue" d="M564.59,-61.98C632.49,-51.17 749.36,-32.58 821.62,-21.08"/>
<polygon fill="midnightblue" stroke="midnightblue" points="822.19,-24.54 831.51,-19.51 821.09,-17.62 822.19,-24.54"/>
</g>
<!-- Node18&#45;&gt;Node11 -->
<g id="edge24" class="edge">
<title>Node18&#45;&gt;Node11</title>
<path fill="none" stroke="midnightblue" d="M663.52,-615.48C695.4,-606.57 746.23,-592.37 786.16,-581.22"/>
<polygon fill="midnightblue" stroke="midnightblue" points="787.11,-584.58 795.8,-578.52 785.23,-577.84 787.11,-584.58"/>
</g>
<!-- Node19 -->
<g id="node19" class="node">
<title>Node19</title>
<g id="a_node19"><a xlink:title=" ">
<polygon fill="white" stroke="#bfbfbf" points="456,-548.5 456,-578.5 562,-578.5 562,-548.5 456,-548.5"/>
<text text-anchor="start" x="464" y="-566.5" font-family="Helvetica,sans-Serif" font-size="10.00">odp/api/abi/packet</text>
<text text-anchor="middle" x="509" y="-555.5" font-family="Helvetica,sans-Serif" font-size="10.00">_io_types.h</text>
</a>
</g>
</g>
<!-- Node18&#45;&gt;Node19 -->
<g id="edge23" class="edge">
<title>Node18&#45;&gt;Node19</title>
<path fill="none" stroke="midnightblue" d="M615.23,-615.48C597.58,-607 569.93,-593.74 547.27,-582.86"/>
<polygon fill="midnightblue" stroke="midnightblue" points="548.75,-579.69 538.22,-578.52 545.73,-586 548.75,-579.69"/>
</g>
<!-- Node20 -->
<g id="node20" class="node">
<title>Node20</title>
<g id="a_node20"><a xlink:href="api_2spec_2packet__types_8h.html" target="_top" xlink:title=" ">
<polygon fill="white" stroke="black" points="580.5,-548.5 580.5,-578.5 693.5,-578.5 693.5,-548.5 580.5,-548.5"/>
<text text-anchor="start" x="588.5" y="-566.5" font-family="Helvetica,sans-Serif" font-size="10.00">odp/api/spec/packet</text>
<text text-anchor="middle" x="637" y="-555.5" font-family="Helvetica,sans-Serif" font-size="10.00">_types.h</text>
</a>
</g>
</g>
<!-- Node18&#45;&gt;Node20 -->
<g id="edge25" class="edge">
<title>Node18&#45;&gt;Node20</title>
<path fill="none" stroke="midnightblue" d="M633.57,-615.48C634.04,-608.47 634.73,-598.19 635.37,-588.7"/>
<polygon fill="midnightblue" stroke="midnightblue" points="638.88,-588.74 636.06,-578.52 631.89,-588.27 638.88,-588.74"/>
</g>
<!-- Node20&#45;&gt;Node5 -->
<g id="edge26" class="edge">
<title>Node20&#45;&gt;Node5</title>
<path fill="none" stroke="midnightblue" d="M614.04,-548.43C584.79,-528.55 538,-489.27 538,-441.5 538,-441.5 538,-441.5 538,-372.5 538,-261.19 476.31,-233.05 379,-179 336.97,-155.66 321.04,-162.28 277,-143 270.9,-140.33 174.44,-92.7 171,-87 140.99,-37.2 226.05,-20 292.44,-14.08"/>
<polygon fill="midnightblue" stroke="midnightblue" points="292.82,-17.56 302.5,-13.25 292.24,-10.58 292.82,-17.56"/>
</g>
<!-- Node20&#45;&gt;Node10 -->
<g id="edge44" class="edge">
<title>Node20&#45;&gt;Node10</title>
<path fill="none" stroke="midnightblue" d="M647.32,-548.41C662.22,-526.64 688,-482.99 688,-441.5 688,-441.5 688,-441.5 688,-188 688,-101.25 795,-46.23 851.29,-23.29"/>
<polygon fill="midnightblue" stroke="midnightblue" points="852.84,-26.44 860.84,-19.5 850.26,-19.93 852.84,-26.44"/>
</g>
<!-- Node21 -->
<g id="node21" class="node">
<title>Node21</title>
<g id="a_node21"><a xlink:href="api_2proto__stats__types_8h.html" target="_top" xlink:title=" ">
<polygon fill="white" stroke="black" points="362,-358.5 362,-388.5 472,-388.5 472,-358.5 362,-358.5"/>
<text text-anchor="start" x="370" y="-376.5" font-family="Helvetica,sans-Serif" font-size="10.00">odp/api/proto_stats</text>
<text text-anchor="middle" x="417" y="-365.5" font-family="Helvetica,sans-Serif" font-size="10.00">_types.h</text>
</a>
</g>
</g>
<!-- Node20&#45;&gt;Node21 -->
<g id="edge27" class="edge">
<title>Node20&#45;&gt;Node21</title>
<path fill="none" stroke="midnightblue" d="M592.67,-548.46C570.61,-540.1 544.38,-527.98 524,-512 482.54,-479.5 447.97,-427.59 430.11,-397.71"/>
<polygon fill="midnightblue" stroke="midnightblue" points="432.98,-395.7 424.9,-388.84 426.94,-399.24 432.98,-395.7"/>
</g>
<!-- Node24 -->
<g id="node24" class="node">
<title>Node24</title>
<g id="a_node24"><a xlink:href="api_2queue__types_8h.html" target="_top" xlink:title=" ">
<polygon fill="white" stroke="black" points="848.5,-492.5 848.5,-511.5 975.5,-511.5 975.5,-492.5 848.5,-492.5"/>
<text text-anchor="middle" x="912" y="-499.5" font-family="Helvetica,sans-Serif" font-size="10.00">odp/api/queue_types.h</text>
</a>
</g>
</g>
<!-- Node20&#45;&gt;Node24 -->
<g id="edge33" class="edge">
<title>Node20&#45;&gt;Node24</title>
<path fill="none" stroke="midnightblue" d="M693.65,-550.24C743.3,-539.5 814.78,-524.03 862.27,-513.76"/>
<polygon fill="midnightblue" stroke="midnightblue" points="863.28,-517.12 872.31,-511.59 861.8,-510.28 863.28,-517.12"/>
</g>
<!-- Node22 -->
<g id="node22" class="node">
<title>Node22</title>
<g id="a_node22"><a xlink:title=" ">
<polygon fill="white" stroke="#bfbfbf" points="382,-291.5 382,-321.5 510,-321.5 510,-291.5 382,-291.5"/>
<text text-anchor="start" x="390" y="-309.5" font-family="Helvetica,sans-Serif" font-size="10.00">odp/api/abi/proto_stats</text>
<text text-anchor="middle" x="446" y="-298.5" font-family="Helvetica,sans-Serif" font-size="10.00">_types.h</text>
</a>
</g>
</g>
<!-- Node21&#45;&gt;Node22 -->
<g id="edge28" class="edge">
<title>Node21&#45;&gt;Node22</title>
<path fill="none" stroke="midnightblue" d="M423.29,-358.4C426.86,-350.39 431.43,-340.16 435.53,-330.98"/>
<polygon fill="midnightblue" stroke="midnightblue" points="438.84,-332.13 439.72,-321.58 432.45,-329.28 438.84,-332.13"/>
</g>
<!-- Node23 -->
<g id="node23" class="node">
<title>Node23</title>
<g id="a_node23"><a xlink:href="api_2spec_2proto__stats__types_8h.html" target="_top" xlink:title=" ">
<polygon fill="white" stroke="black" points="256.5,-291.5 256.5,-321.5 363.5,-321.5 363.5,-291.5 256.5,-291.5"/>
<text text-anchor="start" x="264.5" y="-309.5" font-family="Helvetica,sans-Serif" font-size="10.00">odp/api/spec/proto</text>
<text text-anchor="middle" x="310" y="-298.5" font-family="Helvetica,sans-Serif" font-size="10.00">_stats_types.h</text>
</a>
</g>
</g>
<!-- Node21&#45;&gt;Node23 -->
<g id="edge29" class="edge">
<title>Node21&#45;&gt;Node23</title>
<path fill="none" stroke="midnightblue" d="M393.78,-358.4C378.64,-349.2 358.67,-337.07 342.03,-326.95"/>
<polygon fill="midnightblue" stroke="midnightblue" points="343.54,-323.78 333.17,-321.58 339.9,-329.76 343.54,-323.78"/>
</g>
<!-- Node23&#45;&gt;Node2 -->
<g id="edge31" class="edge">
<title>Node23&#45;&gt;Node2</title>
<path fill="none" stroke="midnightblue" d="M286.06,-291.4C269.87,-281.86 248.59,-269.32 232.5,-259.84"/>
<polygon fill="midnightblue" stroke="midnightblue" points="234.09,-256.72 223.7,-254.66 230.54,-262.75 234.09,-256.72"/>
</g>
<!-- Node23&#45;&gt;Node5 -->
<g id="edge30" class="edge">
<title>Node23&#45;&gt;Node5</title>
<path fill="none" stroke="midnightblue" d="M324.12,-291.43C347.14,-266.78 387.63,-214.97 361,-179 328.37,-134.93 293.65,-164 243,-143 230.79,-137.94 144.8,-98.34 138,-87 130.91,-75.19 129.27,-66.65 138,-56 157.27,-32.5 233.5,-21.02 291.95,-15.59"/>
<polygon fill="midnightblue" stroke="midnightblue" points="292.62,-19.05 302.27,-14.68 292,-12.07 292.62,-19.05"/>
</g>
<!-- Node23&#45;&gt;Node10 -->
<g id="edge32" class="edge">
<title>Node23&#45;&gt;Node10</title>
<path fill="none" stroke="midnightblue" d="M330.89,-291.36C401.39,-243.83 630.65,-90.87 712,-56 748.74,-40.25 792.29,-28.96 826.51,-21.63"/>
<polygon fill="midnightblue" stroke="midnightblue" points="827.28,-25.04 836.36,-19.57 825.85,-18.19 827.28,-25.04"/>
</g>
<!-- Node24&#45;&gt;Node14 -->
<g id="edge34" class="edge">
<title>Node24&#45;&gt;Node14</title>
<path fill="none" stroke="midnightblue" d="M945.1,-492.48C985.92,-481.96 1055.41,-464.06 1100.24,-452.51"/>
<polygon fill="midnightblue" stroke="midnightblue" points="1101.15,-455.89 1109.96,-450.01 1099.41,-449.11 1101.15,-455.89"/>
</g>
<!-- Node25 -->
<g id="node25" class="node">
<title>Node25</title>
<g id="a_node25"><a xlink:href="api_2spec_2queue__types_8h.html" target="_top" xlink:title=" ">
<polygon fill="white" stroke="black" points="856.5,-425.5 856.5,-455.5 967.5,-455.5 967.5,-425.5 856.5,-425.5"/>
<text text-anchor="start" x="864.5" y="-443.5" font-family="Helvetica,sans-Serif" font-size="10.00">odp/api/spec/queue</text>
<text text-anchor="middle" x="912" y="-432.5" font-family="Helvetica,sans-Serif" font-size="10.00">_types.h</text>
</a>
</g>
</g>
<!-- Node24&#45;&gt;Node25 -->
<g id="edge35" class="edge">
<title>Node24&#45;&gt;Node25</title>
<path fill="none" stroke="midnightblue" d="M912,-492.48C912,-485.47 912,-475.19 912,-465.7"/>
<polygon fill="midnightblue" stroke="midnightblue" points="915.5,-465.52 912,-455.52 908.5,-465.52 915.5,-465.52"/>
</g>
<!-- Node25&#45;&gt;Node5 -->
<g id="edge36" class="edge">
<title>Node25&#45;&gt;Node5</title>
<path fill="none" stroke="midnightblue" d="M875.04,-425.49C831.2,-406.18 764,-366.89 764,-307.5 764,-307.5 764,-307.5 764,-132 764,-63.88 549.24,-30.66 434.05,-17.74"/>
<polygon fill="midnightblue" stroke="midnightblue" points="434.23,-14.24 423.9,-16.63 433.46,-21.2 434.23,-14.24"/>
</g>
<!-- Node25&#45;&gt;Node10 -->
<g id="edge43" class="edge">
<title>Node25&#45;&gt;Node10</title>
<path fill="none" stroke="midnightblue" d="M936.65,-425.38C952.65,-415.82 973.67,-402.52 991,-389 1025.21,-362.31 1044.82,-361.84 1062,-322 1067.46,-309.35 1064.56,-304.54 1062,-291 1041.19,-180.78 1044.67,-139.69 970,-56 956.99,-41.42 938.11,-30.77 921.45,-23.49"/>
<polygon fill="midnightblue" stroke="midnightblue" points="922.53,-20.16 911.95,-19.6 919.88,-26.63 922.53,-20.16"/>
</g>
<!-- Node26 -->
<g id="node26" class="node">
<title>Node26</title>
<g id="a_node26"><a xlink:href="api_2schedule__types_8h.html" target="_top" xlink:title=" ">
<polygon fill="white" stroke="black" points="842,-364 842,-383 982,-383 982,-364 842,-364"/>
<text text-anchor="middle" x="912" y="-371" font-family="Helvetica,sans-Serif" font-size="10.00">odp/api/schedule_types.h</text>
</a>
</g>
</g>
<!-- Node25&#45;&gt;Node26 -->
<g id="edge37" class="edge">
<title>Node25&#45;&gt;Node26</title>
<path fill="none" stroke="midnightblue" d="M912,-425.4C912,-416.06 912,-403.71 912,-393.52"/>
<polygon fill="midnightblue" stroke="midnightblue" points="915.5,-393.19 912,-383.19 908.5,-393.19 915.5,-393.19"/>
</g>
<!-- Node27 -->
<g id="node27" class="node">
<title>Node27</title>
<g id="a_node27"><a xlink:title=" ">
<polygon fill="white" stroke="#bfbfbf" points="935.5,-291.5 935.5,-321.5 1052.5,-321.5 1052.5,-291.5 935.5,-291.5"/>
<text text-anchor="start" x="943.5" y="-309.5" font-family="Helvetica,sans-Serif" font-size="10.00">odp/api/abi/schedule</text>
<text text-anchor="middle" x="994" y="-298.5" font-family="Helvetica,sans-Serif" font-size="10.00">_types.h</text>
</a>
</g>
</g>
<!-- Node26&#45;&gt;Node27 -->
<g id="edge38" class="edge">
<title>Node26&#45;&gt;Node27</title>
<path fill="none" stroke="midnightblue" d="M923.06,-363.73C934.57,-354.61 953,-340 968.19,-327.96"/>
<polygon fill="midnightblue" stroke="midnightblue" points="970.56,-330.54 976.23,-321.59 966.22,-325.06 970.56,-330.54"/>
</g>
<!-- Node28 -->
<g id="node28" class="node">
<title>Node28</title>
<g id="a_node28"><a xlink:href="api_2spec_2schedule__types_8h.html" target="_top" xlink:title=" ">
<polygon fill="white" stroke="black" points="792.5,-291.5 792.5,-321.5 917.5,-321.5 917.5,-291.5 792.5,-291.5"/>
<text text-anchor="start" x="800.5" y="-309.5" font-family="Helvetica,sans-Serif" font-size="10.00">odp/api/spec/schedule</text>
<text text-anchor="middle" x="855" y="-298.5" font-family="Helvetica,sans-Serif" font-size="10.00">_types.h</text>
</a>
</g>
</g>
<!-- Node26&#45;&gt;Node28 -->
<g id="edge39" class="edge">
<title>Node26&#45;&gt;Node28</title>
<path fill="none" stroke="midnightblue" d="M904.31,-363.73C896.61,-354.95 884.45,-341.08 874.13,-329.31"/>
<polygon fill="midnightblue" stroke="midnightblue" points="876.58,-326.8 867.35,-321.59 871.32,-331.42 876.58,-326.8"/>
</g>
<!-- Node28&#45;&gt;Node2 -->
<g id="edge41" class="edge">
<title>Node28&#45;&gt;Node2</title>
<path fill="none" stroke="midnightblue" d="M792.47,-299.74C670.2,-288.48 400.48,-263.64 275.27,-252.1"/>
<polygon fill="midnightblue" stroke="midnightblue" points="275.34,-248.6 265.06,-251.16 274.7,-255.57 275.34,-248.6"/>
</g>
<!-- Node28&#45;&gt;Node5 -->
<g id="edge40" class="edge">
<title>Node28&#45;&gt;Node5</title>
<path fill="none" stroke="midnightblue" d="M843.5,-291.16C827.91,-270.23 802,-229.49 802,-190 802,-190 802,-190 802,-132 802,-96.58 805.4,-78.45 778,-56 751.98,-34.68 545.33,-20.61 433.81,-14.49"/>
<polygon fill="midnightblue" stroke="midnightblue" points="433.82,-10.99 423.65,-13.94 433.44,-17.98 433.82,-10.99"/>
</g>
<!-- Node28&#45;&gt;Node10 -->
<g id="edge42" class="edge">
<title>Node28&#45;&gt;Node10</title>
<path fill="none" stroke="midnightblue" d="M884.39,-291.46C917.88,-273.18 968,-237.83 968,-190 968,-190 968,-190 968,-132 968,-97.18 968.7,-84.71 949,-56 939.91,-42.75 925.55,-32.14 912.74,-24.56"/>
<polygon fill="midnightblue" stroke="midnightblue" points="914.22,-21.37 903.78,-19.57 910.82,-27.49 914.22,-21.37"/>
</g>
<!-- Node30 -->
<g id="node30" class="node">
<title>Node30</title>
<g id="a_node30"><a xlink:title=" ">
<polygon fill="white" stroke="#bfbfbf" points="361,-783.5 361,-802.5 497,-802.5 497,-783.5 361,-783.5"/>
<text text-anchor="middle" x="429" y="-790.5" font-family="Helvetica,sans-Serif" font-size="10.00">odp/api/abi/pool_types.h</text>
</a>
</g>
</g>
<!-- Node29&#45;&gt;Node30 -->
<g id="edge46" class="edge">
<title>Node29&#45;&gt;Node30</title>
<path fill="none" stroke="midnightblue" d="M399.78,-839.08C404.67,-831.53 411.83,-820.49 417.83,-811.23"/>
<polygon fill="midnightblue" stroke="midnightblue" points="420.83,-813.05 423.33,-802.75 414.95,-809.24 420.83,-813.05"/>
</g>
<!-- Node31 -->
<g id="node31" class="node">
<title>Node31</title>
<g id="a_node31"><a xlink:href="api_2spec_2pool__types_8h.html" target="_top" xlink:title=" ">
<polygon fill="white" stroke="black" points="199.5,-783.5 199.5,-802.5 342.5,-802.5 342.5,-783.5 199.5,-783.5"/>
<text text-anchor="middle" x="271" y="-790.5" font-family="Helvetica,sans-Serif" font-size="10.00">odp/api/spec/pool_types.h</text>
</a>
</g>
</g>
<!-- Node29&#45;&gt;Node31 -->
<g id="edge47" class="edge">
<title>Node29&#45;&gt;Node31</title>
<path fill="none" stroke="midnightblue" d="M374.51,-839.44C354.36,-830.6 322.68,-816.69 299.67,-806.59"/>
<polygon fill="midnightblue" stroke="midnightblue" points="300.96,-803.33 290.4,-802.52 298.15,-809.74 300.96,-803.33"/>
</g>
<!-- Node31&#45;&gt;Node2 -->
<g id="edge49" class="edge">
<title>Node31&#45;&gt;Node2</title>
<path fill="none" stroke="midnightblue" d="M266.74,-783.14C252.73,-753.16 209,-652.51 209,-564.5 209,-564.5 209,-564.5 209,-501 209,-412.78 209,-307.4 209,-265.02"/>
<polygon fill="midnightblue" stroke="midnightblue" points="212.5,-264.81 209,-254.81 205.5,-264.81 212.5,-264.81"/>
</g>
<!-- Node31&#45;&gt;Node5 -->
<g id="edge48" class="edge">
<title>Node31&#45;&gt;Node5</title>
<path fill="none" stroke="midnightblue" d="M263.81,-783.09C240.88,-753.77 171,-656.83 171,-564.5 171,-564.5 171,-564.5 171,-501 171,-373.18 38,-373.82 38,-246 38,-246 38,-246 38,-132 38,-92.28 51.97,-78.05 85,-56 118.04,-33.94 221.16,-21.75 292.07,-15.8"/>
<polygon fill="midnightblue" stroke="midnightblue" points="292.6,-19.26 302.28,-14.96 292.03,-12.29 292.6,-19.26"/>
</g>
<!-- Node31&#45;&gt;Node10 -->
<g id="edge63" class="edge">
<title>Node31&#45;&gt;Node10</title>
<path fill="none" stroke="midnightblue" d="M342.55,-784.03C345.74,-783.68 348.91,-783.34 352,-783 502.63,-766.63 542.85,-778.75 691,-747 845.33,-713.92 891.94,-714.99 1028,-635 1157.66,-558.78 1244,-524.9 1244,-374.5 1244,-374.5 1244,-374.5 1244,-132 1244,-94.24 1236.67,-78.04 1206,-56 1166.4,-27.53 1033.26,-16.99 951.41,-13.14"/>
<polygon fill="midnightblue" stroke="midnightblue" points="951.34,-9.64 941.2,-12.68 951.03,-16.63 951.34,-9.64"/>
</g>
<!-- Node32 -->
<g id="node32" class="node">
<title>Node32</title>
<g id="a_node32"><a xlink:href="api_2dma__types_8h.html" target="_top" xlink:title=" ">
<polygon fill="white" stroke="black" points="562.5,-727.5 562.5,-746.5 681.5,-746.5 681.5,-727.5 562.5,-727.5"/>
<text text-anchor="middle" x="622" y="-734.5" font-family="Helvetica,sans-Serif" font-size="10.00">odp/api/dma_types.h</text>
</a>
</g>
</g>
<!-- Node31&#45;&gt;Node32 -->
<g id="edge50" class="edge">
<title>Node31&#45;&gt;Node32</title>
<path fill="none" stroke="midnightblue" d="M326.62,-783.44C389.13,-773.83 490.52,-758.23 556.73,-748.04"/>
<polygon fill="midnightblue" stroke="midnightblue" points="557.29,-751.5 566.64,-746.52 556.23,-744.58 557.29,-751.5"/>
</g>
<!-- Node33 -->
<g id="node33" class="node">
<title>Node33</title>
<g id="a_node33"><a xlink:title=" ">
<polygon fill="white" stroke="#bfbfbf" points="553.5,-671.5 553.5,-690.5 690.5,-690.5 690.5,-671.5 553.5,-671.5"/>
<text text-anchor="middle" x="622" y="-678.5" font-family="Helvetica,sans-Serif" font-size="10.00">odp/api/abi/dma_types.h</text>
</a>
</g>
</g>
<!-- Node32&#45;&gt;Node33 -->
<g id="edge51" class="edge">
<title>Node32&#45;&gt;Node33</title>
<path fill="none" stroke="midnightblue" d="M622,-727.08C622,-720.01 622,-709.86 622,-700.99"/>
<polygon fill="midnightblue" stroke="midnightblue" points="625.5,-700.75 622,-690.75 618.5,-700.75 625.5,-700.75"/>
</g>
<!-- Node34 -->
<g id="node34" class="node">
<title>Node34</title>
<g id="a_node34"><a xlink:href="api_2spec_2dma__types_8h.html" target="_top" xlink:title=" ">
<polygon fill="white" stroke="black" points="709,-671.5 709,-690.5 853,-690.5 853,-671.5 709,-671.5"/>
<text text-anchor="middle" x="781" y="-678.5" font-family="Helvetica,sans-Serif" font-size="10.00">odp/api/spec/dma_types.h</text>
</a>
</g>
</g>
<!-- Node32&#45;&gt;Node34 -->
<g id="edge52" class="edge">
<title>Node32&#45;&gt;Node34</title>
<path fill="none" stroke="midnightblue" d="M647.19,-727.44C673.94,-718.36 716.4,-703.94 746.31,-693.78"/>
<polygon fill="midnightblue" stroke="midnightblue" points="747.58,-697.05 755.92,-690.52 745.33,-690.42 747.58,-697.05"/>
</g>
<!-- Node34&#45;&gt;Node2 -->
<g id="edge61" class="edge">
<title>Node34&#45;&gt;Node2</title>
<path fill="none" stroke="midnightblue" d="M708.98,-671.87C563.22,-654.43 247,-611.21 247,-564.5 247,-564.5 247,-564.5 247,-501 247,-411.62 223.88,-306.52 213.71,-264.61"/>
<polygon fill="midnightblue" stroke="midnightblue" points="217.06,-263.6 211.26,-254.74 210.27,-265.29 217.06,-263.6"/>
</g>
<!-- Node34&#45;&gt;Node5 -->
<g id="edge53" class="edge">
<title>Node34&#45;&gt;Node5</title>
<path fill="none" stroke="midnightblue" d="M773.58,-671.4C758.57,-653.06 726,-608.25 726,-564.5 726,-564.5 726,-564.5 726,-188 726,-146.36 629.79,-75.5 593,-56 543.77,-29.9 481.39,-18.85 434.02,-14.21"/>
<polygon fill="midnightblue" stroke="midnightblue" points="434.12,-10.71 423.84,-13.29 433.49,-17.68 434.12,-10.71"/>
</g>
<!-- Node34&#45;&gt;Node10 -->
<g id="edge62" class="edge">
<title>Node34&#45;&gt;Node10</title>
<path fill="none" stroke="midnightblue" d="M853.01,-677.89C930.26,-671.33 1042,-647.5 1042,-564.5 1042,-564.5 1042,-564.5 1042,-501 1042,-466.07 1045.99,-456.04 1062,-425 1071.54,-406.49 1079.96,-405.99 1092,-389 1112.05,-360.7 1118.66,-354.01 1132,-322 1163.6,-246.18 1161.24,-223.41 1178,-143 1185.93,-104.94 1212.38,-85.44 1187,-56 1157.23,-21.47 1031.1,-13.02 951.56,-11.2"/>
<polygon fill="midnightblue" stroke="midnightblue" points="951.2,-7.69 941.14,-10.99 951.07,-14.69 951.2,-7.69"/>
</g>
<!-- Node34&#45;&gt;Node18 -->
<g id="edge59" class="edge">
<title>Node34&#45;&gt;Node18</title>
<path fill="none" stroke="midnightblue" d="M757.55,-671.44C732.87,-662.44 693.81,-648.19 666.02,-638.05"/>
<polygon fill="midnightblue" stroke="midnightblue" points="666.94,-634.66 656.34,-634.52 664.54,-641.23 666.94,-634.66"/>
</g>
<!-- Node34&#45;&gt;Node24 -->
<g id="edge60" class="edge">
<title>Node34&#45;&gt;Node24</title>
<path fill="none" stroke="midnightblue" d="M799.85,-671.46C829.04,-657.1 884.26,-625.08 908,-579 917.15,-561.23 916.89,-537.92 915.14,-521.83"/>
<polygon fill="midnightblue" stroke="midnightblue" points="918.55,-520.99 913.71,-511.56 911.62,-521.95 918.55,-520.99"/>
</g>
<!-- Node35 -->
<g id="node35" class="node">
<title>Node35</title>
<g id="a_node35"><a xlink:href="api_2event__types_8h.html" target="_top" xlink:title=" ">
<polygon fill="white" stroke="black" points="1043.5,-123.5 1043.5,-142.5 1168.5,-142.5 1168.5,-123.5 1043.5,-123.5"/>
<text text-anchor="middle" x="1106" y="-130.5" font-family="Helvetica,sans-Serif" font-size="10.00">odp/api/event_types.h</text>
</a>
</g>
</g>
<!-- Node34&#45;&gt;Node35 -->
<g id="edge54" class="edge">
<title>Node34&#45;&gt;Node35</title>
<path fill="none" stroke="midnightblue" d="M853.09,-672.63C918.25,-661.5 1004,-633.71 1004,-564.5 1004,-564.5 1004,-564.5 1004,-501 1004,-465.58 1011.57,-456.38 1028,-425 1058.64,-366.49 1119,-373.55 1119,-307.5 1119,-307.5 1119,-307.5 1119,-244 1119,-211.58 1113.36,-174.15 1109.51,-152.37"/>
<polygon fill="midnightblue" stroke="midnightblue" points="1112.95,-151.72 1107.7,-142.52 1106.07,-152.99 1112.95,-151.72"/>
</g>
<!-- Node36 -->
<g id="node36" class="node">
<title>Node36</title>
<g id="a_node36"><a xlink:title=" ">
<polygon fill="white" stroke="#bfbfbf" points="1034.5,-62 1034.5,-81 1177.5,-81 1177.5,-62 1034.5,-62"/>
<text text-anchor="middle" x="1106" y="-69" font-family="Helvetica,sans-Serif" font-size="10.00">odp/api/abi/event_types.h</text>
</a>
</g>
</g>
<!-- Node35&#45;&gt;Node36 -->
<g id="edge55" class="edge">
<title>Node35&#45;&gt;Node36</title>
<path fill="none" stroke="midnightblue" d="M1106,-123.48C1106,-115.08 1106,-101.98 1106,-91.16"/>
<polygon fill="midnightblue" stroke="midnightblue" points="1109.5,-91.01 1106,-81.01 1102.5,-91.01 1109.5,-91.01"/>
</g>
<!-- Node37 -->
<g id="node37" class="node">
<title>Node37</title>
<g id="a_node37"><a xlink:href="api_2spec_2event__types_8h.html" target="_top" xlink:title=" ">
<polygon fill="white" stroke="black" points="830.5,-56.5 830.5,-86.5 939.5,-86.5 939.5,-56.5 830.5,-56.5"/>
<text text-anchor="start" x="838.5" y="-74.5" font-family="Helvetica,sans-Serif" font-size="10.00">odp/api/spec/event</text>
<text text-anchor="middle" x="885" y="-63.5" font-family="Helvetica,sans-Serif" font-size="10.00">_types.h</text>
</a>
</g>
</g>
<!-- Node35&#45;&gt;Node37 -->
<g id="edge56" class="edge">
<title>Node35&#45;&gt;Node37</title>
<path fill="none" stroke="midnightblue" d="M1074.34,-123.48C1041.19,-114.55 988.29,-100.31 946.82,-89.14"/>
<polygon fill="midnightblue" stroke="midnightblue" points="947.65,-85.74 937.09,-86.52 945.83,-92.5 947.65,-85.74"/>
</g>
<!-- Node37&#45;&gt;Node5 -->
<g id="edge57" class="edge">
<title>Node37&#45;&gt;Node5</title>
<path fill="none" stroke="midnightblue" d="M830.49,-58.48C825.6,-57.57 820.72,-56.73 816,-56 681.56,-35.26 523.13,-22.07 433.74,-15.65"/>
<polygon fill="midnightblue" stroke="midnightblue" points="433.94,-12.15 423.71,-14.94 433.44,-19.14 433.94,-12.15"/>
</g>
<!-- Node37&#45;&gt;Node10 -->
<g id="edge58" class="edge">
<title>Node37&#45;&gt;Node10</title>
<path fill="none" stroke="midnightblue" d="M885,-56.4C885,-48.47 885,-38.46 885,-29.86"/>
<polygon fill="midnightblue" stroke="midnightblue" points="888.5,-29.66 885,-19.66 881.5,-29.66 888.5,-29.66"/>
</g>
</g>
</svg>
