<?xml version="1.0" encoding="UTF-8" standalone="no"?>
<!DOCTYPE svg PUBLIC "-//W3C//DTD SVG 1.1//EN"
 "http://www.w3.org/Graphics/SVG/1.1/DTD/svg11.dtd">
<!-- Generated by graphviz version 2.43.0 (0)
 -->
<!-- Title: dma_types.h Pages: 1 -->
<svg width="581pt" height="588pt"
 viewBox="0.00 0.00 581.00 588.00" xmlns="http://www.w3.org/2000/svg" xmlns:xlink="http://www.w3.org/1999/xlink">
<g id="graph0" class="graph" transform="scale(1 1) rotate(0) translate(4 584)">
<title>dma_types.h</title>
<polygon fill="white" stroke="transparent" points="-4,4 -4,-584 577,-584 577,4 -4,4"/>
<!-- Node1 -->
<g id="node1" class="node">
<title>Node1</title>
<g id="a_node1"><a xlink:title=" ">
<polygon fill="#bfbfbf" stroke="black" points="146.5,-560.5 146.5,-579.5 226.5,-579.5 226.5,-560.5 146.5,-560.5"/>
<text text-anchor="middle" x="186.5" y="-567.5" font-family="Helvetica,sans-Serif" font-size="10.00">dma_types.h</text>
</a>
</g>
</g>
<!-- Node2 -->
<g id="node2" class="node">
<title>Node2</title>
<g id="a_node2"><a xlink:href="api_2dma__types_8h.html" target="_top" xlink:title=" ">
<polygon fill="white" stroke="black" points="146.5,-504.5 146.5,-523.5 226.5,-523.5 226.5,-504.5 146.5,-504.5"/>
<text text-anchor="middle" x="186.5" y="-511.5" font-family="Helvetica,sans-Serif" font-size="10.00">dma_types.h</text>
</a>
</g>
</g>
<!-- Node1&#45;&gt;Node2 -->
<g id="edge1" class="edge">
<title>Node1&#45;&gt;Node2</title>
<path fill="none" stroke="midnightblue" d="M186.5,-549.8C186.5,-540.91 186.5,-530.78 186.5,-523.75"/>
<polygon fill="midnightblue" stroke="midnightblue" points="183,-550.08 186.5,-560.08 190,-550.08 183,-550.08"/>
</g>
<!-- Node3 -->
<g id="node3" class="node">
<title>Node3</title>
<g id="a_node3"><a xlink:href="spec_2dma_8h.html" target="_top" xlink:title=" ">
<polygon fill="white" stroke="black" points="48,-336.5 48,-355.5 95,-355.5 95,-336.5 48,-336.5"/>
<text text-anchor="middle" x="71.5" y="-343.5" font-family="Helvetica,sans-Serif" font-size="10.00">dma.h</text>
</a>
</g>
</g>
<!-- Node2&#45;&gt;Node3 -->
<g id="edge2" class="edge">
<title>Node2&#45;&gt;Node3</title>
<path fill="none" stroke="midnightblue" d="M174.56,-495.76C150.19,-460.59 95.52,-381.68 77.44,-355.57"/>
<polygon fill="midnightblue" stroke="midnightblue" points="171.75,-497.85 180.32,-504.08 177.5,-493.86 171.75,-497.85"/>
</g>
<!-- Node6 -->
<g id="node6" class="node">
<title>Node6</title>
<g id="a_node6"><a xlink:href="api_2spec_2pool__types_8h.html" target="_top" xlink:title=" ">
<polygon fill="white" stroke="black" points="181,-448.5 181,-467.5 260,-467.5 260,-448.5 181,-448.5"/>
<text text-anchor="middle" x="220.5" y="-455.5" font-family="Helvetica,sans-Serif" font-size="10.00">pool_types.h</text>
</a>
</g>
</g>
<!-- Node2&#45;&gt;Node6 -->
<g id="edge5" class="edge">
<title>Node2&#45;&gt;Node6</title>
<path fill="none" stroke="midnightblue" d="M197.48,-495.57C203.33,-486.27 210.27,-475.25 214.99,-467.75"/>
<polygon fill="midnightblue" stroke="midnightblue" points="194.48,-493.76 192.11,-504.08 200.4,-497.49 194.48,-493.76"/>
</g>
<!-- Node4 -->
<g id="node4" class="node">
<title>Node4</title>
<g id="a_node4"><a xlink:href="dma_8h.html" target="_top" xlink:title=" ">
<polygon fill="white" stroke="black" points="0,-112.5 0,-131.5 47,-131.5 47,-112.5 0,-112.5"/>
<text text-anchor="middle" x="23.5" y="-119.5" font-family="Helvetica,sans-Serif" font-size="10.00">dma.h</text>
</a>
</g>
</g>
<!-- Node3&#45;&gt;Node4 -->
<g id="edge3" class="edge">
<title>Node3&#45;&gt;Node4</title>
<path fill="none" stroke="midnightblue" d="M62.56,-327.37C53.01,-307.62 38.35,-274.4 31.5,-244 22.2,-202.72 22.57,-151.67 23.16,-131.64"/>
<polygon fill="midnightblue" stroke="midnightblue" points="59.44,-328.96 67.01,-336.38 65.72,-325.86 59.44,-328.96"/>
</g>
<!-- Node5 -->
<g id="node5" class="node">
<title>Node5</title>
<g id="a_node5"><a xlink:href="odp__api_8h.html" target="_top" xlink:title=" ">
<polygon fill="white" stroke="black" points="285.5,-0.5 285.5,-19.5 349.5,-19.5 349.5,-0.5 285.5,-0.5"/>
<text text-anchor="middle" x="317.5" y="-7.5" font-family="Helvetica,sans-Serif" font-size="10.00">odp_api.h</text>
</a>
</g>
</g>
<!-- Node4&#45;&gt;Node5 -->
<g id="edge4" class="edge">
<title>Node4&#45;&gt;Node5</title>
<path fill="none" stroke="midnightblue" d="M33.11,-103.3C42.24,-88.25 57.4,-67.34 76.5,-56 143.11,-16.46 236.82,-10.4 285.43,-10.19"/>
<polygon fill="midnightblue" stroke="midnightblue" points="29.95,-101.77 28,-112.18 36.02,-105.26 29.95,-101.77"/>
</g>
<!-- Node7 -->
<g id="node7" class="node">
<title>Node7</title>
<g id="a_node7"><a xlink:href="api_2pool__types_8h.html" target="_top" xlink:title=" ">
<polygon fill="white" stroke="black" points="262,-392.5 262,-411.5 341,-411.5 341,-392.5 262,-392.5"/>
<text text-anchor="middle" x="301.5" y="-399.5" font-family="Helvetica,sans-Serif" font-size="10.00">pool_types.h</text>
</a>
</g>
</g>
<!-- Node6&#45;&gt;Node7 -->
<g id="edge6" class="edge">
<title>Node6&#45;&gt;Node7</title>
<path fill="none" stroke="midnightblue" d="M242.07,-442.62C256.86,-432.76 276.01,-419.99 288.52,-411.65"/>
<polygon fill="midnightblue" stroke="midnightblue" points="239.89,-439.86 233.51,-448.32 243.78,-445.69 239.89,-439.86"/>
</g>
<!-- Node7&#45;&gt;Node3 -->
<g id="edge23" class="edge">
<title>Node7&#45;&gt;Node3</title>
<path fill="none" stroke="midnightblue" d="M255.07,-390.15C216.18,-381.05 159.21,-367.71 109.5,-356 104.88,-354.91 99.95,-353.75 95.21,-352.63"/>
<polygon fill="midnightblue" stroke="midnightblue" points="254.51,-393.61 265.04,-392.48 256.1,-386.8 254.51,-393.61"/>
</g>
<!-- Node8 -->
<g id="node8" class="node">
<title>Node8</title>
<g id="a_node8"><a xlink:href="api_2spec_2buffer_8h.html" target="_top" xlink:title=" ">
<polygon fill="white" stroke="black" points="520,-336.5 520,-355.5 573,-355.5 573,-336.5 520,-336.5"/>
<text text-anchor="middle" x="546.5" y="-343.5" font-family="Helvetica,sans-Serif" font-size="10.00">buffer.h</text>
</a>
</g>
</g>
<!-- Node7&#45;&gt;Node8 -->
<g id="edge7" class="edge">
<title>Node7&#45;&gt;Node8</title>
<path fill="none" stroke="midnightblue" d="M350.93,-391C393.57,-382.23 456.73,-368.9 511.5,-356 514.19,-355.37 516.98,-354.69 519.77,-353.99"/>
<polygon fill="midnightblue" stroke="midnightblue" points="350.18,-387.58 341.09,-393.02 351.58,-394.44 350.18,-387.58"/>
</g>
<!-- Node10 -->
<g id="node10" class="node">
<title>Node10</title>
<g id="a_node10"><a xlink:href="api_2spec_2classification_8h.html" target="_top" xlink:title=" ">
<polygon fill="white" stroke="black" points="41,-224.5 41,-243.5 130,-243.5 130,-224.5 41,-224.5"/>
<text text-anchor="middle" x="85.5" y="-231.5" font-family="Helvetica,sans-Serif" font-size="10.00">classification.h</text>
</a>
</g>
</g>
<!-- Node7&#45;&gt;Node10 -->
<g id="edge10" class="edge">
<title>Node7&#45;&gt;Node10</title>
<path fill="none" stroke="midnightblue" d="M252,-395.88C220.37,-390.43 180.08,-379.18 151.5,-356 113.4,-325.1 94,-266.1 87.78,-243.81"/>
<polygon fill="midnightblue" stroke="midnightblue" points="251.51,-399.35 261.94,-397.46 252.61,-392.44 251.51,-399.35"/>
</g>
<!-- Node16 -->
<g id="node16" class="node">
<title>Node16</title>
<g id="a_node16"><a xlink:href="api_2spec_2crypto_8h.html" target="_top" xlink:title=" ">
<polygon fill="white" stroke="black" points="273.5,-280.5 273.5,-299.5 329.5,-299.5 329.5,-280.5 273.5,-280.5"/>
<text text-anchor="middle" x="301.5" y="-287.5" font-family="Helvetica,sans-Serif" font-size="10.00">crypto.h</text>
</a>
</g>
</g>
<!-- Node7&#45;&gt;Node16 -->
<g id="edge19" class="edge">
<title>Node7&#45;&gt;Node16</title>
<path fill="none" stroke="midnightblue" d="M301.5,-382.35C301.5,-358.25 301.5,-317.31 301.5,-299.59"/>
<polygon fill="midnightblue" stroke="midnightblue" points="298,-382.37 301.5,-392.37 305,-382.37 298,-382.37"/>
</g>
<!-- Node18 -->
<g id="node18" class="node">
<title>Node18</title>
<g id="a_node18"><a xlink:href="api_2spec_2packet_8h.html" target="_top" xlink:title=" ">
<polygon fill="white" stroke="black" points="364.5,-224.5 364.5,-243.5 422.5,-243.5 422.5,-224.5 364.5,-224.5"/>
<text text-anchor="middle" x="393.5" y="-231.5" font-family="Helvetica,sans-Serif" font-size="10.00">packet.h</text>
</a>
</g>
</g>
<!-- Node7&#45;&gt;Node18 -->
<g id="edge24" class="edge">
<title>Node7&#45;&gt;Node18</title>
<path fill="none" stroke="midnightblue" d="M311.3,-383.31C330.92,-347.92 374.34,-269.56 388.75,-243.57"/>
<polygon fill="midnightblue" stroke="midnightblue" points="308.23,-381.63 306.45,-392.08 314.36,-385.03 308.23,-381.63"/>
</g>
<!-- Node20 -->
<g id="node20" class="node">
<title>Node20</title>
<g id="a_node20"><a xlink:href="api_2spec_2packet__io__types_8h.html" target="_top" xlink:title=" ">
<polygon fill="white" stroke="black" points="160.5,-336.5 160.5,-355.5 264.5,-355.5 264.5,-336.5 160.5,-336.5"/>
<text text-anchor="middle" x="212.5" y="-343.5" font-family="Helvetica,sans-Serif" font-size="10.00">packet_io_types.h</text>
</a>
</g>
</g>
<!-- Node7&#45;&gt;Node20 -->
<g id="edge27" class="edge">
<title>Node7&#45;&gt;Node20</title>
<path fill="none" stroke="midnightblue" d="M278.26,-386.9C261.94,-377 240.63,-364.07 226.76,-355.65"/>
<polygon fill="midnightblue" stroke="midnightblue" points="276.84,-390.13 287.2,-392.32 280.47,-384.14 276.84,-390.13"/>
</g>
<!-- Node24 -->
<g id="node24" class="node">
<title>Node24</title>
<g id="a_node24"><a xlink:href="api_2spec_2pool_8h.html" target="_top" xlink:title=" ">
<polygon fill="white" stroke="black" points="386,-336.5 386,-355.5 433,-355.5 433,-336.5 386,-336.5"/>
<text text-anchor="middle" x="409.5" y="-343.5" font-family="Helvetica,sans-Serif" font-size="10.00">pool.h</text>
</a>
</g>
</g>
<!-- Node7&#45;&gt;Node24 -->
<g id="edge37" class="edge">
<title>Node7&#45;&gt;Node24</title>
<path fill="none" stroke="midnightblue" d="M328.05,-387.73C348.05,-377.73 374.89,-364.31 392.19,-355.65"/>
<polygon fill="midnightblue" stroke="midnightblue" points="326.23,-384.72 318.85,-392.32 329.36,-390.98 326.23,-384.72"/>
</g>
<!-- Node26 -->
<g id="node26" class="node">
<title>Node26</title>
<g id="a_node26"><a xlink:href="api_2spec_2timer_8h.html" target="_top" xlink:title=" ">
<polygon fill="white" stroke="black" points="451,-336.5 451,-355.5 502,-355.5 502,-336.5 451,-336.5"/>
<text text-anchor="middle" x="476.5" y="-343.5" font-family="Helvetica,sans-Serif" font-size="10.00">timer.h</text>
</a>
</g>
</g>
<!-- Node7&#45;&gt;Node26 -->
<g id="edge40" class="edge">
<title>Node7&#45;&gt;Node26</title>
<path fill="none" stroke="midnightblue" d="M339.19,-389.37C372.92,-378.96 421.47,-363.98 450.89,-354.9"/>
<polygon fill="midnightblue" stroke="midnightblue" points="337.75,-386.15 329.23,-392.44 339.82,-392.84 337.75,-386.15"/>
</g>
<!-- Node9 -->
<g id="node9" class="node">
<title>Node9</title>
<g id="a_node9"><a xlink:href="api_2buffer_8h.html" target="_top" xlink:title=" ">
<polygon fill="white" stroke="black" points="518,-56.5 518,-75.5 571,-75.5 571,-56.5 518,-56.5"/>
<text text-anchor="middle" x="544.5" y="-63.5" font-family="Helvetica,sans-Serif" font-size="10.00">buffer.h</text>
</a>
</g>
</g>
<!-- Node8&#45;&gt;Node9 -->
<g id="edge8" class="edge">
<title>Node8&#45;&gt;Node9</title>
<path fill="none" stroke="midnightblue" d="M546.5,-326.25C546.5,-304.36 546.5,-267.05 546.5,-235 546.5,-235 546.5,-235 546.5,-177 546.5,-139.18 545.3,-94.06 544.76,-75.56"/>
<polygon fill="midnightblue" stroke="midnightblue" points="543,-326.44 546.5,-336.44 550,-326.44 543,-326.44"/>
</g>
<!-- Node9&#45;&gt;Node5 -->
<g id="edge9" class="edge">
<title>Node9&#45;&gt;Node5</title>
<path fill="none" stroke="midnightblue" d="M507.59,-56.22C463.69,-45.78 391.12,-28.51 349.5,-18.61"/>
<polygon fill="midnightblue" stroke="midnightblue" points="507.03,-59.68 517.57,-58.59 508.65,-52.87 507.03,-59.68"/>
</g>
<!-- Node11 -->
<g id="node11" class="node">
<title>Node11</title>
<g id="a_node11"><a xlink:href="api_2classification_8h.html" target="_top" xlink:title=" ">
<polygon fill="white" stroke="black" points="41,-168.5 41,-187.5 130,-187.5 130,-168.5 41,-168.5"/>
<text text-anchor="middle" x="85.5" y="-175.5" font-family="Helvetica,sans-Serif" font-size="10.00">classification.h</text>
</a>
</g>
</g>
<!-- Node10&#45;&gt;Node11 -->
<g id="edge11" class="edge">
<title>Node10&#45;&gt;Node11</title>
<path fill="none" stroke="midnightblue" d="M85.5,-213.8C85.5,-204.91 85.5,-194.78 85.5,-187.75"/>
<polygon fill="midnightblue" stroke="midnightblue" points="82,-214.08 85.5,-224.08 89,-214.08 82,-214.08"/>
</g>
<!-- Node11&#45;&gt;Node5 -->
<g id="edge18" class="edge">
<title>Node11&#45;&gt;Node5</title>
<path fill="none" stroke="midnightblue" d="M84.66,-157.89C84.6,-131.18 88.7,-82.96 116.5,-56 140.24,-32.97 234.64,-19.73 285.17,-14.15"/>
<polygon fill="midnightblue" stroke="midnightblue" points="81.17,-158.28 84.9,-168.19 88.17,-158.11 81.17,-158.28"/>
</g>
<!-- Node12 -->
<g id="node12" class="node">
<title>Node12</title>
<g id="a_node12"><a xlink:href="api_2spec_2ipsec_8h.html" target="_top" xlink:title=" ">
<polygon fill="white" stroke="black" points="219,-112.5 219,-131.5 270,-131.5 270,-112.5 219,-112.5"/>
<text text-anchor="middle" x="244.5" y="-119.5" font-family="Helvetica,sans-Serif" font-size="10.00">ipsec.h</text>
</a>
</g>
</g>
<!-- Node11&#45;&gt;Node12 -->
<g id="edge12" class="edge">
<title>Node11&#45;&gt;Node12</title>
<path fill="none" stroke="midnightblue" d="M120.33,-165.17C150.27,-155 192.72,-140.59 219.42,-131.52"/>
<polygon fill="midnightblue" stroke="midnightblue" points="119.04,-161.91 110.69,-168.44 121.29,-168.54 119.04,-161.91"/>
</g>
<!-- Node14 -->
<g id="node14" class="node">
<title>Node14</title>
<g id="a_node14"><a xlink:href="api_2spec_2packet__io_8h.html" target="_top" xlink:title=" ">
<polygon fill="white" stroke="black" points="122.5,-112.5 122.5,-131.5 194.5,-131.5 194.5,-112.5 122.5,-112.5"/>
<text text-anchor="middle" x="158.5" y="-119.5" font-family="Helvetica,sans-Serif" font-size="10.00">packet_io.h</text>
</a>
</g>
</g>
<!-- Node11&#45;&gt;Node14 -->
<g id="edge15" class="edge">
<title>Node11&#45;&gt;Node14</title>
<path fill="none" stroke="midnightblue" d="M105.64,-162.1C118.78,-152.38 135.48,-140.03 146.56,-131.83"/>
<polygon fill="midnightblue" stroke="midnightblue" points="103.19,-159.56 97.23,-168.32 107.35,-165.19 103.19,-159.56"/>
</g>
<!-- Node13 -->
<g id="node13" class="node">
<title>Node13</title>
<g id="a_node13"><a xlink:href="api_2ipsec_8h.html" target="_top" xlink:title=" ">
<polygon fill="white" stroke="black" points="219,-56.5 219,-75.5 270,-75.5 270,-56.5 219,-56.5"/>
<text text-anchor="middle" x="244.5" y="-63.5" font-family="Helvetica,sans-Serif" font-size="10.00">ipsec.h</text>
</a>
</g>
</g>
<!-- Node12&#45;&gt;Node13 -->
<g id="edge13" class="edge">
<title>Node12&#45;&gt;Node13</title>
<path fill="none" stroke="midnightblue" d="M244.5,-101.8C244.5,-92.91 244.5,-82.78 244.5,-75.75"/>
<polygon fill="midnightblue" stroke="midnightblue" points="241,-102.08 244.5,-112.08 248,-102.08 241,-102.08"/>
</g>
<!-- Node13&#45;&gt;Node5 -->
<g id="edge14" class="edge">
<title>Node13&#45;&gt;Node5</title>
<path fill="none" stroke="midnightblue" d="M264.64,-50.1C277.78,-40.38 294.48,-28.03 305.56,-19.83"/>
<polygon fill="midnightblue" stroke="midnightblue" points="262.19,-47.56 256.23,-56.32 266.35,-53.19 262.19,-47.56"/>
</g>
<!-- Node15 -->
<g id="node15" class="node">
<title>Node15</title>
<g id="a_node15"><a xlink:href="api_2packet__io_8h.html" target="_top" xlink:title=" ">
<polygon fill="white" stroke="black" points="125.5,-56.5 125.5,-75.5 197.5,-75.5 197.5,-56.5 125.5,-56.5"/>
<text text-anchor="middle" x="161.5" y="-63.5" font-family="Helvetica,sans-Serif" font-size="10.00">packet_io.h</text>
</a>
</g>
</g>
<!-- Node14&#45;&gt;Node15 -->
<g id="edge16" class="edge">
<title>Node14&#45;&gt;Node15</title>
<path fill="none" stroke="midnightblue" d="M159.57,-101.8C160.06,-92.91 160.62,-82.78 161.01,-75.75"/>
<polygon fill="midnightblue" stroke="midnightblue" points="156.06,-101.9 159,-112.08 163.04,-102.29 156.06,-101.9"/>
</g>
<!-- Node15&#45;&gt;Node5 -->
<g id="edge17" class="edge">
<title>Node15&#45;&gt;Node5</title>
<path fill="none" stroke="midnightblue" d="M195.67,-53.17C225.04,-43 266.7,-28.59 292.9,-19.52"/>
<polygon fill="midnightblue" stroke="midnightblue" points="194.52,-49.86 186.22,-56.44 196.81,-56.48 194.52,-49.86"/>
</g>
<!-- Node17 -->
<g id="node17" class="node">
<title>Node17</title>
<g id="a_node17"><a xlink:href="api_2crypto_8h.html" target="_top" xlink:title=" ">
<polygon fill="white" stroke="black" points="326.5,-168.5 326.5,-187.5 382.5,-187.5 382.5,-168.5 326.5,-168.5"/>
<text text-anchor="middle" x="354.5" y="-175.5" font-family="Helvetica,sans-Serif" font-size="10.00">crypto.h</text>
</a>
</g>
</g>
<!-- Node16&#45;&gt;Node17 -->
<g id="edge20" class="edge">
<title>Node16&#45;&gt;Node17</title>
<path fill="none" stroke="midnightblue" d="M310.02,-271.32C321.56,-247.37 341.71,-205.55 350.36,-187.59"/>
<polygon fill="midnightblue" stroke="midnightblue" points="306.85,-269.84 305.66,-280.37 313.15,-272.88 306.85,-269.84"/>
</g>
<!-- Node17&#45;&gt;Node5 -->
<g id="edge22" class="edge">
<title>Node17&#45;&gt;Node5</title>
<path fill="none" stroke="midnightblue" d="M350.25,-157.93C342.22,-121.92 325.13,-45.23 319.41,-19.57"/>
<polygon fill="midnightblue" stroke="midnightblue" points="346.92,-159.08 352.51,-168.08 353.75,-157.55 346.92,-159.08"/>
</g>
<!-- Node17&#45;&gt;Node12 -->
<g id="edge21" class="edge">
<title>Node17&#45;&gt;Node12</title>
<path fill="none" stroke="midnightblue" d="M327.74,-163.86C307.34,-153.85 279.83,-140.35 262.13,-131.65"/>
<polygon fill="midnightblue" stroke="midnightblue" points="326.31,-167.06 336.83,-168.32 329.39,-160.78 326.31,-167.06"/>
</g>
<!-- Node19 -->
<g id="node19" class="node">
<title>Node19</title>
<g id="a_node19"><a xlink:href="api_2packet_8h.html" target="_top" xlink:title=" ">
<polygon fill="white" stroke="black" points="364.5,-112.5 364.5,-131.5 422.5,-131.5 422.5,-112.5 364.5,-112.5"/>
<text text-anchor="middle" x="393.5" y="-119.5" font-family="Helvetica,sans-Serif" font-size="10.00">packet.h</text>
</a>
</g>
</g>
<!-- Node18&#45;&gt;Node19 -->
<g id="edge25" class="edge">
<title>Node18&#45;&gt;Node19</title>
<path fill="none" stroke="midnightblue" d="M393.5,-214.35C393.5,-190.25 393.5,-149.31 393.5,-131.59"/>
<polygon fill="midnightblue" stroke="midnightblue" points="390,-214.37 393.5,-224.37 397,-214.37 390,-214.37"/>
</g>
<!-- Node19&#45;&gt;Node5 -->
<g id="edge26" class="edge">
<title>Node19&#45;&gt;Node5</title>
<path fill="none" stroke="midnightblue" d="M382.56,-103.97C374,-90.77 361.7,-72.08 350.5,-56 341.53,-43.12 330.7,-28.52 323.95,-19.54"/>
<polygon fill="midnightblue" stroke="midnightblue" points="379.7,-106 388.06,-112.5 385.58,-102.2 379.7,-106"/>
</g>
<!-- Node21 -->
<g id="node21" class="node">
<title>Node21</title>
<g id="a_node21"><a xlink:href="api_2packet__io__types_8h.html" target="_top" xlink:title=" ">
<polygon fill="white" stroke="black" points="151.5,-280.5 151.5,-299.5 255.5,-299.5 255.5,-280.5 151.5,-280.5"/>
<text text-anchor="middle" x="203.5" y="-287.5" font-family="Helvetica,sans-Serif" font-size="10.00">packet_io_types.h</text>
</a>
</g>
</g>
<!-- Node20&#45;&gt;Node21 -->
<g id="edge28" class="edge">
<title>Node20&#45;&gt;Node21</title>
<path fill="none" stroke="midnightblue" d="M209.35,-326.1C207.86,-317.14 206.14,-306.86 204.96,-299.75"/>
<polygon fill="midnightblue" stroke="midnightblue" points="205.92,-326.79 211.01,-336.08 212.82,-325.64 205.92,-326.79"/>
</g>
<!-- Node21&#45;&gt;Node10 -->
<g id="edge29" class="edge">
<title>Node21&#45;&gt;Node10</title>
<path fill="none" stroke="midnightblue" d="M175.6,-276.23C153.53,-266.13 123.32,-252.31 104.11,-243.52"/>
<polygon fill="midnightblue" stroke="midnightblue" points="174.25,-279.46 184.8,-280.44 177.17,-273.1 174.25,-279.46"/>
</g>
<!-- Node21&#45;&gt;Node12 -->
<g id="edge30" class="edge">
<title>Node21&#45;&gt;Node12</title>
<path fill="none" stroke="midnightblue" d="M202.68,-270.21C202.21,-245.91 203.43,-202.6 215.5,-168 220.34,-154.13 230.25,-140.24 237.13,-131.64"/>
<polygon fill="midnightblue" stroke="midnightblue" points="199.19,-270.61 203,-280.49 206.18,-270.39 199.19,-270.61"/>
</g>
<!-- Node21&#45;&gt;Node14 -->
<g id="edge32" class="edge">
<title>Node21&#45;&gt;Node14</title>
<path fill="none" stroke="midnightblue" d="M198.46,-270.39C188.75,-234.59 167.81,-157.34 160.82,-131.57"/>
<polygon fill="midnightblue" stroke="midnightblue" points="195.09,-271.34 201.08,-280.08 201.84,-269.51 195.09,-271.34"/>
</g>
<!-- Node21&#45;&gt;Node18 -->
<g id="edge31" class="edge">
<title>Node21&#45;&gt;Node18</title>
<path fill="none" stroke="midnightblue" d="M243.35,-277.67C279.56,-267.38 332.1,-252.45 364.47,-243.25"/>
<polygon fill="midnightblue" stroke="midnightblue" points="242.27,-274.34 233.61,-280.44 244.18,-281.08 242.27,-274.34"/>
</g>
<!-- Node22 -->
<g id="node22" class="node">
<title>Node22</title>
<g id="a_node22"><a xlink:href="api_2spec_2traffic__mngr_8h.html" target="_top" xlink:title=" ">
<polygon fill="white" stroke="black" points="224.5,-224.5 224.5,-243.5 308.5,-243.5 308.5,-224.5 224.5,-224.5"/>
<text text-anchor="middle" x="266.5" y="-231.5" font-family="Helvetica,sans-Serif" font-size="10.00">traffic_mngr.h</text>
</a>
</g>
</g>
<!-- Node21&#45;&gt;Node22 -->
<g id="edge33" class="edge">
<title>Node21&#45;&gt;Node22</title>
<path fill="none" stroke="midnightblue" d="M221.54,-273.54C232.77,-263.91 246.82,-251.87 256.19,-243.83"/>
<polygon fill="midnightblue" stroke="midnightblue" points="218.94,-271.16 213.62,-280.32 223.49,-276.47 218.94,-271.16"/>
</g>
<!-- Node23 -->
<g id="node23" class="node">
<title>Node23</title>
<g id="a_node23"><a xlink:href="api_2traffic__mngr_8h.html" target="_top" xlink:title=" ">
<polygon fill="white" stroke="black" points="224.5,-168.5 224.5,-187.5 308.5,-187.5 308.5,-168.5 224.5,-168.5"/>
<text text-anchor="middle" x="266.5" y="-175.5" font-family="Helvetica,sans-Serif" font-size="10.00">traffic_mngr.h</text>
</a>
</g>
</g>
<!-- Node22&#45;&gt;Node23 -->
<g id="edge34" class="edge">
<title>Node22&#45;&gt;Node23</title>
<path fill="none" stroke="midnightblue" d="M266.5,-213.8C266.5,-204.91 266.5,-194.78 266.5,-187.75"/>
<polygon fill="midnightblue" stroke="midnightblue" points="263,-214.08 266.5,-224.08 270,-214.08 263,-214.08"/>
</g>
<!-- Node23&#45;&gt;Node5 -->
<g id="edge36" class="edge">
<title>Node23&#45;&gt;Node5</title>
<path fill="none" stroke="midnightblue" d="M272.22,-158.39C283.22,-122.59 306.95,-45.34 314.87,-19.57"/>
<polygon fill="midnightblue" stroke="midnightblue" points="268.83,-157.49 269.24,-168.08 275.52,-159.54 268.83,-157.49"/>
</g>
<!-- Node23&#45;&gt;Node12 -->
<g id="edge35" class="edge">
<title>Node23&#45;&gt;Node12</title>
<path fill="none" stroke="midnightblue" d="M259.04,-158.69C255.33,-149.59 251.02,-139.01 248.07,-131.75"/>
<polygon fill="midnightblue" stroke="midnightblue" points="255.85,-160.14 262.87,-168.08 262.34,-157.5 255.85,-160.14"/>
</g>
<!-- Node25 -->
<g id="node25" class="node">
<title>Node25</title>
<g id="a_node25"><a xlink:href="api_2pool_8h.html" target="_top" xlink:title=" ">
<polygon fill="white" stroke="black" points="387,-280.5 387,-299.5 434,-299.5 434,-280.5 387,-280.5"/>
<text text-anchor="middle" x="410.5" y="-287.5" font-family="Helvetica,sans-Serif" font-size="10.00">pool.h</text>
</a>
</g>
</g>
<!-- Node24&#45;&gt;Node25 -->
<g id="edge38" class="edge">
<title>Node24&#45;&gt;Node25</title>
<path fill="none" stroke="midnightblue" d="M409.86,-325.8C410.02,-316.91 410.21,-306.78 410.34,-299.75"/>
<polygon fill="midnightblue" stroke="midnightblue" points="406.35,-326.02 409.67,-336.08 413.35,-326.15 406.35,-326.02"/>
</g>
<!-- Node25&#45;&gt;Node5 -->
<g id="edge39" class="edge">
<title>Node25&#45;&gt;Node5</title>
<path fill="none" stroke="midnightblue" d="M421.18,-271.5C433.03,-250.37 450.5,-213.38 450.5,-179 450.5,-179 450.5,-179 450.5,-121 450.5,-66.46 383.28,-33.87 344.41,-19.59"/>
<polygon fill="midnightblue" stroke="midnightblue" points="418.08,-269.87 416.06,-280.27 424.12,-273.39 418.08,-269.87"/>
</g>
<!-- Node27 -->
<g id="node27" class="node">
<title>Node27</title>
<g id="a_node27"><a xlink:href="api_2timer_8h.html" target="_top" xlink:title=" ">
<polygon fill="white" stroke="black" points="459,-280.5 459,-299.5 510,-299.5 510,-280.5 459,-280.5"/>
<text text-anchor="middle" x="484.5" y="-287.5" font-family="Helvetica,sans-Serif" font-size="10.00">timer.h</text>
</a>
</g>
</g>
<!-- Node26&#45;&gt;Node27 -->
<g id="edge41" class="edge">
<title>Node26&#45;&gt;Node27</title>
<path fill="none" stroke="midnightblue" d="M479.3,-326.1C480.63,-317.14 482.15,-306.86 483.2,-299.75"/>
<polygon fill="midnightblue" stroke="midnightblue" points="475.82,-325.68 477.82,-336.08 482.75,-326.7 475.82,-325.68"/>
</g>
<!-- Node27&#45;&gt;Node5 -->
<g id="edge42" class="edge">
<title>Node27&#45;&gt;Node5</title>
<path fill="none" stroke="midnightblue" d="M485.6,-270.26C486.78,-248.37 488.5,-211.07 488.5,-179 488.5,-179 488.5,-179 488.5,-121 488.5,-55.7 399.2,-27.33 349.66,-16.62"/>
<polygon fill="midnightblue" stroke="midnightblue" points="482.09,-270.27 485.02,-280.45 489.08,-270.66 482.09,-270.27"/>
</g>
</g>
</svg>
