<?xml version="1.0" encoding="UTF-8" standalone="no"?>
<!DOCTYPE svg PUBLIC "-//W3C//DTD SVG 1.1//EN"
 "http://www.w3.org/Graphics/SVG/1.1/DTD/svg11.dtd">
<!-- Generated by graphviz version 2.43.0 (0)
 -->
<!-- Title: ipsec.h Pages: 1 -->
<svg width="411pt" height="196pt"
 viewBox="0.00 0.00 410.50 196.00" xmlns="http://www.w3.org/2000/svg" xmlns:xlink="http://www.w3.org/1999/xlink">
<g id="graph0" class="graph" transform="scale(1 1) rotate(0) translate(4 192)">
<title>ipsec.h</title>
<polygon fill="white" stroke="transparent" points="-4,4 -4,-192 406.5,-192 406.5,4 -4,4"/>
<!-- Node1 -->
<g id="node1" class="node">
<title>Node1</title>
<g id="a_node1"><a xlink:title=" ">
<polygon fill="#bfbfbf" stroke="black" points="172,-168.5 172,-187.5 223,-187.5 223,-168.5 172,-168.5"/>
<text text-anchor="middle" x="197.5" y="-175.5" font-family="Helvetica,sans-Serif" font-size="10.00">ipsec.h</text>
</a>
</g>
</g>
<!-- Node2 -->
<g id="node2" class="node">
<title>Node2</title>
<g id="a_node2"><a xlink:href="arch_2arm32-linux_2odp_2api_2abi_2ipsec_8h_source.html" target="_top" xlink:title=" ">
<polygon fill="white" stroke="black" points="0,-112.5 0,-131.5 51,-131.5 51,-112.5 0,-112.5"/>
<text text-anchor="middle" x="25.5" y="-119.5" font-family="Helvetica,sans-Serif" font-size="10.00">ipsec.h</text>
</a>
</g>
</g>
<!-- Node1&#45;&gt;Node2 -->
<g id="edge1" class="edge">
<title>Node1&#45;&gt;Node2</title>
<path fill="none" stroke="midnightblue" d="M162.03,-165.86C129.01,-155.5 80.57,-140.29 51.14,-131.05"/>
<polygon fill="midnightblue" stroke="midnightblue" points="161.16,-169.26 171.75,-168.92 163.26,-162.58 161.16,-169.26"/>
</g>
<!-- Node3 -->
<g id="node3" class="node">
<title>Node3</title>
<g id="a_node3"><a xlink:href="arch_2arm64-linux_2odp_2api_2abi_2ipsec_8h_source.html" target="_top" xlink:title=" ">
<polygon fill="white" stroke="black" points="69,-112.5 69,-131.5 120,-131.5 120,-112.5 69,-112.5"/>
<text text-anchor="middle" x="94.5" y="-119.5" font-family="Helvetica,sans-Serif" font-size="10.00">ipsec.h</text>
</a>
</g>
</g>
<!-- Node1&#45;&gt;Node3 -->
<g id="edge2" class="edge">
<title>Node1&#45;&gt;Node3</title>
<path fill="none" stroke="midnightblue" d="M171.92,-163.59C152.88,-153.61 127.44,-140.27 111.01,-131.65"/>
<polygon fill="midnightblue" stroke="midnightblue" points="170.47,-166.78 180.95,-168.32 173.72,-160.58 170.47,-166.78"/>
</g>
<!-- Node4 -->
<g id="node4" class="node">
<title>Node4</title>
<g id="a_node4"><a xlink:href="arch_2default-linux_2odp_2api_2abi_2ipsec_8h_source.html" target="_top" xlink:title=" ">
<polygon fill="white" stroke="black" points="138,-112.5 138,-131.5 189,-131.5 189,-112.5 138,-112.5"/>
<text text-anchor="middle" x="163.5" y="-119.5" font-family="Helvetica,sans-Serif" font-size="10.00">ipsec.h</text>
</a>
</g>
</g>
<!-- Node1&#45;&gt;Node4 -->
<g id="edge3" class="edge">
<title>Node1&#45;&gt;Node4</title>
<path fill="none" stroke="midnightblue" d="M186.52,-159.57C180.67,-150.27 173.73,-139.25 169.01,-131.75"/>
<polygon fill="midnightblue" stroke="midnightblue" points="183.6,-161.49 191.89,-168.08 189.52,-157.76 183.6,-161.49"/>
</g>
<!-- Node5 -->
<g id="node5" class="node">
<title>Node5</title>
<g id="a_node5"><a xlink:href="arch_2power64-linux_2odp_2api_2abi_2ipsec_8h_source.html" target="_top" xlink:title=" ">
<polygon fill="white" stroke="black" points="207,-112.5 207,-131.5 258,-131.5 258,-112.5 207,-112.5"/>
<text text-anchor="middle" x="232.5" y="-119.5" font-family="Helvetica,sans-Serif" font-size="10.00">ipsec.h</text>
</a>
</g>
</g>
<!-- Node1&#45;&gt;Node5 -->
<g id="edge4" class="edge">
<title>Node1&#45;&gt;Node5</title>
<path fill="none" stroke="midnightblue" d="M208.8,-159.57C214.82,-150.27 221.97,-139.25 226.83,-131.75"/>
<polygon fill="midnightblue" stroke="midnightblue" points="205.78,-157.79 203.28,-168.08 211.66,-161.6 205.78,-157.79"/>
</g>
<!-- Node6 -->
<g id="node6" class="node">
<title>Node6</title>
<g id="a_node6"><a xlink:href="arch_2x86__32-linux_2odp_2api_2abi_2ipsec_8h_source.html" target="_top" xlink:title=" ">
<polygon fill="white" stroke="black" points="276,-112.5 276,-131.5 327,-131.5 327,-112.5 276,-112.5"/>
<text text-anchor="middle" x="301.5" y="-119.5" font-family="Helvetica,sans-Serif" font-size="10.00">ipsec.h</text>
</a>
</g>
</g>
<!-- Node1&#45;&gt;Node6 -->
<g id="edge5" class="edge">
<title>Node1&#45;&gt;Node6</title>
<path fill="none" stroke="midnightblue" d="M223.33,-163.59C242.56,-153.61 268.24,-140.27 284.83,-131.65"/>
<polygon fill="midnightblue" stroke="midnightblue" points="221.47,-160.61 214.21,-168.32 224.7,-166.82 221.47,-160.61"/>
</g>
<!-- Node7 -->
<g id="node7" class="node">
<title>Node7</title>
<g id="a_node7"><a xlink:href="arch_2x86__64-linux_2odp_2api_2abi_2ipsec_8h_source.html" target="_top" xlink:title=" ">
<polygon fill="white" stroke="black" points="345,-112.5 345,-131.5 396,-131.5 396,-112.5 345,-112.5"/>
<text text-anchor="middle" x="370.5" y="-119.5" font-family="Helvetica,sans-Serif" font-size="10.00">ipsec.h</text>
</a>
</g>
</g>
<!-- Node1&#45;&gt;Node7 -->
<g id="edge6" class="edge">
<title>Node1&#45;&gt;Node7</title>
<path fill="none" stroke="midnightblue" d="M232.81,-165.98C266.1,-155.59 315.18,-140.27 344.87,-131"/>
<polygon fill="midnightblue" stroke="midnightblue" points="231.53,-162.71 223.03,-169.03 233.62,-169.39 231.53,-162.71"/>
</g>
<!-- Node8 -->
<g id="node8" class="node">
<title>Node8</title>
<g id="a_node8"><a xlink:href="api_2ipsec_8h.html" target="_top" xlink:title=" ">
<polygon fill="white" stroke="black" points="345,-56.5 345,-75.5 396,-75.5 396,-56.5 345,-56.5"/>
<text text-anchor="middle" x="370.5" y="-63.5" font-family="Helvetica,sans-Serif" font-size="10.00">ipsec.h</text>
</a>
</g>
</g>
<!-- Node7&#45;&gt;Node8 -->
<g id="edge7" class="edge">
<title>Node7&#45;&gt;Node8</title>
<path fill="none" stroke="midnightblue" d="M370.5,-101.8C370.5,-92.91 370.5,-82.78 370.5,-75.75"/>
<polygon fill="midnightblue" stroke="midnightblue" points="367,-102.08 370.5,-112.08 374,-102.08 367,-102.08"/>
</g>
<!-- Node9 -->
<g id="node9" class="node">
<title>Node9</title>
<g id="a_node9"><a xlink:href="odp__api_8h.html" target="_top" xlink:title=" ">
<polygon fill="white" stroke="black" points="338.5,-0.5 338.5,-19.5 402.5,-19.5 402.5,-0.5 338.5,-0.5"/>
<text text-anchor="middle" x="370.5" y="-7.5" font-family="Helvetica,sans-Serif" font-size="10.00">odp_api.h</text>
</a>
</g>
</g>
<!-- Node8&#45;&gt;Node9 -->
<g id="edge8" class="edge">
<title>Node8&#45;&gt;Node9</title>
<path fill="none" stroke="midnightblue" d="M370.5,-45.8C370.5,-36.91 370.5,-26.78 370.5,-19.75"/>
<polygon fill="midnightblue" stroke="midnightblue" points="367,-46.08 370.5,-56.08 374,-46.08 367,-46.08"/>
</g>
</g>
</svg>
