<?xml version="1.0" encoding="UTF-8" standalone="no"?>
<!DOCTYPE svg PUBLIC "-//W3C//DTD SVG 1.1//EN"
 "http://www.w3.org/Graphics/SVG/1.1/DTD/svg11.dtd">
<!-- Generated by graphviz version 2.43.0 (0)
 -->
<!-- Title: packet_types.h Pages: 1 -->
<svg width="754pt" height="565pt"
 viewBox="0.00 0.00 754.00 565.00" xmlns="http://www.w3.org/2000/svg" xmlns:xlink="http://www.w3.org/1999/xlink">
<g id="graph0" class="graph" transform="scale(1 1) rotate(0) translate(4 561)">
<title>packet_types.h</title>
<polygon fill="white" stroke="transparent" points="-4,4 -4,-561 750,-561 750,4 -4,4"/>
<!-- Node1 -->
<g id="node1" class="node">
<title>Node1</title>
<g id="a_node1"><a xlink:title=" ">
<polygon fill="#bfbfbf" stroke="black" points="153,-537.5 153,-556.5 243,-556.5 243,-537.5 153,-537.5"/>
<text text-anchor="middle" x="198" y="-544.5" font-family="Helvetica,sans-Serif" font-size="10.00">packet_types.h</text>
</a>
</g>
</g>
<!-- Node2 -->
<g id="node2" class="node">
<title>Node2</title>
<g id="a_node2"><a xlink:href="visibility__begin_8h_source.html" target="_top" xlink:title=" ">
<polygon fill="white" stroke="black" points="180.5,-0.5 180.5,-19.5 301.5,-19.5 301.5,-0.5 180.5,-0.5"/>
<text text-anchor="middle" x="241" y="-7.5" font-family="Helvetica,sans-Serif" font-size="10.00">odp/visibility_begin.h</text>
</a>
</g>
</g>
<!-- Node1&#45;&gt;Node2 -->
<g id="edge1" class="edge">
<title>Node1&#45;&gt;Node2</title>
<path fill="none" stroke="midnightblue" d="M152.57,-539.82C94.12,-529.03 0,-500.74 0,-430.5 0,-430.5 0,-430.5 0,-121 0,-45.49 99.12,-21.59 170.22,-14.16"/>
<polygon fill="midnightblue" stroke="midnightblue" points="170.87,-17.61 180.5,-13.18 170.21,-10.65 170.87,-17.61"/>
</g>
<!-- Node3 -->
<g id="node3" class="node">
<title>Node3</title>
<g id="a_node3"><a xlink:href="api_2proto__stats__types_8h.html" target="_top" xlink:title=" ">
<polygon fill="white" stroke="black" points="46,-347.5 46,-377.5 156,-377.5 156,-347.5 46,-347.5"/>
<text text-anchor="start" x="54" y="-365.5" font-family="Helvetica,sans-Serif" font-size="10.00">odp/api/proto_stats</text>
<text text-anchor="middle" x="101" y="-354.5" font-family="Helvetica,sans-Serif" font-size="10.00">_types.h</text>
</a>
</g>
</g>
<!-- Node1&#45;&gt;Node3 -->
<g id="edge2" class="edge">
<title>Node1&#45;&gt;Node3</title>
<path fill="none" stroke="midnightblue" d="M193.32,-537.2C178.92,-510.11 134.94,-427.35 113.29,-386.63"/>
<polygon fill="midnightblue" stroke="midnightblue" points="116.33,-384.88 108.54,-377.69 110.15,-388.17 116.33,-384.88"/>
</g>
<!-- Node13 -->
<g id="node13" class="node">
<title>Node13</title>
<g id="a_node13"><a xlink:href="visibility__end_8h_source.html" target="_top" xlink:title=" ">
<polygon fill="white" stroke="black" points="595,-0.5 595,-19.5 707,-19.5 707,-0.5 595,-0.5"/>
<text text-anchor="middle" x="651" y="-7.5" font-family="Helvetica,sans-Serif" font-size="10.00">odp/visibility_end.h</text>
</a>
</g>
</g>
<!-- Node1&#45;&gt;Node13 -->
<g id="edge29" class="edge">
<title>Node1&#45;&gt;Node13</title>
<path fill="none" stroke="midnightblue" d="M243.31,-546.05C374.61,-545 746,-532.96 746,-430.5 746,-430.5 746,-430.5 746,-121 746,-77.74 703.39,-43.09 675.25,-24.91"/>
<polygon fill="midnightblue" stroke="midnightblue" points="677.03,-21.9 666.69,-19.6 673.34,-27.85 677.03,-21.9"/>
</g>
<!-- Node14 -->
<g id="node14" class="node">
<title>Node14</title>
<g id="a_node14"><a xlink:href="api_2queue__types_8h.html" target="_top" xlink:title=" ">
<polygon fill="white" stroke="black" points="281.5,-481.5 281.5,-500.5 408.5,-500.5 408.5,-481.5 281.5,-481.5"/>
<text text-anchor="middle" x="345" y="-488.5" font-family="Helvetica,sans-Serif" font-size="10.00">odp/api/queue_types.h</text>
</a>
</g>
</g>
<!-- Node1&#45;&gt;Node14 -->
<g id="edge18" class="edge">
<title>Node1&#45;&gt;Node14</title>
<path fill="none" stroke="midnightblue" d="M221.29,-537.44C245.81,-528.44 284.6,-514.19 312.2,-504.05"/>
<polygon fill="midnightblue" stroke="midnightblue" points="313.64,-507.25 321.82,-500.52 311.22,-500.68 313.64,-507.25"/>
</g>
<!-- Node4 -->
<g id="node4" class="node">
<title>Node4</title>
<g id="a_node4"><a xlink:title=" ">
<polygon fill="white" stroke="#bfbfbf" points="28,-280.5 28,-310.5 156,-310.5 156,-280.5 28,-280.5"/>
<text text-anchor="start" x="36" y="-298.5" font-family="Helvetica,sans-Serif" font-size="10.00">odp/api/abi/proto_stats</text>
<text text-anchor="middle" x="92" y="-287.5" font-family="Helvetica,sans-Serif" font-size="10.00">_types.h</text>
</a>
</g>
</g>
<!-- Node3&#45;&gt;Node4 -->
<g id="edge3" class="edge">
<title>Node3&#45;&gt;Node4</title>
<path fill="none" stroke="midnightblue" d="M99.05,-347.4C97.96,-339.56 96.58,-329.6 95.33,-320.57"/>
<polygon fill="midnightblue" stroke="midnightblue" points="98.79,-320 93.95,-310.58 91.85,-320.96 98.79,-320"/>
</g>
<!-- Node5 -->
<g id="node5" class="node">
<title>Node5</title>
<g id="a_node5"><a xlink:href="api_2spec_2proto__stats__types_8h.html" target="_top" xlink:title=" ">
<polygon fill="white" stroke="black" points="212.5,-280.5 212.5,-310.5 319.5,-310.5 319.5,-280.5 212.5,-280.5"/>
<text text-anchor="start" x="220.5" y="-298.5" font-family="Helvetica,sans-Serif" font-size="10.00">odp/api/spec/proto</text>
<text text-anchor="middle" x="266" y="-287.5" font-family="Helvetica,sans-Serif" font-size="10.00">_stats_types.h</text>
</a>
</g>
</g>
<!-- Node3&#45;&gt;Node5 -->
<g id="edge4" class="edge">
<title>Node3&#45;&gt;Node5</title>
<path fill="none" stroke="midnightblue" d="M136.8,-347.4C161.45,-337.69 194.39,-324.71 220.84,-314.29"/>
<polygon fill="midnightblue" stroke="midnightblue" points="222.25,-317.5 230.27,-310.58 219.68,-310.99 222.25,-317.5"/>
</g>
<!-- Node5&#45;&gt;Node2 -->
<g id="edge5" class="edge">
<title>Node5&#45;&gt;Node2</title>
<path fill="none" stroke="midnightblue" d="M256.67,-280.22C243.75,-259.03 222,-217.62 222,-179 222,-179 222,-179 222,-121 222,-88.49 230.16,-51.35 235.78,-29.61"/>
<polygon fill="midnightblue" stroke="midnightblue" points="239.22,-30.32 238.44,-19.75 232.46,-28.5 239.22,-30.32"/>
</g>
<!-- Node6 -->
<g id="node6" class="node">
<title>Node6</title>
<g id="a_node6"><a xlink:href="api_2std__types_8h.html" target="_top" xlink:title=" ">
<polygon fill="white" stroke="black" points="464,-224.5 464,-243.5 576,-243.5 576,-224.5 464,-224.5"/>
<text text-anchor="middle" x="520" y="-231.5" font-family="Helvetica,sans-Serif" font-size="10.00">odp/api/std_types.h</text>
</a>
</g>
</g>
<!-- Node5&#45;&gt;Node6 -->
<g id="edge6" class="edge">
<title>Node5&#45;&gt;Node6</title>
<path fill="none" stroke="midnightblue" d="M319.56,-281.95C365.33,-271.23 430.5,-255.97 473.97,-245.78"/>
<polygon fill="midnightblue" stroke="midnightblue" points="474.77,-249.19 483.71,-243.5 473.18,-242.37 474.77,-249.19"/>
</g>
<!-- Node5&#45;&gt;Node13 -->
<g id="edge17" class="edge">
<title>Node5&#45;&gt;Node13</title>
<path fill="none" stroke="midnightblue" d="M319.55,-281.84C322.74,-281.19 325.91,-280.57 329,-280 468.58,-254.17 632,-320.95 632,-179 632,-179 632,-179 632,-121 632,-88.49 640.16,-51.35 645.78,-29.61"/>
<polygon fill="midnightblue" stroke="midnightblue" points="649.22,-30.32 648.44,-19.75 642.46,-28.5 649.22,-30.32"/>
</g>
<!-- Node7 -->
<g id="node7" class="node">
<title>Node7</title>
<g id="a_node7"><a xlink:title=" ">
<polygon fill="white" stroke="#bfbfbf" points="310,-168.5 310,-187.5 440,-187.5 440,-168.5 310,-168.5"/>
<text text-anchor="middle" x="375" y="-175.5" font-family="Helvetica,sans-Serif" font-size="10.00">odp/api/abi/std_types.h</text>
</a>
</g>
</g>
<!-- Node6&#45;&gt;Node7 -->
<g id="edge7" class="edge">
<title>Node6&#45;&gt;Node7</title>
<path fill="none" stroke="midnightblue" d="M497.02,-224.44C472.84,-215.44 434.58,-201.19 407.35,-191.05"/>
<polygon fill="midnightblue" stroke="midnightblue" points="408.46,-187.73 397.87,-187.52 406.02,-194.29 408.46,-187.73"/>
</g>
<!-- Node8 -->
<g id="node8" class="node">
<title>Node8</title>
<g id="a_node8"><a xlink:href="api_2spec_2std__types_8h.html" target="_top" xlink:title=" ">
<polygon fill="white" stroke="black" points="458.5,-168.5 458.5,-187.5 595.5,-187.5 595.5,-168.5 458.5,-168.5"/>
<text text-anchor="middle" x="527" y="-175.5" font-family="Helvetica,sans-Serif" font-size="10.00">odp/api/spec/std_types.h</text>
</a>
</g>
</g>
<!-- Node6&#45;&gt;Node8 -->
<g id="edge8" class="edge">
<title>Node6&#45;&gt;Node8</title>
<path fill="none" stroke="midnightblue" d="M521.16,-224.08C522.08,-216.93 523.42,-206.64 524.58,-197.69"/>
<polygon fill="midnightblue" stroke="midnightblue" points="528.05,-198.12 525.87,-187.75 521.11,-197.22 528.05,-198.12"/>
</g>
<!-- Node8&#45;&gt;Node2 -->
<g id="edge9" class="edge">
<title>Node8&#45;&gt;Node2</title>
<path fill="none" stroke="midnightblue" d="M490.76,-168.49C462.59,-161.06 423.04,-148.83 391,-132 354.49,-112.82 349.13,-101.86 317,-76 296.46,-59.47 273.54,-39.67 258.3,-26.31"/>
<polygon fill="midnightblue" stroke="midnightblue" points="260.5,-23.58 250.68,-19.6 255.87,-28.84 260.5,-23.58"/>
</g>
<!-- Node9 -->
<g id="node9" class="node">
<title>Node9</title>
<g id="a_node9"><a xlink:title=" ">
<polygon fill="white" stroke="#bfbfbf" points="506.5,-112.5 506.5,-131.5 559.5,-131.5 559.5,-112.5 506.5,-112.5"/>
<text text-anchor="middle" x="533" y="-119.5" font-family="Helvetica,sans-Serif" font-size="10.00">stdint.h</text>
</a>
</g>
</g>
<!-- Node8&#45;&gt;Node9 -->
<g id="edge10" class="edge">
<title>Node8&#45;&gt;Node9</title>
<path fill="none" stroke="midnightblue" d="M527.99,-168.08C528.79,-160.93 529.93,-150.64 530.92,-141.69"/>
<polygon fill="midnightblue" stroke="midnightblue" points="534.4,-142.08 532.03,-131.75 527.44,-141.3 534.4,-142.08"/>
</g>
<!-- Node10 -->
<g id="node10" class="node">
<title>Node10</title>
<g id="a_node10"><a xlink:href="api_2align_8h.html" target="_top" xlink:title=" ">
<polygon fill="white" stroke="black" points="399.5,-112.5 399.5,-131.5 488.5,-131.5 488.5,-112.5 399.5,-112.5"/>
<text text-anchor="middle" x="444" y="-119.5" font-family="Helvetica,sans-Serif" font-size="10.00">odp/api/align.h</text>
</a>
</g>
</g>
<!-- Node8&#45;&gt;Node10 -->
<g id="edge11" class="edge">
<title>Node8&#45;&gt;Node10</title>
<path fill="none" stroke="midnightblue" d="M513.66,-168.32C500.84,-159.98 481.22,-147.21 466.06,-137.35"/>
<polygon fill="midnightblue" stroke="midnightblue" points="467.59,-134.17 457.3,-131.65 463.78,-140.04 467.59,-134.17"/>
</g>
<!-- Node8&#45;&gt;Node13 -->
<g id="edge16" class="edge">
<title>Node8&#45;&gt;Node13</title>
<path fill="none" stroke="midnightblue" d="M535.86,-168.45C544.71,-159.69 558.49,-145.49 569,-132 593.7,-100.29 595.22,-89.11 618,-56 624.53,-46.51 632.12,-36.12 638.37,-27.72"/>
<polygon fill="midnightblue" stroke="midnightblue" points="641.32,-29.62 644.52,-19.52 635.72,-25.42 641.32,-29.62"/>
</g>
<!-- Node11 -->
<g id="node11" class="node">
<title>Node11</title>
<g id="a_node11"><a xlink:title=" ">
<polygon fill="white" stroke="#bfbfbf" points="458.5,-56.5 458.5,-75.5 565.5,-75.5 565.5,-56.5 458.5,-56.5"/>
<text text-anchor="middle" x="512" y="-63.5" font-family="Helvetica,sans-Serif" font-size="10.00">odp/api/abi/align.h</text>
</a>
</g>
</g>
<!-- Node10&#45;&gt;Node11 -->
<g id="edge12" class="edge">
<title>Node10&#45;&gt;Node11</title>
<path fill="none" stroke="midnightblue" d="M454.93,-112.32C465.17,-104.18 480.72,-91.84 493,-82.09"/>
<polygon fill="midnightblue" stroke="midnightblue" points="495.22,-84.79 500.88,-75.83 490.87,-79.31 495.22,-84.79"/>
</g>
<!-- Node12 -->
<g id="node12" class="node">
<title>Node12</title>
<g id="a_node12"><a xlink:href="api_2spec_2align_8h.html" target="_top" xlink:title=" ">
<polygon fill="white" stroke="black" points="326,-56.5 326,-75.5 440,-75.5 440,-56.5 326,-56.5"/>
<text text-anchor="middle" x="383" y="-63.5" font-family="Helvetica,sans-Serif" font-size="10.00">odp/api/spec/align.h</text>
</a>
</g>
</g>
<!-- Node10&#45;&gt;Node12 -->
<g id="edge13" class="edge">
<title>Node10&#45;&gt;Node12</title>
<path fill="none" stroke="midnightblue" d="M434.2,-112.32C425.18,-104.34 411.59,-92.31 400.68,-82.65"/>
<polygon fill="midnightblue" stroke="midnightblue" points="402.79,-79.84 392.98,-75.83 398.15,-85.08 402.79,-79.84"/>
</g>
<!-- Node12&#45;&gt;Node2 -->
<g id="edge14" class="edge">
<title>Node12&#45;&gt;Node2</title>
<path fill="none" stroke="midnightblue" d="M360.5,-56.44C336.92,-47.48 299.68,-33.31 273.04,-23.18"/>
<polygon fill="midnightblue" stroke="midnightblue" points="273.99,-19.8 263.4,-19.52 271.5,-26.34 273.99,-19.8"/>
</g>
<!-- Node12&#45;&gt;Node13 -->
<g id="edge15" class="edge">
<title>Node12&#45;&gt;Node13</title>
<path fill="none" stroke="midnightblue" d="M425.47,-56.44C472.41,-46.98 548.08,-31.74 598.65,-21.55"/>
<polygon fill="midnightblue" stroke="midnightblue" points="599.62,-24.92 608.73,-19.52 598.24,-18.06 599.62,-24.92"/>
</g>
<!-- Node15 -->
<g id="node15" class="node">
<title>Node15</title>
<g id="a_node15"><a xlink:title=" ">
<polygon fill="white" stroke="#bfbfbf" points="418.5,-420 418.5,-439 563.5,-439 563.5,-420 418.5,-420"/>
<text text-anchor="middle" x="491" y="-427" font-family="Helvetica,sans-Serif" font-size="10.00">odp/api/abi/queue_types.h</text>
</a>
</g>
</g>
<!-- Node14&#45;&gt;Node15 -->
<g id="edge19" class="edge">
<title>Node14&#45;&gt;Node15</title>
<path fill="none" stroke="midnightblue" d="M365.92,-481.48C390.75,-471.36 432.34,-454.4 460.69,-442.85"/>
<polygon fill="midnightblue" stroke="midnightblue" points="462.18,-446.02 470.12,-439.01 459.54,-439.54 462.18,-446.02"/>
</g>
<!-- Node16 -->
<g id="node16" class="node">
<title>Node16</title>
<g id="a_node16"><a xlink:href="api_2spec_2queue__types_8h.html" target="_top" xlink:title=" ">
<polygon fill="white" stroke="black" points="289.5,-414.5 289.5,-444.5 400.5,-444.5 400.5,-414.5 289.5,-414.5"/>
<text text-anchor="start" x="297.5" y="-432.5" font-family="Helvetica,sans-Serif" font-size="10.00">odp/api/spec/queue</text>
<text text-anchor="middle" x="345" y="-421.5" font-family="Helvetica,sans-Serif" font-size="10.00">_types.h</text>
</a>
</g>
</g>
<!-- Node14&#45;&gt;Node16 -->
<g id="edge20" class="edge">
<title>Node14&#45;&gt;Node16</title>
<path fill="none" stroke="midnightblue" d="M345,-481.48C345,-474.47 345,-464.19 345,-454.7"/>
<polygon fill="midnightblue" stroke="midnightblue" points="348.5,-454.52 345,-444.52 341.5,-454.52 348.5,-454.52"/>
</g>
<!-- Node16&#45;&gt;Node2 -->
<g id="edge21" class="edge">
<title>Node16&#45;&gt;Node2</title>
<path fill="none" stroke="midnightblue" d="M302.28,-414.46C254.58,-395.77 184,-357.77 184,-296.5 184,-296.5 184,-296.5 184,-121 184,-84.3 209.32,-47.66 226.21,-27.3"/>
<polygon fill="midnightblue" stroke="midnightblue" points="228.95,-29.48 232.83,-19.62 223.65,-24.9 228.95,-29.48"/>
</g>
<!-- Node16&#45;&gt;Node13 -->
<g id="edge28" class="edge">
<title>Node16&#45;&gt;Node13</title>
<path fill="none" stroke="midnightblue" d="M399.74,-414.43C501.15,-387.6 708,-328.9 708,-296.5 708,-296.5 708,-296.5 708,-121 708,-84.3 682.68,-47.66 665.79,-27.3"/>
<polygon fill="midnightblue" stroke="midnightblue" points="668.35,-24.9 659.17,-19.62 663.05,-29.48 668.35,-24.9"/>
</g>
<!-- Node17 -->
<g id="node17" class="node">
<title>Node17</title>
<g id="a_node17"><a xlink:href="api_2schedule__types_8h.html" target="_top" xlink:title=" ">
<polygon fill="white" stroke="black" points="326,-353 326,-372 466,-372 466,-353 326,-353"/>
<text text-anchor="middle" x="396" y="-360" font-family="Helvetica,sans-Serif" font-size="10.00">odp/api/schedule_types.h</text>
</a>
</g>
</g>
<!-- Node16&#45;&gt;Node17 -->
<g id="edge22" class="edge">
<title>Node16&#45;&gt;Node17</title>
<path fill="none" stroke="midnightblue" d="M356.07,-414.4C363.94,-404.36 374.55,-390.84 382.85,-380.25"/>
<polygon fill="midnightblue" stroke="midnightblue" points="385.76,-382.22 389.18,-372.19 380.25,-377.9 385.76,-382.22"/>
</g>
<!-- Node18 -->
<g id="node18" class="node">
<title>Node18</title>
<g id="a_node18"><a xlink:title=" ">
<polygon fill="white" stroke="#bfbfbf" points="337.5,-280.5 337.5,-310.5 454.5,-310.5 454.5,-280.5 337.5,-280.5"/>
<text text-anchor="start" x="345.5" y="-298.5" font-family="Helvetica,sans-Serif" font-size="10.00">odp/api/abi/schedule</text>
<text text-anchor="middle" x="396" y="-287.5" font-family="Helvetica,sans-Serif" font-size="10.00">_types.h</text>
</a>
</g>
</g>
<!-- Node17&#45;&gt;Node18 -->
<g id="edge23" class="edge">
<title>Node17&#45;&gt;Node18</title>
<path fill="none" stroke="midnightblue" d="M396,-352.73C396,-344.54 396,-331.92 396,-320.71"/>
<polygon fill="midnightblue" stroke="midnightblue" points="399.5,-320.59 396,-310.59 392.5,-320.59 399.5,-320.59"/>
</g>
<!-- Node19 -->
<g id="node19" class="node">
<title>Node19</title>
<g id="a_node19"><a xlink:href="api_2spec_2schedule__types_8h.html" target="_top" xlink:title=" ">
<polygon fill="white" stroke="black" points="472.5,-280.5 472.5,-310.5 597.5,-310.5 597.5,-280.5 472.5,-280.5"/>
<text text-anchor="start" x="480.5" y="-298.5" font-family="Helvetica,sans-Serif" font-size="10.00">odp/api/spec/schedule</text>
<text text-anchor="middle" x="535" y="-287.5" font-family="Helvetica,sans-Serif" font-size="10.00">_types.h</text>
</a>
</g>
</g>
<!-- Node17&#45;&gt;Node19 -->
<g id="edge24" class="edge">
<title>Node17&#45;&gt;Node19</title>
<path fill="none" stroke="midnightblue" d="M414.46,-352.87C435.13,-343.2 469.25,-327.25 495.91,-314.78"/>
<polygon fill="midnightblue" stroke="midnightblue" points="497.43,-317.93 505,-310.53 494.46,-311.59 497.43,-317.93"/>
</g>
<!-- Node19&#45;&gt;Node2 -->
<g id="edge25" class="edge">
<title>Node19&#45;&gt;Node2</title>
<path fill="none" stroke="midnightblue" d="M472.25,-281.3C391.09,-262.39 260,-224.76 260,-179 260,-179 260,-179 260,-121 260,-88.49 251.84,-51.35 246.22,-29.61"/>
<polygon fill="midnightblue" stroke="midnightblue" points="249.54,-28.5 243.56,-19.75 242.78,-30.32 249.54,-28.5"/>
</g>
<!-- Node19&#45;&gt;Node6 -->
<g id="edge26" class="edge">
<title>Node19&#45;&gt;Node6</title>
<path fill="none" stroke="midnightblue" d="M531.45,-280.4C529.42,-272.38 526.87,-262.23 524.68,-253.57"/>
<polygon fill="midnightblue" stroke="midnightblue" points="528.02,-252.5 522.18,-243.66 521.23,-254.21 528.02,-252.5"/>
</g>
<!-- Node19&#45;&gt;Node13 -->
<g id="edge27" class="edge">
<title>Node19&#45;&gt;Node13</title>
<path fill="none" stroke="midnightblue" d="M586.94,-280.5C607.63,-272.68 630.22,-260.98 646,-244 666.96,-221.44 670,-209.8 670,-179 670,-179 670,-179 670,-121 670,-88.49 661.84,-51.35 656.22,-29.61"/>
<polygon fill="midnightblue" stroke="midnightblue" points="659.54,-28.5 653.56,-19.75 652.78,-30.32 659.54,-28.5"/>
</g>
</g>
</svg>
