<?xml version="1.0" encoding="UTF-8" standalone="no"?>
<!DOCTYPE svg PUBLIC "-//W3C//DTD SVG 1.1//EN"
 "http://www.w3.org/Graphics/SVG/1.1/DTD/svg11.dtd">
<!-- Generated by graphviz version 2.43.0 (0)
 -->
<!-- Title: crypto.h Pages: 1 -->
<svg width="1289pt" height="923pt"
 viewBox="0.00 0.00 1289.00 923.00" xmlns="http://www.w3.org/2000/svg" xmlns:xlink="http://www.w3.org/1999/xlink">
<g id="graph0" class="graph" transform="scale(1 1) rotate(0) translate(4 919)">
<title>crypto.h</title>
<polygon fill="white" stroke="transparent" points="-4,4 -4,-919 1285,-919 1285,4 -4,4"/>
<!-- Node1 -->
<g id="node1" class="node">
<title>Node1</title>
<g id="a_node1"><a xlink:title=" ">
<polygon fill="#bfbfbf" stroke="black" points="531,-895.5 531,-914.5 587,-914.5 587,-895.5 531,-895.5"/>
<text text-anchor="middle" x="559" y="-902.5" font-family="Helvetica,sans-Serif" font-size="10.00">crypto.h</text>
</a>
</g>
</g>
<!-- Node2 -->
<g id="node2" class="node">
<title>Node2</title>
<g id="a_node2"><a xlink:href="visibility__begin_8h_source.html" target="_top" xlink:title=" ">
<polygon fill="white" stroke="black" points="129.5,-0.5 129.5,-19.5 250.5,-19.5 250.5,-0.5 129.5,-0.5"/>
<text text-anchor="middle" x="190" y="-7.5" font-family="Helvetica,sans-Serif" font-size="10.00">odp/visibility_begin.h</text>
</a>
</g>
</g>
<!-- Node1&#45;&gt;Node2 -->
<g id="edge1" class="edge">
<title>Node1&#45;&gt;Node2</title>
<path fill="none" stroke="midnightblue" d="M530.9,-904.52C417.54,-905.87 0,-903.42 0,-794 0,-794 0,-794 0,-132 0,-92.28 15.65,-80.38 47,-56 68.58,-39.22 96.54,-28.63 121.99,-21.98"/>
<polygon fill="midnightblue" stroke="midnightblue" points="123.1,-25.31 131.98,-19.53 121.43,-18.51 123.1,-25.31"/>
</g>
<!-- Node3 -->
<g id="node3" class="node">
<title>Node3</title>
<g id="a_node3"><a xlink:href="deprecated_8h.html" target="_top" xlink:title=" ">
<polygon fill="white" stroke="black" points="873.5,-839.5 873.5,-858.5 992.5,-858.5 992.5,-839.5 873.5,-839.5"/>
<text text-anchor="middle" x="933" y="-846.5" font-family="Helvetica,sans-Serif" font-size="10.00">odp/api/deprecated.h</text>
</a>
</g>
</g>
<!-- Node1&#45;&gt;Node3 -->
<g id="edge2" class="edge">
<title>Node1&#45;&gt;Node3</title>
<path fill="none" stroke="midnightblue" d="M587.11,-899.94C645.41,-891.52 780.96,-871.95 864,-859.96"/>
<polygon fill="midnightblue" stroke="midnightblue" points="864.71,-863.4 874.11,-858.5 863.71,-856.47 864.71,-863.4"/>
</g>
<!-- Node5 -->
<g id="node5" class="node">
<title>Node5</title>
<g id="a_node5"><a xlink:href="visibility__end_8h_source.html" target="_top" xlink:title=" ">
<polygon fill="white" stroke="black" points="748,-0.5 748,-19.5 860,-19.5 860,-0.5 748,-0.5"/>
<text text-anchor="middle" x="804" y="-7.5" font-family="Helvetica,sans-Serif" font-size="10.00">odp/visibility_end.h</text>
</a>
</g>
</g>
<!-- Node1&#45;&gt;Node5 -->
<g id="edge59" class="edge">
<title>Node1&#45;&gt;Node5</title>
<path fill="none" stroke="midnightblue" d="M587.3,-902.73C720.79,-896.38 1281,-865.48 1281,-794 1281,-794 1281,-794 1281,-132 1281,-86.38 1252.64,-76.73 1212,-56 1153.91,-26.36 970.34,-16.1 870.4,-12.66"/>
<polygon fill="midnightblue" stroke="midnightblue" points="870.22,-9.15 860.11,-12.32 869.99,-16.15 870.22,-9.15"/>
</g>
<!-- Node6 -->
<g id="node6" class="node">
<title>Node6</title>
<g id="a_node6"><a xlink:href="api_2packet__types_8h.html" target="_top" xlink:title=" ">
<polygon fill="white" stroke="black" points="336.5,-615.5 336.5,-634.5 465.5,-634.5 465.5,-615.5 336.5,-615.5"/>
<text text-anchor="middle" x="401" y="-622.5" font-family="Helvetica,sans-Serif" font-size="10.00">odp/api/packet_types.h</text>
</a>
</g>
</g>
<!-- Node1&#45;&gt;Node6 -->
<g id="edge6" class="edge">
<title>Node1&#45;&gt;Node6</title>
<path fill="none" stroke="midnightblue" d="M533.32,-895.47C495.43,-881.07 429,-848.1 429,-794 429,-794 429,-794 429,-736 429,-702.79 416.87,-665.63 408.57,-644.12"/>
<polygon fill="midnightblue" stroke="midnightblue" points="411.75,-642.63 404.78,-634.65 405.25,-645.23 411.75,-642.63"/>
</g>
<!-- Node13 -->
<g id="node13" class="node">
<title>Node13</title>
<g id="a_node13"><a xlink:href="api_2std__types_8h.html" target="_top" xlink:title=" ">
<polygon fill="white" stroke="black" points="529,-235.5 529,-254.5 641,-254.5 641,-235.5 529,-235.5"/>
<text text-anchor="middle" x="585" y="-242.5" font-family="Helvetica,sans-Serif" font-size="10.00">odp/api/std_types.h</text>
</a>
</g>
</g>
<!-- Node1&#45;&gt;Node13 -->
<g id="edge58" class="edge">
<title>Node1&#45;&gt;Node13</title>
<path fill="none" stroke="midnightblue" d="M549.41,-895.34C531.33,-878.02 494,-837.03 494,-794 494,-794 494,-794 494,-372.5 494,-335.31 491.37,-321.26 513,-291 523.06,-276.93 539.01,-266.31 553.35,-258.93"/>
<polygon fill="midnightblue" stroke="midnightblue" points="554.97,-262.03 562.46,-254.54 551.94,-255.72 554.97,-262.03"/>
</g>
<!-- Node26 -->
<g id="node26" class="node">
<title>Node26</title>
<g id="a_node26"><a xlink:href="api_2pool__types_8h.html" target="_top" xlink:title=" ">
<polygon fill="white" stroke="black" points="619,-839.5 619,-858.5 737,-858.5 737,-839.5 619,-839.5"/>
<text text-anchor="middle" x="678" y="-846.5" font-family="Helvetica,sans-Serif" font-size="10.00">odp/api/pool_types.h</text>
</a>
</g>
</g>
<!-- Node1&#45;&gt;Node26 -->
<g id="edge39" class="edge">
<title>Node1&#45;&gt;Node26</title>
<path fill="none" stroke="midnightblue" d="M577.86,-895.44C597.27,-886.64 627.73,-872.81 649.96,-862.72"/>
<polygon fill="midnightblue" stroke="midnightblue" points="651.57,-865.84 659.23,-858.52 648.68,-859.46 651.57,-865.84"/>
</g>
<!-- Node4 -->
<g id="node4" class="node">
<title>Node4</title>
<g id="a_node4"><a xlink:href="spec_2deprecated_8h.html" target="_top" xlink:title=" ">
<polygon fill="white" stroke="black" points="993.5,-62 993.5,-81 1138.5,-81 1138.5,-62 993.5,-62"/>
<text text-anchor="middle" x="1066" y="-69" font-family="Helvetica,sans-Serif" font-size="10.00">odp/api/spec/deprecated.h</text>
</a>
</g>
</g>
<!-- Node3&#45;&gt;Node4 -->
<g id="edge3" class="edge">
<title>Node3&#45;&gt;Node4</title>
<path fill="none" stroke="midnightblue" d="M992.6,-840.02C1050.27,-828.56 1129,-801.31 1129,-738 1129,-738 1129,-738 1129,-188 1129,-148.48 1100.22,-109.62 1081.56,-88.58"/>
<polygon fill="midnightblue" stroke="midnightblue" points="1084.11,-86.17 1074.76,-81.18 1078.95,-90.91 1084.11,-86.17"/>
</g>
<!-- Node4&#45;&gt;Node2 -->
<g id="edge4" class="edge">
<title>Node4&#45;&gt;Node2</title>
<path fill="none" stroke="midnightblue" d="M1023.16,-61.94C1010.59,-59.69 996.78,-57.49 984,-56 718.25,-25.08 399.89,-15.19 260.82,-12.2"/>
<polygon fill="midnightblue" stroke="midnightblue" points="260.79,-8.7 250.72,-11.99 260.65,-15.7 260.79,-8.7"/>
</g>
<!-- Node4&#45;&gt;Node5 -->
<g id="edge5" class="edge">
<title>Node4&#45;&gt;Node5</title>
<path fill="none" stroke="midnightblue" d="M1028.46,-61.98C981.77,-51.37 902.02,-33.26 851.22,-21.72"/>
<polygon fill="midnightblue" stroke="midnightblue" points="852,-18.31 841.47,-19.51 850.45,-25.14 852,-18.31"/>
</g>
<!-- Node7 -->
<g id="node7" class="node">
<title>Node7</title>
<g id="a_node7"><a xlink:title=" ">
<polygon fill="white" stroke="#bfbfbf" points="228,-548.5 228,-578.5 334,-578.5 334,-548.5 228,-548.5"/>
<text text-anchor="start" x="236" y="-566.5" font-family="Helvetica,sans-Serif" font-size="10.00">odp/api/abi/packet</text>
<text text-anchor="middle" x="281" y="-555.5" font-family="Helvetica,sans-Serif" font-size="10.00">_io_types.h</text>
</a>
</g>
</g>
<!-- Node6&#45;&gt;Node7 -->
<g id="edge7" class="edge">
<title>Node6&#45;&gt;Node7</title>
<path fill="none" stroke="midnightblue" d="M383.81,-615.48C366.8,-607.04 340.2,-593.86 318.33,-583.01"/>
<polygon fill="midnightblue" stroke="midnightblue" points="319.8,-579.83 309.28,-578.52 316.69,-586.1 319.8,-579.83"/>
</g>
<!-- Node8 -->
<g id="node8" class="node">
<title>Node8</title>
<g id="a_node8"><a xlink:title=" ">
<polygon fill="white" stroke="#bfbfbf" points="104,-548.5 104,-578.5 210,-578.5 210,-548.5 104,-548.5"/>
<text text-anchor="start" x="112" y="-566.5" font-family="Helvetica,sans-Serif" font-size="10.00">odp/api/abi/packet</text>
<text text-anchor="middle" x="157" y="-555.5" font-family="Helvetica,sans-Serif" font-size="10.00">_types.h</text>
</a>
</g>
</g>
<!-- Node6&#45;&gt;Node8 -->
<g id="edge8" class="edge">
<title>Node6&#45;&gt;Node8</title>
<path fill="none" stroke="midnightblue" d="M366.04,-615.48C328.11,-606.22 266.74,-591.26 220.29,-579.93"/>
<polygon fill="midnightblue" stroke="midnightblue" points="220.87,-576.47 210.32,-577.5 219.21,-583.27 220.87,-576.47"/>
</g>
<!-- Node9 -->
<g id="node9" class="node">
<title>Node9</title>
<g id="a_node9"><a xlink:href="api_2spec_2packet__types_8h.html" target="_top" xlink:title=" ">
<polygon fill="white" stroke="black" points="352.5,-548.5 352.5,-578.5 465.5,-578.5 465.5,-548.5 352.5,-548.5"/>
<text text-anchor="start" x="360.5" y="-566.5" font-family="Helvetica,sans-Serif" font-size="10.00">odp/api/spec/packet</text>
<text text-anchor="middle" x="409" y="-555.5" font-family="Helvetica,sans-Serif" font-size="10.00">_types.h</text>
</a>
</g>
</g>
<!-- Node6&#45;&gt;Node9 -->
<g id="edge9" class="edge">
<title>Node6&#45;&gt;Node9</title>
<path fill="none" stroke="midnightblue" d="M402.15,-615.48C403.09,-608.47 404.47,-598.19 405.75,-588.7"/>
<polygon fill="midnightblue" stroke="midnightblue" points="409.25,-588.9 407.11,-578.52 402.31,-587.97 409.25,-588.9"/>
</g>
<!-- Node9&#45;&gt;Node2 -->
<g id="edge10" class="edge">
<title>Node9&#45;&gt;Node2</title>
<path fill="none" stroke="midnightblue" d="M362.58,-548.48C279.51,-522.71 114,-468.04 114,-441.5 114,-441.5 114,-441.5 114,-305.5 114,-194.44 41.61,-150.48 100,-56 109.67,-40.35 126.62,-29.96 143.22,-23.15"/>
<polygon fill="midnightblue" stroke="midnightblue" points="144.75,-26.32 152.9,-19.54 142.31,-19.76 144.75,-26.32"/>
</g>
<!-- Node9&#45;&gt;Node5 -->
<g id="edge38" class="edge">
<title>Node9&#45;&gt;Node5</title>
<path fill="none" stroke="midnightblue" d="M465.69,-561.33C530.99,-558.24 640.4,-547.61 727,-512 766.47,-495.77 785.52,-493.97 805,-456 843.92,-380.15 814.99,-104.36 806.27,-29.73"/>
<polygon fill="midnightblue" stroke="midnightblue" points="809.72,-29.06 805.06,-19.54 802.77,-29.88 809.72,-29.06"/>
</g>
<!-- Node10 -->
<g id="node10" class="node">
<title>Node10</title>
<g id="a_node10"><a xlink:href="api_2proto__stats__types_8h.html" target="_top" xlink:title=" ">
<polygon fill="white" stroke="black" points="354,-358.5 354,-388.5 464,-388.5 464,-358.5 354,-358.5"/>
<text text-anchor="start" x="362" y="-376.5" font-family="Helvetica,sans-Serif" font-size="10.00">odp/api/proto_stats</text>
<text text-anchor="middle" x="409" y="-365.5" font-family="Helvetica,sans-Serif" font-size="10.00">_types.h</text>
</a>
</g>
</g>
<!-- Node9&#45;&gt;Node10 -->
<g id="edge11" class="edge">
<title>Node9&#45;&gt;Node10</title>
<path fill="none" stroke="midnightblue" d="M409,-548.37C409,-516.44 409,-438.44 409,-398.67"/>
<polygon fill="midnightblue" stroke="midnightblue" points="412.5,-398.54 409,-388.54 405.5,-398.54 412.5,-398.54"/>
</g>
<!-- Node20 -->
<g id="node20" class="node">
<title>Node20</title>
<g id="a_node20"><a xlink:href="api_2queue__types_8h.html" target="_top" xlink:title=" ">
<polygon fill="white" stroke="black" points="591.5,-492.5 591.5,-511.5 718.5,-511.5 718.5,-492.5 591.5,-492.5"/>
<text text-anchor="middle" x="655" y="-499.5" font-family="Helvetica,sans-Serif" font-size="10.00">odp/api/queue_types.h</text>
</a>
</g>
</g>
<!-- Node9&#45;&gt;Node20 -->
<g id="edge27" class="edge">
<title>Node9&#45;&gt;Node20</title>
<path fill="none" stroke="midnightblue" d="M465.75,-548.77C509.57,-538.18 569.38,-523.71 609.95,-513.9"/>
<polygon fill="midnightblue" stroke="midnightblue" points="610.93,-517.26 619.83,-511.51 609.28,-510.46 610.93,-517.26"/>
</g>
<!-- Node11 -->
<g id="node11" class="node">
<title>Node11</title>
<g id="a_node11"><a xlink:title=" ">
<polygon fill="white" stroke="#bfbfbf" points="212,-291.5 212,-321.5 340,-321.5 340,-291.5 212,-291.5"/>
<text text-anchor="start" x="220" y="-309.5" font-family="Helvetica,sans-Serif" font-size="10.00">odp/api/abi/proto_stats</text>
<text text-anchor="middle" x="276" y="-298.5" font-family="Helvetica,sans-Serif" font-size="10.00">_types.h</text>
</a>
</g>
</g>
<!-- Node10&#45;&gt;Node11 -->
<g id="edge12" class="edge">
<title>Node10&#45;&gt;Node11</title>
<path fill="none" stroke="midnightblue" d="M380.14,-358.4C360.71,-348.9 334.88,-336.28 313.81,-325.98"/>
<polygon fill="midnightblue" stroke="midnightblue" points="315.32,-322.82 304.8,-321.58 312.25,-329.11 315.32,-322.82"/>
</g>
<!-- Node12 -->
<g id="node12" class="node">
<title>Node12</title>
<g id="a_node12"><a xlink:href="api_2spec_2proto__stats__types_8h.html" target="_top" xlink:title=" ">
<polygon fill="white" stroke="black" points="358.5,-291.5 358.5,-321.5 465.5,-321.5 465.5,-291.5 358.5,-291.5"/>
<text text-anchor="start" x="366.5" y="-309.5" font-family="Helvetica,sans-Serif" font-size="10.00">odp/api/spec/proto</text>
<text text-anchor="middle" x="412" y="-298.5" font-family="Helvetica,sans-Serif" font-size="10.00">_stats_types.h</text>
</a>
</g>
</g>
<!-- Node10&#45;&gt;Node12 -->
<g id="edge13" class="edge">
<title>Node10&#45;&gt;Node12</title>
<path fill="none" stroke="midnightblue" d="M409.65,-358.4C410.01,-350.64 410.46,-340.81 410.88,-331.86"/>
<polygon fill="midnightblue" stroke="midnightblue" points="414.39,-331.73 411.35,-321.58 407.39,-331.4 414.39,-331.73"/>
</g>
<!-- Node12&#45;&gt;Node2 -->
<g id="edge14" class="edge">
<title>Node12&#45;&gt;Node2</title>
<path fill="none" stroke="midnightblue" d="M365.19,-291.43C300.06,-270.43 190,-229.16 190,-190 190,-190 190,-190 190,-132 190,-95.71 190,-53.31 190,-29.56"/>
<polygon fill="midnightblue" stroke="midnightblue" points="193.5,-29.51 190,-19.51 186.5,-29.51 193.5,-29.51"/>
</g>
<!-- Node12&#45;&gt;Node5 -->
<g id="edge26" class="edge">
<title>Node12&#45;&gt;Node5</title>
<path fill="none" stroke="midnightblue" d="M423.1,-291.14C443.04,-266.04 487.13,-213.57 533,-179 603.17,-126.12 634.35,-134.92 708,-87 737.05,-68.1 768.03,-42.45 786.71,-26.31"/>
<polygon fill="midnightblue" stroke="midnightblue" points="789.14,-28.84 794.37,-19.62 784.53,-23.56 789.14,-28.84"/>
</g>
<!-- Node12&#45;&gt;Node13 -->
<g id="edge15" class="edge">
<title>Node12&#45;&gt;Node13</title>
<path fill="none" stroke="midnightblue" d="M453,-291.4C482.63,-281.21 522.23,-267.59 550.3,-257.93"/>
<polygon fill="midnightblue" stroke="midnightblue" points="551.76,-261.13 560.08,-254.57 549.48,-254.51 551.76,-261.13"/>
</g>
<!-- Node14 -->
<g id="node14" class="node">
<title>Node14</title>
<g id="a_node14"><a xlink:title=" ">
<polygon fill="white" stroke="#bfbfbf" points="542,-179.5 542,-198.5 672,-198.5 672,-179.5 542,-179.5"/>
<text text-anchor="middle" x="607" y="-186.5" font-family="Helvetica,sans-Serif" font-size="10.00">odp/api/abi/std_types.h</text>
</a>
</g>
</g>
<!-- Node13&#45;&gt;Node14 -->
<g id="edge16" class="edge">
<title>Node13&#45;&gt;Node14</title>
<path fill="none" stroke="midnightblue" d="M588.63,-235.08C591.61,-227.77 595.93,-217.18 599.62,-208.1"/>
<polygon fill="midnightblue" stroke="midnightblue" points="602.9,-209.33 603.43,-198.75 596.42,-206.69 602.9,-209.33"/>
</g>
<!-- Node15 -->
<g id="node15" class="node">
<title>Node15</title>
<g id="a_node15"><a xlink:href="api_2spec_2std__types_8h.html" target="_top" xlink:title=" ">
<polygon fill="white" stroke="black" points="348.5,-179.5 348.5,-198.5 485.5,-198.5 485.5,-179.5 348.5,-179.5"/>
<text text-anchor="middle" x="417" y="-186.5" font-family="Helvetica,sans-Serif" font-size="10.00">odp/api/spec/std_types.h</text>
</a>
</g>
</g>
<!-- Node13&#45;&gt;Node15 -->
<g id="edge17" class="edge">
<title>Node13&#45;&gt;Node15</title>
<path fill="none" stroke="midnightblue" d="M558.38,-235.44C529.99,-226.32 484.86,-211.81 453.25,-201.65"/>
<polygon fill="midnightblue" stroke="midnightblue" points="454.09,-198.24 443.5,-198.52 451.94,-204.91 454.09,-198.24"/>
</g>
<!-- Node15&#45;&gt;Node2 -->
<g id="edge18" class="edge">
<title>Node15&#45;&gt;Node2</title>
<path fill="none" stroke="midnightblue" d="M396.3,-179.44C378.01,-171.38 351.05,-158.3 330,-143 285.51,-110.66 282.37,-93.35 242,-56 231.05,-45.87 218.39,-34.9 208.31,-26.33"/>
<polygon fill="midnightblue" stroke="midnightblue" points="210.44,-23.54 200.54,-19.77 205.92,-28.89 210.44,-23.54"/>
</g>
<!-- Node15&#45;&gt;Node5 -->
<g id="edge25" class="edge">
<title>Node15&#45;&gt;Node5</title>
<path fill="none" stroke="midnightblue" d="M440.58,-179.49C459.91,-171.81 487.35,-159.22 508,-143 547.69,-111.82 537.6,-81.77 581,-56 628.61,-27.72 690.97,-16.92 737.63,-12.94"/>
<polygon fill="midnightblue" stroke="midnightblue" points="737.93,-16.42 747.64,-12.16 737.4,-9.44 737.93,-16.42"/>
</g>
<!-- Node16 -->
<g id="node16" class="node">
<title>Node16</title>
<g id="a_node16"><a xlink:title=" ">
<polygon fill="white" stroke="#bfbfbf" points="446.5,-123.5 446.5,-142.5 499.5,-142.5 499.5,-123.5 446.5,-123.5"/>
<text text-anchor="middle" x="473" y="-130.5" font-family="Helvetica,sans-Serif" font-size="10.00">stdint.h</text>
</a>
</g>
</g>
<!-- Node15&#45;&gt;Node16 -->
<g id="edge19" class="edge">
<title>Node15&#45;&gt;Node16</title>
<path fill="none" stroke="midnightblue" d="M426,-179.32C434.19,-171.42 446.51,-159.55 456.47,-149.94"/>
<polygon fill="midnightblue" stroke="midnightblue" points="459.07,-152.29 463.84,-142.83 454.21,-147.26 459.07,-152.29"/>
</g>
<!-- Node17 -->
<g id="node17" class="node">
<title>Node17</title>
<g id="a_node17"><a xlink:href="api_2align_8h.html" target="_top" xlink:title=" ">
<polygon fill="white" stroke="black" points="339.5,-123.5 339.5,-142.5 428.5,-142.5 428.5,-123.5 339.5,-123.5"/>
<text text-anchor="middle" x="384" y="-130.5" font-family="Helvetica,sans-Serif" font-size="10.00">odp/api/align.h</text>
</a>
</g>
</g>
<!-- Node15&#45;&gt;Node17 -->
<g id="edge20" class="edge">
<title>Node15&#45;&gt;Node17</title>
<path fill="none" stroke="midnightblue" d="M411.55,-179.08C406.99,-171.61 400.33,-160.72 394.71,-151.52"/>
<polygon fill="midnightblue" stroke="midnightblue" points="397.55,-149.46 389.35,-142.75 391.58,-153.11 397.55,-149.46"/>
</g>
<!-- Node18 -->
<g id="node18" class="node">
<title>Node18</title>
<g id="a_node18"><a xlink:title=" ">
<polygon fill="white" stroke="#bfbfbf" points="426.5,-62 426.5,-81 533.5,-81 533.5,-62 426.5,-62"/>
<text text-anchor="middle" x="480" y="-69" font-family="Helvetica,sans-Serif" font-size="10.00">odp/api/abi/align.h</text>
</a>
</g>
</g>
<!-- Node17&#45;&gt;Node18 -->
<g id="edge21" class="edge">
<title>Node17&#45;&gt;Node18</title>
<path fill="none" stroke="midnightblue" d="M397.75,-123.48C413.37,-113.8 439.06,-97.87 457.58,-86.39"/>
<polygon fill="midnightblue" stroke="midnightblue" points="459.62,-89.25 466.27,-81.01 455.93,-83.3 459.62,-89.25"/>
</g>
<!-- Node19 -->
<g id="node19" class="node">
<title>Node19</title>
<g id="a_node19"><a xlink:href="api_2spec_2align_8h.html" target="_top" xlink:title=" ">
<polygon fill="white" stroke="black" points="294,-62 294,-81 408,-81 408,-62 294,-62"/>
<text text-anchor="middle" x="351" y="-69" font-family="Helvetica,sans-Serif" font-size="10.00">odp/api/spec/align.h</text>
</a>
</g>
</g>
<!-- Node17&#45;&gt;Node19 -->
<g id="edge22" class="edge">
<title>Node17&#45;&gt;Node19</title>
<path fill="none" stroke="midnightblue" d="M379.27,-123.48C374.42,-114.73 366.73,-100.87 360.6,-89.81"/>
<polygon fill="midnightblue" stroke="midnightblue" points="363.63,-88.06 355.72,-81.01 357.51,-91.45 363.63,-88.06"/>
</g>
<!-- Node19&#45;&gt;Node2 -->
<g id="edge23" class="edge">
<title>Node19&#45;&gt;Node2</title>
<path fill="none" stroke="midnightblue" d="M327.93,-61.98C300.32,-51.77 253.88,-34.61 222.6,-23.05"/>
<polygon fill="midnightblue" stroke="midnightblue" points="223.62,-19.69 213.02,-19.51 221.19,-26.26 223.62,-19.69"/>
</g>
<!-- Node19&#45;&gt;Node5 -->
<g id="edge24" class="edge">
<title>Node19&#45;&gt;Node5</title>
<path fill="none" stroke="midnightblue" d="M386.84,-61.94C396.59,-59.8 407.17,-57.65 417,-56 529.05,-37.23 660.65,-23.72 737.92,-16.64"/>
<polygon fill="midnightblue" stroke="midnightblue" points="738.35,-20.12 748,-15.73 737.72,-13.15 738.35,-20.12"/>
</g>
<!-- Node21 -->
<g id="node21" class="node">
<title>Node21</title>
<g id="a_node21"><a xlink:title=" ">
<polygon fill="white" stroke="#bfbfbf" points="651.5,-431 651.5,-450 796.5,-450 796.5,-431 651.5,-431"/>
<text text-anchor="middle" x="724" y="-438" font-family="Helvetica,sans-Serif" font-size="10.00">odp/api/abi/queue_types.h</text>
</a>
</g>
</g>
<!-- Node20&#45;&gt;Node21 -->
<g id="edge28" class="edge">
<title>Node20&#45;&gt;Node21</title>
<path fill="none" stroke="midnightblue" d="M664.89,-492.48C675.65,-483.2 693.07,-468.17 706.22,-456.83"/>
<polygon fill="midnightblue" stroke="midnightblue" points="708.84,-459.19 714.13,-450.01 704.27,-453.89 708.84,-459.19"/>
</g>
<!-- Node22 -->
<g id="node22" class="node">
<title>Node22</title>
<g id="a_node22"><a xlink:href="api_2spec_2queue__types_8h.html" target="_top" xlink:title=" ">
<polygon fill="white" stroke="black" points="522.5,-425.5 522.5,-455.5 633.5,-455.5 633.5,-425.5 522.5,-425.5"/>
<text text-anchor="start" x="530.5" y="-443.5" font-family="Helvetica,sans-Serif" font-size="10.00">odp/api/spec/queue</text>
<text text-anchor="middle" x="578" y="-432.5" font-family="Helvetica,sans-Serif" font-size="10.00">_types.h</text>
</a>
</g>
</g>
<!-- Node20&#45;&gt;Node22 -->
<g id="edge29" class="edge">
<title>Node20&#45;&gt;Node22</title>
<path fill="none" stroke="midnightblue" d="M643.97,-492.48C633.64,-484.49 617.8,-472.25 604.23,-461.77"/>
<polygon fill="midnightblue" stroke="midnightblue" points="606.2,-458.87 596.15,-455.52 601.92,-464.41 606.2,-458.87"/>
</g>
<!-- Node22&#45;&gt;Node2 -->
<g id="edge30" class="edge">
<title>Node22&#45;&gt;Node2</title>
<path fill="none" stroke="midnightblue" d="M522.31,-434.05C406.84,-421.2 152,-384.15 152,-307.5 152,-307.5 152,-307.5 152,-132 152,-93.81 169.44,-51.83 180.69,-28.72"/>
<polygon fill="midnightblue" stroke="midnightblue" points="183.96,-30.02 185.34,-19.52 177.71,-26.86 183.96,-30.02"/>
</g>
<!-- Node22&#45;&gt;Node5 -->
<g id="edge37" class="edge">
<title>Node22&#45;&gt;Node5</title>
<path fill="none" stroke="midnightblue" d="M632.95,-425.43C753.23,-391.27 1037.87,-291.34 1148,-87 1154.54,-74.87 1157.09,-66.35 1148,-56 1130.01,-35.5 965.23,-21.48 870.41,-15.03"/>
<polygon fill="midnightblue" stroke="midnightblue" points="870.55,-11.54 860.34,-14.36 870.08,-18.52 870.55,-11.54"/>
</g>
<!-- Node23 -->
<g id="node23" class="node">
<title>Node23</title>
<g id="a_node23"><a xlink:href="api_2schedule__types_8h.html" target="_top" xlink:title=" ">
<polygon fill="white" stroke="black" points="522,-364 522,-383 662,-383 662,-364 522,-364"/>
<text text-anchor="middle" x="592" y="-371" font-family="Helvetica,sans-Serif" font-size="10.00">odp/api/schedule_types.h</text>
</a>
</g>
</g>
<!-- Node22&#45;&gt;Node23 -->
<g id="edge31" class="edge">
<title>Node22&#45;&gt;Node23</title>
<path fill="none" stroke="midnightblue" d="M581.04,-425.4C583.07,-415.96 585.76,-403.45 587.97,-393.19"/>
<polygon fill="midnightblue" stroke="midnightblue" points="591.44,-393.71 590.13,-383.19 584.6,-392.23 591.44,-393.71"/>
</g>
<!-- Node24 -->
<g id="node24" class="node">
<title>Node24</title>
<g id="a_node24"><a xlink:title=" ">
<polygon fill="white" stroke="#bfbfbf" points="665.5,-291.5 665.5,-321.5 782.5,-321.5 782.5,-291.5 665.5,-291.5"/>
<text text-anchor="start" x="673.5" y="-309.5" font-family="Helvetica,sans-Serif" font-size="10.00">odp/api/abi/schedule</text>
<text text-anchor="middle" x="724" y="-298.5" font-family="Helvetica,sans-Serif" font-size="10.00">_types.h</text>
</a>
</g>
</g>
<!-- Node23&#45;&gt;Node24 -->
<g id="edge32" class="edge">
<title>Node23&#45;&gt;Node24</title>
<path fill="none" stroke="midnightblue" d="M609.53,-363.87C628.93,-354.31 660.79,-338.63 685.97,-326.22"/>
<polygon fill="midnightblue" stroke="midnightblue" points="687.84,-329.21 695.26,-321.65 684.74,-322.93 687.84,-329.21"/>
</g>
<!-- Node25 -->
<g id="node25" class="node">
<title>Node25</title>
<g id="a_node25"><a xlink:href="api_2spec_2schedule__types_8h.html" target="_top" xlink:title=" ">
<polygon fill="white" stroke="black" points="522.5,-291.5 522.5,-321.5 647.5,-321.5 647.5,-291.5 522.5,-291.5"/>
<text text-anchor="start" x="530.5" y="-309.5" font-family="Helvetica,sans-Serif" font-size="10.00">odp/api/spec/schedule</text>
<text text-anchor="middle" x="585" y="-298.5" font-family="Helvetica,sans-Serif" font-size="10.00">_types.h</text>
</a>
</g>
</g>
<!-- Node23&#45;&gt;Node25 -->
<g id="edge33" class="edge">
<title>Node23&#45;&gt;Node25</title>
<path fill="none" stroke="midnightblue" d="M591.06,-363.73C590.17,-355.54 588.81,-342.92 587.61,-331.71"/>
<polygon fill="midnightblue" stroke="midnightblue" points="591.07,-331.16 586.52,-321.59 584.11,-331.91 591.07,-331.16"/>
</g>
<!-- Node25&#45;&gt;Node2 -->
<g id="edge34" class="edge">
<title>Node25&#45;&gt;Node2</title>
<path fill="none" stroke="midnightblue" d="M535.89,-291.46C483.68,-274.96 400.36,-244 339,-199 273,-150.6 220.53,-65.72 199.7,-28.89"/>
<polygon fill="midnightblue" stroke="midnightblue" points="202.6,-26.89 194.69,-19.85 196.48,-30.29 202.6,-26.89"/>
</g>
<!-- Node25&#45;&gt;Node5 -->
<g id="edge36" class="edge">
<title>Node25&#45;&gt;Node5</title>
<path fill="none" stroke="midnightblue" d="M647.54,-292.66C699.86,-277.83 766,-247.69 766,-190 766,-190 766,-190 766,-132 766,-93.81 783.44,-51.83 794.69,-28.72"/>
<polygon fill="midnightblue" stroke="midnightblue" points="797.96,-30.02 799.34,-19.52 791.71,-26.86 797.96,-30.02"/>
</g>
<!-- Node25&#45;&gt;Node13 -->
<g id="edge35" class="edge">
<title>Node25&#45;&gt;Node13</title>
<path fill="none" stroke="midnightblue" d="M585,-291.4C585,-283.47 585,-273.46 585,-264.86"/>
<polygon fill="midnightblue" stroke="midnightblue" points="588.5,-264.66 585,-254.66 581.5,-264.66 588.5,-264.66"/>
</g>
<!-- Node27 -->
<g id="node27" class="node">
<title>Node27</title>
<g id="a_node27"><a xlink:title=" ">
<polygon fill="white" stroke="#bfbfbf" points="610,-783.5 610,-802.5 746,-802.5 746,-783.5 610,-783.5"/>
<text text-anchor="middle" x="678" y="-790.5" font-family="Helvetica,sans-Serif" font-size="10.00">odp/api/abi/pool_types.h</text>
</a>
</g>
</g>
<!-- Node26&#45;&gt;Node27 -->
<g id="edge40" class="edge">
<title>Node26&#45;&gt;Node27</title>
<path fill="none" stroke="midnightblue" d="M678,-839.08C678,-832.01 678,-821.86 678,-812.99"/>
<polygon fill="midnightblue" stroke="midnightblue" points="681.5,-812.75 678,-802.75 674.5,-812.75 681.5,-812.75"/>
</g>
<!-- Node28 -->
<g id="node28" class="node">
<title>Node28</title>
<g id="a_node28"><a xlink:href="api_2spec_2pool__types_8h.html" target="_top" xlink:title=" ">
<polygon fill="white" stroke="black" points="781.5,-783.5 781.5,-802.5 924.5,-802.5 924.5,-783.5 781.5,-783.5"/>
<text text-anchor="middle" x="853" y="-790.5" font-family="Helvetica,sans-Serif" font-size="10.00">odp/api/spec/pool_types.h</text>
</a>
</g>
</g>
<!-- Node26&#45;&gt;Node28 -->
<g id="edge41" class="edge">
<title>Node26&#45;&gt;Node28</title>
<path fill="none" stroke="midnightblue" d="M705.73,-839.44C735.43,-830.28 782.72,-815.69 815.67,-805.52"/>
<polygon fill="midnightblue" stroke="midnightblue" points="816.88,-808.81 825.4,-802.52 814.81,-802.12 816.88,-808.81"/>
</g>
<!-- Node28&#45;&gt;Node2 -->
<g id="edge42" class="edge">
<title>Node28&#45;&gt;Node2</title>
<path fill="none" stroke="midnightblue" d="M802.94,-783.48C625.62,-752.62 38,-644.33 38,-564.5 38,-564.5 38,-564.5 38,-132 38,-92.97 52.67,-81.75 82,-56 99.79,-40.38 123.77,-29.66 144.61,-22.61"/>
<polygon fill="midnightblue" stroke="midnightblue" points="145.78,-25.91 154.24,-19.53 143.65,-19.24 145.78,-25.91"/>
</g>
<!-- Node28&#45;&gt;Node5 -->
<g id="edge57" class="edge">
<title>Node28&#45;&gt;Node5</title>
<path fill="none" stroke="midnightblue" d="M924.73,-788.34C994.81,-780.43 1091,-756.08 1091,-682 1091,-682 1091,-682 1091,-372.5 1091,-225.5 1291.04,-159.84 1187,-56 1165.05,-34.09 974.15,-20.32 870.43,-14.38"/>
<polygon fill="midnightblue" stroke="midnightblue" points="870.55,-10.89 860.37,-13.82 870.15,-17.87 870.55,-10.89"/>
</g>
<!-- Node28&#45;&gt;Node13 -->
<g id="edge43" class="edge">
<title>Node28&#45;&gt;Node13</title>
<path fill="none" stroke="midnightblue" d="M907.55,-783.48C962.43,-771.45 1039,-743.62 1039,-682 1039,-682 1039,-682 1039,-562.5 1039,-407.47 952.92,-370.79 820,-291 768.69,-260.2 700.7,-249.81 651.06,-246.62"/>
<polygon fill="midnightblue" stroke="midnightblue" points="651.25,-243.13 641.07,-246.06 650.86,-250.11 651.25,-243.13"/>
</g>
<!-- Node29 -->
<g id="node29" class="node">
<title>Node29</title>
<g id="a_node29"><a xlink:href="api_2dma__types_8h.html" target="_top" xlink:title=" ">
<polygon fill="white" stroke="black" points="793.5,-727.5 793.5,-746.5 912.5,-746.5 912.5,-727.5 793.5,-727.5"/>
<text text-anchor="middle" x="853" y="-734.5" font-family="Helvetica,sans-Serif" font-size="10.00">odp/api/dma_types.h</text>
</a>
</g>
</g>
<!-- Node28&#45;&gt;Node29 -->
<g id="edge44" class="edge">
<title>Node28&#45;&gt;Node29</title>
<path fill="none" stroke="midnightblue" d="M853,-783.08C853,-776.01 853,-765.86 853,-756.99"/>
<polygon fill="midnightblue" stroke="midnightblue" points="856.5,-756.75 853,-746.75 849.5,-756.75 856.5,-756.75"/>
</g>
<!-- Node30 -->
<g id="node30" class="node">
<title>Node30</title>
<g id="a_node30"><a xlink:title=" ">
<polygon fill="white" stroke="#bfbfbf" points="864.5,-671.5 864.5,-690.5 1001.5,-690.5 1001.5,-671.5 864.5,-671.5"/>
<text text-anchor="middle" x="933" y="-678.5" font-family="Helvetica,sans-Serif" font-size="10.00">odp/api/abi/dma_types.h</text>
</a>
</g>
</g>
<!-- Node29&#45;&gt;Node30 -->
<g id="edge45" class="edge">
<title>Node29&#45;&gt;Node30</title>
<path fill="none" stroke="midnightblue" d="M865.85,-727.32C878.22,-718.98 897.13,-706.21 911.74,-696.35"/>
<polygon fill="midnightblue" stroke="midnightblue" points="913.85,-699.15 920.18,-690.65 909.93,-693.35 913.85,-699.15"/>
</g>
<!-- Node31 -->
<g id="node31" class="node">
<title>Node31</title>
<g id="a_node31"><a xlink:href="api_2spec_2dma__types_8h.html" target="_top" xlink:title=" ">
<polygon fill="white" stroke="black" points="702,-671.5 702,-690.5 846,-690.5 846,-671.5 702,-671.5"/>
<text text-anchor="middle" x="774" y="-678.5" font-family="Helvetica,sans-Serif" font-size="10.00">odp/api/spec/dma_types.h</text>
</a>
</g>
</g>
<!-- Node29&#45;&gt;Node31 -->
<g id="edge46" class="edge">
<title>Node29&#45;&gt;Node31</title>
<path fill="none" stroke="midnightblue" d="M840.31,-727.32C828.1,-718.98 809.42,-706.21 795,-696.35"/>
<polygon fill="midnightblue" stroke="midnightblue" points="796.89,-693.41 786.66,-690.65 792.94,-699.19 796.89,-693.41"/>
</g>
<!-- Node31&#45;&gt;Node2 -->
<g id="edge47" class="edge">
<title>Node31&#45;&gt;Node2</title>
<path fill="none" stroke="midnightblue" d="M701.93,-675.57C523.59,-663.65 76,-627.45 76,-564.5 76,-564.5 76,-564.5 76,-305.5 76,-189.05 102.36,-159.36 156,-56 161.29,-45.81 168.87,-35.51 175.53,-27.34"/>
<polygon fill="midnightblue" stroke="midnightblue" points="178.21,-29.59 182,-19.7 172.87,-25.07 178.21,-29.59"/>
</g>
<!-- Node31&#45;&gt;Node5 -->
<g id="edge56" class="edge">
<title>Node31&#45;&gt;Node5</title>
<path fill="none" stroke="midnightblue" d="M823.2,-671.44C866.66,-663.1 926,-649.58 945,-635 1000.43,-592.47 962.31,-587.89 1077,-291 1117.13,-187.11 1237.71,-139.49 1164,-56 1144.93,-34.39 969.12,-20.68 870.44,-14.62"/>
<polygon fill="midnightblue" stroke="midnightblue" points="870.45,-11.11 860.26,-14 870.03,-18.1 870.45,-11.11"/>
</g>
<!-- Node31&#45;&gt;Node6 -->
<g id="edge53" class="edge">
<title>Node31&#45;&gt;Node6</title>
<path fill="none" stroke="midnightblue" d="M714.9,-671.44C648.33,-661.81 540.28,-646.16 469.92,-635.98"/>
<polygon fill="midnightblue" stroke="midnightblue" points="470.22,-632.49 459.83,-634.52 469.22,-639.41 470.22,-632.49"/>
</g>
<!-- Node31&#45;&gt;Node13 -->
<g id="edge55" class="edge">
<title>Node31&#45;&gt;Node13</title>
<path fill="none" stroke="midnightblue" d="M787.52,-671.33C812.41,-654.19 863,-613.36 863,-564.5 863,-564.5 863,-564.5 863,-501 863,-402.33 864.67,-356.63 791,-291 770.53,-272.76 703.51,-260.46 651.41,-253.4"/>
<polygon fill="midnightblue" stroke="midnightblue" points="651.58,-249.89 641.2,-252.05 650.66,-256.83 651.58,-249.89"/>
</g>
<!-- Node31&#45;&gt;Node20 -->
<g id="edge54" class="edge">
<title>Node31&#45;&gt;Node20</title>
<path fill="none" stroke="midnightblue" d="M768.26,-671.46C749.77,-643.96 691.52,-557.32 666.55,-520.18"/>
<polygon fill="midnightblue" stroke="midnightblue" points="669.45,-518.21 660.96,-511.87 663.64,-522.12 669.45,-518.21"/>
</g>
<!-- Node32 -->
<g id="node32" class="node">
<title>Node32</title>
<g id="a_node32"><a xlink:href="api_2event__types_8h.html" target="_top" xlink:title=" ">
<polygon fill="white" stroke="black" points="841.5,-123.5 841.5,-142.5 966.5,-142.5 966.5,-123.5 841.5,-123.5"/>
<text text-anchor="middle" x="904" y="-130.5" font-family="Helvetica,sans-Serif" font-size="10.00">odp/api/event_types.h</text>
</a>
</g>
</g>
<!-- Node31&#45;&gt;Node32 -->
<g id="edge48" class="edge">
<title>Node31&#45;&gt;Node32</title>
<path fill="none" stroke="midnightblue" d="M825.15,-671.45C881.12,-658.83 963,-629.3 963,-564.5 963,-564.5 963,-564.5 963,-244 963,-207.02 936.79,-170.47 919.31,-150.21"/>
<polygon fill="midnightblue" stroke="midnightblue" points="921.74,-147.67 912.45,-142.56 916.53,-152.34 921.74,-147.67"/>
</g>
<!-- Node33 -->
<g id="node33" class="node">
<title>Node33</title>
<g id="a_node33"><a xlink:title=" ">
<polygon fill="white" stroke="#bfbfbf" points="832.5,-62 832.5,-81 975.5,-81 975.5,-62 832.5,-62"/>
<text text-anchor="middle" x="904" y="-69" font-family="Helvetica,sans-Serif" font-size="10.00">odp/api/abi/event_types.h</text>
</a>
</g>
</g>
<!-- Node32&#45;&gt;Node33 -->
<g id="edge49" class="edge">
<title>Node32&#45;&gt;Node33</title>
<path fill="none" stroke="midnightblue" d="M904,-123.48C904,-115.08 904,-101.98 904,-91.16"/>
<polygon fill="midnightblue" stroke="midnightblue" points="907.5,-91.01 904,-81.01 900.5,-91.01 907.5,-91.01"/>
</g>
<!-- Node34 -->
<g id="node34" class="node">
<title>Node34</title>
<g id="a_node34"><a xlink:href="api_2spec_2event__types_8h.html" target="_top" xlink:title=" ">
<polygon fill="white" stroke="black" points="590.5,-56.5 590.5,-86.5 699.5,-86.5 699.5,-56.5 590.5,-56.5"/>
<text text-anchor="start" x="598.5" y="-74.5" font-family="Helvetica,sans-Serif" font-size="10.00">odp/api/spec/event</text>
<text text-anchor="middle" x="645" y="-63.5" font-family="Helvetica,sans-Serif" font-size="10.00">_types.h</text>
</a>
</g>
</g>
<!-- Node32&#45;&gt;Node34 -->
<g id="edge50" class="edge">
<title>Node32&#45;&gt;Node34</title>
<path fill="none" stroke="midnightblue" d="M866.89,-123.48C825.93,-114.07 759.24,-98.75 709.65,-87.35"/>
<polygon fill="midnightblue" stroke="midnightblue" points="710.19,-83.89 699.66,-85.06 708.63,-90.71 710.19,-83.89"/>
</g>
<!-- Node34&#45;&gt;Node2 -->
<g id="edge51" class="edge">
<title>Node34&#45;&gt;Node2</title>
<path fill="none" stroke="midnightblue" d="M590.49,-62.7C574.84,-60.49 557.75,-58.12 542,-56 444.66,-42.93 332.06,-28.69 260.95,-19.8"/>
<polygon fill="midnightblue" stroke="midnightblue" points="261.12,-16.3 250.76,-18.53 260.25,-23.24 261.12,-16.3"/>
</g>
<!-- Node34&#45;&gt;Node5 -->
<g id="edge52" class="edge">
<title>Node34&#45;&gt;Node5</title>
<path fill="none" stroke="midnightblue" d="M682.68,-56.4C709.6,-46.33 745.45,-32.91 771.19,-23.28"/>
<polygon fill="midnightblue" stroke="midnightblue" points="772.73,-26.44 780.86,-19.66 770.27,-19.88 772.73,-26.44"/>
</g>
</g>
</svg>
