<?xml version="1.0" encoding="UTF-8" standalone="no"?>
<!DOCTYPE svg PUBLIC "-//W3C//DTD SVG 1.1//EN"
 "http://www.w3.org/Graphics/SVG/1.1/DTD/svg11.dtd">
<!-- Generated by graphviz version 2.43.0 (0)
 -->
<!-- Title: queue.h Pages: 1 -->
<svg width="824pt" height="565pt"
 viewBox="0.00 0.00 823.70 565.00" xmlns="http://www.w3.org/2000/svg" xmlns:xlink="http://www.w3.org/1999/xlink">
<g id="graph0" class="graph" transform="scale(1 1) rotate(0) translate(4 561)">
<title>queue.h</title>
<polygon fill="white" stroke="transparent" points="-4,4 -4,-561 819.7,-561 819.7,4 -4,4"/>
<!-- Node1 -->
<g id="node1" class="node">
<title>Node1</title>
<g id="a_node1"><a xlink:title=" ">
<polygon fill="#bfbfbf" stroke="black" points="211.7,-537.5 211.7,-556.5 267.7,-556.5 267.7,-537.5 211.7,-537.5"/>
<text text-anchor="middle" x="239.7" y="-544.5" font-family="Helvetica,sans-Serif" font-size="10.00">queue.h</text>
</a>
</g>
</g>
<!-- Node2 -->
<g id="node2" class="node">
<title>Node2</title>
<g id="a_node2"><a xlink:href="visibility__begin_8h_source.html" target="_top" xlink:title=" ">
<polygon fill="white" stroke="black" points="660.2,-0.5 660.2,-19.5 781.2,-19.5 781.2,-0.5 660.2,-0.5"/>
<text text-anchor="middle" x="720.7" y="-7.5" font-family="Helvetica,sans-Serif" font-size="10.00">odp/visibility_begin.h</text>
</a>
</g>
</g>
<!-- Node1&#45;&gt;Node2 -->
<g id="edge1" class="edge">
<title>Node1&#45;&gt;Node2</title>
<path fill="none" stroke="midnightblue" d="M267.87,-546.42C383.52,-547.42 815.7,-543.58 815.7,-430.5 815.7,-430.5 815.7,-430.5 815.7,-132 815.7,-85.25 771.28,-45.86 743.19,-25.62"/>
<polygon fill="midnightblue" stroke="midnightblue" points="744.93,-22.57 734.72,-19.74 740.94,-28.32 744.93,-22.57"/>
</g>
<!-- Node3 -->
<g id="node3" class="node">
<title>Node3</title>
<g id="a_node3"><a xlink:href="api_2event__types_8h.html" target="_top" xlink:title=" ">
<polygon fill="white" stroke="black" points="48.2,-123.5 48.2,-142.5 173.2,-142.5 173.2,-123.5 48.2,-123.5"/>
<text text-anchor="middle" x="110.7" y="-130.5" font-family="Helvetica,sans-Serif" font-size="10.00">odp/api/event_types.h</text>
</a>
</g>
</g>
<!-- Node1&#45;&gt;Node3 -->
<g id="edge2" class="edge">
<title>Node1&#45;&gt;Node3</title>
<path fill="none" stroke="midnightblue" d="M223.31,-537.33C194.48,-520.74 137.7,-481.6 137.7,-430.5 137.7,-430.5 137.7,-430.5 137.7,-244 137.7,-210.86 126,-173.68 118,-152.14"/>
<polygon fill="midnightblue" stroke="midnightblue" points="121.21,-150.73 114.34,-142.66 114.68,-153.25 121.21,-150.73"/>
</g>
<!-- Node6 -->
<g id="node6" class="node">
<title>Node6</title>
<g id="a_node6"><a xlink:href="visibility__end_8h_source.html" target="_top" xlink:title=" ">
<polygon fill="white" stroke="black" points="269.7,-0.5 269.7,-19.5 381.7,-19.5 381.7,-0.5 269.7,-0.5"/>
<text text-anchor="middle" x="325.7" y="-7.5" font-family="Helvetica,sans-Serif" font-size="10.00">odp/visibility_end.h</text>
</a>
</g>
</g>
<!-- Node1&#45;&gt;Node6 -->
<g id="edge29" class="edge">
<title>Node1&#45;&gt;Node6</title>
<path fill="none" stroke="midnightblue" d="M211.46,-545.08C148.42,-541.37 1.7,-522.82 1.7,-430.5 1.7,-430.5 1.7,-430.5 1.7,-132 1.7,-97.18 -5.1,-79.38 20.7,-56 54.72,-25.17 180.11,-15.45 259.13,-12.4"/>
<polygon fill="midnightblue" stroke="midnightblue" points="259.61,-15.88 269.48,-12.02 259.36,-8.89 259.61,-15.88"/>
</g>
<!-- Node7 -->
<g id="node7" class="node">
<title>Node7</title>
<g id="a_node7"><a xlink:href="api_2queue__types_8h.html" target="_top" xlink:title=" ">
<polygon fill="white" stroke="black" points="307.2,-481.5 307.2,-500.5 434.2,-500.5 434.2,-481.5 307.2,-481.5"/>
<text text-anchor="middle" x="370.7" y="-488.5" font-family="Helvetica,sans-Serif" font-size="10.00">odp/api/queue_types.h</text>
</a>
</g>
</g>
<!-- Node1&#45;&gt;Node7 -->
<g id="edge7" class="edge">
<title>Node1&#45;&gt;Node7</title>
<path fill="none" stroke="midnightblue" d="M260.46,-537.44C282.02,-528.56 315.96,-514.56 340.49,-504.45"/>
<polygon fill="midnightblue" stroke="midnightblue" points="342.13,-507.56 350.04,-500.52 339.46,-501.09 342.13,-507.56"/>
</g>
<!-- Node13 -->
<g id="node13" class="node">
<title>Node13</title>
<g id="a_node13"><a xlink:href="api_2std__types_8h.html" target="_top" xlink:title=" ">
<polygon fill="white" stroke="black" points="402.7,-235.5 402.7,-254.5 514.7,-254.5 514.7,-235.5 402.7,-235.5"/>
<text text-anchor="middle" x="458.7" y="-242.5" font-family="Helvetica,sans-Serif" font-size="10.00">odp/api/std_types.h</text>
</a>
</g>
</g>
<!-- Node1&#45;&gt;Node13 -->
<g id="edge28" class="edge">
<title>Node1&#45;&gt;Node13</title>
<path fill="none" stroke="midnightblue" d="M239.7,-537.31C239.7,-518.06 239.7,-470.4 239.7,-430.5 239.7,-430.5 239.7,-430.5 239.7,-367 239.7,-296.39 328,-266.66 392.46,-254.37"/>
<polygon fill="midnightblue" stroke="midnightblue" points="393.37,-257.77 402.59,-252.55 392.12,-250.88 393.37,-257.77"/>
</g>
<!-- Node4 -->
<g id="node4" class="node">
<title>Node4</title>
<g id="a_node4"><a xlink:title=" ">
<polygon fill="white" stroke="#bfbfbf" points="30.2,-62 30.2,-81 173.2,-81 173.2,-62 30.2,-62"/>
<text text-anchor="middle" x="101.7" y="-69" font-family="Helvetica,sans-Serif" font-size="10.00">odp/api/abi/event_types.h</text>
</a>
</g>
</g>
<!-- Node3&#45;&gt;Node4 -->
<g id="edge3" class="edge">
<title>Node3&#45;&gt;Node4</title>
<path fill="none" stroke="midnightblue" d="M109.41,-123.48C108.14,-115.08 106.16,-101.98 104.52,-91.16"/>
<polygon fill="midnightblue" stroke="midnightblue" points="107.94,-90.37 102.99,-81.01 101.02,-91.42 107.94,-90.37"/>
</g>
<!-- Node5 -->
<g id="node5" class="node">
<title>Node5</title>
<g id="a_node5"><a xlink:href="api_2spec_2event__types_8h.html" target="_top" xlink:title=" ">
<polygon fill="white" stroke="black" points="230.2,-56.5 230.2,-86.5 339.2,-86.5 339.2,-56.5 230.2,-56.5"/>
<text text-anchor="start" x="238.2" y="-74.5" font-family="Helvetica,sans-Serif" font-size="10.00">odp/api/spec/event</text>
<text text-anchor="middle" x="284.7" y="-63.5" font-family="Helvetica,sans-Serif" font-size="10.00">_types.h</text>
</a>
</g>
</g>
<!-- Node3&#45;&gt;Node5 -->
<g id="edge4" class="edge">
<title>Node3&#45;&gt;Node5</title>
<path fill="none" stroke="midnightblue" d="M135.63,-123.48C161.18,-114.74 201.63,-100.91 233.95,-89.86"/>
<polygon fill="midnightblue" stroke="midnightblue" points="235.36,-93.07 243.69,-86.52 233.1,-86.45 235.36,-93.07"/>
</g>
<!-- Node5&#45;&gt;Node2 -->
<g id="edge5" class="edge">
<title>Node5&#45;&gt;Node2</title>
<path fill="none" stroke="midnightblue" d="M339.48,-63.02C418.13,-52.29 563.1,-32.51 649.83,-20.67"/>
<polygon fill="midnightblue" stroke="midnightblue" points="650.41,-24.12 659.85,-19.3 649.47,-17.19 650.41,-24.12"/>
</g>
<!-- Node5&#45;&gt;Node6 -->
<g id="edge6" class="edge">
<title>Node5&#45;&gt;Node6</title>
<path fill="none" stroke="midnightblue" d="M294.42,-56.4C300.25,-47.93 307.72,-37.1 313.89,-28.14"/>
<polygon fill="midnightblue" stroke="midnightblue" points="316.94,-29.88 319.73,-19.66 311.18,-25.91 316.94,-29.88"/>
</g>
<!-- Node8 -->
<g id="node8" class="node">
<title>Node8</title>
<g id="a_node8"><a xlink:title=" ">
<polygon fill="white" stroke="#bfbfbf" points="444.2,-420 444.2,-439 589.2,-439 589.2,-420 444.2,-420"/>
<text text-anchor="middle" x="516.7" y="-427" font-family="Helvetica,sans-Serif" font-size="10.00">odp/api/abi/queue_types.h</text>
</a>
</g>
</g>
<!-- Node7&#45;&gt;Node8 -->
<g id="edge8" class="edge">
<title>Node7&#45;&gt;Node8</title>
<path fill="none" stroke="midnightblue" d="M391.62,-481.48C416.45,-471.36 458.04,-454.4 486.39,-442.85"/>
<polygon fill="midnightblue" stroke="midnightblue" points="487.88,-446.02 495.82,-439.01 485.24,-439.54 487.88,-446.02"/>
</g>
<!-- Node9 -->
<g id="node9" class="node">
<title>Node9</title>
<g id="a_node9"><a xlink:href="api_2spec_2queue__types_8h.html" target="_top" xlink:title=" ">
<polygon fill="white" stroke="black" points="315.2,-414.5 315.2,-444.5 426.2,-444.5 426.2,-414.5 315.2,-414.5"/>
<text text-anchor="start" x="323.2" y="-432.5" font-family="Helvetica,sans-Serif" font-size="10.00">odp/api/spec/queue</text>
<text text-anchor="middle" x="370.7" y="-421.5" font-family="Helvetica,sans-Serif" font-size="10.00">_types.h</text>
</a>
</g>
</g>
<!-- Node7&#45;&gt;Node9 -->
<g id="edge9" class="edge">
<title>Node7&#45;&gt;Node9</title>
<path fill="none" stroke="midnightblue" d="M370.7,-481.48C370.7,-474.47 370.7,-464.19 370.7,-454.7"/>
<polygon fill="midnightblue" stroke="midnightblue" points="374.2,-454.52 370.7,-444.52 367.2,-454.52 374.2,-454.52"/>
</g>
<!-- Node9&#45;&gt;Node2 -->
<g id="edge10" class="edge">
<title>Node9&#45;&gt;Node2</title>
<path fill="none" stroke="midnightblue" d="M426.44,-414.86C537.91,-387.21 777.7,-325.61 777.7,-307.5 777.7,-307.5 777.7,-307.5 777.7,-132 777.7,-91.59 751.36,-50.21 734.49,-27.85"/>
<polygon fill="midnightblue" stroke="midnightblue" points="737.07,-25.46 728.15,-19.74 731.56,-29.77 737.07,-25.46"/>
</g>
<!-- Node9&#45;&gt;Node6 -->
<g id="edge27" class="edge">
<title>Node9&#45;&gt;Node6</title>
<path fill="none" stroke="midnightblue" d="M342.03,-414.31C293.82,-388.19 201.7,-327.61 201.7,-246 201.7,-246 201.7,-246 201.7,-132 201.7,-97.07 198.94,-82.49 221.7,-56 235.47,-39.98 255.98,-29.48 275.15,-22.69"/>
<polygon fill="midnightblue" stroke="midnightblue" points="276.31,-26 284.72,-19.56 274.13,-19.35 276.31,-26"/>
</g>
<!-- Node10 -->
<g id="node10" class="node">
<title>Node10</title>
<g id="a_node10"><a xlink:href="api_2schedule__types_8h.html" target="_top" xlink:title=" ">
<polygon fill="white" stroke="black" points="344.7,-358.5 344.7,-377.5 484.7,-377.5 484.7,-358.5 344.7,-358.5"/>
<text text-anchor="middle" x="414.7" y="-365.5" font-family="Helvetica,sans-Serif" font-size="10.00">odp/api/schedule_types.h</text>
</a>
</g>
</g>
<!-- Node9&#45;&gt;Node10 -->
<g id="edge11" class="edge">
<title>Node9&#45;&gt;Node10</title>
<path fill="none" stroke="midnightblue" d="M381.13,-414.4C387.46,-405.84 395.57,-394.87 402.23,-385.86"/>
<polygon fill="midnightblue" stroke="midnightblue" points="405.17,-387.78 408.3,-377.66 399.54,-383.62 405.17,-387.78"/>
</g>
<!-- Node11 -->
<g id="node11" class="node">
<title>Node11</title>
<g id="a_node11"><a xlink:title=" ">
<polygon fill="white" stroke="#bfbfbf" points="495.2,-291.5 495.2,-321.5 612.2,-321.5 612.2,-291.5 495.2,-291.5"/>
<text text-anchor="start" x="503.2" y="-309.5" font-family="Helvetica,sans-Serif" font-size="10.00">odp/api/abi/schedule</text>
<text text-anchor="middle" x="553.7" y="-298.5" font-family="Helvetica,sans-Serif" font-size="10.00">_types.h</text>
</a>
</g>
</g>
<!-- Node10&#45;&gt;Node11 -->
<g id="edge12" class="edge">
<title>Node10&#45;&gt;Node11</title>
<path fill="none" stroke="midnightblue" d="M434.62,-358.48C454.58,-349.93 485.95,-336.5 511.48,-325.57"/>
<polygon fill="midnightblue" stroke="midnightblue" points="513.13,-328.68 520.94,-321.52 510.37,-322.24 513.13,-328.68"/>
</g>
<!-- Node12 -->
<g id="node12" class="node">
<title>Node12</title>
<g id="a_node12"><a xlink:href="api_2spec_2schedule__types_8h.html" target="_top" xlink:title=" ">
<polygon fill="white" stroke="black" points="352.2,-291.5 352.2,-321.5 477.2,-321.5 477.2,-291.5 352.2,-291.5"/>
<text text-anchor="start" x="360.2" y="-309.5" font-family="Helvetica,sans-Serif" font-size="10.00">odp/api/spec/schedule</text>
<text text-anchor="middle" x="414.7" y="-298.5" font-family="Helvetica,sans-Serif" font-size="10.00">_types.h</text>
</a>
</g>
</g>
<!-- Node10&#45;&gt;Node12 -->
<g id="edge13" class="edge">
<title>Node10&#45;&gt;Node12</title>
<path fill="none" stroke="midnightblue" d="M414.7,-358.48C414.7,-351.47 414.7,-341.19 414.7,-331.7"/>
<polygon fill="midnightblue" stroke="midnightblue" points="418.2,-331.52 414.7,-321.52 411.2,-331.52 418.2,-331.52"/>
</g>
<!-- Node12&#45;&gt;Node2 -->
<g id="edge14" class="edge">
<title>Node12&#45;&gt;Node2</title>
<path fill="none" stroke="midnightblue" d="M470.94,-291.43C563.96,-267.37 739.7,-218.18 739.7,-190 739.7,-190 739.7,-190 739.7,-132 739.7,-95.29 731.06,-53.06 725.43,-29.45"/>
<polygon fill="midnightblue" stroke="midnightblue" points="728.83,-28.6 723.03,-19.73 722.03,-30.28 728.83,-28.6"/>
</g>
<!-- Node12&#45;&gt;Node6 -->
<g id="edge26" class="edge">
<title>Node12&#45;&gt;Node6</title>
<path fill="none" stroke="midnightblue" d="M404.73,-291.31C390.94,-270.24 367.7,-228.97 367.7,-190 367.7,-190 367.7,-190 367.7,-132 367.7,-93.45 348.44,-51.63 336.01,-28.64"/>
<polygon fill="midnightblue" stroke="midnightblue" points="338.96,-26.75 331.02,-19.74 332.86,-30.18 338.96,-26.75"/>
</g>
<!-- Node12&#45;&gt;Node13 -->
<g id="edge15" class="edge">
<title>Node12&#45;&gt;Node13</title>
<path fill="none" stroke="midnightblue" d="M425.13,-291.4C431.46,-282.84 439.57,-271.87 446.23,-262.86"/>
<polygon fill="midnightblue" stroke="midnightblue" points="449.17,-264.78 452.3,-254.66 443.54,-260.62 449.17,-264.78"/>
</g>
<!-- Node14 -->
<g id="node14" class="node">
<title>Node14</title>
<g id="a_node14"><a xlink:title=" ">
<polygon fill="white" stroke="#bfbfbf" points="551.7,-179.5 551.7,-198.5 681.7,-198.5 681.7,-179.5 551.7,-179.5"/>
<text text-anchor="middle" x="616.7" y="-186.5" font-family="Helvetica,sans-Serif" font-size="10.00">odp/api/abi/std_types.h</text>
</a>
</g>
</g>
<!-- Node13&#45;&gt;Node14 -->
<g id="edge16" class="edge">
<title>Node13&#45;&gt;Node14</title>
<path fill="none" stroke="midnightblue" d="M483.74,-235.44C510.32,-226.36 552.51,-211.94 582.22,-201.78"/>
<polygon fill="midnightblue" stroke="midnightblue" points="583.45,-205.06 591.78,-198.52 581.19,-198.44 583.45,-205.06"/>
</g>
<!-- Node15 -->
<g id="node15" class="node">
<title>Node15</title>
<g id="a_node15"><a xlink:href="api_2spec_2std__types_8h.html" target="_top" xlink:title=" ">
<polygon fill="white" stroke="black" points="396.2,-179.5 396.2,-198.5 533.2,-198.5 533.2,-179.5 396.2,-179.5"/>
<text text-anchor="middle" x="464.7" y="-186.5" font-family="Helvetica,sans-Serif" font-size="10.00">odp/api/spec/std_types.h</text>
</a>
</g>
</g>
<!-- Node13&#45;&gt;Node15 -->
<g id="edge17" class="edge">
<title>Node13&#45;&gt;Node15</title>
<path fill="none" stroke="midnightblue" d="M459.69,-235.08C460.49,-227.93 461.63,-217.64 462.62,-208.69"/>
<polygon fill="midnightblue" stroke="midnightblue" points="466.1,-209.08 463.73,-198.75 459.15,-208.3 466.1,-209.08"/>
</g>
<!-- Node15&#45;&gt;Node2 -->
<g id="edge18" class="edge">
<title>Node15&#45;&gt;Node2</title>
<path fill="none" stroke="midnightblue" d="M507.77,-179.46C557.2,-167.42 637.27,-140.63 682.7,-87 697.41,-69.64 708.18,-45.62 714.43,-29.26"/>
<polygon fill="midnightblue" stroke="midnightblue" points="717.76,-30.35 717.88,-19.76 711.17,-27.97 717.76,-30.35"/>
</g>
<!-- Node15&#45;&gt;Node6 -->
<g id="edge25" class="edge">
<title>Node15&#45;&gt;Node6</title>
<path fill="none" stroke="midnightblue" d="M456.78,-179.45C448.88,-170.68 436.67,-156.47 427.7,-143 403.47,-106.59 409.55,-89.73 381.7,-56 372.05,-44.31 358.95,-33.58 347.84,-25.53"/>
<polygon fill="midnightblue" stroke="midnightblue" points="349.67,-22.54 339.46,-19.68 345.66,-28.28 349.67,-22.54"/>
</g>
<!-- Node16 -->
<g id="node16" class="node">
<title>Node16</title>
<g id="a_node16"><a xlink:title=" ">
<polygon fill="white" stroke="#bfbfbf" points="436.2,-123.5 436.2,-142.5 489.2,-142.5 489.2,-123.5 436.2,-123.5"/>
<text text-anchor="middle" x="462.7" y="-130.5" font-family="Helvetica,sans-Serif" font-size="10.00">stdint.h</text>
</a>
</g>
</g>
<!-- Node15&#45;&gt;Node16 -->
<g id="edge19" class="edge">
<title>Node15&#45;&gt;Node16</title>
<path fill="none" stroke="midnightblue" d="M464.37,-179.08C464.11,-172.01 463.73,-161.86 463.4,-152.99"/>
<polygon fill="midnightblue" stroke="midnightblue" points="466.89,-152.61 463.02,-142.75 459.9,-152.87 466.89,-152.61"/>
</g>
<!-- Node17 -->
<g id="node17" class="node">
<title>Node17</title>
<g id="a_node17"><a xlink:href="api_2align_8h.html" target="_top" xlink:title=" ">
<polygon fill="white" stroke="black" points="507.2,-123.5 507.2,-142.5 596.2,-142.5 596.2,-123.5 507.2,-123.5"/>
<text text-anchor="middle" x="551.7" y="-130.5" font-family="Helvetica,sans-Serif" font-size="10.00">odp/api/align.h</text>
</a>
</g>
</g>
<!-- Node15&#45;&gt;Node17 -->
<g id="edge20" class="edge">
<title>Node15&#45;&gt;Node17</title>
<path fill="none" stroke="midnightblue" d="M478.68,-179.32C492.25,-170.9 513.08,-157.97 529.03,-148.07"/>
<polygon fill="midnightblue" stroke="midnightblue" points="531.11,-150.9 537.76,-142.65 527.41,-144.95 531.11,-150.9"/>
</g>
<!-- Node18 -->
<g id="node18" class="node">
<title>Node18</title>
<g id="a_node18"><a xlink:title=" ">
<polygon fill="white" stroke="#bfbfbf" points="566.2,-62 566.2,-81 673.2,-81 673.2,-62 566.2,-62"/>
<text text-anchor="middle" x="619.7" y="-69" font-family="Helvetica,sans-Serif" font-size="10.00">odp/api/abi/align.h</text>
</a>
</g>
</g>
<!-- Node17&#45;&gt;Node18 -->
<g id="edge21" class="edge">
<title>Node17&#45;&gt;Node18</title>
<path fill="none" stroke="midnightblue" d="M561.44,-123.48C572.05,-114.2 589.22,-99.17 602.18,-87.83"/>
<polygon fill="midnightblue" stroke="midnightblue" points="604.75,-90.23 609.98,-81.01 600.15,-84.96 604.75,-90.23"/>
</g>
<!-- Node19 -->
<g id="node19" class="node">
<title>Node19</title>
<g id="a_node19"><a xlink:href="api_2spec_2align_8h.html" target="_top" xlink:title=" ">
<polygon fill="white" stroke="black" points="433.7,-62 433.7,-81 547.7,-81 547.7,-62 433.7,-62"/>
<text text-anchor="middle" x="490.7" y="-69" font-family="Helvetica,sans-Serif" font-size="10.00">odp/api/spec/align.h</text>
</a>
</g>
</g>
<!-- Node17&#45;&gt;Node19 -->
<g id="edge22" class="edge">
<title>Node17&#45;&gt;Node19</title>
<path fill="none" stroke="midnightblue" d="M542.96,-123.48C533.54,-114.28 518.34,-99.46 506.75,-88.16"/>
<polygon fill="midnightblue" stroke="midnightblue" points="509.03,-85.49 499.42,-81.01 504.14,-90.5 509.03,-85.49"/>
</g>
<!-- Node19&#45;&gt;Node2 -->
<g id="edge23" class="edge">
<title>Node19&#45;&gt;Node2</title>
<path fill="none" stroke="midnightblue" d="M523.65,-61.98C564.3,-51.46 633.49,-33.56 678.12,-22.01"/>
<polygon fill="midnightblue" stroke="midnightblue" points="679,-25.4 687.81,-19.51 677.25,-18.63 679,-25.4"/>
</g>
<!-- Node19&#45;&gt;Node6 -->
<g id="edge24" class="edge">
<title>Node19&#45;&gt;Node6</title>
<path fill="none" stroke="midnightblue" d="M467.06,-61.98C438.76,-51.77 391.17,-34.61 359.11,-23.05"/>
<polygon fill="midnightblue" stroke="midnightblue" points="359.89,-19.61 349.3,-19.51 357.52,-26.19 359.89,-19.61"/>
</g>
</g>
</svg>
