<?xml version="1.0" encoding="UTF-8" standalone="no"?>
<!DOCTYPE svg PUBLIC "-//W3C//DTD SVG 1.1//EN"
 "http://www.w3.org/Graphics/SVG/1.1/DTD/svg11.dtd">
<!-- Generated by graphviz version 2.43.0 (0)
 -->
<!-- Title: time.h Pages: 1 -->
<svg width="462pt" height="308pt"
 viewBox="0.00 0.00 462.00 308.00" xmlns="http://www.w3.org/2000/svg" xmlns:xlink="http://www.w3.org/1999/xlink">
<g id="graph0" class="graph" transform="scale(1 1) rotate(0) translate(4 304)">
<title>time.h</title>
<polygon fill="white" stroke="transparent" points="-4,4 -4,-304 458,-304 458,4 -4,4"/>
<!-- Node1 -->
<g id="node1" class="node">
<title>Node1</title>
<g id="a_node1"><a xlink:title=" ">
<polygon fill="#bfbfbf" stroke="black" points="165,-280.5 165,-299.5 213,-299.5 213,-280.5 165,-280.5"/>
<text text-anchor="middle" x="189" y="-287.5" font-family="Helvetica,sans-Serif" font-size="10.00">time.h</text>
</a>
</g>
</g>
<!-- Node2 -->
<g id="node2" class="node">
<title>Node2</title>
<g id="a_node2"><a xlink:href="arch_2arm32-linux_2odp_2api_2abi_2time_8h_source.html" target="_top" xlink:title=" ">
<polygon fill="white" stroke="black" points="0,-224.5 0,-243.5 48,-243.5 48,-224.5 0,-224.5"/>
<text text-anchor="middle" x="24" y="-231.5" font-family="Helvetica,sans-Serif" font-size="10.00">time.h</text>
</a>
</g>
</g>
<!-- Node1&#45;&gt;Node2 -->
<g id="edge1" class="edge">
<title>Node1&#45;&gt;Node2</title>
<path fill="none" stroke="midnightblue" d="M154.88,-277.83C123.04,-267.41 76.33,-252.13 48.18,-242.91"/>
<polygon fill="midnightblue" stroke="midnightblue" points="154.06,-281.25 164.65,-281.03 156.24,-274.6 154.06,-281.25"/>
</g>
<!-- Node3 -->
<g id="node3" class="node">
<title>Node3</title>
<g id="a_node3"><a xlink:href="arch_2arm64-linux_2odp_2api_2abi_2time_8h_source.html" target="_top" xlink:title=" ">
<polygon fill="white" stroke="black" points="66,-224.5 66,-243.5 114,-243.5 114,-224.5 66,-224.5"/>
<text text-anchor="middle" x="90" y="-231.5" font-family="Helvetica,sans-Serif" font-size="10.00">time.h</text>
</a>
</g>
</g>
<!-- Node1&#45;&gt;Node3 -->
<g id="edge2" class="edge">
<title>Node1&#45;&gt;Node3</title>
<path fill="none" stroke="midnightblue" d="M164.16,-275.45C145.89,-265.48 121.58,-252.23 105.87,-243.65"/>
<polygon fill="midnightblue" stroke="midnightblue" points="162.64,-278.61 173.09,-280.32 165.99,-272.46 162.64,-278.61"/>
</g>
<!-- Node4 -->
<g id="node4" class="node">
<title>Node4</title>
<g id="a_node4"><a xlink:href="arch_2default-linux_2odp_2api_2abi_2time_8h_source.html" target="_top" xlink:title=" ">
<polygon fill="white" stroke="black" points="132,-224.5 132,-243.5 180,-243.5 180,-224.5 132,-224.5"/>
<text text-anchor="middle" x="156" y="-231.5" font-family="Helvetica,sans-Serif" font-size="10.00">time.h</text>
</a>
</g>
</g>
<!-- Node1&#45;&gt;Node4 -->
<g id="edge3" class="edge">
<title>Node1&#45;&gt;Node4</title>
<path fill="none" stroke="midnightblue" d="M178.17,-271.27C172.53,-262.05 165.88,-251.17 161.35,-243.75"/>
<polygon fill="midnightblue" stroke="midnightblue" points="175.35,-273.38 183.55,-280.08 181.32,-269.73 175.35,-273.38"/>
</g>
<!-- Node5 -->
<g id="node5" class="node">
<title>Node5</title>
<g id="a_node5"><a xlink:href="arch_2power64-linux_2odp_2api_2abi_2time_8h_source.html" target="_top" xlink:title=" ">
<polygon fill="white" stroke="black" points="198,-224.5 198,-243.5 246,-243.5 246,-224.5 198,-224.5"/>
<text text-anchor="middle" x="222" y="-231.5" font-family="Helvetica,sans-Serif" font-size="10.00">time.h</text>
</a>
</g>
</g>
<!-- Node1&#45;&gt;Node5 -->
<g id="edge4" class="edge">
<title>Node1&#45;&gt;Node5</title>
<path fill="none" stroke="midnightblue" d="M199.83,-271.27C205.47,-262.05 212.12,-251.17 216.65,-243.75"/>
<polygon fill="midnightblue" stroke="midnightblue" points="196.68,-269.73 194.45,-280.08 202.65,-273.38 196.68,-269.73"/>
</g>
<!-- Node6 -->
<g id="node6" class="node">
<title>Node6</title>
<g id="a_node6"><a xlink:href="arch_2x86__32-linux_2odp_2api_2abi_2time_8h_source.html" target="_top" xlink:title=" ">
<polygon fill="white" stroke="black" points="264,-224.5 264,-243.5 312,-243.5 312,-224.5 264,-224.5"/>
<text text-anchor="middle" x="288" y="-231.5" font-family="Helvetica,sans-Serif" font-size="10.00">time.h</text>
</a>
</g>
</g>
<!-- Node1&#45;&gt;Node6 -->
<g id="edge5" class="edge">
<title>Node1&#45;&gt;Node6</title>
<path fill="none" stroke="midnightblue" d="M213.84,-275.45C232.11,-265.48 256.42,-252.23 272.13,-243.65"/>
<polygon fill="midnightblue" stroke="midnightblue" points="212.01,-272.46 204.91,-280.32 215.36,-278.61 212.01,-272.46"/>
</g>
<!-- Node7 -->
<g id="node7" class="node">
<title>Node7</title>
<g id="a_node7"><a xlink:href="arch_2x86__64-linux_2odp_2api_2abi_2time_8h_source.html" target="_top" xlink:title=" ">
<polygon fill="white" stroke="black" points="330,-224.5 330,-243.5 378,-243.5 378,-224.5 330,-224.5"/>
<text text-anchor="middle" x="354" y="-231.5" font-family="Helvetica,sans-Serif" font-size="10.00">time.h</text>
</a>
</g>
</g>
<!-- Node1&#45;&gt;Node7 -->
<g id="edge6" class="edge">
<title>Node1&#45;&gt;Node7</title>
<path fill="none" stroke="midnightblue" d="M223.12,-277.83C254.96,-267.41 301.67,-252.13 329.82,-242.91"/>
<polygon fill="midnightblue" stroke="midnightblue" points="221.76,-274.6 213.35,-281.03 223.94,-281.25 221.76,-274.6"/>
</g>
<!-- Node8 -->
<g id="node8" class="node">
<title>Node8</title>
<g id="a_node8"><a xlink:href="api_2time_8h.html" target="_top" xlink:title=" ">
<polygon fill="white" stroke="black" points="330,-168.5 330,-187.5 378,-187.5 378,-168.5 330,-168.5"/>
<text text-anchor="middle" x="354" y="-175.5" font-family="Helvetica,sans-Serif" font-size="10.00">time.h</text>
</a>
</g>
</g>
<!-- Node7&#45;&gt;Node8 -->
<g id="edge7" class="edge">
<title>Node7&#45;&gt;Node8</title>
<path fill="none" stroke="midnightblue" d="M354,-213.8C354,-204.91 354,-194.78 354,-187.75"/>
<polygon fill="midnightblue" stroke="midnightblue" points="350.5,-214.08 354,-224.08 357.5,-214.08 350.5,-214.08"/>
</g>
<!-- Node9 -->
<g id="node9" class="node">
<title>Node9</title>
<g id="a_node9"><a xlink:href="api_2spec_2packet_8h.html" target="_top" xlink:title=" ">
<polygon fill="white" stroke="black" points="268,-112.5 268,-131.5 326,-131.5 326,-112.5 268,-112.5"/>
<text text-anchor="middle" x="297" y="-119.5" font-family="Helvetica,sans-Serif" font-size="10.00">packet.h</text>
</a>
</g>
</g>
<!-- Node8&#45;&gt;Node9 -->
<g id="edge8" class="edge">
<title>Node8&#45;&gt;Node9</title>
<path fill="none" stroke="midnightblue" d="M337.38,-161.25C327.27,-151.67 314.72,-139.79 306.32,-131.83"/>
<polygon fill="midnightblue" stroke="midnightblue" points="335.18,-163.99 344.84,-168.32 339.99,-158.91 335.18,-163.99"/>
</g>
<!-- Node11 -->
<g id="node11" class="node">
<title>Node11</title>
<g id="a_node11"><a xlink:href="odp__api_8h.html" target="_top" xlink:title=" ">
<polygon fill="white" stroke="black" points="322,-0.5 322,-19.5 386,-19.5 386,-0.5 322,-0.5"/>
<text text-anchor="middle" x="354" y="-7.5" font-family="Helvetica,sans-Serif" font-size="10.00">odp_api.h</text>
</a>
</g>
</g>
<!-- Node8&#45;&gt;Node11 -->
<g id="edge14" class="edge">
<title>Node8&#45;&gt;Node11</title>
<path fill="none" stroke="midnightblue" d="M354,-157.93C354,-121.92 354,-45.23 354,-19.57"/>
<polygon fill="midnightblue" stroke="midnightblue" points="350.5,-158.08 354,-168.08 357.5,-158.08 350.5,-158.08"/>
</g>
<!-- Node12 -->
<g id="node12" class="node">
<title>Node12</title>
<g id="a_node12"><a xlink:href="api_2spec_2packet__io_8h.html" target="_top" xlink:title=" ">
<polygon fill="white" stroke="black" points="382,-112.5 382,-131.5 454,-131.5 454,-112.5 382,-112.5"/>
<text text-anchor="middle" x="418" y="-119.5" font-family="Helvetica,sans-Serif" font-size="10.00">packet_io.h</text>
</a>
</g>
</g>
<!-- Node8&#45;&gt;Node12 -->
<g id="edge11" class="edge">
<title>Node8&#45;&gt;Node12</title>
<path fill="none" stroke="midnightblue" d="M371.99,-161.82C383.46,-152.15 397.91,-139.95 407.53,-131.83"/>
<polygon fill="midnightblue" stroke="midnightblue" points="369.67,-159.2 364.28,-168.32 374.18,-164.55 369.67,-159.2"/>
</g>
<!-- Node10 -->
<g id="node10" class="node">
<title>Node10</title>
<g id="a_node10"><a xlink:href="api_2packet_8h.html" target="_top" xlink:title=" ">
<polygon fill="white" stroke="black" points="268,-56.5 268,-75.5 326,-75.5 326,-56.5 268,-56.5"/>
<text text-anchor="middle" x="297" y="-63.5" font-family="Helvetica,sans-Serif" font-size="10.00">packet.h</text>
</a>
</g>
</g>
<!-- Node9&#45;&gt;Node10 -->
<g id="edge9" class="edge">
<title>Node9&#45;&gt;Node10</title>
<path fill="none" stroke="midnightblue" d="M297,-101.8C297,-92.91 297,-82.78 297,-75.75"/>
<polygon fill="midnightblue" stroke="midnightblue" points="293.5,-102.08 297,-112.08 300.5,-102.08 293.5,-102.08"/>
</g>
<!-- Node10&#45;&gt;Node11 -->
<g id="edge10" class="edge">
<title>Node10&#45;&gt;Node11</title>
<path fill="none" stroke="midnightblue" d="M313.62,-49.25C323.73,-39.67 336.28,-27.79 344.68,-19.83"/>
<polygon fill="midnightblue" stroke="midnightblue" points="311.01,-46.91 306.16,-56.32 315.82,-51.99 311.01,-46.91"/>
</g>
<!-- Node13 -->
<g id="node13" class="node">
<title>Node13</title>
<g id="a_node13"><a xlink:href="api_2packet__io_8h.html" target="_top" xlink:title=" ">
<polygon fill="white" stroke="black" points="382,-56.5 382,-75.5 454,-75.5 454,-56.5 382,-56.5"/>
<text text-anchor="middle" x="418" y="-63.5" font-family="Helvetica,sans-Serif" font-size="10.00">packet_io.h</text>
</a>
</g>
</g>
<!-- Node12&#45;&gt;Node13 -->
<g id="edge12" class="edge">
<title>Node12&#45;&gt;Node13</title>
<path fill="none" stroke="midnightblue" d="M418,-101.8C418,-92.91 418,-82.78 418,-75.75"/>
<polygon fill="midnightblue" stroke="midnightblue" points="414.5,-102.08 418,-112.08 421.5,-102.08 414.5,-102.08"/>
</g>
<!-- Node13&#45;&gt;Node11 -->
<g id="edge13" class="edge">
<title>Node13&#45;&gt;Node11</title>
<path fill="none" stroke="midnightblue" d="M400.01,-49.82C388.54,-40.15 374.09,-27.95 364.47,-19.83"/>
<polygon fill="midnightblue" stroke="midnightblue" points="397.82,-52.55 407.72,-56.32 402.33,-47.2 397.82,-52.55"/>
</g>
</g>
</svg>
