<?xml version="1.0" encoding="UTF-8" standalone="no"?>
<!DOCTYPE svg PUBLIC "-//W3C//DTD SVG 1.1//EN"
 "http://www.w3.org/Graphics/SVG/1.1/DTD/svg11.dtd">
<!-- Generated by graphviz version 2.43.0 (0)
 -->
<!-- Title: hash.h Pages: 1 -->
<svg width="400pt" height="196pt"
 viewBox="0.00 0.00 399.50 196.00" xmlns="http://www.w3.org/2000/svg" xmlns:xlink="http://www.w3.org/1999/xlink">
<g id="graph0" class="graph" transform="scale(1 1) rotate(0) translate(4 192)">
<title>hash.h</title>
<polygon fill="white" stroke="transparent" points="-4,4 -4,-192 395.5,-192 395.5,4 -4,4"/>
<!-- Node1 -->
<g id="node1" class="node">
<title>Node1</title>
<g id="a_node1"><a xlink:title=" ">
<polygon fill="#bfbfbf" stroke="black" points="167,-168.5 167,-187.5 216,-187.5 216,-168.5 167,-168.5"/>
<text text-anchor="middle" x="191.5" y="-175.5" font-family="Helvetica,sans-Serif" font-size="10.00">hash.h</text>
</a>
</g>
</g>
<!-- Node2 -->
<g id="node2" class="node">
<title>Node2</title>
<g id="a_node2"><a xlink:href="arch_2arm32-linux_2odp_2api_2abi_2hash_8h_source.html" target="_top" xlink:title=" ">
<polygon fill="white" stroke="black" points="0,-112.5 0,-131.5 49,-131.5 49,-112.5 0,-112.5"/>
<text text-anchor="middle" x="24.5" y="-119.5" font-family="Helvetica,sans-Serif" font-size="10.00">hash.h</text>
</a>
</g>
</g>
<!-- Node1&#45;&gt;Node2 -->
<g id="edge1" class="edge">
<title>Node1&#45;&gt;Node2</title>
<path fill="none" stroke="midnightblue" d="M157,-165.84C124.87,-155.46 77.78,-140.23 49.24,-131"/>
<polygon fill="midnightblue" stroke="midnightblue" points="156.27,-169.29 166.86,-169.03 158.42,-162.63 156.27,-169.29"/>
</g>
<!-- Node3 -->
<g id="node3" class="node">
<title>Node3</title>
<g id="a_node3"><a xlink:href="arch_2arm64-linux_2odp_2api_2abi_2hash_8h_source.html" target="_top" xlink:title=" ">
<polygon fill="white" stroke="black" points="67,-112.5 67,-131.5 116,-131.5 116,-112.5 67,-112.5"/>
<text text-anchor="middle" x="91.5" y="-119.5" font-family="Helvetica,sans-Serif" font-size="10.00">hash.h</text>
</a>
</g>
</g>
<!-- Node1&#45;&gt;Node3 -->
<g id="edge2" class="edge">
<title>Node1&#45;&gt;Node3</title>
<path fill="none" stroke="midnightblue" d="M166.41,-163.45C147.95,-153.48 123.4,-140.23 107.53,-131.65"/>
<polygon fill="midnightblue" stroke="midnightblue" points="164.97,-166.65 175.43,-168.32 168.3,-160.49 164.97,-166.65"/>
</g>
<!-- Node4 -->
<g id="node4" class="node">
<title>Node4</title>
<g id="a_node4"><a xlink:href="arch_2default-linux_2odp_2api_2abi_2hash_8h_source.html" target="_top" xlink:title=" ">
<polygon fill="white" stroke="black" points="134,-112.5 134,-131.5 183,-131.5 183,-112.5 134,-112.5"/>
<text text-anchor="middle" x="158.5" y="-119.5" font-family="Helvetica,sans-Serif" font-size="10.00">hash.h</text>
</a>
</g>
</g>
<!-- Node1&#45;&gt;Node4 -->
<g id="edge3" class="edge">
<title>Node1&#45;&gt;Node4</title>
<path fill="none" stroke="midnightblue" d="M180.67,-159.27C175.03,-150.05 168.38,-139.17 163.85,-131.75"/>
<polygon fill="midnightblue" stroke="midnightblue" points="177.85,-161.38 186.05,-168.08 183.82,-157.73 177.85,-161.38"/>
</g>
<!-- Node5 -->
<g id="node5" class="node">
<title>Node5</title>
<g id="a_node5"><a xlink:href="arch_2power64-linux_2odp_2api_2abi_2hash_8h_source.html" target="_top" xlink:title=" ">
<polygon fill="white" stroke="black" points="201,-112.5 201,-131.5 250,-131.5 250,-112.5 201,-112.5"/>
<text text-anchor="middle" x="225.5" y="-119.5" font-family="Helvetica,sans-Serif" font-size="10.00">hash.h</text>
</a>
</g>
</g>
<!-- Node1&#45;&gt;Node5 -->
<g id="edge4" class="edge">
<title>Node1&#45;&gt;Node5</title>
<path fill="none" stroke="midnightblue" d="M202.48,-159.57C208.33,-150.27 215.27,-139.25 219.99,-131.75"/>
<polygon fill="midnightblue" stroke="midnightblue" points="199.48,-157.76 197.11,-168.08 205.4,-161.49 199.48,-157.76"/>
</g>
<!-- Node6 -->
<g id="node6" class="node">
<title>Node6</title>
<g id="a_node6"><a xlink:href="arch_2x86__32-linux_2odp_2api_2abi_2hash_8h_source.html" target="_top" xlink:title=" ">
<polygon fill="white" stroke="black" points="268,-112.5 268,-131.5 317,-131.5 317,-112.5 268,-112.5"/>
<text text-anchor="middle" x="292.5" y="-119.5" font-family="Helvetica,sans-Serif" font-size="10.00">hash.h</text>
</a>
</g>
</g>
<!-- Node1&#45;&gt;Node6 -->
<g id="edge5" class="edge">
<title>Node1&#45;&gt;Node6</title>
<path fill="none" stroke="midnightblue" d="M216.58,-163.59C235.26,-153.61 260.2,-140.27 276.31,-131.65"/>
<polygon fill="midnightblue" stroke="midnightblue" points="214.9,-160.52 207.73,-168.32 218.2,-166.7 214.9,-160.52"/>
</g>
<!-- Node7 -->
<g id="node7" class="node">
<title>Node7</title>
<g id="a_node7"><a xlink:href="arch_2x86__64-linux_2odp_2api_2abi_2hash_8h_source.html" target="_top" xlink:title=" ">
<polygon fill="white" stroke="black" points="335,-112.5 335,-131.5 384,-131.5 384,-112.5 335,-112.5"/>
<text text-anchor="middle" x="359.5" y="-119.5" font-family="Helvetica,sans-Serif" font-size="10.00">hash.h</text>
</a>
</g>
</g>
<!-- Node1&#45;&gt;Node7 -->
<g id="edge6" class="edge">
<title>Node1&#45;&gt;Node7</title>
<path fill="none" stroke="midnightblue" d="M225.82,-165.97C258.25,-155.55 306.09,-140.17 334.88,-130.91"/>
<polygon fill="midnightblue" stroke="midnightblue" points="224.74,-162.64 216.29,-169.03 226.88,-169.3 224.74,-162.64"/>
</g>
<!-- Node8 -->
<g id="node8" class="node">
<title>Node8</title>
<g id="a_node8"><a xlink:href="api_2hash_8h.html" target="_top" xlink:title=" ">
<polygon fill="white" stroke="black" points="335,-56.5 335,-75.5 384,-75.5 384,-56.5 335,-56.5"/>
<text text-anchor="middle" x="359.5" y="-63.5" font-family="Helvetica,sans-Serif" font-size="10.00">hash.h</text>
</a>
</g>
</g>
<!-- Node7&#45;&gt;Node8 -->
<g id="edge7" class="edge">
<title>Node7&#45;&gt;Node8</title>
<path fill="none" stroke="midnightblue" d="M359.5,-101.8C359.5,-92.91 359.5,-82.78 359.5,-75.75"/>
<polygon fill="midnightblue" stroke="midnightblue" points="356,-102.08 359.5,-112.08 363,-102.08 356,-102.08"/>
</g>
<!-- Node9 -->
<g id="node9" class="node">
<title>Node9</title>
<g id="a_node9"><a xlink:href="odp__api_8h.html" target="_top" xlink:title=" ">
<polygon fill="white" stroke="black" points="327.5,-0.5 327.5,-19.5 391.5,-19.5 391.5,-0.5 327.5,-0.5"/>
<text text-anchor="middle" x="359.5" y="-7.5" font-family="Helvetica,sans-Serif" font-size="10.00">odp_api.h</text>
</a>
</g>
</g>
<!-- Node8&#45;&gt;Node9 -->
<g id="edge8" class="edge">
<title>Node8&#45;&gt;Node9</title>
<path fill="none" stroke="midnightblue" d="M359.5,-45.8C359.5,-36.91 359.5,-26.78 359.5,-19.75"/>
<polygon fill="midnightblue" stroke="midnightblue" points="356,-46.08 359.5,-56.08 363,-46.08 356,-46.08"/>
</g>
</g>
</svg>
