<?xml version="1.0" encoding="UTF-8" standalone="no"?>
<!DOCTYPE svg PUBLIC "-//W3C//DTD SVG 1.1//EN"
 "http://www.w3.org/Graphics/SVG/1.1/DTD/svg11.dtd">
<!-- Generated by graphviz version 2.43.0 (0)
 -->
<!-- Title: event.h Pages: 1 -->
<svg width="1003pt" height="755pt"
 viewBox="0.00 0.00 1003.00 755.00" xmlns="http://www.w3.org/2000/svg" xmlns:xlink="http://www.w3.org/1999/xlink">
<g id="graph0" class="graph" transform="scale(1 1) rotate(0) translate(4 751)">
<title>event.h</title>
<polygon fill="white" stroke="transparent" points="-4,4 -4,-751 999,-751 999,4 -4,4"/>
<!-- Node1 -->
<g id="node1" class="node">
<title>Node1</title>
<g id="a_node1"><a xlink:title=" ">
<polygon fill="#bfbfbf" stroke="black" points="94.5,-727.5 94.5,-746.5 147.5,-746.5 147.5,-727.5 94.5,-727.5"/>
<text text-anchor="middle" x="121" y="-734.5" font-family="Helvetica,sans-Serif" font-size="10.00">event.h</text>
</a>
</g>
</g>
<!-- Node2 -->
<g id="node2" class="node">
<title>Node2</title>
<g id="a_node2"><a xlink:title=" ">
<polygon fill="white" stroke="#bfbfbf" points="0,-671.5 0,-690.5 110,-690.5 110,-671.5 0,-671.5"/>
<text text-anchor="middle" x="55" y="-678.5" font-family="Helvetica,sans-Serif" font-size="10.00">odp/api/abi/event.h</text>
</a>
</g>
</g>
<!-- Node1&#45;&gt;Node2 -->
<g id="edge1" class="edge">
<title>Node1&#45;&gt;Node2</title>
<path fill="none" stroke="midnightblue" d="M110.4,-727.32C100.54,-719.26 85.65,-707.08 73.78,-697.37"/>
<polygon fill="midnightblue" stroke="midnightblue" points="75.75,-694.46 65.8,-690.83 71.32,-699.88 75.75,-694.46"/>
</g>
<!-- Node3 -->
<g id="node3" class="node">
<title>Node3</title>
<g id="a_node3"><a xlink:href="api_2spec_2event_8h.html" target="_top" xlink:title=" ">
<polygon fill="white" stroke="black" points="128,-671.5 128,-690.5 246,-690.5 246,-671.5 128,-671.5"/>
<text text-anchor="middle" x="187" y="-678.5" font-family="Helvetica,sans-Serif" font-size="10.00">odp/api/spec/event.h</text>
</a>
</g>
</g>
<!-- Node1&#45;&gt;Node3 -->
<g id="edge2" class="edge">
<title>Node1&#45;&gt;Node3</title>
<path fill="none" stroke="midnightblue" d="M131.6,-727.32C141.46,-719.26 156.35,-707.08 168.22,-697.37"/>
<polygon fill="midnightblue" stroke="midnightblue" points="170.68,-699.88 176.2,-690.83 166.25,-694.46 170.68,-699.88"/>
</g>
<!-- Node4 -->
<g id="node4" class="node">
<title>Node4</title>
<g id="a_node4"><a xlink:href="visibility__begin_8h_source.html" target="_top" xlink:title=" ">
<polygon fill="white" stroke="black" points="331.5,-0.5 331.5,-19.5 452.5,-19.5 452.5,-0.5 331.5,-0.5"/>
<text text-anchor="middle" x="392" y="-7.5" font-family="Helvetica,sans-Serif" font-size="10.00">odp/visibility_begin.h</text>
</a>
</g>
</g>
<!-- Node3&#45;&gt;Node4 -->
<g id="edge3" class="edge">
<title>Node3&#45;&gt;Node4</title>
<path fill="none" stroke="midnightblue" d="M152.72,-671.45C106.25,-657.56 29,-625.32 29,-564.5 29,-564.5 29,-564.5 29,-132 29,-94.81 34.12,-78.14 64,-56 103.56,-26.68 237.12,-16.45 321.11,-12.89"/>
<polygon fill="midnightblue" stroke="midnightblue" points="321.5,-16.38 331.35,-12.48 321.22,-9.38 321.5,-16.38"/>
</g>
<!-- Node5 -->
<g id="node5" class="node">
<title>Node5</title>
<g id="a_node5"><a xlink:href="api_2event__types_8h.html" target="_top" xlink:title=" ">
<polygon fill="white" stroke="black" points="104.5,-123.5 104.5,-142.5 229.5,-142.5 229.5,-123.5 104.5,-123.5"/>
<text text-anchor="middle" x="167" y="-130.5" font-family="Helvetica,sans-Serif" font-size="10.00">odp/api/event_types.h</text>
</a>
</g>
</g>
<!-- Node3&#45;&gt;Node5 -->
<g id="edge4" class="edge">
<title>Node3&#45;&gt;Node5</title>
<path fill="none" stroke="midnightblue" d="M174.9,-671.35C152.09,-653.94 105,-612.21 105,-564.5 105,-564.5 105,-564.5 105,-244 105,-206.62 132.5,-170.24 150.87,-150.1"/>
<polygon fill="midnightblue" stroke="midnightblue" points="153.51,-152.41 157.85,-142.75 148.43,-147.59 153.51,-152.41"/>
</g>
<!-- Node8 -->
<g id="node8" class="node">
<title>Node8</title>
<g id="a_node8"><a xlink:href="visibility__end_8h_source.html" target="_top" xlink:title=" ">
<polygon fill="white" stroke="black" points="806,-0.5 806,-19.5 918,-19.5 918,-0.5 806,-0.5"/>
<text text-anchor="middle" x="862" y="-7.5" font-family="Helvetica,sans-Serif" font-size="10.00">odp/visibility_end.h</text>
</a>
</g>
</g>
<!-- Node3&#45;&gt;Node8 -->
<g id="edge42" class="edge">
<title>Node3&#45;&gt;Node8</title>
<path fill="none" stroke="midnightblue" d="M246.09,-677.77C432.35,-669.98 995,-640.18 995,-564.5 995,-564.5 995,-564.5 995,-132 995,-77.75 933.72,-41.4 894.35,-23.64"/>
<polygon fill="midnightblue" stroke="midnightblue" points="895.43,-20.3 884.86,-19.53 892.65,-26.72 895.43,-20.3"/>
</g>
<!-- Node9 -->
<g id="node9" class="node">
<title>Node9</title>
<g id="a_node9"><a xlink:href="api_2packet__types_8h.html" target="_top" xlink:title=" ">
<polygon fill="white" stroke="black" points="201.5,-615.5 201.5,-634.5 330.5,-634.5 330.5,-615.5 201.5,-615.5"/>
<text text-anchor="middle" x="266" y="-622.5" font-family="Helvetica,sans-Serif" font-size="10.00">odp/api/packet_types.h</text>
</a>
</g>
</g>
<!-- Node3&#45;&gt;Node9 -->
<g id="edge9" class="edge">
<title>Node3&#45;&gt;Node9</title>
<path fill="none" stroke="midnightblue" d="M199.69,-671.32C211.9,-662.98 230.58,-650.21 245,-640.35"/>
<polygon fill="midnightblue" stroke="midnightblue" points="247.06,-643.19 253.34,-634.65 243.11,-637.41 247.06,-643.19"/>
</g>
<!-- Node6 -->
<g id="node6" class="node">
<title>Node6</title>
<g id="a_node6"><a xlink:title=" ">
<polygon fill="white" stroke="#bfbfbf" points="95.5,-62 95.5,-81 238.5,-81 238.5,-62 95.5,-62"/>
<text text-anchor="middle" x="167" y="-69" font-family="Helvetica,sans-Serif" font-size="10.00">odp/api/abi/event_types.h</text>
</a>
</g>
</g>
<!-- Node5&#45;&gt;Node6 -->
<g id="edge5" class="edge">
<title>Node5&#45;&gt;Node6</title>
<path fill="none" stroke="midnightblue" d="M167,-123.48C167,-115.08 167,-101.98 167,-91.16"/>
<polygon fill="midnightblue" stroke="midnightblue" points="170.5,-91.01 167,-81.01 163.5,-91.01 170.5,-91.01"/>
</g>
<!-- Node7 -->
<g id="node7" class="node">
<title>Node7</title>
<g id="a_node7"><a xlink:href="api_2spec_2event__types_8h.html" target="_top" xlink:title=" ">
<polygon fill="white" stroke="black" points="295.5,-56.5 295.5,-86.5 404.5,-86.5 404.5,-56.5 295.5,-56.5"/>
<text text-anchor="start" x="303.5" y="-74.5" font-family="Helvetica,sans-Serif" font-size="10.00">odp/api/spec/event</text>
<text text-anchor="middle" x="350" y="-63.5" font-family="Helvetica,sans-Serif" font-size="10.00">_types.h</text>
</a>
</g>
</g>
<!-- Node5&#45;&gt;Node7 -->
<g id="edge6" class="edge">
<title>Node5&#45;&gt;Node7</title>
<path fill="none" stroke="midnightblue" d="M193.22,-123.48C220.2,-114.7 263,-100.79 297.06,-89.71"/>
<polygon fill="midnightblue" stroke="midnightblue" points="298.44,-92.94 306.87,-86.52 296.28,-86.29 298.44,-92.94"/>
</g>
<!-- Node7&#45;&gt;Node4 -->
<g id="edge7" class="edge">
<title>Node7&#45;&gt;Node4</title>
<path fill="none" stroke="midnightblue" d="M359.95,-56.4C365.99,-47.84 373.74,-36.87 380.1,-27.86"/>
<polygon fill="midnightblue" stroke="midnightblue" points="382.98,-29.85 385.89,-19.66 377.26,-25.81 382.98,-29.85"/>
</g>
<!-- Node7&#45;&gt;Node8 -->
<g id="edge8" class="edge">
<title>Node7&#45;&gt;Node8</title>
<path fill="none" stroke="midnightblue" d="M404.79,-64.13C499.44,-53.13 693.22,-30.61 795.46,-18.73"/>
<polygon fill="midnightblue" stroke="midnightblue" points="796.13,-22.18 805.66,-17.55 795.32,-15.23 796.13,-22.18"/>
</g>
<!-- Node10 -->
<g id="node10" class="node">
<title>Node10</title>
<g id="a_node10"><a xlink:title=" ">
<polygon fill="white" stroke="#bfbfbf" points="277,-548.5 277,-578.5 383,-578.5 383,-548.5 277,-548.5"/>
<text text-anchor="start" x="285" y="-566.5" font-family="Helvetica,sans-Serif" font-size="10.00">odp/api/abi/packet</text>
<text text-anchor="middle" x="330" y="-555.5" font-family="Helvetica,sans-Serif" font-size="10.00">_io_types.h</text>
</a>
</g>
</g>
<!-- Node9&#45;&gt;Node10 -->
<g id="edge10" class="edge">
<title>Node9&#45;&gt;Node10</title>
<path fill="none" stroke="midnightblue" d="M275.17,-615.48C283.59,-607.64 296.42,-595.71 307.56,-585.37"/>
<polygon fill="midnightblue" stroke="midnightblue" points="309.98,-587.9 314.92,-578.52 305.21,-582.77 309.98,-587.9"/>
</g>
<!-- Node11 -->
<g id="node11" class="node">
<title>Node11</title>
<g id="a_node11"><a xlink:title=" ">
<polygon fill="white" stroke="#bfbfbf" points="401,-548.5 401,-578.5 507,-578.5 507,-548.5 401,-548.5"/>
<text text-anchor="start" x="409" y="-566.5" font-family="Helvetica,sans-Serif" font-size="10.00">odp/api/abi/packet</text>
<text text-anchor="middle" x="454" y="-555.5" font-family="Helvetica,sans-Serif" font-size="10.00">_types.h</text>
</a>
</g>
</g>
<!-- Node9&#45;&gt;Node11 -->
<g id="edge11" class="edge">
<title>Node9&#45;&gt;Node11</title>
<path fill="none" stroke="midnightblue" d="M292.94,-615.48C320.78,-606.66 365,-592.67 400.07,-581.57"/>
<polygon fill="midnightblue" stroke="midnightblue" points="401.21,-584.88 409.69,-578.52 399.1,-578.2 401.21,-584.88"/>
</g>
<!-- Node12 -->
<g id="node12" class="node">
<title>Node12</title>
<g id="a_node12"><a xlink:href="api_2spec_2packet__types_8h.html" target="_top" xlink:title=" ">
<polygon fill="white" stroke="black" points="145.5,-548.5 145.5,-578.5 258.5,-578.5 258.5,-548.5 145.5,-548.5"/>
<text text-anchor="start" x="153.5" y="-566.5" font-family="Helvetica,sans-Serif" font-size="10.00">odp/api/spec/packet</text>
<text text-anchor="middle" x="202" y="-555.5" font-family="Helvetica,sans-Serif" font-size="10.00">_types.h</text>
</a>
</g>
</g>
<!-- Node9&#45;&gt;Node12 -->
<g id="edge12" class="edge">
<title>Node9&#45;&gt;Node12</title>
<path fill="none" stroke="midnightblue" d="M256.83,-615.48C248.41,-607.64 235.58,-595.71 224.44,-585.37"/>
<polygon fill="midnightblue" stroke="midnightblue" points="226.79,-582.77 217.08,-578.52 222.02,-587.9 226.79,-582.77"/>
</g>
<!-- Node12&#45;&gt;Node4 -->
<g id="edge13" class="edge">
<title>Node12&#45;&gt;Node4</title>
<path fill="none" stroke="midnightblue" d="M188.06,-548.4C153.57,-511.93 67,-410.19 67,-307.5 67,-307.5 67,-307.5 67,-132 67,-97.18 60.19,-79.37 86,-56 119.52,-25.64 241.4,-15.75 320.86,-12.54"/>
<polygon fill="midnightblue" stroke="midnightblue" points="321.43,-16.02 331.29,-12.14 321.16,-9.02 321.43,-16.02"/>
</g>
<!-- Node12&#45;&gt;Node8 -->
<g id="edge41" class="edge">
<title>Node12&#45;&gt;Node8</title>
<path fill="none" stroke="midnightblue" d="M258.84,-549.78C261.93,-549.16 265,-548.56 268,-548 420.29,-519.54 957,-596.43 957,-441.5 957,-441.5 957,-441.5 957,-132 957,-85.25 912.58,-45.86 884.49,-25.62"/>
<polygon fill="midnightblue" stroke="midnightblue" points="886.23,-22.57 876.02,-19.74 882.23,-28.32 886.23,-22.57"/>
</g>
<!-- Node13 -->
<g id="node13" class="node">
<title>Node13</title>
<g id="a_node13"><a xlink:href="api_2proto__stats__types_8h.html" target="_top" xlink:title=" ">
<polygon fill="white" stroke="black" points="147,-358.5 147,-388.5 257,-388.5 257,-358.5 147,-358.5"/>
<text text-anchor="start" x="155" y="-376.5" font-family="Helvetica,sans-Serif" font-size="10.00">odp/api/proto_stats</text>
<text text-anchor="middle" x="202" y="-365.5" font-family="Helvetica,sans-Serif" font-size="10.00">_types.h</text>
</a>
</g>
</g>
<!-- Node12&#45;&gt;Node13 -->
<g id="edge14" class="edge">
<title>Node12&#45;&gt;Node13</title>
<path fill="none" stroke="midnightblue" d="M202,-548.37C202,-516.44 202,-438.44 202,-398.67"/>
<polygon fill="midnightblue" stroke="midnightblue" points="205.5,-398.54 202,-388.54 198.5,-398.54 205.5,-398.54"/>
</g>
<!-- Node23 -->
<g id="node23" class="node">
<title>Node23</title>
<g id="a_node23"><a xlink:href="api_2queue__types_8h.html" target="_top" xlink:title=" ">
<polygon fill="white" stroke="black" points="364.5,-492.5 364.5,-511.5 491.5,-511.5 491.5,-492.5 364.5,-492.5"/>
<text text-anchor="middle" x="428" y="-499.5" font-family="Helvetica,sans-Serif" font-size="10.00">odp/api/queue_types.h</text>
</a>
</g>
</g>
<!-- Node12&#45;&gt;Node23 -->
<g id="edge30" class="edge">
<title>Node12&#45;&gt;Node23</title>
<path fill="none" stroke="midnightblue" d="M255.27,-548.47C295.11,-537.99 348.86,-523.84 385.75,-514.12"/>
<polygon fill="midnightblue" stroke="midnightblue" points="386.91,-517.44 395.69,-511.51 385.13,-510.67 386.91,-517.44"/>
</g>
<!-- Node14 -->
<g id="node14" class="node">
<title>Node14</title>
<g id="a_node14"><a xlink:title=" ">
<polygon fill="white" stroke="#bfbfbf" points="133,-291.5 133,-321.5 261,-321.5 261,-291.5 133,-291.5"/>
<text text-anchor="start" x="141" y="-309.5" font-family="Helvetica,sans-Serif" font-size="10.00">odp/api/abi/proto_stats</text>
<text text-anchor="middle" x="197" y="-298.5" font-family="Helvetica,sans-Serif" font-size="10.00">_types.h</text>
</a>
</g>
</g>
<!-- Node13&#45;&gt;Node14 -->
<g id="edge15" class="edge">
<title>Node13&#45;&gt;Node14</title>
<path fill="none" stroke="midnightblue" d="M200.92,-358.4C200.31,-350.56 199.55,-340.6 198.85,-331.57"/>
<polygon fill="midnightblue" stroke="midnightblue" points="202.34,-331.28 198.08,-321.58 195.36,-331.82 202.34,-331.28"/>
</g>
<!-- Node15 -->
<g id="node15" class="node">
<title>Node15</title>
<g id="a_node15"><a xlink:href="api_2spec_2proto__stats__types_8h.html" target="_top" xlink:title=" ">
<polygon fill="white" stroke="black" points="381.5,-291.5 381.5,-321.5 488.5,-321.5 488.5,-291.5 381.5,-291.5"/>
<text text-anchor="start" x="389.5" y="-309.5" font-family="Helvetica,sans-Serif" font-size="10.00">odp/api/spec/proto</text>
<text text-anchor="middle" x="435" y="-298.5" font-family="Helvetica,sans-Serif" font-size="10.00">_stats_types.h</text>
</a>
</g>
</g>
<!-- Node13&#45;&gt;Node15 -->
<g id="edge16" class="edge">
<title>Node13&#45;&gt;Node15</title>
<path fill="none" stroke="midnightblue" d="M252.27,-358.48C288.13,-348.47 336.53,-334.97 374.5,-324.38"/>
<polygon fill="midnightblue" stroke="midnightblue" points="375.73,-327.67 384.42,-321.61 373.85,-320.93 375.73,-327.67"/>
</g>
<!-- Node15&#45;&gt;Node4 -->
<g id="edge17" class="edge">
<title>Node15&#45;&gt;Node4</title>
<path fill="none" stroke="midnightblue" d="M434.6,-291.28C434.01,-269.48 433,-226.5 433,-190 433,-190 433,-190 433,-132 433,-93.55 414.2,-51.69 402.06,-28.67"/>
<polygon fill="midnightblue" stroke="midnightblue" points="405.06,-26.86 397.19,-19.76 398.92,-30.21 405.06,-26.86"/>
</g>
<!-- Node15&#45;&gt;Node8 -->
<g id="edge29" class="edge">
<title>Node15&#45;&gt;Node8</title>
<path fill="none" stroke="midnightblue" d="M488.92,-294.01C531.96,-284.51 593.68,-270.16 647,-255 735.28,-229.9 843,-281.78 843,-190 843,-190 843,-190 843,-132 843,-95.29 851.64,-53.06 857.27,-29.45"/>
<polygon fill="midnightblue" stroke="midnightblue" points="860.67,-30.28 859.67,-19.73 853.87,-28.6 860.67,-30.28"/>
</g>
<!-- Node16 -->
<g id="node16" class="node">
<title>Node16</title>
<g id="a_node16"><a xlink:href="api_2std__types_8h.html" target="_top" xlink:title=" ">
<polygon fill="white" stroke="black" points="526,-235.5 526,-254.5 638,-254.5 638,-235.5 526,-235.5"/>
<text text-anchor="middle" x="582" y="-242.5" font-family="Helvetica,sans-Serif" font-size="10.00">odp/api/std_types.h</text>
</a>
</g>
</g>
<!-- Node15&#45;&gt;Node16 -->
<g id="edge18" class="edge">
<title>Node15&#45;&gt;Node16</title>
<path fill="none" stroke="midnightblue" d="M469.84,-291.4C494.5,-281.42 527.29,-268.15 551.03,-258.53"/>
<polygon fill="midnightblue" stroke="midnightblue" points="552.65,-261.65 560.61,-254.66 550.03,-255.17 552.65,-261.65"/>
</g>
<!-- Node17 -->
<g id="node17" class="node">
<title>Node17</title>
<g id="a_node17"><a xlink:title=" ">
<polygon fill="white" stroke="#bfbfbf" points="673,-179.5 673,-198.5 803,-198.5 803,-179.5 673,-179.5"/>
<text text-anchor="middle" x="738" y="-186.5" font-family="Helvetica,sans-Serif" font-size="10.00">odp/api/abi/std_types.h</text>
</a>
</g>
</g>
<!-- Node16&#45;&gt;Node17 -->
<g id="edge19" class="edge">
<title>Node16&#45;&gt;Node17</title>
<path fill="none" stroke="midnightblue" d="M606.72,-235.44C632.85,-226.4 674.26,-212.06 703.58,-201.92"/>
<polygon fill="midnightblue" stroke="midnightblue" points="705.09,-205.1 713.4,-198.52 702.8,-198.48 705.09,-205.1"/>
</g>
<!-- Node18 -->
<g id="node18" class="node">
<title>Node18</title>
<g id="a_node18"><a xlink:href="api_2spec_2std__types_8h.html" target="_top" xlink:title=" ">
<polygon fill="white" stroke="black" points="517.5,-179.5 517.5,-198.5 654.5,-198.5 654.5,-179.5 517.5,-179.5"/>
<text text-anchor="middle" x="586" y="-186.5" font-family="Helvetica,sans-Serif" font-size="10.00">odp/api/spec/std_types.h</text>
</a>
</g>
</g>
<!-- Node16&#45;&gt;Node18 -->
<g id="edge20" class="edge">
<title>Node16&#45;&gt;Node18</title>
<path fill="none" stroke="midnightblue" d="M582.66,-235.08C583.18,-228.01 583.94,-217.86 584.59,-208.99"/>
<polygon fill="midnightblue" stroke="midnightblue" points="588.1,-208.98 585.35,-198.75 581.12,-208.47 588.1,-208.98"/>
</g>
<!-- Node18&#45;&gt;Node4 -->
<g id="edge21" class="edge">
<title>Node18&#45;&gt;Node4</title>
<path fill="none" stroke="midnightblue" d="M573.79,-179.37C562.52,-170.98 545.79,-157.42 534,-143 505.92,-108.64 517.34,-86.39 485,-56 469.38,-41.32 448.07,-30.54 429.79,-23.22"/>
<polygon fill="midnightblue" stroke="midnightblue" points="430.87,-19.88 420.28,-19.6 428.39,-26.43 430.87,-19.88"/>
</g>
<!-- Node18&#45;&gt;Node8 -->
<g id="edge28" class="edge">
<title>Node18&#45;&gt;Node8</title>
<path fill="none" stroke="midnightblue" d="M618.21,-179.46C644.37,-171.83 681.76,-159.34 712,-143 748.29,-123.39 754.9,-114.09 786,-87 808.29,-67.59 832.09,-43.1 847,-27.25"/>
<polygon fill="midnightblue" stroke="midnightblue" points="849.67,-29.53 853.93,-19.83 844.55,-24.75 849.67,-29.53"/>
</g>
<!-- Node19 -->
<g id="node19" class="node">
<title>Node19</title>
<g id="a_node19"><a xlink:title=" ">
<polygon fill="white" stroke="#bfbfbf" points="649.5,-123.5 649.5,-142.5 702.5,-142.5 702.5,-123.5 649.5,-123.5"/>
<text text-anchor="middle" x="676" y="-130.5" font-family="Helvetica,sans-Serif" font-size="10.00">stdint.h</text>
</a>
</g>
</g>
<!-- Node18&#45;&gt;Node19 -->
<g id="edge22" class="edge">
<title>Node18&#45;&gt;Node19</title>
<path fill="none" stroke="midnightblue" d="M600.46,-179.32C614.5,-170.9 636.05,-157.97 652.54,-148.07"/>
<polygon fill="midnightblue" stroke="midnightblue" points="654.8,-150.8 661.58,-142.65 651.2,-144.8 654.8,-150.8"/>
</g>
<!-- Node20 -->
<g id="node20" class="node">
<title>Node20</title>
<g id="a_node20"><a xlink:href="api_2align_8h.html" target="_top" xlink:title=" ">
<polygon fill="white" stroke="black" points="542.5,-123.5 542.5,-142.5 631.5,-142.5 631.5,-123.5 542.5,-123.5"/>
<text text-anchor="middle" x="587" y="-130.5" font-family="Helvetica,sans-Serif" font-size="10.00">odp/api/align.h</text>
</a>
</g>
</g>
<!-- Node18&#45;&gt;Node20 -->
<g id="edge23" class="edge">
<title>Node18&#45;&gt;Node20</title>
<path fill="none" stroke="midnightblue" d="M586.17,-179.08C586.3,-172.01 586.48,-161.86 586.65,-152.99"/>
<polygon fill="midnightblue" stroke="midnightblue" points="590.15,-152.81 586.84,-142.75 583.15,-152.68 590.15,-152.81"/>
</g>
<!-- Node21 -->
<g id="node21" class="node">
<title>Node21</title>
<g id="a_node21"><a xlink:title=" ">
<polygon fill="white" stroke="#bfbfbf" points="537.5,-62 537.5,-81 644.5,-81 644.5,-62 537.5,-62"/>
<text text-anchor="middle" x="591" y="-69" font-family="Helvetica,sans-Serif" font-size="10.00">odp/api/abi/align.h</text>
</a>
</g>
</g>
<!-- Node20&#45;&gt;Node21 -->
<g id="edge24" class="edge">
<title>Node20&#45;&gt;Node21</title>
<path fill="none" stroke="midnightblue" d="M587.57,-123.48C588.14,-115.08 589.02,-101.98 589.75,-91.16"/>
<polygon fill="midnightblue" stroke="midnightblue" points="593.25,-91.22 590.43,-81.01 586.26,-90.75 593.25,-91.22"/>
</g>
<!-- Node22 -->
<g id="node22" class="node">
<title>Node22</title>
<g id="a_node22"><a xlink:href="api_2spec_2align_8h.html" target="_top" xlink:title=" ">
<polygon fill="white" stroke="black" points="663,-62 663,-81 777,-81 777,-62 663,-62"/>
<text text-anchor="middle" x="720" y="-69" font-family="Helvetica,sans-Serif" font-size="10.00">odp/api/spec/align.h</text>
</a>
</g>
</g>
<!-- Node20&#45;&gt;Node22 -->
<g id="edge25" class="edge">
<title>Node20&#45;&gt;Node22</title>
<path fill="none" stroke="midnightblue" d="M606.06,-123.48C628.47,-113.45 665.91,-96.7 691.71,-85.15"/>
<polygon fill="midnightblue" stroke="midnightblue" points="693.28,-88.29 700.98,-81.01 690.42,-81.9 693.28,-88.29"/>
</g>
<!-- Node22&#45;&gt;Node4 -->
<g id="edge26" class="edge">
<title>Node22&#45;&gt;Node4</title>
<path fill="none" stroke="midnightblue" d="M682.71,-61.99C673.36,-59.95 663.33,-57.82 654,-56 586.66,-42.83 509.18,-29.78 456.04,-21.15"/>
<polygon fill="midnightblue" stroke="midnightblue" points="456.51,-17.68 446.07,-19.54 455.39,-24.59 456.51,-17.68"/>
</g>
<!-- Node22&#45;&gt;Node8 -->
<g id="edge27" class="edge">
<title>Node22&#45;&gt;Node8</title>
<path fill="none" stroke="midnightblue" d="M740.35,-61.98C764.39,-51.9 804.6,-35.05 832.16,-23.5"/>
<polygon fill="midnightblue" stroke="midnightblue" points="833.82,-26.6 841.69,-19.51 831.12,-20.15 833.82,-26.6"/>
</g>
<!-- Node24 -->
<g id="node24" class="node">
<title>Node24</title>
<g id="a_node24"><a xlink:title=" ">
<polygon fill="white" stroke="#bfbfbf" points="501.5,-431 501.5,-450 646.5,-450 646.5,-431 501.5,-431"/>
<text text-anchor="middle" x="574" y="-438" font-family="Helvetica,sans-Serif" font-size="10.00">odp/api/abi/queue_types.h</text>
</a>
</g>
</g>
<!-- Node23&#45;&gt;Node24 -->
<g id="edge31" class="edge">
<title>Node23&#45;&gt;Node24</title>
<path fill="none" stroke="midnightblue" d="M448.92,-492.48C473.75,-482.36 515.34,-465.4 543.69,-453.85"/>
<polygon fill="midnightblue" stroke="midnightblue" points="545.18,-457.02 553.12,-450.01 542.54,-450.54 545.18,-457.02"/>
</g>
<!-- Node25 -->
<g id="node25" class="node">
<title>Node25</title>
<g id="a_node25"><a xlink:href="api_2spec_2queue__types_8h.html" target="_top" xlink:title=" ">
<polygon fill="white" stroke="black" points="372.5,-425.5 372.5,-455.5 483.5,-455.5 483.5,-425.5 372.5,-425.5"/>
<text text-anchor="start" x="380.5" y="-443.5" font-family="Helvetica,sans-Serif" font-size="10.00">odp/api/spec/queue</text>
<text text-anchor="middle" x="428" y="-432.5" font-family="Helvetica,sans-Serif" font-size="10.00">_types.h</text>
</a>
</g>
</g>
<!-- Node23&#45;&gt;Node25 -->
<g id="edge32" class="edge">
<title>Node23&#45;&gt;Node25</title>
<path fill="none" stroke="midnightblue" d="M428,-492.48C428,-485.47 428,-475.19 428,-465.7"/>
<polygon fill="midnightblue" stroke="midnightblue" points="431.5,-465.52 428,-455.52 424.5,-465.52 431.5,-465.52"/>
</g>
<!-- Node25&#45;&gt;Node4 -->
<g id="edge33" class="edge">
<title>Node25&#45;&gt;Node4</title>
<path fill="none" stroke="midnightblue" d="M419.85,-425.36C393.61,-378.9 311.62,-225.89 287,-87 284.6,-73.43 279.42,-67.5 287,-56 297.64,-39.86 315.39,-29.49 333.31,-22.83"/>
<polygon fill="midnightblue" stroke="midnightblue" points="334.86,-26 343.23,-19.5 332.63,-19.37 334.86,-26"/>
</g>
<!-- Node25&#45;&gt;Node8 -->
<g id="edge40" class="edge">
<title>Node25&#45;&gt;Node8</title>
<path fill="none" stroke="midnightblue" d="M483.66,-427.06C486.82,-426.36 489.95,-425.67 493,-425 684.84,-382.92 919,-503.9 919,-307.5 919,-307.5 919,-307.5 919,-132 919,-91.59 892.66,-50.21 875.79,-27.85"/>
<polygon fill="midnightblue" stroke="midnightblue" points="878.37,-25.46 869.45,-19.74 872.85,-29.77 878.37,-25.46"/>
</g>
<!-- Node26 -->
<g id="node26" class="node">
<title>Node26</title>
<g id="a_node26"><a xlink:href="api_2schedule__types_8h.html" target="_top" xlink:title=" ">
<polygon fill="white" stroke="black" points="511,-364 511,-383 651,-383 651,-364 511,-364"/>
<text text-anchor="middle" x="581" y="-371" font-family="Helvetica,sans-Serif" font-size="10.00">odp/api/schedule_types.h</text>
</a>
</g>
</g>
<!-- Node25&#45;&gt;Node26 -->
<g id="edge34" class="edge">
<title>Node25&#45;&gt;Node26</title>
<path fill="none" stroke="midnightblue" d="M461.2,-425.4C488.16,-413.94 525.83,-397.94 551.69,-386.95"/>
<polygon fill="midnightblue" stroke="midnightblue" points="553.14,-390.14 560.98,-383.01 550.4,-383.7 553.14,-390.14"/>
</g>
<!-- Node27 -->
<g id="node27" class="node">
<title>Node27</title>
<g id="a_node27"><a xlink:title=" ">
<polygon fill="white" stroke="#bfbfbf" points="661.5,-291.5 661.5,-321.5 778.5,-321.5 778.5,-291.5 661.5,-291.5"/>
<text text-anchor="start" x="669.5" y="-309.5" font-family="Helvetica,sans-Serif" font-size="10.00">odp/api/abi/schedule</text>
<text text-anchor="middle" x="720" y="-298.5" font-family="Helvetica,sans-Serif" font-size="10.00">_types.h</text>
</a>
</g>
</g>
<!-- Node26&#45;&gt;Node27 -->
<g id="edge35" class="edge">
<title>Node26&#45;&gt;Node27</title>
<path fill="none" stroke="midnightblue" d="M599.46,-363.87C620.13,-354.2 654.25,-338.25 680.91,-325.78"/>
<polygon fill="midnightblue" stroke="midnightblue" points="682.43,-328.93 690,-321.53 679.46,-322.59 682.43,-328.93"/>
</g>
<!-- Node28 -->
<g id="node28" class="node">
<title>Node28</title>
<g id="a_node28"><a xlink:href="api_2spec_2schedule__types_8h.html" target="_top" xlink:title=" ">
<polygon fill="white" stroke="black" points="518.5,-291.5 518.5,-321.5 643.5,-321.5 643.5,-291.5 518.5,-291.5"/>
<text text-anchor="start" x="526.5" y="-309.5" font-family="Helvetica,sans-Serif" font-size="10.00">odp/api/spec/schedule</text>
<text text-anchor="middle" x="581" y="-298.5" font-family="Helvetica,sans-Serif" font-size="10.00">_types.h</text>
</a>
</g>
</g>
<!-- Node26&#45;&gt;Node28 -->
<g id="edge36" class="edge">
<title>Node26&#45;&gt;Node28</title>
<path fill="none" stroke="midnightblue" d="M581,-363.73C581,-355.54 581,-342.92 581,-331.71"/>
<polygon fill="midnightblue" stroke="midnightblue" points="584.5,-331.59 581,-321.59 577.5,-331.59 584.5,-331.59"/>
</g>
<!-- Node28&#45;&gt;Node4 -->
<g id="edge37" class="edge">
<title>Node28&#45;&gt;Node4</title>
<path fill="none" stroke="midnightblue" d="M552.67,-291.42C520.08,-272.98 471,-237.35 471,-190 471,-190 471,-190 471,-132 471,-88.01 433.94,-47.52 410.59,-26.37"/>
<polygon fill="midnightblue" stroke="midnightblue" points="412.82,-23.67 402.98,-19.72 408.21,-28.94 412.82,-23.67"/>
</g>
<!-- Node28&#45;&gt;Node8 -->
<g id="edge39" class="edge">
<title>Node28&#45;&gt;Node8</title>
<path fill="none" stroke="midnightblue" d="M643.81,-292.76C646.92,-292.16 649.99,-291.57 653,-291 743.47,-273.91 786.34,-314.02 857,-255 880.63,-235.26 881,-220.8 881,-190 881,-190 881,-190 881,-132 881,-95.29 872.36,-53.06 866.73,-29.45"/>
<polygon fill="midnightblue" stroke="midnightblue" points="870.13,-28.6 864.33,-19.73 863.33,-30.28 870.13,-28.6"/>
</g>
<!-- Node28&#45;&gt;Node16 -->
<g id="edge38" class="edge">
<title>Node28&#45;&gt;Node16</title>
<path fill="none" stroke="midnightblue" d="M581.24,-291.4C581.37,-283.47 581.54,-273.46 581.68,-264.86"/>
<polygon fill="midnightblue" stroke="midnightblue" points="585.19,-264.72 581.85,-254.66 578.19,-264.6 585.19,-264.72"/>
</g>
</g>
</svg>
