<?xml version="1.0" encoding="UTF-8" standalone="no"?>
<!DOCTYPE svg PUBLIC "-//W3C//DTD SVG 1.1//EN"
 "http://www.w3.org/Graphics/SVG/1.1/DTD/svg11.dtd">
<!-- Generated by graphviz version 2.43.0 (0)
 -->
<!-- Title: packet_types.h Pages: 1 -->
<svg width="823pt" height="644pt"
 viewBox="0.00 0.00 823.00 644.00" xmlns="http://www.w3.org/2000/svg" xmlns:xlink="http://www.w3.org/1999/xlink">
<g id="graph0" class="graph" transform="scale(1 1) rotate(0) translate(4 640)">
<title>packet_types.h</title>
<polygon fill="white" stroke="transparent" points="-4,4 -4,-640 819,-640 819,4 -4,4"/>
<!-- Node1 -->
<g id="node1" class="node">
<title>Node1</title>
<g id="a_node1"><a xlink:title=" ">
<polygon fill="#bfbfbf" stroke="black" points="522,-616.5 522,-635.5 612,-635.5 612,-616.5 522,-616.5"/>
<text text-anchor="middle" x="567" y="-623.5" font-family="Helvetica,sans-Serif" font-size="10.00">packet_types.h</text>
</a>
</g>
</g>
<!-- Node2 -->
<g id="node2" class="node">
<title>Node2</title>
<g id="a_node2"><a xlink:href="api_2spec_2comp_8h.html" target="_top" xlink:title=" ">
<polygon fill="white" stroke="black" points="115.5,-560.5 115.5,-579.5 168.5,-579.5 168.5,-560.5 115.5,-560.5"/>
<text text-anchor="middle" x="142" y="-567.5" font-family="Helvetica,sans-Serif" font-size="10.00">comp.h</text>
</a>
</g>
</g>
<!-- Node1&#45;&gt;Node2 -->
<g id="edge1" class="edge">
<title>Node1&#45;&gt;Node2</title>
<path fill="none" stroke="midnightblue" d="M511.73,-620.26C436.9,-613.45 299.33,-599.53 183,-580 178.4,-579.23 173.54,-578.28 168.83,-577.29"/>
<polygon fill="midnightblue" stroke="midnightblue" points="511.59,-623.77 521.86,-621.18 512.22,-616.79 511.59,-623.77"/>
</g>
<!-- Node5 -->
<g id="node5" class="node">
<title>Node5</title>
<g id="a_node5"><a xlink:href="api_2spec_2crypto_8h.html" target="_top" xlink:title=" ">
<polygon fill="white" stroke="black" points="33,-336.5 33,-355.5 89,-355.5 89,-336.5 33,-336.5"/>
<text text-anchor="middle" x="61" y="-343.5" font-family="Helvetica,sans-Serif" font-size="10.00">crypto.h</text>
</a>
</g>
</g>
<!-- Node1&#45;&gt;Node5 -->
<g id="edge4" class="edge">
<title>Node1&#45;&gt;Node5</title>
<path fill="none" stroke="midnightblue" d="M511.38,-620.1C408.08,-609.46 197,-579.79 197,-515 197,-515 197,-515 197,-457 197,-401.88 128.64,-369.63 88.85,-355.52"/>
<polygon fill="midnightblue" stroke="midnightblue" points="511.33,-623.61 521.63,-621.13 512.03,-616.65 511.33,-623.61"/>
</g>
<!-- Node9 -->
<g id="node9" class="node">
<title>Node9</title>
<g id="a_node9"><a xlink:href="api_2spec_2dma__types_8h.html" target="_top" xlink:title=" ">
<polygon fill="white" stroke="black" points="367,-560.5 367,-579.5 447,-579.5 447,-560.5 367,-560.5"/>
<text text-anchor="middle" x="407" y="-567.5" font-family="Helvetica,sans-Serif" font-size="10.00">dma_types.h</text>
</a>
</g>
</g>
<!-- Node1&#45;&gt;Node9 -->
<g id="edge10" class="edge">
<title>Node1&#45;&gt;Node9</title>
<path fill="none" stroke="midnightblue" d="M531.95,-613.17C501.83,-603 459.1,-588.59 432.23,-579.52"/>
<polygon fill="midnightblue" stroke="midnightblue" points="531.05,-616.56 541.65,-616.44 533.29,-609.93 531.05,-616.56"/>
</g>
<!-- Node19 -->
<g id="node19" class="node">
<title>Node19</title>
<g id="a_node19"><a xlink:href="api_2spec_2packet__io_8h.html" target="_top" xlink:title=" ">
<polygon fill="white" stroke="black" points="479,-112.5 479,-131.5 551,-131.5 551,-112.5 479,-112.5"/>
<text text-anchor="middle" x="515" y="-119.5" font-family="Helvetica,sans-Serif" font-size="10.00">packet_io.h</text>
</a>
</g>
</g>
<!-- Node1&#45;&gt;Node19 -->
<g id="edge55" class="edge">
<title>Node1&#45;&gt;Node19</title>
<path fill="none" stroke="midnightblue" d="M583.13,-608.9C601.5,-588.76 629,-552.38 629,-515 629,-515 629,-515 629,-457 629,-353.41 665.46,-318.49 623,-224 603.32,-180.21 554.77,-146.5 530.02,-131.51"/>
<polygon fill="midnightblue" stroke="midnightblue" points="580.49,-606.59 576.15,-616.25 585.57,-611.41 580.49,-606.59"/>
</g>
<!-- Node21 -->
<g id="node21" class="node">
<title>Node21</title>
<g id="a_node21"><a xlink:href="api_2spec_2packet_8h.html" target="_top" xlink:title=" ">
<polygon fill="white" stroke="black" points="556,-224.5 556,-243.5 614,-243.5 614,-224.5 556,-224.5"/>
<text text-anchor="middle" x="585" y="-231.5" font-family="Helvetica,sans-Serif" font-size="10.00">packet.h</text>
</a>
</g>
</g>
<!-- Node1&#45;&gt;Node21 -->
<g id="edge51" class="edge">
<title>Node1&#45;&gt;Node21</title>
<path fill="none" stroke="midnightblue" d="M572.49,-606.41C578.41,-584.68 587,-547.56 587,-515 587,-515 587,-515 587,-345 587,-307.18 585.8,-262.06 585.26,-243.56"/>
<polygon fill="midnightblue" stroke="midnightblue" points="569.06,-605.68 569.7,-616.26 575.79,-607.59 569.06,-605.68"/>
</g>
<!-- Node23 -->
<g id="node23" class="node">
<title>Node23</title>
<g id="a_node23"><a xlink:href="api_2spec_2packet__io__types_8h.html" target="_top" xlink:title=" ">
<polygon fill="white" stroke="black" points="455,-336.5 455,-355.5 559,-355.5 559,-336.5 455,-336.5"/>
<text text-anchor="middle" x="507" y="-343.5" font-family="Helvetica,sans-Serif" font-size="10.00">packet_io_types.h</text>
</a>
</g>
</g>
<!-- Node1&#45;&gt;Node23 -->
<g id="edge56" class="edge">
<title>Node1&#45;&gt;Node23</title>
<path fill="none" stroke="midnightblue" d="M556.32,-607.5C544.47,-586.37 527,-549.38 527,-515 527,-515 527,-515 527,-457 527,-418.76 515.16,-374.23 509.7,-355.74"/>
<polygon fill="midnightblue" stroke="midnightblue" points="553.38,-609.39 561.44,-616.27 559.42,-605.87 553.38,-609.39"/>
</g>
<!-- Node31 -->
<g id="node31" class="node">
<title>Node31</title>
<g id="a_node31"><a xlink:href="api_2spec_2event_8h.html" target="_top" xlink:title=" ">
<polygon fill="white" stroke="black" points="657.5,-560.5 657.5,-579.5 710.5,-579.5 710.5,-560.5 657.5,-560.5"/>
<text text-anchor="middle" x="684" y="-567.5" font-family="Helvetica,sans-Serif" font-size="10.00">event.h</text>
</a>
</g>
</g>
<!-- Node1&#45;&gt;Node31 -->
<g id="edge48" class="edge">
<title>Node1&#45;&gt;Node31</title>
<path fill="none" stroke="midnightblue" d="M594.66,-612.23C616.55,-602.13 646.5,-588.31 665.55,-579.52"/>
<polygon fill="midnightblue" stroke="midnightblue" points="593.15,-609.08 585.54,-616.44 596.09,-615.43 593.15,-609.08"/>
</g>
<!-- Node33 -->
<g id="node33" class="node">
<title>Node33</title>
<g id="a_node33"><a xlink:href="api_2spec_2packet__flags_8h.html" target="_top" xlink:title=" ">
<polygon fill="white" stroke="black" points="729,-560.5 729,-579.5 815,-579.5 815,-560.5 729,-560.5"/>
<text text-anchor="middle" x="772" y="-567.5" font-family="Helvetica,sans-Serif" font-size="10.00">packet_flags.h</text>
</a>
</g>
</g>
<!-- Node1&#45;&gt;Node33 -->
<g id="edge52" class="edge">
<title>Node1&#45;&gt;Node33</title>
<path fill="none" stroke="midnightblue" d="M609.41,-613.83C648.11,-603.63 704.49,-588.78 739.67,-579.52"/>
<polygon fill="midnightblue" stroke="midnightblue" points="608.26,-610.51 599.48,-616.44 610.04,-617.28 608.26,-610.51"/>
</g>
<!-- Node3 -->
<g id="node3" class="node">
<title>Node3</title>
<g id="a_node3"><a xlink:href="api_2comp_8h.html" target="_top" xlink:title=" ">
<polygon fill="white" stroke="black" points="15.5,-448.5 15.5,-467.5 68.5,-467.5 68.5,-448.5 15.5,-448.5"/>
<text text-anchor="middle" x="42" y="-455.5" font-family="Helvetica,sans-Serif" font-size="10.00">comp.h</text>
</a>
</g>
</g>
<!-- Node2&#45;&gt;Node3 -->
<g id="edge2" class="edge">
<title>Node2&#45;&gt;Node3</title>
<path fill="none" stroke="midnightblue" d="M127.36,-552.9C105.86,-529.25 66.5,-485.95 49.81,-467.59"/>
<polygon fill="midnightblue" stroke="midnightblue" points="124.84,-555.32 134.15,-560.37 130.02,-550.61 124.84,-555.32"/>
</g>
<!-- Node4 -->
<g id="node4" class="node">
<title>Node4</title>
<g id="a_node4"><a xlink:href="odp__api_8h.html" target="_top" xlink:title=" ">
<polygon fill="white" stroke="black" points="281,-0.5 281,-19.5 345,-19.5 345,-0.5 281,-0.5"/>
<text text-anchor="middle" x="313" y="-7.5" font-family="Helvetica,sans-Serif" font-size="10.00">odp_api.h</text>
</a>
</g>
</g>
<!-- Node3&#45;&gt;Node4 -->
<g id="edge3" class="edge">
<title>Node3&#45;&gt;Node4</title>
<path fill="none" stroke="midnightblue" d="M30.79,-439.57C18.35,-418.51 0,-381.59 0,-347 0,-347 0,-347 0,-121 0,-81.98 24.85,-74.86 59,-56 130.94,-16.27 230.25,-10.38 280.73,-10.22"/>
<polygon fill="midnightblue" stroke="midnightblue" points="27.94,-441.62 36.16,-448.31 33.91,-437.96 27.94,-441.62"/>
</g>
<!-- Node6 -->
<g id="node6" class="node">
<title>Node6</title>
<g id="a_node6"><a xlink:href="api_2crypto_8h.html" target="_top" xlink:title=" ">
<polygon fill="white" stroke="black" points="28,-168.5 28,-187.5 84,-187.5 84,-168.5 28,-168.5"/>
<text text-anchor="middle" x="56" y="-175.5" font-family="Helvetica,sans-Serif" font-size="10.00">crypto.h</text>
</a>
</g>
</g>
<!-- Node5&#45;&gt;Node6 -->
<g id="edge5" class="edge">
<title>Node5&#45;&gt;Node6</title>
<path fill="none" stroke="midnightblue" d="M60.43,-325.93C59.34,-289.92 57.03,-213.23 56.26,-187.57"/>
<polygon fill="midnightblue" stroke="midnightblue" points="56.93,-326.19 60.73,-336.08 63.93,-325.97 56.93,-326.19"/>
</g>
<!-- Node6&#45;&gt;Node4 -->
<g id="edge9" class="edge">
<title>Node6&#45;&gt;Node4</title>
<path fill="none" stroke="midnightblue" d="M52.95,-158.33C49.78,-131.8 48.45,-83.39 75,-56 103.02,-27.09 222.3,-16.25 280.63,-12.62"/>
<polygon fill="midnightblue" stroke="midnightblue" points="49.49,-158.82 54.35,-168.23 56.42,-157.84 49.49,-158.82"/>
</g>
<!-- Node7 -->
<g id="node7" class="node">
<title>Node7</title>
<g id="a_node7"><a xlink:href="api_2spec_2ipsec_8h.html" target="_top" xlink:title=" ">
<polygon fill="white" stroke="black" points="341.5,-112.5 341.5,-131.5 392.5,-131.5 392.5,-112.5 341.5,-112.5"/>
<text text-anchor="middle" x="367" y="-119.5" font-family="Helvetica,sans-Serif" font-size="10.00">ipsec.h</text>
</a>
</g>
</g>
<!-- Node6&#45;&gt;Node7 -->
<g id="edge6" class="edge">
<title>Node6&#45;&gt;Node7</title>
<path fill="none" stroke="midnightblue" d="M94.27,-170.35C158.6,-159.19 286.69,-136.94 341.34,-127.46"/>
<polygon fill="midnightblue" stroke="midnightblue" points="93.4,-166.95 84.15,-172.11 94.6,-173.85 93.4,-166.95"/>
</g>
<!-- Node8 -->
<g id="node8" class="node">
<title>Node8</title>
<g id="a_node8"><a xlink:href="api_2ipsec_8h.html" target="_top" xlink:title=" ">
<polygon fill="white" stroke="black" points="341.5,-56.5 341.5,-75.5 392.5,-75.5 392.5,-56.5 341.5,-56.5"/>
<text text-anchor="middle" x="367" y="-63.5" font-family="Helvetica,sans-Serif" font-size="10.00">ipsec.h</text>
</a>
</g>
</g>
<!-- Node7&#45;&gt;Node8 -->
<g id="edge7" class="edge">
<title>Node7&#45;&gt;Node8</title>
<path fill="none" stroke="midnightblue" d="M367,-101.8C367,-92.91 367,-82.78 367,-75.75"/>
<polygon fill="midnightblue" stroke="midnightblue" points="363.5,-102.08 367,-112.08 370.5,-102.08 363.5,-102.08"/>
</g>
<!-- Node8&#45;&gt;Node4 -->
<g id="edge8" class="edge">
<title>Node8&#45;&gt;Node4</title>
<path fill="none" stroke="midnightblue" d="M351,-49C341.43,-39.43 329.64,-27.64 321.75,-19.75"/>
<polygon fill="midnightblue" stroke="midnightblue" points="348.54,-51.49 358.08,-56.08 353.49,-46.54 348.54,-51.49"/>
</g>
<!-- Node10 -->
<g id="node10" class="node">
<title>Node10</title>
<g id="a_node10"><a xlink:href="api_2dma__types_8h.html" target="_top" xlink:title=" ">
<polygon fill="white" stroke="black" points="343,-504.5 343,-523.5 423,-523.5 423,-504.5 343,-504.5"/>
<text text-anchor="middle" x="383" y="-511.5" font-family="Helvetica,sans-Serif" font-size="10.00">dma_types.h</text>
</a>
</g>
</g>
<!-- Node9&#45;&gt;Node10 -->
<g id="edge11" class="edge">
<title>Node9&#45;&gt;Node10</title>
<path fill="none" stroke="midnightblue" d="M398.86,-550.69C394.82,-541.59 390.12,-531.01 386.89,-523.75"/>
<polygon fill="midnightblue" stroke="midnightblue" points="395.78,-552.37 403.04,-560.08 402.17,-549.52 395.78,-552.37"/>
</g>
<!-- Node11 -->
<g id="node11" class="node">
<title>Node11</title>
<g id="a_node11"><a xlink:href="spec_2dma_8h.html" target="_top" xlink:title=" ">
<polygon fill="white" stroke="black" points="351.5,-336.5 351.5,-355.5 398.5,-355.5 398.5,-336.5 351.5,-336.5"/>
<text text-anchor="middle" x="375" y="-343.5" font-family="Helvetica,sans-Serif" font-size="10.00">dma.h</text>
</a>
</g>
</g>
<!-- Node10&#45;&gt;Node11 -->
<g id="edge12" class="edge">
<title>Node10&#45;&gt;Node11</title>
<path fill="none" stroke="midnightblue" d="M382.08,-493.93C380.35,-457.92 376.65,-381.23 375.41,-355.57"/>
<polygon fill="midnightblue" stroke="midnightblue" points="378.59,-494.26 382.57,-504.08 385.58,-493.92 378.59,-494.26"/>
</g>
<!-- Node13 -->
<g id="node13" class="node">
<title>Node13</title>
<g id="a_node13"><a xlink:href="api_2spec_2pool__types_8h.html" target="_top" xlink:title=" ">
<polygon fill="white" stroke="black" points="275.5,-448.5 275.5,-467.5 354.5,-467.5 354.5,-448.5 275.5,-448.5"/>
<text text-anchor="middle" x="315" y="-455.5" font-family="Helvetica,sans-Serif" font-size="10.00">pool_types.h</text>
</a>
</g>
</g>
<!-- Node10&#45;&gt;Node13 -->
<g id="edge15" class="edge">
<title>Node10&#45;&gt;Node13</title>
<path fill="none" stroke="midnightblue" d="M364.24,-498.1C352,-488.38 336.44,-476.03 326.12,-467.83"/>
<polygon fill="midnightblue" stroke="midnightblue" points="362.07,-500.85 372.07,-504.32 366.42,-495.36 362.07,-500.85"/>
</g>
<!-- Node12 -->
<g id="node12" class="node">
<title>Node12</title>
<g id="a_node12"><a xlink:href="dma_8h.html" target="_top" xlink:title=" ">
<polygon fill="white" stroke="black" points="235.5,-112.5 235.5,-131.5 282.5,-131.5 282.5,-112.5 235.5,-112.5"/>
<text text-anchor="middle" x="259" y="-119.5" font-family="Helvetica,sans-Serif" font-size="10.00">dma.h</text>
</a>
</g>
</g>
<!-- Node11&#45;&gt;Node12 -->
<g id="edge13" class="edge">
<title>Node11&#45;&gt;Node12</title>
<path fill="none" stroke="midnightblue" d="M349.99,-331.44C322.4,-314.91 279.47,-284.14 261,-244 243.26,-205.44 252.27,-152.4 256.86,-131.73"/>
<polygon fill="midnightblue" stroke="midnightblue" points="348.29,-334.51 358.7,-336.5 351.81,-328.45 348.29,-334.51"/>
</g>
<!-- Node12&#45;&gt;Node4 -->
<g id="edge14" class="edge">
<title>Node12&#45;&gt;Node4</title>
<path fill="none" stroke="midnightblue" d="M267.68,-103.32C279.44,-79.37 299.97,-37.55 308.78,-19.59"/>
<polygon fill="midnightblue" stroke="midnightblue" points="264.5,-101.85 263.24,-112.37 270.79,-104.93 264.5,-101.85"/>
</g>
<!-- Node14 -->
<g id="node14" class="node">
<title>Node14</title>
<g id="a_node14"><a xlink:href="api_2pool__types_8h.html" target="_top" xlink:title=" ">
<polygon fill="white" stroke="black" points="275.5,-392.5 275.5,-411.5 354.5,-411.5 354.5,-392.5 275.5,-392.5"/>
<text text-anchor="middle" x="315" y="-399.5" font-family="Helvetica,sans-Serif" font-size="10.00">pool_types.h</text>
</a>
</g>
</g>
<!-- Node13&#45;&gt;Node14 -->
<g id="edge16" class="edge">
<title>Node13&#45;&gt;Node14</title>
<path fill="none" stroke="midnightblue" d="M315,-437.8C315,-428.91 315,-418.78 315,-411.75"/>
<polygon fill="midnightblue" stroke="midnightblue" points="311.5,-438.08 315,-448.08 318.5,-438.08 311.5,-438.08"/>
</g>
<!-- Node14&#45;&gt;Node5 -->
<g id="edge27" class="edge">
<title>Node14&#45;&gt;Node5</title>
<path fill="none" stroke="midnightblue" d="M265.44,-391.22C221.39,-382.41 155.28,-368.9 98,-356 95.16,-355.36 92.21,-354.68 89.26,-353.98"/>
<polygon fill="midnightblue" stroke="midnightblue" points="264.82,-394.67 275.32,-393.19 266.19,-387.8 264.82,-394.67"/>
</g>
<!-- Node14&#45;&gt;Node11 -->
<g id="edge28" class="edge">
<title>Node14&#45;&gt;Node11</title>
<path fill="none" stroke="midnightblue" d="M332.18,-385.54C342.88,-375.91 356.26,-363.87 365.18,-355.83"/>
<polygon fill="midnightblue" stroke="midnightblue" points="329.73,-383.03 324.64,-392.32 334.41,-388.24 329.73,-383.03"/>
</g>
<!-- Node15 -->
<g id="node15" class="node">
<title>Node15</title>
<g id="a_node15"><a xlink:href="api_2spec_2buffer_8h.html" target="_top" xlink:title=" ">
<polygon fill="white" stroke="black" points="107.5,-336.5 107.5,-355.5 160.5,-355.5 160.5,-336.5 107.5,-336.5"/>
<text text-anchor="middle" x="134" y="-343.5" font-family="Helvetica,sans-Serif" font-size="10.00">buffer.h</text>
</a>
</g>
</g>
<!-- Node14&#45;&gt;Node15 -->
<g id="edge17" class="edge">
<title>Node14&#45;&gt;Node15</title>
<path fill="none" stroke="midnightblue" d="M276.5,-389.51C241.7,-379.13 191.37,-364.12 160.78,-354.99"/>
<polygon fill="midnightblue" stroke="midnightblue" points="275.74,-392.94 286.32,-392.44 277.74,-386.23 275.74,-392.94"/>
</g>
<!-- Node17 -->
<g id="node17" class="node">
<title>Node17</title>
<g id="a_node17"><a xlink:href="api_2spec_2classification_8h.html" target="_top" xlink:title=" ">
<polygon fill="white" stroke="black" points="270.5,-224.5 270.5,-243.5 359.5,-243.5 359.5,-224.5 270.5,-224.5"/>
<text text-anchor="middle" x="315" y="-231.5" font-family="Helvetica,sans-Serif" font-size="10.00">classification.h</text>
</a>
</g>
</g>
<!-- Node14&#45;&gt;Node17 -->
<g id="edge20" class="edge">
<title>Node14&#45;&gt;Node17</title>
<path fill="none" stroke="midnightblue" d="M315,-381.93C315,-345.92 315,-269.23 315,-243.57"/>
<polygon fill="midnightblue" stroke="midnightblue" points="311.5,-382.08 315,-392.08 318.5,-382.08 311.5,-382.08"/>
</g>
<!-- Node14&#45;&gt;Node21 -->
<g id="edge29" class="edge">
<title>Node14&#45;&gt;Node21</title>
<path fill="none" stroke="midnightblue" d="M343.76,-388.22C362.18,-379.72 386.41,-367.96 407,-356 472.6,-317.92 546.09,-264.15 573.71,-243.51"/>
<polygon fill="midnightblue" stroke="midnightblue" points="342.09,-385.13 334.44,-392.47 344.99,-391.5 342.09,-385.13"/>
</g>
<!-- Node14&#45;&gt;Node23 -->
<g id="edge32" class="edge">
<title>Node14&#45;&gt;Node23</title>
<path fill="none" stroke="midnightblue" d="M355.18,-389.7C391.42,-379.51 443.91,-364.74 476.72,-355.52"/>
<polygon fill="midnightblue" stroke="midnightblue" points="354.1,-386.37 345.42,-392.44 356,-393.11 354.1,-386.37"/>
</g>
<!-- Node27 -->
<g id="node27" class="node">
<title>Node27</title>
<g id="a_node27"><a xlink:href="api_2spec_2pool_8h.html" target="_top" xlink:title=" ">
<polygon fill="white" stroke="black" points="178.5,-336.5 178.5,-355.5 225.5,-355.5 225.5,-336.5 178.5,-336.5"/>
<text text-anchor="middle" x="202" y="-343.5" font-family="Helvetica,sans-Serif" font-size="10.00">pool.h</text>
</a>
</g>
</g>
<!-- Node14&#45;&gt;Node27 -->
<g id="edge42" class="edge">
<title>Node14&#45;&gt;Node27</title>
<path fill="none" stroke="midnightblue" d="M288,-388.1C266.89,-378.01 238.14,-364.27 219.82,-355.52"/>
<polygon fill="midnightblue" stroke="midnightblue" points="286.56,-391.29 297.09,-392.44 289.58,-384.97 286.56,-391.29"/>
</g>
<!-- Node29 -->
<g id="node29" class="node">
<title>Node29</title>
<g id="a_node29"><a xlink:href="api_2spec_2timer_8h.html" target="_top" xlink:title=" ">
<polygon fill="white" stroke="black" points="243.5,-336.5 243.5,-355.5 294.5,-355.5 294.5,-336.5 243.5,-336.5"/>
<text text-anchor="middle" x="269" y="-343.5" font-family="Helvetica,sans-Serif" font-size="10.00">timer.h</text>
</a>
</g>
</g>
<!-- Node14&#45;&gt;Node29 -->
<g id="edge45" class="edge">
<title>Node14&#45;&gt;Node29</title>
<path fill="none" stroke="midnightblue" d="M300.89,-384.43C292.82,-374.97 283.04,-363.48 276.45,-355.75"/>
<polygon fill="midnightblue" stroke="midnightblue" points="298.25,-386.74 307.4,-392.08 303.58,-382.2 298.25,-386.74"/>
</g>
<!-- Node16 -->
<g id="node16" class="node">
<title>Node16</title>
<g id="a_node16"><a xlink:href="api_2buffer_8h.html" target="_top" xlink:title=" ">
<polygon fill="white" stroke="black" points="84.5,-56.5 84.5,-75.5 137.5,-75.5 137.5,-56.5 84.5,-56.5"/>
<text text-anchor="middle" x="111" y="-63.5" font-family="Helvetica,sans-Serif" font-size="10.00">buffer.h</text>
</a>
</g>
</g>
<!-- Node15&#45;&gt;Node16 -->
<g id="edge18" class="edge">
<title>Node15&#45;&gt;Node16</title>
<path fill="none" stroke="midnightblue" d="M127.96,-326.45C121.45,-304.76 112,-267.67 112,-235 112,-235 112,-235 112,-177 112,-139.19 111.4,-94.06 111.13,-75.56"/>
<polygon fill="midnightblue" stroke="midnightblue" points="124.71,-327.78 131.03,-336.28 131.39,-325.69 124.71,-327.78"/>
</g>
<!-- Node16&#45;&gt;Node4 -->
<g id="edge19" class="edge">
<title>Node16&#45;&gt;Node4</title>
<path fill="none" stroke="midnightblue" d="M147.5,-55.24C185.6,-45.06 244.76,-29.24 281.06,-19.54"/>
<polygon fill="midnightblue" stroke="midnightblue" points="146.58,-51.87 137.82,-57.83 148.39,-58.63 146.58,-51.87"/>
</g>
<!-- Node18 -->
<g id="node18" class="node">
<title>Node18</title>
<g id="a_node18"><a xlink:href="api_2classification_8h.html" target="_top" xlink:title=" ">
<polygon fill="white" stroke="black" points="270.5,-168.5 270.5,-187.5 359.5,-187.5 359.5,-168.5 270.5,-168.5"/>
<text text-anchor="middle" x="315" y="-175.5" font-family="Helvetica,sans-Serif" font-size="10.00">classification.h</text>
</a>
</g>
</g>
<!-- Node17&#45;&gt;Node18 -->
<g id="edge21" class="edge">
<title>Node17&#45;&gt;Node18</title>
<path fill="none" stroke="midnightblue" d="M315,-213.8C315,-204.91 315,-194.78 315,-187.75"/>
<polygon fill="midnightblue" stroke="midnightblue" points="311.5,-214.08 315,-224.08 318.5,-214.08 311.5,-214.08"/>
</g>
<!-- Node18&#45;&gt;Node4 -->
<g id="edge26" class="edge">
<title>Node18&#45;&gt;Node4</title>
<path fill="none" stroke="midnightblue" d="M314.77,-157.93C314.34,-121.92 313.41,-45.23 313.1,-19.57"/>
<polygon fill="midnightblue" stroke="midnightblue" points="311.27,-158.12 314.89,-168.08 318.27,-158.03 311.27,-158.12"/>
</g>
<!-- Node18&#45;&gt;Node7 -->
<g id="edge22" class="edge">
<title>Node18&#45;&gt;Node7</title>
<path fill="none" stroke="midnightblue" d="M330.68,-160.72C339.84,-151.2 351.05,-139.56 358.57,-131.75"/>
<polygon fill="midnightblue" stroke="midnightblue" points="328,-158.45 323.59,-168.08 333.04,-163.31 328,-158.45"/>
</g>
<!-- Node18&#45;&gt;Node19 -->
<g id="edge23" class="edge">
<title>Node18&#45;&gt;Node19</title>
<path fill="none" stroke="midnightblue" d="M356.37,-165.83C394.14,-155.63 449.14,-140.78 483.46,-131.52"/>
<polygon fill="midnightblue" stroke="midnightblue" points="355.43,-162.46 346.69,-168.44 357.26,-169.22 355.43,-162.46"/>
</g>
<!-- Node20 -->
<g id="node20" class="node">
<title>Node20</title>
<g id="a_node20"><a xlink:href="api_2packet__io_8h.html" target="_top" xlink:title=" ">
<polygon fill="white" stroke="black" points="472,-56.5 472,-75.5 544,-75.5 544,-56.5 472,-56.5"/>
<text text-anchor="middle" x="508" y="-63.5" font-family="Helvetica,sans-Serif" font-size="10.00">packet_io.h</text>
</a>
</g>
</g>
<!-- Node19&#45;&gt;Node20 -->
<g id="edge24" class="edge">
<title>Node19&#45;&gt;Node20</title>
<path fill="none" stroke="midnightblue" d="M512.55,-102.1C511.39,-93.14 510.06,-82.86 509.13,-75.75"/>
<polygon fill="midnightblue" stroke="midnightblue" points="509.09,-102.62 513.84,-112.08 516.03,-101.72 509.09,-102.62"/>
</g>
<!-- Node20&#45;&gt;Node4 -->
<g id="edge25" class="edge">
<title>Node20&#45;&gt;Node4</title>
<path fill="none" stroke="midnightblue" d="M467.19,-53.7C430.39,-43.51 377.07,-28.74 343.75,-19.52"/>
<polygon fill="midnightblue" stroke="midnightblue" points="466.53,-57.15 477.1,-56.44 468.4,-50.4 466.53,-57.15"/>
</g>
<!-- Node22 -->
<g id="node22" class="node">
<title>Node22</title>
<g id="a_node22"><a xlink:href="api_2packet_8h.html" target="_top" xlink:title=" ">
<polygon fill="white" stroke="black" points="586,-112.5 586,-131.5 644,-131.5 644,-112.5 586,-112.5"/>
<text text-anchor="middle" x="615" y="-119.5" font-family="Helvetica,sans-Serif" font-size="10.00">packet.h</text>
</a>
</g>
</g>
<!-- Node21&#45;&gt;Node22 -->
<g id="edge30" class="edge">
<title>Node21&#45;&gt;Node22</title>
<path fill="none" stroke="midnightblue" d="M590,-214.67C596.56,-190.62 607.8,-149.39 612.66,-131.59"/>
<polygon fill="midnightblue" stroke="midnightblue" points="586.61,-213.8 587.35,-224.37 593.36,-215.64 586.61,-213.8"/>
</g>
<!-- Node22&#45;&gt;Node4 -->
<g id="edge31" class="edge">
<title>Node22&#45;&gt;Node4</title>
<path fill="none" stroke="midnightblue" d="M603.38,-103.73C592.26,-88.66 574.11,-67.46 553,-56 485.56,-19.4 393.51,-12.06 345.36,-10.9"/>
<polygon fill="midnightblue" stroke="midnightblue" points="600.72,-106.03 609.35,-112.18 606.43,-101.99 600.72,-106.03"/>
</g>
<!-- Node24 -->
<g id="node24" class="node">
<title>Node24</title>
<g id="a_node24"><a xlink:href="api_2packet__io__types_8h.html" target="_top" xlink:title=" ">
<polygon fill="white" stroke="black" points="351,-280.5 351,-299.5 455,-299.5 455,-280.5 351,-280.5"/>
<text text-anchor="middle" x="403" y="-287.5" font-family="Helvetica,sans-Serif" font-size="10.00">packet_io_types.h</text>
</a>
</g>
</g>
<!-- Node23&#45;&gt;Node24 -->
<g id="edge33" class="edge">
<title>Node23&#45;&gt;Node24</title>
<path fill="none" stroke="midnightblue" d="M481.17,-331.59C461.94,-321.61 436.26,-308.27 419.67,-299.65"/>
<polygon fill="midnightblue" stroke="midnightblue" points="479.8,-334.82 490.29,-336.32 483.03,-328.61 479.8,-334.82"/>
</g>
<!-- Node24&#45;&gt;Node7 -->
<g id="edge35" class="edge">
<title>Node24&#45;&gt;Node7</title>
<path fill="none" stroke="midnightblue" d="M398.86,-269.93C391.06,-233.92 374.42,-157.23 368.86,-131.57"/>
<polygon fill="midnightblue" stroke="midnightblue" points="395.52,-271.04 401.06,-280.08 402.37,-269.56 395.52,-271.04"/>
</g>
<!-- Node24&#45;&gt;Node17 -->
<g id="edge34" class="edge">
<title>Node24&#45;&gt;Node17</title>
<path fill="none" stroke="midnightblue" d="M380.02,-274.9C363.89,-265 342.82,-252.07 329.1,-243.65"/>
<polygon fill="midnightblue" stroke="midnightblue" points="378.51,-278.08 388.86,-280.32 382.17,-272.11 378.51,-278.08"/>
</g>
<!-- Node24&#45;&gt;Node19 -->
<g id="edge37" class="edge">
<title>Node24&#45;&gt;Node19</title>
<path fill="none" stroke="midnightblue" d="M460.81,-277.34C479.17,-270.68 497.65,-260.26 509,-244 533.56,-208.82 522.79,-152.87 517.4,-131.59"/>
<polygon fill="midnightblue" stroke="midnightblue" points="459.65,-274.03 451.25,-280.49 461.84,-280.68 459.65,-274.03"/>
</g>
<!-- Node24&#45;&gt;Node21 -->
<g id="edge36" class="edge">
<title>Node24&#45;&gt;Node21</title>
<path fill="none" stroke="midnightblue" d="M441.53,-277.57C475.86,-267.38 525.33,-252.7 556.3,-243.52"/>
<polygon fill="midnightblue" stroke="midnightblue" points="440.43,-274.24 431.84,-280.44 442.42,-280.95 440.43,-274.24"/>
</g>
<!-- Node25 -->
<g id="node25" class="node">
<title>Node25</title>
<g id="a_node25"><a xlink:href="api_2spec_2traffic__mngr_8h.html" target="_top" xlink:title=" ">
<polygon fill="white" stroke="black" points="416,-224.5 416,-243.5 500,-243.5 500,-224.5 416,-224.5"/>
<text text-anchor="middle" x="458" y="-231.5" font-family="Helvetica,sans-Serif" font-size="10.00">traffic_mngr.h</text>
</a>
</g>
</g>
<!-- Node24&#45;&gt;Node25 -->
<g id="edge38" class="edge">
<title>Node24&#45;&gt;Node25</title>
<path fill="none" stroke="midnightblue" d="M419.29,-273C429.04,-263.43 441.05,-251.64 449.09,-243.75"/>
<polygon fill="midnightblue" stroke="midnightblue" points="416.77,-270.58 412.08,-280.08 421.67,-275.57 416.77,-270.58"/>
</g>
<!-- Node26 -->
<g id="node26" class="node">
<title>Node26</title>
<g id="a_node26"><a xlink:href="api_2traffic__mngr_8h.html" target="_top" xlink:title=" ">
<polygon fill="white" stroke="black" points="416,-168.5 416,-187.5 500,-187.5 500,-168.5 416,-168.5"/>
<text text-anchor="middle" x="458" y="-175.5" font-family="Helvetica,sans-Serif" font-size="10.00">traffic_mngr.h</text>
</a>
</g>
</g>
<!-- Node25&#45;&gt;Node26 -->
<g id="edge39" class="edge">
<title>Node25&#45;&gt;Node26</title>
<path fill="none" stroke="midnightblue" d="M458,-213.8C458,-204.91 458,-194.78 458,-187.75"/>
<polygon fill="midnightblue" stroke="midnightblue" points="454.5,-214.08 458,-224.08 461.5,-214.08 454.5,-214.08"/>
</g>
<!-- Node26&#45;&gt;Node4 -->
<g id="edge41" class="edge">
<title>Node26&#45;&gt;Node4</title>
<path fill="none" stroke="midnightblue" d="M453.32,-158.29C446.02,-132.44 429.7,-85.65 401,-56 384.17,-38.62 359.19,-26.73 340.13,-19.56"/>
<polygon fill="midnightblue" stroke="midnightblue" points="450.02,-159.5 455.98,-168.26 456.79,-157.7 450.02,-159.5"/>
</g>
<!-- Node26&#45;&gt;Node7 -->
<g id="edge40" class="edge">
<title>Node26&#45;&gt;Node7</title>
<path fill="none" stroke="midnightblue" d="M434.71,-163.18C417.96,-153.24 395.9,-140.15 381.58,-131.65"/>
<polygon fill="midnightblue" stroke="midnightblue" points="432.99,-166.23 443.38,-168.32 436.57,-160.21 432.99,-166.23"/>
</g>
<!-- Node28 -->
<g id="node28" class="node">
<title>Node28</title>
<g id="a_node28"><a xlink:href="api_2pool_8h.html" target="_top" xlink:title=" ">
<polygon fill="white" stroke="black" points="140.5,-280.5 140.5,-299.5 187.5,-299.5 187.5,-280.5 140.5,-280.5"/>
<text text-anchor="middle" x="164" y="-287.5" font-family="Helvetica,sans-Serif" font-size="10.00">pool.h</text>
</a>
</g>
</g>
<!-- Node27&#45;&gt;Node28 -->
<g id="edge43" class="edge">
<title>Node27&#45;&gt;Node28</title>
<path fill="none" stroke="midnightblue" d="M189.94,-327.86C183.36,-318.5 175.49,-307.33 170.16,-299.75"/>
<polygon fill="midnightblue" stroke="midnightblue" points="187.11,-329.92 195.73,-336.08 192.83,-325.89 187.11,-329.92"/>
</g>
<!-- Node28&#45;&gt;Node4 -->
<g id="edge44" class="edge">
<title>Node28&#45;&gt;Node4</title>
<path fill="none" stroke="midnightblue" d="M164.55,-270.25C165.14,-248.36 166,-211.06 166,-179 166,-179 166,-179 166,-121 166,-64.1 237.47,-33.07 280.74,-19.5"/>
<polygon fill="midnightblue" stroke="midnightblue" points="161.04,-270.35 164.26,-280.44 168.04,-270.55 161.04,-270.35"/>
</g>
<!-- Node30 -->
<g id="node30" class="node">
<title>Node30</title>
<g id="a_node30"><a xlink:href="api_2timer_8h.html" target="_top" xlink:title=" ">
<polygon fill="white" stroke="black" points="205.5,-280.5 205.5,-299.5 256.5,-299.5 256.5,-280.5 205.5,-280.5"/>
<text text-anchor="middle" x="231" y="-287.5" font-family="Helvetica,sans-Serif" font-size="10.00">timer.h</text>
</a>
</g>
</g>
<!-- Node29&#45;&gt;Node30 -->
<g id="edge46" class="edge">
<title>Node29&#45;&gt;Node30</title>
<path fill="none" stroke="midnightblue" d="M256.94,-327.86C250.36,-318.5 242.49,-307.33 237.16,-299.75"/>
<polygon fill="midnightblue" stroke="midnightblue" points="254.11,-329.92 262.73,-336.08 259.83,-325.89 254.11,-329.92"/>
</g>
<!-- Node30&#45;&gt;Node4 -->
<g id="edge47" class="edge">
<title>Node30&#45;&gt;Node4</title>
<path fill="none" stroke="midnightblue" d="M223.7,-270.86C215.7,-249.32 204,-212.14 204,-179 204,-179 204,-179 204,-121 204,-70.59 262.47,-35.01 293.76,-19.58"/>
<polygon fill="midnightblue" stroke="midnightblue" points="220.49,-272.27 227.36,-280.34 227.02,-269.75 220.49,-272.27"/>
</g>
<!-- Node32 -->
<g id="node32" class="node">
<title>Node32</title>
<g id="a_node32"><a xlink:href="api_2event_8h.html" target="_top" xlink:title=" ">
<polygon fill="white" stroke="black" points="657.5,-392.5 657.5,-411.5 710.5,-411.5 710.5,-392.5 657.5,-392.5"/>
<text text-anchor="middle" x="684" y="-399.5" font-family="Helvetica,sans-Serif" font-size="10.00">event.h</text>
</a>
</g>
</g>
<!-- Node31&#45;&gt;Node32 -->
<g id="edge49" class="edge">
<title>Node31&#45;&gt;Node32</title>
<path fill="none" stroke="midnightblue" d="M684,-549.93C684,-513.92 684,-437.23 684,-411.57"/>
<polygon fill="midnightblue" stroke="midnightblue" points="680.5,-550.08 684,-560.08 687.5,-550.08 680.5,-550.08"/>
</g>
<!-- Node32&#45;&gt;Node4 -->
<g id="edge50" class="edge">
<title>Node32&#45;&gt;Node4</title>
<path fill="none" stroke="midnightblue" d="M684,-382.25C684,-360.36 684,-323.05 684,-291 684,-291 684,-291 684,-121 684,-50.63 435.54,-21.77 345.27,-13.6"/>
<polygon fill="midnightblue" stroke="midnightblue" points="680.5,-382.44 684,-392.44 687.5,-382.44 680.5,-382.44"/>
</g>
<!-- Node34 -->
<g id="node34" class="node">
<title>Node34</title>
<g id="a_node34"><a xlink:href="api_2packet__flags_8h.html" target="_top" xlink:title=" ">
<polygon fill="white" stroke="black" points="720,-504.5 720,-523.5 806,-523.5 806,-504.5 720,-504.5"/>
<text text-anchor="middle" x="763" y="-511.5" font-family="Helvetica,sans-Serif" font-size="10.00">packet_flags.h</text>
</a>
</g>
</g>
<!-- Node33&#45;&gt;Node34 -->
<g id="edge53" class="edge">
<title>Node33&#45;&gt;Node34</title>
<path fill="none" stroke="midnightblue" d="M768.85,-550.1C767.36,-541.14 765.64,-530.86 764.46,-523.75"/>
<polygon fill="midnightblue" stroke="midnightblue" points="765.42,-550.79 770.51,-560.08 772.32,-549.64 765.42,-550.79"/>
</g>
<!-- Node34&#45;&gt;Node4 -->
<g id="edge54" class="edge">
<title>Node34&#45;&gt;Node4</title>
<path fill="none" stroke="midnightblue" d="M759.71,-494.32C756.16,-472.49 751,-435.24 751,-403 751,-403 751,-403 751,-121 751,-37.3 446.36,-16.7 345.21,-12.17"/>
<polygon fill="midnightblue" stroke="midnightblue" points="756.31,-495.2 761.43,-504.48 763.21,-494.03 756.31,-495.2"/>
</g>
</g>
</svg>
