<?xml version="1.0" encoding="UTF-8" standalone="no"?>
<!DOCTYPE svg PUBLIC "-//W3C//DTD SVG 1.1//EN"
 "http://www.w3.org/Graphics/SVG/1.1/DTD/svg11.dtd">
<!-- Generated by graphviz version 2.43.0 (0)
 -->
<!-- Title: std_types.h Pages: 1 -->
<svg width="3717pt" height="196pt"
 viewBox="0.00 0.00 3717.07 196.00" xmlns="http://www.w3.org/2000/svg" xmlns:xlink="http://www.w3.org/1999/xlink">
<g id="graph0" class="graph" transform="scale(1 1) rotate(0) translate(4 192)">
<title>std_types.h</title>
<polygon fill="white" stroke="transparent" points="-4,4 -4,-192 3713.07,-192 3713.07,4 -4,4"/>
<!-- Node1 -->
<g id="node1" class="node">
<title>Node1</title>
<g id="a_node1"><a xlink:title=" ">
<polygon fill="#bfbfbf" stroke="black" points="1803,-168.5 1803,-187.5 1876,-187.5 1876,-168.5 1803,-168.5"/>
<text text-anchor="middle" x="1839.5" y="-175.5" font-family="Helvetica,sans-Serif" font-size="10.00">std_types.h</text>
</a>
</g>
</g>
<!-- Node2 -->
<g id="node2" class="node">
<title>Node2</title>
<g id="a_node2"><a xlink:href="api_2abi-default_2atomic_8h.html" target="_top" xlink:title=" ">
<polygon fill="white" stroke="red" points="77,-112.5 77,-131.5 136,-131.5 136,-112.5 77,-112.5"/>
<text text-anchor="middle" x="106.5" y="-119.5" font-family="Helvetica,sans-Serif" font-size="10.00">atomic.h</text>
</a>
</g>
</g>
<!-- Node1&#45;&gt;Node2 -->
<g id="edge1" class="edge">
<title>Node1&#45;&gt;Node2</title>
<path fill="none" stroke="midnightblue" d="M1792.71,-177.06C1554.63,-177.17 476.18,-175.21 144.5,-132 141.81,-131.65 139.03,-131.19 136.26,-130.66"/>
<polygon fill="midnightblue" stroke="midnightblue" points="1792.76,-180.56 1802.76,-177.05 1792.76,-173.56 1792.76,-180.56"/>
</g>
<!-- Node10 -->
<g id="node6" class="node">
<title>Node10</title>
<g id="a_node6"><a xlink:href="api_2abi-default_2barrier_8h.html" target="_top" xlink:title=" ">
<polygon fill="white" stroke="red" points="154,-112.5 154,-131.5 211,-131.5 211,-112.5 154,-112.5"/>
<text text-anchor="middle" x="182.5" y="-119.5" font-family="Helvetica,sans-Serif" font-size="10.00">barrier.h</text>
</a>
</g>
</g>
<!-- Node1&#45;&gt;Node10 -->
<g id="edge5" class="edge">
<title>Node1&#45;&gt;Node10</title>
<path fill="none" stroke="midnightblue" d="M1792.59,-176.99C1560.81,-176.75 536.27,-173.34 220.5,-132 217.41,-131.6 214.2,-131.05 211.02,-130.42"/>
<polygon fill="midnightblue" stroke="midnightblue" points="1792.71,-180.49 1802.71,-177 1792.72,-173.49 1792.71,-180.49"/>
</g>
<!-- Node43 -->
<g id="node7" class="node">
<title>Node43</title>
<g id="a_node7"><a xlink:href="api_2abi-default_2byteorder_8h.html" target="_top" xlink:title=" ">
<polygon fill="white" stroke="red" points="229.5,-112.5 229.5,-131.5 301.5,-131.5 301.5,-112.5 229.5,-112.5"/>
<text text-anchor="middle" x="265.5" y="-119.5" font-family="Helvetica,sans-Serif" font-size="10.00">byteorder.h</text>
</a>
</g>
</g>
<!-- Node1&#45;&gt;Node43 -->
<g id="edge6" class="edge">
<title>Node1&#45;&gt;Node43</title>
<path fill="none" stroke="midnightblue" d="M1792.73,-176.68C1569.19,-175 608.22,-165.91 310.5,-132 307.65,-131.68 304.71,-131.26 301.77,-130.8"/>
<polygon fill="midnightblue" stroke="midnightblue" points="1792.79,-180.18 1802.81,-176.76 1792.84,-173.18 1792.79,-180.18"/>
</g>
<!-- Node51 -->
<g id="node8" class="node">
<title>Node51</title>
<g id="a_node8"><a xlink:href="api_2abi-default_2cpumask_8h.html" target="_top" xlink:title=" ">
<polygon fill="white" stroke="red" points="319.5,-112.5 319.5,-131.5 389.5,-131.5 389.5,-112.5 319.5,-112.5"/>
<text text-anchor="middle" x="354.5" y="-119.5" font-family="Helvetica,sans-Serif" font-size="10.00">cpumask.h</text>
</a>
</g>
</g>
<!-- Node1&#45;&gt;Node51 -->
<g id="edge7" class="edge">
<title>Node1&#45;&gt;Node51</title>
<path fill="none" stroke="midnightblue" d="M1792.66,-176.61C1576.93,-174.66 677.8,-164.68 398.5,-132 395.71,-131.67 392.84,-131.26 389.96,-130.79"/>
<polygon fill="midnightblue" stroke="midnightblue" points="1792.67,-180.11 1802.7,-176.7 1792.73,-173.11 1792.67,-180.11"/>
</g>
<!-- Node73 -->
<g id="node9" class="node">
<title>Node73</title>
<g id="a_node9"><a xlink:href="api_2abi-default_2init_8h.html" target="_top" xlink:title=" ">
<polygon fill="white" stroke="red" points="408,-112.5 408,-131.5 449,-131.5 449,-112.5 408,-112.5"/>
<text text-anchor="middle" x="428.5" y="-119.5" font-family="Helvetica,sans-Serif" font-size="10.00">init.h</text>
</a>
</g>
</g>
<!-- Node1&#45;&gt;Node73 -->
<g id="edge8" class="edge">
<title>Node1&#45;&gt;Node73</title>
<path fill="none" stroke="midnightblue" d="M1792.8,-177.16C1582.58,-177.61 722.74,-176.64 457.5,-132 454.8,-131.55 452,-130.9 449.25,-130.17"/>
<polygon fill="midnightblue" stroke="midnightblue" points="1792.9,-180.66 1802.89,-177.13 1792.88,-173.66 1792.9,-180.66"/>
</g>
<!-- Node80 -->
<g id="node10" class="node">
<title>Node80</title>
<g id="a_node10"><a xlink:href="api_2abi-default_2ipsec_8h.html" target="_top" xlink:title=" ">
<polygon fill="white" stroke="red" points="467,-112.5 467,-131.5 518,-131.5 518,-112.5 467,-112.5"/>
<text text-anchor="middle" x="492.5" y="-119.5" font-family="Helvetica,sans-Serif" font-size="10.00">ipsec.h</text>
</a>
</g>
</g>
<!-- Node1&#45;&gt;Node80 -->
<g id="edge9" class="edge">
<title>Node1&#45;&gt;Node80</title>
<path fill="none" stroke="midnightblue" d="M1792.92,-176.76C1589.67,-175.5 779.3,-168.25 527.5,-132 524.52,-131.57 521.43,-130.99 518.37,-130.32"/>
<polygon fill="midnightblue" stroke="midnightblue" points="1792.95,-180.26 1802.97,-176.82 1792.99,-173.26 1792.95,-180.26"/>
</g>
<!-- Node88 -->
<g id="node11" class="node">
<title>Node88</title>
<g id="a_node11"><a xlink:href="api_2abi-default_2packet__io__types_8h.html" target="_top" xlink:title=" ">
<polygon fill="white" stroke="red" points="536.5,-112.5 536.5,-131.5 640.5,-131.5 640.5,-112.5 536.5,-112.5"/>
<text text-anchor="middle" x="588.5" y="-119.5" font-family="Helvetica,sans-Serif" font-size="10.00">packet_io_types.h</text>
</a>
</g>
</g>
<!-- Node1&#45;&gt;Node88 -->
<g id="edge10" class="edge">
<title>Node1&#45;&gt;Node88</title>
<path fill="none" stroke="midnightblue" d="M1792.44,-177.06C1632.15,-176.85 1092.74,-172.96 649.5,-132 646.62,-131.73 643.67,-131.42 640.7,-131.08"/>
<polygon fill="midnightblue" stroke="midnightblue" points="1792.89,-180.56 1802.89,-177.06 1792.89,-173.56 1792.89,-180.56"/>
</g>
<!-- Node27 -->
<g id="node12" class="node">
<title>Node27</title>
<g id="a_node12"><a xlink:href="api_2abi-default_2rwlock__recursive_8h.html" target="_top" xlink:title=" ">
<polygon fill="white" stroke="red" points="658.5,-112.5 658.5,-131.5 766.5,-131.5 766.5,-112.5 658.5,-112.5"/>
<text text-anchor="middle" x="712.5" y="-119.5" font-family="Helvetica,sans-Serif" font-size="10.00">rwlock_recursive.h</text>
</a>
</g>
</g>
<!-- Node1&#45;&gt;Node27 -->
<g id="edge11" class="edge">
<title>Node1&#45;&gt;Node27</title>
<path fill="none" stroke="midnightblue" d="M1792.49,-176.68C1643.33,-175.31 1167.44,-168.19 775.5,-132 772.64,-131.74 769.71,-131.43 766.76,-131.1"/>
<polygon fill="midnightblue" stroke="midnightblue" points="1792.63,-180.18 1802.66,-176.77 1792.69,-173.18 1792.63,-180.18"/>
</g>
<!-- Node128 -->
<g id="node13" class="node">
<title>Node128</title>
<g id="a_node13"><a xlink:href="api_2abi-default_2schedule_8h.html" target="_top" xlink:title=" ">
<polygon fill="white" stroke="red" points="785,-112.5 785,-131.5 854,-131.5 854,-112.5 785,-112.5"/>
<text text-anchor="middle" x="819.5" y="-119.5" font-family="Helvetica,sans-Serif" font-size="10.00">schedule.h</text>
</a>
</g>
</g>
<!-- Node1&#45;&gt;Node128 -->
<g id="edge12" class="edge">
<title>Node1&#45;&gt;Node128</title>
<path fill="none" stroke="midnightblue" d="M1792.98,-177.42C1652.27,-178.13 1219.02,-176.28 863.5,-132 860.41,-131.61 857.2,-131.13 854,-130.59"/>
<polygon fill="midnightblue" stroke="midnightblue" points="1793.01,-180.92 1802.99,-177.36 1792.97,-173.92 1793.01,-180.92"/>
</g>
<!-- Node135 -->
<g id="node14" class="node">
<title>Node135</title>
<g id="a_node14"><a xlink:href="api_2abi-default_2spinlock__recursive_8h.html" target="_top" xlink:title=" ">
<polygon fill="white" stroke="red" points="872.5,-112.5 872.5,-131.5 988.5,-131.5 988.5,-112.5 872.5,-112.5"/>
<text text-anchor="middle" x="930.5" y="-119.5" font-family="Helvetica,sans-Serif" font-size="10.00">spinlock_recursive.h</text>
</a>
</g>
</g>
<!-- Node1&#45;&gt;Node135 -->
<g id="edge13" class="edge">
<title>Node1&#45;&gt;Node135</title>
<path fill="none" stroke="midnightblue" d="M1792.7,-175.81C1664.99,-172.3 1299.81,-160.34 997.5,-132 994.58,-131.73 991.59,-131.42 988.57,-131.09"/>
<polygon fill="midnightblue" stroke="midnightblue" points="1792.81,-179.32 1802.9,-176.09 1793,-172.32 1792.81,-179.32"/>
</g>
<!-- Node143 -->
<g id="node15" class="node">
<title>Node143</title>
<g id="a_node15"><a xlink:href="api_2abi-default_2traffic__mngr_8h.html" target="_top" xlink:title=" ">
<polygon fill="white" stroke="red" points="1006.5,-112.5 1006.5,-131.5 1090.5,-131.5 1090.5,-112.5 1006.5,-112.5"/>
<text text-anchor="middle" x="1048.5" y="-119.5" font-family="Helvetica,sans-Serif" font-size="10.00">traffic_mngr.h</text>
</a>
</g>
</g>
<!-- Node1&#45;&gt;Node143 -->
<g id="edge14" class="edge">
<title>Node1&#45;&gt;Node143</title>
<path fill="none" stroke="midnightblue" d="M1792.67,-175.73C1676.07,-172.22 1363.52,-160.67 1104.5,-132 1100,-131.5 1095.31,-130.89 1090.64,-130.23"/>
<polygon fill="midnightblue" stroke="midnightblue" points="1792.58,-179.23 1802.68,-176.02 1792.79,-172.23 1792.58,-179.23"/>
</g>
<!-- Node17 -->
<g id="node16" class="node">
<title>Node17</title>
<g id="a_node16"><a xlink:href="api_2barrier_8h.html" target="_top" xlink:title=" ">
<polygon fill="white" stroke="black" points="1487,-56.5 1487,-75.5 1544,-75.5 1544,-56.5 1487,-56.5"/>
<text text-anchor="middle" x="1515.5" y="-63.5" font-family="Helvetica,sans-Serif" font-size="10.00">barrier.h</text>
</a>
</g>
</g>
<!-- Node1&#45;&gt;Node17 -->
<g id="edge15" class="edge">
<title>Node1&#45;&gt;Node17</title>
<path fill="none" stroke="midnightblue" d="M1792.63,-175.25C1690.91,-170.98 1457.11,-158.38 1433.5,-132 1412.48,-108.52 1457.61,-87.01 1488.89,-75.58"/>
<polygon fill="midnightblue" stroke="midnightblue" points="1792.78,-178.76 1802.92,-175.68 1793.07,-171.77 1792.78,-178.76"/>
</g>
<!-- Node18 -->
<g id="node17" class="node">
<title>Node18</title>
<g id="a_node17"><a xlink:href="odp__api_8h.html" target="_top" xlink:title=" ">
<polygon fill="white" stroke="black" points="1588.5,-0.5 1588.5,-19.5 1652.5,-19.5 1652.5,-0.5 1588.5,-0.5"/>
<text text-anchor="middle" x="1620.5" y="-7.5" font-family="Helvetica,sans-Serif" font-size="10.00">odp_api.h</text>
</a>
</g>
</g>
<!-- Node1&#45;&gt;Node18 -->
<g id="edge60" class="edge">
<title>Node1&#45;&gt;Node18</title>
<path fill="none" stroke="midnightblue" d="M1886.18,-177.58C1960.72,-176.88 2093.91,-168.08 2049.5,-112 1999.68,-49.09 1743.51,-21.47 1652.57,-13.54"/>
<polygon fill="midnightblue" stroke="midnightblue" points="1886.06,-174.08 1876.08,-177.63 1886.09,-181.08 1886.06,-174.08"/>
</g>
<!-- Node101 -->
<g id="node18" class="node">
<title>Node101</title>
<g id="a_node18"><a xlink:href="api_2classification_8h.html" target="_top" xlink:title=" ">
<polygon fill="white" stroke="red" points="1305,-56.5 1305,-75.5 1394,-75.5 1394,-56.5 1305,-56.5"/>
<text text-anchor="middle" x="1349.5" y="-63.5" font-family="Helvetica,sans-Serif" font-size="10.00">classification.h</text>
</a>
</g>
</g>
<!-- Node1&#45;&gt;Node101 -->
<g id="edge17" class="edge">
<title>Node1&#45;&gt;Node101</title>
<path fill="none" stroke="midnightblue" d="M1792.74,-175.43C1698.6,-171.7 1489.65,-160.4 1424.5,-132 1394.81,-119.06 1368.28,-90.07 1356.28,-75.58"/>
<polygon fill="midnightblue" stroke="midnightblue" points="1792.7,-178.93 1802.83,-175.82 1792.97,-171.93 1792.7,-178.93"/>
</g>
<!-- Node102 -->
<g id="node19" class="node">
<title>Node102</title>
<g id="a_node19"><a xlink:href="api_2spec_2ipsec_8h.html" target="_top" xlink:title=" ">
<polygon fill="white" stroke="red" points="1205,-0.5 1205,-19.5 1256,-19.5 1256,-0.5 1205,-0.5"/>
<text text-anchor="middle" x="1230.5" y="-7.5" font-family="Helvetica,sans-Serif" font-size="10.00">ipsec.h</text>
</a>
</g>
</g>
<!-- Node1&#45;&gt;Node102 -->
<g id="edge36" class="edge">
<title>Node1&#45;&gt;Node102</title>
<path fill="none" stroke="midnightblue" d="M1792.58,-175.74C1639.01,-171.38 1159.93,-155.92 1137.5,-132 1100.8,-92.87 1180.35,-39.93 1215.2,-19.52"/>
<polygon fill="midnightblue" stroke="midnightblue" points="1792.54,-179.24 1802.64,-176.02 1792.74,-172.24 1792.54,-179.24"/>
</g>
<!-- Node111 -->
<g id="node20" class="node">
<title>Node111</title>
<g id="a_node20"><a xlink:href="api_2crypto_8h.html" target="_top" xlink:title=" ">
<polygon fill="white" stroke="black" points="1202.5,-56.5 1202.5,-75.5 1258.5,-75.5 1258.5,-56.5 1202.5,-56.5"/>
<text text-anchor="middle" x="1230.5" y="-63.5" font-family="Helvetica,sans-Serif" font-size="10.00">crypto.h</text>
</a>
</g>
</g>
<!-- Node1&#45;&gt;Node111 -->
<g id="edge20" class="edge">
<title>Node1&#45;&gt;Node111</title>
<path fill="none" stroke="midnightblue" d="M1792.45,-176.44C1660.07,-174.45 1291.31,-165.9 1249.5,-132 1232.51,-118.23 1230.18,-90.16 1230.17,-75.83"/>
<polygon fill="midnightblue" stroke="midnightblue" points="1792.63,-179.94 1802.67,-176.59 1792.73,-172.94 1792.63,-179.94"/>
</g>
<!-- Node150 -->
<g id="node21" class="node">
<title>Node150</title>
<g id="a_node21"><a xlink:href="api_2proto__stats_8h.html" target="_top" xlink:title=" ">
<polygon fill="white" stroke="black" points="2850.5,-56.5 2850.5,-75.5 2930.5,-75.5 2930.5,-56.5 2850.5,-56.5"/>
<text text-anchor="middle" x="2890.5" y="-63.5" font-family="Helvetica,sans-Serif" font-size="10.00">proto_stats.h</text>
</a>
</g>
</g>
<!-- Node1&#45;&gt;Node150 -->
<g id="edge23" class="edge">
<title>Node1&#45;&gt;Node150</title>
<path fill="none" stroke="midnightblue" d="M1886.54,-176.75C2171.55,-175.15 3656.06,-165.23 3688.5,-132 3694.71,-125.64 3694.61,-118.46 3688.5,-112 3662.23,-84.2 3089.19,-70.91 2930.76,-67.75"/>
<polygon fill="midnightblue" stroke="midnightblue" points="1886.13,-173.26 1876.15,-176.81 1886.17,-180.26 1886.13,-173.26"/>
</g>
<!-- Node118 -->
<g id="node22" class="node">
<title>Node118</title>
<g id="a_node22"><a xlink:href="api_2spec_2buffer_8h.html" target="_top" xlink:title=" ">
<polygon fill="white" stroke="red" points="1443,-112.5 1443,-131.5 1496,-131.5 1496,-112.5 1443,-112.5"/>
<text text-anchor="middle" x="1469.5" y="-119.5" font-family="Helvetica,sans-Serif" font-size="10.00">buffer.h</text>
</a>
</g>
</g>
<!-- Node1&#45;&gt;Node118 -->
<g id="edge25" class="edge">
<title>Node1&#45;&gt;Node118</title>
<path fill="none" stroke="midnightblue" d="M1792.4,-172.32C1727.48,-165.5 1607.02,-151.47 1505.5,-132 1502.46,-131.42 1499.3,-130.74 1496.16,-130.02"/>
<polygon fill="midnightblue" stroke="midnightblue" points="1792.4,-175.84 1802.71,-173.39 1793.13,-168.88 1792.4,-175.84"/>
</g>
<!-- Node151 -->
<g id="node23" class="node">
<title>Node151</title>
<g id="a_node23"><a xlink:href="spec_2chksum_8h.html" target="_top" xlink:title=" ">
<polygon fill="white" stroke="red" points="1514.5,-112.5 1514.5,-131.5 1578.5,-131.5 1578.5,-112.5 1514.5,-112.5"/>
<text text-anchor="middle" x="1546.5" y="-119.5" font-family="Helvetica,sans-Serif" font-size="10.00">chksum.h</text>
</a>
</g>
</g>
<!-- Node1&#45;&gt;Node151 -->
<g id="edge26" class="edge">
<title>Node1&#45;&gt;Node151</title>
<path fill="none" stroke="midnightblue" d="M1792.69,-169.21C1742.02,-160.64 1658.86,-146.2 1587.5,-132 1584.64,-131.43 1581.67,-130.82 1578.7,-130.19"/>
<polygon fill="midnightblue" stroke="midnightblue" points="1792.25,-172.68 1802.69,-170.89 1793.41,-165.78 1792.25,-172.68"/>
</g>
<!-- Node100 -->
<g id="node24" class="node">
<title>Node100</title>
<g id="a_node24"><a xlink:href="api_2spec_2classification_8h.html" target="_top" xlink:title=" ">
<polygon fill="white" stroke="black" points="1259,-112.5 1259,-131.5 1348,-131.5 1348,-112.5 1259,-112.5"/>
<text text-anchor="middle" x="1303.5" y="-119.5" font-family="Helvetica,sans-Serif" font-size="10.00">classification.h</text>
</a>
</g>
</g>
<!-- Node1&#45;&gt;Node100 -->
<g id="edge27" class="edge">
<title>Node1&#45;&gt;Node100</title>
<path fill="none" stroke="midnightblue" d="M1792.76,-173.48C1707.22,-166.85 1519.81,-151.4 1362.5,-132 1357.87,-131.43 1353.05,-130.78 1348.24,-130.1"/>
<polygon fill="midnightblue" stroke="midnightblue" points="1792.68,-176.99 1802.92,-174.27 1793.22,-170.01 1792.68,-176.99"/>
</g>
<!-- Node108 -->
<g id="node25" class="node">
<title>Node108</title>
<g id="a_node25"><a xlink:href="api_2spec_2comp_8h.html" target="_top" xlink:title=" ">
<polygon fill="white" stroke="red" points="1663,-112.5 1663,-131.5 1716,-131.5 1716,-112.5 1663,-112.5"/>
<text text-anchor="middle" x="1689.5" y="-119.5" font-family="Helvetica,sans-Serif" font-size="10.00">comp.h</text>
</a>
</g>
</g>
<!-- Node1&#45;&gt;Node108 -->
<g id="edge29" class="edge">
<title>Node1&#45;&gt;Node108</title>
<path fill="none" stroke="midnightblue" d="M1806.28,-165.04C1778.05,-154.88 1738.24,-140.55 1713.16,-131.52"/>
<polygon fill="midnightblue" stroke="midnightblue" points="1805.14,-168.35 1815.73,-168.44 1807.51,-161.76 1805.14,-168.35"/>
</g>
<!-- Node153 -->
<g id="node26" class="node">
<title>Node153</title>
<g id="a_node26"><a xlink:href="api_2spec_2cpu_8h.html" target="_top" xlink:title=" ">
<polygon fill="white" stroke="red" points="1734,-112.5 1734,-131.5 1777,-131.5 1777,-112.5 1734,-112.5"/>
<text text-anchor="middle" x="1755.5" y="-119.5" font-family="Helvetica,sans-Serif" font-size="10.00">cpu.h</text>
</a>
</g>
</g>
<!-- Node1&#45;&gt;Node153 -->
<g id="edge30" class="edge">
<title>Node1&#45;&gt;Node153</title>
<path fill="none" stroke="midnightblue" d="M1817.57,-162.9C1802.16,-153 1782.05,-140.07 1768.96,-131.65"/>
<polygon fill="midnightblue" stroke="midnightblue" points="1815.7,-165.86 1826,-168.32 1819.48,-159.97 1815.7,-165.86"/>
</g>
<!-- Node110 -->
<g id="node27" class="node">
<title>Node110</title>
<g id="a_node27"><a xlink:href="api_2spec_2crypto_8h.html" target="_top" xlink:title=" ">
<polygon fill="white" stroke="black" points="1146.5,-112.5 1146.5,-131.5 1202.5,-131.5 1202.5,-112.5 1146.5,-112.5"/>
<text text-anchor="middle" x="1174.5" y="-119.5" font-family="Helvetica,sans-Serif" font-size="10.00">crypto.h</text>
</a>
</g>
</g>
<!-- Node1&#45;&gt;Node110 -->
<g id="edge31" class="edge">
<title>Node1&#45;&gt;Node110</title>
<path fill="none" stroke="midnightblue" d="M1792.62,-175.84C1688.51,-172.77 1430.31,-162.48 1216.5,-132 1212.07,-131.37 1207.41,-130.54 1202.87,-129.64"/>
<polygon fill="midnightblue" stroke="midnightblue" points="1792.7,-179.34 1802.8,-176.13 1792.9,-172.34 1792.7,-179.34"/>
</g>
<!-- Node112 -->
<g id="node28" class="node">
<title>Node112</title>
<g id="a_node28"><a xlink:href="api_2spec_2dma__types_8h.html" target="_top" xlink:title=" ">
<polygon fill="white" stroke="red" points="1833.5,-112.5 1833.5,-131.5 1913.5,-131.5 1913.5,-112.5 1833.5,-112.5"/>
<text text-anchor="middle" x="1873.5" y="-119.5" font-family="Helvetica,sans-Serif" font-size="10.00">dma_types.h</text>
</a>
</g>
</g>
<!-- Node1&#45;&gt;Node112 -->
<g id="edge33" class="edge">
<title>Node1&#45;&gt;Node112</title>
<path fill="none" stroke="midnightblue" d="M1850.48,-159.57C1856.33,-150.27 1863.27,-139.25 1867.99,-131.75"/>
<polygon fill="midnightblue" stroke="midnightblue" points="1847.48,-157.76 1845.11,-168.08 1853.4,-161.49 1847.48,-157.76"/>
</g>
<!-- Node155 -->
<g id="node29" class="node">
<title>Node155</title>
<g id="a_node29"><a xlink:href="api_2spec_2hash_8h.html" target="_top" xlink:title=" ">
<polygon fill="white" stroke="red" points="1932,-112.5 1932,-131.5 1981,-131.5 1981,-112.5 1932,-112.5"/>
<text text-anchor="middle" x="1956.5" y="-119.5" font-family="Helvetica,sans-Serif" font-size="10.00">hash.h</text>
</a>
</g>
</g>
<!-- Node1&#45;&gt;Node155 -->
<g id="edge34" class="edge">
<title>Node1&#45;&gt;Node155</title>
<path fill="none" stroke="midnightblue" d="M1867.16,-164.23C1889.05,-154.13 1919,-140.31 1938.05,-131.52"/>
<polygon fill="midnightblue" stroke="midnightblue" points="1865.65,-161.08 1858.04,-168.44 1868.59,-167.43 1865.65,-161.08"/>
</g>
<!-- Node69 -->
<g id="node30" class="node">
<title>Node69</title>
<g id="a_node30"><a xlink:href="api_2spec_2init_8h.html" target="_top" xlink:title=" ">
<polygon fill="white" stroke="red" points="1999,-112.5 1999,-131.5 2040,-131.5 2040,-112.5 1999,-112.5"/>
<text text-anchor="middle" x="2019.5" y="-119.5" font-family="Helvetica,sans-Serif" font-size="10.00">init.h</text>
</a>
</g>
</g>
<!-- Node1&#45;&gt;Node69 -->
<g id="edge35" class="edge">
<title>Node1&#45;&gt;Node69</title>
<path fill="none" stroke="midnightblue" d="M1878.3,-165.57C1908.82,-156.54 1952.41,-143.59 1990.5,-132 1993.22,-131.17 1996.09,-130.29 1998.91,-129.42"/>
<polygon fill="midnightblue" stroke="midnightblue" points="1877.08,-162.28 1868.48,-168.47 1879.06,-168.99 1877.08,-162.28"/>
</g>
<!-- Node103 -->
<g id="node31" class="node">
<title>Node103</title>
<g id="a_node31"><a xlink:href="api_2spec_2packet_8h.html" target="_top" xlink:title=" ">
<polygon fill="white" stroke="red" points="1712.5,-56.5 1712.5,-75.5 1770.5,-75.5 1770.5,-56.5 1712.5,-56.5"/>
<text text-anchor="middle" x="1741.5" y="-63.5" font-family="Helvetica,sans-Serif" font-size="10.00">packet.h</text>
</a>
</g>
</g>
<!-- Node1&#45;&gt;Node103 -->
<g id="edge37" class="edge">
<title>Node1&#45;&gt;Node103</title>
<path fill="none" stroke="midnightblue" d="M1826.5,-160.12C1816.04,-146.76 1800.78,-127.8 1786.5,-112 1774.65,-98.88 1760.03,-84.58 1750.74,-75.7"/>
<polygon fill="midnightblue" stroke="midnightblue" points="1824.01,-162.61 1832.91,-168.36 1829.53,-158.31 1824.01,-162.61"/>
</g>
<!-- Node126 -->
<g id="node32" class="node">
<title>Node126</title>
<g id="a_node32"><a xlink:href="api_2spec_2packet__flags_8h.html" target="_top" xlink:title=" ">
<polygon fill="white" stroke="red" points="2096.5,-112.5 2096.5,-131.5 2182.5,-131.5 2182.5,-112.5 2096.5,-112.5"/>
<text text-anchor="middle" x="2139.5" y="-119.5" font-family="Helvetica,sans-Serif" font-size="10.00">packet_flags.h</text>
</a>
</g>
</g>
<!-- Node1&#45;&gt;Node126 -->
<g id="edge38" class="edge">
<title>Node1&#45;&gt;Node126</title>
<path fill="none" stroke="midnightblue" d="M1886.2,-168.59C1943.69,-158.25 2040.54,-140.81 2096.35,-130.77"/>
<polygon fill="midnightblue" stroke="midnightblue" points="1885.51,-165.16 1876.29,-170.38 1886.75,-172.05 1885.51,-165.16"/>
</g>
<!-- Node98 -->
<g id="node33" class="node">
<title>Node98</title>
<g id="a_node33"><a xlink:href="api_2spec_2packet__io__types_8h.html" target="_top" xlink:title=" ">
<polygon fill="white" stroke="red" points="2200.5,-112.5 2200.5,-131.5 2304.5,-131.5 2304.5,-112.5 2200.5,-112.5"/>
<text text-anchor="middle" x="2252.5" y="-119.5" font-family="Helvetica,sans-Serif" font-size="10.00">packet_io_types.h</text>
</a>
</g>
</g>
<!-- Node1&#45;&gt;Node98 -->
<g id="edge39" class="edge">
<title>Node1&#45;&gt;Node98</title>
<path fill="none" stroke="midnightblue" d="M1886.31,-171.31C1953.79,-163.04 2082.3,-147.04 2191.5,-132 2194.36,-131.61 2197.3,-131.19 2200.27,-130.77"/>
<polygon fill="midnightblue" stroke="midnightblue" points="1885.52,-167.88 1876.02,-172.57 1886.37,-174.83 1885.52,-167.88"/>
</g>
<!-- Node120 -->
<g id="node34" class="node">
<title>Node120</title>
<g id="a_node34"><a xlink:href="api_2spec_2pool_8h.html" target="_top" xlink:title=" ">
<polygon fill="white" stroke="red" points="2323,-112.5 2323,-131.5 2370,-131.5 2370,-112.5 2323,-112.5"/>
<text text-anchor="middle" x="2346.5" y="-119.5" font-family="Helvetica,sans-Serif" font-size="10.00">pool.h</text>
</a>
</g>
</g>
<!-- Node1&#45;&gt;Node120 -->
<g id="edge40" class="edge">
<title>Node1&#45;&gt;Node120</title>
<path fill="none" stroke="midnightblue" d="M1886.22,-175.22C1971.65,-171.39 2158.54,-160.27 2313.5,-132 2316.54,-131.45 2319.7,-130.75 2322.82,-129.98"/>
<polygon fill="midnightblue" stroke="midnightblue" points="1885.9,-171.73 1876.07,-175.67 1886.21,-178.73 1885.9,-171.73"/>
</g>
<!-- Node116 -->
<g id="node35" class="node">
<title>Node116</title>
<g id="a_node35"><a xlink:href="api_2spec_2pool__types_8h.html" target="_top" xlink:title=" ">
<polygon fill="white" stroke="red" points="2388,-112.5 2388,-131.5 2467,-131.5 2467,-112.5 2388,-112.5"/>
<text text-anchor="middle" x="2427.5" y="-119.5" font-family="Helvetica,sans-Serif" font-size="10.00">pool_types.h</text>
</a>
</g>
</g>
<!-- Node1&#45;&gt;Node116 -->
<g id="edge41" class="edge">
<title>Node1&#45;&gt;Node116</title>
<path fill="none" stroke="midnightblue" d="M1886.33,-174.71C1980.22,-169.77 2197.98,-156.52 2379.5,-132 2382.27,-131.63 2385.13,-131.2 2388,-130.74"/>
<polygon fill="midnightblue" stroke="midnightblue" points="1886.11,-171.22 1876.31,-175.23 1886.48,-178.21 1886.11,-171.22"/>
</g>
<!-- Node157 -->
<g id="node36" class="node">
<title>Node157</title>
<g id="a_node36"><a xlink:href="api_2spec_2proto__stats__types_8h.html" target="_top" xlink:title=" ">
<polygon fill="white" stroke="red" points="2485,-112.5 2485,-131.5 2598,-131.5 2598,-112.5 2485,-112.5"/>
<text text-anchor="middle" x="2541.5" y="-119.5" font-family="Helvetica,sans-Serif" font-size="10.00">proto_stats_types.h</text>
</a>
</g>
</g>
<!-- Node1&#45;&gt;Node157 -->
<g id="edge42" class="edge">
<title>Node1&#45;&gt;Node157</title>
<path fill="none" stroke="midnightblue" d="M1886.19,-174.78C1991.63,-169.52 2256.14,-155.01 2476.5,-132 2479.22,-131.72 2482,-131.41 2484.81,-131.08"/>
<polygon fill="midnightblue" stroke="midnightblue" points="1886.01,-171.28 1876.2,-175.27 1886.36,-178.27 1886.01,-171.28"/>
</g>
<!-- Node161 -->
<g id="node37" class="node">
<title>Node161</title>
<g id="a_node37"><a xlink:href="api_2spec_2queue_8h.html" target="_top" xlink:title=" ">
<polygon fill="white" stroke="red" points="2616.5,-112.5 2616.5,-131.5 2672.5,-131.5 2672.5,-112.5 2616.5,-112.5"/>
<text text-anchor="middle" x="2644.5" y="-119.5" font-family="Helvetica,sans-Serif" font-size="10.00">queue.h</text>
</a>
</g>
</g>
<!-- Node1&#45;&gt;Node161 -->
<g id="edge43" class="edge">
<title>Node1&#45;&gt;Node161</title>
<path fill="none" stroke="midnightblue" d="M1886.45,-177.18C2006.93,-177.01 2336.63,-172.54 2607.5,-132 2610.38,-131.57 2613.36,-131.02 2616.32,-130.41"/>
<polygon fill="midnightblue" stroke="midnightblue" points="1886.12,-173.68 1876.12,-177.18 1886.12,-180.68 1886.12,-173.68"/>
</g>
<!-- Node163 -->
<g id="node38" class="node">
<title>Node163</title>
<g id="a_node38"><a xlink:href="api_2spec_2random_8h.html" target="_top" xlink:title=" ">
<polygon fill="white" stroke="red" points="2691,-112.5 2691,-131.5 2754,-131.5 2754,-112.5 2691,-112.5"/>
<text text-anchor="middle" x="2722.5" y="-119.5" font-family="Helvetica,sans-Serif" font-size="10.00">random.h</text>
</a>
</g>
</g>
<!-- Node1&#45;&gt;Node163 -->
<g id="edge44" class="edge">
<title>Node1&#45;&gt;Node163</title>
<path fill="none" stroke="midnightblue" d="M1886.45,-177.16C2014.55,-177.02 2380.61,-172.79 2681.5,-132 2684.53,-131.59 2687.67,-131.07 2690.81,-130.49"/>
<polygon fill="midnightblue" stroke="midnightblue" points="1886.22,-173.66 1876.22,-177.16 1886.22,-180.66 1886.22,-173.66"/>
</g>
<!-- Node165 -->
<g id="node39" class="node">
<title>Node165</title>
<g id="a_node39"><a xlink:href="spec_2random__types_8h.html" target="_top" xlink:title=" ">
<polygon fill="white" stroke="red" points="2772,-112.5 2772,-131.5 2867,-131.5 2867,-112.5 2772,-112.5"/>
<text text-anchor="middle" x="2819.5" y="-119.5" font-family="Helvetica,sans-Serif" font-size="10.00">random_types.h</text>
</a>
</g>
</g>
<!-- Node1&#45;&gt;Node165 -->
<g id="edge45" class="edge">
<title>Node1&#45;&gt;Node165</title>
<path fill="none" stroke="midnightblue" d="M1886.2,-176.55C2022.01,-174.85 2428.39,-166.98 2763.5,-132 2766.24,-131.71 2769.05,-131.38 2771.89,-131.02"/>
<polygon fill="midnightblue" stroke="midnightblue" points="1886.1,-173.05 1876.15,-176.67 1886.19,-180.05 1886.1,-173.05"/>
</g>
<!-- Node167 -->
<g id="node40" class="node">
<title>Node167</title>
<g id="a_node40"><a xlink:href="spec_2reassembly_8h.html" target="_top" xlink:title=" ">
<polygon fill="white" stroke="red" points="2885,-112.5 2885,-131.5 2966,-131.5 2966,-112.5 2885,-112.5"/>
<text text-anchor="middle" x="2925.5" y="-119.5" font-family="Helvetica,sans-Serif" font-size="10.00">reassembly.h</text>
</a>
</g>
</g>
<!-- Node1&#45;&gt;Node167 -->
<g id="edge46" class="edge">
<title>Node1&#45;&gt;Node167</title>
<path fill="none" stroke="midnightblue" d="M1886.39,-177.27C2033.09,-177.61 2496.16,-174.97 2876.5,-132 2879.25,-131.69 2882.08,-131.32 2884.92,-130.9"/>
<polygon fill="midnightblue" stroke="midnightblue" points="1886.39,-173.77 1876.38,-177.24 1886.37,-180.77 1886.39,-173.77"/>
</g>
<!-- Node67 -->
<g id="node41" class="node">
<title>Node67</title>
<g id="a_node41"><a xlink:href="api_2spec_2schedule_8h.html" target="_top" xlink:title=" ">
<polygon fill="white" stroke="red" points="2984,-112.5 2984,-131.5 3053,-131.5 3053,-112.5 2984,-112.5"/>
<text text-anchor="middle" x="3018.5" y="-119.5" font-family="Helvetica,sans-Serif" font-size="10.00">schedule.h</text>
</a>
</g>
</g>
<!-- Node1&#45;&gt;Node67 -->
<g id="edge47" class="edge">
<title>Node1&#45;&gt;Node67</title>
<path fill="none" stroke="midnightblue" d="M1886.28,-176.19C2072.24,-172.8 2759.44,-158.7 2975.5,-132 2978.23,-131.66 2981.03,-131.24 2983.85,-130.77"/>
<polygon fill="midnightblue" stroke="midnightblue" points="1885.96,-172.69 1876.03,-176.37 1886.09,-179.69 1885.96,-172.69"/>
</g>
<!-- Node169 -->
<g id="node42" class="node">
<title>Node169</title>
<g id="a_node42"><a xlink:href="api_2spec_2schedule__types_8h.html" target="_top" xlink:title=" ">
<polygon fill="white" stroke="red" points="3071,-112.5 3071,-131.5 3172,-131.5 3172,-112.5 3071,-112.5"/>
<text text-anchor="middle" x="3121.5" y="-119.5" font-family="Helvetica,sans-Serif" font-size="10.00">schedule_types.h</text>
</a>
</g>
</g>
<!-- Node1&#45;&gt;Node169 -->
<g id="edge48" class="edge">
<title>Node1&#45;&gt;Node169</title>
<path fill="none" stroke="midnightblue" d="M1886.26,-177.2C2049.01,-177.51 2605.58,-175.11 3062.5,-132 3065.18,-131.75 3067.93,-131.45 3070.7,-131.13"/>
<polygon fill="midnightblue" stroke="midnightblue" points="1886.13,-173.7 1876.12,-177.18 1886.11,-180.7 1886.13,-173.7"/>
</g>
<!-- Node174 -->
<g id="node43" class="node">
<title>Node174</title>
<g id="a_node43"><a xlink:href="api_2spec_2stash_8h.html" target="_top" xlink:title=" ">
<polygon fill="white" stroke="red" points="3190.5,-112.5 3190.5,-131.5 3242.5,-131.5 3242.5,-112.5 3190.5,-112.5"/>
<text text-anchor="middle" x="3216.5" y="-119.5" font-family="Helvetica,sans-Serif" font-size="10.00">stash.h</text>
</a>
</g>
</g>
<!-- Node1&#45;&gt;Node174 -->
<g id="edge49" class="edge">
<title>Node1&#45;&gt;Node174</title>
<path fill="none" stroke="midnightblue" d="M1886.46,-176.8C2093.22,-175.7 2923.65,-169.02 3181.5,-132 3184.36,-131.59 3187.32,-131.04 3190.25,-130.4"/>
<polygon fill="midnightblue" stroke="midnightblue" points="1886.23,-173.3 1876.24,-176.85 1886.26,-180.3 1886.23,-173.3"/>
</g>
<!-- Node176 -->
<g id="node44" class="node">
<title>Node176</title>
<g id="a_node44"><a xlink:href="api_2spec_2std_8h.html" target="_top" xlink:title=" ">
<polygon fill="white" stroke="red" points="3261,-112.5 3261,-131.5 3302,-131.5 3302,-112.5 3261,-112.5"/>
<text text-anchor="middle" x="3281.5" y="-119.5" font-family="Helvetica,sans-Serif" font-size="10.00">std.h</text>
</a>
</g>
</g>
<!-- Node1&#45;&gt;Node176 -->
<g id="edge50" class="edge">
<title>Node1&#45;&gt;Node176</title>
<path fill="none" stroke="midnightblue" d="M1886.49,-177.14C2100.01,-177.51 2979.98,-176.28 3251.5,-132 3254.51,-131.51 3257.63,-130.8 3260.68,-130"/>
<polygon fill="midnightblue" stroke="midnightblue" points="1886.26,-173.64 1876.26,-177.12 1886.25,-180.64 1886.26,-173.64"/>
</g>
<!-- Node178 -->
<g id="node45" class="node">
<title>Node178</title>
<g id="a_node45"><a xlink:href="spec_2threshold_8h.html" target="_top" xlink:title=" ">
<polygon fill="white" stroke="red" points="3320,-112.5 3320,-131.5 3391,-131.5 3391,-112.5 3320,-112.5"/>
<text text-anchor="middle" x="3355.5" y="-119.5" font-family="Helvetica,sans-Serif" font-size="10.00">threshold.h</text>
</a>
</g>
</g>
<!-- Node1&#45;&gt;Node178 -->
<g id="edge51" class="edge">
<title>Node1&#45;&gt;Node178</title>
<path fill="none" stroke="midnightblue" d="M1886.27,-176.65C2104.7,-174.84 3025.72,-165.35 3311.5,-132 3314.13,-131.69 3316.84,-131.31 3319.56,-130.87"/>
<polygon fill="midnightblue" stroke="midnightblue" points="1886.08,-173.15 1876.11,-176.73 1886.14,-180.15 1886.08,-173.15"/>
</g>
<!-- Node180 -->
<g id="node46" class="node">
<title>Node180</title>
<g id="a_node46"><a xlink:href="api_2spec_2thrmask_8h.html" target="_top" xlink:title=" ">
<polygon fill="white" stroke="red" points="3409.5,-112.5 3409.5,-131.5 3475.5,-131.5 3475.5,-112.5 3409.5,-112.5"/>
<text text-anchor="middle" x="3442.5" y="-119.5" font-family="Helvetica,sans-Serif" font-size="10.00">thrmask.h</text>
</a>
</g>
</g>
<!-- Node1&#45;&gt;Node180 -->
<g id="edge52" class="edge">
<title>Node1&#45;&gt;Node180</title>
<path fill="none" stroke="midnightblue" d="M1886.51,-176.8C2113.38,-175.66 3096.45,-168.65 3400.5,-132 3403.31,-131.66 3406.22,-131.22 3409.12,-130.73"/>
<polygon fill="midnightblue" stroke="midnightblue" points="1886.27,-173.3 1876.29,-176.85 1886.31,-180.3 1886.27,-173.3"/>
</g>
<!-- Node181 -->
<g id="node47" class="node">
<title>Node181</title>
<g id="a_node47"><a xlink:href="api_2spec_2timer__types_8h.html" target="_top" xlink:title=" ">
<polygon fill="white" stroke="red" points="3493.5,-112.5 3493.5,-131.5 3577.5,-131.5 3577.5,-112.5 3493.5,-112.5"/>
<text text-anchor="middle" x="3535.5" y="-119.5" font-family="Helvetica,sans-Serif" font-size="10.00">timer_types.h</text>
</a>
</g>
</g>
<!-- Node1&#45;&gt;Node181 -->
<g id="edge53" class="edge">
<title>Node1&#45;&gt;Node181</title>
<path fill="none" stroke="midnightblue" d="M1886.35,-176.65C2120.16,-174.77 3162.22,-164.66 3484.5,-132 3487.36,-131.71 3490.31,-131.35 3493.27,-130.95"/>
<polygon fill="midnightblue" stroke="midnightblue" points="1886.12,-173.15 1876.15,-176.73 1886.18,-180.15 1886.12,-173.15"/>
</g>
<!-- Node105 -->
<g id="node48" class="node">
<title>Node105</title>
<g id="a_node48"><a xlink:href="api_2spec_2traffic__mngr_8h.html" target="_top" xlink:title=" ">
<polygon fill="white" stroke="red" points="3595.5,-112.5 3595.5,-131.5 3679.5,-131.5 3679.5,-112.5 3595.5,-112.5"/>
<text text-anchor="middle" x="3637.5" y="-119.5" font-family="Helvetica,sans-Serif" font-size="10.00">traffic_mngr.h</text>
</a>
</g>
</g>
<!-- Node1&#45;&gt;Node105 -->
<g id="edge54" class="edge">
<title>Node1&#45;&gt;Node105</title>
<path fill="none" stroke="midnightblue" d="M1886.5,-176.74C2129.23,-175.23 3242.94,-166.54 3586.5,-132 3589.36,-131.71 3592.31,-131.36 3595.27,-130.95"/>
<polygon fill="midnightblue" stroke="midnightblue" points="1886.23,-173.24 1876.25,-176.8 1886.27,-180.24 1886.23,-173.24"/>
</g>
<!-- Node183 -->
<g id="node49" class="node">
<title>Node183</title>
<g id="a_node49"><a xlink:href="system__info_8h.html" target="_top" xlink:title=" ">
<polygon fill="white" stroke="black" points="3325.5,-56.5 3325.5,-75.5 3411.5,-75.5 3411.5,-56.5 3325.5,-56.5"/>
<text text-anchor="middle" x="3368.5" y="-63.5" font-family="Helvetica,sans-Serif" font-size="10.00">system_info.h</text>
</a>
</g>
</g>
<!-- Node1&#45;&gt;Node183 -->
<g id="edge55" class="edge">
<title>Node1&#45;&gt;Node183</title>
<path fill="none" stroke="midnightblue" d="M1886.07,-176.77C2171.35,-175.23 3671.75,-165.55 3704.5,-132 3710.71,-125.64 3710.35,-118.69 3704.5,-112 3666.96,-69.09 3493.78,-65.36 3411.78,-66.08"/>
<polygon fill="midnightblue" stroke="midnightblue" points="1886.03,-173.27 1876.05,-176.82 1886.07,-180.27 1886.03,-173.27"/>
</g>
<!-- Node184 -->
<g id="node50" class="node">
<title>Node184</title>
<g id="a_node50"><a xlink:href="api_2time_8h.html" target="_top" xlink:title=" ">
<polygon fill="white" stroke="red" points="1596.5,-112.5 1596.5,-131.5 1644.5,-131.5 1644.5,-112.5 1596.5,-112.5"/>
<text text-anchor="middle" x="1620.5" y="-119.5" font-family="Helvetica,sans-Serif" font-size="10.00">time.h</text>
</a>
</g>
</g>
<!-- Node1&#45;&gt;Node184 -->
<g id="edge57" class="edge">
<title>Node1&#45;&gt;Node184</title>
<path fill="none" stroke="midnightblue" d="M1792.55,-166.04C1754.89,-157.15 1700.7,-144.14 1653.5,-132 1650.62,-131.26 1647.61,-130.47 1644.63,-129.67"/>
<polygon fill="midnightblue" stroke="midnightblue" points="1792.18,-169.55 1802.72,-168.43 1793.79,-162.73 1792.18,-169.55"/>
</g>
<!-- Node3 -->
<g id="node3" class="node">
<title>Node3</title>
<g id="a_node3"><a xlink:href="arch_2arm32-linux_2odp_2api_2abi_2atomic_8h_source.html" target="_top" xlink:title=" ">
<polygon fill="white" stroke="black" points="0,-56.5 0,-75.5 59,-75.5 59,-56.5 0,-56.5"/>
<text text-anchor="middle" x="29.5" y="-63.5" font-family="Helvetica,sans-Serif" font-size="10.00">atomic.h</text>
</a>
</g>
</g>
<!-- Node2&#45;&gt;Node3 -->
<g id="edge2" class="edge">
<title>Node2&#45;&gt;Node3</title>
<path fill="none" stroke="midnightblue" d="M85.6,-106.34C71.59,-96.52 53.62,-83.91 41.84,-75.65"/>
<polygon fill="midnightblue" stroke="midnightblue" points="83.93,-109.45 94.13,-112.32 87.95,-103.72 83.93,-109.45"/>
</g>
<!-- Node4 -->
<g id="node4" class="node">
<title>Node4</title>
<g id="a_node4"><a xlink:href="arch_2arm64-linux_2odp_2api_2abi_2atomic_8h_source.html" target="_top" xlink:title=" ">
<polygon fill="white" stroke="black" points="77,-56.5 77,-75.5 136,-75.5 136,-56.5 77,-56.5"/>
<text text-anchor="middle" x="106.5" y="-63.5" font-family="Helvetica,sans-Serif" font-size="10.00">atomic.h</text>
</a>
</g>
</g>
<!-- Node2&#45;&gt;Node4 -->
<g id="edge3" class="edge">
<title>Node2&#45;&gt;Node4</title>
<path fill="none" stroke="midnightblue" d="M106.5,-101.8C106.5,-92.91 106.5,-82.78 106.5,-75.75"/>
<polygon fill="midnightblue" stroke="midnightblue" points="103,-102.08 106.5,-112.08 110,-102.08 103,-102.08"/>
</g>
<!-- Node5 -->
<g id="node5" class="node">
<title>Node5</title>
<g id="a_node5"><a xlink:href="arch_2default-linux_2odp_2api_2abi_2atomic_8h_source.html" target="_top" xlink:title=" ">
<polygon fill="white" stroke="black" points="154,-56.5 154,-75.5 213,-75.5 213,-56.5 154,-56.5"/>
<text text-anchor="middle" x="183.5" y="-63.5" font-family="Helvetica,sans-Serif" font-size="10.00">atomic.h</text>
</a>
</g>
</g>
<!-- Node2&#45;&gt;Node5 -->
<g id="edge4" class="edge">
<title>Node2&#45;&gt;Node5</title>
<path fill="none" stroke="midnightblue" d="M127.4,-106.34C141.41,-96.52 159.38,-83.91 171.16,-75.65"/>
<polygon fill="midnightblue" stroke="midnightblue" points="125.05,-103.72 118.87,-112.32 129.07,-109.45 125.05,-103.72"/>
</g>
<!-- Node17&#45;&gt;Node18 -->
<g id="edge16" class="edge">
<title>Node17&#45;&gt;Node18</title>
<path fill="none" stroke="midnightblue" d="M1541.31,-51.73C1560.75,-41.73 1586.85,-28.31 1603.67,-19.65"/>
<polygon fill="midnightblue" stroke="midnightblue" points="1539.66,-48.64 1532.37,-56.32 1542.86,-54.86 1539.66,-48.64"/>
</g>
<!-- Node101&#45;&gt;Node18 -->
<g id="edge19" class="edge">
<title>Node101&#45;&gt;Node18</title>
<path fill="none" stroke="midnightblue" d="M1402.39,-54.46C1457.63,-43.45 1542.48,-26.55 1588.37,-17.4"/>
<polygon fill="midnightblue" stroke="midnightblue" points="1401.56,-51.06 1392.44,-56.44 1402.93,-57.92 1401.56,-51.06"/>
</g>
<!-- Node101&#45;&gt;Node102 -->
<g id="edge18" class="edge">
<title>Node101&#45;&gt;Node102</title>
<path fill="none" stroke="midnightblue" d="M1321.36,-52.23C1299.1,-42.13 1268.64,-28.31 1249.27,-19.52"/>
<polygon fill="midnightblue" stroke="midnightblue" points="1320.09,-55.5 1330.64,-56.44 1322.98,-49.12 1320.09,-55.5"/>
</g>
<!-- Node111&#45;&gt;Node18 -->
<g id="edge22" class="edge">
<title>Node111&#45;&gt;Node18</title>
<path fill="none" stroke="midnightblue" d="M1268.73,-59.71C1345.47,-49.08 1517.03,-25.33 1588.4,-15.44"/>
<polygon fill="midnightblue" stroke="midnightblue" points="1267.97,-56.28 1258.55,-61.12 1268.93,-63.21 1267.97,-56.28"/>
</g>
<!-- Node111&#45;&gt;Node102 -->
<g id="edge21" class="edge">
<title>Node111&#45;&gt;Node102</title>
<path fill="none" stroke="midnightblue" d="M1230.5,-45.8C1230.5,-36.91 1230.5,-26.78 1230.5,-19.75"/>
<polygon fill="midnightblue" stroke="midnightblue" points="1227,-46.08 1230.5,-56.08 1234,-46.08 1227,-46.08"/>
</g>
<!-- Node150&#45;&gt;Node18 -->
<g id="edge24" class="edge">
<title>Node150&#45;&gt;Node18</title>
<path fill="none" stroke="midnightblue" d="M2840.27,-62.86C2630.11,-53.93 1824.43,-19.67 1652.78,-12.37"/>
<polygon fill="midnightblue" stroke="midnightblue" points="2840.25,-66.37 2850.39,-63.29 2840.55,-59.37 2840.25,-66.37"/>
</g>
<!-- Node100&#45;&gt;Node101 -->
<g id="edge28" class="edge">
<title>Node100&#45;&gt;Node101</title>
<path fill="none" stroke="midnightblue" d="M1317.61,-104.43C1325.68,-94.97 1335.46,-83.48 1342.05,-75.75"/>
<polygon fill="midnightblue" stroke="midnightblue" points="1314.92,-102.2 1311.1,-112.08 1320.25,-106.74 1314.92,-102.2"/>
</g>
<!-- Node110&#45;&gt;Node111 -->
<g id="edge32" class="edge">
<title>Node110&#45;&gt;Node111</title>
<path fill="none" stroke="midnightblue" d="M1190.83,-105.25C1200.76,-95.67 1213.09,-83.79 1221.34,-75.83"/>
<polygon fill="midnightblue" stroke="midnightblue" points="1188.27,-102.86 1183.5,-112.32 1193.13,-107.9 1188.27,-102.86"/>
</g>
<!-- Node183&#45;&gt;Node18 -->
<g id="edge56" class="edge">
<title>Node183&#45;&gt;Node18</title>
<path fill="none" stroke="midnightblue" d="M3315.09,-63.35C3048.21,-55.11 1863.63,-18.51 1652.69,-11.99"/>
<polygon fill="midnightblue" stroke="midnightblue" points="3315.19,-66.85 3325.29,-63.67 3315.4,-59.86 3315.19,-66.85"/>
</g>
<!-- Node184&#45;&gt;Node18 -->
<g id="edge59" class="edge">
<title>Node184&#45;&gt;Node18</title>
<path fill="none" stroke="midnightblue" d="M1620.5,-102.35C1620.5,-78.25 1620.5,-37.31 1620.5,-19.59"/>
<polygon fill="midnightblue" stroke="midnightblue" points="1617,-102.37 1620.5,-112.37 1624,-102.37 1617,-102.37"/>
</g>
<!-- Node184&#45;&gt;Node103 -->
<g id="edge58" class="edge">
<title>Node184&#45;&gt;Node103</title>
<path fill="none" stroke="midnightblue" d="M1648.81,-108.37C1671.47,-98.26 1702.63,-84.35 1722.42,-75.52"/>
<polygon fill="midnightblue" stroke="midnightblue" points="1647.38,-105.17 1639.67,-112.44 1650.23,-111.56 1647.38,-105.17"/>
</g>
</g>
</svg>
