<?xml version="1.0" encoding="UTF-8" standalone="no"?>
<!DOCTYPE svg PUBLIC "-//W3C//DTD SVG 1.1//EN"
 "http://www.w3.org/Graphics/SVG/1.1/DTD/svg11.dtd">
<!-- Generated by graphviz version 2.43.0 (0)
 -->
<!-- Title: spinlock.h Pages: 1 -->
<svg width="813pt" height="308pt"
 viewBox="0.00 0.00 812.66 308.00" xmlns="http://www.w3.org/2000/svg" xmlns:xlink="http://www.w3.org/1999/xlink">
<g id="graph0" class="graph" transform="scale(1 1) rotate(0) translate(4 304)">
<title>spinlock.h</title>
<polygon fill="white" stroke="transparent" points="-4,4 -4,-304 808.66,-304 808.66,4 -4,4"/>
<!-- Node1 -->
<g id="node1" class="node">
<title>Node1</title>
<g id="a_node1"><a xlink:title=" ">
<polygon fill="#bfbfbf" stroke="black" points="604,-280.5 604,-299.5 670,-299.5 670,-280.5 604,-280.5"/>
<text text-anchor="middle" x="637" y="-287.5" font-family="Helvetica,sans-Serif" font-size="10.00">spinlock.h</text>
</a>
</g>
</g>
<!-- Node2 -->
<g id="node2" class="node">
<title>Node2</title>
<g id="a_node2"><a xlink:href="api_2spinlock_8h.html" target="_top" xlink:title=" ">
<polygon fill="white" stroke="black" points="604,-224.5 604,-243.5 670,-243.5 670,-224.5 604,-224.5"/>
<text text-anchor="middle" x="637" y="-231.5" font-family="Helvetica,sans-Serif" font-size="10.00">spinlock.h</text>
</a>
</g>
</g>
<!-- Node1&#45;&gt;Node2 -->
<g id="edge1" class="edge">
<title>Node1&#45;&gt;Node2</title>
<path fill="none" stroke="midnightblue" d="M637,-269.8C637,-260.91 637,-250.78 637,-243.75"/>
<polygon fill="midnightblue" stroke="midnightblue" points="633.5,-270.08 637,-280.08 640.5,-270.08 633.5,-270.08"/>
</g>
<!-- Node3 -->
<g id="node3" class="node">
<title>Node3</title>
<g id="a_node3"><a xlink:href="api_2abi-default_2spinlock__recursive_8h.html" target="_top" xlink:title=" ">
<polygon fill="white" stroke="black" points="402,-168.5 402,-187.5 518,-187.5 518,-168.5 402,-168.5"/>
<text text-anchor="middle" x="460" y="-175.5" font-family="Helvetica,sans-Serif" font-size="10.00">spinlock_recursive.h</text>
</a>
</g>
</g>
<!-- Node2&#45;&gt;Node3 -->
<g id="edge2" class="edge">
<title>Node2&#45;&gt;Node3</title>
<path fill="none" stroke="midnightblue" d="M599.1,-221.44C565.72,-211.26 517.9,-196.66 487.91,-187.52"/>
<polygon fill="midnightblue" stroke="midnightblue" points="598.37,-224.87 608.95,-224.44 600.41,-218.18 598.37,-224.87"/>
</g>
<!-- Node11 -->
<g id="node11" class="node">
<title>Node11</title>
<g id="a_node11"><a xlink:href="odp__api_8h.html" target="_top" xlink:title=" ">
<polygon fill="white" stroke="black" points="739,-0.5 739,-19.5 803,-19.5 803,-0.5 739,-0.5"/>
<text text-anchor="middle" x="771" y="-7.5" font-family="Helvetica,sans-Serif" font-size="10.00">odp_api.h</text>
</a>
</g>
</g>
<!-- Node2&#45;&gt;Node11 -->
<g id="edge11" class="edge">
<title>Node2&#45;&gt;Node11</title>
<path fill="none" stroke="midnightblue" d="M675,-220.86C713.11,-206.42 769.66,-178.27 795,-132 811.22,-102.37 803.19,-88.77 795,-56 791.61,-42.43 783.26,-28.47 777.37,-19.77"/>
<polygon fill="midnightblue" stroke="midnightblue" points="673.46,-217.7 665.26,-224.41 675.86,-224.28 673.46,-217.7"/>
</g>
<!-- Node4 -->
<g id="node4" class="node">
<title>Node4</title>
<g id="a_node4"><a xlink:href="arch_2arm32-linux_2odp_2api_2abi_2spinlock__recursive_8h_source.html" target="_top" xlink:title=" ">
<polygon fill="white" stroke="black" points="0,-112.5 0,-131.5 116,-131.5 116,-112.5 0,-112.5"/>
<text text-anchor="middle" x="58" y="-119.5" font-family="Helvetica,sans-Serif" font-size="10.00">spinlock_recursive.h</text>
</a>
</g>
</g>
<!-- Node3&#45;&gt;Node4 -->
<g id="edge3" class="edge">
<title>Node3&#45;&gt;Node4</title>
<path fill="none" stroke="midnightblue" d="M391.83,-167.84C314.3,-157.43 189.04,-140.6 116.01,-130.79"/>
<polygon fill="midnightblue" stroke="midnightblue" points="391.6,-171.34 401.98,-169.21 392.53,-164.41 391.6,-171.34"/>
</g>
<!-- Node5 -->
<g id="node5" class="node">
<title>Node5</title>
<g id="a_node5"><a xlink:href="arch_2arm64-linux_2odp_2api_2abi_2spinlock__recursive_8h_source.html" target="_top" xlink:title=" ">
<polygon fill="white" stroke="black" points="134,-112.5 134,-131.5 250,-131.5 250,-112.5 134,-112.5"/>
<text text-anchor="middle" x="192" y="-119.5" font-family="Helvetica,sans-Serif" font-size="10.00">spinlock_recursive.h</text>
</a>
</g>
</g>
<!-- Node3&#45;&gt;Node5 -->
<g id="edge4" class="edge">
<title>Node3&#45;&gt;Node5</title>
<path fill="none" stroke="midnightblue" d="M407.44,-166.41C356.79,-156.2 281.13,-140.96 234.27,-131.52"/>
<polygon fill="midnightblue" stroke="midnightblue" points="407.04,-169.9 417.53,-168.44 408.42,-163.04 407.04,-169.9"/>
</g>
<!-- Node6 -->
<g id="node6" class="node">
<title>Node6</title>
<g id="a_node6"><a xlink:href="arch_2default-linux_2odp_2api_2abi_2spinlock__recursive_8h_source.html" target="_top" xlink:title=" ">
<polygon fill="white" stroke="black" points="268,-112.5 268,-131.5 384,-131.5 384,-112.5 268,-112.5"/>
<text text-anchor="middle" x="326" y="-119.5" font-family="Helvetica,sans-Serif" font-size="10.00">spinlock_recursive.h</text>
</a>
</g>
</g>
<!-- Node3&#45;&gt;Node6 -->
<g id="edge5" class="edge">
<title>Node3&#45;&gt;Node6</title>
<path fill="none" stroke="midnightblue" d="M429.32,-164.64C404.18,-154.5 369.25,-140.43 347.13,-131.52"/>
<polygon fill="midnightblue" stroke="midnightblue" points="428.18,-167.95 438.77,-168.44 430.8,-161.46 428.18,-167.95"/>
</g>
<!-- Node7 -->
<g id="node7" class="node">
<title>Node7</title>
<g id="a_node7"><a xlink:href="arch_2power64-linux_2odp_2api_2abi_2spinlock__recursive_8h_source.html" target="_top" xlink:title=" ">
<polygon fill="white" stroke="black" points="402,-112.5 402,-131.5 518,-131.5 518,-112.5 402,-112.5"/>
<text text-anchor="middle" x="460" y="-119.5" font-family="Helvetica,sans-Serif" font-size="10.00">spinlock_recursive.h</text>
</a>
</g>
</g>
<!-- Node3&#45;&gt;Node7 -->
<g id="edge6" class="edge">
<title>Node3&#45;&gt;Node7</title>
<path fill="none" stroke="midnightblue" d="M460,-157.8C460,-148.91 460,-138.78 460,-131.75"/>
<polygon fill="midnightblue" stroke="midnightblue" points="456.5,-158.08 460,-168.08 463.5,-158.08 456.5,-158.08"/>
</g>
<!-- Node8 -->
<g id="node8" class="node">
<title>Node8</title>
<g id="a_node8"><a xlink:href="arch_2x86__32-linux_2odp_2api_2abi_2spinlock__recursive_8h_source.html" target="_top" xlink:title=" ">
<polygon fill="white" stroke="black" points="536,-112.5 536,-131.5 652,-131.5 652,-112.5 536,-112.5"/>
<text text-anchor="middle" x="594" y="-119.5" font-family="Helvetica,sans-Serif" font-size="10.00">spinlock_recursive.h</text>
</a>
</g>
</g>
<!-- Node3&#45;&gt;Node8 -->
<g id="edge7" class="edge">
<title>Node3&#45;&gt;Node8</title>
<path fill="none" stroke="midnightblue" d="M490.68,-164.64C515.82,-154.5 550.75,-140.43 572.87,-131.52"/>
<polygon fill="midnightblue" stroke="midnightblue" points="489.2,-161.46 481.23,-168.44 491.82,-167.95 489.2,-161.46"/>
</g>
<!-- Node9 -->
<g id="node9" class="node">
<title>Node9</title>
<g id="a_node9"><a xlink:href="arch_2x86__64-linux_2odp_2api_2abi_2spinlock__recursive_8h_source.html" target="_top" xlink:title=" ">
<polygon fill="white" stroke="black" points="670,-112.5 670,-131.5 786,-131.5 786,-112.5 670,-112.5"/>
<text text-anchor="middle" x="728" y="-119.5" font-family="Helvetica,sans-Serif" font-size="10.00">spinlock_recursive.h</text>
</a>
</g>
</g>
<!-- Node3&#45;&gt;Node9 -->
<g id="edge8" class="edge">
<title>Node3&#45;&gt;Node9</title>
<path fill="none" stroke="midnightblue" d="M512.56,-166.41C563.21,-156.2 638.87,-140.96 685.73,-131.52"/>
<polygon fill="midnightblue" stroke="midnightblue" points="511.58,-163.04 502.47,-168.44 512.96,-169.9 511.58,-163.04"/>
</g>
<!-- Node10 -->
<g id="node10" class="node">
<title>Node10</title>
<g id="a_node10"><a xlink:href="api_2spinlock__recursive_8h.html" target="_top" xlink:title=" ">
<polygon fill="white" stroke="black" points="670,-56.5 670,-75.5 786,-75.5 786,-56.5 670,-56.5"/>
<text text-anchor="middle" x="728" y="-63.5" font-family="Helvetica,sans-Serif" font-size="10.00">spinlock_recursive.h</text>
</a>
</g>
</g>
<!-- Node9&#45;&gt;Node10 -->
<g id="edge9" class="edge">
<title>Node9&#45;&gt;Node10</title>
<path fill="none" stroke="midnightblue" d="M728,-101.8C728,-92.91 728,-82.78 728,-75.75"/>
<polygon fill="midnightblue" stroke="midnightblue" points="724.5,-102.08 728,-112.08 731.5,-102.08 724.5,-102.08"/>
</g>
<!-- Node10&#45;&gt;Node11 -->
<g id="edge10" class="edge">
<title>Node10&#45;&gt;Node11</title>
<path fill="none" stroke="midnightblue" d="M741.42,-48.14C748.91,-38.74 757.94,-27.4 764.03,-19.75"/>
<polygon fill="midnightblue" stroke="midnightblue" points="738.59,-46.08 735.1,-56.08 744.07,-50.44 738.59,-46.08"/>
</g>
</g>
</svg>
