<?xml version="1.0" encoding="UTF-8" standalone="no"?>
<!DOCTYPE svg PUBLIC "-//W3C//DTD SVG 1.1//EN"
 "http://www.w3.org/Graphics/SVG/1.1/DTD/svg11.dtd">
<!-- Generated by graphviz version 2.43.0 (0)
 -->
<!-- Title: rwlock.h Pages: 1 -->
<svg width="765pt" height="252pt"
 viewBox="0.00 0.00 765.00 252.00" xmlns="http://www.w3.org/2000/svg" xmlns:xlink="http://www.w3.org/1999/xlink">
<g id="graph0" class="graph" transform="scale(1 1) rotate(0) translate(4 248)">
<title>rwlock.h</title>
<polygon fill="white" stroke="transparent" points="-4,4 -4,-248 761,-248 761,4 -4,4"/>
<!-- Node1 -->
<g id="node1" class="node">
<title>Node1</title>
<g id="a_node1"><a xlink:title=" ">
<polygon fill="#bfbfbf" stroke="black" points="570,-224.5 570,-243.5 628,-243.5 628,-224.5 570,-224.5"/>
<text text-anchor="middle" x="599" y="-231.5" font-family="Helvetica,sans-Serif" font-size="10.00">rwlock.h</text>
</a>
</g>
</g>
<!-- Node2 -->
<g id="node2" class="node">
<title>Node2</title>
<g id="a_node2"><a xlink:href="api_2abi-default_2rwlock__recursive_8h.html" target="_top" xlink:title=" ">
<polygon fill="white" stroke="black" points="378,-168.5 378,-187.5 486,-187.5 486,-168.5 378,-168.5"/>
<text text-anchor="middle" x="432" y="-175.5" font-family="Helvetica,sans-Serif" font-size="10.00">rwlock_recursive.h</text>
</a>
</g>
</g>
<!-- Node1&#45;&gt;Node2 -->
<g id="edge1" class="edge">
<title>Node1&#45;&gt;Node2</title>
<path fill="none" stroke="midnightblue" d="M562.83,-221.3C531.36,-211.13 486.51,-196.62 458.34,-187.52"/>
<polygon fill="midnightblue" stroke="midnightblue" points="561.95,-224.7 572.54,-224.44 564.1,-218.04 561.95,-224.7"/>
</g>
<!-- Node10 -->
<g id="node10" class="node">
<title>Node10</title>
<g id="a_node10"><a xlink:href="odp__api_8h.html" target="_top" xlink:title=" ">
<polygon fill="white" stroke="black" points="693,-0.5 693,-19.5 757,-19.5 757,-0.5 693,-0.5"/>
<text text-anchor="middle" x="725" y="-7.5" font-family="Helvetica,sans-Serif" font-size="10.00">odp_api.h</text>
</a>
</g>
</g>
<!-- Node1&#45;&gt;Node10 -->
<g id="edge10" class="edge">
<title>Node1&#45;&gt;Node10</title>
<path fill="none" stroke="midnightblue" d="M633.62,-220.62C669.39,-205.74 723.23,-177 747,-132 762.78,-102.13 754.61,-88.91 747,-56 743.86,-42.44 736.05,-28.26 730.64,-19.52"/>
<polygon fill="midnightblue" stroke="midnightblue" points="632.04,-217.48 624.06,-224.45 634.64,-223.98 632.04,-217.48"/>
</g>
<!-- Node3 -->
<g id="node3" class="node">
<title>Node3</title>
<g id="a_node3"><a xlink:href="arch_2arm32-linux_2odp_2api_2abi_2rwlock__recursive_8h_source.html" target="_top" xlink:title=" ">
<polygon fill="white" stroke="black" points="0,-112.5 0,-131.5 108,-131.5 108,-112.5 0,-112.5"/>
<text text-anchor="middle" x="54" y="-119.5" font-family="Helvetica,sans-Serif" font-size="10.00">rwlock_recursive.h</text>
</a>
</g>
</g>
<!-- Node2&#45;&gt;Node3 -->
<g id="edge2" class="edge">
<title>Node2&#45;&gt;Node3</title>
<path fill="none" stroke="midnightblue" d="M367.84,-167.83C294.76,-157.39 176.64,-140.52 108.06,-130.72"/>
<polygon fill="midnightblue" stroke="midnightblue" points="367.45,-171.31 377.84,-169.26 368.44,-164.38 367.45,-171.31"/>
</g>
<!-- Node4 -->
<g id="node4" class="node">
<title>Node4</title>
<g id="a_node4"><a xlink:href="arch_2arm64-linux_2odp_2api_2abi_2rwlock__recursive_8h_source.html" target="_top" xlink:title=" ">
<polygon fill="white" stroke="black" points="126,-112.5 126,-131.5 234,-131.5 234,-112.5 126,-112.5"/>
<text text-anchor="middle" x="180" y="-119.5" font-family="Helvetica,sans-Serif" font-size="10.00">rwlock_recursive.h</text>
</a>
</g>
</g>
<!-- Node2&#45;&gt;Node4 -->
<g id="edge3" class="edge">
<title>Node2&#45;&gt;Node4</title>
<path fill="none" stroke="midnightblue" d="M382.28,-166.35C334.66,-156.14 263.72,-140.94 219.74,-131.52"/>
<polygon fill="midnightblue" stroke="midnightblue" points="381.56,-169.77 392.07,-168.44 383.03,-162.93 381.56,-169.77"/>
</g>
<!-- Node5 -->
<g id="node5" class="node">
<title>Node5</title>
<g id="a_node5"><a xlink:href="arch_2default-linux_2odp_2api_2abi_2rwlock__recursive_8h_source.html" target="_top" xlink:title=" ">
<polygon fill="white" stroke="black" points="252,-112.5 252,-131.5 360,-131.5 360,-112.5 252,-112.5"/>
<text text-anchor="middle" x="306" y="-119.5" font-family="Helvetica,sans-Serif" font-size="10.00">rwlock_recursive.h</text>
</a>
</g>
</g>
<!-- Node2&#45;&gt;Node5 -->
<g id="edge4" class="edge">
<title>Node2&#45;&gt;Node5</title>
<path fill="none" stroke="midnightblue" d="M402.84,-164.5C379.22,-154.38 346.57,-140.39 325.87,-131.52"/>
<polygon fill="midnightblue" stroke="midnightblue" points="401.46,-167.72 412.03,-168.44 404.22,-161.29 401.46,-167.72"/>
</g>
<!-- Node6 -->
<g id="node6" class="node">
<title>Node6</title>
<g id="a_node6"><a xlink:href="arch_2power64-linux_2odp_2api_2abi_2rwlock__recursive_8h_source.html" target="_top" xlink:title=" ">
<polygon fill="white" stroke="black" points="378,-112.5 378,-131.5 486,-131.5 486,-112.5 378,-112.5"/>
<text text-anchor="middle" x="432" y="-119.5" font-family="Helvetica,sans-Serif" font-size="10.00">rwlock_recursive.h</text>
</a>
</g>
</g>
<!-- Node2&#45;&gt;Node6 -->
<g id="edge5" class="edge">
<title>Node2&#45;&gt;Node6</title>
<path fill="none" stroke="midnightblue" d="M432,-157.8C432,-148.91 432,-138.78 432,-131.75"/>
<polygon fill="midnightblue" stroke="midnightblue" points="428.5,-158.08 432,-168.08 435.5,-158.08 428.5,-158.08"/>
</g>
<!-- Node7 -->
<g id="node7" class="node">
<title>Node7</title>
<g id="a_node7"><a xlink:href="arch_2x86__32-linux_2odp_2api_2abi_2rwlock__recursive_8h_source.html" target="_top" xlink:title=" ">
<polygon fill="white" stroke="black" points="504,-112.5 504,-131.5 612,-131.5 612,-112.5 504,-112.5"/>
<text text-anchor="middle" x="558" y="-119.5" font-family="Helvetica,sans-Serif" font-size="10.00">rwlock_recursive.h</text>
</a>
</g>
</g>
<!-- Node2&#45;&gt;Node7 -->
<g id="edge6" class="edge">
<title>Node2&#45;&gt;Node7</title>
<path fill="none" stroke="midnightblue" d="M461.16,-164.5C484.78,-154.38 517.43,-140.39 538.13,-131.52"/>
<polygon fill="midnightblue" stroke="midnightblue" points="459.78,-161.29 451.97,-168.44 462.54,-167.72 459.78,-161.29"/>
</g>
<!-- Node8 -->
<g id="node8" class="node">
<title>Node8</title>
<g id="a_node8"><a xlink:href="arch_2x86__64-linux_2odp_2api_2abi_2rwlock__recursive_8h_source.html" target="_top" xlink:title=" ">
<polygon fill="white" stroke="black" points="630,-112.5 630,-131.5 738,-131.5 738,-112.5 630,-112.5"/>
<text text-anchor="middle" x="684" y="-119.5" font-family="Helvetica,sans-Serif" font-size="10.00">rwlock_recursive.h</text>
</a>
</g>
</g>
<!-- Node2&#45;&gt;Node8 -->
<g id="edge7" class="edge">
<title>Node2&#45;&gt;Node8</title>
<path fill="none" stroke="midnightblue" d="M481.72,-166.35C529.34,-156.14 600.28,-140.94 644.26,-131.52"/>
<polygon fill="midnightblue" stroke="midnightblue" points="480.97,-162.93 471.93,-168.44 482.44,-169.77 480.97,-162.93"/>
</g>
<!-- Node9 -->
<g id="node9" class="node">
<title>Node9</title>
<g id="a_node9"><a xlink:href="api_2rwlock__recursive_8h.html" target="_top" xlink:title=" ">
<polygon fill="white" stroke="black" points="630,-56.5 630,-75.5 738,-75.5 738,-56.5 630,-56.5"/>
<text text-anchor="middle" x="684" y="-63.5" font-family="Helvetica,sans-Serif" font-size="10.00">rwlock_recursive.h</text>
</a>
</g>
</g>
<!-- Node8&#45;&gt;Node9 -->
<g id="edge8" class="edge">
<title>Node8&#45;&gt;Node9</title>
<path fill="none" stroke="midnightblue" d="M684,-101.8C684,-92.91 684,-82.78 684,-75.75"/>
<polygon fill="midnightblue" stroke="midnightblue" points="680.5,-102.08 684,-112.08 687.5,-102.08 680.5,-102.08"/>
</g>
<!-- Node9&#45;&gt;Node10 -->
<g id="edge9" class="edge">
<title>Node9&#45;&gt;Node10</title>
<path fill="none" stroke="midnightblue" d="M697.02,-47.86C704.12,-38.5 712.6,-27.33 718.36,-19.75"/>
<polygon fill="midnightblue" stroke="midnightblue" points="694.03,-46 690.77,-56.08 699.61,-50.24 694.03,-46"/>
</g>
</g>
</svg>
