<?xml version="1.0" encoding="UTF-8" standalone="no"?>
<!DOCTYPE svg PUBLIC "-//W3C//DTD SVG 1.1//EN"
 "http://www.w3.org/Graphics/SVG/1.1/DTD/svg11.dtd">
<!-- Generated by graphviz version 2.43.0 (0)
 -->
<!-- Title: thread.h Pages: 1 -->
<svg width="846pt" height="364pt"
 viewBox="0.00 0.00 845.50 364.00" xmlns="http://www.w3.org/2000/svg" xmlns:xlink="http://www.w3.org/1999/xlink">
<g id="graph0" class="graph" transform="scale(1 1) rotate(0) translate(4 360)">
<title>thread.h</title>
<polygon fill="white" stroke="transparent" points="-4,4 -4,-360 841.5,-360 841.5,4 -4,4"/>
<!-- Node1 -->
<g id="node1" class="node">
<title>Node1</title>
<g id="a_node1"><a xlink:title=" ">
<polygon fill="#bfbfbf" stroke="black" points="549.5,-336.5 549.5,-355.5 606.5,-355.5 606.5,-336.5 549.5,-336.5"/>
<text text-anchor="middle" x="578" y="-343.5" font-family="Helvetica,sans-Serif" font-size="10.00">thread.h</text>
</a>
</g>
</g>
<!-- Node2 -->
<g id="node2" class="node">
<title>Node2</title>
<g id="a_node2"><a xlink:href="arch_2arm32-linux_2odp_2api_2abi_2thread_8h_source.html" target="_top" xlink:title=" ">
<polygon fill="white" stroke="black" points="362.5,-280.5 362.5,-299.5 419.5,-299.5 419.5,-280.5 362.5,-280.5"/>
<text text-anchor="middle" x="391" y="-287.5" font-family="Helvetica,sans-Serif" font-size="10.00">thread.h</text>
</a>
</g>
</g>
<!-- Node1&#45;&gt;Node2 -->
<g id="edge1" class="edge">
<title>Node1&#45;&gt;Node2</title>
<path fill="none" stroke="midnightblue" d="M539.14,-333.78C503.49,-323.48 451.5,-308.47 419.53,-299.24"/>
<polygon fill="midnightblue" stroke="midnightblue" points="538.61,-337.27 549.19,-336.68 540.55,-330.54 538.61,-337.27"/>
</g>
<!-- Node3 -->
<g id="node3" class="node">
<title>Node3</title>
<g id="a_node3"><a xlink:href="arch_2arm64-linux_2odp_2api_2abi_2thread_8h_source.html" target="_top" xlink:title=" ">
<polygon fill="white" stroke="black" points="437.5,-280.5 437.5,-299.5 494.5,-299.5 494.5,-280.5 437.5,-280.5"/>
<text text-anchor="middle" x="466" y="-287.5" font-family="Helvetica,sans-Serif" font-size="10.00">thread.h</text>
</a>
</g>
</g>
<!-- Node1&#45;&gt;Node3 -->
<g id="edge2" class="edge">
<title>Node1&#45;&gt;Node3</title>
<path fill="none" stroke="midnightblue" d="M550.75,-331.86C529.98,-321.85 501.98,-308.35 483.95,-299.65"/>
<polygon fill="midnightblue" stroke="midnightblue" points="549.48,-335.13 560.01,-336.32 552.52,-328.83 549.48,-335.13"/>
</g>
<!-- Node4 -->
<g id="node4" class="node">
<title>Node4</title>
<g id="a_node4"><a xlink:href="arch_2default-linux_2odp_2api_2abi_2thread_8h_source.html" target="_top" xlink:title=" ">
<polygon fill="white" stroke="black" points="512.5,-280.5 512.5,-299.5 569.5,-299.5 569.5,-280.5 512.5,-280.5"/>
<text text-anchor="middle" x="541" y="-287.5" font-family="Helvetica,sans-Serif" font-size="10.00">thread.h</text>
</a>
</g>
</g>
<!-- Node1&#45;&gt;Node4 -->
<g id="edge3" class="edge">
<title>Node1&#45;&gt;Node4</title>
<path fill="none" stroke="midnightblue" d="M566.05,-327.57C559.69,-318.27 552.13,-307.25 547,-299.75"/>
<polygon fill="midnightblue" stroke="midnightblue" points="563.35,-329.81 571.89,-336.08 569.13,-325.86 563.35,-329.81"/>
</g>
<!-- Node5 -->
<g id="node5" class="node">
<title>Node5</title>
<g id="a_node5"><a xlink:href="arch_2power64-linux_2odp_2api_2abi_2thread_8h_source.html" target="_top" xlink:title=" ">
<polygon fill="white" stroke="black" points="587.5,-280.5 587.5,-299.5 644.5,-299.5 644.5,-280.5 587.5,-280.5"/>
<text text-anchor="middle" x="616" y="-287.5" font-family="Helvetica,sans-Serif" font-size="10.00">thread.h</text>
</a>
</g>
</g>
<!-- Node1&#45;&gt;Node5 -->
<g id="edge4" class="edge">
<title>Node1&#45;&gt;Node5</title>
<path fill="none" stroke="midnightblue" d="M590.06,-327.86C596.64,-318.5 604.51,-307.33 609.84,-299.75"/>
<polygon fill="midnightblue" stroke="midnightblue" points="587.17,-325.89 584.27,-336.08 592.89,-329.92 587.17,-325.89"/>
</g>
<!-- Node6 -->
<g id="node6" class="node">
<title>Node6</title>
<g id="a_node6"><a xlink:href="arch_2x86__32-linux_2odp_2api_2abi_2thread_8h_source.html" target="_top" xlink:title=" ">
<polygon fill="white" stroke="black" points="662.5,-280.5 662.5,-299.5 719.5,-299.5 719.5,-280.5 662.5,-280.5"/>
<text text-anchor="middle" x="691" y="-287.5" font-family="Helvetica,sans-Serif" font-size="10.00">thread.h</text>
</a>
</g>
</g>
<!-- Node1&#45;&gt;Node6 -->
<g id="edge5" class="edge">
<title>Node1&#45;&gt;Node6</title>
<path fill="none" stroke="midnightblue" d="M605,-332.1C626.11,-322.01 654.86,-308.27 673.18,-299.52"/>
<polygon fill="midnightblue" stroke="midnightblue" points="603.42,-328.97 595.91,-336.44 606.44,-335.29 603.42,-328.97"/>
</g>
<!-- Node7 -->
<g id="node7" class="node">
<title>Node7</title>
<g id="a_node7"><a xlink:href="arch_2x86__64-linux_2odp_2api_2abi_2thread_8h_source.html" target="_top" xlink:title=" ">
<polygon fill="white" stroke="black" points="737.5,-280.5 737.5,-299.5 794.5,-299.5 794.5,-280.5 737.5,-280.5"/>
<text text-anchor="middle" x="766" y="-287.5" font-family="Helvetica,sans-Serif" font-size="10.00">thread.h</text>
</a>
</g>
</g>
<!-- Node1&#45;&gt;Node7 -->
<g id="edge6" class="edge">
<title>Node1&#45;&gt;Node7</title>
<path fill="none" stroke="midnightblue" d="M616.2,-334.03C652.13,-323.71 705.11,-308.49 737.49,-299.19"/>
<polygon fill="midnightblue" stroke="midnightblue" points="615.2,-330.67 606.55,-336.8 617.13,-337.4 615.2,-330.67"/>
</g>
<!-- Node8 -->
<g id="node8" class="node">
<title>Node8</title>
<g id="a_node8"><a xlink:href="api_2thread_8h.html" target="_top" xlink:title=" ">
<polygon fill="white" stroke="black" points="737.5,-224.5 737.5,-243.5 794.5,-243.5 794.5,-224.5 737.5,-224.5"/>
<text text-anchor="middle" x="766" y="-231.5" font-family="Helvetica,sans-Serif" font-size="10.00">thread.h</text>
</a>
</g>
</g>
<!-- Node7&#45;&gt;Node8 -->
<g id="edge7" class="edge">
<title>Node7&#45;&gt;Node8</title>
<path fill="none" stroke="midnightblue" d="M766,-269.8C766,-260.91 766,-250.78 766,-243.75"/>
<polygon fill="midnightblue" stroke="midnightblue" points="762.5,-270.08 766,-280.08 769.5,-270.08 762.5,-270.08"/>
</g>
<!-- Node9 -->
<g id="node9" class="node">
<title>Node9</title>
<g id="a_node9"><a xlink:href="api_2abi-default_2rwlock__recursive_8h.html" target="_top" xlink:title=" ">
<polygon fill="white" stroke="black" points="378,-168.5 378,-187.5 486,-187.5 486,-168.5 378,-168.5"/>
<text text-anchor="middle" x="432" y="-175.5" font-family="Helvetica,sans-Serif" font-size="10.00">rwlock_recursive.h</text>
</a>
</g>
</g>
<!-- Node8&#45;&gt;Node9 -->
<g id="edge8" class="edge">
<title>Node8&#45;&gt;Node9</title>
<path fill="none" stroke="midnightblue" d="M727.05,-226.7C667.07,-217.01 552,-198.4 484.65,-187.51"/>
<polygon fill="midnightblue" stroke="midnightblue" points="726.8,-230.21 737.23,-228.35 727.92,-223.3 726.8,-230.21"/>
</g>
<!-- Node17 -->
<g id="node17" class="node">
<title>Node17</title>
<g id="a_node17"><a xlink:href="odp__api_8h.html" target="_top" xlink:title=" ">
<polygon fill="white" stroke="black" points="734,-0.5 734,-19.5 798,-19.5 798,-0.5 734,-0.5"/>
<text text-anchor="middle" x="766" y="-7.5" font-family="Helvetica,sans-Serif" font-size="10.00">odp_api.h</text>
</a>
</g>
</g>
<!-- Node8&#45;&gt;Node17 -->
<g id="edge19" class="edge">
<title>Node8&#45;&gt;Node17</title>
<path fill="none" stroke="midnightblue" d="M766,-214.3C766,-168.64 766,-52.85 766,-19.88"/>
<polygon fill="midnightblue" stroke="midnightblue" points="762.5,-214.3 766,-224.3 769.5,-214.3 762.5,-214.3"/>
</g>
<!-- Node18 -->
<g id="node18" class="node">
<title>Node18</title>
<g id="a_node18"><a xlink:href="api_2cpu_8h.html" target="_top" xlink:title=" ">
<polygon fill="white" stroke="black" points="794.5,-56.5 794.5,-75.5 837.5,-75.5 837.5,-56.5 794.5,-56.5"/>
<text text-anchor="middle" x="816" y="-63.5" font-family="Helvetica,sans-Serif" font-size="10.00">cpu.h</text>
</a>
</g>
</g>
<!-- Node8&#45;&gt;Node18 -->
<g id="edge17" class="edge">
<title>Node8&#45;&gt;Node18</title>
<path fill="none" stroke="midnightblue" d="M771.73,-214.76C774.28,-206.59 777.32,-196.82 780,-188 792.82,-145.85 807.7,-95.3 813.5,-75.52"/>
<polygon fill="midnightblue" stroke="midnightblue" points="768.37,-213.79 768.72,-224.38 775.05,-215.89 768.37,-213.79"/>
</g>
<!-- Node10 -->
<g id="node10" class="node">
<title>Node10</title>
<g id="a_node10"><a xlink:href="arch_2arm32-linux_2odp_2api_2abi_2rwlock__recursive_8h_source.html" target="_top" xlink:title=" ">
<polygon fill="white" stroke="black" points="0,-112.5 0,-131.5 108,-131.5 108,-112.5 0,-112.5"/>
<text text-anchor="middle" x="54" y="-119.5" font-family="Helvetica,sans-Serif" font-size="10.00">rwlock_recursive.h</text>
</a>
</g>
</g>
<!-- Node9&#45;&gt;Node10 -->
<g id="edge9" class="edge">
<title>Node9&#45;&gt;Node10</title>
<path fill="none" stroke="midnightblue" d="M367.84,-167.83C294.76,-157.39 176.64,-140.52 108.06,-130.72"/>
<polygon fill="midnightblue" stroke="midnightblue" points="367.45,-171.31 377.84,-169.26 368.44,-164.38 367.45,-171.31"/>
</g>
<!-- Node11 -->
<g id="node11" class="node">
<title>Node11</title>
<g id="a_node11"><a xlink:href="arch_2arm64-linux_2odp_2api_2abi_2rwlock__recursive_8h_source.html" target="_top" xlink:title=" ">
<polygon fill="white" stroke="black" points="126,-112.5 126,-131.5 234,-131.5 234,-112.5 126,-112.5"/>
<text text-anchor="middle" x="180" y="-119.5" font-family="Helvetica,sans-Serif" font-size="10.00">rwlock_recursive.h</text>
</a>
</g>
</g>
<!-- Node9&#45;&gt;Node11 -->
<g id="edge10" class="edge">
<title>Node9&#45;&gt;Node11</title>
<path fill="none" stroke="midnightblue" d="M382.28,-166.35C334.66,-156.14 263.72,-140.94 219.74,-131.52"/>
<polygon fill="midnightblue" stroke="midnightblue" points="381.56,-169.77 392.07,-168.44 383.03,-162.93 381.56,-169.77"/>
</g>
<!-- Node12 -->
<g id="node12" class="node">
<title>Node12</title>
<g id="a_node12"><a xlink:href="arch_2default-linux_2odp_2api_2abi_2rwlock__recursive_8h_source.html" target="_top" xlink:title=" ">
<polygon fill="white" stroke="black" points="252,-112.5 252,-131.5 360,-131.5 360,-112.5 252,-112.5"/>
<text text-anchor="middle" x="306" y="-119.5" font-family="Helvetica,sans-Serif" font-size="10.00">rwlock_recursive.h</text>
</a>
</g>
</g>
<!-- Node9&#45;&gt;Node12 -->
<g id="edge11" class="edge">
<title>Node9&#45;&gt;Node12</title>
<path fill="none" stroke="midnightblue" d="M402.84,-164.5C379.22,-154.38 346.57,-140.39 325.87,-131.52"/>
<polygon fill="midnightblue" stroke="midnightblue" points="401.46,-167.72 412.03,-168.44 404.22,-161.29 401.46,-167.72"/>
</g>
<!-- Node13 -->
<g id="node13" class="node">
<title>Node13</title>
<g id="a_node13"><a xlink:href="arch_2power64-linux_2odp_2api_2abi_2rwlock__recursive_8h_source.html" target="_top" xlink:title=" ">
<polygon fill="white" stroke="black" points="378,-112.5 378,-131.5 486,-131.5 486,-112.5 378,-112.5"/>
<text text-anchor="middle" x="432" y="-119.5" font-family="Helvetica,sans-Serif" font-size="10.00">rwlock_recursive.h</text>
</a>
</g>
</g>
<!-- Node9&#45;&gt;Node13 -->
<g id="edge12" class="edge">
<title>Node9&#45;&gt;Node13</title>
<path fill="none" stroke="midnightblue" d="M432,-157.8C432,-148.91 432,-138.78 432,-131.75"/>
<polygon fill="midnightblue" stroke="midnightblue" points="428.5,-158.08 432,-168.08 435.5,-158.08 428.5,-158.08"/>
</g>
<!-- Node14 -->
<g id="node14" class="node">
<title>Node14</title>
<g id="a_node14"><a xlink:href="arch_2x86__32-linux_2odp_2api_2abi_2rwlock__recursive_8h_source.html" target="_top" xlink:title=" ">
<polygon fill="white" stroke="black" points="504,-112.5 504,-131.5 612,-131.5 612,-112.5 504,-112.5"/>
<text text-anchor="middle" x="558" y="-119.5" font-family="Helvetica,sans-Serif" font-size="10.00">rwlock_recursive.h</text>
</a>
</g>
</g>
<!-- Node9&#45;&gt;Node14 -->
<g id="edge13" class="edge">
<title>Node9&#45;&gt;Node14</title>
<path fill="none" stroke="midnightblue" d="M461.16,-164.5C484.78,-154.38 517.43,-140.39 538.13,-131.52"/>
<polygon fill="midnightblue" stroke="midnightblue" points="459.78,-161.29 451.97,-168.44 462.54,-167.72 459.78,-161.29"/>
</g>
<!-- Node15 -->
<g id="node15" class="node">
<title>Node15</title>
<g id="a_node15"><a xlink:href="arch_2x86__64-linux_2odp_2api_2abi_2rwlock__recursive_8h_source.html" target="_top" xlink:title=" ">
<polygon fill="white" stroke="black" points="630,-112.5 630,-131.5 738,-131.5 738,-112.5 630,-112.5"/>
<text text-anchor="middle" x="684" y="-119.5" font-family="Helvetica,sans-Serif" font-size="10.00">rwlock_recursive.h</text>
</a>
</g>
</g>
<!-- Node9&#45;&gt;Node15 -->
<g id="edge14" class="edge">
<title>Node9&#45;&gt;Node15</title>
<path fill="none" stroke="midnightblue" d="M481.72,-166.35C529.34,-156.14 600.28,-140.94 644.26,-131.52"/>
<polygon fill="midnightblue" stroke="midnightblue" points="480.97,-162.93 471.93,-168.44 482.44,-169.77 480.97,-162.93"/>
</g>
<!-- Node16 -->
<g id="node16" class="node">
<title>Node16</title>
<g id="a_node16"><a xlink:href="api_2rwlock__recursive_8h.html" target="_top" xlink:title=" ">
<polygon fill="white" stroke="black" points="630,-56.5 630,-75.5 738,-75.5 738,-56.5 630,-56.5"/>
<text text-anchor="middle" x="684" y="-63.5" font-family="Helvetica,sans-Serif" font-size="10.00">rwlock_recursive.h</text>
</a>
</g>
</g>
<!-- Node15&#45;&gt;Node16 -->
<g id="edge15" class="edge">
<title>Node15&#45;&gt;Node16</title>
<path fill="none" stroke="midnightblue" d="M684,-101.8C684,-92.91 684,-82.78 684,-75.75"/>
<polygon fill="midnightblue" stroke="midnightblue" points="680.5,-102.08 684,-112.08 687.5,-102.08 680.5,-102.08"/>
</g>
<!-- Node16&#45;&gt;Node17 -->
<g id="edge16" class="edge">
<title>Node16&#45;&gt;Node17</title>
<path fill="none" stroke="midnightblue" d="M705.83,-50.62C720.81,-40.76 740.2,-27.99 752.86,-19.65"/>
<polygon fill="midnightblue" stroke="midnightblue" points="703.6,-47.9 697.17,-56.32 707.45,-53.75 703.6,-47.9"/>
</g>
<!-- Node18&#45;&gt;Node17 -->
<g id="edge18" class="edge">
<title>Node18&#45;&gt;Node17</title>
<path fill="none" stroke="midnightblue" d="M800.92,-48.72C792.11,-39.2 781.33,-27.56 774.1,-19.75"/>
<polygon fill="midnightblue" stroke="midnightblue" points="798.38,-51.12 807.74,-56.08 803.52,-46.37 798.38,-51.12"/>
</g>
</g>
</svg>
