<?xml version="1.0" encoding="UTF-8" standalone="no"?>
<!DOCTYPE svg PUBLIC "-//W3C//DTD SVG 1.1//EN"
 "http://www.w3.org/Graphics/SVG/1.1/DTD/svg11.dtd">
<!-- Generated by graphviz version 2.43.0 (0)
 -->
<!-- Title: packet_io_types.h Pages: 1 -->
<svg width="346pt" height="364pt"
 viewBox="0.00 0.00 346.00 364.00" xmlns="http://www.w3.org/2000/svg" xmlns:xlink="http://www.w3.org/1999/xlink">
<g id="graph0" class="graph" transform="scale(1 1) rotate(0) translate(4 360)">
<title>packet_io_types.h</title>
<polygon fill="white" stroke="transparent" points="-4,4 -4,-360 342,-360 342,4 -4,4"/>
<!-- Node1 -->
<g id="node1" class="node">
<title>Node1</title>
<g id="a_node1"><a xlink:title=" ">
<polygon fill="#bfbfbf" stroke="black" points="98,-336.5 98,-355.5 202,-355.5 202,-336.5 98,-336.5"/>
<text text-anchor="middle" x="150" y="-343.5" font-family="Helvetica,sans-Serif" font-size="10.00">packet_io_types.h</text>
</a>
</g>
</g>
<!-- Node2 -->
<g id="node2" class="node">
<title>Node2</title>
<g id="a_node2"><a xlink:href="api_2packet__io__types_8h.html" target="_top" xlink:title=" ">
<polygon fill="white" stroke="black" points="98,-280.5 98,-299.5 202,-299.5 202,-280.5 98,-280.5"/>
<text text-anchor="middle" x="150" y="-287.5" font-family="Helvetica,sans-Serif" font-size="10.00">packet_io_types.h</text>
</a>
</g>
</g>
<!-- Node1&#45;&gt;Node2 -->
<g id="edge1" class="edge">
<title>Node1&#45;&gt;Node2</title>
<path fill="none" stroke="midnightblue" d="M150,-325.8C150,-316.91 150,-306.78 150,-299.75"/>
<polygon fill="midnightblue" stroke="midnightblue" points="146.5,-326.08 150,-336.08 153.5,-326.08 146.5,-326.08"/>
</g>
<!-- Node3 -->
<g id="node3" class="node">
<title>Node3</title>
<g id="a_node3"><a xlink:href="api_2spec_2classification_8h.html" target="_top" xlink:title=" ">
<polygon fill="white" stroke="black" points="32.5,-224.5 32.5,-243.5 121.5,-243.5 121.5,-224.5 32.5,-224.5"/>
<text text-anchor="middle" x="77" y="-231.5" font-family="Helvetica,sans-Serif" font-size="10.00">classification.h</text>
</a>
</g>
</g>
<!-- Node2&#45;&gt;Node3 -->
<g id="edge2" class="edge">
<title>Node2&#45;&gt;Node3</title>
<path fill="none" stroke="midnightblue" d="M129.86,-274.1C116.72,-264.38 100.02,-252.03 88.94,-243.83"/>
<polygon fill="midnightblue" stroke="midnightblue" points="128.15,-277.19 138.27,-280.32 132.31,-271.56 128.15,-277.19"/>
</g>
<!-- Node5 -->
<g id="node5" class="node">
<title>Node5</title>
<g id="a_node5"><a xlink:href="api_2spec_2ipsec_8h.html" target="_top" xlink:title=" ">
<polygon fill="white" stroke="black" points="128.5,-112.5 128.5,-131.5 179.5,-131.5 179.5,-112.5 128.5,-112.5"/>
<text text-anchor="middle" x="154" y="-119.5" font-family="Helvetica,sans-Serif" font-size="10.00">ipsec.h</text>
</a>
</g>
</g>
<!-- Node2&#45;&gt;Node5 -->
<g id="edge11" class="edge">
<title>Node2&#45;&gt;Node5</title>
<path fill="none" stroke="midnightblue" d="M150.46,-269.93C151.33,-233.92 153.18,-157.23 153.79,-131.57"/>
<polygon fill="midnightblue" stroke="midnightblue" points="146.96,-269.99 150.22,-280.08 153.96,-270.16 146.96,-269.99"/>
</g>
<!-- Node8 -->
<g id="node8" class="node">
<title>Node8</title>
<g id="a_node8"><a xlink:href="api_2spec_2packet__io_8h.html" target="_top" xlink:title=" ">
<polygon fill="white" stroke="black" points="0,-112.5 0,-131.5 72,-131.5 72,-112.5 0,-112.5"/>
<text text-anchor="middle" x="36" y="-119.5" font-family="Helvetica,sans-Serif" font-size="10.00">packet_io.h</text>
</a>
</g>
</g>
<!-- Node2&#45;&gt;Node8 -->
<g id="edge15" class="edge">
<title>Node2&#45;&gt;Node8</title>
<path fill="none" stroke="midnightblue" d="M87.88,-282.34C63.53,-276.34 37.89,-265.07 23,-244 -1.87,-208.8 21.15,-152.86 31.53,-131.59"/>
<polygon fill="midnightblue" stroke="midnightblue" points="87.33,-285.8 97.85,-284.53 88.83,-278.96 87.33,-285.8"/>
</g>
<!-- Node10 -->
<g id="node10" class="node">
<title>Node10</title>
<g id="a_node10"><a xlink:href="api_2spec_2packet_8h.html" target="_top" xlink:title=" ">
<polygon fill="white" stroke="black" points="280,-224.5 280,-243.5 338,-243.5 338,-224.5 280,-224.5"/>
<text text-anchor="middle" x="309" y="-231.5" font-family="Helvetica,sans-Serif" font-size="10.00">packet.h</text>
</a>
</g>
</g>
<!-- Node2&#45;&gt;Node10 -->
<g id="edge12" class="edge">
<title>Node2&#45;&gt;Node10</title>
<path fill="none" stroke="midnightblue" d="M184.83,-277.17C214.77,-267 257.22,-252.59 283.92,-243.52"/>
<polygon fill="midnightblue" stroke="midnightblue" points="183.54,-273.91 175.19,-280.44 185.79,-280.54 183.54,-273.91"/>
</g>
<!-- Node12 -->
<g id="node12" class="node">
<title>Node12</title>
<g id="a_node12"><a xlink:href="api_2spec_2traffic__mngr_8h.html" target="_top" xlink:title=" ">
<polygon fill="white" stroke="black" points="178,-224.5 178,-243.5 262,-243.5 262,-224.5 178,-224.5"/>
<text text-anchor="middle" x="220" y="-231.5" font-family="Helvetica,sans-Serif" font-size="10.00">traffic_mngr.h</text>
</a>
</g>
</g>
<!-- Node2&#45;&gt;Node12 -->
<g id="edge16" class="edge">
<title>Node2&#45;&gt;Node12</title>
<path fill="none" stroke="midnightblue" d="M169.31,-274.1C181.91,-264.38 197.93,-252.03 208.55,-243.83"/>
<polygon fill="midnightblue" stroke="midnightblue" points="167.03,-271.44 161.25,-280.32 171.3,-276.99 167.03,-271.44"/>
</g>
<!-- Node4 -->
<g id="node4" class="node">
<title>Node4</title>
<g id="a_node4"><a xlink:href="api_2classification_8h.html" target="_top" xlink:title=" ">
<polygon fill="white" stroke="black" points="32.5,-168.5 32.5,-187.5 121.5,-187.5 121.5,-168.5 32.5,-168.5"/>
<text text-anchor="middle" x="77" y="-175.5" font-family="Helvetica,sans-Serif" font-size="10.00">classification.h</text>
</a>
</g>
</g>
<!-- Node3&#45;&gt;Node4 -->
<g id="edge3" class="edge">
<title>Node3&#45;&gt;Node4</title>
<path fill="none" stroke="midnightblue" d="M77,-213.8C77,-204.91 77,-194.78 77,-187.75"/>
<polygon fill="midnightblue" stroke="midnightblue" points="73.5,-214.08 77,-224.08 80.5,-214.08 73.5,-214.08"/>
</g>
<!-- Node4&#45;&gt;Node5 -->
<g id="edge4" class="edge">
<title>Node4&#45;&gt;Node5</title>
<path fill="none" stroke="midnightblue" d="M97.9,-162.34C111.91,-152.52 129.88,-139.91 141.66,-131.65"/>
<polygon fill="midnightblue" stroke="midnightblue" points="95.55,-159.72 89.37,-168.32 99.57,-165.45 95.55,-159.72"/>
</g>
<!-- Node7 -->
<g id="node7" class="node">
<title>Node7</title>
<g id="a_node7"><a xlink:href="odp__api_8h.html" target="_top" xlink:title=" ">
<polygon fill="white" stroke="black" points="122,-0.5 122,-19.5 186,-19.5 186,-0.5 122,-0.5"/>
<text text-anchor="middle" x="154" y="-7.5" font-family="Helvetica,sans-Serif" font-size="10.00">odp_api.h</text>
</a>
</g>
</g>
<!-- Node4&#45;&gt;Node7 -->
<g id="edge10" class="edge">
<title>Node4&#45;&gt;Node7</title>
<path fill="none" stroke="midnightblue" d="M81.61,-158.71C88.17,-134.36 101.47,-90.38 120,-56 127.34,-42.38 138.57,-28.43 146.09,-19.75"/>
<polygon fill="midnightblue" stroke="midnightblue" points="78.22,-157.85 79.08,-168.41 84.99,-159.62 78.22,-157.85"/>
</g>
<!-- Node4&#45;&gt;Node8 -->
<g id="edge7" class="edge">
<title>Node4&#45;&gt;Node8</title>
<path fill="none" stroke="midnightblue" d="M63.98,-159.86C56.88,-150.5 48.4,-139.33 42.64,-131.75"/>
<polygon fill="midnightblue" stroke="midnightblue" points="61.39,-162.24 70.23,-168.08 66.97,-158 61.39,-162.24"/>
</g>
<!-- Node6 -->
<g id="node6" class="node">
<title>Node6</title>
<g id="a_node6"><a xlink:href="api_2ipsec_8h.html" target="_top" xlink:title=" ">
<polygon fill="white" stroke="black" points="128.5,-56.5 128.5,-75.5 179.5,-75.5 179.5,-56.5 128.5,-56.5"/>
<text text-anchor="middle" x="154" y="-63.5" font-family="Helvetica,sans-Serif" font-size="10.00">ipsec.h</text>
</a>
</g>
</g>
<!-- Node5&#45;&gt;Node6 -->
<g id="edge5" class="edge">
<title>Node5&#45;&gt;Node6</title>
<path fill="none" stroke="midnightblue" d="M154,-101.8C154,-92.91 154,-82.78 154,-75.75"/>
<polygon fill="midnightblue" stroke="midnightblue" points="150.5,-102.08 154,-112.08 157.5,-102.08 150.5,-102.08"/>
</g>
<!-- Node6&#45;&gt;Node7 -->
<g id="edge6" class="edge">
<title>Node6&#45;&gt;Node7</title>
<path fill="none" stroke="midnightblue" d="M154,-45.8C154,-36.91 154,-26.78 154,-19.75"/>
<polygon fill="midnightblue" stroke="midnightblue" points="150.5,-46.08 154,-56.08 157.5,-46.08 150.5,-46.08"/>
</g>
<!-- Node9 -->
<g id="node9" class="node">
<title>Node9</title>
<g id="a_node9"><a xlink:href="api_2packet__io_8h.html" target="_top" xlink:title=" ">
<polygon fill="white" stroke="black" points="0,-56.5 0,-75.5 72,-75.5 72,-56.5 0,-56.5"/>
<text text-anchor="middle" x="36" y="-63.5" font-family="Helvetica,sans-Serif" font-size="10.00">packet_io.h</text>
</a>
</g>
</g>
<!-- Node8&#45;&gt;Node9 -->
<g id="edge8" class="edge">
<title>Node8&#45;&gt;Node9</title>
<path fill="none" stroke="midnightblue" d="M36,-101.8C36,-92.91 36,-82.78 36,-75.75"/>
<polygon fill="midnightblue" stroke="midnightblue" points="32.5,-102.08 36,-112.08 39.5,-102.08 32.5,-102.08"/>
</g>
<!-- Node9&#45;&gt;Node7 -->
<g id="edge9" class="edge">
<title>Node9&#45;&gt;Node7</title>
<path fill="none" stroke="midnightblue" d="M63.9,-52.23C85.97,-42.13 116.18,-28.31 135.39,-19.52"/>
<polygon fill="midnightblue" stroke="midnightblue" points="62.33,-49.1 54.7,-56.44 65.25,-55.46 62.33,-49.1"/>
</g>
<!-- Node11 -->
<g id="node11" class="node">
<title>Node11</title>
<g id="a_node11"><a xlink:href="api_2packet_8h.html" target="_top" xlink:title=" ">
<polygon fill="white" stroke="black" points="259,-112.5 259,-131.5 317,-131.5 317,-112.5 259,-112.5"/>
<text text-anchor="middle" x="288" y="-119.5" font-family="Helvetica,sans-Serif" font-size="10.00">packet.h</text>
</a>
</g>
</g>
<!-- Node10&#45;&gt;Node11 -->
<g id="edge13" class="edge">
<title>Node10&#45;&gt;Node11</title>
<path fill="none" stroke="midnightblue" d="M305.44,-214.35C300.84,-190.25 293.02,-149.31 289.64,-131.59"/>
<polygon fill="midnightblue" stroke="midnightblue" points="302.04,-215.2 307.35,-224.37 308.91,-213.89 302.04,-215.2"/>
</g>
<!-- Node11&#45;&gt;Node7 -->
<g id="edge14" class="edge">
<title>Node11&#45;&gt;Node7</title>
<path fill="none" stroke="midnightblue" d="M275.26,-104.01C264.26,-90.07 247.44,-70.35 230,-56 211.76,-41 187.97,-27.76 171.9,-19.59"/>
<polygon fill="midnightblue" stroke="midnightblue" points="272.71,-106.45 281.59,-112.23 278.26,-102.17 272.71,-106.45"/>
</g>
<!-- Node13 -->
<g id="node13" class="node">
<title>Node13</title>
<g id="a_node13"><a xlink:href="api_2traffic__mngr_8h.html" target="_top" xlink:title=" ">
<polygon fill="white" stroke="black" points="178,-168.5 178,-187.5 262,-187.5 262,-168.5 178,-168.5"/>
<text text-anchor="middle" x="220" y="-175.5" font-family="Helvetica,sans-Serif" font-size="10.00">traffic_mngr.h</text>
</a>
</g>
</g>
<!-- Node12&#45;&gt;Node13 -->
<g id="edge17" class="edge">
<title>Node12&#45;&gt;Node13</title>
<path fill="none" stroke="midnightblue" d="M220,-213.8C220,-204.91 220,-194.78 220,-187.75"/>
<polygon fill="midnightblue" stroke="midnightblue" points="216.5,-214.08 220,-224.08 223.5,-214.08 216.5,-214.08"/>
</g>
<!-- Node13&#45;&gt;Node5 -->
<g id="edge18" class="edge">
<title>Node13&#45;&gt;Node5</title>
<path fill="none" stroke="midnightblue" d="M201.45,-161.82C189.62,-152.15 174.71,-139.95 164.8,-131.83"/>
<polygon fill="midnightblue" stroke="midnightblue" points="199.44,-164.7 209.4,-168.32 203.87,-159.28 199.44,-164.7"/>
</g>
<!-- Node13&#45;&gt;Node7 -->
<g id="edge19" class="edge">
<title>Node13&#45;&gt;Node7</title>
<path fill="none" stroke="midnightblue" d="M217.63,-158.3C214,-133.79 205.65,-89.95 189,-56 182.11,-41.96 170.4,-28.11 162.43,-19.56"/>
<polygon fill="midnightblue" stroke="midnightblue" points="214.19,-158.94 219.02,-168.37 221.12,-157.99 214.19,-158.94"/>
</g>
</g>
</svg>
