<?xml version="1.0" encoding="UTF-8" standalone="no"?>
<!DOCTYPE svg PUBLIC "-//W3C//DTD SVG 1.1//EN"
 "http://www.w3.org/Graphics/SVG/1.1/DTD/svg11.dtd">
<!-- Generated by graphviz version 2.43.0 (0)
 -->
<!-- Title: init.h Pages: 1 -->
<svg width="952pt" height="319pt"
 viewBox="0.00 0.00 951.50 319.00" xmlns="http://www.w3.org/2000/svg" xmlns:xlink="http://www.w3.org/1999/xlink">
<g id="graph0" class="graph" transform="scale(1 1) rotate(0) translate(4 315)">
<title>init.h</title>
<polygon fill="white" stroke="transparent" points="-4,4 -4,-315 947.5,-315 947.5,4 -4,4"/>
<!-- Node1 -->
<g id="node1" class="node">
<title>Node1</title>
<g id="a_node1"><a xlink:title=" ">
<polygon fill="#bfbfbf" stroke="black" points="660.5,-291.5 660.5,-310.5 701.5,-310.5 701.5,-291.5 660.5,-291.5"/>
<text text-anchor="middle" x="681" y="-298.5" font-family="Helvetica,sans-Serif" font-size="10.00">init.h</text>
</a>
</g>
</g>
<!-- Node2 -->
<g id="node2" class="node">
<title>Node2</title>
<g id="a_node2"><a xlink:href="visibility__begin_8h_source.html" target="_top" xlink:title=" ">
<polygon fill="white" stroke="black" points="188.5,-0.5 188.5,-19.5 309.5,-19.5 309.5,-0.5 188.5,-0.5"/>
<text text-anchor="middle" x="249" y="-7.5" font-family="Helvetica,sans-Serif" font-size="10.00">odp/visibility_begin.h</text>
</a>
</g>
</g>
<!-- Node1&#45;&gt;Node2 -->
<g id="edge1" class="edge">
<title>Node1&#45;&gt;Node2</title>
<path fill="none" stroke="midnightblue" d="M660.25,-298.57C546.12,-290.42 0,-247.82 0,-179 0,-179 0,-179 0,-121 0,-42.58 104.63,-19.6 178.24,-13.15"/>
<polygon fill="midnightblue" stroke="midnightblue" points="178.71,-16.62 188.41,-12.34 178.16,-9.64 178.71,-16.62"/>
</g>
<!-- Node3 -->
<g id="node3" class="node">
<title>Node3</title>
<g id="a_node3"><a xlink:href="api_2std__types_8h.html" target="_top" xlink:title=" ">
<polygon fill="white" stroke="black" points="392,-230 392,-249 504,-249 504,-230 392,-230"/>
<text text-anchor="middle" x="448" y="-237" font-family="Helvetica,sans-Serif" font-size="10.00">odp/api/std_types.h</text>
</a>
</g>
</g>
<!-- Node1&#45;&gt;Node3 -->
<g id="edge2" class="edge">
<title>Node1&#45;&gt;Node3</title>
<path fill="none" stroke="midnightblue" d="M660.32,-294.72C622.6,-285.09 541.89,-264.48 491.56,-251.62"/>
<polygon fill="midnightblue" stroke="midnightblue" points="492.17,-248.17 481.61,-249.08 490.44,-254.95 492.17,-248.17"/>
</g>
<!-- Node10 -->
<g id="node10" class="node">
<title>Node10</title>
<g id="a_node10"><a xlink:href="visibility__end_8h_source.html" target="_top" xlink:title=" ">
<polygon fill="white" stroke="black" points="623,-0.5 623,-19.5 735,-19.5 735,-0.5 623,-0.5"/>
<text text-anchor="middle" x="679" y="-7.5" font-family="Helvetica,sans-Serif" font-size="10.00">odp/visibility_end.h</text>
</a>
</g>
</g>
<!-- Node1&#45;&gt;Node10 -->
<g id="edge23" class="edge">
<title>Node1&#45;&gt;Node10</title>
<path fill="none" stroke="midnightblue" d="M701.55,-291.81C718.55,-284.24 742.49,-271.65 759,-255 786.33,-227.44 802,-217.81 802,-179 802,-179 802,-179 802,-121 802,-72.48 748.16,-40.01 711.73,-23.6"/>
<polygon fill="midnightblue" stroke="midnightblue" points="712.99,-20.33 702.42,-19.58 710.22,-26.76 712.99,-20.33"/>
</g>
<!-- Node11 -->
<g id="node11" class="node">
<title>Node11</title>
<g id="a_node11"><a xlink:href="hints_8h.html" target="_top" xlink:title=" ">
<polygon fill="white" stroke="black" points="660.5,-230 660.5,-249 749.5,-249 749.5,-230 660.5,-230"/>
<text text-anchor="middle" x="705" y="-237" font-family="Helvetica,sans-Serif" font-size="10.00">odp/api/hints.h</text>
</a>
</g>
</g>
<!-- Node1&#45;&gt;Node11 -->
<g id="edge13" class="edge">
<title>Node1&#45;&gt;Node11</title>
<path fill="none" stroke="midnightblue" d="M684.44,-291.48C687.9,-282.9 693.33,-269.43 697.75,-258.48"/>
<polygon fill="midnightblue" stroke="midnightblue" points="701.07,-259.59 701.57,-249.01 694.58,-256.97 701.07,-259.59"/>
</g>
<!-- Node13 -->
<g id="node13" class="node">
<title>Node13</title>
<g id="a_node13"><a xlink:href="thread__types_8h.html" target="_top" xlink:title=" ">
<polygon fill="white" stroke="black" points="830.5,-224.5 830.5,-254.5 943.5,-254.5 943.5,-224.5 830.5,-224.5"/>
<text text-anchor="start" x="838.5" y="-242.5" font-family="Helvetica,sans-Serif" font-size="10.00">odp/api/spec/thread</text>
<text text-anchor="middle" x="887" y="-231.5" font-family="Helvetica,sans-Serif" font-size="10.00">_types.h</text>
</a>
</g>
</g>
<!-- Node1&#45;&gt;Node13 -->
<g id="edge17" class="edge">
<title>Node1&#45;&gt;Node13</title>
<path fill="none" stroke="midnightblue" d="M701.51,-294.08C730.87,-285.6 786.04,-269.66 828.61,-257.36"/>
<polygon fill="midnightblue" stroke="midnightblue" points="829.68,-260.7 838.32,-254.56 827.74,-253.97 829.68,-260.7"/>
</g>
<!-- Node14 -->
<g id="node14" class="node">
<title>Node14</title>
<g id="a_node14"><a xlink:href="api_2cpumask_8h.html" target="_top" xlink:title=" ">
<polygon fill="white" stroke="black" points="485.5,-112.5 485.5,-131.5 594.5,-131.5 594.5,-112.5 485.5,-112.5"/>
<text text-anchor="middle" x="540" y="-119.5" font-family="Helvetica,sans-Serif" font-size="10.00">odp/api/cpumask.h</text>
</a>
</g>
</g>
<!-- Node1&#45;&gt;Node14 -->
<g id="edge18" class="edge">
<title>Node1&#45;&gt;Node14</title>
<path fill="none" stroke="midnightblue" d="M674.2,-291.46C652.2,-263.85 582.69,-176.58 553.31,-139.71"/>
<polygon fill="midnightblue" stroke="midnightblue" points="556.03,-137.51 547.06,-131.87 550.56,-141.87 556.03,-137.51"/>
</g>
<!-- Node4 -->
<g id="node4" class="node">
<title>Node4</title>
<g id="a_node4"><a xlink:title=" ">
<polygon fill="white" stroke="#bfbfbf" points="383,-168.5 383,-187.5 513,-187.5 513,-168.5 383,-168.5"/>
<text text-anchor="middle" x="448" y="-175.5" font-family="Helvetica,sans-Serif" font-size="10.00">odp/api/abi/std_types.h</text>
</a>
</g>
</g>
<!-- Node3&#45;&gt;Node4 -->
<g id="edge3" class="edge">
<title>Node3&#45;&gt;Node4</title>
<path fill="none" stroke="midnightblue" d="M448,-229.98C448,-221.58 448,-208.48 448,-197.66"/>
<polygon fill="midnightblue" stroke="midnightblue" points="451.5,-197.51 448,-187.51 444.5,-197.51 451.5,-197.51"/>
</g>
<!-- Node5 -->
<g id="node5" class="node">
<title>Node5</title>
<g id="a_node5"><a xlink:href="api_2spec_2std__types_8h.html" target="_top" xlink:title=" ">
<polygon fill="white" stroke="black" points="180.5,-168.5 180.5,-187.5 317.5,-187.5 317.5,-168.5 180.5,-168.5"/>
<text text-anchor="middle" x="249" y="-175.5" font-family="Helvetica,sans-Serif" font-size="10.00">odp/api/spec/std_types.h</text>
</a>
</g>
</g>
<!-- Node3&#45;&gt;Node5 -->
<g id="edge4" class="edge">
<title>Node3&#45;&gt;Node5</title>
<path fill="none" stroke="midnightblue" d="M419.49,-229.98C384.76,-219.59 325.96,-202.01 287.31,-190.45"/>
<polygon fill="midnightblue" stroke="midnightblue" points="288.04,-187.02 277.46,-187.51 286.04,-193.73 288.04,-187.02"/>
</g>
<!-- Node5&#45;&gt;Node2 -->
<g id="edge5" class="edge">
<title>Node5&#45;&gt;Node2</title>
<path fill="none" stroke="midnightblue" d="M206.92,-168.47C137.44,-152.5 10.74,-114.36 57,-56 72.14,-36.9 129.83,-25.13 178.05,-18.44"/>
<polygon fill="midnightblue" stroke="midnightblue" points="178.73,-21.88 188.18,-17.09 177.8,-14.94 178.73,-21.88"/>
</g>
<!-- Node6 -->
<g id="node6" class="node">
<title>Node6</title>
<g id="a_node6"><a xlink:title=" ">
<polygon fill="white" stroke="#bfbfbf" points="133.5,-112.5 133.5,-131.5 186.5,-131.5 186.5,-112.5 133.5,-112.5"/>
<text text-anchor="middle" x="160" y="-119.5" font-family="Helvetica,sans-Serif" font-size="10.00">stdint.h</text>
</a>
</g>
</g>
<!-- Node5&#45;&gt;Node6 -->
<g id="edge6" class="edge">
<title>Node5&#45;&gt;Node6</title>
<path fill="none" stroke="midnightblue" d="M234.7,-168.32C220.82,-159.9 199.51,-146.97 183.2,-137.07"/>
<polygon fill="midnightblue" stroke="midnightblue" points="184.63,-133.85 174.26,-131.65 181,-139.83 184.63,-133.85"/>
</g>
<!-- Node7 -->
<g id="node7" class="node">
<title>Node7</title>
<g id="a_node7"><a xlink:href="api_2align_8h.html" target="_top" xlink:title=" ">
<polygon fill="white" stroke="black" points="204.5,-112.5 204.5,-131.5 293.5,-131.5 293.5,-112.5 204.5,-112.5"/>
<text text-anchor="middle" x="249" y="-119.5" font-family="Helvetica,sans-Serif" font-size="10.00">odp/api/align.h</text>
</a>
</g>
</g>
<!-- Node5&#45;&gt;Node7 -->
<g id="edge7" class="edge">
<title>Node5&#45;&gt;Node7</title>
<path fill="none" stroke="midnightblue" d="M249,-168.08C249,-161.01 249,-150.86 249,-141.99"/>
<polygon fill="midnightblue" stroke="midnightblue" points="252.5,-141.75 249,-131.75 245.5,-141.75 252.5,-141.75"/>
</g>
<!-- Node5&#45;&gt;Node10 -->
<g id="edge12" class="edge">
<title>Node5&#45;&gt;Node10</title>
<path fill="none" stroke="midnightblue" d="M317.69,-170.37C405.21,-161.56 551.43,-145.54 604,-132 669.3,-115.18 707.13,-131.79 745,-76 758.87,-55.56 732.34,-36.25 708.89,-24.07"/>
<polygon fill="midnightblue" stroke="midnightblue" points="710.33,-20.88 699.81,-19.61 707.25,-27.16 710.33,-20.88"/>
</g>
<!-- Node8 -->
<g id="node8" class="node">
<title>Node8</title>
<g id="a_node8"><a xlink:title=" ">
<polygon fill="white" stroke="#bfbfbf" points="66.5,-56.5 66.5,-75.5 173.5,-75.5 173.5,-56.5 66.5,-56.5"/>
<text text-anchor="middle" x="120" y="-63.5" font-family="Helvetica,sans-Serif" font-size="10.00">odp/api/abi/align.h</text>
</a>
</g>
</g>
<!-- Node7&#45;&gt;Node8 -->
<g id="edge8" class="edge">
<title>Node7&#45;&gt;Node8</title>
<path fill="none" stroke="midnightblue" d="M228.56,-112.44C207.33,-103.56 173.9,-89.56 149.75,-79.45"/>
<polygon fill="midnightblue" stroke="midnightblue" points="150.92,-76.15 140.34,-75.52 148.22,-82.61 150.92,-76.15"/>
</g>
<!-- Node9 -->
<g id="node9" class="node">
<title>Node9</title>
<g id="a_node9"><a xlink:href="api_2spec_2align_8h.html" target="_top" xlink:title=" ">
<polygon fill="white" stroke="black" points="192,-56.5 192,-75.5 306,-75.5 306,-56.5 192,-56.5"/>
<text text-anchor="middle" x="249" y="-63.5" font-family="Helvetica,sans-Serif" font-size="10.00">odp/api/spec/align.h</text>
</a>
</g>
</g>
<!-- Node7&#45;&gt;Node9 -->
<g id="edge9" class="edge">
<title>Node7&#45;&gt;Node9</title>
<path fill="none" stroke="midnightblue" d="M249,-112.08C249,-105.01 249,-94.86 249,-85.99"/>
<polygon fill="midnightblue" stroke="midnightblue" points="252.5,-85.75 249,-75.75 245.5,-85.75 252.5,-85.75"/>
</g>
<!-- Node9&#45;&gt;Node2 -->
<g id="edge10" class="edge">
<title>Node9&#45;&gt;Node2</title>
<path fill="none" stroke="midnightblue" d="M249,-56.08C249,-49.01 249,-38.86 249,-29.99"/>
<polygon fill="midnightblue" stroke="midnightblue" points="252.5,-29.75 249,-19.75 245.5,-29.75 252.5,-29.75"/>
</g>
<!-- Node9&#45;&gt;Node10 -->
<g id="edge11" class="edge">
<title>Node9&#45;&gt;Node10</title>
<path fill="none" stroke="midnightblue" d="M306.23,-57.15C309.2,-56.76 312.13,-56.37 315,-56 419.03,-42.48 539.92,-27.72 612.88,-18.92"/>
<polygon fill="midnightblue" stroke="midnightblue" points="613.34,-22.39 622.85,-17.72 612.5,-15.44 613.34,-22.39"/>
</g>
<!-- Node12 -->
<g id="node12" class="node">
<title>Node12</title>
<g id="a_node12"><a xlink:href="spec_2hints_8h.html" target="_top" xlink:title=" ">
<polygon fill="white" stroke="black" points="622,-56.5 622,-75.5 736,-75.5 736,-56.5 622,-56.5"/>
<text text-anchor="middle" x="679" y="-63.5" font-family="Helvetica,sans-Serif" font-size="10.00">odp/api/spec/hints.h</text>
</a>
</g>
</g>
<!-- Node11&#45;&gt;Node12 -->
<g id="edge14" class="edge">
<title>Node11&#45;&gt;Node12</title>
<path fill="none" stroke="midnightblue" d="M703.67,-229.76C699.64,-203.15 687.45,-122.71 681.86,-85.84"/>
<polygon fill="midnightblue" stroke="midnightblue" points="685.25,-84.88 680.29,-75.52 678.33,-85.93 685.25,-84.88"/>
</g>
<!-- Node12&#45;&gt;Node2 -->
<g id="edge15" class="edge">
<title>Node12&#45;&gt;Node2</title>
<path fill="none" stroke="midnightblue" d="M621.77,-57.15C618.8,-56.76 615.87,-56.37 613,-56 511.08,-42.75 392.98,-28.32 319.62,-19.46"/>
<polygon fill="midnightblue" stroke="midnightblue" points="319.92,-15.98 309.57,-18.25 319.08,-22.93 319.92,-15.98"/>
</g>
<!-- Node12&#45;&gt;Node10 -->
<g id="edge16" class="edge">
<title>Node12&#45;&gt;Node10</title>
<path fill="none" stroke="midnightblue" d="M679,-56.08C679,-49.01 679,-38.86 679,-29.99"/>
<polygon fill="midnightblue" stroke="midnightblue" points="682.5,-29.75 679,-19.75 675.5,-29.75 682.5,-29.75"/>
</g>
<!-- Node15 -->
<g id="node15" class="node">
<title>Node15</title>
<g id="a_node15"><a xlink:title=" ">
<polygon fill="white" stroke="#bfbfbf" points="476.5,-56.5 476.5,-75.5 603.5,-75.5 603.5,-56.5 476.5,-56.5"/>
<text text-anchor="middle" x="540" y="-63.5" font-family="Helvetica,sans-Serif" font-size="10.00">odp/api/abi/cpumask.h</text>
</a>
</g>
</g>
<!-- Node14&#45;&gt;Node15 -->
<g id="edge19" class="edge">
<title>Node14&#45;&gt;Node15</title>
<path fill="none" stroke="midnightblue" d="M540,-112.08C540,-105.01 540,-94.86 540,-85.99"/>
<polygon fill="midnightblue" stroke="midnightblue" points="543.5,-85.75 540,-75.75 536.5,-85.75 543.5,-85.75"/>
</g>
<!-- Node16 -->
<g id="node16" class="node">
<title>Node16</title>
<g id="a_node16"><a xlink:href="api_2spec_2cpumask_8h.html" target="_top" xlink:title=" ">
<polygon fill="white" stroke="black" points="324,-56.5 324,-75.5 458,-75.5 458,-56.5 324,-56.5"/>
<text text-anchor="middle" x="391" y="-63.5" font-family="Helvetica,sans-Serif" font-size="10.00">odp/api/spec/cpumask.h</text>
</a>
</g>
</g>
<!-- Node14&#45;&gt;Node16 -->
<g id="edge20" class="edge">
<title>Node14&#45;&gt;Node16</title>
<path fill="none" stroke="midnightblue" d="M516.39,-112.44C491.54,-103.44 452.23,-89.19 424.25,-79.05"/>
<polygon fill="midnightblue" stroke="midnightblue" points="425.09,-75.63 414.5,-75.52 422.71,-82.21 425.09,-75.63"/>
</g>
<!-- Node16&#45;&gt;Node2 -->
<g id="edge21" class="edge">
<title>Node16&#45;&gt;Node2</title>
<path fill="none" stroke="midnightblue" d="M368.5,-56.44C344.92,-47.48 307.68,-33.31 281.04,-23.18"/>
<polygon fill="midnightblue" stroke="midnightblue" points="281.99,-19.8 271.4,-19.52 279.5,-26.34 281.99,-19.8"/>
</g>
<!-- Node16&#45;&gt;Node10 -->
<g id="edge22" class="edge">
<title>Node16&#45;&gt;Node10</title>
<path fill="none" stroke="midnightblue" d="M436.63,-56.44C487.3,-46.94 569.07,-31.61 623.43,-21.42"/>
<polygon fill="midnightblue" stroke="midnightblue" points="624.4,-24.8 633.58,-19.52 623.11,-17.92 624.4,-24.8"/>
</g>
</g>
</svg>
