<?xml version="1.0" encoding="UTF-8" standalone="no"?>
<!DOCTYPE svg PUBLIC "-//W3C//DTD SVG 1.1//EN"
 "http://www.w3.org/Graphics/SVG/1.1/DTD/svg11.dtd">
<!-- Generated by graphviz version 2.43.0 (0)
 -->
<!-- Title: align.h Pages: 1 -->
<svg width="3026pt" height="476pt"
 viewBox="0.00 0.00 3025.50 476.00" xmlns="http://www.w3.org/2000/svg" xmlns:xlink="http://www.w3.org/1999/xlink">
<g id="graph0" class="graph" transform="scale(1 1) rotate(0) translate(4 472)">
<title>align.h</title>
<polygon fill="white" stroke="transparent" points="-4,4 -4,-472 3021.5,-472 3021.5,4 -4,4"/>
<!-- Node1 -->
<g id="node1" class="node">
<title>Node1</title>
<g id="a_node1"><a xlink:title=" ">
<polygon fill="#bfbfbf" stroke="black" points="1391.5,-448.5 1391.5,-467.5 1441.5,-467.5 1441.5,-448.5 1391.5,-448.5"/>
<text text-anchor="middle" x="1416.5" y="-455.5" font-family="Helvetica,sans-Serif" font-size="10.00">align.h</text>
</a>
</g>
</g>
<!-- Node2 -->
<g id="node2" class="node">
<title>Node2</title>
<g id="a_node2"><a xlink:href="api_2align_8h.html" target="_top" xlink:title=" ">
<polygon fill="white" stroke="black" points="1391.5,-392.5 1391.5,-411.5 1441.5,-411.5 1441.5,-392.5 1391.5,-392.5"/>
<text text-anchor="middle" x="1416.5" y="-399.5" font-family="Helvetica,sans-Serif" font-size="10.00">align.h</text>
</a>
</g>
</g>
<!-- Node1&#45;&gt;Node2 -->
<g id="edge1" class="edge">
<title>Node1&#45;&gt;Node2</title>
<path fill="none" stroke="midnightblue" d="M1416.5,-437.8C1416.5,-428.91 1416.5,-418.78 1416.5,-411.75"/>
<polygon fill="midnightblue" stroke="midnightblue" points="1413,-438.08 1416.5,-448.08 1420,-438.08 1413,-438.08"/>
</g>
<!-- Node3 -->
<g id="node3" class="node">
<title>Node3</title>
<g id="a_node3"><a xlink:href="api_2abi-default_2atomic_8h.html" target="_top" xlink:title=" ">
<polygon fill="white" stroke="black" points="269,-224.5 269,-243.5 328,-243.5 328,-224.5 269,-224.5"/>
<text text-anchor="middle" x="298.5" y="-231.5" font-family="Helvetica,sans-Serif" font-size="10.00">atomic.h</text>
</a>
</g>
</g>
<!-- Node2&#45;&gt;Node3 -->
<g id="edge2" class="edge">
<title>Node2&#45;&gt;Node3</title>
<path fill="none" stroke="midnightblue" d="M1381.2,-395.76C1211.89,-370.62 484.72,-262.65 328.24,-239.42"/>
<polygon fill="midnightblue" stroke="midnightblue" points="1380.91,-399.25 1391.32,-397.26 1381.94,-392.33 1380.91,-399.25"/>
</g>
<!-- Node19 -->
<g id="node13" class="node">
<title>Node19</title>
<g id="a_node13"><a xlink:href="odp__api_8h.html" target="_top" xlink:title=" ">
<polygon fill="white" stroke="black" points="2380.5,-0.5 2380.5,-19.5 2444.5,-19.5 2444.5,-0.5 2380.5,-0.5"/>
<text text-anchor="middle" x="2412.5" y="-7.5" font-family="Helvetica,sans-Serif" font-size="10.00">odp_api.h</text>
</a>
</g>
</g>
<!-- Node2&#45;&gt;Node19 -->
<g id="edge65" class="edge">
<title>Node2&#45;&gt;Node19</title>
<path fill="none" stroke="midnightblue" d="M1451.69,-400.48C1686.56,-396.79 3017.5,-372.29 3017.5,-291 3017.5,-291 3017.5,-291 3017.5,-121 3017.5,-62.22 2569.68,-23.16 2444.6,-13.4"/>
<polygon fill="midnightblue" stroke="midnightblue" points="1451.59,-396.98 1441.65,-400.64 1451.7,-403.98 1451.59,-396.98"/>
</g>
<!-- Node44 -->
<g id="node14" class="node">
<title>Node44</title>
<g id="a_node14"><a xlink:href="api_2abi-default_2cpumask_8h.html" target="_top" xlink:title=" ">
<polygon fill="white" stroke="black" points="594.5,-224.5 594.5,-243.5 664.5,-243.5 664.5,-224.5 594.5,-224.5"/>
<text text-anchor="middle" x="629.5" y="-231.5" font-family="Helvetica,sans-Serif" font-size="10.00">cpumask.h</text>
</a>
</g>
</g>
<!-- Node2&#45;&gt;Node44 -->
<g id="edge14" class="edge">
<title>Node2&#45;&gt;Node44</title>
<path fill="none" stroke="midnightblue" d="M1381.34,-393.58C1250.95,-366.08 795.83,-270.08 664.95,-242.48"/>
<polygon fill="midnightblue" stroke="midnightblue" points="1380.7,-397.03 1391.21,-395.66 1382.14,-390.18 1380.7,-397.03"/>
</g>
<!-- Node66 -->
<g id="node23" class="node">
<title>Node66</title>
<g id="a_node23"><a xlink:href="api_2spec_2std__types_8h.html" target="_top" xlink:title=" ">
<polygon fill="white" stroke="black" points="1760,-336.5 1760,-355.5 1833,-355.5 1833,-336.5 1760,-336.5"/>
<text text-anchor="middle" x="1796.5" y="-343.5" font-family="Helvetica,sans-Serif" font-size="10.00">std_types.h</text>
</a>
</g>
</g>
<!-- Node2&#45;&gt;Node66 -->
<g id="edge24" class="edge">
<title>Node2&#45;&gt;Node66</title>
<path fill="none" stroke="midnightblue" d="M1451.65,-396C1523.57,-385.79 1686.85,-362.58 1759.94,-352.2"/>
<polygon fill="midnightblue" stroke="midnightblue" points="1451.14,-392.54 1441.73,-397.42 1452.12,-399.47 1451.14,-392.54"/>
</g>
<!-- Node4 -->
<g id="node4" class="node">
<title>Node4</title>
<g id="a_node4"><a xlink:href="arch_2arm32-linux_2odp_2api_2abi_2atomic_8h_source.html" target="_top" xlink:title=" ">
<polygon fill="white" stroke="black" points="231,-168.5 231,-187.5 290,-187.5 290,-168.5 231,-168.5"/>
<text text-anchor="middle" x="260.5" y="-175.5" font-family="Helvetica,sans-Serif" font-size="10.00">atomic.h</text>
</a>
</g>
</g>
<!-- Node3&#45;&gt;Node4 -->
<g id="edge3" class="edge">
<title>Node3&#45;&gt;Node4</title>
<path fill="none" stroke="midnightblue" d="M286.44,-215.86C279.86,-206.5 271.99,-195.33 266.66,-187.75"/>
<polygon fill="midnightblue" stroke="midnightblue" points="283.61,-217.92 292.23,-224.08 289.33,-213.89 283.61,-217.92"/>
</g>
<!-- Node5 -->
<g id="node5" class="node">
<title>Node5</title>
<g id="a_node5"><a xlink:href="arch_2arm64-linux_2odp_2api_2abi_2atomic_8h_source.html" target="_top" xlink:title=" ">
<polygon fill="white" stroke="black" points="308,-168.5 308,-187.5 367,-187.5 367,-168.5 308,-168.5"/>
<text text-anchor="middle" x="337.5" y="-175.5" font-family="Helvetica,sans-Serif" font-size="10.00">atomic.h</text>
</a>
</g>
</g>
<!-- Node3&#45;&gt;Node5 -->
<g id="edge4" class="edge">
<title>Node3&#45;&gt;Node5</title>
<path fill="none" stroke="midnightblue" d="M310.88,-215.86C317.64,-206.5 325.71,-195.33 331.18,-187.75"/>
<polygon fill="midnightblue" stroke="midnightblue" points="307.96,-213.93 304.94,-224.08 313.63,-218.03 307.96,-213.93"/>
</g>
<!-- Node6 -->
<g id="node6" class="node">
<title>Node6</title>
<g id="a_node6"><a xlink:href="arch_2default-linux_2odp_2api_2abi_2atomic_8h_source.html" target="_top" xlink:title=" ">
<polygon fill="white" stroke="black" points="0,-168.5 0,-187.5 59,-187.5 59,-168.5 0,-168.5"/>
<text text-anchor="middle" x="29.5" y="-175.5" font-family="Helvetica,sans-Serif" font-size="10.00">atomic.h</text>
</a>
</g>
</g>
<!-- Node3&#45;&gt;Node6 -->
<g id="edge5" class="edge">
<title>Node3&#45;&gt;Node6</title>
<path fill="none" stroke="midnightblue" d="M259.01,-225.81C212.93,-217.3 134.52,-202.46 67.5,-188 64.85,-187.43 62.1,-186.82 59.35,-186.19"/>
<polygon fill="midnightblue" stroke="midnightblue" points="258.42,-229.26 268.89,-227.62 259.68,-222.37 258.42,-229.26"/>
</g>
<!-- Node7 -->
<g id="node7" class="node">
<title>Node7</title>
<g id="a_node7"><a xlink:href="arch_2power64-linux_2odp_2api_2abi_2atomic_8h_source.html" target="_top" xlink:title=" ">
<polygon fill="white" stroke="black" points="77,-168.5 77,-187.5 136,-187.5 136,-168.5 77,-168.5"/>
<text text-anchor="middle" x="106.5" y="-175.5" font-family="Helvetica,sans-Serif" font-size="10.00">atomic.h</text>
</a>
</g>
</g>
<!-- Node3&#45;&gt;Node7 -->
<g id="edge6" class="edge">
<title>Node3&#45;&gt;Node7</title>
<path fill="none" stroke="midnightblue" d="M259.11,-221.92C222.6,-211.65 169.11,-196.61 136.11,-187.33"/>
<polygon fill="midnightblue" stroke="midnightblue" points="258.35,-225.34 268.92,-224.68 260.24,-218.6 258.35,-225.34"/>
</g>
<!-- Node8 -->
<g id="node8" class="node">
<title>Node8</title>
<g id="a_node8"><a xlink:href="arch_2x86__32-linux_2odp_2api_2abi_2atomic_8h_source.html" target="_top" xlink:title=" ">
<polygon fill="white" stroke="black" points="154,-168.5 154,-187.5 213,-187.5 213,-168.5 154,-168.5"/>
<text text-anchor="middle" x="183.5" y="-175.5" font-family="Helvetica,sans-Serif" font-size="10.00">atomic.h</text>
</a>
</g>
</g>
<!-- Node3&#45;&gt;Node8 -->
<g id="edge7" class="edge">
<title>Node3&#45;&gt;Node8</title>
<path fill="none" stroke="midnightblue" d="M271.02,-220.1C249.53,-210.01 220.28,-196.27 201.64,-187.52"/>
<polygon fill="midnightblue" stroke="midnightblue" points="269.74,-223.36 280.28,-224.44 272.71,-217.02 269.74,-223.36"/>
</g>
<!-- Node9 -->
<g id="node9" class="node">
<title>Node9</title>
<g id="a_node9"><a xlink:href="arch_2x86__64-linux_2odp_2api_2abi_2atomic_8h_source.html" target="_top" xlink:title=" ">
<polygon fill="white" stroke="black" points="385,-168.5 385,-187.5 444,-187.5 444,-168.5 385,-168.5"/>
<text text-anchor="middle" x="414.5" y="-175.5" font-family="Helvetica,sans-Serif" font-size="10.00">atomic.h</text>
</a>
</g>
</g>
<!-- Node3&#45;&gt;Node9 -->
<g id="edge8" class="edge">
<title>Node3&#45;&gt;Node9</title>
<path fill="none" stroke="midnightblue" d="M326.22,-220.1C347.89,-210.01 377.4,-196.27 396.21,-187.52"/>
<polygon fill="midnightblue" stroke="midnightblue" points="324.47,-217.05 316.88,-224.44 327.42,-223.4 324.47,-217.05"/>
</g>
<!-- Node10 -->
<g id="node10" class="node">
<title>Node10</title>
<g id="a_node10"><a xlink:href="api_2atomic_8h.html" target="_top" xlink:title=" ">
<polygon fill="white" stroke="red" points="825,-112.5 825,-131.5 884,-131.5 884,-112.5 825,-112.5"/>
<text text-anchor="middle" x="854.5" y="-119.5" font-family="Helvetica,sans-Serif" font-size="10.00">atomic.h</text>
</a>
</g>
</g>
<!-- Node9&#45;&gt;Node10 -->
<g id="edge9" class="edge">
<title>Node9&#45;&gt;Node10</title>
<path fill="none" stroke="midnightblue" d="M454.19,-168.08C598.88,-143.79 759.75,-130.13 824.91,-125.15"/>
<polygon fill="midnightblue" stroke="midnightblue" points="453.51,-164.64 444.24,-169.77 454.68,-171.54 453.51,-164.64"/>
</g>
<!-- Node11 -->
<g id="node11" class="node">
<title>Node11</title>
<g id="a_node11"><a xlink:href="api_2abi-default_2barrier_8h.html" target="_top" xlink:title=" ">
<polygon fill="white" stroke="red" points="1110,-56.5 1110,-75.5 1167,-75.5 1167,-56.5 1110,-56.5"/>
<text text-anchor="middle" x="1138.5" y="-63.5" font-family="Helvetica,sans-Serif" font-size="10.00">barrier.h</text>
</a>
</g>
</g>
<!-- Node10&#45;&gt;Node11 -->
<g id="edge10" class="edge">
<title>Node10&#45;&gt;Node11</title>
<path fill="none" stroke="midnightblue" d="M893.98,-113.49C951.95,-102.47 1058.75,-82.16 1109.82,-72.45"/>
<polygon fill="midnightblue" stroke="midnightblue" points="893.26,-110.07 884.09,-115.37 894.57,-116.94 893.26,-110.07"/>
</g>
<!-- Node18 -->
<g id="node12" class="node">
<title>Node18</title>
<g id="a_node12"><a xlink:href="api_2barrier_8h.html" target="_top" xlink:title=" ">
<polygon fill="white" stroke="black" points="884,-56.5 884,-75.5 941,-75.5 941,-56.5 884,-56.5"/>
<text text-anchor="middle" x="912.5" y="-63.5" font-family="Helvetica,sans-Serif" font-size="10.00">barrier.h</text>
</a>
</g>
</g>
<!-- Node10&#45;&gt;Node18 -->
<g id="edge11" class="edge">
<title>Node10&#45;&gt;Node18</title>
<path fill="none" stroke="midnightblue" d="M871.41,-105.25C881.7,-95.67 894.47,-83.79 903.01,-75.83"/>
<polygon fill="midnightblue" stroke="midnightblue" points="868.75,-102.95 863.82,-112.32 873.52,-108.07 868.75,-102.95"/>
</g>
<!-- Node10&#45;&gt;Node19 -->
<g id="edge13" class="edge">
<title>Node10&#45;&gt;Node19</title>
<path fill="none" stroke="midnightblue" d="M854.75,-101.77C856.07,-86.72 860.58,-66.6 874.5,-56 936.53,-8.77 2164.93,-10.26 2380.38,-10.89"/>
<polygon fill="midnightblue" stroke="midnightblue" points="851.24,-101.9 854.25,-112.06 858.23,-102.24 851.24,-101.9"/>
</g>
<!-- Node18&#45;&gt;Node19 -->
<g id="edge12" class="edge">
<title>Node18&#45;&gt;Node19</title>
<path fill="none" stroke="midnightblue" d="M951.28,-62.99C989.29,-61.06 1048.87,-58.12 1100.5,-56 1610.59,-35.04 2232.52,-16.31 2380.04,-11.95"/>
<polygon fill="midnightblue" stroke="midnightblue" points="950.97,-59.5 941.16,-63.51 951.33,-66.49 950.97,-59.5"/>
</g>
<!-- Node45 -->
<g id="node15" class="node">
<title>Node45</title>
<g id="a_node15"><a xlink:href="arch_2arm32-linux_2odp_2api_2abi_2cpumask_8h_source.html" target="_top" xlink:title=" ">
<polygon fill="white" stroke="black" points="726.5,-168.5 726.5,-187.5 796.5,-187.5 796.5,-168.5 726.5,-168.5"/>
<text text-anchor="middle" x="761.5" y="-175.5" font-family="Helvetica,sans-Serif" font-size="10.00">cpumask.h</text>
</a>
</g>
</g>
<!-- Node44&#45;&gt;Node45 -->
<g id="edge15" class="edge">
<title>Node44&#45;&gt;Node45</title>
<path fill="none" stroke="midnightblue" d="M659.72,-220.64C684.49,-210.5 718.9,-196.43 740.68,-187.52"/>
<polygon fill="midnightblue" stroke="midnightblue" points="658.35,-217.42 650.42,-224.44 661,-223.9 658.35,-217.42"/>
</g>
<!-- Node46 -->
<g id="node16" class="node">
<title>Node46</title>
<g id="a_node16"><a xlink:href="arch_2arm64-linux_2odp_2api_2abi_2cpumask_8h_source.html" target="_top" xlink:title=" ">
<polygon fill="white" stroke="black" points="814.5,-168.5 814.5,-187.5 884.5,-187.5 884.5,-168.5 814.5,-168.5"/>
<text text-anchor="middle" x="849.5" y="-175.5" font-family="Helvetica,sans-Serif" font-size="10.00">cpumask.h</text>
</a>
</g>
</g>
<!-- Node44&#45;&gt;Node46 -->
<g id="edge16" class="edge">
<title>Node44&#45;&gt;Node46</title>
<path fill="none" stroke="midnightblue" d="M674.22,-222.02C715.78,-211.82 776.81,-196.84 814.8,-187.52"/>
<polygon fill="midnightblue" stroke="midnightblue" points="673.24,-218.66 664.36,-224.44 674.91,-225.46 673.24,-218.66"/>
</g>
<!-- Node47 -->
<g id="node17" class="node">
<title>Node47</title>
<g id="a_node17"><a xlink:href="arch_2default-linux_2odp_2api_2abi_2cpumask_8h_source.html" target="_top" xlink:title=" ">
<polygon fill="white" stroke="black" points="462.5,-168.5 462.5,-187.5 532.5,-187.5 532.5,-168.5 462.5,-168.5"/>
<text text-anchor="middle" x="497.5" y="-175.5" font-family="Helvetica,sans-Serif" font-size="10.00">cpumask.h</text>
</a>
</g>
</g>
<!-- Node44&#45;&gt;Node47 -->
<g id="edge17" class="edge">
<title>Node44&#45;&gt;Node47</title>
<path fill="none" stroke="midnightblue" d="M599.28,-220.64C574.51,-210.5 540.1,-196.43 518.32,-187.52"/>
<polygon fill="midnightblue" stroke="midnightblue" points="598,-223.9 608.58,-224.44 600.65,-217.42 598,-223.9"/>
</g>
<!-- Node48 -->
<g id="node18" class="node">
<title>Node48</title>
<g id="a_node18"><a xlink:href="arch_2power64-linux_2odp_2api_2abi_2cpumask_8h_source.html" target="_top" xlink:title=" ">
<polygon fill="white" stroke="black" points="550.5,-168.5 550.5,-187.5 620.5,-187.5 620.5,-168.5 550.5,-168.5"/>
<text text-anchor="middle" x="585.5" y="-175.5" font-family="Helvetica,sans-Serif" font-size="10.00">cpumask.h</text>
</a>
</g>
</g>
<!-- Node44&#45;&gt;Node48 -->
<g id="edge18" class="edge">
<title>Node44&#45;&gt;Node48</title>
<path fill="none" stroke="midnightblue" d="M615.77,-216.14C608.1,-206.74 598.87,-195.4 592.63,-187.75"/>
<polygon fill="midnightblue" stroke="midnightblue" points="613.2,-218.54 622.23,-224.08 618.63,-214.12 613.2,-218.54"/>
</g>
<!-- Node49 -->
<g id="node19" class="node">
<title>Node49</title>
<g id="a_node19"><a xlink:href="arch_2x86__32-linux_2odp_2api_2abi_2cpumask_8h_source.html" target="_top" xlink:title=" ">
<polygon fill="white" stroke="black" points="638.5,-168.5 638.5,-187.5 708.5,-187.5 708.5,-168.5 638.5,-168.5"/>
<text text-anchor="middle" x="673.5" y="-175.5" font-family="Helvetica,sans-Serif" font-size="10.00">cpumask.h</text>
</a>
</g>
</g>
<!-- Node44&#45;&gt;Node49 -->
<g id="edge19" class="edge">
<title>Node44&#45;&gt;Node49</title>
<path fill="none" stroke="midnightblue" d="M643.23,-216.14C650.9,-206.74 660.13,-195.4 666.37,-187.75"/>
<polygon fill="midnightblue" stroke="midnightblue" points="640.37,-214.12 636.77,-224.08 645.8,-218.54 640.37,-214.12"/>
</g>
<!-- Node50 -->
<g id="node20" class="node">
<title>Node50</title>
<g id="a_node20"><a xlink:href="arch_2x86__64-linux_2odp_2api_2abi_2cpumask_8h_source.html" target="_top" xlink:title=" ">
<polygon fill="white" stroke="black" points="1110.5,-168.5 1110.5,-187.5 1180.5,-187.5 1180.5,-168.5 1110.5,-168.5"/>
<text text-anchor="middle" x="1145.5" y="-175.5" font-family="Helvetica,sans-Serif" font-size="10.00">cpumask.h</text>
</a>
</g>
</g>
<!-- Node44&#45;&gt;Node50 -->
<g id="edge20" class="edge">
<title>Node44&#45;&gt;Node50</title>
<path fill="none" stroke="midnightblue" d="M674.81,-227.98C686.74,-226.67 699.6,-225.27 711.5,-224 859.7,-208.18 1036.45,-190.1 1110.33,-182.57"/>
<polygon fill="midnightblue" stroke="midnightblue" points="674.17,-224.53 664.61,-229.1 674.93,-231.49 674.17,-224.53"/>
</g>
<!-- Node51 -->
<g id="node21" class="node">
<title>Node51</title>
<g id="a_node21"><a xlink:href="api_2cpumask_8h.html" target="_top" xlink:title=" ">
<polygon fill="white" stroke="red" points="2225.5,-112.5 2225.5,-131.5 2295.5,-131.5 2295.5,-112.5 2225.5,-112.5"/>
<text text-anchor="middle" x="2260.5" y="-119.5" font-family="Helvetica,sans-Serif" font-size="10.00">cpumask.h</text>
</a>
</g>
</g>
<!-- Node50&#45;&gt;Node51 -->
<g id="edge21" class="edge">
<title>Node50&#45;&gt;Node51</title>
<path fill="none" stroke="midnightblue" d="M1190.83,-174.8C1374.53,-165.91 2061.49,-132.64 2225.28,-124.71"/>
<polygon fill="midnightblue" stroke="midnightblue" points="1190.53,-171.31 1180.71,-175.29 1190.87,-178.31 1190.53,-171.31"/>
</g>
<!-- Node51&#45;&gt;Node19 -->
<g id="edge23" class="edge">
<title>Node51&#45;&gt;Node19</title>
<path fill="none" stroke="midnightblue" d="M2261.46,-101.93C2263.16,-87.57 2267.69,-68.32 2279.5,-56 2306.07,-28.29 2350.29,-17.64 2380.38,-13.55"/>
<polygon fill="midnightblue" stroke="midnightblue" points="2257.95,-101.92 2260.61,-112.17 2264.92,-102.49 2257.95,-101.92"/>
</g>
<!-- Node62 -->
<g id="node22" class="node">
<title>Node62</title>
<g id="a_node22"><a xlink:href="api_2spec_2init_8h.html" target="_top" xlink:title=" ">
<polygon fill="white" stroke="red" points="2289,-56.5 2289,-75.5 2330,-75.5 2330,-56.5 2289,-56.5"/>
<text text-anchor="middle" x="2309.5" y="-63.5" font-family="Helvetica,sans-Serif" font-size="10.00">init.h</text>
</a>
</g>
</g>
<!-- Node51&#45;&gt;Node62 -->
<g id="edge22" class="edge">
<title>Node51&#45;&gt;Node62</title>
<path fill="none" stroke="midnightblue" d="M2275.53,-104.43C2284.12,-94.97 2294.54,-83.48 2301.56,-75.75"/>
<polygon fill="midnightblue" stroke="midnightblue" points="2272.72,-102.33 2268.59,-112.08 2277.9,-107.03 2272.72,-102.33"/>
</g>
<!-- Node67 -->
<g id="node24" class="node">
<title>Node67</title>
<g id="a_node24"><a xlink:href="api_2std__types_8h.html" target="_top" xlink:title=" ">
<polygon fill="white" stroke="red" points="1760,-280.5 1760,-299.5 1833,-299.5 1833,-280.5 1760,-280.5"/>
<text text-anchor="middle" x="1796.5" y="-287.5" font-family="Helvetica,sans-Serif" font-size="10.00">std_types.h</text>
</a>
</g>
</g>
<!-- Node66&#45;&gt;Node67 -->
<g id="edge25" class="edge">
<title>Node66&#45;&gt;Node67</title>
<path fill="none" stroke="midnightblue" d="M1796.5,-325.8C1796.5,-316.91 1796.5,-306.78 1796.5,-299.75"/>
<polygon fill="midnightblue" stroke="midnightblue" points="1793,-326.08 1796.5,-336.08 1800,-326.08 1793,-326.08"/>
</g>
<!-- Node67&#45;&gt;Node3 -->
<g id="edge26" class="edge">
<title>Node67&#45;&gt;Node3</title>
<path fill="none" stroke="midnightblue" d="M1749.81,-287.32C1520.21,-279.04 514.43,-242.78 328.21,-236.07"/>
<polygon fill="midnightblue" stroke="midnightblue" points="1749.72,-290.82 1759.84,-287.68 1749.98,-283.82 1749.72,-290.82"/>
</g>
<!-- Node67&#45;&gt;Node11 -->
<g id="edge27" class="edge">
<title>Node67&#45;&gt;Node11</title>
<path fill="none" stroke="midnightblue" d="M1749.7,-287.69C1650.71,-284.35 1423.35,-273.62 1352.5,-244 1303.79,-223.63 1181.81,-108.58 1147.57,-75.75"/>
<polygon fill="midnightblue" stroke="midnightblue" points="1749.61,-291.18 1759.72,-288.01 1749.84,-284.19 1749.61,-291.18"/>
</g>
<!-- Node67&#45;&gt;Node18 -->
<g id="edge37" class="edge">
<title>Node67&#45;&gt;Node18</title>
<path fill="none" stroke="midnightblue" d="M1749.88,-288.84C1546.8,-287.94 747.94,-281.98 711.5,-244 705.35,-237.59 705.86,-230.87 711.5,-224 763.84,-160.29 836.36,-247.45 893.5,-188 923.71,-156.57 917.72,-97.89 914.14,-75.75"/>
<polygon fill="midnightblue" stroke="midnightblue" points="1749.91,-292.34 1759.92,-288.89 1749.94,-285.34 1749.91,-292.34"/>
</g>
<!-- Node67&#45;&gt;Node19 -->
<g id="edge64" class="edge">
<title>Node67&#45;&gt;Node19</title>
<path fill="none" stroke="midnightblue" d="M1843.35,-288.26C1997.09,-285.55 2479.93,-274.66 2542.5,-244 2577,-227.09 2599.5,-217.42 2599.5,-179 2599.5,-179 2599.5,-179 2599.5,-121 2599.5,-50 2498.11,-23.92 2444.65,-15.1"/>
<polygon fill="midnightblue" stroke="midnightblue" points="1843.23,-284.76 1833.29,-288.44 1843.35,-291.76 1843.23,-284.76"/>
</g>
<!-- Node67&#45;&gt;Node44 -->
<g id="edge29" class="edge">
<title>Node67&#45;&gt;Node44</title>
<path fill="none" stroke="midnightblue" d="M1749.56,-288C1565.28,-283.92 891.08,-267.68 678.5,-244 674.03,-243.5 669.35,-242.84 664.74,-242.09"/>
<polygon fill="midnightblue" stroke="midnightblue" points="1749.65,-291.5 1759.73,-288.22 1749.81,-284.5 1749.65,-291.5"/>
</g>
<!-- Node67&#45;&gt;Node62 -->
<g id="edge56" class="edge">
<title>Node67&#45;&gt;Node62</title>
<path fill="none" stroke="midnightblue" d="M1843.34,-287.84C2000.17,-283.73 2498.23,-268.76 2521.5,-244 2567.71,-194.83 2504.28,-146.84 2446.5,-112 2408.77,-89.25 2358.16,-76.51 2330.22,-70.77"/>
<polygon fill="midnightblue" stroke="midnightblue" points="1842.99,-284.35 1833.09,-288.11 1843.17,-291.34 1842.99,-284.35"/>
</g>
<!-- Node68 -->
<g id="node25" class="node">
<title>Node68</title>
<g id="a_node25"><a xlink:href="api_2abi-default_2byteorder_8h.html" target="_top" xlink:title=" ">
<polygon fill="white" stroke="red" points="2627.5,-224.5 2627.5,-243.5 2699.5,-243.5 2699.5,-224.5 2627.5,-224.5"/>
<text text-anchor="middle" x="2663.5" y="-231.5" font-family="Helvetica,sans-Serif" font-size="10.00">byteorder.h</text>
</a>
</g>
</g>
<!-- Node67&#45;&gt;Node68 -->
<g id="edge28" class="edge">
<title>Node67&#45;&gt;Node68</title>
<path fill="none" stroke="midnightblue" d="M1843.3,-288.44C1968.58,-286.49 2321.88,-278.15 2613.5,-244 2617.97,-243.48 2622.64,-242.8 2627.26,-242.06"/>
<polygon fill="midnightblue" stroke="midnightblue" points="1843.23,-284.94 1833.28,-288.58 1843.33,-291.93 1843.23,-284.94"/>
</g>
<!-- Node76 -->
<g id="node26" class="node">
<title>Node76</title>
<g id="a_node26"><a xlink:href="api_2abi-default_2init_8h.html" target="_top" xlink:title=" ">
<polygon fill="white" stroke="red" points="2718,-224.5 2718,-243.5 2759,-243.5 2759,-224.5 2718,-224.5"/>
<text text-anchor="middle" x="2738.5" y="-231.5" font-family="Helvetica,sans-Serif" font-size="10.00">init.h</text>
</a>
</g>
</g>
<!-- Node67&#45;&gt;Node76 -->
<g id="edge30" class="edge">
<title>Node67&#45;&gt;Node76</title>
<path fill="none" stroke="midnightblue" d="M1843.41,-288.18C2005.26,-285.14 2539.57,-273.06 2708.5,-244 2711.61,-243.47 2714.85,-242.71 2718,-241.86"/>
<polygon fill="midnightblue" stroke="midnightblue" points="1843.23,-284.69 1833.3,-288.37 1843.36,-291.69 1843.23,-284.69"/>
</g>
<!-- Node83 -->
<g id="node27" class="node">
<title>Node83</title>
<g id="a_node27"><a xlink:href="api_2abi-default_2ipsec_8h.html" target="_top" xlink:title=" ">
<polygon fill="white" stroke="red" points="2816,-224.5 2816,-243.5 2867,-243.5 2867,-224.5 2816,-224.5"/>
<text text-anchor="middle" x="2841.5" y="-231.5" font-family="Helvetica,sans-Serif" font-size="10.00">ipsec.h</text>
</a>
</g>
</g>
<!-- Node67&#45;&gt;Node83 -->
<g id="edge31" class="edge">
<title>Node67&#45;&gt;Node83</title>
<path fill="none" stroke="midnightblue" d="M1843.45,-288C2015.7,-284.15 2612.65,-269.27 2801.5,-244 2806.16,-243.38 2811.07,-242.48 2815.8,-241.48"/>
<polygon fill="midnightblue" stroke="midnightblue" points="1843.12,-284.5 1833.2,-288.23 1843.28,-291.5 1843.12,-284.5"/>
</g>
<!-- Node91 -->
<g id="node28" class="node">
<title>Node91</title>
<g id="a_node28"><a xlink:href="api_2abi-default_2packet__io__types_8h.html" target="_top" xlink:title=" ">
<polygon fill="white" stroke="red" points="2885.5,-224.5 2885.5,-243.5 2989.5,-243.5 2989.5,-224.5 2885.5,-224.5"/>
<text text-anchor="middle" x="2937.5" y="-231.5" font-family="Helvetica,sans-Serif" font-size="10.00">packet_io_types.h</text>
</a>
</g>
</g>
<!-- Node67&#45;&gt;Node91 -->
<g id="edge32" class="edge">
<title>Node67&#45;&gt;Node91</title>
<path fill="none" stroke="midnightblue" d="M1843.66,-288.76C1994.34,-287.61 2477.62,-281.08 2875.5,-244 2878.75,-243.7 2882.09,-243.34 2885.45,-242.95"/>
<polygon fill="midnightblue" stroke="midnightblue" points="1843.36,-285.26 1833.39,-288.83 1843.41,-292.26 1843.36,-285.26"/>
</g>
<!-- Node28 -->
<g id="node29" class="node">
<title>Node28</title>
<g id="a_node29"><a xlink:href="api_2abi-default_2rwlock__recursive_8h.html" target="_top" xlink:title=" ">
<polygon fill="white" stroke="red" points="720.5,-224.5 720.5,-243.5 828.5,-243.5 828.5,-224.5 720.5,-224.5"/>
<text text-anchor="middle" x="774.5" y="-231.5" font-family="Helvetica,sans-Serif" font-size="10.00">rwlock_recursive.h</text>
</a>
</g>
</g>
<!-- Node67&#45;&gt;Node28 -->
<g id="edge33" class="edge">
<title>Node67&#45;&gt;Node28</title>
<path fill="none" stroke="midnightblue" d="M1749.52,-288.38C1610.12,-286.18 1186.82,-277.07 837.5,-244 834.64,-243.73 831.71,-243.42 828.76,-243.08"/>
<polygon fill="midnightblue" stroke="midnightblue" points="1749.78,-291.88 1759.83,-288.53 1749.88,-284.88 1749.78,-291.88"/>
</g>
<!-- Node131 -->
<g id="node30" class="node">
<title>Node131</title>
<g id="a_node30"><a xlink:href="api_2abi-default_2schedule_8h.html" target="_top" xlink:title=" ">
<polygon fill="white" stroke="red" points="847,-224.5 847,-243.5 916,-243.5 916,-224.5 847,-224.5"/>
<text text-anchor="middle" x="881.5" y="-231.5" font-family="Helvetica,sans-Serif" font-size="10.00">schedule.h</text>
</a>
</g>
</g>
<!-- Node67&#45;&gt;Node131 -->
<g id="edge34" class="edge">
<title>Node67&#45;&gt;Node131</title>
<path fill="none" stroke="midnightblue" d="M1749.72,-287.51C1592.99,-282.38 1087.2,-264.6 925.5,-244 922.41,-243.61 919.2,-243.12 916.01,-242.57"/>
<polygon fill="midnightblue" stroke="midnightblue" points="1749.85,-291.02 1759.96,-287.85 1750.08,-284.02 1749.85,-291.02"/>
</g>
<!-- Node138 -->
<g id="node31" class="node">
<title>Node138</title>
<g id="a_node31"><a xlink:href="api_2abi-default_2spinlock__recursive_8h.html" target="_top" xlink:title=" ">
<polygon fill="white" stroke="red" points="934.5,-224.5 934.5,-243.5 1050.5,-243.5 1050.5,-224.5 934.5,-224.5"/>
<text text-anchor="middle" x="992.5" y="-231.5" font-family="Helvetica,sans-Serif" font-size="10.00">spinlock_recursive.h</text>
</a>
</g>
</g>
<!-- Node67&#45;&gt;Node138 -->
<g id="edge35" class="edge">
<title>Node67&#45;&gt;Node138</title>
<path fill="none" stroke="midnightblue" d="M1749.58,-287.32C1632.77,-282.87 1319.58,-269.37 1059.5,-244 1056.58,-243.72 1053.59,-243.4 1050.57,-243.06"/>
<polygon fill="midnightblue" stroke="midnightblue" points="1749.49,-290.82 1759.62,-287.7 1749.75,-283.82 1749.49,-290.82"/>
</g>
<!-- Node146 -->
<g id="node32" class="node">
<title>Node146</title>
<g id="a_node32"><a xlink:href="api_2abi-default_2traffic__mngr_8h.html" target="_top" xlink:title=" ">
<polygon fill="white" stroke="red" points="1068.5,-224.5 1068.5,-243.5 1152.5,-243.5 1152.5,-224.5 1068.5,-224.5"/>
<text text-anchor="middle" x="1110.5" y="-231.5" font-family="Helvetica,sans-Serif" font-size="10.00">traffic_mngr.h</text>
</a>
</g>
</g>
<!-- Node67&#45;&gt;Node146 -->
<g id="edge36" class="edge">
<title>Node67&#45;&gt;Node146</title>
<path fill="none" stroke="midnightblue" d="M1749.8,-287.42C1644.38,-283.46 1380.01,-271.44 1160.5,-244 1157.96,-243.68 1155.36,-243.32 1152.73,-242.93"/>
<polygon fill="midnightblue" stroke="midnightblue" points="1749.68,-290.91 1759.8,-287.78 1749.94,-283.92 1749.68,-290.91"/>
</g>
<!-- Node104 -->
<g id="node33" class="node">
<title>Node104</title>
<g id="a_node33"><a xlink:href="api_2classification_8h.html" target="_top" xlink:title=" ">
<polygon fill="white" stroke="red" points="2294,-168.5 2294,-187.5 2383,-187.5 2383,-168.5 2294,-168.5"/>
<text text-anchor="middle" x="2338.5" y="-175.5" font-family="Helvetica,sans-Serif" font-size="10.00">classification.h</text>
</a>
</g>
</g>
<!-- Node67&#45;&gt;Node104 -->
<g id="edge38" class="edge">
<title>Node67&#45;&gt;Node104</title>
<path fill="none" stroke="midnightblue" d="M1843.57,-288.76C1971.66,-287.64 2319.23,-281.15 2353.5,-244 2367.95,-228.34 2353.88,-201.61 2344.82,-187.82"/>
<polygon fill="midnightblue" stroke="midnightblue" points="1843.27,-285.27 1833.3,-288.85 1843.33,-292.27 1843.27,-285.27"/>
</g>
<!-- Node105 -->
<g id="node34" class="node">
<title>Node105</title>
<g id="a_node34"><a xlink:href="api_2spec_2ipsec_8h.html" target="_top" xlink:title=" ">
<polygon fill="white" stroke="red" points="2387,-112.5 2387,-131.5 2438,-131.5 2438,-112.5 2387,-112.5"/>
<text text-anchor="middle" x="2412.5" y="-119.5" font-family="Helvetica,sans-Serif" font-size="10.00">ipsec.h</text>
</a>
</g>
</g>
<!-- Node67&#45;&gt;Node105 -->
<g id="edge57" class="edge">
<title>Node67&#45;&gt;Node105</title>
<path fill="none" stroke="midnightblue" d="M1843.16,-288.22C1972.69,-285.67 2329.93,-275.8 2371.5,-244 2407.97,-216.11 2412.27,-154.21 2412.58,-131.54"/>
<polygon fill="midnightblue" stroke="midnightblue" points="1843.08,-284.72 1833.15,-288.42 1843.22,-291.72 1843.08,-284.72"/>
</g>
<!-- Node114 -->
<g id="node35" class="node">
<title>Node114</title>
<g id="a_node35"><a xlink:href="api_2crypto_8h.html" target="_top" xlink:title=" ">
<polygon fill="white" stroke="black" points="2439.5,-168.5 2439.5,-187.5 2495.5,-187.5 2495.5,-168.5 2439.5,-168.5"/>
<text text-anchor="middle" x="2467.5" y="-175.5" font-family="Helvetica,sans-Serif" font-size="10.00">crypto.h</text>
</a>
</g>
</g>
<!-- Node67&#45;&gt;Node114 -->
<g id="edge41" class="edge">
<title>Node67&#45;&gt;Node114</title>
<path fill="none" stroke="midnightblue" d="M1843.29,-287.77C1997.6,-283.48 2481.84,-268.14 2504.5,-244 2520.76,-226.67 2494.87,-200.9 2478.78,-187.62"/>
<polygon fill="midnightblue" stroke="midnightblue" points="1843.09,-284.27 1833.19,-288.05 1843.28,-291.27 1843.09,-284.27"/>
</g>
<!-- Node153 -->
<g id="node36" class="node">
<title>Node153</title>
<g id="a_node36"><a xlink:href="api_2proto__stats_8h.html" target="_top" xlink:title=" ">
<polygon fill="white" stroke="black" points="2710.5,-112.5 2710.5,-131.5 2790.5,-131.5 2790.5,-112.5 2710.5,-112.5"/>
<text text-anchor="middle" x="2750.5" y="-119.5" font-family="Helvetica,sans-Serif" font-size="10.00">proto_stats.h</text>
</a>
</g>
</g>
<!-- Node67&#45;&gt;Node153 -->
<g id="edge44" class="edge">
<title>Node67&#45;&gt;Node153</title>
<path fill="none" stroke="midnightblue" d="M1843.37,-288.61C2033.05,-286.78 2735.26,-277.77 2767.5,-244 2797.53,-212.55 2768.56,-153.88 2755.83,-131.75"/>
<polygon fill="midnightblue" stroke="midnightblue" points="1843.13,-285.11 1833.17,-288.7 1843.2,-292.11 1843.13,-285.11"/>
</g>
<!-- Node121 -->
<g id="node37" class="node">
<title>Node121</title>
<g id="a_node37"><a xlink:href="api_2spec_2buffer_8h.html" target="_top" xlink:title=" ">
<polygon fill="white" stroke="red" points="1170,-224.5 1170,-243.5 1223,-243.5 1223,-224.5 1170,-224.5"/>
<text text-anchor="middle" x="1196.5" y="-231.5" font-family="Helvetica,sans-Serif" font-size="10.00">buffer.h</text>
</a>
</g>
</g>
<!-- Node67&#45;&gt;Node121 -->
<g id="edge46" class="edge">
<title>Node67&#45;&gt;Node121</title>
<path fill="none" stroke="midnightblue" d="M1749.9,-287.89C1652.98,-285 1422.83,-275.16 1232.5,-244 1229.45,-243.5 1226.28,-242.87 1223.13,-242.18"/>
<polygon fill="midnightblue" stroke="midnightblue" points="1749.86,-291.39 1759.96,-288.17 1750.06,-284.39 1749.86,-291.39"/>
</g>
<!-- Node154 -->
<g id="node38" class="node">
<title>Node154</title>
<g id="a_node38"><a xlink:href="spec_2chksum_8h.html" target="_top" xlink:title=" ">
<polygon fill="white" stroke="red" points="1241.5,-224.5 1241.5,-243.5 1305.5,-243.5 1305.5,-224.5 1241.5,-224.5"/>
<text text-anchor="middle" x="1273.5" y="-231.5" font-family="Helvetica,sans-Serif" font-size="10.00">chksum.h</text>
</a>
</g>
</g>
<!-- Node67&#45;&gt;Node154 -->
<g id="edge47" class="edge">
<title>Node67&#45;&gt;Node154</title>
<path fill="none" stroke="midnightblue" d="M1749.67,-286.13C1663.99,-280.53 1476.37,-266.69 1319.5,-244 1314.99,-243.35 1310.25,-242.55 1305.6,-241.7"/>
<polygon fill="midnightblue" stroke="midnightblue" points="1749.64,-289.63 1759.85,-286.79 1750.1,-282.65 1749.64,-289.63"/>
</g>
<!-- Node103 -->
<g id="node39" class="node">
<title>Node103</title>
<g id="a_node39"><a xlink:href="api_2spec_2classification_8h.html" target="_top" xlink:title=" ">
<polygon fill="white" stroke="black" points="1494,-224.5 1494,-243.5 1583,-243.5 1583,-224.5 1494,-224.5"/>
<text text-anchor="middle" x="1538.5" y="-231.5" font-family="Helvetica,sans-Serif" font-size="10.00">classification.h</text>
</a>
</g>
</g>
<!-- Node67&#45;&gt;Node103 -->
<g id="edge48" class="edge">
<title>Node67&#45;&gt;Node103</title>
<path fill="none" stroke="midnightblue" d="M1749.85,-279.24C1701.2,-269.05 1625.69,-253.25 1579.32,-243.54"/>
<polygon fill="midnightblue" stroke="midnightblue" points="1749.3,-282.7 1759.81,-281.32 1750.74,-275.85 1749.3,-282.7"/>
</g>
<!-- Node111 -->
<g id="node40" class="node">
<title>Node111</title>
<g id="a_node40"><a xlink:href="api_2spec_2comp_8h.html" target="_top" xlink:title=" ">
<polygon fill="white" stroke="red" points="1362,-224.5 1362,-243.5 1415,-243.5 1415,-224.5 1362,-224.5"/>
<text text-anchor="middle" x="1388.5" y="-231.5" font-family="Helvetica,sans-Serif" font-size="10.00">comp.h</text>
</a>
</g>
</g>
<!-- Node67&#45;&gt;Node111 -->
<g id="edge50" class="edge">
<title>Node67&#45;&gt;Node111</title>
<path fill="none" stroke="midnightblue" d="M1749.6,-285.34C1678.61,-279.34 1539.81,-265.87 1423.5,-244 1420.79,-243.49 1417.97,-242.89 1415.17,-242.24"/>
<polygon fill="midnightblue" stroke="midnightblue" points="1749.73,-288.86 1759.99,-286.2 1750.31,-281.88 1749.73,-288.86"/>
</g>
<!-- Node156 -->
<g id="node41" class="node">
<title>Node156</title>
<g id="a_node41"><a xlink:href="api_2spec_2cpu_8h.html" target="_top" xlink:title=" ">
<polygon fill="white" stroke="red" points="1433,-224.5 1433,-243.5 1476,-243.5 1476,-224.5 1433,-224.5"/>
<text text-anchor="middle" x="1454.5" y="-231.5" font-family="Helvetica,sans-Serif" font-size="10.00">cpu.h</text>
</a>
</g>
</g>
<!-- Node67&#45;&gt;Node156 -->
<g id="edge51" class="edge">
<title>Node67&#45;&gt;Node156</title>
<path fill="none" stroke="midnightblue" d="M1749.53,-284.42C1688.13,-277.93 1577.45,-264.53 1484.5,-244 1481.74,-243.39 1478.86,-242.66 1476.03,-241.88"/>
<polygon fill="midnightblue" stroke="midnightblue" points="1749.37,-287.92 1759.68,-285.48 1750.09,-280.96 1749.37,-287.92"/>
</g>
<!-- Node113 -->
<g id="node42" class="node">
<title>Node113</title>
<g id="a_node42"><a xlink:href="api_2spec_2crypto_8h.html" target="_top" xlink:title=" ">
<polygon fill="white" stroke="black" points="2439.5,-224.5 2439.5,-243.5 2495.5,-243.5 2495.5,-224.5 2439.5,-224.5"/>
<text text-anchor="middle" x="2467.5" y="-231.5" font-family="Helvetica,sans-Serif" font-size="10.00">crypto.h</text>
</a>
</g>
</g>
<!-- Node67&#45;&gt;Node113 -->
<g id="edge52" class="edge">
<title>Node67&#45;&gt;Node113</title>
<path fill="none" stroke="midnightblue" d="M1843.45,-287.88C1948.31,-284.89 2209.37,-274.73 2425.5,-244 2429.93,-243.37 2434.59,-242.54 2439.13,-241.64"/>
<polygon fill="midnightblue" stroke="midnightblue" points="1843.1,-284.39 1833.2,-288.16 1843.3,-291.39 1843.1,-284.39"/>
</g>
<!-- Node115 -->
<g id="node43" class="node">
<title>Node115</title>
<g id="a_node43"><a xlink:href="api_2spec_2dma__types_8h.html" target="_top" xlink:title=" ">
<polygon fill="white" stroke="red" points="1601.5,-224.5 1601.5,-243.5 1681.5,-243.5 1681.5,-224.5 1601.5,-224.5"/>
<text text-anchor="middle" x="1641.5" y="-231.5" font-family="Helvetica,sans-Serif" font-size="10.00">dma_types.h</text>
</a>
</g>
</g>
<!-- Node67&#45;&gt;Node115 -->
<g id="edge54" class="edge">
<title>Node67&#45;&gt;Node115</title>
<path fill="none" stroke="midnightblue" d="M1762.17,-277.04C1733,-266.88 1691.86,-252.55 1665.95,-243.52"/>
<polygon fill="midnightblue" stroke="midnightblue" points="1761.34,-280.46 1771.94,-280.44 1763.65,-273.85 1761.34,-280.46"/>
</g>
<!-- Node158 -->
<g id="node44" class="node">
<title>Node158</title>
<g id="a_node44"><a xlink:href="api_2spec_2hash_8h.html" target="_top" xlink:title=" ">
<polygon fill="white" stroke="red" points="1700,-224.5 1700,-243.5 1749,-243.5 1749,-224.5 1700,-224.5"/>
<text text-anchor="middle" x="1724.5" y="-231.5" font-family="Helvetica,sans-Serif" font-size="10.00">hash.h</text>
</a>
</g>
</g>
<!-- Node67&#45;&gt;Node158 -->
<g id="edge55" class="edge">
<title>Node67&#45;&gt;Node158</title>
<path fill="none" stroke="midnightblue" d="M1776.63,-274.1C1763.68,-264.38 1747.2,-252.03 1736.28,-243.83"/>
<polygon fill="midnightblue" stroke="midnightblue" points="1774.83,-277.12 1784.93,-280.32 1779.03,-271.52 1774.83,-277.12"/>
</g>
<!-- Node106 -->
<g id="node45" class="node">
<title>Node106</title>
<g id="a_node45"><a xlink:href="api_2spec_2packet_8h.html" target="_top" xlink:title=" ">
<polygon fill="white" stroke="red" points="1767.5,-224.5 1767.5,-243.5 1825.5,-243.5 1825.5,-224.5 1767.5,-224.5"/>
<text text-anchor="middle" x="1796.5" y="-231.5" font-family="Helvetica,sans-Serif" font-size="10.00">packet.h</text>
</a>
</g>
</g>
<!-- Node67&#45;&gt;Node106 -->
<g id="edge58" class="edge">
<title>Node67&#45;&gt;Node106</title>
<path fill="none" stroke="midnightblue" d="M1796.5,-269.8C1796.5,-260.91 1796.5,-250.78 1796.5,-243.75"/>
<polygon fill="midnightblue" stroke="midnightblue" points="1793,-270.08 1796.5,-280.08 1800,-270.08 1793,-270.08"/>
</g>
<!-- Node129 -->
<g id="node46" class="node">
<title>Node129</title>
<g id="a_node46"><a xlink:href="api_2spec_2packet__flags_8h.html" target="_top" xlink:title=" ">
<polygon fill="white" stroke="red" points="1843.5,-224.5 1843.5,-243.5 1929.5,-243.5 1929.5,-224.5 1843.5,-224.5"/>
<text text-anchor="middle" x="1886.5" y="-231.5" font-family="Helvetica,sans-Serif" font-size="10.00">packet_flags.h</text>
</a>
</g>
</g>
<!-- Node67&#45;&gt;Node129 -->
<g id="edge59" class="edge">
<title>Node67&#45;&gt;Node129</title>
<path fill="none" stroke="midnightblue" d="M1819.54,-275.18C1836.1,-265.24 1857.92,-252.15 1872.08,-243.65"/>
<polygon fill="midnightblue" stroke="midnightblue" points="1817.73,-272.18 1810.96,-280.32 1821.34,-278.18 1817.73,-272.18"/>
</g>
<!-- Node101 -->
<g id="node47" class="node">
<title>Node101</title>
<g id="a_node47"><a xlink:href="api_2spec_2packet__io__types_8h.html" target="_top" xlink:title=" ">
<polygon fill="white" stroke="red" points="1947.5,-224.5 1947.5,-243.5 2051.5,-243.5 2051.5,-224.5 1947.5,-224.5"/>
<text text-anchor="middle" x="1999.5" y="-231.5" font-family="Helvetica,sans-Serif" font-size="10.00">packet_io_types.h</text>
</a>
</g>
</g>
<!-- Node67&#45;&gt;Node101 -->
<g id="edge60" class="edge">
<title>Node67&#45;&gt;Node101</title>
<path fill="none" stroke="midnightblue" d="M1838.49,-277.83C1876.82,-267.63 1932.65,-252.78 1967.48,-243.52"/>
<polygon fill="midnightblue" stroke="midnightblue" points="1837.43,-274.49 1828.67,-280.44 1839.23,-281.26 1837.43,-274.49"/>
</g>
<!-- Node123 -->
<g id="node48" class="node">
<title>Node123</title>
<g id="a_node48"><a xlink:href="api_2spec_2pool_8h.html" target="_top" xlink:title=" ">
<polygon fill="white" stroke="red" points="2070,-224.5 2070,-243.5 2117,-243.5 2117,-224.5 2070,-224.5"/>
<text text-anchor="middle" x="2093.5" y="-231.5" font-family="Helvetica,sans-Serif" font-size="10.00">pool.h</text>
</a>
</g>
</g>
<!-- Node67&#45;&gt;Node123 -->
<g id="edge61" class="edge">
<title>Node67&#45;&gt;Node123</title>
<path fill="none" stroke="midnightblue" d="M1843.11,-282.46C1896.07,-274.7 1984.95,-260.7 2060.5,-244 2063.52,-243.33 2066.67,-242.57 2069.78,-241.77"/>
<polygon fill="midnightblue" stroke="midnightblue" points="1842.41,-279.02 1833.02,-283.93 1843.41,-285.95 1842.41,-279.02"/>
</g>
<!-- Node119 -->
<g id="node49" class="node">
<title>Node119</title>
<g id="a_node49"><a xlink:href="api_2spec_2pool__types_8h.html" target="_top" xlink:title=" ">
<polygon fill="white" stroke="red" points="2135,-224.5 2135,-243.5 2214,-243.5 2214,-224.5 2135,-224.5"/>
<text text-anchor="middle" x="2174.5" y="-231.5" font-family="Helvetica,sans-Serif" font-size="10.00">pool_types.h</text>
</a>
</g>
</g>
<!-- Node67&#45;&gt;Node119 -->
<g id="edge62" class="edge">
<title>Node67&#45;&gt;Node119</title>
<path fill="none" stroke="midnightblue" d="M1843.25,-283.29C1907.12,-275.33 2025.2,-260.06 2125.5,-244 2128.57,-243.51 2131.75,-242.98 2134.95,-242.43"/>
<polygon fill="midnightblue" stroke="midnightblue" points="1842.59,-279.84 1833.09,-284.55 1843.45,-286.79 1842.59,-279.84"/>
</g>
<!-- Node160 -->
<g id="node50" class="node">
<title>Node160</title>
<g id="a_node50"><a xlink:href="api_2spec_2proto__stats__types_8h.html" target="_top" xlink:title=" ">
<polygon fill="white" stroke="red" points="2232,-224.5 2232,-243.5 2345,-243.5 2345,-224.5 2232,-224.5"/>
<text text-anchor="middle" x="2288.5" y="-231.5" font-family="Helvetica,sans-Serif" font-size="10.00">proto_stats_types.h</text>
</a>
</g>
</g>
<!-- Node67&#45;&gt;Node160 -->
<g id="edge63" class="edge">
<title>Node67&#45;&gt;Node160</title>
<path fill="none" stroke="midnightblue" d="M1843.05,-284.55C1921.43,-276.95 2084.71,-260.67 2222.5,-244 2225.6,-243.63 2228.78,-243.23 2231.99,-242.82"/>
<polygon fill="midnightblue" stroke="midnightblue" points="1842.63,-281.07 1833.01,-285.52 1843.3,-288.04 1842.63,-281.07"/>
</g>
<!-- Node104&#45;&gt;Node19 -->
<g id="edge40" class="edge">
<title>Node104&#45;&gt;Node19</title>
<path fill="none" stroke="midnightblue" d="M2346.59,-158.86C2362.46,-123.25 2397.14,-45.45 2408.68,-19.57"/>
<polygon fill="midnightblue" stroke="midnightblue" points="2343.35,-157.52 2342.48,-168.08 2349.75,-160.37 2343.35,-157.52"/>
</g>
<!-- Node104&#45;&gt;Node105 -->
<g id="edge39" class="edge">
<title>Node104&#45;&gt;Node105</title>
<path fill="none" stroke="midnightblue" d="M2358.53,-162.38C2371.91,-152.62 2389.06,-140.11 2400.39,-131.83"/>
<polygon fill="midnightblue" stroke="midnightblue" points="2356.4,-159.6 2350.39,-168.32 2360.53,-165.26 2356.4,-159.6"/>
</g>
<!-- Node114&#45;&gt;Node19 -->
<g id="edge43" class="edge">
<title>Node114&#45;&gt;Node19</title>
<path fill="none" stroke="midnightblue" d="M2461.59,-158.51C2457.42,-145.49 2451.67,-127.66 2446.5,-112 2435.2,-77.74 2421.39,-37.07 2415.45,-19.63"/>
<polygon fill="midnightblue" stroke="midnightblue" points="2458.3,-159.7 2464.68,-168.16 2464.97,-157.57 2458.3,-159.7"/>
</g>
<!-- Node114&#45;&gt;Node105 -->
<g id="edge42" class="edge">
<title>Node114&#45;&gt;Node105</title>
<path fill="none" stroke="midnightblue" d="M2451.21,-161C2441.46,-151.43 2429.45,-139.64 2421.41,-131.75"/>
<polygon fill="midnightblue" stroke="midnightblue" points="2448.83,-163.57 2458.42,-168.08 2453.73,-158.58 2448.83,-163.57"/>
</g>
<!-- Node153&#45;&gt;Node19 -->
<g id="edge45" class="edge">
<title>Node153&#45;&gt;Node19</title>
<path fill="none" stroke="midnightblue" d="M2726.33,-107.5C2699.48,-92.99 2654.51,-70.12 2613.5,-56 2555.51,-36.03 2485.01,-22.62 2444.79,-15.95"/>
<polygon fill="midnightblue" stroke="midnightblue" points="2724.9,-110.71 2735.36,-112.43 2728.26,-104.57 2724.9,-110.71"/>
</g>
<!-- Node103&#45;&gt;Node104 -->
<g id="edge49" class="edge">
<title>Node103&#45;&gt;Node104</title>
<path fill="none" stroke="midnightblue" d="M1593.3,-224.04C1865.23,-193.75 2179.15,-183.13 2293.79,-180.06"/>
<polygon fill="midnightblue" stroke="midnightblue" points="1592.78,-220.58 1583.24,-225.17 1593.57,-227.53 1592.78,-220.58"/>
</g>
<!-- Node113&#45;&gt;Node114 -->
<g id="edge53" class="edge">
<title>Node113&#45;&gt;Node114</title>
<path fill="none" stroke="midnightblue" d="M2467.5,-213.8C2467.5,-204.91 2467.5,-194.78 2467.5,-187.75"/>
<polygon fill="midnightblue" stroke="midnightblue" points="2464,-214.08 2467.5,-224.08 2471,-214.08 2464,-214.08"/>
</g>
</g>
</svg>
