<?xml version="1.0" encoding="UTF-8" standalone="no"?>
<!DOCTYPE svg PUBLIC "-//W3C//DTD SVG 1.1//EN"
 "http://www.w3.org/Graphics/SVG/1.1/DTD/svg11.dtd">
<!-- Generated by graphviz version 2.43.0 (0)
 -->
<!-- Title: ticketlock.h Pages: 1 -->
<svg width="536pt" height="196pt"
 viewBox="0.00 0.00 536.00 196.00" xmlns="http://www.w3.org/2000/svg" xmlns:xlink="http://www.w3.org/1999/xlink">
<g id="graph0" class="graph" transform="scale(1 1) rotate(0) translate(4 192)">
<title>ticketlock.h</title>
<polygon fill="white" stroke="transparent" points="-4,4 -4,-192 532,-192 532,4 -4,4"/>
<!-- Node1 -->
<g id="node1" class="node">
<title>Node1</title>
<g id="a_node1"><a xlink:title=" ">
<polygon fill="#bfbfbf" stroke="black" points="227,-168.5 227,-187.5 300,-187.5 300,-168.5 227,-168.5"/>
<text text-anchor="middle" x="263.5" y="-175.5" font-family="Helvetica,sans-Serif" font-size="10.00">ticketlock.h</text>
</a>
</g>
</g>
<!-- Node2 -->
<g id="node2" class="node">
<title>Node2</title>
<g id="a_node2"><a xlink:href="arch_2arm32-linux_2odp_2api_2abi_2ticketlock_8h_source.html" target="_top" xlink:title=" ">
<polygon fill="white" stroke="black" points="0,-112.5 0,-131.5 73,-131.5 73,-112.5 0,-112.5"/>
<text text-anchor="middle" x="36.5" y="-119.5" font-family="Helvetica,sans-Serif" font-size="10.00">ticketlock.h</text>
</a>
</g>
</g>
<!-- Node1&#45;&gt;Node2 -->
<g id="edge1" class="edge">
<title>Node1&#45;&gt;Node2</title>
<path fill="none" stroke="midnightblue" d="M217.63,-166.09C174.75,-155.89 111.58,-140.86 72.3,-131.52"/>
<polygon fill="midnightblue" stroke="midnightblue" points="216.99,-169.53 227.53,-168.44 218.61,-162.72 216.99,-169.53"/>
</g>
<!-- Node3 -->
<g id="node3" class="node">
<title>Node3</title>
<g id="a_node3"><a xlink:href="arch_2arm64-linux_2odp_2api_2abi_2ticketlock_8h_source.html" target="_top" xlink:title=" ">
<polygon fill="white" stroke="black" points="91,-112.5 91,-131.5 164,-131.5 164,-112.5 91,-112.5"/>
<text text-anchor="middle" x="127.5" y="-119.5" font-family="Helvetica,sans-Serif" font-size="10.00">ticketlock.h</text>
</a>
</g>
</g>
<!-- Node1&#45;&gt;Node3 -->
<g id="edge2" class="edge">
<title>Node1&#45;&gt;Node3</title>
<path fill="none" stroke="midnightblue" d="M232.37,-164.64C206.84,-154.5 171.39,-140.43 148.95,-131.52"/>
<polygon fill="midnightblue" stroke="midnightblue" points="231.36,-168.01 241.95,-168.44 233.95,-161.5 231.36,-168.01"/>
</g>
<!-- Node4 -->
<g id="node4" class="node">
<title>Node4</title>
<g id="a_node4"><a xlink:href="arch_2default-linux_2odp_2api_2abi_2ticketlock_8h_source.html" target="_top" xlink:title=" ">
<polygon fill="white" stroke="black" points="182,-112.5 182,-131.5 255,-131.5 255,-112.5 182,-112.5"/>
<text text-anchor="middle" x="218.5" y="-119.5" font-family="Helvetica,sans-Serif" font-size="10.00">ticketlock.h</text>
</a>
</g>
</g>
<!-- Node1&#45;&gt;Node4 -->
<g id="edge3" class="edge">
<title>Node1&#45;&gt;Node4</title>
<path fill="none" stroke="midnightblue" d="M249.45,-160.14C241.61,-150.74 232.17,-139.4 225.79,-131.75"/>
<polygon fill="midnightblue" stroke="midnightblue" points="246.98,-162.64 256.07,-168.08 252.36,-158.16 246.98,-162.64"/>
</g>
<!-- Node5 -->
<g id="node5" class="node">
<title>Node5</title>
<g id="a_node5"><a xlink:href="arch_2power64-linux_2odp_2api_2abi_2ticketlock_8h_source.html" target="_top" xlink:title=" ">
<polygon fill="white" stroke="black" points="273,-112.5 273,-131.5 346,-131.5 346,-112.5 273,-112.5"/>
<text text-anchor="middle" x="309.5" y="-119.5" font-family="Helvetica,sans-Serif" font-size="10.00">ticketlock.h</text>
</a>
</g>
</g>
<!-- Node1&#45;&gt;Node5 -->
<g id="edge4" class="edge">
<title>Node1&#45;&gt;Node5</title>
<path fill="none" stroke="midnightblue" d="M277.61,-160.43C285.68,-150.97 295.46,-139.48 302.05,-131.75"/>
<polygon fill="midnightblue" stroke="midnightblue" points="274.92,-158.2 271.1,-168.08 280.25,-162.74 274.92,-158.2"/>
</g>
<!-- Node6 -->
<g id="node6" class="node">
<title>Node6</title>
<g id="a_node6"><a xlink:href="arch_2x86__32-linux_2odp_2api_2abi_2ticketlock_8h_source.html" target="_top" xlink:title=" ">
<polygon fill="white" stroke="black" points="364,-112.5 364,-131.5 437,-131.5 437,-112.5 364,-112.5"/>
<text text-anchor="middle" x="400.5" y="-119.5" font-family="Helvetica,sans-Serif" font-size="10.00">ticketlock.h</text>
</a>
</g>
</g>
<!-- Node1&#45;&gt;Node6 -->
<g id="edge5" class="edge">
<title>Node1&#45;&gt;Node6</title>
<path fill="none" stroke="midnightblue" d="M294.52,-164.77C320.26,-154.63 356.19,-140.47 378.89,-131.52"/>
<polygon fill="midnightblue" stroke="midnightblue" points="293.23,-161.52 285.21,-168.44 295.79,-168.03 293.23,-161.52"/>
</g>
<!-- Node7 -->
<g id="node7" class="node">
<title>Node7</title>
<g id="a_node7"><a xlink:href="arch_2x86__64-linux_2odp_2api_2abi_2ticketlock_8h_source.html" target="_top" xlink:title=" ">
<polygon fill="white" stroke="black" points="455,-112.5 455,-131.5 528,-131.5 528,-112.5 455,-112.5"/>
<text text-anchor="middle" x="491.5" y="-119.5" font-family="Helvetica,sans-Serif" font-size="10.00">ticketlock.h</text>
</a>
</g>
</g>
<!-- Node1&#45;&gt;Node7 -->
<g id="edge6" class="edge">
<title>Node1&#45;&gt;Node7</title>
<path fill="none" stroke="midnightblue" d="M309.57,-166.09C352.65,-155.89 416.09,-140.86 455.54,-131.52"/>
<polygon fill="midnightblue" stroke="midnightblue" points="308.55,-162.73 299.63,-168.44 310.16,-169.54 308.55,-162.73"/>
</g>
<!-- Node8 -->
<g id="node8" class="node">
<title>Node8</title>
<g id="a_node8"><a xlink:href="api_2ticketlock_8h.html" target="_top" xlink:title=" ">
<polygon fill="white" stroke="black" points="455,-56.5 455,-75.5 528,-75.5 528,-56.5 455,-56.5"/>
<text text-anchor="middle" x="491.5" y="-63.5" font-family="Helvetica,sans-Serif" font-size="10.00">ticketlock.h</text>
</a>
</g>
</g>
<!-- Node7&#45;&gt;Node8 -->
<g id="edge7" class="edge">
<title>Node7&#45;&gt;Node8</title>
<path fill="none" stroke="midnightblue" d="M491.5,-101.8C491.5,-92.91 491.5,-82.78 491.5,-75.75"/>
<polygon fill="midnightblue" stroke="midnightblue" points="488,-102.08 491.5,-112.08 495,-102.08 488,-102.08"/>
</g>
<!-- Node9 -->
<g id="node9" class="node">
<title>Node9</title>
<g id="a_node9"><a xlink:href="odp__api_8h.html" target="_top" xlink:title=" ">
<polygon fill="white" stroke="black" points="459.5,-0.5 459.5,-19.5 523.5,-19.5 523.5,-0.5 459.5,-0.5"/>
<text text-anchor="middle" x="491.5" y="-7.5" font-family="Helvetica,sans-Serif" font-size="10.00">odp_api.h</text>
</a>
</g>
</g>
<!-- Node8&#45;&gt;Node9 -->
<g id="edge8" class="edge">
<title>Node8&#45;&gt;Node9</title>
<path fill="none" stroke="midnightblue" d="M491.5,-45.8C491.5,-36.91 491.5,-26.78 491.5,-19.75"/>
<polygon fill="midnightblue" stroke="midnightblue" points="488,-46.08 491.5,-56.08 495,-46.08 488,-46.08"/>
</g>
</g>
</svg>
