<?xml version="1.0" encoding="UTF-8" standalone="no"?>
<!DOCTYPE svg PUBLIC "-//W3C//DTD SVG 1.1//EN"
 "http://www.w3.org/Graphics/SVG/1.1/DTD/svg11.dtd">
<!-- Generated by graphviz version 2.43.0 (0)
 -->
<!-- Title: queue_types.h Pages: 1 -->
<svg width="513pt" height="498pt"
 viewBox="0.00 0.00 512.50 498.00" xmlns="http://www.w3.org/2000/svg" xmlns:xlink="http://www.w3.org/1999/xlink">
<g id="graph0" class="graph" transform="scale(1 1) rotate(0) translate(4 494)">
<title>queue_types.h</title>
<polygon fill="white" stroke="transparent" points="-4,4 -4,-494 508.5,-494 508.5,4 -4,4"/>
<!-- Node1 -->
<g id="node1" class="node">
<title>Node1</title>
<g id="a_node1"><a xlink:title=" ">
<polygon fill="#bfbfbf" stroke="black" points="101.5,-470.5 101.5,-489.5 189.5,-489.5 189.5,-470.5 101.5,-470.5"/>
<text text-anchor="middle" x="145.5" y="-477.5" font-family="Helvetica,sans-Serif" font-size="10.00">queue_types.h</text>
</a>
</g>
</g>
<!-- Node2 -->
<g id="node2" class="node">
<title>Node2</title>
<g id="a_node2"><a xlink:title=" ">
<polygon fill="white" stroke="#bfbfbf" points="0,-409 0,-428 145,-428 145,-409 0,-409"/>
<text text-anchor="middle" x="72.5" y="-416" font-family="Helvetica,sans-Serif" font-size="10.00">odp/api/abi/queue_types.h</text>
</a>
</g>
</g>
<!-- Node1&#45;&gt;Node2 -->
<g id="edge1" class="edge">
<title>Node1&#45;&gt;Node2</title>
<path fill="none" stroke="midnightblue" d="M135.04,-470.48C123.55,-461.11 104.87,-445.88 90.91,-434.51"/>
<polygon fill="midnightblue" stroke="midnightblue" points="92.9,-431.61 82.94,-428.01 88.48,-437.04 92.9,-431.61"/>
</g>
<!-- Node3 -->
<g id="node3" class="node">
<title>Node3</title>
<g id="a_node3"><a xlink:href="api_2spec_2queue__types_8h.html" target="_top" xlink:title=" ">
<polygon fill="white" stroke="black" points="163,-403.5 163,-433.5 274,-433.5 274,-403.5 163,-403.5"/>
<text text-anchor="start" x="171" y="-421.5" font-family="Helvetica,sans-Serif" font-size="10.00">odp/api/spec/queue</text>
<text text-anchor="middle" x="218.5" y="-410.5" font-family="Helvetica,sans-Serif" font-size="10.00">_types.h</text>
</a>
</g>
</g>
<!-- Node1&#45;&gt;Node3 -->
<g id="edge2" class="edge">
<title>Node1&#45;&gt;Node3</title>
<path fill="none" stroke="midnightblue" d="M155.96,-470.48C165.66,-462.57 180.49,-450.48 193.27,-440.07"/>
<polygon fill="midnightblue" stroke="midnightblue" points="195.76,-442.55 201.3,-433.52 191.33,-437.13 195.76,-442.55"/>
</g>
<!-- Node4 -->
<g id="node4" class="node">
<title>Node4</title>
<g id="a_node4"><a xlink:href="visibility__begin_8h_source.html" target="_top" xlink:title=" ">
<polygon fill="white" stroke="black" points="53,-0.5 53,-19.5 174,-19.5 174,-0.5 53,-0.5"/>
<text text-anchor="middle" x="113.5" y="-7.5" font-family="Helvetica,sans-Serif" font-size="10.00">odp/visibility_begin.h</text>
</a>
</g>
</g>
<!-- Node3&#45;&gt;Node4 -->
<g id="edge3" class="edge">
<title>Node3&#45;&gt;Node4</title>
<path fill="none" stroke="midnightblue" d="M168.57,-403.38C120.97,-386.51 56.5,-353.19 56.5,-296.5 56.5,-296.5 56.5,-296.5 56.5,-121 56.5,-84.3 81.82,-47.66 98.71,-27.3"/>
<polygon fill="midnightblue" stroke="midnightblue" points="101.45,-29.48 105.33,-19.62 96.15,-24.9 101.45,-29.48"/>
</g>
<!-- Node5 -->
<g id="node5" class="node">
<title>Node5</title>
<g id="a_node5"><a xlink:href="api_2schedule__types_8h.html" target="_top" xlink:title=" ">
<polygon fill="white" stroke="black" points="148.5,-347.5 148.5,-366.5 288.5,-366.5 288.5,-347.5 148.5,-347.5"/>
<text text-anchor="middle" x="218.5" y="-354.5" font-family="Helvetica,sans-Serif" font-size="10.00">odp/api/schedule_types.h</text>
</a>
</g>
</g>
<!-- Node3&#45;&gt;Node5 -->
<g id="edge4" class="edge">
<title>Node3&#45;&gt;Node5</title>
<path fill="none" stroke="midnightblue" d="M218.5,-403.4C218.5,-395.47 218.5,-385.46 218.5,-376.86"/>
<polygon fill="midnightblue" stroke="midnightblue" points="222,-376.66 218.5,-366.66 215,-376.66 222,-376.66"/>
</g>
<!-- Node15 -->
<g id="node15" class="node">
<title>Node15</title>
<g id="a_node15"><a xlink:href="visibility__end_8h_source.html" target="_top" xlink:title=" ">
<polygon fill="white" stroke="black" points="391.5,-0.5 391.5,-19.5 503.5,-19.5 503.5,-0.5 391.5,-0.5"/>
<text text-anchor="middle" x="447.5" y="-7.5" font-family="Helvetica,sans-Serif" font-size="10.00">odp/visibility_end.h</text>
</a>
</g>
</g>
<!-- Node3&#45;&gt;Node15 -->
<g id="edge20" class="edge">
<title>Node3&#45;&gt;Node15</title>
<path fill="none" stroke="midnightblue" d="M274.32,-417.69C357.55,-414.71 504.5,-395.43 504.5,-296.5 504.5,-296.5 504.5,-296.5 504.5,-121 504.5,-84.3 479.18,-47.66 462.29,-27.3"/>
<polygon fill="midnightblue" stroke="midnightblue" points="464.85,-24.9 455.67,-19.62 459.55,-29.48 464.85,-24.9"/>
</g>
<!-- Node6 -->
<g id="node6" class="node">
<title>Node6</title>
<g id="a_node6"><a xlink:title=" ">
<polygon fill="white" stroke="#bfbfbf" points="115,-280.5 115,-310.5 232,-310.5 232,-280.5 115,-280.5"/>
<text text-anchor="start" x="123" y="-298.5" font-family="Helvetica,sans-Serif" font-size="10.00">odp/api/abi/schedule</text>
<text text-anchor="middle" x="173.5" y="-287.5" font-family="Helvetica,sans-Serif" font-size="10.00">_types.h</text>
</a>
</g>
</g>
<!-- Node5&#45;&gt;Node6 -->
<g id="edge5" class="edge">
<title>Node5&#45;&gt;Node6</title>
<path fill="none" stroke="midnightblue" d="M212.05,-347.48C206.36,-339.94 197.8,-328.63 190.19,-318.57"/>
<polygon fill="midnightblue" stroke="midnightblue" points="192.93,-316.39 184.11,-310.52 187.35,-320.61 192.93,-316.39"/>
</g>
<!-- Node7 -->
<g id="node7" class="node">
<title>Node7</title>
<g id="a_node7"><a xlink:href="api_2spec_2schedule__types_8h.html" target="_top" xlink:title=" ">
<polygon fill="white" stroke="black" points="250,-280.5 250,-310.5 375,-310.5 375,-280.5 250,-280.5"/>
<text text-anchor="start" x="258" y="-298.5" font-family="Helvetica,sans-Serif" font-size="10.00">odp/api/spec/schedule</text>
<text text-anchor="middle" x="312.5" y="-287.5" font-family="Helvetica,sans-Serif" font-size="10.00">_types.h</text>
</a>
</g>
</g>
<!-- Node5&#45;&gt;Node7 -->
<g id="edge6" class="edge">
<title>Node5&#45;&gt;Node7</title>
<path fill="none" stroke="midnightblue" d="M231.97,-347.48C244.94,-339.27 265.01,-326.56 281.88,-315.88"/>
<polygon fill="midnightblue" stroke="midnightblue" points="283.77,-318.83 290.35,-310.52 280.02,-312.91 283.77,-318.83"/>
</g>
<!-- Node7&#45;&gt;Node4 -->
<g id="edge7" class="edge">
<title>Node7&#45;&gt;Node4</title>
<path fill="none" stroke="midnightblue" d="M267.07,-280.46C203.18,-259.33 94.5,-217.71 94.5,-179 94.5,-179 94.5,-179 94.5,-121 94.5,-88.49 102.66,-51.35 108.28,-29.61"/>
<polygon fill="midnightblue" stroke="midnightblue" points="111.72,-30.32 110.94,-19.75 104.96,-28.5 111.72,-30.32"/>
</g>
<!-- Node8 -->
<g id="node8" class="node">
<title>Node8</title>
<g id="a_node8"><a xlink:href="api_2std__types_8h.html" target="_top" xlink:title=" ">
<polygon fill="white" stroke="black" points="256.5,-224.5 256.5,-243.5 368.5,-243.5 368.5,-224.5 256.5,-224.5"/>
<text text-anchor="middle" x="312.5" y="-231.5" font-family="Helvetica,sans-Serif" font-size="10.00">odp/api/std_types.h</text>
</a>
</g>
</g>
<!-- Node7&#45;&gt;Node8 -->
<g id="edge8" class="edge">
<title>Node7&#45;&gt;Node8</title>
<path fill="none" stroke="midnightblue" d="M312.5,-280.4C312.5,-272.47 312.5,-262.46 312.5,-253.86"/>
<polygon fill="midnightblue" stroke="midnightblue" points="316,-253.66 312.5,-243.66 309,-253.66 316,-253.66"/>
</g>
<!-- Node7&#45;&gt;Node15 -->
<g id="edge19" class="edge">
<title>Node7&#45;&gt;Node15</title>
<path fill="none" stroke="midnightblue" d="M361.65,-280.36C406.72,-264.02 466.5,-232.31 466.5,-179 466.5,-179 466.5,-179 466.5,-121 466.5,-88.49 458.34,-51.35 452.72,-29.61"/>
<polygon fill="midnightblue" stroke="midnightblue" points="456.04,-28.5 450.06,-19.75 449.28,-30.32 456.04,-28.5"/>
</g>
<!-- Node9 -->
<g id="node9" class="node">
<title>Node9</title>
<g id="a_node9"><a xlink:title=" ">
<polygon fill="white" stroke="#bfbfbf" points="123.5,-168.5 123.5,-187.5 253.5,-187.5 253.5,-168.5 123.5,-168.5"/>
<text text-anchor="middle" x="188.5" y="-175.5" font-family="Helvetica,sans-Serif" font-size="10.00">odp/api/abi/std_types.h</text>
</a>
</g>
</g>
<!-- Node8&#45;&gt;Node9 -->
<g id="edge9" class="edge">
<title>Node8&#45;&gt;Node9</title>
<path fill="none" stroke="midnightblue" d="M292.85,-224.44C272.54,-215.6 240.6,-201.69 217.4,-191.59"/>
<polygon fill="midnightblue" stroke="midnightblue" points="218.62,-188.3 208.06,-187.52 215.83,-194.72 218.62,-188.3"/>
</g>
<!-- Node10 -->
<g id="node10" class="node">
<title>Node10</title>
<g id="a_node10"><a xlink:href="api_2spec_2std__types_8h.html" target="_top" xlink:title=" ">
<polygon fill="white" stroke="black" points="272,-168.5 272,-187.5 409,-187.5 409,-168.5 272,-168.5"/>
<text text-anchor="middle" x="340.5" y="-175.5" font-family="Helvetica,sans-Serif" font-size="10.00">odp/api/spec/std_types.h</text>
</a>
</g>
</g>
<!-- Node8&#45;&gt;Node10 -->
<g id="edge10" class="edge">
<title>Node8&#45;&gt;Node10</title>
<path fill="none" stroke="midnightblue" d="M317.12,-224.08C320.96,-216.69 326.52,-205.95 331.26,-196.81"/>
<polygon fill="midnightblue" stroke="midnightblue" points="334.47,-198.24 335.96,-187.75 328.25,-195.02 334.47,-198.24"/>
</g>
<!-- Node10&#45;&gt;Node4 -->
<g id="edge11" class="edge">
<title>Node10&#45;&gt;Node4</title>
<path fill="none" stroke="midnightblue" d="M307.48,-168.45C281.86,-161 246.03,-148.75 217.5,-132 184.62,-112.69 177.07,-105.16 152.5,-76 140.2,-61.4 129.32,-42.48 122.2,-28.82"/>
<polygon fill="midnightblue" stroke="midnightblue" points="125.16,-26.91 117.52,-19.56 118.91,-30.07 125.16,-26.91"/>
</g>
<!-- Node11 -->
<g id="node11" class="node">
<title>Node11</title>
<g id="a_node11"><a xlink:title=" ">
<polygon fill="white" stroke="#bfbfbf" points="226,-112.5 226,-131.5 279,-131.5 279,-112.5 226,-112.5"/>
<text text-anchor="middle" x="252.5" y="-119.5" font-family="Helvetica,sans-Serif" font-size="10.00">stdint.h</text>
</a>
</g>
</g>
<!-- Node10&#45;&gt;Node11 -->
<g id="edge12" class="edge">
<title>Node10&#45;&gt;Node11</title>
<path fill="none" stroke="midnightblue" d="M326.36,-168.32C312.63,-159.9 291.56,-146.97 275.44,-137.07"/>
<polygon fill="midnightblue" stroke="midnightblue" points="276.96,-133.9 266.6,-131.65 273.3,-139.87 276.96,-133.9"/>
</g>
<!-- Node12 -->
<g id="node12" class="node">
<title>Node12</title>
<g id="a_node12"><a xlink:href="api_2align_8h.html" target="_top" xlink:title=" ">
<polygon fill="white" stroke="black" points="297,-112.5 297,-131.5 386,-131.5 386,-112.5 297,-112.5"/>
<text text-anchor="middle" x="341.5" y="-119.5" font-family="Helvetica,sans-Serif" font-size="10.00">odp/api/align.h</text>
</a>
</g>
</g>
<!-- Node10&#45;&gt;Node12 -->
<g id="edge13" class="edge">
<title>Node10&#45;&gt;Node12</title>
<path fill="none" stroke="midnightblue" d="M340.67,-168.08C340.8,-161.01 340.98,-150.86 341.15,-141.99"/>
<polygon fill="midnightblue" stroke="midnightblue" points="344.65,-141.81 341.34,-131.75 337.65,-141.68 344.65,-141.81"/>
</g>
<!-- Node10&#45;&gt;Node15 -->
<g id="edge18" class="edge">
<title>Node10&#45;&gt;Node15</title>
<path fill="none" stroke="midnightblue" d="M354.29,-168.49C366.49,-160.38 384.07,-147.18 395.5,-132 419.82,-99.7 435.35,-54.29 442.64,-29.29"/>
<polygon fill="midnightblue" stroke="midnightblue" points="446.01,-30.22 445.33,-19.64 439.27,-28.34 446.01,-30.22"/>
</g>
<!-- Node13 -->
<g id="node13" class="node">
<title>Node13</title>
<g id="a_node13"><a xlink:title=" ">
<polygon fill="white" stroke="#bfbfbf" points="161,-56.5 161,-75.5 268,-75.5 268,-56.5 161,-56.5"/>
<text text-anchor="middle" x="214.5" y="-63.5" font-family="Helvetica,sans-Serif" font-size="10.00">odp/api/abi/align.h</text>
</a>
</g>
</g>
<!-- Node12&#45;&gt;Node13 -->
<g id="edge14" class="edge">
<title>Node12&#45;&gt;Node13</title>
<path fill="none" stroke="midnightblue" d="M321.38,-112.44C300.48,-103.56 267.57,-89.56 243.78,-79.45"/>
<polygon fill="midnightblue" stroke="midnightblue" points="245.1,-76.21 234.53,-75.52 242.36,-82.65 245.1,-76.21"/>
</g>
<!-- Node14 -->
<g id="node14" class="node">
<title>Node14</title>
<g id="a_node14"><a xlink:href="api_2spec_2align_8h.html" target="_top" xlink:title=" ">
<polygon fill="white" stroke="black" points="286.5,-56.5 286.5,-75.5 400.5,-75.5 400.5,-56.5 286.5,-56.5"/>
<text text-anchor="middle" x="343.5" y="-63.5" font-family="Helvetica,sans-Serif" font-size="10.00">odp/api/spec/align.h</text>
</a>
</g>
</g>
<!-- Node12&#45;&gt;Node14 -->
<g id="edge15" class="edge">
<title>Node12&#45;&gt;Node14</title>
<path fill="none" stroke="midnightblue" d="M341.83,-112.08C342.09,-105.01 342.47,-94.86 342.8,-85.99"/>
<polygon fill="midnightblue" stroke="midnightblue" points="346.3,-85.87 343.18,-75.75 339.31,-85.61 346.3,-85.87"/>
</g>
<!-- Node14&#45;&gt;Node4 -->
<g id="edge16" class="edge">
<title>Node14&#45;&gt;Node4</title>
<path fill="none" stroke="midnightblue" d="M307.06,-56.44C267.1,-47.06 202.91,-31.99 159.52,-21.8"/>
<polygon fill="midnightblue" stroke="midnightblue" points="160.31,-18.39 149.77,-19.52 158.71,-25.21 160.31,-18.39"/>
</g>
<!-- Node14&#45;&gt;Node15 -->
<g id="edge17" class="edge">
<title>Node14&#45;&gt;Node15</title>
<path fill="none" stroke="midnightblue" d="M360.21,-56.32C376.81,-47.7 402.5,-34.36 421.72,-24.39"/>
<polygon fill="midnightblue" stroke="midnightblue" points="423.57,-27.37 430.83,-19.65 420.34,-21.16 423.57,-27.37"/>
</g>
</g>
</svg>
