<?xml version="1.0" encoding="UTF-8" standalone="no"?>
<!DOCTYPE svg PUBLIC "-//W3C//DTD SVG 1.1//EN"
 "http://www.w3.org/Graphics/SVG/1.1/DTD/svg11.dtd">
<!-- Generated by graphviz version 2.43.0 (0)
 -->
<!-- Title: align.h Pages: 1 -->
<svg width="3100pt" height="420pt"
 viewBox="0.00 0.00 3099.50 420.00" xmlns="http://www.w3.org/2000/svg" xmlns:xlink="http://www.w3.org/1999/xlink">
<g id="graph0" class="graph" transform="scale(1 1) rotate(0) translate(4 416)">
<title>align.h</title>
<polygon fill="white" stroke="transparent" points="-4,4 -4,-416 3095.5,-416 3095.5,4 -4,4"/>
<!-- Node1 -->
<g id="node1" class="node">
<title>Node1</title>
<g id="a_node1"><a xlink:title=" ">
<polygon fill="#bfbfbf" stroke="black" points="1413.5,-392.5 1413.5,-411.5 1463.5,-411.5 1463.5,-392.5 1413.5,-392.5"/>
<text text-anchor="middle" x="1438.5" y="-399.5" font-family="Helvetica,sans-Serif" font-size="10.00">align.h</text>
</a>
</g>
</g>
<!-- Node2 -->
<g id="node2" class="node">
<title>Node2</title>
<g id="a_node2"><a xlink:href="api_2abi-default_2atomic_8h.html" target="_top" xlink:title=" ">
<polygon fill="white" stroke="black" points="269,-224.5 269,-243.5 328,-243.5 328,-224.5 269,-224.5"/>
<text text-anchor="middle" x="298.5" y="-231.5" font-family="Helvetica,sans-Serif" font-size="10.00">atomic.h</text>
</a>
</g>
</g>
<!-- Node1&#45;&gt;Node2 -->
<g id="edge1" class="edge">
<title>Node1&#45;&gt;Node2</title>
<path fill="none" stroke="midnightblue" d="M1403.37,-395.88C1232.08,-370.94 486.35,-262.35 328.09,-239.31"/>
<polygon fill="midnightblue" stroke="midnightblue" points="1402.96,-399.36 1413.36,-397.34 1403.97,-392.43 1402.96,-399.36"/>
</g>
<!-- Node18 -->
<g id="node12" class="node">
<title>Node18</title>
<g id="a_node12"><a xlink:href="odp__api_8h.html" target="_top" xlink:title=" ">
<polygon fill="white" stroke="black" points="2454.5,-0.5 2454.5,-19.5 2518.5,-19.5 2518.5,-0.5 2454.5,-0.5"/>
<text text-anchor="middle" x="2486.5" y="-7.5" font-family="Helvetica,sans-Serif" font-size="10.00">odp_api.h</text>
</a>
</g>
</g>
<!-- Node1&#45;&gt;Node18 -->
<g id="edge65" class="edge">
<title>Node1&#45;&gt;Node18</title>
<path fill="none" stroke="midnightblue" d="M1474.07,-400.55C1714.43,-397.3 3091.5,-375 3091.5,-291 3091.5,-291 3091.5,-291 3091.5,-121 3091.5,-62.22 2643.68,-23.16 2518.6,-13.4"/>
<polygon fill="midnightblue" stroke="midnightblue" points="1473.76,-397.06 1463.8,-400.69 1473.85,-404.06 1473.76,-397.06"/>
</g>
<!-- Node43 -->
<g id="node13" class="node">
<title>Node43</title>
<g id="a_node13"><a xlink:href="api_2abi-default_2cpumask_8h.html" target="_top" xlink:title=" ">
<polygon fill="white" stroke="black" points="594.5,-224.5 594.5,-243.5 664.5,-243.5 664.5,-224.5 594.5,-224.5"/>
<text text-anchor="middle" x="629.5" y="-231.5" font-family="Helvetica,sans-Serif" font-size="10.00">cpumask.h</text>
</a>
</g>
</g>
<!-- Node1&#45;&gt;Node43 -->
<g id="edge13" class="edge">
<title>Node1&#45;&gt;Node43</title>
<path fill="none" stroke="midnightblue" d="M1403.35,-393.79C1270.22,-366.47 797.86,-269.55 664.68,-242.22"/>
<polygon fill="midnightblue" stroke="midnightblue" points="1402.9,-397.27 1413.4,-395.85 1404.31,-390.41 1402.9,-397.27"/>
</g>
<!-- Node65 -->
<g id="node22" class="node">
<title>Node65</title>
<g id="a_node22"><a xlink:href="api_2spec_2std__types_8h.html" target="_top" xlink:title=" ">
<polygon fill="white" stroke="black" points="1805,-336.5 1805,-355.5 1878,-355.5 1878,-336.5 1805,-336.5"/>
<text text-anchor="middle" x="1841.5" y="-343.5" font-family="Helvetica,sans-Serif" font-size="10.00">std_types.h</text>
</a>
</g>
</g>
<!-- Node1&#45;&gt;Node65 -->
<g id="edge23" class="edge">
<title>Node1&#45;&gt;Node65</title>
<path fill="none" stroke="midnightblue" d="M1473.71,-396.28C1549.52,-386.12 1727.6,-362.26 1804.77,-351.92"/>
<polygon fill="midnightblue" stroke="midnightblue" points="1473.16,-392.82 1463.71,-397.62 1474.09,-399.76 1473.16,-392.82"/>
</g>
<!-- Node3 -->
<g id="node3" class="node">
<title>Node3</title>
<g id="a_node3"><a xlink:href="arch_2arm32-linux_2odp_2api_2abi_2atomic_8h_source.html" target="_top" xlink:title=" ">
<polygon fill="white" stroke="black" points="231,-168.5 231,-187.5 290,-187.5 290,-168.5 231,-168.5"/>
<text text-anchor="middle" x="260.5" y="-175.5" font-family="Helvetica,sans-Serif" font-size="10.00">atomic.h</text>
</a>
</g>
</g>
<!-- Node2&#45;&gt;Node3 -->
<g id="edge2" class="edge">
<title>Node2&#45;&gt;Node3</title>
<path fill="none" stroke="midnightblue" d="M286.44,-215.86C279.86,-206.5 271.99,-195.33 266.66,-187.75"/>
<polygon fill="midnightblue" stroke="midnightblue" points="283.61,-217.92 292.23,-224.08 289.33,-213.89 283.61,-217.92"/>
</g>
<!-- Node4 -->
<g id="node4" class="node">
<title>Node4</title>
<g id="a_node4"><a xlink:href="arch_2arm64-linux_2odp_2api_2abi_2atomic_8h_source.html" target="_top" xlink:title=" ">
<polygon fill="white" stroke="black" points="308,-168.5 308,-187.5 367,-187.5 367,-168.5 308,-168.5"/>
<text text-anchor="middle" x="337.5" y="-175.5" font-family="Helvetica,sans-Serif" font-size="10.00">atomic.h</text>
</a>
</g>
</g>
<!-- Node2&#45;&gt;Node4 -->
<g id="edge3" class="edge">
<title>Node2&#45;&gt;Node4</title>
<path fill="none" stroke="midnightblue" d="M310.88,-215.86C317.64,-206.5 325.71,-195.33 331.18,-187.75"/>
<polygon fill="midnightblue" stroke="midnightblue" points="307.96,-213.93 304.94,-224.08 313.63,-218.03 307.96,-213.93"/>
</g>
<!-- Node5 -->
<g id="node5" class="node">
<title>Node5</title>
<g id="a_node5"><a xlink:href="arch_2default-linux_2odp_2api_2abi_2atomic_8h_source.html" target="_top" xlink:title=" ">
<polygon fill="white" stroke="black" points="0,-168.5 0,-187.5 59,-187.5 59,-168.5 0,-168.5"/>
<text text-anchor="middle" x="29.5" y="-175.5" font-family="Helvetica,sans-Serif" font-size="10.00">atomic.h</text>
</a>
</g>
</g>
<!-- Node2&#45;&gt;Node5 -->
<g id="edge4" class="edge">
<title>Node2&#45;&gt;Node5</title>
<path fill="none" stroke="midnightblue" d="M259.01,-225.81C212.93,-217.3 134.52,-202.46 67.5,-188 64.85,-187.43 62.1,-186.82 59.35,-186.19"/>
<polygon fill="midnightblue" stroke="midnightblue" points="258.42,-229.26 268.89,-227.62 259.68,-222.37 258.42,-229.26"/>
</g>
<!-- Node6 -->
<g id="node6" class="node">
<title>Node6</title>
<g id="a_node6"><a xlink:href="arch_2power64-linux_2odp_2api_2abi_2atomic_8h_source.html" target="_top" xlink:title=" ">
<polygon fill="white" stroke="black" points="77,-168.5 77,-187.5 136,-187.5 136,-168.5 77,-168.5"/>
<text text-anchor="middle" x="106.5" y="-175.5" font-family="Helvetica,sans-Serif" font-size="10.00">atomic.h</text>
</a>
</g>
</g>
<!-- Node2&#45;&gt;Node6 -->
<g id="edge5" class="edge">
<title>Node2&#45;&gt;Node6</title>
<path fill="none" stroke="midnightblue" d="M259.11,-221.92C222.6,-211.65 169.11,-196.61 136.11,-187.33"/>
<polygon fill="midnightblue" stroke="midnightblue" points="258.35,-225.34 268.92,-224.68 260.24,-218.6 258.35,-225.34"/>
</g>
<!-- Node7 -->
<g id="node7" class="node">
<title>Node7</title>
<g id="a_node7"><a xlink:href="arch_2x86__32-linux_2odp_2api_2abi_2atomic_8h_source.html" target="_top" xlink:title=" ">
<polygon fill="white" stroke="black" points="154,-168.5 154,-187.5 213,-187.5 213,-168.5 154,-168.5"/>
<text text-anchor="middle" x="183.5" y="-175.5" font-family="Helvetica,sans-Serif" font-size="10.00">atomic.h</text>
</a>
</g>
</g>
<!-- Node2&#45;&gt;Node7 -->
<g id="edge6" class="edge">
<title>Node2&#45;&gt;Node7</title>
<path fill="none" stroke="midnightblue" d="M271.02,-220.1C249.53,-210.01 220.28,-196.27 201.64,-187.52"/>
<polygon fill="midnightblue" stroke="midnightblue" points="269.74,-223.36 280.28,-224.44 272.71,-217.02 269.74,-223.36"/>
</g>
<!-- Node8 -->
<g id="node8" class="node">
<title>Node8</title>
<g id="a_node8"><a xlink:href="arch_2x86__64-linux_2odp_2api_2abi_2atomic_8h_source.html" target="_top" xlink:title=" ">
<polygon fill="white" stroke="black" points="385,-168.5 385,-187.5 444,-187.5 444,-168.5 385,-168.5"/>
<text text-anchor="middle" x="414.5" y="-175.5" font-family="Helvetica,sans-Serif" font-size="10.00">atomic.h</text>
</a>
</g>
</g>
<!-- Node2&#45;&gt;Node8 -->
<g id="edge7" class="edge">
<title>Node2&#45;&gt;Node8</title>
<path fill="none" stroke="midnightblue" d="M326.22,-220.1C347.89,-210.01 377.4,-196.27 396.21,-187.52"/>
<polygon fill="midnightblue" stroke="midnightblue" points="324.47,-217.05 316.88,-224.44 327.42,-223.4 324.47,-217.05"/>
</g>
<!-- Node9 -->
<g id="node9" class="node">
<title>Node9</title>
<g id="a_node9"><a xlink:href="api_2atomic_8h.html" target="_top" xlink:title=" ">
<polygon fill="white" stroke="red" points="825,-112.5 825,-131.5 884,-131.5 884,-112.5 825,-112.5"/>
<text text-anchor="middle" x="854.5" y="-119.5" font-family="Helvetica,sans-Serif" font-size="10.00">atomic.h</text>
</a>
</g>
</g>
<!-- Node8&#45;&gt;Node9 -->
<g id="edge8" class="edge">
<title>Node8&#45;&gt;Node9</title>
<path fill="none" stroke="midnightblue" d="M454.19,-168.08C598.88,-143.79 759.75,-130.13 824.91,-125.15"/>
<polygon fill="midnightblue" stroke="midnightblue" points="453.51,-164.64 444.24,-169.77 454.68,-171.54 453.51,-164.64"/>
</g>
<!-- Node10 -->
<g id="node10" class="node">
<title>Node10</title>
<g id="a_node10"><a xlink:href="api_2abi-default_2barrier_8h.html" target="_top" xlink:title=" ">
<polygon fill="white" stroke="red" points="1110,-56.5 1110,-75.5 1167,-75.5 1167,-56.5 1110,-56.5"/>
<text text-anchor="middle" x="1138.5" y="-63.5" font-family="Helvetica,sans-Serif" font-size="10.00">barrier.h</text>
</a>
</g>
</g>
<!-- Node9&#45;&gt;Node10 -->
<g id="edge9" class="edge">
<title>Node9&#45;&gt;Node10</title>
<path fill="none" stroke="midnightblue" d="M893.98,-113.49C951.95,-102.47 1058.75,-82.16 1109.82,-72.45"/>
<polygon fill="midnightblue" stroke="midnightblue" points="893.26,-110.07 884.09,-115.37 894.57,-116.94 893.26,-110.07"/>
</g>
<!-- Node17 -->
<g id="node11" class="node">
<title>Node17</title>
<g id="a_node11"><a xlink:href="api_2barrier_8h.html" target="_top" xlink:title=" ">
<polygon fill="white" stroke="black" points="884,-56.5 884,-75.5 941,-75.5 941,-56.5 884,-56.5"/>
<text text-anchor="middle" x="912.5" y="-63.5" font-family="Helvetica,sans-Serif" font-size="10.00">barrier.h</text>
</a>
</g>
</g>
<!-- Node9&#45;&gt;Node17 -->
<g id="edge10" class="edge">
<title>Node9&#45;&gt;Node17</title>
<path fill="none" stroke="midnightblue" d="M871.41,-105.25C881.7,-95.67 894.47,-83.79 903.01,-75.83"/>
<polygon fill="midnightblue" stroke="midnightblue" points="868.75,-102.95 863.82,-112.32 873.52,-108.07 868.75,-102.95"/>
</g>
<!-- Node9&#45;&gt;Node18 -->
<g id="edge12" class="edge">
<title>Node9&#45;&gt;Node18</title>
<path fill="none" stroke="midnightblue" d="M854.74,-101.77C856.07,-86.71 860.57,-66.59 874.5,-56 939.69,-6.43 2232.55,-9.88 2454.28,-10.84"/>
<polygon fill="midnightblue" stroke="midnightblue" points="851.23,-101.9 854.25,-112.06 858.22,-102.24 851.23,-101.9"/>
</g>
<!-- Node17&#45;&gt;Node18 -->
<g id="edge11" class="edge">
<title>Node17&#45;&gt;Node18</title>
<path fill="none" stroke="midnightblue" d="M951.28,-62.97C989.29,-61.02 1048.87,-58.07 1100.5,-56 1641.76,-34.26 2302.24,-15.97 2454.26,-11.86"/>
<polygon fill="midnightblue" stroke="midnightblue" points="950.97,-59.48 941.16,-63.49 951.33,-66.47 950.97,-59.48"/>
</g>
<!-- Node44 -->
<g id="node14" class="node">
<title>Node44</title>
<g id="a_node14"><a xlink:href="arch_2arm32-linux_2odp_2api_2abi_2cpumask_8h_source.html" target="_top" xlink:title=" ">
<polygon fill="white" stroke="black" points="726.5,-168.5 726.5,-187.5 796.5,-187.5 796.5,-168.5 726.5,-168.5"/>
<text text-anchor="middle" x="761.5" y="-175.5" font-family="Helvetica,sans-Serif" font-size="10.00">cpumask.h</text>
</a>
</g>
</g>
<!-- Node43&#45;&gt;Node44 -->
<g id="edge14" class="edge">
<title>Node43&#45;&gt;Node44</title>
<path fill="none" stroke="midnightblue" d="M659.72,-220.64C684.49,-210.5 718.9,-196.43 740.68,-187.52"/>
<polygon fill="midnightblue" stroke="midnightblue" points="658.35,-217.42 650.42,-224.44 661,-223.9 658.35,-217.42"/>
</g>
<!-- Node45 -->
<g id="node15" class="node">
<title>Node45</title>
<g id="a_node15"><a xlink:href="arch_2arm64-linux_2odp_2api_2abi_2cpumask_8h_source.html" target="_top" xlink:title=" ">
<polygon fill="white" stroke="black" points="814.5,-168.5 814.5,-187.5 884.5,-187.5 884.5,-168.5 814.5,-168.5"/>
<text text-anchor="middle" x="849.5" y="-175.5" font-family="Helvetica,sans-Serif" font-size="10.00">cpumask.h</text>
</a>
</g>
</g>
<!-- Node43&#45;&gt;Node45 -->
<g id="edge15" class="edge">
<title>Node43&#45;&gt;Node45</title>
<path fill="none" stroke="midnightblue" d="M674.22,-222.02C715.78,-211.82 776.81,-196.84 814.8,-187.52"/>
<polygon fill="midnightblue" stroke="midnightblue" points="673.24,-218.66 664.36,-224.44 674.91,-225.46 673.24,-218.66"/>
</g>
<!-- Node46 -->
<g id="node16" class="node">
<title>Node46</title>
<g id="a_node16"><a xlink:href="arch_2default-linux_2odp_2api_2abi_2cpumask_8h_source.html" target="_top" xlink:title=" ">
<polygon fill="white" stroke="black" points="462.5,-168.5 462.5,-187.5 532.5,-187.5 532.5,-168.5 462.5,-168.5"/>
<text text-anchor="middle" x="497.5" y="-175.5" font-family="Helvetica,sans-Serif" font-size="10.00">cpumask.h</text>
</a>
</g>
</g>
<!-- Node43&#45;&gt;Node46 -->
<g id="edge16" class="edge">
<title>Node43&#45;&gt;Node46</title>
<path fill="none" stroke="midnightblue" d="M599.28,-220.64C574.51,-210.5 540.1,-196.43 518.32,-187.52"/>
<polygon fill="midnightblue" stroke="midnightblue" points="598,-223.9 608.58,-224.44 600.65,-217.42 598,-223.9"/>
</g>
<!-- Node47 -->
<g id="node17" class="node">
<title>Node47</title>
<g id="a_node17"><a xlink:href="arch_2power64-linux_2odp_2api_2abi_2cpumask_8h_source.html" target="_top" xlink:title=" ">
<polygon fill="white" stroke="black" points="550.5,-168.5 550.5,-187.5 620.5,-187.5 620.5,-168.5 550.5,-168.5"/>
<text text-anchor="middle" x="585.5" y="-175.5" font-family="Helvetica,sans-Serif" font-size="10.00">cpumask.h</text>
</a>
</g>
</g>
<!-- Node43&#45;&gt;Node47 -->
<g id="edge17" class="edge">
<title>Node43&#45;&gt;Node47</title>
<path fill="none" stroke="midnightblue" d="M615.77,-216.14C608.1,-206.74 598.87,-195.4 592.63,-187.75"/>
<polygon fill="midnightblue" stroke="midnightblue" points="613.2,-218.54 622.23,-224.08 618.63,-214.12 613.2,-218.54"/>
</g>
<!-- Node48 -->
<g id="node18" class="node">
<title>Node48</title>
<g id="a_node18"><a xlink:href="arch_2x86__32-linux_2odp_2api_2abi_2cpumask_8h_source.html" target="_top" xlink:title=" ">
<polygon fill="white" stroke="black" points="638.5,-168.5 638.5,-187.5 708.5,-187.5 708.5,-168.5 638.5,-168.5"/>
<text text-anchor="middle" x="673.5" y="-175.5" font-family="Helvetica,sans-Serif" font-size="10.00">cpumask.h</text>
</a>
</g>
</g>
<!-- Node43&#45;&gt;Node48 -->
<g id="edge18" class="edge">
<title>Node43&#45;&gt;Node48</title>
<path fill="none" stroke="midnightblue" d="M643.23,-216.14C650.9,-206.74 660.13,-195.4 666.37,-187.75"/>
<polygon fill="midnightblue" stroke="midnightblue" points="640.37,-214.12 636.77,-224.08 645.8,-218.54 640.37,-214.12"/>
</g>
<!-- Node49 -->
<g id="node19" class="node">
<title>Node49</title>
<g id="a_node19"><a xlink:href="arch_2x86__64-linux_2odp_2api_2abi_2cpumask_8h_source.html" target="_top" xlink:title=" ">
<polygon fill="white" stroke="black" points="1087.5,-168.5 1087.5,-187.5 1157.5,-187.5 1157.5,-168.5 1087.5,-168.5"/>
<text text-anchor="middle" x="1122.5" y="-175.5" font-family="Helvetica,sans-Serif" font-size="10.00">cpumask.h</text>
</a>
</g>
</g>
<!-- Node43&#45;&gt;Node49 -->
<g id="edge19" class="edge">
<title>Node43&#45;&gt;Node49</title>
<path fill="none" stroke="midnightblue" d="M674.81,-228.02C686.75,-226.71 699.61,-225.3 711.5,-224 850.64,-208.75 1016.28,-190.62 1087.31,-182.85"/>
<polygon fill="midnightblue" stroke="midnightblue" points="674.17,-224.57 664.61,-229.14 674.94,-231.53 674.17,-224.57"/>
</g>
<!-- Node50 -->
<g id="node20" class="node">
<title>Node50</title>
<g id="a_node20"><a xlink:href="api_2cpumask_8h.html" target="_top" xlink:title=" ">
<polygon fill="white" stroke="red" points="2299.5,-112.5 2299.5,-131.5 2369.5,-131.5 2369.5,-112.5 2299.5,-112.5"/>
<text text-anchor="middle" x="2334.5" y="-119.5" font-family="Helvetica,sans-Serif" font-size="10.00">cpumask.h</text>
</a>
</g>
</g>
<!-- Node49&#45;&gt;Node50 -->
<g id="edge20" class="edge">
<title>Node49&#45;&gt;Node50</title>
<path fill="none" stroke="midnightblue" d="M1167.97,-174.97C1362.94,-166.29 2126.26,-132.28 2299.43,-124.56"/>
<polygon fill="midnightblue" stroke="midnightblue" points="1167.62,-171.49 1157.79,-175.43 1167.94,-178.48 1167.62,-171.49"/>
</g>
<!-- Node50&#45;&gt;Node18 -->
<g id="edge22" class="edge">
<title>Node50&#45;&gt;Node18</title>
<path fill="none" stroke="midnightblue" d="M2335.46,-101.93C2337.16,-87.57 2341.69,-68.32 2353.5,-56 2380.07,-28.29 2424.29,-17.64 2454.38,-13.55"/>
<polygon fill="midnightblue" stroke="midnightblue" points="2331.95,-101.92 2334.61,-112.17 2338.92,-102.49 2331.95,-101.92"/>
</g>
<!-- Node61 -->
<g id="node21" class="node">
<title>Node61</title>
<g id="a_node21"><a xlink:href="api_2spec_2init_8h.html" target="_top" xlink:title=" ">
<polygon fill="white" stroke="red" points="2363,-56.5 2363,-75.5 2404,-75.5 2404,-56.5 2363,-56.5"/>
<text text-anchor="middle" x="2383.5" y="-63.5" font-family="Helvetica,sans-Serif" font-size="10.00">init.h</text>
</a>
</g>
</g>
<!-- Node50&#45;&gt;Node61 -->
<g id="edge21" class="edge">
<title>Node50&#45;&gt;Node61</title>
<path fill="none" stroke="midnightblue" d="M2349.53,-104.43C2358.12,-94.97 2368.54,-83.48 2375.56,-75.75"/>
<polygon fill="midnightblue" stroke="midnightblue" points="2346.72,-102.33 2342.59,-112.08 2351.9,-107.03 2346.72,-102.33"/>
</g>
<!-- Node66 -->
<g id="node23" class="node">
<title>Node66</title>
<g id="a_node23"><a xlink:href="api_2std__types_8h.html" target="_top" xlink:title=" ">
<polygon fill="white" stroke="red" points="1805,-280.5 1805,-299.5 1878,-299.5 1878,-280.5 1805,-280.5"/>
<text text-anchor="middle" x="1841.5" y="-287.5" font-family="Helvetica,sans-Serif" font-size="10.00">std_types.h</text>
</a>
</g>
</g>
<!-- Node65&#45;&gt;Node66 -->
<g id="edge24" class="edge">
<title>Node65&#45;&gt;Node66</title>
<path fill="none" stroke="midnightblue" d="M1841.5,-325.8C1841.5,-316.91 1841.5,-306.78 1841.5,-299.75"/>
<polygon fill="midnightblue" stroke="midnightblue" points="1838,-326.08 1841.5,-336.08 1845,-326.08 1838,-326.08"/>
</g>
<!-- Node66&#45;&gt;Node2 -->
<g id="edge25" class="edge">
<title>Node66&#45;&gt;Node2</title>
<path fill="none" stroke="midnightblue" d="M1794.65,-287.36C1560.21,-279.16 518.19,-242.69 328.26,-236.04"/>
<polygon fill="midnightblue" stroke="midnightblue" points="1794.76,-290.87 1804.88,-287.72 1795.01,-283.87 1794.76,-290.87"/>
</g>
<!-- Node66&#45;&gt;Node10 -->
<g id="edge26" class="edge">
<title>Node66&#45;&gt;Node10</title>
<path fill="none" stroke="midnightblue" d="M1794.54,-288.19C1688.13,-285.79 1431.72,-276.7 1352.5,-244 1303.7,-223.86 1181.78,-108.64 1147.56,-75.76"/>
<polygon fill="midnightblue" stroke="midnightblue" points="1794.59,-291.69 1804.66,-288.41 1794.74,-284.69 1794.59,-291.69"/>
</g>
<!-- Node66&#45;&gt;Node17 -->
<g id="edge36" class="edge">
<title>Node66&#45;&gt;Node17</title>
<path fill="none" stroke="midnightblue" d="M1794.68,-288.92C1586.03,-288.36 749.59,-283.63 711.5,-244 705.34,-237.59 705.86,-230.87 711.5,-224 763.84,-160.29 836.36,-247.45 893.5,-188 923.71,-156.57 917.72,-97.89 914.14,-75.75"/>
<polygon fill="midnightblue" stroke="midnightblue" points="1794.97,-292.42 1804.98,-288.95 1794.99,-285.42 1794.97,-292.42"/>
</g>
<!-- Node66&#45;&gt;Node18 -->
<g id="edge64" class="edge">
<title>Node66&#45;&gt;Node18</title>
<path fill="none" stroke="midnightblue" d="M1888.55,-288.37C2046.45,-285.98 2551.24,-275.88 2616.5,-244 2651.02,-227.13 2673.5,-217.42 2673.5,-179 2673.5,-179 2673.5,-179 2673.5,-121 2673.5,-50 2572.11,-23.92 2518.65,-15.1"/>
<polygon fill="midnightblue" stroke="midnightblue" points="1888.17,-284.88 1878.23,-288.53 1888.28,-291.88 1888.17,-284.88"/>
</g>
<!-- Node66&#45;&gt;Node43 -->
<g id="edge28" class="edge">
<title>Node66&#45;&gt;Node43</title>
<path fill="none" stroke="midnightblue" d="M1794.85,-288.09C1606.36,-284.26 900.49,-268.55 678.5,-244 674.03,-243.51 669.35,-242.84 664.74,-242.09"/>
<polygon fill="midnightblue" stroke="midnightblue" points="1794.91,-291.59 1804.98,-288.29 1795.05,-284.59 1794.91,-291.59"/>
</g>
<!-- Node66&#45;&gt;Node61 -->
<g id="edge55" class="edge">
<title>Node66&#45;&gt;Node61</title>
<path fill="none" stroke="midnightblue" d="M1888.08,-287.96C2048.74,-284.16 2571.17,-269.83 2595.5,-244 2641.77,-194.89 2578.28,-146.84 2520.5,-112 2482.77,-89.25 2432.16,-76.51 2404.22,-70.77"/>
<polygon fill="midnightblue" stroke="midnightblue" points="1887.95,-284.46 1878.03,-288.2 1888.11,-291.46 1887.95,-284.46"/>
</g>
<!-- Node67 -->
<g id="node24" class="node">
<title>Node67</title>
<g id="a_node24"><a xlink:href="api_2abi-default_2byteorder_8h.html" target="_top" xlink:title=" ">
<polygon fill="white" stroke="red" points="2701.5,-224.5 2701.5,-243.5 2773.5,-243.5 2773.5,-224.5 2701.5,-224.5"/>
<text text-anchor="middle" x="2737.5" y="-231.5" font-family="Helvetica,sans-Serif" font-size="10.00">byteorder.h</text>
</a>
</g>
</g>
<!-- Node66&#45;&gt;Node67 -->
<g id="edge27" class="edge">
<title>Node66&#45;&gt;Node67</title>
<path fill="none" stroke="midnightblue" d="M1888.6,-288.56C2017.11,-286.9 2384.46,-279.19 2687.5,-244 2691.97,-243.48 2696.64,-242.81 2701.26,-242.07"/>
<polygon fill="midnightblue" stroke="midnightblue" points="1888.29,-285.06 1878.33,-288.68 1888.37,-292.06 1888.29,-285.06"/>
</g>
<!-- Node75 -->
<g id="node25" class="node">
<title>Node75</title>
<g id="a_node25"><a xlink:href="api_2abi-default_2init_8h.html" target="_top" xlink:title=" ">
<polygon fill="white" stroke="red" points="2792,-224.5 2792,-243.5 2833,-243.5 2833,-224.5 2792,-224.5"/>
<text text-anchor="middle" x="2812.5" y="-231.5" font-family="Helvetica,sans-Serif" font-size="10.00">init.h</text>
</a>
</g>
</g>
<!-- Node66&#45;&gt;Node75 -->
<g id="edge29" class="edge">
<title>Node66&#45;&gt;Node75</title>
<path fill="none" stroke="midnightblue" d="M1888.5,-288.27C2053.78,-285.45 2607.7,-273.94 2782.5,-244 2785.5,-243.49 2788.63,-242.77 2791.67,-241.96"/>
<polygon fill="midnightblue" stroke="midnightblue" points="1888.12,-284.77 1878.18,-288.44 1888.24,-291.77 1888.12,-284.77"/>
</g>
<!-- Node82 -->
<g id="node26" class="node">
<title>Node82</title>
<g id="a_node26"><a xlink:href="api_2abi-default_2ipsec_8h.html" target="_top" xlink:title=" ">
<polygon fill="white" stroke="red" points="2890,-224.5 2890,-243.5 2941,-243.5 2941,-224.5 2890,-224.5"/>
<text text-anchor="middle" x="2915.5" y="-231.5" font-family="Helvetica,sans-Serif" font-size="10.00">ipsec.h</text>
</a>
</g>
</g>
<!-- Node66&#45;&gt;Node82 -->
<g id="edge30" class="edge">
<title>Node66&#45;&gt;Node82</title>
<path fill="none" stroke="midnightblue" d="M1888.36,-288.07C2063.65,-284.41 2680.66,-269.95 2875.5,-244 2880.16,-243.38 2885.07,-242.48 2889.8,-241.49"/>
<polygon fill="midnightblue" stroke="midnightblue" points="1888.1,-284.57 1878.18,-288.28 1888.25,-291.57 1888.1,-284.57"/>
</g>
<!-- Node90 -->
<g id="node27" class="node">
<title>Node90</title>
<g id="a_node27"><a xlink:href="api_2abi-default_2packet__io__types_8h.html" target="_top" xlink:title=" ">
<polygon fill="white" stroke="red" points="2959.5,-224.5 2959.5,-243.5 3063.5,-243.5 3063.5,-224.5 2959.5,-224.5"/>
<text text-anchor="middle" x="3011.5" y="-231.5" font-family="Helvetica,sans-Serif" font-size="10.00">packet_io_types.h</text>
</a>
</g>
</g>
<!-- Node66&#45;&gt;Node90 -->
<g id="edge31" class="edge">
<title>Node66&#45;&gt;Node90</title>
<path fill="none" stroke="midnightblue" d="M1888.87,-288.83C2042.39,-287.89 2539.99,-281.94 2949.5,-244 2952.75,-243.7 2956.09,-243.34 2959.45,-242.95"/>
<polygon fill="midnightblue" stroke="midnightblue" points="1888.4,-285.33 1878.41,-288.89 1888.43,-292.33 1888.4,-285.33"/>
</g>
<!-- Node27 -->
<g id="node28" class="node">
<title>Node27</title>
<g id="a_node28"><a xlink:href="api_2abi-default_2rwlock__recursive_8h.html" target="_top" xlink:title=" ">
<polygon fill="white" stroke="red" points="720.5,-224.5 720.5,-243.5 828.5,-243.5 828.5,-224.5 720.5,-224.5"/>
<text text-anchor="middle" x="774.5" y="-231.5" font-family="Helvetica,sans-Serif" font-size="10.00">rwlock_recursive.h</text>
</a>
</g>
</g>
<!-- Node66&#45;&gt;Node27 -->
<g id="edge32" class="edge">
<title>Node66&#45;&gt;Node27</title>
<path fill="none" stroke="midnightblue" d="M1794.75,-288.52C1651.38,-286.69 1205.27,-278.43 837.5,-244 834.64,-243.73 831.71,-243.43 828.76,-243.09"/>
<polygon fill="midnightblue" stroke="midnightblue" points="1794.9,-292.02 1804.94,-288.64 1794.99,-285.02 1794.9,-292.02"/>
</g>
<!-- Node130 -->
<g id="node29" class="node">
<title>Node130</title>
<g id="a_node29"><a xlink:href="api_2abi-default_2schedule_8h.html" target="_top" xlink:title=" ">
<polygon fill="white" stroke="red" points="847,-224.5 847,-243.5 916,-243.5 916,-224.5 847,-224.5"/>
<text text-anchor="middle" x="881.5" y="-231.5" font-family="Helvetica,sans-Serif" font-size="10.00">schedule.h</text>
</a>
</g>
</g>
<!-- Node66&#45;&gt;Node130 -->
<g id="edge33" class="edge">
<title>Node66&#45;&gt;Node130</title>
<path fill="none" stroke="midnightblue" d="M1794.74,-287.65C1632.78,-282.82 1096.4,-265.55 925.5,-244 922.41,-243.61 919.2,-243.12 916,-242.58"/>
<polygon fill="midnightblue" stroke="midnightblue" points="1794.76,-291.15 1804.86,-287.95 1794.96,-284.15 1794.76,-291.15"/>
</g>
<!-- Node137 -->
<g id="node30" class="node">
<title>Node137</title>
<g id="a_node30"><a xlink:href="api_2abi-default_2spinlock__recursive_8h.html" target="_top" xlink:title=" ">
<polygon fill="white" stroke="red" points="934.5,-224.5 934.5,-243.5 1050.5,-243.5 1050.5,-224.5 934.5,-224.5"/>
<text text-anchor="middle" x="992.5" y="-231.5" font-family="Helvetica,sans-Serif" font-size="10.00">spinlock_recursive.h</text>
</a>
</g>
</g>
<!-- Node66&#45;&gt;Node137 -->
<g id="edge34" class="edge">
<title>Node66&#45;&gt;Node137</title>
<path fill="none" stroke="midnightblue" d="M1794.71,-287.55C1673.19,-283.51 1337.7,-270.65 1059.5,-244 1056.58,-243.72 1053.59,-243.41 1050.57,-243.08"/>
<polygon fill="midnightblue" stroke="midnightblue" points="1794.67,-291.05 1804.78,-287.88 1794.9,-284.05 1794.67,-291.05"/>
</g>
<!-- Node145 -->
<g id="node31" class="node">
<title>Node145</title>
<g id="a_node31"><a xlink:href="api_2abi-default_2traffic__mngr_8h.html" target="_top" xlink:title=" ">
<polygon fill="white" stroke="red" points="1068.5,-224.5 1068.5,-243.5 1152.5,-243.5 1152.5,-224.5 1068.5,-224.5"/>
<text text-anchor="middle" x="1110.5" y="-231.5" font-family="Helvetica,sans-Serif" font-size="10.00">traffic_mngr.h</text>
</a>
</g>
</g>
<!-- Node66&#45;&gt;Node145 -->
<g id="edge35" class="edge">
<title>Node66&#45;&gt;Node145</title>
<path fill="none" stroke="midnightblue" d="M1794.67,-287.71C1683.99,-284.28 1397.76,-273.1 1160.5,-244 1157.96,-243.69 1155.36,-243.33 1152.73,-242.95"/>
<polygon fill="midnightblue" stroke="midnightblue" points="1794.72,-291.22 1804.82,-288.02 1794.93,-284.22 1794.72,-291.22"/>
</g>
<!-- Node103 -->
<g id="node32" class="node">
<title>Node103</title>
<g id="a_node32"><a xlink:href="api_2classification_8h.html" target="_top" xlink:title=" ">
<polygon fill="white" stroke="red" points="2368,-168.5 2368,-187.5 2457,-187.5 2457,-168.5 2368,-168.5"/>
<text text-anchor="middle" x="2412.5" y="-175.5" font-family="Helvetica,sans-Serif" font-size="10.00">classification.h</text>
</a>
</g>
</g>
<!-- Node66&#45;&gt;Node103 -->
<g id="edge37" class="edge">
<title>Node66&#45;&gt;Node103</title>
<path fill="none" stroke="midnightblue" d="M1888.36,-288.98C2021.04,-288.42 2392.07,-283.33 2428.5,-244 2443.03,-228.31 2428.41,-201.6 2419.03,-187.81"/>
<polygon fill="midnightblue" stroke="midnightblue" points="1888.1,-285.48 1878.12,-289.01 1888.13,-292.48 1888.1,-285.48"/>
</g>
<!-- Node104 -->
<g id="node33" class="node">
<title>Node104</title>
<g id="a_node33"><a xlink:href="api_2spec_2ipsec_8h.html" target="_top" xlink:title=" ">
<polygon fill="white" stroke="red" points="2461,-112.5 2461,-131.5 2512,-131.5 2512,-112.5 2461,-112.5"/>
<text text-anchor="middle" x="2486.5" y="-119.5" font-family="Helvetica,sans-Serif" font-size="10.00">ipsec.h</text>
</a>
</g>
</g>
<!-- Node66&#45;&gt;Node104 -->
<g id="edge56" class="edge">
<title>Node66&#45;&gt;Node104</title>
<path fill="none" stroke="midnightblue" d="M1888.73,-288.44C2023.46,-286.45 2402.77,-277.87 2446.5,-244 2482.71,-215.96 2486.51,-154.15 2486.64,-131.52"/>
<polygon fill="midnightblue" stroke="midnightblue" points="1888.28,-284.95 1878.33,-288.59 1888.38,-291.95 1888.28,-284.95"/>
</g>
<!-- Node113 -->
<g id="node34" class="node">
<title>Node113</title>
<g id="a_node34"><a xlink:href="api_2crypto_8h.html" target="_top" xlink:title=" ">
<polygon fill="white" stroke="black" points="2513.5,-168.5 2513.5,-187.5 2569.5,-187.5 2569.5,-168.5 2513.5,-168.5"/>
<text text-anchor="middle" x="2541.5" y="-175.5" font-family="Helvetica,sans-Serif" font-size="10.00">crypto.h</text>
</a>
</g>
</g>
<!-- Node66&#45;&gt;Node113 -->
<g id="edge40" class="edge">
<title>Node66&#45;&gt;Node113</title>
<path fill="none" stroke="midnightblue" d="M1888.58,-287.88C2047.39,-283.89 2554.81,-269.18 2578.5,-244 2594.78,-226.69 2568.88,-200.91 2552.78,-187.62"/>
<polygon fill="midnightblue" stroke="midnightblue" points="1888.1,-284.39 1878.19,-288.14 1888.28,-291.39 1888.1,-284.39"/>
</g>
<!-- Node152 -->
<g id="node35" class="node">
<title>Node152</title>
<g id="a_node35"><a xlink:href="api_2proto__stats_8h.html" target="_top" xlink:title=" ">
<polygon fill="white" stroke="black" points="2784.5,-112.5 2784.5,-131.5 2864.5,-131.5 2864.5,-112.5 2784.5,-112.5"/>
<text text-anchor="middle" x="2824.5" y="-119.5" font-family="Helvetica,sans-Serif" font-size="10.00">proto_stats.h</text>
</a>
</g>
</g>
<!-- Node66&#45;&gt;Node152 -->
<g id="edge43" class="edge">
<title>Node66&#45;&gt;Node152</title>
<path fill="none" stroke="midnightblue" d="M1888.18,-288.67C2081.18,-287.09 2808.19,-278.85 2841.5,-244 2871.55,-212.57 2842.57,-153.88 2829.83,-131.75"/>
<polygon fill="midnightblue" stroke="midnightblue" points="1888.05,-285.17 1878.08,-288.75 1888.11,-292.17 1888.05,-285.17"/>
</g>
<!-- Node120 -->
<g id="node36" class="node">
<title>Node120</title>
<g id="a_node36"><a xlink:href="api_2spec_2buffer_8h.html" target="_top" xlink:title=" ">
<polygon fill="white" stroke="red" points="1170,-224.5 1170,-243.5 1223,-243.5 1223,-224.5 1170,-224.5"/>
<text text-anchor="middle" x="1196.5" y="-231.5" font-family="Helvetica,sans-Serif" font-size="10.00">buffer.h</text>
</a>
</g>
</g>
<!-- Node66&#45;&gt;Node120 -->
<g id="edge45" class="edge">
<title>Node66&#45;&gt;Node120</title>
<path fill="none" stroke="midnightblue" d="M1794.85,-288.27C1692.44,-286.07 1440.46,-277.43 1232.5,-244 1229.45,-243.51 1226.27,-242.89 1223.13,-242.2"/>
<polygon fill="midnightblue" stroke="midnightblue" points="1794.8,-291.77 1804.87,-288.47 1794.94,-284.77 1794.8,-291.77"/>
</g>
<!-- Node153 -->
<g id="node37" class="node">
<title>Node153</title>
<g id="a_node37"><a xlink:href="spec_2chksum_8h.html" target="_top" xlink:title=" ">
<polygon fill="white" stroke="red" points="1241.5,-224.5 1241.5,-243.5 1305.5,-243.5 1305.5,-224.5 1241.5,-224.5"/>
<text text-anchor="middle" x="1273.5" y="-231.5" font-family="Helvetica,sans-Serif" font-size="10.00">chksum.h</text>
</a>
</g>
</g>
<!-- Node66&#45;&gt;Node153 -->
<g id="edge46" class="edge">
<title>Node66&#45;&gt;Node153</title>
<path fill="none" stroke="midnightblue" d="M1794.92,-286.66C1703.45,-281.71 1494.05,-268.53 1319.5,-244 1314.99,-243.37 1310.25,-242.58 1305.6,-241.74"/>
<polygon fill="midnightblue" stroke="midnightblue" points="1794.79,-290.16 1804.96,-287.2 1795.16,-283.17 1794.79,-290.16"/>
</g>
<!-- Node102 -->
<g id="node38" class="node">
<title>Node102</title>
<g id="a_node38"><a xlink:href="api_2spec_2classification_8h.html" target="_top" xlink:title=" ">
<polygon fill="white" stroke="black" points="1494,-224.5 1494,-243.5 1583,-243.5 1583,-224.5 1494,-224.5"/>
<text text-anchor="middle" x="1538.5" y="-231.5" font-family="Helvetica,sans-Serif" font-size="10.00">classification.h</text>
</a>
</g>
</g>
<!-- Node66&#45;&gt;Node102 -->
<g id="edge47" class="edge">
<title>Node66&#45;&gt;Node102</title>
<path fill="none" stroke="midnightblue" d="M1795.02,-280.72C1737.37,-270.44 1639.78,-253.05 1583.04,-242.94"/>
<polygon fill="midnightblue" stroke="midnightblue" points="1794.49,-284.18 1804.95,-282.49 1795.72,-277.29 1794.49,-284.18"/>
</g>
<!-- Node110 -->
<g id="node39" class="node">
<title>Node110</title>
<g id="a_node39"><a xlink:href="api_2spec_2comp_8h.html" target="_top" xlink:title=" ">
<polygon fill="white" stroke="red" points="1362,-224.5 1362,-243.5 1415,-243.5 1415,-224.5 1362,-224.5"/>
<text text-anchor="middle" x="1388.5" y="-231.5" font-family="Helvetica,sans-Serif" font-size="10.00">comp.h</text>
</a>
</g>
</g>
<!-- Node66&#45;&gt;Node110 -->
<g id="edge49" class="edge">
<title>Node66&#45;&gt;Node110</title>
<path fill="none" stroke="midnightblue" d="M1794.5,-286.16C1716.8,-280.98 1556.91,-268.2 1423.5,-244 1420.78,-243.51 1417.97,-242.92 1415.17,-242.28"/>
<polygon fill="midnightblue" stroke="midnightblue" points="1794.7,-289.68 1804.9,-286.84 1795.15,-282.7 1794.7,-289.68"/>
</g>
<!-- Node155 -->
<g id="node40" class="node">
<title>Node155</title>
<g id="a_node40"><a xlink:href="api_2spec_2cpu_8h.html" target="_top" xlink:title=" ">
<polygon fill="white" stroke="red" points="1433,-224.5 1433,-243.5 1476,-243.5 1476,-224.5 1433,-224.5"/>
<text text-anchor="middle" x="1454.5" y="-231.5" font-family="Helvetica,sans-Serif" font-size="10.00">cpu.h</text>
</a>
</g>
</g>
<!-- Node66&#45;&gt;Node155 -->
<g id="edge50" class="edge">
<title>Node66&#45;&gt;Node155</title>
<path fill="none" stroke="midnightblue" d="M1794.89,-285.61C1726.33,-280.06 1594.52,-267.27 1484.5,-244 1481.73,-243.41 1478.85,-242.7 1476.02,-241.92"/>
<polygon fill="midnightblue" stroke="midnightblue" points="1794.69,-289.1 1804.93,-286.41 1795.24,-282.13 1794.69,-289.1"/>
</g>
<!-- Node112 -->
<g id="node41" class="node">
<title>Node112</title>
<g id="a_node41"><a xlink:href="api_2spec_2crypto_8h.html" target="_top" xlink:title=" ">
<polygon fill="white" stroke="black" points="2513.5,-224.5 2513.5,-243.5 2569.5,-243.5 2569.5,-224.5 2513.5,-224.5"/>
<text text-anchor="middle" x="2541.5" y="-231.5" font-family="Helvetica,sans-Serif" font-size="10.00">crypto.h</text>
</a>
</g>
</g>
<!-- Node66&#45;&gt;Node112 -->
<g id="edge51" class="edge">
<title>Node66&#45;&gt;Node112</title>
<path fill="none" stroke="midnightblue" d="M1888.31,-288.09C1996.45,-285.49 2271.8,-276.02 2499.5,-244 2503.93,-243.38 2508.59,-242.55 2513.13,-241.65"/>
<polygon fill="midnightblue" stroke="midnightblue" points="1887.98,-284.6 1878.07,-288.33 1888.15,-291.6 1887.98,-284.6"/>
</g>
<!-- Node114 -->
<g id="node42" class="node">
<title>Node114</title>
<g id="a_node42"><a xlink:href="api_2spec_2dma__types_8h.html" target="_top" xlink:title=" ">
<polygon fill="white" stroke="red" points="1601.5,-224.5 1601.5,-243.5 1681.5,-243.5 1681.5,-224.5 1601.5,-224.5"/>
<text text-anchor="middle" x="1641.5" y="-231.5" font-family="Helvetica,sans-Serif" font-size="10.00">dma_types.h</text>
</a>
</g>
</g>
<!-- Node66&#45;&gt;Node114 -->
<g id="edge53" class="edge">
<title>Node66&#45;&gt;Node114</title>
<path fill="none" stroke="midnightblue" d="M1800.13,-277.83C1762.36,-267.63 1707.36,-252.78 1673.04,-243.52"/>
<polygon fill="midnightblue" stroke="midnightblue" points="1799.24,-281.22 1809.81,-280.44 1801.07,-274.46 1799.24,-281.22"/>
</g>
<!-- Node157 -->
<g id="node43" class="node">
<title>Node157</title>
<g id="a_node43"><a xlink:href="api_2spec_2hash_8h.html" target="_top" xlink:title=" ">
<polygon fill="white" stroke="red" points="1700,-224.5 1700,-243.5 1749,-243.5 1749,-224.5 1700,-224.5"/>
<text text-anchor="middle" x="1724.5" y="-231.5" font-family="Helvetica,sans-Serif" font-size="10.00">hash.h</text>
</a>
</g>
</g>
<!-- Node66&#45;&gt;Node157 -->
<g id="edge54" class="edge">
<title>Node66&#45;&gt;Node157</title>
<path fill="none" stroke="midnightblue" d="M1813.84,-276.23C1791.95,-266.13 1762,-252.31 1742.95,-243.52"/>
<polygon fill="midnightblue" stroke="midnightblue" points="1812.41,-279.43 1822.96,-280.44 1815.35,-273.08 1812.41,-279.43"/>
</g>
<!-- Node105 -->
<g id="node44" class="node">
<title>Node105</title>
<g id="a_node44"><a xlink:href="api_2spec_2packet_8h.html" target="_top" xlink:title=" ">
<polygon fill="white" stroke="red" points="1767.5,-224.5 1767.5,-243.5 1825.5,-243.5 1825.5,-224.5 1767.5,-224.5"/>
<text text-anchor="middle" x="1796.5" y="-231.5" font-family="Helvetica,sans-Serif" font-size="10.00">packet.h</text>
</a>
</g>
</g>
<!-- Node66&#45;&gt;Node105 -->
<g id="edge57" class="edge">
<title>Node66&#45;&gt;Node105</title>
<path fill="none" stroke="midnightblue" d="M1827.45,-272.14C1819.61,-262.74 1810.17,-251.4 1803.79,-243.75"/>
<polygon fill="midnightblue" stroke="midnightblue" points="1824.98,-274.64 1834.07,-280.08 1830.36,-270.16 1824.98,-274.64"/>
</g>
<!-- Node128 -->
<g id="node45" class="node">
<title>Node128</title>
<g id="a_node45"><a xlink:href="api_2spec_2packet__flags_8h.html" target="_top" xlink:title=" ">
<polygon fill="white" stroke="red" points="1843.5,-224.5 1843.5,-243.5 1929.5,-243.5 1929.5,-224.5 1843.5,-224.5"/>
<text text-anchor="middle" x="1886.5" y="-231.5" font-family="Helvetica,sans-Serif" font-size="10.00">packet_flags.h</text>
</a>
</g>
</g>
<!-- Node66&#45;&gt;Node128 -->
<g id="edge58" class="edge">
<title>Node66&#45;&gt;Node128</title>
<path fill="none" stroke="midnightblue" d="M1855.55,-272.14C1863.39,-262.74 1872.83,-251.4 1879.21,-243.75"/>
<polygon fill="midnightblue" stroke="midnightblue" points="1852.64,-270.16 1848.93,-280.08 1858.02,-274.64 1852.64,-270.16"/>
</g>
<!-- Node100 -->
<g id="node46" class="node">
<title>Node100</title>
<g id="a_node46"><a xlink:href="api_2spec_2packet__io__types_8h.html" target="_top" xlink:title=" ">
<polygon fill="white" stroke="red" points="1947.5,-224.5 1947.5,-243.5 2051.5,-243.5 2051.5,-224.5 1947.5,-224.5"/>
<text text-anchor="middle" x="1999.5" y="-231.5" font-family="Helvetica,sans-Serif" font-size="10.00">packet_io_types.h</text>
</a>
</g>
</g>
<!-- Node66&#45;&gt;Node100 -->
<g id="edge59" class="edge">
<title>Node66&#45;&gt;Node100</title>
<path fill="none" stroke="midnightblue" d="M1876.11,-277.17C1905.86,-267 1948.05,-252.59 1974.58,-243.52"/>
<polygon fill="midnightblue" stroke="midnightblue" points="1874.87,-273.9 1866.54,-280.44 1877.13,-280.52 1874.87,-273.9"/>
</g>
<!-- Node122 -->
<g id="node47" class="node">
<title>Node122</title>
<g id="a_node47"><a xlink:href="api_2spec_2pool_8h.html" target="_top" xlink:title=" ">
<polygon fill="white" stroke="red" points="2070,-224.5 2070,-243.5 2117,-243.5 2117,-224.5 2070,-224.5"/>
<text text-anchor="middle" x="2093.5" y="-231.5" font-family="Helvetica,sans-Serif" font-size="10.00">pool.h</text>
</a>
</g>
</g>
<!-- Node66&#45;&gt;Node122 -->
<g id="edge60" class="edge">
<title>Node66&#45;&gt;Node122</title>
<path fill="none" stroke="midnightblue" d="M1888.01,-280.33C1932.47,-271.84 2001.31,-258.14 2060.5,-244 2063.5,-243.28 2066.65,-242.49 2069.75,-241.67"/>
<polygon fill="midnightblue" stroke="midnightblue" points="1887.25,-276.91 1878.08,-282.22 1888.56,-283.79 1887.25,-276.91"/>
</g>
<!-- Node118 -->
<g id="node48" class="node">
<title>Node118</title>
<g id="a_node48"><a xlink:href="api_2spec_2pool__types_8h.html" target="_top" xlink:title=" ">
<polygon fill="white" stroke="red" points="2135,-224.5 2135,-243.5 2214,-243.5 2214,-224.5 2135,-224.5"/>
<text text-anchor="middle" x="2174.5" y="-231.5" font-family="Helvetica,sans-Serif" font-size="10.00">pool_types.h</text>
</a>
</g>
</g>
<!-- Node66&#45;&gt;Node118 -->
<g id="edge61" class="edge">
<title>Node66&#45;&gt;Node118</title>
<path fill="none" stroke="midnightblue" d="M1888.34,-281.94C1944.69,-273.36 2042.12,-258.26 2125.5,-244 2128.57,-243.48 2131.74,-242.92 2134.93,-242.35"/>
<polygon fill="midnightblue" stroke="midnightblue" points="1887.67,-278.5 1878.31,-283.46 1888.72,-285.42 1887.67,-278.5"/>
</g>
<!-- Node159 -->
<g id="node49" class="node">
<title>Node159</title>
<g id="a_node49"><a xlink:href="api_2spec_2proto__stats__types_8h.html" target="_top" xlink:title=" ">
<polygon fill="white" stroke="red" points="2232,-224.5 2232,-243.5 2345,-243.5 2345,-224.5 2232,-224.5"/>
<text text-anchor="middle" x="2288.5" y="-231.5" font-family="Helvetica,sans-Serif" font-size="10.00">proto_stats_types.h</text>
</a>
</g>
</g>
<!-- Node66&#45;&gt;Node159 -->
<g id="edge62" class="edge">
<title>Node66&#45;&gt;Node159</title>
<path fill="none" stroke="midnightblue" d="M1888.12,-283.77C1959.96,-275.64 2102.06,-259.32 2222.5,-244 2225.6,-243.61 2228.78,-243.19 2231.98,-242.77"/>
<polygon fill="midnightblue" stroke="midnightblue" points="1887.58,-280.31 1878.04,-284.91 1888.37,-287.26 1887.58,-280.31"/>
</g>
<!-- Node163 -->
<g id="node50" class="node">
<title>Node163</title>
<g id="a_node50"><a xlink:href="api_2spec_2queue_8h.html" target="_top" xlink:title=" ">
<polygon fill="white" stroke="red" points="2363.5,-224.5 2363.5,-243.5 2419.5,-243.5 2419.5,-224.5 2363.5,-224.5"/>
<text text-anchor="middle" x="2391.5" y="-231.5" font-family="Helvetica,sans-Serif" font-size="10.00">queue.h</text>
</a>
</g>
</g>
<!-- Node66&#45;&gt;Node163 -->
<g id="edge63" class="edge">
<title>Node66&#45;&gt;Node163</title>
<path fill="none" stroke="midnightblue" d="M1888.23,-287.16C1978.59,-283.1 2183.39,-271.47 2353.5,-244 2356.71,-243.48 2360.06,-242.84 2363.37,-242.14"/>
<polygon fill="midnightblue" stroke="midnightblue" points="1887.88,-283.67 1878.04,-287.61 1888.18,-290.67 1887.88,-283.67"/>
</g>
<!-- Node103&#45;&gt;Node18 -->
<g id="edge39" class="edge">
<title>Node103&#45;&gt;Node18</title>
<path fill="none" stroke="midnightblue" d="M2420.59,-158.86C2436.46,-123.25 2471.14,-45.45 2482.68,-19.57"/>
<polygon fill="midnightblue" stroke="midnightblue" points="2417.35,-157.52 2416.48,-168.08 2423.75,-160.37 2417.35,-157.52"/>
</g>
<!-- Node103&#45;&gt;Node104 -->
<g id="edge38" class="edge">
<title>Node103&#45;&gt;Node104</title>
<path fill="none" stroke="midnightblue" d="M2432.53,-162.38C2445.91,-152.62 2463.06,-140.11 2474.39,-131.83"/>
<polygon fill="midnightblue" stroke="midnightblue" points="2430.4,-159.6 2424.39,-168.32 2434.53,-165.26 2430.4,-159.6"/>
</g>
<!-- Node113&#45;&gt;Node18 -->
<g id="edge42" class="edge">
<title>Node113&#45;&gt;Node18</title>
<path fill="none" stroke="midnightblue" d="M2535.59,-158.51C2531.42,-145.49 2525.67,-127.66 2520.5,-112 2509.2,-77.74 2495.39,-37.07 2489.45,-19.63"/>
<polygon fill="midnightblue" stroke="midnightblue" points="2532.3,-159.7 2538.68,-168.16 2538.97,-157.57 2532.3,-159.7"/>
</g>
<!-- Node113&#45;&gt;Node104 -->
<g id="edge41" class="edge">
<title>Node113&#45;&gt;Node104</title>
<path fill="none" stroke="midnightblue" d="M2525.21,-161C2515.46,-151.43 2503.45,-139.64 2495.41,-131.75"/>
<polygon fill="midnightblue" stroke="midnightblue" points="2522.83,-163.57 2532.42,-168.08 2527.73,-158.58 2522.83,-163.57"/>
</g>
<!-- Node152&#45;&gt;Node18 -->
<g id="edge44" class="edge">
<title>Node152&#45;&gt;Node18</title>
<path fill="none" stroke="midnightblue" d="M2800.33,-107.5C2773.48,-92.99 2728.51,-70.12 2687.5,-56 2629.51,-36.03 2559.01,-22.62 2518.79,-15.95"/>
<polygon fill="midnightblue" stroke="midnightblue" points="2798.9,-110.71 2809.36,-112.43 2802.26,-104.57 2798.9,-110.71"/>
</g>
<!-- Node102&#45;&gt;Node103 -->
<g id="edge48" class="edge">
<title>Node102&#45;&gt;Node103</title>
<path fill="none" stroke="midnightblue" d="M1593.5,-224.03C1895.26,-191.24 2245.75,-182.06 2367.91,-179.72"/>
<polygon fill="midnightblue" stroke="midnightblue" points="1592.79,-220.58 1583.24,-225.15 1593.56,-227.54 1592.79,-220.58"/>
</g>
<!-- Node112&#45;&gt;Node113 -->
<g id="edge52" class="edge">
<title>Node112&#45;&gt;Node113</title>
<path fill="none" stroke="midnightblue" d="M2541.5,-213.8C2541.5,-204.91 2541.5,-194.78 2541.5,-187.75"/>
<polygon fill="midnightblue" stroke="midnightblue" points="2538,-214.08 2541.5,-224.08 2545,-214.08 2538,-214.08"/>
</g>
</g>
</svg>
