<?xml version="1.0" encoding="UTF-8" standalone="no"?>
<!DOCTYPE svg PUBLIC "-//W3C//DTD SVG 1.1//EN"
 "http://www.w3.org/Graphics/SVG/1.1/DTD/svg11.dtd">
<!-- Generated by graphviz version 2.43.0 (0)
 -->
<!-- Title: spinlock.h Pages: 1 -->
<svg width="813pt" height="364pt"
 viewBox="0.00 0.00 812.66 364.00" xmlns="http://www.w3.org/2000/svg" xmlns:xlink="http://www.w3.org/1999/xlink">
<g id="graph0" class="graph" transform="scale(1 1) rotate(0) translate(4 360)">
<title>spinlock.h</title>
<polygon fill="white" stroke="transparent" points="-4,4 -4,-360 808.66,-360 808.66,4 -4,4"/>
<!-- Node1 -->
<g id="node1" class="node">
<title>Node1</title>
<g id="a_node1"><a xlink:title=" ">
<polygon fill="#bfbfbf" stroke="black" points="394,-336.5 394,-355.5 460,-355.5 460,-336.5 394,-336.5"/>
<text text-anchor="middle" x="427" y="-343.5" font-family="Helvetica,sans-Serif" font-size="10.00">spinlock.h</text>
</a>
</g>
</g>
<!-- Node2 -->
<g id="node2" class="node">
<title>Node2</title>
<g id="a_node2"><a xlink:href="arch_2arm32-linux_2odp_2api_2abi_2spinlock_8h_source.html" target="_top" xlink:title=" ">
<polygon fill="white" stroke="black" points="184,-280.5 184,-299.5 250,-299.5 250,-280.5 184,-280.5"/>
<text text-anchor="middle" x="217" y="-287.5" font-family="Helvetica,sans-Serif" font-size="10.00">spinlock.h</text>
</a>
</g>
</g>
<!-- Node1&#45;&gt;Node2 -->
<g id="edge1" class="edge">
<title>Node1&#45;&gt;Node2</title>
<path fill="none" stroke="midnightblue" d="M383.81,-333.89C344.15,-323.7 286.23,-308.8 250.12,-299.52"/>
<polygon fill="midnightblue" stroke="midnightblue" points="383.17,-337.34 393.72,-336.44 384.91,-330.56 383.17,-337.34"/>
</g>
<!-- Node3 -->
<g id="node3" class="node">
<title>Node3</title>
<g id="a_node3"><a xlink:href="arch_2arm64-linux_2odp_2api_2abi_2spinlock_8h_source.html" target="_top" xlink:title=" ">
<polygon fill="white" stroke="black" points="268,-280.5 268,-299.5 334,-299.5 334,-280.5 268,-280.5"/>
<text text-anchor="middle" x="301" y="-287.5" font-family="Helvetica,sans-Serif" font-size="10.00">spinlock.h</text>
</a>
</g>
</g>
<!-- Node1&#45;&gt;Node3 -->
<g id="edge2" class="edge">
<title>Node1&#45;&gt;Node3</title>
<path fill="none" stroke="midnightblue" d="M397.84,-332.5C374.22,-322.38 341.57,-308.39 320.87,-299.52"/>
<polygon fill="midnightblue" stroke="midnightblue" points="396.46,-335.72 407.03,-336.44 399.22,-329.29 396.46,-335.72"/>
</g>
<!-- Node4 -->
<g id="node4" class="node">
<title>Node4</title>
<g id="a_node4"><a xlink:href="arch_2default-linux_2odp_2api_2abi_2spinlock_8h_source.html" target="_top" xlink:title=" ">
<polygon fill="white" stroke="black" points="352,-280.5 352,-299.5 418,-299.5 418,-280.5 352,-280.5"/>
<text text-anchor="middle" x="385" y="-287.5" font-family="Helvetica,sans-Serif" font-size="10.00">spinlock.h</text>
</a>
</g>
</g>
<!-- Node1&#45;&gt;Node4 -->
<g id="edge3" class="edge">
<title>Node1&#45;&gt;Node4</title>
<path fill="none" stroke="midnightblue" d="M413.89,-328.14C406.57,-318.74 397.76,-307.4 391.81,-299.75"/>
<polygon fill="midnightblue" stroke="midnightblue" points="411.16,-330.34 420.06,-336.08 416.69,-326.04 411.16,-330.34"/>
</g>
<!-- Node5 -->
<g id="node5" class="node">
<title>Node5</title>
<g id="a_node5"><a xlink:href="arch_2power64-linux_2odp_2api_2abi_2spinlock_8h_source.html" target="_top" xlink:title=" ">
<polygon fill="white" stroke="black" points="436,-280.5 436,-299.5 502,-299.5 502,-280.5 436,-280.5"/>
<text text-anchor="middle" x="469" y="-287.5" font-family="Helvetica,sans-Serif" font-size="10.00">spinlock.h</text>
</a>
</g>
</g>
<!-- Node1&#45;&gt;Node5 -->
<g id="edge4" class="edge">
<title>Node1&#45;&gt;Node5</title>
<path fill="none" stroke="midnightblue" d="M440.11,-328.14C447.43,-318.74 456.24,-307.4 462.19,-299.75"/>
<polygon fill="midnightblue" stroke="midnightblue" points="437.31,-326.04 433.94,-336.08 442.84,-330.34 437.31,-326.04"/>
</g>
<!-- Node6 -->
<g id="node6" class="node">
<title>Node6</title>
<g id="a_node6"><a xlink:href="arch_2x86__32-linux_2odp_2api_2abi_2spinlock_8h_source.html" target="_top" xlink:title=" ">
<polygon fill="white" stroke="black" points="520,-280.5 520,-299.5 586,-299.5 586,-280.5 520,-280.5"/>
<text text-anchor="middle" x="553" y="-287.5" font-family="Helvetica,sans-Serif" font-size="10.00">spinlock.h</text>
</a>
</g>
</g>
<!-- Node1&#45;&gt;Node6 -->
<g id="edge5" class="edge">
<title>Node1&#45;&gt;Node6</title>
<path fill="none" stroke="midnightblue" d="M456.16,-332.5C479.78,-322.38 512.43,-308.39 533.13,-299.52"/>
<polygon fill="midnightblue" stroke="midnightblue" points="454.78,-329.29 446.97,-336.44 457.54,-335.72 454.78,-329.29"/>
</g>
<!-- Node7 -->
<g id="node7" class="node">
<title>Node7</title>
<g id="a_node7"><a xlink:href="arch_2x86__64-linux_2odp_2api_2abi_2spinlock_8h_source.html" target="_top" xlink:title=" ">
<polygon fill="white" stroke="black" points="604,-280.5 604,-299.5 670,-299.5 670,-280.5 604,-280.5"/>
<text text-anchor="middle" x="637" y="-287.5" font-family="Helvetica,sans-Serif" font-size="10.00">spinlock.h</text>
</a>
</g>
</g>
<!-- Node1&#45;&gt;Node7 -->
<g id="edge6" class="edge">
<title>Node1&#45;&gt;Node7</title>
<path fill="none" stroke="midnightblue" d="M470.19,-333.89C509.85,-323.7 567.77,-308.8 603.88,-299.52"/>
<polygon fill="midnightblue" stroke="midnightblue" points="469.09,-330.56 460.28,-336.44 470.83,-337.34 469.09,-330.56"/>
</g>
<!-- Node8 -->
<g id="node8" class="node">
<title>Node8</title>
<g id="a_node8"><a xlink:href="api_2spinlock_8h.html" target="_top" xlink:title=" ">
<polygon fill="white" stroke="black" points="604,-224.5 604,-243.5 670,-243.5 670,-224.5 604,-224.5"/>
<text text-anchor="middle" x="637" y="-231.5" font-family="Helvetica,sans-Serif" font-size="10.00">spinlock.h</text>
</a>
</g>
</g>
<!-- Node7&#45;&gt;Node8 -->
<g id="edge7" class="edge">
<title>Node7&#45;&gt;Node8</title>
<path fill="none" stroke="midnightblue" d="M637,-269.8C637,-260.91 637,-250.78 637,-243.75"/>
<polygon fill="midnightblue" stroke="midnightblue" points="633.5,-270.08 637,-280.08 640.5,-270.08 633.5,-270.08"/>
</g>
<!-- Node9 -->
<g id="node9" class="node">
<title>Node9</title>
<g id="a_node9"><a xlink:href="api_2abi-default_2spinlock__recursive_8h.html" target="_top" xlink:title=" ">
<polygon fill="white" stroke="black" points="402,-168.5 402,-187.5 518,-187.5 518,-168.5 402,-168.5"/>
<text text-anchor="middle" x="460" y="-175.5" font-family="Helvetica,sans-Serif" font-size="10.00">spinlock_recursive.h</text>
</a>
</g>
</g>
<!-- Node8&#45;&gt;Node9 -->
<g id="edge8" class="edge">
<title>Node8&#45;&gt;Node9</title>
<path fill="none" stroke="midnightblue" d="M599.1,-221.44C565.72,-211.26 517.9,-196.66 487.91,-187.52"/>
<polygon fill="midnightblue" stroke="midnightblue" points="598.37,-224.87 608.95,-224.44 600.41,-218.18 598.37,-224.87"/>
</g>
<!-- Node17 -->
<g id="node17" class="node">
<title>Node17</title>
<g id="a_node17"><a xlink:href="odp__api_8h.html" target="_top" xlink:title=" ">
<polygon fill="white" stroke="black" points="739,-0.5 739,-19.5 803,-19.5 803,-0.5 739,-0.5"/>
<text text-anchor="middle" x="771" y="-7.5" font-family="Helvetica,sans-Serif" font-size="10.00">odp_api.h</text>
</a>
</g>
</g>
<!-- Node8&#45;&gt;Node17 -->
<g id="edge17" class="edge">
<title>Node8&#45;&gt;Node17</title>
<path fill="none" stroke="midnightblue" d="M675,-220.86C713.11,-206.42 769.66,-178.27 795,-132 811.22,-102.37 803.19,-88.77 795,-56 791.61,-42.43 783.26,-28.47 777.37,-19.77"/>
<polygon fill="midnightblue" stroke="midnightblue" points="673.46,-217.7 665.26,-224.41 675.86,-224.28 673.46,-217.7"/>
</g>
<!-- Node10 -->
<g id="node10" class="node">
<title>Node10</title>
<g id="a_node10"><a xlink:href="arch_2arm32-linux_2odp_2api_2abi_2spinlock__recursive_8h_source.html" target="_top" xlink:title=" ">
<polygon fill="white" stroke="black" points="0,-112.5 0,-131.5 116,-131.5 116,-112.5 0,-112.5"/>
<text text-anchor="middle" x="58" y="-119.5" font-family="Helvetica,sans-Serif" font-size="10.00">spinlock_recursive.h</text>
</a>
</g>
</g>
<!-- Node9&#45;&gt;Node10 -->
<g id="edge9" class="edge">
<title>Node9&#45;&gt;Node10</title>
<path fill="none" stroke="midnightblue" d="M391.83,-167.84C314.3,-157.43 189.04,-140.6 116.01,-130.79"/>
<polygon fill="midnightblue" stroke="midnightblue" points="391.6,-171.34 401.98,-169.21 392.53,-164.41 391.6,-171.34"/>
</g>
<!-- Node11 -->
<g id="node11" class="node">
<title>Node11</title>
<g id="a_node11"><a xlink:href="arch_2arm64-linux_2odp_2api_2abi_2spinlock__recursive_8h_source.html" target="_top" xlink:title=" ">
<polygon fill="white" stroke="black" points="134,-112.5 134,-131.5 250,-131.5 250,-112.5 134,-112.5"/>
<text text-anchor="middle" x="192" y="-119.5" font-family="Helvetica,sans-Serif" font-size="10.00">spinlock_recursive.h</text>
</a>
</g>
</g>
<!-- Node9&#45;&gt;Node11 -->
<g id="edge10" class="edge">
<title>Node9&#45;&gt;Node11</title>
<path fill="none" stroke="midnightblue" d="M407.44,-166.41C356.79,-156.2 281.13,-140.96 234.27,-131.52"/>
<polygon fill="midnightblue" stroke="midnightblue" points="407.04,-169.9 417.53,-168.44 408.42,-163.04 407.04,-169.9"/>
</g>
<!-- Node12 -->
<g id="node12" class="node">
<title>Node12</title>
<g id="a_node12"><a xlink:href="arch_2default-linux_2odp_2api_2abi_2spinlock__recursive_8h_source.html" target="_top" xlink:title=" ">
<polygon fill="white" stroke="black" points="268,-112.5 268,-131.5 384,-131.5 384,-112.5 268,-112.5"/>
<text text-anchor="middle" x="326" y="-119.5" font-family="Helvetica,sans-Serif" font-size="10.00">spinlock_recursive.h</text>
</a>
</g>
</g>
<!-- Node9&#45;&gt;Node12 -->
<g id="edge11" class="edge">
<title>Node9&#45;&gt;Node12</title>
<path fill="none" stroke="midnightblue" d="M429.32,-164.64C404.18,-154.5 369.25,-140.43 347.13,-131.52"/>
<polygon fill="midnightblue" stroke="midnightblue" points="428.18,-167.95 438.77,-168.44 430.8,-161.46 428.18,-167.95"/>
</g>
<!-- Node13 -->
<g id="node13" class="node">
<title>Node13</title>
<g id="a_node13"><a xlink:href="arch_2power64-linux_2odp_2api_2abi_2spinlock__recursive_8h_source.html" target="_top" xlink:title=" ">
<polygon fill="white" stroke="black" points="402,-112.5 402,-131.5 518,-131.5 518,-112.5 402,-112.5"/>
<text text-anchor="middle" x="460" y="-119.5" font-family="Helvetica,sans-Serif" font-size="10.00">spinlock_recursive.h</text>
</a>
</g>
</g>
<!-- Node9&#45;&gt;Node13 -->
<g id="edge12" class="edge">
<title>Node9&#45;&gt;Node13</title>
<path fill="none" stroke="midnightblue" d="M460,-157.8C460,-148.91 460,-138.78 460,-131.75"/>
<polygon fill="midnightblue" stroke="midnightblue" points="456.5,-158.08 460,-168.08 463.5,-158.08 456.5,-158.08"/>
</g>
<!-- Node14 -->
<g id="node14" class="node">
<title>Node14</title>
<g id="a_node14"><a xlink:href="arch_2x86__32-linux_2odp_2api_2abi_2spinlock__recursive_8h_source.html" target="_top" xlink:title=" ">
<polygon fill="white" stroke="black" points="536,-112.5 536,-131.5 652,-131.5 652,-112.5 536,-112.5"/>
<text text-anchor="middle" x="594" y="-119.5" font-family="Helvetica,sans-Serif" font-size="10.00">spinlock_recursive.h</text>
</a>
</g>
</g>
<!-- Node9&#45;&gt;Node14 -->
<g id="edge13" class="edge">
<title>Node9&#45;&gt;Node14</title>
<path fill="none" stroke="midnightblue" d="M490.68,-164.64C515.82,-154.5 550.75,-140.43 572.87,-131.52"/>
<polygon fill="midnightblue" stroke="midnightblue" points="489.2,-161.46 481.23,-168.44 491.82,-167.95 489.2,-161.46"/>
</g>
<!-- Node15 -->
<g id="node15" class="node">
<title>Node15</title>
<g id="a_node15"><a xlink:href="arch_2x86__64-linux_2odp_2api_2abi_2spinlock__recursive_8h_source.html" target="_top" xlink:title=" ">
<polygon fill="white" stroke="black" points="670,-112.5 670,-131.5 786,-131.5 786,-112.5 670,-112.5"/>
<text text-anchor="middle" x="728" y="-119.5" font-family="Helvetica,sans-Serif" font-size="10.00">spinlock_recursive.h</text>
</a>
</g>
</g>
<!-- Node9&#45;&gt;Node15 -->
<g id="edge14" class="edge">
<title>Node9&#45;&gt;Node15</title>
<path fill="none" stroke="midnightblue" d="M512.56,-166.41C563.21,-156.2 638.87,-140.96 685.73,-131.52"/>
<polygon fill="midnightblue" stroke="midnightblue" points="511.58,-163.04 502.47,-168.44 512.96,-169.9 511.58,-163.04"/>
</g>
<!-- Node16 -->
<g id="node16" class="node">
<title>Node16</title>
<g id="a_node16"><a xlink:href="api_2spinlock__recursive_8h.html" target="_top" xlink:title=" ">
<polygon fill="white" stroke="black" points="670,-56.5 670,-75.5 786,-75.5 786,-56.5 670,-56.5"/>
<text text-anchor="middle" x="728" y="-63.5" font-family="Helvetica,sans-Serif" font-size="10.00">spinlock_recursive.h</text>
</a>
</g>
</g>
<!-- Node15&#45;&gt;Node16 -->
<g id="edge15" class="edge">
<title>Node15&#45;&gt;Node16</title>
<path fill="none" stroke="midnightblue" d="M728,-101.8C728,-92.91 728,-82.78 728,-75.75"/>
<polygon fill="midnightblue" stroke="midnightblue" points="724.5,-102.08 728,-112.08 731.5,-102.08 724.5,-102.08"/>
</g>
<!-- Node16&#45;&gt;Node17 -->
<g id="edge16" class="edge">
<title>Node16&#45;&gt;Node17</title>
<path fill="none" stroke="midnightblue" d="M741.42,-48.14C748.91,-38.74 757.94,-27.4 764.03,-19.75"/>
<polygon fill="midnightblue" stroke="midnightblue" points="738.59,-46.08 735.1,-56.08 744.07,-50.44 738.59,-46.08"/>
</g>
</g>
</svg>
