<?xml version="1.0" encoding="UTF-8" standalone="no"?>
<!DOCTYPE svg PUBLIC "-//W3C//DTD SVG 1.1//EN"
 "http://www.w3.org/Graphics/SVG/1.1/DTD/svg11.dtd">
<!-- Generated by graphviz version 2.43.0 (0)
 -->
<!-- Title: packet_flags.h Pages: 1 -->
<svg width="787pt" height="755pt"
 viewBox="0.00 0.00 787.00 755.00" xmlns="http://www.w3.org/2000/svg" xmlns:xlink="http://www.w3.org/1999/xlink">
<g id="graph0" class="graph" transform="scale(1 1) rotate(0) translate(4 751)">
<title>packet_flags.h</title>
<polygon fill="white" stroke="transparent" points="-4,4 -4,-751 783,-751 783,4 -4,4"/>
<!-- Node1 -->
<g id="node1" class="node">
<title>Node1</title>
<g id="a_node1"><a xlink:title=" ">
<polygon fill="#bfbfbf" stroke="black" points="119,-727.5 119,-746.5 205,-746.5 205,-727.5 119,-727.5"/>
<text text-anchor="middle" x="162" y="-734.5" font-family="Helvetica,sans-Serif" font-size="10.00">packet_flags.h</text>
</a>
</g>
</g>
<!-- Node2 -->
<g id="node2" class="node">
<title>Node2</title>
<g id="a_node2"><a xlink:title=" ">
<polygon fill="white" stroke="#bfbfbf" points="45,-660.5 45,-690.5 151,-690.5 151,-660.5 45,-660.5"/>
<text text-anchor="start" x="53" y="-678.5" font-family="Helvetica,sans-Serif" font-size="10.00">odp/api/abi/packet</text>
<text text-anchor="middle" x="98" y="-667.5" font-family="Helvetica,sans-Serif" font-size="10.00">_flags.h</text>
</a>
</g>
</g>
<!-- Node1&#45;&gt;Node2 -->
<g id="edge1" class="edge">
<title>Node1&#45;&gt;Node2</title>
<path fill="none" stroke="midnightblue" d="M152.83,-727.48C144.41,-719.64 131.58,-707.71 120.44,-697.37"/>
<polygon fill="midnightblue" stroke="midnightblue" points="122.79,-694.77 113.08,-690.52 118.02,-699.9 122.79,-694.77"/>
</g>
<!-- Node3 -->
<g id="node3" class="node">
<title>Node3</title>
<g id="a_node3"><a xlink:href="api_2spec_2packet__flags_8h.html" target="_top" xlink:title=" ">
<polygon fill="white" stroke="black" points="169.5,-660.5 169.5,-690.5 282.5,-690.5 282.5,-660.5 169.5,-660.5"/>
<text text-anchor="start" x="177.5" y="-678.5" font-family="Helvetica,sans-Serif" font-size="10.00">odp/api/spec/packet</text>
<text text-anchor="middle" x="226" y="-667.5" font-family="Helvetica,sans-Serif" font-size="10.00">_flags.h</text>
</a>
</g>
</g>
<!-- Node1&#45;&gt;Node3 -->
<g id="edge2" class="edge">
<title>Node1&#45;&gt;Node3</title>
<path fill="none" stroke="midnightblue" d="M171.17,-727.48C179.59,-719.64 192.42,-707.71 203.56,-697.37"/>
<polygon fill="midnightblue" stroke="midnightblue" points="205.98,-699.9 210.92,-690.52 201.21,-694.77 205.98,-699.9"/>
</g>
<!-- Node4 -->
<g id="node4" class="node">
<title>Node4</title>
<g id="a_node4"><a xlink:href="visibility__begin_8h_source.html" target="_top" xlink:title=" ">
<polygon fill="white" stroke="black" points="53.5,-0.5 53.5,-19.5 174.5,-19.5 174.5,-0.5 53.5,-0.5"/>
<text text-anchor="middle" x="114" y="-7.5" font-family="Helvetica,sans-Serif" font-size="10.00">odp/visibility_begin.h</text>
</a>
</g>
</g>
<!-- Node3&#45;&gt;Node4 -->
<g id="edge3" class="edge">
<title>Node3&#45;&gt;Node4</title>
<path fill="none" stroke="midnightblue" d="M181.08,-660.44C115.17,-638.43 0,-594.17 0,-553.5 0,-553.5 0,-553.5 0,-121 0,-74.11 50.55,-40.89 84.33,-23.93"/>
<polygon fill="midnightblue" stroke="midnightblue" points="85.87,-27.07 93.36,-19.58 82.83,-20.77 85.87,-27.07"/>
</g>
<!-- Node5 -->
<g id="node5" class="node">
<title>Node5</title>
<g id="a_node5"><a xlink:href="api_2std__types_8h.html" target="_top" xlink:title=" ">
<polygon fill="white" stroke="black" points="151,-224.5 151,-243.5 263,-243.5 263,-224.5 151,-224.5"/>
<text text-anchor="middle" x="207" y="-231.5" font-family="Helvetica,sans-Serif" font-size="10.00">odp/api/std_types.h</text>
</a>
</g>
</g>
<!-- Node3&#45;&gt;Node5 -->
<g id="edge4" class="edge">
<title>Node3&#45;&gt;Node5</title>
<path fill="none" stroke="midnightblue" d="M182.61,-660.43C138.31,-643.01 76,-608.71 76,-553.5 76,-553.5 76,-553.5 76,-428.5 76,-357.81 87.7,-334.28 133,-280 144.46,-266.27 161.25,-255.58 175.93,-248.08"/>
<polygon fill="midnightblue" stroke="midnightblue" points="177.72,-251.1 185.21,-243.6 174.68,-244.8 177.72,-251.1"/>
</g>
<!-- Node12 -->
<g id="node12" class="node">
<title>Node12</title>
<g id="a_node12"><a xlink:href="visibility__end_8h_source.html" target="_top" xlink:title=" ">
<polygon fill="white" stroke="black" points="506,-0.5 506,-19.5 618,-19.5 618,-0.5 506,-0.5"/>
<text text-anchor="middle" x="562" y="-7.5" font-family="Helvetica,sans-Serif" font-size="10.00">odp/visibility_end.h</text>
</a>
</g>
</g>
<!-- Node3&#45;&gt;Node12 -->
<g id="edge38" class="edge">
<title>Node3&#45;&gt;Node12</title>
<path fill="none" stroke="midnightblue" d="M282.58,-674.01C423.52,-671.27 779,-654.36 779,-553.5 779,-553.5 779,-553.5 779,-121 779,-52.54 692.02,-26.68 628.19,-16.91"/>
<polygon fill="midnightblue" stroke="midnightblue" points="628.56,-13.43 618.17,-15.48 627.57,-20.36 628.56,-13.43"/>
</g>
<!-- Node13 -->
<g id="node13" class="node">
<title>Node13</title>
<g id="a_node13"><a xlink:href="api_2packet__types_8h.html" target="_top" xlink:title=" ">
<polygon fill="white" stroke="black" points="298.5,-604.5 298.5,-623.5 427.5,-623.5 427.5,-604.5 298.5,-604.5"/>
<text text-anchor="middle" x="363" y="-611.5" font-family="Helvetica,sans-Serif" font-size="10.00">odp/api/packet_types.h</text>
</a>
</g>
</g>
<!-- Node3&#45;&gt;Node13 -->
<g id="edge15" class="edge">
<title>Node3&#45;&gt;Node13</title>
<path fill="none" stroke="midnightblue" d="M258.47,-660.4C281.35,-650.46 311.73,-637.26 333.84,-627.66"/>
<polygon fill="midnightblue" stroke="midnightblue" points="335.29,-630.85 343.07,-623.66 332.5,-624.43 335.29,-630.85"/>
</g>
<!-- Node6 -->
<g id="node6" class="node">
<title>Node6</title>
<g id="a_node6"><a xlink:title=" ">
<polygon fill="white" stroke="#bfbfbf" points="142,-168.5 142,-187.5 272,-187.5 272,-168.5 142,-168.5"/>
<text text-anchor="middle" x="207" y="-175.5" font-family="Helvetica,sans-Serif" font-size="10.00">odp/api/abi/std_types.h</text>
</a>
</g>
</g>
<!-- Node5&#45;&gt;Node6 -->
<g id="edge5" class="edge">
<title>Node5&#45;&gt;Node6</title>
<path fill="none" stroke="midnightblue" d="M207,-224.08C207,-217.01 207,-206.86 207,-197.99"/>
<polygon fill="midnightblue" stroke="midnightblue" points="210.5,-197.75 207,-187.75 203.5,-197.75 210.5,-197.75"/>
</g>
<!-- Node7 -->
<g id="node7" class="node">
<title>Node7</title>
<g id="a_node7"><a xlink:href="api_2spec_2std__types_8h.html" target="_top" xlink:title=" ">
<polygon fill="white" stroke="black" points="328.5,-168.5 328.5,-187.5 465.5,-187.5 465.5,-168.5 328.5,-168.5"/>
<text text-anchor="middle" x="397" y="-175.5" font-family="Helvetica,sans-Serif" font-size="10.00">odp/api/spec/std_types.h</text>
</a>
</g>
</g>
<!-- Node5&#45;&gt;Node7 -->
<g id="edge6" class="edge">
<title>Node5&#45;&gt;Node7</title>
<path fill="none" stroke="midnightblue" d="M237.11,-224.44C269.63,-215.2 321.58,-200.44 357.39,-190.26"/>
<polygon fill="midnightblue" stroke="midnightblue" points="358.37,-193.62 367.03,-187.52 356.46,-186.88 358.37,-193.62"/>
</g>
<!-- Node7&#45;&gt;Node4 -->
<g id="edge7" class="edge">
<title>Node7&#45;&gt;Node4</title>
<path fill="none" stroke="midnightblue" d="M365.03,-168.46C339.06,-160.84 301.96,-148.35 272,-132 242.64,-115.98 167.33,-54.99 132.36,-26.21"/>
<polygon fill="midnightblue" stroke="midnightblue" points="134.33,-23.3 124.39,-19.63 129.87,-28.7 134.33,-23.3"/>
</g>
<!-- Node8 -->
<g id="node8" class="node">
<title>Node8</title>
<g id="a_node8"><a xlink:title=" ">
<polygon fill="white" stroke="#bfbfbf" points="387.5,-112.5 387.5,-131.5 440.5,-131.5 440.5,-112.5 387.5,-112.5"/>
<text text-anchor="middle" x="414" y="-119.5" font-family="Helvetica,sans-Serif" font-size="10.00">stdint.h</text>
</a>
</g>
</g>
<!-- Node7&#45;&gt;Node8 -->
<g id="edge8" class="edge">
<title>Node7&#45;&gt;Node8</title>
<path fill="none" stroke="midnightblue" d="M399.81,-168.08C402.08,-160.85 405.37,-150.41 408.21,-141.4"/>
<polygon fill="midnightblue" stroke="midnightblue" points="411.58,-142.34 411.25,-131.75 404.9,-140.24 411.58,-142.34"/>
</g>
<!-- Node9 -->
<g id="node9" class="node">
<title>Node9</title>
<g id="a_node9"><a xlink:href="api_2align_8h.html" target="_top" xlink:title=" ">
<polygon fill="white" stroke="black" points="280.5,-112.5 280.5,-131.5 369.5,-131.5 369.5,-112.5 280.5,-112.5"/>
<text text-anchor="middle" x="325" y="-119.5" font-family="Helvetica,sans-Serif" font-size="10.00">odp/api/align.h</text>
</a>
</g>
</g>
<!-- Node7&#45;&gt;Node9 -->
<g id="edge9" class="edge">
<title>Node7&#45;&gt;Node9</title>
<path fill="none" stroke="midnightblue" d="M385.43,-168.32C374.58,-160.18 358.12,-147.84 345.12,-138.09"/>
<polygon fill="midnightblue" stroke="midnightblue" points="346.88,-135.03 336.78,-131.83 342.68,-140.63 346.88,-135.03"/>
</g>
<!-- Node7&#45;&gt;Node12 -->
<g id="edge14" class="edge">
<title>Node7&#45;&gt;Node12</title>
<path fill="none" stroke="midnightblue" d="M408.53,-168.3C419.67,-159.65 436.76,-145.72 450,-132 479.88,-101.03 480.26,-87.11 510,-56 520.18,-45.35 532.64,-34.51 542.8,-26.13"/>
<polygon fill="midnightblue" stroke="midnightblue" points="545.13,-28.75 550.7,-19.74 540.73,-23.31 545.13,-28.75"/>
</g>
<!-- Node10 -->
<g id="node10" class="node">
<title>Node10</title>
<g id="a_node10"><a xlink:title=" ">
<polygon fill="white" stroke="#bfbfbf" points="218.5,-56.5 218.5,-75.5 325.5,-75.5 325.5,-56.5 218.5,-56.5"/>
<text text-anchor="middle" x="272" y="-63.5" font-family="Helvetica,sans-Serif" font-size="10.00">odp/api/abi/align.h</text>
</a>
</g>
</g>
<!-- Node9&#45;&gt;Node10 -->
<g id="edge10" class="edge">
<title>Node9&#45;&gt;Node10</title>
<path fill="none" stroke="midnightblue" d="M316.25,-112.08C308.53,-104.22 297.1,-92.57 287.78,-83.08"/>
<polygon fill="midnightblue" stroke="midnightblue" points="290.09,-80.44 280.59,-75.75 285.1,-85.34 290.09,-80.44"/>
</g>
<!-- Node11 -->
<g id="node11" class="node">
<title>Node11</title>
<g id="a_node11"><a xlink:href="api_2spec_2align_8h.html" target="_top" xlink:title=" ">
<polygon fill="white" stroke="black" points="344,-56.5 344,-75.5 458,-75.5 458,-56.5 344,-56.5"/>
<text text-anchor="middle" x="401" y="-63.5" font-family="Helvetica,sans-Serif" font-size="10.00">odp/api/spec/align.h</text>
</a>
</g>
</g>
<!-- Node9&#45;&gt;Node11 -->
<g id="edge11" class="edge">
<title>Node9&#45;&gt;Node11</title>
<path fill="none" stroke="midnightblue" d="M337.21,-112.32C348.78,-104.11 366.38,-91.6 380.16,-81.81"/>
<polygon fill="midnightblue" stroke="midnightblue" points="382.44,-84.48 388.57,-75.83 378.39,-78.77 382.44,-84.48"/>
</g>
<!-- Node11&#45;&gt;Node4 -->
<g id="edge12" class="edge">
<title>Node11&#45;&gt;Node4</title>
<path fill="none" stroke="midnightblue" d="M355.52,-56.44C305.04,-46.94 223.54,-31.61 169.38,-21.42"/>
<polygon fill="midnightblue" stroke="midnightblue" points="169.74,-17.93 159.26,-19.52 168.44,-24.81 169.74,-17.93"/>
</g>
<!-- Node11&#45;&gt;Node12 -->
<g id="edge13" class="edge">
<title>Node11&#45;&gt;Node12</title>
<path fill="none" stroke="midnightblue" d="M426.51,-56.44C453.6,-47.36 496.59,-32.94 526.87,-22.78"/>
<polygon fill="midnightblue" stroke="midnightblue" points="528.24,-26.01 536.61,-19.52 526.01,-19.38 528.24,-26.01"/>
</g>
<!-- Node14 -->
<g id="node14" class="node">
<title>Node14</title>
<g id="a_node14"><a xlink:title=" ">
<polygon fill="white" stroke="#bfbfbf" points="374,-537.5 374,-567.5 480,-567.5 480,-537.5 374,-537.5"/>
<text text-anchor="start" x="382" y="-555.5" font-family="Helvetica,sans-Serif" font-size="10.00">odp/api/abi/packet</text>
<text text-anchor="middle" x="427" y="-544.5" font-family="Helvetica,sans-Serif" font-size="10.00">_io_types.h</text>
</a>
</g>
</g>
<!-- Node13&#45;&gt;Node14 -->
<g id="edge16" class="edge">
<title>Node13&#45;&gt;Node14</title>
<path fill="none" stroke="midnightblue" d="M372.17,-604.48C380.59,-596.64 393.42,-584.71 404.56,-574.37"/>
<polygon fill="midnightblue" stroke="midnightblue" points="406.98,-576.9 411.92,-567.52 402.21,-571.77 406.98,-576.9"/>
</g>
<!-- Node15 -->
<g id="node15" class="node">
<title>Node15</title>
<g id="a_node15"><a xlink:title=" ">
<polygon fill="white" stroke="#bfbfbf" points="498,-537.5 498,-567.5 604,-567.5 604,-537.5 498,-537.5"/>
<text text-anchor="start" x="506" y="-555.5" font-family="Helvetica,sans-Serif" font-size="10.00">odp/api/abi/packet</text>
<text text-anchor="middle" x="551" y="-544.5" font-family="Helvetica,sans-Serif" font-size="10.00">_types.h</text>
</a>
</g>
</g>
<!-- Node13&#45;&gt;Node15 -->
<g id="edge17" class="edge">
<title>Node13&#45;&gt;Node15</title>
<path fill="none" stroke="midnightblue" d="M389.94,-604.48C417.78,-595.66 462,-581.67 497.07,-570.57"/>
<polygon fill="midnightblue" stroke="midnightblue" points="498.21,-573.88 506.69,-567.52 496.1,-567.2 498.21,-573.88"/>
</g>
<!-- Node16 -->
<g id="node16" class="node">
<title>Node16</title>
<g id="a_node16"><a xlink:href="api_2spec_2packet__types_8h.html" target="_top" xlink:title=" ">
<polygon fill="white" stroke="black" points="242.5,-537.5 242.5,-567.5 355.5,-567.5 355.5,-537.5 242.5,-537.5"/>
<text text-anchor="start" x="250.5" y="-555.5" font-family="Helvetica,sans-Serif" font-size="10.00">odp/api/spec/packet</text>
<text text-anchor="middle" x="299" y="-544.5" font-family="Helvetica,sans-Serif" font-size="10.00">_types.h</text>
</a>
</g>
</g>
<!-- Node13&#45;&gt;Node16 -->
<g id="edge18" class="edge">
<title>Node13&#45;&gt;Node16</title>
<path fill="none" stroke="midnightblue" d="M353.83,-604.48C345.41,-596.64 332.58,-584.71 321.44,-574.37"/>
<polygon fill="midnightblue" stroke="midnightblue" points="323.79,-571.77 314.08,-567.52 319.02,-576.9 323.79,-571.77"/>
</g>
<!-- Node16&#45;&gt;Node4 -->
<g id="edge19" class="edge">
<title>Node16&#45;&gt;Node4</title>
<path fill="none" stroke="midnightblue" d="M242.37,-537.84C165.6,-515.55 38,-463.46 38,-363.5 38,-363.5 38,-363.5 38,-121 38,-81.28 71.96,-45.5 94.48,-26.15"/>
<polygon fill="midnightblue" stroke="midnightblue" points="96.98,-28.63 102.46,-19.57 92.52,-23.24 96.98,-28.63"/>
</g>
<!-- Node16&#45;&gt;Node12 -->
<g id="edge37" class="edge">
<title>Node16&#45;&gt;Node12</title>
<path fill="none" stroke="midnightblue" d="M355.88,-538.92C475.26,-512.12 741,-450.24 741,-430.5 741,-430.5 741,-430.5 741,-121 741,-63.77 673.77,-35.38 621.72,-21.96"/>
<polygon fill="midnightblue" stroke="midnightblue" points="622.41,-18.53 611.86,-19.55 620.74,-25.33 622.41,-18.53"/>
</g>
<!-- Node17 -->
<g id="node17" class="node">
<title>Node17</title>
<g id="a_node17"><a xlink:href="api_2proto__stats__types_8h.html" target="_top" xlink:title=" ">
<polygon fill="white" stroke="black" points="459,-347.5 459,-377.5 569,-377.5 569,-347.5 459,-347.5"/>
<text text-anchor="start" x="467" y="-365.5" font-family="Helvetica,sans-Serif" font-size="10.00">odp/api/proto_stats</text>
<text text-anchor="middle" x="514" y="-354.5" font-family="Helvetica,sans-Serif" font-size="10.00">_types.h</text>
</a>
</g>
</g>
<!-- Node16&#45;&gt;Node17 -->
<g id="edge20" class="edge">
<title>Node16&#45;&gt;Node17</title>
<path fill="none" stroke="midnightblue" d="M324.8,-537.4C357.22,-518.91 413.53,-484.17 454,-445 472.22,-427.37 488.96,-403.72 500.1,-386.44"/>
<polygon fill="midnightblue" stroke="midnightblue" points="503.32,-387.9 505.69,-377.58 497.4,-384.17 503.32,-387.9"/>
</g>
<!-- Node20 -->
<g id="node20" class="node">
<title>Node20</title>
<g id="a_node20"><a xlink:href="api_2queue__types_8h.html" target="_top" xlink:title=" ">
<polygon fill="white" stroke="black" points="235.5,-481.5 235.5,-500.5 362.5,-500.5 362.5,-481.5 235.5,-481.5"/>
<text text-anchor="middle" x="299" y="-488.5" font-family="Helvetica,sans-Serif" font-size="10.00">odp/api/queue_types.h</text>
</a>
</g>
</g>
<!-- Node16&#45;&gt;Node20 -->
<g id="edge26" class="edge">
<title>Node16&#45;&gt;Node20</title>
<path fill="none" stroke="midnightblue" d="M299,-537.4C299,-529.47 299,-519.46 299,-510.86"/>
<polygon fill="midnightblue" stroke="midnightblue" points="302.5,-510.66 299,-500.66 295.5,-510.66 302.5,-510.66"/>
</g>
<!-- Node18 -->
<g id="node18" class="node">
<title>Node18</title>
<g id="a_node18"><a xlink:title=" ">
<polygon fill="white" stroke="#bfbfbf" points="585,-280.5 585,-310.5 713,-310.5 713,-280.5 585,-280.5"/>
<text text-anchor="start" x="593" y="-298.5" font-family="Helvetica,sans-Serif" font-size="10.00">odp/api/abi/proto_stats</text>
<text text-anchor="middle" x="649" y="-287.5" font-family="Helvetica,sans-Serif" font-size="10.00">_types.h</text>
</a>
</g>
</g>
<!-- Node17&#45;&gt;Node18 -->
<g id="edge21" class="edge">
<title>Node17&#45;&gt;Node18</title>
<path fill="none" stroke="midnightblue" d="M543.29,-347.4C563.02,-337.9 589.23,-325.28 610.62,-314.98"/>
<polygon fill="midnightblue" stroke="midnightblue" points="612.27,-318.07 619.76,-310.58 609.24,-311.76 612.27,-318.07"/>
</g>
<!-- Node19 -->
<g id="node19" class="node">
<title>Node19</title>
<g id="a_node19"><a xlink:href="api_2spec_2proto__stats__types_8h.html" target="_top" xlink:title=" ">
<polygon fill="white" stroke="black" points="459.5,-280.5 459.5,-310.5 566.5,-310.5 566.5,-280.5 459.5,-280.5"/>
<text text-anchor="start" x="467.5" y="-298.5" font-family="Helvetica,sans-Serif" font-size="10.00">odp/api/spec/proto</text>
<text text-anchor="middle" x="513" y="-287.5" font-family="Helvetica,sans-Serif" font-size="10.00">_stats_types.h</text>
</a>
</g>
</g>
<!-- Node17&#45;&gt;Node19 -->
<g id="edge22" class="edge">
<title>Node17&#45;&gt;Node19</title>
<path fill="none" stroke="midnightblue" d="M513.78,-347.4C513.66,-339.64 513.51,-329.81 513.37,-320.86"/>
<polygon fill="midnightblue" stroke="midnightblue" points="516.87,-320.52 513.22,-310.58 509.87,-320.63 516.87,-320.52"/>
</g>
<!-- Node19&#45;&gt;Node4 -->
<g id="edge23" class="edge">
<title>Node19&#45;&gt;Node4</title>
<path fill="none" stroke="midnightblue" d="M481.72,-280.39C417.04,-250.09 266.24,-173.58 166,-76 150.69,-61.09 135.71,-41.72 125.8,-28.01"/>
<polygon fill="midnightblue" stroke="midnightblue" points="128.44,-25.69 119.8,-19.55 122.73,-29.74 128.44,-25.69"/>
</g>
<!-- Node19&#45;&gt;Node5 -->
<g id="edge24" class="edge">
<title>Node19&#45;&gt;Node5</title>
<path fill="none" stroke="midnightblue" d="M459.35,-284.07C403.68,-273.24 317.09,-256.41 261.22,-245.54"/>
<polygon fill="midnightblue" stroke="midnightblue" points="261.64,-242.06 251.15,-243.59 260.3,-248.93 261.64,-242.06"/>
</g>
<!-- Node19&#45;&gt;Node12 -->
<g id="edge25" class="edge">
<title>Node19&#45;&gt;Node12</title>
<path fill="none" stroke="midnightblue" d="M533.62,-280.32C559.34,-260.77 600,-222.93 600,-179 600,-179 600,-179 600,-121 600,-86.81 583.4,-49.76 572.14,-28.57"/>
<polygon fill="midnightblue" stroke="midnightblue" points="575.18,-26.83 567.28,-19.77 569.05,-30.22 575.18,-26.83"/>
</g>
<!-- Node21 -->
<g id="node21" class="node">
<title>Node21</title>
<g id="a_node21"><a xlink:title=" ">
<polygon fill="white" stroke="#bfbfbf" points="299.5,-420 299.5,-439 444.5,-439 444.5,-420 299.5,-420"/>
<text text-anchor="middle" x="372" y="-427" font-family="Helvetica,sans-Serif" font-size="10.00">odp/api/abi/queue_types.h</text>
</a>
</g>
</g>
<!-- Node20&#45;&gt;Node21 -->
<g id="edge27" class="edge">
<title>Node20&#45;&gt;Node21</title>
<path fill="none" stroke="midnightblue" d="M309.46,-481.48C320.95,-472.11 339.63,-456.88 353.59,-445.51"/>
<polygon fill="midnightblue" stroke="midnightblue" points="356.02,-448.04 361.56,-439.01 351.6,-442.61 356.02,-448.04"/>
</g>
<!-- Node22 -->
<g id="node22" class="node">
<title>Node22</title>
<g id="a_node22"><a xlink:href="api_2spec_2queue__types_8h.html" target="_top" xlink:title=" ">
<polygon fill="white" stroke="black" points="170.5,-414.5 170.5,-444.5 281.5,-444.5 281.5,-414.5 170.5,-414.5"/>
<text text-anchor="start" x="178.5" y="-432.5" font-family="Helvetica,sans-Serif" font-size="10.00">odp/api/spec/queue</text>
<text text-anchor="middle" x="226" y="-421.5" font-family="Helvetica,sans-Serif" font-size="10.00">_types.h</text>
</a>
</g>
</g>
<!-- Node20&#45;&gt;Node22 -->
<g id="edge28" class="edge">
<title>Node20&#45;&gt;Node22</title>
<path fill="none" stroke="midnightblue" d="M288.54,-481.48C278.84,-473.57 264.01,-461.48 251.23,-451.07"/>
<polygon fill="midnightblue" stroke="midnightblue" points="253.17,-448.13 243.2,-444.52 248.74,-453.55 253.17,-448.13"/>
</g>
<!-- Node22&#45;&gt;Node4 -->
<g id="edge29" class="edge">
<title>Node22&#45;&gt;Node4</title>
<path fill="none" stroke="midnightblue" d="M196.17,-414.47C180.05,-405.74 160.7,-393.26 147,-378 99.6,-325.19 76,-305.96 76,-235 76,-235 76,-235 76,-121 76,-86.81 92.6,-49.76 103.86,-28.57"/>
<polygon fill="midnightblue" stroke="midnightblue" points="106.95,-30.22 108.72,-19.77 100.82,-26.83 106.95,-30.22"/>
</g>
<!-- Node22&#45;&gt;Node12 -->
<g id="edge36" class="edge">
<title>Node22&#45;&gt;Node12</title>
<path fill="none" stroke="midnightblue" d="M255.97,-414.43C295.04,-395.06 364.04,-357.28 412,-311 498.84,-227.21 515.86,-192.31 548,-76 552.23,-60.68 555.96,-43.04 558.51,-30.01"/>
<polygon fill="midnightblue" stroke="midnightblue" points="562,-30.39 560.42,-19.91 555.12,-29.08 562,-30.39"/>
</g>
<!-- Node23 -->
<g id="node23" class="node">
<title>Node23</title>
<g id="a_node23"><a xlink:href="api_2schedule__types_8h.html" target="_top" xlink:title=" ">
<polygon fill="white" stroke="black" points="156,-353 156,-372 296,-372 296,-353 156,-353"/>
<text text-anchor="middle" x="226" y="-360" font-family="Helvetica,sans-Serif" font-size="10.00">odp/api/schedule_types.h</text>
</a>
</g>
</g>
<!-- Node22&#45;&gt;Node23 -->
<g id="edge30" class="edge">
<title>Node22&#45;&gt;Node23</title>
<path fill="none" stroke="midnightblue" d="M226,-414.4C226,-405.06 226,-392.71 226,-382.52"/>
<polygon fill="midnightblue" stroke="midnightblue" points="229.5,-382.19 226,-372.19 222.5,-382.19 229.5,-382.19"/>
</g>
<!-- Node24 -->
<g id="node24" class="node">
<title>Node24</title>
<g id="a_node24"><a xlink:title=" ">
<polygon fill="white" stroke="#bfbfbf" points="285.5,-280.5 285.5,-310.5 402.5,-310.5 402.5,-280.5 285.5,-280.5"/>
<text text-anchor="start" x="293.5" y="-298.5" font-family="Helvetica,sans-Serif" font-size="10.00">odp/api/abi/schedule</text>
<text text-anchor="middle" x="344" y="-287.5" font-family="Helvetica,sans-Serif" font-size="10.00">_types.h</text>
</a>
</g>
</g>
<!-- Node23&#45;&gt;Node24 -->
<g id="edge31" class="edge">
<title>Node23&#45;&gt;Node24</title>
<path fill="none" stroke="midnightblue" d="M241.91,-352.73C259.16,-343.23 287.22,-327.78 309.56,-315.47"/>
<polygon fill="midnightblue" stroke="midnightblue" points="311.35,-318.48 318.42,-310.59 307.98,-312.35 311.35,-318.48"/>
</g>
<!-- Node25 -->
<g id="node25" class="node">
<title>Node25</title>
<g id="a_node25"><a xlink:href="api_2spec_2schedule__types_8h.html" target="_top" xlink:title=" ">
<polygon fill="white" stroke="black" points="142.5,-280.5 142.5,-310.5 267.5,-310.5 267.5,-280.5 142.5,-280.5"/>
<text text-anchor="start" x="150.5" y="-298.5" font-family="Helvetica,sans-Serif" font-size="10.00">odp/api/spec/schedule</text>
<text text-anchor="middle" x="205" y="-287.5" font-family="Helvetica,sans-Serif" font-size="10.00">_types.h</text>
</a>
</g>
</g>
<!-- Node23&#45;&gt;Node25 -->
<g id="edge32" class="edge">
<title>Node23&#45;&gt;Node25</title>
<path fill="none" stroke="midnightblue" d="M223.17,-352.73C220.49,-344.46 216.36,-331.66 212.71,-320.37"/>
<polygon fill="midnightblue" stroke="midnightblue" points="215.96,-319.03 209.55,-310.59 209.3,-321.18 215.96,-319.03"/>
</g>
<!-- Node25&#45;&gt;Node4 -->
<g id="edge33" class="edge">
<title>Node25&#45;&gt;Node4</title>
<path fill="none" stroke="midnightblue" d="M182.26,-280.38C169.12,-271.29 153.04,-258.5 142,-244 122.94,-218.98 114,-210.46 114,-179 114,-179 114,-179 114,-121 114,-88.95 114,-51.64 114,-29.75"/>
<polygon fill="midnightblue" stroke="midnightblue" points="117.5,-29.56 114,-19.56 110.5,-29.56 117.5,-29.56"/>
</g>
<!-- Node25&#45;&gt;Node5 -->
<g id="edge34" class="edge">
<title>Node25&#45;&gt;Node5</title>
<path fill="none" stroke="midnightblue" d="M205.47,-280.4C205.74,-272.47 206.08,-262.46 206.37,-253.86"/>
<polygon fill="midnightblue" stroke="midnightblue" points="209.87,-253.77 206.71,-243.66 202.87,-253.53 209.87,-253.77"/>
</g>
<!-- Node25&#45;&gt;Node12 -->
<g id="edge35" class="edge">
<title>Node25&#45;&gt;Node12</title>
<path fill="none" stroke="midnightblue" d="M252.03,-280.48C320.05,-259.46 441.43,-218.95 475,-188 500.19,-164.78 539.16,-69.7 554.97,-29.3"/>
<polygon fill="midnightblue" stroke="midnightblue" points="558.28,-30.46 558.63,-19.87 551.75,-27.93 558.28,-30.46"/>
</g>
</g>
</svg>
