<?xml version="1.0" encoding="UTF-8" standalone="no"?>
<!DOCTYPE svg PUBLIC "-//W3C//DTD SVG 1.1//EN"
 "http://www.w3.org/Graphics/SVG/1.1/DTD/svg11.dtd">
<!-- Generated by graphviz version 2.43.0 (0)
 -->
<!-- Title: packet_io_types.h Pages: 1 -->
<svg width="1420pt" height="756pt"
 viewBox="0.00 0.00 1419.50 756.00" xmlns="http://www.w3.org/2000/svg" xmlns:xlink="http://www.w3.org/1999/xlink">
<g id="graph0" class="graph" transform="scale(1 1) rotate(0) translate(4 752)">
<title>packet_io_types.h</title>
<polygon fill="white" stroke="transparent" points="-4,4 -4,-752 1415.5,-752 1415.5,4 -4,4"/>
<!-- Node1 -->
<g id="node1" class="node">
<title>Node1</title>
<g id="a_node1"><a xlink:title=" ">
<polygon fill="#bfbfbf" stroke="black" points="305,-728.5 305,-747.5 409,-747.5 409,-728.5 305,-728.5"/>
<text text-anchor="middle" x="357" y="-735.5" font-family="Helvetica,sans-Serif" font-size="10.00">packet_io_types.h</text>
</a>
</g>
</g>
<!-- Node2 -->
<g id="node2" class="node">
<title>Node2</title>
<g id="a_node2"><a xlink:href="arch_2arm32-linux_2odp_2api_2abi_2packet__io__types_8h_source.html" target="_top" xlink:title=" ">
<polygon fill="white" stroke="black" points="0,-672.5 0,-691.5 104,-691.5 104,-672.5 0,-672.5"/>
<text text-anchor="middle" x="52" y="-679.5" font-family="Helvetica,sans-Serif" font-size="10.00">packet_io_types.h</text>
</a>
</g>
</g>
<!-- Node1&#45;&gt;Node2 -->
<g id="edge1" class="edge">
<title>Node1&#45;&gt;Node2</title>
<path fill="none" stroke="midnightblue" d="M298.62,-726.66C240.98,-716.46 153.88,-701.04 100.1,-691.52"/>
<polygon fill="midnightblue" stroke="midnightblue" points="298.21,-730.15 308.67,-728.44 299.44,-723.25 298.21,-730.15"/>
</g>
<!-- Node3 -->
<g id="node3" class="node">
<title>Node3</title>
<g id="a_node3"><a xlink:href="arch_2arm64-linux_2odp_2api_2abi_2packet__io__types_8h_source.html" target="_top" xlink:title=" ">
<polygon fill="white" stroke="black" points="122,-672.5 122,-691.5 226,-691.5 226,-672.5 122,-672.5"/>
<text text-anchor="middle" x="174" y="-679.5" font-family="Helvetica,sans-Serif" font-size="10.00">packet_io_types.h</text>
</a>
</g>
</g>
<!-- Node1&#45;&gt;Node3 -->
<g id="edge2" class="edge">
<title>Node1&#45;&gt;Node3</title>
<path fill="none" stroke="midnightblue" d="M318.26,-725.57C283.74,-715.38 233.99,-700.7 202.86,-691.52"/>
<polygon fill="midnightblue" stroke="midnightblue" points="317.42,-728.97 328,-728.44 319.4,-722.26 317.42,-728.97"/>
</g>
<!-- Node4 -->
<g id="node4" class="node">
<title>Node4</title>
<g id="a_node4"><a xlink:href="arch_2default-linux_2odp_2api_2abi_2packet__io__types_8h_source.html" target="_top" xlink:title=" ">
<polygon fill="white" stroke="black" points="244,-672.5 244,-691.5 348,-691.5 348,-672.5 244,-672.5"/>
<text text-anchor="middle" x="296" y="-679.5" font-family="Helvetica,sans-Serif" font-size="10.00">packet_io_types.h</text>
</a>
</g>
</g>
<!-- Node1&#45;&gt;Node4 -->
<g id="edge3" class="edge">
<title>Node1&#45;&gt;Node4</title>
<path fill="none" stroke="midnightblue" d="M339.53,-721.54C328.66,-711.91 315.06,-699.87 305.98,-691.83"/>
<polygon fill="midnightblue" stroke="midnightblue" points="337.39,-724.32 347.2,-728.32 342.03,-719.07 337.39,-724.32"/>
</g>
<!-- Node5 -->
<g id="node5" class="node">
<title>Node5</title>
<g id="a_node5"><a xlink:href="arch_2power64-linux_2odp_2api_2abi_2packet__io__types_8h_source.html" target="_top" xlink:title=" ">
<polygon fill="white" stroke="black" points="366,-672.5 366,-691.5 470,-691.5 470,-672.5 366,-672.5"/>
<text text-anchor="middle" x="418" y="-679.5" font-family="Helvetica,sans-Serif" font-size="10.00">packet_io_types.h</text>
</a>
</g>
</g>
<!-- Node1&#45;&gt;Node5 -->
<g id="edge4" class="edge">
<title>Node1&#45;&gt;Node5</title>
<path fill="none" stroke="midnightblue" d="M374.47,-721.54C385.34,-711.91 398.94,-699.87 408.02,-691.83"/>
<polygon fill="midnightblue" stroke="midnightblue" points="371.97,-719.07 366.8,-728.32 376.61,-724.32 371.97,-719.07"/>
</g>
<!-- Node6 -->
<g id="node6" class="node">
<title>Node6</title>
<g id="a_node6"><a xlink:href="arch_2x86__32-linux_2odp_2api_2abi_2packet__io__types_8h_source.html" target="_top" xlink:title=" ">
<polygon fill="white" stroke="black" points="488,-672.5 488,-691.5 592,-691.5 592,-672.5 488,-672.5"/>
<text text-anchor="middle" x="540" y="-679.5" font-family="Helvetica,sans-Serif" font-size="10.00">packet_io_types.h</text>
</a>
</g>
</g>
<!-- Node1&#45;&gt;Node6 -->
<g id="edge5" class="edge">
<title>Node1&#45;&gt;Node6</title>
<path fill="none" stroke="midnightblue" d="M395.74,-725.57C430.26,-715.38 480.01,-700.7 511.14,-691.52"/>
<polygon fill="midnightblue" stroke="midnightblue" points="394.6,-722.26 386,-728.44 396.58,-728.97 394.6,-722.26"/>
</g>
<!-- Node7 -->
<g id="node7" class="node">
<title>Node7</title>
<g id="a_node7"><a xlink:href="arch_2x86__64-linux_2odp_2api_2abi_2packet__io__types_8h_source.html" target="_top" xlink:title=" ">
<polygon fill="white" stroke="black" points="610,-672.5 610,-691.5 714,-691.5 714,-672.5 610,-672.5"/>
<text text-anchor="middle" x="662" y="-679.5" font-family="Helvetica,sans-Serif" font-size="10.00">packet_io_types.h</text>
</a>
</g>
</g>
<!-- Node1&#45;&gt;Node7 -->
<g id="edge6" class="edge">
<title>Node1&#45;&gt;Node7</title>
<path fill="none" stroke="midnightblue" d="M415.38,-726.66C473.02,-716.46 560.12,-701.04 613.9,-691.52"/>
<polygon fill="midnightblue" stroke="midnightblue" points="414.56,-723.25 405.33,-728.44 415.79,-730.15 414.56,-723.25"/>
</g>
<!-- Node8 -->
<g id="node8" class="node">
<title>Node8</title>
<g id="a_node8"><a xlink:href="packet__io__stats_8h.html" target="_top" xlink:title=" ">
<polygon fill="white" stroke="black" points="532.5,-392.5 532.5,-411.5 633.5,-411.5 633.5,-392.5 532.5,-392.5"/>
<text text-anchor="middle" x="583" y="-399.5" font-family="Helvetica,sans-Serif" font-size="10.00">packet_io_stats.h</text>
</a>
</g>
</g>
<!-- Node7&#45;&gt;Node8 -->
<g id="edge7" class="edge">
<title>Node7&#45;&gt;Node8</title>
<path fill="none" stroke="midnightblue" d="M646.95,-664.75C629.77,-644.43 604,-607.84 604,-571 604,-571 604,-571 604,-513 604,-474.7 591.56,-430.21 585.83,-411.73"/>
<polygon fill="midnightblue" stroke="midnightblue" points="644.46,-667.21 653.69,-672.41 649.71,-662.59 644.46,-667.21"/>
</g>
<!-- Node13 -->
<g id="node13" class="node">
<title>Node13</title>
<g id="a_node13"><a xlink:href="api_2packet__io__types_8h.html" target="_top" xlink:title=" ">
<polygon fill="white" stroke="black" points="709,-280.5 709,-299.5 813,-299.5 813,-280.5 709,-280.5"/>
<text text-anchor="middle" x="761" y="-287.5" font-family="Helvetica,sans-Serif" font-size="10.00">packet_io_types.h</text>
</a>
</g>
</g>
<!-- Node7&#45;&gt;Node13 -->
<g id="edge29" class="edge">
<title>Node7&#45;&gt;Node13</title>
<path fill="none" stroke="midnightblue" d="M662,-662.25C662,-640.36 662,-603.05 662,-571 662,-571 662,-571 662,-401 662,-369.18 671.2,-360.07 692,-336 705.93,-319.88 727.02,-307.28 742.22,-299.56"/>
<polygon fill="midnightblue" stroke="midnightblue" points="658.5,-662.44 662,-672.44 665.5,-662.44 658.5,-662.44"/>
</g>
<!-- Node22 -->
<g id="node22" class="node">
<title>Node22</title>
<g id="a_node22"><a xlink:href="api_2packet__types_8h.html" target="_top" xlink:title=" ">
<polygon fill="white" stroke="black" points="862,-616.5 862,-635.5 952,-635.5 952,-616.5 862,-616.5"/>
<text text-anchor="middle" x="907" y="-623.5" font-family="Helvetica,sans-Serif" font-size="10.00">packet_types.h</text>
</a>
</g>
</g>
<!-- Node7&#45;&gt;Node22 -->
<g id="edge30" class="edge">
<title>Node7&#45;&gt;Node22</title>
<path fill="none" stroke="midnightblue" d="M710.63,-670.28C756.93,-660.08 825.69,-644.92 868.36,-635.52"/>
<polygon fill="midnightblue" stroke="midnightblue" points="709.83,-666.87 700.82,-672.44 711.34,-673.71 709.83,-666.87"/>
</g>
<!-- Node9 -->
<g id="node9" class="node">
<title>Node9</title>
<g id="a_node9"><a xlink:href="api_2spec_2packet__io_8h.html" target="_top" xlink:title=" ">
<polygon fill="white" stroke="black" points="725,-112.5 725,-131.5 797,-131.5 797,-112.5 725,-112.5"/>
<text text-anchor="middle" x="761" y="-119.5" font-family="Helvetica,sans-Serif" font-size="10.00">packet_io.h</text>
</a>
</g>
</g>
<!-- Node8&#45;&gt;Node9 -->
<g id="edge8" class="edge">
<title>Node8&#45;&gt;Node9</title>
<path fill="none" stroke="midnightblue" d="M583,-382.25C583,-360.36 583,-323.05 583,-291 583,-291 583,-291 583,-233 583,-202.2 584.48,-189.01 607,-168 639.18,-137.98 690.3,-127.87 724.72,-124.54"/>
<polygon fill="midnightblue" stroke="midnightblue" points="579.5,-382.44 583,-392.44 586.5,-382.44 579.5,-382.44"/>
</g>
<!-- Node12 -->
<g id="node12" class="node">
<title>Node12</title>
<g id="a_node12"><a xlink:href="api_2spec_2packet__io__types_8h.html" target="_top" xlink:title=" ">
<polygon fill="white" stroke="black" points="701,-336.5 701,-355.5 805,-355.5 805,-336.5 701,-336.5"/>
<text text-anchor="middle" x="753" y="-343.5" font-family="Helvetica,sans-Serif" font-size="10.00">packet_io_types.h</text>
</a>
</g>
</g>
<!-- Node8&#45;&gt;Node12 -->
<g id="edge11" class="edge">
<title>Node8&#45;&gt;Node12</title>
<path fill="none" stroke="midnightblue" d="M619.82,-389.3C651.85,-379.13 697.52,-364.62 726.19,-355.52"/>
<polygon fill="midnightblue" stroke="midnightblue" points="618.41,-386.08 609.94,-392.44 620.53,-392.75 618.41,-386.08"/>
</g>
<!-- Node10 -->
<g id="node10" class="node">
<title>Node10</title>
<g id="a_node10"><a xlink:href="api_2packet__io_8h.html" target="_top" xlink:title=" ">
<polygon fill="white" stroke="black" points="739,-56.5 739,-75.5 811,-75.5 811,-56.5 739,-56.5"/>
<text text-anchor="middle" x="775" y="-63.5" font-family="Helvetica,sans-Serif" font-size="10.00">packet_io.h</text>
</a>
</g>
</g>
<!-- Node9&#45;&gt;Node10 -->
<g id="edge9" class="edge">
<title>Node9&#45;&gt;Node10</title>
<path fill="none" stroke="midnightblue" d="M765.82,-102.4C768.17,-93.36 770.87,-82.94 772.73,-75.75"/>
<polygon fill="midnightblue" stroke="midnightblue" points="762.43,-101.52 763.31,-112.08 769.21,-103.28 762.43,-101.52"/>
</g>
<!-- Node11 -->
<g id="node11" class="node">
<title>Node11</title>
<g id="a_node11"><a xlink:href="odp__api_8h.html" target="_top" xlink:title=" ">
<polygon fill="white" stroke="black" points="1043,-0.5 1043,-19.5 1107,-19.5 1107,-0.5 1043,-0.5"/>
<text text-anchor="middle" x="1075" y="-7.5" font-family="Helvetica,sans-Serif" font-size="10.00">odp_api.h</text>
</a>
</g>
</g>
<!-- Node10&#45;&gt;Node11 -->
<g id="edge10" class="edge">
<title>Node10&#45;&gt;Node11</title>
<path fill="none" stroke="midnightblue" d="M821.37,-56.65C882.78,-45.6 989.51,-26.39 1042.8,-16.8"/>
<polygon fill="midnightblue" stroke="midnightblue" points="820.41,-53.27 811.19,-58.49 821.65,-60.16 820.41,-53.27"/>
</g>
<!-- Node12&#45;&gt;Node13 -->
<g id="edge12" class="edge">
<title>Node12&#45;&gt;Node13</title>
<path fill="none" stroke="midnightblue" d="M755.8,-326.1C757.13,-317.14 758.65,-306.86 759.7,-299.75"/>
<polygon fill="midnightblue" stroke="midnightblue" points="752.32,-325.68 754.32,-336.08 759.25,-326.7 752.32,-325.68"/>
</g>
<!-- Node13&#45;&gt;Node9 -->
<g id="edge24" class="edge">
<title>Node13&#45;&gt;Node9</title>
<path fill="none" stroke="midnightblue" d="M761,-269.93C761,-233.92 761,-157.23 761,-131.57"/>
<polygon fill="midnightblue" stroke="midnightblue" points="757.5,-270.08 761,-280.08 764.5,-270.08 757.5,-270.08"/>
</g>
<!-- Node14 -->
<g id="node14" class="node">
<title>Node14</title>
<g id="a_node14"><a xlink:href="api_2spec_2classification_8h.html" target="_top" xlink:title=" ">
<polygon fill="white" stroke="black" points="827.5,-224.5 827.5,-243.5 916.5,-243.5 916.5,-224.5 827.5,-224.5"/>
<text text-anchor="middle" x="872" y="-231.5" font-family="Helvetica,sans-Serif" font-size="10.00">classification.h</text>
</a>
</g>
</g>
<!-- Node13&#45;&gt;Node14 -->
<g id="edge13" class="edge">
<title>Node13&#45;&gt;Node14</title>
<path fill="none" stroke="midnightblue" d="M788.01,-275.86C808.59,-265.85 836.34,-252.35 854.21,-243.65"/>
<polygon fill="midnightblue" stroke="midnightblue" points="786.3,-272.8 778.83,-280.32 789.36,-279.1 786.3,-272.8"/>
</g>
<!-- Node16 -->
<g id="node16" class="node">
<title>Node16</title>
<g id="a_node16"><a xlink:href="api_2spec_2ipsec_8h.html" target="_top" xlink:title=" ">
<polygon fill="white" stroke="black" points="843.5,-112.5 843.5,-131.5 894.5,-131.5 894.5,-112.5 843.5,-112.5"/>
<text text-anchor="middle" x="869" y="-119.5" font-family="Helvetica,sans-Serif" font-size="10.00">ipsec.h</text>
</a>
</g>
</g>
<!-- Node13&#45;&gt;Node16 -->
<g id="edge20" class="edge">
<title>Node13&#45;&gt;Node16</title>
<path fill="none" stroke="midnightblue" d="M767.13,-270.9C776.06,-246.13 794.32,-200.98 819,-168 829.92,-153.41 846.1,-139.89 857.07,-131.56"/>
<polygon fill="midnightblue" stroke="midnightblue" points="763.78,-269.86 763.79,-280.46 770.39,-272.17 763.78,-269.86"/>
</g>
<!-- Node18 -->
<g id="node18" class="node">
<title>Node18</title>
<g id="a_node18"><a xlink:href="api_2spec_2packet_8h.html" target="_top" xlink:title=" ">
<polygon fill="white" stroke="black" points="973,-224.5 973,-243.5 1031,-243.5 1031,-224.5 973,-224.5"/>
<text text-anchor="middle" x="1002" y="-231.5" font-family="Helvetica,sans-Serif" font-size="10.00">packet.h</text>
</a>
</g>
</g>
<!-- Node13&#45;&gt;Node18 -->
<g id="edge21" class="edge">
<title>Node13&#45;&gt;Node18</title>
<path fill="none" stroke="midnightblue" d="M809.21,-278.2C858.06,-267.25 932.07,-250.67 972.71,-241.56"/>
<polygon fill="midnightblue" stroke="midnightblue" points="808.18,-274.84 799.19,-280.44 809.71,-281.67 808.18,-274.84"/>
</g>
<!-- Node20 -->
<g id="node20" class="node">
<title>Node20</title>
<g id="a_node20"><a xlink:href="api_2spec_2traffic__mngr_8h.html" target="_top" xlink:title=" ">
<polygon fill="white" stroke="black" points="649,-224.5 649,-243.5 733,-243.5 733,-224.5 649,-224.5"/>
<text text-anchor="middle" x="691" y="-231.5" font-family="Helvetica,sans-Serif" font-size="10.00">traffic_mngr.h</text>
</a>
</g>
</g>
<!-- Node13&#45;&gt;Node20 -->
<g id="edge25" class="edge">
<title>Node13&#45;&gt;Node20</title>
<path fill="none" stroke="midnightblue" d="M741.69,-274.1C729.09,-264.38 713.07,-252.03 702.45,-243.83"/>
<polygon fill="midnightblue" stroke="midnightblue" points="739.7,-276.99 749.75,-280.32 743.97,-271.44 739.7,-276.99"/>
</g>
<!-- Node15 -->
<g id="node15" class="node">
<title>Node15</title>
<g id="a_node15"><a xlink:href="api_2classification_8h.html" target="_top" xlink:title=" ">
<polygon fill="white" stroke="black" points="827.5,-168.5 827.5,-187.5 916.5,-187.5 916.5,-168.5 827.5,-168.5"/>
<text text-anchor="middle" x="872" y="-175.5" font-family="Helvetica,sans-Serif" font-size="10.00">classification.h</text>
</a>
</g>
</g>
<!-- Node14&#45;&gt;Node15 -->
<g id="edge14" class="edge">
<title>Node14&#45;&gt;Node15</title>
<path fill="none" stroke="midnightblue" d="M872,-213.8C872,-204.91 872,-194.78 872,-187.75"/>
<polygon fill="midnightblue" stroke="midnightblue" points="868.5,-214.08 872,-224.08 875.5,-214.08 868.5,-214.08"/>
</g>
<!-- Node15&#45;&gt;Node9 -->
<g id="edge18" class="edge">
<title>Node15&#45;&gt;Node9</title>
<path fill="none" stroke="midnightblue" d="M844.99,-163.86C824.41,-153.85 796.66,-140.35 778.79,-131.65"/>
<polygon fill="midnightblue" stroke="midnightblue" points="843.64,-167.1 854.17,-168.32 846.7,-160.8 843.64,-167.1"/>
</g>
<!-- Node15&#45;&gt;Node11 -->
<g id="edge19" class="edge">
<title>Node15&#45;&gt;Node11</title>
<path fill="none" stroke="midnightblue" d="M886.97,-161.19C910.29,-137.01 957.27,-90.08 1002,-56 1020.59,-41.84 1043.84,-28.12 1059.03,-19.63"/>
<polygon fill="midnightblue" stroke="midnightblue" points="884.39,-158.82 880.01,-168.47 889.45,-163.66 884.39,-158.82"/>
</g>
<!-- Node15&#45;&gt;Node16 -->
<g id="edge15" class="edge">
<title>Node15&#45;&gt;Node16</title>
<path fill="none" stroke="midnightblue" d="M870.93,-157.8C870.44,-148.91 869.88,-138.78 869.49,-131.75"/>
<polygon fill="midnightblue" stroke="midnightblue" points="867.46,-158.29 871.5,-168.08 874.44,-157.9 867.46,-158.29"/>
</g>
<!-- Node17 -->
<g id="node17" class="node">
<title>Node17</title>
<g id="a_node17"><a xlink:href="api_2ipsec_8h.html" target="_top" xlink:title=" ">
<polygon fill="white" stroke="black" points="843.5,-56.5 843.5,-75.5 894.5,-75.5 894.5,-56.5 843.5,-56.5"/>
<text text-anchor="middle" x="869" y="-63.5" font-family="Helvetica,sans-Serif" font-size="10.00">ipsec.h</text>
</a>
</g>
</g>
<!-- Node16&#45;&gt;Node17 -->
<g id="edge16" class="edge">
<title>Node16&#45;&gt;Node17</title>
<path fill="none" stroke="midnightblue" d="M869,-101.8C869,-92.91 869,-82.78 869,-75.75"/>
<polygon fill="midnightblue" stroke="midnightblue" points="865.5,-102.08 869,-112.08 872.5,-102.08 865.5,-102.08"/>
</g>
<!-- Node17&#45;&gt;Node11 -->
<g id="edge17" class="edge">
<title>Node17&#45;&gt;Node11</title>
<path fill="none" stroke="midnightblue" d="M904.53,-55.69C943.47,-45.48 1005.38,-29.25 1042.9,-19.41"/>
<polygon fill="midnightblue" stroke="midnightblue" points="903.46,-52.35 894.67,-58.27 905.23,-59.12 903.46,-52.35"/>
</g>
<!-- Node19 -->
<g id="node19" class="node">
<title>Node19</title>
<g id="a_node19"><a xlink:href="api_2packet_8h.html" target="_top" xlink:title=" ">
<polygon fill="white" stroke="black" points="989,-112.5 989,-131.5 1047,-131.5 1047,-112.5 989,-112.5"/>
<text text-anchor="middle" x="1018" y="-119.5" font-family="Helvetica,sans-Serif" font-size="10.00">packet.h</text>
</a>
</g>
</g>
<!-- Node18&#45;&gt;Node19 -->
<g id="edge22" class="edge">
<title>Node18&#45;&gt;Node19</title>
<path fill="none" stroke="midnightblue" d="M1004.71,-214.35C1008.22,-190.25 1014.17,-149.31 1016.75,-131.59"/>
<polygon fill="midnightblue" stroke="midnightblue" points="1001.23,-213.97 1003.26,-224.37 1008.16,-214.98 1001.23,-213.97"/>
</g>
<!-- Node19&#45;&gt;Node11 -->
<g id="edge23" class="edge">
<title>Node19&#45;&gt;Node11</title>
<path fill="none" stroke="midnightblue" d="M1027.16,-103.32C1039.57,-79.37 1061.24,-37.55 1070.55,-19.59"/>
<polygon fill="midnightblue" stroke="midnightblue" points="1023.97,-101.88 1022.47,-112.37 1030.18,-105.1 1023.97,-101.88"/>
</g>
<!-- Node21 -->
<g id="node21" class="node">
<title>Node21</title>
<g id="a_node21"><a xlink:href="api_2traffic__mngr_8h.html" target="_top" xlink:title=" ">
<polygon fill="white" stroke="black" points="649,-168.5 649,-187.5 733,-187.5 733,-168.5 649,-168.5"/>
<text text-anchor="middle" x="691" y="-175.5" font-family="Helvetica,sans-Serif" font-size="10.00">traffic_mngr.h</text>
</a>
</g>
</g>
<!-- Node20&#45;&gt;Node21 -->
<g id="edge26" class="edge">
<title>Node20&#45;&gt;Node21</title>
<path fill="none" stroke="midnightblue" d="M691,-213.8C691,-204.91 691,-194.78 691,-187.75"/>
<polygon fill="midnightblue" stroke="midnightblue" points="687.5,-214.08 691,-224.08 694.5,-214.08 687.5,-214.08"/>
</g>
<!-- Node21&#45;&gt;Node11 -->
<g id="edge28" class="edge">
<title>Node21&#45;&gt;Node11</title>
<path fill="none" stroke="midnightblue" d="M691.19,-158.17C692.57,-131.05 699.43,-81.46 730,-56 777.11,-16.77 966.44,-11.46 1042.82,-10.94"/>
<polygon fill="midnightblue" stroke="midnightblue" points="687.69,-158.18 690.88,-168.29 694.69,-158.4 687.69,-158.18"/>
</g>
<!-- Node21&#45;&gt;Node16 -->
<g id="edge27" class="edge">
<title>Node21&#45;&gt;Node16</title>
<path fill="none" stroke="midnightblue" d="M728.92,-165.5C763.36,-155.05 813.22,-139.92 843.24,-130.82"/>
<polygon fill="midnightblue" stroke="midnightblue" points="727.76,-162.19 719.2,-168.44 729.79,-168.89 727.76,-162.19"/>
</g>
<!-- Node22&#45;&gt;Node9 -->
<g id="edge66" class="edge">
<title>Node22&#45;&gt;Node9</title>
<path fill="none" stroke="midnightblue" d="M851.88,-619.41C790.56,-609.78 700,-583.91 700,-515 700,-515 700,-515 700,-457 700,-325.82 565.13,-275.72 640,-168 658.99,-140.67 696.67,-129.9 724.96,-125.68"/>
<polygon fill="midnightblue" stroke="midnightblue" points="851.43,-622.88 861.83,-620.87 852.44,-615.95 851.43,-622.88"/>
</g>
<!-- Node22&#45;&gt;Node12 -->
<g id="edge67" class="edge">
<title>Node22&#45;&gt;Node12</title>
<path fill="none" stroke="midnightblue" d="M875.46,-612.16C840.2,-595.47 788,-562.7 788,-515 788,-515 788,-515 788,-457 788,-417.52 767.27,-373.66 757.72,-355.54"/>
<polygon fill="midnightblue" stroke="midnightblue" points="874.34,-615.5 884.9,-616.44 877.23,-609.12 874.34,-615.5"/>
</g>
<!-- Node22&#45;&gt;Node18 -->
<g id="edge62" class="edge">
<title>Node22&#45;&gt;Node18</title>
<path fill="none" stroke="midnightblue" d="M907,-606.25C907,-584.36 907,-547.05 907,-515 907,-515 907,-515 907,-401 907,-332.6 968.51,-266.79 992.54,-243.7"/>
<polygon fill="midnightblue" stroke="midnightblue" points="903.5,-606.44 907,-616.44 910.5,-606.44 903.5,-606.44"/>
</g>
<!-- Node23 -->
<g id="node23" class="node">
<title>Node23</title>
<g id="a_node23"><a xlink:href="api_2spec_2comp_8h.html" target="_top" xlink:title=" ">
<polygon fill="white" stroke="black" points="1217.5,-560.5 1217.5,-579.5 1270.5,-579.5 1270.5,-560.5 1217.5,-560.5"/>
<text text-anchor="middle" x="1244" y="-567.5" font-family="Helvetica,sans-Serif" font-size="10.00">comp.h</text>
</a>
</g>
</g>
<!-- Node22&#45;&gt;Node23 -->
<g id="edge31" class="edge">
<title>Node22&#45;&gt;Node23</title>
<path fill="none" stroke="midnightblue" d="M962.27,-618.22C1022.66,-610.46 1122.12,-596.66 1207,-580 1210.37,-579.34 1213.9,-578.57 1217.39,-577.78"/>
<polygon fill="midnightblue" stroke="midnightblue" points="961.67,-614.77 952.2,-619.51 962.56,-621.71 961.67,-614.77"/>
</g>
<!-- Node25 -->
<g id="node25" class="node">
<title>Node25</title>
<g id="a_node25"><a xlink:href="api_2spec_2crypto_8h.html" target="_top" xlink:title=" ">
<polygon fill="white" stroke="black" points="823,-336.5 823,-355.5 879,-355.5 879,-336.5 823,-336.5"/>
<text text-anchor="middle" x="851" y="-343.5" font-family="Helvetica,sans-Serif" font-size="10.00">crypto.h</text>
</a>
</g>
</g>
<!-- Node22&#45;&gt;Node25 -->
<g id="edge34" class="edge">
<title>Node22&#45;&gt;Node25</title>
<path fill="none" stroke="midnightblue" d="M894.64,-608.04C880.72,-587.21 860,-550.3 860,-515 860,-515 860,-515 860,-457 860,-419.06 854.62,-374.01 852.18,-355.54"/>
<polygon fill="midnightblue" stroke="midnightblue" points="891.88,-610.2 900.46,-616.41 897.63,-606.2 891.88,-610.2"/>
</g>
<!-- Node27 -->
<g id="node27" class="node">
<title>Node27</title>
<g id="a_node27"><a xlink:href="api_2spec_2dma__types_8h.html" target="_top" xlink:title=" ">
<polygon fill="white" stroke="black" points="939,-560.5 939,-579.5 1019,-579.5 1019,-560.5 939,-560.5"/>
<text text-anchor="middle" x="979" y="-567.5" font-family="Helvetica,sans-Serif" font-size="10.00">dma_types.h</text>
</a>
</g>
</g>
<!-- Node22&#45;&gt;Node27 -->
<g id="edge38" class="edge">
<title>Node22&#45;&gt;Node27</title>
<path fill="none" stroke="midnightblue" d="M926.87,-610.1C939.82,-600.38 956.3,-588.03 967.22,-579.83"/>
<polygon fill="midnightblue" stroke="midnightblue" points="924.47,-607.52 918.57,-616.32 928.67,-613.12 924.47,-607.52"/>
</g>
<!-- Node39 -->
<g id="node39" class="node">
<title>Node39</title>
<g id="a_node39"><a xlink:href="api_2spec_2event_8h.html" target="_top" xlink:title=" ">
<polygon fill="white" stroke="black" points="1039.5,-560.5 1039.5,-579.5 1092.5,-579.5 1092.5,-560.5 1039.5,-560.5"/>
<text text-anchor="middle" x="1066" y="-567.5" font-family="Helvetica,sans-Serif" font-size="10.00">event.h</text>
</a>
</g>
</g>
<!-- Node22&#45;&gt;Node39 -->
<g id="edge59" class="edge">
<title>Node22&#45;&gt;Node39</title>
<path fill="none" stroke="midnightblue" d="M941.83,-613.17C971.77,-603 1014.22,-588.59 1040.92,-579.52"/>
<polygon fill="midnightblue" stroke="midnightblue" points="940.54,-609.91 932.19,-616.44 942.79,-616.54 940.54,-609.91"/>
</g>
<!-- Node41 -->
<g id="node41" class="node">
<title>Node41</title>
<g id="a_node41"><a xlink:href="api_2spec_2packet__flags_8h.html" target="_top" xlink:title=" ">
<polygon fill="white" stroke="black" points="1112,-560.5 1112,-579.5 1198,-579.5 1198,-560.5 1112,-560.5"/>
<text text-anchor="middle" x="1155" y="-567.5" font-family="Helvetica,sans-Serif" font-size="10.00">packet_flags.h</text>
</a>
</g>
</g>
<!-- Node22&#45;&gt;Node41 -->
<g id="edge63" class="edge">
<title>Node22&#45;&gt;Node41</title>
<path fill="none" stroke="midnightblue" d="M956.23,-614.28C1003.09,-604.08 1072.7,-588.92 1115.89,-579.52"/>
<polygon fill="midnightblue" stroke="midnightblue" points="955.32,-610.9 946.3,-616.44 956.81,-617.74 955.32,-610.9"/>
</g>
<!-- Node24 -->
<g id="node24" class="node">
<title>Node24</title>
<g id="a_node24"><a xlink:href="api_2comp_8h.html" target="_top" xlink:title=" ">
<polygon fill="white" stroke="black" points="1358.5,-448.5 1358.5,-467.5 1411.5,-467.5 1411.5,-448.5 1358.5,-448.5"/>
<text text-anchor="middle" x="1385" y="-455.5" font-family="Helvetica,sans-Serif" font-size="10.00">comp.h</text>
</a>
</g>
</g>
<!-- Node23&#45;&gt;Node24 -->
<g id="edge32" class="edge">
<title>Node23&#45;&gt;Node24</title>
<path fill="none" stroke="midnightblue" d="M1263.08,-554.12C1293.01,-530.77 1350.04,-486.27 1373.99,-467.59"/>
<polygon fill="midnightblue" stroke="midnightblue" points="1260.8,-551.46 1255.06,-560.37 1265.1,-556.98 1260.8,-551.46"/>
</g>
<!-- Node24&#45;&gt;Node11 -->
<g id="edge33" class="edge">
<title>Node24&#45;&gt;Node11</title>
<path fill="none" stroke="midnightblue" d="M1382.53,-438.29C1379.87,-416.43 1376,-379.16 1376,-347 1376,-347 1376,-347 1376,-121 1376,-88.8 1369.84,-75.22 1344,-56 1306.96,-28.45 1170.27,-16.76 1107.23,-12.75"/>
<polygon fill="midnightblue" stroke="midnightblue" points="1379.09,-438.98 1383.82,-448.46 1386.04,-438.1 1379.09,-438.98"/>
</g>
<!-- Node26 -->
<g id="node26" class="node">
<title>Node26</title>
<g id="a_node26"><a xlink:href="api_2crypto_8h.html" target="_top" xlink:title=" ">
<polygon fill="white" stroke="black" points="934,-168.5 934,-187.5 990,-187.5 990,-168.5 934,-168.5"/>
<text text-anchor="middle" x="962" y="-175.5" font-family="Helvetica,sans-Serif" font-size="10.00">crypto.h</text>
</a>
</g>
</g>
<!-- Node25&#45;&gt;Node26 -->
<g id="edge35" class="edge">
<title>Node25&#45;&gt;Node26</title>
<path fill="none" stroke="midnightblue" d="M864.39,-328.42C879.97,-308.8 906.1,-274.89 926,-244 938.57,-224.48 951.26,-200.27 957.69,-187.62"/>
<polygon fill="midnightblue" stroke="midnightblue" points="861.54,-326.37 858.03,-336.36 867.01,-330.74 861.54,-326.37"/>
</g>
<!-- Node26&#45;&gt;Node11 -->
<g id="edge37" class="edge">
<title>Node26&#45;&gt;Node11</title>
<path fill="none" stroke="midnightblue" d="M964.75,-158.04C967.29,-144.55 971.93,-126.35 980,-112 1002.43,-72.14 1043.89,-35.81 1063.78,-19.73"/>
<polygon fill="midnightblue" stroke="midnightblue" points="961.27,-157.63 963.08,-168.07 968.18,-158.78 961.27,-157.63"/>
</g>
<!-- Node26&#45;&gt;Node16 -->
<g id="edge36" class="edge">
<title>Node26&#45;&gt;Node16</title>
<path fill="none" stroke="midnightblue" d="M938.19,-163.18C921.08,-153.24 898.53,-140.15 883.9,-131.65"/>
<polygon fill="midnightblue" stroke="midnightblue" points="936.65,-166.33 947.06,-168.32 940.17,-160.28 936.65,-166.33"/>
</g>
<!-- Node28 -->
<g id="node28" class="node">
<title>Node28</title>
<g id="a_node28"><a xlink:href="api_2dma__types_8h.html" target="_top" xlink:title=" ">
<polygon fill="white" stroke="black" points="970,-504.5 970,-523.5 1050,-523.5 1050,-504.5 970,-504.5"/>
<text text-anchor="middle" x="1010" y="-511.5" font-family="Helvetica,sans-Serif" font-size="10.00">dma_types.h</text>
</a>
</g>
</g>
<!-- Node27&#45;&gt;Node28 -->
<g id="edge39" class="edge">
<title>Node27&#45;&gt;Node28</title>
<path fill="none" stroke="midnightblue" d="M989.18,-551.27C994.47,-542.05 1000.72,-531.17 1004.98,-523.75"/>
<polygon fill="midnightblue" stroke="midnightblue" points="986.06,-549.67 984.12,-560.08 992.13,-553.15 986.06,-549.67"/>
</g>
<!-- Node29 -->
<g id="node29" class="node">
<title>Node29</title>
<g id="a_node29"><a xlink:href="spec_2dma_8h.html" target="_top" xlink:title=" ">
<polygon fill="white" stroke="black" points="1216.5,-336.5 1216.5,-355.5 1263.5,-355.5 1263.5,-336.5 1216.5,-336.5"/>
<text text-anchor="middle" x="1240" y="-343.5" font-family="Helvetica,sans-Serif" font-size="10.00">dma.h</text>
</a>
</g>
</g>
<!-- Node28&#45;&gt;Node29 -->
<g id="edge40" class="edge">
<title>Node28&#45;&gt;Node29</title>
<path fill="none" stroke="midnightblue" d="M1030.18,-498.44C1076.81,-464.78 1190.9,-382.44 1228.08,-355.61"/>
<polygon fill="midnightblue" stroke="midnightblue" points="1028.1,-495.62 1022.04,-504.31 1032.2,-501.29 1028.1,-495.62"/>
</g>
<!-- Node31 -->
<g id="node31" class="node">
<title>Node31</title>
<g id="a_node31"><a xlink:href="api_2spec_2pool__types_8h.html" target="_top" xlink:title=" ">
<polygon fill="white" stroke="black" points="970.5,-448.5 970.5,-467.5 1049.5,-467.5 1049.5,-448.5 970.5,-448.5"/>
<text text-anchor="middle" x="1010" y="-455.5" font-family="Helvetica,sans-Serif" font-size="10.00">pool_types.h</text>
</a>
</g>
</g>
<!-- Node28&#45;&gt;Node31 -->
<g id="edge43" class="edge">
<title>Node28&#45;&gt;Node31</title>
<path fill="none" stroke="midnightblue" d="M1010,-493.8C1010,-484.91 1010,-474.78 1010,-467.75"/>
<polygon fill="midnightblue" stroke="midnightblue" points="1006.5,-494.08 1010,-504.08 1013.5,-494.08 1006.5,-494.08"/>
</g>
<!-- Node30 -->
<g id="node30" class="node">
<title>Node30</title>
<g id="a_node30"><a xlink:href="dma_8h.html" target="_top" xlink:title=" ">
<polygon fill="white" stroke="black" points="1206.5,-112.5 1206.5,-131.5 1253.5,-131.5 1253.5,-112.5 1206.5,-112.5"/>
<text text-anchor="middle" x="1230" y="-119.5" font-family="Helvetica,sans-Serif" font-size="10.00">dma.h</text>
</a>
</g>
</g>
<!-- Node29&#45;&gt;Node30 -->
<g id="edge41" class="edge">
<title>Node29&#45;&gt;Node30</title>
<path fill="none" stroke="midnightblue" d="M1239.16,-326.3C1237.1,-280.64 1231.89,-164.85 1230.4,-131.88"/>
<polygon fill="midnightblue" stroke="midnightblue" points="1235.66,-326.46 1239.61,-336.3 1242.65,-326.15 1235.66,-326.46"/>
</g>
<!-- Node30&#45;&gt;Node11 -->
<g id="edge42" class="edge">
<title>Node30&#45;&gt;Node11</title>
<path fill="none" stroke="midnightblue" d="M1226.87,-102.29C1223.54,-87.85 1216.88,-68.32 1204,-56 1177.51,-30.67 1136.01,-19.53 1107.26,-14.67"/>
<polygon fill="midnightblue" stroke="midnightblue" points="1223.45,-103.01 1228.82,-112.13 1230.31,-101.65 1223.45,-103.01"/>
</g>
<!-- Node32 -->
<g id="node32" class="node">
<title>Node32</title>
<g id="a_node32"><a xlink:href="api_2pool__types_8h.html" target="_top" xlink:title=" ">
<polygon fill="white" stroke="black" points="970.5,-392.5 970.5,-411.5 1049.5,-411.5 1049.5,-392.5 970.5,-392.5"/>
<text text-anchor="middle" x="1010" y="-399.5" font-family="Helvetica,sans-Serif" font-size="10.00">pool_types.h</text>
</a>
</g>
</g>
<!-- Node31&#45;&gt;Node32 -->
<g id="edge44" class="edge">
<title>Node31&#45;&gt;Node32</title>
<path fill="none" stroke="midnightblue" d="M1010,-437.8C1010,-428.91 1010,-418.78 1010,-411.75"/>
<polygon fill="midnightblue" stroke="midnightblue" points="1006.5,-438.08 1010,-448.08 1013.5,-438.08 1006.5,-438.08"/>
</g>
<!-- Node32&#45;&gt;Node12 -->
<g id="edge52" class="edge">
<title>Node32&#45;&gt;Node12</title>
<path fill="none" stroke="midnightblue" d="M960.43,-390.58C911.84,-380.38 838.68,-365 793.49,-355.51"/>
<polygon fill="midnightblue" stroke="midnightblue" points="959.9,-394.05 970.41,-392.68 961.34,-387.2 959.9,-394.05"/>
</g>
<!-- Node32&#45;&gt;Node14 -->
<g id="edge48" class="edge">
<title>Node32&#45;&gt;Node14</title>
<path fill="none" stroke="midnightblue" d="M996.04,-384.21C966.99,-349.26 900.92,-269.79 879.12,-243.57"/>
<polygon fill="midnightblue" stroke="midnightblue" points="993.5,-386.62 1002.58,-392.08 998.88,-382.15 993.5,-386.62"/>
</g>
<!-- Node32&#45;&gt;Node18 -->
<g id="edge51" class="edge">
<title>Node32&#45;&gt;Node18</title>
<path fill="none" stroke="midnightblue" d="M1006.51,-382.54C1005.13,-374.43 1003.72,-364.78 1003,-356 999.57,-313.91 1000.91,-263.32 1001.64,-243.53"/>
<polygon fill="midnightblue" stroke="midnightblue" points="1003.07,-383.2 1008.28,-392.42 1009.96,-381.96 1003.07,-383.2"/>
</g>
<!-- Node32&#45;&gt;Node25 -->
<g id="edge49" class="edge">
<title>Node32&#45;&gt;Node25</title>
<path fill="none" stroke="midnightblue" d="M975.17,-389.17C945.23,-379 902.78,-364.59 876.08,-355.52"/>
<polygon fill="midnightblue" stroke="midnightblue" points="974.21,-392.54 984.81,-392.44 976.46,-385.91 974.21,-392.54"/>
</g>
<!-- Node32&#45;&gt;Node29 -->
<g id="edge50" class="edge">
<title>Node32&#45;&gt;Node29</title>
<path fill="none" stroke="midnightblue" d="M1059.39,-390.5C1099.55,-381.79 1157.61,-368.8 1208,-356 1210.68,-355.32 1213.49,-354.58 1216.27,-353.82"/>
<polygon fill="midnightblue" stroke="midnightblue" points="1058.62,-387.09 1049.59,-392.62 1060.1,-393.93 1058.62,-387.09"/>
</g>
<!-- Node33 -->
<g id="node33" class="node">
<title>Node33</title>
<g id="a_node33"><a xlink:href="api_2spec_2buffer_8h.html" target="_top" xlink:title=" ">
<polygon fill="white" stroke="black" points="1145.5,-336.5 1145.5,-355.5 1198.5,-355.5 1198.5,-336.5 1145.5,-336.5"/>
<text text-anchor="middle" x="1172" y="-343.5" font-family="Helvetica,sans-Serif" font-size="10.00">buffer.h</text>
</a>
</g>
</g>
<!-- Node32&#45;&gt;Node33 -->
<g id="edge45" class="edge">
<title>Node32&#45;&gt;Node33</title>
<path fill="none" stroke="midnightblue" d="M1045.48,-389.17C1075.99,-379 1119.24,-364.59 1146.45,-355.52"/>
<polygon fill="midnightblue" stroke="midnightblue" points="1044.05,-385.96 1035.67,-392.44 1046.26,-392.6 1044.05,-385.96"/>
</g>
<!-- Node35 -->
<g id="node35" class="node">
<title>Node35</title>
<g id="a_node35"><a xlink:href="api_2spec_2pool_8h.html" target="_top" xlink:title=" ">
<polygon fill="white" stroke="black" points="1011.5,-336.5 1011.5,-355.5 1058.5,-355.5 1058.5,-336.5 1011.5,-336.5"/>
<text text-anchor="middle" x="1035" y="-343.5" font-family="Helvetica,sans-Serif" font-size="10.00">pool.h</text>
</a>
</g>
</g>
<!-- Node32&#45;&gt;Node35 -->
<g id="edge53" class="edge">
<title>Node32&#45;&gt;Node35</title>
<path fill="none" stroke="midnightblue" d="M1018.34,-382.98C1022.58,-373.82 1027.55,-363.09 1030.95,-355.75"/>
<polygon fill="midnightblue" stroke="midnightblue" points="1015.15,-381.54 1014.13,-392.08 1021.51,-384.48 1015.15,-381.54"/>
</g>
<!-- Node37 -->
<g id="node37" class="node">
<title>Node37</title>
<g id="a_node37"><a xlink:href="api_2spec_2timer_8h.html" target="_top" xlink:title=" ">
<polygon fill="white" stroke="black" points="1076.5,-336.5 1076.5,-355.5 1127.5,-355.5 1127.5,-336.5 1076.5,-336.5"/>
<text text-anchor="middle" x="1102" y="-343.5" font-family="Helvetica,sans-Serif" font-size="10.00">timer.h</text>
</a>
</g>
</g>
<!-- Node32&#45;&gt;Node37 -->
<g id="edge56" class="edge">
<title>Node32&#45;&gt;Node37</title>
<path fill="none" stroke="midnightblue" d="M1033.55,-387.18C1050.48,-377.24 1072.78,-364.15 1087.26,-355.65"/>
<polygon fill="midnightblue" stroke="midnightblue" points="1031.63,-384.24 1024.78,-392.32 1035.18,-390.28 1031.63,-384.24"/>
</g>
<!-- Node34 -->
<g id="node34" class="node">
<title>Node34</title>
<g id="a_node34"><a xlink:href="api_2buffer_8h.html" target="_top" xlink:title=" ">
<polygon fill="white" stroke="black" points="1141.5,-56.5 1141.5,-75.5 1194.5,-75.5 1194.5,-56.5 1141.5,-56.5"/>
<text text-anchor="middle" x="1168" y="-63.5" font-family="Helvetica,sans-Serif" font-size="10.00">buffer.h</text>
</a>
</g>
</g>
<!-- Node33&#45;&gt;Node34 -->
<g id="edge46" class="edge">
<title>Node33&#45;&gt;Node34</title>
<path fill="none" stroke="midnightblue" d="M1170.9,-326.26C1169.72,-304.37 1168,-267.07 1168,-235 1168,-235 1168,-235 1168,-177 1168,-139.19 1168,-94.06 1168,-75.56"/>
<polygon fill="midnightblue" stroke="midnightblue" points="1167.42,-326.66 1171.48,-336.45 1174.41,-326.27 1167.42,-326.66"/>
</g>
<!-- Node34&#45;&gt;Node11 -->
<g id="edge47" class="edge">
<title>Node34&#45;&gt;Node11</title>
<path fill="none" stroke="midnightblue" d="M1144.19,-51.18C1127.08,-41.24 1104.53,-28.15 1089.9,-19.65"/>
<polygon fill="midnightblue" stroke="midnightblue" points="1142.65,-54.33 1153.06,-56.32 1146.17,-48.28 1142.65,-54.33"/>
</g>
<!-- Node36 -->
<g id="node36" class="node">
<title>Node36</title>
<g id="a_node36"><a xlink:href="api_2pool_8h.html" target="_top" xlink:title=" ">
<polygon fill="white" stroke="black" points="1020.5,-280.5 1020.5,-299.5 1067.5,-299.5 1067.5,-280.5 1020.5,-280.5"/>
<text text-anchor="middle" x="1044" y="-287.5" font-family="Helvetica,sans-Serif" font-size="10.00">pool.h</text>
</a>
</g>
</g>
<!-- Node35&#45;&gt;Node36 -->
<g id="edge54" class="edge">
<title>Node35&#45;&gt;Node36</title>
<path fill="none" stroke="midnightblue" d="M1038.15,-326.1C1039.64,-317.14 1041.36,-306.86 1042.54,-299.75"/>
<polygon fill="midnightblue" stroke="midnightblue" points="1034.68,-325.64 1036.49,-336.08 1041.58,-326.79 1034.68,-325.64"/>
</g>
<!-- Node36&#45;&gt;Node11 -->
<g id="edge55" class="edge">
<title>Node36&#45;&gt;Node11</title>
<path fill="none" stroke="midnightblue" d="M1052.26,-271.25C1061.44,-249.86 1075,-212.59 1075,-179 1075,-179 1075,-179 1075,-121 1075,-83.19 1075,-38.06 1075,-19.56"/>
<polygon fill="midnightblue" stroke="midnightblue" points="1049.06,-269.83 1048.18,-280.39 1055.45,-272.69 1049.06,-269.83"/>
</g>
<!-- Node38 -->
<g id="node38" class="node">
<title>Node38</title>
<g id="a_node38"><a xlink:href="api_2timer_8h.html" target="_top" xlink:title=" ">
<polygon fill="white" stroke="black" points="1086.5,-280.5 1086.5,-299.5 1137.5,-299.5 1137.5,-280.5 1086.5,-280.5"/>
<text text-anchor="middle" x="1112" y="-287.5" font-family="Helvetica,sans-Serif" font-size="10.00">timer.h</text>
</a>
</g>
</g>
<!-- Node37&#45;&gt;Node38 -->
<g id="edge57" class="edge">
<title>Node37&#45;&gt;Node38</title>
<path fill="none" stroke="midnightblue" d="M1105.5,-326.1C1107.16,-317.14 1109.06,-306.86 1110.38,-299.75"/>
<polygon fill="midnightblue" stroke="midnightblue" points="1102.03,-325.61 1103.65,-336.08 1108.91,-326.89 1102.03,-325.61"/>
</g>
<!-- Node38&#45;&gt;Node11 -->
<g id="edge58" class="edge">
<title>Node38&#45;&gt;Node11</title>
<path fill="none" stroke="midnightblue" d="M1112.27,-270.25C1112.57,-248.36 1113,-211.05 1113,-179 1113,-179 1113,-179 1113,-121 1113,-81.4 1090.73,-37.96 1080.28,-19.77"/>
<polygon fill="midnightblue" stroke="midnightblue" points="1108.77,-270.39 1112.13,-280.44 1115.77,-270.49 1108.77,-270.39"/>
</g>
<!-- Node40 -->
<g id="node40" class="node">
<title>Node40</title>
<g id="a_node40"><a xlink:href="api_2event_8h.html" target="_top" xlink:title=" ">
<polygon fill="white" stroke="black" points="1208.5,-448.5 1208.5,-467.5 1261.5,-467.5 1261.5,-448.5 1208.5,-448.5"/>
<text text-anchor="middle" x="1235" y="-455.5" font-family="Helvetica,sans-Serif" font-size="10.00">event.h</text>
</a>
</g>
</g>
<!-- Node39&#45;&gt;Node40 -->
<g id="edge60" class="edge">
<title>Node39&#45;&gt;Node40</title>
<path fill="none" stroke="midnightblue" d="M1080.15,-552.92C1093.29,-538.69 1113.95,-518.07 1135,-504 1158.74,-488.13 1188.99,-475.41 1209.98,-467.59"/>
<polygon fill="midnightblue" stroke="midnightblue" points="1077.44,-550.7 1073.33,-560.46 1082.63,-555.39 1077.44,-550.7"/>
</g>
<!-- Node40&#45;&gt;Node11 -->
<g id="edge61" class="edge">
<title>Node40&#45;&gt;Node11</title>
<path fill="none" stroke="midnightblue" d="M1249.79,-440.7C1266.68,-420.34 1292,-383.7 1292,-347 1292,-347 1292,-347 1292,-121 1292,-39.06 1167.38,-18.14 1107.02,-12.81"/>
<polygon fill="midnightblue" stroke="midnightblue" points="1247.05,-438.52 1243.17,-448.38 1252.35,-443.1 1247.05,-438.52"/>
</g>
<!-- Node42 -->
<g id="node42" class="node">
<title>Node42</title>
<g id="a_node42"><a xlink:href="api_2packet__flags_8h.html" target="_top" xlink:title=" ">
<polygon fill="white" stroke="black" points="1144,-504.5 1144,-523.5 1230,-523.5 1230,-504.5 1144,-504.5"/>
<text text-anchor="middle" x="1187" y="-511.5" font-family="Helvetica,sans-Serif" font-size="10.00">packet_flags.h</text>
</a>
</g>
</g>
<!-- Node41&#45;&gt;Node42 -->
<g id="edge64" class="edge">
<title>Node41&#45;&gt;Node42</title>
<path fill="none" stroke="midnightblue" d="M1165.5,-551.27C1170.97,-542.05 1177.42,-531.17 1181.81,-523.75"/>
<polygon fill="midnightblue" stroke="midnightblue" points="1162.37,-549.7 1160.28,-560.08 1168.39,-553.26 1162.37,-549.7"/>
</g>
<!-- Node42&#45;&gt;Node11 -->
<g id="edge65" class="edge">
<title>Node42&#45;&gt;Node11</title>
<path fill="none" stroke="midnightblue" d="M1227.19,-501.2C1269.49,-486.01 1330,-455.16 1330,-403 1330,-403 1330,-403 1330,-121 1330,-24.93 1175.53,-11.77 1107.04,-10.66"/>
<polygon fill="midnightblue" stroke="midnightblue" points="1226,-497.91 1217.68,-504.46 1228.27,-504.53 1226,-497.91"/>
</g>
</g>
</svg>
