<?xml version="1.0" encoding="UTF-8" standalone="no"?>
<!DOCTYPE svg PUBLIC "-//W3C//DTD SVG 1.1//EN"
 "http://www.w3.org/Graphics/SVG/1.1/DTD/svg11.dtd">
<!-- Generated by graphviz version 2.43.0 (0)
 -->
<!-- Title: std_types.h Pages: 1 -->
<svg width="3784pt" height="252pt"
 viewBox="0.00 0.00 3783.50 252.00" xmlns="http://www.w3.org/2000/svg" xmlns:xlink="http://www.w3.org/1999/xlink">
<g id="graph0" class="graph" transform="scale(1 1) rotate(0) translate(4 248)">
<title>std_types.h</title>
<polygon fill="white" stroke="transparent" points="-4,4 -4,-248 3779.5,-248 3779.5,4 -4,4"/>
<!-- Node1 -->
<g id="node1" class="node">
<title>Node1</title>
<g id="a_node1"><a xlink:title=" ">
<polygon fill="#bfbfbf" stroke="black" points="1763,-224.5 1763,-243.5 1836,-243.5 1836,-224.5 1763,-224.5"/>
<text text-anchor="middle" x="1799.5" y="-231.5" font-family="Helvetica,sans-Serif" font-size="10.00">std_types.h</text>
</a>
</g>
</g>
<!-- Node2 -->
<g id="node2" class="node">
<title>Node2</title>
<g id="a_node2"><a xlink:href="api_2std__types_8h.html" target="_top" xlink:title=" ">
<polygon fill="white" stroke="black" points="1763,-168.5 1763,-187.5 1836,-187.5 1836,-168.5 1763,-168.5"/>
<text text-anchor="middle" x="1799.5" y="-175.5" font-family="Helvetica,sans-Serif" font-size="10.00">std_types.h</text>
</a>
</g>
</g>
<!-- Node1&#45;&gt;Node2 -->
<g id="edge1" class="edge">
<title>Node1&#45;&gt;Node2</title>
<path fill="none" stroke="midnightblue" d="M1799.5,-213.8C1799.5,-204.91 1799.5,-194.78 1799.5,-187.75"/>
<polygon fill="midnightblue" stroke="midnightblue" points="1796,-214.08 1799.5,-224.08 1803,-214.08 1796,-214.08"/>
</g>
<!-- Node3 -->
<g id="node3" class="node">
<title>Node3</title>
<g id="a_node3"><a xlink:href="api_2abi-default_2atomic_8h.html" target="_top" xlink:title=" ">
<polygon fill="white" stroke="red" points="38,-112.5 38,-131.5 97,-131.5 97,-112.5 38,-112.5"/>
<text text-anchor="middle" x="67.5" y="-119.5" font-family="Helvetica,sans-Serif" font-size="10.00">atomic.h</text>
</a>
</g>
</g>
<!-- Node2&#45;&gt;Node3 -->
<g id="edge2" class="edge">
<title>Node2&#45;&gt;Node3</title>
<path fill="none" stroke="midnightblue" d="M1752.73,-177.06C1514.8,-177.16 436.98,-175.19 105.5,-132 102.81,-131.65 100.03,-131.19 97.26,-130.66"/>
<polygon fill="midnightblue" stroke="midnightblue" points="1752.79,-180.56 1762.78,-177.05 1752.78,-173.56 1752.79,-180.56"/>
</g>
<!-- Node11 -->
<g id="node6" class="node">
<title>Node11</title>
<g id="a_node6"><a xlink:href="api_2abi-default_2barrier_8h.html" target="_top" xlink:title=" ">
<polygon fill="white" stroke="red" points="115,-112.5 115,-131.5 172,-131.5 172,-112.5 115,-112.5"/>
<text text-anchor="middle" x="143.5" y="-119.5" font-family="Helvetica,sans-Serif" font-size="10.00">barrier.h</text>
</a>
</g>
</g>
<!-- Node2&#45;&gt;Node11 -->
<g id="edge5" class="edge">
<title>Node2&#45;&gt;Node11</title>
<path fill="none" stroke="midnightblue" d="M1752.62,-176.99C1520.98,-176.75 497.08,-173.32 181.5,-132 178.41,-131.6 175.2,-131.05 172.02,-130.42"/>
<polygon fill="midnightblue" stroke="midnightblue" points="1752.73,-180.49 1762.74,-177 1752.74,-173.49 1752.73,-180.49"/>
</g>
<!-- Node44 -->
<g id="node7" class="node">
<title>Node44</title>
<g id="a_node7"><a xlink:href="api_2abi-default_2byteorder_8h.html" target="_top" xlink:title=" ">
<polygon fill="white" stroke="red" points="190.5,-112.5 190.5,-131.5 262.5,-131.5 262.5,-112.5 190.5,-112.5"/>
<text text-anchor="middle" x="226.5" y="-119.5" font-family="Helvetica,sans-Serif" font-size="10.00">byteorder.h</text>
</a>
</g>
</g>
<!-- Node2&#45;&gt;Node44 -->
<g id="edge6" class="edge">
<title>Node2&#45;&gt;Node44</title>
<path fill="none" stroke="midnightblue" d="M1752.76,-176.68C1529.37,-175 569.03,-165.89 271.5,-132 268.65,-131.68 265.71,-131.26 262.77,-130.8"/>
<polygon fill="midnightblue" stroke="midnightblue" points="1752.81,-180.18 1762.84,-176.76 1752.86,-173.18 1752.81,-180.18"/>
</g>
<!-- Node52 -->
<g id="node8" class="node">
<title>Node52</title>
<g id="a_node8"><a xlink:href="api_2abi-default_2cpumask_8h.html" target="_top" xlink:title=" ">
<polygon fill="white" stroke="red" points="280.5,-112.5 280.5,-131.5 350.5,-131.5 350.5,-112.5 280.5,-112.5"/>
<text text-anchor="middle" x="315.5" y="-119.5" font-family="Helvetica,sans-Serif" font-size="10.00">cpumask.h</text>
</a>
</g>
</g>
<!-- Node2&#45;&gt;Node52 -->
<g id="edge7" class="edge">
<title>Node2&#45;&gt;Node52</title>
<path fill="none" stroke="midnightblue" d="M1752.69,-176.61C1537.11,-174.66 638.6,-164.66 359.5,-132 356.71,-131.67 353.84,-131.26 350.96,-130.79"/>
<polygon fill="midnightblue" stroke="midnightblue" points="1752.69,-180.11 1762.72,-176.7 1752.76,-173.11 1752.69,-180.11"/>
</g>
<!-- Node74 -->
<g id="node9" class="node">
<title>Node74</title>
<g id="a_node9"><a xlink:href="api_2abi-default_2init_8h.html" target="_top" xlink:title=" ">
<polygon fill="white" stroke="red" points="369,-112.5 369,-131.5 410,-131.5 410,-112.5 369,-112.5"/>
<text text-anchor="middle" x="389.5" y="-119.5" font-family="Helvetica,sans-Serif" font-size="10.00">init.h</text>
</a>
</g>
</g>
<!-- Node2&#45;&gt;Node74 -->
<g id="edge8" class="edge">
<title>Node2&#45;&gt;Node74</title>
<path fill="none" stroke="midnightblue" d="M1752.84,-177.16C1542.77,-177.6 683.55,-176.61 418.5,-132 415.8,-131.55 413,-130.9 410.25,-130.17"/>
<polygon fill="midnightblue" stroke="midnightblue" points="1752.92,-180.66 1762.92,-177.13 1752.91,-173.66 1752.92,-180.66"/>
</g>
<!-- Node81 -->
<g id="node10" class="node">
<title>Node81</title>
<g id="a_node10"><a xlink:href="api_2abi-default_2ipsec_8h.html" target="_top" xlink:title=" ">
<polygon fill="white" stroke="red" points="428,-112.5 428,-131.5 479,-131.5 479,-112.5 428,-112.5"/>
<text text-anchor="middle" x="453.5" y="-119.5" font-family="Helvetica,sans-Serif" font-size="10.00">ipsec.h</text>
</a>
</g>
</g>
<!-- Node2&#45;&gt;Node81 -->
<g id="edge9" class="edge">
<title>Node2&#45;&gt;Node81</title>
<path fill="none" stroke="midnightblue" d="M1752.96,-176.76C1549.86,-175.49 740.11,-168.23 488.5,-132 485.52,-131.57 482.43,-130.99 479.37,-130.32"/>
<polygon fill="midnightblue" stroke="midnightblue" points="1752.98,-180.26 1763,-176.82 1753.02,-173.26 1752.98,-180.26"/>
</g>
<!-- Node89 -->
<g id="node11" class="node">
<title>Node89</title>
<g id="a_node11"><a xlink:href="api_2abi-default_2packet__io__types_8h.html" target="_top" xlink:title=" ">
<polygon fill="white" stroke="red" points="497.5,-112.5 497.5,-131.5 601.5,-131.5 601.5,-112.5 497.5,-112.5"/>
<text text-anchor="middle" x="549.5" y="-119.5" font-family="Helvetica,sans-Serif" font-size="10.00">packet_io_types.h</text>
</a>
</g>
</g>
<!-- Node2&#45;&gt;Node89 -->
<g id="edge10" class="edge">
<title>Node2&#45;&gt;Node89</title>
<path fill="none" stroke="midnightblue" d="M1752.48,-177.05C1592.32,-176.84 1053.37,-172.93 610.5,-132 607.62,-131.73 604.67,-131.42 601.7,-131.08"/>
<polygon fill="midnightblue" stroke="midnightblue" points="1752.92,-180.55 1762.92,-177.06 1752.92,-173.55 1752.92,-180.55"/>
</g>
<!-- Node28 -->
<g id="node12" class="node">
<title>Node28</title>
<g id="a_node12"><a xlink:href="api_2abi-default_2rwlock__recursive_8h.html" target="_top" xlink:title=" ">
<polygon fill="white" stroke="red" points="619.5,-112.5 619.5,-131.5 727.5,-131.5 727.5,-112.5 619.5,-112.5"/>
<text text-anchor="middle" x="673.5" y="-119.5" font-family="Helvetica,sans-Serif" font-size="10.00">rwlock_recursive.h</text>
</a>
</g>
</g>
<!-- Node2&#45;&gt;Node28 -->
<g id="edge11" class="edge">
<title>Node2&#45;&gt;Node28</title>
<path fill="none" stroke="midnightblue" d="M1752.53,-176.68C1603.51,-175.3 1128.07,-168.17 736.5,-132 733.64,-131.74 730.71,-131.43 727.76,-131.1"/>
<polygon fill="midnightblue" stroke="midnightblue" points="1752.66,-180.18 1762.69,-176.77 1752.72,-173.18 1752.66,-180.18"/>
</g>
<!-- Node129 -->
<g id="node13" class="node">
<title>Node129</title>
<g id="a_node13"><a xlink:href="api_2abi-default_2schedule_8h.html" target="_top" xlink:title=" ">
<polygon fill="white" stroke="red" points="746,-112.5 746,-131.5 815,-131.5 815,-112.5 746,-112.5"/>
<text text-anchor="middle" x="780.5" y="-119.5" font-family="Helvetica,sans-Serif" font-size="10.00">schedule.h</text>
</a>
</g>
</g>
<!-- Node2&#45;&gt;Node129 -->
<g id="edge12" class="edge">
<title>Node2&#45;&gt;Node129</title>
<path fill="none" stroke="midnightblue" d="M1752.54,-177.42C1611.47,-178.11 1179.25,-176.19 824.5,-132 821.41,-131.61 818.2,-131.13 815,-130.59"/>
<polygon fill="midnightblue" stroke="midnightblue" points="1752.6,-180.91 1762.58,-177.36 1752.56,-173.91 1752.6,-180.91"/>
</g>
<!-- Node136 -->
<g id="node14" class="node">
<title>Node136</title>
<g id="a_node14"><a xlink:href="api_2abi-default_2spinlock__recursive_8h.html" target="_top" xlink:title=" ">
<polygon fill="white" stroke="red" points="833.5,-112.5 833.5,-131.5 949.5,-131.5 949.5,-112.5 833.5,-112.5"/>
<text text-anchor="middle" x="891.5" y="-119.5" font-family="Helvetica,sans-Serif" font-size="10.00">spinlock_recursive.h</text>
</a>
</g>
</g>
<!-- Node2&#45;&gt;Node136 -->
<g id="edge13" class="edge">
<title>Node2&#45;&gt;Node136</title>
<path fill="none" stroke="midnightblue" d="M1752.76,-175.81C1625.2,-172.29 1260.45,-160.31 958.5,-132 955.58,-131.73 952.59,-131.42 949.57,-131.09"/>
<polygon fill="midnightblue" stroke="midnightblue" points="1752.86,-179.32 1762.95,-176.09 1753.05,-172.32 1752.86,-179.32"/>
</g>
<!-- Node144 -->
<g id="node15" class="node">
<title>Node144</title>
<g id="a_node15"><a xlink:href="api_2abi-default_2traffic__mngr_8h.html" target="_top" xlink:title=" ">
<polygon fill="white" stroke="red" points="967.5,-112.5 967.5,-131.5 1051.5,-131.5 1051.5,-112.5 967.5,-112.5"/>
<text text-anchor="middle" x="1009.5" y="-119.5" font-family="Helvetica,sans-Serif" font-size="10.00">traffic_mngr.h</text>
</a>
</g>
</g>
<!-- Node2&#45;&gt;Node144 -->
<g id="edge14" class="edge">
<title>Node2&#45;&gt;Node144</title>
<path fill="none" stroke="midnightblue" d="M1752.73,-175.72C1636.29,-172.2 1324.17,-160.65 1065.5,-132 1061,-131.5 1056.31,-130.89 1051.64,-130.23"/>
<polygon fill="midnightblue" stroke="midnightblue" points="1752.63,-179.22 1762.73,-176.02 1752.84,-172.23 1752.63,-179.22"/>
</g>
<!-- Node18 -->
<g id="node16" class="node">
<title>Node18</title>
<g id="a_node16"><a xlink:href="api_2barrier_8h.html" target="_top" xlink:title=" ">
<polygon fill="white" stroke="black" points="1875,-56.5 1875,-75.5 1932,-75.5 1932,-56.5 1875,-56.5"/>
<text text-anchor="middle" x="1903.5" y="-63.5" font-family="Helvetica,sans-Serif" font-size="10.00">barrier.h</text>
</a>
</g>
</g>
<!-- Node2&#45;&gt;Node18 -->
<g id="edge15" class="edge">
<title>Node2&#45;&gt;Node18</title>
<path fill="none" stroke="midnightblue" d="M1846.17,-173.68C1901.67,-168.65 1989.36,-156.91 2009.5,-132 2034,-101.7 1971.25,-81.81 1932.11,-72.72"/>
<polygon fill="midnightblue" stroke="midnightblue" points="1845.86,-170.2 1836.2,-174.54 1846.47,-177.17 1845.86,-170.2"/>
</g>
<!-- Node19 -->
<g id="node17" class="node">
<title>Node19</title>
<g id="a_node17"><a xlink:href="odp__api_8h.html" target="_top" xlink:title=" ">
<polygon fill="white" stroke="black" points="1548.5,-0.5 1548.5,-19.5 1612.5,-19.5 1612.5,-0.5 1548.5,-0.5"/>
<text text-anchor="middle" x="1580.5" y="-7.5" font-family="Helvetica,sans-Serif" font-size="10.00">odp_api.h</text>
</a>
</g>
</g>
<!-- Node2&#45;&gt;Node19 -->
<g id="edge60" class="edge">
<title>Node2&#45;&gt;Node19</title>
<path fill="none" stroke="midnightblue" d="M1846.54,-176.75C2131.55,-175.15 3616.06,-165.23 3648.5,-132 3654.71,-125.64 3654.63,-118.44 3648.5,-112 3575.14,-34.97 1868.78,-14.03 1612.58,-11.32"/>
<polygon fill="midnightblue" stroke="midnightblue" points="1846.13,-173.26 1836.15,-176.81 1846.17,-180.26 1846.13,-173.26"/>
</g>
<!-- Node102 -->
<g id="node18" class="node">
<title>Node102</title>
<g id="a_node18"><a xlink:href="api_2classification_8h.html" target="_top" xlink:title=" ">
<polygon fill="white" stroke="red" points="1146,-56.5 1146,-75.5 1235,-75.5 1235,-56.5 1146,-56.5"/>
<text text-anchor="middle" x="1190.5" y="-63.5" font-family="Helvetica,sans-Serif" font-size="10.00">classification.h</text>
</a>
</g>
</g>
<!-- Node2&#45;&gt;Node102 -->
<g id="edge17" class="edge">
<title>Node2&#45;&gt;Node102</title>
<path fill="none" stroke="midnightblue" d="M1752.56,-177.42C1608.27,-178.23 1178.38,-176.82 1136.5,-132 1118.47,-112.71 1152.49,-88.41 1174.28,-75.68"/>
<polygon fill="midnightblue" stroke="midnightblue" points="1752.87,-180.92 1762.85,-177.36 1752.83,-173.92 1752.87,-180.92"/>
</g>
<!-- Node103 -->
<g id="node19" class="node">
<title>Node103</title>
<g id="a_node19"><a xlink:href="api_2spec_2ipsec_8h.html" target="_top" xlink:title=" ">
<polygon fill="white" stroke="red" points="1165,-0.5 1165,-19.5 1216,-19.5 1216,-0.5 1165,-0.5"/>
<text text-anchor="middle" x="1190.5" y="-7.5" font-family="Helvetica,sans-Serif" font-size="10.00">ipsec.h</text>
</a>
</g>
</g>
<!-- Node2&#45;&gt;Node103 -->
<g id="edge36" class="edge">
<title>Node2&#45;&gt;Node103</title>
<path fill="none" stroke="midnightblue" d="M1752.43,-177.47C1606.68,-178.43 1170.02,-177.46 1127.5,-132 1116.61,-120.36 1119.04,-86.66 1136.5,-56 1145.56,-40.09 1162.54,-27.38 1175.05,-19.57"/>
<polygon fill="midnightblue" stroke="midnightblue" points="1752.84,-180.96 1762.82,-177.39 1752.79,-173.97 1752.84,-180.96"/>
</g>
<!-- Node112 -->
<g id="node20" class="node">
<title>Node112</title>
<g id="a_node20"><a xlink:href="api_2crypto_8h.html" target="_top" xlink:title=" ">
<polygon fill="white" stroke="black" points="1254.5,-56.5 1254.5,-75.5 1310.5,-75.5 1310.5,-56.5 1254.5,-56.5"/>
<text text-anchor="middle" x="1282.5" y="-63.5" font-family="Helvetica,sans-Serif" font-size="10.00">crypto.h</text>
</a>
</g>
</g>
<!-- Node2&#45;&gt;Node112 -->
<g id="edge20" class="edge">
<title>Node2&#45;&gt;Node112</title>
<path fill="none" stroke="midnightblue" d="M1752.83,-174.58C1659.34,-169.3 1452.37,-155.32 1385.5,-132 1347.97,-118.91 1310.01,-89.99 1292.5,-75.55"/>
<polygon fill="midnightblue" stroke="midnightblue" points="1752.67,-178.08 1762.85,-175.14 1753.06,-171.09 1752.67,-178.08"/>
</g>
<!-- Node151 -->
<g id="node21" class="node">
<title>Node151</title>
<g id="a_node21"><a xlink:href="api_2proto__stats_8h.html" target="_top" xlink:title=" ">
<polygon fill="white" stroke="black" points="3695.5,-56.5 3695.5,-75.5 3775.5,-75.5 3775.5,-56.5 3695.5,-56.5"/>
<text text-anchor="middle" x="3735.5" y="-63.5" font-family="Helvetica,sans-Serif" font-size="10.00">proto_stats.h</text>
</a>
</g>
</g>
<!-- Node2&#45;&gt;Node151 -->
<g id="edge23" class="edge">
<title>Node2&#45;&gt;Node151</title>
<path fill="none" stroke="midnightblue" d="M1846.39,-176.97C2129.04,-176.68 3596.45,-173.16 3681.5,-132 3706.33,-119.98 3723.81,-90.56 3731.35,-75.78"/>
<polygon fill="midnightblue" stroke="midnightblue" points="1846.08,-173.47 1836.08,-176.98 1846.08,-180.47 1846.08,-173.47"/>
</g>
<!-- Node119 -->
<g id="node22" class="node">
<title>Node119</title>
<g id="a_node22"><a xlink:href="api_2spec_2buffer_8h.html" target="_top" xlink:title=" ">
<polygon fill="white" stroke="red" points="1403,-112.5 1403,-131.5 1456,-131.5 1456,-112.5 1403,-112.5"/>
<text text-anchor="middle" x="1429.5" y="-119.5" font-family="Helvetica,sans-Serif" font-size="10.00">buffer.h</text>
</a>
</g>
</g>
<!-- Node2&#45;&gt;Node119 -->
<g id="edge25" class="edge">
<title>Node2&#45;&gt;Node119</title>
<path fill="none" stroke="midnightblue" d="M1752.4,-172.32C1687.48,-165.5 1567.02,-151.47 1465.5,-132 1462.46,-131.42 1459.3,-130.74 1456.16,-130.02"/>
<polygon fill="midnightblue" stroke="midnightblue" points="1752.4,-175.84 1762.71,-173.39 1753.13,-168.88 1752.4,-175.84"/>
</g>
<!-- Node152 -->
<g id="node23" class="node">
<title>Node152</title>
<g id="a_node23"><a xlink:href="spec_2chksum_8h.html" target="_top" xlink:title=" ">
<polygon fill="white" stroke="red" points="1474.5,-112.5 1474.5,-131.5 1538.5,-131.5 1538.5,-112.5 1474.5,-112.5"/>
<text text-anchor="middle" x="1506.5" y="-119.5" font-family="Helvetica,sans-Serif" font-size="10.00">chksum.h</text>
</a>
</g>
</g>
<!-- Node2&#45;&gt;Node152 -->
<g id="edge26" class="edge">
<title>Node2&#45;&gt;Node152</title>
<path fill="none" stroke="midnightblue" d="M1752.69,-169.21C1702.02,-160.64 1618.86,-146.2 1547.5,-132 1544.64,-131.43 1541.67,-130.82 1538.7,-130.19"/>
<polygon fill="midnightblue" stroke="midnightblue" points="1752.25,-172.68 1762.69,-170.89 1753.41,-165.78 1752.25,-172.68"/>
</g>
<!-- Node101 -->
<g id="node24" class="node">
<title>Node101</title>
<g id="a_node24"><a xlink:href="api_2spec_2classification_8h.html" target="_top" xlink:title=" ">
<polygon fill="white" stroke="black" points="1146,-112.5 1146,-131.5 1235,-131.5 1235,-112.5 1146,-112.5"/>
<text text-anchor="middle" x="1190.5" y="-119.5" font-family="Helvetica,sans-Serif" font-size="10.00">classification.h</text>
</a>
</g>
</g>
<!-- Node2&#45;&gt;Node101 -->
<g id="edge27" class="edge">
<title>Node2&#45;&gt;Node101</title>
<path fill="none" stroke="midnightblue" d="M1752.74,-174.6C1656.93,-169.38 1431.52,-155.53 1243.5,-132 1240.81,-131.66 1238.06,-131.29 1235.28,-130.89"/>
<polygon fill="midnightblue" stroke="midnightblue" points="1752.78,-178.11 1762.96,-175.15 1753.16,-171.12 1752.78,-178.11"/>
</g>
<!-- Node109 -->
<g id="node25" class="node">
<title>Node109</title>
<g id="a_node25"><a xlink:href="api_2spec_2comp_8h.html" target="_top" xlink:title=" ">
<polygon fill="white" stroke="red" points="1623,-112.5 1623,-131.5 1676,-131.5 1676,-112.5 1623,-112.5"/>
<text text-anchor="middle" x="1649.5" y="-119.5" font-family="Helvetica,sans-Serif" font-size="10.00">comp.h</text>
</a>
</g>
</g>
<!-- Node2&#45;&gt;Node109 -->
<g id="edge29" class="edge">
<title>Node2&#45;&gt;Node109</title>
<path fill="none" stroke="midnightblue" d="M1766.28,-165.04C1738.05,-154.88 1698.24,-140.55 1673.16,-131.52"/>
<polygon fill="midnightblue" stroke="midnightblue" points="1765.14,-168.35 1775.73,-168.44 1767.51,-161.76 1765.14,-168.35"/>
</g>
<!-- Node154 -->
<g id="node26" class="node">
<title>Node154</title>
<g id="a_node26"><a xlink:href="api_2spec_2cpu_8h.html" target="_top" xlink:title=" ">
<polygon fill="white" stroke="red" points="1694,-112.5 1694,-131.5 1737,-131.5 1737,-112.5 1694,-112.5"/>
<text text-anchor="middle" x="1715.5" y="-119.5" font-family="Helvetica,sans-Serif" font-size="10.00">cpu.h</text>
</a>
</g>
</g>
<!-- Node2&#45;&gt;Node154 -->
<g id="edge30" class="edge">
<title>Node2&#45;&gt;Node154</title>
<path fill="none" stroke="midnightblue" d="M1777.57,-162.9C1762.16,-153 1742.05,-140.07 1728.96,-131.65"/>
<polygon fill="midnightblue" stroke="midnightblue" points="1775.7,-165.86 1786,-168.32 1779.48,-159.97 1775.7,-165.86"/>
</g>
<!-- Node111 -->
<g id="node27" class="node">
<title>Node111</title>
<g id="a_node27"><a xlink:href="api_2spec_2crypto_8h.html" target="_top" xlink:title=" ">
<polygon fill="white" stroke="black" points="1252.5,-112.5 1252.5,-131.5 1308.5,-131.5 1308.5,-112.5 1252.5,-112.5"/>
<text text-anchor="middle" x="1280.5" y="-119.5" font-family="Helvetica,sans-Serif" font-size="10.00">crypto.h</text>
</a>
</g>
</g>
<!-- Node2&#45;&gt;Node111 -->
<g id="edge31" class="edge">
<title>Node2&#45;&gt;Node111</title>
<path fill="none" stroke="midnightblue" d="M1752.63,-174.4C1666.88,-169.25 1479.16,-156.09 1322.5,-132 1318.08,-131.32 1313.42,-130.46 1308.88,-129.55"/>
<polygon fill="midnightblue" stroke="midnightblue" points="1752.63,-177.91 1762.82,-175.01 1753.04,-170.92 1752.63,-177.91"/>
</g>
<!-- Node113 -->
<g id="node28" class="node">
<title>Node113</title>
<g id="a_node28"><a xlink:href="api_2spec_2dma__types_8h.html" target="_top" xlink:title=" ">
<polygon fill="white" stroke="red" points="1793.5,-112.5 1793.5,-131.5 1873.5,-131.5 1873.5,-112.5 1793.5,-112.5"/>
<text text-anchor="middle" x="1833.5" y="-119.5" font-family="Helvetica,sans-Serif" font-size="10.00">dma_types.h</text>
</a>
</g>
</g>
<!-- Node2&#45;&gt;Node113 -->
<g id="edge33" class="edge">
<title>Node2&#45;&gt;Node113</title>
<path fill="none" stroke="midnightblue" d="M1810.48,-159.57C1816.33,-150.27 1823.27,-139.25 1827.99,-131.75"/>
<polygon fill="midnightblue" stroke="midnightblue" points="1807.48,-157.76 1805.11,-168.08 1813.4,-161.49 1807.48,-157.76"/>
</g>
<!-- Node156 -->
<g id="node29" class="node">
<title>Node156</title>
<g id="a_node29"><a xlink:href="api_2spec_2hash_8h.html" target="_top" xlink:title=" ">
<polygon fill="white" stroke="red" points="1892,-112.5 1892,-131.5 1941,-131.5 1941,-112.5 1892,-112.5"/>
<text text-anchor="middle" x="1916.5" y="-119.5" font-family="Helvetica,sans-Serif" font-size="10.00">hash.h</text>
</a>
</g>
</g>
<!-- Node2&#45;&gt;Node156 -->
<g id="edge34" class="edge">
<title>Node2&#45;&gt;Node156</title>
<path fill="none" stroke="midnightblue" d="M1827.16,-164.23C1849.05,-154.13 1879,-140.31 1898.05,-131.52"/>
<polygon fill="midnightblue" stroke="midnightblue" points="1825.65,-161.08 1818.04,-168.44 1828.59,-167.43 1825.65,-161.08"/>
</g>
<!-- Node70 -->
<g id="node30" class="node">
<title>Node70</title>
<g id="a_node30"><a xlink:href="api_2spec_2init_8h.html" target="_top" xlink:title=" ">
<polygon fill="white" stroke="red" points="1959,-112.5 1959,-131.5 2000,-131.5 2000,-112.5 1959,-112.5"/>
<text text-anchor="middle" x="1979.5" y="-119.5" font-family="Helvetica,sans-Serif" font-size="10.00">init.h</text>
</a>
</g>
</g>
<!-- Node2&#45;&gt;Node70 -->
<g id="edge35" class="edge">
<title>Node2&#45;&gt;Node70</title>
<path fill="none" stroke="midnightblue" d="M1838.3,-165.57C1868.82,-156.54 1912.41,-143.59 1950.5,-132 1953.22,-131.17 1956.09,-130.29 1958.91,-129.42"/>
<polygon fill="midnightblue" stroke="midnightblue" points="1837.08,-162.28 1828.48,-168.47 1839.06,-168.99 1837.08,-162.28"/>
</g>
<!-- Node104 -->
<g id="node31" class="node">
<title>Node104</title>
<g id="a_node31"><a xlink:href="api_2spec_2packet_8h.html" target="_top" xlink:title=" ">
<polygon fill="white" stroke="red" points="1672.5,-56.5 1672.5,-75.5 1730.5,-75.5 1730.5,-56.5 1672.5,-56.5"/>
<text text-anchor="middle" x="1701.5" y="-63.5" font-family="Helvetica,sans-Serif" font-size="10.00">packet.h</text>
</a>
</g>
</g>
<!-- Node2&#45;&gt;Node104 -->
<g id="edge37" class="edge">
<title>Node2&#45;&gt;Node104</title>
<path fill="none" stroke="midnightblue" d="M1786.5,-160.12C1776.04,-146.76 1760.78,-127.8 1746.5,-112 1734.65,-98.88 1720.03,-84.58 1710.74,-75.7"/>
<polygon fill="midnightblue" stroke="midnightblue" points="1784.01,-162.61 1792.91,-168.36 1789.53,-158.31 1784.01,-162.61"/>
</g>
<!-- Node127 -->
<g id="node32" class="node">
<title>Node127</title>
<g id="a_node32"><a xlink:href="api_2spec_2packet__flags_8h.html" target="_top" xlink:title=" ">
<polygon fill="white" stroke="red" points="2056.5,-112.5 2056.5,-131.5 2142.5,-131.5 2142.5,-112.5 2056.5,-112.5"/>
<text text-anchor="middle" x="2099.5" y="-119.5" font-family="Helvetica,sans-Serif" font-size="10.00">packet_flags.h</text>
</a>
</g>
</g>
<!-- Node2&#45;&gt;Node127 -->
<g id="edge38" class="edge">
<title>Node2&#45;&gt;Node127</title>
<path fill="none" stroke="midnightblue" d="M1846.2,-168.59C1903.69,-158.25 2000.54,-140.81 2056.35,-130.77"/>
<polygon fill="midnightblue" stroke="midnightblue" points="1845.51,-165.16 1836.29,-170.38 1846.75,-172.05 1845.51,-165.16"/>
</g>
<!-- Node99 -->
<g id="node33" class="node">
<title>Node99</title>
<g id="a_node33"><a xlink:href="api_2spec_2packet__io__types_8h.html" target="_top" xlink:title=" ">
<polygon fill="white" stroke="red" points="2160.5,-112.5 2160.5,-131.5 2264.5,-131.5 2264.5,-112.5 2160.5,-112.5"/>
<text text-anchor="middle" x="2212.5" y="-119.5" font-family="Helvetica,sans-Serif" font-size="10.00">packet_io_types.h</text>
</a>
</g>
</g>
<!-- Node2&#45;&gt;Node99 -->
<g id="edge39" class="edge">
<title>Node2&#45;&gt;Node99</title>
<path fill="none" stroke="midnightblue" d="M1846.31,-171.31C1913.79,-163.04 2042.3,-147.04 2151.5,-132 2154.36,-131.61 2157.3,-131.19 2160.27,-130.77"/>
<polygon fill="midnightblue" stroke="midnightblue" points="1845.52,-167.88 1836.02,-172.57 1846.37,-174.83 1845.52,-167.88"/>
</g>
<!-- Node121 -->
<g id="node34" class="node">
<title>Node121</title>
<g id="a_node34"><a xlink:href="api_2spec_2pool_8h.html" target="_top" xlink:title=" ">
<polygon fill="white" stroke="red" points="2283,-112.5 2283,-131.5 2330,-131.5 2330,-112.5 2283,-112.5"/>
<text text-anchor="middle" x="2306.5" y="-119.5" font-family="Helvetica,sans-Serif" font-size="10.00">pool.h</text>
</a>
</g>
</g>
<!-- Node2&#45;&gt;Node121 -->
<g id="edge40" class="edge">
<title>Node2&#45;&gt;Node121</title>
<path fill="none" stroke="midnightblue" d="M1846.22,-175.22C1931.65,-171.39 2118.54,-160.27 2273.5,-132 2276.54,-131.45 2279.7,-130.75 2282.82,-129.98"/>
<polygon fill="midnightblue" stroke="midnightblue" points="1845.9,-171.73 1836.07,-175.67 1846.21,-178.73 1845.9,-171.73"/>
</g>
<!-- Node117 -->
<g id="node35" class="node">
<title>Node117</title>
<g id="a_node35"><a xlink:href="api_2spec_2pool__types_8h.html" target="_top" xlink:title=" ">
<polygon fill="white" stroke="red" points="2348,-112.5 2348,-131.5 2427,-131.5 2427,-112.5 2348,-112.5"/>
<text text-anchor="middle" x="2387.5" y="-119.5" font-family="Helvetica,sans-Serif" font-size="10.00">pool_types.h</text>
</a>
</g>
</g>
<!-- Node2&#45;&gt;Node117 -->
<g id="edge41" class="edge">
<title>Node2&#45;&gt;Node117</title>
<path fill="none" stroke="midnightblue" d="M1846.33,-174.71C1940.22,-169.77 2157.98,-156.52 2339.5,-132 2342.27,-131.63 2345.13,-131.2 2348,-130.74"/>
<polygon fill="midnightblue" stroke="midnightblue" points="1846.11,-171.22 1836.31,-175.23 1846.48,-178.21 1846.11,-171.22"/>
</g>
<!-- Node158 -->
<g id="node36" class="node">
<title>Node158</title>
<g id="a_node36"><a xlink:href="api_2spec_2proto__stats__types_8h.html" target="_top" xlink:title=" ">
<polygon fill="white" stroke="red" points="2445,-112.5 2445,-131.5 2558,-131.5 2558,-112.5 2445,-112.5"/>
<text text-anchor="middle" x="2501.5" y="-119.5" font-family="Helvetica,sans-Serif" font-size="10.00">proto_stats_types.h</text>
</a>
</g>
</g>
<!-- Node2&#45;&gt;Node158 -->
<g id="edge42" class="edge">
<title>Node2&#45;&gt;Node158</title>
<path fill="none" stroke="midnightblue" d="M1846.19,-174.78C1951.63,-169.52 2216.14,-155.01 2436.5,-132 2439.22,-131.72 2442,-131.41 2444.81,-131.08"/>
<polygon fill="midnightblue" stroke="midnightblue" points="1846.01,-171.28 1836.2,-175.27 1846.36,-178.27 1846.01,-171.28"/>
</g>
<!-- Node162 -->
<g id="node37" class="node">
<title>Node162</title>
<g id="a_node37"><a xlink:href="api_2spec_2queue_8h.html" target="_top" xlink:title=" ">
<polygon fill="white" stroke="red" points="2576.5,-112.5 2576.5,-131.5 2632.5,-131.5 2632.5,-112.5 2576.5,-112.5"/>
<text text-anchor="middle" x="2604.5" y="-119.5" font-family="Helvetica,sans-Serif" font-size="10.00">queue.h</text>
</a>
</g>
</g>
<!-- Node2&#45;&gt;Node162 -->
<g id="edge43" class="edge">
<title>Node2&#45;&gt;Node162</title>
<path fill="none" stroke="midnightblue" d="M1846.45,-177.18C1966.93,-177.01 2296.63,-172.54 2567.5,-132 2570.38,-131.57 2573.36,-131.02 2576.32,-130.41"/>
<polygon fill="midnightblue" stroke="midnightblue" points="1846.12,-173.68 1836.12,-177.18 1846.12,-180.68 1846.12,-173.68"/>
</g>
<!-- Node164 -->
<g id="node38" class="node">
<title>Node164</title>
<g id="a_node38"><a xlink:href="api_2spec_2random_8h.html" target="_top" xlink:title=" ">
<polygon fill="white" stroke="red" points="2651,-112.5 2651,-131.5 2714,-131.5 2714,-112.5 2651,-112.5"/>
<text text-anchor="middle" x="2682.5" y="-119.5" font-family="Helvetica,sans-Serif" font-size="10.00">random.h</text>
</a>
</g>
</g>
<!-- Node2&#45;&gt;Node164 -->
<g id="edge44" class="edge">
<title>Node2&#45;&gt;Node164</title>
<path fill="none" stroke="midnightblue" d="M1846.45,-177.16C1974.55,-177.02 2340.61,-172.79 2641.5,-132 2644.53,-131.59 2647.67,-131.07 2650.81,-130.49"/>
<polygon fill="midnightblue" stroke="midnightblue" points="1846.22,-173.66 1836.22,-177.16 1846.22,-180.66 1846.22,-173.66"/>
</g>
<!-- Node166 -->
<g id="node39" class="node">
<title>Node166</title>
<g id="a_node39"><a xlink:href="spec_2random__types_8h.html" target="_top" xlink:title=" ">
<polygon fill="white" stroke="red" points="2732,-112.5 2732,-131.5 2827,-131.5 2827,-112.5 2732,-112.5"/>
<text text-anchor="middle" x="2779.5" y="-119.5" font-family="Helvetica,sans-Serif" font-size="10.00">random_types.h</text>
</a>
</g>
</g>
<!-- Node2&#45;&gt;Node166 -->
<g id="edge45" class="edge">
<title>Node2&#45;&gt;Node166</title>
<path fill="none" stroke="midnightblue" d="M1846.2,-176.55C1982.01,-174.85 2388.39,-166.98 2723.5,-132 2726.24,-131.71 2729.05,-131.38 2731.89,-131.02"/>
<polygon fill="midnightblue" stroke="midnightblue" points="1846.1,-173.05 1836.15,-176.67 1846.19,-180.05 1846.1,-173.05"/>
</g>
<!-- Node168 -->
<g id="node40" class="node">
<title>Node168</title>
<g id="a_node40"><a xlink:href="spec_2reassembly_8h.html" target="_top" xlink:title=" ">
<polygon fill="white" stroke="red" points="2845,-112.5 2845,-131.5 2926,-131.5 2926,-112.5 2845,-112.5"/>
<text text-anchor="middle" x="2885.5" y="-119.5" font-family="Helvetica,sans-Serif" font-size="10.00">reassembly.h</text>
</a>
</g>
</g>
<!-- Node2&#45;&gt;Node168 -->
<g id="edge46" class="edge">
<title>Node2&#45;&gt;Node168</title>
<path fill="none" stroke="midnightblue" d="M1846.39,-177.27C1993.09,-177.61 2456.16,-174.97 2836.5,-132 2839.25,-131.69 2842.08,-131.32 2844.92,-130.9"/>
<polygon fill="midnightblue" stroke="midnightblue" points="1846.39,-173.77 1836.38,-177.24 1846.37,-180.77 1846.39,-173.77"/>
</g>
<!-- Node68 -->
<g id="node41" class="node">
<title>Node68</title>
<g id="a_node41"><a xlink:href="api_2spec_2schedule_8h.html" target="_top" xlink:title=" ">
<polygon fill="white" stroke="red" points="2944,-112.5 2944,-131.5 3013,-131.5 3013,-112.5 2944,-112.5"/>
<text text-anchor="middle" x="2978.5" y="-119.5" font-family="Helvetica,sans-Serif" font-size="10.00">schedule.h</text>
</a>
</g>
</g>
<!-- Node2&#45;&gt;Node68 -->
<g id="edge47" class="edge">
<title>Node2&#45;&gt;Node68</title>
<path fill="none" stroke="midnightblue" d="M1846.28,-176.19C2032.24,-172.8 2719.44,-158.7 2935.5,-132 2938.23,-131.66 2941.03,-131.24 2943.85,-130.77"/>
<polygon fill="midnightblue" stroke="midnightblue" points="1845.96,-172.69 1836.03,-176.37 1846.09,-179.69 1845.96,-172.69"/>
</g>
<!-- Node170 -->
<g id="node42" class="node">
<title>Node170</title>
<g id="a_node42"><a xlink:href="api_2spec_2schedule__types_8h.html" target="_top" xlink:title=" ">
<polygon fill="white" stroke="red" points="3031,-112.5 3031,-131.5 3132,-131.5 3132,-112.5 3031,-112.5"/>
<text text-anchor="middle" x="3081.5" y="-119.5" font-family="Helvetica,sans-Serif" font-size="10.00">schedule_types.h</text>
</a>
</g>
</g>
<!-- Node2&#45;&gt;Node170 -->
<g id="edge48" class="edge">
<title>Node2&#45;&gt;Node170</title>
<path fill="none" stroke="midnightblue" d="M1846.26,-177.2C2009.01,-177.51 2565.58,-175.11 3022.5,-132 3025.18,-131.75 3027.93,-131.45 3030.7,-131.13"/>
<polygon fill="midnightblue" stroke="midnightblue" points="1846.13,-173.7 1836.12,-177.18 1846.11,-180.7 1846.13,-173.7"/>
</g>
<!-- Node175 -->
<g id="node43" class="node">
<title>Node175</title>
<g id="a_node43"><a xlink:href="api_2spec_2stash_8h.html" target="_top" xlink:title=" ">
<polygon fill="white" stroke="red" points="3150.5,-112.5 3150.5,-131.5 3202.5,-131.5 3202.5,-112.5 3150.5,-112.5"/>
<text text-anchor="middle" x="3176.5" y="-119.5" font-family="Helvetica,sans-Serif" font-size="10.00">stash.h</text>
</a>
</g>
</g>
<!-- Node2&#45;&gt;Node175 -->
<g id="edge49" class="edge">
<title>Node2&#45;&gt;Node175</title>
<path fill="none" stroke="midnightblue" d="M1846.46,-176.8C2053.22,-175.7 2883.65,-169.02 3141.5,-132 3144.36,-131.59 3147.32,-131.04 3150.25,-130.4"/>
<polygon fill="midnightblue" stroke="midnightblue" points="1846.23,-173.3 1836.24,-176.85 1846.26,-180.3 1846.23,-173.3"/>
</g>
<!-- Node177 -->
<g id="node44" class="node">
<title>Node177</title>
<g id="a_node44"><a xlink:href="api_2spec_2std_8h.html" target="_top" xlink:title=" ">
<polygon fill="white" stroke="red" points="3221,-112.5 3221,-131.5 3262,-131.5 3262,-112.5 3221,-112.5"/>
<text text-anchor="middle" x="3241.5" y="-119.5" font-family="Helvetica,sans-Serif" font-size="10.00">std.h</text>
</a>
</g>
</g>
<!-- Node2&#45;&gt;Node177 -->
<g id="edge50" class="edge">
<title>Node2&#45;&gt;Node177</title>
<path fill="none" stroke="midnightblue" d="M1846.49,-177.14C2060.01,-177.51 2939.98,-176.28 3211.5,-132 3214.51,-131.51 3217.63,-130.8 3220.68,-130"/>
<polygon fill="midnightblue" stroke="midnightblue" points="1846.26,-173.64 1836.26,-177.12 1846.25,-180.64 1846.26,-173.64"/>
</g>
<!-- Node179 -->
<g id="node45" class="node">
<title>Node179</title>
<g id="a_node45"><a xlink:href="spec_2threshold_8h.html" target="_top" xlink:title=" ">
<polygon fill="white" stroke="red" points="3280,-112.5 3280,-131.5 3351,-131.5 3351,-112.5 3280,-112.5"/>
<text text-anchor="middle" x="3315.5" y="-119.5" font-family="Helvetica,sans-Serif" font-size="10.00">threshold.h</text>
</a>
</g>
</g>
<!-- Node2&#45;&gt;Node179 -->
<g id="edge51" class="edge">
<title>Node2&#45;&gt;Node179</title>
<path fill="none" stroke="midnightblue" d="M1846.27,-176.65C2064.7,-174.84 2985.72,-165.35 3271.5,-132 3274.13,-131.69 3276.84,-131.31 3279.56,-130.87"/>
<polygon fill="midnightblue" stroke="midnightblue" points="1846.08,-173.15 1836.11,-176.73 1846.14,-180.15 1846.08,-173.15"/>
</g>
<!-- Node181 -->
<g id="node46" class="node">
<title>Node181</title>
<g id="a_node46"><a xlink:href="api_2spec_2thrmask_8h.html" target="_top" xlink:title=" ">
<polygon fill="white" stroke="red" points="3369.5,-112.5 3369.5,-131.5 3435.5,-131.5 3435.5,-112.5 3369.5,-112.5"/>
<text text-anchor="middle" x="3402.5" y="-119.5" font-family="Helvetica,sans-Serif" font-size="10.00">thrmask.h</text>
</a>
</g>
</g>
<!-- Node2&#45;&gt;Node181 -->
<g id="edge52" class="edge">
<title>Node2&#45;&gt;Node181</title>
<path fill="none" stroke="midnightblue" d="M1846.51,-176.8C2073.38,-175.66 3056.45,-168.65 3360.5,-132 3363.31,-131.66 3366.22,-131.22 3369.12,-130.73"/>
<polygon fill="midnightblue" stroke="midnightblue" points="1846.27,-173.3 1836.29,-176.85 1846.31,-180.3 1846.27,-173.3"/>
</g>
<!-- Node182 -->
<g id="node47" class="node">
<title>Node182</title>
<g id="a_node47"><a xlink:href="api_2spec_2timer__types_8h.html" target="_top" xlink:title=" ">
<polygon fill="white" stroke="red" points="3453.5,-112.5 3453.5,-131.5 3537.5,-131.5 3537.5,-112.5 3453.5,-112.5"/>
<text text-anchor="middle" x="3495.5" y="-119.5" font-family="Helvetica,sans-Serif" font-size="10.00">timer_types.h</text>
</a>
</g>
</g>
<!-- Node2&#45;&gt;Node182 -->
<g id="edge53" class="edge">
<title>Node2&#45;&gt;Node182</title>
<path fill="none" stroke="midnightblue" d="M1846.35,-176.65C2080.16,-174.77 3122.22,-164.66 3444.5,-132 3447.36,-131.71 3450.31,-131.35 3453.27,-130.95"/>
<polygon fill="midnightblue" stroke="midnightblue" points="1846.12,-173.15 1836.15,-176.73 1846.18,-180.15 1846.12,-173.15"/>
</g>
<!-- Node106 -->
<g id="node48" class="node">
<title>Node106</title>
<g id="a_node48"><a xlink:href="api_2spec_2traffic__mngr_8h.html" target="_top" xlink:title=" ">
<polygon fill="white" stroke="red" points="3555.5,-112.5 3555.5,-131.5 3639.5,-131.5 3639.5,-112.5 3555.5,-112.5"/>
<text text-anchor="middle" x="3597.5" y="-119.5" font-family="Helvetica,sans-Serif" font-size="10.00">traffic_mngr.h</text>
</a>
</g>
</g>
<!-- Node2&#45;&gt;Node106 -->
<g id="edge54" class="edge">
<title>Node2&#45;&gt;Node106</title>
<path fill="none" stroke="midnightblue" d="M1846.5,-176.74C2089.23,-175.23 3202.94,-166.54 3546.5,-132 3549.36,-131.71 3552.31,-131.36 3555.27,-130.95"/>
<polygon fill="midnightblue" stroke="midnightblue" points="1846.23,-173.24 1836.25,-176.8 1846.27,-180.24 1846.23,-173.24"/>
</g>
<!-- Node184 -->
<g id="node49" class="node">
<title>Node184</title>
<g id="a_node49"><a xlink:href="system__info_8h.html" target="_top" xlink:title=" ">
<polygon fill="white" stroke="black" points="1398.5,-56.5 1398.5,-75.5 1484.5,-75.5 1484.5,-56.5 1398.5,-56.5"/>
<text text-anchor="middle" x="1441.5" y="-63.5" font-family="Helvetica,sans-Serif" font-size="10.00">system_info.h</text>
</a>
</g>
</g>
<!-- Node2&#45;&gt;Node184 -->
<g id="edge55" class="edge">
<title>Node2&#45;&gt;Node184</title>
<path fill="none" stroke="midnightblue" d="M1752.63,-175.25C1650.91,-170.98 1417.11,-158.38 1393.5,-132 1376.56,-113.08 1407.57,-88.42 1427.19,-75.6"/>
<polygon fill="midnightblue" stroke="midnightblue" points="1752.78,-178.76 1762.92,-175.68 1753.07,-171.77 1752.78,-178.76"/>
</g>
<!-- Node185 -->
<g id="node50" class="node">
<title>Node185</title>
<g id="a_node50"><a xlink:href="api_2time_8h.html" target="_top" xlink:title=" ">
<polygon fill="white" stroke="red" points="1556.5,-112.5 1556.5,-131.5 1604.5,-131.5 1604.5,-112.5 1556.5,-112.5"/>
<text text-anchor="middle" x="1580.5" y="-119.5" font-family="Helvetica,sans-Serif" font-size="10.00">time.h</text>
</a>
</g>
</g>
<!-- Node2&#45;&gt;Node185 -->
<g id="edge57" class="edge">
<title>Node2&#45;&gt;Node185</title>
<path fill="none" stroke="midnightblue" d="M1752.55,-166.04C1714.89,-157.15 1660.7,-144.14 1613.5,-132 1610.62,-131.26 1607.61,-130.47 1604.63,-129.67"/>
<polygon fill="midnightblue" stroke="midnightblue" points="1752.18,-169.55 1762.72,-168.43 1753.79,-162.73 1752.18,-169.55"/>
</g>
<!-- Node4 -->
<g id="node4" class="node">
<title>Node4</title>
<g id="a_node4"><a xlink:href="arch_2arm32-linux_2odp_2api_2abi_2atomic_8h_source.html" target="_top" xlink:title=" ">
<polygon fill="white" stroke="black" points="77,-56.5 77,-75.5 136,-75.5 136,-56.5 77,-56.5"/>
<text text-anchor="middle" x="106.5" y="-63.5" font-family="Helvetica,sans-Serif" font-size="10.00">atomic.h</text>
</a>
</g>
</g>
<!-- Node3&#45;&gt;Node4 -->
<g id="edge3" class="edge">
<title>Node3&#45;&gt;Node4</title>
<path fill="none" stroke="midnightblue" d="M79.88,-103.86C86.64,-94.5 94.71,-83.33 100.18,-75.75"/>
<polygon fill="midnightblue" stroke="midnightblue" points="76.96,-101.93 73.94,-112.08 82.63,-106.03 76.96,-101.93"/>
</g>
<!-- Node5 -->
<g id="node5" class="node">
<title>Node5</title>
<g id="a_node5"><a xlink:href="arch_2arm64-linux_2odp_2api_2abi_2atomic_8h_source.html" target="_top" xlink:title=" ">
<polygon fill="white" stroke="black" points="0,-56.5 0,-75.5 59,-75.5 59,-56.5 0,-56.5"/>
<text text-anchor="middle" x="29.5" y="-63.5" font-family="Helvetica,sans-Serif" font-size="10.00">atomic.h</text>
</a>
</g>
</g>
<!-- Node3&#45;&gt;Node5 -->
<g id="edge4" class="edge">
<title>Node3&#45;&gt;Node5</title>
<path fill="none" stroke="midnightblue" d="M55.44,-103.86C48.86,-94.5 40.99,-83.33 35.66,-75.75"/>
<polygon fill="midnightblue" stroke="midnightblue" points="52.61,-105.92 61.23,-112.08 58.33,-101.89 52.61,-105.92"/>
</g>
<!-- Node18&#45;&gt;Node19 -->
<g id="edge16" class="edge">
<title>Node18&#45;&gt;Node19</title>
<path fill="none" stroke="midnightblue" d="M1864.7,-58.51C1800.36,-47.76 1672.74,-26.42 1612.9,-16.42"/>
<polygon fill="midnightblue" stroke="midnightblue" points="1864.4,-62.01 1874.84,-60.21 1865.55,-55.11 1864.4,-62.01"/>
</g>
<!-- Node102&#45;&gt;Node19 -->
<g id="edge19" class="edge">
<title>Node102&#45;&gt;Node19</title>
<path fill="none" stroke="midnightblue" d="M1245.19,-56.05C1245.29,-56.03 1245.4,-56.02 1245.5,-56 1356.36,-39.49 1488.28,-22.57 1548.12,-15.04"/>
<polygon fill="midnightblue" stroke="midnightblue" points="1244.56,-52.6 1235.21,-57.57 1245.62,-59.52 1244.56,-52.6"/>
</g>
<!-- Node102&#45;&gt;Node103 -->
<g id="edge18" class="edge">
<title>Node102&#45;&gt;Node103</title>
<path fill="none" stroke="midnightblue" d="M1190.5,-45.8C1190.5,-36.91 1190.5,-26.78 1190.5,-19.75"/>
<polygon fill="midnightblue" stroke="midnightblue" points="1187,-46.08 1190.5,-56.08 1194,-46.08 1187,-46.08"/>
</g>
<!-- Node112&#45;&gt;Node19 -->
<g id="edge22" class="edge">
<title>Node112&#45;&gt;Node19</title>
<path fill="none" stroke="midnightblue" d="M1320.6,-58.1C1379.81,-47.37 1492.89,-26.88 1548.29,-16.84"/>
<polygon fill="midnightblue" stroke="midnightblue" points="1319.75,-54.69 1310.54,-59.92 1321,-61.58 1319.75,-54.69"/>
</g>
<!-- Node112&#45;&gt;Node103 -->
<g id="edge21" class="edge">
<title>Node112&#45;&gt;Node103</title>
<path fill="none" stroke="midnightblue" d="M1258.95,-51.18C1242.02,-41.24 1219.72,-28.15 1205.24,-19.65"/>
<polygon fill="midnightblue" stroke="midnightblue" points="1257.32,-54.28 1267.72,-56.32 1260.87,-48.24 1257.32,-54.28"/>
</g>
<!-- Node151&#45;&gt;Node19 -->
<g id="edge24" class="edge">
<title>Node151&#45;&gt;Node19</title>
<path fill="none" stroke="midnightblue" d="M3685.37,-56.39C3684.07,-56.25 3682.78,-56.12 3681.5,-56 3255.13,-16.11 1844.04,-11.54 1612.71,-11.05"/>
<polygon fill="midnightblue" stroke="midnightblue" points="3685.12,-59.89 3695.48,-57.67 3686,-52.95 3685.12,-59.89"/>
</g>
<!-- Node101&#45;&gt;Node102 -->
<g id="edge28" class="edge">
<title>Node101&#45;&gt;Node102</title>
<path fill="none" stroke="midnightblue" d="M1190.5,-101.8C1190.5,-92.91 1190.5,-82.78 1190.5,-75.75"/>
<polygon fill="midnightblue" stroke="midnightblue" points="1187,-102.08 1190.5,-112.08 1194,-102.08 1187,-102.08"/>
</g>
<!-- Node111&#45;&gt;Node112 -->
<g id="edge32" class="edge">
<title>Node111&#45;&gt;Node112</title>
<path fill="none" stroke="midnightblue" d="M1281.21,-101.8C1281.54,-92.91 1281.92,-82.78 1282.18,-75.75"/>
<polygon fill="midnightblue" stroke="midnightblue" points="1277.7,-101.96 1280.83,-112.08 1284.7,-102.22 1277.7,-101.96"/>
</g>
<!-- Node184&#45;&gt;Node19 -->
<g id="edge56" class="edge">
<title>Node184&#45;&gt;Node19</title>
<path fill="none" stroke="midnightblue" d="M1472.98,-52.77C1499.09,-42.63 1535.54,-28.47 1558.58,-19.52"/>
<polygon fill="midnightblue" stroke="midnightblue" points="1471.58,-49.56 1463.52,-56.44 1474.11,-56.08 1471.58,-49.56"/>
</g>
<!-- Node185&#45;&gt;Node19 -->
<g id="edge59" class="edge">
<title>Node185&#45;&gt;Node19</title>
<path fill="none" stroke="midnightblue" d="M1580.5,-102.35C1580.5,-78.25 1580.5,-37.31 1580.5,-19.59"/>
<polygon fill="midnightblue" stroke="midnightblue" points="1577,-102.37 1580.5,-112.37 1584,-102.37 1577,-102.37"/>
</g>
<!-- Node185&#45;&gt;Node104 -->
<g id="edge58" class="edge">
<title>Node185&#45;&gt;Node104</title>
<path fill="none" stroke="midnightblue" d="M1608.81,-108.37C1631.47,-98.26 1662.63,-84.35 1682.42,-75.52"/>
<polygon fill="midnightblue" stroke="midnightblue" points="1607.38,-105.17 1599.67,-112.44 1610.23,-111.56 1607.38,-105.17"/>
</g>
</g>
</svg>
