<?xml version="1.0" encoding="UTF-8" standalone="no"?>
<!DOCTYPE svg PUBLIC "-//W3C//DTD SVG 1.1//EN"
 "http://www.w3.org/Graphics/SVG/1.1/DTD/svg11.dtd">
<!-- Generated by graphviz version 2.43.0 (0)
 -->
<!-- Title: init.h Pages: 1 -->
<svg width="356pt" height="308pt"
 viewBox="0.00 0.00 355.50 308.00" xmlns="http://www.w3.org/2000/svg" xmlns:xlink="http://www.w3.org/1999/xlink">
<g id="graph0" class="graph" transform="scale(1 1) rotate(0) translate(4 304)">
<title>init.h</title>
<polygon fill="white" stroke="transparent" points="-4,4 -4,-304 351.5,-304 351.5,4 -4,4"/>
<!-- Node1 -->
<g id="node1" class="node">
<title>Node1</title>
<g id="a_node1"><a xlink:title=" ">
<polygon fill="#bfbfbf" stroke="black" points="147,-280.5 147,-299.5 188,-299.5 188,-280.5 147,-280.5"/>
<text text-anchor="middle" x="167.5" y="-287.5" font-family="Helvetica,sans-Serif" font-size="10.00">init.h</text>
</a>
</g>
</g>
<!-- Node2 -->
<g id="node2" class="node">
<title>Node2</title>
<g id="a_node2"><a xlink:href="arch_2arm32-linux_2odp_2api_2abi_2init_8h_source.html" target="_top" xlink:title=" ">
<polygon fill="white" stroke="black" points="0,-224.5 0,-243.5 41,-243.5 41,-224.5 0,-224.5"/>
<text text-anchor="middle" x="20.5" y="-231.5" font-family="Helvetica,sans-Serif" font-size="10.00">init.h</text>
</a>
</g>
</g>
<!-- Node1&#45;&gt;Node2 -->
<g id="edge1" class="edge">
<title>Node1&#45;&gt;Node2</title>
<path fill="none" stroke="midnightblue" d="M137.22,-277.88C108.51,-267.33 66.16,-251.77 41.14,-242.58"/>
<polygon fill="midnightblue" stroke="midnightblue" points="136.16,-281.21 146.75,-281.38 138.57,-274.64 136.16,-281.21"/>
</g>
<!-- Node3 -->
<g id="node3" class="node">
<title>Node3</title>
<g id="a_node3"><a xlink:href="arch_2arm64-linux_2odp_2api_2abi_2init_8h_source.html" target="_top" xlink:title=" ">
<polygon fill="white" stroke="black" points="59,-224.5 59,-243.5 100,-243.5 100,-224.5 59,-224.5"/>
<text text-anchor="middle" x="79.5" y="-231.5" font-family="Helvetica,sans-Serif" font-size="10.00">init.h</text>
</a>
</g>
</g>
<!-- Node1&#45;&gt;Node3 -->
<g id="edge2" class="edge">
<title>Node1&#45;&gt;Node3</title>
<path fill="none" stroke="midnightblue" d="M144.52,-274.9C128.39,-265 107.32,-252.07 93.6,-243.65"/>
<polygon fill="midnightblue" stroke="midnightblue" points="143.01,-278.08 153.36,-280.32 146.67,-272.11 143.01,-278.08"/>
</g>
<!-- Node4 -->
<g id="node4" class="node">
<title>Node4</title>
<g id="a_node4"><a xlink:href="arch_2default-linux_2odp_2api_2abi_2init_8h_source.html" target="_top" xlink:title=" ">
<polygon fill="white" stroke="black" points="118,-224.5 118,-243.5 159,-243.5 159,-224.5 118,-224.5"/>
<text text-anchor="middle" x="138.5" y="-231.5" font-family="Helvetica,sans-Serif" font-size="10.00">init.h</text>
</a>
</g>
</g>
<!-- Node1&#45;&gt;Node4 -->
<g id="edge3" class="edge">
<title>Node1&#45;&gt;Node4</title>
<path fill="none" stroke="midnightblue" d="M157.82,-270.98C152.9,-261.82 147.14,-251.09 143.2,-243.75"/>
<polygon fill="midnightblue" stroke="midnightblue" points="154.9,-272.93 162.71,-280.08 161.06,-269.62 154.9,-272.93"/>
</g>
<!-- Node5 -->
<g id="node5" class="node">
<title>Node5</title>
<g id="a_node5"><a xlink:href="arch_2power64-linux_2odp_2api_2abi_2init_8h_source.html" target="_top" xlink:title=" ">
<polygon fill="white" stroke="black" points="177,-224.5 177,-243.5 218,-243.5 218,-224.5 177,-224.5"/>
<text text-anchor="middle" x="197.5" y="-231.5" font-family="Helvetica,sans-Serif" font-size="10.00">init.h</text>
</a>
</g>
</g>
<!-- Node1&#45;&gt;Node5 -->
<g id="edge4" class="edge">
<title>Node1&#45;&gt;Node5</title>
<path fill="none" stroke="midnightblue" d="M177.35,-271.27C182.47,-262.05 188.52,-251.17 192.64,-243.75"/>
<polygon fill="midnightblue" stroke="midnightblue" points="174.25,-269.64 172.45,-280.08 180.37,-273.04 174.25,-269.64"/>
</g>
<!-- Node6 -->
<g id="node6" class="node">
<title>Node6</title>
<g id="a_node6"><a xlink:href="arch_2x86__32-linux_2odp_2api_2abi_2init_8h_source.html" target="_top" xlink:title=" ">
<polygon fill="white" stroke="black" points="236,-224.5 236,-243.5 277,-243.5 277,-224.5 236,-224.5"/>
<text text-anchor="middle" x="256.5" y="-231.5" font-family="Helvetica,sans-Serif" font-size="10.00">init.h</text>
</a>
</g>
</g>
<!-- Node1&#45;&gt;Node6 -->
<g id="edge5" class="edge">
<title>Node1&#45;&gt;Node6</title>
<path fill="none" stroke="midnightblue" d="M190.74,-274.9C207.06,-265 228.37,-252.07 242.24,-243.65"/>
<polygon fill="midnightblue" stroke="midnightblue" points="188.53,-272.14 181.8,-280.32 192.16,-278.13 188.53,-272.14"/>
</g>
<!-- Node7 -->
<g id="node7" class="node">
<title>Node7</title>
<g id="a_node7"><a xlink:href="arch_2x86__64-linux_2odp_2api_2abi_2init_8h_source.html" target="_top" xlink:title=" ">
<polygon fill="white" stroke="black" points="295,-224.5 295,-243.5 336,-243.5 336,-224.5 295,-224.5"/>
<text text-anchor="middle" x="315.5" y="-231.5" font-family="Helvetica,sans-Serif" font-size="10.00">init.h</text>
</a>
</g>
</g>
<!-- Node1&#45;&gt;Node7 -->
<g id="edge6" class="edge">
<title>Node1&#45;&gt;Node7</title>
<path fill="none" stroke="midnightblue" d="M197.66,-278C226.53,-267.46 269.33,-251.85 294.62,-242.62"/>
<polygon fill="midnightblue" stroke="midnightblue" points="196.27,-274.78 188.08,-281.49 198.67,-281.35 196.27,-274.78"/>
</g>
<!-- Node8 -->
<g id="node8" class="node">
<title>Node8</title>
<g id="a_node8"><a xlink:href="api_2init_8h.html" target="_top" xlink:title=" ">
<polygon fill="white" stroke="black" points="295,-168.5 295,-187.5 336,-187.5 336,-168.5 295,-168.5"/>
<text text-anchor="middle" x="315.5" y="-175.5" font-family="Helvetica,sans-Serif" font-size="10.00">init.h</text>
</a>
</g>
</g>
<!-- Node7&#45;&gt;Node8 -->
<g id="edge7" class="edge">
<title>Node7&#45;&gt;Node8</title>
<path fill="none" stroke="midnightblue" d="M315.5,-213.8C315.5,-204.91 315.5,-194.78 315.5,-187.75"/>
<polygon fill="midnightblue" stroke="midnightblue" points="312,-214.08 315.5,-224.08 319,-214.08 312,-214.08"/>
</g>
<!-- Node9 -->
<g id="node9" class="node">
<title>Node9</title>
<g id="a_node9"><a xlink:href="api_2spec_2shared__memory_8h.html" target="_top" xlink:title=" ">
<polygon fill="white" stroke="black" points="223.5,-112.5 223.5,-131.5 327.5,-131.5 327.5,-112.5 223.5,-112.5"/>
<text text-anchor="middle" x="275.5" y="-119.5" font-family="Helvetica,sans-Serif" font-size="10.00">shared_memory.h</text>
</a>
</g>
</g>
<!-- Node8&#45;&gt;Node9 -->
<g id="edge8" class="edge">
<title>Node8&#45;&gt;Node9</title>
<path fill="none" stroke="midnightblue" d="M302.8,-159.86C295.87,-150.5 287.59,-139.33 281.98,-131.75"/>
<polygon fill="midnightblue" stroke="midnightblue" points="300.13,-162.13 308.89,-168.08 305.75,-157.96 300.13,-162.13"/>
</g>
<!-- Node11 -->
<g id="node11" class="node">
<title>Node11</title>
<g id="a_node11"><a xlink:href="odp__api_8h.html" target="_top" xlink:title=" ">
<polygon fill="white" stroke="black" points="283.5,-0.5 283.5,-19.5 347.5,-19.5 347.5,-0.5 283.5,-0.5"/>
<text text-anchor="middle" x="315.5" y="-7.5" font-family="Helvetica,sans-Serif" font-size="10.00">odp_api.h</text>
</a>
</g>
</g>
<!-- Node8&#45;&gt;Node11 -->
<g id="edge11" class="edge">
<title>Node8&#45;&gt;Node11</title>
<path fill="none" stroke="midnightblue" d="M325.78,-159.63C329.99,-151.52 334.38,-141.57 336.5,-132 343.82,-99.02 343.82,-88.98 336.5,-56 333.51,-42.53 326.06,-28.32 320.88,-19.56"/>
<polygon fill="midnightblue" stroke="midnightblue" points="322.68,-158 320.88,-168.44 328.8,-161.4 322.68,-158"/>
</g>
<!-- Node10 -->
<g id="node10" class="node">
<title>Node10</title>
<g id="a_node10"><a xlink:href="api_2shared__memory_8h.html" target="_top" xlink:title=" ">
<polygon fill="white" stroke="black" points="223.5,-56.5 223.5,-75.5 327.5,-75.5 327.5,-56.5 223.5,-56.5"/>
<text text-anchor="middle" x="275.5" y="-63.5" font-family="Helvetica,sans-Serif" font-size="10.00">shared_memory.h</text>
</a>
</g>
</g>
<!-- Node9&#45;&gt;Node10 -->
<g id="edge9" class="edge">
<title>Node9&#45;&gt;Node10</title>
<path fill="none" stroke="midnightblue" d="M275.5,-101.8C275.5,-92.91 275.5,-82.78 275.5,-75.75"/>
<polygon fill="midnightblue" stroke="midnightblue" points="272,-102.08 275.5,-112.08 279,-102.08 272,-102.08"/>
</g>
<!-- Node10&#45;&gt;Node11 -->
<g id="edge10" class="edge">
<title>Node10&#45;&gt;Node11</title>
<path fill="none" stroke="midnightblue" d="M288.2,-47.86C295.13,-38.5 303.41,-27.33 309.02,-19.75"/>
<polygon fill="midnightblue" stroke="midnightblue" points="285.25,-45.96 282.11,-56.08 290.87,-50.13 285.25,-45.96"/>
</g>
</g>
</svg>
