<?xml version="1.0" encoding="UTF-8" standalone="no"?>
<!DOCTYPE svg PUBLIC "-//W3C//DTD SVG 1.1//EN"
 "http://www.w3.org/Graphics/SVG/1.1/DTD/svg11.dtd">
<!-- Generated by graphviz version 2.43.0 (0)
 -->
<!-- Title: event.h Pages: 1 -->
<svg width="974pt" height="699pt"
 viewBox="0.00 0.00 974.00 699.00" xmlns="http://www.w3.org/2000/svg" xmlns:xlink="http://www.w3.org/1999/xlink">
<g id="graph0" class="graph" transform="scale(1 1) rotate(0) translate(4 695)">
<title>event.h</title>
<polygon fill="white" stroke="transparent" points="-4,4 -4,-695 970,-695 970,4 -4,4"/>
<!-- Node1 -->
<g id="node1" class="node">
<title>Node1</title>
<g id="a_node1"><a xlink:title=" ">
<polygon fill="#bfbfbf" stroke="black" points="99.5,-671.5 99.5,-690.5 152.5,-690.5 152.5,-671.5 99.5,-671.5"/>
<text text-anchor="middle" x="126" y="-678.5" font-family="Helvetica,sans-Serif" font-size="10.00">event.h</text>
</a>
</g>
</g>
<!-- Node2 -->
<g id="node2" class="node">
<title>Node2</title>
<g id="a_node2"><a xlink:href="visibility__begin_8h_source.html" target="_top" xlink:title=" ">
<polygon fill="white" stroke="black" points="302.5,-0.5 302.5,-19.5 423.5,-19.5 423.5,-0.5 302.5,-0.5"/>
<text text-anchor="middle" x="363" y="-7.5" font-family="Helvetica,sans-Serif" font-size="10.00">odp/visibility_begin.h</text>
</a>
</g>
</g>
<!-- Node1&#45;&gt;Node2 -->
<g id="edge1" class="edge">
<title>Node1&#45;&gt;Node2</title>
<path fill="none" stroke="midnightblue" d="M103.47,-671.44C67.23,-656.04 0,-619.99 0,-564.5 0,-564.5 0,-564.5 0,-132 0,-94.81 5.12,-78.14 35,-56 74.56,-26.68 208.12,-16.45 292.11,-12.89"/>
<polygon fill="midnightblue" stroke="midnightblue" points="292.5,-16.38 302.35,-12.48 292.22,-9.38 292.5,-16.38"/>
</g>
<!-- Node3 -->
<g id="node3" class="node">
<title>Node3</title>
<g id="a_node3"><a xlink:href="api_2event__types_8h.html" target="_top" xlink:title=" ">
<polygon fill="white" stroke="black" points="75.5,-123.5 75.5,-142.5 200.5,-142.5 200.5,-123.5 75.5,-123.5"/>
<text text-anchor="middle" x="138" y="-130.5" font-family="Helvetica,sans-Serif" font-size="10.00">odp/api/event_types.h</text>
</a>
</g>
</g>
<!-- Node1&#45;&gt;Node3 -->
<g id="edge2" class="edge">
<title>Node1&#45;&gt;Node3</title>
<path fill="none" stroke="midnightblue" d="M119.26,-671.28C105.61,-652.74 76,-607.55 76,-564.5 76,-564.5 76,-564.5 76,-244 76,-206.62 103.5,-170.24 121.87,-150.1"/>
<polygon fill="midnightblue" stroke="midnightblue" points="124.51,-152.41 128.85,-142.75 119.43,-147.59 124.51,-152.41"/>
</g>
<!-- Node6 -->
<g id="node6" class="node">
<title>Node6</title>
<g id="a_node6"><a xlink:href="visibility__end_8h_source.html" target="_top" xlink:title=" ">
<polygon fill="white" stroke="black" points="777,-0.5 777,-19.5 889,-19.5 889,-0.5 777,-0.5"/>
<text text-anchor="middle" x="833" y="-7.5" font-family="Helvetica,sans-Serif" font-size="10.00">odp/visibility_end.h</text>
</a>
</g>
</g>
<!-- Node1&#45;&gt;Node6 -->
<g id="edge40" class="edge">
<title>Node1&#45;&gt;Node6</title>
<path fill="none" stroke="midnightblue" d="M152.53,-679.21C295.31,-674.64 966,-648.68 966,-564.5 966,-564.5 966,-564.5 966,-132 966,-77.75 904.72,-41.4 865.35,-23.64"/>
<polygon fill="midnightblue" stroke="midnightblue" points="866.43,-20.3 855.86,-19.53 863.65,-26.72 866.43,-20.3"/>
</g>
<!-- Node7 -->
<g id="node7" class="node">
<title>Node7</title>
<g id="a_node7"><a xlink:href="api_2packet__types_8h.html" target="_top" xlink:title=" ">
<polygon fill="white" stroke="black" points="172.5,-615.5 172.5,-634.5 301.5,-634.5 301.5,-615.5 172.5,-615.5"/>
<text text-anchor="middle" x="237" y="-622.5" font-family="Helvetica,sans-Serif" font-size="10.00">odp/api/packet_types.h</text>
</a>
</g>
</g>
<!-- Node1&#45;&gt;Node7 -->
<g id="edge7" class="edge">
<title>Node1&#45;&gt;Node7</title>
<path fill="none" stroke="midnightblue" d="M143.83,-671.32C161.72,-662.62 189.48,-649.12 210.05,-639.11"/>
<polygon fill="midnightblue" stroke="midnightblue" points="211.75,-642.18 219.21,-634.65 208.69,-635.88 211.75,-642.18"/>
</g>
<!-- Node4 -->
<g id="node4" class="node">
<title>Node4</title>
<g id="a_node4"><a xlink:title=" ">
<polygon fill="white" stroke="#bfbfbf" points="66.5,-62 66.5,-81 209.5,-81 209.5,-62 66.5,-62"/>
<text text-anchor="middle" x="138" y="-69" font-family="Helvetica,sans-Serif" font-size="10.00">odp/api/abi/event_types.h</text>
</a>
</g>
</g>
<!-- Node3&#45;&gt;Node4 -->
<g id="edge3" class="edge">
<title>Node3&#45;&gt;Node4</title>
<path fill="none" stroke="midnightblue" d="M138,-123.48C138,-115.08 138,-101.98 138,-91.16"/>
<polygon fill="midnightblue" stroke="midnightblue" points="141.5,-91.01 138,-81.01 134.5,-91.01 141.5,-91.01"/>
</g>
<!-- Node5 -->
<g id="node5" class="node">
<title>Node5</title>
<g id="a_node5"><a xlink:href="api_2spec_2event__types_8h.html" target="_top" xlink:title=" ">
<polygon fill="white" stroke="black" points="266.5,-56.5 266.5,-86.5 375.5,-86.5 375.5,-56.5 266.5,-56.5"/>
<text text-anchor="start" x="274.5" y="-74.5" font-family="Helvetica,sans-Serif" font-size="10.00">odp/api/spec/event</text>
<text text-anchor="middle" x="321" y="-63.5" font-family="Helvetica,sans-Serif" font-size="10.00">_types.h</text>
</a>
</g>
</g>
<!-- Node3&#45;&gt;Node5 -->
<g id="edge4" class="edge">
<title>Node3&#45;&gt;Node5</title>
<path fill="none" stroke="midnightblue" d="M164.22,-123.48C191.2,-114.7 234,-100.79 268.06,-89.71"/>
<polygon fill="midnightblue" stroke="midnightblue" points="269.44,-92.94 277.87,-86.52 267.28,-86.29 269.44,-92.94"/>
</g>
<!-- Node5&#45;&gt;Node2 -->
<g id="edge5" class="edge">
<title>Node5&#45;&gt;Node2</title>
<path fill="none" stroke="midnightblue" d="M330.95,-56.4C336.99,-47.84 344.74,-36.87 351.1,-27.86"/>
<polygon fill="midnightblue" stroke="midnightblue" points="353.98,-29.85 356.89,-19.66 348.26,-25.81 353.98,-29.85"/>
</g>
<!-- Node5&#45;&gt;Node6 -->
<g id="edge6" class="edge">
<title>Node5&#45;&gt;Node6</title>
<path fill="none" stroke="midnightblue" d="M375.79,-64.13C470.44,-53.13 664.22,-30.61 766.46,-18.73"/>
<polygon fill="midnightblue" stroke="midnightblue" points="767.13,-22.18 776.66,-17.55 766.32,-15.23 767.13,-22.18"/>
</g>
<!-- Node8 -->
<g id="node8" class="node">
<title>Node8</title>
<g id="a_node8"><a xlink:title=" ">
<polygon fill="white" stroke="#bfbfbf" points="248,-548.5 248,-578.5 354,-578.5 354,-548.5 248,-548.5"/>
<text text-anchor="start" x="256" y="-566.5" font-family="Helvetica,sans-Serif" font-size="10.00">odp/api/abi/packet</text>
<text text-anchor="middle" x="301" y="-555.5" font-family="Helvetica,sans-Serif" font-size="10.00">_io_types.h</text>
</a>
</g>
</g>
<!-- Node7&#45;&gt;Node8 -->
<g id="edge8" class="edge">
<title>Node7&#45;&gt;Node8</title>
<path fill="none" stroke="midnightblue" d="M246.17,-615.48C254.59,-607.64 267.42,-595.71 278.56,-585.37"/>
<polygon fill="midnightblue" stroke="midnightblue" points="280.98,-587.9 285.92,-578.52 276.21,-582.77 280.98,-587.9"/>
</g>
<!-- Node9 -->
<g id="node9" class="node">
<title>Node9</title>
<g id="a_node9"><a xlink:title=" ">
<polygon fill="white" stroke="#bfbfbf" points="372,-548.5 372,-578.5 478,-578.5 478,-548.5 372,-548.5"/>
<text text-anchor="start" x="380" y="-566.5" font-family="Helvetica,sans-Serif" font-size="10.00">odp/api/abi/packet</text>
<text text-anchor="middle" x="425" y="-555.5" font-family="Helvetica,sans-Serif" font-size="10.00">_types.h</text>
</a>
</g>
</g>
<!-- Node7&#45;&gt;Node9 -->
<g id="edge9" class="edge">
<title>Node7&#45;&gt;Node9</title>
<path fill="none" stroke="midnightblue" d="M263.94,-615.48C291.78,-606.66 336,-592.67 371.07,-581.57"/>
<polygon fill="midnightblue" stroke="midnightblue" points="372.21,-584.88 380.69,-578.52 370.1,-578.2 372.21,-584.88"/>
</g>
<!-- Node10 -->
<g id="node10" class="node">
<title>Node10</title>
<g id="a_node10"><a xlink:href="api_2spec_2packet__types_8h.html" target="_top" xlink:title=" ">
<polygon fill="white" stroke="black" points="116.5,-548.5 116.5,-578.5 229.5,-578.5 229.5,-548.5 116.5,-548.5"/>
<text text-anchor="start" x="124.5" y="-566.5" font-family="Helvetica,sans-Serif" font-size="10.00">odp/api/spec/packet</text>
<text text-anchor="middle" x="173" y="-555.5" font-family="Helvetica,sans-Serif" font-size="10.00">_types.h</text>
</a>
</g>
</g>
<!-- Node7&#45;&gt;Node10 -->
<g id="edge10" class="edge">
<title>Node7&#45;&gt;Node10</title>
<path fill="none" stroke="midnightblue" d="M227.83,-615.48C219.41,-607.64 206.58,-595.71 195.44,-585.37"/>
<polygon fill="midnightblue" stroke="midnightblue" points="197.79,-582.77 188.08,-578.52 193.02,-587.9 197.79,-582.77"/>
</g>
<!-- Node10&#45;&gt;Node2 -->
<g id="edge11" class="edge">
<title>Node10&#45;&gt;Node2</title>
<path fill="none" stroke="midnightblue" d="M159.06,-548.4C124.57,-511.93 38,-410.19 38,-307.5 38,-307.5 38,-307.5 38,-132 38,-97.18 31.19,-79.37 57,-56 90.52,-25.64 212.4,-15.75 291.86,-12.54"/>
<polygon fill="midnightblue" stroke="midnightblue" points="292.43,-16.02 302.29,-12.14 292.16,-9.02 292.43,-16.02"/>
</g>
<!-- Node10&#45;&gt;Node6 -->
<g id="edge39" class="edge">
<title>Node10&#45;&gt;Node6</title>
<path fill="none" stroke="midnightblue" d="M229.83,-549.75C232.93,-549.14 236,-548.55 239,-548 391.4,-520.1 928,-596.43 928,-441.5 928,-441.5 928,-441.5 928,-132 928,-85.25 883.58,-45.86 855.49,-25.62"/>
<polygon fill="midnightblue" stroke="midnightblue" points="857.23,-22.57 847.02,-19.74 853.23,-28.32 857.23,-22.57"/>
</g>
<!-- Node11 -->
<g id="node11" class="node">
<title>Node11</title>
<g id="a_node11"><a xlink:href="api_2proto__stats__types_8h.html" target="_top" xlink:title=" ">
<polygon fill="white" stroke="black" points="118,-358.5 118,-388.5 228,-388.5 228,-358.5 118,-358.5"/>
<text text-anchor="start" x="126" y="-376.5" font-family="Helvetica,sans-Serif" font-size="10.00">odp/api/proto_stats</text>
<text text-anchor="middle" x="173" y="-365.5" font-family="Helvetica,sans-Serif" font-size="10.00">_types.h</text>
</a>
</g>
</g>
<!-- Node10&#45;&gt;Node11 -->
<g id="edge12" class="edge">
<title>Node10&#45;&gt;Node11</title>
<path fill="none" stroke="midnightblue" d="M173,-548.37C173,-516.44 173,-438.44 173,-398.67"/>
<polygon fill="midnightblue" stroke="midnightblue" points="176.5,-398.54 173,-388.54 169.5,-398.54 176.5,-398.54"/>
</g>
<!-- Node21 -->
<g id="node21" class="node">
<title>Node21</title>
<g id="a_node21"><a xlink:href="api_2queue__types_8h.html" target="_top" xlink:title=" ">
<polygon fill="white" stroke="black" points="347.5,-492.5 347.5,-511.5 474.5,-511.5 474.5,-492.5 347.5,-492.5"/>
<text text-anchor="middle" x="411" y="-499.5" font-family="Helvetica,sans-Serif" font-size="10.00">odp/api/queue_types.h</text>
</a>
</g>
</g>
<!-- Node10&#45;&gt;Node21 -->
<g id="edge28" class="edge">
<title>Node10&#45;&gt;Node21</title>
<path fill="none" stroke="midnightblue" d="M229.1,-548.47C271.24,-537.94 328.14,-523.72 367.01,-514"/>
<polygon fill="midnightblue" stroke="midnightblue" points="368.12,-517.33 376.97,-511.51 366.42,-510.54 368.12,-517.33"/>
</g>
<!-- Node12 -->
<g id="node12" class="node">
<title>Node12</title>
<g id="a_node12"><a xlink:title=" ">
<polygon fill="white" stroke="#bfbfbf" points="104,-291.5 104,-321.5 232,-321.5 232,-291.5 104,-291.5"/>
<text text-anchor="start" x="112" y="-309.5" font-family="Helvetica,sans-Serif" font-size="10.00">odp/api/abi/proto_stats</text>
<text text-anchor="middle" x="168" y="-298.5" font-family="Helvetica,sans-Serif" font-size="10.00">_types.h</text>
</a>
</g>
</g>
<!-- Node11&#45;&gt;Node12 -->
<g id="edge13" class="edge">
<title>Node11&#45;&gt;Node12</title>
<path fill="none" stroke="midnightblue" d="M171.92,-358.4C171.31,-350.56 170.55,-340.6 169.85,-331.57"/>
<polygon fill="midnightblue" stroke="midnightblue" points="173.34,-331.28 169.08,-321.58 166.36,-331.82 173.34,-331.28"/>
</g>
<!-- Node13 -->
<g id="node13" class="node">
<title>Node13</title>
<g id="a_node13"><a xlink:href="api_2spec_2proto__stats__types_8h.html" target="_top" xlink:title=" ">
<polygon fill="white" stroke="black" points="351.5,-291.5 351.5,-321.5 458.5,-321.5 458.5,-291.5 351.5,-291.5"/>
<text text-anchor="start" x="359.5" y="-309.5" font-family="Helvetica,sans-Serif" font-size="10.00">odp/api/spec/proto</text>
<text text-anchor="middle" x="405" y="-298.5" font-family="Helvetica,sans-Serif" font-size="10.00">_stats_types.h</text>
</a>
</g>
</g>
<!-- Node11&#45;&gt;Node13 -->
<g id="edge14" class="edge">
<title>Node11&#45;&gt;Node13</title>
<path fill="none" stroke="midnightblue" d="M223.05,-358.48C258.76,-348.47 306.95,-334.97 344.76,-324.38"/>
<polygon fill="midnightblue" stroke="midnightblue" points="345.95,-327.68 354.63,-321.61 344.06,-320.94 345.95,-327.68"/>
</g>
<!-- Node13&#45;&gt;Node2 -->
<g id="edge15" class="edge">
<title>Node13&#45;&gt;Node2</title>
<path fill="none" stroke="midnightblue" d="M404.8,-291.28C404.51,-269.48 404,-226.5 404,-190 404,-190 404,-190 404,-132 404,-93.55 385.2,-51.69 373.06,-28.67"/>
<polygon fill="midnightblue" stroke="midnightblue" points="376.06,-26.86 368.19,-19.76 369.92,-30.21 376.06,-26.86"/>
</g>
<!-- Node13&#45;&gt;Node6 -->
<g id="edge27" class="edge">
<title>Node13&#45;&gt;Node6</title>
<path fill="none" stroke="midnightblue" d="M458.73,-294.13C502,-284.64 564.26,-270.25 618,-255 706.29,-229.95 814,-281.78 814,-190 814,-190 814,-190 814,-132 814,-95.29 822.64,-53.06 828.27,-29.45"/>
<polygon fill="midnightblue" stroke="midnightblue" points="831.67,-30.28 830.67,-19.73 824.87,-28.6 831.67,-30.28"/>
</g>
<!-- Node14 -->
<g id="node14" class="node">
<title>Node14</title>
<g id="a_node14"><a xlink:href="api_2std__types_8h.html" target="_top" xlink:title=" ">
<polygon fill="white" stroke="black" points="497,-235.5 497,-254.5 609,-254.5 609,-235.5 497,-235.5"/>
<text text-anchor="middle" x="553" y="-242.5" font-family="Helvetica,sans-Serif" font-size="10.00">odp/api/std_types.h</text>
</a>
</g>
</g>
<!-- Node13&#45;&gt;Node14 -->
<g id="edge16" class="edge">
<title>Node13&#45;&gt;Node14</title>
<path fill="none" stroke="midnightblue" d="M440.07,-291.4C465.02,-281.37 498.21,-268.03 522.14,-258.4"/>
<polygon fill="midnightblue" stroke="midnightblue" points="523.49,-261.64 531.46,-254.66 520.88,-255.14 523.49,-261.64"/>
</g>
<!-- Node15 -->
<g id="node15" class="node">
<title>Node15</title>
<g id="a_node15"><a xlink:title=" ">
<polygon fill="white" stroke="#bfbfbf" points="644,-179.5 644,-198.5 774,-198.5 774,-179.5 644,-179.5"/>
<text text-anchor="middle" x="709" y="-186.5" font-family="Helvetica,sans-Serif" font-size="10.00">odp/api/abi/std_types.h</text>
</a>
</g>
</g>
<!-- Node14&#45;&gt;Node15 -->
<g id="edge17" class="edge">
<title>Node14&#45;&gt;Node15</title>
<path fill="none" stroke="midnightblue" d="M577.72,-235.44C603.85,-226.4 645.26,-212.06 674.58,-201.92"/>
<polygon fill="midnightblue" stroke="midnightblue" points="676.09,-205.1 684.4,-198.52 673.8,-198.48 676.09,-205.1"/>
</g>
<!-- Node16 -->
<g id="node16" class="node">
<title>Node16</title>
<g id="a_node16"><a xlink:href="api_2spec_2std__types_8h.html" target="_top" xlink:title=" ">
<polygon fill="white" stroke="black" points="488.5,-179.5 488.5,-198.5 625.5,-198.5 625.5,-179.5 488.5,-179.5"/>
<text text-anchor="middle" x="557" y="-186.5" font-family="Helvetica,sans-Serif" font-size="10.00">odp/api/spec/std_types.h</text>
</a>
</g>
</g>
<!-- Node14&#45;&gt;Node16 -->
<g id="edge18" class="edge">
<title>Node14&#45;&gt;Node16</title>
<path fill="none" stroke="midnightblue" d="M553.66,-235.08C554.18,-228.01 554.94,-217.86 555.59,-208.99"/>
<polygon fill="midnightblue" stroke="midnightblue" points="559.1,-208.98 556.35,-198.75 552.12,-208.47 559.1,-208.98"/>
</g>
<!-- Node16&#45;&gt;Node2 -->
<g id="edge19" class="edge">
<title>Node16&#45;&gt;Node2</title>
<path fill="none" stroke="midnightblue" d="M544.79,-179.37C533.52,-170.98 516.79,-157.42 505,-143 476.92,-108.64 488.34,-86.39 456,-56 440.38,-41.32 419.07,-30.54 400.79,-23.22"/>
<polygon fill="midnightblue" stroke="midnightblue" points="401.87,-19.88 391.28,-19.6 399.39,-26.43 401.87,-19.88"/>
</g>
<!-- Node16&#45;&gt;Node6 -->
<g id="edge26" class="edge">
<title>Node16&#45;&gt;Node6</title>
<path fill="none" stroke="midnightblue" d="M589.21,-179.46C615.37,-171.83 652.76,-159.34 683,-143 719.29,-123.39 725.9,-114.09 757,-87 779.29,-67.59 803.09,-43.1 818,-27.25"/>
<polygon fill="midnightblue" stroke="midnightblue" points="820.67,-29.53 824.93,-19.83 815.55,-24.75 820.67,-29.53"/>
</g>
<!-- Node17 -->
<g id="node17" class="node">
<title>Node17</title>
<g id="a_node17"><a xlink:title=" ">
<polygon fill="white" stroke="#bfbfbf" points="620.5,-123.5 620.5,-142.5 673.5,-142.5 673.5,-123.5 620.5,-123.5"/>
<text text-anchor="middle" x="647" y="-130.5" font-family="Helvetica,sans-Serif" font-size="10.00">stdint.h</text>
</a>
</g>
</g>
<!-- Node16&#45;&gt;Node17 -->
<g id="edge20" class="edge">
<title>Node16&#45;&gt;Node17</title>
<path fill="none" stroke="midnightblue" d="M571.46,-179.32C585.5,-170.9 607.05,-157.97 623.54,-148.07"/>
<polygon fill="midnightblue" stroke="midnightblue" points="625.8,-150.8 632.58,-142.65 622.2,-144.8 625.8,-150.8"/>
</g>
<!-- Node18 -->
<g id="node18" class="node">
<title>Node18</title>
<g id="a_node18"><a xlink:href="api_2align_8h.html" target="_top" xlink:title=" ">
<polygon fill="white" stroke="black" points="513.5,-123.5 513.5,-142.5 602.5,-142.5 602.5,-123.5 513.5,-123.5"/>
<text text-anchor="middle" x="558" y="-130.5" font-family="Helvetica,sans-Serif" font-size="10.00">odp/api/align.h</text>
</a>
</g>
</g>
<!-- Node16&#45;&gt;Node18 -->
<g id="edge21" class="edge">
<title>Node16&#45;&gt;Node18</title>
<path fill="none" stroke="midnightblue" d="M557.17,-179.08C557.3,-172.01 557.48,-161.86 557.65,-152.99"/>
<polygon fill="midnightblue" stroke="midnightblue" points="561.15,-152.81 557.84,-142.75 554.15,-152.68 561.15,-152.81"/>
</g>
<!-- Node19 -->
<g id="node19" class="node">
<title>Node19</title>
<g id="a_node19"><a xlink:title=" ">
<polygon fill="white" stroke="#bfbfbf" points="508.5,-62 508.5,-81 615.5,-81 615.5,-62 508.5,-62"/>
<text text-anchor="middle" x="562" y="-69" font-family="Helvetica,sans-Serif" font-size="10.00">odp/api/abi/align.h</text>
</a>
</g>
</g>
<!-- Node18&#45;&gt;Node19 -->
<g id="edge22" class="edge">
<title>Node18&#45;&gt;Node19</title>
<path fill="none" stroke="midnightblue" d="M558.57,-123.48C559.14,-115.08 560.02,-101.98 560.75,-91.16"/>
<polygon fill="midnightblue" stroke="midnightblue" points="564.25,-91.22 561.43,-81.01 557.26,-90.75 564.25,-91.22"/>
</g>
<!-- Node20 -->
<g id="node20" class="node">
<title>Node20</title>
<g id="a_node20"><a xlink:href="api_2spec_2align_8h.html" target="_top" xlink:title=" ">
<polygon fill="white" stroke="black" points="634,-62 634,-81 748,-81 748,-62 634,-62"/>
<text text-anchor="middle" x="691" y="-69" font-family="Helvetica,sans-Serif" font-size="10.00">odp/api/spec/align.h</text>
</a>
</g>
</g>
<!-- Node18&#45;&gt;Node20 -->
<g id="edge23" class="edge">
<title>Node18&#45;&gt;Node20</title>
<path fill="none" stroke="midnightblue" d="M577.06,-123.48C599.47,-113.45 636.91,-96.7 662.71,-85.15"/>
<polygon fill="midnightblue" stroke="midnightblue" points="664.28,-88.29 671.98,-81.01 661.42,-81.9 664.28,-88.29"/>
</g>
<!-- Node20&#45;&gt;Node2 -->
<g id="edge24" class="edge">
<title>Node20&#45;&gt;Node2</title>
<path fill="none" stroke="midnightblue" d="M653.71,-61.99C644.36,-59.95 634.33,-57.82 625,-56 557.66,-42.83 480.18,-29.78 427.04,-21.15"/>
<polygon fill="midnightblue" stroke="midnightblue" points="427.51,-17.68 417.07,-19.54 426.39,-24.59 427.51,-17.68"/>
</g>
<!-- Node20&#45;&gt;Node6 -->
<g id="edge25" class="edge">
<title>Node20&#45;&gt;Node6</title>
<path fill="none" stroke="midnightblue" d="M711.35,-61.98C735.39,-51.9 775.6,-35.05 803.16,-23.5"/>
<polygon fill="midnightblue" stroke="midnightblue" points="804.82,-26.6 812.69,-19.51 802.12,-20.15 804.82,-26.6"/>
</g>
<!-- Node22 -->
<g id="node22" class="node">
<title>Node22</title>
<g id="a_node22"><a xlink:title=" ">
<polygon fill="white" stroke="#bfbfbf" points="484.5,-431 484.5,-450 629.5,-450 629.5,-431 484.5,-431"/>
<text text-anchor="middle" x="557" y="-438" font-family="Helvetica,sans-Serif" font-size="10.00">odp/api/abi/queue_types.h</text>
</a>
</g>
</g>
<!-- Node21&#45;&gt;Node22 -->
<g id="edge29" class="edge">
<title>Node21&#45;&gt;Node22</title>
<path fill="none" stroke="midnightblue" d="M431.92,-492.48C456.75,-482.36 498.34,-465.4 526.69,-453.85"/>
<polygon fill="midnightblue" stroke="midnightblue" points="528.18,-457.02 536.12,-450.01 525.54,-450.54 528.18,-457.02"/>
</g>
<!-- Node23 -->
<g id="node23" class="node">
<title>Node23</title>
<g id="a_node23"><a xlink:href="api_2spec_2queue__types_8h.html" target="_top" xlink:title=" ">
<polygon fill="white" stroke="black" points="355.5,-425.5 355.5,-455.5 466.5,-455.5 466.5,-425.5 355.5,-425.5"/>
<text text-anchor="start" x="363.5" y="-443.5" font-family="Helvetica,sans-Serif" font-size="10.00">odp/api/spec/queue</text>
<text text-anchor="middle" x="411" y="-432.5" font-family="Helvetica,sans-Serif" font-size="10.00">_types.h</text>
</a>
</g>
</g>
<!-- Node21&#45;&gt;Node23 -->
<g id="edge30" class="edge">
<title>Node21&#45;&gt;Node23</title>
<path fill="none" stroke="midnightblue" d="M411,-492.48C411,-485.47 411,-475.19 411,-465.7"/>
<polygon fill="midnightblue" stroke="midnightblue" points="414.5,-465.52 411,-455.52 407.5,-465.52 414.5,-465.52"/>
</g>
<!-- Node23&#45;&gt;Node2 -->
<g id="edge31" class="edge">
<title>Node23&#45;&gt;Node2</title>
<path fill="none" stroke="midnightblue" d="M401.78,-425.47C387.84,-403.87 361.11,-360.89 343,-322 296.11,-221.32 277.18,-196.4 258,-87 255.62,-73.43 250.42,-67.5 258,-56 268.64,-39.86 286.39,-29.49 304.31,-22.83"/>
<polygon fill="midnightblue" stroke="midnightblue" points="305.86,-26 314.23,-19.5 303.63,-19.37 305.86,-26"/>
</g>
<!-- Node23&#45;&gt;Node6 -->
<g id="edge38" class="edge">
<title>Node23&#45;&gt;Node6</title>
<path fill="none" stroke="midnightblue" d="M466.57,-426.92C526.14,-413.4 614.3,-393.26 630,-389 746.87,-357.26 890,-428.6 890,-307.5 890,-307.5 890,-307.5 890,-132 890,-91.59 863.66,-50.21 846.79,-27.85"/>
<polygon fill="midnightblue" stroke="midnightblue" points="849.37,-25.46 840.45,-19.74 843.85,-29.77 849.37,-25.46"/>
</g>
<!-- Node24 -->
<g id="node24" class="node">
<title>Node24</title>
<g id="a_node24"><a xlink:href="api_2schedule__types_8h.html" target="_top" xlink:title=" ">
<polygon fill="white" stroke="black" points="481,-364 481,-383 621,-383 621,-364 481,-364"/>
<text text-anchor="middle" x="551" y="-371" font-family="Helvetica,sans-Serif" font-size="10.00">odp/api/schedule_types.h</text>
</a>
</g>
</g>
<!-- Node23&#45;&gt;Node24 -->
<g id="edge32" class="edge">
<title>Node23&#45;&gt;Node24</title>
<path fill="none" stroke="midnightblue" d="M441.38,-425.4C465.83,-414.04 499.91,-398.22 523.55,-387.24"/>
<polygon fill="midnightblue" stroke="midnightblue" points="525.08,-390.39 532.68,-383.01 522.13,-384.04 525.08,-390.39"/>
</g>
<!-- Node25 -->
<g id="node25" class="node">
<title>Node25</title>
<g id="a_node25"><a xlink:title=" ">
<polygon fill="white" stroke="#bfbfbf" points="631.5,-291.5 631.5,-321.5 748.5,-321.5 748.5,-291.5 631.5,-291.5"/>
<text text-anchor="start" x="639.5" y="-309.5" font-family="Helvetica,sans-Serif" font-size="10.00">odp/api/abi/schedule</text>
<text text-anchor="middle" x="690" y="-298.5" font-family="Helvetica,sans-Serif" font-size="10.00">_types.h</text>
</a>
</g>
</g>
<!-- Node24&#45;&gt;Node25 -->
<g id="edge33" class="edge">
<title>Node24&#45;&gt;Node25</title>
<path fill="none" stroke="midnightblue" d="M569.46,-363.87C590.13,-354.2 624.25,-338.25 650.91,-325.78"/>
<polygon fill="midnightblue" stroke="midnightblue" points="652.43,-328.93 660,-321.53 649.46,-322.59 652.43,-328.93"/>
</g>
<!-- Node26 -->
<g id="node26" class="node">
<title>Node26</title>
<g id="a_node26"><a xlink:href="api_2spec_2schedule__types_8h.html" target="_top" xlink:title=" ">
<polygon fill="white" stroke="black" points="488.5,-291.5 488.5,-321.5 613.5,-321.5 613.5,-291.5 488.5,-291.5"/>
<text text-anchor="start" x="496.5" y="-309.5" font-family="Helvetica,sans-Serif" font-size="10.00">odp/api/spec/schedule</text>
<text text-anchor="middle" x="551" y="-298.5" font-family="Helvetica,sans-Serif" font-size="10.00">_types.h</text>
</a>
</g>
</g>
<!-- Node24&#45;&gt;Node26 -->
<g id="edge34" class="edge">
<title>Node24&#45;&gt;Node26</title>
<path fill="none" stroke="midnightblue" d="M551,-363.73C551,-355.54 551,-342.92 551,-331.71"/>
<polygon fill="midnightblue" stroke="midnightblue" points="554.5,-331.59 551,-321.59 547.5,-331.59 554.5,-331.59"/>
</g>
<!-- Node26&#45;&gt;Node2 -->
<g id="edge35" class="edge">
<title>Node26&#45;&gt;Node2</title>
<path fill="none" stroke="midnightblue" d="M522.93,-291.35C490.63,-272.84 442,-237.15 442,-190 442,-190 442,-190 442,-132 442,-88.01 404.94,-47.52 381.59,-26.37"/>
<polygon fill="midnightblue" stroke="midnightblue" points="383.82,-23.67 373.98,-19.72 379.21,-28.94 383.82,-23.67"/>
</g>
<!-- Node26&#45;&gt;Node6 -->
<g id="edge37" class="edge">
<title>Node26&#45;&gt;Node6</title>
<path fill="none" stroke="midnightblue" d="M613.81,-292.75C616.92,-292.15 619.99,-291.57 623,-291 713.9,-273.87 756.98,-314.27 828,-255 851.64,-235.27 852,-220.8 852,-190 852,-190 852,-190 852,-132 852,-95.29 843.36,-53.06 837.73,-29.45"/>
<polygon fill="midnightblue" stroke="midnightblue" points="841.13,-28.6 835.33,-19.73 834.33,-30.28 841.13,-28.6"/>
</g>
<!-- Node26&#45;&gt;Node14 -->
<g id="edge36" class="edge">
<title>Node26&#45;&gt;Node14</title>
<path fill="none" stroke="midnightblue" d="M551.47,-291.4C551.74,-283.47 552.08,-273.46 552.37,-264.86"/>
<polygon fill="midnightblue" stroke="midnightblue" points="555.87,-264.77 552.71,-254.66 548.87,-264.53 555.87,-264.77"/>
</g>
</g>
</svg>
