<?xml version="1.0" encoding="UTF-8" standalone="no"?>
<!DOCTYPE svg PUBLIC "-//W3C//DTD SVG 1.1//EN"
 "http://www.w3.org/Graphics/SVG/1.1/DTD/svg11.dtd">
<!-- Generated by graphviz version 2.43.0 (0)
 -->
<!-- Title: atomic.h Pages: 1 -->
<svg width="1519pt" height="476pt"
 viewBox="0.00 0.00 1519.00 476.00" xmlns="http://www.w3.org/2000/svg" xmlns:xlink="http://www.w3.org/1999/xlink">
<g id="graph0" class="graph" transform="scale(1 1) rotate(0) translate(4 472)">
<title>atomic.h</title>
<polygon fill="white" stroke="transparent" points="-4,4 -4,-472 1515,-472 1515,4 -4,4"/>
<!-- Node1 -->
<g id="node1" class="node">
<title>Node1</title>
<g id="a_node1"><a xlink:title=" ">
<polygon fill="#bfbfbf" stroke="black" points="469,-448.5 469,-467.5 528,-467.5 528,-448.5 469,-448.5"/>
<text text-anchor="middle" x="498.5" y="-455.5" font-family="Helvetica,sans-Serif" font-size="10.00">atomic.h</text>
</a>
</g>
</g>
<!-- Node2 -->
<g id="node2" class="node">
<title>Node2</title>
<g id="a_node2"><a xlink:href="api_2atomic_8h.html" target="_top" xlink:title=" ">
<polygon fill="white" stroke="black" points="469,-392.5 469,-411.5 528,-411.5 528,-392.5 469,-392.5"/>
<text text-anchor="middle" x="498.5" y="-399.5" font-family="Helvetica,sans-Serif" font-size="10.00">atomic.h</text>
</a>
</g>
</g>
<!-- Node1&#45;&gt;Node2 -->
<g id="edge1" class="edge">
<title>Node1&#45;&gt;Node2</title>
<path fill="none" stroke="midnightblue" d="M498.5,-437.8C498.5,-428.91 498.5,-418.78 498.5,-411.75"/>
<polygon fill="midnightblue" stroke="midnightblue" points="495,-438.08 498.5,-448.08 502,-438.08 495,-438.08"/>
</g>
<!-- Node3 -->
<g id="node3" class="node">
<title>Node3</title>
<g id="a_node3"><a xlink:href="api_2abi-default_2barrier_8h.html" target="_top" xlink:title=" ">
<polygon fill="white" stroke="black" points="225,-336.5 225,-355.5 282,-355.5 282,-336.5 225,-336.5"/>
<text text-anchor="middle" x="253.5" y="-343.5" font-family="Helvetica,sans-Serif" font-size="10.00">barrier.h</text>
</a>
</g>
</g>
<!-- Node2&#45;&gt;Node3 -->
<g id="edge2" class="edge">
<title>Node2&#45;&gt;Node3</title>
<path fill="none" stroke="midnightblue" d="M458.92,-392.28C409.37,-381.36 325.72,-362.92 282.02,-353.29"/>
<polygon fill="midnightblue" stroke="midnightblue" points="458.43,-395.75 468.95,-394.49 459.94,-388.92 458.43,-395.75"/>
</g>
<!-- Node10 -->
<g id="node10" class="node">
<title>Node10</title>
<g id="a_node10"><a xlink:href="api_2barrier_8h.html" target="_top" xlink:title=" ">
<polygon fill="white" stroke="black" points="413,-224.5 413,-243.5 470,-243.5 470,-224.5 413,-224.5"/>
<text text-anchor="middle" x="441.5" y="-231.5" font-family="Helvetica,sans-Serif" font-size="10.00">barrier.h</text>
</a>
</g>
</g>
<!-- Node2&#45;&gt;Node10 -->
<g id="edge38" class="edge">
<title>Node2&#45;&gt;Node10</title>
<path fill="none" stroke="midnightblue" d="M492.11,-382.39C479.82,-346.59 453.29,-269.34 444.44,-243.57"/>
<polygon fill="midnightblue" stroke="midnightblue" points="488.88,-383.75 495.44,-392.08 495.5,-381.48 488.88,-383.75"/>
</g>
<!-- Node11 -->
<g id="node11" class="node">
<title>Node11</title>
<g id="a_node11"><a xlink:href="odp__api_8h.html" target="_top" xlink:title=" ">
<polygon fill="white" stroke="black" points="536.5,-0.5 536.5,-19.5 600.5,-19.5 600.5,-0.5 536.5,-0.5"/>
<text text-anchor="middle" x="568.5" y="-7.5" font-family="Helvetica,sans-Serif" font-size="10.00">odp_api.h</text>
</a>
</g>
</g>
<!-- Node2&#45;&gt;Node11 -->
<g id="edge39" class="edge">
<title>Node2&#45;&gt;Node11</title>
<path fill="none" stroke="midnightblue" d="M498.5,-382.25C498.5,-360.36 498.5,-323.05 498.5,-291 498.5,-291 498.5,-291 498.5,-121 498.5,-77.09 538.7,-36.56 558.17,-19.5"/>
<polygon fill="midnightblue" stroke="midnightblue" points="495,-382.44 498.5,-392.44 502,-382.44 495,-382.44"/>
</g>
<!-- Node12 -->
<g id="node12" class="node">
<title>Node12</title>
<g id="a_node12"><a xlink:href="api_2abi-default_2rwlock_8h.html" target="_top" xlink:title=" ">
<polygon fill="white" stroke="black" points="678.5,-336.5 678.5,-355.5 736.5,-355.5 736.5,-336.5 678.5,-336.5"/>
<text text-anchor="middle" x="707.5" y="-343.5" font-family="Helvetica,sans-Serif" font-size="10.00">rwlock.h</text>
</a>
</g>
</g>
<!-- Node2&#45;&gt;Node12 -->
<g id="edge11" class="edge">
<title>Node2&#45;&gt;Node12</title>
<path fill="none" stroke="midnightblue" d="M537.9,-390.82C578.83,-380.25 641.89,-363.95 678.48,-354.5"/>
<polygon fill="midnightblue" stroke="midnightblue" points="536.81,-387.49 528,-393.38 538.56,-394.26 536.81,-387.49"/>
</g>
<!-- Node28 -->
<g id="node28" class="node">
<title>Node28</title>
<g id="a_node28"><a xlink:href="api_2abi-default_2ticketlock_8h.html" target="_top" xlink:title=" ">
<polygon fill="white" stroke="black" points="1165,-336.5 1165,-355.5 1238,-355.5 1238,-336.5 1165,-336.5"/>
<text text-anchor="middle" x="1201.5" y="-343.5" font-family="Helvetica,sans-Serif" font-size="10.00">ticketlock.h</text>
</a>
</g>
</g>
<!-- Node2&#45;&gt;Node28 -->
<g id="edge29" class="edge">
<title>Node2&#45;&gt;Node28</title>
<path fill="none" stroke="midnightblue" d="M538.51,-397.93C663.33,-388.34 1044.48,-359.06 1164.74,-349.82"/>
<polygon fill="midnightblue" stroke="midnightblue" points="537.96,-394.46 528.26,-398.71 538.5,-401.44 537.96,-394.46"/>
</g>
<!-- Node4 -->
<g id="node4" class="node">
<title>Node4</title>
<g id="a_node4"><a xlink:href="arch_2arm32-linux_2odp_2api_2abi_2barrier_8h_source.html" target="_top" xlink:title=" ">
<polygon fill="white" stroke="black" points="0,-280.5 0,-299.5 57,-299.5 57,-280.5 0,-280.5"/>
<text text-anchor="middle" x="28.5" y="-287.5" font-family="Helvetica,sans-Serif" font-size="10.00">barrier.h</text>
</a>
</g>
</g>
<!-- Node3&#45;&gt;Node4 -->
<g id="edge3" class="edge">
<title>Node3&#45;&gt;Node4</title>
<path fill="none" stroke="midnightblue" d="M214.7,-335.76C176.68,-326.69 117.09,-312.45 65.5,-300 62.8,-299.35 59.99,-298.67 57.18,-297.99"/>
<polygon fill="midnightblue" stroke="midnightblue" points="214.29,-339.26 224.83,-338.17 215.91,-332.45 214.29,-339.26"/>
</g>
<!-- Node5 -->
<g id="node5" class="node">
<title>Node5</title>
<g id="a_node5"><a xlink:href="arch_2arm64-linux_2odp_2api_2abi_2barrier_8h_source.html" target="_top" xlink:title=" ">
<polygon fill="white" stroke="black" points="75,-280.5 75,-299.5 132,-299.5 132,-280.5 75,-280.5"/>
<text text-anchor="middle" x="103.5" y="-287.5" font-family="Helvetica,sans-Serif" font-size="10.00">barrier.h</text>
</a>
</g>
</g>
<!-- Node3&#45;&gt;Node5 -->
<g id="edge4" class="edge">
<title>Node3&#45;&gt;Node5</title>
<path fill="none" stroke="midnightblue" d="M220.28,-333.04C192.05,-322.88 152.24,-308.55 127.16,-299.52"/>
<polygon fill="midnightblue" stroke="midnightblue" points="219.14,-336.35 229.73,-336.44 221.51,-329.76 219.14,-336.35"/>
</g>
<!-- Node6 -->
<g id="node6" class="node">
<title>Node6</title>
<g id="a_node6"><a xlink:href="arch_2default-linux_2odp_2api_2abi_2barrier_8h_source.html" target="_top" xlink:title=" ">
<polygon fill="white" stroke="black" points="150,-280.5 150,-299.5 207,-299.5 207,-280.5 150,-280.5"/>
<text text-anchor="middle" x="178.5" y="-287.5" font-family="Helvetica,sans-Serif" font-size="10.00">barrier.h</text>
</a>
</g>
</g>
<!-- Node3&#45;&gt;Node6 -->
<g id="edge5" class="edge">
<title>Node3&#45;&gt;Node6</title>
<path fill="none" stroke="midnightblue" d="M233.19,-330.38C219.64,-320.62 202.26,-308.11 190.77,-299.83"/>
<polygon fill="midnightblue" stroke="midnightblue" points="231.29,-333.32 241.45,-336.32 235.38,-327.64 231.29,-333.32"/>
</g>
<!-- Node7 -->
<g id="node7" class="node">
<title>Node7</title>
<g id="a_node7"><a xlink:href="arch_2power64-linux_2odp_2api_2abi_2barrier_8h_source.html" target="_top" xlink:title=" ">
<polygon fill="white" stroke="black" points="225,-280.5 225,-299.5 282,-299.5 282,-280.5 225,-280.5"/>
<text text-anchor="middle" x="253.5" y="-287.5" font-family="Helvetica,sans-Serif" font-size="10.00">barrier.h</text>
</a>
</g>
</g>
<!-- Node3&#45;&gt;Node7 -->
<g id="edge6" class="edge">
<title>Node3&#45;&gt;Node7</title>
<path fill="none" stroke="midnightblue" d="M253.5,-325.8C253.5,-316.91 253.5,-306.78 253.5,-299.75"/>
<polygon fill="midnightblue" stroke="midnightblue" points="250,-326.08 253.5,-336.08 257,-326.08 250,-326.08"/>
</g>
<!-- Node8 -->
<g id="node8" class="node">
<title>Node8</title>
<g id="a_node8"><a xlink:href="arch_2x86__32-linux_2odp_2api_2abi_2barrier_8h_source.html" target="_top" xlink:title=" ">
<polygon fill="white" stroke="black" points="300,-280.5 300,-299.5 357,-299.5 357,-280.5 300,-280.5"/>
<text text-anchor="middle" x="328.5" y="-287.5" font-family="Helvetica,sans-Serif" font-size="10.00">barrier.h</text>
</a>
</g>
</g>
<!-- Node3&#45;&gt;Node8 -->
<g id="edge7" class="edge">
<title>Node3&#45;&gt;Node8</title>
<path fill="none" stroke="midnightblue" d="M273.81,-330.38C287.36,-320.62 304.74,-308.11 316.23,-299.83"/>
<polygon fill="midnightblue" stroke="midnightblue" points="271.62,-327.64 265.55,-336.32 275.71,-333.32 271.62,-327.64"/>
</g>
<!-- Node9 -->
<g id="node9" class="node">
<title>Node9</title>
<g id="a_node9"><a xlink:href="arch_2x86__64-linux_2odp_2api_2abi_2barrier_8h_source.html" target="_top" xlink:title=" ">
<polygon fill="white" stroke="black" points="375,-280.5 375,-299.5 432,-299.5 432,-280.5 375,-280.5"/>
<text text-anchor="middle" x="403.5" y="-287.5" font-family="Helvetica,sans-Serif" font-size="10.00">barrier.h</text>
</a>
</g>
</g>
<!-- Node3&#45;&gt;Node9 -->
<g id="edge8" class="edge">
<title>Node3&#45;&gt;Node9</title>
<path fill="none" stroke="midnightblue" d="M286.72,-333.04C314.95,-322.88 354.76,-308.55 379.84,-299.52"/>
<polygon fill="midnightblue" stroke="midnightblue" points="285.49,-329.76 277.27,-336.44 287.86,-336.35 285.49,-329.76"/>
</g>
<!-- Node9&#45;&gt;Node10 -->
<g id="edge9" class="edge">
<title>Node9&#45;&gt;Node10</title>
<path fill="none" stroke="midnightblue" d="M415.56,-271.86C422.14,-262.5 430.01,-251.33 435.34,-243.75"/>
<polygon fill="midnightblue" stroke="midnightblue" points="412.67,-269.89 409.77,-280.08 418.39,-273.92 412.67,-269.89"/>
</g>
<!-- Node10&#45;&gt;Node11 -->
<g id="edge10" class="edge">
<title>Node10&#45;&gt;Node11</title>
<path fill="none" stroke="midnightblue" d="M441.26,-214C441.77,-179.07 447.46,-103.86 484.5,-56 498.37,-38.08 521.45,-26.45 539.92,-19.51"/>
<polygon fill="midnightblue" stroke="midnightblue" points="437.76,-214.2 441.24,-224.2 444.76,-214.21 437.76,-214.2"/>
</g>
<!-- Node13 -->
<g id="node13" class="node">
<title>Node13</title>
<g id="a_node13"><a xlink:href="arch_2arm32-linux_2odp_2api_2abi_2rwlock_8h_source.html" target="_top" xlink:title=" ">
<polygon fill="white" stroke="black" points="526.5,-280.5 526.5,-299.5 584.5,-299.5 584.5,-280.5 526.5,-280.5"/>
<text text-anchor="middle" x="555.5" y="-287.5" font-family="Helvetica,sans-Serif" font-size="10.00">rwlock.h</text>
</a>
</g>
</g>
<!-- Node12&#45;&gt;Node13 -->
<g id="edge12" class="edge">
<title>Node12&#45;&gt;Node13</title>
<path fill="none" stroke="midnightblue" d="M673.83,-333.04C645.23,-322.88 604.89,-308.55 579.47,-299.52"/>
<polygon fill="midnightblue" stroke="midnightblue" points="672.82,-336.39 683.42,-336.44 675.16,-329.8 672.82,-336.39"/>
</g>
<!-- Node14 -->
<g id="node14" class="node">
<title>Node14</title>
<g id="a_node14"><a xlink:href="arch_2arm64-linux_2odp_2api_2abi_2rwlock_8h_source.html" target="_top" xlink:title=" ">
<polygon fill="white" stroke="black" points="602.5,-280.5 602.5,-299.5 660.5,-299.5 660.5,-280.5 602.5,-280.5"/>
<text text-anchor="middle" x="631.5" y="-287.5" font-family="Helvetica,sans-Serif" font-size="10.00">rwlock.h</text>
</a>
</g>
</g>
<!-- Node12&#45;&gt;Node14 -->
<g id="edge13" class="edge">
<title>Node12&#45;&gt;Node14</title>
<path fill="none" stroke="midnightblue" d="M686.92,-330.38C673.19,-320.62 655.57,-308.11 643.93,-299.83"/>
<polygon fill="midnightblue" stroke="midnightblue" points="685.11,-333.38 695.29,-336.32 689.16,-327.68 685.11,-333.38"/>
</g>
<!-- Node15 -->
<g id="node15" class="node">
<title>Node15</title>
<g id="a_node15"><a xlink:href="arch_2default-linux_2odp_2api_2abi_2rwlock_8h_source.html" target="_top" xlink:title=" ">
<polygon fill="white" stroke="black" points="678.5,-280.5 678.5,-299.5 736.5,-299.5 736.5,-280.5 678.5,-280.5"/>
<text text-anchor="middle" x="707.5" y="-287.5" font-family="Helvetica,sans-Serif" font-size="10.00">rwlock.h</text>
</a>
</g>
</g>
<!-- Node12&#45;&gt;Node15 -->
<g id="edge14" class="edge">
<title>Node12&#45;&gt;Node15</title>
<path fill="none" stroke="midnightblue" d="M707.5,-325.8C707.5,-316.91 707.5,-306.78 707.5,-299.75"/>
<polygon fill="midnightblue" stroke="midnightblue" points="704,-326.08 707.5,-336.08 711,-326.08 704,-326.08"/>
</g>
<!-- Node16 -->
<g id="node16" class="node">
<title>Node16</title>
<g id="a_node16"><a xlink:href="arch_2power64-linux_2odp_2api_2abi_2rwlock_8h_source.html" target="_top" xlink:title=" ">
<polygon fill="white" stroke="black" points="754.5,-280.5 754.5,-299.5 812.5,-299.5 812.5,-280.5 754.5,-280.5"/>
<text text-anchor="middle" x="783.5" y="-287.5" font-family="Helvetica,sans-Serif" font-size="10.00">rwlock.h</text>
</a>
</g>
</g>
<!-- Node12&#45;&gt;Node16 -->
<g id="edge15" class="edge">
<title>Node12&#45;&gt;Node16</title>
<path fill="none" stroke="midnightblue" d="M728.08,-330.38C741.81,-320.62 759.43,-308.11 771.07,-299.83"/>
<polygon fill="midnightblue" stroke="midnightblue" points="725.84,-327.68 719.71,-336.32 729.89,-333.38 725.84,-327.68"/>
</g>
<!-- Node17 -->
<g id="node17" class="node">
<title>Node17</title>
<g id="a_node17"><a xlink:href="arch_2x86__32-linux_2odp_2api_2abi_2rwlock_8h_source.html" target="_top" xlink:title=" ">
<polygon fill="white" stroke="black" points="830.5,-280.5 830.5,-299.5 888.5,-299.5 888.5,-280.5 830.5,-280.5"/>
<text text-anchor="middle" x="859.5" y="-287.5" font-family="Helvetica,sans-Serif" font-size="10.00">rwlock.h</text>
</a>
</g>
</g>
<!-- Node12&#45;&gt;Node17 -->
<g id="edge16" class="edge">
<title>Node12&#45;&gt;Node17</title>
<path fill="none" stroke="midnightblue" d="M741.17,-333.04C769.77,-322.88 810.11,-308.55 835.53,-299.52"/>
<polygon fill="midnightblue" stroke="midnightblue" points="739.84,-329.8 731.58,-336.44 742.18,-336.39 739.84,-329.8"/>
</g>
<!-- Node18 -->
<g id="node18" class="node">
<title>Node18</title>
<g id="a_node18"><a xlink:href="arch_2x86__64-linux_2odp_2api_2abi_2rwlock_8h_source.html" target="_top" xlink:title=" ">
<polygon fill="white" stroke="black" points="906.5,-280.5 906.5,-299.5 964.5,-299.5 964.5,-280.5 906.5,-280.5"/>
<text text-anchor="middle" x="935.5" y="-287.5" font-family="Helvetica,sans-Serif" font-size="10.00">rwlock.h</text>
</a>
</g>
</g>
<!-- Node12&#45;&gt;Node18 -->
<g id="edge17" class="edge">
<title>Node12&#45;&gt;Node18</title>
<path fill="none" stroke="midnightblue" d="M746.61,-335.74C791.95,-325 865.63,-307.55 906.27,-297.92"/>
<polygon fill="midnightblue" stroke="midnightblue" points="745.76,-332.34 736.84,-338.05 747.38,-339.15 745.76,-332.34"/>
</g>
<!-- Node19 -->
<g id="node19" class="node">
<title>Node19</title>
<g id="a_node19"><a xlink:href="api_2rwlock_8h.html" target="_top" xlink:title=" ">
<polygon fill="white" stroke="black" points="889.5,-224.5 889.5,-243.5 947.5,-243.5 947.5,-224.5 889.5,-224.5"/>
<text text-anchor="middle" x="918.5" y="-231.5" font-family="Helvetica,sans-Serif" font-size="10.00">rwlock.h</text>
</a>
</g>
</g>
<!-- Node18&#45;&gt;Node19 -->
<g id="edge18" class="edge">
<title>Node18&#45;&gt;Node19</title>
<path fill="none" stroke="midnightblue" d="M929.64,-270.4C926.8,-261.36 923.52,-250.94 921.25,-243.75"/>
<polygon fill="midnightblue" stroke="midnightblue" points="926.35,-271.6 932.69,-280.08 933.03,-269.49 926.35,-271.6"/>
</g>
<!-- Node19&#45;&gt;Node11 -->
<g id="edge28" class="edge">
<title>Node19&#45;&gt;Node11</title>
<path fill="none" stroke="midnightblue" d="M879.03,-233.51C808.79,-232.11 662.45,-218.29 587.5,-132 558.91,-99.09 563.93,-41.3 567.06,-19.57"/>
<polygon fill="midnightblue" stroke="midnightblue" points="879.18,-237.01 889.22,-233.64 879.27,-230.01 879.18,-237.01"/>
</g>
<!-- Node20 -->
<g id="node20" class="node">
<title>Node20</title>
<g id="a_node20"><a xlink:href="api_2abi-default_2rwlock__recursive_8h.html" target="_top" xlink:title=" ">
<polygon fill="white" stroke="black" points="864.5,-168.5 864.5,-187.5 972.5,-187.5 972.5,-168.5 864.5,-168.5"/>
<text text-anchor="middle" x="918.5" y="-175.5" font-family="Helvetica,sans-Serif" font-size="10.00">rwlock_recursive.h</text>
</a>
</g>
</g>
<!-- Node19&#45;&gt;Node20 -->
<g id="edge19" class="edge">
<title>Node19&#45;&gt;Node20</title>
<path fill="none" stroke="midnightblue" d="M918.5,-213.8C918.5,-204.91 918.5,-194.78 918.5,-187.75"/>
<polygon fill="midnightblue" stroke="midnightblue" points="915,-214.08 918.5,-224.08 922,-214.08 915,-214.08"/>
</g>
<!-- Node21 -->
<g id="node21" class="node">
<title>Node21</title>
<g id="a_node21"><a xlink:href="arch_2arm32-linux_2odp_2api_2abi_2rwlock__recursive_8h_source.html" target="_top" xlink:title=" ">
<polygon fill="white" stroke="black" points="596.5,-112.5 596.5,-131.5 704.5,-131.5 704.5,-112.5 596.5,-112.5"/>
<text text-anchor="middle" x="650.5" y="-119.5" font-family="Helvetica,sans-Serif" font-size="10.00">rwlock_recursive.h</text>
</a>
</g>
</g>
<!-- Node20&#45;&gt;Node21 -->
<g id="edge20" class="edge">
<title>Node20&#45;&gt;Node21</title>
<path fill="none" stroke="midnightblue" d="M865.94,-166.41C815.29,-156.2 739.63,-140.96 692.77,-131.52"/>
<polygon fill="midnightblue" stroke="midnightblue" points="865.54,-169.9 876.03,-168.44 866.92,-163.04 865.54,-169.9"/>
</g>
<!-- Node22 -->
<g id="node22" class="node">
<title>Node22</title>
<g id="a_node22"><a xlink:href="arch_2arm64-linux_2odp_2api_2abi_2rwlock__recursive_8h_source.html" target="_top" xlink:title=" ">
<polygon fill="white" stroke="black" points="722.5,-112.5 722.5,-131.5 830.5,-131.5 830.5,-112.5 722.5,-112.5"/>
<text text-anchor="middle" x="776.5" y="-119.5" font-family="Helvetica,sans-Serif" font-size="10.00">rwlock_recursive.h</text>
</a>
</g>
</g>
<!-- Node20&#45;&gt;Node22 -->
<g id="edge21" class="edge">
<title>Node20&#45;&gt;Node22</title>
<path fill="none" stroke="midnightblue" d="M886.34,-164.77C859.67,-154.63 822.43,-140.47 798.9,-131.52"/>
<polygon fill="midnightblue" stroke="midnightblue" points="885.41,-168.16 896,-168.44 887.9,-161.62 885.41,-168.16"/>
</g>
<!-- Node23 -->
<g id="node23" class="node">
<title>Node23</title>
<g id="a_node23"><a xlink:href="arch_2default-linux_2odp_2api_2abi_2rwlock__recursive_8h_source.html" target="_top" xlink:title=" ">
<polygon fill="white" stroke="black" points="848.5,-112.5 848.5,-131.5 956.5,-131.5 956.5,-112.5 848.5,-112.5"/>
<text text-anchor="middle" x="902.5" y="-119.5" font-family="Helvetica,sans-Serif" font-size="10.00">rwlock_recursive.h</text>
</a>
</g>
</g>
<!-- Node20&#45;&gt;Node23 -->
<g id="edge22" class="edge">
<title>Node20&#45;&gt;Node23</title>
<path fill="none" stroke="midnightblue" d="M912.99,-158.4C910.31,-149.36 907.22,-138.94 905.09,-131.75"/>
<polygon fill="midnightblue" stroke="midnightblue" points="909.66,-159.49 915.86,-168.08 916.37,-157.5 909.66,-159.49"/>
</g>
<!-- Node24 -->
<g id="node24" class="node">
<title>Node24</title>
<g id="a_node24"><a xlink:href="arch_2power64-linux_2odp_2api_2abi_2rwlock__recursive_8h_source.html" target="_top" xlink:title=" ">
<polygon fill="white" stroke="black" points="974.5,-112.5 974.5,-131.5 1082.5,-131.5 1082.5,-112.5 974.5,-112.5"/>
<text text-anchor="middle" x="1028.5" y="-119.5" font-family="Helvetica,sans-Serif" font-size="10.00">rwlock_recursive.h</text>
</a>
</g>
</g>
<!-- Node20&#45;&gt;Node24 -->
<g id="edge23" class="edge">
<title>Node20&#45;&gt;Node24</title>
<path fill="none" stroke="midnightblue" d="M945.26,-163.86C965.66,-153.85 993.17,-140.35 1010.87,-131.65"/>
<polygon fill="midnightblue" stroke="midnightblue" points="943.61,-160.78 936.17,-168.32 946.69,-167.06 943.61,-160.78"/>
</g>
<!-- Node25 -->
<g id="node25" class="node">
<title>Node25</title>
<g id="a_node25"><a xlink:href="arch_2x86__32-linux_2odp_2api_2abi_2rwlock__recursive_8h_source.html" target="_top" xlink:title=" ">
<polygon fill="white" stroke="black" points="1100.5,-112.5 1100.5,-131.5 1208.5,-131.5 1208.5,-112.5 1100.5,-112.5"/>
<text text-anchor="middle" x="1154.5" y="-119.5" font-family="Helvetica,sans-Serif" font-size="10.00">rwlock_recursive.h</text>
</a>
</g>
</g>
<!-- Node20&#45;&gt;Node25 -->
<g id="edge24" class="edge">
<title>Node20&#45;&gt;Node25</title>
<path fill="none" stroke="midnightblue" d="M965.91,-166.15C1010.5,-155.95 1076.35,-140.88 1117.28,-131.52"/>
<polygon fill="midnightblue" stroke="midnightblue" points="964.86,-162.8 955.89,-168.44 966.42,-169.62 964.86,-162.8"/>
</g>
<!-- Node26 -->
<g id="node26" class="node">
<title>Node26</title>
<g id="a_node26"><a xlink:href="arch_2x86__64-linux_2odp_2api_2abi_2rwlock__recursive_8h_source.html" target="_top" xlink:title=" ">
<polygon fill="white" stroke="black" points="1226.5,-112.5 1226.5,-131.5 1334.5,-131.5 1334.5,-112.5 1226.5,-112.5"/>
<text text-anchor="middle" x="1280.5" y="-119.5" font-family="Helvetica,sans-Serif" font-size="10.00">rwlock_recursive.h</text>
</a>
</g>
</g>
<!-- Node20&#45;&gt;Node26 -->
<g id="edge25" class="edge">
<title>Node20&#45;&gt;Node26</title>
<path fill="none" stroke="midnightblue" d="M982.62,-167.44C1051.88,-157.1 1161.06,-140.82 1226.23,-131.1"/>
<polygon fill="midnightblue" stroke="midnightblue" points="982.07,-163.98 972.7,-168.92 983.1,-170.9 982.07,-163.98"/>
</g>
<!-- Node27 -->
<g id="node27" class="node">
<title>Node27</title>
<g id="a_node27"><a xlink:href="api_2rwlock__recursive_8h.html" target="_top" xlink:title=" ">
<polygon fill="white" stroke="black" points="967.5,-56.5 967.5,-75.5 1075.5,-75.5 1075.5,-56.5 967.5,-56.5"/>
<text text-anchor="middle" x="1021.5" y="-63.5" font-family="Helvetica,sans-Serif" font-size="10.00">rwlock_recursive.h</text>
</a>
</g>
</g>
<!-- Node26&#45;&gt;Node27 -->
<g id="edge26" class="edge">
<title>Node26&#45;&gt;Node27</title>
<path fill="none" stroke="midnightblue" d="M1229.4,-110.35C1180.45,-100.14 1107.55,-84.94 1062.35,-75.52"/>
<polygon fill="midnightblue" stroke="midnightblue" points="1228.96,-113.83 1239.46,-112.44 1230.39,-106.98 1228.96,-113.83"/>
</g>
<!-- Node27&#45;&gt;Node11 -->
<g id="edge27" class="edge">
<title>Node27&#45;&gt;Node11</title>
<path fill="none" stroke="midnightblue" d="M957.2,-57.34C858.92,-45.62 674.91,-23.68 600.73,-14.84"/>
<polygon fill="midnightblue" stroke="midnightblue" points="956.96,-60.83 967.31,-58.54 957.79,-53.88 956.96,-60.83"/>
</g>
<!-- Node29 -->
<g id="node29" class="node">
<title>Node29</title>
<g id="a_node29"><a xlink:href="arch_2arm32-linux_2odp_2api_2abi_2ticketlock_8h_source.html" target="_top" xlink:title=" ">
<polygon fill="white" stroke="black" points="983,-280.5 983,-299.5 1056,-299.5 1056,-280.5 983,-280.5"/>
<text text-anchor="middle" x="1019.5" y="-287.5" font-family="Helvetica,sans-Serif" font-size="10.00">ticketlock.h</text>
</a>
</g>
</g>
<!-- Node28&#45;&gt;Node29 -->
<g id="edge30" class="edge">
<title>Node28&#45;&gt;Node29</title>
<path fill="none" stroke="midnightblue" d="M1162.97,-333.57C1128.64,-323.38 1079.17,-308.7 1048.2,-299.52"/>
<polygon fill="midnightblue" stroke="midnightblue" points="1162.08,-336.95 1172.66,-336.44 1164.07,-330.24 1162.08,-336.95"/>
</g>
<!-- Node30 -->
<g id="node30" class="node">
<title>Node30</title>
<g id="a_node30"><a xlink:href="arch_2arm64-linux_2odp_2api_2abi_2ticketlock_8h_source.html" target="_top" xlink:title=" ">
<polygon fill="white" stroke="black" points="1074,-280.5 1074,-299.5 1147,-299.5 1147,-280.5 1074,-280.5"/>
<text text-anchor="middle" x="1110.5" y="-287.5" font-family="Helvetica,sans-Serif" font-size="10.00">ticketlock.h</text>
</a>
</g>
</g>
<!-- Node28&#45;&gt;Node30 -->
<g id="edge31" class="edge">
<title>Node28&#45;&gt;Node30</title>
<path fill="none" stroke="midnightblue" d="M1178.21,-331.18C1161.46,-321.24 1139.4,-308.15 1125.08,-299.65"/>
<polygon fill="midnightblue" stroke="midnightblue" points="1176.49,-334.23 1186.88,-336.32 1180.07,-328.21 1176.49,-334.23"/>
</g>
<!-- Node31 -->
<g id="node31" class="node">
<title>Node31</title>
<g id="a_node31"><a xlink:href="arch_2default-linux_2odp_2api_2abi_2ticketlock_8h_source.html" target="_top" xlink:title=" ">
<polygon fill="white" stroke="black" points="1165,-280.5 1165,-299.5 1238,-299.5 1238,-280.5 1165,-280.5"/>
<text text-anchor="middle" x="1201.5" y="-287.5" font-family="Helvetica,sans-Serif" font-size="10.00">ticketlock.h</text>
</a>
</g>
</g>
<!-- Node28&#45;&gt;Node31 -->
<g id="edge32" class="edge">
<title>Node28&#45;&gt;Node31</title>
<path fill="none" stroke="midnightblue" d="M1201.5,-325.8C1201.5,-316.91 1201.5,-306.78 1201.5,-299.75"/>
<polygon fill="midnightblue" stroke="midnightblue" points="1198,-326.08 1201.5,-336.08 1205,-326.08 1198,-326.08"/>
</g>
<!-- Node32 -->
<g id="node32" class="node">
<title>Node32</title>
<g id="a_node32"><a xlink:href="arch_2power64-linux_2odp_2api_2abi_2ticketlock_8h_source.html" target="_top" xlink:title=" ">
<polygon fill="white" stroke="black" points="1256,-280.5 1256,-299.5 1329,-299.5 1329,-280.5 1256,-280.5"/>
<text text-anchor="middle" x="1292.5" y="-287.5" font-family="Helvetica,sans-Serif" font-size="10.00">ticketlock.h</text>
</a>
</g>
</g>
<!-- Node28&#45;&gt;Node32 -->
<g id="edge33" class="edge">
<title>Node28&#45;&gt;Node32</title>
<path fill="none" stroke="midnightblue" d="M1224.79,-331.18C1241.54,-321.24 1263.6,-308.15 1277.92,-299.65"/>
<polygon fill="midnightblue" stroke="midnightblue" points="1222.93,-328.21 1216.12,-336.32 1226.51,-334.23 1222.93,-328.21"/>
</g>
<!-- Node33 -->
<g id="node33" class="node">
<title>Node33</title>
<g id="a_node33"><a xlink:href="arch_2x86__32-linux_2odp_2api_2abi_2ticketlock_8h_source.html" target="_top" xlink:title=" ">
<polygon fill="white" stroke="black" points="1347,-280.5 1347,-299.5 1420,-299.5 1420,-280.5 1347,-280.5"/>
<text text-anchor="middle" x="1383.5" y="-287.5" font-family="Helvetica,sans-Serif" font-size="10.00">ticketlock.h</text>
</a>
</g>
</g>
<!-- Node28&#45;&gt;Node33 -->
<g id="edge34" class="edge">
<title>Node28&#45;&gt;Node33</title>
<path fill="none" stroke="midnightblue" d="M1240.03,-333.57C1274.36,-323.38 1323.83,-308.7 1354.8,-299.52"/>
<polygon fill="midnightblue" stroke="midnightblue" points="1238.93,-330.24 1230.34,-336.44 1240.92,-336.95 1238.93,-330.24"/>
</g>
<!-- Node34 -->
<g id="node34" class="node">
<title>Node34</title>
<g id="a_node34"><a xlink:href="arch_2x86__64-linux_2odp_2api_2abi_2ticketlock_8h_source.html" target="_top" xlink:title=" ">
<polygon fill="white" stroke="black" points="1438,-280.5 1438,-299.5 1511,-299.5 1511,-280.5 1438,-280.5"/>
<text text-anchor="middle" x="1474.5" y="-287.5" font-family="Helvetica,sans-Serif" font-size="10.00">ticketlock.h</text>
</a>
</g>
</g>
<!-- Node28&#45;&gt;Node34 -->
<g id="edge35" class="edge">
<title>Node28&#45;&gt;Node34</title>
<path fill="none" stroke="midnightblue" d="M1248.22,-335.81C1294.31,-326.74 1366.77,-312.46 1429.5,-300 1432.16,-299.47 1434.9,-298.93 1437.66,-298.37"/>
<polygon fill="midnightblue" stroke="midnightblue" points="1247.37,-332.42 1238.23,-337.78 1248.72,-339.28 1247.37,-332.42"/>
</g>
<!-- Node35 -->
<g id="node35" class="node">
<title>Node35</title>
<g id="a_node35"><a xlink:href="api_2ticketlock_8h.html" target="_top" xlink:title=" ">
<polygon fill="white" stroke="black" points="1410,-168.5 1410,-187.5 1483,-187.5 1483,-168.5 1410,-168.5"/>
<text text-anchor="middle" x="1446.5" y="-175.5" font-family="Helvetica,sans-Serif" font-size="10.00">ticketlock.h</text>
</a>
</g>
</g>
<!-- Node34&#45;&gt;Node35 -->
<g id="edge36" class="edge">
<title>Node34&#45;&gt;Node35</title>
<path fill="none" stroke="midnightblue" d="M1469.84,-270.67C1463.71,-246.62 1453.22,-205.39 1448.69,-187.59"/>
<polygon fill="midnightblue" stroke="midnightblue" points="1466.44,-271.54 1472.3,-280.37 1473.23,-269.81 1466.44,-271.54"/>
</g>
<!-- Node35&#45;&gt;Node11 -->
<g id="edge37" class="edge">
<title>Node35&#45;&gt;Node11</title>
<path fill="none" stroke="midnightblue" d="M1427.6,-162.19C1407.75,-147.35 1375.07,-124.9 1343.5,-112 1234.48,-67.45 1200.95,-73.6 1084.5,-56 902.67,-28.53 682.07,-16.23 600.67,-12.4"/>
<polygon fill="midnightblue" stroke="midnightblue" points="1425.7,-165.14 1435.77,-168.42 1429.94,-159.57 1425.7,-165.14"/>
</g>
</g>
</svg>
