<?xml version="1.0" encoding="UTF-8" standalone="no"?>
<!DOCTYPE svg PUBLIC "-//W3C//DTD SVG 1.1//EN"
 "http://www.w3.org/Graphics/SVG/1.1/DTD/svg11.dtd">
<!-- Generated by graphviz version 2.43.0 (0)
 -->
<!-- Title: traffic_mngr.h Pages: 1 -->
<svg width="1563pt" height="1113pt"
 viewBox="0.00 0.00 1563.00 1113.00" xmlns="http://www.w3.org/2000/svg" xmlns:xlink="http://www.w3.org/1999/xlink">
<g id="graph0" class="graph" transform="scale(1 1) rotate(0) translate(4 1109)">
<title>traffic_mngr.h</title>
<polygon fill="white" stroke="transparent" points="-4,4 -4,-1109 1559,-1109 1559,4 -4,4"/>
<!-- Node1 -->
<g id="node1" class="node">
<title>Node1</title>
<g id="a_node1"><a xlink:title=" ">
<polygon fill="#bfbfbf" stroke="black" points="968,-1085.5 968,-1104.5 1052,-1104.5 1052,-1085.5 968,-1085.5"/>
<text text-anchor="middle" x="1010" y="-1092.5" font-family="Helvetica,sans-Serif" font-size="10.00">traffic_mngr.h</text>
</a>
</g>
</g>
<!-- Node2 -->
<g id="node2" class="node">
<title>Node2</title>
<g id="a_node2"><a xlink:title=" ">
<polygon fill="white" stroke="#bfbfbf" points="897,-1018.5 897,-1048.5 999,-1048.5 999,-1018.5 897,-1018.5"/>
<text text-anchor="start" x="905" y="-1036.5" font-family="Helvetica,sans-Serif" font-size="10.00">odp/api/abi/traffic</text>
<text text-anchor="middle" x="948" y="-1025.5" font-family="Helvetica,sans-Serif" font-size="10.00">_mngr.h</text>
</a>
</g>
</g>
<!-- Node1&#45;&gt;Node2 -->
<g id="edge1" class="edge">
<title>Node1&#45;&gt;Node2</title>
<path fill="none" stroke="midnightblue" d="M1001.12,-1085.48C993.03,-1077.72 980.76,-1065.94 970.05,-1055.66"/>
<polygon fill="midnightblue" stroke="midnightblue" points="972.25,-1052.92 962.61,-1048.52 967.4,-1057.97 972.25,-1052.92"/>
</g>
<!-- Node3 -->
<g id="node3" class="node">
<title>Node3</title>
<g id="a_node3"><a xlink:href="api_2spec_2traffic__mngr_8h.html" target="_top" xlink:title=" ">
<polygon fill="white" stroke="black" points="1017,-1018.5 1017,-1048.5 1127,-1048.5 1127,-1018.5 1017,-1018.5"/>
<text text-anchor="start" x="1025" y="-1036.5" font-family="Helvetica,sans-Serif" font-size="10.00">odp/api/spec/traffic</text>
<text text-anchor="middle" x="1072" y="-1025.5" font-family="Helvetica,sans-Serif" font-size="10.00">_mngr.h</text>
</a>
</g>
</g>
<!-- Node1&#45;&gt;Node3 -->
<g id="edge2" class="edge">
<title>Node1&#45;&gt;Node3</title>
<path fill="none" stroke="midnightblue" d="M1018.88,-1085.48C1026.97,-1077.72 1039.24,-1065.94 1049.95,-1055.66"/>
<polygon fill="midnightblue" stroke="midnightblue" points="1052.6,-1057.97 1057.39,-1048.52 1047.75,-1052.92 1052.6,-1057.97"/>
</g>
<!-- Node4 -->
<g id="node4" class="node">
<title>Node4</title>
<g id="a_node4"><a xlink:href="visibility__begin_8h_source.html" target="_top" xlink:title=" ">
<polygon fill="white" stroke="black" points="186.5,-0.5 186.5,-19.5 307.5,-19.5 307.5,-0.5 186.5,-0.5"/>
<text text-anchor="middle" x="247" y="-7.5" font-family="Helvetica,sans-Serif" font-size="10.00">odp/visibility_begin.h</text>
</a>
</g>
</g>
<!-- Node3&#45;&gt;Node4 -->
<g id="edge3" class="edge">
<title>Node3&#45;&gt;Node4</title>
<path fill="none" stroke="midnightblue" d="M1016.93,-1019.56C1013.92,-1019 1010.92,-1018.47 1008,-1018 844.01,-991.6 801.22,-999.15 636,-982 494.56,-967.32 0,-1053.7 0,-911.5 0,-911.5 0,-911.5 0,-132 0,-92.97 12.51,-79.06 44,-56 82.07,-28.12 134.19,-16.98 176.09,-12.75"/>
<polygon fill="midnightblue" stroke="midnightblue" points="176.58,-16.22 186.23,-11.84 175.96,-9.25 176.58,-16.22"/>
</g>
<!-- Node5 -->
<g id="node5" class="node">
<title>Node5</title>
<g id="a_node5"><a xlink:href="api_2packet__io__types_8h.html" target="_top" xlink:title=" ">
<polygon fill="white" stroke="black" points="645.5,-962.5 645.5,-981.5 788.5,-981.5 788.5,-962.5 645.5,-962.5"/>
<text text-anchor="middle" x="717" y="-969.5" font-family="Helvetica,sans-Serif" font-size="10.00">odp/api/packet_io_types.h</text>
</a>
</g>
</g>
<!-- Node3&#45;&gt;Node5 -->
<g id="edge4" class="edge">
<title>Node3&#45;&gt;Node5</title>
<path fill="none" stroke="midnightblue" d="M1016.89,-1019.76C1013.89,-1019.14 1010.91,-1018.55 1008,-1018 934.3,-1003.97 849.46,-991.24 790.48,-982.92"/>
<polygon fill="midnightblue" stroke="midnightblue" points="790.9,-979.45 780.51,-981.53 789.93,-986.38 790.9,-979.45"/>
</g>
<!-- Node10 -->
<g id="node10" class="node">
<title>Node10</title>
<g id="a_node10"><a xlink:href="visibility__end_8h_source.html" target="_top" xlink:title=" ">
<polygon fill="white" stroke="black" points="1010,-0.5 1010,-19.5 1122,-19.5 1122,-0.5 1010,-0.5"/>
<text text-anchor="middle" x="1066" y="-7.5" font-family="Helvetica,sans-Serif" font-size="10.00">odp/visibility_end.h</text>
</a>
</g>
</g>
<!-- Node3&#45;&gt;Node10 -->
<g id="edge80" class="edge">
<title>Node3&#45;&gt;Node10</title>
<path fill="none" stroke="midnightblue" d="M1127.41,-1030.27C1254.27,-1023.67 1555,-998.81 1555,-911.5 1555,-911.5 1555,-911.5 1555,-132 1555,-85.78 1525.35,-76.66 1484,-56 1423.95,-26 1234.41,-15.88 1132.45,-12.56"/>
<polygon fill="midnightblue" stroke="midnightblue" points="1132.37,-9.05 1122.26,-12.24 1132.15,-16.05 1132.37,-9.05"/>
</g>
<!-- Node17 -->
<g id="node17" class="node">
<title>Node17</title>
<g id="a_node17"><a xlink:href="api_2std__types_8h.html" target="_top" xlink:title=" ">
<polygon fill="white" stroke="black" points="1136,-235.5 1136,-254.5 1248,-254.5 1248,-235.5 1136,-235.5"/>
<text text-anchor="middle" x="1192" y="-242.5" font-family="Helvetica,sans-Serif" font-size="10.00">odp/api/std_types.h</text>
</a>
</g>
</g>
<!-- Node3&#45;&gt;Node17 -->
<g id="edge79" class="edge">
<title>Node3&#45;&gt;Node17</title>
<path fill="none" stroke="midnightblue" d="M1127.08,-1025.37C1226.79,-1010.91 1427,-974.09 1427,-911.5 1427,-911.5 1427,-911.5 1427,-736 1427,-620.71 1313,-618.29 1313,-503 1313,-503 1313,-503 1313,-372.5 1313,-318.66 1255.05,-278.75 1219.36,-259.28"/>
<polygon fill="midnightblue" stroke="midnightblue" points="1220.86,-256.12 1210.38,-254.56 1217.6,-262.31 1220.86,-256.12"/>
</g>
<!-- Node6 -->
<g id="node6" class="node">
<title>Node6</title>
<g id="a_node6"><a xlink:title=" ">
<polygon fill="white" stroke="#bfbfbf" points="120,-548.5 120,-578.5 226,-578.5 226,-548.5 120,-548.5"/>
<text text-anchor="start" x="128" y="-566.5" font-family="Helvetica,sans-Serif" font-size="10.00">odp/api/abi/packet</text>
<text text-anchor="middle" x="173" y="-555.5" font-family="Helvetica,sans-Serif" font-size="10.00">_io_types.h</text>
</a>
</g>
</g>
<!-- Node5&#45;&gt;Node6 -->
<g id="edge5" class="edge">
<title>Node5&#45;&gt;Node6</title>
<path fill="none" stroke="midnightblue" d="M645.32,-971.1C488.72,-969.39 130,-954.12 130,-850 130,-850 130,-850 130,-680 130,-646.3 146.28,-610.35 158.8,-587.67"/>
<polygon fill="midnightblue" stroke="midnightblue" points="161.94,-589.23 163.88,-578.81 155.87,-585.75 161.94,-589.23"/>
</g>
<!-- Node7 -->
<g id="node7" class="node">
<title>Node7</title>
<g id="a_node7"><a xlink:href="api_2spec_2packet__io__types_8h.html" target="_top" xlink:title=" ">
<polygon fill="white" stroke="black" points="660.5,-895.5 660.5,-925.5 773.5,-925.5 773.5,-895.5 660.5,-895.5"/>
<text text-anchor="start" x="668.5" y="-913.5" font-family="Helvetica,sans-Serif" font-size="10.00">odp/api/spec/packet</text>
<text text-anchor="middle" x="717" y="-902.5" font-family="Helvetica,sans-Serif" font-size="10.00">_io_types.h</text>
</a>
</g>
</g>
<!-- Node5&#45;&gt;Node7 -->
<g id="edge6" class="edge">
<title>Node5&#45;&gt;Node7</title>
<path fill="none" stroke="midnightblue" d="M717,-962.48C717,-955.47 717,-945.19 717,-935.7"/>
<polygon fill="midnightblue" stroke="midnightblue" points="720.5,-935.52 717,-925.52 713.5,-935.52 720.5,-935.52"/>
</g>
<!-- Node7&#45;&gt;Node4 -->
<g id="edge7" class="edge">
<title>Node7&#45;&gt;Node4</title>
<path fill="none" stroke="midnightblue" d="M660.46,-909.78C584.99,-908.42 448.29,-899.83 340,-859 214.05,-811.51 161.74,-803.61 88,-691 66.42,-658.04 38,-729.63 38,-374.5 38,-374.5 38,-374.5 38,-132 38,-94.24 46.69,-79.81 76,-56 104.18,-33.11 142.82,-21.76 176.24,-16.18"/>
<polygon fill="midnightblue" stroke="midnightblue" points="177.07,-19.6 186.42,-14.63 176.01,-12.68 177.07,-19.6"/>
</g>
<!-- Node8 -->
<g id="node8" class="node">
<title>Node8</title>
<g id="a_node8"><a xlink:href="deprecated_8h.html" target="_top" xlink:title=" ">
<polygon fill="white" stroke="black" points="180.5,-492.5 180.5,-511.5 299.5,-511.5 299.5,-492.5 180.5,-492.5"/>
<text text-anchor="middle" x="240" y="-499.5" font-family="Helvetica,sans-Serif" font-size="10.00">odp/api/deprecated.h</text>
</a>
</g>
</g>
<!-- Node7&#45;&gt;Node8 -->
<g id="edge8" class="edge">
<title>Node7&#45;&gt;Node8</title>
<path fill="none" stroke="midnightblue" d="M660.33,-906.77C588.53,-899.91 474,-876.09 474,-794 474,-794 474,-794 474,-680 474,-602.19 427.73,-584.47 359,-548 333.22,-534.32 302.35,-522.77 278.52,-514.8"/>
<polygon fill="midnightblue" stroke="midnightblue" points="279.36,-511.4 268.77,-511.61 277.18,-518.05 279.36,-511.4"/>
</g>
<!-- Node7&#45;&gt;Node10 -->
<g id="edge78" class="edge">
<title>Node7&#45;&gt;Node10</title>
<path fill="none" stroke="midnightblue" d="M773.5,-908.75C923.63,-906.26 1324.2,-896.17 1370,-859 1393.37,-840.03 1389,-824.1 1389,-794 1389,-794 1389,-794 1389,-736 1389,-486.75 1517,-439.25 1517,-190 1517,-190 1517,-190 1517,-132 1517,-84.54 1484.62,-76.88 1442,-56 1389.01,-30.04 1225.44,-18.36 1132.43,-13.7"/>
<polygon fill="midnightblue" stroke="midnightblue" points="1132.44,-10.19 1122.28,-13.2 1132.1,-17.19 1132.44,-10.19"/>
</g>
<!-- Node11 -->
<g id="node11" class="node">
<title>Node11</title>
<g id="a_node11"><a xlink:href="api_2packet__types_8h.html" target="_top" xlink:title=" ">
<polygon fill="white" stroke="black" points="316.5,-615.5 316.5,-634.5 445.5,-634.5 445.5,-615.5 316.5,-615.5"/>
<text text-anchor="middle" x="381" y="-622.5" font-family="Helvetica,sans-Serif" font-size="10.00">odp/api/packet_types.h</text>
</a>
</g>
</g>
<!-- Node7&#45;&gt;Node11 -->
<g id="edge12" class="edge">
<title>Node7&#45;&gt;Node11</title>
<path fill="none" stroke="midnightblue" d="M660.3,-909.49C605.33,-907.04 521.45,-896.66 460,-859 428.69,-839.81 409,-830.72 409,-794 409,-794 409,-794 409,-736 409,-702.79 396.87,-665.63 388.57,-644.12"/>
<polygon fill="midnightblue" stroke="midnightblue" points="391.75,-642.63 384.78,-634.65 385.25,-645.23 391.75,-642.63"/>
</g>
<!-- Node7&#45;&gt;Node17 -->
<g id="edge77" class="edge">
<title>Node7&#45;&gt;Node17</title>
<path fill="none" stroke="midnightblue" d="M773.9,-908.17C904.18,-903.59 1213,-883.3 1213,-794 1213,-794 1213,-794 1213,-372.5 1213,-333.5 1203.17,-288.64 1196.96,-264.21"/>
<polygon fill="midnightblue" stroke="midnightblue" points="1200.34,-263.29 1194.41,-254.51 1193.57,-265.07 1200.34,-263.29"/>
</g>
<!-- Node24 -->
<g id="node24" class="node">
<title>Node24</title>
<g id="a_node24"><a xlink:href="api_2queue__types_8h.html" target="_top" xlink:title=" ">
<polygon fill="white" stroke="black" points="643.5,-492.5 643.5,-511.5 770.5,-511.5 770.5,-492.5 643.5,-492.5"/>
<text text-anchor="middle" x="707" y="-499.5" font-family="Helvetica,sans-Serif" font-size="10.00">odp/api/queue_types.h</text>
</a>
</g>
</g>
<!-- Node7&#45;&gt;Node24 -->
<g id="edge71" class="edge">
<title>Node7&#45;&gt;Node24</title>
<path fill="none" stroke="midnightblue" d="M717,-895.28C717,-873.48 717,-830.49 717,-794 717,-794 717,-794 717,-624 717,-587.77 712.49,-545.65 709.53,-521.87"/>
<polygon fill="midnightblue" stroke="midnightblue" points="712.98,-521.25 708.23,-511.79 706.04,-522.15 712.98,-521.25"/>
</g>
<!-- Node30 -->
<g id="node30" class="node">
<title>Node30</title>
<g id="a_node30"><a xlink:href="packet__io__stats_8h.html" target="_top" xlink:title=" ">
<polygon fill="white" stroke="black" points="158,-615.5 158,-634.5 298,-634.5 298,-615.5 158,-615.5"/>
<text text-anchor="middle" x="228" y="-622.5" font-family="Helvetica,sans-Serif" font-size="10.00">odp/api/packet_io_stats.h</text>
</a>
</g>
</g>
<!-- Node7&#45;&gt;Node30 -->
<g id="edge45" class="edge">
<title>Node7&#45;&gt;Node30</title>
<path fill="none" stroke="midnightblue" d="M660.33,-905.68C546.31,-896.43 300,-867.9 300,-794 300,-794 300,-794 300,-736 300,-696.94 267.82,-660.94 246.49,-641.37"/>
<polygon fill="midnightblue" stroke="midnightblue" points="248.75,-638.7 238.94,-634.7 244.12,-643.94 248.75,-638.7"/>
</g>
<!-- Node32 -->
<g id="node32" class="node">
<title>Node32</title>
<g id="a_node32"><a xlink:href="api_2pool__types_8h.html" target="_top" xlink:title=" ">
<polygon fill="white" stroke="black" points="762,-839.5 762,-858.5 880,-858.5 880,-839.5 762,-839.5"/>
<text text-anchor="middle" x="821" y="-846.5" font-family="Helvetica,sans-Serif" font-size="10.00">odp/api/pool_types.h</text>
</a>
</g>
</g>
<!-- Node7&#45;&gt;Node32 -->
<g id="edge52" class="edge">
<title>Node7&#45;&gt;Node32</title>
<path fill="none" stroke="midnightblue" d="M741.65,-895.4C758.32,-885.86 780.23,-873.32 796.81,-863.84"/>
<polygon fill="midnightblue" stroke="midnightblue" points="798.93,-866.66 805.87,-858.66 795.45,-860.59 798.93,-866.66"/>
</g>
<!-- Node41 -->
<g id="node41" class="node">
<title>Node41</title>
<g id="a_node41"><a xlink:href="reassembly_8h.html" target="_top" xlink:title=" ">
<polygon fill="white" stroke="black" points="1241,-839.5 1241,-858.5 1361,-858.5 1361,-839.5 1241,-839.5"/>
<text text-anchor="middle" x="1301" y="-846.5" font-family="Helvetica,sans-Serif" font-size="10.00">odp/api/reassembly.h</text>
</a>
</g>
</g>
<!-- Node7&#45;&gt;Node41 -->
<g id="edge72" class="edge">
<title>Node7&#45;&gt;Node41</title>
<path fill="none" stroke="midnightblue" d="M773.64,-904.31C867.82,-895.58 1062.5,-877.14 1227,-859 1228.27,-858.86 1229.54,-858.72 1230.83,-858.57"/>
<polygon fill="midnightblue" stroke="midnightblue" points="1231.3,-862.04 1240.84,-857.43 1230.51,-855.09 1231.3,-862.04"/>
</g>
<!-- Node9 -->
<g id="node9" class="node">
<title>Node9</title>
<g id="a_node9"><a xlink:href="spec_2deprecated_8h.html" target="_top" xlink:title=" ">
<polygon fill="white" stroke="black" points="408.5,-62 408.5,-81 553.5,-81 553.5,-62 408.5,-62"/>
<text text-anchor="middle" x="481" y="-69" font-family="Helvetica,sans-Serif" font-size="10.00">odp/api/spec/deprecated.h</text>
</a>
</g>
</g>
<!-- Node8&#45;&gt;Node9 -->
<g id="edge9" class="edge">
<title>Node8&#45;&gt;Node9</title>
<path fill="none" stroke="midnightblue" d="M240.23,-492.41C240.75,-471.98 242,-418.87 242,-374.5 242,-374.5 242,-374.5 242,-244 242,-150.78 363.49,-103.31 433.24,-83.74"/>
<polygon fill="midnightblue" stroke="midnightblue" points="434.4,-87.05 443.13,-81.05 432.56,-80.29 434.4,-87.05"/>
</g>
<!-- Node9&#45;&gt;Node4 -->
<g id="edge10" class="edge">
<title>Node9&#45;&gt;Node4</title>
<path fill="none" stroke="midnightblue" d="M447.47,-61.98C406.12,-51.46 335.73,-33.56 290.32,-22.01"/>
<polygon fill="midnightblue" stroke="midnightblue" points="291.02,-18.58 280.46,-19.51 289.29,-25.37 291.02,-18.58"/>
</g>
<!-- Node9&#45;&gt;Node10 -->
<g id="edge11" class="edge">
<title>Node9&#45;&gt;Node10</title>
<path fill="none" stroke="midnightblue" d="M528.32,-61.95C541.16,-59.81 555.09,-57.66 568,-56 722.11,-36.22 904.15,-22.1 999.74,-15.4"/>
<polygon fill="midnightblue" stroke="midnightblue" points="1000.1,-18.88 1009.84,-14.7 999.62,-11.9 1000.1,-18.88"/>
</g>
<!-- Node11&#45;&gt;Node6 -->
<g id="edge13" class="edge">
<title>Node11&#45;&gt;Node6</title>
<path fill="none" stroke="midnightblue" d="M351.2,-615.48C320.13,-606.59 270.63,-592.43 231.68,-581.29"/>
<polygon fill="midnightblue" stroke="midnightblue" points="232.6,-577.91 222.02,-578.52 230.67,-584.64 232.6,-577.91"/>
</g>
<!-- Node12 -->
<g id="node12" class="node">
<title>Node12</title>
<g id="a_node12"><a xlink:title=" ">
<polygon fill="white" stroke="#bfbfbf" points="244,-548.5 244,-578.5 350,-578.5 350,-548.5 244,-548.5"/>
<text text-anchor="start" x="252" y="-566.5" font-family="Helvetica,sans-Serif" font-size="10.00">odp/api/abi/packet</text>
<text text-anchor="middle" x="297" y="-555.5" font-family="Helvetica,sans-Serif" font-size="10.00">_types.h</text>
</a>
</g>
</g>
<!-- Node11&#45;&gt;Node12 -->
<g id="edge14" class="edge">
<title>Node11&#45;&gt;Node12</title>
<path fill="none" stroke="midnightblue" d="M368.96,-615.48C357.59,-607.42 340.09,-595.02 325.2,-584.47"/>
<polygon fill="midnightblue" stroke="midnightblue" points="326.98,-581.45 316.8,-578.52 322.93,-587.16 326.98,-581.45"/>
</g>
<!-- Node13 -->
<g id="node13" class="node">
<title>Node13</title>
<g id="a_node13"><a xlink:href="api_2spec_2packet__types_8h.html" target="_top" xlink:title=" ">
<polygon fill="white" stroke="black" points="575.5,-548.5 575.5,-578.5 688.5,-578.5 688.5,-548.5 575.5,-548.5"/>
<text text-anchor="start" x="583.5" y="-566.5" font-family="Helvetica,sans-Serif" font-size="10.00">odp/api/spec/packet</text>
<text text-anchor="middle" x="632" y="-555.5" font-family="Helvetica,sans-Serif" font-size="10.00">_types.h</text>
</a>
</g>
</g>
<!-- Node11&#45;&gt;Node13 -->
<g id="edge15" class="edge">
<title>Node11&#45;&gt;Node13</title>
<path fill="none" stroke="midnightblue" d="M416.96,-615.48C455.56,-606.33 517.74,-591.59 565.33,-580.3"/>
<polygon fill="midnightblue" stroke="midnightblue" points="566.32,-583.67 575.25,-577.95 564.71,-576.85 566.32,-583.67"/>
</g>
<!-- Node13&#45;&gt;Node4 -->
<g id="edge16" class="edge">
<title>Node13&#45;&gt;Node4</title>
<path fill="none" stroke="midnightblue" d="M592.35,-548.46C530.98,-524.81 413.01,-471.4 345,-389 255,-279.96 262.28,-227.33 245,-87 242.64,-67.79 243.64,-45.66 244.92,-30.25"/>
<polygon fill="midnightblue" stroke="midnightblue" points="248.44,-30.22 245.91,-19.93 241.47,-29.55 248.44,-30.22"/>
</g>
<!-- Node13&#45;&gt;Node10 -->
<g id="edge44" class="edge">
<title>Node13&#45;&gt;Node10</title>
<path fill="none" stroke="midnightblue" d="M688.85,-552.71C797.3,-530.43 1023,-465.13 1023,-307.5 1023,-307.5 1023,-307.5 1023,-244 1023,-159.97 1019.03,-136.54 1043,-56 1045.85,-46.43 1050.7,-36.48 1055.22,-28.38"/>
<polygon fill="midnightblue" stroke="midnightblue" points="1058.36,-29.96 1060.41,-19.56 1052.32,-26.41 1058.36,-29.96"/>
</g>
<!-- Node14 -->
<g id="node14" class="node">
<title>Node14</title>
<g id="a_node14"><a xlink:href="api_2proto__stats__types_8h.html" target="_top" xlink:title=" ">
<polygon fill="white" stroke="black" points="532,-358.5 532,-388.5 642,-388.5 642,-358.5 532,-358.5"/>
<text text-anchor="start" x="540" y="-376.5" font-family="Helvetica,sans-Serif" font-size="10.00">odp/api/proto_stats</text>
<text text-anchor="middle" x="587" y="-365.5" font-family="Helvetica,sans-Serif" font-size="10.00">_types.h</text>
</a>
</g>
</g>
<!-- Node13&#45;&gt;Node14 -->
<g id="edge17" class="edge">
<title>Node13&#45;&gt;Node14</title>
<path fill="none" stroke="midnightblue" d="M628.62,-548.37C620.96,-516.38 602.23,-438.11 592.72,-398.42"/>
<polygon fill="midnightblue" stroke="midnightblue" points="596.09,-397.45 590.36,-388.54 589.28,-399.08 596.09,-397.45"/>
</g>
<!-- Node13&#45;&gt;Node24 -->
<g id="edge33" class="edge">
<title>Node13&#45;&gt;Node24</title>
<path fill="none" stroke="midnightblue" d="M649.77,-548.4C661.35,-539.22 676.42,-527.26 688.2,-517.92"/>
<polygon fill="midnightblue" stroke="midnightblue" points="690.43,-520.61 696.09,-511.66 686.08,-515.13 690.43,-520.61"/>
</g>
<!-- Node15 -->
<g id="node15" class="node">
<title>Node15</title>
<g id="a_node15"><a xlink:title=" ">
<polygon fill="white" stroke="#bfbfbf" points="387,-291.5 387,-321.5 515,-321.5 515,-291.5 387,-291.5"/>
<text text-anchor="start" x="395" y="-309.5" font-family="Helvetica,sans-Serif" font-size="10.00">odp/api/abi/proto_stats</text>
<text text-anchor="middle" x="451" y="-298.5" font-family="Helvetica,sans-Serif" font-size="10.00">_types.h</text>
</a>
</g>
</g>
<!-- Node14&#45;&gt;Node15 -->
<g id="edge18" class="edge">
<title>Node14&#45;&gt;Node15</title>
<path fill="none" stroke="midnightblue" d="M557.49,-358.4C537.62,-348.9 511.21,-336.28 489.66,-325.98"/>
<polygon fill="midnightblue" stroke="midnightblue" points="490.98,-322.73 480.45,-321.58 487.97,-329.05 490.98,-322.73"/>
</g>
<!-- Node16 -->
<g id="node16" class="node">
<title>Node16</title>
<g id="a_node16"><a xlink:href="api_2spec_2proto__stats__types_8h.html" target="_top" xlink:title=" ">
<polygon fill="white" stroke="black" points="533.5,-291.5 533.5,-321.5 640.5,-321.5 640.5,-291.5 533.5,-291.5"/>
<text text-anchor="start" x="541.5" y="-309.5" font-family="Helvetica,sans-Serif" font-size="10.00">odp/api/spec/proto</text>
<text text-anchor="middle" x="587" y="-298.5" font-family="Helvetica,sans-Serif" font-size="10.00">_stats_types.h</text>
</a>
</g>
</g>
<!-- Node14&#45;&gt;Node16 -->
<g id="edge19" class="edge">
<title>Node14&#45;&gt;Node16</title>
<path fill="none" stroke="midnightblue" d="M587,-358.4C587,-350.64 587,-340.81 587,-331.86"/>
<polygon fill="midnightblue" stroke="midnightblue" points="590.5,-331.58 587,-321.58 583.5,-331.58 590.5,-331.58"/>
</g>
<!-- Node16&#45;&gt;Node4 -->
<g id="edge20" class="edge">
<title>Node16&#45;&gt;Node4</title>
<path fill="none" stroke="midnightblue" d="M533.3,-293.08C475.06,-279.49 389.48,-259.07 383,-255 328.19,-220.62 321.24,-199.66 290,-143 269.23,-105.33 256.52,-56.01 250.72,-29.61"/>
<polygon fill="midnightblue" stroke="midnightblue" points="254.14,-28.86 248.66,-19.8 247.29,-30.3 254.14,-28.86"/>
</g>
<!-- Node16&#45;&gt;Node10 -->
<g id="edge32" class="edge">
<title>Node16&#45;&gt;Node10</title>
<path fill="none" stroke="midnightblue" d="M640.16,-291.42C687.06,-275.41 748,-244.18 748,-190 748,-190 748,-190 748,-132 748,-97.18 741.23,-79.42 767,-56 800.18,-25.85 922.22,-15.9 999.75,-12.62"/>
<polygon fill="midnightblue" stroke="midnightblue" points="1000.06,-16.11 1009.92,-12.21 999.79,-9.11 1000.06,-16.11"/>
</g>
<!-- Node16&#45;&gt;Node17 -->
<g id="edge21" class="edge">
<title>Node16&#45;&gt;Node17</title>
<path fill="none" stroke="midnightblue" d="M640.67,-292.44C643.48,-291.91 646.27,-291.43 649,-291 819.52,-264.14 1022.84,-252.71 1125.56,-248.36"/>
<polygon fill="midnightblue" stroke="midnightblue" points="1125.94,-251.85 1135.79,-247.93 1125.65,-244.85 1125.94,-251.85"/>
</g>
<!-- Node18 -->
<g id="node18" class="node">
<title>Node18</title>
<g id="a_node18"><a xlink:title=" ">
<polygon fill="white" stroke="#bfbfbf" points="1127,-179.5 1127,-198.5 1257,-198.5 1257,-179.5 1127,-179.5"/>
<text text-anchor="middle" x="1192" y="-186.5" font-family="Helvetica,sans-Serif" font-size="10.00">odp/api/abi/std_types.h</text>
</a>
</g>
</g>
<!-- Node17&#45;&gt;Node18 -->
<g id="edge22" class="edge">
<title>Node17&#45;&gt;Node18</title>
<path fill="none" stroke="midnightblue" d="M1192,-235.08C1192,-228.01 1192,-217.86 1192,-208.99"/>
<polygon fill="midnightblue" stroke="midnightblue" points="1195.5,-208.75 1192,-198.75 1188.5,-208.75 1195.5,-208.75"/>
</g>
<!-- Node19 -->
<g id="node19" class="node">
<title>Node19</title>
<g id="a_node19"><a xlink:href="api_2spec_2std__types_8h.html" target="_top" xlink:title=" ">
<polygon fill="white" stroke="black" points="1313.5,-179.5 1313.5,-198.5 1450.5,-198.5 1450.5,-179.5 1313.5,-179.5"/>
<text text-anchor="middle" x="1382" y="-186.5" font-family="Helvetica,sans-Serif" font-size="10.00">odp/api/spec/std_types.h</text>
</a>
</g>
</g>
<!-- Node17&#45;&gt;Node19 -->
<g id="edge23" class="edge">
<title>Node17&#45;&gt;Node19</title>
<path fill="none" stroke="midnightblue" d="M1222.11,-235.44C1254.63,-226.2 1306.58,-211.44 1342.39,-201.26"/>
<polygon fill="midnightblue" stroke="midnightblue" points="1343.37,-204.62 1352.03,-198.52 1341.46,-197.88 1343.37,-204.62"/>
</g>
<!-- Node19&#45;&gt;Node4 -->
<g id="edge24" class="edge">
<title>Node19&#45;&gt;Node4</title>
<path fill="none" stroke="midnightblue" d="M1313.18,-180.33C1308.38,-179.86 1303.62,-179.41 1299,-179 898.48,-143.51 771.49,-238.4 399,-87 377.17,-78.13 376.58,-67.46 356,-56 332.27,-42.78 303.86,-31.18 281.99,-23.07"/>
<polygon fill="midnightblue" stroke="midnightblue" points="283.04,-19.72 272.45,-19.59 280.64,-26.3 283.04,-19.72"/>
</g>
<!-- Node19&#45;&gt;Node10 -->
<g id="edge31" class="edge">
<title>Node19&#45;&gt;Node10</title>
<path fill="none" stroke="midnightblue" d="M1385.86,-179.25C1389.56,-170.33 1394.89,-156.01 1397,-143 1403.44,-103.29 1403.29,-81.29 1372,-56 1336.23,-27.09 1211.31,-16.72 1132.57,-13.02"/>
<polygon fill="midnightblue" stroke="midnightblue" points="1132.4,-9.51 1122.25,-12.56 1132.09,-16.51 1132.4,-9.51"/>
</g>
<!-- Node20 -->
<g id="node20" class="node">
<title>Node20</title>
<g id="a_node20"><a xlink:title=" ">
<polygon fill="white" stroke="#bfbfbf" points="1335.5,-123.5 1335.5,-142.5 1388.5,-142.5 1388.5,-123.5 1335.5,-123.5"/>
<text text-anchor="middle" x="1362" y="-130.5" font-family="Helvetica,sans-Serif" font-size="10.00">stdint.h</text>
</a>
</g>
</g>
<!-- Node19&#45;&gt;Node20 -->
<g id="edge25" class="edge">
<title>Node19&#45;&gt;Node20</title>
<path fill="none" stroke="midnightblue" d="M1378.7,-179.08C1376.02,-171.85 1372.15,-161.41 1368.81,-152.4"/>
<polygon fill="midnightblue" stroke="midnightblue" points="1372,-150.91 1365.24,-142.75 1365.43,-153.34 1372,-150.91"/>
</g>
<!-- Node21 -->
<g id="node21" class="node">
<title>Node21</title>
<g id="a_node21"><a xlink:href="api_2align_8h.html" target="_top" xlink:title=" ">
<polygon fill="white" stroke="black" points="1189.5,-123.5 1189.5,-142.5 1278.5,-142.5 1278.5,-123.5 1189.5,-123.5"/>
<text text-anchor="middle" x="1234" y="-130.5" font-family="Helvetica,sans-Serif" font-size="10.00">odp/api/align.h</text>
</a>
</g>
</g>
<!-- Node19&#45;&gt;Node21 -->
<g id="edge26" class="edge">
<title>Node19&#45;&gt;Node21</title>
<path fill="none" stroke="midnightblue" d="M1358.55,-179.44C1333.87,-170.44 1294.81,-156.19 1267.02,-146.05"/>
<polygon fill="midnightblue" stroke="midnightblue" points="1267.94,-142.66 1257.34,-142.52 1265.54,-149.23 1267.94,-142.66"/>
</g>
<!-- Node22 -->
<g id="node22" class="node">
<title>Node22</title>
<g id="a_node22"><a xlink:title=" ">
<polygon fill="white" stroke="#bfbfbf" points="1222.5,-62 1222.5,-81 1329.5,-81 1329.5,-62 1222.5,-62"/>
<text text-anchor="middle" x="1276" y="-69" font-family="Helvetica,sans-Serif" font-size="10.00">odp/api/abi/align.h</text>
</a>
</g>
</g>
<!-- Node21&#45;&gt;Node22 -->
<g id="edge27" class="edge">
<title>Node21&#45;&gt;Node22</title>
<path fill="none" stroke="midnightblue" d="M1240.02,-123.48C1246.26,-114.64 1256.17,-100.59 1264.02,-89.48"/>
<polygon fill="midnightblue" stroke="midnightblue" points="1267.09,-91.2 1269.99,-81.01 1261.37,-87.16 1267.09,-91.2"/>
</g>
<!-- Node23 -->
<g id="node23" class="node">
<title>Node23</title>
<g id="a_node23"><a xlink:href="api_2spec_2align_8h.html" target="_top" xlink:title=" ">
<polygon fill="white" stroke="black" points="1052,-62 1052,-81 1166,-81 1166,-62 1052,-62"/>
<text text-anchor="middle" x="1109" y="-69" font-family="Helvetica,sans-Serif" font-size="10.00">odp/api/spec/align.h</text>
</a>
</g>
</g>
<!-- Node21&#45;&gt;Node23 -->
<g id="edge28" class="edge">
<title>Node21&#45;&gt;Node23</title>
<path fill="none" stroke="midnightblue" d="M1216.09,-123.48C1195.11,-113.49 1160.15,-96.85 1135.91,-85.31"/>
<polygon fill="midnightblue" stroke="midnightblue" points="1137.41,-82.15 1126.88,-81.01 1134.4,-88.47 1137.41,-82.15"/>
</g>
<!-- Node23&#45;&gt;Node4 -->
<g id="edge29" class="edge">
<title>Node23&#45;&gt;Node4</title>
<path fill="none" stroke="midnightblue" d="M1051.95,-65.72C1016.33,-62.79 969.5,-59.03 928,-56 705.3,-39.72 441.44,-23.02 317.7,-15.35"/>
<polygon fill="midnightblue" stroke="midnightblue" points="317.8,-11.85 307.6,-14.72 317.37,-18.83 317.8,-11.85"/>
</g>
<!-- Node23&#45;&gt;Node10 -->
<g id="edge30" class="edge">
<title>Node23&#45;&gt;Node10</title>
<path fill="none" stroke="midnightblue" d="M1102.84,-61.98C1096.39,-53.05 1086.1,-38.81 1078.03,-27.64"/>
<polygon fill="midnightblue" stroke="midnightblue" points="1080.84,-25.56 1072.15,-19.51 1075.17,-29.66 1080.84,-25.56"/>
</g>
<!-- Node25 -->
<g id="node25" class="node">
<title>Node25</title>
<g id="a_node25"><a xlink:title=" ">
<polygon fill="white" stroke="#bfbfbf" points="626.5,-431 626.5,-450 771.5,-450 771.5,-431 626.5,-431"/>
<text text-anchor="middle" x="699" y="-438" font-family="Helvetica,sans-Serif" font-size="10.00">odp/api/abi/queue_types.h</text>
</a>
</g>
</g>
<!-- Node24&#45;&gt;Node25 -->
<g id="edge34" class="edge">
<title>Node24&#45;&gt;Node25</title>
<path fill="none" stroke="midnightblue" d="M705.85,-492.48C704.73,-484.08 702.96,-470.98 701.51,-460.16"/>
<polygon fill="midnightblue" stroke="midnightblue" points="704.95,-459.45 700.14,-450.01 698.01,-460.39 704.95,-459.45"/>
</g>
<!-- Node26 -->
<g id="node26" class="node">
<title>Node26</title>
<g id="a_node26"><a xlink:href="api_2spec_2queue__types_8h.html" target="_top" xlink:title=" ">
<polygon fill="white" stroke="black" points="789.5,-425.5 789.5,-455.5 900.5,-455.5 900.5,-425.5 789.5,-425.5"/>
<text text-anchor="start" x="797.5" y="-443.5" font-family="Helvetica,sans-Serif" font-size="10.00">odp/api/spec/queue</text>
<text text-anchor="middle" x="845" y="-432.5" font-family="Helvetica,sans-Serif" font-size="10.00">_types.h</text>
</a>
</g>
</g>
<!-- Node24&#45;&gt;Node26 -->
<g id="edge35" class="edge">
<title>Node24&#45;&gt;Node26</title>
<path fill="none" stroke="midnightblue" d="M726.77,-492.48C746.6,-483.93 777.74,-470.5 803.08,-459.57"/>
<polygon fill="midnightblue" stroke="midnightblue" points="804.68,-462.7 812.48,-455.52 801.91,-456.27 804.68,-462.7"/>
</g>
<!-- Node26&#45;&gt;Node4 -->
<g id="edge36" class="edge">
<title>Node26&#45;&gt;Node4</title>
<path fill="none" stroke="midnightblue" d="M789.39,-426.79C786.22,-426.16 783.07,-425.56 780,-425 598.52,-392.1 514.19,-446.37 378,-322 290.8,-242.37 282.16,-201.69 254,-87 249.32,-67.93 247.71,-45.46 247.19,-29.93"/>
<polygon fill="midnightblue" stroke="midnightblue" points="250.68,-29.49 246.97,-19.57 243.68,-29.64 250.68,-29.49"/>
</g>
<!-- Node26&#45;&gt;Node10 -->
<g id="edge43" class="edge">
<title>Node26&#45;&gt;Node10</title>
<path fill="none" stroke="midnightblue" d="M878.09,-425.48C894.16,-417.1 912.44,-404.95 924,-389 1013.73,-265.25 927.09,-184.42 1010,-56 1018.06,-43.52 1030.75,-32.9 1042.01,-25.13"/>
<polygon fill="midnightblue" stroke="midnightblue" points="1044.15,-27.91 1050.62,-19.52 1040.33,-22.04 1044.15,-27.91"/>
</g>
<!-- Node27 -->
<g id="node27" class="node">
<title>Node27</title>
<g id="a_node27"><a xlink:href="api_2schedule__types_8h.html" target="_top" xlink:title=" ">
<polygon fill="white" stroke="black" points="775,-364 775,-383 915,-383 915,-364 775,-364"/>
<text text-anchor="middle" x="845" y="-371" font-family="Helvetica,sans-Serif" font-size="10.00">odp/api/schedule_types.h</text>
</a>
</g>
</g>
<!-- Node26&#45;&gt;Node27 -->
<g id="edge37" class="edge">
<title>Node26&#45;&gt;Node27</title>
<path fill="none" stroke="midnightblue" d="M845,-425.4C845,-416.06 845,-403.71 845,-393.52"/>
<polygon fill="midnightblue" stroke="midnightblue" points="848.5,-393.19 845,-383.19 841.5,-393.19 848.5,-393.19"/>
</g>
<!-- Node28 -->
<g id="node28" class="node">
<title>Node28</title>
<g id="a_node28"><a xlink:title=" ">
<polygon fill="white" stroke="#bfbfbf" points="658.5,-291.5 658.5,-321.5 775.5,-321.5 775.5,-291.5 658.5,-291.5"/>
<text text-anchor="start" x="666.5" y="-309.5" font-family="Helvetica,sans-Serif" font-size="10.00">odp/api/abi/schedule</text>
<text text-anchor="middle" x="717" y="-298.5" font-family="Helvetica,sans-Serif" font-size="10.00">_types.h</text>
</a>
</g>
</g>
<!-- Node27&#45;&gt;Node28 -->
<g id="edge38" class="edge">
<title>Node27&#45;&gt;Node28</title>
<path fill="none" stroke="midnightblue" d="M828,-363.87C809.19,-354.31 778.3,-338.63 753.87,-326.22"/>
<polygon fill="midnightblue" stroke="midnightblue" points="755.37,-323.06 744.87,-321.65 752.2,-329.3 755.37,-323.06"/>
</g>
<!-- Node29 -->
<g id="node29" class="node">
<title>Node29</title>
<g id="a_node29"><a xlink:href="api_2spec_2schedule__types_8h.html" target="_top" xlink:title=" ">
<polygon fill="white" stroke="black" points="793.5,-291.5 793.5,-321.5 918.5,-321.5 918.5,-291.5 793.5,-291.5"/>
<text text-anchor="start" x="801.5" y="-309.5" font-family="Helvetica,sans-Serif" font-size="10.00">odp/api/spec/schedule</text>
<text text-anchor="middle" x="856" y="-298.5" font-family="Helvetica,sans-Serif" font-size="10.00">_types.h</text>
</a>
</g>
</g>
<!-- Node27&#45;&gt;Node29 -->
<g id="edge39" class="edge">
<title>Node27&#45;&gt;Node29</title>
<path fill="none" stroke="midnightblue" d="M846.48,-363.73C847.87,-355.54 850.01,-342.92 851.9,-331.71"/>
<polygon fill="midnightblue" stroke="midnightblue" points="855.4,-332.03 853.62,-321.59 848.5,-330.86 855.4,-332.03"/>
</g>
<!-- Node29&#45;&gt;Node4 -->
<g id="edge40" class="edge">
<title>Node29&#45;&gt;Node4</title>
<path fill="none" stroke="midnightblue" d="M802.12,-291.39C690.87,-261.66 440,-191.34 366,-143 317.96,-111.62 276.92,-56.17 258.06,-28.18"/>
<polygon fill="midnightblue" stroke="midnightblue" points="260.96,-26.23 252.53,-19.82 255.12,-30.09 260.96,-26.23"/>
</g>
<!-- Node29&#45;&gt;Node10 -->
<g id="edge42" class="edge">
<title>Node29&#45;&gt;Node10</title>
<path fill="none" stroke="midnightblue" d="M861.07,-291.49C878.35,-244.38 935.81,-92.6 972,-56 986.88,-40.95 1007.79,-30.26 1026.11,-23.08"/>
<polygon fill="midnightblue" stroke="midnightblue" points="1027.52,-26.3 1035.69,-19.55 1025.09,-19.73 1027.52,-26.3"/>
</g>
<!-- Node29&#45;&gt;Node17 -->
<g id="edge41" class="edge">
<title>Node29&#45;&gt;Node17</title>
<path fill="none" stroke="midnightblue" d="M918.8,-294.38C980.48,-283.46 1073.81,-266.93 1133.84,-256.3"/>
<polygon fill="midnightblue" stroke="midnightblue" points="1134.67,-259.71 1143.91,-254.52 1133.45,-252.81 1134.67,-259.71"/>
</g>
<!-- Node30&#45;&gt;Node6 -->
<g id="edge46" class="edge">
<title>Node30&#45;&gt;Node6</title>
<path fill="none" stroke="midnightblue" d="M220.12,-615.48C213.02,-607.79 202.28,-596.17 192.84,-585.96"/>
<polygon fill="midnightblue" stroke="midnightblue" points="195.32,-583.49 185.96,-578.52 190.18,-588.24 195.32,-583.49"/>
</g>
<!-- Node31 -->
<g id="node31" class="node">
<title>Node31</title>
<g id="a_node31"><a xlink:href="spec_2packet__io__stats_8h.html" target="_top" xlink:title=" ">
<polygon fill="white" stroke="black" points="444.5,-548.5 444.5,-578.5 557.5,-578.5 557.5,-548.5 444.5,-548.5"/>
<text text-anchor="start" x="452.5" y="-566.5" font-family="Helvetica,sans-Serif" font-size="10.00">odp/api/spec/packet</text>
<text text-anchor="middle" x="501" y="-555.5" font-family="Helvetica,sans-Serif" font-size="10.00">_io_stats.h</text>
</a>
</g>
</g>
<!-- Node30&#45;&gt;Node31 -->
<g id="edge47" class="edge">
<title>Node30&#45;&gt;Node31</title>
<path fill="none" stroke="midnightblue" d="M267.11,-615.48C310.74,-605.97 382.07,-590.42 434.51,-578.99"/>
<polygon fill="midnightblue" stroke="midnightblue" points="435.37,-582.39 444.4,-576.84 433.88,-575.55 435.37,-582.39"/>
</g>
<!-- Node31&#45;&gt;Node4 -->
<g id="edge48" class="edge">
<title>Node31&#45;&gt;Node4</title>
<path fill="none" stroke="midnightblue" d="M454.09,-548.4C424.44,-539.05 385.54,-525.96 352,-512 344.09,-508.71 76,-383.07 76,-374.5 76,-374.5 76,-374.5 76,-132 76,-96.58 74.84,-80.94 100,-56 120.34,-35.84 149.46,-24.67 176.43,-18.5"/>
<polygon fill="midnightblue" stroke="midnightblue" points="177.17,-21.92 186.24,-16.45 175.74,-15.07 177.17,-21.92"/>
</g>
<!-- Node31&#45;&gt;Node8 -->
<g id="edge49" class="edge">
<title>Node31&#45;&gt;Node8</title>
<path fill="none" stroke="midnightblue" d="M444.37,-549.59C397.49,-538.9 331.66,-523.9 287.5,-513.83"/>
<polygon fill="midnightblue" stroke="midnightblue" points="288.12,-510.38 277.6,-511.57 286.57,-517.21 288.12,-510.38"/>
</g>
<!-- Node31&#45;&gt;Node10 -->
<g id="edge51" class="edge">
<title>Node31&#45;&gt;Node10</title>
<path fill="none" stroke="midnightblue" d="M486.07,-548.27C449.61,-511.91 359,-411.12 359,-307.5 359,-307.5 359,-307.5 359,-244 359,-129.94 472.24,-157.38 562,-87 579.42,-73.34 580.47,-64.3 601,-56 671.64,-27.45 889.06,-16.57 999.76,-12.8"/>
<polygon fill="midnightblue" stroke="midnightblue" points="999.93,-16.3 1009.81,-12.47 999.7,-9.3 999.93,-16.3"/>
</g>
<!-- Node31&#45;&gt;Node24 -->
<g id="edge50" class="edge">
<title>Node31&#45;&gt;Node24</title>
<path fill="none" stroke="midnightblue" d="M549.56,-548.47C585.56,-538.08 634.02,-524.08 667.63,-514.37"/>
<polygon fill="midnightblue" stroke="midnightblue" points="668.91,-517.64 677.55,-511.51 666.97,-510.92 668.91,-517.64"/>
</g>
<!-- Node33 -->
<g id="node33" class="node">
<title>Node33</title>
<g id="a_node33"><a xlink:title=" ">
<polygon fill="white" stroke="#bfbfbf" points="753,-783.5 753,-802.5 889,-802.5 889,-783.5 753,-783.5"/>
<text text-anchor="middle" x="821" y="-790.5" font-family="Helvetica,sans-Serif" font-size="10.00">odp/api/abi/pool_types.h</text>
</a>
</g>
</g>
<!-- Node32&#45;&gt;Node33 -->
<g id="edge53" class="edge">
<title>Node32&#45;&gt;Node33</title>
<path fill="none" stroke="midnightblue" d="M821,-839.08C821,-832.01 821,-821.86 821,-812.99"/>
<polygon fill="midnightblue" stroke="midnightblue" points="824.5,-812.75 821,-802.75 817.5,-812.75 824.5,-812.75"/>
</g>
<!-- Node34 -->
<g id="node34" class="node">
<title>Node34</title>
<g id="a_node34"><a xlink:href="api_2spec_2pool__types_8h.html" target="_top" xlink:title=" ">
<polygon fill="white" stroke="black" points="911.5,-783.5 911.5,-802.5 1054.5,-802.5 1054.5,-783.5 911.5,-783.5"/>
<text text-anchor="middle" x="983" y="-790.5" font-family="Helvetica,sans-Serif" font-size="10.00">odp/api/spec/pool_types.h</text>
</a>
</g>
</g>
<!-- Node32&#45;&gt;Node34 -->
<g id="edge54" class="edge">
<title>Node32&#45;&gt;Node34</title>
<path fill="none" stroke="midnightblue" d="M846.67,-839.44C873.92,-830.36 917.18,-815.94 947.65,-805.78"/>
<polygon fill="midnightblue" stroke="midnightblue" points="949.07,-809 957.45,-802.52 946.86,-802.36 949.07,-809"/>
</g>
<!-- Node34&#45;&gt;Node4 -->
<g id="edge55" class="edge">
<title>Node34&#45;&gt;Node4</title>
<path fill="none" stroke="midnightblue" d="M911.22,-784.08C699.44,-760.58 92,-692.3 92,-682 92,-682 92,-682 92,-562.5 92,-478.37 114,-458.63 114,-374.5 114,-374.5 114,-374.5 114,-132 114,-77.75 175.28,-41.4 214.65,-23.64"/>
<polygon fill="midnightblue" stroke="midnightblue" points="216.35,-26.72 224.14,-19.53 213.57,-20.3 216.35,-26.72"/>
</g>
<!-- Node34&#45;&gt;Node10 -->
<g id="edge70" class="edge">
<title>Node34&#45;&gt;Node10</title>
<path fill="none" stroke="midnightblue" d="M1004.28,-783.4C1037.76,-768.3 1099,-733.62 1099,-682 1099,-682 1099,-682 1099,-244 1099,-213.9 1095.94,-199.47 1118,-179 1174.29,-126.76 1220.39,-181.22 1287,-143 1325.87,-120.69 1366.99,-90.18 1338,-56 1312.14,-25.51 1204.23,-15.65 1132.35,-12.48"/>
<polygon fill="midnightblue" stroke="midnightblue" points="1132.15,-8.97 1122.02,-12.06 1131.87,-15.96 1132.15,-8.97"/>
</g>
<!-- Node34&#45;&gt;Node17 -->
<g id="edge56" class="edge">
<title>Node34&#45;&gt;Node17</title>
<path fill="none" stroke="midnightblue" d="M1042.17,-783.46C1098.59,-771.58 1175,-744.04 1175,-682 1175,-682 1175,-682 1175,-372.5 1175,-333.86 1182.89,-289.16 1187.92,-264.59"/>
<polygon fill="midnightblue" stroke="midnightblue" points="1191.4,-265.04 1190.05,-254.54 1184.55,-263.59 1191.4,-265.04"/>
</g>
<!-- Node35 -->
<g id="node35" class="node">
<title>Node35</title>
<g id="a_node35"><a xlink:href="api_2dma__types_8h.html" target="_top" xlink:title=" ">
<polygon fill="white" stroke="black" points="923.5,-727.5 923.5,-746.5 1042.5,-746.5 1042.5,-727.5 923.5,-727.5"/>
<text text-anchor="middle" x="983" y="-734.5" font-family="Helvetica,sans-Serif" font-size="10.00">odp/api/dma_types.h</text>
</a>
</g>
</g>
<!-- Node34&#45;&gt;Node35 -->
<g id="edge57" class="edge">
<title>Node34&#45;&gt;Node35</title>
<path fill="none" stroke="midnightblue" d="M983,-783.08C983,-776.01 983,-765.86 983,-756.99"/>
<polygon fill="midnightblue" stroke="midnightblue" points="986.5,-756.75 983,-746.75 979.5,-756.75 986.5,-756.75"/>
</g>
<!-- Node36 -->
<g id="node36" class="node">
<title>Node36</title>
<g id="a_node36"><a xlink:title=" ">
<polygon fill="white" stroke="#bfbfbf" points="756.5,-671.5 756.5,-690.5 893.5,-690.5 893.5,-671.5 756.5,-671.5"/>
<text text-anchor="middle" x="825" y="-678.5" font-family="Helvetica,sans-Serif" font-size="10.00">odp/api/abi/dma_types.h</text>
</a>
</g>
</g>
<!-- Node35&#45;&gt;Node36 -->
<g id="edge58" class="edge">
<title>Node35&#45;&gt;Node36</title>
<path fill="none" stroke="midnightblue" d="M957.96,-727.44C931.38,-718.36 889.19,-703.94 859.48,-693.78"/>
<polygon fill="midnightblue" stroke="midnightblue" points="860.51,-690.44 849.92,-690.52 858.25,-697.06 860.51,-690.44"/>
</g>
<!-- Node37 -->
<g id="node37" class="node">
<title>Node37</title>
<g id="a_node37"><a xlink:href="api_2spec_2dma__types_8h.html" target="_top" xlink:title=" ">
<polygon fill="white" stroke="black" points="912,-671.5 912,-690.5 1056,-690.5 1056,-671.5 912,-671.5"/>
<text text-anchor="middle" x="984" y="-678.5" font-family="Helvetica,sans-Serif" font-size="10.00">odp/api/spec/dma_types.h</text>
</a>
</g>
</g>
<!-- Node35&#45;&gt;Node37 -->
<g id="edge59" class="edge">
<title>Node35&#45;&gt;Node37</title>
<path fill="none" stroke="midnightblue" d="M983.17,-727.08C983.3,-720.01 983.48,-709.86 983.65,-700.99"/>
<polygon fill="midnightblue" stroke="midnightblue" points="987.15,-700.81 983.84,-690.75 980.15,-700.68 987.15,-700.81"/>
</g>
<!-- Node37&#45;&gt;Node4 -->
<g id="edge60" class="edge">
<title>Node37&#45;&gt;Node4</title>
<path fill="none" stroke="midnightblue" d="M911.84,-671.53C805.83,-658.02 602.42,-627.98 435,-579 399.99,-568.76 393.97,-558.37 359,-548 277.44,-523.82 233.34,-569.89 171,-512 147.22,-489.92 152,-473.95 152,-441.5 152,-441.5 152,-441.5 152,-132 152,-85.25 196.42,-45.86 224.51,-25.62"/>
<polygon fill="midnightblue" stroke="midnightblue" points="226.77,-28.32 232.98,-19.74 222.77,-22.57 226.77,-28.32"/>
</g>
<!-- Node37&#45;&gt;Node10 -->
<g id="edge69" class="edge">
<title>Node37&#45;&gt;Node10</title>
<path fill="none" stroke="midnightblue" d="M995.03,-671.46C1016.32,-653.91 1061,-611.49 1061,-564.5 1061,-564.5 1061,-564.5 1061,-244 1061,-213.2 1068.54,-205.02 1085,-179 1115.58,-130.66 1153.4,-139.97 1175,-87 1180.2,-74.24 1182.66,-67.45 1175,-56 1164.09,-39.7 1146.09,-29.3 1127.82,-22.66"/>
<polygon fill="midnightblue" stroke="midnightblue" points="1128.87,-19.32 1118.28,-19.52 1126.68,-25.97 1128.87,-19.32"/>
</g>
<!-- Node37&#45;&gt;Node11 -->
<g id="edge66" class="edge">
<title>Node37&#45;&gt;Node11</title>
<path fill="none" stroke="midnightblue" d="M911.57,-671.96C908.34,-671.63 905.14,-671.31 902,-671 743.23,-655.43 556.96,-640.04 455.74,-631.91"/>
<polygon fill="midnightblue" stroke="midnightblue" points="455.86,-628.41 445.62,-631.1 455.3,-635.38 455.86,-628.41"/>
</g>
<!-- Node37&#45;&gt;Node17 -->
<g id="edge68" class="edge">
<title>Node37&#45;&gt;Node17</title>
<path fill="none" stroke="midnightblue" d="M1016.07,-671.46C1060.94,-657.35 1137,-624.57 1137,-564.5 1137,-564.5 1137,-564.5 1137,-372.5 1137,-334.74 1144.75,-325.09 1161,-291 1165.74,-281.06 1172.55,-270.89 1178.58,-262.74"/>
<polygon fill="midnightblue" stroke="midnightblue" points="1181.37,-264.85 1184.68,-254.79 1175.82,-260.59 1181.37,-264.85"/>
</g>
<!-- Node37&#45;&gt;Node24 -->
<g id="edge67" class="edge">
<title>Node37&#45;&gt;Node24</title>
<path fill="none" stroke="midnightblue" d="M970.64,-671.46C926.4,-643.2 784.4,-552.46 729.22,-517.2"/>
<polygon fill="midnightblue" stroke="midnightblue" points="730.86,-514.09 720.55,-511.66 727.09,-519.99 730.86,-514.09"/>
</g>
<!-- Node38 -->
<g id="node38" class="node">
<title>Node38</title>
<g id="a_node38"><a xlink:href="api_2event__types_8h.html" target="_top" xlink:title=" ">
<polygon fill="white" stroke="black" points="785.5,-123.5 785.5,-142.5 910.5,-142.5 910.5,-123.5 785.5,-123.5"/>
<text text-anchor="middle" x="848" y="-130.5" font-family="Helvetica,sans-Serif" font-size="10.00">odp/api/event_types.h</text>
</a>
</g>
</g>
<!-- Node37&#45;&gt;Node38 -->
<g id="edge61" class="edge">
<title>Node37&#45;&gt;Node38</title>
<path fill="none" stroke="midnightblue" d="M984.13,-671.31C984.4,-652.06 985,-604.41 985,-564.5 985,-564.5 985,-564.5 985,-305.5 985,-233.35 910.07,-174.12 871.04,-148.16"/>
<polygon fill="midnightblue" stroke="midnightblue" points="872.7,-145.06 862.4,-142.57 868.9,-150.94 872.7,-145.06"/>
</g>
<!-- Node39 -->
<g id="node39" class="node">
<title>Node39</title>
<g id="a_node39"><a xlink:title=" ">
<polygon fill="white" stroke="#bfbfbf" points="776.5,-62 776.5,-81 919.5,-81 919.5,-62 776.5,-62"/>
<text text-anchor="middle" x="848" y="-69" font-family="Helvetica,sans-Serif" font-size="10.00">odp/api/abi/event_types.h</text>
</a>
</g>
</g>
<!-- Node38&#45;&gt;Node39 -->
<g id="edge62" class="edge">
<title>Node38&#45;&gt;Node39</title>
<path fill="none" stroke="midnightblue" d="M848,-123.48C848,-115.08 848,-101.98 848,-91.16"/>
<polygon fill="midnightblue" stroke="midnightblue" points="851.5,-91.01 848,-81.01 844.5,-91.01 851.5,-91.01"/>
</g>
<!-- Node40 -->
<g id="node40" class="node">
<title>Node40</title>
<g id="a_node40"><a xlink:href="api_2spec_2event__types_8h.html" target="_top" xlink:title=" ">
<polygon fill="white" stroke="black" points="610.5,-56.5 610.5,-86.5 719.5,-86.5 719.5,-56.5 610.5,-56.5"/>
<text text-anchor="start" x="618.5" y="-74.5" font-family="Helvetica,sans-Serif" font-size="10.00">odp/api/spec/event</text>
<text text-anchor="middle" x="665" y="-63.5" font-family="Helvetica,sans-Serif" font-size="10.00">_types.h</text>
</a>
</g>
</g>
<!-- Node38&#45;&gt;Node40 -->
<g id="edge63" class="edge">
<title>Node38&#45;&gt;Node40</title>
<path fill="none" stroke="midnightblue" d="M821.78,-123.48C794.8,-114.7 752,-100.79 717.94,-89.71"/>
<polygon fill="midnightblue" stroke="midnightblue" points="718.72,-86.29 708.13,-86.52 716.56,-92.94 718.72,-86.29"/>
</g>
<!-- Node40&#45;&gt;Node4 -->
<g id="edge64" class="edge">
<title>Node40&#45;&gt;Node4</title>
<path fill="none" stroke="midnightblue" d="M610.35,-62.72C535.05,-52 399.33,-32.68 316.77,-20.93"/>
<polygon fill="midnightblue" stroke="midnightblue" points="317.12,-17.45 306.73,-19.5 316.13,-24.38 317.12,-17.45"/>
</g>
<!-- Node40&#45;&gt;Node10 -->
<g id="edge65" class="edge">
<title>Node40&#45;&gt;Node10</title>
<path fill="none" stroke="midnightblue" d="M719.54,-58.66C724.42,-57.71 729.3,-56.81 734,-56 825.73,-40.17 932.52,-26.54 999.69,-18.55"/>
<polygon fill="midnightblue" stroke="midnightblue" points="1000.19,-22.02 1009.71,-17.37 999.37,-15.07 1000.19,-22.02"/>
</g>
<!-- Node42 -->
<g id="node42" class="node">
<title>Node42</title>
<g id="a_node42"><a xlink:href="spec_2reassembly_8h.html" target="_top" xlink:title=" ">
<polygon fill="white" stroke="black" points="1341,-297 1341,-316 1487,-316 1487,-297 1341,-297"/>
<text text-anchor="middle" x="1414" y="-304" font-family="Helvetica,sans-Serif" font-size="10.00">odp/api/spec/reassembly.h</text>
</a>
</g>
</g>
<!-- Node41&#45;&gt;Node42 -->
<g id="edge73" class="edge">
<title>Node41&#45;&gt;Node42</title>
<path fill="none" stroke="midnightblue" d="M1307.95,-839.48C1321.69,-821.75 1351,-779.12 1351,-738 1351,-738 1351,-738 1351,-439.5 1351,-394.24 1381.54,-348.02 1400.09,-324.11"/>
<polygon fill="midnightblue" stroke="midnightblue" points="1403,-326.08 1406.53,-316.09 1397.54,-321.7 1403,-326.08"/>
</g>
<!-- Node42&#45;&gt;Node4 -->
<g id="edge74" class="edge">
<title>Node42&#45;&gt;Node4</title>
<path fill="none" stroke="midnightblue" d="M1405.34,-296.74C1378.95,-270.29 1299.31,-192.19 1266,-179 1107.56,-116.25 666.7,-178.34 500,-143 432.82,-128.76 416.59,-119.31 356,-87 322.34,-69.05 286.68,-42.57 265.65,-26.08"/>
<polygon fill="midnightblue" stroke="midnightblue" points="267.59,-23.15 257.58,-19.68 263.24,-28.64 267.59,-23.15"/>
</g>
<!-- Node42&#45;&gt;Node10 -->
<g id="edge76" class="edge">
<title>Node42&#45;&gt;Node10</title>
<path fill="none" stroke="midnightblue" d="M1423.04,-296.87C1440.9,-278.84 1479,-235.1 1479,-190 1479,-190 1479,-190 1479,-132 1479,-82.63 1442.58,-77.21 1398,-56 1352.31,-34.26 1215.36,-21.28 1132.31,-15.2"/>
<polygon fill="midnightblue" stroke="midnightblue" points="1132.44,-11.7 1122.21,-14.48 1131.94,-18.68 1132.44,-11.7"/>
</g>
<!-- Node42&#45;&gt;Node17 -->
<g id="edge75" class="edge">
<title>Node42&#45;&gt;Node17</title>
<path fill="none" stroke="midnightblue" d="M1382.19,-296.98C1343.12,-286.5 1276.74,-268.71 1233.64,-257.16"/>
<polygon fill="midnightblue" stroke="midnightblue" points="1234.31,-253.72 1223.75,-254.51 1232.5,-260.48 1234.31,-253.72"/>
</g>
</g>
</svg>
