<?xml version="1.0" encoding="UTF-8" standalone="no"?>
<!DOCTYPE svg PUBLIC "-//W3C//DTD SVG 1.1//EN"
 "http://www.w3.org/Graphics/SVG/1.1/DTD/svg11.dtd">
<!-- Generated by graphviz version 2.43.0 (0)
 -->
<!-- Title: timer_types.h Pages: 1 -->
<svg width="707pt" height="386pt"
 viewBox="0.00 0.00 706.65 386.00" xmlns="http://www.w3.org/2000/svg" xmlns:xlink="http://www.w3.org/1999/xlink">
<g id="graph0" class="graph" transform="scale(1 1) rotate(0) translate(4 382)">
<title>timer_types.h</title>
<polygon fill="white" stroke="transparent" points="-4,4 -4,-382 702.65,-382 702.65,4 -4,4"/>
<!-- Node1 -->
<g id="node1" class="node">
<title>Node1</title>
<g id="a_node1"><a xlink:title=" ">
<polygon fill="#bfbfbf" stroke="black" points="284.65,-358.5 284.65,-377.5 368.65,-377.5 368.65,-358.5 284.65,-358.5"/>
<text text-anchor="middle" x="326.65" y="-365.5" font-family="Helvetica,sans-Serif" font-size="10.00">timer_types.h</text>
</a>
</g>
</g>
<!-- Node2 -->
<g id="node2" class="node">
<title>Node2</title>
<g id="a_node2"><a xlink:title=" ">
<polygon fill="white" stroke="#bfbfbf" points="185.15,-297 185.15,-316 326.15,-316 326.15,-297 185.15,-297"/>
<text text-anchor="middle" x="255.65" y="-304" font-family="Helvetica,sans-Serif" font-size="10.00">odp/api/abi/timer_types.h</text>
</a>
</g>
</g>
<!-- Node1&#45;&gt;Node2 -->
<g id="edge1" class="edge">
<title>Node1&#45;&gt;Node2</title>
<path fill="none" stroke="midnightblue" d="M316.48,-358.48C305.3,-349.11 287.14,-333.88 273.56,-322.51"/>
<polygon fill="midnightblue" stroke="midnightblue" points="275.72,-319.75 265.81,-316.01 271.22,-325.11 275.72,-319.75"/>
</g>
<!-- Node3 -->
<g id="node3" class="node">
<title>Node3</title>
<g id="a_node3"><a xlink:href="api_2spec_2timer__types_8h.html" target="_top" xlink:title=" ">
<polygon fill="white" stroke="black" points="344.15,-291.5 344.15,-321.5 451.15,-321.5 451.15,-291.5 344.15,-291.5"/>
<text text-anchor="start" x="352.15" y="-309.5" font-family="Helvetica,sans-Serif" font-size="10.00">odp/api/spec/timer</text>
<text text-anchor="middle" x="397.65" y="-298.5" font-family="Helvetica,sans-Serif" font-size="10.00">_types.h</text>
</a>
</g>
</g>
<!-- Node1&#45;&gt;Node3 -->
<g id="edge2" class="edge">
<title>Node1&#45;&gt;Node3</title>
<path fill="none" stroke="midnightblue" d="M336.83,-358.48C346.26,-350.57 360.68,-338.48 373.11,-328.07"/>
<polygon fill="midnightblue" stroke="midnightblue" points="375.5,-330.63 380.92,-321.52 371.01,-325.26 375.5,-330.63"/>
</g>
<!-- Node4 -->
<g id="node4" class="node">
<title>Node4</title>
<g id="a_node4"><a xlink:href="visibility__begin_8h_source.html" target="_top" xlink:title=" ">
<polygon fill="white" stroke="black" points="235.15,-0.5 235.15,-19.5 356.15,-19.5 356.15,-0.5 235.15,-0.5"/>
<text text-anchor="middle" x="295.65" y="-7.5" font-family="Helvetica,sans-Serif" font-size="10.00">odp/visibility_begin.h</text>
</a>
</g>
</g>
<!-- Node3&#45;&gt;Node4 -->
<g id="edge3" class="edge">
<title>Node3&#45;&gt;Node4</title>
<path fill="none" stroke="midnightblue" d="M343.84,-292.63C235.56,-266.38 1.65,-207.61 1.65,-190 1.65,-190 1.65,-190 1.65,-132 1.65,-97.18 -4.96,-79.58 20.65,-56 49.66,-29.3 153.2,-18.36 224.61,-13.93"/>
<polygon fill="midnightblue" stroke="midnightblue" points="225.12,-17.41 234.9,-13.32 224.71,-10.42 225.12,-17.41"/>
</g>
<!-- Node5 -->
<g id="node5" class="node">
<title>Node5</title>
<g id="a_node5"><a xlink:href="api_2std__types_8h.html" target="_top" xlink:title=" ">
<polygon fill="white" stroke="black" points="395.65,-235.5 395.65,-254.5 507.65,-254.5 507.65,-235.5 395.65,-235.5"/>
<text text-anchor="middle" x="451.65" y="-242.5" font-family="Helvetica,sans-Serif" font-size="10.00">odp/api/std_types.h</text>
</a>
</g>
</g>
<!-- Node3&#45;&gt;Node5 -->
<g id="edge4" class="edge">
<title>Node3&#45;&gt;Node5</title>
<path fill="none" stroke="midnightblue" d="M410.45,-291.4C418.38,-282.66 428.59,-271.41 436.86,-262.3"/>
<polygon fill="midnightblue" stroke="midnightblue" points="439.67,-264.42 443.8,-254.66 434.48,-259.71 439.67,-264.42"/>
</g>
<!-- Node12 -->
<g id="node12" class="node">
<title>Node12</title>
<g id="a_node12"><a xlink:href="visibility__end_8h_source.html" target="_top" xlink:title=" ">
<polygon fill="white" stroke="black" points="390.65,-0.5 390.65,-19.5 502.65,-19.5 502.65,-0.5 390.65,-0.5"/>
<text text-anchor="middle" x="446.65" y="-7.5" font-family="Helvetica,sans-Serif" font-size="10.00">odp/visibility_end.h</text>
</a>
</g>
</g>
<!-- Node3&#45;&gt;Node12 -->
<g id="edge20" class="edge">
<title>Node3&#45;&gt;Node12</title>
<path fill="none" stroke="midnightblue" d="M451.47,-296.26C538.05,-279.84 698.65,-242.33 698.65,-190 698.65,-190 698.65,-190 698.65,-132 698.65,-49.61 587.83,-23.28 513.17,-14.89"/>
<polygon fill="midnightblue" stroke="midnightblue" points="513.2,-11.38 502.89,-13.82 512.48,-18.34 513.2,-11.38"/>
</g>
<!-- Node13 -->
<g id="node13" class="node">
<title>Node13</title>
<g id="a_node13"><a xlink:href="api_2event__types_8h.html" target="_top" xlink:title=" ">
<polygon fill="white" stroke="black" points="175.15,-123.5 175.15,-142.5 300.15,-142.5 300.15,-123.5 175.15,-123.5"/>
<text text-anchor="middle" x="237.65" y="-130.5" font-family="Helvetica,sans-Serif" font-size="10.00">odp/api/event_types.h</text>
</a>
</g>
</g>
<!-- Node3&#45;&gt;Node13 -->
<g id="edge15" class="edge">
<title>Node3&#45;&gt;Node13</title>
<path fill="none" stroke="midnightblue" d="M384.56,-291.47C355.11,-259.9 283.81,-183.47 252.65,-150.07"/>
<polygon fill="midnightblue" stroke="midnightblue" points="255.02,-147.48 245.64,-142.56 249.9,-152.26 255.02,-147.48"/>
</g>
<!-- Node6 -->
<g id="node6" class="node">
<title>Node6</title>
<g id="a_node6"><a xlink:title=" ">
<polygon fill="white" stroke="#bfbfbf" points="538.65,-179.5 538.65,-198.5 668.65,-198.5 668.65,-179.5 538.65,-179.5"/>
<text text-anchor="middle" x="603.65" y="-186.5" font-family="Helvetica,sans-Serif" font-size="10.00">odp/api/abi/std_types.h</text>
</a>
</g>
</g>
<!-- Node5&#45;&gt;Node6 -->
<g id="edge5" class="edge">
<title>Node5&#45;&gt;Node6</title>
<path fill="none" stroke="midnightblue" d="M475.74,-235.44C501.2,-226.4 541.55,-212.06 570.11,-201.92"/>
<polygon fill="midnightblue" stroke="midnightblue" points="571.43,-205.16 579.68,-198.52 569.09,-198.57 571.43,-205.16"/>
</g>
<!-- Node7 -->
<g id="node7" class="node">
<title>Node7</title>
<g id="a_node7"><a xlink:href="api_2spec_2std__types_8h.html" target="_top" xlink:title=" ">
<polygon fill="white" stroke="black" points="383.15,-179.5 383.15,-198.5 520.15,-198.5 520.15,-179.5 383.15,-179.5"/>
<text text-anchor="middle" x="451.65" y="-186.5" font-family="Helvetica,sans-Serif" font-size="10.00">odp/api/spec/std_types.h</text>
</a>
</g>
</g>
<!-- Node5&#45;&gt;Node7 -->
<g id="edge6" class="edge">
<title>Node5&#45;&gt;Node7</title>
<path fill="none" stroke="midnightblue" d="M451.65,-235.08C451.65,-228.01 451.65,-217.86 451.65,-208.99"/>
<polygon fill="midnightblue" stroke="midnightblue" points="455.15,-208.75 451.65,-198.75 448.15,-208.75 455.15,-208.75"/>
</g>
<!-- Node7&#45;&gt;Node4 -->
<g id="edge7" class="edge">
<title>Node7&#45;&gt;Node4</title>
<path fill="none" stroke="midnightblue" d="M440.75,-179.42C429.78,-170.64 412.55,-156.42 398.65,-143 374.44,-119.61 368.54,-113.4 347.65,-87 332.37,-67.69 316.66,-44.1 306.56,-28.38"/>
<polygon fill="midnightblue" stroke="midnightblue" points="309.37,-26.27 301.05,-19.71 303.46,-30.03 309.37,-26.27"/>
</g>
<!-- Node8 -->
<g id="node8" class="node">
<title>Node8</title>
<g id="a_node8"><a xlink:title=" ">
<polygon fill="white" stroke="#bfbfbf" points="617.15,-123.5 617.15,-142.5 670.15,-142.5 670.15,-123.5 617.15,-123.5"/>
<text text-anchor="middle" x="643.65" y="-130.5" font-family="Helvetica,sans-Serif" font-size="10.00">stdint.h</text>
</a>
</g>
</g>
<!-- Node7&#45;&gt;Node8 -->
<g id="edge8" class="edge">
<title>Node7&#45;&gt;Node8</title>
<path fill="none" stroke="midnightblue" d="M482.08,-179.44C516.1,-169.87 571.17,-154.39 607.4,-144.2"/>
<polygon fill="midnightblue" stroke="midnightblue" points="608.4,-147.55 617.08,-141.47 606.51,-140.81 608.4,-147.55"/>
</g>
<!-- Node9 -->
<g id="node9" class="node">
<title>Node9</title>
<g id="a_node9"><a xlink:href="api_2align_8h.html" target="_top" xlink:title=" ">
<polygon fill="white" stroke="black" points="407.15,-123.5 407.15,-142.5 496.15,-142.5 496.15,-123.5 407.15,-123.5"/>
<text text-anchor="middle" x="451.65" y="-130.5" font-family="Helvetica,sans-Serif" font-size="10.00">odp/api/align.h</text>
</a>
</g>
</g>
<!-- Node7&#45;&gt;Node9 -->
<g id="edge9" class="edge">
<title>Node7&#45;&gt;Node9</title>
<path fill="none" stroke="midnightblue" d="M451.65,-179.08C451.65,-172.01 451.65,-161.86 451.65,-152.99"/>
<polygon fill="midnightblue" stroke="midnightblue" points="455.15,-152.75 451.65,-142.75 448.15,-152.75 455.15,-152.75"/>
</g>
<!-- Node7&#45;&gt;Node12 -->
<g id="edge14" class="edge">
<title>Node7&#45;&gt;Node12</title>
<path fill="none" stroke="midnightblue" d="M477.85,-179.45C532,-160.41 647.82,-111.75 605.65,-56 594.06,-40.67 551.02,-29.05 512.65,-21.47"/>
<polygon fill="midnightblue" stroke="midnightblue" points="512.98,-17.97 502.5,-19.53 511.67,-24.85 512.98,-17.97"/>
</g>
<!-- Node10 -->
<g id="node10" class="node">
<title>Node10</title>
<g id="a_node10"><a xlink:title=" ">
<polygon fill="white" stroke="#bfbfbf" points="489.15,-62 489.15,-81 596.15,-81 596.15,-62 489.15,-62"/>
<text text-anchor="middle" x="542.65" y="-69" font-family="Helvetica,sans-Serif" font-size="10.00">odp/api/abi/align.h</text>
</a>
</g>
</g>
<!-- Node9&#45;&gt;Node10 -->
<g id="edge10" class="edge">
<title>Node9&#45;&gt;Node10</title>
<path fill="none" stroke="midnightblue" d="M464.69,-123.48C479.42,-113.84 503.63,-98.02 521.16,-86.55"/>
<polygon fill="midnightblue" stroke="midnightblue" points="523.19,-89.41 529.64,-81.01 519.36,-83.55 523.19,-89.41"/>
</g>
<!-- Node11 -->
<g id="node11" class="node">
<title>Node11</title>
<g id="a_node11"><a xlink:href="api_2spec_2align_8h.html" target="_top" xlink:title=" ">
<polygon fill="white" stroke="black" points="356.65,-62 356.65,-81 470.65,-81 470.65,-62 356.65,-62"/>
<text text-anchor="middle" x="413.65" y="-69" font-family="Helvetica,sans-Serif" font-size="10.00">odp/api/spec/align.h</text>
</a>
</g>
</g>
<!-- Node9&#45;&gt;Node11 -->
<g id="edge11" class="edge">
<title>Node9&#45;&gt;Node11</title>
<path fill="none" stroke="midnightblue" d="M446.21,-123.48C440.57,-114.64 431.59,-100.59 424.5,-89.48"/>
<polygon fill="midnightblue" stroke="midnightblue" points="427.42,-87.55 419.09,-81.01 421.52,-91.32 427.42,-87.55"/>
</g>
<!-- Node11&#45;&gt;Node4 -->
<g id="edge12" class="edge">
<title>Node11&#45;&gt;Node4</title>
<path fill="none" stroke="midnightblue" d="M396.75,-61.98C377.12,-52.08 344.52,-35.64 321.66,-24.12"/>
<polygon fill="midnightblue" stroke="midnightblue" points="323.03,-20.89 312.53,-19.51 319.88,-27.14 323.03,-20.89"/>
</g>
<!-- Node11&#45;&gt;Node12 -->
<g id="edge13" class="edge">
<title>Node11&#45;&gt;Node12</title>
<path fill="none" stroke="midnightblue" d="M418.38,-61.98C423.23,-53.23 430.92,-39.37 437.05,-28.31"/>
<polygon fill="midnightblue" stroke="midnightblue" points="440.15,-29.95 441.93,-19.51 434.02,-26.56 440.15,-29.95"/>
</g>
<!-- Node14 -->
<g id="node14" class="node">
<title>Node14</title>
<g id="a_node14"><a xlink:title=" ">
<polygon fill="white" stroke="#bfbfbf" points="30.15,-62 30.15,-81 173.15,-81 173.15,-62 30.15,-62"/>
<text text-anchor="middle" x="101.65" y="-69" font-family="Helvetica,sans-Serif" font-size="10.00">odp/api/abi/event_types.h</text>
</a>
</g>
</g>
<!-- Node13&#45;&gt;Node14 -->
<g id="edge16" class="edge">
<title>Node13&#45;&gt;Node14</title>
<path fill="none" stroke="midnightblue" d="M218.17,-123.48C195.24,-113.45 156.97,-96.7 130.58,-85.15"/>
<polygon fill="midnightblue" stroke="midnightblue" points="131.67,-81.81 121.1,-81.01 128.86,-88.22 131.67,-81.81"/>
</g>
<!-- Node15 -->
<g id="node15" class="node">
<title>Node15</title>
<g id="a_node15"><a xlink:href="api_2spec_2event__types_8h.html" target="_top" xlink:title=" ">
<polygon fill="white" stroke="black" points="191.15,-56.5 191.15,-86.5 300.15,-86.5 300.15,-56.5 191.15,-56.5"/>
<text text-anchor="start" x="199.15" y="-74.5" font-family="Helvetica,sans-Serif" font-size="10.00">odp/api/spec/event</text>
<text text-anchor="middle" x="245.65" y="-63.5" font-family="Helvetica,sans-Serif" font-size="10.00">_types.h</text>
</a>
</g>
</g>
<!-- Node13&#45;&gt;Node15 -->
<g id="edge17" class="edge">
<title>Node13&#45;&gt;Node15</title>
<path fill="none" stroke="midnightblue" d="M238.8,-123.48C239.74,-116.47 241.12,-106.19 242.4,-96.7"/>
<polygon fill="midnightblue" stroke="midnightblue" points="245.91,-96.9 243.77,-86.52 238.97,-95.97 245.91,-96.9"/>
</g>
<!-- Node15&#45;&gt;Node4 -->
<g id="edge18" class="edge">
<title>Node15&#45;&gt;Node4</title>
<path fill="none" stroke="midnightblue" d="M257.5,-56.4C264.77,-47.75 274.11,-36.64 281.72,-27.58"/>
<polygon fill="midnightblue" stroke="midnightblue" points="284.62,-29.57 288.38,-19.66 279.27,-25.06 284.62,-29.57"/>
</g>
<!-- Node15&#45;&gt;Node12 -->
<g id="edge19" class="edge">
<title>Node15&#45;&gt;Node12</title>
<path fill="none" stroke="midnightblue" d="M293.03,-56.47C328.16,-46.08 375.45,-32.08 408.24,-22.37"/>
<polygon fill="midnightblue" stroke="midnightblue" points="409.32,-25.7 417.92,-19.51 407.34,-18.99 409.32,-25.7"/>
</g>
</g>
</svg>
