<?xml version="1.0" encoding="UTF-8" standalone="no"?>
<!DOCTYPE svg PUBLIC "-//W3C//DTD SVG 1.1//EN"
 "http://www.w3.org/Graphics/SVG/1.1/DTD/svg11.dtd">
<!-- Generated by graphviz version 2.43.0 (0)
 -->
<!-- Title: traffic_mngr.h Pages: 1 -->
<svg width="602pt" height="308pt"
 viewBox="0.00 0.00 602.00 308.00" xmlns="http://www.w3.org/2000/svg" xmlns:xlink="http://www.w3.org/1999/xlink">
<g id="graph0" class="graph" transform="scale(1 1) rotate(0) translate(4 304)">
<title>traffic_mngr.h</title>
<polygon fill="white" stroke="transparent" points="-4,4 -4,-304 598,-304 598,4 -4,4"/>
<!-- Node1 -->
<g id="node1" class="node">
<title>Node1</title>
<g id="a_node1"><a xlink:title=" ">
<polygon fill="#bfbfbf" stroke="black" points="255,-280.5 255,-299.5 339,-299.5 339,-280.5 255,-280.5"/>
<text text-anchor="middle" x="297" y="-287.5" font-family="Helvetica,sans-Serif" font-size="10.00">traffic_mngr.h</text>
</a>
</g>
</g>
<!-- Node2 -->
<g id="node2" class="node">
<title>Node2</title>
<g id="a_node2"><a xlink:href="arch_2arm32-linux_2odp_2api_2abi_2traffic__mngr_8h_source.html" target="_top" xlink:title=" ">
<polygon fill="white" stroke="black" points="0,-224.5 0,-243.5 84,-243.5 84,-224.5 0,-224.5"/>
<text text-anchor="middle" x="42" y="-231.5" font-family="Helvetica,sans-Serif" font-size="10.00">traffic_mngr.h</text>
</a>
</g>
</g>
<!-- Node1&#45;&gt;Node2 -->
<g id="edge1" class="edge">
<title>Node1&#45;&gt;Node2</title>
<path fill="none" stroke="midnightblue" d="M246.69,-278.35C198.5,-268.14 126.72,-252.94 82.22,-243.52"/>
<polygon fill="midnightblue" stroke="midnightblue" points="246.09,-281.8 256.59,-280.44 247.54,-274.95 246.09,-281.8"/>
</g>
<!-- Node3 -->
<g id="node3" class="node">
<title>Node3</title>
<g id="a_node3"><a xlink:href="arch_2arm64-linux_2odp_2api_2abi_2traffic__mngr_8h_source.html" target="_top" xlink:title=" ">
<polygon fill="white" stroke="black" points="102,-224.5 102,-243.5 186,-243.5 186,-224.5 102,-224.5"/>
<text text-anchor="middle" x="144" y="-231.5" font-family="Helvetica,sans-Serif" font-size="10.00">traffic_mngr.h</text>
</a>
</g>
</g>
<!-- Node1&#45;&gt;Node3 -->
<g id="edge2" class="edge">
<title>Node1&#45;&gt;Node3</title>
<path fill="none" stroke="midnightblue" d="M263.11,-277.04C234.32,-266.88 193.71,-252.55 168.13,-243.52"/>
<polygon fill="midnightblue" stroke="midnightblue" points="262.16,-280.42 272.76,-280.44 264.49,-273.81 262.16,-280.42"/>
</g>
<!-- Node4 -->
<g id="node4" class="node">
<title>Node4</title>
<g id="a_node4"><a xlink:href="arch_2default-linux_2odp_2api_2abi_2traffic__mngr_8h_source.html" target="_top" xlink:title=" ">
<polygon fill="white" stroke="black" points="204,-224.5 204,-243.5 288,-243.5 288,-224.5 204,-224.5"/>
<text text-anchor="middle" x="246" y="-231.5" font-family="Helvetica,sans-Serif" font-size="10.00">traffic_mngr.h</text>
</a>
</g>
</g>
<!-- Node1&#45;&gt;Node4 -->
<g id="edge3" class="edge">
<title>Node1&#45;&gt;Node4</title>
<path fill="none" stroke="midnightblue" d="M281.62,-272.72C272.63,-263.2 261.64,-251.56 254.26,-243.75"/>
<polygon fill="midnightblue" stroke="midnightblue" points="279.17,-275.22 288.58,-280.08 284.26,-270.41 279.17,-275.22"/>
</g>
<!-- Node5 -->
<g id="node5" class="node">
<title>Node5</title>
<g id="a_node5"><a xlink:href="arch_2power64-linux_2odp_2api_2abi_2traffic__mngr_8h_source.html" target="_top" xlink:title=" ">
<polygon fill="white" stroke="black" points="306,-224.5 306,-243.5 390,-243.5 390,-224.5 306,-224.5"/>
<text text-anchor="middle" x="348" y="-231.5" font-family="Helvetica,sans-Serif" font-size="10.00">traffic_mngr.h</text>
</a>
</g>
</g>
<!-- Node1&#45;&gt;Node5 -->
<g id="edge4" class="edge">
<title>Node1&#45;&gt;Node5</title>
<path fill="none" stroke="midnightblue" d="M312.38,-272.72C321.37,-263.2 332.36,-251.56 339.74,-243.75"/>
<polygon fill="midnightblue" stroke="midnightblue" points="309.74,-270.41 305.42,-280.08 314.83,-275.22 309.74,-270.41"/>
</g>
<!-- Node6 -->
<g id="node6" class="node">
<title>Node6</title>
<g id="a_node6"><a xlink:href="arch_2x86__32-linux_2odp_2api_2abi_2traffic__mngr_8h_source.html" target="_top" xlink:title=" ">
<polygon fill="white" stroke="black" points="408,-224.5 408,-243.5 492,-243.5 492,-224.5 408,-224.5"/>
<text text-anchor="middle" x="450" y="-231.5" font-family="Helvetica,sans-Serif" font-size="10.00">traffic_mngr.h</text>
</a>
</g>
</g>
<!-- Node1&#45;&gt;Node6 -->
<g id="edge5" class="edge">
<title>Node1&#45;&gt;Node6</title>
<path fill="none" stroke="midnightblue" d="M330.89,-277.04C359.68,-266.88 400.29,-252.55 425.87,-243.52"/>
<polygon fill="midnightblue" stroke="midnightblue" points="329.51,-273.81 321.24,-280.44 331.84,-280.42 329.51,-273.81"/>
</g>
<!-- Node7 -->
<g id="node7" class="node">
<title>Node7</title>
<g id="a_node7"><a xlink:href="arch_2x86__64-linux_2odp_2api_2abi_2traffic__mngr_8h_source.html" target="_top" xlink:title=" ">
<polygon fill="white" stroke="black" points="510,-224.5 510,-243.5 594,-243.5 594,-224.5 510,-224.5"/>
<text text-anchor="middle" x="552" y="-231.5" font-family="Helvetica,sans-Serif" font-size="10.00">traffic_mngr.h</text>
</a>
</g>
</g>
<!-- Node1&#45;&gt;Node7 -->
<g id="edge6" class="edge">
<title>Node1&#45;&gt;Node7</title>
<path fill="none" stroke="midnightblue" d="M347.31,-278.35C395.5,-268.14 467.28,-252.94 511.78,-243.52"/>
<polygon fill="midnightblue" stroke="midnightblue" points="346.46,-274.95 337.41,-280.44 347.91,-281.8 346.46,-274.95"/>
</g>
<!-- Node8 -->
<g id="node8" class="node">
<title>Node8</title>
<g id="a_node8"><a xlink:href="api_2traffic__mngr_8h.html" target="_top" xlink:title=" ">
<polygon fill="white" stroke="black" points="510,-168.5 510,-187.5 594,-187.5 594,-168.5 510,-168.5"/>
<text text-anchor="middle" x="552" y="-175.5" font-family="Helvetica,sans-Serif" font-size="10.00">traffic_mngr.h</text>
</a>
</g>
</g>
<!-- Node7&#45;&gt;Node8 -->
<g id="edge7" class="edge">
<title>Node7&#45;&gt;Node8</title>
<path fill="none" stroke="midnightblue" d="M552,-213.8C552,-204.91 552,-194.78 552,-187.75"/>
<polygon fill="midnightblue" stroke="midnightblue" points="548.5,-214.08 552,-224.08 555.5,-214.08 548.5,-214.08"/>
</g>
<!-- Node9 -->
<g id="node9" class="node">
<title>Node9</title>
<g id="a_node9"><a xlink:href="api_2spec_2ipsec_8h.html" target="_top" xlink:title=" ">
<polygon fill="white" stroke="black" points="499.5,-112.5 499.5,-131.5 550.5,-131.5 550.5,-112.5 499.5,-112.5"/>
<text text-anchor="middle" x="525" y="-119.5" font-family="Helvetica,sans-Serif" font-size="10.00">ipsec.h</text>
</a>
</g>
</g>
<!-- Node8&#45;&gt;Node9 -->
<g id="edge8" class="edge">
<title>Node8&#45;&gt;Node9</title>
<path fill="none" stroke="midnightblue" d="M542.99,-158.98C538.41,-149.82 533.05,-139.09 529.38,-131.75"/>
<polygon fill="midnightblue" stroke="midnightblue" points="539.94,-160.7 547.54,-168.08 546.2,-157.57 539.94,-160.7"/>
</g>
<!-- Node11 -->
<g id="node11" class="node">
<title>Node11</title>
<g id="a_node11"><a xlink:href="odp__api_8h.html" target="_top" xlink:title=" ">
<polygon fill="white" stroke="black" points="520,-0.5 520,-19.5 584,-19.5 584,-0.5 520,-0.5"/>
<text text-anchor="middle" x="552" y="-7.5" font-family="Helvetica,sans-Serif" font-size="10.00">odp_api.h</text>
</a>
</g>
</g>
<!-- Node8&#45;&gt;Node11 -->
<g id="edge11" class="edge">
<title>Node8&#45;&gt;Node11</title>
<path fill="none" stroke="midnightblue" d="M556.03,-158.57C557.61,-150.46 559.22,-140.8 560,-132 562.97,-98.35 562.97,-89.65 560,-56 558.87,-43.2 555.97,-28.58 553.99,-19.57"/>
<polygon fill="midnightblue" stroke="midnightblue" points="552.59,-157.93 553.99,-168.43 559.44,-159.35 552.59,-157.93"/>
</g>
<!-- Node10 -->
<g id="node10" class="node">
<title>Node10</title>
<g id="a_node10"><a xlink:href="api_2ipsec_8h.html" target="_top" xlink:title=" ">
<polygon fill="white" stroke="black" points="499.5,-56.5 499.5,-75.5 550.5,-75.5 550.5,-56.5 499.5,-56.5"/>
<text text-anchor="middle" x="525" y="-63.5" font-family="Helvetica,sans-Serif" font-size="10.00">ipsec.h</text>
</a>
</g>
</g>
<!-- Node9&#45;&gt;Node10 -->
<g id="edge9" class="edge">
<title>Node9&#45;&gt;Node10</title>
<path fill="none" stroke="midnightblue" d="M525,-101.8C525,-92.91 525,-82.78 525,-75.75"/>
<polygon fill="midnightblue" stroke="midnightblue" points="521.5,-102.08 525,-112.08 528.5,-102.08 521.5,-102.08"/>
</g>
<!-- Node10&#45;&gt;Node11 -->
<g id="edge10" class="edge">
<title>Node10&#45;&gt;Node11</title>
<path fill="none" stroke="midnightblue" d="M534.01,-46.98C538.59,-37.82 543.95,-27.09 547.62,-19.75"/>
<polygon fill="midnightblue" stroke="midnightblue" points="530.8,-45.57 529.46,-56.08 537.06,-48.7 530.8,-45.57"/>
</g>
</g>
</svg>
