<?xml version="1.0" encoding="UTF-8" standalone="no"?>
<!DOCTYPE svg PUBLIC "-//W3C//DTD SVG 1.1//EN"
 "http://www.w3.org/Graphics/SVG/1.1/DTD/svg11.dtd">
<!-- Generated by graphviz version 2.43.0 (0)
 -->
<!-- Title: queue_types.h Pages: 1 -->
<svg width="990pt" height="756pt"
 viewBox="0.00 0.00 989.50 756.00" xmlns="http://www.w3.org/2000/svg" xmlns:xlink="http://www.w3.org/1999/xlink">
<g id="graph0" class="graph" transform="scale(1 1) rotate(0) translate(4 752)">
<title>queue_types.h</title>
<polygon fill="white" stroke="transparent" points="-4,4 -4,-752 985.5,-752 985.5,4 -4,4"/>
<!-- Node1 -->
<g id="node1" class="node">
<title>Node1</title>
<g id="a_node1"><a xlink:title=" ">
<polygon fill="#bfbfbf" stroke="black" points="489.5,-728.5 489.5,-747.5 577.5,-747.5 577.5,-728.5 489.5,-728.5"/>
<text text-anchor="middle" x="533.5" y="-735.5" font-family="Helvetica,sans-Serif" font-size="10.00">queue_types.h</text>
</a>
</g>
</g>
<!-- Node2 -->
<g id="node2" class="node">
<title>Node2</title>
<g id="a_node2"><a xlink:href="api_2spec_2comp_8h.html" target="_top" xlink:title=" ">
<polygon fill="white" stroke="black" points="0,-560.5 0,-579.5 53,-579.5 53,-560.5 0,-560.5"/>
<text text-anchor="middle" x="26.5" y="-567.5" font-family="Helvetica,sans-Serif" font-size="10.00">comp.h</text>
</a>
</g>
</g>
<!-- Node1&#45;&gt;Node2 -->
<g id="edge1" class="edge">
<title>Node1&#45;&gt;Node2</title>
<path fill="none" stroke="midnightblue" d="M479.18,-735.04C363.18,-730.38 99.19,-717.12 67.5,-692 31.69,-663.62 26.96,-602.56 26.48,-579.8"/>
<polygon fill="midnightblue" stroke="midnightblue" points="479.14,-738.54 489.27,-735.43 479.42,-731.54 479.14,-738.54"/>
</g>
<!-- Node5 -->
<g id="node5" class="node">
<title>Node5</title>
<g id="a_node5"><a xlink:href="api_2spec_2dma__types_8h.html" target="_top" xlink:title=" ">
<polygon fill="white" stroke="black" points="561.5,-560.5 561.5,-579.5 641.5,-579.5 641.5,-560.5 561.5,-560.5"/>
<text text-anchor="middle" x="601.5" y="-567.5" font-family="Helvetica,sans-Serif" font-size="10.00">dma_types.h</text>
</a>
</g>
</g>
<!-- Node1&#45;&gt;Node5 -->
<g id="edge4" class="edge">
<title>Node1&#45;&gt;Node5</title>
<path fill="none" stroke="midnightblue" d="M541.12,-718.39C555.79,-682.59 587.43,-605.34 597.99,-579.57"/>
<polygon fill="midnightblue" stroke="midnightblue" points="537.71,-717.49 537.16,-728.08 544.19,-720.15 537.71,-717.49"/>
</g>
<!-- Node17 -->
<g id="node17" class="node">
<title>Node17</title>
<g id="a_node17"><a xlink:href="api_2spec_2packet__io_8h.html" target="_top" xlink:title=" ">
<polygon fill="white" stroke="black" points="203.5,-112.5 203.5,-131.5 275.5,-131.5 275.5,-112.5 203.5,-112.5"/>
<text text-anchor="middle" x="239.5" y="-119.5" font-family="Helvetica,sans-Serif" font-size="10.00">packet_io.h</text>
</a>
</g>
</g>
<!-- Node1&#45;&gt;Node17 -->
<g id="edge47" class="edge">
<title>Node1&#45;&gt;Node17</title>
<path fill="none" stroke="midnightblue" d="M479.25,-735.16C359.18,-729.61 81.5,-708.03 81.5,-627 81.5,-627 81.5,-627 81.5,-289 81.5,-209.03 178.9,-152.3 220.75,-131.62"/>
<polygon fill="midnightblue" stroke="midnightblue" points="479.19,-738.66 489.34,-735.61 479.5,-731.67 479.19,-738.66"/>
</g>
<!-- Node23 -->
<g id="node23" class="node">
<title>Node23</title>
<g id="a_node23"><a xlink:href="api_2spec_2packet__io__types_8h.html" target="_top" xlink:title=" ">
<polygon fill="white" stroke="black" points="352.5,-336.5 352.5,-355.5 456.5,-355.5 456.5,-336.5 352.5,-336.5"/>
<text text-anchor="middle" x="404.5" y="-343.5" font-family="Helvetica,sans-Serif" font-size="10.00">packet_io_types.h</text>
</a>
</g>
</g>
<!-- Node1&#45;&gt;Node23 -->
<g id="edge52" class="edge">
<title>Node1&#45;&gt;Node23</title>
<path fill="none" stroke="midnightblue" d="M533.5,-718.25C533.5,-696.36 533.5,-659.05 533.5,-627 533.5,-627 533.5,-627 533.5,-513 533.5,-438.54 451.58,-377.34 418.31,-355.55"/>
<polygon fill="midnightblue" stroke="midnightblue" points="530,-718.44 533.5,-728.44 537,-718.44 530,-718.44"/>
</g>
<!-- Node29 -->
<g id="node29" class="node">
<title>Node29</title>
<g id="a_node29"><a xlink:href="api_2spec_2timer_8h.html" target="_top" xlink:title=" ">
<polygon fill="white" stroke="black" points="864,-336.5 864,-355.5 915,-355.5 915,-336.5 864,-336.5"/>
<text text-anchor="middle" x="889.5" y="-343.5" font-family="Helvetica,sans-Serif" font-size="10.00">timer.h</text>
</a>
</g>
</g>
<!-- Node1&#45;&gt;Node29 -->
<g id="edge73" class="edge">
<title>Node1&#45;&gt;Node29</title>
<path fill="none" stroke="midnightblue" d="M587.66,-732.9C652.22,-724.72 751.5,-700.24 751.5,-627 751.5,-627 751.5,-627 751.5,-457 751.5,-400.17 823.96,-367.94 863.87,-354.5"/>
<polygon fill="midnightblue" stroke="midnightblue" points="587.14,-729.44 577.62,-734.08 587.96,-736.39 587.14,-729.44"/>
</g>
<!-- Node31 -->
<g id="node31" class="node">
<title>Node31</title>
<g id="a_node31"><a xlink:href="spec_2packet__io__stats_8h.html" target="_top" xlink:title=" ">
<polygon fill="white" stroke="black" points="183,-616.5 183,-635.5 284,-635.5 284,-616.5 183,-616.5"/>
<text text-anchor="middle" x="233.5" y="-623.5" font-family="Helvetica,sans-Serif" font-size="10.00">packet_io_stats.h</text>
</a>
</g>
</g>
<!-- Node1&#45;&gt;Node31 -->
<g id="edge48" class="edge">
<title>Node1&#45;&gt;Node31</title>
<path fill="none" stroke="midnightblue" d="M492.21,-725.61C462.54,-717.13 421.72,-704.83 386.5,-692 337.15,-674.02 280.64,-648.75 252.09,-635.65"/>
<polygon fill="midnightblue" stroke="midnightblue" points="491.64,-729.09 502.22,-728.45 493.55,-722.36 491.64,-729.09"/>
</g>
<!-- Node33 -->
<g id="node33" class="node">
<title>Node33</title>
<g id="a_node33"><a xlink:href="api_2spec_2packet__types_8h.html" target="_top" xlink:title=" ">
<polygon fill="white" stroke="black" points="395.5,-672.5 395.5,-691.5 485.5,-691.5 485.5,-672.5 395.5,-672.5"/>
<text text-anchor="middle" x="440.5" y="-679.5" font-family="Helvetica,sans-Serif" font-size="10.00">packet_types.h</text>
</a>
</g>
</g>
<!-- Node1&#45;&gt;Node33 -->
<g id="edge53" class="edge">
<title>Node1&#45;&gt;Node33</title>
<path fill="none" stroke="midnightblue" d="M509.69,-723.18C492.58,-713.24 470.03,-700.15 455.4,-691.65"/>
<polygon fill="midnightblue" stroke="midnightblue" points="508.15,-726.33 518.56,-728.32 511.67,-720.28 508.15,-726.33"/>
</g>
<!-- Node39 -->
<g id="node39" class="node">
<title>Node39</title>
<g id="a_node39"><a xlink:href="api_2spec_2queue_8h.html" target="_top" xlink:title=" ">
<polygon fill="white" stroke="black" points="805.5,-672.5 805.5,-691.5 861.5,-691.5 861.5,-672.5 805.5,-672.5"/>
<text text-anchor="middle" x="833.5" y="-679.5" font-family="Helvetica,sans-Serif" font-size="10.00">queue.h</text>
</a>
</g>
</g>
<!-- Node1&#45;&gt;Node39 -->
<g id="edge67" class="edge">
<title>Node1&#45;&gt;Node39</title>
<path fill="none" stroke="midnightblue" d="M587.67,-727.25C651.63,-715.74 755.57,-697.03 805.28,-688.08"/>
<polygon fill="midnightblue" stroke="midnightblue" points="586.99,-723.82 577.77,-729.03 588.23,-730.71 586.99,-723.82"/>
</g>
<!-- Node41 -->
<g id="node41" class="node">
<title>Node41</title>
<g id="a_node41"><a xlink:href="api_2spec_2schedule_8h.html" target="_top" xlink:title=" ">
<polygon fill="white" stroke="black" points="893,-672.5 893,-691.5 962,-691.5 962,-672.5 893,-672.5"/>
<text text-anchor="middle" x="927.5" y="-679.5" font-family="Helvetica,sans-Serif" font-size="10.00">schedule.h</text>
</a>
</g>
</g>
<!-- Node1&#45;&gt;Node41 -->
<g id="edge70" class="edge">
<title>Node1&#45;&gt;Node41</title>
<path fill="none" stroke="midnightblue" d="M587.97,-730.13C654.65,-721.63 770.98,-706.5 870.5,-692 877.74,-690.95 885.48,-689.76 892.86,-688.61"/>
<polygon fill="midnightblue" stroke="midnightblue" points="587.19,-726.7 577.71,-731.44 588.07,-733.65 587.19,-726.7"/>
</g>
<!-- Node3 -->
<g id="node3" class="node">
<title>Node3</title>
<g id="a_node3"><a xlink:href="api_2comp_8h.html" target="_top" xlink:title=" ">
<polygon fill="white" stroke="black" points="0,-392.5 0,-411.5 53,-411.5 53,-392.5 0,-392.5"/>
<text text-anchor="middle" x="26.5" y="-399.5" font-family="Helvetica,sans-Serif" font-size="10.00">comp.h</text>
</a>
</g>
</g>
<!-- Node2&#45;&gt;Node3 -->
<g id="edge2" class="edge">
<title>Node2&#45;&gt;Node3</title>
<path fill="none" stroke="midnightblue" d="M26.5,-549.93C26.5,-513.92 26.5,-437.23 26.5,-411.57"/>
<polygon fill="midnightblue" stroke="midnightblue" points="23,-550.08 26.5,-560.08 30,-550.08 23,-550.08"/>
</g>
<!-- Node4 -->
<g id="node4" class="node">
<title>Node4</title>
<g id="a_node4"><a xlink:href="odp__api_8h.html" target="_top" xlink:title=" ">
<polygon fill="white" stroke="black" points="566.5,-0.5 566.5,-19.5 630.5,-19.5 630.5,-0.5 566.5,-0.5"/>
<text text-anchor="middle" x="598.5" y="-7.5" font-family="Helvetica,sans-Serif" font-size="10.00">odp_api.h</text>
</a>
</g>
</g>
<!-- Node3&#45;&gt;Node4 -->
<g id="edge3" class="edge">
<title>Node3&#45;&gt;Node4</title>
<path fill="none" stroke="midnightblue" d="M28.97,-382.29C31.63,-360.43 35.5,-323.16 35.5,-291 35.5,-291 35.5,-291 35.5,-121 35.5,-12.07 446.58,-8.98 566.21,-10.39"/>
<polygon fill="midnightblue" stroke="midnightblue" points="25.46,-382.1 27.68,-392.46 32.41,-382.98 25.46,-382.1"/>
</g>
<!-- Node6 -->
<g id="node6" class="node">
<title>Node6</title>
<g id="a_node6"><a xlink:href="api_2dma__types_8h.html" target="_top" xlink:title=" ">
<polygon fill="white" stroke="black" points="596.5,-504.5 596.5,-523.5 676.5,-523.5 676.5,-504.5 596.5,-504.5"/>
<text text-anchor="middle" x="636.5" y="-511.5" font-family="Helvetica,sans-Serif" font-size="10.00">dma_types.h</text>
</a>
</g>
</g>
<!-- Node5&#45;&gt;Node6 -->
<g id="edge5" class="edge">
<title>Node5&#45;&gt;Node6</title>
<path fill="none" stroke="midnightblue" d="M612.8,-551.57C618.82,-542.27 625.97,-531.25 630.83,-523.75"/>
<polygon fill="midnightblue" stroke="midnightblue" points="609.78,-549.79 607.28,-560.08 615.66,-553.6 609.78,-549.79"/>
</g>
<!-- Node7 -->
<g id="node7" class="node">
<title>Node7</title>
<g id="a_node7"><a xlink:href="spec_2dma_8h.html" target="_top" xlink:title=" ">
<polygon fill="white" stroke="black" points="799,-336.5 799,-355.5 846,-355.5 846,-336.5 799,-336.5"/>
<text text-anchor="middle" x="822.5" y="-343.5" font-family="Helvetica,sans-Serif" font-size="10.00">dma.h</text>
</a>
</g>
</g>
<!-- Node6&#45;&gt;Node7 -->
<g id="edge6" class="edge">
<title>Node6&#45;&gt;Node7</title>
<path fill="none" stroke="midnightblue" d="M654.64,-497.62C664.01,-489.29 675.37,-478.56 684.5,-468 711.45,-436.86 706.66,-419.29 737.5,-392 756.01,-375.62 781.52,-363.14 799.76,-355.53"/>
<polygon fill="midnightblue" stroke="midnightblue" points="652.26,-495.06 647.03,-504.27 656.86,-500.33 652.26,-495.06"/>
</g>
<!-- Node9 -->
<g id="node9" class="node">
<title>Node9</title>
<g id="a_node9"><a xlink:href="api_2spec_2pool__types_8h.html" target="_top" xlink:title=" ">
<polygon fill="white" stroke="black" points="597,-448.5 597,-467.5 676,-467.5 676,-448.5 597,-448.5"/>
<text text-anchor="middle" x="636.5" y="-455.5" font-family="Helvetica,sans-Serif" font-size="10.00">pool_types.h</text>
</a>
</g>
</g>
<!-- Node6&#45;&gt;Node9 -->
<g id="edge9" class="edge">
<title>Node6&#45;&gt;Node9</title>
<path fill="none" stroke="midnightblue" d="M636.5,-493.8C636.5,-484.91 636.5,-474.78 636.5,-467.75"/>
<polygon fill="midnightblue" stroke="midnightblue" points="633,-494.08 636.5,-504.08 640,-494.08 633,-494.08"/>
</g>
<!-- Node8 -->
<g id="node8" class="node">
<title>Node8</title>
<g id="a_node8"><a xlink:href="dma_8h.html" target="_top" xlink:title=" ">
<polygon fill="white" stroke="black" points="787,-56.5 787,-75.5 834,-75.5 834,-56.5 787,-56.5"/>
<text text-anchor="middle" x="810.5" y="-63.5" font-family="Helvetica,sans-Serif" font-size="10.00">dma.h</text>
</a>
</g>
</g>
<!-- Node7&#45;&gt;Node8 -->
<g id="edge7" class="edge">
<title>Node7&#45;&gt;Node8</title>
<path fill="none" stroke="midnightblue" d="M822.5,-326.25C822.5,-304.36 822.5,-267.05 822.5,-235 822.5,-235 822.5,-235 822.5,-177 822.5,-138.96 815.32,-93.96 812.07,-75.52"/>
<polygon fill="midnightblue" stroke="midnightblue" points="819,-326.44 822.5,-336.44 826,-326.44 819,-326.44"/>
</g>
<!-- Node8&#45;&gt;Node4 -->
<g id="edge8" class="edge">
<title>Node8&#45;&gt;Node4</title>
<path fill="none" stroke="midnightblue" d="M776.74,-56.4C736.57,-46.17 670.01,-29.22 630.59,-19.17"/>
<polygon fill="midnightblue" stroke="midnightblue" points="776.04,-59.83 786.59,-58.91 777.77,-53.05 776.04,-59.83"/>
</g>
<!-- Node10 -->
<g id="node10" class="node">
<title>Node10</title>
<g id="a_node10"><a xlink:href="api_2pool__types_8h.html" target="_top" xlink:title=" ">
<polygon fill="white" stroke="black" points="597,-392.5 597,-411.5 676,-411.5 676,-392.5 597,-392.5"/>
<text text-anchor="middle" x="636.5" y="-399.5" font-family="Helvetica,sans-Serif" font-size="10.00">pool_types.h</text>
</a>
</g>
</g>
<!-- Node9&#45;&gt;Node10 -->
<g id="edge10" class="edge">
<title>Node9&#45;&gt;Node10</title>
<path fill="none" stroke="midnightblue" d="M636.5,-437.8C636.5,-428.91 636.5,-418.78 636.5,-411.75"/>
<polygon fill="midnightblue" stroke="midnightblue" points="633,-438.08 636.5,-448.08 640,-438.08 633,-438.08"/>
</g>
<!-- Node10&#45;&gt;Node7 -->
<g id="edge27" class="edge">
<title>Node10&#45;&gt;Node7</title>
<path fill="none" stroke="midnightblue" d="M675.98,-389.54C713.22,-378.73 767.82,-362.88 798.77,-353.89"/>
<polygon fill="midnightblue" stroke="midnightblue" points="674.6,-386.29 665.97,-392.44 676.55,-393.02 674.6,-386.29"/>
</g>
<!-- Node11 -->
<g id="node11" class="node">
<title>Node11</title>
<g id="a_node11"><a xlink:href="api_2spec_2buffer_8h.html" target="_top" xlink:title=" ">
<polygon fill="white" stroke="black" points="728,-336.5 728,-355.5 781,-355.5 781,-336.5 728,-336.5"/>
<text text-anchor="middle" x="754.5" y="-343.5" font-family="Helvetica,sans-Serif" font-size="10.00">buffer.h</text>
</a>
</g>
</g>
<!-- Node10&#45;&gt;Node11 -->
<g id="edge11" class="edge">
<title>Node10&#45;&gt;Node11</title>
<path fill="none" stroke="midnightblue" d="M664.4,-388.23C686.47,-378.13 716.68,-364.31 735.89,-355.52"/>
<polygon fill="midnightblue" stroke="midnightblue" points="662.83,-385.1 655.2,-392.44 665.75,-391.46 662.83,-385.1"/>
</g>
<!-- Node13 -->
<g id="node13" class="node">
<title>Node13</title>
<g id="a_node13"><a xlink:href="api_2spec_2classification_8h.html" target="_top" xlink:title=" ">
<polygon fill="white" stroke="black" points="481,-224.5 481,-243.5 570,-243.5 570,-224.5 481,-224.5"/>
<text text-anchor="middle" x="525.5" y="-231.5" font-family="Helvetica,sans-Serif" font-size="10.00">classification.h</text>
</a>
</g>
</g>
<!-- Node10&#45;&gt;Node13 -->
<g id="edge14" class="edge">
<title>Node10&#45;&gt;Node13</title>
<path fill="none" stroke="midnightblue" d="M624.67,-383.31C601.01,-347.92 548.61,-269.56 531.23,-243.57"/>
<polygon fill="midnightblue" stroke="midnightblue" points="622.06,-385.71 630.53,-392.08 627.88,-381.82 622.06,-385.71"/>
</g>
<!-- Node19 -->
<g id="node19" class="node">
<title>Node19</title>
<g id="a_node19"><a xlink:href="api_2spec_2crypto_8h.html" target="_top" xlink:title=" ">
<polygon fill="white" stroke="black" points="474.5,-336.5 474.5,-355.5 530.5,-355.5 530.5,-336.5 474.5,-336.5"/>
<text text-anchor="middle" x="502.5" y="-343.5" font-family="Helvetica,sans-Serif" font-size="10.00">crypto.h</text>
</a>
</g>
</g>
<!-- Node10&#45;&gt;Node19 -->
<g id="edge23" class="edge">
<title>Node10&#45;&gt;Node19</title>
<path fill="none" stroke="midnightblue" d="M605.82,-388.64C580.68,-378.5 545.75,-364.43 523.63,-355.52"/>
<polygon fill="midnightblue" stroke="midnightblue" points="604.68,-391.95 615.27,-392.44 607.3,-385.46 604.68,-391.95"/>
</g>
<!-- Node21 -->
<g id="node21" class="node">
<title>Node21</title>
<g id="a_node21"><a xlink:href="api_2spec_2packet_8h.html" target="_top" xlink:title=" ">
<polygon fill="white" stroke="black" points="626.5,-224.5 626.5,-243.5 684.5,-243.5 684.5,-224.5 626.5,-224.5"/>
<text text-anchor="middle" x="655.5" y="-231.5" font-family="Helvetica,sans-Serif" font-size="10.00">packet.h</text>
</a>
</g>
</g>
<!-- Node10&#45;&gt;Node21 -->
<g id="edge28" class="edge">
<title>Node10&#45;&gt;Node21</title>
<path fill="none" stroke="midnightblue" d="M638.68,-381.93C642.8,-345.92 651.58,-269.23 654.52,-243.57"/>
<polygon fill="midnightblue" stroke="midnightblue" points="635.18,-381.74 637.52,-392.08 642.14,-382.54 635.18,-381.74"/>
</g>
<!-- Node10&#45;&gt;Node23 -->
<g id="edge31" class="edge">
<title>Node10&#45;&gt;Node23</title>
<path fill="none" stroke="midnightblue" d="M589.9,-390.15C546.06,-379.95 481.32,-364.88 441.09,-355.52"/>
<polygon fill="midnightblue" stroke="midnightblue" points="589.21,-393.59 599.74,-392.44 590.79,-386.77 589.21,-393.59"/>
</g>
<!-- Node27 -->
<g id="node27" class="node">
<title>Node27</title>
<g id="a_node27"><a xlink:href="api_2spec_2pool_8h.html" target="_top" xlink:title=" ">
<polygon fill="white" stroke="black" points="663,-336.5 663,-355.5 710,-355.5 710,-336.5 663,-336.5"/>
<text text-anchor="middle" x="686.5" y="-343.5" font-family="Helvetica,sans-Serif" font-size="10.00">pool.h</text>
</a>
</g>
</g>
<!-- Node10&#45;&gt;Node27 -->
<g id="edge41" class="edge">
<title>Node10&#45;&gt;Node27</title>
<path fill="none" stroke="midnightblue" d="M651.58,-384.72C660.39,-375.2 671.17,-363.56 678.4,-355.75"/>
<polygon fill="midnightblue" stroke="midnightblue" points="648.98,-382.37 644.76,-392.08 654.12,-387.12 648.98,-382.37"/>
</g>
<!-- Node10&#45;&gt;Node29 -->
<g id="edge44" class="edge">
<title>Node10&#45;&gt;Node29</title>
<path fill="none" stroke="midnightblue" d="M685.93,-391.5C730.21,-382.82 796.87,-369.35 854.5,-356 857.56,-355.29 860.75,-354.52 863.92,-353.73"/>
<polygon fill="midnightblue" stroke="midnightblue" points="685.15,-388.09 676.01,-393.44 686.49,-394.96 685.15,-388.09"/>
</g>
<!-- Node12 -->
<g id="node12" class="node">
<title>Node12</title>
<g id="a_node12"><a xlink:href="api_2buffer_8h.html" target="_top" xlink:title=" ">
<polygon fill="white" stroke="black" points="741,-224.5 741,-243.5 794,-243.5 794,-224.5 741,-224.5"/>
<text text-anchor="middle" x="767.5" y="-231.5" font-family="Helvetica,sans-Serif" font-size="10.00">buffer.h</text>
</a>
</g>
</g>
<!-- Node11&#45;&gt;Node12 -->
<g id="edge12" class="edge">
<title>Node11&#45;&gt;Node12</title>
<path fill="none" stroke="midnightblue" d="M756.7,-326.35C759.55,-302.25 764.39,-261.31 766.48,-243.59"/>
<polygon fill="midnightblue" stroke="midnightblue" points="753.22,-326.03 755.52,-336.37 760.17,-326.85 753.22,-326.03"/>
</g>
<!-- Node12&#45;&gt;Node4 -->
<g id="edge13" class="edge">
<title>Node12&#45;&gt;Node4</title>
<path fill="none" stroke="midnightblue" d="M768.66,-213.95C769.77,-178.34 766.95,-101.18 726.5,-56 701.99,-28.62 659.82,-17.9 630.62,-13.7"/>
<polygon fill="midnightblue" stroke="midnightblue" points="765.15,-214.18 768.19,-224.33 772.14,-214.5 765.15,-214.18"/>
</g>
<!-- Node14 -->
<g id="node14" class="node">
<title>Node14</title>
<g id="a_node14"><a xlink:href="api_2classification_8h.html" target="_top" xlink:title=" ">
<polygon fill="white" stroke="black" points="481,-168.5 481,-187.5 570,-187.5 570,-168.5 481,-168.5"/>
<text text-anchor="middle" x="525.5" y="-175.5" font-family="Helvetica,sans-Serif" font-size="10.00">classification.h</text>
</a>
</g>
</g>
<!-- Node13&#45;&gt;Node14 -->
<g id="edge15" class="edge">
<title>Node13&#45;&gt;Node14</title>
<path fill="none" stroke="midnightblue" d="M525.5,-213.8C525.5,-204.91 525.5,-194.78 525.5,-187.75"/>
<polygon fill="midnightblue" stroke="midnightblue" points="522,-214.08 525.5,-224.08 529,-214.08 522,-214.08"/>
</g>
<!-- Node14&#45;&gt;Node4 -->
<g id="edge22" class="edge">
<title>Node14&#45;&gt;Node4</title>
<path fill="none" stroke="midnightblue" d="M533.48,-158.86C549.14,-123.25 583.35,-45.45 594.73,-19.57"/>
<polygon fill="midnightblue" stroke="midnightblue" points="530.25,-157.51 529.42,-168.08 536.65,-160.33 530.25,-157.51"/>
</g>
<!-- Node15 -->
<g id="node15" class="node">
<title>Node15</title>
<g id="a_node15"><a xlink:href="api_2spec_2ipsec_8h.html" target="_top" xlink:title=" ">
<polygon fill="white" stroke="black" points="481,-112.5 481,-131.5 532,-131.5 532,-112.5 481,-112.5"/>
<text text-anchor="middle" x="506.5" y="-119.5" font-family="Helvetica,sans-Serif" font-size="10.00">ipsec.h</text>
</a>
</g>
</g>
<!-- Node14&#45;&gt;Node15 -->
<g id="edge16" class="edge">
<title>Node14&#45;&gt;Node15</title>
<path fill="none" stroke="midnightblue" d="M518.95,-158.4C515.78,-149.36 512.11,-138.94 509.58,-131.75"/>
<polygon fill="midnightblue" stroke="midnightblue" points="515.74,-159.81 522.36,-168.08 522.35,-157.49 515.74,-159.81"/>
</g>
<!-- Node14&#45;&gt;Node17 -->
<g id="edge19" class="edge">
<title>Node14&#45;&gt;Node17</title>
<path fill="none" stroke="midnightblue" d="M470.83,-166.68C413.48,-155.85 324.97,-139.14 275.72,-129.84"/>
<polygon fill="midnightblue" stroke="midnightblue" points="470.34,-170.15 480.81,-168.56 471.64,-163.27 470.34,-170.15"/>
</g>
<!-- Node16 -->
<g id="node16" class="node">
<title>Node16</title>
<g id="a_node16"><a xlink:href="api_2ipsec_8h.html" target="_top" xlink:title=" ">
<polygon fill="white" stroke="black" points="481,-56.5 481,-75.5 532,-75.5 532,-56.5 481,-56.5"/>
<text text-anchor="middle" x="506.5" y="-63.5" font-family="Helvetica,sans-Serif" font-size="10.00">ipsec.h</text>
</a>
</g>
</g>
<!-- Node15&#45;&gt;Node16 -->
<g id="edge17" class="edge">
<title>Node15&#45;&gt;Node16</title>
<path fill="none" stroke="midnightblue" d="M506.5,-101.8C506.5,-92.91 506.5,-82.78 506.5,-75.75"/>
<polygon fill="midnightblue" stroke="midnightblue" points="503,-102.08 506.5,-112.08 510,-102.08 503,-102.08"/>
</g>
<!-- Node16&#45;&gt;Node4 -->
<g id="edge18" class="edge">
<title>Node16&#45;&gt;Node4</title>
<path fill="none" stroke="midnightblue" d="M530.05,-51.18C546.98,-41.24 569.28,-28.15 583.76,-19.65"/>
<polygon fill="midnightblue" stroke="midnightblue" points="528.13,-48.24 521.28,-56.32 531.68,-54.28 528.13,-48.24"/>
</g>
<!-- Node18 -->
<g id="node18" class="node">
<title>Node18</title>
<g id="a_node18"><a xlink:href="api_2packet__io_8h.html" target="_top" xlink:title=" ">
<polygon fill="white" stroke="black" points="206.5,-56.5 206.5,-75.5 278.5,-75.5 278.5,-56.5 206.5,-56.5"/>
<text text-anchor="middle" x="242.5" y="-63.5" font-family="Helvetica,sans-Serif" font-size="10.00">packet_io.h</text>
</a>
</g>
</g>
<!-- Node17&#45;&gt;Node18 -->
<g id="edge20" class="edge">
<title>Node17&#45;&gt;Node18</title>
<path fill="none" stroke="midnightblue" d="M240.57,-101.8C241.06,-92.91 241.62,-82.78 242.01,-75.75"/>
<polygon fill="midnightblue" stroke="midnightblue" points="237.06,-101.9 240,-112.08 244.04,-102.29 237.06,-101.9"/>
</g>
<!-- Node18&#45;&gt;Node4 -->
<g id="edge21" class="edge">
<title>Node18&#45;&gt;Node4</title>
<path fill="none" stroke="midnightblue" d="M288.64,-57.55C291.98,-57.02 295.29,-56.5 298.5,-56 395.82,-40.88 511.04,-23.84 566.08,-15.75"/>
<polygon fill="midnightblue" stroke="midnightblue" points="287.97,-54.11 278.64,-59.13 289.07,-61.02 287.97,-54.11"/>
</g>
<!-- Node20 -->
<g id="node20" class="node">
<title>Node20</title>
<g id="a_node20"><a xlink:href="api_2crypto_8h.html" target="_top" xlink:title=" ">
<polygon fill="white" stroke="black" points="587.5,-168.5 587.5,-187.5 643.5,-187.5 643.5,-168.5 587.5,-168.5"/>
<text text-anchor="middle" x="615.5" y="-175.5" font-family="Helvetica,sans-Serif" font-size="10.00">crypto.h</text>
</a>
</g>
</g>
<!-- Node19&#45;&gt;Node20 -->
<g id="edge24" class="edge">
<title>Node19&#45;&gt;Node20</title>
<path fill="none" stroke="midnightblue" d="M516.03,-328.41C531.78,-308.77 558.23,-274.85 578.5,-244 591.33,-224.47 604.41,-200.27 611.05,-187.62"/>
<polygon fill="midnightblue" stroke="midnightblue" points="513.16,-326.38 509.6,-336.36 518.61,-330.78 513.16,-326.38"/>
</g>
<!-- Node20&#45;&gt;Node4 -->
<g id="edge26" class="edge">
<title>Node20&#45;&gt;Node4</title>
<path fill="none" stroke="midnightblue" d="M613.55,-157.93C609.86,-121.92 602.01,-45.23 599.38,-19.57"/>
<polygon fill="midnightblue" stroke="midnightblue" points="610.09,-158.48 614.59,-168.08 617.05,-157.77 610.09,-158.48"/>
</g>
<!-- Node20&#45;&gt;Node15 -->
<g id="edge25" class="edge">
<title>Node20&#45;&gt;Node15</title>
<path fill="none" stroke="midnightblue" d="M588.98,-163.86C568.77,-153.85 541.51,-140.35 523.97,-131.65"/>
<polygon fill="midnightblue" stroke="midnightblue" points="587.47,-167.02 597.99,-168.32 590.58,-160.75 587.47,-167.02"/>
</g>
<!-- Node22 -->
<g id="node22" class="node">
<title>Node22</title>
<g id="a_node22"><a xlink:href="api_2packet_8h.html" target="_top" xlink:title=" ">
<polygon fill="white" stroke="black" points="626.5,-112.5 626.5,-131.5 684.5,-131.5 684.5,-112.5 626.5,-112.5"/>
<text text-anchor="middle" x="655.5" y="-119.5" font-family="Helvetica,sans-Serif" font-size="10.00">packet.h</text>
</a>
</g>
</g>
<!-- Node21&#45;&gt;Node22 -->
<g id="edge29" class="edge">
<title>Node21&#45;&gt;Node22</title>
<path fill="none" stroke="midnightblue" d="M655.5,-214.35C655.5,-190.25 655.5,-149.31 655.5,-131.59"/>
<polygon fill="midnightblue" stroke="midnightblue" points="652,-214.37 655.5,-224.37 659,-214.37 652,-214.37"/>
</g>
<!-- Node22&#45;&gt;Node4 -->
<g id="edge30" class="edge">
<title>Node22&#45;&gt;Node4</title>
<path fill="none" stroke="midnightblue" d="M646.34,-103.32C633.93,-79.37 612.26,-37.55 602.95,-19.59"/>
<polygon fill="midnightblue" stroke="midnightblue" points="643.32,-105.1 651.03,-112.37 649.53,-101.88 643.32,-105.1"/>
</g>
<!-- Node24 -->
<g id="node24" class="node">
<title>Node24</title>
<g id="a_node24"><a xlink:href="api_2packet__io__types_8h.html" target="_top" xlink:title=" ">
<polygon fill="white" stroke="black" points="370.5,-280.5 370.5,-299.5 474.5,-299.5 474.5,-280.5 370.5,-280.5"/>
<text text-anchor="middle" x="422.5" y="-287.5" font-family="Helvetica,sans-Serif" font-size="10.00">packet_io_types.h</text>
</a>
</g>
</g>
<!-- Node23&#45;&gt;Node24 -->
<g id="edge32" class="edge">
<title>Node23&#45;&gt;Node24</title>
<path fill="none" stroke="midnightblue" d="M410.7,-326.4C413.71,-317.36 417.19,-306.94 419.58,-299.75"/>
<polygon fill="midnightblue" stroke="midnightblue" points="407.31,-325.49 407.47,-336.08 413.96,-327.7 407.31,-325.49"/>
</g>
<!-- Node24&#45;&gt;Node13 -->
<g id="edge33" class="edge">
<title>Node24&#45;&gt;Node13</title>
<path fill="none" stroke="midnightblue" d="M448.08,-275.59C467.12,-265.61 492.56,-252.27 508.99,-243.65"/>
<polygon fill="midnightblue" stroke="midnightblue" points="446.28,-272.58 439.05,-280.32 449.53,-278.78 446.28,-272.58"/>
</g>
<!-- Node24&#45;&gt;Node15 -->
<g id="edge34" class="edge">
<title>Node24&#45;&gt;Node15</title>
<path fill="none" stroke="midnightblue" d="M428.14,-270.72C436.04,-246.37 451.67,-202.4 471.5,-168 479.31,-154.45 490.81,-140.49 498.47,-131.78"/>
<polygon fill="midnightblue" stroke="midnightblue" points="424.75,-269.82 425.07,-280.41 431.42,-271.94 424.75,-269.82"/>
</g>
<!-- Node24&#45;&gt;Node17 -->
<g id="edge36" class="edge">
<title>Node24&#45;&gt;Node17</title>
<path fill="none" stroke="midnightblue" d="M388.33,-276.55C370.24,-268.91 348.36,-257.91 331.5,-244 289.98,-209.73 256.21,-153.24 244.21,-131.71"/>
<polygon fill="midnightblue" stroke="midnightblue" points="387.34,-279.92 397.92,-280.44 389.97,-273.44 387.34,-279.92"/>
</g>
<!-- Node24&#45;&gt;Node21 -->
<g id="edge35" class="edge">
<title>Node24&#45;&gt;Node21</title>
<path fill="none" stroke="midnightblue" d="M469.35,-278.14C516.3,-267.26 587.11,-250.85 626.48,-241.73"/>
<polygon fill="midnightblue" stroke="midnightblue" points="468.37,-274.78 459.42,-280.44 469.95,-281.6 468.37,-274.78"/>
</g>
<!-- Node25 -->
<g id="node25" class="node">
<title>Node25</title>
<g id="a_node25"><a xlink:href="api_2spec_2traffic__mngr_8h.html" target="_top" xlink:title=" ">
<polygon fill="white" stroke="black" points="340.5,-224.5 340.5,-243.5 424.5,-243.5 424.5,-224.5 340.5,-224.5"/>
<text text-anchor="middle" x="382.5" y="-231.5" font-family="Helvetica,sans-Serif" font-size="10.00">traffic_mngr.h</text>
</a>
</g>
</g>
<!-- Node24&#45;&gt;Node25 -->
<g id="edge37" class="edge">
<title>Node24&#45;&gt;Node25</title>
<path fill="none" stroke="midnightblue" d="M409.8,-271.86C402.87,-262.5 394.59,-251.33 388.98,-243.75"/>
<polygon fill="midnightblue" stroke="midnightblue" points="407.13,-274.13 415.89,-280.08 412.75,-269.96 407.13,-274.13"/>
</g>
<!-- Node26 -->
<g id="node26" class="node">
<title>Node26</title>
<g id="a_node26"><a xlink:href="api_2traffic__mngr_8h.html" target="_top" xlink:title=" ">
<polygon fill="white" stroke="black" points="340.5,-168.5 340.5,-187.5 424.5,-187.5 424.5,-168.5 340.5,-168.5"/>
<text text-anchor="middle" x="382.5" y="-175.5" font-family="Helvetica,sans-Serif" font-size="10.00">traffic_mngr.h</text>
</a>
</g>
</g>
<!-- Node25&#45;&gt;Node26 -->
<g id="edge38" class="edge">
<title>Node25&#45;&gt;Node26</title>
<path fill="none" stroke="midnightblue" d="M382.5,-213.8C382.5,-204.91 382.5,-194.78 382.5,-187.75"/>
<polygon fill="midnightblue" stroke="midnightblue" points="379,-214.08 382.5,-224.08 386,-214.08 379,-214.08"/>
</g>
<!-- Node26&#45;&gt;Node4 -->
<g id="edge40" class="edge">
<title>Node26&#45;&gt;Node4</title>
<path fill="none" stroke="midnightblue" d="M391.19,-159.16C404.81,-132.96 433.61,-84.13 471.5,-56 499.86,-34.95 538.95,-23.07 566.24,-16.88"/>
<polygon fill="midnightblue" stroke="midnightblue" points="387.96,-157.8 386.58,-168.3 394.21,-160.95 387.96,-157.8"/>
</g>
<!-- Node26&#45;&gt;Node15 -->
<g id="edge39" class="edge">
<title>Node26&#45;&gt;Node15</title>
<path fill="none" stroke="midnightblue" d="M411.51,-164.37C434.73,-154.26 466.66,-140.35 486.94,-131.52"/>
<polygon fill="midnightblue" stroke="midnightblue" points="409.92,-161.24 402.15,-168.44 412.71,-167.66 409.92,-161.24"/>
</g>
<!-- Node28 -->
<g id="node28" class="node">
<title>Node28</title>
<g id="a_node28"><a xlink:href="api_2pool_8h.html" target="_top" xlink:title=" ">
<polygon fill="white" stroke="black" points="676,-280.5 676,-299.5 723,-299.5 723,-280.5 676,-280.5"/>
<text text-anchor="middle" x="699.5" y="-287.5" font-family="Helvetica,sans-Serif" font-size="10.00">pool.h</text>
</a>
</g>
</g>
<!-- Node27&#45;&gt;Node28 -->
<g id="edge42" class="edge">
<title>Node27&#45;&gt;Node28</title>
<path fill="none" stroke="midnightblue" d="M691.05,-326.1C693.21,-317.14 695.68,-306.86 697.39,-299.75"/>
<polygon fill="midnightblue" stroke="midnightblue" points="687.58,-325.54 688.65,-336.08 694.39,-327.18 687.58,-325.54"/>
</g>
<!-- Node28&#45;&gt;Node4 -->
<g id="edge43" class="edge">
<title>Node28&#45;&gt;Node4</title>
<path fill="none" stroke="midnightblue" d="M703.01,-270.63C706.86,-248.85 712.5,-211.42 712.5,-179 712.5,-179 712.5,-179 712.5,-121 712.5,-69.71 652,-34.77 619.14,-19.58"/>
<polygon fill="midnightblue" stroke="midnightblue" points="699.57,-270.01 701.2,-280.48 706.45,-271.28 699.57,-270.01"/>
</g>
<!-- Node30 -->
<g id="node30" class="node">
<title>Node30</title>
<g id="a_node30"><a xlink:href="api_2timer_8h.html" target="_top" xlink:title=" ">
<polygon fill="white" stroke="black" points="858,-280.5 858,-299.5 909,-299.5 909,-280.5 858,-280.5"/>
<text text-anchor="middle" x="883.5" y="-287.5" font-family="Helvetica,sans-Serif" font-size="10.00">timer.h</text>
</a>
</g>
</g>
<!-- Node29&#45;&gt;Node30 -->
<g id="edge45" class="edge">
<title>Node29&#45;&gt;Node30</title>
<path fill="none" stroke="midnightblue" d="M887.4,-326.1C886.4,-317.14 885.26,-306.86 884.47,-299.75"/>
<polygon fill="midnightblue" stroke="midnightblue" points="883.93,-326.53 888.51,-336.08 890.88,-325.76 883.93,-326.53"/>
</g>
<!-- Node30&#45;&gt;Node4 -->
<g id="edge46" class="edge">
<title>Node30&#45;&gt;Node4</title>
<path fill="none" stroke="midnightblue" d="M878.56,-270.37C873.23,-248.62 865.5,-211.46 865.5,-179 865.5,-179 865.5,-179 865.5,-121 865.5,-90.36 865.81,-75.89 842.5,-56 811.05,-29.15 689.52,-17.26 630.73,-13"/>
<polygon fill="midnightblue" stroke="midnightblue" points="875.21,-271.41 881.07,-280.24 881.99,-269.68 875.21,-271.41"/>
</g>
<!-- Node32 -->
<g id="node32" class="node">
<title>Node32</title>
<g id="a_node32"><a xlink:href="packet__io__stats_8h.html" target="_top" xlink:title=" ">
<polygon fill="white" stroke="black" points="148,-392.5 148,-411.5 249,-411.5 249,-392.5 148,-392.5"/>
<text text-anchor="middle" x="198.5" y="-399.5" font-family="Helvetica,sans-Serif" font-size="10.00">packet_io_stats.h</text>
</a>
</g>
</g>
<!-- Node31&#45;&gt;Node32 -->
<g id="edge49" class="edge">
<title>Node31&#45;&gt;Node32</title>
<path fill="none" stroke="midnightblue" d="M198.9,-611.92C184.99,-604.75 170.39,-594.34 162.5,-580 130.46,-521.75 176.17,-438.59 192.84,-411.73"/>
<polygon fill="midnightblue" stroke="midnightblue" points="197.8,-615.27 208.34,-616.38 200.79,-608.94 197.8,-615.27"/>
</g>
<!-- Node32&#45;&gt;Node17 -->
<g id="edge50" class="edge">
<title>Node32&#45;&gt;Node17</title>
<path fill="none" stroke="midnightblue" d="M198.5,-382.25C198.5,-360.36 198.5,-323.05 198.5,-291 198.5,-291 198.5,-291 198.5,-233 198.5,-193.05 222.53,-149.8 233.8,-131.71"/>
<polygon fill="midnightblue" stroke="midnightblue" points="195,-382.44 198.5,-392.44 202,-382.44 195,-382.44"/>
</g>
<!-- Node32&#45;&gt;Node23 -->
<g id="edge51" class="edge">
<title>Node32&#45;&gt;Node23</title>
<path fill="none" stroke="midnightblue" d="M241.12,-389.83C280.01,-379.63 336.66,-364.78 372.01,-355.52"/>
<polygon fill="midnightblue" stroke="midnightblue" points="239.93,-386.52 231.14,-392.44 241.7,-393.29 239.93,-386.52"/>
</g>
<!-- Node34 -->
<g id="node34" class="node">
<title>Node34</title>
<g id="a_node34"><a xlink:href="api_2packet__types_8h.html" target="_top" xlink:title=" ">
<polygon fill="white" stroke="black" points="374.5,-616.5 374.5,-635.5 464.5,-635.5 464.5,-616.5 374.5,-616.5"/>
<text text-anchor="middle" x="419.5" y="-623.5" font-family="Helvetica,sans-Serif" font-size="10.00">packet_types.h</text>
</a>
</g>
</g>
<!-- Node33&#45;&gt;Node34 -->
<g id="edge54" class="edge">
<title>Node33&#45;&gt;Node34</title>
<path fill="none" stroke="midnightblue" d="M433.38,-662.69C429.84,-653.59 425.73,-643.01 422.9,-635.75"/>
<polygon fill="midnightblue" stroke="midnightblue" points="430.15,-664.03 437.03,-672.08 436.67,-661.49 430.15,-664.03"/>
</g>
<!-- Node34&#45;&gt;Node2 -->
<g id="edge55" class="edge">
<title>Node34&#45;&gt;Node2</title>
<path fill="none" stroke="midnightblue" d="M364.35,-617.42C278.62,-605.64 116.64,-583.39 53.06,-574.65"/>
<polygon fill="midnightblue" stroke="midnightblue" points="364.03,-620.91 374.42,-618.81 364.99,-613.98 364.03,-620.91"/>
</g>
<!-- Node34&#45;&gt;Node5 -->
<g id="edge57" class="edge">
<title>Node34&#45;&gt;Node5</title>
<path fill="none" stroke="midnightblue" d="M458.03,-613.57C492.36,-603.38 541.83,-588.7 572.8,-579.52"/>
<polygon fill="midnightblue" stroke="midnightblue" points="456.93,-610.24 448.34,-616.44 458.92,-616.95 456.93,-610.24"/>
</g>
<!-- Node34&#45;&gt;Node17 -->
<g id="edge65" class="edge">
<title>Node34&#45;&gt;Node17</title>
<path fill="none" stroke="midnightblue" d="M364.42,-616.33C340.63,-609.96 314.24,-598.96 296.5,-580 275.94,-558.02 277.5,-545.1 277.5,-515 277.5,-515 277.5,-515 277.5,-457 277.5,-326.86 248.67,-170.01 241.23,-131.73"/>
<polygon fill="midnightblue" stroke="midnightblue" points="363.87,-619.8 374.42,-618.78 365.54,-613 363.87,-619.8"/>
</g>
<!-- Node34&#45;&gt;Node19 -->
<g id="edge56" class="edge">
<title>Node34&#45;&gt;Node19</title>
<path fill="none" stroke="midnightblue" d="M429.64,-607.43C440.9,-586.24 457.5,-549.19 457.5,-515 457.5,-515 457.5,-515 457.5,-457 457.5,-416.56 483.88,-373.56 496.24,-355.63"/>
<polygon fill="midnightblue" stroke="midnightblue" points="426.55,-605.78 424.78,-616.23 432.68,-609.17 426.55,-605.78"/>
</g>
<!-- Node34&#45;&gt;Node21 -->
<g id="edge61" class="edge">
<title>Node34&#45;&gt;Node21</title>
<path fill="none" stroke="midnightblue" d="M435.67,-609.04C443.63,-600.76 453.08,-590.25 460.5,-580 551.08,-454.89 632.76,-283.89 651.48,-243.7"/>
<polygon fill="midnightblue" stroke="midnightblue" points="433.13,-606.63 428.62,-616.21 438.13,-611.53 433.13,-606.63"/>
</g>
<!-- Node34&#45;&gt;Node23 -->
<g id="edge66" class="edge">
<title>Node34&#45;&gt;Node23</title>
<path fill="none" stroke="midnightblue" d="M419.5,-606.25C419.5,-584.36 419.5,-547.05 419.5,-515 419.5,-515 419.5,-515 419.5,-457 419.5,-418.84 410.53,-373.91 406.46,-355.5"/>
<polygon fill="midnightblue" stroke="midnightblue" points="416,-606.44 419.5,-616.44 423,-606.44 416,-606.44"/>
</g>
<!-- Node35 -->
<g id="node35" class="node">
<title>Node35</title>
<g id="a_node35"><a xlink:href="api_2spec_2event_8h.html" target="_top" xlink:title=" ">
<polygon fill="white" stroke="black" points="172,-560.5 172,-579.5 225,-579.5 225,-560.5 172,-560.5"/>
<text text-anchor="middle" x="198.5" y="-567.5" font-family="Helvetica,sans-Serif" font-size="10.00">event.h</text>
</a>
</g>
</g>
<!-- Node34&#45;&gt;Node35 -->
<g id="edge58" class="edge">
<title>Node34&#45;&gt;Node35</title>
<path fill="none" stroke="midnightblue" d="M374.7,-614.05C329.76,-603.07 262.07,-586.53 225.03,-577.48"/>
<polygon fill="midnightblue" stroke="midnightblue" points="373.94,-617.47 384.48,-616.44 375.6,-610.67 373.94,-617.47"/>
</g>
<!-- Node37 -->
<g id="node37" class="node">
<title>Node37</title>
<g id="a_node37"><a xlink:href="api_2spec_2packet__flags_8h.html" target="_top" xlink:title=" ">
<polygon fill="white" stroke="black" points="305.5,-560.5 305.5,-579.5 391.5,-579.5 391.5,-560.5 305.5,-560.5"/>
<text text-anchor="middle" x="348.5" y="-567.5" font-family="Helvetica,sans-Serif" font-size="10.00">packet_flags.h</text>
</a>
</g>
</g>
<!-- Node34&#45;&gt;Node37 -->
<g id="edge62" class="edge">
<title>Node34&#45;&gt;Node37</title>
<path fill="none" stroke="midnightblue" d="M399.91,-610.1C387.13,-600.38 370.89,-588.03 360.11,-579.83"/>
<polygon fill="midnightblue" stroke="midnightblue" points="398.01,-613.06 408.09,-616.32 402.25,-607.48 398.01,-613.06"/>
</g>
<!-- Node36 -->
<g id="node36" class="node">
<title>Node36</title>
<g id="a_node36"><a xlink:href="api_2event_8h.html" target="_top" xlink:title=" ">
<polygon fill="white" stroke="black" points="114,-112.5 114,-131.5 167,-131.5 167,-112.5 114,-112.5"/>
<text text-anchor="middle" x="140.5" y="-119.5" font-family="Helvetica,sans-Serif" font-size="10.00">event.h</text>
</a>
</g>
</g>
<!-- Node35&#45;&gt;Node36 -->
<g id="edge59" class="edge">
<title>Node35&#45;&gt;Node36</title>
<path fill="none" stroke="midnightblue" d="M187.39,-551.13C165.62,-514.37 119.5,-427.02 119.5,-347 119.5,-347 119.5,-347 119.5,-233 119.5,-194.7 131.94,-150.21 137.67,-131.73"/>
<polygon fill="midnightblue" stroke="midnightblue" points="184.65,-553.36 192.82,-560.1 190.64,-549.74 184.65,-553.36"/>
</g>
<!-- Node36&#45;&gt;Node4 -->
<g id="edge60" class="edge">
<title>Node36&#45;&gt;Node4</title>
<path fill="none" stroke="midnightblue" d="M150.36,-103.86C160.19,-88.52 176.79,-66.82 197.5,-56 261.54,-22.55 482.68,-13.79 566.21,-11.65"/>
<polygon fill="midnightblue" stroke="midnightblue" points="147.34,-102.08 145.13,-112.44 153.32,-105.72 147.34,-102.08"/>
</g>
<!-- Node38 -->
<g id="node38" class="node">
<title>Node38</title>
<g id="a_node38"><a xlink:href="api_2packet__flags_8h.html" target="_top" xlink:title=" ">
<polygon fill="white" stroke="black" points="305.5,-504.5 305.5,-523.5 391.5,-523.5 391.5,-504.5 305.5,-504.5"/>
<text text-anchor="middle" x="348.5" y="-511.5" font-family="Helvetica,sans-Serif" font-size="10.00">packet_flags.h</text>
</a>
</g>
</g>
<!-- Node37&#45;&gt;Node38 -->
<g id="edge63" class="edge">
<title>Node37&#45;&gt;Node38</title>
<path fill="none" stroke="midnightblue" d="M348.5,-549.8C348.5,-540.91 348.5,-530.78 348.5,-523.75"/>
<polygon fill="midnightblue" stroke="midnightblue" points="345,-550.08 348.5,-560.08 352,-550.08 345,-550.08"/>
</g>
<!-- Node38&#45;&gt;Node4 -->
<g id="edge64" class="edge">
<title>Node38&#45;&gt;Node4</title>
<path fill="none" stroke="midnightblue" d="M342.21,-494.51C325.18,-441.24 282.63,-283.8 331.5,-168 359.24,-102.27 384.94,-92.07 446.5,-56 484.49,-33.74 534.37,-21.73 566.43,-15.85"/>
<polygon fill="midnightblue" stroke="midnightblue" points="338.96,-495.84 345.41,-504.25 345.61,-493.66 338.96,-495.84"/>
</g>
<!-- Node40 -->
<g id="node40" class="node">
<title>Node40</title>
<g id="a_node40"><a xlink:href="api_2queue_8h.html" target="_top" xlink:title=" ">
<polygon fill="white" stroke="black" points="858.5,-448.5 858.5,-467.5 914.5,-467.5 914.5,-448.5 858.5,-448.5"/>
<text text-anchor="middle" x="886.5" y="-455.5" font-family="Helvetica,sans-Serif" font-size="10.00">queue.h</text>
</a>
</g>
</g>
<!-- Node39&#45;&gt;Node40 -->
<g id="edge68" class="edge">
<title>Node39&#45;&gt;Node40</title>
<path fill="none" stroke="midnightblue" d="M837.97,-662.3C848.86,-616.64 876.51,-500.85 884.38,-467.88"/>
<polygon fill="midnightblue" stroke="midnightblue" points="834.5,-661.76 835.58,-672.3 841.3,-663.38 834.5,-661.76"/>
</g>
<!-- Node40&#45;&gt;Node4 -->
<g id="edge69" class="edge">
<title>Node40&#45;&gt;Node4</title>
<path fill="none" stroke="midnightblue" d="M901.29,-440.7C918.18,-420.34 943.5,-383.7 943.5,-347 943.5,-347 943.5,-347 943.5,-121 943.5,-75.87 906.5,-74.85 865.5,-56 786.7,-19.78 682.8,-12.39 630.91,-11.09"/>
<polygon fill="midnightblue" stroke="midnightblue" points="898.55,-438.52 894.67,-448.38 903.85,-443.1 898.55,-438.52"/>
</g>
<!-- Node42 -->
<g id="node42" class="node">
<title>Node42</title>
<g id="a_node42"><a xlink:href="api_2schedule_8h.html" target="_top" xlink:title=" ">
<polygon fill="white" stroke="black" points="895,-616.5 895,-635.5 964,-635.5 964,-616.5 895,-616.5"/>
<text text-anchor="middle" x="929.5" y="-623.5" font-family="Helvetica,sans-Serif" font-size="10.00">schedule.h</text>
</a>
</g>
</g>
<!-- Node41&#45;&gt;Node42 -->
<g id="edge71" class="edge">
<title>Node41&#45;&gt;Node42</title>
<path fill="none" stroke="midnightblue" d="M928.21,-661.8C928.54,-652.91 928.92,-642.78 929.18,-635.75"/>
<polygon fill="midnightblue" stroke="midnightblue" points="924.7,-661.96 927.83,-672.08 931.7,-662.22 924.7,-661.96"/>
</g>
<!-- Node42&#45;&gt;Node4 -->
<g id="edge72" class="edge">
<title>Node42&#45;&gt;Node4</title>
<path fill="none" stroke="midnightblue" d="M943.2,-608.21C958.61,-587.58 981.5,-550.88 981.5,-515 981.5,-515 981.5,-515 981.5,-121 981.5,-76.21 945.33,-74.41 904.5,-56 811.74,-14.18 688.63,-9.61 630.94,-10.07"/>
<polygon fill="midnightblue" stroke="midnightblue" points="940.32,-606.21 936.95,-616.26 945.85,-610.5 940.32,-606.21"/>
</g>
</g>
</svg>
