<?xml version="1.0" encoding="UTF-8" standalone="no"?>
<!DOCTYPE svg PUBLIC "-//W3C//DTD SVG 1.1//EN"
 "http://www.w3.org/Graphics/SVG/1.1/DTD/svg11.dtd">
<!-- Generated by graphviz version 2.43.0 (0)
 -->
<!-- Title: schedule.h Pages: 1 -->
<svg width="899pt" height="621pt"
 viewBox="0.00 0.00 898.62 621.00" xmlns="http://www.w3.org/2000/svg" xmlns:xlink="http://www.w3.org/1999/xlink">
<g id="graph0" class="graph" transform="scale(1 1) rotate(0) translate(4 617)">
<title>schedule.h</title>
<polygon fill="white" stroke="transparent" points="-4,4 -4,-617 894.62,-617 894.62,4 -4,4"/>
<!-- Node1 -->
<g id="node1" class="node">
<title>Node1</title>
<g id="a_node1"><a xlink:title=" ">
<polygon fill="#bfbfbf" stroke="black" points="425.5,-593.5 425.5,-612.5 494.5,-612.5 494.5,-593.5 425.5,-593.5"/>
<text text-anchor="middle" x="460" y="-600.5" font-family="Helvetica,sans-Serif" font-size="10.00">schedule.h</text>
</a>
</g>
</g>
<!-- Node2 -->
<g id="node2" class="node">
<title>Node2</title>
<g id="a_node2"><a xlink:title=" ">
<polygon fill="white" stroke="#bfbfbf" points="188.5,-291.5 188.5,-321.5 305.5,-321.5 305.5,-291.5 188.5,-291.5"/>
<text text-anchor="start" x="196.5" y="-309.5" font-family="Helvetica,sans-Serif" font-size="10.00">odp/api/abi/schedule</text>
<text text-anchor="middle" x="247" y="-298.5" font-family="Helvetica,sans-Serif" font-size="10.00">_types.h</text>
</a>
</g>
</g>
<!-- Node1&#45;&gt;Node2 -->
<g id="edge1" class="edge">
<title>Node1&#45;&gt;Node2</title>
<path fill="none" stroke="midnightblue" d="M438.79,-593.41C422.2,-585.83 399.43,-573.43 384,-557 335.15,-504.99 345.62,-476.4 311,-414 294.77,-384.75 274.72,-351.87 261.44,-330.48"/>
<polygon fill="midnightblue" stroke="midnightblue" points="264.28,-328.42 256.02,-321.79 258.34,-332.12 264.28,-328.42"/>
</g>
<!-- Node3 -->
<g id="node3" class="node">
<title>Node3</title>
<g id="a_node3"><a xlink:title=" ">
<polygon fill="white" stroke="#bfbfbf" points="545,-537.5 545,-556.5 671,-556.5 671,-537.5 545,-537.5"/>
<text text-anchor="middle" x="608" y="-544.5" font-family="Helvetica,sans-Serif" font-size="10.00">odp/api/abi/schedule.h</text>
</a>
</g>
</g>
<!-- Node1&#45;&gt;Node3 -->
<g id="edge2" class="edge">
<title>Node1&#45;&gt;Node3</title>
<path fill="none" stroke="midnightblue" d="M483.45,-593.44C508.13,-584.44 547.19,-570.19 574.98,-560.05"/>
<polygon fill="midnightblue" stroke="midnightblue" points="576.46,-563.23 584.66,-556.52 574.06,-556.66 576.46,-563.23"/>
</g>
<!-- Node4 -->
<g id="node4" class="node">
<title>Node4</title>
<g id="a_node4"><a xlink:href="api_2spec_2schedule_8h.html" target="_top" xlink:title=" ">
<polygon fill="white" stroke="black" points="393,-537.5 393,-556.5 527,-556.5 527,-537.5 393,-537.5"/>
<text text-anchor="middle" x="460" y="-544.5" font-family="Helvetica,sans-Serif" font-size="10.00">odp/api/spec/schedule.h</text>
</a>
</g>
</g>
<!-- Node1&#45;&gt;Node4 -->
<g id="edge3" class="edge">
<title>Node1&#45;&gt;Node4</title>
<path fill="none" stroke="midnightblue" d="M460,-593.08C460,-586.01 460,-575.86 460,-566.99"/>
<polygon fill="midnightblue" stroke="midnightblue" points="463.5,-566.75 460,-556.75 456.5,-566.75 463.5,-566.75"/>
</g>
<!-- Node5 -->
<g id="node5" class="node">
<title>Node5</title>
<g id="a_node5"><a xlink:href="visibility__begin_8h_source.html" target="_top" xlink:title=" ">
<polygon fill="white" stroke="black" points="53.5,-0.5 53.5,-19.5 174.5,-19.5 174.5,-0.5 53.5,-0.5"/>
<text text-anchor="middle" x="114" y="-7.5" font-family="Helvetica,sans-Serif" font-size="10.00">odp/visibility_begin.h</text>
</a>
</g>
</g>
<!-- Node4&#45;&gt;Node5 -->
<g id="edge4" class="edge">
<title>Node4&#45;&gt;Node5</title>
<path fill="none" stroke="midnightblue" d="M392.62,-543.04C264.85,-535.58 0,-510.47 0,-430.5 0,-430.5 0,-430.5 0,-132 0,-81.35 53.58,-43.28 87.27,-24.34"/>
<polygon fill="midnightblue" stroke="midnightblue" points="89.06,-27.36 96.19,-19.52 85.73,-21.2 89.06,-27.36"/>
</g>
<!-- Node6 -->
<g id="node6" class="node">
<title>Node6</title>
<g id="a_node6"><a xlink:href="api_2std__types_8h.html" target="_top" xlink:title=" ">
<polygon fill="white" stroke="black" points="421,-235.5 421,-254.5 533,-254.5 533,-235.5 421,-235.5"/>
<text text-anchor="middle" x="477" y="-242.5" font-family="Helvetica,sans-Serif" font-size="10.00">odp/api/std_types.h</text>
</a>
</g>
</g>
<!-- Node4&#45;&gt;Node6 -->
<g id="edge5" class="edge">
<title>Node4&#45;&gt;Node6</title>
<path fill="none" stroke="midnightblue" d="M462.15,-537.37C466.73,-518.25 477,-470.83 477,-430.5 477,-430.5 477,-430.5 477,-367 477,-330.71 477,-288.31 477,-264.56"/>
<polygon fill="midnightblue" stroke="midnightblue" points="480.5,-264.51 477,-254.51 473.5,-264.51 480.5,-264.51"/>
</g>
<!-- Node13 -->
<g id="node13" class="node">
<title>Node13</title>
<g id="a_node13"><a xlink:href="visibility__end_8h_source.html" target="_top" xlink:title=" ">
<polygon fill="white" stroke="black" points="557,-0.5 557,-19.5 669,-19.5 669,-0.5 557,-0.5"/>
<text text-anchor="middle" x="613" y="-7.5" font-family="Helvetica,sans-Serif" font-size="10.00">odp/visibility_end.h</text>
</a>
</g>
</g>
<!-- Node4&#45;&gt;Node13 -->
<g id="edge39" class="edge">
<title>Node4&#45;&gt;Node13</title>
<path fill="none" stroke="midnightblue" d="M526.35,-537.47C595.92,-528.14 700.38,-512.93 739,-501 809.38,-479.26 889,-504.16 889,-430.5 889,-430.5 889,-430.5 889,-132 889,-97.18 895.49,-79.72 870,-56 842.96,-30.83 746.03,-19.46 679.26,-14.53"/>
<polygon fill="midnightblue" stroke="midnightblue" points="679.45,-11.04 669.22,-13.82 678.95,-18.02 679.45,-11.04"/>
</g>
<!-- Node14 -->
<g id="node14" class="node">
<title>Node14</title>
<g id="a_node14"><a xlink:href="api_2event__types_8h.html" target="_top" xlink:title=" ">
<polygon fill="white" stroke="black" points="726.5,-123.5 726.5,-142.5 851.5,-142.5 851.5,-123.5 726.5,-123.5"/>
<text text-anchor="middle" x="789" y="-130.5" font-family="Helvetica,sans-Serif" font-size="10.00">odp/api/event_types.h</text>
</a>
</g>
</g>
<!-- Node4&#45;&gt;Node14 -->
<g id="edge16" class="edge">
<title>Node4&#45;&gt;Node14</title>
<path fill="none" stroke="midnightblue" d="M527.12,-537.5C627.74,-522.85 806,-488.68 806,-430.5 806,-430.5 806,-430.5 806,-244 806,-211.58 798.7,-174.42 793.67,-152.64"/>
<polygon fill="midnightblue" stroke="midnightblue" points="797.03,-151.67 791.29,-142.77 790.23,-153.31 797.03,-151.67"/>
</g>
<!-- Node17 -->
<g id="node17" class="node">
<title>Node17</title>
<g id="a_node17"><a xlink:href="api_2queue__types_8h.html" target="_top" xlink:title=" ">
<polygon fill="white" stroke="black" points="166.5,-481.5 166.5,-500.5 293.5,-500.5 293.5,-481.5 166.5,-481.5"/>
<text text-anchor="middle" x="230" y="-488.5" font-family="Helvetica,sans-Serif" font-size="10.00">odp/api/queue_types.h</text>
</a>
</g>
</g>
<!-- Node4&#45;&gt;Node17 -->
<g id="edge21" class="edge">
<title>Node4&#45;&gt;Node17</title>
<path fill="none" stroke="midnightblue" d="M423.56,-537.44C383.6,-528.06 319.41,-512.99 276.02,-502.8"/>
<polygon fill="midnightblue" stroke="midnightblue" points="276.81,-499.39 266.27,-500.52 275.21,-506.21 276.81,-499.39"/>
</g>
<!-- Node20 -->
<g id="node20" class="node">
<title>Node20</title>
<g id="a_node20"><a xlink:href="api_2schedule__types_8h.html" target="_top" xlink:title=" ">
<polygon fill="white" stroke="black" points="309,-358.5 309,-377.5 449,-377.5 449,-358.5 309,-358.5"/>
<text text-anchor="middle" x="379" y="-365.5" font-family="Helvetica,sans-Serif" font-size="10.00">odp/api/schedule_types.h</text>
</a>
</g>
</g>
<!-- Node4&#45;&gt;Node20 -->
<g id="edge32" class="edge">
<title>Node4&#45;&gt;Node20</title>
<path fill="none" stroke="midnightblue" d="M456.09,-537.46C443.61,-510.19 404.53,-424.78 387.3,-387.13"/>
<polygon fill="midnightblue" stroke="midnightblue" points="390.4,-385.5 383.06,-377.87 384.04,-388.42 390.4,-385.5"/>
</g>
<!-- Node22 -->
<g id="node22" class="node">
<title>Node22</title>
<g id="a_node22"><a xlink:href="api_2thrmask_8h.html" target="_top" xlink:title=" ">
<polygon fill="white" stroke="black" points="518.5,-358.5 518.5,-377.5 623.5,-377.5 623.5,-358.5 518.5,-358.5"/>
<text text-anchor="middle" x="571" y="-365.5" font-family="Helvetica,sans-Serif" font-size="10.00">odp/api/thrmask.h</text>
</a>
</g>
</g>
<!-- Node4&#45;&gt;Node22 -->
<g id="edge33" class="edge">
<title>Node4&#45;&gt;Node22</title>
<path fill="none" stroke="midnightblue" d="M466.09,-537.47C472.46,-528.5 482.65,-513.91 491,-501 517.08,-460.67 545.85,-412.12 560.76,-386.62"/>
<polygon fill="midnightblue" stroke="midnightblue" points="563.92,-388.16 565.93,-377.76 557.87,-384.63 563.92,-388.16"/>
</g>
<!-- Node7 -->
<g id="node7" class="node">
<title>Node7</title>
<g id="a_node7"><a xlink:title=" ">
<polygon fill="white" stroke="#bfbfbf" points="497,-179.5 497,-198.5 627,-198.5 627,-179.5 497,-179.5"/>
<text text-anchor="middle" x="562" y="-186.5" font-family="Helvetica,sans-Serif" font-size="10.00">odp/api/abi/std_types.h</text>
</a>
</g>
</g>
<!-- Node6&#45;&gt;Node7 -->
<g id="edge6" class="edge">
<title>Node6&#45;&gt;Node7</title>
<path fill="none" stroke="midnightblue" d="M490.66,-235.32C503.92,-226.9 524.27,-213.97 539.85,-204.07"/>
<polygon fill="midnightblue" stroke="midnightblue" points="541.81,-206.97 548.38,-198.65 538.06,-201.06 541.81,-206.97"/>
</g>
<!-- Node8 -->
<g id="node8" class="node">
<title>Node8</title>
<g id="a_node8"><a xlink:href="api_2spec_2std__types_8h.html" target="_top" xlink:title=" ">
<polygon fill="white" stroke="black" points="265.5,-179.5 265.5,-198.5 402.5,-198.5 402.5,-179.5 265.5,-179.5"/>
<text text-anchor="middle" x="334" y="-186.5" font-family="Helvetica,sans-Serif" font-size="10.00">odp/api/spec/std_types.h</text>
</a>
</g>
</g>
<!-- Node6&#45;&gt;Node8 -->
<g id="edge7" class="edge">
<title>Node6&#45;&gt;Node8</title>
<path fill="none" stroke="midnightblue" d="M454.34,-235.44C430.6,-226.48 393.09,-212.31 366.26,-202.18"/>
<polygon fill="midnightblue" stroke="midnightblue" points="367.14,-198.77 356.55,-198.52 364.67,-205.32 367.14,-198.77"/>
</g>
<!-- Node8&#45;&gt;Node5 -->
<g id="edge8" class="edge">
<title>Node8&#45;&gt;Node5</title>
<path fill="none" stroke="midnightblue" d="M297.49,-179.48C272.84,-172.49 240.46,-160.8 216,-143 172.83,-111.58 138.94,-56.96 123.35,-28.85"/>
<polygon fill="midnightblue" stroke="midnightblue" points="126.29,-26.91 118.45,-19.78 120.13,-30.24 126.29,-26.91"/>
</g>
<!-- Node9 -->
<g id="node9" class="node">
<title>Node9</title>
<g id="a_node9"><a xlink:title=" ">
<polygon fill="white" stroke="#bfbfbf" points="332.5,-123.5 332.5,-142.5 385.5,-142.5 385.5,-123.5 332.5,-123.5"/>
<text text-anchor="middle" x="359" y="-130.5" font-family="Helvetica,sans-Serif" font-size="10.00">stdint.h</text>
</a>
</g>
</g>
<!-- Node8&#45;&gt;Node9 -->
<g id="edge9" class="edge">
<title>Node8&#45;&gt;Node9</title>
<path fill="none" stroke="midnightblue" d="M338.13,-179.08C341.51,-171.77 346.42,-161.18 350.62,-152.1"/>
<polygon fill="midnightblue" stroke="midnightblue" points="353.92,-153.3 354.95,-142.75 347.57,-150.36 353.92,-153.3"/>
</g>
<!-- Node10 -->
<g id="node10" class="node">
<title>Node10</title>
<g id="a_node10"><a xlink:href="api_2align_8h.html" target="_top" xlink:title=" ">
<polygon fill="white" stroke="black" points="225.5,-123.5 225.5,-142.5 314.5,-142.5 314.5,-123.5 225.5,-123.5"/>
<text text-anchor="middle" x="270" y="-130.5" font-family="Helvetica,sans-Serif" font-size="10.00">odp/api/align.h</text>
</a>
</g>
</g>
<!-- Node8&#45;&gt;Node10 -->
<g id="edge10" class="edge">
<title>Node8&#45;&gt;Node10</title>
<path fill="none" stroke="midnightblue" d="M323.72,-179.32C314.16,-171.26 299.72,-159.08 288.22,-149.37"/>
<polygon fill="midnightblue" stroke="midnightblue" points="290.37,-146.61 280.47,-142.83 285.86,-151.96 290.37,-146.61"/>
</g>
<!-- Node8&#45;&gt;Node13 -->
<g id="edge15" class="edge">
<title>Node8&#45;&gt;Node13</title>
<path fill="none" stroke="midnightblue" d="M364.62,-179.44C410.02,-165.63 496.27,-135.02 556,-87 576.42,-70.59 593.44,-45.29 603.42,-28.44"/>
<polygon fill="midnightblue" stroke="midnightblue" points="606.53,-30.05 608.46,-19.63 600.46,-26.58 606.53,-30.05"/>
</g>
<!-- Node11 -->
<g id="node11" class="node">
<title>Node11</title>
<g id="a_node11"><a xlink:title=" ">
<polygon fill="white" stroke="#bfbfbf" points="312.5,-62 312.5,-81 419.5,-81 419.5,-62 312.5,-62"/>
<text text-anchor="middle" x="366" y="-69" font-family="Helvetica,sans-Serif" font-size="10.00">odp/api/abi/align.h</text>
</a>
</g>
</g>
<!-- Node10&#45;&gt;Node11 -->
<g id="edge11" class="edge">
<title>Node10&#45;&gt;Node11</title>
<path fill="none" stroke="midnightblue" d="M283.75,-123.48C299.37,-113.8 325.06,-97.87 343.58,-86.39"/>
<polygon fill="midnightblue" stroke="midnightblue" points="345.62,-89.25 352.27,-81.01 341.93,-83.3 345.62,-89.25"/>
</g>
<!-- Node12 -->
<g id="node12" class="node">
<title>Node12</title>
<g id="a_node12"><a xlink:href="api_2spec_2align_8h.html" target="_top" xlink:title=" ">
<polygon fill="white" stroke="black" points="180,-62 180,-81 294,-81 294,-62 180,-62"/>
<text text-anchor="middle" x="237" y="-69" font-family="Helvetica,sans-Serif" font-size="10.00">odp/api/spec/align.h</text>
</a>
</g>
</g>
<!-- Node10&#45;&gt;Node12 -->
<g id="edge12" class="edge">
<title>Node10&#45;&gt;Node12</title>
<path fill="none" stroke="midnightblue" d="M265.27,-123.48C260.42,-114.73 252.73,-100.87 246.6,-89.81"/>
<polygon fill="midnightblue" stroke="midnightblue" points="249.63,-88.06 241.72,-81.01 243.51,-91.45 249.63,-88.06"/>
</g>
<!-- Node12&#45;&gt;Node5 -->
<g id="edge13" class="edge">
<title>Node12&#45;&gt;Node5</title>
<path fill="none" stroke="midnightblue" d="M219.38,-61.98C198.83,-52.03 164.64,-35.49 140.79,-23.96"/>
<polygon fill="midnightblue" stroke="midnightblue" points="142.12,-20.71 131.59,-19.51 139.07,-27.01 142.12,-20.71"/>
</g>
<!-- Node12&#45;&gt;Node13 -->
<g id="edge14" class="edge">
<title>Node12&#45;&gt;Node13</title>
<path fill="none" stroke="midnightblue" d="M273.56,-61.98C283.11,-59.88 293.42,-57.75 303,-56 386.62,-40.76 483.69,-27.36 546.62,-19.23"/>
<polygon fill="midnightblue" stroke="midnightblue" points="547.33,-22.67 556.8,-17.92 546.44,-15.72 547.33,-22.67"/>
</g>
<!-- Node15 -->
<g id="node15" class="node">
<title>Node15</title>
<g id="a_node15"><a xlink:title=" ">
<polygon fill="white" stroke="#bfbfbf" points="717.5,-62 717.5,-81 860.5,-81 860.5,-62 717.5,-62"/>
<text text-anchor="middle" x="789" y="-69" font-family="Helvetica,sans-Serif" font-size="10.00">odp/api/abi/event_types.h</text>
</a>
</g>
</g>
<!-- Node14&#45;&gt;Node15 -->
<g id="edge17" class="edge">
<title>Node14&#45;&gt;Node15</title>
<path fill="none" stroke="midnightblue" d="M789,-123.48C789,-115.08 789,-101.98 789,-91.16"/>
<polygon fill="midnightblue" stroke="midnightblue" points="792.5,-91.01 789,-81.01 785.5,-91.01 792.5,-91.01"/>
</g>
<!-- Node16 -->
<g id="node16" class="node">
<title>Node16</title>
<g id="a_node16"><a xlink:href="api_2spec_2event__types_8h.html" target="_top" xlink:title=" ">
<polygon fill="white" stroke="black" points="437.5,-56.5 437.5,-86.5 546.5,-86.5 546.5,-56.5 437.5,-56.5"/>
<text text-anchor="start" x="445.5" y="-74.5" font-family="Helvetica,sans-Serif" font-size="10.00">odp/api/spec/event</text>
<text text-anchor="middle" x="492" y="-63.5" font-family="Helvetica,sans-Serif" font-size="10.00">_types.h</text>
</a>
</g>
</g>
<!-- Node14&#45;&gt;Node16 -->
<g id="edge18" class="edge">
<title>Node14&#45;&gt;Node16</title>
<path fill="none" stroke="midnightblue" d="M746.45,-123.48C696.82,-113.53 614.24,-96.99 556.67,-85.46"/>
<polygon fill="midnightblue" stroke="midnightblue" points="557.08,-81.97 546.58,-83.43 555.7,-88.83 557.08,-81.97"/>
</g>
<!-- Node16&#45;&gt;Node5 -->
<g id="edge19" class="edge">
<title>Node16&#45;&gt;Node5</title>
<path fill="none" stroke="midnightblue" d="M437.25,-57.79C434.12,-57.16 431.02,-56.56 428,-56 344.85,-40.65 248.49,-27.52 184.68,-19.48"/>
<polygon fill="midnightblue" stroke="midnightblue" points="185.08,-16 174.72,-18.23 184.21,-22.95 185.08,-16"/>
</g>
<!-- Node16&#45;&gt;Node13 -->
<g id="edge20" class="edge">
<title>Node16&#45;&gt;Node13</title>
<path fill="none" stroke="midnightblue" d="M520.68,-56.4C540.52,-46.64 566.76,-33.74 586.19,-24.18"/>
<polygon fill="midnightblue" stroke="midnightblue" points="587.96,-27.21 595.39,-19.66 584.88,-20.93 587.96,-27.21"/>
</g>
<!-- Node18 -->
<g id="node18" class="node">
<title>Node18</title>
<g id="a_node18"><a xlink:title=" ">
<polygon fill="white" stroke="#bfbfbf" points="157.5,-420 157.5,-439 302.5,-439 302.5,-420 157.5,-420"/>
<text text-anchor="middle" x="230" y="-427" font-family="Helvetica,sans-Serif" font-size="10.00">odp/api/abi/queue_types.h</text>
</a>
</g>
</g>
<!-- Node17&#45;&gt;Node18 -->
<g id="edge22" class="edge">
<title>Node17&#45;&gt;Node18</title>
<path fill="none" stroke="midnightblue" d="M230,-481.48C230,-473.08 230,-459.98 230,-449.16"/>
<polygon fill="midnightblue" stroke="midnightblue" points="233.5,-449.01 230,-439.01 226.5,-449.01 233.5,-449.01"/>
</g>
<!-- Node19 -->
<g id="node19" class="node">
<title>Node19</title>
<g id="a_node19"><a xlink:href="api_2spec_2queue__types_8h.html" target="_top" xlink:title=" ">
<polygon fill="white" stroke="black" points="28.5,-414.5 28.5,-444.5 139.5,-444.5 139.5,-414.5 28.5,-414.5"/>
<text text-anchor="start" x="36.5" y="-432.5" font-family="Helvetica,sans-Serif" font-size="10.00">odp/api/spec/queue</text>
<text text-anchor="middle" x="84" y="-421.5" font-family="Helvetica,sans-Serif" font-size="10.00">_types.h</text>
</a>
</g>
</g>
<!-- Node17&#45;&gt;Node19 -->
<g id="edge23" class="edge">
<title>Node17&#45;&gt;Node19</title>
<path fill="none" stroke="midnightblue" d="M209.08,-481.48C188.01,-472.89 154.87,-459.38 127.99,-448.43"/>
<polygon fill="midnightblue" stroke="midnightblue" points="128.99,-445.06 118.41,-444.52 126.35,-451.54 128.99,-445.06"/>
</g>
<!-- Node19&#45;&gt;Node5 -->
<g id="edge24" class="edge">
<title>Node19&#45;&gt;Node5</title>
<path fill="none" stroke="midnightblue" d="M74.69,-414.27C61.25,-392.3 38,-348.4 38,-307.5 38,-307.5 38,-307.5 38,-132 38,-88.48 73.7,-47.77 96.16,-26.47"/>
<polygon fill="midnightblue" stroke="midnightblue" points="98.73,-28.86 103.75,-19.53 94.01,-23.7 98.73,-28.86"/>
</g>
<!-- Node19&#45;&gt;Node13 -->
<g id="edge31" class="edge">
<title>Node19&#45;&gt;Node13</title>
<path fill="none" stroke="midnightblue" d="M90.26,-414.37C103.09,-386.92 134.92,-326 179,-291 266.19,-221.76 313.07,-250.08 412,-199 422.13,-193.77 576.84,-95.87 584,-87 597.55,-70.21 605.25,-46.4 609.26,-29.92"/>
<polygon fill="midnightblue" stroke="midnightblue" points="612.75,-30.38 611.48,-19.87 605.91,-28.88 612.75,-30.38"/>
</g>
<!-- Node19&#45;&gt;Node20 -->
<g id="edge25" class="edge">
<title>Node19&#45;&gt;Node20</title>
<path fill="none" stroke="midnightblue" d="M139.83,-415.75C142.59,-415.15 145.32,-414.56 148,-414 207.6,-401.45 276.11,-388.26 322.95,-379.43"/>
<polygon fill="midnightblue" stroke="midnightblue" points="323.72,-382.84 332.9,-377.55 322.42,-375.96 323.72,-382.84"/>
</g>
<!-- Node20&#45;&gt;Node2 -->
<g id="edge26" class="edge">
<title>Node20&#45;&gt;Node2</title>
<path fill="none" stroke="midnightblue" d="M360.09,-358.48C341.21,-349.96 311.6,-336.62 287.42,-325.72"/>
<polygon fill="midnightblue" stroke="midnightblue" points="288.66,-322.44 278.11,-321.52 285.79,-328.82 288.66,-322.44"/>
</g>
<!-- Node21 -->
<g id="node21" class="node">
<title>Node21</title>
<g id="a_node21"><a xlink:href="api_2spec_2schedule__types_8h.html" target="_top" xlink:title=" ">
<polygon fill="white" stroke="black" points="323.5,-291.5 323.5,-321.5 448.5,-321.5 448.5,-291.5 323.5,-291.5"/>
<text text-anchor="start" x="331.5" y="-309.5" font-family="Helvetica,sans-Serif" font-size="10.00">odp/api/spec/schedule</text>
<text text-anchor="middle" x="386" y="-298.5" font-family="Helvetica,sans-Serif" font-size="10.00">_types.h</text>
</a>
</g>
</g>
<!-- Node20&#45;&gt;Node21 -->
<g id="edge27" class="edge">
<title>Node20&#45;&gt;Node21</title>
<path fill="none" stroke="midnightblue" d="M380,-358.48C380.83,-351.47 382.04,-341.19 383.15,-331.7"/>
<polygon fill="midnightblue" stroke="midnightblue" points="386.66,-331.86 384.35,-321.52 379.71,-331.05 386.66,-331.86"/>
</g>
<!-- Node21&#45;&gt;Node5 -->
<g id="edge28" class="edge">
<title>Node21&#45;&gt;Node5</title>
<path fill="none" stroke="midnightblue" d="M323.69,-291.44C253.61,-271.8 143.86,-228.49 100,-143 81.05,-106.06 95.71,-55.73 106.05,-29.16"/>
<polygon fill="midnightblue" stroke="midnightblue" points="109.41,-30.2 109.99,-19.62 102.94,-27.53 109.41,-30.2"/>
</g>
<!-- Node21&#45;&gt;Node6 -->
<g id="edge29" class="edge">
<title>Node21&#45;&gt;Node6</title>
<path fill="none" stroke="midnightblue" d="M407.57,-291.4C421.88,-282.04 440.61,-269.79 455.01,-260.38"/>
<polygon fill="midnightblue" stroke="midnightblue" points="457.3,-263.06 463.76,-254.66 453.47,-257.2 457.3,-263.06"/>
</g>
<!-- Node21&#45;&gt;Node13 -->
<g id="edge30" class="edge">
<title>Node21&#45;&gt;Node13</title>
<path fill="none" stroke="midnightblue" d="M388.68,-291.36C392.09,-276.23 399.15,-252.1 412,-235 437.21,-201.46 450.12,-197.03 488,-179 545.62,-151.57 587.94,-193.47 627,-143 652.89,-109.55 634.46,-56.21 621.95,-28.7"/>
<polygon fill="midnightblue" stroke="midnightblue" points="625.03,-27.02 617.55,-19.51 618.71,-30.04 625.03,-27.02"/>
</g>
<!-- Node23 -->
<g id="node23" class="node">
<title>Node23</title>
<g id="a_node23"><a xlink:title=" ">
<polygon fill="white" stroke="#bfbfbf" points="654.5,-297 654.5,-316 777.5,-316 777.5,-297 654.5,-297"/>
<text text-anchor="middle" x="716" y="-304" font-family="Helvetica,sans-Serif" font-size="10.00">odp/api/abi/thrmask.h</text>
</a>
</g>
</g>
<!-- Node22&#45;&gt;Node23 -->
<g id="edge34" class="edge">
<title>Node22&#45;&gt;Node23</title>
<path fill="none" stroke="midnightblue" d="M591.77,-358.48C616.43,-348.36 657.75,-331.4 685.9,-319.85"/>
<polygon fill="midnightblue" stroke="midnightblue" points="687.34,-323.04 695.26,-316.01 684.68,-316.57 687.34,-323.04"/>
</g>
<!-- Node24 -->
<g id="node24" class="node">
<title>Node24</title>
<g id="a_node24"><a xlink:href="api_2spec_2thrmask_8h.html" target="_top" xlink:title=" ">
<polygon fill="white" stroke="black" points="505.5,-297 505.5,-316 636.5,-316 636.5,-297 505.5,-297"/>
<text text-anchor="middle" x="571" y="-304" font-family="Helvetica,sans-Serif" font-size="10.00">odp/api/spec/thrmask.h</text>
</a>
</g>
</g>
<!-- Node22&#45;&gt;Node24 -->
<g id="edge35" class="edge">
<title>Node22&#45;&gt;Node24</title>
<path fill="none" stroke="midnightblue" d="M571,-358.48C571,-350.08 571,-336.98 571,-326.16"/>
<polygon fill="midnightblue" stroke="midnightblue" points="574.5,-326.01 571,-316.01 567.5,-326.01 574.5,-326.01"/>
</g>
<!-- Node24&#45;&gt;Node5 -->
<g id="edge36" class="edge">
<title>Node24&#45;&gt;Node5</title>
<path fill="none" stroke="midnightblue" d="M570.19,-296.9C568.27,-281.71 561.97,-250.28 542,-235 440.23,-157.17 373.27,-250.59 256,-199 189.52,-169.76 173.46,-149.82 137,-87 126.64,-69.15 120.53,-46.2 117.25,-30.21"/>
<polygon fill="midnightblue" stroke="midnightblue" points="120.61,-29.15 115.33,-19.97 113.73,-30.44 120.61,-29.15"/>
</g>
<!-- Node24&#45;&gt;Node6 -->
<g id="edge37" class="edge">
<title>Node24&#45;&gt;Node6</title>
<path fill="none" stroke="midnightblue" d="M557.53,-296.98C542.32,-287.34 517.31,-271.52 499.2,-260.05"/>
<polygon fill="midnightblue" stroke="midnightblue" points="500.76,-256.9 490.44,-254.51 497.02,-262.81 500.76,-256.9"/>
</g>
<!-- Node24&#45;&gt;Node13 -->
<g id="edge38" class="edge">
<title>Node24&#45;&gt;Node13</title>
<path fill="none" stroke="midnightblue" d="M591.28,-296.92C625.02,-281.12 689,-244.04 689,-190 689,-190 689,-190 689,-132 689,-96.58 684.46,-85.6 665,-56 657.21,-44.15 645.46,-33.62 635.1,-25.72"/>
<polygon fill="midnightblue" stroke="midnightblue" points="636.99,-22.77 626.84,-19.74 632.88,-28.44 636.99,-22.77"/>
</g>
</g>
</svg>
