<?xml version="1.0" encoding="UTF-8" standalone="no"?>
<!DOCTYPE svg PUBLIC "-//W3C//DTD SVG 1.1//EN"
 "http://www.w3.org/Graphics/SVG/1.1/DTD/svg11.dtd">
<!-- Generated by graphviz version 2.43.0 (0)
 -->
<!-- Title: thrmask.h Pages: 1 -->
<svg width="494pt" height="308pt"
 viewBox="0.00 0.00 494.00 308.00" xmlns="http://www.w3.org/2000/svg" xmlns:xlink="http://www.w3.org/1999/xlink">
<g id="graph0" class="graph" transform="scale(1 1) rotate(0) translate(4 304)">
<title>thrmask.h</title>
<polygon fill="white" stroke="transparent" points="-4,4 -4,-304 490,-304 490,4 -4,4"/>
<!-- Node1 -->
<g id="node1" class="node">
<title>Node1</title>
<g id="a_node1"><a xlink:title=" ">
<polygon fill="#bfbfbf" stroke="black" points="210,-280.5 210,-299.5 276,-299.5 276,-280.5 210,-280.5"/>
<text text-anchor="middle" x="243" y="-287.5" font-family="Helvetica,sans-Serif" font-size="10.00">thrmask.h</text>
</a>
</g>
</g>
<!-- Node2 -->
<g id="node2" class="node">
<title>Node2</title>
<g id="a_node2"><a xlink:href="arch_2arm32-linux_2odp_2api_2abi_2thrmask_8h_source.html" target="_top" xlink:title=" ">
<polygon fill="white" stroke="black" points="0,-224.5 0,-243.5 66,-243.5 66,-224.5 0,-224.5"/>
<text text-anchor="middle" x="33" y="-231.5" font-family="Helvetica,sans-Serif" font-size="10.00">thrmask.h</text>
</a>
</g>
</g>
<!-- Node1&#45;&gt;Node2 -->
<g id="edge1" class="edge">
<title>Node1&#45;&gt;Node2</title>
<path fill="none" stroke="midnightblue" d="M199.81,-277.89C160.15,-267.7 102.23,-252.8 66.12,-243.52"/>
<polygon fill="midnightblue" stroke="midnightblue" points="199.17,-281.34 209.72,-280.44 200.91,-274.56 199.17,-281.34"/>
</g>
<!-- Node3 -->
<g id="node3" class="node">
<title>Node3</title>
<g id="a_node3"><a xlink:href="arch_2arm64-linux_2odp_2api_2abi_2thrmask_8h_source.html" target="_top" xlink:title=" ">
<polygon fill="white" stroke="black" points="84,-224.5 84,-243.5 150,-243.5 150,-224.5 84,-224.5"/>
<text text-anchor="middle" x="117" y="-231.5" font-family="Helvetica,sans-Serif" font-size="10.00">thrmask.h</text>
</a>
</g>
</g>
<!-- Node1&#45;&gt;Node3 -->
<g id="edge2" class="edge">
<title>Node1&#45;&gt;Node3</title>
<path fill="none" stroke="midnightblue" d="M213.84,-276.5C190.22,-266.38 157.57,-252.39 136.87,-243.52"/>
<polygon fill="midnightblue" stroke="midnightblue" points="212.46,-279.72 223.03,-280.44 215.22,-273.29 212.46,-279.72"/>
</g>
<!-- Node4 -->
<g id="node4" class="node">
<title>Node4</title>
<g id="a_node4"><a xlink:href="arch_2default-linux_2odp_2api_2abi_2thrmask_8h_source.html" target="_top" xlink:title=" ">
<polygon fill="white" stroke="black" points="168,-224.5 168,-243.5 234,-243.5 234,-224.5 168,-224.5"/>
<text text-anchor="middle" x="201" y="-231.5" font-family="Helvetica,sans-Serif" font-size="10.00">thrmask.h</text>
</a>
</g>
</g>
<!-- Node1&#45;&gt;Node4 -->
<g id="edge3" class="edge">
<title>Node1&#45;&gt;Node4</title>
<path fill="none" stroke="midnightblue" d="M229.89,-272.14C222.57,-262.74 213.76,-251.4 207.81,-243.75"/>
<polygon fill="midnightblue" stroke="midnightblue" points="227.16,-274.34 236.06,-280.08 232.69,-270.04 227.16,-274.34"/>
</g>
<!-- Node5 -->
<g id="node5" class="node">
<title>Node5</title>
<g id="a_node5"><a xlink:href="arch_2power64-linux_2odp_2api_2abi_2thrmask_8h_source.html" target="_top" xlink:title=" ">
<polygon fill="white" stroke="black" points="252,-224.5 252,-243.5 318,-243.5 318,-224.5 252,-224.5"/>
<text text-anchor="middle" x="285" y="-231.5" font-family="Helvetica,sans-Serif" font-size="10.00">thrmask.h</text>
</a>
</g>
</g>
<!-- Node1&#45;&gt;Node5 -->
<g id="edge4" class="edge">
<title>Node1&#45;&gt;Node5</title>
<path fill="none" stroke="midnightblue" d="M256.11,-272.14C263.43,-262.74 272.24,-251.4 278.19,-243.75"/>
<polygon fill="midnightblue" stroke="midnightblue" points="253.31,-270.04 249.94,-280.08 258.84,-274.34 253.31,-270.04"/>
</g>
<!-- Node6 -->
<g id="node6" class="node">
<title>Node6</title>
<g id="a_node6"><a xlink:href="arch_2x86__32-linux_2odp_2api_2abi_2thrmask_8h_source.html" target="_top" xlink:title=" ">
<polygon fill="white" stroke="black" points="336,-224.5 336,-243.5 402,-243.5 402,-224.5 336,-224.5"/>
<text text-anchor="middle" x="369" y="-231.5" font-family="Helvetica,sans-Serif" font-size="10.00">thrmask.h</text>
</a>
</g>
</g>
<!-- Node1&#45;&gt;Node6 -->
<g id="edge5" class="edge">
<title>Node1&#45;&gt;Node6</title>
<path fill="none" stroke="midnightblue" d="M272.16,-276.5C295.78,-266.38 328.43,-252.39 349.13,-243.52"/>
<polygon fill="midnightblue" stroke="midnightblue" points="270.78,-273.29 262.97,-280.44 273.54,-279.72 270.78,-273.29"/>
</g>
<!-- Node7 -->
<g id="node7" class="node">
<title>Node7</title>
<g id="a_node7"><a xlink:href="arch_2x86__64-linux_2odp_2api_2abi_2thrmask_8h_source.html" target="_top" xlink:title=" ">
<polygon fill="white" stroke="black" points="420,-224.5 420,-243.5 486,-243.5 486,-224.5 420,-224.5"/>
<text text-anchor="middle" x="453" y="-231.5" font-family="Helvetica,sans-Serif" font-size="10.00">thrmask.h</text>
</a>
</g>
</g>
<!-- Node1&#45;&gt;Node7 -->
<g id="edge6" class="edge">
<title>Node1&#45;&gt;Node7</title>
<path fill="none" stroke="midnightblue" d="M286.19,-277.89C325.85,-267.7 383.77,-252.8 419.88,-243.52"/>
<polygon fill="midnightblue" stroke="midnightblue" points="285.09,-274.56 276.28,-280.44 286.83,-281.34 285.09,-274.56"/>
</g>
<!-- Node8 -->
<g id="node8" class="node">
<title>Node8</title>
<g id="a_node8"><a xlink:href="api_2thrmask_8h.html" target="_top" xlink:title=" ">
<polygon fill="white" stroke="black" points="420,-168.5 420,-187.5 486,-187.5 486,-168.5 420,-168.5"/>
<text text-anchor="middle" x="453" y="-175.5" font-family="Helvetica,sans-Serif" font-size="10.00">thrmask.h</text>
</a>
</g>
</g>
<!-- Node7&#45;&gt;Node8 -->
<g id="edge7" class="edge">
<title>Node7&#45;&gt;Node8</title>
<path fill="none" stroke="midnightblue" d="M453,-213.8C453,-204.91 453,-194.78 453,-187.75"/>
<polygon fill="midnightblue" stroke="midnightblue" points="449.5,-214.08 453,-224.08 456.5,-214.08 449.5,-214.08"/>
</g>
<!-- Node9 -->
<g id="node9" class="node">
<title>Node9</title>
<g id="a_node9"><a xlink:href="api_2spec_2schedule_8h.html" target="_top" xlink:title=" ">
<polygon fill="white" stroke="black" points="387.5,-112.5 387.5,-131.5 456.5,-131.5 456.5,-112.5 387.5,-112.5"/>
<text text-anchor="middle" x="422" y="-119.5" font-family="Helvetica,sans-Serif" font-size="10.00">schedule.h</text>
</a>
</g>
</g>
<!-- Node8&#45;&gt;Node9 -->
<g id="edge8" class="edge">
<title>Node8&#45;&gt;Node9</title>
<path fill="none" stroke="midnightblue" d="M442.82,-159.27C437.53,-150.05 431.28,-139.17 427.02,-131.75"/>
<polygon fill="midnightblue" stroke="midnightblue" points="439.87,-161.15 447.88,-168.08 445.94,-157.67 439.87,-161.15"/>
</g>
<!-- Node11 -->
<g id="node11" class="node">
<title>Node11</title>
<g id="a_node11"><a xlink:href="odp__api_8h.html" target="_top" xlink:title=" ">
<polygon fill="white" stroke="black" points="421,-0.5 421,-19.5 485,-19.5 485,-0.5 421,-0.5"/>
<text text-anchor="middle" x="453" y="-7.5" font-family="Helvetica,sans-Serif" font-size="10.00">odp_api.h</text>
</a>
</g>
</g>
<!-- Node8&#45;&gt;Node11 -->
<g id="edge11" class="edge">
<title>Node8&#45;&gt;Node11</title>
<path fill="none" stroke="midnightblue" d="M459.55,-158.7C462.11,-150.63 464.73,-140.96 466,-132 470.73,-98.56 470.73,-89.44 466,-56 464.18,-43.12 459.55,-28.76 456.34,-19.8"/>
<polygon fill="midnightblue" stroke="midnightblue" points="456.23,-157.6 456.34,-168.2 462.86,-159.84 456.23,-157.6"/>
</g>
<!-- Node10 -->
<g id="node10" class="node">
<title>Node10</title>
<g id="a_node10"><a xlink:href="api_2schedule_8h.html" target="_top" xlink:title=" ">
<polygon fill="white" stroke="black" points="387.5,-56.5 387.5,-75.5 456.5,-75.5 456.5,-56.5 387.5,-56.5"/>
<text text-anchor="middle" x="422" y="-63.5" font-family="Helvetica,sans-Serif" font-size="10.00">schedule.h</text>
</a>
</g>
</g>
<!-- Node9&#45;&gt;Node10 -->
<g id="edge9" class="edge">
<title>Node9&#45;&gt;Node10</title>
<path fill="none" stroke="midnightblue" d="M422,-101.8C422,-92.91 422,-82.78 422,-75.75"/>
<polygon fill="midnightblue" stroke="midnightblue" points="418.5,-102.08 422,-112.08 425.5,-102.08 418.5,-102.08"/>
</g>
<!-- Node10&#45;&gt;Node11 -->
<g id="edge10" class="edge">
<title>Node10&#45;&gt;Node11</title>
<path fill="none" stroke="midnightblue" d="M432.18,-47.27C437.47,-38.05 443.72,-27.17 447.98,-19.75"/>
<polygon fill="midnightblue" stroke="midnightblue" points="429.06,-45.67 427.12,-56.08 435.13,-49.15 429.06,-45.67"/>
</g>
</g>
</svg>
