<?xml version="1.0" encoding="UTF-8" standalone="no"?>
<!DOCTYPE svg PUBLIC "-//W3C//DTD SVG 1.1//EN"
 "http://www.w3.org/Graphics/SVG/1.1/DTD/svg11.dtd">
<!-- Generated by graphviz version 2.43.0 (0)
 -->
<!-- Title: arch Pages: 1 -->
<svg width="696pt" height="159pt"
 viewBox="0.00 0.00 696.00 159.00" xmlns="http://www.w3.org/2000/svg" xmlns:xlink="http://www.w3.org/1999/xlink">
<g id="graph0" class="graph" transform="scale(1 1) rotate(0) translate(4 155)">
<title>arch</title>
<polygon fill="white" stroke="transparent" points="-4,4 -4,-155 692,-155 692,4 -4,4"/>
<g id="clust1" class="cluster">
<title>clusterdir_a97ec78d987d17ef5986981beb9a2005</title>
<g id="a_clust1"><a xlink:href="dir_a97ec78d987d17ef5986981beb9a2005.html" target="_top" xlink:title="odp">
<polygon fill="#ddddee" stroke="black" points="8,-56 8,-143 680,-143 680,-56 8,-56"/>
<text text-anchor="middle" x="344" y="-131" font-family="Helvetica,sans-Serif" font-size="10.00">odp</text>
</a>
</g>
</g>
<g id="clust2" class="cluster">
<title>clusterdir_4eda4fd55dd0f0d3e72752e79818319a</title>
<g id="a_clust2"><a xlink:href="dir_4eda4fd55dd0f0d3e72752e79818319a.html" target="_top">
<polygon fill="#eeeeff" stroke="black" points="16,-64 16,-116 672,-116 672,-64 16,-64"/>
</a>
</g>
</g>
<!-- dir_4eda4fd55dd0f0d3e72752e79818319a -->
<g id="node1" class="node">
<title>dir_4eda4fd55dd0f0d3e72752e79818319a</title>
<text text-anchor="middle" x="637" y="-87.5" font-family="Helvetica,sans-Serif" font-size="10.00">arch</text>
</g>
<!-- dir_052e7602a29a4e1039e7de666bce86ca -->
<g id="node2" class="node">
<title>dir_052e7602a29a4e1039e7de666bce86ca</title>
<g id="a_node2"><a xlink:href="dir_052e7602a29a4e1039e7de666bce86ca.html" target="_top" xlink:title="arm32&#45;linux">
<polygon fill="white" stroke="red" points="592,-108 516,-108 516,-72 592,-72 592,-108"/>
<text text-anchor="middle" x="554" y="-87.5" font-family="Helvetica,sans-Serif" font-size="10.00">arm32&#45;linux</text>
</a>
</g>
</g>
<!-- dir_be9f6d876b8eda462084eff1b3ea4553 -->
<g id="node8" class="node">
<title>dir_be9f6d876b8eda462084eff1b3ea4553</title>
<g id="a_node8"><a xlink:href="dir_be9f6d876b8eda462084eff1b3ea4553.html" target="_top" xlink:title="api">
<polygon fill="white" stroke="red" points="340,-36 286,-36 286,0 340,0 340,-36"/>
<text text-anchor="middle" x="313" y="-15.5" font-family="Helvetica,sans-Serif" font-size="10.00">api</text>
</a>
</g>
</g>
<!-- dir_052e7602a29a4e1039e7de666bce86ca&#45;&gt;dir_be9f6d876b8eda462084eff1b3ea4553 -->
<g id="edge6" class="edge">
<title>dir_052e7602a29a4e1039e7de666bce86ca&#45;&gt;dir_be9f6d876b8eda462084eff1b3ea4553</title>
<path fill="none" stroke="black" d="M533.61,-71.84C525.73,-66.01 516.37,-59.96 507,-56 455.26,-34.11 390.27,-25.08 350.2,-21.42"/>
<polygon fill="black" stroke="black" points="350.34,-17.92 340.08,-20.56 349.75,-24.89 350.34,-17.92"/>
<g id="a_edge6&#45;headlabel"><a xlink:href="dir_000006_000002.html" target="_top" xlink:title="25">
<text text-anchor="middle" x="354.16" y="-12.89" font-family="Helvetica,sans-Serif" font-size="10.00">25</text>
</a>
</g>
</g>
<!-- dir_70eaa2f41713610ea0cf8498c63ac358 -->
<g id="node3" class="node">
<title>dir_70eaa2f41713610ea0cf8498c63ac358</title>
<g id="a_node3"><a xlink:href="dir_70eaa2f41713610ea0cf8498c63ac358.html" target="_top" xlink:title="arm64&#45;linux">
<polygon fill="white" stroke="red" points="498,-108 422,-108 422,-72 498,-72 498,-108"/>
<text text-anchor="middle" x="460" y="-87.5" font-family="Helvetica,sans-Serif" font-size="10.00">arm64&#45;linux</text>
</a>
</g>
</g>
<!-- dir_70eaa2f41713610ea0cf8498c63ac358&#45;&gt;dir_be9f6d876b8eda462084eff1b3ea4553 -->
<g id="edge2" class="edge">
<title>dir_70eaa2f41713610ea0cf8498c63ac358&#45;&gt;dir_be9f6d876b8eda462084eff1b3ea4553</title>
<path fill="none" stroke="black" d="M438.28,-71.99C430.57,-66.44 421.65,-60.54 413,-56 392.9,-45.45 369.11,-36.52 349.78,-30.08"/>
<polygon fill="black" stroke="black" points="350.71,-26.7 340.12,-26.94 348.55,-33.36 350.71,-26.7"/>
<g id="a_edge2&#45;headlabel"><a xlink:href="dir_000010_000002.html" target="_top" xlink:title="25">
<text text-anchor="middle" x="355.01" y="-22.61" font-family="Helvetica,sans-Serif" font-size="10.00">25</text>
</a>
</g>
</g>
<!-- dir_48117faa50f292645806ea8fb70008d8 -->
<g id="node4" class="node">
<title>dir_48117faa50f292645806ea8fb70008d8</title>
<g id="a_node4"><a xlink:href="dir_48117faa50f292645806ea8fb70008d8.html" target="_top" xlink:title="default&#45;linux">
<polygon fill="white" stroke="red" points="403.5,-108 324.5,-108 324.5,-72 403.5,-72 403.5,-108"/>
<text text-anchor="middle" x="364" y="-87.5" font-family="Helvetica,sans-Serif" font-size="10.00">default&#45;linux</text>
</a>
</g>
</g>
<!-- dir_48117faa50f292645806ea8fb70008d8&#45;&gt;dir_be9f6d876b8eda462084eff1b3ea4553 -->
<g id="edge4" class="edge">
<title>dir_48117faa50f292645806ea8fb70008d8&#45;&gt;dir_be9f6d876b8eda462084eff1b3ea4553</title>
<path fill="none" stroke="black" d="M351.39,-71.7C345.4,-63.47 338.12,-53.48 331.52,-44.42"/>
<polygon fill="black" stroke="black" points="334.18,-42.13 325.46,-36.1 328.52,-46.25 334.18,-42.13"/>
<g id="a_edge4&#45;headlabel"><a xlink:href="dir_000014_000002.html" target="_top" xlink:title="25">
<text text-anchor="middle" x="338.59" y="-40.86" font-family="Helvetica,sans-Serif" font-size="10.00">25</text>
</a>
</g>
</g>
<!-- dir_03c05aea247c636c5180e1c14df87c04 -->
<g id="node5" class="node">
<title>dir_03c05aea247c636c5180e1c14df87c04</title>
<g id="a_node5"><a xlink:href="dir_03c05aea247c636c5180e1c14df87c04.html" target="_top" xlink:title="power64&#45;linux">
<polygon fill="white" stroke="red" points="306,-108 220,-108 220,-72 306,-72 306,-108"/>
<text text-anchor="middle" x="263" y="-87.5" font-family="Helvetica,sans-Serif" font-size="10.00">power64&#45;linux</text>
</a>
</g>
</g>
<!-- dir_03c05aea247c636c5180e1c14df87c04&#45;&gt;dir_be9f6d876b8eda462084eff1b3ea4553 -->
<g id="edge5" class="edge">
<title>dir_03c05aea247c636c5180e1c14df87c04&#45;&gt;dir_be9f6d876b8eda462084eff1b3ea4553</title>
<path fill="none" stroke="black" d="M275.36,-71.7C281.23,-63.47 288.37,-53.48 294.84,-44.42"/>
<polygon fill="black" stroke="black" points="297.82,-46.28 300.78,-36.1 292.12,-42.21 297.82,-46.28"/>
<g id="a_edge5&#45;headlabel"><a xlink:href="dir_000018_000002.html" target="_top" xlink:title="25">
<text text-anchor="middle" x="298.04" y="-48.35" font-family="Helvetica,sans-Serif" font-size="10.00">25</text>
</a>
</g>
</g>
<!-- dir_8bf6b7e80d8919b75edbcc15956e61d9 -->
<g id="node6" class="node">
<title>dir_8bf6b7e80d8919b75edbcc15956e61d9</title>
<g id="a_node6"><a xlink:href="dir_8bf6b7e80d8919b75edbcc15956e61d9.html" target="_top" xlink:title="x86_32&#45;linux">
<polygon fill="white" stroke="red" points="202,-108 122,-108 122,-72 202,-72 202,-108"/>
<text text-anchor="middle" x="162" y="-87.5" font-family="Helvetica,sans-Serif" font-size="10.00">x86_32&#45;linux</text>
</a>
</g>
</g>
<!-- dir_8bf6b7e80d8919b75edbcc15956e61d9&#45;&gt;dir_be9f6d876b8eda462084eff1b3ea4553 -->
<g id="edge1" class="edge">
<title>dir_8bf6b7e80d8919b75edbcc15956e61d9&#45;&gt;dir_be9f6d876b8eda462084eff1b3ea4553</title>
<path fill="none" stroke="black" d="M185.21,-71.67C193.14,-66.22 202.22,-60.46 211,-56 231.83,-45.41 256.42,-36.4 276.24,-29.92"/>
<polygon fill="black" stroke="black" points="277.37,-33.23 285.83,-26.85 275.24,-26.56 277.37,-33.23"/>
<g id="a_edge1&#45;headlabel"><a xlink:href="dir_000022_000002.html" target="_top" xlink:title="25">
<text text-anchor="middle" x="274.81" y="-34.53" font-family="Helvetica,sans-Serif" font-size="10.00">25</text>
</a>
</g>
</g>
<!-- dir_e8c392aee706068680f6562db90ecbae -->
<g id="node7" class="node">
<title>dir_e8c392aee706068680f6562db90ecbae</title>
<g id="a_node7"><a xlink:href="dir_e8c392aee706068680f6562db90ecbae.html" target="_top" xlink:title="x86_64&#45;linux">
<polygon fill="white" stroke="red" points="104,-108 24,-108 24,-72 104,-72 104,-108"/>
<text text-anchor="middle" x="64" y="-87.5" font-family="Helvetica,sans-Serif" font-size="10.00">x86_64&#45;linux</text>
</a>
</g>
</g>
<!-- dir_e8c392aee706068680f6562db90ecbae&#45;&gt;dir_be9f6d876b8eda462084eff1b3ea4553 -->
<g id="edge3" class="edge">
<title>dir_e8c392aee706068680f6562db90ecbae&#45;&gt;dir_be9f6d876b8eda462084eff1b3ea4553</title>
<path fill="none" stroke="black" d="M85.35,-71.84C93.57,-66 103.32,-59.96 113,-56 166.98,-33.95 234.53,-24.95 275.69,-21.34"/>
<polygon fill="black" stroke="black" points="276.13,-24.82 285.81,-20.52 275.56,-17.84 276.13,-24.82"/>
<g id="a_edge3&#45;headlabel"><a xlink:href="dir_000026_000002.html" target="_top" xlink:title="25">
<text text-anchor="middle" x="272.78" y="-25.44" font-family="Helvetica,sans-Serif" font-size="10.00">25</text>
</a>
</g>
</g>
</g>
</svg>
