<?xml version="1.0" encoding="UTF-8" standalone="no"?>
<!DOCTYPE svg PUBLIC "-//W3C//DTD SVG 1.1//EN"
 "http://www.w3.org/Graphics/SVG/1.1/DTD/svg11.dtd">
<!-- Generated by graphviz version 2.43.0 (0)
 -->
<!-- Title: odp_api.h Pages: 1 -->
<svg width="5360pt" height="140pt"
 viewBox="0.00 0.00 5359.50 140.00" xmlns="http://www.w3.org/2000/svg" xmlns:xlink="http://www.w3.org/1999/xlink">
<g id="graph0" class="graph" transform="scale(1 1) rotate(0) translate(4 136)">
<title>odp_api.h</title>
<polygon fill="white" stroke="transparent" points="-4,4 -4,-136 5355.5,-136 5355.5,4 -4,4"/>
<!-- Node1 -->
<g id="node1" class="node">
<title>Node1</title>
<g id="a_node1"><a xlink:title=" ">
<polygon fill="#bfbfbf" stroke="black" points="2541.5,-112.5 2541.5,-131.5 2605.5,-131.5 2605.5,-112.5 2541.5,-112.5"/>
<text text-anchor="middle" x="2573.5" y="-119.5" font-family="Helvetica,sans-Serif" font-size="10.00">odp_api.h</text>
</a>
</g>
</g>
<!-- Node2 -->
<g id="node2" class="node">
<title>Node2</title>
<g id="a_node2"><a xlink:href="deprecated_8h.html" target="_top" xlink:title=" ">
<polygon fill="white" stroke="black" points="24,-56.5 24,-75.5 143,-75.5 143,-56.5 24,-56.5"/>
<text text-anchor="middle" x="83.5" y="-63.5" font-family="Helvetica,sans-Serif" font-size="10.00">odp/api/deprecated.h</text>
</a>
</g>
</g>
<!-- Node1&#45;&gt;Node2 -->
<g id="edge1" class="edge">
<title>Node1&#45;&gt;Node2</title>
<path fill="none" stroke="midnightblue" d="M2541.48,-120.82C2291.98,-119.36 655.95,-108.64 162.5,-76 159.59,-75.81 156.63,-75.59 153.64,-75.34"/>
<polygon fill="midnightblue" stroke="midnightblue" points="153.67,-71.83 143.4,-74.43 153.05,-78.8 153.67,-71.83"/>
</g>
<!-- Node6 -->
<g id="node4" class="node">
<title>Node6</title>
<g id="a_node4"><a xlink:href="api_2version_8h.html" target="_top" xlink:title=" ">
<polygon fill="white" stroke="black" points="172,-56.5 172,-75.5 273,-75.5 273,-56.5 172,-56.5"/>
<text text-anchor="middle" x="222.5" y="-63.5" font-family="Helvetica,sans-Serif" font-size="10.00">odp/api/version.h</text>
</a>
</g>
</g>
<!-- Node1&#45;&gt;Node6 -->
<g id="edge3" class="edge">
<title>Node1&#45;&gt;Node6</title>
<path fill="none" stroke="midnightblue" d="M2541.22,-120.89C2298.31,-119.97 753.71,-112.74 287.5,-76 286.19,-75.9 284.87,-75.78 283.53,-75.66"/>
<polygon fill="midnightblue" stroke="midnightblue" points="283.48,-72.14 273.18,-74.6 282.77,-79.1 283.48,-72.14"/>
</g>
<!-- Node9 -->
<g id="node7" class="node">
<title>Node9</title>
<g id="a_node7"><a xlink:href="api_2std__types_8h.html" target="_top" xlink:title=" ">
<polygon fill="white" stroke="red" points="2559.5,-0.5 2559.5,-19.5 2671.5,-19.5 2671.5,-0.5 2559.5,-0.5"/>
<text text-anchor="middle" x="2615.5" y="-7.5" font-family="Helvetica,sans-Serif" font-size="10.00">odp/api/std_types.h</text>
</a>
</g>
</g>
<!-- Node1&#45;&gt;Node9 -->
<g id="edge6" class="edge">
<title>Node1&#45;&gt;Node9</title>
<path fill="none" stroke="midnightblue" d="M2578.59,-112.26C2583.63,-103.36 2591.31,-89.04 2596.5,-76 2602.61,-60.64 2607.74,-42.54 2611.12,-29.35"/>
<polygon fill="midnightblue" stroke="midnightblue" points="2614.53,-30.13 2613.54,-19.59 2607.74,-28.45 2614.53,-30.13"/>
</g>
<!-- Node13 -->
<g id="node8" class="node">
<title>Node13</title>
<g id="a_node8"><a xlink:href="api_2align_8h.html" target="_top" xlink:title=" ">
<polygon fill="white" stroke="red" points="330,-56.5 330,-75.5 419,-75.5 419,-56.5 330,-56.5"/>
<text text-anchor="middle" x="374.5" y="-63.5" font-family="Helvetica,sans-Serif" font-size="10.00">odp/api/align.h</text>
</a>
</g>
</g>
<!-- Node1&#45;&gt;Node13 -->
<g id="edge7" class="edge">
<title>Node1&#45;&gt;Node13</title>
<path fill="none" stroke="midnightblue" d="M2541.35,-120.98C2309.15,-120.71 885.2,-117.4 429.51,-76.03"/>
<polygon fill="midnightblue" stroke="midnightblue" points="429.54,-72.52 419.26,-75.08 428.89,-79.49 429.54,-72.52"/>
</g>
<!-- Node16 -->
<g id="node9" class="node">
<title>Node16</title>
<g id="a_node9"><a xlink:href="api_2hash_8h.html" target="_top" xlink:title=" ">
<polygon fill="white" stroke="red" points="436.5,-56.5 436.5,-75.5 524.5,-75.5 524.5,-56.5 436.5,-56.5"/>
<text text-anchor="middle" x="480.5" y="-63.5" font-family="Helvetica,sans-Serif" font-size="10.00">odp/api/hash.h</text>
</a>
</g>
</g>
<!-- Node1&#45;&gt;Node16 -->
<g id="edge8" class="edge">
<title>Node1&#45;&gt;Node16</title>
<path fill="none" stroke="midnightblue" d="M2541.15,-120.92C2315.14,-120.28 968.89,-114.87 534.72,-75.81"/>
<polygon fill="midnightblue" stroke="midnightblue" points="534.92,-72.32 524.64,-74.88 534.27,-79.29 534.92,-72.32"/>
</g>
<!-- Node19 -->
<g id="node10" class="node">
<title>Node19</title>
<g id="a_node10"><a xlink:href="chksum_8h.html" target="_top" xlink:title=" ">
<polygon fill="white" stroke="red" points="543,-56.5 543,-75.5 646,-75.5 646,-56.5 543,-56.5"/>
<text text-anchor="middle" x="594.5" y="-63.5" font-family="Helvetica,sans-Serif" font-size="10.00">odp/api/chksum.h</text>
</a>
</g>
</g>
<!-- Node1&#45;&gt;Node19 -->
<g id="edge9" class="edge">
<title>Node1&#45;&gt;Node19</title>
<path fill="none" stroke="midnightblue" d="M2541.34,-120.79C2323.83,-119.27 1064.53,-109.21 656.11,-75.9"/>
<polygon fill="midnightblue" stroke="midnightblue" points="656.29,-72.4 646.03,-75.06 655.71,-79.38 656.29,-72.4"/>
</g>
<!-- Node21 -->
<g id="node11" class="node">
<title>Node21</title>
<g id="a_node11"><a xlink:href="api_2comp_8h.html" target="_top" xlink:title=" ">
<polygon fill="white" stroke="red" points="664.5,-56.5 664.5,-75.5 756.5,-75.5 756.5,-56.5 664.5,-56.5"/>
<text text-anchor="middle" x="710.5" y="-63.5" font-family="Helvetica,sans-Serif" font-size="10.00">odp/api/comp.h</text>
</a>
</g>
</g>
<!-- Node1&#45;&gt;Node21 -->
<g id="edge10" class="edge">
<title>Node1&#45;&gt;Node21</title>
<path fill="none" stroke="midnightblue" d="M2541.18,-120.79C2330.67,-119.33 1151.53,-109.8 766.63,-75.82"/>
<polygon fill="midnightblue" stroke="midnightblue" points="766.86,-72.33 756.58,-74.91 766.23,-79.3 766.86,-72.33"/>
</g>
<!-- Node40 -->
<g id="node12" class="node">
<title>Node40</title>
<g id="a_node12"><a xlink:href="hints_8h.html" target="_top" xlink:title=" ">
<polygon fill="white" stroke="red" points="775,-56.5 775,-75.5 864,-75.5 864,-56.5 775,-56.5"/>
<text text-anchor="middle" x="819.5" y="-63.5" font-family="Helvetica,sans-Serif" font-size="10.00">odp/api/hints.h</text>
</a>
</g>
</g>
<!-- Node1&#45;&gt;Node40 -->
<g id="edge11" class="edge">
<title>Node1&#45;&gt;Node40</title>
<path fill="none" stroke="midnightblue" d="M2541.46,-120.76C2339.13,-119.15 1235.71,-109.01 874.19,-75.88"/>
<polygon fill="midnightblue" stroke="midnightblue" points="874.51,-72.4 864.23,-74.95 873.85,-79.37 874.51,-72.4"/>
</g>
<!-- Node42 -->
<g id="node13" class="node">
<title>Node42</title>
<g id="a_node13"><a xlink:href="api_2debug_8h.html" target="_top" xlink:title=" ">
<polygon fill="white" stroke="red" points="882,-56.5 882,-75.5 977,-75.5 977,-56.5 882,-56.5"/>
<text text-anchor="middle" x="929.5" y="-63.5" font-family="Helvetica,sans-Serif" font-size="10.00">odp/api/debug.h</text>
</a>
</g>
</g>
<!-- Node1&#45;&gt;Node42 -->
<g id="edge12" class="edge">
<title>Node1&#45;&gt;Node42</title>
<path fill="none" stroke="midnightblue" d="M2541.4,-120.65C2347.04,-118.46 1324.93,-105.72 987.07,-75.88"/>
<polygon fill="midnightblue" stroke="midnightblue" points="987.3,-72.39 977.03,-74.97 986.67,-79.36 987.3,-72.39"/>
</g>
<!-- Node45 -->
<g id="node14" class="node">
<title>Node45</title>
<g id="a_node14"><a xlink:href="api_2byteorder_8h.html" target="_top" xlink:title=" ">
<polygon fill="white" stroke="red" points="995,-56.5 995,-75.5 1106,-75.5 1106,-56.5 995,-56.5"/>
<text text-anchor="middle" x="1050.5" y="-63.5" font-family="Helvetica,sans-Serif" font-size="10.00">odp/api/byteorder.h</text>
</a>
</g>
</g>
<!-- Node1&#45;&gt;Node45 -->
<g id="edge13" class="edge">
<title>Node1&#45;&gt;Node45</title>
<path fill="none" stroke="midnightblue" d="M2541.36,-121.28C2385.61,-122.35 1693.67,-124.1 1116.32,-75.96"/>
<polygon fill="midnightblue" stroke="midnightblue" points="1116.38,-72.45 1106.13,-75.1 1115.8,-79.42 1116.38,-72.45"/>
</g>
<!-- Node48 -->
<g id="node15" class="node">
<title>Node48</title>
<g id="a_node15"><a xlink:href="api_2cpu_8h.html" target="_top" xlink:title=" ">
<polygon fill="white" stroke="red" points="1124.5,-56.5 1124.5,-75.5 1206.5,-75.5 1206.5,-56.5 1124.5,-56.5"/>
<text text-anchor="middle" x="1165.5" y="-63.5" font-family="Helvetica,sans-Serif" font-size="10.00">odp/api/cpu.h</text>
</a>
</g>
</g>
<!-- Node1&#45;&gt;Node48 -->
<g id="edge14" class="edge">
<title>Node1&#45;&gt;Node48</title>
<path fill="none" stroke="midnightblue" d="M2541.34,-120.49C2362.5,-117.6 1488.76,-102.3 1220.5,-76 1219.23,-75.88 1217.94,-75.74 1216.64,-75.59"/>
<polygon fill="midnightblue" stroke="midnightblue" points="1216.93,-72.1 1206.57,-74.31 1216.05,-79.05 1216.93,-72.1"/>
</g>
<!-- Node50 -->
<g id="node16" class="node">
<title>Node50</title>
<g id="a_node16"><a xlink:href="api_2thread_8h.html" target="_top" xlink:title=" ">
<polygon fill="white" stroke="red" points="860.5,-0.5 860.5,-19.5 956.5,-19.5 956.5,-0.5 860.5,-0.5"/>
<text text-anchor="middle" x="908.5" y="-7.5" font-family="Helvetica,sans-Serif" font-size="10.00">odp/api/thread.h</text>
</a>
</g>
</g>
<!-- Node1&#45;&gt;Node50 -->
<g id="edge25" class="edge">
<title>Node1&#45;&gt;Node50</title>
<path fill="none" stroke="midnightblue" d="M2541.4,-120.98C2269.52,-120.73 361.19,-117.51 320.5,-76 314.28,-69.65 314.46,-62.52 320.5,-56 356.01,-17.67 708.79,-11.86 850.26,-11.07"/>
<polygon fill="midnightblue" stroke="midnightblue" points="850.49,-14.57 860.48,-11.02 850.46,-7.57 850.49,-14.57"/>
</g>
<!-- Node55 -->
<g id="node17" class="node">
<title>Node55</title>
<g id="a_node17"><a xlink:href="api_2cpumask_8h.html" target="_top" xlink:title=" ">
<polygon fill="white" stroke="red" points="1263,-56.5 1263,-75.5 1372,-75.5 1372,-56.5 1263,-56.5"/>
<text text-anchor="middle" x="1317.5" y="-63.5" font-family="Helvetica,sans-Serif" font-size="10.00">odp/api/cpumask.h</text>
</a>
</g>
</g>
<!-- Node1&#45;&gt;Node55 -->
<g id="edge16" class="edge">
<title>Node1&#45;&gt;Node55</title>
<path fill="none" stroke="midnightblue" d="M2541.18,-120.99C2403.08,-120.68 1848.67,-116.88 1382.57,-75.99"/>
<polygon fill="midnightblue" stroke="midnightblue" points="1382.54,-72.47 1372.27,-75.08 1381.92,-79.44 1382.54,-72.47"/>
</g>
<!-- Node58 -->
<g id="node18" class="node">
<title>Node58</title>
<g id="a_node18"><a xlink:href="api_2barrier_8h.html" target="_top" xlink:title=" ">
<polygon fill="white" stroke="red" points="1390.5,-56.5 1390.5,-75.5 1486.5,-75.5 1486.5,-56.5 1390.5,-56.5"/>
<text text-anchor="middle" x="1438.5" y="-63.5" font-family="Helvetica,sans-Serif" font-size="10.00">odp/api/barrier.h</text>
</a>
</g>
</g>
<!-- Node1&#45;&gt;Node58 -->
<g id="edge17" class="edge">
<title>Node1&#45;&gt;Node58</title>
<path fill="none" stroke="midnightblue" d="M2541.25,-120.97C2410.55,-120.58 1907.64,-116.36 1496.5,-76 1496.4,-75.99 1496.3,-75.98 1496.2,-75.97"/>
<polygon fill="midnightblue" stroke="midnightblue" points="1496.88,-72.53 1486.55,-74.88 1496.1,-79.48 1496.88,-72.53"/>
</g>
<!-- Node59 -->
<g id="node19" class="node">
<title>Node59</title>
<g id="a_node19"><a xlink:href="api_2atomic_8h.html" target="_top" xlink:title=" ">
<polygon fill="white" stroke="red" points="1287.5,-0.5 1287.5,-19.5 1385.5,-19.5 1385.5,-0.5 1287.5,-0.5"/>
<text text-anchor="middle" x="1336.5" y="-7.5" font-family="Helvetica,sans-Serif" font-size="10.00">odp/api/atomic.h</text>
</a>
</g>
</g>
<!-- Node1&#45;&gt;Node59 -->
<g id="edge21" class="edge">
<title>Node1&#45;&gt;Node59</title>
<path fill="none" stroke="midnightblue" d="M2541.48,-121.15C2344.19,-121.92 1300.63,-123.73 1254.5,-76 1234.56,-55.37 1270.42,-35.46 1300.83,-23.23"/>
<polygon fill="midnightblue" stroke="midnightblue" points="1302.35,-26.39 1310.43,-19.54 1299.84,-19.86 1302.35,-26.39"/>
</g>
<!-- Node65 -->
<g id="node20" class="node">
<title>Node65</title>
<g id="a_node20"><a xlink:href="api_2spinlock_8h.html" target="_top" xlink:title=" ">
<polygon fill="white" stroke="red" points="1618,-56.5 1618,-75.5 1723,-75.5 1723,-56.5 1618,-56.5"/>
<text text-anchor="middle" x="1670.5" y="-63.5" font-family="Helvetica,sans-Serif" font-size="10.00">odp/api/spinlock.h</text>
</a>
</g>
</g>
<!-- Node1&#45;&gt;Node65 -->
<g id="edge20" class="edge">
<title>Node1&#45;&gt;Node65</title>
<path fill="none" stroke="midnightblue" d="M2541.34,-120.33C2430.58,-117.8 2054.6,-107.37 1733.2,-75.97"/>
<polygon fill="midnightblue" stroke="midnightblue" points="1733.52,-72.48 1723.23,-74.99 1732.83,-79.45 1733.52,-72.48"/>
</g>
<!-- Node68 -->
<g id="node21" class="node">
<title>Node68</title>
<g id="a_node21"><a xlink:href="api_2init_8h.html" target="_top" xlink:title=" ">
<polygon fill="white" stroke="red" points="1741.5,-56.5 1741.5,-75.5 1821.5,-75.5 1821.5,-56.5 1741.5,-56.5"/>
<text text-anchor="middle" x="1781.5" y="-63.5" font-family="Helvetica,sans-Serif" font-size="10.00">odp/api/init.h</text>
</a>
</g>
</g>
<!-- Node1&#45;&gt;Node68 -->
<g id="edge22" class="edge">
<title>Node1&#45;&gt;Node68</title>
<path fill="none" stroke="midnightblue" d="M2541.15,-120.44C2438.65,-118.37 2111.85,-109.49 1831.5,-75.97"/>
<polygon fill="midnightblue" stroke="midnightblue" points="1831.9,-72.49 1821.55,-74.76 1831.06,-79.44 1831.9,-72.49"/>
</g>
<!-- Node71 -->
<g id="node22" class="node">
<title>Node71</title>
<g id="a_node22"><a xlink:href="system__info_8h.html" target="_top" xlink:title=" ">
<polygon fill="white" stroke="red" points="3370,-56.5 3370,-75.5 3495,-75.5 3495,-56.5 3370,-56.5"/>
<text text-anchor="middle" x="3432.5" y="-63.5" font-family="Helvetica,sans-Serif" font-size="10.00">odp/api/system_info.h</text>
</a>
</g>
</g>
<!-- Node1&#45;&gt;Node71 -->
<g id="edge23" class="edge">
<title>Node1&#45;&gt;Node71</title>
<path fill="none" stroke="midnightblue" d="M2605.84,-119.95C2712.17,-116.35 3060.85,-103.18 3359.64,-76.11"/>
<polygon fill="midnightblue" stroke="midnightblue" points="3360.17,-79.58 3369.81,-75.19 3359.53,-72.61 3360.17,-79.58"/>
</g>
<!-- Node73 -->
<g id="node23" class="node">
<title>Node73</title>
<g id="a_node23"><a xlink:href="api_2shared__memory_8h.html" target="_top" xlink:title=" ">
<polygon fill="white" stroke="red" points="1986,-56.5 1986,-75.5 2129,-75.5 2129,-56.5 1986,-56.5"/>
<text text-anchor="middle" x="2057.5" y="-63.5" font-family="Helvetica,sans-Serif" font-size="10.00">odp/api/shared_memory.h</text>
</a>
</g>
</g>
<!-- Node1&#45;&gt;Node73 -->
<g id="edge26" class="edge">
<title>Node1&#45;&gt;Node73</title>
<path fill="none" stroke="midnightblue" d="M2541.29,-117.75C2470.7,-110.62 2296.79,-92.94 2139.39,-76.09"/>
<polygon fill="midnightblue" stroke="midnightblue" points="2139.37,-72.57 2129.05,-74.98 2138.62,-79.53 2139.37,-72.57"/>
</g>
<!-- Node75 -->
<g id="node24" class="node">
<title>Node75</title>
<g id="a_node24"><a xlink:href="api_2buffer_8h.html" target="_top" xlink:title=" ">
<polygon fill="white" stroke="red" points="2147.5,-56.5 2147.5,-75.5 2239.5,-75.5 2239.5,-56.5 2147.5,-56.5"/>
<text text-anchor="middle" x="2193.5" y="-63.5" font-family="Helvetica,sans-Serif" font-size="10.00">odp/api/buffer.h</text>
</a>
</g>
</g>
<!-- Node1&#45;&gt;Node75 -->
<g id="edge27" class="edge">
<title>Node1&#45;&gt;Node75</title>
<path fill="none" stroke="midnightblue" d="M2541.17,-116.79C2484.42,-109.35 2362.91,-93.15 2249.91,-76.18"/>
<polygon fill="midnightblue" stroke="midnightblue" points="2250.11,-72.67 2239.7,-74.64 2249.07,-79.6 2250.11,-72.67"/>
</g>
<!-- Node84 -->
<g id="node25" class="node">
<title>Node84</title>
<g id="a_node25"><a xlink:href="api_2pool_8h.html" target="_top" xlink:title=" ">
<polygon fill="white" stroke="red" points="2257.5,-56.5 2257.5,-75.5 2343.5,-75.5 2343.5,-56.5 2257.5,-56.5"/>
<text text-anchor="middle" x="2300.5" y="-63.5" font-family="Helvetica,sans-Serif" font-size="10.00">odp/api/pool.h</text>
</a>
</g>
</g>
<!-- Node1&#45;&gt;Node84 -->
<g id="edge28" class="edge">
<title>Node1&#45;&gt;Node84</title>
<path fill="none" stroke="midnightblue" d="M2541.38,-114.65C2495.2,-105.51 2409.5,-88.56 2353.76,-77.53"/>
<polygon fill="midnightblue" stroke="midnightblue" points="2354.2,-74.05 2343.71,-75.55 2352.84,-80.92 2354.2,-74.05"/>
</g>
<!-- Node87 -->
<g id="node26" class="node">
<title>Node87</title>
<g id="a_node26"><a xlink:href="api_2queue_8h.html" target="_top" xlink:title=" ">
<polygon fill="white" stroke="red" points="2362,-56.5 2362,-75.5 2457,-75.5 2457,-56.5 2362,-56.5"/>
<text text-anchor="middle" x="2409.5" y="-63.5" font-family="Helvetica,sans-Serif" font-size="10.00">odp/api/queue.h</text>
</a>
</g>
</g>
<!-- Node1&#45;&gt;Node87 -->
<g id="edge29" class="edge">
<title>Node1&#45;&gt;Node87</title>
<path fill="none" stroke="midnightblue" d="M2547.51,-112.44C2519.8,-103.32 2475.75,-88.81 2444.88,-78.65"/>
<polygon fill="midnightblue" stroke="midnightblue" points="2445.96,-75.32 2435.36,-75.52 2443.77,-81.97 2445.96,-75.32"/>
</g>
<!-- Node90 -->
<g id="node27" class="node">
<title>Node90</title>
<g id="a_node27"><a xlink:href="api_2ticketlock_8h.html" target="_top" xlink:title=" ">
<polygon fill="white" stroke="red" points="2475.5,-56.5 2475.5,-75.5 2587.5,-75.5 2587.5,-56.5 2475.5,-56.5"/>
<text text-anchor="middle" x="2531.5" y="-63.5" font-family="Helvetica,sans-Serif" font-size="10.00">odp/api/ticketlock.h</text>
</a>
</g>
</g>
<!-- Node1&#45;&gt;Node90 -->
<g id="edge30" class="edge">
<title>Node1&#45;&gt;Node90</title>
<path fill="none" stroke="midnightblue" d="M2566.56,-112.08C2560.57,-104.38 2551.75,-93.03 2544.45,-83.65"/>
<polygon fill="midnightblue" stroke="midnightblue" points="2547.21,-81.5 2538.31,-75.75 2541.68,-85.79 2547.21,-81.5"/>
</g>
<!-- Node93 -->
<g id="node28" class="node">
<title>Node93</title>
<g id="a_node28"><a xlink:href="api_2time_8h.html" target="_top" xlink:title=" ">
<polygon fill="white" stroke="red" points="3513,-56.5 3513,-75.5 3600,-75.5 3600,-56.5 3513,-56.5"/>
<text text-anchor="middle" x="3556.5" y="-63.5" font-family="Helvetica,sans-Serif" font-size="10.00">odp/api/time.h</text>
</a>
</g>
</g>
<!-- Node1&#45;&gt;Node93 -->
<g id="edge31" class="edge">
<title>Node1&#45;&gt;Node93</title>
<path fill="none" stroke="midnightblue" d="M2605.77,-120.88C2724.17,-120.12 3145.93,-114.77 3502.85,-76.05"/>
<polygon fill="midnightblue" stroke="midnightblue" points="3503.3,-79.52 3512.86,-74.95 3502.54,-72.56 3503.3,-79.52"/>
</g>
<!-- Node96 -->
<g id="node29" class="node">
<title>Node96</title>
<g id="a_node29"><a xlink:href="api_2timer_8h.html" target="_top" xlink:title=" ">
<polygon fill="white" stroke="red" points="2643.5,-56.5 2643.5,-75.5 2733.5,-75.5 2733.5,-56.5 2643.5,-56.5"/>
<text text-anchor="middle" x="2688.5" y="-63.5" font-family="Helvetica,sans-Serif" font-size="10.00">odp/api/timer.h</text>
</a>
</g>
</g>
<!-- Node1&#45;&gt;Node96 -->
<g id="edge33" class="edge">
<title>Node1&#45;&gt;Node96</title>
<path fill="none" stroke="midnightblue" d="M2591.72,-112.44C2610.4,-103.68 2639.66,-89.94 2661.12,-79.86"/>
<polygon fill="midnightblue" stroke="midnightblue" points="2662.8,-82.93 2670.36,-75.52 2659.82,-76.6 2662.8,-82.93"/>
</g>
<!-- Node102 -->
<g id="node30" class="node">
<title>Node102</title>
<g id="a_node30"><a xlink:href="api_2schedule_8h.html" target="_top" xlink:title=" ">
<polygon fill="white" stroke="red" points="2751.5,-56.5 2751.5,-75.5 2859.5,-75.5 2859.5,-56.5 2751.5,-56.5"/>
<text text-anchor="middle" x="2805.5" y="-63.5" font-family="Helvetica,sans-Serif" font-size="10.00">odp/api/schedule.h</text>
</a>
</g>
</g>
<!-- Node1&#45;&gt;Node102 -->
<g id="edge34" class="edge">
<title>Node1&#45;&gt;Node102</title>
<path fill="none" stroke="midnightblue" d="M2605.76,-113.49C2645.58,-104.22 2713.58,-88.39 2759.03,-77.82"/>
<polygon fill="midnightblue" stroke="midnightblue" points="2759.98,-81.19 2768.93,-75.51 2758.4,-74.37 2759.98,-81.19"/>
</g>
<!-- Node108 -->
<g id="node31" class="node">
<title>Node108</title>
<g id="a_node31"><a xlink:href="api_2sync_8h.html" target="_top" xlink:title=" ">
<polygon fill="white" stroke="red" points="2878,-56.5 2878,-75.5 2965,-75.5 2965,-56.5 2878,-56.5"/>
<text text-anchor="middle" x="2921.5" y="-63.5" font-family="Helvetica,sans-Serif" font-size="10.00">odp/api/sync.h</text>
</a>
</g>
</g>
<!-- Node1&#45;&gt;Node108 -->
<g id="edge35" class="edge">
<title>Node1&#45;&gt;Node108</title>
<path fill="none" stroke="midnightblue" d="M2605.83,-116.25C2658.39,-108.49 2765.89,-92.45 2867.69,-76.11"/>
<polygon fill="midnightblue" stroke="midnightblue" points="2868.52,-79.52 2877.84,-74.47 2867.41,-72.61 2868.52,-79.52"/>
</g>
<!-- Node111 -->
<g id="node32" class="node">
<title>Node111</title>
<g id="a_node32"><a xlink:href="api_2packet_8h.html" target="_top" xlink:title=" ">
<polygon fill="white" stroke="red" points="2983,-56.5 2983,-75.5 3080,-75.5 3080,-56.5 2983,-56.5"/>
<text text-anchor="middle" x="3031.5" y="-63.5" font-family="Helvetica,sans-Serif" font-size="10.00">odp/api/packet.h</text>
</a>
</g>
</g>
<!-- Node1&#45;&gt;Node111 -->
<g id="edge36" class="edge">
<title>Node1&#45;&gt;Node111</title>
<path fill="none" stroke="midnightblue" d="M2605.53,-117.9C2671.98,-111.36 2829.92,-95.26 2972.47,-76.23"/>
<polygon fill="midnightblue" stroke="midnightblue" points="2973.26,-79.65 2982.7,-74.85 2972.33,-72.72 2973.26,-79.65"/>
</g>
<!-- Node120 -->
<g id="node33" class="node">
<title>Node120</title>
<g id="a_node33"><a xlink:href="api_2packet__flags_8h.html" target="_top" xlink:title=" ">
<polygon fill="white" stroke="red" points="3098,-56.5 3098,-75.5 3223,-75.5 3223,-56.5 3098,-56.5"/>
<text text-anchor="middle" x="3160.5" y="-63.5" font-family="Helvetica,sans-Serif" font-size="10.00">odp/api/packet_flags.h</text>
</a>
</g>
</g>
<!-- Node1&#45;&gt;Node120 -->
<g id="edge37" class="edge">
<title>Node1&#45;&gt;Node120</title>
<path fill="none" stroke="midnightblue" d="M2605.55,-118.64C2685.23,-112.69 2898.96,-96.15 3087.69,-76.16"/>
<polygon fill="midnightblue" stroke="midnightblue" points="3088.22,-79.62 3097.8,-75.08 3087.48,-72.66 3088.22,-79.62"/>
</g>
<!-- Node123 -->
<g id="node34" class="node">
<title>Node123</title>
<g id="a_node34"><a xlink:href="api_2packet__io_8h.html" target="_top" xlink:title=" ">
<polygon fill="white" stroke="red" points="3241,-56.5 3241,-75.5 3352,-75.5 3352,-56.5 3241,-56.5"/>
<text text-anchor="middle" x="3296.5" y="-63.5" font-family="Helvetica,sans-Serif" font-size="10.00">odp/api/packet_io.h</text>
</a>
</g>
</g>
<!-- Node1&#45;&gt;Node123 -->
<g id="edge38" class="edge">
<title>Node1&#45;&gt;Node123</title>
<path fill="none" stroke="midnightblue" d="M2605.8,-119.61C2700.28,-115.39 2984.49,-101.43 3230.47,-76.15"/>
<polygon fill="midnightblue" stroke="midnightblue" points="3231.1,-79.6 3240.68,-75.09 3230.37,-72.64 3231.1,-79.6"/>
</g>
<!-- Node131 -->
<g id="node35" class="node">
<title>Node131</title>
<g id="a_node35"><a xlink:href="api_2proto__stats_8h.html" target="_top" xlink:title=" ">
<polygon fill="white" stroke="red" points="3618,-56.5 3618,-75.5 3737,-75.5 3737,-56.5 3618,-56.5"/>
<text text-anchor="middle" x="3677.5" y="-63.5" font-family="Helvetica,sans-Serif" font-size="10.00">odp/api/proto_stats.h</text>
</a>
</g>
</g>
<!-- Node1&#45;&gt;Node131 -->
<g id="edge39" class="edge">
<title>Node1&#45;&gt;Node131</title>
<path fill="none" stroke="midnightblue" d="M2605.79,-120.63C2732.36,-118.98 3206.98,-110.75 3607.78,-76.08"/>
<polygon fill="midnightblue" stroke="midnightblue" points="3608.17,-79.56 3617.83,-75.2 3607.56,-72.58 3608.17,-79.56"/>
</g>
<!-- Node134 -->
<g id="node36" class="node">
<title>Node134</title>
<g id="a_node36"><a xlink:href="api_2crypto_8h.html" target="_top" xlink:title=" ">
<polygon fill="white" stroke="red" points="1505,-56.5 1505,-75.5 1600,-75.5 1600,-56.5 1505,-56.5"/>
<text text-anchor="middle" x="1552.5" y="-63.5" font-family="Helvetica,sans-Serif" font-size="10.00">odp/api/crypto.h</text>
</a>
</g>
</g>
<!-- Node1&#45;&gt;Node134 -->
<g id="edge41" class="edge">
<title>Node1&#45;&gt;Node134</title>
<path fill="none" stroke="midnightblue" d="M2541.37,-120.78C2420.58,-119.69 1982.13,-113.3 1610.19,-75.94"/>
<polygon fill="midnightblue" stroke="midnightblue" points="1610.34,-72.43 1600.03,-74.91 1609.63,-79.4 1610.34,-72.43"/>
</g>
<!-- Node126 -->
<g id="node37" class="node">
<title>Node126</title>
<g id="a_node37"><a xlink:href="api_2classification_8h.html" target="_top" xlink:title=" ">
<polygon fill="white" stroke="red" points="1839.5,-56.5 1839.5,-75.5 1967.5,-75.5 1967.5,-56.5 1839.5,-56.5"/>
<text text-anchor="middle" x="1903.5" y="-63.5" font-family="Helvetica,sans-Serif" font-size="10.00">odp/api/classification.h</text>
</a>
</g>
</g>
<!-- Node1&#45;&gt;Node126 -->
<g id="edge43" class="edge">
<title>Node1&#45;&gt;Node126</title>
<path fill="none" stroke="midnightblue" d="M2541.47,-119.1C2453.48,-113.76 2200.37,-97.68 1977.89,-75.99"/>
<polygon fill="midnightblue" stroke="midnightblue" points="1977.95,-72.48 1967.66,-74.98 1977.27,-79.44 1977.95,-72.48"/>
</g>
<!-- Node137 -->
<g id="node38" class="node">
<title>Node137</title>
<g id="a_node38"><a xlink:href="api_2rwlock_8h.html" target="_top" xlink:title=" ">
<polygon fill="white" stroke="red" points="3755,-56.5 3755,-75.5 3852,-75.5 3852,-56.5 3755,-56.5"/>
<text text-anchor="middle" x="3803.5" y="-63.5" font-family="Helvetica,sans-Serif" font-size="10.00">odp/api/rwlock.h</text>
</a>
</g>
</g>
<!-- Node1&#45;&gt;Node137 -->
<g id="edge45" class="edge">
<title>Node1&#45;&gt;Node137</title>
<path fill="none" stroke="midnightblue" d="M2605.78,-121.16C2742.53,-121.54 3287.65,-120.1 3744.63,-76.07"/>
<polygon fill="midnightblue" stroke="midnightblue" points="3745.12,-79.54 3754.73,-75.09 3744.44,-72.57 3745.12,-79.54"/>
</g>
<!-- Node140 -->
<g id="node39" class="node">
<title>Node140</title>
<g id="a_node39"><a xlink:href="api_2event_8h.html" target="_top" xlink:title=" ">
<polygon fill="white" stroke="red" points="3870.5,-56.5 3870.5,-75.5 3962.5,-75.5 3962.5,-56.5 3870.5,-56.5"/>
<text text-anchor="middle" x="3916.5" y="-63.5" font-family="Helvetica,sans-Serif" font-size="10.00">odp/api/event.h</text>
</a>
</g>
</g>
<!-- Node1&#45;&gt;Node140 -->
<g id="edge46" class="edge">
<title>Node1&#45;&gt;Node140</title>
<path fill="none" stroke="midnightblue" d="M2605.95,-121.38C2751.09,-122.78 3355.26,-125.23 3860.3,-75.98"/>
<polygon fill="midnightblue" stroke="midnightblue" points="3860.73,-79.45 3870.34,-74.99 3860.05,-72.49 3860.73,-79.45"/>
</g>
<!-- Node143 -->
<g id="node40" class="node">
<title>Node143</title>
<g id="a_node40"><a xlink:href="api_2random_8h.html" target="_top" xlink:title=" ">
<polygon fill="white" stroke="red" points="3980.5,-56.5 3980.5,-75.5 4082.5,-75.5 4082.5,-56.5 3980.5,-56.5"/>
<text text-anchor="middle" x="4031.5" y="-63.5" font-family="Helvetica,sans-Serif" font-size="10.00">odp/api/random.h</text>
</a>
</g>
</g>
<!-- Node1&#45;&gt;Node143 -->
<g id="edge47" class="edge">
<title>Node1&#45;&gt;Node143</title>
<path fill="none" stroke="midnightblue" d="M2605.59,-121.35C2757.38,-122.71 3418.62,-125.42 3970.33,-75.98"/>
<polygon fill="midnightblue" stroke="midnightblue" points="3970.84,-79.45 3980.49,-75.07 3970.21,-72.48 3970.84,-79.45"/>
</g>
<!-- Node148 -->
<g id="node41" class="node">
<title>Node148</title>
<g id="a_node41"><a xlink:href="api_2errno_8h.html" target="_top" xlink:title=" ">
<polygon fill="white" stroke="red" points="4100.5,-56.5 4100.5,-75.5 4190.5,-75.5 4190.5,-56.5 4100.5,-56.5"/>
<text text-anchor="middle" x="4145.5" y="-63.5" font-family="Helvetica,sans-Serif" font-size="10.00">odp/api/errno.h</text>
</a>
</g>
</g>
<!-- Node1&#45;&gt;Node148 -->
<g id="edge48" class="edge">
<title>Node1&#45;&gt;Node148</title>
<path fill="none" stroke="midnightblue" d="M2605.74,-120.64C2795.33,-118.43 3767.38,-105.87 4090.19,-75.95"/>
<polygon fill="midnightblue" stroke="midnightblue" points="4090.86,-79.41 4100.48,-74.97 4090.19,-72.44 4090.86,-79.41"/>
</g>
<!-- Node105 -->
<g id="node42" class="node">
<title>Node105</title>
<g id="a_node42"><a xlink:href="api_2thrmask_8h.html" target="_top" xlink:title=" ">
<polygon fill="white" stroke="red" points="4209,-56.5 4209,-75.5 4314,-75.5 4314,-56.5 4209,-56.5"/>
<text text-anchor="middle" x="4261.5" y="-63.5" font-family="Helvetica,sans-Serif" font-size="10.00">odp/api/thrmask.h</text>
</a>
</g>
</g>
<!-- Node1&#45;&gt;Node105 -->
<g id="edge49" class="edge">
<title>Node1&#45;&gt;Node105</title>
<path fill="none" stroke="midnightblue" d="M2605.73,-120.62C2803.25,-118.22 3852.69,-104.35 4198.75,-75.92"/>
<polygon fill="midnightblue" stroke="midnightblue" points="4199.11,-79.41 4208.78,-75.08 4198.52,-72.43 4199.11,-79.41"/>
</g>
<!-- Node151 -->
<g id="node43" class="node">
<title>Node151</title>
<g id="a_node43"><a xlink:href="api_2traffic__mngr_8h.html" target="_top" xlink:title=" ">
<polygon fill="white" stroke="red" points="4332,-56.5 4332,-75.5 4455,-75.5 4455,-56.5 4332,-56.5"/>
<text text-anchor="middle" x="4393.5" y="-63.5" font-family="Helvetica,sans-Serif" font-size="10.00">odp/api/traffic_mngr.h</text>
</a>
</g>
</g>
<!-- Node1&#45;&gt;Node151 -->
<g id="edge50" class="edge">
<title>Node1&#45;&gt;Node151</title>
<path fill="none" stroke="midnightblue" d="M2605.79,-120.62C2812.19,-118.13 3949.66,-103.4 4321.46,-76.06"/>
<polygon fill="midnightblue" stroke="midnightblue" points="4321.99,-79.53 4331.7,-75.29 4321.46,-72.55 4321.99,-79.53"/>
</g>
<!-- Node154 -->
<g id="node44" class="node">
<title>Node154</title>
<g id="a_node44"><a xlink:href="api_2spinlock__recursive_8h.html" target="_top" xlink:title=" ">
<polygon fill="white" stroke="red" points="4473,-56.5 4473,-75.5 4628,-75.5 4628,-56.5 4473,-56.5"/>
<text text-anchor="middle" x="4550.5" y="-63.5" font-family="Helvetica,sans-Serif" font-size="10.00">odp/api/spinlock_recursive.h</text>
</a>
</g>
</g>
<!-- Node1&#45;&gt;Node154 -->
<g id="edge51" class="edge">
<title>Node1&#45;&gt;Node154</title>
<path fill="none" stroke="midnightblue" d="M2605.62,-121.2C2787.21,-122.14 3703.87,-124.23 4462.67,-76.07"/>
<polygon fill="midnightblue" stroke="midnightblue" points="4462.95,-79.55 4472.71,-75.42 4462.51,-72.57 4462.95,-79.55"/>
</g>
<!-- Node157 -->
<g id="node45" class="node">
<title>Node157</title>
<g id="a_node45"><a xlink:href="api_2rwlock__recursive_8h.html" target="_top" xlink:title=" ">
<polygon fill="white" stroke="red" points="4646,-56.5 4646,-75.5 4793,-75.5 4793,-56.5 4646,-56.5"/>
<text text-anchor="middle" x="4719.5" y="-63.5" font-family="Helvetica,sans-Serif" font-size="10.00">odp/api/rwlock_recursive.h</text>
</a>
</g>
</g>
<!-- Node1&#45;&gt;Node157 -->
<g id="edge52" class="edge">
<title>Node1&#45;&gt;Node157</title>
<path fill="none" stroke="midnightblue" d="M2605.86,-120.68C2833.4,-118.4 4196.62,-103.76 4635.57,-76.06"/>
<polygon fill="midnightblue" stroke="midnightblue" points="4636.02,-79.54 4645.77,-75.4 4635.57,-72.55 4636.02,-79.54"/>
</g>
<!-- Node160 -->
<g id="node46" class="node">
<title>Node160</title>
<g id="a_node46"><a xlink:href="api_2std_8h_source.html" target="_top" xlink:title=" ">
<polygon fill="white" stroke="red" points="4811.5,-56.5 4811.5,-75.5 4891.5,-75.5 4891.5,-56.5 4811.5,-56.5"/>
<text text-anchor="middle" x="4851.5" y="-63.5" font-family="Helvetica,sans-Serif" font-size="10.00">odp/api/std.h</text>
</a>
</g>
</g>
<!-- Node1&#45;&gt;Node160 -->
<g id="edge53" class="edge">
<title>Node1&#45;&gt;Node160</title>
<path fill="none" stroke="midnightblue" d="M2605.75,-121.06C2843.48,-121.43 4328.06,-121.89 4801.49,-75.89"/>
<polygon fill="midnightblue" stroke="midnightblue" points="4801.86,-79.37 4811.46,-74.9 4801.17,-72.4 4801.86,-79.37"/>
</g>
<!-- Node163 -->
<g id="node47" class="node">
<title>Node163</title>
<g id="a_node47"><a xlink:href="api_2ipsec_8h.html" target="_top" xlink:title=" ">
<polygon fill="white" stroke="red" points="4909.5,-56.5 4909.5,-75.5 4999.5,-75.5 4999.5,-56.5 4909.5,-56.5"/>
<text text-anchor="middle" x="4954.5" y="-63.5" font-family="Helvetica,sans-Serif" font-size="10.00">odp/api/ipsec.h</text>
</a>
</g>
</g>
<!-- Node1&#45;&gt;Node163 -->
<g id="edge54" class="edge">
<title>Node1&#45;&gt;Node163</title>
<path fill="none" stroke="midnightblue" d="M2605.58,-121.02C2848.7,-121.1 4404.5,-119.91 4899.41,-75.92"/>
<polygon fill="midnightblue" stroke="midnightblue" points="4899.84,-79.4 4909.48,-75.01 4899.21,-72.43 4899.84,-79.4"/>
</g>
<!-- Node168 -->
<g id="node48" class="node">
<title>Node168</title>
<g id="a_node48"><a xlink:href="api_2stash_8h.html" target="_top" xlink:title=" ">
<polygon fill="white" stroke="red" points="5018,-56.5 5018,-75.5 5109,-75.5 5109,-56.5 5018,-56.5"/>
<text text-anchor="middle" x="5063.5" y="-63.5" font-family="Helvetica,sans-Serif" font-size="10.00">odp/api/stash.h</text>
</a>
</g>
</g>
<!-- Node1&#45;&gt;Node168 -->
<g id="edge55" class="edge">
<title>Node1&#45;&gt;Node168</title>
<path fill="none" stroke="midnightblue" d="M2605.86,-121.04C2856.31,-121.28 4489.35,-121.06 5007.77,-75.88"/>
<polygon fill="midnightblue" stroke="midnightblue" points="5008.3,-79.34 5017.95,-74.97 5007.67,-72.37 5008.3,-79.34"/>
</g>
<!-- Node118 -->
<g id="node49" class="node">
<title>Node118</title>
<g id="a_node49"><a xlink:href="reassembly_8h.html" target="_top" xlink:title=" ">
<polygon fill="white" stroke="red" points="5127.5,-56.5 5127.5,-75.5 5247.5,-75.5 5247.5,-56.5 5127.5,-56.5"/>
<text text-anchor="middle" x="5187.5" y="-63.5" font-family="Helvetica,sans-Serif" font-size="10.00">odp/api/reassembly.h</text>
</a>
</g>
</g>
<!-- Node1&#45;&gt;Node118 -->
<g id="edge56" class="edge">
<title>Node1&#45;&gt;Node118</title>
<path fill="none" stroke="midnightblue" d="M2605.66,-120.93C2861.76,-120.28 4574.86,-114.59 5117.08,-76"/>
<polygon fill="midnightblue" stroke="midnightblue" points="5117.61,-79.47 5127.33,-75.25 5117.1,-72.48 5117.61,-79.47"/>
</g>
<!-- Node171 -->
<g id="node50" class="node">
<title>Node171</title>
<g id="a_node50"><a xlink:href="dma_8h.html" target="_top" xlink:title=" ">
<polygon fill="white" stroke="red" points="5265.5,-56.5 5265.5,-75.5 5351.5,-75.5 5351.5,-56.5 5265.5,-56.5"/>
<text text-anchor="middle" x="5308.5" y="-63.5" font-family="Helvetica,sans-Serif" font-size="10.00">odp/api/dma.h</text>
</a>
</g>
</g>
<!-- Node1&#45;&gt;Node171 -->
<g id="edge57" class="edge">
<title>Node1&#45;&gt;Node171</title>
<path fill="none" stroke="midnightblue" d="M2605.72,-121.15C2869.97,-122.25 4684.86,-127.85 5255.48,-75.91"/>
<polygon fill="midnightblue" stroke="midnightblue" points="5255.8,-79.39 5265.44,-74.98 5255.16,-72.42 5255.8,-79.39"/>
</g>
<!-- Node3 -->
<g id="node3" class="node">
<title>Node3</title>
<g id="a_node3"><a xlink:href="spec_2deprecated_8h.html" target="_top" xlink:title=" ">
<polygon fill="white" stroke="red" points="0,-0.5 0,-19.5 145,-19.5 145,-0.5 0,-0.5"/>
<text text-anchor="middle" x="72.5" y="-7.5" font-family="Helvetica,sans-Serif" font-size="10.00">odp/api/spec/deprecated.h</text>
</a>
</g>
</g>
<!-- Node2&#45;&gt;Node3 -->
<g id="edge2" class="edge">
<title>Node2&#45;&gt;Node3</title>
<path fill="none" stroke="midnightblue" d="M81.68,-56.08C80.23,-48.93 78.13,-38.64 76.31,-29.69"/>
<polygon fill="midnightblue" stroke="midnightblue" points="79.71,-28.85 74.28,-19.75 72.85,-30.25 79.71,-28.85"/>
</g>
<!-- Node7 -->
<g id="node5" class="node">
<title>Node7</title>
<g id="a_node5"><a xlink:title=" ">
<polygon fill="white" stroke="#bfbfbf" points="163,-0.5 163,-19.5 282,-19.5 282,-0.5 163,-0.5"/>
<text text-anchor="middle" x="222.5" y="-7.5" font-family="Helvetica,sans-Serif" font-size="10.00">odp/api/abi/version.h</text>
</a>
</g>
</g>
<!-- Node6&#45;&gt;Node7 -->
<g id="edge4" class="edge">
<title>Node6&#45;&gt;Node7</title>
<path fill="none" stroke="midnightblue" d="M222.5,-56.08C222.5,-49.01 222.5,-38.86 222.5,-29.99"/>
<polygon fill="midnightblue" stroke="midnightblue" points="226,-29.75 222.5,-19.75 219,-29.75 226,-29.75"/>
</g>
<!-- Node8 -->
<g id="node6" class="node">
<title>Node8</title>
<g id="a_node6"><a xlink:href="api_2spec_2version_8h.html" target="_top" xlink:title=" ">
<polygon fill="white" stroke="red" points="300.5,-0.5 300.5,-19.5 426.5,-19.5 426.5,-0.5 300.5,-0.5"/>
<text text-anchor="middle" x="363.5" y="-7.5" font-family="Helvetica,sans-Serif" font-size="10.00">odp/api/spec/version.h</text>
</a>
</g>
</g>
<!-- Node6&#45;&gt;Node8 -->
<g id="edge5" class="edge">
<title>Node6&#45;&gt;Node8</title>
<path fill="none" stroke="midnightblue" d="M244.84,-56.44C268.25,-47.48 305.24,-33.31 331.69,-23.18"/>
<polygon fill="midnightblue" stroke="midnightblue" points="333.18,-26.36 341.26,-19.52 330.67,-19.82 333.18,-26.36"/>
</g>
<!-- Node48&#45;&gt;Node50 -->
<g id="edge15" class="edge">
<title>Node48&#45;&gt;Node50</title>
<path fill="none" stroke="midnightblue" d="M1124.78,-56.44C1079.85,-47 1007.5,-31.8 959,-21.61"/>
<polygon fill="midnightblue" stroke="midnightblue" points="959.54,-18.15 949.03,-19.52 958.1,-25 959.54,-18.15"/>
</g>
<!-- Node58&#45;&gt;Node9 -->
<g id="edge18" class="edge">
<title>Node58&#45;&gt;Node9</title>
<path fill="none" stroke="midnightblue" d="M1486.55,-57.11C1489.91,-56.69 1493.25,-56.32 1496.5,-56 1894.74,-17.22 2375.84,-11.71 2549.22,-11.04"/>
<polygon fill="midnightblue" stroke="midnightblue" points="2549.47,-14.54 2559.46,-11 2549.45,-7.54 2549.47,-14.54"/>
</g>
<!-- Node58&#45;&gt;Node59 -->
<g id="edge19" class="edge">
<title>Node58&#45;&gt;Node59</title>
<path fill="none" stroke="midnightblue" d="M1422.11,-56.32C1405.83,-47.7 1380.63,-34.36 1361.78,-24.39"/>
<polygon fill="midnightblue" stroke="midnightblue" points="1363.32,-21.24 1352.85,-19.65 1360.05,-27.43 1363.32,-21.24"/>
</g>
<!-- Node71&#45;&gt;Node9 -->
<g id="edge24" class="edge">
<title>Node71&#45;&gt;Node9</title>
<path fill="none" stroke="midnightblue" d="M3369.8,-56.83C3367,-56.53 3364.22,-56.25 3361.5,-56 3111.2,-32.61 2812.45,-18.85 2681.97,-13.54"/>
<polygon fill="midnightblue" stroke="midnightblue" points="2681.88,-10.03 2671.75,-13.13 2681.6,-17.03 2681.88,-10.03"/>
</g>
<!-- Node93&#45;&gt;Node9 -->
<g id="edge32" class="edge">
<title>Node93&#45;&gt;Node9</title>
<path fill="none" stroke="midnightblue" d="M3512.86,-57.05C3510.04,-56.66 3507.23,-56.3 3504.5,-56 3198.34,-21.88 2829.95,-13.61 2681.87,-11.62"/>
<polygon fill="midnightblue" stroke="midnightblue" points="2681.64,-8.12 2671.6,-11.49 2681.55,-15.12 2681.64,-8.12"/>
</g>
<!-- Node131&#45;&gt;Node9 -->
<g id="edge40" class="edge">
<title>Node131&#45;&gt;Node9</title>
<path fill="none" stroke="midnightblue" d="M3617.83,-56.81C3615.02,-56.51 3612.23,-56.24 3609.5,-56 3260.96,-25.1 2841.69,-14.93 2681.81,-12.03"/>
<polygon fill="midnightblue" stroke="midnightblue" points="2681.72,-8.52 2671.66,-11.84 2681.6,-15.52 2681.72,-8.52"/>
</g>
<!-- Node134&#45;&gt;Node9 -->
<g id="edge42" class="edge">
<title>Node134&#45;&gt;Node9</title>
<path fill="none" stroke="midnightblue" d="M1600.03,-57.09C1603.23,-56.68 1606.41,-56.31 1609.5,-56 1962.46,-20.35 2387.94,-12.94 2549.21,-11.4"/>
<polygon fill="midnightblue" stroke="midnightblue" points="2549.48,-14.9 2559.45,-11.31 2549.41,-7.9 2549.48,-14.9"/>
</g>
<!-- Node126&#45;&gt;Node9 -->
<g id="edge44" class="edge">
<title>Node126&#45;&gt;Node9</title>
<path fill="none" stroke="midnightblue" d="M1967.65,-57C1970.98,-56.64 1974.28,-56.31 1977.5,-56 2185.65,-36.01 2432.8,-21.08 2548.94,-14.58"/>
<polygon fill="midnightblue" stroke="midnightblue" points="2549.3,-18.07 2559.09,-14.02 2548.91,-11.08 2549.3,-18.07"/>
</g>
</g>
</svg>
