<?xml version="1.0" encoding="UTF-8" standalone="no"?>
<!DOCTYPE svg PUBLIC "-//W3C//DTD SVG 1.1//EN"
 "http://www.w3.org/Graphics/SVG/1.1/DTD/svg11.dtd">
<!-- Generated by graphviz version 2.43.0 (0)
 -->
<!-- Title: reassembly.h Pages: 1 -->
<svg width="421pt" height="420pt"
 viewBox="0.00 0.00 420.50 420.00" xmlns="http://www.w3.org/2000/svg" xmlns:xlink="http://www.w3.org/1999/xlink">
<g id="graph0" class="graph" transform="scale(1 1) rotate(0) translate(4 416)">
<title>reassembly.h</title>
<polygon fill="white" stroke="transparent" points="-4,4 -4,-416 416.5,-416 416.5,4 -4,4"/>
<!-- Node1 -->
<g id="node1" class="node">
<title>Node1</title>
<g id="a_node1"><a xlink:title=" ">
<polygon fill="#bfbfbf" stroke="black" points="0,-392.5 0,-411.5 81,-411.5 81,-392.5 0,-392.5"/>
<text text-anchor="middle" x="40.5" y="-399.5" font-family="Helvetica,sans-Serif" font-size="10.00">reassembly.h</text>
</a>
</g>
</g>
<!-- Node2 -->
<g id="node2" class="node">
<title>Node2</title>
<g id="a_node2"><a xlink:href="api_2spec_2packet__io_8h.html" target="_top" xlink:title=" ">
<polygon fill="white" stroke="black" points="43.5,-112.5 43.5,-131.5 115.5,-131.5 115.5,-112.5 43.5,-112.5"/>
<text text-anchor="middle" x="79.5" y="-119.5" font-family="Helvetica,sans-Serif" font-size="10.00">packet_io.h</text>
</a>
</g>
</g>
<!-- Node1&#45;&gt;Node2 -->
<g id="edge1" class="edge">
<title>Node1&#45;&gt;Node2</title>
<path fill="none" stroke="midnightblue" d="M40.5,-382.25C40.5,-360.36 40.5,-323.05 40.5,-291 40.5,-291 40.5,-291 40.5,-233 40.5,-193.29 63.36,-149.9 74.08,-131.75"/>
<polygon fill="midnightblue" stroke="midnightblue" points="37,-382.44 40.5,-392.44 44,-382.44 37,-382.44"/>
</g>
<!-- Node4 -->
<g id="node4" class="node">
<title>Node4</title>
<g id="a_node4"><a xlink:href="odp__api_8h.html" target="_top" xlink:title=" ">
<polygon fill="white" stroke="black" points="144.5,-0.5 144.5,-19.5 208.5,-19.5 208.5,-0.5 144.5,-0.5"/>
<text text-anchor="middle" x="176.5" y="-7.5" font-family="Helvetica,sans-Serif" font-size="10.00">odp_api.h</text>
</a>
</g>
</g>
<!-- Node1&#45;&gt;Node4 -->
<g id="edge22" class="edge">
<title>Node1&#45;&gt;Node4</title>
<path fill="none" stroke="midnightblue" d="M30.36,-383.43C19.1,-362.24 2.5,-325.19 2.5,-291 2.5,-291 2.5,-291 2.5,-121 2.5,-88.4 11.56,-77 36.5,-56 67.35,-30.02 113.45,-18.96 144.22,-14.31"/>
<polygon fill="midnightblue" stroke="midnightblue" points="27.32,-385.17 35.22,-392.23 33.45,-381.78 27.32,-385.17"/>
</g>
<!-- Node5 -->
<g id="node5" class="node">
<title>Node5</title>
<g id="a_node5"><a xlink:href="api_2spec_2packet__io__types_8h.html" target="_top" xlink:title=" ">
<polygon fill="white" stroke="black" points="83.5,-336.5 83.5,-355.5 187.5,-355.5 187.5,-336.5 83.5,-336.5"/>
<text text-anchor="middle" x="135.5" y="-343.5" font-family="Helvetica,sans-Serif" font-size="10.00">packet_io_types.h</text>
</a>
</g>
</g>
<!-- Node1&#45;&gt;Node5 -->
<g id="edge4" class="edge">
<title>Node1&#45;&gt;Node5</title>
<path fill="none" stroke="midnightblue" d="M64.82,-387.18C82.3,-377.24 105.33,-364.15 120.27,-355.65"/>
<polygon fill="midnightblue" stroke="midnightblue" points="62.73,-384.34 55.76,-392.32 66.19,-390.43 62.73,-384.34"/>
</g>
<!-- Node3 -->
<g id="node3" class="node">
<title>Node3</title>
<g id="a_node3"><a xlink:href="api_2packet__io_8h.html" target="_top" xlink:title=" ">
<polygon fill="white" stroke="black" points="45.5,-56.5 45.5,-75.5 117.5,-75.5 117.5,-56.5 45.5,-56.5"/>
<text text-anchor="middle" x="81.5" y="-63.5" font-family="Helvetica,sans-Serif" font-size="10.00">packet_io.h</text>
</a>
</g>
</g>
<!-- Node2&#45;&gt;Node3 -->
<g id="edge2" class="edge">
<title>Node2&#45;&gt;Node3</title>
<path fill="none" stroke="midnightblue" d="M80.21,-101.8C80.54,-92.91 80.92,-82.78 81.18,-75.75"/>
<polygon fill="midnightblue" stroke="midnightblue" points="76.7,-101.96 79.83,-112.08 83.7,-102.22 76.7,-101.96"/>
</g>
<!-- Node3&#45;&gt;Node4 -->
<g id="edge3" class="edge">
<title>Node3&#45;&gt;Node4</title>
<path fill="none" stroke="midnightblue" d="M105.82,-51.18C123.3,-41.24 146.33,-28.15 161.27,-19.65"/>
<polygon fill="midnightblue" stroke="midnightblue" points="103.73,-48.34 96.76,-56.32 107.19,-54.43 103.73,-48.34"/>
</g>
<!-- Node6 -->
<g id="node6" class="node">
<title>Node6</title>
<g id="a_node6"><a xlink:href="api_2packet__io__types_8h.html" target="_top" xlink:title=" ">
<polygon fill="white" stroke="black" points="135.5,-280.5 135.5,-299.5 239.5,-299.5 239.5,-280.5 135.5,-280.5"/>
<text text-anchor="middle" x="187.5" y="-287.5" font-family="Helvetica,sans-Serif" font-size="10.00">packet_io_types.h</text>
</a>
</g>
</g>
<!-- Node5&#45;&gt;Node6 -->
<g id="edge5" class="edge">
<title>Node5&#45;&gt;Node6</title>
<path fill="none" stroke="midnightblue" d="M151.18,-328.72C160.34,-319.2 171.55,-307.56 179.07,-299.75"/>
<polygon fill="midnightblue" stroke="midnightblue" points="148.5,-326.45 144.09,-336.08 153.54,-331.31 148.5,-326.45"/>
</g>
<!-- Node6&#45;&gt;Node2 -->
<g id="edge17" class="edge">
<title>Node6&#45;&gt;Node2</title>
<path fill="none" stroke="midnightblue" d="M144.39,-276.72C127.56,-269.78 109.66,-259.33 98.5,-244 72.97,-208.93 76.06,-152.92 78.37,-131.61"/>
<polygon fill="midnightblue" stroke="midnightblue" points="143.52,-280.13 154.11,-280.41 146,-273.59 143.52,-280.13"/>
</g>
<!-- Node7 -->
<g id="node7" class="node">
<title>Node7</title>
<g id="a_node7"><a xlink:href="api_2spec_2classification_8h.html" target="_top" xlink:title=" ">
<polygon fill="white" stroke="black" points="107,-224.5 107,-243.5 196,-243.5 196,-224.5 107,-224.5"/>
<text text-anchor="middle" x="151.5" y="-231.5" font-family="Helvetica,sans-Serif" font-size="10.00">classification.h</text>
</a>
</g>
</g>
<!-- Node6&#45;&gt;Node7 -->
<g id="edge6" class="edge">
<title>Node6&#45;&gt;Node7</title>
<path fill="none" stroke="midnightblue" d="M175.88,-271.57C169.68,-262.27 162.33,-251.25 157.33,-243.75"/>
<polygon fill="midnightblue" stroke="midnightblue" points="173.1,-273.7 181.56,-280.08 178.92,-269.82 173.1,-273.7"/>
</g>
<!-- Node9 -->
<g id="node9" class="node">
<title>Node9</title>
<g id="a_node9"><a xlink:href="api_2spec_2ipsec_8h.html" target="_top" xlink:title=" ">
<polygon fill="white" stroke="black" points="178,-112.5 178,-131.5 229,-131.5 229,-112.5 178,-112.5"/>
<text text-anchor="middle" x="203.5" y="-119.5" font-family="Helvetica,sans-Serif" font-size="10.00">ipsec.h</text>
</a>
</g>
</g>
<!-- Node6&#45;&gt;Node9 -->
<g id="edge13" class="edge">
<title>Node6&#45;&gt;Node9</title>
<path fill="none" stroke="midnightblue" d="M196.44,-271.2C200.02,-263.11 203.71,-253.3 205.5,-244 213.49,-202.53 207.7,-151.59 204.84,-131.61"/>
<polygon fill="midnightblue" stroke="midnightblue" points="193.23,-269.8 192.12,-280.34 199.56,-272.79 193.23,-269.8"/>
</g>
<!-- Node11 -->
<g id="node11" class="node">
<title>Node11</title>
<g id="a_node11"><a xlink:href="api_2spec_2packet_8h.html" target="_top" xlink:title=" ">
<polygon fill="white" stroke="black" points="354.5,-224.5 354.5,-243.5 412.5,-243.5 412.5,-224.5 354.5,-224.5"/>
<text text-anchor="middle" x="383.5" y="-231.5" font-family="Helvetica,sans-Serif" font-size="10.00">packet.h</text>
</a>
</g>
</g>
<!-- Node6&#45;&gt;Node11 -->
<g id="edge14" class="edge">
<title>Node6&#45;&gt;Node11</title>
<path fill="none" stroke="midnightblue" d="M228.67,-277.66C266.26,-267.3 320.87,-252.25 354.19,-243.08"/>
<polygon fill="midnightblue" stroke="midnightblue" points="227.27,-274.41 218.56,-280.44 229.13,-281.16 227.27,-274.41"/>
</g>
<!-- Node13 -->
<g id="node13" class="node">
<title>Node13</title>
<g id="a_node13"><a xlink:href="api_2spec_2traffic__mngr_8h.html" target="_top" xlink:title=" ">
<polygon fill="white" stroke="black" points="252.5,-224.5 252.5,-243.5 336.5,-243.5 336.5,-224.5 252.5,-224.5"/>
<text text-anchor="middle" x="294.5" y="-231.5" font-family="Helvetica,sans-Serif" font-size="10.00">traffic_mngr.h</text>
</a>
</g>
</g>
<!-- Node6&#45;&gt;Node13 -->
<g id="edge18" class="edge">
<title>Node6&#45;&gt;Node13</title>
<path fill="none" stroke="midnightblue" d="M213.8,-275.73C233.61,-265.73 260.21,-252.31 277.35,-243.65"/>
<polygon fill="midnightblue" stroke="midnightblue" points="212.04,-272.69 204.69,-280.32 215.2,-278.94 212.04,-272.69"/>
</g>
<!-- Node8 -->
<g id="node8" class="node">
<title>Node8</title>
<g id="a_node8"><a xlink:href="api_2classification_8h.html" target="_top" xlink:title=" ">
<polygon fill="white" stroke="black" points="107,-168.5 107,-187.5 196,-187.5 196,-168.5 107,-168.5"/>
<text text-anchor="middle" x="151.5" y="-175.5" font-family="Helvetica,sans-Serif" font-size="10.00">classification.h</text>
</a>
</g>
</g>
<!-- Node7&#45;&gt;Node8 -->
<g id="edge7" class="edge">
<title>Node7&#45;&gt;Node8</title>
<path fill="none" stroke="midnightblue" d="M151.5,-213.8C151.5,-204.91 151.5,-194.78 151.5,-187.75"/>
<polygon fill="midnightblue" stroke="midnightblue" points="148,-214.08 151.5,-224.08 155,-214.08 148,-214.08"/>
</g>
<!-- Node8&#45;&gt;Node2 -->
<g id="edge11" class="edge">
<title>Node8&#45;&gt;Node2</title>
<path fill="none" stroke="midnightblue" d="M131.63,-162.1C118.68,-152.38 102.2,-140.03 91.28,-131.83"/>
<polygon fill="midnightblue" stroke="midnightblue" points="129.83,-165.12 139.93,-168.32 134.03,-159.52 129.83,-165.12"/>
</g>
<!-- Node8&#45;&gt;Node4 -->
<g id="edge12" class="edge">
<title>Node8&#45;&gt;Node4</title>
<path fill="none" stroke="midnightblue" d="M154.22,-158.44C157.72,-134.68 163.98,-92.27 169.5,-56 171.43,-43.34 173.72,-28.68 175.14,-19.62"/>
<polygon fill="midnightblue" stroke="midnightblue" points="150.74,-158.09 152.75,-168.49 157.66,-159.1 150.74,-158.09"/>
</g>
<!-- Node8&#45;&gt;Node9 -->
<g id="edge8" class="edge">
<title>Node8&#45;&gt;Node9</title>
<path fill="none" stroke="midnightblue" d="M167.18,-160.72C176.34,-151.2 187.55,-139.56 195.07,-131.75"/>
<polygon fill="midnightblue" stroke="midnightblue" points="164.5,-158.45 160.09,-168.08 169.54,-163.31 164.5,-158.45"/>
</g>
<!-- Node10 -->
<g id="node10" class="node">
<title>Node10</title>
<g id="a_node10"><a xlink:href="api_2ipsec_8h.html" target="_top" xlink:title=" ">
<polygon fill="white" stroke="black" points="178,-56.5 178,-75.5 229,-75.5 229,-56.5 178,-56.5"/>
<text text-anchor="middle" x="203.5" y="-63.5" font-family="Helvetica,sans-Serif" font-size="10.00">ipsec.h</text>
</a>
</g>
</g>
<!-- Node9&#45;&gt;Node10 -->
<g id="edge9" class="edge">
<title>Node9&#45;&gt;Node10</title>
<path fill="none" stroke="midnightblue" d="M203.5,-101.8C203.5,-92.91 203.5,-82.78 203.5,-75.75"/>
<polygon fill="midnightblue" stroke="midnightblue" points="200,-102.08 203.5,-112.08 207,-102.08 200,-102.08"/>
</g>
<!-- Node10&#45;&gt;Node4 -->
<g id="edge10" class="edge">
<title>Node10&#45;&gt;Node4</title>
<path fill="none" stroke="midnightblue" d="M194.49,-46.98C189.91,-37.82 184.55,-27.09 180.88,-19.75"/>
<polygon fill="midnightblue" stroke="midnightblue" points="191.44,-48.7 199.04,-56.08 197.7,-45.57 191.44,-48.7"/>
</g>
<!-- Node12 -->
<g id="node12" class="node">
<title>Node12</title>
<g id="a_node12"><a xlink:href="api_2packet_8h.html" target="_top" xlink:title=" ">
<polygon fill="white" stroke="black" points="247.5,-112.5 247.5,-131.5 305.5,-131.5 305.5,-112.5 247.5,-112.5"/>
<text text-anchor="middle" x="276.5" y="-119.5" font-family="Helvetica,sans-Serif" font-size="10.00">packet.h</text>
</a>
</g>
</g>
<!-- Node11&#45;&gt;Node12 -->
<g id="edge15" class="edge">
<title>Node11&#45;&gt;Node12</title>
<path fill="none" stroke="midnightblue" d="M375.64,-214.69C369.03,-200.76 358.57,-181.73 345.5,-168 330.61,-152.36 309.28,-139.52 294.29,-131.61"/>
<polygon fill="midnightblue" stroke="midnightblue" points="372.61,-216.49 379.92,-224.16 378.99,-213.61 372.61,-216.49"/>
</g>
<!-- Node12&#45;&gt;Node4 -->
<g id="edge16" class="edge">
<title>Node12&#45;&gt;Node4</title>
<path fill="none" stroke="midnightblue" d="M268.44,-102.87C261.73,-89.04 251.23,-70.05 238.5,-56 224.75,-40.82 205.11,-27.62 191.64,-19.51"/>
<polygon fill="midnightblue" stroke="midnightblue" points="265.42,-104.67 272.81,-112.27 271.77,-101.72 265.42,-104.67"/>
</g>
<!-- Node14 -->
<g id="node14" class="node">
<title>Node14</title>
<g id="a_node14"><a xlink:href="api_2traffic__mngr_8h.html" target="_top" xlink:title=" ">
<polygon fill="white" stroke="black" points="252.5,-168.5 252.5,-187.5 336.5,-187.5 336.5,-168.5 252.5,-168.5"/>
<text text-anchor="middle" x="294.5" y="-175.5" font-family="Helvetica,sans-Serif" font-size="10.00">traffic_mngr.h</text>
</a>
</g>
</g>
<!-- Node13&#45;&gt;Node14 -->
<g id="edge19" class="edge">
<title>Node13&#45;&gt;Node14</title>
<path fill="none" stroke="midnightblue" d="M294.5,-213.8C294.5,-204.91 294.5,-194.78 294.5,-187.75"/>
<polygon fill="midnightblue" stroke="midnightblue" points="291,-214.08 294.5,-224.08 298,-214.08 291,-214.08"/>
</g>
<!-- Node14&#45;&gt;Node4 -->
<g id="edge21" class="edge">
<title>Node14&#45;&gt;Node4</title>
<path fill="none" stroke="midnightblue" d="M306.2,-159.83C313.72,-146.55 320.97,-127.83 314.5,-112 294.38,-62.81 234.93,-33.03 200.98,-19.56"/>
<polygon fill="midnightblue" stroke="midnightblue" points="303.17,-158.07 300.87,-168.42 309.12,-161.77 303.17,-158.07"/>
</g>
<!-- Node14&#45;&gt;Node9 -->
<g id="edge20" class="edge">
<title>Node14&#45;&gt;Node9</title>
<path fill="none" stroke="midnightblue" d="M271.21,-163.18C254.46,-153.24 232.4,-140.15 218.08,-131.65"/>
<polygon fill="midnightblue" stroke="midnightblue" points="269.49,-166.23 279.88,-168.32 273.07,-160.21 269.49,-166.23"/>
</g>
</g>
</svg>
