<?xml version="1.0" encoding="UTF-8" standalone="no"?>
<!DOCTYPE svg PUBLIC "-//W3C//DTD SVG 1.1//EN"
 "http://www.w3.org/Graphics/SVG/1.1/DTD/svg11.dtd">
<!-- Generated by graphviz version 2.43.0 (0)
 -->
<!-- Title: packet_io_stats.h Pages: 1 -->
<svg width="391pt" height="476pt"
 viewBox="0.00 0.00 390.50 476.00" xmlns="http://www.w3.org/2000/svg" xmlns:xlink="http://www.w3.org/1999/xlink">
<g id="graph0" class="graph" transform="scale(1 1) rotate(0) translate(4 472)">
<title>packet_io_stats.h</title>
<polygon fill="white" stroke="transparent" points="-4,4 -4,-472 386.5,-472 386.5,4 -4,4"/>
<!-- Node1 -->
<g id="node1" class="node">
<title>Node1</title>
<g id="a_node1"><a xlink:title=" ">
<polygon fill="#bfbfbf" stroke="black" points="0,-448.5 0,-467.5 101,-467.5 101,-448.5 0,-448.5"/>
<text text-anchor="middle" x="50.5" y="-455.5" font-family="Helvetica,sans-Serif" font-size="10.00">packet_io_stats.h</text>
</a>
</g>
</g>
<!-- Node2 -->
<g id="node2" class="node">
<title>Node2</title>
<g id="a_node2"><a xlink:href="packet__io__stats_8h.html" target="_top" xlink:title=" ">
<polygon fill="white" stroke="black" points="0,-392.5 0,-411.5 101,-411.5 101,-392.5 0,-392.5"/>
<text text-anchor="middle" x="50.5" y="-399.5" font-family="Helvetica,sans-Serif" font-size="10.00">packet_io_stats.h</text>
</a>
</g>
</g>
<!-- Node1&#45;&gt;Node2 -->
<g id="edge1" class="edge">
<title>Node1&#45;&gt;Node2</title>
<path fill="none" stroke="midnightblue" d="M50.5,-437.8C50.5,-428.91 50.5,-418.78 50.5,-411.75"/>
<polygon fill="midnightblue" stroke="midnightblue" points="47,-438.08 50.5,-448.08 54,-438.08 47,-438.08"/>
</g>
<!-- Node3 -->
<g id="node3" class="node">
<title>Node3</title>
<g id="a_node3"><a xlink:href="api_2spec_2packet__io_8h.html" target="_top" xlink:title=" ">
<polygon fill="white" stroke="black" points="16.5,-112.5 16.5,-131.5 88.5,-131.5 88.5,-112.5 16.5,-112.5"/>
<text text-anchor="middle" x="52.5" y="-119.5" font-family="Helvetica,sans-Serif" font-size="10.00">packet_io.h</text>
</a>
</g>
</g>
<!-- Node2&#45;&gt;Node3 -->
<g id="edge2" class="edge">
<title>Node2&#45;&gt;Node3</title>
<path fill="none" stroke="midnightblue" d="M39.82,-383.5C27.97,-362.37 10.5,-325.38 10.5,-291 10.5,-291 10.5,-291 10.5,-233 10.5,-192.93 35.12,-149.74 46.66,-131.69"/>
<polygon fill="midnightblue" stroke="midnightblue" points="36.88,-385.39 44.94,-392.27 42.92,-381.87 36.88,-385.39"/>
</g>
<!-- Node6 -->
<g id="node6" class="node">
<title>Node6</title>
<g id="a_node6"><a xlink:href="api_2spec_2packet__io__types_8h.html" target="_top" xlink:title=" ">
<polygon fill="white" stroke="black" points="53.5,-336.5 53.5,-355.5 157.5,-355.5 157.5,-336.5 53.5,-336.5"/>
<text text-anchor="middle" x="105.5" y="-343.5" font-family="Helvetica,sans-Serif" font-size="10.00">packet_io_types.h</text>
</a>
</g>
</g>
<!-- Node2&#45;&gt;Node6 -->
<g id="edge5" class="edge">
<title>Node2&#45;&gt;Node6</title>
<path fill="none" stroke="midnightblue" d="M66.79,-385C76.54,-375.43 88.55,-363.64 96.59,-355.75"/>
<polygon fill="midnightblue" stroke="midnightblue" points="64.27,-382.58 59.58,-392.08 69.17,-387.57 64.27,-382.58"/>
</g>
<!-- Node4 -->
<g id="node4" class="node">
<title>Node4</title>
<g id="a_node4"><a xlink:href="api_2packet__io_8h.html" target="_top" xlink:title=" ">
<polygon fill="white" stroke="black" points="19.5,-56.5 19.5,-75.5 91.5,-75.5 91.5,-56.5 19.5,-56.5"/>
<text text-anchor="middle" x="55.5" y="-63.5" font-family="Helvetica,sans-Serif" font-size="10.00">packet_io.h</text>
</a>
</g>
</g>
<!-- Node3&#45;&gt;Node4 -->
<g id="edge3" class="edge">
<title>Node3&#45;&gt;Node4</title>
<path fill="none" stroke="midnightblue" d="M53.57,-101.8C54.06,-92.91 54.62,-82.78 55.01,-75.75"/>
<polygon fill="midnightblue" stroke="midnightblue" points="50.06,-101.9 53,-112.08 57.04,-102.29 50.06,-101.9"/>
</g>
<!-- Node5 -->
<g id="node5" class="node">
<title>Node5</title>
<g id="a_node5"><a xlink:href="odp__api_8h.html" target="_top" xlink:title=" ">
<polygon fill="white" stroke="black" points="143.5,-0.5 143.5,-19.5 207.5,-19.5 207.5,-0.5 143.5,-0.5"/>
<text text-anchor="middle" x="175.5" y="-7.5" font-family="Helvetica,sans-Serif" font-size="10.00">odp_api.h</text>
</a>
</g>
</g>
<!-- Node4&#45;&gt;Node5 -->
<g id="edge4" class="edge">
<title>Node4&#45;&gt;Node5</title>
<path fill="none" stroke="midnightblue" d="M83.87,-52.23C106.32,-42.13 137.04,-28.31 156.57,-19.52"/>
<polygon fill="midnightblue" stroke="midnightblue" points="82.2,-49.15 74.51,-56.44 85.07,-55.53 82.2,-49.15"/>
</g>
<!-- Node7 -->
<g id="node7" class="node">
<title>Node7</title>
<g id="a_node7"><a xlink:href="api_2packet__io__types_8h.html" target="_top" xlink:title=" ">
<polygon fill="white" stroke="black" points="105.5,-280.5 105.5,-299.5 209.5,-299.5 209.5,-280.5 105.5,-280.5"/>
<text text-anchor="middle" x="157.5" y="-287.5" font-family="Helvetica,sans-Serif" font-size="10.00">packet_io_types.h</text>
</a>
</g>
</g>
<!-- Node6&#45;&gt;Node7 -->
<g id="edge6" class="edge">
<title>Node6&#45;&gt;Node7</title>
<path fill="none" stroke="midnightblue" d="M121.18,-328.72C130.34,-319.2 141.55,-307.56 149.07,-299.75"/>
<polygon fill="midnightblue" stroke="midnightblue" points="118.5,-326.45 114.09,-336.08 123.54,-331.31 118.5,-326.45"/>
</g>
<!-- Node7&#45;&gt;Node3 -->
<g id="edge18" class="edge">
<title>Node7&#45;&gt;Node3</title>
<path fill="none" stroke="midnightblue" d="M113.82,-276.69C97.07,-269.77 79.39,-259.35 68.5,-244 43.49,-208.74 48.18,-152.84 51.12,-131.59"/>
<polygon fill="midnightblue" stroke="midnightblue" points="112.92,-280.09 123.51,-280.37 115.4,-273.55 112.92,-280.09"/>
</g>
<!-- Node8 -->
<g id="node8" class="node">
<title>Node8</title>
<g id="a_node8"><a xlink:href="api_2spec_2classification_8h.html" target="_top" xlink:title=" ">
<polygon fill="white" stroke="black" points="77,-224.5 77,-243.5 166,-243.5 166,-224.5 77,-224.5"/>
<text text-anchor="middle" x="121.5" y="-231.5" font-family="Helvetica,sans-Serif" font-size="10.00">classification.h</text>
</a>
</g>
</g>
<!-- Node7&#45;&gt;Node8 -->
<g id="edge7" class="edge">
<title>Node7&#45;&gt;Node8</title>
<path fill="none" stroke="midnightblue" d="M145.88,-271.57C139.68,-262.27 132.33,-251.25 127.33,-243.75"/>
<polygon fill="midnightblue" stroke="midnightblue" points="143.1,-273.7 151.56,-280.08 148.92,-269.82 143.1,-273.7"/>
</g>
<!-- Node10 -->
<g id="node10" class="node">
<title>Node10</title>
<g id="a_node10"><a xlink:href="api_2spec_2ipsec_8h.html" target="_top" xlink:title=" ">
<polygon fill="white" stroke="black" points="150,-112.5 150,-131.5 201,-131.5 201,-112.5 150,-112.5"/>
<text text-anchor="middle" x="175.5" y="-119.5" font-family="Helvetica,sans-Serif" font-size="10.00">ipsec.h</text>
</a>
</g>
</g>
<!-- Node7&#45;&gt;Node10 -->
<g id="edge14" class="edge">
<title>Node7&#45;&gt;Node10</title>
<path fill="none" stroke="midnightblue" d="M166.44,-271.2C170.02,-263.11 173.71,-253.3 175.5,-244 183.48,-202.54 178.93,-151.59 176.61,-131.61"/>
<polygon fill="midnightblue" stroke="midnightblue" points="163.23,-269.8 162.12,-280.34 169.56,-272.79 163.23,-269.8"/>
</g>
<!-- Node12 -->
<g id="node12" class="node">
<title>Node12</title>
<g id="a_node12"><a xlink:href="api_2spec_2packet_8h.html" target="_top" xlink:title=" ">
<polygon fill="white" stroke="black" points="324.5,-224.5 324.5,-243.5 382.5,-243.5 382.5,-224.5 324.5,-224.5"/>
<text text-anchor="middle" x="353.5" y="-231.5" font-family="Helvetica,sans-Serif" font-size="10.00">packet.h</text>
</a>
</g>
</g>
<!-- Node7&#45;&gt;Node12 -->
<g id="edge15" class="edge">
<title>Node7&#45;&gt;Node12</title>
<path fill="none" stroke="midnightblue" d="M198.67,-277.66C236.26,-267.3 290.87,-252.25 324.19,-243.08"/>
<polygon fill="midnightblue" stroke="midnightblue" points="197.27,-274.41 188.56,-280.44 199.13,-281.16 197.27,-274.41"/>
</g>
<!-- Node14 -->
<g id="node14" class="node">
<title>Node14</title>
<g id="a_node14"><a xlink:href="api_2spec_2traffic__mngr_8h.html" target="_top" xlink:title=" ">
<polygon fill="white" stroke="black" points="222.5,-224.5 222.5,-243.5 306.5,-243.5 306.5,-224.5 222.5,-224.5"/>
<text text-anchor="middle" x="264.5" y="-231.5" font-family="Helvetica,sans-Serif" font-size="10.00">traffic_mngr.h</text>
</a>
</g>
</g>
<!-- Node7&#45;&gt;Node14 -->
<g id="edge19" class="edge">
<title>Node7&#45;&gt;Node14</title>
<path fill="none" stroke="midnightblue" d="M183.8,-275.73C203.61,-265.73 230.21,-252.31 247.35,-243.65"/>
<polygon fill="midnightblue" stroke="midnightblue" points="182.04,-272.69 174.69,-280.32 185.2,-278.94 182.04,-272.69"/>
</g>
<!-- Node9 -->
<g id="node9" class="node">
<title>Node9</title>
<g id="a_node9"><a xlink:href="api_2classification_8h.html" target="_top" xlink:title=" ">
<polygon fill="white" stroke="black" points="77,-168.5 77,-187.5 166,-187.5 166,-168.5 77,-168.5"/>
<text text-anchor="middle" x="121.5" y="-175.5" font-family="Helvetica,sans-Serif" font-size="10.00">classification.h</text>
</a>
</g>
</g>
<!-- Node8&#45;&gt;Node9 -->
<g id="edge8" class="edge">
<title>Node8&#45;&gt;Node9</title>
<path fill="none" stroke="midnightblue" d="M121.5,-213.8C121.5,-204.91 121.5,-194.78 121.5,-187.75"/>
<polygon fill="midnightblue" stroke="midnightblue" points="118,-214.08 121.5,-224.08 125,-214.08 118,-214.08"/>
</g>
<!-- Node9&#45;&gt;Node3 -->
<g id="edge12" class="edge">
<title>Node9&#45;&gt;Node3</title>
<path fill="none" stroke="midnightblue" d="M102.46,-162.1C90.04,-152.38 74.26,-140.03 63.79,-131.83"/>
<polygon fill="midnightblue" stroke="midnightblue" points="100.38,-164.92 110.41,-168.32 104.7,-159.4 100.38,-164.92"/>
</g>
<!-- Node9&#45;&gt;Node5 -->
<g id="edge13" class="edge">
<title>Node9&#45;&gt;Node5</title>
<path fill="none" stroke="midnightblue" d="M121.84,-158.35C122.88,-133.9 126.86,-90.12 141.5,-56 147.52,-41.96 158.83,-28.32 166.75,-19.81"/>
<polygon fill="midnightblue" stroke="midnightblue" points="118.34,-158.29 121.53,-168.4 125.33,-158.51 118.34,-158.29"/>
</g>
<!-- Node9&#45;&gt;Node10 -->
<g id="edge9" class="edge">
<title>Node9&#45;&gt;Node10</title>
<path fill="none" stroke="midnightblue" d="M137.5,-161C147.07,-151.43 158.86,-139.64 166.75,-131.75"/>
<polygon fill="midnightblue" stroke="midnightblue" points="135.01,-158.54 130.42,-168.08 139.96,-163.49 135.01,-158.54"/>
</g>
<!-- Node11 -->
<g id="node11" class="node">
<title>Node11</title>
<g id="a_node11"><a xlink:href="api_2ipsec_8h.html" target="_top" xlink:title=" ">
<polygon fill="white" stroke="black" points="150,-56.5 150,-75.5 201,-75.5 201,-56.5 150,-56.5"/>
<text text-anchor="middle" x="175.5" y="-63.5" font-family="Helvetica,sans-Serif" font-size="10.00">ipsec.h</text>
</a>
</g>
</g>
<!-- Node10&#45;&gt;Node11 -->
<g id="edge10" class="edge">
<title>Node10&#45;&gt;Node11</title>
<path fill="none" stroke="midnightblue" d="M175.5,-101.8C175.5,-92.91 175.5,-82.78 175.5,-75.75"/>
<polygon fill="midnightblue" stroke="midnightblue" points="172,-102.08 175.5,-112.08 179,-102.08 172,-102.08"/>
</g>
<!-- Node11&#45;&gt;Node5 -->
<g id="edge11" class="edge">
<title>Node11&#45;&gt;Node5</title>
<path fill="none" stroke="midnightblue" d="M175.5,-45.8C175.5,-36.91 175.5,-26.78 175.5,-19.75"/>
<polygon fill="midnightblue" stroke="midnightblue" points="172,-46.08 175.5,-56.08 179,-46.08 172,-46.08"/>
</g>
<!-- Node13 -->
<g id="node13" class="node">
<title>Node13</title>
<g id="a_node13"><a xlink:href="api_2packet_8h.html" target="_top" xlink:title=" ">
<polygon fill="white" stroke="black" points="219.5,-112.5 219.5,-131.5 277.5,-131.5 277.5,-112.5 219.5,-112.5"/>
<text text-anchor="middle" x="248.5" y="-119.5" font-family="Helvetica,sans-Serif" font-size="10.00">packet.h</text>
</a>
</g>
</g>
<!-- Node12&#45;&gt;Node13 -->
<g id="edge16" class="edge">
<title>Node12&#45;&gt;Node13</title>
<path fill="none" stroke="midnightblue" d="M345.59,-214.74C338.95,-200.84 328.48,-181.82 315.5,-168 300.92,-152.48 280.03,-139.52 265.47,-131.56"/>
<polygon fill="midnightblue" stroke="midnightblue" points="342.56,-216.54 349.89,-224.19 348.93,-213.64 342.56,-216.54"/>
</g>
<!-- Node13&#45;&gt;Node5 -->
<g id="edge17" class="edge">
<title>Node13&#45;&gt;Node5</title>
<path fill="none" stroke="midnightblue" d="M239.02,-103.36C231.67,-90.06 221.01,-71.53 210.5,-56 201.62,-42.89 190.17,-28.59 182.83,-19.71"/>
<polygon fill="midnightblue" stroke="midnightblue" points="236.07,-105.26 243.93,-112.37 242.21,-101.91 236.07,-105.26"/>
</g>
<!-- Node15 -->
<g id="node15" class="node">
<title>Node15</title>
<g id="a_node15"><a xlink:href="api_2traffic__mngr_8h.html" target="_top" xlink:title=" ">
<polygon fill="white" stroke="black" points="222.5,-168.5 222.5,-187.5 306.5,-187.5 306.5,-168.5 222.5,-168.5"/>
<text text-anchor="middle" x="264.5" y="-175.5" font-family="Helvetica,sans-Serif" font-size="10.00">traffic_mngr.h</text>
</a>
</g>
</g>
<!-- Node14&#45;&gt;Node15 -->
<g id="edge20" class="edge">
<title>Node14&#45;&gt;Node15</title>
<path fill="none" stroke="midnightblue" d="M264.5,-213.8C264.5,-204.91 264.5,-194.78 264.5,-187.75"/>
<polygon fill="midnightblue" stroke="midnightblue" points="261,-214.08 264.5,-224.08 268,-214.08 261,-214.08"/>
</g>
<!-- Node15&#45;&gt;Node5 -->
<g id="edge22" class="edge">
<title>Node15&#45;&gt;Node5</title>
<path fill="none" stroke="midnightblue" d="M277.08,-159.9C285.19,-146.65 293.1,-127.94 286.5,-112 268.05,-67.47 218.3,-34.55 192.12,-19.72"/>
<polygon fill="midnightblue" stroke="midnightblue" points="274,-158.2 271.34,-168.45 279.81,-162.1 274,-158.2"/>
</g>
<!-- Node15&#45;&gt;Node10 -->
<g id="edge21" class="edge">
<title>Node15&#45;&gt;Node10</title>
<path fill="none" stroke="midnightblue" d="M241.26,-162.9C224.94,-153 203.63,-140.07 189.76,-131.65"/>
<polygon fill="midnightblue" stroke="midnightblue" points="239.84,-166.13 250.2,-168.32 243.47,-160.14 239.84,-166.13"/>
</g>
</g>
</svg>
