<?xml version="1.0" encoding="UTF-8" standalone="no"?>
<!DOCTYPE svg PUBLIC "-//W3C//DTD SVG 1.1//EN"
 "http://www.w3.org/Graphics/SVG/1.1/DTD/svg11.dtd">
<!-- Generated by graphviz version 2.43.0 (0)
 -->
<!-- Title: odp_pool_info_t Pages: 1 -->
<svg width="414pt" height="162pt"
 viewBox="0.00 0.00 414.00 162.00" xmlns="http://www.w3.org/2000/svg" xmlns:xlink="http://www.w3.org/1999/xlink">
<g id="graph0" class="graph" transform="scale(1 1) rotate(0) translate(4 158)">
<title>odp_pool_info_t</title>
<polygon fill="white" stroke="transparent" points="-4,4 -4,-158 410,-158 410,4 -4,4"/>
<!-- Node1 -->
<g id="node1" class="node">
<title>Node1</title>
<g id="a_node1"><a xlink:title="Pool information struct Used to get information about a pool.">
<polygon fill="#bfbfbf" stroke="black" points="153,-0.5 153,-19.5 247,-19.5 247,-0.5 153,-0.5"/>
<text text-anchor="middle" x="200" y="-7.5" font-family="Helvetica,sans-Serif" font-size="10.00">odp_pool_info_t</text>
</a>
</g>
</g>
<!-- Node2 -->
<g id="node2" class="node">
<title>Node2</title>
<g id="a_node2"><a xlink:href="structodp__pool__ext__param__t.html" target="_top" xlink:title="External memory pool parameters.">
<polygon fill="white" stroke="black" points="0,-67.5 0,-86.5 128,-86.5 128,-67.5 0,-67.5"/>
<text text-anchor="middle" x="64" y="-74.5" font-family="Helvetica,sans-Serif" font-size="10.00">odp_pool_ext_param_t</text>
</a>
</g>
</g>
<!-- Node2&#45;&gt;Node1 -->
<g id="edge1" class="edge">
<title>Node2&#45;&gt;Node1</title>
<path fill="none" stroke="#9a32cd" stroke-dasharray="5,2" d="M80.93,-60.78C90.18,-53.1 102.13,-44.13 114,-38 129.29,-30.1 147.32,-24 162.91,-19.62"/>
<polygon fill="#9a32cd" stroke="#9a32cd" points="78.58,-58.18 73.28,-67.36 83.15,-63.49 78.58,-58.18"/>
<text text-anchor="middle" x="155" y="-41" font-family="Helvetica,sans-Serif" font-size="10.00"> pool_ext_param</text>
</g>
<!-- Node3 -->
<g id="node3" class="node">
<title>Node3</title>
<g id="a_node3"><a xlink:href="unionodp__pool__stats__opt__t.html" target="_top" xlink:title="Pool statistics counters options.">
<polygon fill="white" stroke="black" points="4,-134.5 4,-153.5 124,-153.5 124,-134.5 4,-134.5"/>
<text text-anchor="middle" x="64" y="-141.5" font-family="Helvetica,sans-Serif" font-size="10.00">odp_pool_stats_opt_t</text>
</a>
</g>
</g>
<!-- Node3&#45;&gt;Node2 -->
<g id="edge2" class="edge">
<title>Node3&#45;&gt;Node2</title>
<path fill="none" stroke="#9a32cd" stroke-dasharray="5,2" d="M64,-124.04C64,-111.67 64,-96.12 64,-86.63"/>
<polygon fill="#9a32cd" stroke="#9a32cd" points="60.5,-124.23 64,-134.23 67.5,-124.23 60.5,-124.23"/>
<text text-anchor="middle" x="78" y="-108" font-family="Helvetica,sans-Serif" font-size="10.00"> stats</text>
</g>
<!-- Node5 -->
<g id="node5" class="node">
<title>Node5</title>
<g id="a_node5"><a xlink:href="structodp__pool__param__t.html" target="_top" xlink:title="Pool parameters.">
<polygon fill="white" stroke="black" points="146.5,-67.5 146.5,-86.5 253.5,-86.5 253.5,-67.5 146.5,-67.5"/>
<text text-anchor="middle" x="200" y="-74.5" font-family="Helvetica,sans-Serif" font-size="10.00">odp_pool_param_t</text>
</a>
</g>
</g>
<!-- Node3&#45;&gt;Node5 -->
<g id="edge6" class="edge">
<title>Node3&#45;&gt;Node5</title>
<path fill="none" stroke="#9a32cd" stroke-dasharray="5,2" d="M91.32,-129.94C118.26,-117.07 158.66,-97.76 181.87,-86.67"/>
<polygon fill="#9a32cd" stroke="#9a32cd" points="89.57,-126.9 82.06,-134.37 92.59,-133.21 89.57,-126.9"/>
<text text-anchor="middle" x="155" y="-108" font-family="Helvetica,sans-Serif" font-size="10.00"> stats</text>
</g>
<!-- Node4 -->
<g id="node4" class="node">
<title>Node4</title>
<g id="a_node4"><a xlink:href="structodp__dma__pool__param__t.html" target="_top" xlink:title="DMA completion event pool parameters.">
<polygon fill="white" stroke="black" points="272,-67.5 272,-86.5 406,-86.5 406,-67.5 272,-67.5"/>
<text text-anchor="middle" x="339" y="-74.5" font-family="Helvetica,sans-Serif" font-size="10.00">odp_dma_pool_param_t</text>
</a>
</g>
</g>
<!-- Node4&#45;&gt;Node1 -->
<g id="edge3" class="edge">
<title>Node4&#45;&gt;Node1</title>
<path fill="none" stroke="#9a32cd" stroke-dasharray="5,2" d="M311.44,-63.11C283.91,-50.24 242.35,-30.81 218.53,-19.67"/>
<polygon fill="#9a32cd" stroke="#9a32cd" points="310,-66.3 320.54,-67.37 312.97,-59.96 310,-66.3"/>
<text text-anchor="middle" x="321" y="-41" font-family="Helvetica,sans-Serif" font-size="10.00"> dma_pool_param</text>
</g>
<!-- Node5&#45;&gt;Node1 -->
<g id="edge4" class="edge">
<title>Node5&#45;&gt;Node1</title>
<path fill="none" stroke="#9a32cd" stroke-dasharray="5,2" d="M200,-57.04C200,-44.67 200,-29.12 200,-19.63"/>
<polygon fill="#9a32cd" stroke="#9a32cd" points="196.5,-57.23 200,-67.23 203.5,-57.23 196.5,-57.23"/>
<text text-anchor="middle" x="220" y="-41" font-family="Helvetica,sans-Serif" font-size="10.00"> params</text>
</g>
<!-- Node6 -->
<g id="node6" class="node">
<title>Node6</title>
<g id="a_node6"><a xlink:href="structodp__pool__pkt__subparam__t.html" target="_top" xlink:title="Packet pool subparameters.">
<polygon fill="white" stroke="black" points="142.5,-134.5 142.5,-153.5 287.5,-153.5 287.5,-134.5 142.5,-134.5"/>
<text text-anchor="middle" x="215" y="-141.5" font-family="Helvetica,sans-Serif" font-size="10.00">odp_pool_pkt_subparam_t</text>
</a>
</g>
</g>
<!-- Node6&#45;&gt;Node5 -->
<g id="edge5" class="edge">
<title>Node6&#45;&gt;Node5</title>
<path fill="none" stroke="#9a32cd" stroke-dasharray="5,2" d="M210.71,-124.41C207.84,-111.99 204.2,-96.22 201.99,-86.63"/>
<polygon fill="#9a32cd" stroke="#9a32cd" points="207.32,-125.28 212.98,-134.23 214.14,-123.7 207.32,-125.28"/>
<text text-anchor="middle" x="218.5" y="-108" font-family="Helvetica,sans-Serif" font-size="10.00"> sub</text>
</g>
</g>
</svg>
