<?xml version="1.0" encoding="UTF-8" standalone="no"?>
<!DOCTYPE svg PUBLIC "-//W3C//DTD SVG 1.1//EN"
 "http://www.w3.org/Graphics/SVG/1.1/DTD/svg11.dtd">
<!-- Generated by graphviz version 2.43.0 (0)
 -->
<!-- Title: thread_types.h Pages: 1 -->
<svg width="960pt" height="308pt"
 viewBox="0.00 0.00 959.85 308.00" xmlns="http://www.w3.org/2000/svg" xmlns:xlink="http://www.w3.org/1999/xlink">
<g id="graph0" class="graph" transform="scale(1 1) rotate(0) translate(4 304)">
<title>thread_types.h</title>
<polygon fill="white" stroke="transparent" points="-4,4 -4,-304 955.85,-304 955.85,4 -4,4"/>
<!-- Node1 -->
<g id="node1" class="node">
<title>Node1</title>
<g id="a_node1"><a xlink:title=" ">
<polygon fill="#bfbfbf" stroke="black" points="267.5,-280.5 267.5,-299.5 356.5,-299.5 356.5,-280.5 267.5,-280.5"/>
<text text-anchor="middle" x="312" y="-287.5" font-family="Helvetica,sans-Serif" font-size="10.00">thread_types.h</text>
</a>
</g>
</g>
<!-- Node2 -->
<g id="node2" class="node">
<title>Node2</title>
<g id="a_node2"><a xlink:href="api_2spec_2init_8h.html" target="_top" xlink:title=" ">
<polygon fill="white" stroke="black" points="258.5,-224.5 258.5,-243.5 299.5,-243.5 299.5,-224.5 258.5,-224.5"/>
<text text-anchor="middle" x="279" y="-231.5" font-family="Helvetica,sans-Serif" font-size="10.00">init.h</text>
</a>
</g>
</g>
<!-- Node1&#45;&gt;Node2 -->
<g id="edge1" class="edge">
<title>Node1&#45;&gt;Node2</title>
<path fill="none" stroke="midnightblue" d="M301.17,-271.27C295.53,-262.05 288.88,-251.17 284.35,-243.75"/>
<polygon fill="midnightblue" stroke="midnightblue" points="298.35,-273.38 306.55,-280.08 304.32,-269.73 298.35,-273.38"/>
</g>
<!-- Node7 -->
<g id="node7" class="node">
<title>Node7</title>
<g id="a_node7"><a xlink:href="api_2thread_8h.html" target="_top" xlink:title=" ">
<polygon fill="white" stroke="black" points="396.5,-224.5 396.5,-243.5 453.5,-243.5 453.5,-224.5 396.5,-224.5"/>
<text text-anchor="middle" x="425" y="-231.5" font-family="Helvetica,sans-Serif" font-size="10.00">thread.h</text>
</a>
</g>
</g>
<!-- Node1&#45;&gt;Node7 -->
<g id="edge7" class="edge">
<title>Node1&#45;&gt;Node7</title>
<path fill="none" stroke="midnightblue" d="M339,-276.1C360.11,-266.01 388.86,-252.27 407.18,-243.52"/>
<polygon fill="midnightblue" stroke="midnightblue" points="337.42,-272.97 329.91,-280.44 340.44,-279.29 337.42,-272.97"/>
</g>
<!-- Node3 -->
<g id="node3" class="node">
<title>Node3</title>
<g id="a_node3"><a xlink:href="api_2init_8h.html" target="_top" xlink:title=" ">
<polygon fill="white" stroke="black" points="100.5,-168.5 100.5,-187.5 141.5,-187.5 141.5,-168.5 100.5,-168.5"/>
<text text-anchor="middle" x="121" y="-175.5" font-family="Helvetica,sans-Serif" font-size="10.00">init.h</text>
</a>
</g>
</g>
<!-- Node2&#45;&gt;Node3 -->
<g id="edge2" class="edge">
<title>Node2&#45;&gt;Node3</title>
<path fill="none" stroke="midnightblue" d="M248.78,-222.67C217.35,-211.93 168.99,-195.4 141.66,-186.06"/>
<polygon fill="midnightblue" stroke="midnightblue" points="247.75,-226.02 258.34,-225.94 250.01,-219.39 247.75,-226.02"/>
</g>
<!-- Node4 -->
<g id="node4" class="node">
<title>Node4</title>
<g id="a_node4"><a xlink:href="api_2spec_2shared__memory_8h.html" target="_top" xlink:title=" ">
<polygon fill="white" stroke="black" points="0,-112.5 0,-131.5 104,-131.5 104,-112.5 0,-112.5"/>
<text text-anchor="middle" x="52" y="-119.5" font-family="Helvetica,sans-Serif" font-size="10.00">shared_memory.h</text>
</a>
</g>
</g>
<!-- Node3&#45;&gt;Node4 -->
<g id="edge3" class="edge">
<title>Node3&#45;&gt;Node4</title>
<path fill="none" stroke="midnightblue" d="M101.96,-162.1C89.54,-152.38 73.76,-140.03 63.29,-131.83"/>
<polygon fill="midnightblue" stroke="midnightblue" points="99.88,-164.92 109.91,-168.32 104.2,-159.4 99.88,-164.92"/>
</g>
<!-- Node6 -->
<g id="node6" class="node">
<title>Node6</title>
<g id="a_node6"><a xlink:href="odp__api_8h.html" target="_top" xlink:title=" ">
<polygon fill="white" stroke="black" points="138,-0.5 138,-19.5 202,-19.5 202,-0.5 138,-0.5"/>
<text text-anchor="middle" x="170" y="-7.5" font-family="Helvetica,sans-Serif" font-size="10.00">odp_api.h</text>
</a>
</g>
</g>
<!-- Node3&#45;&gt;Node6 -->
<g id="edge6" class="edge">
<title>Node3&#45;&gt;Node6</title>
<path fill="none" stroke="midnightblue" d="M126.16,-158.73C132.89,-135.01 145.09,-92.34 156,-56 159.81,-43.3 164.4,-28.66 167.26,-19.61"/>
<polygon fill="midnightblue" stroke="midnightblue" points="122.76,-157.9 123.4,-168.47 129.49,-159.81 122.76,-157.9"/>
</g>
<!-- Node5 -->
<g id="node5" class="node">
<title>Node5</title>
<g id="a_node5"><a xlink:href="api_2shared__memory_8h.html" target="_top" xlink:title=" ">
<polygon fill="white" stroke="black" points="0,-56.5 0,-75.5 104,-75.5 104,-56.5 0,-56.5"/>
<text text-anchor="middle" x="52" y="-63.5" font-family="Helvetica,sans-Serif" font-size="10.00">shared_memory.h</text>
</a>
</g>
</g>
<!-- Node4&#45;&gt;Node5 -->
<g id="edge4" class="edge">
<title>Node4&#45;&gt;Node5</title>
<path fill="none" stroke="midnightblue" d="M52,-101.8C52,-92.91 52,-82.78 52,-75.75"/>
<polygon fill="midnightblue" stroke="midnightblue" points="48.5,-102.08 52,-112.08 55.5,-102.08 48.5,-102.08"/>
</g>
<!-- Node5&#45;&gt;Node6 -->
<g id="edge5" class="edge">
<title>Node5&#45;&gt;Node6</title>
<path fill="none" stroke="midnightblue" d="M79.9,-52.23C101.97,-42.13 132.18,-28.31 151.39,-19.52"/>
<polygon fill="midnightblue" stroke="midnightblue" points="78.33,-49.1 70.7,-56.44 81.25,-55.46 78.33,-49.1"/>
</g>
<!-- Node7&#45;&gt;Node6 -->
<g id="edge19" class="edge">
<title>Node7&#45;&gt;Node6</title>
<path fill="none" stroke="midnightblue" d="M386.3,-228.04C332.91,-219.02 237.74,-194.66 189,-132 162.37,-97.76 166.11,-41.25 168.74,-19.71"/>
<polygon fill="midnightblue" stroke="midnightblue" points="385.97,-231.53 396.4,-229.65 387.07,-224.62 385.97,-231.53"/>
</g>
<!-- Node8 -->
<g id="node8" class="node">
<title>Node8</title>
<g id="a_node8"><a xlink:href="api_2abi-default_2rwlock__recursive_8h.html" target="_top" xlink:title=" ">
<polygon fill="white" stroke="black" points="450,-168.5 450,-187.5 558,-187.5 558,-168.5 450,-168.5"/>
<text text-anchor="middle" x="504" y="-175.5" font-family="Helvetica,sans-Serif" font-size="10.00">rwlock_recursive.h</text>
</a>
</g>
</g>
<!-- Node7&#45;&gt;Node8 -->
<g id="edge8" class="edge">
<title>Node7&#45;&gt;Node8</title>
<path fill="none" stroke="midnightblue" d="M446.03,-218.62C460.47,-208.76 479.14,-195.99 491.34,-187.65"/>
<polygon fill="midnightblue" stroke="midnightblue" points="443.97,-215.79 437.69,-224.32 447.92,-221.57 443.97,-215.79"/>
</g>
<!-- Node16 -->
<g id="node16" class="node">
<title>Node16</title>
<g id="a_node16"><a xlink:href="api_2cpu_8h.html" target="_top" xlink:title=" ">
<polygon fill="white" stroke="black" points="787.5,-56.5 787.5,-75.5 830.5,-75.5 830.5,-56.5 787.5,-56.5"/>
<text text-anchor="middle" x="809" y="-63.5" font-family="Helvetica,sans-Serif" font-size="10.00">cpu.h</text>
</a>
</g>
</g>
<!-- Node7&#45;&gt;Node16 -->
<g id="edge17" class="edge">
<title>Node7&#45;&gt;Node16</title>
<path fill="none" stroke="midnightblue" d="M463.8,-231.59C573.8,-226.69 883.65,-206.41 945,-132 978.21,-91.72 877.07,-74.74 830.8,-69.21"/>
<polygon fill="midnightblue" stroke="midnightblue" points="463.64,-228.09 453.8,-232.01 463.94,-235.08 463.64,-228.09"/>
</g>
<!-- Node9 -->
<g id="node9" class="node">
<title>Node9</title>
<g id="a_node9"><a xlink:href="arch_2arm32-linux_2odp_2api_2abi_2rwlock__recursive_8h_source.html" target="_top" xlink:title=" ">
<polygon fill="white" stroke="black" points="198,-112.5 198,-131.5 306,-131.5 306,-112.5 198,-112.5"/>
<text text-anchor="middle" x="252" y="-119.5" font-family="Helvetica,sans-Serif" font-size="10.00">rwlock_recursive.h</text>
</a>
</g>
</g>
<!-- Node8&#45;&gt;Node9 -->
<g id="edge9" class="edge">
<title>Node8&#45;&gt;Node9</title>
<path fill="none" stroke="midnightblue" d="M454.28,-166.35C406.66,-156.14 335.72,-140.94 291.74,-131.52"/>
<polygon fill="midnightblue" stroke="midnightblue" points="453.56,-169.77 464.07,-168.44 455.03,-162.93 453.56,-169.77"/>
</g>
<!-- Node10 -->
<g id="node10" class="node">
<title>Node10</title>
<g id="a_node10"><a xlink:href="arch_2arm64-linux_2odp_2api_2abi_2rwlock__recursive_8h_source.html" target="_top" xlink:title=" ">
<polygon fill="white" stroke="black" points="324,-112.5 324,-131.5 432,-131.5 432,-112.5 324,-112.5"/>
<text text-anchor="middle" x="378" y="-119.5" font-family="Helvetica,sans-Serif" font-size="10.00">rwlock_recursive.h</text>
</a>
</g>
</g>
<!-- Node8&#45;&gt;Node10 -->
<g id="edge10" class="edge">
<title>Node8&#45;&gt;Node10</title>
<path fill="none" stroke="midnightblue" d="M474.84,-164.5C451.22,-154.38 418.57,-140.39 397.87,-131.52"/>
<polygon fill="midnightblue" stroke="midnightblue" points="473.46,-167.72 484.03,-168.44 476.22,-161.29 473.46,-167.72"/>
</g>
<!-- Node11 -->
<g id="node11" class="node">
<title>Node11</title>
<g id="a_node11"><a xlink:href="arch_2default-linux_2odp_2api_2abi_2rwlock__recursive_8h_source.html" target="_top" xlink:title=" ">
<polygon fill="white" stroke="black" points="450,-112.5 450,-131.5 558,-131.5 558,-112.5 450,-112.5"/>
<text text-anchor="middle" x="504" y="-119.5" font-family="Helvetica,sans-Serif" font-size="10.00">rwlock_recursive.h</text>
</a>
</g>
</g>
<!-- Node8&#45;&gt;Node11 -->
<g id="edge11" class="edge">
<title>Node8&#45;&gt;Node11</title>
<path fill="none" stroke="midnightblue" d="M504,-157.8C504,-148.91 504,-138.78 504,-131.75"/>
<polygon fill="midnightblue" stroke="midnightblue" points="500.5,-158.08 504,-168.08 507.5,-158.08 500.5,-158.08"/>
</g>
<!-- Node12 -->
<g id="node12" class="node">
<title>Node12</title>
<g id="a_node12"><a xlink:href="arch_2power64-linux_2odp_2api_2abi_2rwlock__recursive_8h_source.html" target="_top" xlink:title=" ">
<polygon fill="white" stroke="black" points="576,-112.5 576,-131.5 684,-131.5 684,-112.5 576,-112.5"/>
<text text-anchor="middle" x="630" y="-119.5" font-family="Helvetica,sans-Serif" font-size="10.00">rwlock_recursive.h</text>
</a>
</g>
</g>
<!-- Node8&#45;&gt;Node12 -->
<g id="edge12" class="edge">
<title>Node8&#45;&gt;Node12</title>
<path fill="none" stroke="midnightblue" d="M533.16,-164.5C556.78,-154.38 589.43,-140.39 610.13,-131.52"/>
<polygon fill="midnightblue" stroke="midnightblue" points="531.78,-161.29 523.97,-168.44 534.54,-167.72 531.78,-161.29"/>
</g>
<!-- Node13 -->
<g id="node13" class="node">
<title>Node13</title>
<g id="a_node13"><a xlink:href="arch_2x86__32-linux_2odp_2api_2abi_2rwlock__recursive_8h_source.html" target="_top" xlink:title=" ">
<polygon fill="white" stroke="black" points="702,-112.5 702,-131.5 810,-131.5 810,-112.5 702,-112.5"/>
<text text-anchor="middle" x="756" y="-119.5" font-family="Helvetica,sans-Serif" font-size="10.00">rwlock_recursive.h</text>
</a>
</g>
</g>
<!-- Node8&#45;&gt;Node13 -->
<g id="edge13" class="edge">
<title>Node8&#45;&gt;Node13</title>
<path fill="none" stroke="midnightblue" d="M553.72,-166.35C601.34,-156.14 672.28,-140.94 716.26,-131.52"/>
<polygon fill="midnightblue" stroke="midnightblue" points="552.97,-162.93 543.93,-168.44 554.44,-169.77 552.97,-162.93"/>
</g>
<!-- Node14 -->
<g id="node14" class="node">
<title>Node14</title>
<g id="a_node14"><a xlink:href="arch_2x86__64-linux_2odp_2api_2abi_2rwlock__recursive_8h_source.html" target="_top" xlink:title=" ">
<polygon fill="white" stroke="black" points="828,-112.5 828,-131.5 936,-131.5 936,-112.5 828,-112.5"/>
<text text-anchor="middle" x="882" y="-119.5" font-family="Helvetica,sans-Serif" font-size="10.00">rwlock_recursive.h</text>
</a>
</g>
</g>
<!-- Node8&#45;&gt;Node14 -->
<g id="edge14" class="edge">
<title>Node8&#45;&gt;Node14</title>
<path fill="none" stroke="midnightblue" d="M568.16,-167.83C641.24,-157.39 759.36,-140.52 827.94,-130.72"/>
<polygon fill="midnightblue" stroke="midnightblue" points="567.56,-164.38 558.16,-169.26 568.55,-171.31 567.56,-164.38"/>
</g>
<!-- Node15 -->
<g id="node15" class="node">
<title>Node15</title>
<g id="a_node15"><a xlink:href="api_2rwlock__recursive_8h.html" target="_top" xlink:title=" ">
<polygon fill="white" stroke="black" points="507,-56.5 507,-75.5 615,-75.5 615,-56.5 507,-56.5"/>
<text text-anchor="middle" x="561" y="-63.5" font-family="Helvetica,sans-Serif" font-size="10.00">rwlock_recursive.h</text>
</a>
</g>
</g>
<!-- Node14&#45;&gt;Node15 -->
<g id="edge15" class="edge">
<title>Node14&#45;&gt;Node15</title>
<path fill="none" stroke="midnightblue" d="M820.94,-110.73C760.28,-100.52 668.35,-85.06 611.63,-75.52"/>
<polygon fill="midnightblue" stroke="midnightblue" points="820.69,-114.24 831.14,-112.44 821.86,-107.33 820.69,-114.24"/>
</g>
<!-- Node15&#45;&gt;Node6 -->
<g id="edge16" class="edge">
<title>Node15&#45;&gt;Node6</title>
<path fill="none" stroke="midnightblue" d="M496.62,-56.11C412,-44.42 266.56,-24.34 202.23,-15.45"/>
<polygon fill="midnightblue" stroke="midnightblue" points="496.25,-59.59 506.63,-57.49 497.21,-52.66 496.25,-59.59"/>
</g>
<!-- Node16&#45;&gt;Node6 -->
<g id="edge18" class="edge">
<title>Node16&#45;&gt;Node6</title>
<path fill="none" stroke="midnightblue" d="M777.36,-62.33C668.68,-53.14 311.31,-22.94 202.03,-13.71"/>
<polygon fill="midnightblue" stroke="midnightblue" points="777.11,-65.82 787.37,-63.17 777.7,-58.84 777.11,-65.82"/>
</g>
</g>
</svg>
