<?xml version="1.0" encoding="UTF-8" standalone="no"?>
<!DOCTYPE svg PUBLIC "-//W3C//DTD SVG 1.1//EN"
 "http://www.w3.org/Graphics/SVG/1.1/DTD/svg11.dtd">
<!-- Generated by graphviz version 2.43.0 (0)
 -->
<!-- Title: rwlock_recursive.h Pages: 1 -->
<svg width="1002pt" height="319pt"
 viewBox="0.00 0.00 1001.50 319.00" xmlns="http://www.w3.org/2000/svg" xmlns:xlink="http://www.w3.org/1999/xlink">
<g id="graph0" class="graph" transform="scale(1 1) rotate(0) translate(4 315)">
<title>rwlock_recursive.h</title>
<polygon fill="white" stroke="transparent" points="-4,4 -4,-315 997.5,-315 997.5,4 -4,4"/>
<!-- Node1 -->
<g id="node1" class="node">
<title>Node1</title>
<g id="a_node1"><a xlink:title=" ">
<polygon fill="#bfbfbf" stroke="black" points="392.5,-291.5 392.5,-310.5 500.5,-310.5 500.5,-291.5 392.5,-291.5"/>
<text text-anchor="middle" x="446.5" y="-298.5" font-family="Helvetica,sans-Serif" font-size="10.00">rwlock_recursive.h</text>
</a>
</g>
</g>
<!-- Node2 -->
<g id="node2" class="node">
<title>Node2</title>
<g id="a_node2"><a xlink:href="rwlock_8h.html" target="_top" xlink:title=" ">
<polygon fill="white" stroke="black" points="146,-123.5 146,-142.5 243,-142.5 243,-123.5 146,-123.5"/>
<text text-anchor="middle" x="194.5" y="-130.5" font-family="Helvetica,sans-Serif" font-size="10.00">odp/api/rwlock.h</text>
</a>
</g>
</g>
<!-- Node1&#45;&gt;Node2 -->
<g id="edge1" class="edge">
<title>Node1&#45;&gt;Node2</title>
<path fill="none" stroke="midnightblue" d="M433.3,-291.38C406.66,-273.96 344.55,-233.33 292.5,-199 266.16,-181.63 235.91,-161.55 216.07,-148.35"/>
<polygon fill="midnightblue" stroke="midnightblue" points="217.75,-145.27 207.48,-142.64 213.87,-151.1 217.75,-145.27"/>
</g>
<!-- Node7 -->
<g id="node7" class="node">
<title>Node7</title>
<g id="a_node7"><a xlink:href="std__types_8h.html" target="_top" xlink:title=" ">
<polygon fill="white" stroke="black" points="390.5,-235.5 390.5,-254.5 502.5,-254.5 502.5,-235.5 390.5,-235.5"/>
<text text-anchor="middle" x="446.5" y="-242.5" font-family="Helvetica,sans-Serif" font-size="10.00">odp/api/std_types.h</text>
</a>
</g>
</g>
<!-- Node1&#45;&gt;Node7 -->
<g id="edge6" class="edge">
<title>Node1&#45;&gt;Node7</title>
<path fill="none" stroke="midnightblue" d="M446.5,-291.08C446.5,-284.01 446.5,-273.86 446.5,-264.99"/>
<polygon fill="midnightblue" stroke="midnightblue" points="450,-264.75 446.5,-254.75 443,-264.75 450,-264.75"/>
</g>
<!-- Node14 -->
<g id="node14" class="node">
<title>Node14</title>
<g id="a_node14"><a xlink:href="thread_8h.html" target="_top" xlink:title=" ">
<polygon fill="white" stroke="black" points="688.5,-123.5 688.5,-142.5 784.5,-142.5 784.5,-123.5 688.5,-123.5"/>
<text text-anchor="middle" x="736.5" y="-130.5" font-family="Helvetica,sans-Serif" font-size="10.00">odp/api/thread.h</text>
</a>
</g>
</g>
<!-- Node1&#45;&gt;Node14 -->
<g id="edge17" class="edge">
<title>Node1&#45;&gt;Node14</title>
<path fill="none" stroke="midnightblue" d="M461.68,-291.31C509.15,-264.14 655.03,-180.64 712.69,-147.63"/>
<polygon fill="midnightblue" stroke="midnightblue" points="714.53,-150.61 721.47,-142.61 711.05,-144.54 714.53,-150.61"/>
</g>
<!-- Node3 -->
<g id="node3" class="node">
<title>Node3</title>
<g id="a_node3"><a xlink:title=" ">
<polygon fill="white" stroke="#bfbfbf" points="0,-62 0,-81 115,-81 115,-62 0,-62"/>
<text text-anchor="middle" x="57.5" y="-69" font-family="Helvetica,sans-Serif" font-size="10.00">odp/api/abi/rwlock.h</text>
</a>
</g>
</g>
<!-- Node2&#45;&gt;Node3 -->
<g id="edge2" class="edge">
<title>Node2&#45;&gt;Node3</title>
<path fill="none" stroke="midnightblue" d="M174.87,-123.48C151.68,-113.4 112.88,-96.55 86.29,-85"/>
<polygon fill="midnightblue" stroke="midnightblue" points="87.66,-81.78 77.09,-81.01 84.87,-88.2 87.66,-81.78"/>
</g>
<!-- Node4 -->
<g id="node4" class="node">
<title>Node4</title>
<g id="a_node4"><a xlink:href="spec_2rwlock_8h.html" target="_top" xlink:title=" ">
<polygon fill="white" stroke="black" points="133.5,-62 133.5,-81 255.5,-81 255.5,-62 133.5,-62"/>
<text text-anchor="middle" x="194.5" y="-69" font-family="Helvetica,sans-Serif" font-size="10.00">odp/api/spec/rwlock.h</text>
</a>
</g>
</g>
<!-- Node2&#45;&gt;Node4 -->
<g id="edge3" class="edge">
<title>Node2&#45;&gt;Node4</title>
<path fill="none" stroke="midnightblue" d="M194.5,-123.48C194.5,-115.08 194.5,-101.98 194.5,-91.16"/>
<polygon fill="midnightblue" stroke="midnightblue" points="198,-91.01 194.5,-81.01 191,-91.01 198,-91.01"/>
</g>
<!-- Node5 -->
<g id="node5" class="node">
<title>Node5</title>
<g id="a_node5"><a xlink:title=" ">
<polygon fill="white" stroke="#bfbfbf" points="459,-0.5 459,-19.5 580,-19.5 580,-0.5 459,-0.5"/>
<text text-anchor="middle" x="519.5" y="-7.5" font-family="Helvetica,sans-Serif" font-size="10.00">odp/visibility_begin.h</text>
</a>
</g>
</g>
<!-- Node4&#45;&gt;Node5 -->
<g id="edge4" class="edge">
<title>Node4&#45;&gt;Node5</title>
<path fill="none" stroke="midnightblue" d="M241.06,-61.98C299.59,-51.26 399.98,-32.88 462.88,-21.37"/>
<polygon fill="midnightblue" stroke="midnightblue" points="463.82,-24.75 473.02,-19.51 462.55,-17.87 463.82,-24.75"/>
</g>
<!-- Node6 -->
<g id="node6" class="node">
<title>Node6</title>
<g id="a_node6"><a xlink:title=" ">
<polygon fill="white" stroke="#bfbfbf" points="269.5,-0.5 269.5,-19.5 381.5,-19.5 381.5,-0.5 269.5,-0.5"/>
<text text-anchor="middle" x="325.5" y="-7.5" font-family="Helvetica,sans-Serif" font-size="10.00">odp/visibility_end.h</text>
</a>
</g>
</g>
<!-- Node4&#45;&gt;Node6 -->
<g id="edge5" class="edge">
<title>Node4&#45;&gt;Node6</title>
<path fill="none" stroke="midnightblue" d="M213.27,-61.98C235.35,-51.95 272.22,-35.2 297.64,-23.65"/>
<polygon fill="midnightblue" stroke="midnightblue" points="299.11,-26.83 306.77,-19.51 296.21,-20.46 299.11,-26.83"/>
</g>
<!-- Node8 -->
<g id="node8" class="node">
<title>Node8</title>
<g id="a_node8"><a xlink:title=" ">
<polygon fill="white" stroke="#bfbfbf" points="457.5,-179.5 457.5,-198.5 587.5,-198.5 587.5,-179.5 457.5,-179.5"/>
<text text-anchor="middle" x="522.5" y="-186.5" font-family="Helvetica,sans-Serif" font-size="10.00">odp/api/abi/std_types.h</text>
</a>
</g>
</g>
<!-- Node7&#45;&gt;Node8 -->
<g id="edge7" class="edge">
<title>Node7&#45;&gt;Node8</title>
<path fill="none" stroke="midnightblue" d="M458.71,-235.32C470.28,-227.11 487.88,-214.6 501.66,-204.81"/>
<polygon fill="midnightblue" stroke="midnightblue" points="503.94,-207.48 510.07,-198.83 499.89,-201.77 503.94,-207.48"/>
</g>
<!-- Node9 -->
<g id="node9" class="node">
<title>Node9</title>
<g id="a_node9"><a xlink:href="spec_2std__types_8h.html" target="_top" xlink:title=" ">
<polygon fill="white" stroke="black" points="302,-179.5 302,-198.5 439,-198.5 439,-179.5 302,-179.5"/>
<text text-anchor="middle" x="370.5" y="-186.5" font-family="Helvetica,sans-Serif" font-size="10.00">odp/api/spec/std_types.h</text>
</a>
</g>
</g>
<!-- Node7&#45;&gt;Node9 -->
<g id="edge8" class="edge">
<title>Node7&#45;&gt;Node9</title>
<path fill="none" stroke="midnightblue" d="M434.29,-235.32C422.72,-227.11 405.12,-214.6 391.34,-204.81"/>
<polygon fill="midnightblue" stroke="midnightblue" points="393.11,-201.77 382.93,-198.83 389.06,-207.48 393.11,-201.77"/>
</g>
<!-- Node9&#45;&gt;Node5 -->
<g id="edge9" class="edge">
<title>Node9&#45;&gt;Node5</title>
<path fill="none" stroke="midnightblue" d="M419.87,-179.47C467.91,-168.04 537,-142.36 560.5,-87 565.88,-74.32 565.48,-68.85 560.5,-56 556.05,-44.5 547.13,-34.13 538.75,-26.25"/>
<polygon fill="midnightblue" stroke="midnightblue" points="540.87,-23.46 531.04,-19.51 536.26,-28.73 540.87,-23.46"/>
</g>
<!-- Node9&#45;&gt;Node6 -->
<g id="edge16" class="edge">
<title>Node9&#45;&gt;Node6</title>
<path fill="none" stroke="midnightblue" d="M359.03,-179.5C348.53,-171.2 333.2,-157.71 323.5,-143 308.87,-120.81 307.24,-113.15 302.5,-87 300.04,-73.44 299.28,-69.4 302.5,-56 304.81,-46.42 309.52,-36.58 314.08,-28.56"/>
<polygon fill="midnightblue" stroke="midnightblue" points="317.19,-30.17 319.4,-19.81 311.21,-26.54 317.19,-30.17"/>
</g>
<!-- Node10 -->
<g id="node10" class="node">
<title>Node10</title>
<g id="a_node10"><a xlink:title=" ">
<polygon fill="white" stroke="#bfbfbf" points="333,-123.5 333,-142.5 386,-142.5 386,-123.5 333,-123.5"/>
<text text-anchor="middle" x="359.5" y="-130.5" font-family="Helvetica,sans-Serif" font-size="10.00">stdint.h</text>
</a>
</g>
</g>
<!-- Node9&#45;&gt;Node10 -->
<g id="edge10" class="edge">
<title>Node9&#45;&gt;Node10</title>
<path fill="none" stroke="midnightblue" d="M368.68,-179.08C367.23,-171.93 365.13,-161.64 363.31,-152.69"/>
<polygon fill="midnightblue" stroke="midnightblue" points="366.71,-151.85 361.28,-142.75 359.85,-153.25 366.71,-151.85"/>
</g>
<!-- Node11 -->
<g id="node11" class="node">
<title>Node11</title>
<g id="a_node11"><a xlink:href="align_8h.html" target="_top" xlink:title=" ">
<polygon fill="white" stroke="black" points="404,-123.5 404,-142.5 493,-142.5 493,-123.5 404,-123.5"/>
<text text-anchor="middle" x="448.5" y="-130.5" font-family="Helvetica,sans-Serif" font-size="10.00">odp/api/align.h</text>
</a>
</g>
</g>
<!-- Node9&#45;&gt;Node11 -->
<g id="edge11" class="edge">
<title>Node9&#45;&gt;Node11</title>
<path fill="none" stroke="midnightblue" d="M383.03,-179.32C395.09,-170.98 413.53,-158.21 427.77,-148.35"/>
<polygon fill="midnightblue" stroke="midnightblue" points="429.77,-151.22 436,-142.65 425.78,-145.47 429.77,-151.22"/>
</g>
<!-- Node12 -->
<g id="node12" class="node">
<title>Node12</title>
<g id="a_node12"><a xlink:title=" ">
<polygon fill="white" stroke="#bfbfbf" points="444,-62 444,-81 551,-81 551,-62 444,-62"/>
<text text-anchor="middle" x="497.5" y="-69" font-family="Helvetica,sans-Serif" font-size="10.00">odp/api/abi/align.h</text>
</a>
</g>
</g>
<!-- Node11&#45;&gt;Node12 -->
<g id="edge12" class="edge">
<title>Node11&#45;&gt;Node12</title>
<path fill="none" stroke="midnightblue" d="M455.52,-123.48C462.94,-114.46 474.83,-100.02 484.07,-88.81"/>
<polygon fill="midnightblue" stroke="midnightblue" points="486.84,-90.95 490.49,-81.01 481.43,-86.5 486.84,-90.95"/>
</g>
<!-- Node13 -->
<g id="node13" class="node">
<title>Node13</title>
<g id="a_node13"><a xlink:href="spec_2align_8h.html" target="_top" xlink:title=" ">
<polygon fill="white" stroke="black" points="311.5,-62 311.5,-81 425.5,-81 425.5,-62 311.5,-62"/>
<text text-anchor="middle" x="368.5" y="-69" font-family="Helvetica,sans-Serif" font-size="10.00">odp/api/spec/align.h</text>
</a>
</g>
</g>
<!-- Node11&#45;&gt;Node13 -->
<g id="edge13" class="edge">
<title>Node11&#45;&gt;Node13</title>
<path fill="none" stroke="midnightblue" d="M437.04,-123.48C424.33,-114.02 403.59,-98.6 388.25,-87.19"/>
<polygon fill="midnightblue" stroke="midnightblue" points="390.05,-84.17 379.94,-81.01 385.88,-89.79 390.05,-84.17"/>
</g>
<!-- Node13&#45;&gt;Node5 -->
<g id="edge14" class="edge">
<title>Node13&#45;&gt;Node5</title>
<path fill="none" stroke="midnightblue" d="M390.13,-61.98C415.92,-51.81 459.21,-34.76 488.54,-23.2"/>
<polygon fill="midnightblue" stroke="midnightblue" points="489.88,-26.43 497.91,-19.51 487.32,-19.92 489.88,-26.43"/>
</g>
<!-- Node13&#45;&gt;Node6 -->
<g id="edge15" class="edge">
<title>Node13&#45;&gt;Node6</title>
<path fill="none" stroke="midnightblue" d="M362.34,-61.98C355.89,-53.05 345.6,-38.81 337.53,-27.64"/>
<polygon fill="midnightblue" stroke="midnightblue" points="340.34,-25.56 331.65,-19.51 334.67,-29.66 340.34,-25.56"/>
</g>
<!-- Node15 -->
<g id="node15" class="node">
<title>Node15</title>
<g id="a_node15"><a xlink:href="thread__types_8h.html" target="_top" xlink:title=" ">
<polygon fill="white" stroke="black" points="748,-56.5 748,-86.5 861,-86.5 861,-56.5 748,-56.5"/>
<text text-anchor="start" x="756" y="-74.5" font-family="Helvetica,sans-Serif" font-size="10.00">odp/api/spec/thread</text>
<text text-anchor="middle" x="804.5" y="-63.5" font-family="Helvetica,sans-Serif" font-size="10.00">_types.h</text>
</a>
</g>
</g>
<!-- Node14&#45;&gt;Node15 -->
<g id="edge18" class="edge">
<title>Node14&#45;&gt;Node15</title>
<path fill="none" stroke="midnightblue" d="M746.24,-123.48C755.19,-115.64 768.83,-103.71 780.65,-93.37"/>
<polygon fill="midnightblue" stroke="midnightblue" points="783.25,-95.74 788.47,-86.52 778.64,-90.47 783.25,-95.74"/>
</g>
<!-- Node16 -->
<g id="node16" class="node">
<title>Node16</title>
<g id="a_node16"><a xlink:title=" ">
<polygon fill="white" stroke="#bfbfbf" points="879.5,-62 879.5,-81 993.5,-81 993.5,-62 879.5,-62"/>
<text text-anchor="middle" x="936.5" y="-69" font-family="Helvetica,sans-Serif" font-size="10.00">odp/api/abi/thread.h</text>
</a>
</g>
</g>
<!-- Node14&#45;&gt;Node16 -->
<g id="edge19" class="edge">
<title>Node14&#45;&gt;Node16</title>
<path fill="none" stroke="midnightblue" d="M765.16,-123.48C800.06,-113.09 859.15,-95.51 898,-83.95"/>
<polygon fill="midnightblue" stroke="midnightblue" points="899.31,-87.22 907.9,-81.01 897.32,-80.51 899.31,-87.22"/>
</g>
<!-- Node17 -->
<g id="node17" class="node">
<title>Node17</title>
<g id="a_node17"><a xlink:href="spec_2thread_8h.html" target="_top" xlink:title=" ">
<polygon fill="white" stroke="black" points="607.5,-62 607.5,-81 729.5,-81 729.5,-62 607.5,-62"/>
<text text-anchor="middle" x="668.5" y="-69" font-family="Helvetica,sans-Serif" font-size="10.00">odp/api/spec/thread.h</text>
</a>
</g>
</g>
<!-- Node14&#45;&gt;Node17 -->
<g id="edge20" class="edge">
<title>Node14&#45;&gt;Node17</title>
<path fill="none" stroke="midnightblue" d="M726.76,-123.48C716.15,-114.2 698.98,-99.17 686.02,-87.83"/>
<polygon fill="midnightblue" stroke="midnightblue" points="688.06,-84.96 678.22,-81.01 683.45,-90.23 688.06,-84.96"/>
</g>
<!-- Node17&#45;&gt;Node5 -->
<g id="edge21" class="edge">
<title>Node17&#45;&gt;Node5</title>
<path fill="none" stroke="midnightblue" d="M647.15,-61.98C621.81,-51.86 579.36,-34.9 550.43,-23.35"/>
<polygon fill="midnightblue" stroke="midnightblue" points="551.39,-19.97 540.81,-19.51 548.8,-26.47 551.39,-19.97"/>
</g>
<!-- Node17&#45;&gt;Node6 -->
<g id="edge22" class="edge">
<title>Node17&#45;&gt;Node6</title>
<path fill="none" stroke="midnightblue" d="M619.36,-61.98C557.34,-51.22 450.77,-32.73 384.44,-21.22"/>
<polygon fill="midnightblue" stroke="midnightblue" points="385,-17.77 374.55,-19.51 383.81,-24.67 385,-17.77"/>
</g>
</g>
</svg>
