<?xml version="1.0" encoding="UTF-8" standalone="no"?>
<!DOCTYPE svg PUBLIC "-//W3C//DTD SVG 1.1//EN"
 "http://www.w3.org/Graphics/SVG/1.1/DTD/svg11.dtd">
<!-- Generated by graphviz version 2.43.0 (0)
 -->
<!-- Title: align.h Pages: 1 -->
<svg width="3921pt" height="308pt"
 viewBox="0.00 0.00 3920.50 308.00" xmlns="http://www.w3.org/2000/svg" xmlns:xlink="http://www.w3.org/1999/xlink">
<g id="graph0" class="graph" transform="scale(1 1) rotate(0) translate(4 304)">
<title>align.h</title>
<polygon fill="white" stroke="transparent" points="-4,4 -4,-304 3916.5,-304 3916.5,4 -4,4"/>
<!-- Node1 -->
<g id="node1" class="node">
<title>Node1</title>
<g id="a_node1"><a xlink:title=" ">
<polygon fill="#bfbfbf" stroke="black" points="119.5,-280.5 119.5,-299.5 169.5,-299.5 169.5,-280.5 119.5,-280.5"/>
<text text-anchor="middle" x="144.5" y="-287.5" font-family="Helvetica,sans-Serif" font-size="10.00">align.h</text>
</a>
</g>
</g>
<!-- Node2 -->
<g id="node2" class="node">
<title>Node2</title>
<g id="a_node2"><a xlink:href="abi-default_2atomic_8h.html" target="_top" xlink:title=" ">
<polygon fill="white" stroke="black" points="0,-112.5 0,-131.5 59,-131.5 59,-112.5 0,-112.5"/>
<text text-anchor="middle" x="29.5" y="-119.5" font-family="Helvetica,sans-Serif" font-size="10.00">atomic.h</text>
</a>
</g>
</g>
<!-- Node1&#45;&gt;Node2 -->
<g id="edge1" class="edge">
<title>Node1&#45;&gt;Node2</title>
<path fill="none" stroke="midnightblue" d="M132.56,-271.76C108.19,-236.59 53.52,-157.68 35.44,-131.57"/>
<polygon fill="midnightblue" stroke="midnightblue" points="129.75,-273.85 138.32,-280.08 135.5,-269.86 129.75,-273.85"/>
</g>
<!-- Node3 -->
<g id="node3" class="node">
<title>Node3</title>
<g id="a_node3"><a xlink:href="abi-default_2cpumask_8h.html" target="_top" xlink:title=" ">
<polygon fill="white" stroke="black" points="77.5,-112.5 77.5,-131.5 147.5,-131.5 147.5,-112.5 77.5,-112.5"/>
<text text-anchor="middle" x="112.5" y="-119.5" font-family="Helvetica,sans-Serif" font-size="10.00">cpumask.h</text>
</a>
</g>
</g>
<!-- Node1&#45;&gt;Node3 -->
<g id="edge2" class="edge">
<title>Node1&#45;&gt;Node3</title>
<path fill="none" stroke="midnightblue" d="M138.7,-270.88C136.24,-262.73 133.49,-252.94 131.5,-244 122.24,-202.27 115.81,-151.48 113.47,-131.58"/>
<polygon fill="midnightblue" stroke="midnightblue" points="135.37,-271.95 141.68,-280.46 142.05,-269.87 135.37,-271.95"/>
</g>
<!-- Node4 -->
<g id="node4" class="node">
<title>Node4</title>
<g id="a_node4"><a xlink:href="spec_2std__types_8h.html" target="_top" xlink:title=" ">
<polygon fill="white" stroke="black" points="141,-224.5 141,-243.5 214,-243.5 214,-224.5 141,-224.5"/>
<text text-anchor="middle" x="177.5" y="-231.5" font-family="Helvetica,sans-Serif" font-size="10.00">std_types.h</text>
</a>
</g>
</g>
<!-- Node1&#45;&gt;Node4 -->
<g id="edge3" class="edge">
<title>Node1&#45;&gt;Node4</title>
<path fill="none" stroke="midnightblue" d="M155.33,-271.27C160.97,-262.05 167.62,-251.17 172.15,-243.75"/>
<polygon fill="midnightblue" stroke="midnightblue" points="152.18,-269.73 149.95,-280.08 158.15,-273.38 152.18,-269.73"/>
</g>
<!-- Node99 -->
<g id="node50" class="node">
<title>Node99</title>
<g id="a_node50"><a xlink:href="time__inlines_8h_source.html" target="_top" xlink:title=" ">
<polygon fill="white" stroke="black" points="232.5,-224.5 232.5,-243.5 318.5,-243.5 318.5,-224.5 232.5,-224.5"/>
<text text-anchor="middle" x="275.5" y="-231.5" font-family="Helvetica,sans-Serif" font-size="10.00">time_inlines.h</text>
</a>
</g>
</g>
<!-- Node1&#45;&gt;Node99 -->
<g id="edge56" class="edge">
<title>Node1&#45;&gt;Node99</title>
<path fill="none" stroke="midnightblue" d="M174.82,-276.5C199.38,-266.38 233.32,-252.39 254.84,-243.52"/>
<polygon fill="midnightblue" stroke="midnightblue" points="173.17,-273.4 165.26,-280.44 175.84,-279.87 173.17,-273.4"/>
</g>
<!-- Node5 -->
<g id="node5" class="node">
<title>Node5</title>
<g id="a_node5"><a xlink:href="std__types_8h.html" target="_top" xlink:title=" ">
<polygon fill="white" stroke="black" points="1695,-168.5 1695,-187.5 1768,-187.5 1768,-168.5 1695,-168.5"/>
<text text-anchor="middle" x="1731.5" y="-175.5" font-family="Helvetica,sans-Serif" font-size="10.00">std_types.h</text>
</a>
</g>
</g>
<!-- Node4&#45;&gt;Node5 -->
<g id="edge4" class="edge">
<title>Node4&#45;&gt;Node5</title>
<path fill="none" stroke="midnightblue" d="M224.22,-224.18C542.5,-190.4 1496.27,-180.92 1694.99,-179.28"/>
<polygon fill="midnightblue" stroke="midnightblue" points="223.64,-220.72 214.07,-225.28 224.4,-227.68 223.64,-220.72"/>
</g>
<!-- Node5&#45;&gt;Node2 -->
<g id="edge5" class="edge">
<title>Node5&#45;&gt;Node2</title>
<path fill="none" stroke="midnightblue" d="M1684.48,-177C1448.7,-176.78 393.51,-173.48 68.5,-132 65.47,-131.61 62.32,-131.09 59.2,-130.5"/>
<polygon fill="midnightblue" stroke="midnightblue" points="1684.77,-180.5 1694.77,-177 1684.77,-173.5 1684.77,-180.5"/>
</g>
<!-- Node5&#45;&gt;Node3 -->
<g id="edge8" class="edge">
<title>Node5&#45;&gt;Node3</title>
<path fill="none" stroke="midnightblue" d="M1684.44,-176.75C1456.28,-175.4 463.61,-167.53 156.5,-132 153.71,-131.68 150.84,-131.27 147.96,-130.8"/>
<polygon fill="midnightblue" stroke="midnightblue" points="1684.71,-180.26 1694.73,-176.81 1684.75,-173.26 1684.71,-180.26"/>
</g>
<!-- Node6 -->
<g id="node6" class="node">
<title>Node6</title>
<g id="a_node6"><a xlink:href="abi-default_2barrier_8h.html" target="_top" xlink:title=" ">
<polygon fill="white" stroke="black" points="3388,-112.5 3388,-131.5 3445,-131.5 3445,-112.5 3388,-112.5"/>
<text text-anchor="middle" x="3416.5" y="-119.5" font-family="Helvetica,sans-Serif" font-size="10.00">barrier.h</text>
</a>
</g>
</g>
<!-- Node5&#45;&gt;Node6 -->
<g id="edge6" class="edge">
<title>Node5&#45;&gt;Node6</title>
<path fill="none" stroke="midnightblue" d="M1778.48,-177.06C2012.94,-177.13 3057.84,-175.02 3379.5,-132 3382.25,-131.63 3385.1,-131.14 3387.93,-130.58"/>
<polygon fill="midnightblue" stroke="midnightblue" points="1778.26,-173.56 1768.25,-177.05 1778.25,-180.56 1778.26,-173.56"/>
</g>
<!-- Node7 -->
<g id="node7" class="node">
<title>Node7</title>
<g id="a_node7"><a xlink:href="abi-default_2byteorder_8h.html" target="_top" xlink:title=" ">
<polygon fill="white" stroke="black" points="3463.5,-112.5 3463.5,-131.5 3535.5,-131.5 3535.5,-112.5 3463.5,-112.5"/>
<text text-anchor="middle" x="3499.5" y="-119.5" font-family="Helvetica,sans-Serif" font-size="10.00">byteorder.h</text>
</a>
</g>
</g>
<!-- Node5&#45;&gt;Node7 -->
<g id="edge7" class="edge">
<title>Node5&#45;&gt;Node7</title>
<path fill="none" stroke="midnightblue" d="M1778.25,-176.86C2018.53,-175.99 3116.25,-169.96 3454.5,-132 3457.35,-131.68 3460.29,-131.27 3463.23,-130.81"/>
<polygon fill="midnightblue" stroke="midnightblue" points="1778.1,-173.36 1768.11,-176.9 1778.12,-180.36 1778.1,-173.36"/>
</g>
<!-- Node8 -->
<g id="node8" class="node">
<title>Node8</title>
<g id="a_node8"><a xlink:href="abi-default_2init_8h.html" target="_top" xlink:title=" ">
<polygon fill="white" stroke="black" points="3554,-112.5 3554,-131.5 3595,-131.5 3595,-112.5 3554,-112.5"/>
<text text-anchor="middle" x="3574.5" y="-119.5" font-family="Helvetica,sans-Serif" font-size="10.00">init.h</text>
</a>
</g>
</g>
<!-- Node5&#45;&gt;Node8 -->
<g id="edge9" class="edge">
<title>Node5&#45;&gt;Node8</title>
<path fill="none" stroke="midnightblue" d="M1778.52,-176.58C2045.57,-174.11 3365.77,-160.5 3544.5,-132 3547.51,-131.52 3550.63,-130.82 3553.68,-130.02"/>
<polygon fill="midnightblue" stroke="midnightblue" points="1778.35,-173.08 1768.39,-176.67 1778.42,-180.08 1778.35,-173.08"/>
</g>
<!-- Node9 -->
<g id="node9" class="node">
<title>Node9</title>
<g id="a_node9"><a xlink:href="abi-default_2ipsec_8h.html" target="_top" xlink:title=" ">
<polygon fill="white" stroke="black" points="3613,-112.5 3613,-131.5 3664,-131.5 3664,-112.5 3613,-112.5"/>
<text text-anchor="middle" x="3638.5" y="-119.5" font-family="Helvetica,sans-Serif" font-size="10.00">ipsec.h</text>
</a>
</g>
</g>
<!-- Node5&#45;&gt;Node9 -->
<g id="edge10" class="edge">
<title>Node5&#45;&gt;Node9</title>
<path fill="none" stroke="midnightblue" d="M1778.3,-176.53C2050.02,-173.73 3419,-158.41 3604.5,-132 3607.16,-131.62 3609.91,-131.11 3612.64,-130.51"/>
<polygon fill="midnightblue" stroke="midnightblue" points="1777.97,-173.04 1768.01,-176.64 1778.04,-180.04 1777.97,-173.04"/>
</g>
<!-- Node10 -->
<g id="node10" class="node">
<title>Node10</title>
<g id="a_node10"><a xlink:href="abi-default_2packet__io__types_8h.html" target="_top" xlink:title=" ">
<polygon fill="white" stroke="black" points="3682.5,-112.5 3682.5,-131.5 3786.5,-131.5 3786.5,-112.5 3682.5,-112.5"/>
<text text-anchor="middle" x="3734.5" y="-119.5" font-family="Helvetica,sans-Serif" font-size="10.00">packet_io_types.h</text>
</a>
</g>
</g>
<!-- Node5&#45;&gt;Node10 -->
<g id="edge11" class="edge">
<title>Node5&#45;&gt;Node10</title>
<path fill="none" stroke="midnightblue" d="M1778.24,-176.7C2036.22,-174.93 3288.41,-164.74 3673.5,-132 3676.38,-131.76 3679.33,-131.46 3682.31,-131.13"/>
<polygon fill="midnightblue" stroke="midnightblue" points="1778.07,-173.2 1768.09,-176.77 1778.11,-180.2 1778.07,-173.2"/>
</g>
<!-- Node11 -->
<g id="node11" class="node">
<title>Node11</title>
<g id="a_node11"><a xlink:href="abi-default_2rwlock__recursive_8h.html" target="_top" xlink:title=" ">
<polygon fill="white" stroke="black" points="3804.5,-112.5 3804.5,-131.5 3912.5,-131.5 3912.5,-112.5 3804.5,-112.5"/>
<text text-anchor="middle" x="3858.5" y="-119.5" font-family="Helvetica,sans-Serif" font-size="10.00">rwlock_recursive.h</text>
</a>
</g>
</g>
<!-- Node5&#45;&gt;Node11 -->
<g id="edge12" class="edge">
<title>Node5&#45;&gt;Node11</title>
<path fill="none" stroke="midnightblue" d="M1778.15,-176.75C2045.42,-175.17 3384.61,-165.71 3795.5,-132 3798.36,-131.77 3801.29,-131.49 3804.25,-131.17"/>
<polygon fill="midnightblue" stroke="midnightblue" points="1778,-173.25 1768.02,-176.8 1778.04,-180.25 1778,-173.25"/>
</g>
<!-- Node12 -->
<g id="node12" class="node">
<title>Node12</title>
<g id="a_node12"><a xlink:href="abi-default_2schedule_8h.html" target="_top" xlink:title=" ">
<polygon fill="white" stroke="black" points="166,-112.5 166,-131.5 235,-131.5 235,-112.5 166,-112.5"/>
<text text-anchor="middle" x="200.5" y="-119.5" font-family="Helvetica,sans-Serif" font-size="10.00">schedule.h</text>
</a>
</g>
</g>
<!-- Node5&#45;&gt;Node12 -->
<g id="edge13" class="edge">
<title>Node5&#45;&gt;Node12</title>
<path fill="none" stroke="midnightblue" d="M1684.61,-176.66C1464.62,-174.92 533.35,-165.66 244.5,-132 241.56,-131.66 238.52,-131.22 235.48,-130.72"/>
<polygon fill="midnightblue" stroke="midnightblue" points="1684.82,-180.17 1694.84,-176.74 1684.87,-173.17 1684.82,-180.17"/>
</g>
<!-- Node13 -->
<g id="node13" class="node">
<title>Node13</title>
<g id="a_node13"><a xlink:href="abi-default_2spinlock__recursive_8h.html" target="_top" xlink:title=" ">
<polygon fill="white" stroke="black" points="253.5,-112.5 253.5,-131.5 369.5,-131.5 369.5,-112.5 253.5,-112.5"/>
<text text-anchor="middle" x="311.5" y="-119.5" font-family="Helvetica,sans-Serif" font-size="10.00">spinlock_recursive.h</text>
</a>
</g>
</g>
<!-- Node5&#45;&gt;Node13 -->
<g id="edge14" class="edge">
<title>Node5&#45;&gt;Node13</title>
<path fill="none" stroke="midnightblue" d="M1684.77,-177.14C1511.48,-177.3 889.18,-174.68 378.5,-132 375.58,-131.76 372.58,-131.47 369.57,-131.16"/>
<polygon fill="midnightblue" stroke="midnightblue" points="1684.83,-180.64 1694.83,-177.13 1684.82,-173.64 1684.83,-180.64"/>
</g>
<!-- Node14 -->
<g id="node14" class="node">
<title>Node14</title>
<g id="a_node14"><a xlink:href="abi-default_2traffic__mngr_8h.html" target="_top" xlink:title=" ">
<polygon fill="white" stroke="black" points="387.5,-112.5 387.5,-131.5 471.5,-131.5 471.5,-112.5 387.5,-112.5"/>
<text text-anchor="middle" x="429.5" y="-119.5" font-family="Helvetica,sans-Serif" font-size="10.00">traffic_mngr.h</text>
</a>
</g>
</g>
<!-- Node5&#45;&gt;Node14 -->
<g id="edge15" class="edge">
<title>Node5&#45;&gt;Node14</title>
<path fill="none" stroke="midnightblue" d="M1684.91,-176.19C1487.72,-172.63 720.83,-157.4 480.5,-132 477.64,-131.7 474.7,-131.33 471.74,-130.92"/>
<polygon fill="midnightblue" stroke="midnightblue" points="1684.88,-179.69 1694.95,-176.37 1685.01,-172.69 1684.88,-179.69"/>
</g>
<!-- Node15 -->
<g id="node15" class="node">
<title>Node15</title>
<g id="a_node15"><a xlink:href="barrier_8h.html" target="_top" xlink:title=" ">
<polygon fill="white" stroke="black" points="490,-112.5 490,-131.5 547,-131.5 547,-112.5 490,-112.5"/>
<text text-anchor="middle" x="518.5" y="-119.5" font-family="Helvetica,sans-Serif" font-size="10.00">barrier.h</text>
</a>
</g>
</g>
<!-- Node5&#45;&gt;Node15 -->
<g id="edge16" class="edge">
<title>Node5&#45;&gt;Node15</title>
<path fill="none" stroke="midnightblue" d="M1684.55,-176.25C1494.86,-173.04 784.51,-159.43 561.5,-132 556.81,-131.42 551.86,-130.6 547.07,-129.68"/>
<polygon fill="midnightblue" stroke="midnightblue" points="1684.69,-179.75 1694.75,-176.42 1684.81,-172.75 1684.69,-179.75"/>
</g>
<!-- Node16 -->
<g id="node16" class="node">
<title>Node16</title>
<g id="a_node16"><a xlink:href="classification_8h.html" target="_top" xlink:title=" ">
<polygon fill="white" stroke="red" points="623,-56.5 623,-75.5 712,-75.5 712,-56.5 623,-56.5"/>
<text text-anchor="middle" x="667.5" y="-63.5" font-family="Helvetica,sans-Serif" font-size="10.00">classification.h</text>
</a>
</g>
</g>
<!-- Node5&#45;&gt;Node16 -->
<g id="edge17" class="edge">
<title>Node5&#45;&gt;Node16</title>
<path fill="none" stroke="midnightblue" d="M1684.61,-176.71C1499.92,-175.31 828.43,-167.78 740.5,-132 710.95,-119.98 685.43,-90.56 673.96,-75.78"/>
<polygon fill="midnightblue" stroke="midnightblue" points="1684.79,-180.21 1694.81,-176.78 1684.84,-173.21 1684.79,-180.21"/>
</g>
<!-- Node17 -->
<g id="node17" class="node">
<title>Node17</title>
<g id="a_node17"><a xlink:href="spec_2ipsec_8h.html" target="_top" xlink:title=" ">
<polygon fill="white" stroke="red" points="642,-0.5 642,-19.5 693,-19.5 693,-0.5 642,-0.5"/>
<text text-anchor="middle" x="667.5" y="-7.5" font-family="Helvetica,sans-Serif" font-size="10.00">ipsec.h</text>
</a>
</g>
</g>
<!-- Node5&#45;&gt;Node17 -->
<g id="edge33" class="edge">
<title>Node5&#45;&gt;Node17</title>
<path fill="none" stroke="midnightblue" d="M1684.7,-176.94C1475.29,-176.43 632.85,-171.9 594.5,-132 559.99,-96.09 626.11,-41.05 654.97,-19.79"/>
<polygon fill="midnightblue" stroke="midnightblue" points="1684.75,-180.44 1694.76,-176.96 1684.76,-173.44 1684.75,-180.44"/>
</g>
<!-- Node21 -->
<g id="node18" class="node">
<title>Node21</title>
<g id="a_node18"><a xlink:href="crypto_8h.html" target="_top" xlink:title=" ">
<polygon fill="white" stroke="black" points="749.5,-56.5 749.5,-75.5 805.5,-75.5 805.5,-56.5 749.5,-56.5"/>
<text text-anchor="middle" x="777.5" y="-63.5" font-family="Helvetica,sans-Serif" font-size="10.00">crypto.h</text>
</a>
</g>
</g>
<!-- Node5&#45;&gt;Node21 -->
<g id="edge19" class="edge">
<title>Node5&#45;&gt;Node21</title>
<path fill="none" stroke="midnightblue" d="M1684.68,-176.38C1513.82,-173.88 929.82,-163.12 852.5,-132 822.45,-119.91 796.09,-90.52 784.2,-75.76"/>
<polygon fill="midnightblue" stroke="midnightblue" points="1684.81,-179.88 1694.86,-176.53 1684.91,-172.88 1684.81,-179.88"/>
</g>
<!-- Node22 -->
<g id="node19" class="node">
<title>Node22</title>
<g id="a_node19"><a xlink:href="proto__stats_8h.html" target="_top" xlink:title=" ">
<polygon fill="white" stroke="black" points="861.5,-112.5 861.5,-131.5 941.5,-131.5 941.5,-112.5 861.5,-112.5"/>
<text text-anchor="middle" x="901.5" y="-119.5" font-family="Helvetica,sans-Serif" font-size="10.00">proto_stats.h</text>
</a>
</g>
</g>
<!-- Node5&#45;&gt;Node22 -->
<g id="edge21" class="edge">
<title>Node5&#45;&gt;Node22</title>
<path fill="none" stroke="midnightblue" d="M1684.75,-176.26C1563.36,-173.93 1228.32,-164.78 951.5,-132 948.26,-131.62 944.91,-131.16 941.55,-130.65"/>
<polygon fill="midnightblue" stroke="midnightblue" points="1684.75,-179.76 1694.81,-176.45 1684.88,-172.77 1684.75,-179.76"/>
</g>
<!-- Node23 -->
<g id="node20" class="node">
<title>Node23</title>
<g id="a_node20"><a xlink:href="spec_2buffer_8h.html" target="_top" xlink:title=" ">
<polygon fill="white" stroke="red" points="960,-112.5 960,-131.5 1013,-131.5 1013,-112.5 960,-112.5"/>
<text text-anchor="middle" x="986.5" y="-119.5" font-family="Helvetica,sans-Serif" font-size="10.00">buffer.h</text>
</a>
</g>
</g>
<!-- Node5&#45;&gt;Node23 -->
<g id="edge22" class="edge">
<title>Node5&#45;&gt;Node23</title>
<path fill="none" stroke="midnightblue" d="M1684.59,-176.96C1570.51,-176.21 1269.8,-170.43 1022.5,-132 1019.44,-131.53 1016.27,-130.91 1013.13,-130.23"/>
<polygon fill="midnightblue" stroke="midnightblue" points="1684.7,-180.46 1694.72,-177.01 1684.74,-173.46 1684.7,-180.46"/>
</g>
<!-- Node25 -->
<g id="node21" class="node">
<title>Node25</title>
<g id="a_node21"><a xlink:href="spec_2chksum_8h.html" target="_top" xlink:title=" ">
<polygon fill="white" stroke="red" points="1031.5,-112.5 1031.5,-131.5 1095.5,-131.5 1095.5,-112.5 1031.5,-112.5"/>
<text text-anchor="middle" x="1063.5" y="-119.5" font-family="Helvetica,sans-Serif" font-size="10.00">chksum.h</text>
</a>
</g>
</g>
<!-- Node5&#45;&gt;Node25 -->
<g id="edge23" class="edge">
<title>Node5&#45;&gt;Node25</title>
<path fill="none" stroke="midnightblue" d="M1684.78,-175.86C1580.41,-172.84 1320.6,-162.63 1105.5,-132 1102.25,-131.54 1098.88,-130.97 1095.52,-130.34"/>
<polygon fill="midnightblue" stroke="midnightblue" points="1684.88,-179.37 1694.97,-176.15 1685.07,-172.37 1684.88,-179.37"/>
</g>
<!-- Node27 -->
<g id="node22" class="node">
<title>Node27</title>
<g id="a_node22"><a xlink:href="spec_2classification_8h.html" target="_top" xlink:title=" ">
<polygon fill="white" stroke="black" points="604,-112.5 604,-131.5 693,-131.5 693,-112.5 604,-112.5"/>
<text text-anchor="middle" x="648.5" y="-119.5" font-family="Helvetica,sans-Serif" font-size="10.00">classification.h</text>
</a>
</g>
</g>
<!-- Node5&#45;&gt;Node27 -->
<g id="edge24" class="edge">
<title>Node5&#45;&gt;Node27</title>
<path fill="none" stroke="midnightblue" d="M1684.31,-176.73C1538.58,-175.5 1082.86,-168.77 707.5,-132 702.86,-131.55 698.03,-130.97 693.21,-130.34"/>
<polygon fill="midnightblue" stroke="midnightblue" points="1684.64,-180.23 1694.66,-176.81 1684.69,-173.23 1684.64,-180.23"/>
</g>
<!-- Node28 -->
<g id="node23" class="node">
<title>Node28</title>
<g id="a_node23"><a xlink:href="spec_2comp_8h.html" target="_top" xlink:title=" ">
<polygon fill="white" stroke="red" points="1114,-112.5 1114,-131.5 1167,-131.5 1167,-112.5 1114,-112.5"/>
<text text-anchor="middle" x="1140.5" y="-119.5" font-family="Helvetica,sans-Serif" font-size="10.00">comp.h</text>
</a>
</g>
</g>
<!-- Node5&#45;&gt;Node28 -->
<g id="edge26" class="edge">
<title>Node5&#45;&gt;Node28</title>
<path fill="none" stroke="midnightblue" d="M1684.65,-175.79C1588.7,-172.75 1363.14,-162.68 1176.5,-132 1173.45,-131.5 1170.28,-130.87 1167.13,-130.18"/>
<polygon fill="midnightblue" stroke="midnightblue" points="1684.78,-179.3 1694.88,-176.11 1685,-172.3 1684.78,-179.3"/>
</g>
<!-- Node30 -->
<g id="node24" class="node">
<title>Node30</title>
<g id="a_node24"><a xlink:href="spec_2cpu_8h.html" target="_top" xlink:title=" ">
<polygon fill="white" stroke="red" points="1185,-112.5 1185,-131.5 1228,-131.5 1228,-112.5 1185,-112.5"/>
<text text-anchor="middle" x="1206.5" y="-119.5" font-family="Helvetica,sans-Serif" font-size="10.00">cpu.h</text>
</a>
</g>
</g>
<!-- Node5&#45;&gt;Node30 -->
<g id="edge27" class="edge">
<title>Node5&#45;&gt;Node30</title>
<path fill="none" stroke="midnightblue" d="M1684.7,-175.72C1596.5,-172.65 1399.93,-162.68 1237.5,-132 1234.42,-131.42 1231.2,-130.66 1228.05,-129.83"/>
<polygon fill="midnightblue" stroke="midnightblue" points="1684.8,-179.23 1694.91,-176.06 1685.04,-172.23 1684.8,-179.23"/>
</g>
<!-- Node33 -->
<g id="node25" class="node">
<title>Node33</title>
<g id="a_node25"><a xlink:href="spec_2crypto_8h.html" target="_top" xlink:title=" ">
<polygon fill="white" stroke="black" points="749.5,-112.5 749.5,-131.5 805.5,-131.5 805.5,-112.5 749.5,-112.5"/>
<text text-anchor="middle" x="777.5" y="-119.5" font-family="Helvetica,sans-Serif" font-size="10.00">crypto.h</text>
</a>
</g>
</g>
<!-- Node5&#45;&gt;Node33 -->
<g id="edge28" class="edge">
<title>Node5&#45;&gt;Node33</title>
<path fill="none" stroke="midnightblue" d="M1684.43,-177.35C1549.26,-177.8 1148.54,-175.08 819.5,-132 815.06,-131.42 810.4,-130.62 805.86,-129.73"/>
<polygon fill="midnightblue" stroke="midnightblue" points="1684.83,-180.85 1694.82,-177.31 1684.81,-173.85 1684.83,-180.85"/>
</g>
<!-- Node34 -->
<g id="node26" class="node">
<title>Node34</title>
<g id="a_node26"><a xlink:href="spec_2dma__types_8h.html" target="_top" xlink:title=" ">
<polygon fill="white" stroke="red" points="1246.5,-112.5 1246.5,-131.5 1326.5,-131.5 1326.5,-112.5 1246.5,-112.5"/>
<text text-anchor="middle" x="1286.5" y="-119.5" font-family="Helvetica,sans-Serif" font-size="10.00">dma_types.h</text>
</a>
</g>
</g>
<!-- Node5&#45;&gt;Node34 -->
<g id="edge30" class="edge">
<title>Node5&#45;&gt;Node34</title>
<path fill="none" stroke="midnightblue" d="M1684.52,-172.64C1610.39,-165.54 1461.79,-150.39 1336.5,-132 1333.27,-131.53 1329.93,-131 1326.58,-130.45"/>
<polygon fill="midnightblue" stroke="midnightblue" points="1684.62,-176.17 1694.91,-173.63 1685.29,-169.2 1684.62,-176.17"/>
</g>
<!-- Node51 -->
<g id="node27" class="node">
<title>Node51</title>
<g id="a_node27"><a xlink:href="spec_2hash_8h.html" target="_top" xlink:title=" ">
<polygon fill="white" stroke="red" points="1345,-112.5 1345,-131.5 1394,-131.5 1394,-112.5 1345,-112.5"/>
<text text-anchor="middle" x="1369.5" y="-119.5" font-family="Helvetica,sans-Serif" font-size="10.00">hash.h</text>
</a>
</g>
</g>
<!-- Node5&#45;&gt;Node51 -->
<g id="edge31" class="edge">
<title>Node5&#45;&gt;Node51</title>
<path fill="none" stroke="midnightblue" d="M1684.69,-172.4C1620.78,-165.71 1502.8,-151.88 1403.5,-132 1400.51,-131.4 1397.39,-130.69 1394.3,-129.94"/>
<polygon fill="midnightblue" stroke="midnightblue" points="1684.55,-175.91 1694.85,-173.45 1685.27,-168.94 1684.55,-175.91"/>
</g>
<!-- Node53 -->
<g id="node28" class="node">
<title>Node53</title>
<g id="a_node28"><a xlink:href="spec_2init_8h.html" target="_top" xlink:title=" ">
<polygon fill="white" stroke="red" points="1412,-112.5 1412,-131.5 1453,-131.5 1453,-112.5 1412,-112.5"/>
<text text-anchor="middle" x="1432.5" y="-119.5" font-family="Helvetica,sans-Serif" font-size="10.00">init.h</text>
</a>
</g>
</g>
<!-- Node5&#45;&gt;Node53 -->
<g id="edge32" class="edge">
<title>Node5&#45;&gt;Node53</title>
<path fill="none" stroke="midnightblue" d="M1684.48,-170.19C1631.51,-162.24 1542.95,-148.1 1467.5,-132 1462.84,-131 1457.86,-129.81 1453.16,-128.62"/>
<polygon fill="midnightblue" stroke="midnightblue" points="1684.18,-173.68 1694.59,-171.7 1685.21,-166.76 1684.18,-173.68"/>
</g>
<!-- Node40 -->
<g id="node29" class="node">
<title>Node40</title>
<g id="a_node29"><a xlink:href="spec_2packet_8h.html" target="_top" xlink:title=" ">
<polygon fill="white" stroke="red" points="1478.5,-56.5 1478.5,-75.5 1536.5,-75.5 1536.5,-56.5 1478.5,-56.5"/>
<text text-anchor="middle" x="1507.5" y="-63.5" font-family="Helvetica,sans-Serif" font-size="10.00">packet.h</text>
</a>
</g>
</g>
<!-- Node5&#45;&gt;Node40 -->
<g id="edge34" class="edge">
<title>Node5&#45;&gt;Node40</title>
<path fill="none" stroke="midnightblue" d="M1684.44,-174.68C1623.78,-170.59 1523.34,-159.72 1500.5,-132 1487.22,-115.88 1496.65,-89.35 1503,-75.71"/>
<polygon fill="midnightblue" stroke="midnightblue" points="1684.35,-178.18 1694.55,-175.32 1684.79,-171.2 1684.35,-178.18"/>
</g>
<!-- Node58 -->
<g id="node30" class="node">
<title>Node58</title>
<g id="a_node30"><a xlink:href="spec_2packet__flags_8h.html" target="_top" xlink:title=" ">
<polygon fill="white" stroke="red" points="1575.5,-112.5 1575.5,-131.5 1661.5,-131.5 1661.5,-112.5 1575.5,-112.5"/>
<text text-anchor="middle" x="1618.5" y="-119.5" font-family="Helvetica,sans-Serif" font-size="10.00">packet_flags.h</text>
</a>
</g>
</g>
<!-- Node5&#45;&gt;Node58 -->
<g id="edge35" class="edge">
<title>Node5&#45;&gt;Node58</title>
<path fill="none" stroke="midnightblue" d="M1704.5,-164.1C1683.39,-154.01 1654.64,-140.27 1636.32,-131.52"/>
<polygon fill="midnightblue" stroke="midnightblue" points="1703.06,-167.29 1713.59,-168.44 1706.08,-160.97 1703.06,-167.29"/>
</g>
<!-- Node42 -->
<g id="node31" class="node">
<title>Node42</title>
<g id="a_node31"><a xlink:href="spec_2packet__io__types_8h.html" target="_top" xlink:title=" ">
<polygon fill="white" stroke="red" points="1679.5,-112.5 1679.5,-131.5 1783.5,-131.5 1783.5,-112.5 1679.5,-112.5"/>
<text text-anchor="middle" x="1731.5" y="-119.5" font-family="Helvetica,sans-Serif" font-size="10.00">packet_io_types.h</text>
</a>
</g>
</g>
<!-- Node5&#45;&gt;Node42 -->
<g id="edge36" class="edge">
<title>Node5&#45;&gt;Node42</title>
<path fill="none" stroke="midnightblue" d="M1731.5,-157.8C1731.5,-148.91 1731.5,-138.78 1731.5,-131.75"/>
<polygon fill="midnightblue" stroke="midnightblue" points="1728,-158.08 1731.5,-168.08 1735,-158.08 1728,-158.08"/>
</g>
<!-- Node46 -->
<g id="node32" class="node">
<title>Node46</title>
<g id="a_node32"><a xlink:href="spec_2pool_8h.html" target="_top" xlink:title=" ">
<polygon fill="white" stroke="red" points="1802,-112.5 1802,-131.5 1849,-131.5 1849,-112.5 1802,-112.5"/>
<text text-anchor="middle" x="1825.5" y="-119.5" font-family="Helvetica,sans-Serif" font-size="10.00">pool.h</text>
</a>
</g>
</g>
<!-- Node5&#45;&gt;Node46 -->
<g id="edge37" class="edge">
<title>Node5&#45;&gt;Node46</title>
<path fill="none" stroke="midnightblue" d="M1755.56,-163.18C1772.86,-153.24 1795.65,-140.15 1810.43,-131.65"/>
<polygon fill="midnightblue" stroke="midnightblue" points="1753.53,-160.31 1746.6,-168.32 1757.02,-166.38 1753.53,-160.31"/>
</g>
<!-- Node38 -->
<g id="node33" class="node">
<title>Node38</title>
<g id="a_node33"><a xlink:href="spec_2pool__types_8h.html" target="_top" xlink:title=" ">
<polygon fill="white" stroke="red" points="1867,-112.5 1867,-131.5 1946,-131.5 1946,-112.5 1867,-112.5"/>
<text text-anchor="middle" x="1906.5" y="-119.5" font-family="Helvetica,sans-Serif" font-size="10.00">pool_types.h</text>
</a>
</g>
</g>
<!-- Node5&#45;&gt;Node38 -->
<g id="edge38" class="edge">
<title>Node5&#45;&gt;Node38</title>
<path fill="none" stroke="midnightblue" d="M1768.97,-165.44C1801.97,-155.26 1849.26,-140.66 1878.9,-131.52"/>
<polygon fill="midnightblue" stroke="midnightblue" points="1767.75,-162.15 1759.23,-168.44 1769.82,-168.84 1767.75,-162.15"/>
</g>
<!-- Node60 -->
<g id="node34" class="node">
<title>Node60</title>
<g id="a_node34"><a xlink:href="spec_2proto__stats__types_8h.html" target="_top" xlink:title=" ">
<polygon fill="white" stroke="red" points="1964,-112.5 1964,-131.5 2077,-131.5 2077,-112.5 1964,-112.5"/>
<text text-anchor="middle" x="2020.5" y="-119.5" font-family="Helvetica,sans-Serif" font-size="10.00">proto_stats_types.h</text>
</a>
</g>
</g>
<!-- Node5&#45;&gt;Node60 -->
<g id="edge39" class="edge">
<title>Node5&#45;&gt;Node60</title>
<path fill="none" stroke="midnightblue" d="M1778.12,-168.29C1832.23,-158.18 1920.91,-141.61 1974.68,-131.56"/>
<polygon fill="midnightblue" stroke="midnightblue" points="1777.29,-164.88 1768.1,-170.16 1778.57,-171.76 1777.29,-164.88"/>
</g>
<!-- Node68 -->
<g id="node35" class="node">
<title>Node68</title>
<g id="a_node35"><a xlink:href="spec_2queue_8h.html" target="_top" xlink:title=" ">
<polygon fill="white" stroke="red" points="2095.5,-112.5 2095.5,-131.5 2151.5,-131.5 2151.5,-112.5 2095.5,-112.5"/>
<text text-anchor="middle" x="2123.5" y="-119.5" font-family="Helvetica,sans-Serif" font-size="10.00">queue.h</text>
</a>
</g>
</g>
<!-- Node5&#45;&gt;Node68 -->
<g id="edge40" class="edge">
<title>Node5&#45;&gt;Node68</title>
<path fill="none" stroke="midnightblue" d="M1778.24,-172.77C1846.38,-166.21 1976.81,-152.23 2086.5,-132 2089.36,-131.47 2092.33,-130.86 2095.29,-130.21"/>
<polygon fill="midnightblue" stroke="midnightblue" points="1777.87,-169.29 1768.25,-173.72 1778.54,-176.25 1777.87,-169.29"/>
</g>
<!-- Node70 -->
<g id="node36" class="node">
<title>Node70</title>
<g id="a_node36"><a xlink:href="spec_2random_8h.html" target="_top" xlink:title=" ">
<polygon fill="white" stroke="red" points="2170,-112.5 2170,-131.5 2233,-131.5 2233,-112.5 2170,-112.5"/>
<text text-anchor="middle" x="2201.5" y="-119.5" font-family="Helvetica,sans-Serif" font-size="10.00">random.h</text>
</a>
</g>
</g>
<!-- Node5&#45;&gt;Node70 -->
<g id="edge41" class="edge">
<title>Node5&#45;&gt;Node70</title>
<path fill="none" stroke="midnightblue" d="M1778.24,-173.81C1857.32,-168.04 2022.36,-154.34 2160.5,-132 2163.52,-131.51 2166.66,-130.94 2169.78,-130.33"/>
<polygon fill="midnightblue" stroke="midnightblue" points="1777.85,-170.33 1768.12,-174.54 1778.35,-177.31 1777.85,-170.33"/>
</g>
<!-- Node72 -->
<g id="node37" class="node">
<title>Node72</title>
<g id="a_node37"><a xlink:href="spec_2random__types_8h.html" target="_top" xlink:title=" ">
<polygon fill="white" stroke="red" points="2251,-112.5 2251,-131.5 2346,-131.5 2346,-112.5 2251,-112.5"/>
<text text-anchor="middle" x="2298.5" y="-119.5" font-family="Helvetica,sans-Serif" font-size="10.00">random_types.h</text>
</a>
</g>
</g>
<!-- Node5&#45;&gt;Node72 -->
<g id="edge42" class="edge">
<title>Node5&#45;&gt;Node72</title>
<path fill="none" stroke="midnightblue" d="M1778.31,-174C1868.39,-167.99 2072.05,-153.17 2242.5,-132 2245.24,-131.66 2248.04,-131.29 2250.87,-130.89"/>
<polygon fill="midnightblue" stroke="midnightblue" points="1777.9,-170.52 1768.15,-174.68 1778.36,-177.51 1777.9,-170.52"/>
</g>
<!-- Node74 -->
<g id="node38" class="node">
<title>Node74</title>
<g id="a_node38"><a xlink:href="spec_2reassembly_8h.html" target="_top" xlink:title=" ">
<polygon fill="white" stroke="red" points="2364,-112.5 2364,-131.5 2445,-131.5 2445,-112.5 2364,-112.5"/>
<text text-anchor="middle" x="2404.5" y="-119.5" font-family="Helvetica,sans-Serif" font-size="10.00">reassembly.h</text>
</a>
</g>
</g>
<!-- Node5&#45;&gt;Node74 -->
<g id="edge43" class="edge">
<title>Node5&#45;&gt;Node74</title>
<path fill="none" stroke="midnightblue" d="M1778.39,-175.38C1882.55,-171.39 2140.92,-159.36 2355.5,-132 2358.25,-131.65 2361.07,-131.25 2363.91,-130.81"/>
<polygon fill="midnightblue" stroke="midnightblue" points="1778.07,-171.89 1768.21,-175.76 1778.34,-178.88 1778.07,-171.89"/>
</g>
<!-- Node76 -->
<g id="node39" class="node">
<title>Node76</title>
<g id="a_node39"><a xlink:href="spec_2schedule_8h.html" target="_top" xlink:title=" ">
<polygon fill="white" stroke="red" points="2463,-112.5 2463,-131.5 2532,-131.5 2532,-112.5 2463,-112.5"/>
<text text-anchor="middle" x="2497.5" y="-119.5" font-family="Helvetica,sans-Serif" font-size="10.00">schedule.h</text>
</a>
</g>
</g>
<!-- Node5&#45;&gt;Node76 -->
<g id="edge44" class="edge">
<title>Node5&#45;&gt;Node76</title>
<path fill="none" stroke="midnightblue" d="M1778.42,-176.42C1893.91,-174.48 2201,-166.24 2454.5,-132 2457.22,-131.63 2460.03,-131.19 2462.84,-130.7"/>
<polygon fill="midnightblue" stroke="midnightblue" points="1778.11,-172.92 1768.17,-176.58 1778.23,-179.92 1778.11,-172.92"/>
</g>
<!-- Node78 -->
<g id="node40" class="node">
<title>Node78</title>
<g id="a_node40"><a xlink:href="spec_2schedule__types_8h.html" target="_top" xlink:title=" ">
<polygon fill="white" stroke="red" points="2550,-112.5 2550,-131.5 2651,-131.5 2651,-112.5 2550,-112.5"/>
<text text-anchor="middle" x="2600.5" y="-119.5" font-family="Helvetica,sans-Serif" font-size="10.00">schedule_types.h</text>
</a>
</g>
</g>
<!-- Node5&#45;&gt;Node78 -->
<g id="edge45" class="edge">
<title>Node5&#45;&gt;Node78</title>
<path fill="none" stroke="midnightblue" d="M1778.67,-175.96C1903.47,-172.87 2252.58,-161.99 2541.5,-132 2544.18,-131.72 2546.92,-131.41 2549.69,-131.07"/>
<polygon fill="midnightblue" stroke="midnightblue" points="1778.24,-172.47 1768.33,-176.21 1778.41,-179.47 1778.24,-172.47"/>
</g>
<!-- Node86 -->
<g id="node41" class="node">
<title>Node86</title>
<g id="a_node41"><a xlink:href="spec_2stash_8h.html" target="_top" xlink:title=" ">
<polygon fill="white" stroke="red" points="2669.5,-112.5 2669.5,-131.5 2721.5,-131.5 2721.5,-112.5 2669.5,-112.5"/>
<text text-anchor="middle" x="2695.5" y="-119.5" font-family="Helvetica,sans-Serif" font-size="10.00">stash.h</text>
</a>
</g>
</g>
<!-- Node5&#45;&gt;Node86 -->
<g id="edge46" class="edge">
<title>Node5&#45;&gt;Node86</title>
<path fill="none" stroke="midnightblue" d="M1778.41,-175.99C1942.13,-172.26 2487.57,-158.14 2660.5,-132 2663.35,-131.57 2666.31,-131 2669.24,-130.36"/>
<polygon fill="midnightblue" stroke="midnightblue" points="1778.11,-172.49 1768.19,-176.22 1778.26,-179.49 1778.11,-172.49"/>
</g>
<!-- Node88 -->
<g id="node42" class="node">
<title>Node88</title>
<g id="a_node42"><a xlink:href="spec_2std_8h.html" target="_top" xlink:title=" ">
<polygon fill="white" stroke="red" points="2740,-112.5 2740,-131.5 2781,-131.5 2781,-112.5 2740,-112.5"/>
<text text-anchor="middle" x="2760.5" y="-119.5" font-family="Helvetica,sans-Serif" font-size="10.00">std.h</text>
</a>
</g>
</g>
<!-- Node5&#45;&gt;Node88 -->
<g id="edge47" class="edge">
<title>Node5&#45;&gt;Node88</title>
<path fill="none" stroke="midnightblue" d="M1778.24,-176.42C1949.69,-174.06 2543.78,-163.71 2730.5,-132 2733.5,-131.49 2736.63,-130.77 2739.68,-129.96"/>
<polygon fill="midnightblue" stroke="midnightblue" points="1777.98,-172.92 1768.03,-176.56 1778.08,-179.92 1777.98,-172.92"/>
</g>
<!-- Node90 -->
<g id="node43" class="node">
<title>Node90</title>
<g id="a_node43"><a xlink:href="spec_2threshold_8h.html" target="_top" xlink:title=" ">
<polygon fill="white" stroke="red" points="2799,-112.5 2799,-131.5 2870,-131.5 2870,-112.5 2799,-112.5"/>
<text text-anchor="middle" x="2834.5" y="-119.5" font-family="Helvetica,sans-Serif" font-size="10.00">threshold.h</text>
</a>
</g>
</g>
<!-- Node5&#45;&gt;Node90 -->
<g id="edge48" class="edge">
<title>Node5&#45;&gt;Node90</title>
<path fill="none" stroke="midnightblue" d="M1778.31,-176C1956.19,-172.06 2590.26,-156.57 2790.5,-132 2793.13,-131.68 2795.84,-131.28 2798.56,-130.84"/>
<polygon fill="midnightblue" stroke="midnightblue" points="1778.15,-172.51 1768.23,-176.23 1778.3,-179.5 1778.15,-172.51"/>
</g>
<!-- Node92 -->
<g id="node44" class="node">
<title>Node92</title>
<g id="a_node44"><a xlink:href="spec_2thrmask_8h.html" target="_top" xlink:title=" ">
<polygon fill="white" stroke="red" points="2888.5,-112.5 2888.5,-131.5 2954.5,-131.5 2954.5,-112.5 2888.5,-112.5"/>
<text text-anchor="middle" x="2921.5" y="-119.5" font-family="Helvetica,sans-Serif" font-size="10.00">thrmask.h</text>
</a>
</g>
</g>
<!-- Node5&#45;&gt;Node92 -->
<g id="edge49" class="edge">
<title>Node5&#45;&gt;Node92</title>
<path fill="none" stroke="midnightblue" d="M1778.19,-176.24C1965.25,-173.04 2660.99,-159.49 2879.5,-132 2882.31,-131.65 2885.21,-131.2 2888.12,-130.69"/>
<polygon fill="midnightblue" stroke="midnightblue" points="1778.07,-172.74 1768.13,-176.41 1778.19,-179.74 1778.07,-172.74"/>
</g>
<!-- Node94 -->
<g id="node45" class="node">
<title>Node94</title>
<g id="a_node45"><a xlink:href="spec_2timer__types_8h.html" target="_top" xlink:title=" ">
<polygon fill="white" stroke="red" points="2972.5,-112.5 2972.5,-131.5 3056.5,-131.5 3056.5,-112.5 2972.5,-112.5"/>
<text text-anchor="middle" x="3014.5" y="-119.5" font-family="Helvetica,sans-Serif" font-size="10.00">timer_types.h</text>
</a>
</g>
</g>
<!-- Node5&#45;&gt;Node94 -->
<g id="edge50" class="edge">
<title>Node5&#45;&gt;Node94</title>
<path fill="none" stroke="midnightblue" d="M1778.31,-176.16C1973.99,-172.5 2727.21,-157.04 2963.5,-132 2966.36,-131.7 2969.3,-131.33 2972.26,-130.92"/>
<polygon fill="midnightblue" stroke="midnightblue" points="1778.02,-172.66 1768.09,-176.35 1778.15,-179.66 1778.02,-172.66"/>
</g>
<!-- Node44 -->
<g id="node46" class="node">
<title>Node44</title>
<g id="a_node46"><a xlink:href="spec_2traffic__mngr_8h.html" target="_top" xlink:title=" ">
<polygon fill="white" stroke="red" points="3074.5,-112.5 3074.5,-131.5 3158.5,-131.5 3158.5,-112.5 3074.5,-112.5"/>
<text text-anchor="middle" x="3116.5" y="-119.5" font-family="Helvetica,sans-Serif" font-size="10.00">traffic_mngr.h</text>
</a>
</g>
</g>
<!-- Node5&#45;&gt;Node44 -->
<g id="edge51" class="edge">
<title>Node5&#45;&gt;Node44</title>
<path fill="none" stroke="midnightblue" d="M1778.46,-176.3C1984.3,-173.12 2808.1,-158.92 3065.5,-132 3068.36,-131.7 3071.3,-131.34 3074.26,-130.93"/>
<polygon fill="midnightblue" stroke="midnightblue" points="1778.23,-172.81 1768.29,-176.46 1778.34,-179.81 1778.23,-172.81"/>
</g>
<!-- Node96 -->
<g id="node47" class="node">
<title>Node96</title>
<g id="a_node47"><a xlink:href="system__info_8h.html" target="_top" xlink:title=" ">
<polygon fill="white" stroke="black" points="3176.5,-112.5 3176.5,-131.5 3262.5,-131.5 3262.5,-112.5 3176.5,-112.5"/>
<text text-anchor="middle" x="3219.5" y="-119.5" font-family="Helvetica,sans-Serif" font-size="10.00">system_info.h</text>
</a>
</g>
</g>
<!-- Node5&#45;&gt;Node96 -->
<g id="edge52" class="edge">
<title>Node5&#45;&gt;Node96</title>
<path fill="none" stroke="midnightblue" d="M1778.16,-176.42C1993.05,-173.6 2888.71,-160.35 3167.5,-132 3170.42,-131.7 3173.42,-131.34 3176.43,-130.93"/>
<polygon fill="midnightblue" stroke="midnightblue" points="1778.11,-172.92 1768.16,-176.55 1778.2,-179.92 1778.11,-172.92"/>
</g>
<!-- Node97 -->
<g id="node48" class="node">
<title>Node97</title>
<g id="a_node48"><a xlink:href="time_8h.html" target="_top" xlink:title=" ">
<polygon fill="white" stroke="red" points="1509.5,-112.5 1509.5,-131.5 1557.5,-131.5 1557.5,-112.5 1509.5,-112.5"/>
<text text-anchor="middle" x="1533.5" y="-119.5" font-family="Helvetica,sans-Serif" font-size="10.00">time.h</text>
</a>
</g>
</g>
<!-- Node5&#45;&gt;Node97 -->
<g id="edge53" class="edge">
<title>Node5&#45;&gt;Node97</title>
<path fill="none" stroke="midnightblue" d="M1690.37,-165.78C1650.23,-154.84 1590.54,-138.56 1557.56,-129.56"/>
<polygon fill="midnightblue" stroke="midnightblue" points="1689.56,-169.19 1700.13,-168.44 1691.4,-162.44 1689.56,-169.19"/>
</g>
<!-- Node98 -->
<g id="node49" class="node">
<title>Node98</title>
<g id="a_node49"><a xlink:href="strong__types_8h.html" target="_top" xlink:title=" ">
<polygon fill="white" stroke="black" points="3281,-112.5 3281,-131.5 3370,-131.5 3370,-112.5 3281,-112.5"/>
<text text-anchor="middle" x="3325.5" y="-119.5" font-family="Helvetica,sans-Serif" font-size="10.00">strong_types.h</text>
</a>
</g>
</g>
<!-- Node5&#45;&gt;Node98 -->
<g id="edge55" class="edge">
<title>Node5&#45;&gt;Node98</title>
<path fill="none" stroke="midnightblue" d="M1778.22,-176.49C2002.58,-173.92 2970.96,-161.3 3271.5,-132 3274.53,-131.7 3277.64,-131.34 3280.77,-130.94"/>
<polygon fill="midnightblue" stroke="midnightblue" points="1778.06,-172.99 1768.1,-176.61 1778.14,-179.99 1778.06,-172.99"/>
</g>
<!-- Node16&#45;&gt;Node17 -->
<g id="edge18" class="edge">
<title>Node16&#45;&gt;Node17</title>
<path fill="none" stroke="midnightblue" d="M667.5,-45.8C667.5,-36.91 667.5,-26.78 667.5,-19.75"/>
<polygon fill="midnightblue" stroke="midnightblue" points="664,-46.08 667.5,-56.08 671,-46.08 664,-46.08"/>
</g>
<!-- Node21&#45;&gt;Node17 -->
<g id="edge20" class="edge">
<title>Node21&#45;&gt;Node17</title>
<path fill="none" stroke="midnightblue" d="M750.74,-51.86C730.34,-41.85 702.83,-28.35 685.13,-19.65"/>
<polygon fill="midnightblue" stroke="midnightblue" points="749.31,-55.06 759.83,-56.32 752.39,-48.78 749.31,-55.06"/>
</g>
<!-- Node27&#45;&gt;Node16 -->
<g id="edge25" class="edge">
<title>Node27&#45;&gt;Node16</title>
<path fill="none" stroke="midnightblue" d="M655.05,-102.4C658.22,-93.36 661.89,-82.94 664.42,-75.75"/>
<polygon fill="midnightblue" stroke="midnightblue" points="651.65,-101.49 651.64,-112.08 658.26,-103.81 651.65,-101.49"/>
</g>
<!-- Node33&#45;&gt;Node21 -->
<g id="edge29" class="edge">
<title>Node33&#45;&gt;Node21</title>
<path fill="none" stroke="midnightblue" d="M777.5,-101.8C777.5,-92.91 777.5,-82.78 777.5,-75.75"/>
<polygon fill="midnightblue" stroke="midnightblue" points="774,-102.08 777.5,-112.08 781,-102.08 774,-102.08"/>
</g>
<!-- Node97&#45;&gt;Node40 -->
<g id="edge54" class="edge">
<title>Node97&#45;&gt;Node40</title>
<path fill="none" stroke="midnightblue" d="M1524.83,-102.98C1520.41,-93.82 1515.25,-83.09 1511.71,-75.75"/>
<polygon fill="midnightblue" stroke="midnightblue" points="1521.71,-104.59 1529.21,-112.08 1528.02,-101.55 1521.71,-104.59"/>
</g>
</g>
</svg>
