<?xml version="1.0" encoding="UTF-8" standalone="no"?>
<!DOCTYPE svg PUBLIC "-//W3C//DTD SVG 1.1//EN"
 "http://www.w3.org/Graphics/SVG/1.1/DTD/svg11.dtd">
<!-- Generated by graphviz version 2.43.0 (0)
 -->
<!-- Title: atomic.h Pages: 1 -->
<svg width="437pt" height="84pt"
 viewBox="0.00 0.00 436.50 84.00" xmlns="http://www.w3.org/2000/svg" xmlns:xlink="http://www.w3.org/1999/xlink">
<g id="graph0" class="graph" transform="scale(1 1) rotate(0) translate(4 80)">
<title>atomic.h</title>
<polygon fill="white" stroke="transparent" points="-4,4 -4,-80 432.5,-80 432.5,4 -4,4"/>
<!-- Node1 -->
<g id="node1" class="node">
<title>Node1</title>
<g id="a_node1"><a xlink:title=" ">
<polygon fill="#bfbfbf" stroke="black" points="159,-56.5 159,-75.5 218,-75.5 218,-56.5 159,-56.5"/>
<text text-anchor="middle" x="188.5" y="-63.5" font-family="Helvetica,sans-Serif" font-size="10.00">atomic.h</text>
</a>
</g>
</g>
<!-- Node2 -->
<g id="node2" class="node">
<title>Node2</title>
<g id="a_node2"><a xlink:href="abi-default_2barrier_8h.html" target="_top" xlink:title=" ">
<polygon fill="white" stroke="black" points="0,-0.5 0,-19.5 57,-19.5 57,-0.5 0,-0.5"/>
<text text-anchor="middle" x="28.5" y="-7.5" font-family="Helvetica,sans-Serif" font-size="10.00">barrier.h</text>
</a>
</g>
</g>
<!-- Node1&#45;&gt;Node2 -->
<g id="edge1" class="edge">
<title>Node1&#45;&gt;Node2</title>
<path fill="none" stroke="midnightblue" d="M153.45,-53.17C123.33,-43 80.6,-28.59 53.73,-19.52"/>
<polygon fill="midnightblue" stroke="midnightblue" points="152.55,-56.56 163.15,-56.44 154.79,-49.93 152.55,-56.56"/>
</g>
<!-- Node3 -->
<g id="node3" class="node">
<title>Node3</title>
<g id="a_node3"><a xlink:href="abi-default_2rwlock_8h.html" target="_top" xlink:title=" ">
<polygon fill="white" stroke="black" points="75.5,-0.5 75.5,-19.5 133.5,-19.5 133.5,-0.5 75.5,-0.5"/>
<text text-anchor="middle" x="104.5" y="-7.5" font-family="Helvetica,sans-Serif" font-size="10.00">rwlock.h</text>
</a>
</g>
</g>
<!-- Node1&#45;&gt;Node3 -->
<g id="edge2" class="edge">
<title>Node1&#45;&gt;Node3</title>
<path fill="none" stroke="midnightblue" d="M166.57,-50.9C151.16,-41 131.05,-28.07 117.96,-19.65"/>
<polygon fill="midnightblue" stroke="midnightblue" points="164.7,-53.86 175,-56.32 168.48,-47.97 164.7,-53.86"/>
</g>
<!-- Node4 -->
<g id="node4" class="node">
<title>Node4</title>
<g id="a_node4"><a xlink:href="abi-default_2ticketlock_8h.html" target="_top" xlink:title=" ">
<polygon fill="white" stroke="black" points="152,-0.5 152,-19.5 225,-19.5 225,-0.5 152,-0.5"/>
<text text-anchor="middle" x="188.5" y="-7.5" font-family="Helvetica,sans-Serif" font-size="10.00">ticketlock.h</text>
</a>
</g>
</g>
<!-- Node1&#45;&gt;Node4 -->
<g id="edge3" class="edge">
<title>Node1&#45;&gt;Node4</title>
<path fill="none" stroke="midnightblue" d="M188.5,-45.8C188.5,-36.91 188.5,-26.78 188.5,-19.75"/>
<polygon fill="midnightblue" stroke="midnightblue" points="185,-46.08 188.5,-56.08 192,-46.08 185,-46.08"/>
</g>
<!-- Node5 -->
<g id="node5" class="node">
<title>Node5</title>
<g id="a_node5"><a xlink:href="barrier_8h.html" target="_top" xlink:title=" ">
<polygon fill="white" stroke="black" points="243,-0.5 243,-19.5 300,-19.5 300,-0.5 243,-0.5"/>
<text text-anchor="middle" x="271.5" y="-7.5" font-family="Helvetica,sans-Serif" font-size="10.00">barrier.h</text>
</a>
</g>
</g>
<!-- Node1&#45;&gt;Node5 -->
<g id="edge4" class="edge">
<title>Node1&#45;&gt;Node5</title>
<path fill="none" stroke="midnightblue" d="M210.6,-50.62C225.76,-40.76 245.38,-27.99 258.2,-19.65"/>
<polygon fill="midnightblue" stroke="midnightblue" points="208.31,-47.94 201.84,-56.32 212.13,-53.8 208.31,-47.94"/>
</g>
<!-- Node6 -->
<g id="node6" class="node">
<title>Node6</title>
<g id="a_node6"><a xlink:href="ticketlock__inlines_8h_source.html" target="_top" xlink:title=" ">
<polygon fill="white" stroke="black" points="318.5,-0.5 318.5,-19.5 428.5,-19.5 428.5,-0.5 318.5,-0.5"/>
<text text-anchor="middle" x="373.5" y="-7.5" font-family="Helvetica,sans-Serif" font-size="10.00">ticketlock_inlines.h</text>
</a>
</g>
</g>
<!-- Node1&#45;&gt;Node6 -->
<g id="edge5" class="edge">
<title>Node1&#45;&gt;Node6</title>
<path fill="none" stroke="midnightblue" d="M227.67,-53.57C262.57,-43.38 312.85,-28.7 344.32,-19.52"/>
<polygon fill="midnightblue" stroke="midnightblue" points="226.43,-50.28 217.81,-56.44 228.39,-57 226.43,-50.28"/>
</g>
</g>
</svg>
