<?xml version="1.0" encoding="UTF-8" standalone="no"?>
<!DOCTYPE svg PUBLIC "-//W3C//DTD SVG 1.1//EN"
 "http://www.w3.org/Graphics/SVG/1.1/DTD/svg11.dtd">
<!-- Generated by graphviz version 2.43.0 (0)
 -->
<!-- Title: comp.h Pages: 1 -->
<svg width="974pt" height="755pt"
 viewBox="0.00 0.00 974.00 755.00" xmlns="http://www.w3.org/2000/svg" xmlns:xlink="http://www.w3.org/1999/xlink">
<g id="graph0" class="graph" transform="scale(1 1) rotate(0) translate(4 751)">
<title>comp.h</title>
<polygon fill="white" stroke="transparent" points="-4,4 -4,-751 970,-751 970,4 -4,4"/>
<!-- Node1 -->
<g id="node1" class="node">
<title>Node1</title>
<g id="a_node1"><a xlink:title=" ">
<polygon fill="#bfbfbf" stroke="black" points="450.5,-727.5 450.5,-746.5 503.5,-746.5 503.5,-727.5 450.5,-727.5"/>
<text text-anchor="middle" x="477" y="-734.5" font-family="Helvetica,sans-Serif" font-size="10.00">comp.h</text>
</a>
</g>
</g>
<!-- Node2 -->
<g id="node2" class="node">
<title>Node2</title>
<g id="a_node2"><a xlink:title=" ">
<polygon fill="white" stroke="#bfbfbf" points="356,-671.5 356,-690.5 466,-690.5 466,-671.5 356,-671.5"/>
<text text-anchor="middle" x="411" y="-678.5" font-family="Helvetica,sans-Serif" font-size="10.00">odp/api/abi/comp.h</text>
</a>
</g>
</g>
<!-- Node1&#45;&gt;Node2 -->
<g id="edge1" class="edge">
<title>Node1&#45;&gt;Node2</title>
<path fill="none" stroke="midnightblue" d="M466.4,-727.32C456.54,-719.26 441.65,-707.08 429.78,-697.37"/>
<polygon fill="midnightblue" stroke="midnightblue" points="431.75,-694.46 421.8,-690.83 427.32,-699.88 431.75,-694.46"/>
</g>
<!-- Node3 -->
<g id="node3" class="node">
<title>Node3</title>
<g id="a_node3"><a xlink:href="spec_2comp_8h.html" target="_top" xlink:title=" ">
<polygon fill="white" stroke="black" points="484.5,-671.5 484.5,-690.5 601.5,-690.5 601.5,-671.5 484.5,-671.5"/>
<text text-anchor="middle" x="543" y="-678.5" font-family="Helvetica,sans-Serif" font-size="10.00">odp/api/spec/comp.h</text>
</a>
</g>
</g>
<!-- Node1&#45;&gt;Node3 -->
<g id="edge2" class="edge">
<title>Node1&#45;&gt;Node3</title>
<path fill="none" stroke="midnightblue" d="M487.6,-727.32C497.46,-719.26 512.35,-707.08 524.22,-697.37"/>
<polygon fill="midnightblue" stroke="midnightblue" points="526.68,-699.88 532.2,-690.83 522.25,-694.46 526.68,-699.88"/>
</g>
<!-- Node4 -->
<g id="node4" class="node">
<title>Node4</title>
<g id="a_node4"><a xlink:title=" ">
<polygon fill="white" stroke="#bfbfbf" points="685.5,-0.5 685.5,-19.5 806.5,-19.5 806.5,-0.5 685.5,-0.5"/>
<text text-anchor="middle" x="746" y="-7.5" font-family="Helvetica,sans-Serif" font-size="10.00">odp/visibility_begin.h</text>
</a>
</g>
</g>
<!-- Node3&#45;&gt;Node4 -->
<g id="edge3" class="edge">
<title>Node3&#45;&gt;Node4</title>
<path fill="none" stroke="midnightblue" d="M601.82,-676.23C718.05,-667.17 966,-639.1 966,-564.5 966,-564.5 966,-564.5 966,-132 966,-62.69 881.14,-32.8 816.83,-20.1"/>
<polygon fill="midnightblue" stroke="midnightblue" points="817.17,-16.6 806.7,-18.21 815.88,-23.49 817.17,-16.6"/>
</g>
<!-- Node5 -->
<g id="node5" class="node">
<title>Node5</title>
<g id="a_node5"><a xlink:href="event__types_8h.html" target="_top" xlink:title=" ">
<polygon fill="white" stroke="black" points="84.5,-123.5 84.5,-142.5 209.5,-142.5 209.5,-123.5 84.5,-123.5"/>
<text text-anchor="middle" x="147" y="-130.5" font-family="Helvetica,sans-Serif" font-size="10.00">odp/api/event_types.h</text>
</a>
</g>
</g>
<!-- Node3&#45;&gt;Node5 -->
<g id="edge4" class="edge">
<title>Node3&#45;&gt;Node5</title>
<path fill="none" stroke="midnightblue" d="M497.53,-671.47C394.08,-651.44 150,-600.37 150,-564.5 150,-564.5 150,-564.5 150,-244 150,-211.94 148.71,-174.63 147.82,-152.74"/>
<polygon fill="midnightblue" stroke="midnightblue" points="151.31,-152.4 147.39,-142.56 144.32,-152.69 151.31,-152.4"/>
</g>
<!-- Node8 -->
<g id="node8" class="node">
<title>Node8</title>
<g id="a_node8"><a xlink:title=" ">
<polygon fill="white" stroke="#bfbfbf" points="262,-0.5 262,-19.5 374,-19.5 374,-0.5 262,-0.5"/>
<text text-anchor="middle" x="318" y="-7.5" font-family="Helvetica,sans-Serif" font-size="10.00">odp/visibility_end.h</text>
</a>
</g>
</g>
<!-- Node3&#45;&gt;Node8 -->
<g id="edge44" class="edge">
<title>Node3&#45;&gt;Node8</title>
<path fill="none" stroke="midnightblue" d="M484.49,-671.84C412.47,-661.64 294.36,-644.39 251,-635 137.76,-610.46 0,-680.37 0,-564.5 0,-564.5 0,-564.5 0,-132 0,-91.81 15.43,-78.09 49,-56 81.5,-34.62 183.1,-22.15 251.71,-15.95"/>
<polygon fill="midnightblue" stroke="midnightblue" points="252.34,-19.41 262,-15.05 251.73,-12.44 252.34,-19.41"/>
</g>
<!-- Node9 -->
<g id="node9" class="node">
<title>Node9</title>
<g id="a_node9"><a xlink:href="packet__types_8h.html" target="_top" xlink:title=" ">
<polygon fill="white" stroke="black" points="555.5,-615.5 555.5,-634.5 684.5,-634.5 684.5,-615.5 555.5,-615.5"/>
<text text-anchor="middle" x="620" y="-622.5" font-family="Helvetica,sans-Serif" font-size="10.00">odp/api/packet_types.h</text>
</a>
</g>
</g>
<!-- Node3&#45;&gt;Node9 -->
<g id="edge9" class="edge">
<title>Node3&#45;&gt;Node9</title>
<path fill="none" stroke="midnightblue" d="M555.37,-671.32C567.16,-663.06 585.13,-650.45 599.14,-640.63"/>
<polygon fill="midnightblue" stroke="midnightblue" points="601.48,-643.26 607.66,-634.65 597.46,-637.53 601.48,-643.26"/>
</g>
<!-- Node16 -->
<g id="node16" class="node">
<title>Node16</title>
<g id="a_node16"><a xlink:href="std__types_8h.html" target="_top" xlink:title=" ">
<polygon fill="white" stroke="black" points="741,-235.5 741,-254.5 853,-254.5 853,-235.5 741,-235.5"/>
<text text-anchor="middle" x="797" y="-242.5" font-family="Helvetica,sans-Serif" font-size="10.00">odp/api/std_types.h</text>
</a>
</g>
</g>
<!-- Node3&#45;&gt;Node16 -->
<g id="edge43" class="edge">
<title>Node3&#45;&gt;Node16</title>
<path fill="none" stroke="midnightblue" d="M601.86,-672.74C700.86,-658.86 890,-624.5 890,-564.5 890,-564.5 890,-564.5 890,-372.5 890,-334.74 888.54,-321.3 866,-291 855.87,-277.39 840.32,-266.73 826.54,-259.21"/>
<polygon fill="midnightblue" stroke="midnightblue" points="827.86,-255.96 817.37,-254.51 824.67,-262.18 827.86,-255.96"/>
</g>
<!-- Node23 -->
<g id="node23" class="node">
<title>Node23</title>
<g id="a_node23"><a xlink:href="queue__types_8h.html" target="_top" xlink:title=" ">
<polygon fill="white" stroke="black" points="403.5,-492.5 403.5,-511.5 530.5,-511.5 530.5,-492.5 403.5,-492.5"/>
<text text-anchor="middle" x="467" y="-499.5" font-family="Helvetica,sans-Serif" font-size="10.00">odp/api/queue_types.h</text>
</a>
</g>
</g>
<!-- Node3&#45;&gt;Node23 -->
<g id="edge42" class="edge">
<title>Node3&#45;&gt;Node23</title>
<path fill="none" stroke="midnightblue" d="M537.29,-671.45C526.18,-654.49 501.49,-615.1 487,-579 479.39,-560.05 473.84,-537.28 470.55,-521.63"/>
<polygon fill="midnightblue" stroke="midnightblue" points="473.94,-520.77 468.55,-511.66 467.08,-522.15 473.94,-520.77"/>
</g>
<!-- Node6 -->
<g id="node6" class="node">
<title>Node6</title>
<g id="a_node6"><a xlink:title=" ">
<polygon fill="white" stroke="#bfbfbf" points="66.5,-62 66.5,-81 209.5,-81 209.5,-62 66.5,-62"/>
<text text-anchor="middle" x="138" y="-69" font-family="Helvetica,sans-Serif" font-size="10.00">odp/api/abi/event_types.h</text>
</a>
</g>
</g>
<!-- Node5&#45;&gt;Node6 -->
<g id="edge5" class="edge">
<title>Node5&#45;&gt;Node6</title>
<path fill="none" stroke="midnightblue" d="M145.71,-123.48C144.44,-115.08 142.46,-101.98 140.82,-91.16"/>
<polygon fill="midnightblue" stroke="midnightblue" points="144.24,-90.37 139.29,-81.01 137.32,-91.42 144.24,-90.37"/>
</g>
<!-- Node7 -->
<g id="node7" class="node">
<title>Node7</title>
<g id="a_node7"><a xlink:href="spec_2event__types_8h.html" target="_top" xlink:title=" ">
<polygon fill="white" stroke="black" points="304.5,-56.5 304.5,-86.5 413.5,-86.5 413.5,-56.5 304.5,-56.5"/>
<text text-anchor="start" x="312.5" y="-74.5" font-family="Helvetica,sans-Serif" font-size="10.00">odp/api/spec/event</text>
<text text-anchor="middle" x="359" y="-63.5" font-family="Helvetica,sans-Serif" font-size="10.00">_types.h</text>
</a>
</g>
</g>
<!-- Node5&#45;&gt;Node7 -->
<g id="edge6" class="edge">
<title>Node5&#45;&gt;Node7</title>
<path fill="none" stroke="midnightblue" d="M177.37,-123.48C209.04,-114.59 259.49,-100.43 299.19,-89.29"/>
<polygon fill="midnightblue" stroke="midnightblue" points="300.35,-92.6 309.04,-86.52 298.46,-85.86 300.35,-92.6"/>
</g>
<!-- Node7&#45;&gt;Node4 -->
<g id="edge7" class="edge">
<title>Node7&#45;&gt;Node4</title>
<path fill="none" stroke="midnightblue" d="M413.63,-62.1C483.77,-51.32 605.38,-32.62 680.44,-21.08"/>
<polygon fill="midnightblue" stroke="midnightblue" points="681.36,-24.48 690.71,-19.5 680.3,-17.56 681.36,-24.48"/>
</g>
<!-- Node7&#45;&gt;Node8 -->
<g id="edge8" class="edge">
<title>Node7&#45;&gt;Node8</title>
<path fill="none" stroke="midnightblue" d="M349.28,-56.4C343.45,-47.93 335.98,-37.1 329.81,-28.14"/>
<polygon fill="midnightblue" stroke="midnightblue" points="332.52,-25.91 323.97,-19.66 326.76,-29.88 332.52,-25.91"/>
</g>
<!-- Node10 -->
<g id="node10" class="node">
<title>Node10</title>
<g id="a_node10"><a xlink:title=" ">
<polygon fill="white" stroke="#bfbfbf" points="627,-548.5 627,-578.5 733,-578.5 733,-548.5 627,-548.5"/>
<text text-anchor="start" x="635" y="-566.5" font-family="Helvetica,sans-Serif" font-size="10.00">odp/api/abi/packet</text>
<text text-anchor="middle" x="680" y="-555.5" font-family="Helvetica,sans-Serif" font-size="10.00">_io_types.h</text>
</a>
</g>
</g>
<!-- Node9&#45;&gt;Node10 -->
<g id="edge10" class="edge">
<title>Node9&#45;&gt;Node10</title>
<path fill="none" stroke="midnightblue" d="M628.6,-615.48C636.42,-607.72 648.29,-595.94 658.66,-585.66"/>
<polygon fill="midnightblue" stroke="midnightblue" points="661.22,-588.05 665.86,-578.52 656.29,-583.08 661.22,-588.05"/>
</g>
<!-- Node11 -->
<g id="node11" class="node">
<title>Node11</title>
<g id="a_node11"><a xlink:title=" ">
<polygon fill="white" stroke="#bfbfbf" points="751,-548.5 751,-578.5 857,-578.5 857,-548.5 751,-548.5"/>
<text text-anchor="start" x="759" y="-566.5" font-family="Helvetica,sans-Serif" font-size="10.00">odp/api/abi/packet</text>
<text text-anchor="middle" x="804" y="-555.5" font-family="Helvetica,sans-Serif" font-size="10.00">_types.h</text>
</a>
</g>
</g>
<!-- Node9&#45;&gt;Node11 -->
<g id="edge11" class="edge">
<title>Node9&#45;&gt;Node11</title>
<path fill="none" stroke="midnightblue" d="M646.36,-615.48C673.5,-606.7 716.52,-592.79 750.77,-581.71"/>
<polygon fill="midnightblue" stroke="midnightblue" points="752.2,-584.93 760.63,-578.52 750.04,-578.27 752.2,-584.93"/>
</g>
<!-- Node12 -->
<g id="node12" class="node">
<title>Node12</title>
<g id="a_node12"><a xlink:href="spec_2packet__types_8h.html" target="_top" xlink:title=" ">
<polygon fill="white" stroke="black" points="495.5,-548.5 495.5,-578.5 608.5,-578.5 608.5,-548.5 495.5,-548.5"/>
<text text-anchor="start" x="503.5" y="-566.5" font-family="Helvetica,sans-Serif" font-size="10.00">odp/api/spec/packet</text>
<text text-anchor="middle" x="552" y="-555.5" font-family="Helvetica,sans-Serif" font-size="10.00">_types.h</text>
</a>
</g>
</g>
<!-- Node9&#45;&gt;Node12 -->
<g id="edge12" class="edge">
<title>Node9&#45;&gt;Node12</title>
<path fill="none" stroke="midnightblue" d="M610.26,-615.48C601.31,-607.64 587.67,-595.71 575.85,-585.37"/>
<polygon fill="midnightblue" stroke="midnightblue" points="577.86,-582.47 568.03,-578.52 573.25,-587.74 577.86,-582.47"/>
</g>
<!-- Node12&#45;&gt;Node4 -->
<g id="edge13" class="edge">
<title>Node12&#45;&gt;Node4</title>
<path fill="none" stroke="midnightblue" d="M597.35,-548.45C697.36,-514.32 928,-417.08 928,-246 928,-246 928,-246 928,-132 928,-69.31 852.19,-37.14 798.43,-22.21"/>
<polygon fill="midnightblue" stroke="midnightblue" points="799.23,-18.8 788.67,-19.62 797.44,-25.56 799.23,-18.8"/>
</g>
<!-- Node12&#45;&gt;Node8 -->
<g id="edge41" class="edge">
<title>Node12&#45;&gt;Node8</title>
<path fill="none" stroke="midnightblue" d="M495.34,-561.88C422.21,-557.65 297.55,-537.98 240,-456 218.1,-424.81 58.04,-669.39 288,-56 291.78,-45.91 298.21,-35.82 304.14,-27.76"/>
<polygon fill="midnightblue" stroke="midnightblue" points="307.09,-29.67 310.47,-19.63 301.56,-25.37 307.09,-29.67"/>
</g>
<!-- Node13 -->
<g id="node13" class="node">
<title>Node13</title>
<g id="a_node13"><a xlink:href="proto__stats__types_8h.html" target="_top" xlink:title=" ">
<polygon fill="white" stroke="black" points="612,-358.5 612,-388.5 722,-388.5 722,-358.5 612,-358.5"/>
<text text-anchor="start" x="620" y="-376.5" font-family="Helvetica,sans-Serif" font-size="10.00">odp/api/proto_stats</text>
<text text-anchor="middle" x="667" y="-365.5" font-family="Helvetica,sans-Serif" font-size="10.00">_types.h</text>
</a>
</g>
</g>
<!-- Node12&#45;&gt;Node13 -->
<g id="edge14" class="edge">
<title>Node12&#45;&gt;Node13</title>
<path fill="none" stroke="midnightblue" d="M560.64,-548.37C580.42,-516.04 629.12,-436.43 653.14,-397.16"/>
<polygon fill="midnightblue" stroke="midnightblue" points="656.18,-398.9 658.41,-388.54 650.21,-395.24 656.18,-398.9"/>
</g>
<!-- Node12&#45;&gt;Node23 -->
<g id="edge30" class="edge">
<title>Node12&#45;&gt;Node23</title>
<path fill="none" stroke="midnightblue" d="M531.86,-548.4C518.61,-539.13 501.32,-527.03 487.92,-517.65"/>
<polygon fill="midnightblue" stroke="midnightblue" points="489.57,-514.53 479.37,-511.66 485.55,-520.26 489.57,-514.53"/>
</g>
<!-- Node14 -->
<g id="node14" class="node">
<title>Node14</title>
<g id="a_node14"><a xlink:title=" ">
<polygon fill="white" stroke="#bfbfbf" points="603,-291.5 603,-321.5 731,-321.5 731,-291.5 603,-291.5"/>
<text text-anchor="start" x="611" y="-309.5" font-family="Helvetica,sans-Serif" font-size="10.00">odp/api/abi/proto_stats</text>
<text text-anchor="middle" x="667" y="-298.5" font-family="Helvetica,sans-Serif" font-size="10.00">_types.h</text>
</a>
</g>
</g>
<!-- Node13&#45;&gt;Node14 -->
<g id="edge15" class="edge">
<title>Node13&#45;&gt;Node14</title>
<path fill="none" stroke="midnightblue" d="M667,-358.4C667,-350.64 667,-340.81 667,-331.86"/>
<polygon fill="midnightblue" stroke="midnightblue" points="670.5,-331.58 667,-321.58 663.5,-331.58 670.5,-331.58"/>
</g>
<!-- Node15 -->
<g id="node15" class="node">
<title>Node15</title>
<g id="a_node15"><a xlink:href="spec_2proto__stats__types_8h.html" target="_top" xlink:title=" ">
<polygon fill="white" stroke="black" points="749.5,-291.5 749.5,-321.5 856.5,-321.5 856.5,-291.5 749.5,-291.5"/>
<text text-anchor="start" x="757.5" y="-309.5" font-family="Helvetica,sans-Serif" font-size="10.00">odp/api/spec/proto</text>
<text text-anchor="middle" x="803" y="-298.5" font-family="Helvetica,sans-Serif" font-size="10.00">_stats_types.h</text>
</a>
</g>
</g>
<!-- Node13&#45;&gt;Node15 -->
<g id="edge16" class="edge">
<title>Node13&#45;&gt;Node15</title>
<path fill="none" stroke="midnightblue" d="M696.51,-358.4C716.38,-348.9 742.79,-336.28 764.34,-325.98"/>
<polygon fill="midnightblue" stroke="midnightblue" points="766.03,-329.05 773.55,-321.58 763.02,-322.73 766.03,-329.05"/>
</g>
<!-- Node15&#45;&gt;Node4 -->
<g id="edge17" class="edge">
<title>Node15&#45;&gt;Node4</title>
<path fill="none" stroke="midnightblue" d="M823.62,-291.32C849.34,-271.77 890,-233.93 890,-190 890,-190 890,-190 890,-132 890,-93.62 877.24,-81.99 849,-56 832.22,-40.55 809.29,-29.83 789.33,-22.74"/>
<polygon fill="midnightblue" stroke="midnightblue" points="790.4,-19.41 779.81,-19.55 788.17,-26.04 790.4,-19.41"/>
</g>
<!-- Node15&#45;&gt;Node8 -->
<g id="edge29" class="edge">
<title>Node15&#45;&gt;Node8</title>
<path fill="none" stroke="midnightblue" d="M760.33,-291.35C711.36,-273.97 629.84,-241.49 568,-199 493.4,-147.75 498.13,-106.48 423,-56 401.97,-41.87 375.78,-30.63 354.81,-22.92"/>
<polygon fill="midnightblue" stroke="midnightblue" points="355.88,-19.59 345.29,-19.53 353.53,-26.18 355.88,-19.59"/>
</g>
<!-- Node15&#45;&gt;Node16 -->
<g id="edge18" class="edge">
<title>Node15&#45;&gt;Node16</title>
<path fill="none" stroke="midnightblue" d="M801.58,-291.4C800.78,-283.47 799.77,-273.46 798.9,-264.86"/>
<polygon fill="midnightblue" stroke="midnightblue" points="802.36,-264.26 797.87,-254.66 795.39,-264.96 802.36,-264.26"/>
</g>
<!-- Node17 -->
<g id="node17" class="node">
<title>Node17</title>
<g id="a_node17"><a xlink:title=" ">
<polygon fill="white" stroke="#bfbfbf" points="732,-179.5 732,-198.5 862,-198.5 862,-179.5 732,-179.5"/>
<text text-anchor="middle" x="797" y="-186.5" font-family="Helvetica,sans-Serif" font-size="10.00">odp/api/abi/std_types.h</text>
</a>
</g>
</g>
<!-- Node16&#45;&gt;Node17 -->
<g id="edge19" class="edge">
<title>Node16&#45;&gt;Node17</title>
<path fill="none" stroke="midnightblue" d="M797,-235.08C797,-228.01 797,-217.86 797,-208.99"/>
<polygon fill="midnightblue" stroke="midnightblue" points="800.5,-208.75 797,-198.75 793.5,-208.75 800.5,-208.75"/>
</g>
<!-- Node18 -->
<g id="node18" class="node">
<title>Node18</title>
<g id="a_node18"><a xlink:href="spec_2std__types_8h.html" target="_top" xlink:title=" ">
<polygon fill="white" stroke="black" points="576.5,-179.5 576.5,-198.5 713.5,-198.5 713.5,-179.5 576.5,-179.5"/>
<text text-anchor="middle" x="645" y="-186.5" font-family="Helvetica,sans-Serif" font-size="10.00">odp/api/spec/std_types.h</text>
</a>
</g>
</g>
<!-- Node16&#45;&gt;Node18 -->
<g id="edge20" class="edge">
<title>Node16&#45;&gt;Node18</title>
<path fill="none" stroke="midnightblue" d="M772.92,-235.44C747.46,-226.4 707.11,-212.06 678.54,-201.92"/>
<polygon fill="midnightblue" stroke="midnightblue" points="679.57,-198.57 668.97,-198.52 677.22,-205.16 679.57,-198.57"/>
</g>
<!-- Node18&#45;&gt;Node4 -->
<g id="edge21" class="edge">
<title>Node18&#45;&gt;Node4</title>
<path fill="none" stroke="midnightblue" d="M691.44,-179.43C738.5,-167.83 807.83,-141.9 833,-87 838.74,-74.48 840.16,-67.77 833,-56 823.54,-40.46 806.79,-30.05 790.5,-23.19"/>
<polygon fill="midnightblue" stroke="midnightblue" points="791.6,-19.87 781.01,-19.55 789.1,-26.4 791.6,-19.87"/>
</g>
<!-- Node18&#45;&gt;Node8 -->
<g id="edge28" class="edge">
<title>Node18&#45;&gt;Node8</title>
<path fill="none" stroke="midnightblue" d="M635.03,-179.41C607.96,-156.45 530.15,-92.96 456,-56 426.47,-41.28 391.05,-29.85 363.49,-22.19"/>
<polygon fill="midnightblue" stroke="midnightblue" points="364.29,-18.78 353.72,-19.54 362.45,-25.53 364.29,-18.78"/>
</g>
<!-- Node19 -->
<g id="node19" class="node">
<title>Node19</title>
<g id="a_node19"><a xlink:title=" ">
<polygon fill="white" stroke="#bfbfbf" points="705.5,-123.5 705.5,-142.5 758.5,-142.5 758.5,-123.5 705.5,-123.5"/>
<text text-anchor="middle" x="732" y="-130.5" font-family="Helvetica,sans-Serif" font-size="10.00">stdint.h</text>
</a>
</g>
</g>
<!-- Node18&#45;&gt;Node19 -->
<g id="edge22" class="edge">
<title>Node18&#45;&gt;Node19</title>
<path fill="none" stroke="midnightblue" d="M658.98,-179.32C672.55,-170.9 693.38,-157.97 709.32,-148.07"/>
<polygon fill="midnightblue" stroke="midnightblue" points="711.41,-150.9 718.06,-142.65 707.71,-144.95 711.41,-150.9"/>
</g>
<!-- Node20 -->
<g id="node20" class="node">
<title>Node20</title>
<g id="a_node20"><a xlink:href="align_8h.html" target="_top" xlink:title=" ">
<polygon fill="white" stroke="black" points="598.5,-123.5 598.5,-142.5 687.5,-142.5 687.5,-123.5 598.5,-123.5"/>
<text text-anchor="middle" x="643" y="-130.5" font-family="Helvetica,sans-Serif" font-size="10.00">odp/api/align.h</text>
</a>
</g>
</g>
<!-- Node18&#45;&gt;Node20 -->
<g id="edge23" class="edge">
<title>Node18&#45;&gt;Node20</title>
<path fill="none" stroke="midnightblue" d="M644.67,-179.08C644.41,-172.01 644.03,-161.86 643.7,-152.99"/>
<polygon fill="midnightblue" stroke="midnightblue" points="647.19,-152.61 643.32,-142.75 640.2,-152.87 647.19,-152.61"/>
</g>
<!-- Node21 -->
<g id="node21" class="node">
<title>Node21</title>
<g id="a_node21"><a xlink:title=" ">
<polygon fill="white" stroke="#bfbfbf" points="716.5,-62 716.5,-81 823.5,-81 823.5,-62 716.5,-62"/>
<text text-anchor="middle" x="770" y="-69" font-family="Helvetica,sans-Serif" font-size="10.00">odp/api/abi/align.h</text>
</a>
</g>
</g>
<!-- Node20&#45;&gt;Node21 -->
<g id="edge24" class="edge">
<title>Node20&#45;&gt;Node21</title>
<path fill="none" stroke="midnightblue" d="M661.2,-123.48C682.51,-113.49 718.03,-96.85 742.66,-85.31"/>
<polygon fill="midnightblue" stroke="midnightblue" points="744.27,-88.42 751.84,-81.01 741.3,-82.08 744.27,-88.42"/>
</g>
<!-- Node22 -->
<g id="node22" class="node">
<title>Node22</title>
<g id="a_node22"><a xlink:href="spec_2align_8h.html" target="_top" xlink:title=" ">
<polygon fill="white" stroke="black" points="584,-62 584,-81 698,-81 698,-62 584,-62"/>
<text text-anchor="middle" x="641" y="-69" font-family="Helvetica,sans-Serif" font-size="10.00">odp/api/spec/align.h</text>
</a>
</g>
</g>
<!-- Node20&#45;&gt;Node22 -->
<g id="edge25" class="edge">
<title>Node20&#45;&gt;Node22</title>
<path fill="none" stroke="midnightblue" d="M642.71,-123.48C642.43,-115.08 641.99,-101.98 641.63,-91.16"/>
<polygon fill="midnightblue" stroke="midnightblue" points="645.12,-90.89 641.29,-81.01 638.12,-91.12 645.12,-90.89"/>
</g>
<!-- Node22&#45;&gt;Node4 -->
<g id="edge26" class="edge">
<title>Node22&#45;&gt;Node4</title>
<path fill="none" stroke="midnightblue" d="M656.04,-61.98C673.28,-52.21 701.74,-36.08 722.03,-24.58"/>
<polygon fill="midnightblue" stroke="midnightblue" points="724.01,-27.48 730.98,-19.51 720.56,-21.39 724.01,-27.48"/>
</g>
<!-- Node22&#45;&gt;Node8 -->
<g id="edge27" class="edge">
<title>Node22&#45;&gt;Node8</title>
<path fill="none" stroke="midnightblue" d="M600.11,-61.97C590.26,-59.96 579.76,-57.87 570,-56 504.32,-43.43 428.79,-30.09 377.68,-21.23"/>
<polygon fill="midnightblue" stroke="midnightblue" points="378.24,-17.77 367.79,-19.52 377.05,-24.67 378.24,-17.77"/>
</g>
<!-- Node24 -->
<g id="node24" class="node">
<title>Node24</title>
<g id="a_node24"><a xlink:title=" ">
<polygon fill="white" stroke="#bfbfbf" points="248.5,-431 248.5,-450 393.5,-450 393.5,-431 248.5,-431"/>
<text text-anchor="middle" x="321" y="-438" font-family="Helvetica,sans-Serif" font-size="10.00">odp/api/abi/queue_types.h</text>
</a>
</g>
</g>
<!-- Node23&#45;&gt;Node24 -->
<g id="edge31" class="edge">
<title>Node23&#45;&gt;Node24</title>
<path fill="none" stroke="midnightblue" d="M446.08,-492.48C421.25,-482.36 379.66,-465.4 351.31,-453.85"/>
<polygon fill="midnightblue" stroke="midnightblue" points="352.46,-450.54 341.88,-450.01 349.82,-457.02 352.46,-450.54"/>
</g>
<!-- Node25 -->
<g id="node25" class="node">
<title>Node25</title>
<g id="a_node25"><a xlink:href="spec_2queue__types_8h.html" target="_top" xlink:title=" ">
<polygon fill="white" stroke="black" points="411.5,-425.5 411.5,-455.5 522.5,-455.5 522.5,-425.5 411.5,-425.5"/>
<text text-anchor="start" x="419.5" y="-443.5" font-family="Helvetica,sans-Serif" font-size="10.00">odp/api/spec/queue</text>
<text text-anchor="middle" x="467" y="-432.5" font-family="Helvetica,sans-Serif" font-size="10.00">_types.h</text>
</a>
</g>
</g>
<!-- Node23&#45;&gt;Node25 -->
<g id="edge32" class="edge">
<title>Node23&#45;&gt;Node25</title>
<path fill="none" stroke="midnightblue" d="M467,-492.48C467,-485.47 467,-475.19 467,-465.7"/>
<polygon fill="midnightblue" stroke="midnightblue" points="470.5,-465.52 467,-455.52 463.5,-465.52 470.5,-465.52"/>
</g>
<!-- Node25&#45;&gt;Node4 -->
<g id="edge33" class="edge">
<title>Node25&#45;&gt;Node4</title>
<path fill="none" stroke="midnightblue" d="M419.37,-425.44C368.77,-407.22 296,-370.13 296,-307.5 296,-307.5 296,-307.5 296,-244 296,-110.94 408.71,-112.88 529,-56 574.98,-34.26 631.34,-22.97 675.1,-17.14"/>
<polygon fill="midnightblue" stroke="midnightblue" points="675.61,-20.6 685.09,-15.87 674.73,-13.66 675.61,-20.6"/>
</g>
<!-- Node25&#45;&gt;Node8 -->
<g id="edge40" class="edge">
<title>Node25&#45;&gt;Node8</title>
<path fill="none" stroke="midnightblue" d="M411.3,-426.08C360.95,-413.66 293.08,-396.08 282,-389 161.61,-312.03 144.16,-268.04 75,-143 62.35,-120.12 61.05,-112.83 57,-87 54.87,-73.39 48.12,-66.54 57,-56 81.41,-27.02 182.54,-16.71 251.51,-13.03"/>
<polygon fill="midnightblue" stroke="midnightblue" points="252.05,-16.51 261.86,-12.52 251.7,-9.52 252.05,-16.51"/>
</g>
<!-- Node26 -->
<g id="node26" class="node">
<title>Node26</title>
<g id="a_node26"><a xlink:href="schedule__types_8h.html" target="_top" xlink:title=" ">
<polygon fill="white" stroke="black" points="397,-364 397,-383 537,-383 537,-364 397,-364"/>
<text text-anchor="middle" x="467" y="-371" font-family="Helvetica,sans-Serif" font-size="10.00">odp/api/schedule_types.h</text>
</a>
</g>
</g>
<!-- Node25&#45;&gt;Node26 -->
<g id="edge34" class="edge">
<title>Node25&#45;&gt;Node26</title>
<path fill="none" stroke="midnightblue" d="M467,-425.4C467,-416.06 467,-403.71 467,-393.52"/>
<polygon fill="midnightblue" stroke="midnightblue" points="470.5,-393.19 467,-383.19 463.5,-393.19 470.5,-393.19"/>
</g>
<!-- Node27 -->
<g id="node27" class="node">
<title>Node27</title>
<g id="a_node27"><a xlink:title=" ">
<polygon fill="white" stroke="#bfbfbf" points="324.5,-291.5 324.5,-321.5 441.5,-321.5 441.5,-291.5 324.5,-291.5"/>
<text text-anchor="start" x="332.5" y="-309.5" font-family="Helvetica,sans-Serif" font-size="10.00">odp/api/abi/schedule</text>
<text text-anchor="middle" x="383" y="-298.5" font-family="Helvetica,sans-Serif" font-size="10.00">_types.h</text>
</a>
</g>
</g>
<!-- Node26&#45;&gt;Node27 -->
<g id="edge35" class="edge">
<title>Node26&#45;&gt;Node27</title>
<path fill="none" stroke="midnightblue" d="M455.67,-363.73C443.88,-354.61 425,-340 409.44,-327.96"/>
<polygon fill="midnightblue" stroke="midnightblue" points="411.26,-324.94 401.21,-321.59 406.97,-330.48 411.26,-324.94"/>
</g>
<!-- Node28 -->
<g id="node28" class="node">
<title>Node28</title>
<g id="a_node28"><a xlink:href="spec_2schedule__types_8h.html" target="_top" xlink:title=" ">
<polygon fill="white" stroke="black" points="459.5,-291.5 459.5,-321.5 584.5,-321.5 584.5,-291.5 459.5,-291.5"/>
<text text-anchor="start" x="467.5" y="-309.5" font-family="Helvetica,sans-Serif" font-size="10.00">odp/api/spec/schedule</text>
<text text-anchor="middle" x="522" y="-298.5" font-family="Helvetica,sans-Serif" font-size="10.00">_types.h</text>
</a>
</g>
</g>
<!-- Node26&#45;&gt;Node28 -->
<g id="edge36" class="edge">
<title>Node26&#45;&gt;Node28</title>
<path fill="none" stroke="midnightblue" d="M474.42,-363.73C481.85,-354.95 493.59,-341.08 503.54,-329.31"/>
<polygon fill="midnightblue" stroke="midnightblue" points="506.29,-331.48 510.08,-321.59 500.95,-326.96 506.29,-331.48"/>
</g>
<!-- Node28&#45;&gt;Node4 -->
<g id="edge37" class="edge">
<title>Node28&#45;&gt;Node4</title>
<path fill="none" stroke="midnightblue" d="M521.19,-291.28C520.02,-269.49 518,-226.52 518,-190 518,-190 518,-190 518,-132 518,-59.75 608.43,-30.51 675.39,-18.77"/>
<polygon fill="midnightblue" stroke="midnightblue" points="676.2,-22.18 685.5,-17.09 675.06,-15.27 676.2,-22.18"/>
</g>
<!-- Node28&#45;&gt;Node8 -->
<g id="edge39" class="edge">
<title>Node28&#45;&gt;Node8</title>
<path fill="none" stroke="midnightblue" d="M497.46,-291.35C448.06,-261.24 337.77,-185.48 296,-87 287.74,-67.52 297.38,-43.97 306.38,-28.3"/>
<polygon fill="midnightblue" stroke="midnightblue" points="309.43,-30.01 311.73,-19.66 303.48,-26.32 309.43,-30.01"/>
</g>
<!-- Node28&#45;&gt;Node16 -->
<g id="edge38" class="edge">
<title>Node28&#45;&gt;Node16</title>
<path fill="none" stroke="midnightblue" d="M584.75,-291.92C634.12,-281.24 701.96,-266.56 747.54,-256.7"/>
<polygon fill="midnightblue" stroke="midnightblue" points="748.44,-260.09 757.48,-254.55 746.96,-253.24 748.44,-260.09"/>
</g>
</g>
</svg>
