<?xml version="1.0" encoding="UTF-8" standalone="no"?>
<!DOCTYPE svg PUBLIC "-//W3C//DTD SVG 1.1//EN"
 "http://www.w3.org/Graphics/SVG/1.1/DTD/svg11.dtd">
<!-- Generated by graphviz version 2.43.0 (0)
 -->
<!-- Title: cpu.h Pages: 1 -->
<svg width="794pt" height="375pt"
 viewBox="0.00 0.00 793.50 375.00" xmlns="http://www.w3.org/2000/svg" xmlns:xlink="http://www.w3.org/1999/xlink">
<g id="graph0" class="graph" transform="scale(1 1) rotate(0) translate(4 371)">
<title>cpu.h</title>
<polygon fill="white" stroke="transparent" points="-4,4 -4,-371 789.5,-371 789.5,4 -4,4"/>
<!-- Node1 -->
<g id="node1" class="node">
<title>Node1</title>
<g id="a_node1"><a xlink:title=" ">
<polygon fill="#bfbfbf" stroke="black" points="192,-347.5 192,-366.5 235,-366.5 235,-347.5 192,-347.5"/>
<text text-anchor="middle" x="213.5" y="-354.5" font-family="Helvetica,sans-Serif" font-size="10.00">cpu.h</text>
</a>
</g>
</g>
<!-- Node2 -->
<g id="node2" class="node">
<title>Node2</title>
<g id="a_node2"><a xlink:title=" ">
<polygon fill="white" stroke="#bfbfbf" points="85.5,-291.5 85.5,-310.5 185.5,-310.5 185.5,-291.5 85.5,-291.5"/>
<text text-anchor="middle" x="135.5" y="-298.5" font-family="Helvetica,sans-Serif" font-size="10.00">odp/api/abi/cpu.h</text>
</a>
</g>
</g>
<!-- Node1&#45;&gt;Node2 -->
<g id="edge1" class="edge">
<title>Node1&#45;&gt;Node2</title>
<path fill="none" stroke="midnightblue" d="M200.97,-347.32C188.91,-338.98 170.47,-326.21 156.23,-316.35"/>
<polygon fill="midnightblue" stroke="midnightblue" points="158.22,-313.47 148,-310.65 154.23,-319.22 158.22,-313.47"/>
</g>
<!-- Node3 -->
<g id="node3" class="node">
<title>Node3</title>
<g id="a_node3"><a xlink:href="thread_8h.html" target="_top" xlink:title=" ">
<polygon fill="white" stroke="black" points="144.5,-123.5 144.5,-142.5 240.5,-142.5 240.5,-123.5 144.5,-123.5"/>
<text text-anchor="middle" x="192.5" y="-130.5" font-family="Helvetica,sans-Serif" font-size="10.00">odp/api/thread.h</text>
</a>
</g>
</g>
<!-- Node1&#45;&gt;Node3 -->
<g id="edge2" class="edge">
<title>Node1&#45;&gt;Node3</title>
<path fill="none" stroke="midnightblue" d="M212.68,-347.3C209.59,-314.63 198.64,-198.87 194.29,-152.96"/>
<polygon fill="midnightblue" stroke="midnightblue" points="197.77,-152.51 193.34,-142.88 190.8,-153.17 197.77,-152.51"/>
</g>
<!-- Node9 -->
<g id="node9" class="node">
<title>Node9</title>
<g id="a_node9"><a xlink:href="spec_2cpu_8h.html" target="_top" xlink:title=" ">
<polygon fill="white" stroke="black" points="277,-291.5 277,-310.5 384,-310.5 384,-291.5 277,-291.5"/>
<text text-anchor="middle" x="330.5" y="-298.5" font-family="Helvetica,sans-Serif" font-size="10.00">odp/api/spec/cpu.h</text>
</a>
</g>
</g>
<!-- Node1&#45;&gt;Node9 -->
<g id="edge8" class="edge">
<title>Node1&#45;&gt;Node9</title>
<path fill="none" stroke="midnightblue" d="M232.04,-347.44C251.12,-338.64 281.07,-324.81 302.94,-314.72"/>
<polygon fill="midnightblue" stroke="midnightblue" points="304.43,-317.88 312.05,-310.52 301.5,-311.53 304.43,-317.88"/>
</g>
<!-- Node4 -->
<g id="node4" class="node">
<title>Node4</title>
<g id="a_node4"><a xlink:href="thread__types_8h.html" target="_top" xlink:title=" ">
<polygon fill="white" stroke="black" points="0,-56.5 0,-86.5 113,-86.5 113,-56.5 0,-56.5"/>
<text text-anchor="start" x="8" y="-74.5" font-family="Helvetica,sans-Serif" font-size="10.00">odp/api/spec/thread</text>
<text text-anchor="middle" x="56.5" y="-63.5" font-family="Helvetica,sans-Serif" font-size="10.00">_types.h</text>
</a>
</g>
</g>
<!-- Node3&#45;&gt;Node4 -->
<g id="edge3" class="edge">
<title>Node3&#45;&gt;Node4</title>
<path fill="none" stroke="midnightblue" d="M173.01,-123.48C153.48,-114.93 122.79,-101.5 97.81,-90.57"/>
<polygon fill="midnightblue" stroke="midnightblue" points="99.12,-87.32 88.55,-86.52 96.31,-93.74 99.12,-87.32"/>
</g>
<!-- Node5 -->
<g id="node5" class="node">
<title>Node5</title>
<g id="a_node5"><a xlink:title=" ">
<polygon fill="white" stroke="#bfbfbf" points="131.5,-62 131.5,-81 245.5,-81 245.5,-62 131.5,-62"/>
<text text-anchor="middle" x="188.5" y="-69" font-family="Helvetica,sans-Serif" font-size="10.00">odp/api/abi/thread.h</text>
</a>
</g>
</g>
<!-- Node3&#45;&gt;Node5 -->
<g id="edge4" class="edge">
<title>Node3&#45;&gt;Node5</title>
<path fill="none" stroke="midnightblue" d="M191.93,-123.48C191.36,-115.08 190.48,-101.98 189.75,-91.16"/>
<polygon fill="midnightblue" stroke="midnightblue" points="193.24,-90.75 189.07,-81.01 186.25,-91.22 193.24,-90.75"/>
</g>
<!-- Node6 -->
<g id="node6" class="node">
<title>Node6</title>
<g id="a_node6"><a xlink:href="spec_2thread_8h.html" target="_top" xlink:title=" ">
<polygon fill="white" stroke="black" points="301.5,-62 301.5,-81 423.5,-81 423.5,-62 301.5,-62"/>
<text text-anchor="middle" x="362.5" y="-69" font-family="Helvetica,sans-Serif" font-size="10.00">odp/api/spec/thread.h</text>
</a>
</g>
</g>
<!-- Node3&#45;&gt;Node6 -->
<g id="edge5" class="edge">
<title>Node3&#45;&gt;Node6</title>
<path fill="none" stroke="midnightblue" d="M216.86,-123.48C246.14,-113.22 295.47,-95.96 328.5,-84.4"/>
<polygon fill="midnightblue" stroke="midnightblue" points="329.91,-87.62 338.19,-81.01 327.59,-81.01 329.91,-87.62"/>
</g>
<!-- Node7 -->
<g id="node7" class="node">
<title>Node7</title>
<g id="a_node7"><a xlink:title=" ">
<polygon fill="white" stroke="#bfbfbf" points="347,-0.5 347,-19.5 468,-19.5 468,-0.5 347,-0.5"/>
<text text-anchor="middle" x="407.5" y="-7.5" font-family="Helvetica,sans-Serif" font-size="10.00">odp/visibility_begin.h</text>
</a>
</g>
</g>
<!-- Node6&#45;&gt;Node7 -->
<g id="edge6" class="edge">
<title>Node6&#45;&gt;Node7</title>
<path fill="none" stroke="midnightblue" d="M368.95,-61.98C375.7,-53.05 386.47,-38.81 394.91,-27.64"/>
<polygon fill="midnightblue" stroke="midnightblue" points="397.82,-29.6 401.06,-19.51 392.24,-25.37 397.82,-29.6"/>
</g>
<!-- Node8 -->
<g id="node8" class="node">
<title>Node8</title>
<g id="a_node8"><a xlink:title=" ">
<polygon fill="white" stroke="#bfbfbf" points="648.5,-0.5 648.5,-19.5 760.5,-19.5 760.5,-0.5 648.5,-0.5"/>
<text text-anchor="middle" x="704.5" y="-7.5" font-family="Helvetica,sans-Serif" font-size="10.00">odp/visibility_end.h</text>
</a>
</g>
</g>
<!-- Node6&#45;&gt;Node8 -->
<g id="edge7" class="edge">
<title>Node6&#45;&gt;Node8</title>
<path fill="none" stroke="midnightblue" d="M411.5,-61.98C473.34,-51.22 579.6,-32.73 645.73,-21.22"/>
<polygon fill="midnightblue" stroke="midnightblue" points="646.34,-24.67 655.59,-19.51 645.14,-17.77 646.34,-24.67"/>
</g>
<!-- Node9&#45;&gt;Node7 -->
<g id="edge9" class="edge">
<title>Node9&#45;&gt;Node7</title>
<path fill="none" stroke="midnightblue" d="M322.33,-291.38C306.57,-273.81 273.5,-231.94 273.5,-190 273.5,-190 273.5,-190 273.5,-132 273.5,-97.18 269.51,-82.14 292.5,-56 306.86,-39.68 327.89,-29.22 348.05,-22.55"/>
<polygon fill="midnightblue" stroke="midnightblue" points="349.29,-25.83 357.84,-19.57 347.26,-19.13 349.29,-25.83"/>
</g>
<!-- Node9&#45;&gt;Node8 -->
<g id="edge21" class="edge">
<title>Node9&#45;&gt;Node8</title>
<path fill="none" stroke="midnightblue" d="M384.03,-298.28C504.31,-292.96 785.5,-271.78 785.5,-190 785.5,-190 785.5,-190 785.5,-132 785.5,-87.68 747.51,-47.31 723.56,-26.27"/>
<polygon fill="midnightblue" stroke="midnightblue" points="725.65,-23.46 715.76,-19.66 721.13,-28.8 725.65,-23.46"/>
</g>
<!-- Node10 -->
<g id="node10" class="node">
<title>Node10</title>
<g id="a_node10"><a xlink:href="std__types_8h.html" target="_top" xlink:title=" ">
<polygon fill="white" stroke="black" points="310.5,-235.5 310.5,-254.5 422.5,-254.5 422.5,-235.5 310.5,-235.5"/>
<text text-anchor="middle" x="366.5" y="-242.5" font-family="Helvetica,sans-Serif" font-size="10.00">odp/api/std_types.h</text>
</a>
</g>
</g>
<!-- Node9&#45;&gt;Node10 -->
<g id="edge10" class="edge">
<title>Node9&#45;&gt;Node10</title>
<path fill="none" stroke="midnightblue" d="M336.44,-291.08C341.48,-283.53 348.84,-272.49 355.01,-263.23"/>
<polygon fill="midnightblue" stroke="midnightblue" points="358.03,-265.01 360.67,-254.75 352.21,-261.13 358.03,-265.01"/>
</g>
<!-- Node11 -->
<g id="node11" class="node">
<title>Node11</title>
<g id="a_node11"><a xlink:title=" ">
<polygon fill="white" stroke="#bfbfbf" points="301.5,-179.5 301.5,-198.5 431.5,-198.5 431.5,-179.5 301.5,-179.5"/>
<text text-anchor="middle" x="366.5" y="-186.5" font-family="Helvetica,sans-Serif" font-size="10.00">odp/api/abi/std_types.h</text>
</a>
</g>
</g>
<!-- Node10&#45;&gt;Node11 -->
<g id="edge11" class="edge">
<title>Node10&#45;&gt;Node11</title>
<path fill="none" stroke="midnightblue" d="M366.5,-235.08C366.5,-228.01 366.5,-217.86 366.5,-208.99"/>
<polygon fill="midnightblue" stroke="midnightblue" points="370,-208.75 366.5,-198.75 363,-208.75 370,-208.75"/>
</g>
<!-- Node12 -->
<g id="node12" class="node">
<title>Node12</title>
<g id="a_node12"><a xlink:href="spec_2std__types_8h.html" target="_top" xlink:title=" ">
<polygon fill="white" stroke="black" points="450,-179.5 450,-198.5 587,-198.5 587,-179.5 450,-179.5"/>
<text text-anchor="middle" x="518.5" y="-186.5" font-family="Helvetica,sans-Serif" font-size="10.00">odp/api/spec/std_types.h</text>
</a>
</g>
</g>
<!-- Node10&#45;&gt;Node12 -->
<g id="edge12" class="edge">
<title>Node10&#45;&gt;Node12</title>
<path fill="none" stroke="midnightblue" d="M390.58,-235.44C416.04,-226.4 456.39,-212.06 484.96,-201.92"/>
<polygon fill="midnightblue" stroke="midnightblue" points="486.28,-205.16 494.53,-198.52 483.93,-198.57 486.28,-205.16"/>
</g>
<!-- Node12&#45;&gt;Node7 -->
<g id="edge13" class="edge">
<title>Node12&#45;&gt;Node7</title>
<path fill="none" stroke="midnightblue" d="M509.27,-179.29C500.42,-170.63 487.04,-156.71 477.5,-143 452.63,-107.27 453.07,-94.36 432.5,-56 427.58,-46.83 421.97,-36.69 417.3,-28.36"/>
<polygon fill="midnightblue" stroke="midnightblue" points="420.32,-26.59 412.37,-19.59 414.22,-30.02 420.32,-26.59"/>
</g>
<!-- Node12&#45;&gt;Node8 -->
<g id="edge20" class="edge">
<title>Node12&#45;&gt;Node8</title>
<path fill="none" stroke="midnightblue" d="M578.07,-179.45C629.86,-168.32 700.81,-143.15 728.5,-87 738.02,-67.71 727.12,-43.81 717.1,-28.03"/>
<polygon fill="midnightblue" stroke="midnightblue" points="719.98,-26.05 711.46,-19.76 714.2,-29.99 719.98,-26.05"/>
</g>
<!-- Node13 -->
<g id="node13" class="node">
<title>Node13</title>
<g id="a_node13"><a xlink:title=" ">
<polygon fill="white" stroke="#bfbfbf" points="486,-123.5 486,-142.5 539,-142.5 539,-123.5 486,-123.5"/>
<text text-anchor="middle" x="512.5" y="-130.5" font-family="Helvetica,sans-Serif" font-size="10.00">stdint.h</text>
</a>
</g>
</g>
<!-- Node12&#45;&gt;Node13 -->
<g id="edge14" class="edge">
<title>Node12&#45;&gt;Node13</title>
<path fill="none" stroke="midnightblue" d="M517.51,-179.08C516.71,-171.93 515.57,-161.64 514.58,-152.69"/>
<polygon fill="midnightblue" stroke="midnightblue" points="518.06,-152.3 513.47,-142.75 511.1,-153.08 518.06,-152.3"/>
</g>
<!-- Node14 -->
<g id="node14" class="node">
<title>Node14</title>
<g id="a_node14"><a xlink:href="align_8h.html" target="_top" xlink:title=" ">
<polygon fill="white" stroke="black" points="557,-123.5 557,-142.5 646,-142.5 646,-123.5 557,-123.5"/>
<text text-anchor="middle" x="601.5" y="-130.5" font-family="Helvetica,sans-Serif" font-size="10.00">odp/api/align.h</text>
</a>
</g>
</g>
<!-- Node12&#45;&gt;Node14 -->
<g id="edge15" class="edge">
<title>Node12&#45;&gt;Node14</title>
<path fill="none" stroke="midnightblue" d="M531.84,-179.32C544.66,-170.98 564.28,-158.21 579.44,-148.35"/>
<polygon fill="midnightblue" stroke="midnightblue" points="581.72,-151.04 588.2,-142.65 577.91,-145.17 581.72,-151.04"/>
</g>
<!-- Node15 -->
<g id="node15" class="node">
<title>Node15</title>
<g id="a_node15"><a xlink:title=" ">
<polygon fill="white" stroke="#bfbfbf" points="480,-62 480,-81 587,-81 587,-62 480,-62"/>
<text text-anchor="middle" x="533.5" y="-69" font-family="Helvetica,sans-Serif" font-size="10.00">odp/api/abi/align.h</text>
</a>
</g>
</g>
<!-- Node14&#45;&gt;Node15 -->
<g id="edge16" class="edge">
<title>Node14&#45;&gt;Node15</title>
<path fill="none" stroke="midnightblue" d="M591.76,-123.48C581.15,-114.2 563.98,-99.17 551.02,-87.83"/>
<polygon fill="midnightblue" stroke="midnightblue" points="553.06,-84.96 543.22,-81.01 548.45,-90.23 553.06,-84.96"/>
</g>
<!-- Node16 -->
<g id="node16" class="node">
<title>Node16</title>
<g id="a_node16"><a xlink:href="spec_2align_8h.html" target="_top" xlink:title=" ">
<polygon fill="white" stroke="black" points="605.5,-62 605.5,-81 719.5,-81 719.5,-62 605.5,-62"/>
<text text-anchor="middle" x="662.5" y="-69" font-family="Helvetica,sans-Serif" font-size="10.00">odp/api/spec/align.h</text>
</a>
</g>
</g>
<!-- Node14&#45;&gt;Node16 -->
<g id="edge17" class="edge">
<title>Node14&#45;&gt;Node16</title>
<path fill="none" stroke="midnightblue" d="M610.24,-123.48C619.66,-114.28 634.86,-99.46 646.45,-88.16"/>
<polygon fill="midnightblue" stroke="midnightblue" points="649.06,-90.5 653.78,-81.01 644.17,-85.49 649.06,-90.5"/>
</g>
<!-- Node16&#45;&gt;Node7 -->
<g id="edge18" class="edge">
<title>Node16&#45;&gt;Node7</title>
<path fill="none" stroke="midnightblue" d="M625.96,-61.98C580.61,-51.39 503.22,-33.34 453.77,-21.8"/>
<polygon fill="midnightblue" stroke="midnightblue" points="454.5,-18.37 443.97,-19.51 452.91,-25.19 454.5,-18.37"/>
</g>
<!-- Node16&#45;&gt;Node8 -->
<g id="edge19" class="edge">
<title>Node16&#45;&gt;Node8</title>
<path fill="none" stroke="midnightblue" d="M668.52,-61.98C674.76,-53.14 684.67,-39.09 692.52,-27.98"/>
<polygon fill="midnightblue" stroke="midnightblue" points="695.59,-29.7 698.49,-19.51 689.87,-25.66 695.59,-29.7"/>
</g>
</g>
</svg>
