<?xml version="1.0" encoding="UTF-8" standalone="no"?>
<!DOCTYPE svg PUBLIC "-//W3C//DTD SVG 1.1//EN"
 "http://www.w3.org/Graphics/SVG/1.1/DTD/svg11.dtd">
<!-- Generated by graphviz version 2.43.0 (0)
 -->
<!-- Title: dma.h Pages: 1 -->
<svg width="1126pt" height="979pt"
 viewBox="0.00 0.00 1126.00 979.00" xmlns="http://www.w3.org/2000/svg" xmlns:xlink="http://www.w3.org/1999/xlink">
<g id="graph0" class="graph" transform="scale(1 1) rotate(0) translate(4 975)">
<title>dma.h</title>
<polygon fill="white" stroke="transparent" points="-4,4 -4,-975 1122,-975 1122,4 -4,4"/>
<!-- Node1 -->
<g id="node1" class="node">
<title>Node1</title>
<g id="a_node1"><a xlink:title=" ">
<polygon fill="#bfbfbf" stroke="black" points="838.5,-951.5 838.5,-970.5 885.5,-970.5 885.5,-951.5 838.5,-951.5"/>
<text text-anchor="middle" x="862" y="-958.5" font-family="Helvetica,sans-Serif" font-size="10.00">dma.h</text>
</a>
</g>
</g>
<!-- Node2 -->
<g id="node2" class="node">
<title>Node2</title>
<g id="a_node2"><a xlink:href="spec_2dma_8h.html" target="_top" xlink:title=" ">
<polygon fill="white" stroke="black" points="806,-895.5 806,-914.5 918,-914.5 918,-895.5 806,-895.5"/>
<text text-anchor="middle" x="862" y="-902.5" font-family="Helvetica,sans-Serif" font-size="10.00">odp/api/spec/dma.h</text>
</a>
</g>
</g>
<!-- Node1&#45;&gt;Node2 -->
<g id="edge1" class="edge">
<title>Node1&#45;&gt;Node2</title>
<path fill="none" stroke="midnightblue" d="M862,-951.08C862,-944.01 862,-933.86 862,-924.99"/>
<polygon fill="midnightblue" stroke="midnightblue" points="865.5,-924.75 862,-914.75 858.5,-924.75 865.5,-924.75"/>
</g>
<!-- Node3 -->
<g id="node3" class="node">
<title>Node3</title>
<g id="a_node3"><a xlink:title=" ">
<polygon fill="white" stroke="#bfbfbf" points="295.5,-0.5 295.5,-19.5 416.5,-19.5 416.5,-0.5 295.5,-0.5"/>
<text text-anchor="middle" x="356" y="-7.5" font-family="Helvetica,sans-Serif" font-size="10.00">odp/visibility_begin.h</text>
</a>
</g>
</g>
<!-- Node2&#45;&gt;Node3 -->
<g id="edge2" class="edge">
<title>Node2&#45;&gt;Node3</title>
<path fill="none" stroke="midnightblue" d="M805.77,-902.76C614.38,-897.8 0,-875.51 0,-794 0,-794 0,-794 0,-132 0,-93.41 10.24,-77.92 42,-56 80.3,-29.56 204.9,-18.42 285.15,-13.9"/>
<polygon fill="midnightblue" stroke="midnightblue" points="285.4,-17.39 295.2,-13.35 285.02,-10.4 285.4,-17.39"/>
</g>
<!-- Node4 -->
<g id="node4" class="node">
<title>Node4</title>
<g id="a_node4"><a xlink:href="dma__types_8h.html" target="_top" xlink:title=" ">
<polygon fill="white" stroke="black" points="599.5,-727.5 599.5,-746.5 718.5,-746.5 718.5,-727.5 599.5,-727.5"/>
<text text-anchor="middle" x="659" y="-734.5" font-family="Helvetica,sans-Serif" font-size="10.00">odp/api/dma_types.h</text>
</a>
</g>
</g>
<!-- Node2&#45;&gt;Node4 -->
<g id="edge3" class="edge">
<title>Node2&#45;&gt;Node4</title>
<path fill="none" stroke="midnightblue" d="M848.25,-895.34C834.65,-886.62 813.41,-872.54 796,-859 750.54,-823.65 700.68,-777.61 675.51,-753.8"/>
<polygon fill="midnightblue" stroke="midnightblue" points="677.62,-750.98 667.96,-746.63 672.8,-756.05 677.62,-750.98"/>
</g>
<!-- Node10 -->
<g id="node10" class="node">
<title>Node10</title>
<g id="a_node10"><a xlink:title=" ">
<polygon fill="white" stroke="#bfbfbf" points="828,-0.5 828,-19.5 940,-19.5 940,-0.5 828,-0.5"/>
<text text-anchor="middle" x="884" y="-7.5" font-family="Helvetica,sans-Serif" font-size="10.00">odp/visibility_end.h</text>
</a>
</g>
</g>
<!-- Node2&#45;&gt;Node10 -->
<g id="edge55" class="edge">
<title>Node2&#45;&gt;Node10</title>
<path fill="none" stroke="midnightblue" d="M918.18,-903.6C993.54,-899.76 1118,-880.35 1118,-794 1118,-794 1118,-794 1118,-132 1118,-55.93 1019.23,-27.63 950.03,-17.14"/>
<polygon fill="midnightblue" stroke="midnightblue" points="950.44,-13.66 940.05,-15.72 949.45,-20.59 950.44,-13.66"/>
</g>
<!-- Node31 -->
<g id="node31" class="node">
<title>Node31</title>
<g id="a_node31"><a xlink:href="pool__types_8h.html" target="_top" xlink:title=" ">
<polygon fill="white" stroke="black" points="805,-839.5 805,-858.5 923,-858.5 923,-839.5 805,-839.5"/>
<text text-anchor="middle" x="864" y="-846.5" font-family="Helvetica,sans-Serif" font-size="10.00">odp/api/pool_types.h</text>
</a>
</g>
</g>
<!-- Node2&#45;&gt;Node31 -->
<g id="edge48" class="edge">
<title>Node2&#45;&gt;Node31</title>
<path fill="none" stroke="midnightblue" d="M862.33,-895.08C862.59,-888.01 862.97,-877.86 863.3,-868.99"/>
<polygon fill="midnightblue" stroke="midnightblue" points="866.8,-868.87 863.68,-858.75 859.81,-868.61 866.8,-868.87"/>
</g>
<!-- Node5 -->
<g id="node5" class="node">
<title>Node5</title>
<g id="a_node5"><a xlink:title=" ">
<polygon fill="white" stroke="#bfbfbf" points="428.5,-671.5 428.5,-690.5 565.5,-690.5 565.5,-671.5 428.5,-671.5"/>
<text text-anchor="middle" x="497" y="-678.5" font-family="Helvetica,sans-Serif" font-size="10.00">odp/api/abi/dma_types.h</text>
</a>
</g>
</g>
<!-- Node4&#45;&gt;Node5 -->
<g id="edge4" class="edge">
<title>Node4&#45;&gt;Node5</title>
<path fill="none" stroke="midnightblue" d="M633.33,-727.44C606.08,-718.36 562.82,-703.94 532.35,-693.78"/>
<polygon fill="midnightblue" stroke="midnightblue" points="533.14,-690.36 522.55,-690.52 530.93,-697 533.14,-690.36"/>
</g>
<!-- Node6 -->
<g id="node6" class="node">
<title>Node6</title>
<g id="a_node6"><a xlink:href="spec_2dma__types_8h.html" target="_top" xlink:title=" ">
<polygon fill="white" stroke="black" points="584,-671.5 584,-690.5 728,-690.5 728,-671.5 584,-671.5"/>
<text text-anchor="middle" x="656" y="-678.5" font-family="Helvetica,sans-Serif" font-size="10.00">odp/api/spec/dma_types.h</text>
</a>
</g>
</g>
<!-- Node4&#45;&gt;Node6 -->
<g id="edge5" class="edge">
<title>Node4&#45;&gt;Node6</title>
<path fill="none" stroke="midnightblue" d="M658.5,-727.08C658.11,-720.01 657.55,-709.86 657.05,-700.99"/>
<polygon fill="midnightblue" stroke="midnightblue" points="660.54,-700.54 656.49,-690.75 653.55,-700.93 660.54,-700.54"/>
</g>
<!-- Node6&#45;&gt;Node3 -->
<g id="edge6" class="edge">
<title>Node6&#45;&gt;Node3</title>
<path fill="none" stroke="midnightblue" d="M583.99,-671.87C477.27,-659.77 288,-638.11 273,-635 166.22,-612.89 38,-673.54 38,-564.5 38,-564.5 38,-564.5 38,-132 38,-94.81 43.36,-78.46 73,-56 105.52,-31.36 212.56,-19.82 285.26,-14.71"/>
<polygon fill="midnightblue" stroke="midnightblue" points="285.54,-18.2 295.29,-14.03 285.07,-11.21 285.54,-18.2"/>
</g>
<!-- Node7 -->
<g id="node7" class="node">
<title>Node7</title>
<g id="a_node7"><a xlink:href="event__types_8h.html" target="_top" xlink:title=" ">
<polygon fill="white" stroke="black" points="113.5,-123.5 113.5,-142.5 238.5,-142.5 238.5,-123.5 113.5,-123.5"/>
<text text-anchor="middle" x="176" y="-130.5" font-family="Helvetica,sans-Serif" font-size="10.00">odp/api/event_types.h</text>
</a>
</g>
</g>
<!-- Node6&#45;&gt;Node7 -->
<g id="edge7" class="edge">
<title>Node6&#45;&gt;Node7</title>
<path fill="none" stroke="midnightblue" d="M588.95,-671.5C452.43,-653.27 155,-608.52 155,-564.5 155,-564.5 155,-564.5 155,-244 155,-211.38 164.02,-174.28 170.23,-152.57"/>
<polygon fill="midnightblue" stroke="midnightblue" points="173.67,-153.32 173.17,-142.73 166.96,-151.32 173.67,-153.32"/>
</g>
<!-- Node6&#45;&gt;Node10 -->
<g id="edge47" class="edge">
<title>Node6&#45;&gt;Node10</title>
<path fill="none" stroke="midnightblue" d="M688.1,-671.45C713.69,-663.89 749.93,-651.5 779,-635 941.35,-542.85 1042,-494.18 1042,-307.5 1042,-307.5 1042,-307.5 1042,-132 1042,-73.13 972.01,-39.03 925.2,-22.8"/>
<polygon fill="midnightblue" stroke="midnightblue" points="926.19,-19.44 915.59,-19.6 923.98,-26.08 926.19,-19.44"/>
</g>
<!-- Node11 -->
<g id="node11" class="node">
<title>Node11</title>
<g id="a_node11"><a xlink:href="packet__types_8h.html" target="_top" xlink:title=" ">
<polygon fill="white" stroke="black" points="557.5,-615.5 557.5,-634.5 686.5,-634.5 686.5,-615.5 557.5,-615.5"/>
<text text-anchor="middle" x="622" y="-622.5" font-family="Helvetica,sans-Serif" font-size="10.00">odp/api/packet_types.h</text>
</a>
</g>
</g>
<!-- Node6&#45;&gt;Node11 -->
<g id="edge12" class="edge">
<title>Node6&#45;&gt;Node11</title>
<path fill="none" stroke="midnightblue" d="M650.39,-671.08C645.63,-663.53 638.68,-652.49 632.85,-643.23"/>
<polygon fill="midnightblue" stroke="midnightblue" points="635.8,-641.35 627.51,-634.75 629.88,-645.08 635.8,-641.35"/>
</g>
<!-- Node18 -->
<g id="node18" class="node">
<title>Node18</title>
<g id="a_node18"><a xlink:href="std__types_8h.html" target="_top" xlink:title=" ">
<polygon fill="white" stroke="black" points="762,-235.5 762,-254.5 874,-254.5 874,-235.5 762,-235.5"/>
<text text-anchor="middle" x="818" y="-242.5" font-family="Helvetica,sans-Serif" font-size="10.00">odp/api/std_types.h</text>
</a>
</g>
</g>
<!-- Node6&#45;&gt;Node18 -->
<g id="edge46" class="edge">
<title>Node6&#45;&gt;Node18</title>
<path fill="none" stroke="midnightblue" d="M678.43,-671.36C725.58,-651.69 833.35,-598.49 866,-512 900.82,-419.77 882.76,-382.87 847,-291 843.13,-281.06 836.9,-270.98 831.2,-262.89"/>
<polygon fill="midnightblue" stroke="midnightblue" points="833.92,-260.68 825.15,-254.72 828.29,-264.84 833.92,-260.68"/>
</g>
<!-- Node25 -->
<g id="node25" class="node">
<title>Node25</title>
<g id="a_node25"><a xlink:href="queue__types_8h.html" target="_top" xlink:title=" ">
<polygon fill="white" stroke="black" points="330.5,-492.5 330.5,-511.5 457.5,-511.5 457.5,-492.5 330.5,-492.5"/>
<text text-anchor="middle" x="394" y="-499.5" font-family="Helvetica,sans-Serif" font-size="10.00">odp/api/queue_types.h</text>
</a>
</g>
</g>
<!-- Node6&#45;&gt;Node25 -->
<g id="edge45" class="edge">
<title>Node6&#45;&gt;Node25</title>
<path fill="none" stroke="midnightblue" d="M619.57,-671.47C571.87,-658.65 488.1,-630.29 435,-579 418.19,-562.77 406.65,-538.13 400.2,-521.34"/>
<polygon fill="midnightblue" stroke="midnightblue" points="403.37,-519.82 396.69,-511.6 396.79,-522.2 403.37,-519.82"/>
</g>
<!-- Node8 -->
<g id="node8" class="node">
<title>Node8</title>
<g id="a_node8"><a xlink:title=" ">
<polygon fill="white" stroke="#bfbfbf" points="104.5,-62 104.5,-81 247.5,-81 247.5,-62 104.5,-62"/>
<text text-anchor="middle" x="176" y="-69" font-family="Helvetica,sans-Serif" font-size="10.00">odp/api/abi/event_types.h</text>
</a>
</g>
</g>
<!-- Node7&#45;&gt;Node8 -->
<g id="edge8" class="edge">
<title>Node7&#45;&gt;Node8</title>
<path fill="none" stroke="midnightblue" d="M176,-123.48C176,-115.08 176,-101.98 176,-91.16"/>
<polygon fill="midnightblue" stroke="midnightblue" points="179.5,-91.01 176,-81.01 172.5,-91.01 179.5,-91.01"/>
</g>
<!-- Node9 -->
<g id="node9" class="node">
<title>Node9</title>
<g id="a_node9"><a xlink:href="spec_2event__types_8h.html" target="_top" xlink:title=" ">
<polygon fill="white" stroke="black" points="342.5,-56.5 342.5,-86.5 451.5,-86.5 451.5,-56.5 342.5,-56.5"/>
<text text-anchor="start" x="350.5" y="-74.5" font-family="Helvetica,sans-Serif" font-size="10.00">odp/api/spec/event</text>
<text text-anchor="middle" x="397" y="-63.5" font-family="Helvetica,sans-Serif" font-size="10.00">_types.h</text>
</a>
</g>
</g>
<!-- Node7&#45;&gt;Node9 -->
<g id="edge9" class="edge">
<title>Node7&#45;&gt;Node9</title>
<path fill="none" stroke="midnightblue" d="M207.66,-123.48C240.81,-114.55 293.71,-100.31 335.18,-89.14"/>
<polygon fill="midnightblue" stroke="midnightblue" points="336.17,-92.5 344.91,-86.52 334.35,-85.74 336.17,-92.5"/>
</g>
<!-- Node9&#45;&gt;Node3 -->
<g id="edge10" class="edge">
<title>Node9&#45;&gt;Node3</title>
<path fill="none" stroke="midnightblue" d="M387.28,-56.4C381.45,-47.93 373.98,-37.1 367.81,-28.14"/>
<polygon fill="midnightblue" stroke="midnightblue" points="370.52,-25.91 361.97,-19.66 364.76,-29.88 370.52,-25.91"/>
</g>
<!-- Node9&#45;&gt;Node10 -->
<g id="edge11" class="edge">
<title>Node9&#45;&gt;Node10</title>
<path fill="none" stroke="midnightblue" d="M451.92,-63.79C542.01,-52.78 720.86,-30.93 817.81,-19.09"/>
<polygon fill="midnightblue" stroke="midnightblue" points="818.28,-22.56 827.78,-17.87 817.43,-15.61 818.28,-22.56"/>
</g>
<!-- Node12 -->
<g id="node12" class="node">
<title>Node12</title>
<g id="a_node12"><a xlink:title=" ">
<polygon fill="white" stroke="#bfbfbf" points="444,-548.5 444,-578.5 550,-578.5 550,-548.5 444,-548.5"/>
<text text-anchor="start" x="452" y="-566.5" font-family="Helvetica,sans-Serif" font-size="10.00">odp/api/abi/packet</text>
<text text-anchor="middle" x="497" y="-555.5" font-family="Helvetica,sans-Serif" font-size="10.00">_io_types.h</text>
</a>
</g>
</g>
<!-- Node11&#45;&gt;Node12 -->
<g id="edge13" class="edge">
<title>Node11&#45;&gt;Node12</title>
<path fill="none" stroke="midnightblue" d="M604.09,-615.48C586.29,-607 558.42,-593.74 535.58,-582.86"/>
<polygon fill="midnightblue" stroke="midnightblue" points="536.99,-579.66 526.46,-578.52 533.99,-585.98 536.99,-579.66"/>
</g>
<!-- Node13 -->
<g id="node13" class="node">
<title>Node13</title>
<g id="a_node13"><a xlink:title=" ">
<polygon fill="white" stroke="#bfbfbf" points="568,-548.5 568,-578.5 674,-578.5 674,-548.5 568,-548.5"/>
<text text-anchor="start" x="576" y="-566.5" font-family="Helvetica,sans-Serif" font-size="10.00">odp/api/abi/packet</text>
<text text-anchor="middle" x="621" y="-555.5" font-family="Helvetica,sans-Serif" font-size="10.00">_types.h</text>
</a>
</g>
</g>
<!-- Node11&#45;&gt;Node13 -->
<g id="edge14" class="edge">
<title>Node11&#45;&gt;Node13</title>
<path fill="none" stroke="midnightblue" d="M621.86,-615.48C621.74,-608.47 621.57,-598.19 621.41,-588.7"/>
<polygon fill="midnightblue" stroke="midnightblue" points="624.9,-588.46 621.24,-578.52 617.9,-588.58 624.9,-588.46"/>
</g>
<!-- Node14 -->
<g id="node14" class="node">
<title>Node14</title>
<g id="a_node14"><a xlink:href="spec_2packet__types_8h.html" target="_top" xlink:title=" ">
<polygon fill="white" stroke="black" points="692.5,-548.5 692.5,-578.5 805.5,-578.5 805.5,-548.5 692.5,-548.5"/>
<text text-anchor="start" x="700.5" y="-566.5" font-family="Helvetica,sans-Serif" font-size="10.00">odp/api/spec/packet</text>
<text text-anchor="middle" x="749" y="-555.5" font-family="Helvetica,sans-Serif" font-size="10.00">_types.h</text>
</a>
</g>
</g>
<!-- Node11&#45;&gt;Node14 -->
<g id="edge15" class="edge">
<title>Node11&#45;&gt;Node14</title>
<path fill="none" stroke="midnightblue" d="M640.2,-615.48C658.28,-607 686.59,-593.74 709.81,-582.86"/>
<polygon fill="midnightblue" stroke="midnightblue" points="711.5,-585.93 719.07,-578.52 708.53,-579.6 711.5,-585.93"/>
</g>
<!-- Node14&#45;&gt;Node3 -->
<g id="edge16" class="edge">
<title>Node14&#45;&gt;Node3</title>
<path fill="none" stroke="midnightblue" d="M728.95,-548.39C687.08,-518.9 587.33,-448.54 504,-389 484.83,-375.3 481.94,-368.8 461,-358 416.78,-335.2 393.7,-353.26 355,-322 301.81,-279.04 276,-258.37 276,-190 276,-190 276,-190 276,-132 276,-87.85 313.52,-47.42 337.17,-26.32"/>
<polygon fill="midnightblue" stroke="midnightblue" points="339.58,-28.87 344.88,-19.69 335.01,-23.56 339.58,-28.87"/>
</g>
<!-- Node14&#45;&gt;Node10 -->
<g id="edge44" class="edge">
<title>Node14&#45;&gt;Node10</title>
<path fill="none" stroke="midnightblue" d="M762.89,-548.18C806.33,-502.26 939.49,-352.67 985,-199 997.56,-156.59 1017.47,-129.47 966,-56 955.58,-41.13 938.63,-30.67 922.83,-23.6"/>
<polygon fill="midnightblue" stroke="midnightblue" points="923.79,-20.21 913.21,-19.62 921.12,-26.68 923.79,-20.21"/>
</g>
<!-- Node15 -->
<g id="node15" class="node">
<title>Node15</title>
<g id="a_node15"><a xlink:href="proto__stats__types_8h.html" target="_top" xlink:title=" ">
<polygon fill="white" stroke="black" points="694,-358.5 694,-388.5 804,-388.5 804,-358.5 694,-358.5"/>
<text text-anchor="start" x="702" y="-376.5" font-family="Helvetica,sans-Serif" font-size="10.00">odp/api/proto_stats</text>
<text text-anchor="middle" x="749" y="-365.5" font-family="Helvetica,sans-Serif" font-size="10.00">_types.h</text>
</a>
</g>
</g>
<!-- Node14&#45;&gt;Node15 -->
<g id="edge17" class="edge">
<title>Node14&#45;&gt;Node15</title>
<path fill="none" stroke="midnightblue" d="M749,-548.37C749,-516.44 749,-438.44 749,-398.67"/>
<polygon fill="midnightblue" stroke="midnightblue" points="752.5,-398.54 749,-388.54 745.5,-398.54 752.5,-398.54"/>
</g>
<!-- Node14&#45;&gt;Node25 -->
<g id="edge33" class="edge">
<title>Node14&#45;&gt;Node25</title>
<path fill="none" stroke="midnightblue" d="M692.16,-549.78C689.07,-549.16 686,-548.56 683,-548 609.28,-534.18 524.42,-521.32 465.82,-512.92"/>
<polygon fill="midnightblue" stroke="midnightblue" points="466.31,-509.46 455.92,-511.51 465.33,-516.39 466.31,-509.46"/>
</g>
<!-- Node16 -->
<g id="node16" class="node">
<title>Node16</title>
<g id="a_node16"><a xlink:title=" ">
<polygon fill="white" stroke="#bfbfbf" points="584,-291.5 584,-321.5 712,-321.5 712,-291.5 584,-291.5"/>
<text text-anchor="start" x="592" y="-309.5" font-family="Helvetica,sans-Serif" font-size="10.00">odp/api/abi/proto_stats</text>
<text text-anchor="middle" x="648" y="-298.5" font-family="Helvetica,sans-Serif" font-size="10.00">_types.h</text>
</a>
</g>
</g>
<!-- Node15&#45;&gt;Node16 -->
<g id="edge18" class="edge">
<title>Node15&#45;&gt;Node16</title>
<path fill="none" stroke="midnightblue" d="M727.08,-358.4C712.92,-349.28 694.29,-337.29 678.67,-327.24"/>
<polygon fill="midnightblue" stroke="midnightblue" points="680.18,-324.05 669.87,-321.58 676.39,-329.93 680.18,-324.05"/>
</g>
<!-- Node17 -->
<g id="node17" class="node">
<title>Node17</title>
<g id="a_node17"><a xlink:href="spec_2proto__stats__types_8h.html" target="_top" xlink:title=" ">
<polygon fill="white" stroke="black" points="730.5,-291.5 730.5,-321.5 837.5,-321.5 837.5,-291.5 730.5,-291.5"/>
<text text-anchor="start" x="738.5" y="-309.5" font-family="Helvetica,sans-Serif" font-size="10.00">odp/api/spec/proto</text>
<text text-anchor="middle" x="784" y="-298.5" font-family="Helvetica,sans-Serif" font-size="10.00">_stats_types.h</text>
</a>
</g>
</g>
<!-- Node15&#45;&gt;Node17 -->
<g id="edge19" class="edge">
<title>Node15&#45;&gt;Node17</title>
<path fill="none" stroke="midnightblue" d="M756.59,-358.4C761,-350.22 766.65,-339.73 771.67,-330.39"/>
<polygon fill="midnightblue" stroke="midnightblue" points="774.76,-332.04 776.42,-321.58 768.6,-328.72 774.76,-332.04"/>
</g>
<!-- Node17&#45;&gt;Node3 -->
<g id="edge20" class="edge">
<title>Node17&#45;&gt;Node3</title>
<path fill="none" stroke="midnightblue" d="M750.2,-291.43C730.54,-282.44 705.81,-269.74 686,-255 636.7,-218.32 546.09,-88.6 494,-56 468.43,-40 436.6,-29.12 409.95,-22.07"/>
<polygon fill="midnightblue" stroke="midnightblue" points="410.57,-18.62 400.02,-19.56 408.85,-25.41 410.57,-18.62"/>
</g>
<!-- Node17&#45;&gt;Node10 -->
<g id="edge32" class="edge">
<title>Node17&#45;&gt;Node10</title>
<path fill="none" stroke="midnightblue" d="M757.5,-291.48C720.39,-269.82 659.72,-225.79 681,-179 698.21,-141.15 789.48,-81.9 822,-56 835.39,-45.33 851,-34.01 863.2,-25.39"/>
<polygon fill="midnightblue" stroke="midnightblue" points="865.22,-28.25 871.41,-19.65 861.21,-22.52 865.22,-28.25"/>
</g>
<!-- Node17&#45;&gt;Node18 -->
<g id="edge21" class="edge">
<title>Node17&#45;&gt;Node18</title>
<path fill="none" stroke="midnightblue" d="M792.06,-291.4C796.85,-283.02 802.96,-272.33 808.04,-263.42"/>
<polygon fill="midnightblue" stroke="midnightblue" points="811.13,-265.08 813.05,-254.66 805.05,-261.6 811.13,-265.08"/>
</g>
<!-- Node19 -->
<g id="node19" class="node">
<title>Node19</title>
<g id="a_node19"><a xlink:title=" ">
<polygon fill="white" stroke="#bfbfbf" points="690,-179.5 690,-198.5 820,-198.5 820,-179.5 690,-179.5"/>
<text text-anchor="middle" x="755" y="-186.5" font-family="Helvetica,sans-Serif" font-size="10.00">odp/api/abi/std_types.h</text>
</a>
</g>
</g>
<!-- Node18&#45;&gt;Node19 -->
<g id="edge22" class="edge">
<title>Node18&#45;&gt;Node19</title>
<path fill="none" stroke="midnightblue" d="M807.88,-235.32C798.47,-227.26 784.26,-215.08 772.93,-205.37"/>
<polygon fill="midnightblue" stroke="midnightblue" points="775.18,-202.68 765.31,-198.83 770.62,-208 775.18,-202.68"/>
</g>
<!-- Node20 -->
<g id="node20" class="node">
<title>Node20</title>
<g id="a_node20"><a xlink:href="spec_2std__types_8h.html" target="_top" xlink:title=" ">
<polygon fill="white" stroke="black" points="838.5,-179.5 838.5,-198.5 975.5,-198.5 975.5,-179.5 838.5,-179.5"/>
<text text-anchor="middle" x="907" y="-186.5" font-family="Helvetica,sans-Serif" font-size="10.00">odp/api/spec/std_types.h</text>
</a>
</g>
</g>
<!-- Node18&#45;&gt;Node20 -->
<g id="edge23" class="edge">
<title>Node18&#45;&gt;Node20</title>
<path fill="none" stroke="midnightblue" d="M832.3,-235.32C846.18,-226.9 867.49,-213.97 883.8,-204.07"/>
<polygon fill="midnightblue" stroke="midnightblue" points="886,-206.83 892.74,-198.65 882.37,-200.85 886,-206.83"/>
</g>
<!-- Node20&#45;&gt;Node3 -->
<g id="edge24" class="edge">
<title>Node20&#45;&gt;Node3</title>
<path fill="none" stroke="midnightblue" d="M879.27,-179.43C850.95,-170.59 805.77,-156.27 767,-143 698.1,-119.41 681.23,-112.46 613,-87 576.89,-73.52 568.73,-67.68 532,-56 489.6,-42.52 440.48,-30.23 404.93,-21.91"/>
<polygon fill="midnightblue" stroke="midnightblue" points="405.35,-18.42 394.82,-19.57 403.77,-25.24 405.35,-18.42"/>
</g>
<!-- Node20&#45;&gt;Node10 -->
<g id="edge31" class="edge">
<title>Node20&#45;&gt;Node10</title>
<path fill="none" stroke="midnightblue" d="M917.59,-179.26C926.73,-170.99 939.33,-157.69 945,-143 958.93,-106.92 964.7,-90.39 947,-56 939.92,-42.25 926.48,-31.77 913.82,-24.39"/>
<polygon fill="midnightblue" stroke="midnightblue" points="915.31,-21.22 904.85,-19.57 912,-27.39 915.31,-21.22"/>
</g>
<!-- Node21 -->
<g id="node21" class="node">
<title>Node21</title>
<g id="a_node21"><a xlink:title=" ">
<polygon fill="white" stroke="#bfbfbf" points="882.5,-123.5 882.5,-142.5 935.5,-142.5 935.5,-123.5 882.5,-123.5"/>
<text text-anchor="middle" x="909" y="-130.5" font-family="Helvetica,sans-Serif" font-size="10.00">stdint.h</text>
</a>
</g>
</g>
<!-- Node20&#45;&gt;Node21 -->
<g id="edge25" class="edge">
<title>Node20&#45;&gt;Node21</title>
<path fill="none" stroke="midnightblue" d="M907.33,-179.08C907.59,-172.01 907.97,-161.86 908.3,-152.99"/>
<polygon fill="midnightblue" stroke="midnightblue" points="911.8,-152.87 908.68,-142.75 904.81,-152.61 911.8,-152.87"/>
</g>
<!-- Node22 -->
<g id="node22" class="node">
<title>Node22</title>
<g id="a_node22"><a xlink:href="align_8h.html" target="_top" xlink:title=" ">
<polygon fill="white" stroke="black" points="775.5,-123.5 775.5,-142.5 864.5,-142.5 864.5,-123.5 775.5,-123.5"/>
<text text-anchor="middle" x="820" y="-130.5" font-family="Helvetica,sans-Serif" font-size="10.00">odp/api/align.h</text>
</a>
</g>
</g>
<!-- Node20&#45;&gt;Node22 -->
<g id="edge26" class="edge">
<title>Node20&#45;&gt;Node22</title>
<path fill="none" stroke="midnightblue" d="M893.02,-179.32C879.45,-170.9 858.62,-157.97 842.68,-148.07"/>
<polygon fill="midnightblue" stroke="midnightblue" points="844.29,-144.95 833.94,-142.65 840.59,-150.9 844.29,-144.95"/>
</g>
<!-- Node23 -->
<g id="node23" class="node">
<title>Node23</title>
<g id="a_node23"><a xlink:title=" ">
<polygon fill="white" stroke="#bfbfbf" points="830.5,-62 830.5,-81 937.5,-81 937.5,-62 830.5,-62"/>
<text text-anchor="middle" x="884" y="-69" font-family="Helvetica,sans-Serif" font-size="10.00">odp/api/abi/align.h</text>
</a>
</g>
</g>
<!-- Node22&#45;&gt;Node23 -->
<g id="edge27" class="edge">
<title>Node22&#45;&gt;Node23</title>
<path fill="none" stroke="midnightblue" d="M829.17,-123.48C839.15,-114.2 855.31,-99.17 867.51,-87.83"/>
<polygon fill="midnightblue" stroke="midnightblue" points="869.91,-90.38 874.85,-81.01 865.14,-85.25 869.91,-90.38"/>
</g>
<!-- Node24 -->
<g id="node24" class="node">
<title>Node24</title>
<g id="a_node24"><a xlink:href="spec_2align_8h.html" target="_top" xlink:title=" ">
<polygon fill="white" stroke="black" points="622,-62 622,-81 736,-81 736,-62 622,-62"/>
<text text-anchor="middle" x="679" y="-69" font-family="Helvetica,sans-Serif" font-size="10.00">odp/api/spec/align.h</text>
</a>
</g>
</g>
<!-- Node22&#45;&gt;Node24 -->
<g id="edge28" class="edge">
<title>Node22&#45;&gt;Node24</title>
<path fill="none" stroke="midnightblue" d="M799.8,-123.48C775.93,-113.4 736,-96.55 708.63,-85"/>
<polygon fill="midnightblue" stroke="midnightblue" points="709.74,-81.67 699.16,-81.01 707.02,-88.12 709.74,-81.67"/>
</g>
<!-- Node24&#45;&gt;Node3 -->
<g id="edge29" class="edge">
<title>Node24&#45;&gt;Node3</title>
<path fill="none" stroke="midnightblue" d="M632.72,-61.98C574.56,-51.26 474.79,-32.88 412.27,-21.37"/>
<polygon fill="midnightblue" stroke="midnightblue" points="412.66,-17.88 402.19,-19.51 411.39,-24.76 412.66,-17.88"/>
</g>
<!-- Node24&#45;&gt;Node10 -->
<g id="edge30" class="edge">
<title>Node24&#45;&gt;Node10</title>
<path fill="none" stroke="midnightblue" d="M708.37,-61.98C744.3,-51.55 805.23,-33.86 845.04,-22.31"/>
<polygon fill="midnightblue" stroke="midnightblue" points="846.05,-25.66 854.68,-19.51 844.1,-18.94 846.05,-25.66"/>
</g>
<!-- Node26 -->
<g id="node26" class="node">
<title>Node26</title>
<g id="a_node26"><a xlink:title=" ">
<polygon fill="white" stroke="#bfbfbf" points="183.5,-431 183.5,-450 328.5,-450 328.5,-431 183.5,-431"/>
<text text-anchor="middle" x="256" y="-438" font-family="Helvetica,sans-Serif" font-size="10.00">odp/api/abi/queue_types.h</text>
</a>
</g>
</g>
<!-- Node25&#45;&gt;Node26 -->
<g id="edge34" class="edge">
<title>Node25&#45;&gt;Node26</title>
<path fill="none" stroke="midnightblue" d="M374.23,-492.48C350.86,-482.4 311.79,-465.55 285,-454"/>
<polygon fill="midnightblue" stroke="midnightblue" points="286.3,-450.75 275.74,-450.01 283.53,-457.18 286.3,-450.75"/>
</g>
<!-- Node27 -->
<g id="node27" class="node">
<title>Node27</title>
<g id="a_node27"><a xlink:href="spec_2queue__types_8h.html" target="_top" xlink:title=" ">
<polygon fill="white" stroke="black" points="346.5,-425.5 346.5,-455.5 457.5,-455.5 457.5,-425.5 346.5,-425.5"/>
<text text-anchor="start" x="354.5" y="-443.5" font-family="Helvetica,sans-Serif" font-size="10.00">odp/api/spec/queue</text>
<text text-anchor="middle" x="402" y="-432.5" font-family="Helvetica,sans-Serif" font-size="10.00">_types.h</text>
</a>
</g>
</g>
<!-- Node25&#45;&gt;Node27 -->
<g id="edge35" class="edge">
<title>Node25&#45;&gt;Node27</title>
<path fill="none" stroke="midnightblue" d="M395.15,-492.48C396.09,-485.47 397.47,-475.19 398.75,-465.7"/>
<polygon fill="midnightblue" stroke="midnightblue" points="402.25,-465.9 400.11,-455.52 395.31,-464.97 402.25,-465.9"/>
</g>
<!-- Node27&#45;&gt;Node3 -->
<g id="edge36" class="edge">
<title>Node27&#45;&gt;Node3</title>
<path fill="none" stroke="midnightblue" d="M354.6,-425.45C264.18,-397.96 76,-337.19 76,-307.5 76,-307.5 76,-307.5 76,-132 76,-97.18 69.48,-79.69 95,-56 122,-30.93 217.5,-19.61 285.14,-14.65"/>
<polygon fill="midnightblue" stroke="midnightblue" points="285.59,-18.13 295.32,-13.94 285.1,-11.15 285.59,-18.13"/>
</g>
<!-- Node27&#45;&gt;Node10 -->
<g id="edge43" class="edge">
<title>Node27&#45;&gt;Node10</title>
<path fill="none" stroke="midnightblue" d="M419.5,-425.43C431.5,-415.57 447.59,-401.9 461,-389 577.03,-277.34 593.71,-237.44 707,-123 707.95,-122.04 776.87,-56.74 778,-56 799.38,-42.02 825.82,-30.79 846.95,-23.04"/>
<polygon fill="midnightblue" stroke="midnightblue" points="848.3,-26.28 856.54,-19.63 845.95,-19.68 848.3,-26.28"/>
</g>
<!-- Node28 -->
<g id="node28" class="node">
<title>Node28</title>
<g id="a_node28"><a xlink:href="schedule__types_8h.html" target="_top" xlink:title=" ">
<polygon fill="white" stroke="black" points="312,-364 312,-383 452,-383 452,-364 312,-364"/>
<text text-anchor="middle" x="382" y="-371" font-family="Helvetica,sans-Serif" font-size="10.00">odp/api/schedule_types.h</text>
</a>
</g>
</g>
<!-- Node27&#45;&gt;Node28 -->
<g id="edge37" class="edge">
<title>Node27&#45;&gt;Node28</title>
<path fill="none" stroke="midnightblue" d="M397.66,-425.4C394.73,-415.86 390.83,-403.18 387.65,-392.86"/>
<polygon fill="midnightblue" stroke="midnightblue" points="390.96,-391.72 384.68,-383.19 384.27,-393.78 390.96,-391.72"/>
</g>
<!-- Node29 -->
<g id="node29" class="node">
<title>Node29</title>
<g id="a_node29"><a xlink:title=" ">
<polygon fill="white" stroke="#bfbfbf" points="190.5,-291.5 190.5,-321.5 307.5,-321.5 307.5,-291.5 190.5,-291.5"/>
<text text-anchor="start" x="198.5" y="-309.5" font-family="Helvetica,sans-Serif" font-size="10.00">odp/api/abi/schedule</text>
<text text-anchor="middle" x="249" y="-298.5" font-family="Helvetica,sans-Serif" font-size="10.00">_types.h</text>
</a>
</g>
</g>
<!-- Node28&#45;&gt;Node29 -->
<g id="edge38" class="edge">
<title>Node28&#45;&gt;Node29</title>
<path fill="none" stroke="midnightblue" d="M364.34,-363.87C344.64,-354.24 312.2,-338.39 286.73,-325.94"/>
<polygon fill="midnightblue" stroke="midnightblue" points="288.22,-322.77 277.7,-321.53 285.15,-329.06 288.22,-322.77"/>
</g>
<!-- Node30 -->
<g id="node30" class="node">
<title>Node30</title>
<g id="a_node30"><a xlink:href="spec_2schedule__types_8h.html" target="_top" xlink:title=" ">
<polygon fill="white" stroke="black" points="364.5,-291.5 364.5,-321.5 489.5,-321.5 489.5,-291.5 364.5,-291.5"/>
<text text-anchor="start" x="372.5" y="-309.5" font-family="Helvetica,sans-Serif" font-size="10.00">odp/api/spec/schedule</text>
<text text-anchor="middle" x="427" y="-298.5" font-family="Helvetica,sans-Serif" font-size="10.00">_types.h</text>
</a>
</g>
</g>
<!-- Node28&#45;&gt;Node30 -->
<g id="edge39" class="edge">
<title>Node28&#45;&gt;Node30</title>
<path fill="none" stroke="midnightblue" d="M388.07,-363.73C394.03,-355.12 403.39,-341.61 411.43,-329.99"/>
<polygon fill="midnightblue" stroke="midnightblue" points="414.43,-331.8 417.25,-321.59 408.68,-327.82 414.43,-331.8"/>
</g>
<!-- Node30&#45;&gt;Node3 -->
<g id="edge40" class="edge">
<title>Node30&#45;&gt;Node3</title>
<path fill="none" stroke="midnightblue" d="M397.61,-291.46C364.12,-273.18 314,-237.83 314,-190 314,-190 314,-190 314,-132 314,-93.45 333.26,-51.63 345.69,-28.64"/>
<polygon fill="midnightblue" stroke="midnightblue" points="348.84,-30.18 350.68,-19.74 342.74,-26.75 348.84,-30.18"/>
</g>
<!-- Node30&#45;&gt;Node10 -->
<g id="edge42" class="edge">
<title>Node30&#45;&gt;Node10</title>
<path fill="none" stroke="midnightblue" d="M432.93,-291.21C451.82,-247.6 515.2,-115.61 613,-56 646.46,-35.61 748.61,-22.85 817.49,-16.33"/>
<polygon fill="midnightblue" stroke="midnightblue" points="818.19,-19.79 827.82,-15.38 817.54,-12.81 818.19,-19.79"/>
</g>
<!-- Node30&#45;&gt;Node18 -->
<g id="edge41" class="edge">
<title>Node30&#45;&gt;Node18</title>
<path fill="none" stroke="midnightblue" d="M489.82,-295.94C561.67,-285.01 678.8,-267.18 751.97,-256.05"/>
<polygon fill="midnightblue" stroke="midnightblue" points="752.63,-259.49 761.99,-254.52 751.58,-252.57 752.63,-259.49"/>
</g>
<!-- Node32 -->
<g id="node32" class="node">
<title>Node32</title>
<g id="a_node32"><a xlink:title=" ">
<polygon fill="white" stroke="#bfbfbf" points="954,-783.5 954,-802.5 1090,-802.5 1090,-783.5 954,-783.5"/>
<text text-anchor="middle" x="1022" y="-790.5" font-family="Helvetica,sans-Serif" font-size="10.00">odp/api/abi/pool_types.h</text>
</a>
</g>
</g>
<!-- Node31&#45;&gt;Node32 -->
<g id="edge49" class="edge">
<title>Node31&#45;&gt;Node32</title>
<path fill="none" stroke="midnightblue" d="M889.04,-839.44C915.62,-830.36 957.81,-815.94 987.52,-805.78"/>
<polygon fill="midnightblue" stroke="midnightblue" points="988.75,-809.06 997.08,-802.52 986.49,-802.44 988.75,-809.06"/>
</g>
<!-- Node33 -->
<g id="node33" class="node">
<title>Node33</title>
<g id="a_node33"><a xlink:href="spec_2pool__types_8h.html" target="_top" xlink:title=" ">
<polygon fill="white" stroke="black" points="792.5,-783.5 792.5,-802.5 935.5,-802.5 935.5,-783.5 792.5,-783.5"/>
<text text-anchor="middle" x="864" y="-790.5" font-family="Helvetica,sans-Serif" font-size="10.00">odp/api/spec/pool_types.h</text>
</a>
</g>
</g>
<!-- Node31&#45;&gt;Node33 -->
<g id="edge50" class="edge">
<title>Node31&#45;&gt;Node33</title>
<path fill="none" stroke="midnightblue" d="M864,-839.08C864,-832.01 864,-821.86 864,-812.99"/>
<polygon fill="midnightblue" stroke="midnightblue" points="867.5,-812.75 864,-802.75 860.5,-812.75 867.5,-812.75"/>
</g>
<!-- Node33&#45;&gt;Node3 -->
<g id="edge51" class="edge">
<title>Node33&#45;&gt;Node3</title>
<path fill="none" stroke="midnightblue" d="M881.3,-783.45C910.4,-767.72 966,-731.22 966,-682 966,-682 966,-682 966,-624 966,-404.42 709.73,-495.38 575,-322 495.97,-220.3 551.06,-147.09 460,-56 444.22,-40.22 422.01,-29.59 402.16,-22.64"/>
<polygon fill="midnightblue" stroke="midnightblue" points="403.23,-19.31 392.64,-19.52 401.05,-25.96 403.23,-19.31"/>
</g>
<!-- Node33&#45;&gt;Node4 -->
<g id="edge53" class="edge">
<title>Node33&#45;&gt;Node4</title>
<path fill="none" stroke="midnightblue" d="M831.52,-783.44C796.28,-774.16 739.9,-759.31 701.24,-749.13"/>
<polygon fill="midnightblue" stroke="midnightblue" points="701.89,-745.68 691.33,-746.52 700.11,-752.45 701.89,-745.68"/>
</g>
<!-- Node33&#45;&gt;Node10 -->
<g id="edge54" class="edge">
<title>Node33&#45;&gt;Node10</title>
<path fill="none" stroke="midnightblue" d="M902.48,-783.45C930.83,-776.19 969.74,-764.19 1001,-747 1040.84,-725.08 1080,-727.47 1080,-682 1080,-682 1080,-682 1080,-132 1080,-67.36 1001.85,-36.11 944.25,-21.85"/>
<polygon fill="midnightblue" stroke="midnightblue" points="945.01,-18.43 934.47,-19.54 943.4,-25.25 945.01,-18.43"/>
</g>
<!-- Node33&#45;&gt;Node18 -->
<g id="edge52" class="edge">
<title>Node33&#45;&gt;Node18</title>
<path fill="none" stroke="midnightblue" d="M910.6,-783.44C934.08,-776.98 961.44,-765.86 980,-747 1001.6,-725.05 1004,-712.8 1004,-682 1004,-682 1004,-682 1004,-372.5 1004,-306.88 923.86,-272.9 868.78,-257.3"/>
<polygon fill="midnightblue" stroke="midnightblue" points="869.39,-253.83 858.82,-254.6 867.55,-260.59 869.39,-253.83"/>
</g>
</g>
</svg>
