<?xml version="1.0" encoding="UTF-8" standalone="no"?>
<!DOCTYPE svg PUBLIC "-//W3C//DTD SVG 1.1//EN"
 "http://www.w3.org/Graphics/SVG/1.1/DTD/svg11.dtd">
<!-- Generated by graphviz version 2.43.0 (0)
 -->
<!-- Title: init.h Pages: 1 -->
<svg width="952pt" height="375pt"
 viewBox="0.00 0.00 951.50 375.00" xmlns="http://www.w3.org/2000/svg" xmlns:xlink="http://www.w3.org/1999/xlink">
<g id="graph0" class="graph" transform="scale(1 1) rotate(0) translate(4 371)">
<title>init.h</title>
<polygon fill="white" stroke="transparent" points="-4,4 -4,-371 947.5,-371 947.5,4 -4,4"/>
<!-- Node1 -->
<g id="node1" class="node">
<title>Node1</title>
<g id="a_node1"><a xlink:title=" ">
<polygon fill="#bfbfbf" stroke="black" points="568.5,-347.5 568.5,-366.5 609.5,-366.5 609.5,-347.5 568.5,-347.5"/>
<text text-anchor="middle" x="589" y="-354.5" font-family="Helvetica,sans-Serif" font-size="10.00">init.h</text>
</a>
</g>
</g>
<!-- Node2 -->
<g id="node2" class="node">
<title>Node2</title>
<g id="a_node2"><a xlink:title=" ">
<polygon fill="white" stroke="#bfbfbf" points="480,-291.5 480,-310.5 578,-310.5 578,-291.5 480,-291.5"/>
<text text-anchor="middle" x="529" y="-298.5" font-family="Helvetica,sans-Serif" font-size="10.00">odp/api/abi/init.h</text>
</a>
</g>
</g>
<!-- Node1&#45;&gt;Node2 -->
<g id="edge1" class="edge">
<title>Node1&#45;&gt;Node2</title>
<path fill="none" stroke="midnightblue" d="M579.36,-347.32C570.49,-339.34 557.13,-327.31 546.39,-317.65"/>
<polygon fill="midnightblue" stroke="midnightblue" points="548.59,-314.92 538.82,-310.83 543.91,-320.13 548.59,-314.92"/>
</g>
<!-- Node3 -->
<g id="node3" class="node">
<title>Node3</title>
<g id="a_node3"><a xlink:href="spec_2init_8h.html" target="_top" xlink:title=" ">
<polygon fill="white" stroke="black" points="596,-291.5 596,-310.5 702,-310.5 702,-291.5 596,-291.5"/>
<text text-anchor="middle" x="649" y="-298.5" font-family="Helvetica,sans-Serif" font-size="10.00">odp/api/spec/init.h</text>
</a>
</g>
</g>
<!-- Node1&#45;&gt;Node3 -->
<g id="edge2" class="edge">
<title>Node1&#45;&gt;Node3</title>
<path fill="none" stroke="midnightblue" d="M598.64,-347.32C607.51,-339.34 620.87,-327.31 631.61,-317.65"/>
<polygon fill="midnightblue" stroke="midnightblue" points="634.09,-320.13 639.18,-310.83 629.41,-314.92 634.09,-320.13"/>
</g>
<!-- Node4 -->
<g id="node4" class="node">
<title>Node4</title>
<g id="a_node4"><a xlink:title=" ">
<polygon fill="white" stroke="#bfbfbf" points="188.5,-0.5 188.5,-19.5 309.5,-19.5 309.5,-0.5 188.5,-0.5"/>
<text text-anchor="middle" x="249" y="-7.5" font-family="Helvetica,sans-Serif" font-size="10.00">odp/visibility_begin.h</text>
</a>
</g>
</g>
<!-- Node3&#45;&gt;Node4 -->
<g id="edge3" class="edge">
<title>Node3&#45;&gt;Node4</title>
<path fill="none" stroke="midnightblue" d="M595.89,-291.5C440.89,-266.51 0,-194.11 0,-179 0,-179 0,-179 0,-121 0,-42.58 104.63,-19.6 178.24,-13.15"/>
<polygon fill="midnightblue" stroke="midnightblue" points="178.71,-16.62 188.41,-12.34 178.16,-9.64 178.71,-16.62"/>
</g>
<!-- Node5 -->
<g id="node5" class="node">
<title>Node5</title>
<g id="a_node5"><a xlink:href="std__types_8h.html" target="_top" xlink:title=" ">
<polygon fill="white" stroke="black" points="397,-230 397,-249 509,-249 509,-230 397,-230"/>
<text text-anchor="middle" x="453" y="-237" font-family="Helvetica,sans-Serif" font-size="10.00">odp/api/std_types.h</text>
</a>
</g>
</g>
<!-- Node3&#45;&gt;Node5 -->
<g id="edge4" class="edge">
<title>Node3&#45;&gt;Node5</title>
<path fill="none" stroke="midnightblue" d="M620.92,-291.48C586.71,-281.09 528.8,-263.51 490.73,-251.95"/>
<polygon fill="midnightblue" stroke="midnightblue" points="491.62,-248.56 481.03,-249.01 489.58,-255.26 491.62,-248.56"/>
</g>
<!-- Node12 -->
<g id="node12" class="node">
<title>Node12</title>
<g id="a_node12"><a xlink:title=" ">
<polygon fill="white" stroke="#bfbfbf" points="623,-0.5 623,-19.5 735,-19.5 735,-0.5 623,-0.5"/>
<text text-anchor="middle" x="679" y="-7.5" font-family="Helvetica,sans-Serif" font-size="10.00">odp/visibility_end.h</text>
</a>
</g>
</g>
<!-- Node3&#45;&gt;Node12 -->
<g id="edge25" class="edge">
<title>Node3&#45;&gt;Node12</title>
<path fill="none" stroke="midnightblue" d="M678.5,-291.46C722.96,-276.56 802,-241.31 802,-179 802,-179 802,-179 802,-121 802,-72.48 748.16,-40.01 711.73,-23.6"/>
<polygon fill="midnightblue" stroke="midnightblue" points="712.99,-20.33 702.42,-19.58 710.22,-26.76 712.99,-20.33"/>
</g>
<!-- Node13 -->
<g id="node13" class="node">
<title>Node13</title>
<g id="a_node13"><a xlink:href="hints_8h.html" target="_top" xlink:title=" ">
<polygon fill="white" stroke="black" points="655.5,-230 655.5,-249 744.5,-249 744.5,-230 655.5,-230"/>
<text text-anchor="middle" x="700" y="-237" font-family="Helvetica,sans-Serif" font-size="10.00">odp/api/hints.h</text>
</a>
</g>
</g>
<!-- Node3&#45;&gt;Node13 -->
<g id="edge15" class="edge">
<title>Node3&#45;&gt;Node13</title>
<path fill="none" stroke="midnightblue" d="M656.31,-291.48C664.03,-282.46 676.41,-268.02 686.02,-256.81"/>
<polygon fill="midnightblue" stroke="midnightblue" points="688.86,-258.88 692.71,-249.01 683.54,-254.32 688.86,-258.88"/>
</g>
<!-- Node15 -->
<g id="node15" class="node">
<title>Node15</title>
<g id="a_node15"><a xlink:href="thread__types_8h.html" target="_top" xlink:title=" ">
<polygon fill="white" stroke="black" points="830.5,-224.5 830.5,-254.5 943.5,-254.5 943.5,-224.5 830.5,-224.5"/>
<text text-anchor="start" x="838.5" y="-242.5" font-family="Helvetica,sans-Serif" font-size="10.00">odp/api/spec/thread</text>
<text text-anchor="middle" x="887" y="-231.5" font-family="Helvetica,sans-Serif" font-size="10.00">_types.h</text>
</a>
</g>
</g>
<!-- Node3&#45;&gt;Node15 -->
<g id="edge19" class="edge">
<title>Node3&#45;&gt;Node15</title>
<path fill="none" stroke="midnightblue" d="M683.1,-291.48C718.95,-282.51 776.25,-268.19 820.99,-257"/>
<polygon fill="midnightblue" stroke="midnightblue" points="822.06,-260.34 830.91,-254.52 820.36,-253.55 822.06,-260.34"/>
</g>
<!-- Node16 -->
<g id="node16" class="node">
<title>Node16</title>
<g id="a_node16"><a xlink:href="cpumask_8h.html" target="_top" xlink:title=" ">
<polygon fill="white" stroke="black" points="485.5,-112.5 485.5,-131.5 594.5,-131.5 594.5,-112.5 485.5,-112.5"/>
<text text-anchor="middle" x="540" y="-119.5" font-family="Helvetica,sans-Serif" font-size="10.00">odp/api/cpumask.h</text>
</a>
</g>
</g>
<!-- Node3&#45;&gt;Node16 -->
<g id="edge20" class="edge">
<title>Node3&#45;&gt;Node16</title>
<path fill="none" stroke="midnightblue" d="M643.74,-291.46C626.88,-264.08 573.9,-178.05 550.87,-140.65"/>
<polygon fill="midnightblue" stroke="midnightblue" points="553.69,-138.55 545.46,-131.87 547.72,-142.22 553.69,-138.55"/>
</g>
<!-- Node6 -->
<g id="node6" class="node">
<title>Node6</title>
<g id="a_node6"><a xlink:title=" ">
<polygon fill="white" stroke="#bfbfbf" points="388,-168.5 388,-187.5 518,-187.5 518,-168.5 388,-168.5"/>
<text text-anchor="middle" x="453" y="-175.5" font-family="Helvetica,sans-Serif" font-size="10.00">odp/api/abi/std_types.h</text>
</a>
</g>
</g>
<!-- Node5&#45;&gt;Node6 -->
<g id="edge5" class="edge">
<title>Node5&#45;&gt;Node6</title>
<path fill="none" stroke="midnightblue" d="M453,-229.98C453,-221.58 453,-208.48 453,-197.66"/>
<polygon fill="midnightblue" stroke="midnightblue" points="456.5,-197.51 453,-187.51 449.5,-197.51 456.5,-197.51"/>
</g>
<!-- Node7 -->
<g id="node7" class="node">
<title>Node7</title>
<g id="a_node7"><a xlink:href="spec_2std__types_8h.html" target="_top" xlink:title=" ">
<polygon fill="white" stroke="black" points="180.5,-168.5 180.5,-187.5 317.5,-187.5 317.5,-168.5 180.5,-168.5"/>
<text text-anchor="middle" x="249" y="-175.5" font-family="Helvetica,sans-Serif" font-size="10.00">odp/api/spec/std_types.h</text>
</a>
</g>
</g>
<!-- Node5&#45;&gt;Node7 -->
<g id="edge6" class="edge">
<title>Node5&#45;&gt;Node7</title>
<path fill="none" stroke="midnightblue" d="M423.77,-229.98C388.1,-219.57 327.64,-201.94 288.02,-190.38"/>
<polygon fill="midnightblue" stroke="midnightblue" points="288.75,-186.95 278.17,-187.51 286.79,-193.67 288.75,-186.95"/>
</g>
<!-- Node7&#45;&gt;Node4 -->
<g id="edge7" class="edge">
<title>Node7&#45;&gt;Node4</title>
<path fill="none" stroke="midnightblue" d="M206.92,-168.47C137.44,-152.5 10.74,-114.36 57,-56 72.14,-36.9 129.83,-25.13 178.05,-18.44"/>
<polygon fill="midnightblue" stroke="midnightblue" points="178.73,-21.88 188.18,-17.09 177.8,-14.94 178.73,-21.88"/>
</g>
<!-- Node8 -->
<g id="node8" class="node">
<title>Node8</title>
<g id="a_node8"><a xlink:title=" ">
<polygon fill="white" stroke="#bfbfbf" points="133.5,-112.5 133.5,-131.5 186.5,-131.5 186.5,-112.5 133.5,-112.5"/>
<text text-anchor="middle" x="160" y="-119.5" font-family="Helvetica,sans-Serif" font-size="10.00">stdint.h</text>
</a>
</g>
</g>
<!-- Node7&#45;&gt;Node8 -->
<g id="edge8" class="edge">
<title>Node7&#45;&gt;Node8</title>
<path fill="none" stroke="midnightblue" d="M234.7,-168.32C220.82,-159.9 199.51,-146.97 183.2,-137.07"/>
<polygon fill="midnightblue" stroke="midnightblue" points="184.63,-133.85 174.26,-131.65 181,-139.83 184.63,-133.85"/>
</g>
<!-- Node9 -->
<g id="node9" class="node">
<title>Node9</title>
<g id="a_node9"><a xlink:href="align_8h.html" target="_top" xlink:title=" ">
<polygon fill="white" stroke="black" points="204.5,-112.5 204.5,-131.5 293.5,-131.5 293.5,-112.5 204.5,-112.5"/>
<text text-anchor="middle" x="249" y="-119.5" font-family="Helvetica,sans-Serif" font-size="10.00">odp/api/align.h</text>
</a>
</g>
</g>
<!-- Node7&#45;&gt;Node9 -->
<g id="edge9" class="edge">
<title>Node7&#45;&gt;Node9</title>
<path fill="none" stroke="midnightblue" d="M249,-168.08C249,-161.01 249,-150.86 249,-141.99"/>
<polygon fill="midnightblue" stroke="midnightblue" points="252.5,-141.75 249,-131.75 245.5,-141.75 252.5,-141.75"/>
</g>
<!-- Node7&#45;&gt;Node12 -->
<g id="edge14" class="edge">
<title>Node7&#45;&gt;Node12</title>
<path fill="none" stroke="midnightblue" d="M317.69,-170.37C405.21,-161.56 551.43,-145.54 604,-132 669.3,-115.18 707.13,-131.79 745,-76 758.87,-55.56 732.34,-36.25 708.89,-24.07"/>
<polygon fill="midnightblue" stroke="midnightblue" points="710.33,-20.88 699.81,-19.61 707.25,-27.16 710.33,-20.88"/>
</g>
<!-- Node10 -->
<g id="node10" class="node">
<title>Node10</title>
<g id="a_node10"><a xlink:title=" ">
<polygon fill="white" stroke="#bfbfbf" points="66.5,-56.5 66.5,-75.5 173.5,-75.5 173.5,-56.5 66.5,-56.5"/>
<text text-anchor="middle" x="120" y="-63.5" font-family="Helvetica,sans-Serif" font-size="10.00">odp/api/abi/align.h</text>
</a>
</g>
</g>
<!-- Node9&#45;&gt;Node10 -->
<g id="edge10" class="edge">
<title>Node9&#45;&gt;Node10</title>
<path fill="none" stroke="midnightblue" d="M228.56,-112.44C207.33,-103.56 173.9,-89.56 149.75,-79.45"/>
<polygon fill="midnightblue" stroke="midnightblue" points="150.92,-76.15 140.34,-75.52 148.22,-82.61 150.92,-76.15"/>
</g>
<!-- Node11 -->
<g id="node11" class="node">
<title>Node11</title>
<g id="a_node11"><a xlink:href="spec_2align_8h.html" target="_top" xlink:title=" ">
<polygon fill="white" stroke="black" points="192,-56.5 192,-75.5 306,-75.5 306,-56.5 192,-56.5"/>
<text text-anchor="middle" x="249" y="-63.5" font-family="Helvetica,sans-Serif" font-size="10.00">odp/api/spec/align.h</text>
</a>
</g>
</g>
<!-- Node9&#45;&gt;Node11 -->
<g id="edge11" class="edge">
<title>Node9&#45;&gt;Node11</title>
<path fill="none" stroke="midnightblue" d="M249,-112.08C249,-105.01 249,-94.86 249,-85.99"/>
<polygon fill="midnightblue" stroke="midnightblue" points="252.5,-85.75 249,-75.75 245.5,-85.75 252.5,-85.75"/>
</g>
<!-- Node11&#45;&gt;Node4 -->
<g id="edge12" class="edge">
<title>Node11&#45;&gt;Node4</title>
<path fill="none" stroke="midnightblue" d="M249,-56.08C249,-49.01 249,-38.86 249,-29.99"/>
<polygon fill="midnightblue" stroke="midnightblue" points="252.5,-29.75 249,-19.75 245.5,-29.75 252.5,-29.75"/>
</g>
<!-- Node11&#45;&gt;Node12 -->
<g id="edge13" class="edge">
<title>Node11&#45;&gt;Node12</title>
<path fill="none" stroke="midnightblue" d="M306.23,-57.15C309.2,-56.76 312.13,-56.37 315,-56 419.03,-42.48 539.92,-27.72 612.88,-18.92"/>
<polygon fill="midnightblue" stroke="midnightblue" points="613.34,-22.39 622.85,-17.72 612.5,-15.44 613.34,-22.39"/>
</g>
<!-- Node14 -->
<g id="node14" class="node">
<title>Node14</title>
<g id="a_node14"><a xlink:href="spec_2hints_8h.html" target="_top" xlink:title=" ">
<polygon fill="white" stroke="black" points="622,-56.5 622,-75.5 736,-75.5 736,-56.5 622,-56.5"/>
<text text-anchor="middle" x="679" y="-63.5" font-family="Helvetica,sans-Serif" font-size="10.00">odp/api/spec/hints.h</text>
</a>
</g>
</g>
<!-- Node13&#45;&gt;Node14 -->
<g id="edge16" class="edge">
<title>Node13&#45;&gt;Node14</title>
<path fill="none" stroke="midnightblue" d="M698.93,-229.76C695.67,-203.15 685.82,-122.71 681.31,-85.84"/>
<polygon fill="midnightblue" stroke="midnightblue" points="684.73,-85.02 680.04,-75.52 677.78,-85.87 684.73,-85.02"/>
</g>
<!-- Node14&#45;&gt;Node4 -->
<g id="edge17" class="edge">
<title>Node14&#45;&gt;Node4</title>
<path fill="none" stroke="midnightblue" d="M621.77,-57.15C618.8,-56.76 615.87,-56.37 613,-56 511.08,-42.75 392.98,-28.32 319.62,-19.46"/>
<polygon fill="midnightblue" stroke="midnightblue" points="319.92,-15.98 309.57,-18.25 319.08,-22.93 319.92,-15.98"/>
</g>
<!-- Node14&#45;&gt;Node12 -->
<g id="edge18" class="edge">
<title>Node14&#45;&gt;Node12</title>
<path fill="none" stroke="midnightblue" d="M679,-56.08C679,-49.01 679,-38.86 679,-29.99"/>
<polygon fill="midnightblue" stroke="midnightblue" points="682.5,-29.75 679,-19.75 675.5,-29.75 682.5,-29.75"/>
</g>
<!-- Node17 -->
<g id="node17" class="node">
<title>Node17</title>
<g id="a_node17"><a xlink:title=" ">
<polygon fill="white" stroke="#bfbfbf" points="476.5,-56.5 476.5,-75.5 603.5,-75.5 603.5,-56.5 476.5,-56.5"/>
<text text-anchor="middle" x="540" y="-63.5" font-family="Helvetica,sans-Serif" font-size="10.00">odp/api/abi/cpumask.h</text>
</a>
</g>
</g>
<!-- Node16&#45;&gt;Node17 -->
<g id="edge21" class="edge">
<title>Node16&#45;&gt;Node17</title>
<path fill="none" stroke="midnightblue" d="M540,-112.08C540,-105.01 540,-94.86 540,-85.99"/>
<polygon fill="midnightblue" stroke="midnightblue" points="543.5,-85.75 540,-75.75 536.5,-85.75 543.5,-85.75"/>
</g>
<!-- Node18 -->
<g id="node18" class="node">
<title>Node18</title>
<g id="a_node18"><a xlink:href="spec_2cpumask_8h.html" target="_top" xlink:title=" ">
<polygon fill="white" stroke="black" points="324,-56.5 324,-75.5 458,-75.5 458,-56.5 324,-56.5"/>
<text text-anchor="middle" x="391" y="-63.5" font-family="Helvetica,sans-Serif" font-size="10.00">odp/api/spec/cpumask.h</text>
</a>
</g>
</g>
<!-- Node16&#45;&gt;Node18 -->
<g id="edge22" class="edge">
<title>Node16&#45;&gt;Node18</title>
<path fill="none" stroke="midnightblue" d="M516.39,-112.44C491.54,-103.44 452.23,-89.19 424.25,-79.05"/>
<polygon fill="midnightblue" stroke="midnightblue" points="425.09,-75.63 414.5,-75.52 422.71,-82.21 425.09,-75.63"/>
</g>
<!-- Node18&#45;&gt;Node4 -->
<g id="edge23" class="edge">
<title>Node18&#45;&gt;Node4</title>
<path fill="none" stroke="midnightblue" d="M368.5,-56.44C344.92,-47.48 307.68,-33.31 281.04,-23.18"/>
<polygon fill="midnightblue" stroke="midnightblue" points="281.99,-19.8 271.4,-19.52 279.5,-26.34 281.99,-19.8"/>
</g>
<!-- Node18&#45;&gt;Node12 -->
<g id="edge24" class="edge">
<title>Node18&#45;&gt;Node12</title>
<path fill="none" stroke="midnightblue" d="M436.63,-56.44C487.3,-46.94 569.07,-31.61 623.43,-21.42"/>
<polygon fill="midnightblue" stroke="midnightblue" points="624.4,-24.8 633.58,-19.52 623.11,-17.92 624.4,-24.8"/>
</g>
</g>
</svg>
