<?xml version="1.0" encoding="UTF-8" standalone="no"?>
<!DOCTYPE svg PUBLIC "-//W3C//DTD SVG 1.1//EN"
 "http://www.w3.org/Graphics/SVG/1.1/DTD/svg11.dtd">
<!-- Generated by graphviz version 2.43.0 (0)
 -->
<!-- Title: packet_types.h Pages: 1 -->
<svg width="811pt" height="632pt"
 viewBox="0.00 0.00 811.00 632.00" xmlns="http://www.w3.org/2000/svg" xmlns:xlink="http://www.w3.org/1999/xlink">
<g id="graph0" class="graph" transform="scale(1 1) rotate(0) translate(4 628)">
<title>packet_types.h</title>
<polygon fill="white" stroke="transparent" points="-4,4 -4,-628 807,-628 807,4 -4,4"/>
<!-- Node1 -->
<g id="node1" class="node">
<title>Node1</title>
<g id="a_node1"><a xlink:title=" ">
<polygon fill="#bfbfbf" stroke="black" points="132,-604.5 132,-623.5 222,-623.5 222,-604.5 132,-604.5"/>
<text text-anchor="middle" x="177" y="-611.5" font-family="Helvetica,sans-Serif" font-size="10.00">packet_types.h</text>
</a>
</g>
</g>
<!-- Node2 -->
<g id="node2" class="node">
<title>Node2</title>
<g id="a_node2"><a xlink:title=" ">
<polygon fill="white" stroke="#bfbfbf" points="0,-537.5 0,-567.5 106,-567.5 106,-537.5 0,-537.5"/>
<text text-anchor="start" x="8" y="-555.5" font-family="Helvetica,sans-Serif" font-size="10.00">odp/api/abi/packet</text>
<text text-anchor="middle" x="53" y="-544.5" font-family="Helvetica,sans-Serif" font-size="10.00">_io_types.h</text>
</a>
</g>
</g>
<!-- Node1&#45;&gt;Node2 -->
<g id="edge1" class="edge">
<title>Node1&#45;&gt;Node2</title>
<path fill="none" stroke="midnightblue" d="M159.23,-604.48C141.58,-596 113.93,-582.74 91.27,-571.86"/>
<polygon fill="midnightblue" stroke="midnightblue" points="92.75,-568.69 82.22,-567.52 89.73,-575 92.75,-568.69"/>
</g>
<!-- Node3 -->
<g id="node3" class="node">
<title>Node3</title>
<g id="a_node3"><a xlink:title=" ">
<polygon fill="white" stroke="#bfbfbf" points="124,-537.5 124,-567.5 230,-567.5 230,-537.5 124,-537.5"/>
<text text-anchor="start" x="132" y="-555.5" font-family="Helvetica,sans-Serif" font-size="10.00">odp/api/abi/packet</text>
<text text-anchor="middle" x="177" y="-544.5" font-family="Helvetica,sans-Serif" font-size="10.00">_types.h</text>
</a>
</g>
</g>
<!-- Node1&#45;&gt;Node3 -->
<g id="edge2" class="edge">
<title>Node1&#45;&gt;Node3</title>
<path fill="none" stroke="midnightblue" d="M177,-604.48C177,-597.47 177,-587.19 177,-577.7"/>
<polygon fill="midnightblue" stroke="midnightblue" points="180.5,-577.52 177,-567.52 173.5,-577.52 180.5,-577.52"/>
</g>
<!-- Node4 -->
<g id="node4" class="node">
<title>Node4</title>
<g id="a_node4"><a xlink:href="spec_2packet__types_8h.html" target="_top" xlink:title=" ">
<polygon fill="white" stroke="black" points="248.5,-537.5 248.5,-567.5 361.5,-567.5 361.5,-537.5 248.5,-537.5"/>
<text text-anchor="start" x="256.5" y="-555.5" font-family="Helvetica,sans-Serif" font-size="10.00">odp/api/spec/packet</text>
<text text-anchor="middle" x="305" y="-544.5" font-family="Helvetica,sans-Serif" font-size="10.00">_types.h</text>
</a>
</g>
</g>
<!-- Node1&#45;&gt;Node4 -->
<g id="edge3" class="edge">
<title>Node1&#45;&gt;Node4</title>
<path fill="none" stroke="midnightblue" d="M195.34,-604.48C213.57,-596 242.1,-582.74 265.5,-571.86"/>
<polygon fill="midnightblue" stroke="midnightblue" points="267.24,-574.91 274.83,-567.52 264.29,-568.56 267.24,-574.91"/>
</g>
<!-- Node5 -->
<g id="node5" class="node">
<title>Node5</title>
<g id="a_node5"><a xlink:title=" ">
<polygon fill="white" stroke="#bfbfbf" points="237.5,-0.5 237.5,-19.5 358.5,-19.5 358.5,-0.5 237.5,-0.5"/>
<text text-anchor="middle" x="298" y="-7.5" font-family="Helvetica,sans-Serif" font-size="10.00">odp/visibility_begin.h</text>
</a>
</g>
</g>
<!-- Node4&#45;&gt;Node5 -->
<g id="edge4" class="edge">
<title>Node4&#45;&gt;Node5</title>
<path fill="none" stroke="midnightblue" d="M253.01,-537.42C180.29,-516.16 57,-473.74 57,-430.5 57,-430.5 57,-430.5 57,-121 57,-45.49 156.12,-21.59 227.22,-14.16"/>
<polygon fill="midnightblue" stroke="midnightblue" points="227.87,-17.61 237.5,-13.18 227.21,-10.65 227.87,-17.61"/>
</g>
<!-- Node6 -->
<g id="node6" class="node">
<title>Node6</title>
<g id="a_node6"><a xlink:href="proto__stats__types_8h.html" target="_top" xlink:title=" ">
<polygon fill="white" stroke="black" points="103,-347.5 103,-377.5 213,-377.5 213,-347.5 103,-347.5"/>
<text text-anchor="start" x="111" y="-365.5" font-family="Helvetica,sans-Serif" font-size="10.00">odp/api/proto_stats</text>
<text text-anchor="middle" x="158" y="-354.5" font-family="Helvetica,sans-Serif" font-size="10.00">_types.h</text>
</a>
</g>
</g>
<!-- Node4&#45;&gt;Node6 -->
<g id="edge5" class="edge">
<title>Node4&#45;&gt;Node6</title>
<path fill="none" stroke="midnightblue" d="M293.95,-537.37C268.56,-504.9 205.9,-424.76 175.33,-385.67"/>
<polygon fill="midnightblue" stroke="midnightblue" points="177.89,-383.26 168.98,-377.54 172.38,-387.57 177.89,-383.26"/>
</g>
<!-- Node16 -->
<g id="node16" class="node">
<title>Node16</title>
<g id="a_node16"><a xlink:title=" ">
<polygon fill="white" stroke="#bfbfbf" points="652,-0.5 652,-19.5 764,-19.5 764,-0.5 652,-0.5"/>
<text text-anchor="middle" x="708" y="-7.5" font-family="Helvetica,sans-Serif" font-size="10.00">odp/visibility_end.h</text>
</a>
</g>
</g>
<!-- Node4&#45;&gt;Node16 -->
<g id="edge32" class="edge">
<title>Node4&#45;&gt;Node16</title>
<path fill="none" stroke="midnightblue" d="M361.64,-549.64C492.17,-543.81 803,-520.47 803,-430.5 803,-430.5 803,-430.5 803,-121 803,-77.74 760.39,-43.09 732.25,-24.91"/>
<polygon fill="midnightblue" stroke="midnightblue" points="734.03,-21.9 723.69,-19.6 730.34,-27.85 734.03,-21.9"/>
</g>
<!-- Node17 -->
<g id="node17" class="node">
<title>Node17</title>
<g id="a_node17"><a xlink:href="queue__types_8h.html" target="_top" xlink:title=" ">
<polygon fill="white" stroke="black" points="338.5,-481.5 338.5,-500.5 465.5,-500.5 465.5,-481.5 338.5,-481.5"/>
<text text-anchor="middle" x="402" y="-488.5" font-family="Helvetica,sans-Serif" font-size="10.00">odp/api/queue_types.h</text>
</a>
</g>
</g>
<!-- Node4&#45;&gt;Node17 -->
<g id="edge21" class="edge">
<title>Node4&#45;&gt;Node17</title>
<path fill="none" stroke="midnightblue" d="M327.99,-537.4C343.39,-527.95 363.59,-515.56 379,-506.11"/>
<polygon fill="midnightblue" stroke="midnightblue" points="381.19,-508.87 387.89,-500.66 377.53,-502.9 381.19,-508.87"/>
</g>
<!-- Node7 -->
<g id="node7" class="node">
<title>Node7</title>
<g id="a_node7"><a xlink:title=" ">
<polygon fill="white" stroke="#bfbfbf" points="85,-280.5 85,-310.5 213,-310.5 213,-280.5 85,-280.5"/>
<text text-anchor="start" x="93" y="-298.5" font-family="Helvetica,sans-Serif" font-size="10.00">odp/api/abi/proto_stats</text>
<text text-anchor="middle" x="149" y="-287.5" font-family="Helvetica,sans-Serif" font-size="10.00">_types.h</text>
</a>
</g>
</g>
<!-- Node6&#45;&gt;Node7 -->
<g id="edge6" class="edge">
<title>Node6&#45;&gt;Node7</title>
<path fill="none" stroke="midnightblue" d="M156.05,-347.4C154.96,-339.56 153.58,-329.6 152.33,-320.57"/>
<polygon fill="midnightblue" stroke="midnightblue" points="155.79,-320 150.95,-310.58 148.85,-320.96 155.79,-320"/>
</g>
<!-- Node8 -->
<g id="node8" class="node">
<title>Node8</title>
<g id="a_node8"><a xlink:href="spec_2proto__stats__types_8h.html" target="_top" xlink:title=" ">
<polygon fill="white" stroke="black" points="269.5,-280.5 269.5,-310.5 376.5,-310.5 376.5,-280.5 269.5,-280.5"/>
<text text-anchor="start" x="277.5" y="-298.5" font-family="Helvetica,sans-Serif" font-size="10.00">odp/api/spec/proto</text>
<text text-anchor="middle" x="323" y="-287.5" font-family="Helvetica,sans-Serif" font-size="10.00">_stats_types.h</text>
</a>
</g>
</g>
<!-- Node6&#45;&gt;Node8 -->
<g id="edge7" class="edge">
<title>Node6&#45;&gt;Node8</title>
<path fill="none" stroke="midnightblue" d="M193.8,-347.4C218.45,-337.69 251.39,-324.71 277.84,-314.29"/>
<polygon fill="midnightblue" stroke="midnightblue" points="279.25,-317.5 287.27,-310.58 276.68,-310.99 279.25,-317.5"/>
</g>
<!-- Node8&#45;&gt;Node5 -->
<g id="edge8" class="edge">
<title>Node8&#45;&gt;Node5</title>
<path fill="none" stroke="midnightblue" d="M313.67,-280.22C300.75,-259.03 279,-217.62 279,-179 279,-179 279,-179 279,-121 279,-88.49 287.16,-51.35 292.78,-29.61"/>
<polygon fill="midnightblue" stroke="midnightblue" points="296.22,-30.32 295.44,-19.75 289.46,-28.5 296.22,-30.32"/>
</g>
<!-- Node9 -->
<g id="node9" class="node">
<title>Node9</title>
<g id="a_node9"><a xlink:href="std__types_8h.html" target="_top" xlink:title=" ">
<polygon fill="white" stroke="black" points="445,-224.5 445,-243.5 557,-243.5 557,-224.5 445,-224.5"/>
<text text-anchor="middle" x="501" y="-231.5" font-family="Helvetica,sans-Serif" font-size="10.00">odp/api/std_types.h</text>
</a>
</g>
</g>
<!-- Node8&#45;&gt;Node9 -->
<g id="edge9" class="edge">
<title>Node8&#45;&gt;Node9</title>
<path fill="none" stroke="midnightblue" d="M365.18,-280.4C395.81,-270.16 436.77,-256.47 465.67,-246.81"/>
<polygon fill="midnightblue" stroke="midnightblue" points="466.98,-250.06 475.36,-243.57 464.77,-243.42 466.98,-250.06"/>
</g>
<!-- Node8&#45;&gt;Node16 -->
<g id="edge20" class="edge">
<title>Node8&#45;&gt;Node16</title>
<path fill="none" stroke="midnightblue" d="M376.59,-282.05C379.77,-281.35 382.93,-280.66 386,-280 524.78,-250.16 689,-320.95 689,-179 689,-179 689,-179 689,-121 689,-88.49 697.16,-51.35 702.78,-29.61"/>
<polygon fill="midnightblue" stroke="midnightblue" points="706.22,-30.32 705.44,-19.75 699.46,-28.5 706.22,-30.32"/>
</g>
<!-- Node10 -->
<g id="node10" class="node">
<title>Node10</title>
<g id="a_node10"><a xlink:title=" ">
<polygon fill="white" stroke="#bfbfbf" points="360,-168.5 360,-187.5 490,-187.5 490,-168.5 360,-168.5"/>
<text text-anchor="middle" x="425" y="-175.5" font-family="Helvetica,sans-Serif" font-size="10.00">odp/api/abi/std_types.h</text>
</a>
</g>
</g>
<!-- Node9&#45;&gt;Node10 -->
<g id="edge10" class="edge">
<title>Node9&#45;&gt;Node10</title>
<path fill="none" stroke="midnightblue" d="M488.79,-224.32C477.22,-216.11 459.62,-203.6 445.84,-193.81"/>
<polygon fill="midnightblue" stroke="midnightblue" points="447.61,-190.77 437.43,-187.83 443.56,-196.48 447.61,-190.77"/>
</g>
<!-- Node11 -->
<g id="node11" class="node">
<title>Node11</title>
<g id="a_node11"><a xlink:href="spec_2std__types_8h.html" target="_top" xlink:title=" ">
<polygon fill="white" stroke="black" points="508.5,-168.5 508.5,-187.5 645.5,-187.5 645.5,-168.5 508.5,-168.5"/>
<text text-anchor="middle" x="577" y="-175.5" font-family="Helvetica,sans-Serif" font-size="10.00">odp/api/spec/std_types.h</text>
</a>
</g>
</g>
<!-- Node9&#45;&gt;Node11 -->
<g id="edge11" class="edge">
<title>Node9&#45;&gt;Node11</title>
<path fill="none" stroke="midnightblue" d="M513.21,-224.32C524.78,-216.11 542.38,-203.6 556.16,-193.81"/>
<polygon fill="midnightblue" stroke="midnightblue" points="558.44,-196.48 564.57,-187.83 554.39,-190.77 558.44,-196.48"/>
</g>
<!-- Node11&#45;&gt;Node5 -->
<g id="edge12" class="edge">
<title>Node11&#45;&gt;Node5</title>
<path fill="none" stroke="midnightblue" d="M540.87,-168.45C513.29,-161.06 474.9,-148.9 444,-132 409.05,-112.88 404.7,-101.4 374,-76 353.68,-59.19 330.72,-39.45 315.41,-26.17"/>
<polygon fill="midnightblue" stroke="midnightblue" points="317.6,-23.43 307.75,-19.52 313,-28.72 317.6,-23.43"/>
</g>
<!-- Node12 -->
<g id="node12" class="node">
<title>Node12</title>
<g id="a_node12"><a xlink:title=" ">
<polygon fill="white" stroke="#bfbfbf" points="559.5,-112.5 559.5,-131.5 612.5,-131.5 612.5,-112.5 559.5,-112.5"/>
<text text-anchor="middle" x="586" y="-119.5" font-family="Helvetica,sans-Serif" font-size="10.00">stdint.h</text>
</a>
</g>
</g>
<!-- Node11&#45;&gt;Node12 -->
<g id="edge13" class="edge">
<title>Node11&#45;&gt;Node12</title>
<path fill="none" stroke="midnightblue" d="M578.49,-168.08C579.68,-160.93 581.39,-150.64 582.88,-141.69"/>
<polygon fill="midnightblue" stroke="midnightblue" points="586.35,-142.19 584.54,-131.75 579.45,-141.04 586.35,-142.19"/>
</g>
<!-- Node13 -->
<g id="node13" class="node">
<title>Node13</title>
<g id="a_node13"><a xlink:href="align_8h.html" target="_top" xlink:title=" ">
<polygon fill="white" stroke="black" points="452.5,-112.5 452.5,-131.5 541.5,-131.5 541.5,-112.5 452.5,-112.5"/>
<text text-anchor="middle" x="497" y="-119.5" font-family="Helvetica,sans-Serif" font-size="10.00">odp/api/align.h</text>
</a>
</g>
</g>
<!-- Node11&#45;&gt;Node13 -->
<g id="edge14" class="edge">
<title>Node11&#45;&gt;Node13</title>
<path fill="none" stroke="midnightblue" d="M564.15,-168.32C551.78,-159.98 532.87,-147.21 518.26,-137.35"/>
<polygon fill="midnightblue" stroke="midnightblue" points="520.07,-134.35 509.82,-131.65 516.15,-140.15 520.07,-134.35"/>
</g>
<!-- Node11&#45;&gt;Node16 -->
<g id="edge19" class="edge">
<title>Node11&#45;&gt;Node16</title>
<path fill="none" stroke="midnightblue" d="M586.45,-168.48C595.91,-159.74 610.65,-145.55 622,-132 648.44,-100.43 651.04,-89.5 675,-56 681.7,-46.63 689.3,-36.25 695.52,-27.82"/>
<polygon fill="midnightblue" stroke="midnightblue" points="698.48,-29.7 701.61,-19.58 692.85,-25.54 698.48,-29.7"/>
</g>
<!-- Node14 -->
<g id="node14" class="node">
<title>Node14</title>
<g id="a_node14"><a xlink:title=" ">
<polygon fill="white" stroke="#bfbfbf" points="515.5,-56.5 515.5,-75.5 622.5,-75.5 622.5,-56.5 515.5,-56.5"/>
<text text-anchor="middle" x="569" y="-63.5" font-family="Helvetica,sans-Serif" font-size="10.00">odp/api/abi/align.h</text>
</a>
</g>
</g>
<!-- Node13&#45;&gt;Node14 -->
<g id="edge15" class="edge">
<title>Node13&#45;&gt;Node14</title>
<path fill="none" stroke="midnightblue" d="M508.57,-112.32C519.42,-104.18 535.88,-91.84 548.88,-82.09"/>
<polygon fill="midnightblue" stroke="midnightblue" points="551.32,-84.63 557.22,-75.83 547.12,-79.03 551.32,-84.63"/>
</g>
<!-- Node15 -->
<g id="node15" class="node">
<title>Node15</title>
<g id="a_node15"><a xlink:href="spec_2align_8h.html" target="_top" xlink:title=" ">
<polygon fill="white" stroke="black" points="383,-56.5 383,-75.5 497,-75.5 497,-56.5 383,-56.5"/>
<text text-anchor="middle" x="440" y="-63.5" font-family="Helvetica,sans-Serif" font-size="10.00">odp/api/spec/align.h</text>
</a>
</g>
</g>
<!-- Node13&#45;&gt;Node15 -->
<g id="edge16" class="edge">
<title>Node13&#45;&gt;Node15</title>
<path fill="none" stroke="midnightblue" d="M487.84,-112.32C479.5,-104.42 466.97,-92.55 456.82,-82.94"/>
<polygon fill="midnightblue" stroke="midnightblue" points="458.99,-80.17 449.32,-75.83 454.18,-85.25 458.99,-80.17"/>
</g>
<!-- Node15&#45;&gt;Node5 -->
<g id="edge17" class="edge">
<title>Node15&#45;&gt;Node5</title>
<path fill="none" stroke="midnightblue" d="M417.5,-56.44C393.92,-47.48 356.68,-33.31 330.04,-23.18"/>
<polygon fill="midnightblue" stroke="midnightblue" points="330.99,-19.8 320.4,-19.52 328.5,-26.34 330.99,-19.8"/>
</g>
<!-- Node15&#45;&gt;Node16 -->
<g id="edge18" class="edge">
<title>Node15&#45;&gt;Node16</title>
<path fill="none" stroke="midnightblue" d="M482.47,-56.44C529.41,-46.98 605.08,-31.74 655.65,-21.55"/>
<polygon fill="midnightblue" stroke="midnightblue" points="656.62,-24.92 665.73,-19.52 655.24,-18.06 656.62,-24.92"/>
</g>
<!-- Node18 -->
<g id="node18" class="node">
<title>Node18</title>
<g id="a_node18"><a xlink:title=" ">
<polygon fill="white" stroke="#bfbfbf" points="475.5,-420 475.5,-439 620.5,-439 620.5,-420 475.5,-420"/>
<text text-anchor="middle" x="548" y="-427" font-family="Helvetica,sans-Serif" font-size="10.00">odp/api/abi/queue_types.h</text>
</a>
</g>
</g>
<!-- Node17&#45;&gt;Node18 -->
<g id="edge22" class="edge">
<title>Node17&#45;&gt;Node18</title>
<path fill="none" stroke="midnightblue" d="M422.92,-481.48C447.75,-471.36 489.34,-454.4 517.69,-442.85"/>
<polygon fill="midnightblue" stroke="midnightblue" points="519.18,-446.02 527.12,-439.01 516.54,-439.54 519.18,-446.02"/>
</g>
<!-- Node19 -->
<g id="node19" class="node">
<title>Node19</title>
<g id="a_node19"><a xlink:href="spec_2queue__types_8h.html" target="_top" xlink:title=" ">
<polygon fill="white" stroke="black" points="346.5,-414.5 346.5,-444.5 457.5,-444.5 457.5,-414.5 346.5,-414.5"/>
<text text-anchor="start" x="354.5" y="-432.5" font-family="Helvetica,sans-Serif" font-size="10.00">odp/api/spec/queue</text>
<text text-anchor="middle" x="402" y="-421.5" font-family="Helvetica,sans-Serif" font-size="10.00">_types.h</text>
</a>
</g>
</g>
<!-- Node17&#45;&gt;Node19 -->
<g id="edge23" class="edge">
<title>Node17&#45;&gt;Node19</title>
<path fill="none" stroke="midnightblue" d="M402,-481.48C402,-474.47 402,-464.19 402,-454.7"/>
<polygon fill="midnightblue" stroke="midnightblue" points="405.5,-454.52 402,-444.52 398.5,-454.52 405.5,-454.52"/>
</g>
<!-- Node19&#45;&gt;Node5 -->
<g id="edge24" class="edge">
<title>Node19&#45;&gt;Node5</title>
<path fill="none" stroke="midnightblue" d="M359.28,-414.46C311.58,-395.77 241,-357.77 241,-296.5 241,-296.5 241,-296.5 241,-121 241,-84.3 266.32,-47.66 283.21,-27.3"/>
<polygon fill="midnightblue" stroke="midnightblue" points="285.95,-29.48 289.83,-19.62 280.65,-24.9 285.95,-29.48"/>
</g>
<!-- Node19&#45;&gt;Node16 -->
<g id="edge31" class="edge">
<title>Node19&#45;&gt;Node16</title>
<path fill="none" stroke="midnightblue" d="M456.74,-414.43C558.15,-387.6 765,-328.9 765,-296.5 765,-296.5 765,-296.5 765,-121 765,-84.3 739.68,-47.66 722.79,-27.3"/>
<polygon fill="midnightblue" stroke="midnightblue" points="725.35,-24.9 716.17,-19.62 720.05,-29.48 725.35,-24.9"/>
</g>
<!-- Node20 -->
<g id="node20" class="node">
<title>Node20</title>
<g id="a_node20"><a xlink:href="schedule__types_8h.html" target="_top" xlink:title=" ">
<polygon fill="white" stroke="black" points="383,-353 383,-372 523,-372 523,-353 383,-353"/>
<text text-anchor="middle" x="453" y="-360" font-family="Helvetica,sans-Serif" font-size="10.00">odp/api/schedule_types.h</text>
</a>
</g>
</g>
<!-- Node19&#45;&gt;Node20 -->
<g id="edge25" class="edge">
<title>Node19&#45;&gt;Node20</title>
<path fill="none" stroke="midnightblue" d="M413.07,-414.4C420.94,-404.36 431.55,-390.84 439.85,-380.25"/>
<polygon fill="midnightblue" stroke="midnightblue" points="442.76,-382.22 446.18,-372.19 437.25,-377.9 442.76,-382.22"/>
</g>
<!-- Node21 -->
<g id="node21" class="node">
<title>Node21</title>
<g id="a_node21"><a xlink:title=" ">
<polygon fill="white" stroke="#bfbfbf" points="394.5,-280.5 394.5,-310.5 511.5,-310.5 511.5,-280.5 394.5,-280.5"/>
<text text-anchor="start" x="402.5" y="-298.5" font-family="Helvetica,sans-Serif" font-size="10.00">odp/api/abi/schedule</text>
<text text-anchor="middle" x="453" y="-287.5" font-family="Helvetica,sans-Serif" font-size="10.00">_types.h</text>
</a>
</g>
</g>
<!-- Node20&#45;&gt;Node21 -->
<g id="edge26" class="edge">
<title>Node20&#45;&gt;Node21</title>
<path fill="none" stroke="midnightblue" d="M453,-352.73C453,-344.54 453,-331.92 453,-320.71"/>
<polygon fill="midnightblue" stroke="midnightblue" points="456.5,-320.59 453,-310.59 449.5,-320.59 456.5,-320.59"/>
</g>
<!-- Node22 -->
<g id="node22" class="node">
<title>Node22</title>
<g id="a_node22"><a xlink:href="spec_2schedule__types_8h.html" target="_top" xlink:title=" ">
<polygon fill="white" stroke="black" points="529.5,-280.5 529.5,-310.5 654.5,-310.5 654.5,-280.5 529.5,-280.5"/>
<text text-anchor="start" x="537.5" y="-298.5" font-family="Helvetica,sans-Serif" font-size="10.00">odp/api/spec/schedule</text>
<text text-anchor="middle" x="592" y="-287.5" font-family="Helvetica,sans-Serif" font-size="10.00">_types.h</text>
</a>
</g>
</g>
<!-- Node20&#45;&gt;Node22 -->
<g id="edge27" class="edge">
<title>Node20&#45;&gt;Node22</title>
<path fill="none" stroke="midnightblue" d="M471.46,-352.87C492.13,-343.2 526.25,-327.25 552.91,-314.78"/>
<polygon fill="midnightblue" stroke="midnightblue" points="554.43,-317.93 562,-310.53 551.46,-311.59 554.43,-317.93"/>
</g>
<!-- Node22&#45;&gt;Node5 -->
<g id="edge28" class="edge">
<title>Node22&#45;&gt;Node5</title>
<path fill="none" stroke="midnightblue" d="M529.25,-281.3C448.09,-262.39 317,-224.76 317,-179 317,-179 317,-179 317,-121 317,-88.49 308.84,-51.35 303.22,-29.61"/>
<polygon fill="midnightblue" stroke="midnightblue" points="306.54,-28.5 300.56,-19.75 299.78,-30.32 306.54,-28.5"/>
</g>
<!-- Node22&#45;&gt;Node9 -->
<g id="edge29" class="edge">
<title>Node22&#45;&gt;Node9</title>
<path fill="none" stroke="midnightblue" d="M570.43,-280.4C556.12,-271.04 537.39,-258.79 522.99,-249.38"/>
<polygon fill="midnightblue" stroke="midnightblue" points="524.53,-246.2 514.24,-243.66 520.7,-252.06 524.53,-246.2"/>
</g>
<!-- Node22&#45;&gt;Node16 -->
<g id="edge30" class="edge">
<title>Node22&#45;&gt;Node16</title>
<path fill="none" stroke="midnightblue" d="M643.94,-280.5C664.63,-272.68 687.22,-260.98 703,-244 723.96,-221.44 727,-209.8 727,-179 727,-179 727,-179 727,-121 727,-88.49 718.84,-51.35 713.22,-29.61"/>
<polygon fill="midnightblue" stroke="midnightblue" points="716.54,-28.5 710.56,-19.75 709.78,-30.32 716.54,-28.5"/>
</g>
</g>
</svg>
