<?xml version="1.0" encoding="UTF-8" standalone="no"?>
<!DOCTYPE svg PUBLIC "-//W3C//DTD SVG 1.1//EN"
 "http://www.w3.org/Graphics/SVG/1.1/DTD/svg11.dtd">
<!-- Generated by graphviz version 2.43.0 (0)
 -->
<!-- Title: packet_inlines.h Pages: 1 -->
<svg width="2104pt" height="1068pt"
 viewBox="0.00 0.00 2104.00 1068.00" xmlns="http://www.w3.org/2000/svg" xmlns:xlink="http://www.w3.org/1999/xlink">
<g id="graph0" class="graph" transform="scale(1 1) rotate(0) translate(4 1064)">
<title>packet_inlines.h</title>
<polygon fill="white" stroke="transparent" points="-4,4 -4,-1064 2100,-1064 2100,4 -4,4"/>
<!-- Node1 -->
<g id="node1" class="node">
<title>Node1</title>
<g id="a_node1"><a xlink:title=" ">
<polygon fill="#bfbfbf" stroke="black" points="1416,-1040.5 1416,-1059.5 1511,-1059.5 1511,-1040.5 1416,-1040.5"/>
<text text-anchor="middle" x="1463.5" y="-1047.5" font-family="Helvetica,sans-Serif" font-size="10.00">packet_inlines.h</text>
</a>
</g>
</g>
<!-- Node2 -->
<g id="node2" class="node">
<title>Node2</title>
<g id="a_node2"><a xlink:href="hints_8h.html" target="_top" xlink:title=" ">
<polygon fill="white" stroke="black" points="0,-738.5 0,-757.5 89,-757.5 89,-738.5 0,-738.5"/>
<text text-anchor="middle" x="44.5" y="-745.5" font-family="Helvetica,sans-Serif" font-size="10.00">odp/api/hints.h</text>
</a>
</g>
</g>
<!-- Node1&#45;&gt;Node2 -->
<g id="edge1" class="edge">
<title>Node1&#45;&gt;Node2</title>
<path fill="none" stroke="midnightblue" d="M1415.68,-1048.5C1185.38,-1045.93 199.39,-1033.28 141.5,-1004 103.1,-984.58 81.5,-971.04 81.5,-928 81.5,-928 81.5,-928 81.5,-864.5 81.5,-828.51 65,-789.09 54.04,-766.86"/>
<polygon fill="midnightblue" stroke="midnightblue" points="57.01,-764.98 49.34,-757.68 50.78,-768.18 57.01,-764.98"/>
</g>
<!-- Node6 -->
<g id="node6" class="node">
<title>Node6</title>
<g id="a_node6"><a xlink:href="packet__types_8h.html" target="_top" xlink:title=" ">
<polygon fill="white" stroke="black" points="595,-621 595,-640 724,-640 724,-621 595,-621"/>
<text text-anchor="middle" x="659.5" y="-628" font-family="Helvetica,sans-Serif" font-size="10.00">odp/api/packet_types.h</text>
</a>
</g>
</g>
<!-- Node1&#45;&gt;Node6 -->
<g id="edge5" class="edge">
<title>Node1&#45;&gt;Node6</title>
<path fill="none" stroke="midnightblue" d="M1415.96,-1049.41C1189.55,-1050.76 231.5,-1049.29 231.5,-928 231.5,-928 231.5,-928 231.5,-747 231.5,-674.67 462.24,-646.29 584.88,-636.31"/>
<polygon fill="midnightblue" stroke="midnightblue" points="585.27,-639.79 594.96,-635.51 584.72,-632.81 585.27,-639.79"/>
</g>
<!-- Node16 -->
<g id="node16" class="node">
<title>Node16</title>
<g id="a_node16"><a xlink:title=" ">
<polygon fill="white" stroke="#bfbfbf" points="1497,-123.5 1497,-142.5 1550,-142.5 1550,-123.5 1497,-123.5"/>
<text text-anchor="middle" x="1523.5" y="-130.5" font-family="Helvetica,sans-Serif" font-size="10.00">stdint.h</text>
</a>
</g>
</g>
<!-- Node1&#45;&gt;Node16 -->
<g id="edge79" class="edge">
<title>Node1&#45;&gt;Node16</title>
<path fill="none" stroke="midnightblue" d="M1511.01,-1048.58C1597.79,-1046.95 1777.57,-1039.27 1827.5,-1004 1858.34,-982.21 1865.5,-965.76 1865.5,-928 1865.5,-928 1865.5,-928 1865.5,-244 1865.5,-180.39 1648.41,-148.32 1560.15,-137.9"/>
<polygon fill="midnightblue" stroke="midnightblue" points="1560.39,-134.41 1550.05,-136.74 1559.59,-141.36 1560.39,-134.41"/>
</g>
<!-- Node26 -->
<g id="node26" class="node">
<title>Node26</title>
<g id="a_node26"><a xlink:href="pool_8h.html" target="_top" xlink:title=" ">
<polygon fill="white" stroke="black" points="1219.5,-979 1219.5,-998 1305.5,-998 1305.5,-979 1219.5,-979"/>
<text text-anchor="middle" x="1262.5" y="-986" font-family="Helvetica,sans-Serif" font-size="10.00">odp/api/pool.h</text>
</a>
</g>
</g>
<!-- Node1&#45;&gt;Node26 -->
<g id="edge38" class="edge">
<title>Node1&#45;&gt;Node26</title>
<path fill="none" stroke="midnightblue" d="M1434.7,-1040.48C1399.63,-1030.09 1340.24,-1012.51 1301.19,-1000.95"/>
<polygon fill="midnightblue" stroke="midnightblue" points="1301.83,-997.49 1291.24,-998.01 1299.84,-1004.2 1301.83,-997.49"/>
</g>
<!-- Node36 -->
<g id="node36" class="node">
<title>Node36</title>
<g id="a_node36"><a xlink:title=" ">
<polygon fill="white" stroke="#bfbfbf" points="169,-554 169,-573 312,-573 312,-554 169,-554"/>
<text text-anchor="middle" x="240.5" y="-561" font-family="Helvetica,sans-Serif" font-size="10.00">odp/api/abi/event_types.h</text>
</a>
</g>
</g>
<!-- Node1&#45;&gt;Node36 -->
<g id="edge70" class="edge">
<title>Node1&#45;&gt;Node36</title>
<path fill="none" stroke="midnightblue" d="M1415.98,-1048.47C1210.36,-1045.98 402.75,-1034.35 293.5,-1004 226.03,-985.26 155.5,-998.02 155.5,-928 155.5,-928 155.5,-928 155.5,-691 155.5,-644.17 196.13,-601.63 221.21,-579.83"/>
<polygon fill="midnightblue" stroke="midnightblue" points="223.63,-582.37 229.04,-573.25 219.13,-577.01 223.63,-582.37"/>
</g>
<!-- Node38 -->
<g id="node38" class="node">
<title>Node38</title>
<g id="a_node38"><a xlink:href="time_8h.html" target="_top" xlink:title=" ">
<polygon fill="white" stroke="black" points="1189,-297 1189,-316 1276,-316 1276,-297 1189,-297"/>
<text text-anchor="middle" x="1232.5" y="-304" font-family="Helvetica,sans-Serif" font-size="10.00">odp/api/time.h</text>
</a>
</g>
</g>
<!-- Node1&#45;&gt;Node38 -->
<g id="edge63" class="edge">
<title>Node1&#45;&gt;Node38</title>
<path fill="none" stroke="midnightblue" d="M1443.79,-1040.4C1409.5,-1023.96 1342.5,-984.59 1342.5,-928 1342.5,-928 1342.5,-928 1342.5,-629.5 1342.5,-507.06 1270.4,-371.82 1242.94,-324.76"/>
<polygon fill="midnightblue" stroke="midnightblue" points="1245.92,-322.91 1237.81,-316.09 1239.89,-326.48 1245.92,-322.91"/>
</g>
<!-- Node41 -->
<g id="node41" class="node">
<title>Node41</title>
<g id="a_node41"><a xlink:title=" ">
<polygon fill="white" stroke="#bfbfbf" points="1408.5,-979 1408.5,-998 1518.5,-998 1518.5,-979 1408.5,-979"/>
<text text-anchor="middle" x="1463.5" y="-986" font-family="Helvetica,sans-Serif" font-size="10.00">odp/api/abi/buffer.h</text>
</a>
</g>
</g>
<!-- Node1&#45;&gt;Node41 -->
<g id="edge69" class="edge">
<title>Node1&#45;&gt;Node41</title>
<path fill="none" stroke="midnightblue" d="M1463.5,-1040.48C1463.5,-1032.08 1463.5,-1018.98 1463.5,-1008.16"/>
<polygon fill="midnightblue" stroke="midnightblue" points="1467,-1008.01 1463.5,-998.01 1460,-1008.01 1467,-1008.01"/>
</g>
<!-- Node42 -->
<g id="node42" class="node">
<title>Node42</title>
<g id="a_node42"><a xlink:title=" ">
<polygon fill="white" stroke="#bfbfbf" points="1537,-979 1537,-998 1652,-998 1652,-979 1537,-979"/>
<text text-anchor="middle" x="1594.5" y="-986" font-family="Helvetica,sans-Serif" font-size="10.00">odp/api/abi/packet.h</text>
</a>
</g>
</g>
<!-- Node1&#45;&gt;Node42 -->
<g id="edge71" class="edge">
<title>Node1&#45;&gt;Node42</title>
<path fill="none" stroke="midnightblue" d="M1482.27,-1040.48C1504.35,-1030.45 1541.22,-1013.7 1566.64,-1002.15"/>
<polygon fill="midnightblue" stroke="midnightblue" points="1568.11,-1005.33 1575.77,-998.01 1565.21,-998.96 1568.11,-1005.33"/>
</g>
<!-- Node43 -->
<g id="node43" class="node">
<title>Node43</title>
<g id="a_node43"><a xlink:title=" ">
<polygon fill="white" stroke="#bfbfbf" points="1670,-979 1670,-998 1799,-998 1799,-979 1670,-979"/>
<text text-anchor="middle" x="1734.5" y="-986" font-family="Helvetica,sans-Serif" font-size="10.00">odp/api/abi/packet_io.h</text>
</a>
</g>
</g>
<!-- Node1&#45;&gt;Node43 -->
<g id="edge72" class="edge">
<title>Node1&#45;&gt;Node43</title>
<path fill="none" stroke="midnightblue" d="M1502.33,-1040.48C1550.62,-1029.87 1633.11,-1011.76 1685.65,-1000.22"/>
<polygon fill="midnightblue" stroke="midnightblue" points="1686.73,-1003.57 1695.74,-998.01 1685.23,-996.74 1686.73,-1003.57"/>
</g>
<!-- Node44 -->
<g id="node44" class="node">
<title>Node44</title>
<g id="a_node44"><a xlink:href="packet__io__inlines_8h_source.html" target="_top" xlink:title=" ">
<polygon fill="white" stroke="black" points="1408.5,-615.5 1408.5,-645.5 1518.5,-645.5 1518.5,-615.5 1408.5,-615.5"/>
<text text-anchor="start" x="1416.5" y="-633.5" font-family="Helvetica,sans-Serif" font-size="10.00">odp/api/plat/packet</text>
<text text-anchor="middle" x="1463.5" y="-622.5" font-family="Helvetica,sans-Serif" font-size="10.00">_io_inlines.h</text>
</a>
</g>
</g>
<!-- Node1&#45;&gt;Node44 -->
<g id="edge73" class="edge">
<title>Node1&#45;&gt;Node44</title>
<path fill="none" stroke="midnightblue" d="M1442.02,-1040.36C1427.11,-1033.09 1408.39,-1021.12 1399.5,-1004 1393.15,-991.77 1398.23,-986.72 1399.5,-973 1410.69,-852.5 1443.65,-711.13 1457.38,-655.61"/>
<polygon fill="midnightblue" stroke="midnightblue" points="1460.84,-656.23 1459.86,-645.68 1454.04,-654.54 1460.84,-656.23"/>
</g>
<!-- Node45 -->
<g id="node45" class="node">
<title>Node45</title>
<g id="a_node45"><a xlink:href="packet__inline__types_8h.html" target="_top" xlink:title=" ">
<polygon fill="white" stroke="black" points="1609.5,-850.5 1609.5,-880.5 1719.5,-880.5 1719.5,-850.5 1609.5,-850.5"/>
<text text-anchor="start" x="1617.5" y="-868.5" font-family="Helvetica,sans-Serif" font-size="10.00">odp/api/plat/packet</text>
<text text-anchor="middle" x="1664.5" y="-857.5" font-family="Helvetica,sans-Serif" font-size="10.00">_inline_types.h</text>
</a>
</g>
</g>
<!-- Node1&#45;&gt;Node45 -->
<g id="edge76" class="edge">
<title>Node1&#45;&gt;Node45</title>
<path fill="none" stroke="midnightblue" d="M1511,-1046.23C1601.01,-1040.51 1789.17,-1026.01 1808.5,-1004 1848.71,-958.21 1765.24,-910.27 1709.37,-884.87"/>
<polygon fill="midnightblue" stroke="midnightblue" points="1710.54,-881.56 1699.98,-880.69 1707.7,-887.95 1710.54,-881.56"/>
</g>
<!-- Node46 -->
<g id="node46" class="node">
<title>Node46</title>
<g id="a_node46"><a xlink:href="pool__inline__types_8h.html" target="_top" xlink:title=" ">
<polygon fill="white" stroke="black" points="1894,-973.5 1894,-1003.5 2025,-1003.5 2025,-973.5 1894,-973.5"/>
<text text-anchor="start" x="1902" y="-991.5" font-family="Helvetica,sans-Serif" font-size="10.00">odp/api/plat/pool_inline</text>
<text text-anchor="middle" x="1959.5" y="-980.5" font-family="Helvetica,sans-Serif" font-size="10.00">_types.h</text>
</a>
</g>
</g>
<!-- Node1&#45;&gt;Node46 -->
<g id="edge78" class="edge">
<title>Node1&#45;&gt;Node46</title>
<path fill="none" stroke="midnightblue" d="M1511.05,-1044.97C1588.47,-1038.16 1746.49,-1023.22 1879.5,-1004 1880.8,-1003.81 1882.1,-1003.62 1883.42,-1003.42"/>
<polygon fill="midnightblue" stroke="midnightblue" points="1884.3,-1006.83 1893.64,-1001.82 1883.22,-999.91 1884.3,-1006.83"/>
</g>
<!-- Node47 -->
<g id="node47" class="node">
<title>Node47</title>
<g id="a_node47"><a xlink:title=" ">
<polygon fill="white" stroke="#bfbfbf" points="2043,-979 2043,-998 2096,-998 2096,-979 2043,-979"/>
<text text-anchor="middle" x="2069.5" y="-986" font-family="Helvetica,sans-Serif" font-size="10.00">string.h</text>
</a>
</g>
</g>
<!-- Node1&#45;&gt;Node47 -->
<g id="edge80" class="edge">
<title>Node1&#45;&gt;Node47</title>
<path fill="none" stroke="midnightblue" d="M1511.09,-1047.17C1629.61,-1042.3 1935.51,-1027.77 2034.5,-1004 2037.02,-1003.4 2039.59,-1002.63 2042.14,-1001.78"/>
<polygon fill="midnightblue" stroke="midnightblue" points="2043.6,-1004.97 2051.7,-998.14 2041.11,-998.43 2043.6,-1004.97"/>
</g>
<!-- Node3 -->
<g id="node3" class="node">
<title>Node3</title>
<g id="a_node3"><a xlink:href="spec_2hints_8h.html" target="_top" xlink:title=" ">
<polygon fill="white" stroke="black" points="122.5,-62 122.5,-81 236.5,-81 236.5,-62 122.5,-62"/>
<text text-anchor="middle" x="179.5" y="-69" font-family="Helvetica,sans-Serif" font-size="10.00">odp/api/spec/hints.h</text>
</a>
</g>
</g>
<!-- Node2&#45;&gt;Node3 -->
<g id="edge2" class="edge">
<title>Node2&#45;&gt;Node3</title>
<path fill="none" stroke="midnightblue" d="M47.3,-738.11C58.51,-701.74 99.5,-560.6 99.5,-441.5 99.5,-441.5 99.5,-441.5 99.5,-305.5 99.5,-220.7 147.49,-127.48 169.13,-89.76"/>
<polygon fill="midnightblue" stroke="midnightblue" points="172.22,-91.42 174.25,-81.02 166.18,-87.88 172.22,-91.42"/>
</g>
<!-- Node4 -->
<g id="node4" class="node">
<title>Node4</title>
<g id="a_node4"><a xlink:title=" ">
<polygon fill="white" stroke="#bfbfbf" points="920,-0.5 920,-19.5 1041,-19.5 1041,-0.5 920,-0.5"/>
<text text-anchor="middle" x="980.5" y="-7.5" font-family="Helvetica,sans-Serif" font-size="10.00">odp/visibility_begin.h</text>
</a>
</g>
</g>
<!-- Node3&#45;&gt;Node4 -->
<g id="edge3" class="edge">
<title>Node3&#45;&gt;Node4</title>
<path fill="none" stroke="midnightblue" d="M236.78,-66.24C380,-55.61 753.31,-27.88 909.83,-16.25"/>
<polygon fill="midnightblue" stroke="midnightblue" points="910.11,-19.74 919.82,-15.51 909.59,-12.76 910.11,-19.74"/>
</g>
<!-- Node5 -->
<g id="node5" class="node">
<title>Node5</title>
<g id="a_node5"><a xlink:title=" ">
<polygon fill="white" stroke="#bfbfbf" points="303.5,-0.5 303.5,-19.5 415.5,-19.5 415.5,-0.5 303.5,-0.5"/>
<text text-anchor="middle" x="359.5" y="-7.5" font-family="Helvetica,sans-Serif" font-size="10.00">odp/visibility_end.h</text>
</a>
</g>
</g>
<!-- Node3&#45;&gt;Node5 -->
<g id="edge4" class="edge">
<title>Node3&#45;&gt;Node5</title>
<path fill="none" stroke="midnightblue" d="M205.29,-61.98C236.43,-51.68 288.98,-34.31 323.95,-22.75"/>
<polygon fill="midnightblue" stroke="midnightblue" points="325.36,-25.97 333.76,-19.51 323.16,-19.32 325.36,-25.97"/>
</g>
<!-- Node7 -->
<g id="node7" class="node">
<title>Node7</title>
<g id="a_node7"><a xlink:title=" ">
<polygon fill="white" stroke="#bfbfbf" points="1132.5,-548.5 1132.5,-578.5 1238.5,-578.5 1238.5,-548.5 1132.5,-548.5"/>
<text text-anchor="start" x="1140.5" y="-566.5" font-family="Helvetica,sans-Serif" font-size="10.00">odp/api/abi/packet</text>
<text text-anchor="middle" x="1185.5" y="-555.5" font-family="Helvetica,sans-Serif" font-size="10.00">_io_types.h</text>
</a>
</g>
</g>
<!-- Node6&#45;&gt;Node7 -->
<g id="edge6" class="edge">
<title>Node6&#45;&gt;Node7</title>
<path fill="none" stroke="midnightblue" d="M724.26,-621.5C825.94,-608.93 1021.79,-584.73 1122.42,-572.29"/>
<polygon fill="midnightblue" stroke="midnightblue" points="1122.95,-575.76 1132.44,-571.06 1122.09,-568.81 1122.95,-575.76"/>
</g>
<!-- Node8 -->
<g id="node8" class="node">
<title>Node8</title>
<g id="a_node8"><a xlink:title=" ">
<polygon fill="white" stroke="#bfbfbf" points="478.5,-548.5 478.5,-578.5 584.5,-578.5 584.5,-548.5 478.5,-548.5"/>
<text text-anchor="start" x="486.5" y="-566.5" font-family="Helvetica,sans-Serif" font-size="10.00">odp/api/abi/packet</text>
<text text-anchor="middle" x="531.5" y="-555.5" font-family="Helvetica,sans-Serif" font-size="10.00">_types.h</text>
</a>
</g>
</g>
<!-- Node6&#45;&gt;Node8 -->
<g id="edge7" class="edge">
<title>Node6&#45;&gt;Node8</title>
<path fill="none" stroke="midnightblue" d="M642.5,-620.87C623.69,-611.31 592.8,-595.63 568.37,-583.22"/>
<polygon fill="midnightblue" stroke="midnightblue" points="569.87,-580.06 559.37,-578.65 566.7,-586.3 569.87,-580.06"/>
</g>
<!-- Node9 -->
<g id="node9" class="node">
<title>Node9</title>
<g id="a_node9"><a xlink:href="spec_2packet__types_8h.html" target="_top" xlink:title=" ">
<polygon fill="white" stroke="black" points="603,-548.5 603,-578.5 716,-578.5 716,-548.5 603,-548.5"/>
<text text-anchor="start" x="611" y="-566.5" font-family="Helvetica,sans-Serif" font-size="10.00">odp/api/spec/packet</text>
<text text-anchor="middle" x="659.5" y="-555.5" font-family="Helvetica,sans-Serif" font-size="10.00">_types.h</text>
</a>
</g>
</g>
<!-- Node6&#45;&gt;Node9 -->
<g id="edge8" class="edge">
<title>Node6&#45;&gt;Node9</title>
<path fill="none" stroke="midnightblue" d="M659.5,-620.73C659.5,-612.54 659.5,-599.92 659.5,-588.71"/>
<polygon fill="midnightblue" stroke="midnightblue" points="663,-588.59 659.5,-578.59 656,-588.59 663,-588.59"/>
</g>
<!-- Node9&#45;&gt;Node4 -->
<g id="edge9" class="edge">
<title>Node9&#45;&gt;Node4</title>
<path fill="none" stroke="midnightblue" d="M658.71,-548.39C655.78,-481.16 652.82,-190.97 809.5,-56 837.11,-32.21 875.89,-20.81 909.54,-15.42"/>
<polygon fill="midnightblue" stroke="midnightblue" points="910.4,-18.83 919.8,-13.94 909.4,-11.91 910.4,-18.83"/>
</g>
<!-- Node9&#45;&gt;Node5 -->
<g id="edge37" class="edge">
<title>Node9&#45;&gt;Node5</title>
<path fill="none" stroke="midnightblue" d="M604.16,-548.46C495.45,-520.51 264.5,-459.05 264.5,-441.5 264.5,-441.5 264.5,-441.5 264.5,-132 264.5,-96.58 266.9,-84.07 288.5,-56 299.09,-42.24 315.16,-31.56 329.34,-24.05"/>
<polygon fill="midnightblue" stroke="midnightblue" points="330.92,-27.18 338.31,-19.59 327.8,-20.91 330.92,-27.18"/>
</g>
<!-- Node10 -->
<g id="node10" class="node">
<title>Node10</title>
<g id="a_node10"><a xlink:href="proto__stats__types_8h.html" target="_top" xlink:title=" ">
<polygon fill="white" stroke="black" points="521.5,-358.5 521.5,-388.5 631.5,-388.5 631.5,-358.5 521.5,-358.5"/>
<text text-anchor="start" x="529.5" y="-376.5" font-family="Helvetica,sans-Serif" font-size="10.00">odp/api/proto_stats</text>
<text text-anchor="middle" x="576.5" y="-365.5" font-family="Helvetica,sans-Serif" font-size="10.00">_types.h</text>
</a>
</g>
</g>
<!-- Node9&#45;&gt;Node10 -->
<g id="edge10" class="edge">
<title>Node9&#45;&gt;Node10</title>
<path fill="none" stroke="midnightblue" d="M653.26,-548.37C639.08,-516.24 604.29,-437.44 586.84,-397.91"/>
<polygon fill="midnightblue" stroke="midnightblue" points="589.94,-396.27 582.7,-388.54 583.53,-399.1 589.94,-396.27"/>
</g>
<!-- Node20 -->
<g id="node20" class="node">
<title>Node20</title>
<g id="a_node20"><a xlink:href="queue__types_8h.html" target="_top" xlink:title=" ">
<polygon fill="white" stroke="black" points="697,-492.5 697,-511.5 824,-511.5 824,-492.5 697,-492.5"/>
<text text-anchor="middle" x="760.5" y="-499.5" font-family="Helvetica,sans-Serif" font-size="10.00">odp/api/queue_types.h</text>
</a>
</g>
</g>
<!-- Node9&#45;&gt;Node20 -->
<g id="edge26" class="edge">
<title>Node9&#45;&gt;Node20</title>
<path fill="none" stroke="midnightblue" d="M683.44,-548.4C699.63,-538.86 720.91,-526.32 737,-516.84"/>
<polygon fill="midnightblue" stroke="midnightblue" points="738.96,-519.75 745.8,-511.66 735.41,-513.72 738.96,-519.75"/>
</g>
<!-- Node11 -->
<g id="node11" class="node">
<title>Node11</title>
<g id="a_node11"><a xlink:title=" ">
<polygon fill="white" stroke="#bfbfbf" points="368.5,-291.5 368.5,-321.5 496.5,-321.5 496.5,-291.5 368.5,-291.5"/>
<text text-anchor="start" x="376.5" y="-309.5" font-family="Helvetica,sans-Serif" font-size="10.00">odp/api/abi/proto_stats</text>
<text text-anchor="middle" x="432.5" y="-298.5" font-family="Helvetica,sans-Serif" font-size="10.00">_types.h</text>
</a>
</g>
</g>
<!-- Node10&#45;&gt;Node11 -->
<g id="edge11" class="edge">
<title>Node10&#45;&gt;Node11</title>
<path fill="none" stroke="midnightblue" d="M545.25,-358.4C524.03,-348.81 495.75,-336.05 472.82,-325.7"/>
<polygon fill="midnightblue" stroke="midnightblue" points="474.24,-322.5 463.68,-321.58 471.36,-328.88 474.24,-322.5"/>
</g>
<!-- Node12 -->
<g id="node12" class="node">
<title>Node12</title>
<g id="a_node12"><a xlink:href="spec_2proto__stats__types_8h.html" target="_top" xlink:title=" ">
<polygon fill="white" stroke="black" points="553,-291.5 553,-321.5 660,-321.5 660,-291.5 553,-291.5"/>
<text text-anchor="start" x="561" y="-309.5" font-family="Helvetica,sans-Serif" font-size="10.00">odp/api/spec/proto</text>
<text text-anchor="middle" x="606.5" y="-298.5" font-family="Helvetica,sans-Serif" font-size="10.00">_stats_types.h</text>
</a>
</g>
</g>
<!-- Node10&#45;&gt;Node12 -->
<g id="edge12" class="edge">
<title>Node10&#45;&gt;Node12</title>
<path fill="none" stroke="midnightblue" d="M583.01,-358.4C586.74,-350.3 591.53,-339.94 595.8,-330.69"/>
<polygon fill="midnightblue" stroke="midnightblue" points="598.99,-332.12 600,-321.58 592.63,-329.19 598.99,-332.12"/>
</g>
<!-- Node12&#45;&gt;Node4 -->
<g id="edge13" class="edge">
<title>Node12&#45;&gt;Node4</title>
<path fill="none" stroke="midnightblue" d="M611.35,-291.4C627.15,-247.78 681.7,-114.47 776.5,-56 816.57,-31.29 868.45,-20.07 909.86,-15.01"/>
<polygon fill="midnightblue" stroke="midnightblue" points="910.33,-18.48 919.88,-13.88 909.55,-11.52 910.33,-18.48"/>
</g>
<!-- Node12&#45;&gt;Node5 -->
<g id="edge25" class="edge">
<title>Node12&#45;&gt;Node5</title>
<path fill="none" stroke="midnightblue" d="M589.83,-291.28C551.97,-258.35 458.09,-173.06 397.5,-87 384.54,-68.6 373.53,-45.13 366.75,-29.18"/>
<polygon fill="midnightblue" stroke="midnightblue" points="369.98,-27.82 362.93,-19.91 363.5,-30.49 369.98,-27.82"/>
</g>
<!-- Node13 -->
<g id="node13" class="node">
<title>Node13</title>
<g id="a_node13"><a xlink:href="std__types_8h.html" target="_top" xlink:title=" ">
<polygon fill="white" stroke="black" points="1002.5,-235.5 1002.5,-254.5 1114.5,-254.5 1114.5,-235.5 1002.5,-235.5"/>
<text text-anchor="middle" x="1058.5" y="-242.5" font-family="Helvetica,sans-Serif" font-size="10.00">odp/api/std_types.h</text>
</a>
</g>
</g>
<!-- Node12&#45;&gt;Node13 -->
<g id="edge14" class="edge">
<title>Node12&#45;&gt;Node13</title>
<path fill="none" stroke="midnightblue" d="M660.21,-297.73C675.78,-295.51 692.81,-293.12 708.5,-291 807.3,-277.63 921.94,-263.07 992.34,-254.24"/>
<polygon fill="midnightblue" stroke="midnightblue" points="992.91,-257.7 1002.4,-252.98 992.04,-250.75 992.91,-257.7"/>
</g>
<!-- Node14 -->
<g id="node14" class="node">
<title>Node14</title>
<g id="a_node14"><a xlink:title=" ">
<polygon fill="white" stroke="#bfbfbf" points="1146.5,-179.5 1146.5,-198.5 1276.5,-198.5 1276.5,-179.5 1146.5,-179.5"/>
<text text-anchor="middle" x="1211.5" y="-186.5" font-family="Helvetica,sans-Serif" font-size="10.00">odp/api/abi/std_types.h</text>
</a>
</g>
</g>
<!-- Node13&#45;&gt;Node14 -->
<g id="edge15" class="edge">
<title>Node13&#45;&gt;Node14</title>
<path fill="none" stroke="midnightblue" d="M1082.74,-235.44C1108.37,-226.4 1148.99,-212.06 1177.74,-201.92"/>
<polygon fill="midnightblue" stroke="midnightblue" points="1179.11,-205.15 1187.37,-198.52 1176.78,-198.54 1179.11,-205.15"/>
</g>
<!-- Node15 -->
<g id="node15" class="node">
<title>Node15</title>
<g id="a_node15"><a xlink:href="spec_2std__types_8h.html" target="_top" xlink:title=" ">
<polygon fill="white" stroke="black" points="915,-179.5 915,-198.5 1052,-198.5 1052,-179.5 915,-179.5"/>
<text text-anchor="middle" x="983.5" y="-186.5" font-family="Helvetica,sans-Serif" font-size="10.00">odp/api/spec/std_types.h</text>
</a>
</g>
</g>
<!-- Node13&#45;&gt;Node15 -->
<g id="edge16" class="edge">
<title>Node13&#45;&gt;Node15</title>
<path fill="none" stroke="midnightblue" d="M1046.45,-235.32C1035.04,-227.11 1017.67,-214.6 1004.07,-204.81"/>
<polygon fill="midnightblue" stroke="midnightblue" points="1005.93,-201.84 995.77,-198.83 1001.84,-207.52 1005.93,-201.84"/>
</g>
<!-- Node15&#45;&gt;Node4 -->
<g id="edge17" class="edge">
<title>Node15&#45;&gt;Node4</title>
<path fill="none" stroke="midnightblue" d="M996.5,-179.43C1026.55,-158.51 1096.17,-103.1 1067.5,-56 1058.04,-40.46 1041.29,-30.05 1025,-23.19"/>
<polygon fill="midnightblue" stroke="midnightblue" points="1026.1,-19.87 1015.51,-19.55 1023.6,-26.4 1026.1,-19.87"/>
</g>
<!-- Node15&#45;&gt;Node5 -->
<g id="edge24" class="edge">
<title>Node15&#45;&gt;Node5</title>
<path fill="none" stroke="midnightblue" d="M948.59,-179.49C860.58,-157.95 634.36,-101.86 602.5,-87 580.82,-76.89 580.36,-65.71 558.5,-56 516.36,-37.28 465.63,-25.96 425.93,-19.36"/>
<polygon fill="midnightblue" stroke="midnightblue" points="426.26,-15.87 415.83,-17.74 425.15,-22.78 426.26,-15.87"/>
</g>
<!-- Node15&#45;&gt;Node16 -->
<g id="edge18" class="edge">
<title>Node15&#45;&gt;Node16</title>
<path fill="none" stroke="midnightblue" d="M1052.17,-181.13C1167.77,-169.57 1397.37,-146.61 1486.72,-137.68"/>
<polygon fill="midnightblue" stroke="midnightblue" points="1487.3,-141.14 1496.9,-136.66 1486.61,-134.17 1487.3,-141.14"/>
</g>
<!-- Node17 -->
<g id="node17" class="node">
<title>Node17</title>
<g id="a_node17"><a xlink:href="align_8h.html" target="_top" xlink:title=" ">
<polygon fill="white" stroke="black" points="939,-123.5 939,-142.5 1028,-142.5 1028,-123.5 939,-123.5"/>
<text text-anchor="middle" x="983.5" y="-130.5" font-family="Helvetica,sans-Serif" font-size="10.00">odp/api/align.h</text>
</a>
</g>
</g>
<!-- Node15&#45;&gt;Node17 -->
<g id="edge19" class="edge">
<title>Node15&#45;&gt;Node17</title>
<path fill="none" stroke="midnightblue" d="M983.5,-179.08C983.5,-172.01 983.5,-161.86 983.5,-152.99"/>
<polygon fill="midnightblue" stroke="midnightblue" points="987,-152.75 983.5,-142.75 980,-152.75 987,-152.75"/>
</g>
<!-- Node18 -->
<g id="node18" class="node">
<title>Node18</title>
<g id="a_node18"><a xlink:title=" ">
<polygon fill="white" stroke="#bfbfbf" points="951,-62 951,-81 1058,-81 1058,-62 951,-62"/>
<text text-anchor="middle" x="1004.5" y="-69" font-family="Helvetica,sans-Serif" font-size="10.00">odp/api/abi/align.h</text>
</a>
</g>
</g>
<!-- Node17&#45;&gt;Node18 -->
<g id="edge20" class="edge">
<title>Node17&#45;&gt;Node18</title>
<path fill="none" stroke="midnightblue" d="M986.51,-123.48C989.53,-114.9 994.29,-101.43 998.15,-90.48"/>
<polygon fill="midnightblue" stroke="midnightblue" points="1001.47,-91.6 1001.5,-81.01 994.87,-89.27 1001.47,-91.6"/>
</g>
<!-- Node19 -->
<g id="node19" class="node">
<title>Node19</title>
<g id="a_node19"><a xlink:href="spec_2align_8h.html" target="_top" xlink:title=" ">
<polygon fill="white" stroke="black" points="818.5,-62 818.5,-81 932.5,-81 932.5,-62 818.5,-62"/>
<text text-anchor="middle" x="875.5" y="-69" font-family="Helvetica,sans-Serif" font-size="10.00">odp/api/spec/align.h</text>
</a>
</g>
</g>
<!-- Node17&#45;&gt;Node19 -->
<g id="edge21" class="edge">
<title>Node17&#45;&gt;Node19</title>
<path fill="none" stroke="midnightblue" d="M968.03,-123.48C950.22,-113.67 920.76,-97.43 899.87,-85.92"/>
<polygon fill="midnightblue" stroke="midnightblue" points="901.39,-82.77 890.95,-81.01 898.01,-88.9 901.39,-82.77"/>
</g>
<!-- Node19&#45;&gt;Node4 -->
<g id="edge22" class="edge">
<title>Node19&#45;&gt;Node4</title>
<path fill="none" stroke="midnightblue" d="M890.54,-61.98C907.78,-52.21 936.24,-36.08 956.53,-24.58"/>
<polygon fill="midnightblue" stroke="midnightblue" points="958.51,-27.48 965.48,-19.51 955.06,-21.39 958.51,-27.48"/>
</g>
<!-- Node19&#45;&gt;Node5 -->
<g id="edge23" class="edge">
<title>Node19&#45;&gt;Node5</title>
<path fill="none" stroke="midnightblue" d="M818.31,-63.91C722.03,-52.8 528.13,-30.45 425.97,-18.66"/>
<polygon fill="midnightblue" stroke="midnightblue" points="426.11,-15.16 415.77,-17.49 425.3,-22.11 426.11,-15.16"/>
</g>
<!-- Node21 -->
<g id="node21" class="node">
<title>Node21</title>
<g id="a_node21"><a xlink:title=" ">
<polygon fill="white" stroke="#bfbfbf" points="688,-431 688,-450 833,-450 833,-431 688,-431"/>
<text text-anchor="middle" x="760.5" y="-438" font-family="Helvetica,sans-Serif" font-size="10.00">odp/api/abi/queue_types.h</text>
</a>
</g>
</g>
<!-- Node20&#45;&gt;Node21 -->
<g id="edge27" class="edge">
<title>Node20&#45;&gt;Node21</title>
<path fill="none" stroke="midnightblue" d="M760.5,-492.48C760.5,-484.08 760.5,-470.98 760.5,-460.16"/>
<polygon fill="midnightblue" stroke="midnightblue" points="764,-460.01 760.5,-450.01 757,-460.01 764,-460.01"/>
</g>
<!-- Node22 -->
<g id="node22" class="node">
<title>Node22</title>
<g id="a_node22"><a xlink:href="spec_2queue__types_8h.html" target="_top" xlink:title=" ">
<polygon fill="white" stroke="black" points="851,-425.5 851,-455.5 962,-455.5 962,-425.5 851,-425.5"/>
<text text-anchor="start" x="859" y="-443.5" font-family="Helvetica,sans-Serif" font-size="10.00">odp/api/spec/queue</text>
<text text-anchor="middle" x="906.5" y="-432.5" font-family="Helvetica,sans-Serif" font-size="10.00">_types.h</text>
</a>
</g>
</g>
<!-- Node20&#45;&gt;Node22 -->
<g id="edge28" class="edge">
<title>Node20&#45;&gt;Node22</title>
<path fill="none" stroke="midnightblue" d="M781.42,-492.48C802.49,-483.89 835.63,-470.38 862.51,-459.43"/>
<polygon fill="midnightblue" stroke="midnightblue" points="864.15,-462.54 872.09,-455.52 861.51,-456.06 864.15,-462.54"/>
</g>
<!-- Node22&#45;&gt;Node4 -->
<g id="edge29" class="edge">
<title>Node22&#45;&gt;Node4</title>
<path fill="none" stroke="midnightblue" d="M932.3,-425.42C945.96,-416.68 961.86,-404.2 971.5,-389 987.85,-363.23 981.93,-352.17 986.5,-322 989.4,-302.82 982.02,-250.63 993.5,-235 1018.75,-200.61 1050.37,-227.07 1082.5,-199 1104.09,-180.14 1107.14,-170.71 1114.5,-143 1121,-118.54 1114.27,-66.86 1105.5,-56 1091.86,-39.12 1071.36,-28.56 1050.89,-21.97"/>
<polygon fill="midnightblue" stroke="midnightblue" points="1051.77,-18.58 1041.19,-19.13 1049.8,-25.3 1051.77,-18.58"/>
</g>
<!-- Node22&#45;&gt;Node5 -->
<g id="edge36" class="edge">
<title>Node22&#45;&gt;Node5</title>
<path fill="none" stroke="midnightblue" d="M860.49,-425.4C765.98,-396.33 557.68,-331.62 544.5,-322 492.55,-284.07 401.46,-145.85 375.5,-87 367.35,-68.54 363.26,-45.68 361.27,-29.89"/>
<polygon fill="midnightblue" stroke="midnightblue" points="364.73,-29.35 360.16,-19.79 357.78,-30.11 364.73,-29.35"/>
</g>
<!-- Node23 -->
<g id="node23" class="node">
<title>Node23</title>
<g id="a_node23"><a xlink:href="schedule__types_8h.html" target="_top" xlink:title=" ">
<polygon fill="white" stroke="black" points="822.5,-364 822.5,-383 962.5,-383 962.5,-364 822.5,-364"/>
<text text-anchor="middle" x="892.5" y="-371" font-family="Helvetica,sans-Serif" font-size="10.00">odp/api/schedule_types.h</text>
</a>
</g>
</g>
<!-- Node22&#45;&gt;Node23 -->
<g id="edge30" class="edge">
<title>Node22&#45;&gt;Node23</title>
<path fill="none" stroke="midnightblue" d="M903.46,-425.4C901.43,-415.96 898.74,-403.45 896.53,-393.19"/>
<polygon fill="midnightblue" stroke="midnightblue" points="899.9,-392.23 894.37,-383.19 893.06,-393.71 899.9,-392.23"/>
</g>
<!-- Node24 -->
<g id="node24" class="node">
<title>Node24</title>
<g id="a_node24"><a xlink:title=" ">
<polygon fill="white" stroke="#bfbfbf" points="860,-291.5 860,-321.5 977,-321.5 977,-291.5 860,-291.5"/>
<text text-anchor="start" x="868" y="-309.5" font-family="Helvetica,sans-Serif" font-size="10.00">odp/api/abi/schedule</text>
<text text-anchor="middle" x="918.5" y="-298.5" font-family="Helvetica,sans-Serif" font-size="10.00">_types.h</text>
</a>
</g>
</g>
<!-- Node23&#45;&gt;Node24 -->
<g id="edge31" class="edge">
<title>Node23&#45;&gt;Node24</title>
<path fill="none" stroke="midnightblue" d="M896.01,-363.73C899.35,-355.37 904.54,-342.4 909.09,-331.02"/>
<polygon fill="midnightblue" stroke="midnightblue" points="912.4,-332.17 912.86,-321.59 905.9,-329.57 912.4,-332.17"/>
</g>
<!-- Node25 -->
<g id="node25" class="node">
<title>Node25</title>
<g id="a_node25"><a xlink:href="spec_2schedule__types_8h.html" target="_top" xlink:title=" ">
<polygon fill="white" stroke="black" points="717,-291.5 717,-321.5 842,-321.5 842,-291.5 717,-291.5"/>
<text text-anchor="start" x="725" y="-309.5" font-family="Helvetica,sans-Serif" font-size="10.00">odp/api/spec/schedule</text>
<text text-anchor="middle" x="779.5" y="-298.5" font-family="Helvetica,sans-Serif" font-size="10.00">_types.h</text>
</a>
</g>
</g>
<!-- Node23&#45;&gt;Node25 -->
<g id="edge32" class="edge">
<title>Node23&#45;&gt;Node25</title>
<path fill="none" stroke="midnightblue" d="M877.26,-363.73C860.81,-354.27 834.11,-338.91 812.77,-326.64"/>
<polygon fill="midnightblue" stroke="midnightblue" points="814.41,-323.54 803.99,-321.59 810.92,-329.61 814.41,-323.54"/>
</g>
<!-- Node25&#45;&gt;Node4 -->
<g id="edge33" class="edge">
<title>Node25&#45;&gt;Node4</title>
<path fill="none" stroke="midnightblue" d="M814.76,-291.42C851.15,-276.96 909.63,-253.97 960.5,-235 1005.15,-218.35 1030.24,-234.97 1061.5,-199 1103.73,-150.41 1119.84,-109.8 1084.5,-56 1073.93,-39.91 1056.24,-29.54 1038.42,-22.88"/>
<polygon fill="midnightblue" stroke="midnightblue" points="1039.14,-19.43 1028.55,-19.54 1036.9,-26.06 1039.14,-19.43"/>
</g>
<!-- Node25&#45;&gt;Node5 -->
<g id="edge35" class="edge">
<title>Node25&#45;&gt;Node5</title>
<path fill="none" stroke="midnightblue" d="M765.16,-291.28C712.41,-238.99 531.84,-60.21 524.5,-56 494.28,-38.68 457.11,-27.79 425.71,-21.06"/>
<polygon fill="midnightblue" stroke="midnightblue" points="426.23,-17.6 415.73,-19.03 424.82,-24.46 426.23,-17.6"/>
</g>
<!-- Node25&#45;&gt;Node13 -->
<g id="edge34" class="edge">
<title>Node25&#45;&gt;Node13</title>
<path fill="none" stroke="midnightblue" d="M842.11,-292.15C892.4,-281.42 962.09,-266.56 1008.65,-256.63"/>
<polygon fill="midnightblue" stroke="midnightblue" points="1009.46,-260.04 1018.51,-254.53 1008,-253.19 1009.46,-260.04"/>
</g>
<!-- Node27 -->
<g id="node27" class="node">
<title>Node27</title>
<g id="a_node27"><a xlink:title=" ">
<polygon fill="white" stroke="#bfbfbf" points="1210.5,-917.5 1210.5,-936.5 1314.5,-936.5 1314.5,-917.5 1210.5,-917.5"/>
<text text-anchor="middle" x="1262.5" y="-924.5" font-family="Helvetica,sans-Serif" font-size="10.00">odp/api/abi/pool.h</text>
</a>
</g>
</g>
<!-- Node26&#45;&gt;Node27 -->
<g id="edge39" class="edge">
<title>Node26&#45;&gt;Node27</title>
<path fill="none" stroke="midnightblue" d="M1262.5,-978.98C1262.5,-970.58 1262.5,-957.48 1262.5,-946.66"/>
<polygon fill="midnightblue" stroke="midnightblue" points="1266,-946.51 1262.5,-936.51 1259,-946.51 1266,-946.51"/>
</g>
<!-- Node28 -->
<g id="node28" class="node">
<title>Node28</title>
<g id="a_node28"><a xlink:href="spec_2pool_8h.html" target="_top" xlink:title=" ">
<polygon fill="white" stroke="black" points="1081,-917.5 1081,-936.5 1192,-936.5 1192,-917.5 1081,-917.5"/>
<text text-anchor="middle" x="1136.5" y="-924.5" font-family="Helvetica,sans-Serif" font-size="10.00">odp/api/spec/pool.h</text>
</a>
</g>
</g>
<!-- Node26&#45;&gt;Node28 -->
<g id="edge40" class="edge">
<title>Node26&#45;&gt;Node28</title>
<path fill="none" stroke="midnightblue" d="M1244.45,-978.98C1223.3,-968.99 1188.06,-952.35 1163.62,-940.81"/>
<polygon fill="midnightblue" stroke="midnightblue" points="1165.06,-937.61 1154.52,-936.51 1162.07,-943.94 1165.06,-937.61"/>
</g>
<!-- Node28&#45;&gt;Node4 -->
<g id="edge41" class="edge">
<title>Node28&#45;&gt;Node4</title>
<path fill="none" stroke="midnightblue" d="M1173.56,-917.47C1241.82,-899.31 1380.5,-850 1380.5,-749 1380.5,-749 1380.5,-749 1380.5,-132 1380.5,-80.66 1340.16,-77.42 1293.5,-56 1251.66,-36.79 1130.3,-23.44 1051.57,-16.51"/>
<polygon fill="midnightblue" stroke="midnightblue" points="1051.5,-12.99 1041.23,-15.62 1050.89,-19.97 1051.5,-12.99"/>
</g>
<!-- Node28&#45;&gt;Node5 -->
<g id="edge62" class="edge">
<title>Node28&#45;&gt;Node5</title>
<path fill="none" stroke="midnightblue" d="M1080.97,-922.32C903.85,-909.61 355.83,-862.47 217.5,-758 92.35,-663.49 61.5,-598.33 61.5,-441.5 61.5,-441.5 61.5,-441.5 61.5,-305.5 61.5,-193.7 16.05,-136.62 93.5,-56 120.37,-28.03 223.79,-17.42 293.48,-13.41"/>
<polygon fill="midnightblue" stroke="midnightblue" points="293.7,-16.9 303.5,-12.86 293.32,-9.91 293.7,-16.9"/>
</g>
<!-- Node28&#45;&gt;Node13 -->
<g id="edge42" class="edge">
<title>Node28&#45;&gt;Node13</title>
<path fill="none" stroke="midnightblue" d="M1158.55,-917.45C1195.64,-901.46 1266.5,-863.27 1266.5,-805 1266.5,-805 1266.5,-805 1266.5,-629.5 1266.5,-462.33 1202.86,-424.69 1102.5,-291 1094.56,-280.43 1084.3,-269.8 1075.69,-261.53"/>
<polygon fill="midnightblue" stroke="midnightblue" points="1078.04,-258.94 1068.35,-254.66 1073.26,-264.05 1078.04,-258.94"/>
</g>
<!-- Node29 -->
<g id="node29" class="node">
<title>Node29</title>
<g id="a_node29"><a xlink:href="pool__types_8h.html" target="_top" xlink:title=" ">
<polygon fill="white" stroke="black" points="1077.5,-856 1077.5,-875 1195.5,-875 1195.5,-856 1077.5,-856"/>
<text text-anchor="middle" x="1136.5" y="-863" font-family="Helvetica,sans-Serif" font-size="10.00">odp/api/pool_types.h</text>
</a>
</g>
</g>
<!-- Node28&#45;&gt;Node29 -->
<g id="edge43" class="edge">
<title>Node28&#45;&gt;Node29</title>
<path fill="none" stroke="midnightblue" d="M1136.5,-917.48C1136.5,-909.08 1136.5,-895.98 1136.5,-885.16"/>
<polygon fill="midnightblue" stroke="midnightblue" points="1140,-885.01 1136.5,-875.01 1133,-885.01 1140,-885.01"/>
</g>
<!-- Node30 -->
<g id="node30" class="node">
<title>Node30</title>
<g id="a_node30"><a xlink:title=" ">
<polygon fill="white" stroke="#bfbfbf" points="1100.5,-794.5 1100.5,-813.5 1236.5,-813.5 1236.5,-794.5 1100.5,-794.5"/>
<text text-anchor="middle" x="1168.5" y="-801.5" font-family="Helvetica,sans-Serif" font-size="10.00">odp/api/abi/pool_types.h</text>
</a>
</g>
</g>
<!-- Node29&#45;&gt;Node30 -->
<g id="edge44" class="edge">
<title>Node29&#45;&gt;Node30</title>
<path fill="none" stroke="midnightblue" d="M1141.08,-855.98C1145.74,-847.32 1153.09,-833.65 1159.01,-822.65"/>
<polygon fill="midnightblue" stroke="midnightblue" points="1162.27,-823.97 1163.92,-813.51 1156.1,-820.66 1162.27,-823.97"/>
</g>
<!-- Node31 -->
<g id="node31" class="node">
<title>Node31</title>
<g id="a_node31"><a xlink:href="spec_2pool__types_8h.html" target="_top" xlink:title=" ">
<polygon fill="white" stroke="black" points="939,-794.5 939,-813.5 1082,-813.5 1082,-794.5 939,-794.5"/>
<text text-anchor="middle" x="1010.5" y="-801.5" font-family="Helvetica,sans-Serif" font-size="10.00">odp/api/spec/pool_types.h</text>
</a>
</g>
</g>
<!-- Node29&#45;&gt;Node31 -->
<g id="edge45" class="edge">
<title>Node29&#45;&gt;Node31</title>
<path fill="none" stroke="midnightblue" d="M1118.45,-855.98C1097.3,-845.99 1062.06,-829.35 1037.62,-817.81"/>
<polygon fill="midnightblue" stroke="midnightblue" points="1039.06,-814.61 1028.52,-813.51 1036.07,-820.94 1039.06,-814.61"/>
</g>
<!-- Node31&#45;&gt;Node4 -->
<g id="edge46" class="edge">
<title>Node31&#45;&gt;Node4</title>
<path fill="none" stroke="midnightblue" d="M1063.06,-794.44C1147.63,-779.16 1304.5,-743.95 1304.5,-693 1304.5,-693 1304.5,-693 1304.5,-629.5 1304.5,-544.25 1342.5,-526.75 1342.5,-441.5 1342.5,-441.5 1342.5,-441.5 1342.5,-132 1342.5,-75.47 1292.44,-78.32 1240.5,-56 1179.81,-29.92 1104.99,-18.94 1051.22,-14.33"/>
<polygon fill="midnightblue" stroke="midnightblue" points="1051.34,-10.83 1041.09,-13.51 1050.78,-17.8 1051.34,-10.83"/>
</g>
<!-- Node31&#45;&gt;Node5 -->
<g id="edge61" class="edge">
<title>Node31&#45;&gt;Node5</title>
<path fill="none" stroke="midnightblue" d="M938.82,-795.03C767.32,-774.99 338.51,-718.87 215.5,-646 107.69,-582.14 139.5,-499.81 139.5,-374.5 139.5,-374.5 139.5,-374.5 139.5,-244 139.5,-159.65 59.49,-120.79 113.5,-56 136,-29.01 228.37,-18.16 293.27,-13.83"/>
<polygon fill="midnightblue" stroke="midnightblue" points="293.68,-17.31 303.44,-13.19 293.24,-10.33 293.68,-17.31"/>
</g>
<!-- Node31&#45;&gt;Node13 -->
<g id="edge47" class="edge">
<title>Node31&#45;&gt;Node13</title>
<path fill="none" stroke="midnightblue" d="M1026.02,-794.35C1052.72,-778.2 1104.5,-740.73 1104.5,-693 1104.5,-693 1104.5,-693 1104.5,-372.5 1104.5,-331.4 1082.79,-287.07 1069.2,-263.34"/>
<polygon fill="midnightblue" stroke="midnightblue" points="1072.07,-261.32 1063.96,-254.5 1066.05,-264.89 1072.07,-261.32"/>
</g>
<!-- Node32 -->
<g id="node32" class="node">
<title>Node32</title>
<g id="a_node32"><a xlink:href="dma__types_8h.html" target="_top" xlink:title=" ">
<polygon fill="white" stroke="black" points="904,-738.5 904,-757.5 1023,-757.5 1023,-738.5 904,-738.5"/>
<text text-anchor="middle" x="963.5" y="-745.5" font-family="Helvetica,sans-Serif" font-size="10.00">odp/api/dma_types.h</text>
</a>
</g>
</g>
<!-- Node31&#45;&gt;Node32 -->
<g id="edge48" class="edge">
<title>Node31&#45;&gt;Node32</title>
<path fill="none" stroke="midnightblue" d="M1002.74,-794.08C995.96,-786.3 985.96,-774.8 977.74,-765.37"/>
<polygon fill="midnightblue" stroke="midnightblue" points="980.32,-763 971.12,-757.75 975.04,-767.59 980.32,-763"/>
</g>
<!-- Node33 -->
<g id="node33" class="node">
<title>Node33</title>
<g id="a_node33"><a xlink:title=" ">
<polygon fill="white" stroke="#bfbfbf" points="895,-682.5 895,-701.5 1032,-701.5 1032,-682.5 895,-682.5"/>
<text text-anchor="middle" x="963.5" y="-689.5" font-family="Helvetica,sans-Serif" font-size="10.00">odp/api/abi/dma_types.h</text>
</a>
</g>
</g>
<!-- Node32&#45;&gt;Node33 -->
<g id="edge49" class="edge">
<title>Node32&#45;&gt;Node33</title>
<path fill="none" stroke="midnightblue" d="M963.5,-738.08C963.5,-731.01 963.5,-720.86 963.5,-711.99"/>
<polygon fill="midnightblue" stroke="midnightblue" points="967,-711.75 963.5,-701.75 960,-711.75 967,-711.75"/>
</g>
<!-- Node34 -->
<g id="node34" class="node">
<title>Node34</title>
<g id="a_node34"><a xlink:href="spec_2dma__types_8h.html" target="_top" xlink:title=" ">
<polygon fill="white" stroke="black" points="688.5,-682.5 688.5,-701.5 832.5,-701.5 832.5,-682.5 688.5,-682.5"/>
<text text-anchor="middle" x="760.5" y="-689.5" font-family="Helvetica,sans-Serif" font-size="10.00">odp/api/spec/dma_types.h</text>
</a>
</g>
</g>
<!-- Node32&#45;&gt;Node34 -->
<g id="edge50" class="edge">
<title>Node32&#45;&gt;Node34</title>
<path fill="none" stroke="midnightblue" d="M931.33,-738.44C896.44,-729.16 840.61,-714.31 802.33,-704.13"/>
<polygon fill="midnightblue" stroke="midnightblue" points="803.08,-700.7 792.52,-701.52 801.28,-707.47 803.08,-700.7"/>
</g>
<!-- Node34&#45;&gt;Node4 -->
<g id="edge51" class="edge">
<title>Node34&#45;&gt;Node4</title>
<path fill="none" stroke="midnightblue" d="M832.52,-684.24C895.64,-677.21 981.7,-664.6 1010.5,-646 1047.42,-622.16 1066.5,-608.45 1066.5,-564.5 1066.5,-564.5 1066.5,-564.5 1066.5,-439.5 1066.5,-329.04 1217.63,-409.15 1285.5,-322 1306.89,-294.53 1304.5,-280.82 1304.5,-246 1304.5,-246 1304.5,-246 1304.5,-132 1304.5,-76.89 1137.92,-38.6 1043.64,-21.34"/>
<polygon fill="midnightblue" stroke="midnightblue" points="1044.1,-17.87 1033.64,-19.54 1042.86,-24.76 1044.1,-17.87"/>
</g>
<!-- Node34&#45;&gt;Node5 -->
<g id="edge60" class="edge">
<title>Node34&#45;&gt;Node5</title>
<path fill="none" stroke="midnightblue" d="M715.75,-682.46C600.51,-657.62 302.5,-574.09 302.5,-374.5 302.5,-374.5 302.5,-374.5 302.5,-132 302.5,-91.59 328.84,-50.21 345.71,-27.85"/>
<polygon fill="midnightblue" stroke="midnightblue" points="348.65,-29.77 352.05,-19.74 343.13,-25.46 348.65,-29.77"/>
</g>
<!-- Node34&#45;&gt;Node6 -->
<g id="edge57" class="edge">
<title>Node34&#45;&gt;Node6</title>
<path fill="none" stroke="midnightblue" d="M746.03,-682.48C729.53,-672.75 702.32,-656.73 682.82,-645.24"/>
<polygon fill="midnightblue" stroke="midnightblue" points="684.34,-642.07 673.94,-640.01 680.78,-648.1 684.34,-642.07"/>
</g>
<!-- Node34&#45;&gt;Node13 -->
<g id="edge59" class="edge">
<title>Node34&#45;&gt;Node13</title>
<path fill="none" stroke="midnightblue" d="M832.67,-687.19C912.05,-678.65 1028.5,-651.32 1028.5,-564.5 1028.5,-564.5 1028.5,-564.5 1028.5,-439.5 1028.5,-374.75 1045.11,-299.24 1053.61,-264.82"/>
<polygon fill="midnightblue" stroke="midnightblue" points="1057.08,-265.35 1056.15,-254.8 1050.3,-263.63 1057.08,-265.35"/>
</g>
<!-- Node34&#45;&gt;Node20 -->
<g id="edge58" class="edge">
<title>Node34&#45;&gt;Node20</title>
<path fill="none" stroke="midnightblue" d="M760.5,-682.43C760.5,-653.93 760.5,-561.82 760.5,-521.83"/>
<polygon fill="midnightblue" stroke="midnightblue" points="764,-521.62 760.5,-511.62 757,-521.62 764,-521.62"/>
</g>
<!-- Node35 -->
<g id="node35" class="node">
<title>Node35</title>
<g id="a_node35"><a xlink:href="event__types_8h.html" target="_top" xlink:title=" ">
<polygon fill="white" stroke="black" points="225,-621 225,-640 350,-640 350,-621 225,-621"/>
<text text-anchor="middle" x="287.5" y="-628" font-family="Helvetica,sans-Serif" font-size="10.00">odp/api/event_types.h</text>
</a>
</g>
</g>
<!-- Node34&#45;&gt;Node35 -->
<g id="edge52" class="edge">
<title>Node34&#45;&gt;Node35</title>
<path fill="none" stroke="midnightblue" d="M688.39,-684.4C608.87,-676.75 477.22,-662.99 364.5,-646 356.47,-644.79 347.99,-643.35 339.72,-641.87"/>
<polygon fill="midnightblue" stroke="midnightblue" points="340.24,-638.4 329.77,-640.03 338.97,-645.29 340.24,-638.4"/>
</g>
<!-- Node35&#45;&gt;Node36 -->
<g id="edge53" class="edge">
<title>Node35&#45;&gt;Node36</title>
<path fill="none" stroke="midnightblue" d="M281.16,-620.73C273.9,-610.7 261.84,-594.01 252.74,-581.42"/>
<polygon fill="midnightblue" stroke="midnightblue" points="255.43,-579.18 246.74,-573.13 249.76,-583.28 255.43,-579.18"/>
</g>
<!-- Node37 -->
<g id="node37" class="node">
<title>Node37</title>
<g id="a_node37"><a xlink:href="spec_2event__types_8h.html" target="_top" xlink:title=" ">
<polygon fill="white" stroke="black" points="407,-56.5 407,-86.5 516,-86.5 516,-56.5 407,-56.5"/>
<text text-anchor="start" x="415" y="-74.5" font-family="Helvetica,sans-Serif" font-size="10.00">odp/api/spec/event</text>
<text text-anchor="middle" x="461.5" y="-63.5" font-family="Helvetica,sans-Serif" font-size="10.00">_types.h</text>
</a>
</g>
</g>
<!-- Node35&#45;&gt;Node37 -->
<g id="edge54" class="edge">
<title>Node35&#45;&gt;Node37</title>
<path fill="none" stroke="midnightblue" d="M294.52,-620.7C301.94,-611.01 313.53,-594.7 320.5,-579 334.68,-547.08 340.5,-537.93 340.5,-503 340.5,-503 340.5,-503 340.5,-305.5 340.5,-219.33 406.49,-133.36 441,-94.29"/>
<polygon fill="midnightblue" stroke="midnightblue" points="443.76,-96.45 447.85,-86.68 438.56,-91.77 443.76,-96.45"/>
</g>
<!-- Node37&#45;&gt;Node4 -->
<g id="edge55" class="edge">
<title>Node37&#45;&gt;Node4</title>
<path fill="none" stroke="midnightblue" d="M516.06,-64.24C610.64,-53.4 804.93,-31.13 909.74,-19.11"/>
<polygon fill="midnightblue" stroke="midnightblue" points="910.37,-22.56 919.91,-17.95 909.57,-15.61 910.37,-22.56"/>
</g>
<!-- Node37&#45;&gt;Node5 -->
<g id="edge56" class="edge">
<title>Node37&#45;&gt;Node5</title>
<path fill="none" stroke="midnightblue" d="M437.33,-56.4C420.98,-46.86 399.49,-34.32 383.23,-24.84"/>
<polygon fill="midnightblue" stroke="midnightblue" points="384.74,-21.67 374.34,-19.66 381.22,-27.72 384.74,-21.67"/>
</g>
<!-- Node38&#45;&gt;Node13 -->
<g id="edge64" class="edge">
<title>Node38&#45;&gt;Node13</title>
<path fill="none" stroke="midnightblue" d="M1207.57,-296.98C1177.46,-286.68 1126.67,-269.31 1092.86,-257.75"/>
<polygon fill="midnightblue" stroke="midnightblue" points="1093.98,-254.43 1083.38,-254.51 1091.71,-261.06 1093.98,-254.43"/>
</g>
<!-- Node39 -->
<g id="node39" class="node">
<title>Node39</title>
<g id="a_node39"><a xlink:title=" ">
<polygon fill="white" stroke="#bfbfbf" points="1171,-235.5 1171,-254.5 1276,-254.5 1276,-235.5 1171,-235.5"/>
<text text-anchor="middle" x="1223.5" y="-242.5" font-family="Helvetica,sans-Serif" font-size="10.00">odp/api/abi/time.h</text>
</a>
</g>
</g>
<!-- Node38&#45;&gt;Node39 -->
<g id="edge65" class="edge">
<title>Node38&#45;&gt;Node39</title>
<path fill="none" stroke="midnightblue" d="M1231.21,-296.98C1229.94,-288.58 1227.96,-275.48 1226.32,-264.66"/>
<polygon fill="midnightblue" stroke="midnightblue" points="1229.74,-263.87 1224.79,-254.51 1222.82,-264.92 1229.74,-263.87"/>
</g>
<!-- Node40 -->
<g id="node40" class="node">
<title>Node40</title>
<g id="a_node40"><a xlink:href="spec_2time_8h.html" target="_top" xlink:title=" ">
<polygon fill="white" stroke="black" points="611,-62 611,-81 724,-81 724,-62 611,-62"/>
<text text-anchor="middle" x="667.5" y="-69" font-family="Helvetica,sans-Serif" font-size="10.00">odp/api/spec/time.h</text>
</a>
</g>
</g>
<!-- Node38&#45;&gt;Node40 -->
<g id="edge66" class="edge">
<title>Node38&#45;&gt;Node40</title>
<path fill="none" stroke="midnightblue" d="M1220.37,-296.75C1196.51,-279.68 1143.99,-242.93 1123.5,-235 1032.33,-199.72 999.13,-230.27 906.5,-199 820.87,-170.09 728.88,-113.13 688.51,-86.65"/>
<polygon fill="midnightblue" stroke="midnightblue" points="690.32,-83.65 680.05,-81.05 686.45,-89.48 690.32,-83.65"/>
</g>
<!-- Node40&#45;&gt;Node4 -->
<g id="edge67" class="edge">
<title>Node40&#45;&gt;Node4</title>
<path fill="none" stroke="midnightblue" d="M708.77,-61.94C718.51,-59.96 728.87,-57.88 738.5,-56 801.54,-43.7 873.98,-30.33 923.05,-21.39"/>
<polygon fill="midnightblue" stroke="midnightblue" points="923.94,-24.78 933.15,-19.55 922.69,-17.9 923.94,-24.78"/>
</g>
<!-- Node40&#45;&gt;Node5 -->
<g id="edge68" class="edge">
<title>Node40&#45;&gt;Node5</title>
<path fill="none" stroke="midnightblue" d="M626.22,-61.97C616.48,-59.98 606.13,-57.9 596.5,-56 534.55,-43.79 463.36,-30.35 415.3,-21.37"/>
<polygon fill="midnightblue" stroke="midnightblue" points="415.89,-17.92 405.41,-19.52 414.6,-24.8 415.89,-17.92"/>
</g>
<!-- Node44&#45;&gt;Node7 -->
<g id="edge74" class="edge">
<title>Node44&#45;&gt;Node7</title>
<path fill="none" stroke="midnightblue" d="M1408.24,-616.58C1362.27,-605.83 1296.81,-590.52 1248.74,-579.29"/>
<polygon fill="midnightblue" stroke="midnightblue" points="1249.3,-575.82 1238.76,-576.95 1247.7,-582.64 1249.3,-575.82"/>
</g>
<!-- Node44&#45;&gt;Node16 -->
<g id="edge75" class="edge">
<title>Node44&#45;&gt;Node16</title>
<path fill="none" stroke="midnightblue" d="M1471.41,-615.19C1483.32,-592.24 1504.5,-545.48 1504.5,-503 1504.5,-503 1504.5,-503 1504.5,-244 1504.5,-211.49 1512.66,-174.35 1518.28,-152.61"/>
<polygon fill="midnightblue" stroke="midnightblue" points="1521.72,-153.32 1520.94,-142.75 1514.96,-151.5 1521.72,-153.32"/>
</g>
<!-- Node45&#45;&gt;Node16 -->
<g id="edge77" class="edge">
<title>Node45&#45;&gt;Node16</title>
<path fill="none" stroke="midnightblue" d="M1656,-850.49C1644,-829.3 1623.5,-787.51 1623.5,-749 1623.5,-749 1623.5,-749 1623.5,-244 1623.5,-199.98 1579.12,-165.8 1549.49,-147.87"/>
<polygon fill="midnightblue" stroke="midnightblue" points="1550.87,-144.63 1540.46,-142.64 1547.36,-150.68 1550.87,-144.63"/>
</g>
</g>
</svg>
