<?xml version="1.0" encoding="UTF-8" standalone="no"?>
<!DOCTYPE svg PUBLIC "-//W3C//DTD SVG 1.1//EN"
 "http://www.w3.org/Graphics/SVG/1.1/DTD/svg11.dtd">
<!-- Generated by graphviz version 2.43.0 (0)
 -->
<!-- Title: packet_vector_inlines.h Pages: 1 -->
<svg width="761pt" height="151pt"
 viewBox="0.00 0.00 761.00 151.00" xmlns="http://www.w3.org/2000/svg" xmlns:xlink="http://www.w3.org/1999/xlink">
<g id="graph0" class="graph" transform="scale(1 1) rotate(0) translate(4 147)">
<title>packet_vector_inlines.h</title>
<polygon fill="white" stroke="transparent" points="-4,4 -4,-147 757,-147 757,4 -4,4"/>
<!-- Node1 -->
<g id="node1" class="node">
<title>Node1</title>
<g id="a_node1"><a xlink:title=" ">
<polygon fill="#bfbfbf" stroke="black" points="362,-123.5 362,-142.5 493,-142.5 493,-123.5 362,-123.5"/>
<text text-anchor="middle" x="427.5" y="-130.5" font-family="Helvetica,sans-Serif" font-size="10.00">packet_vector_inlines.h</text>
</a>
</g>
</g>
<!-- Node2 -->
<g id="node2" class="node">
<title>Node2</title>
<g id="a_node2"><a xlink:title=" ">
<polygon fill="white" stroke="#bfbfbf" points="0,-62 0,-81 143,-81 143,-62 0,-62"/>
<text text-anchor="middle" x="71.5" y="-69" font-family="Helvetica,sans-Serif" font-size="10.00">odp/api/abi/event_types.h</text>
</a>
</g>
</g>
<!-- Node1&#45;&gt;Node2 -->
<g id="edge1" class="edge">
<title>Node1&#45;&gt;Node2</title>
<path fill="none" stroke="midnightblue" d="M373.97,-123.48C318.52,-114.6 229.39,-100.17 152.5,-87 144.78,-85.68 136.65,-84.26 128.64,-82.84"/>
<polygon fill="midnightblue" stroke="midnightblue" points="129.05,-79.36 118.59,-81.05 127.83,-86.25 129.05,-79.36"/>
</g>
<!-- Node3 -->
<g id="node3" class="node">
<title>Node3</title>
<g id="a_node3"><a xlink:title=" ">
<polygon fill="white" stroke="#bfbfbf" points="161.5,-56.5 161.5,-86.5 267.5,-86.5 267.5,-56.5 161.5,-56.5"/>
<text text-anchor="start" x="169.5" y="-74.5" font-family="Helvetica,sans-Serif" font-size="10.00">odp/api/abi/packet</text>
<text text-anchor="middle" x="214.5" y="-63.5" font-family="Helvetica,sans-Serif" font-size="10.00">_types.h</text>
</a>
</g>
</g>
<!-- Node1&#45;&gt;Node3 -->
<g id="edge2" class="edge">
<title>Node1&#45;&gt;Node3</title>
<path fill="none" stroke="midnightblue" d="M396.98,-123.48C365.1,-114.57 314.27,-100.37 274.34,-89.22"/>
<polygon fill="midnightblue" stroke="midnightblue" points="275.27,-85.84 264.7,-86.52 273.39,-92.58 275.27,-85.84"/>
</g>
<!-- Node4 -->
<g id="node4" class="node">
<title>Node4</title>
<g id="a_node4"><a xlink:title=" ">
<polygon fill="white" stroke="#bfbfbf" points="285.5,-62 285.5,-81 421.5,-81 421.5,-62 285.5,-62"/>
<text text-anchor="middle" x="353.5" y="-69" font-family="Helvetica,sans-Serif" font-size="10.00">odp/api/abi/pool_types.h</text>
</a>
</g>
</g>
<!-- Node1&#45;&gt;Node4 -->
<g id="edge3" class="edge">
<title>Node1&#45;&gt;Node4</title>
<path fill="none" stroke="midnightblue" d="M416.9,-123.48C405.25,-114.11 386.31,-98.88 372.17,-87.51"/>
<polygon fill="midnightblue" stroke="midnightblue" points="374.07,-84.55 364.08,-81.01 369.68,-90 374.07,-84.55"/>
</g>
<!-- Node5 -->
<g id="node5" class="node">
<title>Node5</title>
<g id="a_node5"><a xlink:href="event__vector__inline__types_8h_source.html" target="_top" xlink:title=" ">
<polygon fill="white" stroke="black" points="439.5,-56.5 439.5,-86.5 565.5,-86.5 565.5,-56.5 439.5,-56.5"/>
<text text-anchor="start" x="447.5" y="-74.5" font-family="Helvetica,sans-Serif" font-size="10.00">odp/api/plat/event</text>
<text text-anchor="middle" x="502.5" y="-63.5" font-family="Helvetica,sans-Serif" font-size="10.00">_vector_inline_types.h</text>
</a>
</g>
</g>
<!-- Node1&#45;&gt;Node5 -->
<g id="edge4" class="edge">
<title>Node1&#45;&gt;Node5</title>
<path fill="none" stroke="midnightblue" d="M438.25,-123.48C448.31,-115.49 463.73,-103.25 476.95,-92.77"/>
<polygon fill="midnightblue" stroke="midnightblue" points="479.17,-95.48 484.82,-86.52 474.81,-90 479.17,-95.48"/>
</g>
<!-- Node6 -->
<g id="node6" class="node">
<title>Node6</title>
<g id="a_node6"><a xlink:title=" ">
<polygon fill="white" stroke="#bfbfbf" points="521,-0.5 521,-19.5 574,-19.5 574,-0.5 521,-0.5"/>
<text text-anchor="middle" x="547.5" y="-7.5" font-family="Helvetica,sans-Serif" font-size="10.00">stdint.h</text>
</a>
</g>
</g>
<!-- Node1&#45;&gt;Node6 -->
<g id="edge7" class="edge">
<title>Node1&#45;&gt;Node6</title>
<path fill="none" stroke="midnightblue" d="M493.27,-128.94C523.08,-123.86 555.77,-112.32 574.5,-87 587.71,-69.14 574.18,-44.24 561.98,-27.87"/>
<polygon fill="midnightblue" stroke="midnightblue" points="564.49,-25.4 555.52,-19.76 559.01,-29.76 564.49,-25.4"/>
</g>
<!-- Node7 -->
<g id="node7" class="node">
<title>Node7</title>
<g id="a_node7"><a xlink:href="pool__inline__types_8h.html" target="_top" xlink:title=" ">
<polygon fill="white" stroke="black" points="622,-56.5 622,-86.5 753,-86.5 753,-56.5 622,-56.5"/>
<text text-anchor="start" x="630" y="-74.5" font-family="Helvetica,sans-Serif" font-size="10.00">odp/api/plat/pool_inline</text>
<text text-anchor="middle" x="687.5" y="-63.5" font-family="Helvetica,sans-Serif" font-size="10.00">_types.h</text>
</a>
</g>
</g>
<!-- Node1&#45;&gt;Node7 -->
<g id="edge6" class="edge">
<title>Node1&#45;&gt;Node7</title>
<path fill="none" stroke="midnightblue" d="M464.75,-123.48C504.16,-114.46 567.3,-100.01 616.31,-88.79"/>
<polygon fill="midnightblue" stroke="midnightblue" points="617.26,-92.17 626.22,-86.52 615.69,-85.34 617.26,-92.17"/>
</g>
<!-- Node5&#45;&gt;Node6 -->
<g id="edge5" class="edge">
<title>Node5&#45;&gt;Node6</title>
<path fill="none" stroke="midnightblue" d="M513.16,-56.4C519.64,-47.84 527.93,-36.87 534.75,-27.86"/>
<polygon fill="midnightblue" stroke="midnightblue" points="537.71,-29.74 540.95,-19.66 532.13,-25.52 537.71,-29.74"/>
</g>
</g>
</svg>
