<?xml version="1.0" encoding="UTF-8" standalone="no"?>
<!DOCTYPE svg PUBLIC "-//W3C//DTD SVG 1.1//EN"
 "http://www.w3.org/Graphics/SVG/1.1/DTD/svg11.dtd">
<!-- Generated by graphviz version 2.43.0 (0)
 -->
<!-- Title: packet_io_stats.h Pages: 1 -->
<svg width="719pt" height="621pt"
 viewBox="0.00 0.00 719.00 621.00" xmlns="http://www.w3.org/2000/svg" xmlns:xlink="http://www.w3.org/1999/xlink">
<g id="graph0" class="graph" transform="scale(1 1) rotate(0) translate(4 617)">
<title>packet_io_stats.h</title>
<polygon fill="white" stroke="transparent" points="-4,4 -4,-617 715,-617 715,4 -4,4"/>
<!-- Node1 -->
<g id="node1" class="node">
<title>Node1</title>
<g id="a_node1"><a xlink:title=" ">
<polygon fill="#bfbfbf" stroke="black" points="66.5,-593.5 66.5,-612.5 167.5,-612.5 167.5,-593.5 66.5,-593.5"/>
<text text-anchor="middle" x="117" y="-600.5" font-family="Helvetica,sans-Serif" font-size="10.00">packet_io_stats.h</text>
</a>
</g>
</g>
<!-- Node2 -->
<g id="node2" class="node">
<title>Node2</title>
<g id="a_node2"><a xlink:title=" ">
<polygon fill="white" stroke="#bfbfbf" points="0,-526.5 0,-556.5 106,-556.5 106,-526.5 0,-526.5"/>
<text text-anchor="start" x="8" y="-544.5" font-family="Helvetica,sans-Serif" font-size="10.00">odp/api/abi/packet</text>
<text text-anchor="middle" x="53" y="-533.5" font-family="Helvetica,sans-Serif" font-size="10.00">_io_types.h</text>
</a>
</g>
</g>
<!-- Node1&#45;&gt;Node2 -->
<g id="edge1" class="edge">
<title>Node1&#45;&gt;Node2</title>
<path fill="none" stroke="midnightblue" d="M107.83,-593.48C99.41,-585.64 86.58,-573.71 75.44,-563.37"/>
<polygon fill="midnightblue" stroke="midnightblue" points="77.79,-560.77 68.08,-556.52 73.02,-565.9 77.79,-560.77"/>
</g>
<!-- Node3 -->
<g id="node3" class="node">
<title>Node3</title>
<g id="a_node3"><a xlink:href="spec_2packet__io__stats_8h.html" target="_top" xlink:title=" ">
<polygon fill="white" stroke="black" points="124.5,-526.5 124.5,-556.5 237.5,-556.5 237.5,-526.5 124.5,-526.5"/>
<text text-anchor="start" x="132.5" y="-544.5" font-family="Helvetica,sans-Serif" font-size="10.00">odp/api/spec/packet</text>
<text text-anchor="middle" x="181" y="-533.5" font-family="Helvetica,sans-Serif" font-size="10.00">_io_stats.h</text>
</a>
</g>
</g>
<!-- Node1&#45;&gt;Node3 -->
<g id="edge2" class="edge">
<title>Node1&#45;&gt;Node3</title>
<path fill="none" stroke="midnightblue" d="M126.17,-593.48C134.59,-585.64 147.42,-573.71 158.56,-563.37"/>
<polygon fill="midnightblue" stroke="midnightblue" points="160.98,-565.9 165.92,-556.52 156.21,-560.77 160.98,-565.9"/>
</g>
<!-- Node4 -->
<g id="node4" class="node">
<title>Node4</title>
<g id="a_node4"><a xlink:title=" ">
<polygon fill="white" stroke="#bfbfbf" points="89.5,-0.5 89.5,-19.5 210.5,-19.5 210.5,-0.5 89.5,-0.5"/>
<text text-anchor="middle" x="150" y="-7.5" font-family="Helvetica,sans-Serif" font-size="10.00">odp/visibility_begin.h</text>
</a>
</g>
</g>
<!-- Node3&#45;&gt;Node4 -->
<g id="edge3" class="edge">
<title>Node3&#45;&gt;Node4</title>
<path fill="none" stroke="midnightblue" d="M126.9,-526.41C93.15,-516.61 53.94,-503 42,-490 20.05,-466.1 23,-451.95 23,-419.5 23,-419.5 23,-419.5 23,-121 23,-71.87 77.99,-39.77 115.6,-23.56"/>
<polygon fill="midnightblue" stroke="midnightblue" points="117.3,-26.64 125.21,-19.59 114.63,-20.17 117.3,-26.64"/>
</g>
<!-- Node5 -->
<g id="node5" class="node">
<title>Node5</title>
<g id="a_node5"><a xlink:href="deprecated_8h.html" target="_top" xlink:title=" ">
<polygon fill="white" stroke="black" points="51.5,-470.5 51.5,-489.5 170.5,-489.5 170.5,-470.5 51.5,-470.5"/>
<text text-anchor="middle" x="111" y="-477.5" font-family="Helvetica,sans-Serif" font-size="10.00">odp/api/deprecated.h</text>
</a>
</g>
</g>
<!-- Node3&#45;&gt;Node5 -->
<g id="edge4" class="edge">
<title>Node3&#45;&gt;Node5</title>
<path fill="none" stroke="midnightblue" d="M164.41,-526.4C153.71,-517.31 139.81,-505.49 128.87,-496.19"/>
<polygon fill="midnightblue" stroke="midnightblue" points="131.07,-493.47 121.19,-489.66 126.54,-498.8 131.07,-493.47"/>
</g>
<!-- Node7 -->
<g id="node7" class="node">
<title>Node7</title>
<g id="a_node7"><a xlink:title=" ">
<polygon fill="white" stroke="#bfbfbf" points="560,-0.5 560,-19.5 672,-19.5 672,-0.5 560,-0.5"/>
<text text-anchor="middle" x="616" y="-7.5" font-family="Helvetica,sans-Serif" font-size="10.00">odp/visibility_end.h</text>
</a>
</g>
</g>
<!-- Node3&#45;&gt;Node7 -->
<g id="edge29" class="edge">
<title>Node3&#45;&gt;Node7</title>
<path fill="none" stroke="midnightblue" d="M237.72,-539.47C374.44,-535.45 711,-515.77 711,-419.5 711,-419.5 711,-419.5 711,-121 711,-77.74 668.39,-43.09 640.25,-24.91"/>
<polygon fill="midnightblue" stroke="midnightblue" points="642.03,-21.9 631.69,-19.6 638.34,-27.85 642.03,-21.9"/>
</g>
<!-- Node8 -->
<g id="node8" class="node">
<title>Node8</title>
<g id="a_node8"><a xlink:href="queue__types_8h.html" target="_top" xlink:title=" ">
<polygon fill="white" stroke="black" points="188.5,-470.5 188.5,-489.5 315.5,-489.5 315.5,-470.5 188.5,-470.5"/>
<text text-anchor="middle" x="252" y="-477.5" font-family="Helvetica,sans-Serif" font-size="10.00">odp/api/queue_types.h</text>
</a>
</g>
</g>
<!-- Node3&#45;&gt;Node8 -->
<g id="edge8" class="edge">
<title>Node3&#45;&gt;Node8</title>
<path fill="none" stroke="midnightblue" d="M197.83,-526.4C208.67,-517.31 222.78,-505.49 233.87,-496.19"/>
<polygon fill="midnightblue" stroke="midnightblue" points="236.25,-498.76 241.67,-489.66 231.76,-493.4 236.25,-498.76"/>
</g>
<!-- Node6 -->
<g id="node6" class="node">
<title>Node6</title>
<g id="a_node6"><a xlink:href="spec_2deprecated_8h.html" target="_top" xlink:title=" ">
<polygon fill="white" stroke="black" points="127.5,-56.5 127.5,-75.5 272.5,-75.5 272.5,-56.5 127.5,-56.5"/>
<text text-anchor="middle" x="200" y="-63.5" font-family="Helvetica,sans-Serif" font-size="10.00">odp/api/spec/deprecated.h</text>
</a>
</g>
</g>
<!-- Node5&#45;&gt;Node6 -->
<g id="edge5" class="edge">
<title>Node5&#45;&gt;Node6</title>
<path fill="none" stroke="midnightblue" d="M109.53,-470.22C106.32,-450.32 99,-400.22 99,-358 99,-358 99,-358 99,-233 99,-169.48 153.64,-109.59 182.54,-82.36"/>
<polygon fill="midnightblue" stroke="midnightblue" points="184.94,-84.91 189.95,-75.57 180.21,-79.75 184.94,-84.91"/>
</g>
<!-- Node6&#45;&gt;Node4 -->
<g id="edge6" class="edge">
<title>Node6&#45;&gt;Node4</title>
<path fill="none" stroke="midnightblue" d="M191.74,-56.08C184.54,-48.3 173.89,-36.8 165.15,-27.37"/>
<polygon fill="midnightblue" stroke="midnightblue" points="167.47,-24.71 158.1,-19.75 162.33,-29.47 167.47,-24.71"/>
</g>
<!-- Node6&#45;&gt;Node7 -->
<g id="edge7" class="edge">
<title>Node6&#45;&gt;Node7</title>
<path fill="none" stroke="midnightblue" d="M265.92,-56.44C343.53,-46.37 471.71,-29.73 549.56,-19.62"/>
<polygon fill="midnightblue" stroke="midnightblue" points="550.26,-23.06 559.73,-18.3 549.36,-16.12 550.26,-23.06"/>
</g>
<!-- Node9 -->
<g id="node9" class="node">
<title>Node9</title>
<g id="a_node9"><a xlink:title=" ">
<polygon fill="white" stroke="#bfbfbf" points="153.5,-409 153.5,-428 298.5,-428 298.5,-409 153.5,-409"/>
<text text-anchor="middle" x="226" y="-416" font-family="Helvetica,sans-Serif" font-size="10.00">odp/api/abi/queue_types.h</text>
</a>
</g>
</g>
<!-- Node8&#45;&gt;Node9 -->
<g id="edge9" class="edge">
<title>Node8&#45;&gt;Node9</title>
<path fill="none" stroke="midnightblue" d="M248.27,-470.48C244.53,-461.9 238.64,-448.43 233.86,-437.48"/>
<polygon fill="midnightblue" stroke="midnightblue" points="236.93,-435.77 229.72,-428.01 230.52,-438.57 236.93,-435.77"/>
</g>
<!-- Node10 -->
<g id="node10" class="node">
<title>Node10</title>
<g id="a_node10"><a xlink:href="spec_2queue__types_8h.html" target="_top" xlink:title=" ">
<polygon fill="white" stroke="black" points="316.5,-403.5 316.5,-433.5 427.5,-433.5 427.5,-403.5 316.5,-403.5"/>
<text text-anchor="start" x="324.5" y="-421.5" font-family="Helvetica,sans-Serif" font-size="10.00">odp/api/spec/queue</text>
<text text-anchor="middle" x="372" y="-410.5" font-family="Helvetica,sans-Serif" font-size="10.00">_types.h</text>
</a>
</g>
</g>
<!-- Node8&#45;&gt;Node10 -->
<g id="edge10" class="edge">
<title>Node8&#45;&gt;Node10</title>
<path fill="none" stroke="midnightblue" d="M269.19,-470.48C286.2,-462.04 312.8,-448.86 334.67,-438.01"/>
<polygon fill="midnightblue" stroke="midnightblue" points="336.31,-441.1 343.72,-433.52 333.2,-434.83 336.31,-441.1"/>
</g>
<!-- Node10&#45;&gt;Node4 -->
<g id="edge11" class="edge">
<title>Node10&#45;&gt;Node4</title>
<path fill="none" stroke="midnightblue" d="M319.24,-403.47C230.51,-376.31 61,-307.6 61,-179 61,-179 61,-179 61,-121 61,-78.85 100.99,-43.78 127.36,-25.24"/>
<polygon fill="midnightblue" stroke="midnightblue" points="129.38,-28.1 135.7,-19.6 125.46,-22.3 129.38,-28.1"/>
</g>
<!-- Node10&#45;&gt;Node7 -->
<g id="edge28" class="edge">
<title>Node10&#45;&gt;Node7</title>
<path fill="none" stroke="midnightblue" d="M427.56,-406.98C514.53,-388.91 673,-348.81 673,-296.5 673,-296.5 673,-296.5 673,-121 673,-84.3 647.68,-47.66 630.79,-27.3"/>
<polygon fill="midnightblue" stroke="midnightblue" points="633.35,-24.9 624.17,-19.62 628.05,-29.48 633.35,-24.9"/>
</g>
<!-- Node11 -->
<g id="node11" class="node">
<title>Node11</title>
<g id="a_node11"><a xlink:href="schedule__types_8h.html" target="_top" xlink:title=" ">
<polygon fill="white" stroke="black" points="302,-347.5 302,-366.5 442,-366.5 442,-347.5 302,-347.5"/>
<text text-anchor="middle" x="372" y="-354.5" font-family="Helvetica,sans-Serif" font-size="10.00">odp/api/schedule_types.h</text>
</a>
</g>
</g>
<!-- Node10&#45;&gt;Node11 -->
<g id="edge12" class="edge">
<title>Node10&#45;&gt;Node11</title>
<path fill="none" stroke="midnightblue" d="M372,-403.4C372,-395.47 372,-385.46 372,-376.86"/>
<polygon fill="midnightblue" stroke="midnightblue" points="375.5,-376.66 372,-366.66 368.5,-376.66 375.5,-376.66"/>
</g>
<!-- Node12 -->
<g id="node12" class="node">
<title>Node12</title>
<g id="a_node12"><a xlink:title=" ">
<polygon fill="white" stroke="#bfbfbf" points="253.5,-280.5 253.5,-310.5 370.5,-310.5 370.5,-280.5 253.5,-280.5"/>
<text text-anchor="start" x="261.5" y="-298.5" font-family="Helvetica,sans-Serif" font-size="10.00">odp/api/abi/schedule</text>
<text text-anchor="middle" x="312" y="-287.5" font-family="Helvetica,sans-Serif" font-size="10.00">_types.h</text>
</a>
</g>
</g>
<!-- Node11&#45;&gt;Node12 -->
<g id="edge13" class="edge">
<title>Node11&#45;&gt;Node12</title>
<path fill="none" stroke="midnightblue" d="M363.4,-347.48C355.58,-339.72 343.71,-327.94 333.34,-317.66"/>
<polygon fill="midnightblue" stroke="midnightblue" points="335.71,-315.08 326.14,-310.52 330.78,-320.05 335.71,-315.08"/>
</g>
<!-- Node13 -->
<g id="node13" class="node">
<title>Node13</title>
<g id="a_node13"><a xlink:href="spec_2schedule__types_8h.html" target="_top" xlink:title=" ">
<polygon fill="white" stroke="black" points="388.5,-280.5 388.5,-310.5 513.5,-310.5 513.5,-280.5 388.5,-280.5"/>
<text text-anchor="start" x="396.5" y="-298.5" font-family="Helvetica,sans-Serif" font-size="10.00">odp/api/spec/schedule</text>
<text text-anchor="middle" x="451" y="-287.5" font-family="Helvetica,sans-Serif" font-size="10.00">_types.h</text>
</a>
</g>
</g>
<!-- Node11&#45;&gt;Node13 -->
<g id="edge14" class="edge">
<title>Node11&#45;&gt;Node13</title>
<path fill="none" stroke="midnightblue" d="M383.32,-347.48C393.92,-339.49 410.17,-327.25 424.09,-316.77"/>
<polygon fill="midnightblue" stroke="midnightblue" points="426.5,-319.33 432.38,-310.52 422.29,-313.74 426.5,-319.33"/>
</g>
<!-- Node13&#45;&gt;Node4 -->
<g id="edge15" class="edge">
<title>Node13&#45;&gt;Node4</title>
<path fill="none" stroke="midnightblue" d="M405.59,-280.4C329.95,-254.16 180.39,-189.89 119,-76 110.16,-59.59 122.12,-40.26 133.66,-26.96"/>
<polygon fill="midnightblue" stroke="midnightblue" points="136.32,-29.24 140.6,-19.55 131.21,-24.46 136.32,-29.24"/>
</g>
<!-- Node13&#45;&gt;Node7 -->
<g id="edge27" class="edge">
<title>Node13&#45;&gt;Node7</title>
<path fill="none" stroke="midnightblue" d="M513.55,-282.26C566.89,-267.76 635,-237.74 635,-179 635,-179 635,-179 635,-121 635,-88.49 626.84,-51.35 621.22,-29.61"/>
<polygon fill="midnightblue" stroke="midnightblue" points="624.54,-28.5 618.56,-19.75 617.78,-30.32 624.54,-28.5"/>
</g>
<!-- Node14 -->
<g id="node14" class="node">
<title>Node14</title>
<g id="a_node14"><a xlink:href="std__types_8h.html" target="_top" xlink:title=" ">
<polygon fill="white" stroke="black" points="395,-224.5 395,-243.5 507,-243.5 507,-224.5 395,-224.5"/>
<text text-anchor="middle" x="451" y="-231.5" font-family="Helvetica,sans-Serif" font-size="10.00">odp/api/std_types.h</text>
</a>
</g>
</g>
<!-- Node13&#45;&gt;Node14 -->
<g id="edge16" class="edge">
<title>Node13&#45;&gt;Node14</title>
<path fill="none" stroke="midnightblue" d="M451,-280.4C451,-272.47 451,-262.46 451,-253.86"/>
<polygon fill="midnightblue" stroke="midnightblue" points="454.5,-253.66 451,-243.66 447.5,-253.66 454.5,-253.66"/>
</g>
<!-- Node15 -->
<g id="node15" class="node">
<title>Node15</title>
<g id="a_node15"><a xlink:title=" ">
<polygon fill="white" stroke="#bfbfbf" points="475,-168.5 475,-187.5 605,-187.5 605,-168.5 475,-168.5"/>
<text text-anchor="middle" x="540" y="-175.5" font-family="Helvetica,sans-Serif" font-size="10.00">odp/api/abi/std_types.h</text>
</a>
</g>
</g>
<!-- Node14&#45;&gt;Node15 -->
<g id="edge17" class="edge">
<title>Node14&#45;&gt;Node15</title>
<path fill="none" stroke="midnightblue" d="M465.3,-224.32C479.18,-215.9 500.49,-202.97 516.8,-193.07"/>
<polygon fill="midnightblue" stroke="midnightblue" points="519,-195.83 525.74,-187.65 515.37,-189.85 519,-195.83"/>
</g>
<!-- Node16 -->
<g id="node16" class="node">
<title>Node16</title>
<g id="a_node16"><a xlink:href="spec_2std__types_8h.html" target="_top" xlink:title=" ">
<polygon fill="white" stroke="black" points="319.5,-168.5 319.5,-187.5 456.5,-187.5 456.5,-168.5 319.5,-168.5"/>
<text text-anchor="middle" x="388" y="-175.5" font-family="Helvetica,sans-Serif" font-size="10.00">odp/api/spec/std_types.h</text>
</a>
</g>
</g>
<!-- Node14&#45;&gt;Node16 -->
<g id="edge18" class="edge">
<title>Node14&#45;&gt;Node16</title>
<path fill="none" stroke="midnightblue" d="M440.88,-224.32C431.47,-216.26 417.26,-204.08 405.93,-194.37"/>
<polygon fill="midnightblue" stroke="midnightblue" points="408.18,-191.68 398.31,-187.83 403.62,-197 408.18,-191.68"/>
</g>
<!-- Node16&#45;&gt;Node4 -->
<g id="edge19" class="edge">
<title>Node16&#45;&gt;Node4</title>
<path fill="none" stroke="midnightblue" d="M375.58,-168.21C364.06,-159.71 346.81,-146.08 334,-132 306.46,-101.72 314.59,-80.76 282,-56 260.4,-39.59 232.41,-28.92 207.77,-22.12"/>
<polygon fill="midnightblue" stroke="midnightblue" points="208.37,-18.65 197.81,-19.52 206.6,-25.43 208.37,-18.65"/>
</g>
<!-- Node16&#45;&gt;Node7 -->
<g id="edge26" class="edge">
<title>Node16&#45;&gt;Node7</title>
<path fill="none" stroke="midnightblue" d="M421.26,-168.43C447.06,-160.98 483.18,-148.73 512,-132 545.27,-112.69 553.27,-105.47 578,-76 590.19,-61.48 600.76,-42.55 607.64,-28.87"/>
<polygon fill="midnightblue" stroke="midnightblue" points="610.93,-30.11 612.14,-19.59 604.63,-27.05 610.93,-30.11"/>
</g>
<!-- Node17 -->
<g id="node17" class="node">
<title>Node17</title>
<g id="a_node17"><a xlink:title=" ">
<polygon fill="white" stroke="#bfbfbf" points="449.5,-112.5 449.5,-131.5 502.5,-131.5 502.5,-112.5 449.5,-112.5"/>
<text text-anchor="middle" x="476" y="-119.5" font-family="Helvetica,sans-Serif" font-size="10.00">stdint.h</text>
</a>
</g>
</g>
<!-- Node16&#45;&gt;Node17 -->
<g id="edge20" class="edge">
<title>Node16&#45;&gt;Node17</title>
<path fill="none" stroke="midnightblue" d="M402.14,-168.32C415.87,-159.9 436.94,-146.97 453.06,-137.07"/>
<polygon fill="midnightblue" stroke="midnightblue" points="455.2,-139.87 461.9,-131.65 451.54,-133.9 455.2,-139.87"/>
</g>
<!-- Node18 -->
<g id="node18" class="node">
<title>Node18</title>
<g id="a_node18"><a xlink:href="align_8h.html" target="_top" xlink:title=" ">
<polygon fill="white" stroke="black" points="342.5,-112.5 342.5,-131.5 431.5,-131.5 431.5,-112.5 342.5,-112.5"/>
<text text-anchor="middle" x="387" y="-119.5" font-family="Helvetica,sans-Serif" font-size="10.00">odp/api/align.h</text>
</a>
</g>
</g>
<!-- Node16&#45;&gt;Node18 -->
<g id="edge21" class="edge">
<title>Node16&#45;&gt;Node18</title>
<path fill="none" stroke="midnightblue" d="M387.83,-168.08C387.7,-161.01 387.52,-150.86 387.35,-141.99"/>
<polygon fill="midnightblue" stroke="midnightblue" points="390.85,-141.68 387.16,-131.75 383.85,-141.81 390.85,-141.68"/>
</g>
<!-- Node19 -->
<g id="node19" class="node">
<title>Node19</title>
<g id="a_node19"><a xlink:title=" ">
<polygon fill="white" stroke="#bfbfbf" points="461.5,-56.5 461.5,-75.5 568.5,-75.5 568.5,-56.5 461.5,-56.5"/>
<text text-anchor="middle" x="515" y="-63.5" font-family="Helvetica,sans-Serif" font-size="10.00">odp/api/abi/align.h</text>
</a>
</g>
</g>
<!-- Node18&#45;&gt;Node19 -->
<g id="edge22" class="edge">
<title>Node18&#45;&gt;Node19</title>
<path fill="none" stroke="midnightblue" d="M407.28,-112.44C428.35,-103.56 461.52,-89.56 485.49,-79.45"/>
<polygon fill="midnightblue" stroke="midnightblue" points="486.96,-82.63 494.81,-75.52 484.24,-76.18 486.96,-82.63"/>
</g>
<!-- Node20 -->
<g id="node20" class="node">
<title>Node20</title>
<g id="a_node20"><a xlink:href="spec_2align_8h.html" target="_top" xlink:title=" ">
<polygon fill="white" stroke="black" points="329,-56.5 329,-75.5 443,-75.5 443,-56.5 329,-56.5"/>
<text text-anchor="middle" x="386" y="-63.5" font-family="Helvetica,sans-Serif" font-size="10.00">odp/api/spec/align.h</text>
</a>
</g>
</g>
<!-- Node18&#45;&gt;Node20 -->
<g id="edge23" class="edge">
<title>Node18&#45;&gt;Node20</title>
<path fill="none" stroke="midnightblue" d="M386.83,-112.08C386.7,-105.01 386.52,-94.86 386.35,-85.99"/>
<polygon fill="midnightblue" stroke="midnightblue" points="389.85,-85.68 386.16,-75.75 382.85,-85.81 389.85,-85.68"/>
</g>
<!-- Node20&#45;&gt;Node4 -->
<g id="edge24" class="edge">
<title>Node20&#45;&gt;Node4</title>
<path fill="none" stroke="midnightblue" d="M348.61,-56.44C307.61,-47.06 241.75,-31.99 197.22,-21.8"/>
<polygon fill="midnightblue" stroke="midnightblue" points="197.75,-18.34 187.22,-19.52 196.19,-25.16 197.75,-18.34"/>
</g>
<!-- Node20&#45;&gt;Node7 -->
<g id="edge25" class="edge">
<title>Node20&#45;&gt;Node7</title>
<path fill="none" stroke="midnightblue" d="M422.44,-56.44C462.4,-47.06 526.59,-31.99 569.98,-21.8"/>
<polygon fill="midnightblue" stroke="midnightblue" points="570.79,-25.21 579.73,-19.52 569.19,-18.39 570.79,-25.21"/>
</g>
</g>
</svg>
