<?xml version="1.0" encoding="UTF-8" standalone="no"?>
<!DOCTYPE svg PUBLIC "-//W3C//DTD SVG 1.1//EN"
 "http://www.w3.org/Graphics/SVG/1.1/DTD/svg11.dtd">
<!-- Generated by graphviz version 2.43.0 (0)
 -->
<!-- Title: packet_io_stats.h Pages: 1 -->
<svg width="391pt" height="364pt"
 viewBox="0.00 0.00 390.50 364.00" xmlns="http://www.w3.org/2000/svg" xmlns:xlink="http://www.w3.org/1999/xlink">
<g id="graph0" class="graph" transform="scale(1 1) rotate(0) translate(4 360)">
<title>packet_io_stats.h</title>
<polygon fill="white" stroke="transparent" points="-4,4 -4,-360 386.5,-360 386.5,4 -4,4"/>
<!-- Node1 -->
<g id="node1" class="node">
<title>Node1</title>
<g id="a_node1"><a xlink:title=" ">
<polygon fill="#bfbfbf" stroke="black" points="0,-336.5 0,-355.5 101,-355.5 101,-336.5 0,-336.5"/>
<text text-anchor="middle" x="50.5" y="-343.5" font-family="Helvetica,sans-Serif" font-size="10.00">packet_io_stats.h</text>
</a>
</g>
</g>
<!-- Node2 -->
<g id="node2" class="node">
<title>Node2</title>
<g id="a_node2"><a xlink:href="spec_2packet__io_8h.html" target="_top" xlink:title=" ">
<polygon fill="white" stroke="black" points="12.5,-56.5 12.5,-75.5 84.5,-75.5 84.5,-56.5 12.5,-56.5"/>
<text text-anchor="middle" x="48.5" y="-63.5" font-family="Helvetica,sans-Serif" font-size="10.00">packet_io.h</text>
</a>
</g>
</g>
<!-- Node1&#45;&gt;Node2 -->
<g id="edge1" class="edge">
<title>Node1&#45;&gt;Node2</title>
<path fill="none" stroke="midnightblue" d="M39.82,-327.5C27.97,-306.37 10.5,-269.38 10.5,-235 10.5,-235 10.5,-235 10.5,-177 10.5,-137.4 32.77,-93.96 43.22,-75.77"/>
<polygon fill="midnightblue" stroke="midnightblue" points="36.88,-329.39 44.94,-336.27 42.92,-325.87 36.88,-329.39"/>
</g>
<!-- Node4 -->
<g id="node4" class="node">
<title>Node4</title>
<g id="a_node4"><a xlink:href="spec_2packet__io__types_8h.html" target="_top" xlink:title=" ">
<polygon fill="white" stroke="black" points="53.5,-280.5 53.5,-299.5 157.5,-299.5 157.5,-280.5 53.5,-280.5"/>
<text text-anchor="middle" x="105.5" y="-287.5" font-family="Helvetica,sans-Serif" font-size="10.00">packet_io_types.h</text>
</a>
</g>
</g>
<!-- Node1&#45;&gt;Node4 -->
<g id="edge3" class="edge">
<title>Node1&#45;&gt;Node4</title>
<path fill="none" stroke="midnightblue" d="M66.79,-329C76.54,-319.43 88.55,-307.64 96.59,-299.75"/>
<polygon fill="midnightblue" stroke="midnightblue" points="64.27,-326.58 59.58,-336.08 69.17,-331.57 64.27,-326.58"/>
</g>
<!-- Node3 -->
<g id="node3" class="node">
<title>Node3</title>
<g id="a_node3"><a xlink:href="packet__io_8h.html" target="_top" xlink:title=" ">
<polygon fill="white" stroke="black" points="12.5,-0.5 12.5,-19.5 84.5,-19.5 84.5,-0.5 12.5,-0.5"/>
<text text-anchor="middle" x="48.5" y="-7.5" font-family="Helvetica,sans-Serif" font-size="10.00">packet_io.h</text>
</a>
</g>
</g>
<!-- Node2&#45;&gt;Node3 -->
<g id="edge2" class="edge">
<title>Node2&#45;&gt;Node3</title>
<path fill="none" stroke="midnightblue" d="M48.5,-45.8C48.5,-36.91 48.5,-26.78 48.5,-19.75"/>
<polygon fill="midnightblue" stroke="midnightblue" points="45,-46.08 48.5,-56.08 52,-46.08 45,-46.08"/>
</g>
<!-- Node5 -->
<g id="node5" class="node">
<title>Node5</title>
<g id="a_node5"><a xlink:href="packet__io__types_8h.html" target="_top" xlink:title=" ">
<polygon fill="white" stroke="black" points="105.5,-224.5 105.5,-243.5 209.5,-243.5 209.5,-224.5 105.5,-224.5"/>
<text text-anchor="middle" x="157.5" y="-231.5" font-family="Helvetica,sans-Serif" font-size="10.00">packet_io_types.h</text>
</a>
</g>
</g>
<!-- Node4&#45;&gt;Node5 -->
<g id="edge4" class="edge">
<title>Node4&#45;&gt;Node5</title>
<path fill="none" stroke="midnightblue" d="M121.18,-272.72C130.34,-263.2 141.55,-251.56 149.07,-243.75"/>
<polygon fill="midnightblue" stroke="midnightblue" points="118.5,-270.45 114.09,-280.08 123.54,-275.31 118.5,-270.45"/>
</g>
<!-- Node5&#45;&gt;Node2 -->
<g id="edge13" class="edge">
<title>Node5&#45;&gt;Node2</title>
<path fill="none" stroke="midnightblue" d="M113.52,-220.67C96.62,-213.75 78.71,-203.32 67.5,-188 41.89,-152.99 45.03,-96.94 47.36,-75.62"/>
<polygon fill="midnightblue" stroke="midnightblue" points="112.71,-224.1 123.3,-224.35 115.17,-217.55 112.71,-224.1"/>
</g>
<!-- Node6 -->
<g id="node6" class="node">
<title>Node6</title>
<g id="a_node6"><a xlink:href="spec_2classification_8h.html" target="_top" xlink:title=" ">
<polygon fill="white" stroke="black" points="77,-168.5 77,-187.5 166,-187.5 166,-168.5 77,-168.5"/>
<text text-anchor="middle" x="121.5" y="-175.5" font-family="Helvetica,sans-Serif" font-size="10.00">classification.h</text>
</a>
</g>
</g>
<!-- Node5&#45;&gt;Node6 -->
<g id="edge5" class="edge">
<title>Node5&#45;&gt;Node6</title>
<path fill="none" stroke="midnightblue" d="M145.88,-215.57C139.68,-206.27 132.33,-195.25 127.33,-187.75"/>
<polygon fill="midnightblue" stroke="midnightblue" points="143.1,-217.7 151.56,-224.08 148.92,-213.82 143.1,-217.7"/>
</g>
<!-- Node8 -->
<g id="node8" class="node">
<title>Node8</title>
<g id="a_node8"><a xlink:href="spec_2ipsec_8h.html" target="_top" xlink:title=" ">
<polygon fill="white" stroke="black" points="169,-56.5 169,-75.5 220,-75.5 220,-56.5 169,-56.5"/>
<text text-anchor="middle" x="194.5" y="-63.5" font-family="Helvetica,sans-Serif" font-size="10.00">ipsec.h</text>
</a>
</g>
</g>
<!-- Node5&#45;&gt;Node8 -->
<g id="edge10" class="edge">
<title>Node5&#45;&gt;Node8</title>
<path fill="none" stroke="midnightblue" d="M165.35,-214.71C168.56,-206.65 172.09,-196.97 174.5,-188 185.61,-146.67 191.6,-95.65 193.67,-75.63"/>
<polygon fill="midnightblue" stroke="midnightblue" points="162.01,-213.63 161.42,-224.21 168.48,-216.31 162.01,-213.63"/>
</g>
<!-- Node10 -->
<g id="node10" class="node">
<title>Node10</title>
<g id="a_node10"><a xlink:href="spec_2packet_8h.html" target="_top" xlink:title=" ">
<polygon fill="white" stroke="black" points="222.5,-168.5 222.5,-187.5 280.5,-187.5 280.5,-168.5 222.5,-168.5"/>
<text text-anchor="middle" x="251.5" y="-175.5" font-family="Helvetica,sans-Serif" font-size="10.00">packet.h</text>
</a>
</g>
</g>
<!-- Node5&#45;&gt;Node10 -->
<g id="edge11" class="edge">
<title>Node5&#45;&gt;Node10</title>
<path fill="none" stroke="midnightblue" d="M181.56,-219.18C198.86,-209.24 221.65,-196.15 236.43,-187.65"/>
<polygon fill="midnightblue" stroke="midnightblue" points="179.53,-216.31 172.6,-224.32 183.02,-222.38 179.53,-216.31"/>
</g>
<!-- Node12 -->
<g id="node12" class="node">
<title>Node12</title>
<g id="a_node12"><a xlink:href="spec_2traffic__mngr_8h.html" target="_top" xlink:title=" ">
<polygon fill="white" stroke="black" points="298.5,-168.5 298.5,-187.5 382.5,-187.5 382.5,-168.5 298.5,-168.5"/>
<text text-anchor="middle" x="340.5" y="-175.5" font-family="Helvetica,sans-Serif" font-size="10.00">traffic_mngr.h</text>
</a>
</g>
</g>
<!-- Node5&#45;&gt;Node12 -->
<g id="edge14" class="edge">
<title>Node5&#45;&gt;Node12</title>
<path fill="none" stroke="midnightblue" d="M196.24,-221.57C230.76,-211.38 280.51,-196.7 311.64,-187.52"/>
<polygon fill="midnightblue" stroke="midnightblue" points="195.1,-218.26 186.5,-224.44 197.08,-224.97 195.1,-218.26"/>
</g>
<!-- Node7 -->
<g id="node7" class="node">
<title>Node7</title>
<g id="a_node7"><a xlink:href="classification_8h.html" target="_top" xlink:title=" ">
<polygon fill="white" stroke="black" points="77,-112.5 77,-131.5 166,-131.5 166,-112.5 77,-112.5"/>
<text text-anchor="middle" x="121.5" y="-119.5" font-family="Helvetica,sans-Serif" font-size="10.00">classification.h</text>
</a>
</g>
</g>
<!-- Node6&#45;&gt;Node7 -->
<g id="edge6" class="edge">
<title>Node6&#45;&gt;Node7</title>
<path fill="none" stroke="midnightblue" d="M121.5,-157.8C121.5,-148.91 121.5,-138.78 121.5,-131.75"/>
<polygon fill="midnightblue" stroke="midnightblue" points="118,-158.08 121.5,-168.08 125,-158.08 118,-158.08"/>
</g>
<!-- Node7&#45;&gt;Node2 -->
<g id="edge9" class="edge">
<title>Node7&#45;&gt;Node2</title>
<path fill="none" stroke="midnightblue" d="M101.36,-106.1C88.22,-96.38 71.52,-84.03 60.44,-75.83"/>
<polygon fill="midnightblue" stroke="midnightblue" points="99.65,-109.19 109.77,-112.32 103.81,-103.56 99.65,-109.19"/>
</g>
<!-- Node7&#45;&gt;Node8 -->
<g id="edge7" class="edge">
<title>Node7&#45;&gt;Node8</title>
<path fill="none" stroke="midnightblue" d="M141.64,-106.1C154.78,-96.38 171.48,-84.03 182.56,-75.83"/>
<polygon fill="midnightblue" stroke="midnightblue" points="139.19,-103.56 133.23,-112.32 143.35,-109.19 139.19,-103.56"/>
</g>
<!-- Node9 -->
<g id="node9" class="node">
<title>Node9</title>
<g id="a_node9"><a xlink:href="ipsec_8h.html" target="_top" xlink:title=" ">
<polygon fill="white" stroke="black" points="169,-0.5 169,-19.5 220,-19.5 220,-0.5 169,-0.5"/>
<text text-anchor="middle" x="194.5" y="-7.5" font-family="Helvetica,sans-Serif" font-size="10.00">ipsec.h</text>
</a>
</g>
</g>
<!-- Node8&#45;&gt;Node9 -->
<g id="edge8" class="edge">
<title>Node8&#45;&gt;Node9</title>
<path fill="none" stroke="midnightblue" d="M194.5,-45.8C194.5,-36.91 194.5,-26.78 194.5,-19.75"/>
<polygon fill="midnightblue" stroke="midnightblue" points="191,-46.08 194.5,-56.08 198,-46.08 191,-46.08"/>
</g>
<!-- Node11 -->
<g id="node11" class="node">
<title>Node11</title>
<g id="a_node11"><a xlink:href="packet_8h.html" target="_top" xlink:title=" ">
<polygon fill="white" stroke="black" points="222.5,-112.5 222.5,-131.5 280.5,-131.5 280.5,-112.5 222.5,-112.5"/>
<text text-anchor="middle" x="251.5" y="-119.5" font-family="Helvetica,sans-Serif" font-size="10.00">packet.h</text>
</a>
</g>
</g>
<!-- Node10&#45;&gt;Node11 -->
<g id="edge12" class="edge">
<title>Node10&#45;&gt;Node11</title>
<path fill="none" stroke="midnightblue" d="M251.5,-157.8C251.5,-148.91 251.5,-138.78 251.5,-131.75"/>
<polygon fill="midnightblue" stroke="midnightblue" points="248,-158.08 251.5,-168.08 255,-158.08 248,-158.08"/>
</g>
<!-- Node13 -->
<g id="node13" class="node">
<title>Node13</title>
<g id="a_node13"><a xlink:href="traffic__mngr_8h.html" target="_top" xlink:title=" ">
<polygon fill="white" stroke="black" points="298.5,-112.5 298.5,-131.5 382.5,-131.5 382.5,-112.5 298.5,-112.5"/>
<text text-anchor="middle" x="340.5" y="-119.5" font-family="Helvetica,sans-Serif" font-size="10.00">traffic_mngr.h</text>
</a>
</g>
</g>
<!-- Node12&#45;&gt;Node13 -->
<g id="edge15" class="edge">
<title>Node12&#45;&gt;Node13</title>
<path fill="none" stroke="midnightblue" d="M340.5,-157.8C340.5,-148.91 340.5,-138.78 340.5,-131.75"/>
<polygon fill="midnightblue" stroke="midnightblue" points="337,-158.08 340.5,-168.08 344,-158.08 337,-158.08"/>
</g>
<!-- Node13&#45;&gt;Node8 -->
<g id="edge16" class="edge">
<title>Node13&#45;&gt;Node8</title>
<path fill="none" stroke="midnightblue" d="M307.8,-108.91C280.35,-98.75 241.83,-84.51 217.53,-75.52"/>
<polygon fill="midnightblue" stroke="midnightblue" points="306.77,-112.26 317.37,-112.44 309.2,-105.69 306.77,-112.26"/>
</g>
</g>
</svg>
