<?xml version="1.0" encoding="UTF-8" standalone="no"?>
<!DOCTYPE svg PUBLIC "-//W3C//DTD SVG 1.1//EN"
 "http://www.w3.org/Graphics/SVG/1.1/DTD/svg11.dtd">
<!-- Generated by graphviz version 2.43.0 (0)
 -->
<!-- Title: queue_types.h Pages: 1 -->
<svg width="1064pt" height="700pt"
 viewBox="0.00 0.00 1063.50 700.00" xmlns="http://www.w3.org/2000/svg" xmlns:xlink="http://www.w3.org/1999/xlink">
<g id="graph0" class="graph" transform="scale(1 1) rotate(0) translate(4 696)">
<title>queue_types.h</title>
<polygon fill="white" stroke="transparent" points="-4,4 -4,-696 1059.5,-696 1059.5,4 -4,4"/>
<!-- Node1 -->
<g id="node1" class="node">
<title>Node1</title>
<g id="a_node1"><a xlink:title=" ">
<polygon fill="#bfbfbf" stroke="black" points="643.5,-672.5 643.5,-691.5 731.5,-691.5 731.5,-672.5 643.5,-672.5"/>
<text text-anchor="middle" x="687.5" y="-679.5" font-family="Helvetica,sans-Serif" font-size="10.00">queue_types.h</text>
</a>
</g>
</g>
<!-- Node2 -->
<g id="node2" class="node">
<title>Node2</title>
<g id="a_node2"><a xlink:href="spec_2comp_8h.html" target="_top" xlink:title=" ">
<polygon fill="white" stroke="black" points="85,-504.5 85,-523.5 138,-523.5 138,-504.5 85,-504.5"/>
<text text-anchor="middle" x="111.5" y="-511.5" font-family="Helvetica,sans-Serif" font-size="10.00">comp.h</text>
</a>
</g>
</g>
<!-- Node1&#45;&gt;Node2 -->
<g id="edge1" class="edge">
<title>Node1&#45;&gt;Node2</title>
<path fill="none" stroke="midnightblue" d="M633.13,-678.23C568.97,-673.85 459.6,-662.84 369.5,-636 271.59,-606.83 163.76,-545.99 125.73,-523.55"/>
<polygon fill="midnightblue" stroke="midnightblue" points="633.21,-681.75 643.42,-678.91 633.67,-674.76 633.21,-681.75"/>
</g>
<!-- Node4 -->
<g id="node4" class="node">
<title>Node4</title>
<g id="a_node4"><a xlink:href="spec_2dma__types_8h.html" target="_top" xlink:title=" ">
<polygon fill="white" stroke="black" points="156.5,-504.5 156.5,-523.5 236.5,-523.5 236.5,-504.5 156.5,-504.5"/>
<text text-anchor="middle" x="196.5" y="-511.5" font-family="Helvetica,sans-Serif" font-size="10.00">dma_types.h</text>
</a>
</g>
</g>
<!-- Node1&#45;&gt;Node4 -->
<g id="edge3" class="edge">
<title>Node1&#45;&gt;Node4</title>
<path fill="none" stroke="midnightblue" d="M632.78,-677.21C577.48,-672.14 490.19,-660.75 418.5,-636 333.03,-606.49 241.36,-546.12 208.82,-523.67"/>
<polygon fill="midnightblue" stroke="midnightblue" points="632.8,-680.72 643.06,-678.11 633.41,-673.75 632.8,-680.72"/>
</g>
<!-- Node16 -->
<g id="node16" class="node">
<title>Node16</title>
<g id="a_node16"><a xlink:href="spec_2packet__io_8h.html" target="_top" xlink:title=" ">
<polygon fill="white" stroke="black" points="635.5,-56.5 635.5,-75.5 707.5,-75.5 707.5,-56.5 635.5,-56.5"/>
<text text-anchor="middle" x="671.5" y="-63.5" font-family="Helvetica,sans-Serif" font-size="10.00">packet_io.h</text>
</a>
</g>
</g>
<!-- Node1&#45;&gt;Node16 -->
<g id="edge37" class="edge">
<title>Node1&#45;&gt;Node16</title>
<path fill="none" stroke="midnightblue" d="M700.37,-663.97C706,-655.85 712.26,-645.79 716.5,-636 769.06,-514.51 788.5,-479.37 788.5,-347 788.5,-347 788.5,-347 788.5,-177 788.5,-125.14 726.74,-90.57 692.96,-75.54"/>
<polygon fill="midnightblue" stroke="midnightblue" points="697.45,-662.03 694.43,-672.19 703.12,-666.13 697.45,-662.03"/>
</g>
<!-- Node22 -->
<g id="node22" class="node">
<title>Node22</title>
<g id="a_node22"><a xlink:href="spec_2packet__io__types_8h.html" target="_top" xlink:title=" ">
<polygon fill="white" stroke="black" points="502.5,-280.5 502.5,-299.5 606.5,-299.5 606.5,-280.5 502.5,-280.5"/>
<text text-anchor="middle" x="554.5" y="-287.5" font-family="Helvetica,sans-Serif" font-size="10.00">packet_io_types.h</text>
</a>
</g>
</g>
<!-- Node1&#45;&gt;Node22 -->
<g id="edge42" class="edge">
<title>Node1&#45;&gt;Node22</title>
<path fill="none" stroke="midnightblue" d="M682.28,-662.39C676.66,-640.65 668.5,-603.51 668.5,-571 668.5,-571 668.5,-571 668.5,-513 668.5,-420.71 589.58,-328.31 563.07,-299.88"/>
<polygon fill="midnightblue" stroke="midnightblue" points="678.96,-663.5 684.94,-672.25 685.72,-661.68 678.96,-663.5"/>
</g>
<!-- Node29 -->
<g id="node29" class="node">
<title>Node29</title>
<g id="a_node29"><a xlink:href="spec_2timer_8h.html" target="_top" xlink:title=" ">
<polygon fill="white" stroke="black" points="429,-280.5 429,-299.5 480,-299.5 480,-280.5 429,-280.5"/>
<text text-anchor="middle" x="454.5" y="-287.5" font-family="Helvetica,sans-Serif" font-size="10.00">timer.h</text>
</a>
</g>
</g>
<!-- Node1&#45;&gt;Node29 -->
<g id="edge61" class="edge">
<title>Node1&#45;&gt;Node29</title>
<path fill="none" stroke="midnightblue" d="M672.71,-664.7C655.82,-644.34 630.5,-607.7 630.5,-571 630.5,-571 630.5,-571 630.5,-513 630.5,-409.22 510.94,-325.7 468.9,-299.55"/>
<polygon fill="midnightblue" stroke="midnightblue" points="670.15,-667.1 679.33,-672.38 675.45,-662.52 670.15,-667.1"/>
</g>
<!-- Node31 -->
<g id="node31" class="node">
<title>Node31</title>
<g id="a_node31"><a xlink:href="spec_2packet__io__stats_8h.html" target="_top" xlink:title=" ">
<polygon fill="white" stroke="black" points="659,-392.5 659,-411.5 760,-411.5 760,-392.5 659,-392.5"/>
<text text-anchor="middle" x="709.5" y="-399.5" font-family="Helvetica,sans-Serif" font-size="10.00">packet_io_stats.h</text>
</a>
</g>
</g>
<!-- Node1&#45;&gt;Node31 -->
<g id="edge38" class="edge">
<title>Node1&#45;&gt;Node31</title>
<path fill="none" stroke="midnightblue" d="M692.99,-662.41C698.91,-640.68 707.5,-603.56 707.5,-571 707.5,-571 707.5,-571 707.5,-513 707.5,-475.18 708.7,-430.06 709.24,-411.56"/>
<polygon fill="midnightblue" stroke="midnightblue" points="689.56,-661.68 690.2,-672.26 696.29,-663.59 689.56,-661.68"/>
</g>
<!-- Node33 -->
<g id="node33" class="node">
<title>Node33</title>
<g id="a_node33"><a xlink:href="spec_2packet__types_8h.html" target="_top" xlink:title=" ">
<polygon fill="white" stroke="black" points="427.5,-616.5 427.5,-635.5 517.5,-635.5 517.5,-616.5 427.5,-616.5"/>
<text text-anchor="middle" x="472.5" y="-623.5" font-family="Helvetica,sans-Serif" font-size="10.00">packet_types.h</text>
</a>
</g>
</g>
<!-- Node1&#45;&gt;Node33 -->
<g id="edge43" class="edge">
<title>Node1&#45;&gt;Node33</title>
<path fill="none" stroke="midnightblue" d="M643.54,-669.96C602.93,-659.76 543.46,-644.82 506.41,-635.52"/>
<polygon fill="midnightblue" stroke="midnightblue" points="642.88,-673.4 653.43,-672.44 644.59,-666.61 642.88,-673.4"/>
</g>
<!-- Node40 -->
<g id="node40" class="node">
<title>Node40</title>
<g id="a_node40"><a xlink:href="spec_2queue_8h.html" target="_top" xlink:title=" ">
<polygon fill="white" stroke="black" points="773.5,-616.5 773.5,-635.5 829.5,-635.5 829.5,-616.5 773.5,-616.5"/>
<text text-anchor="middle" x="801.5" y="-623.5" font-family="Helvetica,sans-Serif" font-size="10.00">queue.h</text>
</a>
</g>
</g>
<!-- Node1&#45;&gt;Node40 -->
<g id="edge57" class="edge">
<title>Node1&#45;&gt;Node40</title>
<path fill="none" stroke="midnightblue" d="M714.74,-668.1C736.04,-658.01 765.04,-644.27 783.52,-635.52"/>
<polygon fill="midnightblue" stroke="midnightblue" points="713.1,-665 705.56,-672.44 716.1,-671.33 713.1,-665"/>
</g>
<!-- Node42 -->
<g id="node42" class="node">
<title>Node42</title>
<g id="a_node42"><a xlink:href="spec_2schedule_8h.html" target="_top" xlink:title=" ">
<polygon fill="white" stroke="black" points="848,-616.5 848,-635.5 917,-635.5 917,-616.5 848,-616.5"/>
<text text-anchor="middle" x="882.5" y="-623.5" font-family="Helvetica,sans-Serif" font-size="10.00">schedule.h</text>
</a>
</g>
</g>
<!-- Node1&#45;&gt;Node42 -->
<g id="edge59" class="edge">
<title>Node1&#45;&gt;Node42</title>
<path fill="none" stroke="midnightblue" d="M728.31,-669.7C765.11,-659.51 818.43,-644.74 851.75,-635.52"/>
<polygon fill="midnightblue" stroke="midnightblue" points="727.1,-666.4 718.4,-672.44 728.97,-673.15 727.1,-666.4"/>
</g>
<!-- Node44 -->
<g id="node44" class="node">
<title>Node44</title>
<g id="a_node44"><a xlink:href="queue__inline__types_8h_source.html" target="_top" xlink:title=" ">
<polygon fill="white" stroke="black" points="935.5,-616.5 935.5,-635.5 1055.5,-635.5 1055.5,-616.5 935.5,-616.5"/>
<text text-anchor="middle" x="995.5" y="-623.5" font-family="Helvetica,sans-Serif" font-size="10.00">queue_inline_types.h</text>
</a>
</g>
</g>
<!-- Node1&#45;&gt;Node44 -->
<g id="edge62" class="edge">
<title>Node1&#45;&gt;Node44</title>
<path fill="none" stroke="midnightblue" d="M741.71,-671.5C799.77,-661.32 891.07,-645.31 946.88,-635.52"/>
<polygon fill="midnightblue" stroke="midnightblue" points="740.87,-668.09 731.63,-673.26 742.08,-674.98 740.87,-668.09"/>
</g>
<!-- Node3 -->
<g id="node3" class="node">
<title>Node3</title>
<g id="a_node3"><a xlink:href="comp_8h.html" target="_top" xlink:title=" ">
<polygon fill="white" stroke="black" points="85,-448.5 85,-467.5 138,-467.5 138,-448.5 85,-448.5"/>
<text text-anchor="middle" x="111.5" y="-455.5" font-family="Helvetica,sans-Serif" font-size="10.00">comp.h</text>
</a>
</g>
</g>
<!-- Node2&#45;&gt;Node3 -->
<g id="edge2" class="edge">
<title>Node2&#45;&gt;Node3</title>
<path fill="none" stroke="midnightblue" d="M111.5,-493.8C111.5,-484.91 111.5,-474.78 111.5,-467.75"/>
<polygon fill="midnightblue" stroke="midnightblue" points="108,-494.08 111.5,-504.08 115,-494.08 108,-494.08"/>
</g>
<!-- Node5 -->
<g id="node5" class="node">
<title>Node5</title>
<g id="a_node5"><a xlink:href="dma__types_8h.html" target="_top" xlink:title=" ">
<polygon fill="white" stroke="black" points="156.5,-448.5 156.5,-467.5 236.5,-467.5 236.5,-448.5 156.5,-448.5"/>
<text text-anchor="middle" x="196.5" y="-455.5" font-family="Helvetica,sans-Serif" font-size="10.00">dma_types.h</text>
</a>
</g>
</g>
<!-- Node4&#45;&gt;Node5 -->
<g id="edge4" class="edge">
<title>Node4&#45;&gt;Node5</title>
<path fill="none" stroke="midnightblue" d="M196.5,-493.8C196.5,-484.91 196.5,-474.78 196.5,-467.75"/>
<polygon fill="midnightblue" stroke="midnightblue" points="193,-494.08 196.5,-504.08 200,-494.08 193,-494.08"/>
</g>
<!-- Node6 -->
<g id="node6" class="node">
<title>Node6</title>
<g id="a_node6"><a xlink:href="spec_2dma_8h.html" target="_top" xlink:title=" ">
<polygon fill="white" stroke="black" points="0,-280.5 0,-299.5 47,-299.5 47,-280.5 0,-280.5"/>
<text text-anchor="middle" x="23.5" y="-287.5" font-family="Helvetica,sans-Serif" font-size="10.00">dma.h</text>
</a>
</g>
</g>
<!-- Node5&#45;&gt;Node6 -->
<g id="edge5" class="edge">
<title>Node5&#45;&gt;Node6</title>
<path fill="none" stroke="midnightblue" d="M156.62,-445.06C137.19,-437.8 114.44,-426.98 97.5,-412 59.69,-378.55 34.98,-321.08 26.64,-299.51"/>
<polygon fill="midnightblue" stroke="midnightblue" points="155.54,-448.39 166.13,-448.44 157.88,-441.8 155.54,-448.39"/>
</g>
<!-- Node8 -->
<g id="node8" class="node">
<title>Node8</title>
<g id="a_node8"><a xlink:href="spec_2pool__types_8h.html" target="_top" xlink:title=" ">
<polygon fill="white" stroke="black" points="183,-392.5 183,-411.5 262,-411.5 262,-392.5 183,-392.5"/>
<text text-anchor="middle" x="222.5" y="-399.5" font-family="Helvetica,sans-Serif" font-size="10.00">pool_types.h</text>
</a>
</g>
</g>
<!-- Node5&#45;&gt;Node8 -->
<g id="edge7" class="edge">
<title>Node5&#45;&gt;Node8</title>
<path fill="none" stroke="midnightblue" d="M205.17,-438.98C209.59,-429.82 214.75,-419.09 218.29,-411.75"/>
<polygon fill="midnightblue" stroke="midnightblue" points="201.98,-437.55 200.79,-448.08 208.29,-440.59 201.98,-437.55"/>
</g>
<!-- Node7 -->
<g id="node7" class="node">
<title>Node7</title>
<g id="a_node7"><a xlink:href="dma_8h.html" target="_top" xlink:title=" ">
<polygon fill="white" stroke="black" points="0,-224.5 0,-243.5 47,-243.5 47,-224.5 0,-224.5"/>
<text text-anchor="middle" x="23.5" y="-231.5" font-family="Helvetica,sans-Serif" font-size="10.00">dma.h</text>
</a>
</g>
</g>
<!-- Node6&#45;&gt;Node7 -->
<g id="edge6" class="edge">
<title>Node6&#45;&gt;Node7</title>
<path fill="none" stroke="midnightblue" d="M23.5,-269.8C23.5,-260.91 23.5,-250.78 23.5,-243.75"/>
<polygon fill="midnightblue" stroke="midnightblue" points="20,-270.08 23.5,-280.08 27,-270.08 20,-270.08"/>
</g>
<!-- Node9 -->
<g id="node9" class="node">
<title>Node9</title>
<g id="a_node9"><a xlink:href="pool__types_8h.html" target="_top" xlink:title=" ">
<polygon fill="white" stroke="black" points="195,-336.5 195,-355.5 274,-355.5 274,-336.5 195,-336.5"/>
<text text-anchor="middle" x="234.5" y="-343.5" font-family="Helvetica,sans-Serif" font-size="10.00">pool_types.h</text>
</a>
</g>
</g>
<!-- Node8&#45;&gt;Node9 -->
<g id="edge8" class="edge">
<title>Node8&#45;&gt;Node9</title>
<path fill="none" stroke="midnightblue" d="M226.7,-382.1C228.69,-373.14 230.98,-362.86 232.56,-355.75"/>
<polygon fill="midnightblue" stroke="midnightblue" points="223.23,-381.56 224.48,-392.08 230.07,-383.08 223.23,-381.56"/>
</g>
<!-- Node9&#45;&gt;Node6 -->
<g id="edge20" class="edge">
<title>Node9&#45;&gt;Node6</title>
<path fill="none" stroke="midnightblue" d="M191.32,-333.95C147.78,-322.81 82.17,-306.01 47.28,-297.09"/>
<polygon fill="midnightblue" stroke="midnightblue" points="190.51,-337.35 201.07,-336.44 192.25,-330.57 190.51,-337.35"/>
</g>
<!-- Node10 -->
<g id="node10" class="node">
<title>Node10</title>
<g id="a_node10"><a xlink:href="spec_2buffer_8h.html" target="_top" xlink:title=" ">
<polygon fill="white" stroke="black" points="169,-280.5 169,-299.5 222,-299.5 222,-280.5 169,-280.5"/>
<text text-anchor="middle" x="195.5" y="-287.5" font-family="Helvetica,sans-Serif" font-size="10.00">buffer.h</text>
</a>
</g>
</g>
<!-- Node9&#45;&gt;Node10 -->
<g id="edge9" class="edge">
<title>Node9&#45;&gt;Node10</title>
<path fill="none" stroke="midnightblue" d="M222.12,-327.86C215.36,-318.5 207.29,-307.33 201.82,-299.75"/>
<polygon fill="midnightblue" stroke="midnightblue" points="219.37,-330.03 228.06,-336.08 225.04,-325.93 219.37,-330.03"/>
</g>
<!-- Node12 -->
<g id="node12" class="node">
<title>Node12</title>
<g id="a_node12"><a xlink:href="spec_2classification_8h.html" target="_top" xlink:title=" ">
<polygon fill="white" stroke="black" points="516,-168.5 516,-187.5 605,-187.5 605,-168.5 516,-168.5"/>
<text text-anchor="middle" x="560.5" y="-175.5" font-family="Helvetica,sans-Serif" font-size="10.00">classification.h</text>
</a>
</g>
</g>
<!-- Node9&#45;&gt;Node12 -->
<g id="edge11" class="edge">
<title>Node9&#45;&gt;Node12</title>
<path fill="none" stroke="midnightblue" d="M266.06,-332.73C302.62,-318.8 364.83,-295.94 419.5,-280 486.98,-260.32 529.82,-299.07 573.5,-244 586.66,-227.41 574.19,-201.09 566.13,-187.6"/>
<polygon fill="midnightblue" stroke="midnightblue" points="264.55,-329.57 256.46,-336.41 267.05,-336.1 264.55,-329.57"/>
</g>
<!-- Node18 -->
<g id="node18" class="node">
<title>Node18</title>
<g id="a_node18"><a xlink:href="spec_2crypto_8h.html" target="_top" xlink:title=" ">
<polygon fill="white" stroke="black" points="240.5,-280.5 240.5,-299.5 296.5,-299.5 296.5,-280.5 240.5,-280.5"/>
<text text-anchor="middle" x="268.5" y="-287.5" font-family="Helvetica,sans-Serif" font-size="10.00">crypto.h</text>
</a>
</g>
</g>
<!-- Node9&#45;&gt;Node18 -->
<g id="edge17" class="edge">
<title>Node9&#45;&gt;Node18</title>
<path fill="none" stroke="midnightblue" d="M245.48,-327.57C251.33,-318.27 258.27,-307.25 262.99,-299.75"/>
<polygon fill="midnightblue" stroke="midnightblue" points="242.48,-325.76 240.11,-336.08 248.4,-329.49 242.48,-325.76"/>
</g>
<!-- Node20 -->
<g id="node20" class="node">
<title>Node20</title>
<g id="a_node20"><a xlink:href="spec_2packet_8h.html" target="_top" xlink:title=" ">
<polygon fill="white" stroke="black" points="299.5,-168.5 299.5,-187.5 357.5,-187.5 357.5,-168.5 299.5,-168.5"/>
<text text-anchor="middle" x="328.5" y="-175.5" font-family="Helvetica,sans-Serif" font-size="10.00">packet.h</text>
</a>
</g>
</g>
<!-- Node9&#45;&gt;Node20 -->
<g id="edge21" class="edge">
<title>Node9&#45;&gt;Node20</title>
<path fill="none" stroke="midnightblue" d="M266.26,-332C280.39,-324.64 295.95,-314.06 305.5,-300 329.9,-264.1 330.06,-209.05 329.09,-187.79"/>
<polygon fill="midnightblue" stroke="midnightblue" points="264.73,-328.85 257.27,-336.37 267.79,-335.15 264.73,-328.85"/>
</g>
<!-- Node9&#45;&gt;Node22 -->
<g id="edge23" class="edge">
<title>Node9&#45;&gt;Node22</title>
<path fill="none" stroke="midnightblue" d="M284.01,-336.64C343.78,-326.56 443.76,-309.69 503.98,-299.53"/>
<polygon fill="midnightblue" stroke="midnightblue" points="283.34,-333.21 274.06,-338.32 284.5,-340.11 283.34,-333.21"/>
</g>
<!-- Node26 -->
<g id="node26" class="node">
<title>Node26</title>
<g id="a_node26"><a xlink:href="spec_2pool_8h.html" target="_top" xlink:title=" ">
<polygon fill="white" stroke="black" points="104,-280.5 104,-299.5 151,-299.5 151,-280.5 104,-280.5"/>
<text text-anchor="middle" x="127.5" y="-287.5" font-family="Helvetica,sans-Serif" font-size="10.00">pool.h</text>
</a>
</g>
</g>
<!-- Node9&#45;&gt;Node26 -->
<g id="edge32" class="edge">
<title>Node9&#45;&gt;Node26</title>
<path fill="none" stroke="midnightblue" d="M208.2,-331.73C188.39,-321.73 161.79,-308.31 144.65,-299.65"/>
<polygon fill="midnightblue" stroke="midnightblue" points="206.8,-334.94 217.31,-336.32 209.96,-328.69 206.8,-334.94"/>
</g>
<!-- Node9&#45;&gt;Node29 -->
<g id="edge35" class="edge">
<title>Node9&#45;&gt;Node29</title>
<path fill="none" stroke="midnightblue" d="M279.15,-334.04C324.15,-322.99 392.03,-306.33 428.74,-297.32"/>
<polygon fill="midnightblue" stroke="midnightblue" points="278.24,-330.66 269.36,-336.44 279.91,-337.46 278.24,-330.66"/>
</g>
<!-- Node11 -->
<g id="node11" class="node">
<title>Node11</title>
<g id="a_node11"><a xlink:href="buffer_8h.html" target="_top" xlink:title=" ">
<polygon fill="white" stroke="black" points="169,-224.5 169,-243.5 222,-243.5 222,-224.5 169,-224.5"/>
<text text-anchor="middle" x="195.5" y="-231.5" font-family="Helvetica,sans-Serif" font-size="10.00">buffer.h</text>
</a>
</g>
</g>
<!-- Node10&#45;&gt;Node11 -->
<g id="edge10" class="edge">
<title>Node10&#45;&gt;Node11</title>
<path fill="none" stroke="midnightblue" d="M195.5,-269.8C195.5,-260.91 195.5,-250.78 195.5,-243.75"/>
<polygon fill="midnightblue" stroke="midnightblue" points="192,-270.08 195.5,-280.08 199,-270.08 192,-270.08"/>
</g>
<!-- Node13 -->
<g id="node13" class="node">
<title>Node13</title>
<g id="a_node13"><a xlink:href="classification_8h.html" target="_top" xlink:title=" ">
<polygon fill="white" stroke="black" points="516,-112.5 516,-131.5 605,-131.5 605,-112.5 516,-112.5"/>
<text text-anchor="middle" x="560.5" y="-119.5" font-family="Helvetica,sans-Serif" font-size="10.00">classification.h</text>
</a>
</g>
</g>
<!-- Node12&#45;&gt;Node13 -->
<g id="edge12" class="edge">
<title>Node12&#45;&gt;Node13</title>
<path fill="none" stroke="midnightblue" d="M560.5,-157.8C560.5,-148.91 560.5,-138.78 560.5,-131.75"/>
<polygon fill="midnightblue" stroke="midnightblue" points="557,-158.08 560.5,-168.08 564,-158.08 557,-158.08"/>
</g>
<!-- Node14 -->
<g id="node14" class="node">
<title>Node14</title>
<g id="a_node14"><a xlink:href="spec_2ipsec_8h.html" target="_top" xlink:title=" ">
<polygon fill="white" stroke="black" points="427,-56.5 427,-75.5 478,-75.5 478,-56.5 427,-56.5"/>
<text text-anchor="middle" x="452.5" y="-63.5" font-family="Helvetica,sans-Serif" font-size="10.00">ipsec.h</text>
</a>
</g>
</g>
<!-- Node13&#45;&gt;Node14 -->
<g id="edge13" class="edge">
<title>Node13&#45;&gt;Node14</title>
<path fill="none" stroke="midnightblue" d="M533.95,-107.73C513.95,-97.73 487.11,-84.31 469.81,-75.65"/>
<polygon fill="midnightblue" stroke="midnightblue" points="532.64,-110.98 543.15,-112.32 535.77,-104.72 532.64,-110.98"/>
</g>
<!-- Node13&#45;&gt;Node16 -->
<g id="edge15" class="edge">
<title>Node13&#45;&gt;Node16</title>
<path fill="none" stroke="midnightblue" d="M587.51,-107.86C608.09,-97.85 635.84,-84.35 653.71,-75.65"/>
<polygon fill="midnightblue" stroke="midnightblue" points="585.8,-104.8 578.33,-112.32 588.86,-111.1 585.8,-104.8"/>
</g>
<!-- Node15 -->
<g id="node15" class="node">
<title>Node15</title>
<g id="a_node15"><a xlink:href="ipsec_8h.html" target="_top" xlink:title=" ">
<polygon fill="white" stroke="black" points="427,-0.5 427,-19.5 478,-19.5 478,-0.5 427,-0.5"/>
<text text-anchor="middle" x="452.5" y="-7.5" font-family="Helvetica,sans-Serif" font-size="10.00">ipsec.h</text>
</a>
</g>
</g>
<!-- Node14&#45;&gt;Node15 -->
<g id="edge14" class="edge">
<title>Node14&#45;&gt;Node15</title>
<path fill="none" stroke="midnightblue" d="M452.5,-45.8C452.5,-36.91 452.5,-26.78 452.5,-19.75"/>
<polygon fill="midnightblue" stroke="midnightblue" points="449,-46.08 452.5,-56.08 456,-46.08 449,-46.08"/>
</g>
<!-- Node17 -->
<g id="node17" class="node">
<title>Node17</title>
<g id="a_node17"><a xlink:href="packet__io_8h.html" target="_top" xlink:title=" ">
<polygon fill="white" stroke="black" points="635.5,-0.5 635.5,-19.5 707.5,-19.5 707.5,-0.5 635.5,-0.5"/>
<text text-anchor="middle" x="671.5" y="-7.5" font-family="Helvetica,sans-Serif" font-size="10.00">packet_io.h</text>
</a>
</g>
</g>
<!-- Node16&#45;&gt;Node17 -->
<g id="edge16" class="edge">
<title>Node16&#45;&gt;Node17</title>
<path fill="none" stroke="midnightblue" d="M671.5,-45.8C671.5,-36.91 671.5,-26.78 671.5,-19.75"/>
<polygon fill="midnightblue" stroke="midnightblue" points="668,-46.08 671.5,-56.08 675,-46.08 668,-46.08"/>
</g>
<!-- Node19 -->
<g id="node19" class="node">
<title>Node19</title>
<g id="a_node19"><a xlink:href="crypto_8h.html" target="_top" xlink:title=" ">
<polygon fill="white" stroke="black" points="225.5,-112.5 225.5,-131.5 281.5,-131.5 281.5,-112.5 225.5,-112.5"/>
<text text-anchor="middle" x="253.5" y="-119.5" font-family="Helvetica,sans-Serif" font-size="10.00">crypto.h</text>
</a>
</g>
</g>
<!-- Node18&#45;&gt;Node19 -->
<g id="edge18" class="edge">
<title>Node18&#45;&gt;Node19</title>
<path fill="none" stroke="midnightblue" d="M266.78,-269.93C263.52,-233.92 256.59,-157.23 254.27,-131.57"/>
<polygon fill="midnightblue" stroke="midnightblue" points="263.31,-270.43 267.69,-280.08 270.28,-269.8 263.31,-270.43"/>
</g>
<!-- Node19&#45;&gt;Node14 -->
<g id="edge19" class="edge">
<title>Node19&#45;&gt;Node14</title>
<path fill="none" stroke="midnightblue" d="M291.43,-110.71C331.13,-99.93 392.36,-83.32 426.76,-73.98"/>
<polygon fill="midnightblue" stroke="midnightblue" points="290.32,-107.38 281.59,-113.38 292.16,-114.14 290.32,-107.38"/>
</g>
<!-- Node21 -->
<g id="node21" class="node">
<title>Node21</title>
<g id="a_node21"><a xlink:href="packet_8h.html" target="_top" xlink:title=" ">
<polygon fill="white" stroke="black" points="299.5,-112.5 299.5,-131.5 357.5,-131.5 357.5,-112.5 299.5,-112.5"/>
<text text-anchor="middle" x="328.5" y="-119.5" font-family="Helvetica,sans-Serif" font-size="10.00">packet.h</text>
</a>
</g>
</g>
<!-- Node20&#45;&gt;Node21 -->
<g id="edge22" class="edge">
<title>Node20&#45;&gt;Node21</title>
<path fill="none" stroke="midnightblue" d="M328.5,-157.8C328.5,-148.91 328.5,-138.78 328.5,-131.75"/>
<polygon fill="midnightblue" stroke="midnightblue" points="325,-158.08 328.5,-168.08 332,-158.08 325,-158.08"/>
</g>
<!-- Node23 -->
<g id="node23" class="node">
<title>Node23</title>
<g id="a_node23"><a xlink:href="packet__io__types_8h.html" target="_top" xlink:title=" ">
<polygon fill="white" stroke="black" points="460.5,-224.5 460.5,-243.5 564.5,-243.5 564.5,-224.5 460.5,-224.5"/>
<text text-anchor="middle" x="512.5" y="-231.5" font-family="Helvetica,sans-Serif" font-size="10.00">packet_io_types.h</text>
</a>
</g>
</g>
<!-- Node22&#45;&gt;Node23 -->
<g id="edge24" class="edge">
<title>Node22&#45;&gt;Node23</title>
<path fill="none" stroke="midnightblue" d="M541.39,-272.14C534.07,-262.74 525.26,-251.4 519.31,-243.75"/>
<polygon fill="midnightblue" stroke="midnightblue" points="538.66,-274.34 547.56,-280.08 544.19,-270.04 538.66,-274.34"/>
</g>
<!-- Node23&#45;&gt;Node12 -->
<g id="edge25" class="edge">
<title>Node23&#45;&gt;Node12</title>
<path fill="none" stroke="midnightblue" d="M527.23,-216.43C535.64,-206.97 545.85,-195.48 552.72,-187.75"/>
<polygon fill="midnightblue" stroke="midnightblue" points="524.45,-214.28 520.43,-224.08 529.69,-218.93 524.45,-214.28"/>
</g>
<!-- Node23&#45;&gt;Node14 -->
<g id="edge26" class="edge">
<title>Node23&#45;&gt;Node14</title>
<path fill="none" stroke="midnightblue" d="M505.78,-214.39C492.83,-178.59 464.91,-101.34 455.6,-75.57"/>
<polygon fill="midnightblue" stroke="midnightblue" points="502.58,-215.86 509.27,-224.08 509.17,-213.48 502.58,-215.86"/>
</g>
<!-- Node23&#45;&gt;Node16 -->
<g id="edge28" class="edge">
<title>Node23&#45;&gt;Node16</title>
<path fill="none" stroke="midnightblue" d="M556.02,-221.18C575.5,-214.13 597.61,-203.46 613.5,-188 631.04,-170.95 658.83,-100.45 668.25,-75.66"/>
<polygon fill="midnightblue" stroke="midnightblue" points="554.75,-217.92 546.41,-224.45 557,-224.54 554.75,-217.92"/>
</g>
<!-- Node23&#45;&gt;Node20 -->
<g id="edge27" class="edge">
<title>Node23&#45;&gt;Node20</title>
<path fill="none" stroke="midnightblue" d="M473.55,-221.57C438.84,-211.38 388.82,-196.7 357.52,-187.52"/>
<polygon fill="midnightblue" stroke="midnightblue" points="472.76,-224.99 483.34,-224.44 474.73,-218.27 472.76,-224.99"/>
</g>
<!-- Node24 -->
<g id="node24" class="node">
<title>Node24</title>
<g id="a_node24"><a xlink:href="spec_2traffic__mngr_8h.html" target="_top" xlink:title=" ">
<polygon fill="white" stroke="black" points="375.5,-168.5 375.5,-187.5 459.5,-187.5 459.5,-168.5 375.5,-168.5"/>
<text text-anchor="middle" x="417.5" y="-175.5" font-family="Helvetica,sans-Serif" font-size="10.00">traffic_mngr.h</text>
</a>
</g>
</g>
<!-- Node23&#45;&gt;Node24 -->
<g id="edge29" class="edge">
<title>Node23&#45;&gt;Node24</title>
<path fill="none" stroke="midnightblue" d="M488.18,-219.18C470.7,-209.24 447.67,-196.15 432.73,-187.65"/>
<polygon fill="midnightblue" stroke="midnightblue" points="486.81,-222.43 497.24,-224.32 490.27,-216.34 486.81,-222.43"/>
</g>
<!-- Node25 -->
<g id="node25" class="node">
<title>Node25</title>
<g id="a_node25"><a xlink:href="traffic__mngr_8h.html" target="_top" xlink:title=" ">
<polygon fill="white" stroke="black" points="375.5,-112.5 375.5,-131.5 459.5,-131.5 459.5,-112.5 375.5,-112.5"/>
<text text-anchor="middle" x="417.5" y="-119.5" font-family="Helvetica,sans-Serif" font-size="10.00">traffic_mngr.h</text>
</a>
</g>
</g>
<!-- Node24&#45;&gt;Node25 -->
<g id="edge30" class="edge">
<title>Node24&#45;&gt;Node25</title>
<path fill="none" stroke="midnightblue" d="M417.5,-157.8C417.5,-148.91 417.5,-138.78 417.5,-131.75"/>
<polygon fill="midnightblue" stroke="midnightblue" points="414,-158.08 417.5,-168.08 421,-158.08 414,-158.08"/>
</g>
<!-- Node25&#45;&gt;Node14 -->
<g id="edge31" class="edge">
<title>Node25&#45;&gt;Node14</title>
<path fill="none" stroke="midnightblue" d="M428.8,-103.57C434.82,-94.27 441.97,-83.25 446.83,-75.75"/>
<polygon fill="midnightblue" stroke="midnightblue" points="425.78,-101.79 423.28,-112.08 431.66,-105.6 425.78,-101.79"/>
</g>
<!-- Node27 -->
<g id="node27" class="node">
<title>Node27</title>
<g id="a_node27"><a xlink:href="pool_8h.html" target="_top" xlink:title=" ">
<polygon fill="white" stroke="black" points="104,-224.5 104,-243.5 151,-243.5 151,-224.5 104,-224.5"/>
<text text-anchor="middle" x="127.5" y="-231.5" font-family="Helvetica,sans-Serif" font-size="10.00">pool.h</text>
</a>
</g>
</g>
<!-- Node26&#45;&gt;Node27 -->
<g id="edge33" class="edge">
<title>Node26&#45;&gt;Node27</title>
<path fill="none" stroke="midnightblue" d="M127.5,-269.8C127.5,-260.91 127.5,-250.78 127.5,-243.75"/>
<polygon fill="midnightblue" stroke="midnightblue" points="124,-270.08 127.5,-280.08 131,-270.08 124,-270.08"/>
</g>
<!-- Node28 -->
<g id="node28" class="node">
<title>Node28</title>
<g id="a_node28"><a xlink:href="packet__inlines_8h.html" target="_top" xlink:title=" ">
<polygon fill="white" stroke="black" points="54,-168.5 54,-187.5 149,-187.5 149,-168.5 54,-168.5"/>
<text text-anchor="middle" x="101.5" y="-175.5" font-family="Helvetica,sans-Serif" font-size="10.00">packet_inlines.h</text>
</a>
</g>
</g>
<!-- Node27&#45;&gt;Node28 -->
<g id="edge34" class="edge">
<title>Node27&#45;&gt;Node28</title>
<path fill="none" stroke="midnightblue" d="M118.83,-214.98C114.41,-205.82 109.25,-195.09 105.71,-187.75"/>
<polygon fill="midnightblue" stroke="midnightblue" points="115.71,-216.59 123.21,-224.08 122.02,-213.55 115.71,-216.59"/>
</g>
<!-- Node30 -->
<g id="node30" class="node">
<title>Node30</title>
<g id="a_node30"><a xlink:href="timer_8h.html" target="_top" xlink:title=" ">
<polygon fill="white" stroke="black" points="391,-224.5 391,-243.5 442,-243.5 442,-224.5 391,-224.5"/>
<text text-anchor="middle" x="416.5" y="-231.5" font-family="Helvetica,sans-Serif" font-size="10.00">timer.h</text>
</a>
</g>
</g>
<!-- Node29&#45;&gt;Node30 -->
<g id="edge36" class="edge">
<title>Node29&#45;&gt;Node30</title>
<path fill="none" stroke="midnightblue" d="M442.44,-271.86C435.86,-262.5 427.99,-251.33 422.66,-243.75"/>
<polygon fill="midnightblue" stroke="midnightblue" points="439.61,-273.92 448.23,-280.08 445.33,-269.89 439.61,-273.92"/>
</g>
<!-- Node32 -->
<g id="node32" class="node">
<title>Node32</title>
<g id="a_node32"><a xlink:href="packet__io__stats_8h.html" target="_top" xlink:title=" ">
<polygon fill="white" stroke="black" points="659,-336.5 659,-355.5 760,-355.5 760,-336.5 659,-336.5"/>
<text text-anchor="middle" x="709.5" y="-343.5" font-family="Helvetica,sans-Serif" font-size="10.00">packet_io_stats.h</text>
</a>
</g>
</g>
<!-- Node31&#45;&gt;Node32 -->
<g id="edge39" class="edge">
<title>Node31&#45;&gt;Node32</title>
<path fill="none" stroke="midnightblue" d="M709.5,-381.8C709.5,-372.91 709.5,-362.78 709.5,-355.75"/>
<polygon fill="midnightblue" stroke="midnightblue" points="706,-382.08 709.5,-392.08 713,-382.08 706,-382.08"/>
</g>
<!-- Node32&#45;&gt;Node16 -->
<g id="edge40" class="edge">
<title>Node32&#45;&gt;Node16</title>
<path fill="none" stroke="midnightblue" d="M709.5,-326.25C709.5,-304.36 709.5,-267.05 709.5,-235 709.5,-235 709.5,-235 709.5,-177 709.5,-137.4 687.23,-93.96 676.78,-75.77"/>
<polygon fill="midnightblue" stroke="midnightblue" points="706,-326.44 709.5,-336.44 713,-326.44 706,-326.44"/>
</g>
<!-- Node32&#45;&gt;Node22 -->
<g id="edge41" class="edge">
<title>Node32&#45;&gt;Node22</title>
<path fill="none" stroke="midnightblue" d="M675.17,-333.04C646,-322.88 604.86,-308.55 578.95,-299.52"/>
<polygon fill="midnightblue" stroke="midnightblue" points="674.34,-336.46 684.94,-336.44 676.65,-329.85 674.34,-336.46"/>
</g>
<!-- Node34 -->
<g id="node34" class="node">
<title>Node34</title>
<g id="a_node34"><a xlink:href="packet__types_8h.html" target="_top" xlink:title=" ">
<polygon fill="white" stroke="black" points="342.5,-560.5 342.5,-579.5 432.5,-579.5 432.5,-560.5 342.5,-560.5"/>
<text text-anchor="middle" x="387.5" y="-567.5" font-family="Helvetica,sans-Serif" font-size="10.00">packet_types.h</text>
</a>
</g>
</g>
<!-- Node33&#45;&gt;Node34 -->
<g id="edge44" class="edge">
<title>Node33&#45;&gt;Node34</title>
<path fill="none" stroke="midnightblue" d="M450.31,-610.9C434.72,-601 414.37,-588.07 401.12,-579.65"/>
<polygon fill="midnightblue" stroke="midnightblue" points="448.53,-613.92 458.84,-616.32 452.28,-608.01 448.53,-613.92"/>
</g>
<!-- Node34&#45;&gt;Node2 -->
<g id="edge45" class="edge">
<title>Node34&#45;&gt;Node2</title>
<path fill="none" stroke="midnightblue" d="M332.19,-559.6C283.43,-551.07 210.52,-537.77 147.5,-524 144.48,-523.34 141.33,-522.61 138.19,-521.86"/>
<polygon fill="midnightblue" stroke="midnightblue" points="331.77,-563.07 342.22,-561.34 332.97,-556.18 331.77,-563.07"/>
</g>
<!-- Node34&#45;&gt;Node4 -->
<g id="edge47" class="edge">
<title>Node34&#45;&gt;Node4</title>
<path fill="none" stroke="midnightblue" d="M347.53,-557.7C311.48,-547.51 259.26,-532.74 226.62,-523.52"/>
<polygon fill="midnightblue" stroke="midnightblue" points="346.66,-561.09 357.24,-560.44 348.56,-554.35 346.66,-561.09"/>
</g>
<!-- Node34&#45;&gt;Node16 -->
<g id="edge54" class="edge">
<title>Node34&#45;&gt;Node16</title>
<path fill="none" stroke="midnightblue" d="M442.87,-568.08C479.79,-564.5 526.81,-553.77 556.5,-524 623.81,-456.51 663.86,-133.3 670.51,-75.77"/>
<polygon fill="midnightblue" stroke="midnightblue" points="442.43,-564.6 432.75,-568.91 443.01,-571.58 442.43,-564.6"/>
</g>
<!-- Node34&#45;&gt;Node18 -->
<g id="edge46" class="edge">
<title>Node34&#45;&gt;Node18</title>
<path fill="none" stroke="midnightblue" d="M362.03,-554.99C349.87,-547.22 335.95,-536.58 326.5,-524 308,-499.38 302.5,-489.8 302.5,-459 302.5,-459 302.5,-459 302.5,-401 302.5,-361.62 282.37,-317.71 273.09,-299.56"/>
<polygon fill="midnightblue" stroke="midnightblue" points="360.52,-558.17 370.89,-560.36 364.15,-552.18 360.52,-558.17"/>
</g>
<!-- Node34&#45;&gt;Node20 -->
<g id="edge51" class="edge">
<title>Node34&#45;&gt;Node20</title>
<path fill="none" stroke="midnightblue" d="M374.27,-552.22C368.67,-544.15 362.7,-534.06 359.5,-524 318.97,-396.72 364.17,-355.63 341.5,-224 339.29,-211.18 334.77,-196.81 331.68,-187.83"/>
<polygon fill="midnightblue" stroke="midnightblue" points="371.52,-554.39 380.27,-560.36 377.15,-550.23 371.52,-554.39"/>
</g>
<!-- Node34&#45;&gt;Node22 -->
<g id="edge55" class="edge">
<title>Node34&#45;&gt;Node22</title>
<path fill="none" stroke="midnightblue" d="M442.85,-564.61C473.56,-559.39 510.32,-548.14 534.5,-524 555.89,-502.64 554.5,-489.23 554.5,-459 554.5,-459 554.5,-459 554.5,-401 554.5,-363.19 554.5,-318.06 554.5,-299.56"/>
<polygon fill="midnightblue" stroke="midnightblue" points="442.05,-561.19 432.69,-566.15 443.11,-568.11 442.05,-561.19"/>
</g>
<!-- Node34&#45;&gt;Node28 -->
<g id="edge56" class="edge">
<title>Node34&#45;&gt;Node28</title>
<path fill="none" stroke="midnightblue" d="M359.53,-555.89C343.95,-547.87 324.69,-536.72 309.5,-524 275.64,-495.65 280.19,-475.33 245.5,-448 217.4,-425.86 200.63,-435.32 173.5,-412 127.31,-372.29 112.92,-358.06 94.5,-300 81.71,-259.68 93.32,-208.08 98.9,-187.77"/>
<polygon fill="midnightblue" stroke="midnightblue" points="358.18,-559.13 368.69,-560.47 361.31,-552.86 358.18,-559.13"/>
</g>
<!-- Node35 -->
<g id="node35" class="node">
<title>Node35</title>
<g id="a_node35"><a xlink:href="spec_2event_8h.html" target="_top" xlink:title=" ">
<polygon fill="white" stroke="black" points="473,-504.5 473,-523.5 526,-523.5 526,-504.5 473,-504.5"/>
<text text-anchor="middle" x="499.5" y="-511.5" font-family="Helvetica,sans-Serif" font-size="10.00">event.h</text>
</a>
</g>
</g>
<!-- Node34&#45;&gt;Node35 -->
<g id="edge48" class="edge">
<title>Node34&#45;&gt;Node35</title>
<path fill="none" stroke="midnightblue" d="M414.75,-555.86C435.52,-545.85 463.52,-532.35 481.55,-523.65"/>
<polygon fill="midnightblue" stroke="midnightblue" points="412.98,-552.83 405.49,-560.32 416.02,-559.13 412.98,-552.83"/>
</g>
<!-- Node38 -->
<g id="node38" class="node">
<title>Node38</title>
<g id="a_node38"><a xlink:href="spec_2packet__flags_8h.html" target="_top" xlink:title=" ">
<polygon fill="white" stroke="black" points="368.5,-504.5 368.5,-523.5 454.5,-523.5 454.5,-504.5 368.5,-504.5"/>
<text text-anchor="middle" x="411.5" y="-511.5" font-family="Helvetica,sans-Serif" font-size="10.00">packet_flags.h</text>
</a>
</g>
</g>
<!-- Node34&#45;&gt;Node38 -->
<g id="edge52" class="edge">
<title>Node34&#45;&gt;Node38</title>
<path fill="none" stroke="midnightblue" d="M395.64,-550.69C399.68,-541.59 404.38,-531.01 407.61,-523.75"/>
<polygon fill="midnightblue" stroke="midnightblue" points="392.33,-549.52 391.46,-560.08 398.72,-552.37 392.33,-549.52"/>
</g>
<!-- Node36 -->
<g id="node36" class="node">
<title>Node36</title>
<g id="a_node36"><a xlink:href="event_8h.html" target="_top" xlink:title=" ">
<polygon fill="white" stroke="black" points="473,-448.5 473,-467.5 526,-467.5 526,-448.5 473,-448.5"/>
<text text-anchor="middle" x="499.5" y="-455.5" font-family="Helvetica,sans-Serif" font-size="10.00">event.h</text>
</a>
</g>
</g>
<!-- Node35&#45;&gt;Node36 -->
<g id="edge49" class="edge">
<title>Node35&#45;&gt;Node36</title>
<path fill="none" stroke="midnightblue" d="M499.5,-493.8C499.5,-484.91 499.5,-474.78 499.5,-467.75"/>
<polygon fill="midnightblue" stroke="midnightblue" points="496,-494.08 499.5,-504.08 503,-494.08 496,-494.08"/>
</g>
<!-- Node37 -->
<g id="node37" class="node">
<title>Node37</title>
<g id="a_node37"><a xlink:href="timer__inlines_8h_source.html" target="_top" xlink:title=" ">
<polygon fill="white" stroke="black" points="399,-392.5 399,-411.5 488,-411.5 488,-392.5 399,-392.5"/>
<text text-anchor="middle" x="443.5" y="-399.5" font-family="Helvetica,sans-Serif" font-size="10.00">timer_inlines.h</text>
</a>
</g>
</g>
<!-- Node36&#45;&gt;Node37 -->
<g id="edge50" class="edge">
<title>Node36&#45;&gt;Node37</title>
<path fill="none" stroke="midnightblue" d="M483.17,-441.25C473.24,-431.67 460.91,-419.79 452.66,-411.83"/>
<polygon fill="midnightblue" stroke="midnightblue" points="480.87,-443.9 490.5,-448.32 485.73,-438.86 480.87,-443.9"/>
</g>
<!-- Node39 -->
<g id="node39" class="node">
<title>Node39</title>
<g id="a_node39"><a xlink:href="packet__flags_8h.html" target="_top" xlink:title=" ">
<polygon fill="white" stroke="black" points="368.5,-448.5 368.5,-467.5 454.5,-467.5 454.5,-448.5 368.5,-448.5"/>
<text text-anchor="middle" x="411.5" y="-455.5" font-family="Helvetica,sans-Serif" font-size="10.00">packet_flags.h</text>
</a>
</g>
</g>
<!-- Node38&#45;&gt;Node39 -->
<g id="edge53" class="edge">
<title>Node38&#45;&gt;Node39</title>
<path fill="none" stroke="midnightblue" d="M411.5,-493.8C411.5,-484.91 411.5,-474.78 411.5,-467.75"/>
<polygon fill="midnightblue" stroke="midnightblue" points="408,-494.08 411.5,-504.08 415,-494.08 408,-494.08"/>
</g>
<!-- Node41 -->
<g id="node41" class="node">
<title>Node41</title>
<g id="a_node41"><a xlink:href="queue_8h.html" target="_top" xlink:title=" ">
<polygon fill="white" stroke="black" points="773.5,-560.5 773.5,-579.5 829.5,-579.5 829.5,-560.5 773.5,-560.5"/>
<text text-anchor="middle" x="801.5" y="-567.5" font-family="Helvetica,sans-Serif" font-size="10.00">queue.h</text>
</a>
</g>
</g>
<!-- Node40&#45;&gt;Node41 -->
<g id="edge58" class="edge">
<title>Node40&#45;&gt;Node41</title>
<path fill="none" stroke="midnightblue" d="M801.5,-605.8C801.5,-596.91 801.5,-586.78 801.5,-579.75"/>
<polygon fill="midnightblue" stroke="midnightblue" points="798,-606.08 801.5,-616.08 805,-606.08 798,-606.08"/>
</g>
<!-- Node43 -->
<g id="node43" class="node">
<title>Node43</title>
<g id="a_node43"><a xlink:href="schedule_8h.html" target="_top" xlink:title=" ">
<polygon fill="white" stroke="black" points="848,-560.5 848,-579.5 917,-579.5 917,-560.5 848,-560.5"/>
<text text-anchor="middle" x="882.5" y="-567.5" font-family="Helvetica,sans-Serif" font-size="10.00">schedule.h</text>
</a>
</g>
</g>
<!-- Node42&#45;&gt;Node43 -->
<g id="edge60" class="edge">
<title>Node42&#45;&gt;Node43</title>
<path fill="none" stroke="midnightblue" d="M882.5,-605.8C882.5,-596.91 882.5,-586.78 882.5,-579.75"/>
<polygon fill="midnightblue" stroke="midnightblue" points="879,-606.08 882.5,-616.08 886,-606.08 879,-606.08"/>
</g>
<!-- Node45 -->
<g id="node45" class="node">
<title>Node45</title>
<g id="a_node45"><a xlink:href="queue__inlines_8h_source.html" target="_top" xlink:title=" ">
<polygon fill="white" stroke="black" points="949,-560.5 949,-579.5 1042,-579.5 1042,-560.5 949,-560.5"/>
<text text-anchor="middle" x="995.5" y="-567.5" font-family="Helvetica,sans-Serif" font-size="10.00">queue_inlines.h</text>
</a>
</g>
</g>
<!-- Node44&#45;&gt;Node45 -->
<g id="edge63" class="edge">
<title>Node44&#45;&gt;Node45</title>
<path fill="none" stroke="midnightblue" d="M995.5,-605.8C995.5,-596.91 995.5,-586.78 995.5,-579.75"/>
<polygon fill="midnightblue" stroke="midnightblue" points="992,-606.08 995.5,-616.08 999,-606.08 992,-606.08"/>
</g>
</g>
</svg>
