<?xml version="1.0" encoding="UTF-8" standalone="no"?>
<!DOCTYPE svg PUBLIC "-//W3C//DTD SVG 1.1//EN"
 "http://www.w3.org/Graphics/SVG/1.1/DTD/svg11.dtd">
<!-- Generated by graphviz version 2.43.0 (0)
 -->
<!-- Title: schedule_types.h Pages: 1 -->
<svg width="425pt" height="375pt"
 viewBox="0.00 0.00 424.50 375.00" xmlns="http://www.w3.org/2000/svg" xmlns:xlink="http://www.w3.org/1999/xlink">
<g id="graph0" class="graph" transform="scale(1 1) rotate(0) translate(4 371)">
<title>schedule_types.h</title>
<polygon fill="white" stroke="transparent" points="-4,4 -4,-371 420.5,-371 420.5,4 -4,4"/>
<!-- Node1 -->
<g id="node1" class="node">
<title>Node1</title>
<g id="a_node1"><a xlink:title=" ">
<polygon fill="#bfbfbf" stroke="black" points="77,-347.5 77,-366.5 178,-366.5 178,-347.5 77,-347.5"/>
<text text-anchor="middle" x="127.5" y="-354.5" font-family="Helvetica,sans-Serif" font-size="10.00">schedule_types.h</text>
</a>
</g>
</g>
<!-- Node2 -->
<g id="node2" class="node">
<title>Node2</title>
<g id="a_node2"><a xlink:title=" ">
<polygon fill="white" stroke="#bfbfbf" points="0,-280.5 0,-310.5 117,-310.5 117,-280.5 0,-280.5"/>
<text text-anchor="start" x="8" y="-298.5" font-family="Helvetica,sans-Serif" font-size="10.00">odp/api/abi/schedule</text>
<text text-anchor="middle" x="58.5" y="-287.5" font-family="Helvetica,sans-Serif" font-size="10.00">_types.h</text>
</a>
</g>
</g>
<!-- Node1&#45;&gt;Node2 -->
<g id="edge1" class="edge">
<title>Node1&#45;&gt;Node2</title>
<path fill="none" stroke="midnightblue" d="M117.61,-347.48C108.44,-339.57 94.43,-327.48 82.35,-317.07"/>
<polygon fill="midnightblue" stroke="midnightblue" points="84.62,-314.4 74.76,-310.52 80.05,-319.7 84.62,-314.4"/>
</g>
<!-- Node3 -->
<g id="node3" class="node">
<title>Node3</title>
<g id="a_node3"><a xlink:href="spec_2schedule__types_8h.html" target="_top" xlink:title=" ">
<polygon fill="white" stroke="black" points="135,-280.5 135,-310.5 260,-310.5 260,-280.5 135,-280.5"/>
<text text-anchor="start" x="143" y="-298.5" font-family="Helvetica,sans-Serif" font-size="10.00">odp/api/spec/schedule</text>
<text text-anchor="middle" x="197.5" y="-287.5" font-family="Helvetica,sans-Serif" font-size="10.00">_types.h</text>
</a>
</g>
</g>
<!-- Node1&#45;&gt;Node3 -->
<g id="edge2" class="edge">
<title>Node1&#45;&gt;Node3</title>
<path fill="none" stroke="midnightblue" d="M137.53,-347.48C146.83,-339.57 161.05,-327.48 173.3,-317.07"/>
<polygon fill="midnightblue" stroke="midnightblue" points="175.65,-319.67 181,-310.52 171.12,-314.33 175.65,-319.67"/>
</g>
<!-- Node4 -->
<g id="node4" class="node">
<title>Node4</title>
<g id="a_node4"><a xlink:title=" ">
<polygon fill="white" stroke="#bfbfbf" points="4,-0.5 4,-19.5 125,-19.5 125,-0.5 4,-0.5"/>
<text text-anchor="middle" x="64.5" y="-7.5" font-family="Helvetica,sans-Serif" font-size="10.00">odp/visibility_begin.h</text>
</a>
</g>
</g>
<!-- Node3&#45;&gt;Node4 -->
<g id="edge3" class="edge">
<title>Node3&#45;&gt;Node4</title>
<path fill="none" stroke="midnightblue" d="M137.69,-280.38C88.38,-264.76 26.5,-234.17 26.5,-179 26.5,-179 26.5,-179 26.5,-121 26.5,-86.81 43.1,-49.76 54.36,-28.57"/>
<polygon fill="midnightblue" stroke="midnightblue" points="57.45,-30.22 59.22,-19.77 51.32,-26.83 57.45,-30.22"/>
</g>
<!-- Node5 -->
<g id="node5" class="node">
<title>Node5</title>
<g id="a_node5"><a xlink:href="std__types_8h.html" target="_top" xlink:title=" ">
<polygon fill="white" stroke="black" points="141.5,-224.5 141.5,-243.5 253.5,-243.5 253.5,-224.5 141.5,-224.5"/>
<text text-anchor="middle" x="197.5" y="-231.5" font-family="Helvetica,sans-Serif" font-size="10.00">odp/api/std_types.h</text>
</a>
</g>
</g>
<!-- Node3&#45;&gt;Node5 -->
<g id="edge4" class="edge">
<title>Node3&#45;&gt;Node5</title>
<path fill="none" stroke="midnightblue" d="M197.5,-280.4C197.5,-272.47 197.5,-262.46 197.5,-253.86"/>
<polygon fill="midnightblue" stroke="midnightblue" points="201,-253.66 197.5,-243.66 194,-253.66 201,-253.66"/>
</g>
<!-- Node12 -->
<g id="node12" class="node">
<title>Node12</title>
<g id="a_node12"><a xlink:title=" ">
<polygon fill="white" stroke="#bfbfbf" points="304.5,-0.5 304.5,-19.5 416.5,-19.5 416.5,-0.5 304.5,-0.5"/>
<text text-anchor="middle" x="360.5" y="-7.5" font-family="Helvetica,sans-Serif" font-size="10.00">odp/visibility_end.h</text>
</a>
</g>
</g>
<!-- Node3&#45;&gt;Node12 -->
<g id="edge15" class="edge">
<title>Node3&#45;&gt;Node12</title>
<path fill="none" stroke="midnightblue" d="M260.27,-285.3C319.25,-272.68 398.5,-243.7 398.5,-179 398.5,-179 398.5,-179 398.5,-121 398.5,-86.81 381.9,-49.76 370.64,-28.57"/>
<polygon fill="midnightblue" stroke="midnightblue" points="373.68,-26.83 365.78,-19.77 367.55,-30.22 373.68,-26.83"/>
</g>
<!-- Node6 -->
<g id="node6" class="node">
<title>Node6</title>
<g id="a_node6"><a xlink:title=" ">
<polygon fill="white" stroke="#bfbfbf" points="56.5,-168.5 56.5,-187.5 186.5,-187.5 186.5,-168.5 56.5,-168.5"/>
<text text-anchor="middle" x="121.5" y="-175.5" font-family="Helvetica,sans-Serif" font-size="10.00">odp/api/abi/std_types.h</text>
</a>
</g>
</g>
<!-- Node5&#45;&gt;Node6 -->
<g id="edge5" class="edge">
<title>Node5&#45;&gt;Node6</title>
<path fill="none" stroke="midnightblue" d="M185.29,-224.32C173.72,-216.11 156.12,-203.6 142.34,-193.81"/>
<polygon fill="midnightblue" stroke="midnightblue" points="144.11,-190.77 133.93,-187.83 140.06,-196.48 144.11,-190.77"/>
</g>
<!-- Node7 -->
<g id="node7" class="node">
<title>Node7</title>
<g id="a_node7"><a xlink:href="spec_2std__types_8h.html" target="_top" xlink:title=" ">
<polygon fill="white" stroke="black" points="205,-168.5 205,-187.5 342,-187.5 342,-168.5 205,-168.5"/>
<text text-anchor="middle" x="273.5" y="-175.5" font-family="Helvetica,sans-Serif" font-size="10.00">odp/api/spec/std_types.h</text>
</a>
</g>
</g>
<!-- Node5&#45;&gt;Node7 -->
<g id="edge6" class="edge">
<title>Node5&#45;&gt;Node7</title>
<path fill="none" stroke="midnightblue" d="M209.71,-224.32C221.28,-216.11 238.88,-203.6 252.66,-193.81"/>
<polygon fill="midnightblue" stroke="midnightblue" points="254.94,-196.48 261.07,-187.83 250.89,-190.77 254.94,-196.48"/>
</g>
<!-- Node7&#45;&gt;Node4 -->
<g id="edge7" class="edge">
<title>Node7&#45;&gt;Node4</title>
<path fill="none" stroke="midnightblue" d="M235.29,-168.5C190.52,-156.33 118.08,-129.27 83.5,-76 74.4,-61.98 69.55,-43.48 67.03,-29.8"/>
<polygon fill="midnightblue" stroke="midnightblue" points="70.44,-28.99 65.42,-19.65 63.53,-30.08 70.44,-28.99"/>
</g>
<!-- Node8 -->
<g id="node8" class="node">
<title>Node8</title>
<g id="a_node8"><a xlink:title=" ">
<polygon fill="white" stroke="#bfbfbf" points="159,-112.5 159,-131.5 212,-131.5 212,-112.5 159,-112.5"/>
<text text-anchor="middle" x="185.5" y="-119.5" font-family="Helvetica,sans-Serif" font-size="10.00">stdint.h</text>
</a>
</g>
</g>
<!-- Node7&#45;&gt;Node8 -->
<g id="edge8" class="edge">
<title>Node7&#45;&gt;Node8</title>
<path fill="none" stroke="midnightblue" d="M259.36,-168.32C245.63,-159.9 224.56,-146.97 208.44,-137.07"/>
<polygon fill="midnightblue" stroke="midnightblue" points="209.96,-133.9 199.6,-131.65 206.3,-139.87 209.96,-133.9"/>
</g>
<!-- Node9 -->
<g id="node9" class="node">
<title>Node9</title>
<g id="a_node9"><a xlink:href="align_8h.html" target="_top" xlink:title=" ">
<polygon fill="white" stroke="black" points="230,-112.5 230,-131.5 319,-131.5 319,-112.5 230,-112.5"/>
<text text-anchor="middle" x="274.5" y="-119.5" font-family="Helvetica,sans-Serif" font-size="10.00">odp/api/align.h</text>
</a>
</g>
</g>
<!-- Node7&#45;&gt;Node9 -->
<g id="edge9" class="edge">
<title>Node7&#45;&gt;Node9</title>
<path fill="none" stroke="midnightblue" d="M273.67,-168.08C273.8,-161.01 273.98,-150.86 274.15,-141.99"/>
<polygon fill="midnightblue" stroke="midnightblue" points="277.65,-141.81 274.34,-131.75 270.65,-141.68 277.65,-141.81"/>
</g>
<!-- Node7&#45;&gt;Node12 -->
<g id="edge14" class="edge">
<title>Node7&#45;&gt;Node12</title>
<path fill="none" stroke="midnightblue" d="M288.58,-168.41C301.09,-160.51 318.42,-147.67 328.5,-132 349.2,-99.83 356.56,-54.69 359.14,-29.63"/>
<polygon fill="midnightblue" stroke="midnightblue" points="362.63,-29.91 360.02,-19.64 355.66,-29.3 362.63,-29.91"/>
</g>
<!-- Node10 -->
<g id="node10" class="node">
<title>Node10</title>
<g id="a_node10"><a xlink:title=" ">
<polygon fill="white" stroke="#bfbfbf" points="93,-56.5 93,-75.5 200,-75.5 200,-56.5 93,-56.5"/>
<text text-anchor="middle" x="146.5" y="-63.5" font-family="Helvetica,sans-Serif" font-size="10.00">odp/api/abi/align.h</text>
</a>
</g>
</g>
<!-- Node9&#45;&gt;Node10 -->
<g id="edge10" class="edge">
<title>Node9&#45;&gt;Node10</title>
<path fill="none" stroke="midnightblue" d="M254.22,-112.44C233.15,-103.56 199.98,-89.56 176.01,-79.45"/>
<polygon fill="midnightblue" stroke="midnightblue" points="177.26,-76.18 166.69,-75.52 174.54,-82.63 177.26,-76.18"/>
</g>
<!-- Node11 -->
<g id="node11" class="node">
<title>Node11</title>
<g id="a_node11"><a xlink:href="spec_2align_8h.html" target="_top" xlink:title=" ">
<polygon fill="white" stroke="black" points="218.5,-56.5 218.5,-75.5 332.5,-75.5 332.5,-56.5 218.5,-56.5"/>
<text text-anchor="middle" x="275.5" y="-63.5" font-family="Helvetica,sans-Serif" font-size="10.00">odp/api/spec/align.h</text>
</a>
</g>
</g>
<!-- Node9&#45;&gt;Node11 -->
<g id="edge11" class="edge">
<title>Node9&#45;&gt;Node11</title>
<path fill="none" stroke="midnightblue" d="M274.67,-112.08C274.8,-105.01 274.98,-94.86 275.15,-85.99"/>
<polygon fill="midnightblue" stroke="midnightblue" points="278.65,-85.81 275.34,-75.75 271.65,-85.68 278.65,-85.81"/>
</g>
<!-- Node11&#45;&gt;Node4 -->
<g id="edge12" class="edge">
<title>Node11&#45;&gt;Node4</title>
<path fill="none" stroke="midnightblue" d="M242.07,-56.44C205.64,-47.12 147.27,-32.18 107.47,-22"/>
<polygon fill="midnightblue" stroke="midnightblue" points="108.33,-18.61 97.78,-19.52 106.6,-25.39 108.33,-18.61"/>
</g>
<!-- Node11&#45;&gt;Node12 -->
<g id="edge13" class="edge">
<title>Node11&#45;&gt;Node12</title>
<path fill="none" stroke="midnightblue" d="M289.16,-56.32C302.42,-47.9 322.77,-34.97 338.35,-25.07"/>
<polygon fill="midnightblue" stroke="midnightblue" points="340.31,-27.97 346.88,-19.65 336.56,-22.06 340.31,-27.97"/>
</g>
</g>
</svg>
