<?xml version="1.0" encoding="UTF-8" standalone="no"?>
<!DOCTYPE svg PUBLIC "-//W3C//DTD SVG 1.1//EN"
 "http://www.w3.org/Graphics/SVG/1.1/DTD/svg11.dtd">
<!-- Generated by graphviz version 2.43.0 (0)
 -->
<!-- Title: dma_types.h Pages: 1 -->
<svg width="544pt" height="532pt"
 viewBox="0.00 0.00 543.50 532.00" xmlns="http://www.w3.org/2000/svg" xmlns:xlink="http://www.w3.org/1999/xlink">
<g id="graph0" class="graph" transform="scale(1 1) rotate(0) translate(4 528)">
<title>dma_types.h</title>
<polygon fill="white" stroke="transparent" points="-4,4 -4,-528 539.5,-528 539.5,4 -4,4"/>
<!-- Node1 -->
<g id="node1" class="node">
<title>Node1</title>
<g id="a_node1"><a xlink:title=" ">
<polygon fill="#bfbfbf" stroke="black" points="99.5,-504.5 99.5,-523.5 179.5,-523.5 179.5,-504.5 99.5,-504.5"/>
<text text-anchor="middle" x="139.5" y="-511.5" font-family="Helvetica,sans-Serif" font-size="10.00">dma_types.h</text>
</a>
</g>
</g>
<!-- Node2 -->
<g id="node2" class="node">
<title>Node2</title>
<g id="a_node2"><a xlink:href="dma__types_8h.html" target="_top" xlink:title=" ">
<polygon fill="white" stroke="black" points="99.5,-448.5 99.5,-467.5 179.5,-467.5 179.5,-448.5 99.5,-448.5"/>
<text text-anchor="middle" x="139.5" y="-455.5" font-family="Helvetica,sans-Serif" font-size="10.00">dma_types.h</text>
</a>
</g>
</g>
<!-- Node1&#45;&gt;Node2 -->
<g id="edge1" class="edge">
<title>Node1&#45;&gt;Node2</title>
<path fill="none" stroke="midnightblue" d="M139.5,-493.8C139.5,-484.91 139.5,-474.78 139.5,-467.75"/>
<polygon fill="midnightblue" stroke="midnightblue" points="136,-494.08 139.5,-504.08 143,-494.08 136,-494.08"/>
</g>
<!-- Node3 -->
<g id="node3" class="node">
<title>Node3</title>
<g id="a_node3"><a xlink:href="spec_2dma_8h.html" target="_top" xlink:title=" ">
<polygon fill="white" stroke="black" points="10,-280.5 10,-299.5 57,-299.5 57,-280.5 10,-280.5"/>
<text text-anchor="middle" x="33.5" y="-287.5" font-family="Helvetica,sans-Serif" font-size="10.00">dma.h</text>
</a>
</g>
</g>
<!-- Node2&#45;&gt;Node3 -->
<g id="edge2" class="edge">
<title>Node2&#45;&gt;Node3</title>
<path fill="none" stroke="midnightblue" d="M128.21,-439.31C105.61,-403.92 55.57,-325.56 38.97,-299.57"/>
<polygon fill="midnightblue" stroke="midnightblue" points="125.47,-441.53 133.8,-448.08 131.37,-437.76 125.47,-441.53"/>
</g>
<!-- Node5 -->
<g id="node5" class="node">
<title>Node5</title>
<g id="a_node5"><a xlink:href="spec_2pool__types_8h.html" target="_top" xlink:title=" ">
<polygon fill="white" stroke="black" points="134,-392.5 134,-411.5 213,-411.5 213,-392.5 134,-392.5"/>
<text text-anchor="middle" x="173.5" y="-399.5" font-family="Helvetica,sans-Serif" font-size="10.00">pool_types.h</text>
</a>
</g>
</g>
<!-- Node2&#45;&gt;Node5 -->
<g id="edge4" class="edge">
<title>Node2&#45;&gt;Node5</title>
<path fill="none" stroke="midnightblue" d="M150.48,-439.57C156.33,-430.27 163.27,-419.25 167.99,-411.75"/>
<polygon fill="midnightblue" stroke="midnightblue" points="147.48,-437.76 145.11,-448.08 153.4,-441.49 147.48,-437.76"/>
</g>
<!-- Node4 -->
<g id="node4" class="node">
<title>Node4</title>
<g id="a_node4"><a xlink:href="dma_8h.html" target="_top" xlink:title=" ">
<polygon fill="white" stroke="black" points="10,-224.5 10,-243.5 57,-243.5 57,-224.5 10,-224.5"/>
<text text-anchor="middle" x="33.5" y="-231.5" font-family="Helvetica,sans-Serif" font-size="10.00">dma.h</text>
</a>
</g>
</g>
<!-- Node3&#45;&gt;Node4 -->
<g id="edge3" class="edge">
<title>Node3&#45;&gt;Node4</title>
<path fill="none" stroke="midnightblue" d="M33.5,-269.8C33.5,-260.91 33.5,-250.78 33.5,-243.75"/>
<polygon fill="midnightblue" stroke="midnightblue" points="30,-270.08 33.5,-280.08 37,-270.08 30,-270.08"/>
</g>
<!-- Node6 -->
<g id="node6" class="node">
<title>Node6</title>
<g id="a_node6"><a xlink:href="pool__types_8h.html" target="_top" xlink:title=" ">
<polygon fill="white" stroke="black" points="206,-336.5 206,-355.5 285,-355.5 285,-336.5 206,-336.5"/>
<text text-anchor="middle" x="245.5" y="-343.5" font-family="Helvetica,sans-Serif" font-size="10.00">pool_types.h</text>
</a>
</g>
</g>
<!-- Node5&#45;&gt;Node6 -->
<g id="edge5" class="edge">
<title>Node5&#45;&gt;Node6</title>
<path fill="none" stroke="midnightblue" d="M193.37,-386.1C206.32,-376.38 222.8,-364.03 233.72,-355.83"/>
<polygon fill="midnightblue" stroke="midnightblue" points="190.97,-383.52 185.07,-392.32 195.17,-389.12 190.97,-383.52"/>
</g>
<!-- Node6&#45;&gt;Node3 -->
<g id="edge17" class="edge">
<title>Node6&#45;&gt;Node3</title>
<path fill="none" stroke="midnightblue" d="M202.09,-333.94C158.21,-322.77 92.05,-305.91 57.09,-297.01"/>
<polygon fill="midnightblue" stroke="midnightblue" points="201.35,-337.37 211.91,-336.44 203.08,-330.58 201.35,-337.37"/>
</g>
<!-- Node7 -->
<g id="node7" class="node">
<title>Node7</title>
<g id="a_node7"><a xlink:href="spec_2buffer_8h.html" target="_top" xlink:title=" ">
<polygon fill="white" stroke="black" points="343,-280.5 343,-299.5 396,-299.5 396,-280.5 343,-280.5"/>
<text text-anchor="middle" x="369.5" y="-287.5" font-family="Helvetica,sans-Serif" font-size="10.00">buffer.h</text>
</a>
</g>
</g>
<!-- Node6&#45;&gt;Node7 -->
<g id="edge6" class="edge">
<title>Node6&#45;&gt;Node7</title>
<path fill="none" stroke="midnightblue" d="M274.51,-332.37C297.73,-322.26 329.66,-308.35 349.94,-299.52"/>
<polygon fill="midnightblue" stroke="midnightblue" points="272.92,-329.24 265.15,-336.44 275.71,-335.66 272.92,-329.24"/>
</g>
<!-- Node9 -->
<g id="node9" class="node">
<title>Node9</title>
<g id="a_node9"><a xlink:href="spec_2classification_8h.html" target="_top" xlink:title=" ">
<polygon fill="white" stroke="black" points="0,-168.5 0,-187.5 89,-187.5 89,-168.5 0,-168.5"/>
<text text-anchor="middle" x="44.5" y="-175.5" font-family="Helvetica,sans-Serif" font-size="10.00">classification.h</text>
</a>
</g>
</g>
<!-- Node6&#45;&gt;Node9 -->
<g id="edge8" class="edge">
<title>Node6&#45;&gt;Node9</title>
<path fill="none" stroke="midnightblue" d="M195.77,-338.99C166.38,-333.21 130.04,-321.94 104.5,-300 99.76,-295.93 61.37,-214.87 48.61,-187.75"/>
<polygon fill="midnightblue" stroke="midnightblue" points="195.39,-342.47 205.85,-340.81 196.63,-335.58 195.39,-342.47"/>
</g>
<!-- Node15 -->
<g id="node15" class="node">
<title>Node15</title>
<g id="a_node15"><a xlink:href="spec_2crypto_8h.html" target="_top" xlink:title=" ">
<polygon fill="white" stroke="black" points="479.5,-280.5 479.5,-299.5 535.5,-299.5 535.5,-280.5 479.5,-280.5"/>
<text text-anchor="middle" x="507.5" y="-287.5" font-family="Helvetica,sans-Serif" font-size="10.00">crypto.h</text>
</a>
</g>
</g>
<!-- Node6&#45;&gt;Node15 -->
<g id="edge14" class="edge">
<title>Node6&#45;&gt;Node15</title>
<path fill="none" stroke="midnightblue" d="M294.96,-335.71C340.63,-327 410.3,-313.34 470.5,-300 473.34,-299.37 476.3,-298.69 479.25,-298"/>
<polygon fill="midnightblue" stroke="midnightblue" points="294.2,-332.3 285.03,-337.61 295.51,-339.17 294.2,-332.3"/>
</g>
<!-- Node17 -->
<g id="node17" class="node">
<title>Node17</title>
<g id="a_node17"><a xlink:href="spec_2packet_8h.html" target="_top" xlink:title=" ">
<polygon fill="white" stroke="black" points="285.5,-168.5 285.5,-187.5 343.5,-187.5 343.5,-168.5 285.5,-168.5"/>
<text text-anchor="middle" x="314.5" y="-175.5" font-family="Helvetica,sans-Serif" font-size="10.00">packet.h</text>
</a>
</g>
</g>
<!-- Node6&#45;&gt;Node17 -->
<g id="edge18" class="edge">
<title>Node6&#45;&gt;Node17</title>
<path fill="none" stroke="midnightblue" d="M244.68,-326.25C244.39,-301.37 246.74,-256.76 264.5,-224 272.96,-208.4 289,-195.46 300.64,-187.52"/>
<polygon fill="midnightblue" stroke="midnightblue" points="241.18,-326.57 244.96,-336.47 248.18,-326.37 241.18,-326.57"/>
</g>
<!-- Node19 -->
<g id="node19" class="node">
<title>Node19</title>
<g id="a_node19"><a xlink:href="spec_2packet__io__types_8h.html" target="_top" xlink:title=" ">
<polygon fill="white" stroke="black" points="113.5,-280.5 113.5,-299.5 217.5,-299.5 217.5,-280.5 113.5,-280.5"/>
<text text-anchor="middle" x="165.5" y="-287.5" font-family="Helvetica,sans-Serif" font-size="10.00">packet_io_types.h</text>
</a>
</g>
</g>
<!-- Node6&#45;&gt;Node19 -->
<g id="edge20" class="edge">
<title>Node6&#45;&gt;Node19</title>
<path fill="none" stroke="midnightblue" d="M224.2,-330.62C209.58,-320.76 190.67,-307.99 178.32,-299.65"/>
<polygon fill="midnightblue" stroke="midnightblue" points="222.4,-333.63 232.65,-336.32 226.32,-327.83 222.4,-333.63"/>
</g>
<!-- Node23 -->
<g id="node23" class="node">
<title>Node23</title>
<g id="a_node23"><a xlink:href="spec_2pool_8h.html" target="_top" xlink:title=" ">
<polygon fill="white" stroke="black" points="414,-280.5 414,-299.5 461,-299.5 461,-280.5 414,-280.5"/>
<text text-anchor="middle" x="437.5" y="-287.5" font-family="Helvetica,sans-Serif" font-size="10.00">pool.h</text>
</a>
</g>
</g>
<!-- Node6&#45;&gt;Node23 -->
<g id="edge29" class="edge">
<title>Node6&#45;&gt;Node23</title>
<path fill="none" stroke="midnightblue" d="M285.85,-333.65C324.65,-322.74 381.97,-306.62 413.88,-297.64"/>
<polygon fill="midnightblue" stroke="midnightblue" points="284.6,-330.37 275.92,-336.44 286.5,-337.11 284.6,-330.37"/>
</g>
<!-- Node26 -->
<g id="node26" class="node">
<title>Node26</title>
<g id="a_node26"><a xlink:href="spec_2timer_8h.html" target="_top" xlink:title=" ">
<polygon fill="white" stroke="black" points="274,-280.5 274,-299.5 325,-299.5 325,-280.5 274,-280.5"/>
<text text-anchor="middle" x="299.5" y="-287.5" font-family="Helvetica,sans-Serif" font-size="10.00">timer.h</text>
</a>
</g>
</g>
<!-- Node6&#45;&gt;Node26 -->
<g id="edge32" class="edge">
<title>Node6&#45;&gt;Node26</title>
<path fill="none" stroke="midnightblue" d="M261.5,-329C271.07,-319.43 282.86,-307.64 290.75,-299.75"/>
<polygon fill="midnightblue" stroke="midnightblue" points="259.01,-326.54 254.42,-336.08 263.96,-331.49 259.01,-326.54"/>
</g>
<!-- Node8 -->
<g id="node8" class="node">
<title>Node8</title>
<g id="a_node8"><a xlink:href="buffer_8h.html" target="_top" xlink:title=" ">
<polygon fill="white" stroke="black" points="343,-224.5 343,-243.5 396,-243.5 396,-224.5 343,-224.5"/>
<text text-anchor="middle" x="369.5" y="-231.5" font-family="Helvetica,sans-Serif" font-size="10.00">buffer.h</text>
</a>
</g>
</g>
<!-- Node7&#45;&gt;Node8 -->
<g id="edge7" class="edge">
<title>Node7&#45;&gt;Node8</title>
<path fill="none" stroke="midnightblue" d="M369.5,-269.8C369.5,-260.91 369.5,-250.78 369.5,-243.75"/>
<polygon fill="midnightblue" stroke="midnightblue" points="366,-270.08 369.5,-280.08 373,-270.08 366,-270.08"/>
</g>
<!-- Node10 -->
<g id="node10" class="node">
<title>Node10</title>
<g id="a_node10"><a xlink:href="classification_8h.html" target="_top" xlink:title=" ">
<polygon fill="white" stroke="black" points="0,-112.5 0,-131.5 89,-131.5 89,-112.5 0,-112.5"/>
<text text-anchor="middle" x="44.5" y="-119.5" font-family="Helvetica,sans-Serif" font-size="10.00">classification.h</text>
</a>
</g>
</g>
<!-- Node9&#45;&gt;Node10 -->
<g id="edge9" class="edge">
<title>Node9&#45;&gt;Node10</title>
<path fill="none" stroke="midnightblue" d="M44.5,-157.8C44.5,-148.91 44.5,-138.78 44.5,-131.75"/>
<polygon fill="midnightblue" stroke="midnightblue" points="41,-158.08 44.5,-168.08 48,-158.08 41,-158.08"/>
</g>
<!-- Node11 -->
<g id="node11" class="node">
<title>Node11</title>
<g id="a_node11"><a xlink:href="spec_2ipsec_8h.html" target="_top" xlink:title=" ">
<polygon fill="white" stroke="black" points="182,-56.5 182,-75.5 233,-75.5 233,-56.5 182,-56.5"/>
<text text-anchor="middle" x="207.5" y="-63.5" font-family="Helvetica,sans-Serif" font-size="10.00">ipsec.h</text>
</a>
</g>
</g>
<!-- Node10&#45;&gt;Node11 -->
<g id="edge10" class="edge">
<title>Node10&#45;&gt;Node11</title>
<path fill="none" stroke="midnightblue" d="M80.2,-109.17C110.9,-99 154.42,-84.59 181.79,-75.52"/>
<polygon fill="midnightblue" stroke="midnightblue" points="78.72,-105.98 70.33,-112.44 80.92,-112.62 78.72,-105.98"/>
</g>
<!-- Node13 -->
<g id="node13" class="node">
<title>Node13</title>
<g id="a_node13"><a xlink:href="spec_2packet__io_8h.html" target="_top" xlink:title=" ">
<polygon fill="white" stroke="black" points="60.5,-56.5 60.5,-75.5 132.5,-75.5 132.5,-56.5 60.5,-56.5"/>
<text text-anchor="middle" x="96.5" y="-63.5" font-family="Helvetica,sans-Serif" font-size="10.00">packet_io.h</text>
</a>
</g>
</g>
<!-- Node10&#45;&gt;Node13 -->
<g id="edge12" class="edge">
<title>Node10&#45;&gt;Node13</title>
<path fill="none" stroke="midnightblue" d="M60.18,-104.72C69.34,-95.2 80.55,-83.56 88.07,-75.75"/>
<polygon fill="midnightblue" stroke="midnightblue" points="57.5,-102.45 53.09,-112.08 62.54,-107.31 57.5,-102.45"/>
</g>
<!-- Node12 -->
<g id="node12" class="node">
<title>Node12</title>
<g id="a_node12"><a xlink:href="ipsec_8h.html" target="_top" xlink:title=" ">
<polygon fill="white" stroke="black" points="182,-0.5 182,-19.5 233,-19.5 233,-0.5 182,-0.5"/>
<text text-anchor="middle" x="207.5" y="-7.5" font-family="Helvetica,sans-Serif" font-size="10.00">ipsec.h</text>
</a>
</g>
</g>
<!-- Node11&#45;&gt;Node12 -->
<g id="edge11" class="edge">
<title>Node11&#45;&gt;Node12</title>
<path fill="none" stroke="midnightblue" d="M207.5,-45.8C207.5,-36.91 207.5,-26.78 207.5,-19.75"/>
<polygon fill="midnightblue" stroke="midnightblue" points="204,-46.08 207.5,-56.08 211,-46.08 204,-46.08"/>
</g>
<!-- Node14 -->
<g id="node14" class="node">
<title>Node14</title>
<g id="a_node14"><a xlink:href="packet__io_8h.html" target="_top" xlink:title=" ">
<polygon fill="white" stroke="black" points="60.5,-0.5 60.5,-19.5 132.5,-19.5 132.5,-0.5 60.5,-0.5"/>
<text text-anchor="middle" x="96.5" y="-7.5" font-family="Helvetica,sans-Serif" font-size="10.00">packet_io.h</text>
</a>
</g>
</g>
<!-- Node13&#45;&gt;Node14 -->
<g id="edge13" class="edge">
<title>Node13&#45;&gt;Node14</title>
<path fill="none" stroke="midnightblue" d="M96.5,-45.8C96.5,-36.91 96.5,-26.78 96.5,-19.75"/>
<polygon fill="midnightblue" stroke="midnightblue" points="93,-46.08 96.5,-56.08 100,-46.08 93,-46.08"/>
</g>
<!-- Node16 -->
<g id="node16" class="node">
<title>Node16</title>
<g id="a_node16"><a xlink:href="crypto_8h.html" target="_top" xlink:title=" ">
<polygon fill="white" stroke="black" points="420.5,-112.5 420.5,-131.5 476.5,-131.5 476.5,-112.5 420.5,-112.5"/>
<text text-anchor="middle" x="448.5" y="-119.5" font-family="Helvetica,sans-Serif" font-size="10.00">crypto.h</text>
</a>
</g>
</g>
<!-- Node15&#45;&gt;Node16 -->
<g id="edge15" class="edge">
<title>Node15&#45;&gt;Node16</title>
<path fill="none" stroke="midnightblue" d="M507.77,-270.17C507.41,-245.53 504.33,-201.53 488.5,-168 481.63,-153.44 468.55,-140.12 459.22,-131.81"/>
<polygon fill="midnightblue" stroke="midnightblue" points="504.27,-270.31 507.77,-280.3 511.27,-270.3 504.27,-270.31"/>
</g>
<!-- Node16&#45;&gt;Node11 -->
<g id="edge16" class="edge">
<title>Node16&#45;&gt;Node11</title>
<path fill="none" stroke="midnightblue" d="M410.39,-112.46C360.88,-101.37 275.76,-82.3 233.24,-72.77"/>
<polygon fill="midnightblue" stroke="midnightblue" points="409.86,-115.93 420.38,-114.7 411.39,-109.1 409.86,-115.93"/>
</g>
<!-- Node18 -->
<g id="node18" class="node">
<title>Node18</title>
<g id="a_node18"><a xlink:href="packet_8h.html" target="_top" xlink:title=" ">
<polygon fill="white" stroke="black" points="285.5,-112.5 285.5,-131.5 343.5,-131.5 343.5,-112.5 285.5,-112.5"/>
<text text-anchor="middle" x="314.5" y="-119.5" font-family="Helvetica,sans-Serif" font-size="10.00">packet.h</text>
</a>
</g>
</g>
<!-- Node17&#45;&gt;Node18 -->
<g id="edge19" class="edge">
<title>Node17&#45;&gt;Node18</title>
<path fill="none" stroke="midnightblue" d="M314.5,-157.8C314.5,-148.91 314.5,-138.78 314.5,-131.75"/>
<polygon fill="midnightblue" stroke="midnightblue" points="311,-158.08 314.5,-168.08 318,-158.08 311,-158.08"/>
</g>
<!-- Node20 -->
<g id="node20" class="node">
<title>Node20</title>
<g id="a_node20"><a xlink:href="packet__io__types_8h.html" target="_top" xlink:title=" ">
<polygon fill="white" stroke="black" points="113.5,-224.5 113.5,-243.5 217.5,-243.5 217.5,-224.5 113.5,-224.5"/>
<text text-anchor="middle" x="165.5" y="-231.5" font-family="Helvetica,sans-Serif" font-size="10.00">packet_io_types.h</text>
</a>
</g>
</g>
<!-- Node19&#45;&gt;Node20 -->
<g id="edge21" class="edge">
<title>Node19&#45;&gt;Node20</title>
<path fill="none" stroke="midnightblue" d="M165.5,-269.8C165.5,-260.91 165.5,-250.78 165.5,-243.75"/>
<polygon fill="midnightblue" stroke="midnightblue" points="162,-270.08 165.5,-280.08 169,-270.08 162,-270.08"/>
</g>
<!-- Node20&#45;&gt;Node9 -->
<g id="edge22" class="edge">
<title>Node20&#45;&gt;Node9</title>
<path fill="none" stroke="midnightblue" d="M137.19,-220.37C114.53,-210.26 83.37,-196.35 63.58,-187.52"/>
<polygon fill="midnightblue" stroke="midnightblue" points="135.77,-223.56 146.33,-224.44 138.62,-217.17 135.77,-223.56"/>
</g>
<!-- Node20&#45;&gt;Node11 -->
<g id="edge23" class="edge">
<title>Node20&#45;&gt;Node11</title>
<path fill="none" stroke="midnightblue" d="M200.95,-220.2C215.28,-213.06 230.34,-202.61 238.5,-188 254.97,-158.51 248.53,-144.25 238.5,-112 234.1,-97.87 223.55,-84.25 215.98,-75.77"/>
<polygon fill="midnightblue" stroke="midnightblue" points="199.35,-217.08 191.71,-224.41 202.26,-223.44 199.35,-217.08"/>
</g>
<!-- Node20&#45;&gt;Node13 -->
<g id="edge25" class="edge">
<title>Node20&#45;&gt;Node13</title>
<path fill="none" stroke="midnightblue" d="M153.17,-216.13C147.57,-207.92 141.16,-197.75 136.5,-188 117.32,-147.88 103.6,-96.17 98.59,-75.8"/>
<polygon fill="midnightblue" stroke="midnightblue" points="150.4,-218.27 159.03,-224.42 156.12,-214.23 150.4,-218.27"/>
</g>
<!-- Node20&#45;&gt;Node17 -->
<g id="edge24" class="edge">
<title>Node20&#45;&gt;Node17</title>
<path fill="none" stroke="midnightblue" d="M198.87,-220.91C226.88,-210.75 266.2,-196.51 291,-187.52"/>
<polygon fill="midnightblue" stroke="midnightblue" points="197.32,-217.75 189.11,-224.44 199.7,-224.33 197.32,-217.75"/>
</g>
<!-- Node21 -->
<g id="node21" class="node">
<title>Node21</title>
<g id="a_node21"><a xlink:href="spec_2traffic__mngr_8h.html" target="_top" xlink:title=" ">
<polygon fill="white" stroke="black" points="145.5,-168.5 145.5,-187.5 229.5,-187.5 229.5,-168.5 145.5,-168.5"/>
<text text-anchor="middle" x="187.5" y="-175.5" font-family="Helvetica,sans-Serif" font-size="10.00">traffic_mngr.h</text>
</a>
</g>
</g>
<!-- Node20&#45;&gt;Node21 -->
<g id="edge26" class="edge">
<title>Node20&#45;&gt;Node21</title>
<path fill="none" stroke="midnightblue" d="M172.96,-214.69C176.67,-205.59 180.98,-195.01 183.93,-187.75"/>
<polygon fill="midnightblue" stroke="midnightblue" points="169.66,-213.5 169.13,-224.08 176.15,-216.14 169.66,-213.5"/>
</g>
<!-- Node22 -->
<g id="node22" class="node">
<title>Node22</title>
<g id="a_node22"><a xlink:href="traffic__mngr_8h.html" target="_top" xlink:title=" ">
<polygon fill="white" stroke="black" points="145.5,-112.5 145.5,-131.5 229.5,-131.5 229.5,-112.5 145.5,-112.5"/>
<text text-anchor="middle" x="187.5" y="-119.5" font-family="Helvetica,sans-Serif" font-size="10.00">traffic_mngr.h</text>
</a>
</g>
</g>
<!-- Node21&#45;&gt;Node22 -->
<g id="edge27" class="edge">
<title>Node21&#45;&gt;Node22</title>
<path fill="none" stroke="midnightblue" d="M187.5,-157.8C187.5,-148.91 187.5,-138.78 187.5,-131.75"/>
<polygon fill="midnightblue" stroke="midnightblue" points="184,-158.08 187.5,-168.08 191,-158.08 184,-158.08"/>
</g>
<!-- Node22&#45;&gt;Node11 -->
<g id="edge28" class="edge">
<title>Node22&#45;&gt;Node11</title>
<path fill="none" stroke="midnightblue" d="M194.28,-102.69C197.65,-93.59 201.57,-83.01 204.26,-75.75"/>
<polygon fill="midnightblue" stroke="midnightblue" points="190.99,-101.49 190.8,-112.08 197.56,-103.92 190.99,-101.49"/>
</g>
<!-- Node24 -->
<g id="node24" class="node">
<title>Node24</title>
<g id="a_node24"><a xlink:href="pool_8h.html" target="_top" xlink:title=" ">
<polygon fill="white" stroke="black" points="414,-224.5 414,-243.5 461,-243.5 461,-224.5 414,-224.5"/>
<text text-anchor="middle" x="437.5" y="-231.5" font-family="Helvetica,sans-Serif" font-size="10.00">pool.h</text>
</a>
</g>
</g>
<!-- Node23&#45;&gt;Node24 -->
<g id="edge30" class="edge">
<title>Node23&#45;&gt;Node24</title>
<path fill="none" stroke="midnightblue" d="M437.5,-269.8C437.5,-260.91 437.5,-250.78 437.5,-243.75"/>
<polygon fill="midnightblue" stroke="midnightblue" points="434,-270.08 437.5,-280.08 441,-270.08 434,-270.08"/>
</g>
<!-- Node25 -->
<g id="node25" class="node">
<title>Node25</title>
<g id="a_node25"><a xlink:href="packet__inlines_8h.html" target="_top" xlink:title=" ">
<polygon fill="white" stroke="black" points="384,-168.5 384,-187.5 479,-187.5 479,-168.5 384,-168.5"/>
<text text-anchor="middle" x="431.5" y="-175.5" font-family="Helvetica,sans-Serif" font-size="10.00">packet_inlines.h</text>
</a>
</g>
</g>
<!-- Node24&#45;&gt;Node25 -->
<g id="edge31" class="edge">
<title>Node24&#45;&gt;Node25</title>
<path fill="none" stroke="midnightblue" d="M435.4,-214.1C434.4,-205.14 433.26,-194.86 432.47,-187.75"/>
<polygon fill="midnightblue" stroke="midnightblue" points="431.93,-214.53 436.51,-224.08 438.88,-213.76 431.93,-214.53"/>
</g>
<!-- Node27 -->
<g id="node27" class="node">
<title>Node27</title>
<g id="a_node27"><a xlink:href="timer_8h.html" target="_top" xlink:title=" ">
<polygon fill="white" stroke="black" points="274,-224.5 274,-243.5 325,-243.5 325,-224.5 274,-224.5"/>
<text text-anchor="middle" x="299.5" y="-231.5" font-family="Helvetica,sans-Serif" font-size="10.00">timer.h</text>
</a>
</g>
</g>
<!-- Node26&#45;&gt;Node27 -->
<g id="edge33" class="edge">
<title>Node26&#45;&gt;Node27</title>
<path fill="none" stroke="midnightblue" d="M299.5,-269.8C299.5,-260.91 299.5,-250.78 299.5,-243.75"/>
<polygon fill="midnightblue" stroke="midnightblue" points="296,-270.08 299.5,-280.08 303,-270.08 296,-270.08"/>
</g>
</g>
</svg>
