<?xml version="1.0" encoding="UTF-8" standalone="no"?>
<!DOCTYPE svg PUBLIC "-//W3C//DTD SVG 1.1//EN"
 "http://www.w3.org/Graphics/SVG/1.1/DTD/svg11.dtd">
<!-- Generated by graphviz version 2.43.0 (0)
 -->
<!-- Title: event_types.h Pages: 1 -->
<svg width="1028pt" height="644pt"
 viewBox="0.00 0.00 1027.50 644.00" xmlns="http://www.w3.org/2000/svg" xmlns:xlink="http://www.w3.org/1999/xlink">
<g id="graph0" class="graph" transform="scale(1 1) rotate(0) translate(4 640)">
<title>event_types.h</title>
<polygon fill="white" stroke="transparent" points="-4,4 -4,-640 1023.5,-640 1023.5,4 -4,4"/>
<!-- Node1 -->
<g id="node1" class="node">
<title>Node1</title>
<g id="a_node1"><a xlink:title=" ">
<polygon fill="#bfbfbf" stroke="black" points="535.5,-616.5 535.5,-635.5 621.5,-635.5 621.5,-616.5 535.5,-616.5"/>
<text text-anchor="middle" x="578.5" y="-623.5" font-family="Helvetica,sans-Serif" font-size="10.00">event_types.h</text>
</a>
</g>
</g>
<!-- Node2 -->
<g id="node2" class="node">
<title>Node2</title>
<g id="a_node2"><a xlink:href="event__types_8h.html" target="_top" xlink:title=" ">
<polygon fill="white" stroke="black" points="535.5,-560.5 535.5,-579.5 621.5,-579.5 621.5,-560.5 535.5,-560.5"/>
<text text-anchor="middle" x="578.5" y="-567.5" font-family="Helvetica,sans-Serif" font-size="10.00">event_types.h</text>
</a>
</g>
</g>
<!-- Node1&#45;&gt;Node2 -->
<g id="edge1" class="edge">
<title>Node1&#45;&gt;Node2</title>
<path fill="none" stroke="midnightblue" d="M578.5,-605.8C578.5,-596.91 578.5,-586.78 578.5,-579.75"/>
<polygon fill="midnightblue" stroke="midnightblue" points="575,-606.08 578.5,-616.08 582,-606.08 575,-606.08"/>
</g>
<!-- Node3 -->
<g id="node3" class="node">
<title>Node3</title>
<g id="a_node3"><a xlink:href="spec_2buffer_8h.html" target="_top" xlink:title=" ">
<polygon fill="white" stroke="black" points="0,-280.5 0,-299.5 53,-299.5 53,-280.5 0,-280.5"/>
<text text-anchor="middle" x="26.5" y="-287.5" font-family="Helvetica,sans-Serif" font-size="10.00">buffer.h</text>
</a>
</g>
</g>
<!-- Node2&#45;&gt;Node3 -->
<g id="edge2" class="edge">
<title>Node2&#45;&gt;Node3</title>
<path fill="none" stroke="midnightblue" d="M525.04,-567.24C401.63,-562.75 104.62,-549.43 67.5,-524 40.93,-505.8 35.5,-491.2 35.5,-459 35.5,-459 35.5,-459 35.5,-401 35.5,-363.06 30.12,-318.01 27.68,-299.54"/>
<polygon fill="midnightblue" stroke="midnightblue" points="525.25,-570.75 535.37,-567.61 525.5,-563.75 525.25,-570.75"/>
</g>
<!-- Node5 -->
<g id="node5" class="node">
<title>Node5</title>
<g id="a_node5"><a xlink:href="spec_2comp_8h.html" target="_top" xlink:title=" ">
<polygon fill="white" stroke="black" points="666,-504.5 666,-523.5 719,-523.5 719,-504.5 666,-504.5"/>
<text text-anchor="middle" x="692.5" y="-511.5" font-family="Helvetica,sans-Serif" font-size="10.00">comp.h</text>
</a>
</g>
</g>
<!-- Node2&#45;&gt;Node5 -->
<g id="edge4" class="edge">
<title>Node2&#45;&gt;Node5</title>
<path fill="none" stroke="midnightblue" d="M605.74,-556.1C627.04,-546.01 656.04,-532.27 674.52,-523.52"/>
<polygon fill="midnightblue" stroke="midnightblue" points="604.1,-553 596.56,-560.44 607.1,-559.33 604.1,-553"/>
</g>
<!-- Node7 -->
<g id="node7" class="node">
<title>Node7</title>
<g id="a_node7"><a xlink:href="spec_2dma__types_8h.html" target="_top" xlink:title=" ">
<polygon fill="white" stroke="black" points="357.5,-504.5 357.5,-523.5 437.5,-523.5 437.5,-504.5 357.5,-504.5"/>
<text text-anchor="middle" x="397.5" y="-511.5" font-family="Helvetica,sans-Serif" font-size="10.00">dma_types.h</text>
</a>
</g>
</g>
<!-- Node2&#45;&gt;Node7 -->
<g id="edge6" class="edge">
<title>Node2&#45;&gt;Node7</title>
<path fill="none" stroke="midnightblue" d="M540.18,-557.57C506.04,-547.38 456.84,-532.7 426.05,-523.52"/>
<polygon fill="midnightblue" stroke="midnightblue" points="539.24,-560.94 549.82,-560.44 541.24,-554.23 539.24,-560.94"/>
</g>
<!-- Node21 -->
<g id="node21" class="node">
<title>Node21</title>
<g id="a_node21"><a xlink:href="spec_2packet_8h.html" target="_top" xlink:title=" ">
<polygon fill="white" stroke="black" points="147.5,-168.5 147.5,-187.5 205.5,-187.5 205.5,-168.5 147.5,-168.5"/>
<text text-anchor="middle" x="176.5" y="-175.5" font-family="Helvetica,sans-Serif" font-size="10.00">packet.h</text>
</a>
</g>
</g>
<!-- Node2&#45;&gt;Node21 -->
<g id="edge42" class="edge">
<title>Node2&#45;&gt;Node21</title>
<path fill="none" stroke="midnightblue" d="M524.88,-568.38C396.39,-565.43 81.5,-549.04 81.5,-459 81.5,-459 81.5,-459 81.5,-289 81.5,-241.06 133.83,-203.69 160.81,-187.6"/>
<polygon fill="midnightblue" stroke="midnightblue" points="525.19,-571.88 535.26,-568.59 525.34,-564.88 525.19,-571.88"/>
</g>
<!-- Node30 -->
<g id="node30" class="node">
<title>Node30</title>
<g id="a_node30"><a xlink:href="spec_2timer_8h.html" target="_top" xlink:title=" ">
<polygon fill="white" stroke="black" points="512,-280.5 512,-299.5 563,-299.5 563,-280.5 512,-280.5"/>
<text text-anchor="middle" x="537.5" y="-287.5" font-family="Helvetica,sans-Serif" font-size="10.00">timer.h</text>
</a>
</g>
</g>
<!-- Node2&#45;&gt;Node30 -->
<g id="edge47" class="edge">
<title>Node2&#45;&gt;Node30</title>
<path fill="none" stroke="midnightblue" d="M534.89,-556.84C517.04,-549.87 497.55,-539.36 484.5,-524 465.01,-501.06 465.5,-489.1 465.5,-459 465.5,-459 465.5,-459 465.5,-401 465.5,-356.95 506.42,-316.8 526.56,-299.7"/>
<polygon fill="midnightblue" stroke="midnightblue" points="533.99,-560.24 544.59,-560.36 536.38,-553.66 533.99,-560.24"/>
</g>
<!-- Node32 -->
<g id="node32" class="node">
<title>Node32</title>
<g id="a_node32"><a xlink:href="spec_2event_8h.html" target="_top" xlink:title=" ">
<polygon fill="white" stroke="black" points="595,-504.5 595,-523.5 648,-523.5 648,-504.5 595,-504.5"/>
<text text-anchor="middle" x="621.5" y="-511.5" font-family="Helvetica,sans-Serif" font-size="10.00">event.h</text>
</a>
</g>
</g>
<!-- Node2&#45;&gt;Node32 -->
<g id="edge39" class="edge">
<title>Node2&#45;&gt;Node32</title>
<path fill="none" stroke="midnightblue" d="M591.92,-552.14C599.41,-542.74 608.44,-531.4 614.53,-523.75"/>
<polygon fill="midnightblue" stroke="midnightblue" points="589.09,-550.08 585.6,-560.08 594.57,-554.44 589.09,-550.08"/>
</g>
<!-- Node35 -->
<g id="node35" class="node">
<title>Node35</title>
<g id="a_node35"><a xlink:href="spec_2queue_8h.html" target="_top" xlink:title=" ">
<polygon fill="white" stroke="black" points="737.5,-504.5 737.5,-523.5 793.5,-523.5 793.5,-504.5 737.5,-504.5"/>
<text text-anchor="middle" x="765.5" y="-511.5" font-family="Helvetica,sans-Serif" font-size="10.00">queue.h</text>
</a>
</g>
</g>
<!-- Node2&#45;&gt;Node35 -->
<g id="edge43" class="edge">
<title>Node2&#45;&gt;Node35</title>
<path fill="none" stroke="midnightblue" d="M617.75,-557.66C653.5,-547.34 705.41,-532.35 737.23,-523.16"/>
<polygon fill="midnightblue" stroke="midnightblue" points="616.77,-554.31 608.13,-560.44 618.71,-561.03 616.77,-554.31"/>
</g>
<!-- Node37 -->
<g id="node37" class="node">
<title>Node37</title>
<g id="a_node37"><a xlink:href="spec_2schedule_8h.html" target="_top" xlink:title=" ">
<polygon fill="white" stroke="black" points="812,-504.5 812,-523.5 881,-523.5 881,-504.5 812,-504.5"/>
<text text-anchor="middle" x="846.5" y="-511.5" font-family="Helvetica,sans-Serif" font-size="10.00">schedule.h</text>
</a>
</g>
</g>
<!-- Node2&#45;&gt;Node37 -->
<g id="edge45" class="edge">
<title>Node2&#45;&gt;Node37</title>
<path fill="none" stroke="midnightblue" d="M631.36,-558.43C676.76,-549.35 743.95,-535.87 802.5,-524 805.56,-523.38 808.73,-522.73 811.92,-522.09"/>
<polygon fill="midnightblue" stroke="midnightblue" points="630.57,-555.02 621.45,-560.42 631.94,-561.89 630.57,-555.02"/>
</g>
<!-- Node39 -->
<g id="node39" class="node">
<title>Node39</title>
<g id="a_node39"><a xlink:href="spec_2timer__types_8h.html" target="_top" xlink:title=" ">
<polygon fill="white" stroke="black" points="493.5,-504.5 493.5,-523.5 577.5,-523.5 577.5,-504.5 493.5,-504.5"/>
<text text-anchor="middle" x="535.5" y="-511.5" font-family="Helvetica,sans-Serif" font-size="10.00">timer_types.h</text>
</a>
</g>
</g>
<!-- Node2&#45;&gt;Node39 -->
<g id="edge48" class="edge">
<title>Node2&#45;&gt;Node39</title>
<path fill="none" stroke="midnightblue" d="M565.08,-552.14C557.59,-542.74 548.56,-531.4 542.47,-523.75"/>
<polygon fill="midnightblue" stroke="midnightblue" points="562.43,-554.44 571.4,-560.08 567.91,-550.08 562.43,-554.44"/>
</g>
<!-- Node41 -->
<g id="node41" class="node">
<title>Node41</title>
<g id="a_node41"><a xlink:href="queue__inline__types_8h_source.html" target="_top" xlink:title=" ">
<polygon fill="white" stroke="black" points="899.5,-504.5 899.5,-523.5 1019.5,-523.5 1019.5,-504.5 899.5,-504.5"/>
<text text-anchor="middle" x="959.5" y="-511.5" font-family="Helvetica,sans-Serif" font-size="10.00">queue_inline_types.h</text>
</a>
</g>
</g>
<!-- Node2&#45;&gt;Node41 -->
<g id="edge52" class="edge">
<title>Node2&#45;&gt;Node41</title>
<path fill="none" stroke="midnightblue" d="M631.82,-561.44C702.17,-551.47 825.69,-533.97 899.32,-523.53"/>
<polygon fill="midnightblue" stroke="midnightblue" points="631.24,-557.99 621.83,-562.86 632.23,-564.92 631.24,-557.99"/>
</g>
<!-- Node4 -->
<g id="node4" class="node">
<title>Node4</title>
<g id="a_node4"><a xlink:href="buffer_8h.html" target="_top" xlink:title=" ">
<polygon fill="white" stroke="black" points="0,-224.5 0,-243.5 53,-243.5 53,-224.5 0,-224.5"/>
<text text-anchor="middle" x="26.5" y="-231.5" font-family="Helvetica,sans-Serif" font-size="10.00">buffer.h</text>
</a>
</g>
</g>
<!-- Node3&#45;&gt;Node4 -->
<g id="edge3" class="edge">
<title>Node3&#45;&gt;Node4</title>
<path fill="none" stroke="midnightblue" d="M26.5,-269.8C26.5,-260.91 26.5,-250.78 26.5,-243.75"/>
<polygon fill="midnightblue" stroke="midnightblue" points="23,-270.08 26.5,-280.08 30,-270.08 23,-270.08"/>
</g>
<!-- Node6 -->
<g id="node6" class="node">
<title>Node6</title>
<g id="a_node6"><a xlink:href="comp_8h.html" target="_top" xlink:title=" ">
<polygon fill="white" stroke="black" points="666,-448.5 666,-467.5 719,-467.5 719,-448.5 666,-448.5"/>
<text text-anchor="middle" x="692.5" y="-455.5" font-family="Helvetica,sans-Serif" font-size="10.00">comp.h</text>
</a>
</g>
</g>
<!-- Node5&#45;&gt;Node6 -->
<g id="edge5" class="edge">
<title>Node5&#45;&gt;Node6</title>
<path fill="none" stroke="midnightblue" d="M692.5,-493.8C692.5,-484.91 692.5,-474.78 692.5,-467.75"/>
<polygon fill="midnightblue" stroke="midnightblue" points="689,-494.08 692.5,-504.08 696,-494.08 689,-494.08"/>
</g>
<!-- Node8 -->
<g id="node8" class="node">
<title>Node8</title>
<g id="a_node8"><a xlink:href="dma__types_8h.html" target="_top" xlink:title=" ">
<polygon fill="white" stroke="black" points="357.5,-448.5 357.5,-467.5 437.5,-467.5 437.5,-448.5 357.5,-448.5"/>
<text text-anchor="middle" x="397.5" y="-455.5" font-family="Helvetica,sans-Serif" font-size="10.00">dma_types.h</text>
</a>
</g>
</g>
<!-- Node7&#45;&gt;Node8 -->
<g id="edge7" class="edge">
<title>Node7&#45;&gt;Node8</title>
<path fill="none" stroke="midnightblue" d="M397.5,-493.8C397.5,-484.91 397.5,-474.78 397.5,-467.75"/>
<polygon fill="midnightblue" stroke="midnightblue" points="394,-494.08 397.5,-504.08 401,-494.08 394,-494.08"/>
</g>
<!-- Node9 -->
<g id="node9" class="node">
<title>Node9</title>
<g id="a_node9"><a xlink:href="spec_2dma_8h.html" target="_top" xlink:title=" ">
<polygon fill="white" stroke="black" points="447,-280.5 447,-299.5 494,-299.5 494,-280.5 447,-280.5"/>
<text text-anchor="middle" x="470.5" y="-287.5" font-family="Helvetica,sans-Serif" font-size="10.00">dma.h</text>
</a>
</g>
</g>
<!-- Node8&#45;&gt;Node9 -->
<g id="edge8" class="edge">
<title>Node8&#45;&gt;Node9</title>
<path fill="none" stroke="midnightblue" d="M405.48,-438.86C421.14,-403.25 455.35,-325.45 466.73,-299.57"/>
<polygon fill="midnightblue" stroke="midnightblue" points="402.25,-437.51 401.42,-448.08 408.65,-440.33 402.25,-437.51"/>
</g>
<!-- Node11 -->
<g id="node11" class="node">
<title>Node11</title>
<g id="a_node11"><a xlink:href="spec_2pool__types_8h.html" target="_top" xlink:title=" ">
<polygon fill="white" stroke="black" points="318,-392.5 318,-411.5 397,-411.5 397,-392.5 318,-392.5"/>
<text text-anchor="middle" x="357.5" y="-399.5" font-family="Helvetica,sans-Serif" font-size="10.00">pool_types.h</text>
</a>
</g>
</g>
<!-- Node8&#45;&gt;Node11 -->
<g id="edge10" class="edge">
<title>Node8&#45;&gt;Node11</title>
<path fill="none" stroke="midnightblue" d="M384.8,-439.86C377.87,-430.5 369.59,-419.33 363.98,-411.75"/>
<polygon fill="midnightblue" stroke="midnightblue" points="382.13,-442.13 390.89,-448.08 387.75,-437.96 382.13,-442.13"/>
</g>
<!-- Node10 -->
<g id="node10" class="node">
<title>Node10</title>
<g id="a_node10"><a xlink:href="dma_8h.html" target="_top" xlink:title=" ">
<polygon fill="white" stroke="black" points="447,-224.5 447,-243.5 494,-243.5 494,-224.5 447,-224.5"/>
<text text-anchor="middle" x="470.5" y="-231.5" font-family="Helvetica,sans-Serif" font-size="10.00">dma.h</text>
</a>
</g>
</g>
<!-- Node9&#45;&gt;Node10 -->
<g id="edge9" class="edge">
<title>Node9&#45;&gt;Node10</title>
<path fill="none" stroke="midnightblue" d="M470.5,-269.8C470.5,-260.91 470.5,-250.78 470.5,-243.75"/>
<polygon fill="midnightblue" stroke="midnightblue" points="467,-270.08 470.5,-280.08 474,-270.08 467,-270.08"/>
</g>
<!-- Node12 -->
<g id="node12" class="node">
<title>Node12</title>
<g id="a_node12"><a xlink:href="pool__types_8h.html" target="_top" xlink:title=" ">
<polygon fill="white" stroke="black" points="314,-336.5 314,-355.5 393,-355.5 393,-336.5 314,-336.5"/>
<text text-anchor="middle" x="353.5" y="-343.5" font-family="Helvetica,sans-Serif" font-size="10.00">pool_types.h</text>
</a>
</g>
</g>
<!-- Node11&#45;&gt;Node12 -->
<g id="edge11" class="edge">
<title>Node11&#45;&gt;Node12</title>
<path fill="none" stroke="midnightblue" d="M356.1,-382.1C355.44,-373.14 354.67,-362.86 354.15,-355.75"/>
<polygon fill="midnightblue" stroke="midnightblue" points="352.61,-382.37 356.84,-392.08 359.59,-381.85 352.61,-382.37"/>
</g>
<!-- Node12&#45;&gt;Node3 -->
<g id="edge12" class="edge">
<title>Node12&#45;&gt;Node3</title>
<path fill="none" stroke="midnightblue" d="M303.8,-336.79C233.63,-325.2 107.99,-304.46 53.24,-295.42"/>
<polygon fill="midnightblue" stroke="midnightblue" points="303.29,-340.26 313.73,-338.43 304.43,-333.35 303.29,-340.26"/>
</g>
<!-- Node12&#45;&gt;Node9 -->
<g id="edge22" class="edge">
<title>Node12&#45;&gt;Node9</title>
<path fill="none" stroke="midnightblue" d="M381.16,-332.23C403.05,-322.13 433,-308.31 452.05,-299.52"/>
<polygon fill="midnightblue" stroke="midnightblue" points="379.65,-329.08 372.04,-336.44 382.59,-335.43 379.65,-329.08"/>
</g>
<!-- Node13 -->
<g id="node13" class="node">
<title>Node13</title>
<g id="a_node13"><a xlink:href="spec_2classification_8h.html" target="_top" xlink:title=" ">
<polygon fill="white" stroke="black" points="402,-168.5 402,-187.5 491,-187.5 491,-168.5 402,-168.5"/>
<text text-anchor="middle" x="446.5" y="-175.5" font-family="Helvetica,sans-Serif" font-size="10.00">classification.h</text>
</a>
</g>
</g>
<!-- Node12&#45;&gt;Node13 -->
<g id="edge13" class="edge">
<title>Node12&#45;&gt;Node13</title>
<path fill="none" stroke="midnightblue" d="M351.81,-326.06C350.5,-300.65 351.67,-255.1 372.5,-224 384.21,-206.51 405.25,-194.69 421.9,-187.57"/>
<polygon fill="midnightblue" stroke="midnightblue" points="348.33,-326.47 352.52,-336.2 355.31,-325.98 348.33,-326.47"/>
</g>
<!-- Node19 -->
<g id="node19" class="node">
<title>Node19</title>
<g id="a_node19"><a xlink:href="spec_2crypto_8h.html" target="_top" xlink:title=" ">
<polygon fill="white" stroke="black" points="109.5,-280.5 109.5,-299.5 165.5,-299.5 165.5,-280.5 109.5,-280.5"/>
<text text-anchor="middle" x="137.5" y="-287.5" font-family="Helvetica,sans-Serif" font-size="10.00">crypto.h</text>
</a>
</g>
</g>
<!-- Node12&#45;&gt;Node19 -->
<g id="edge19" class="edge">
<title>Node12&#45;&gt;Node19</title>
<path fill="none" stroke="midnightblue" d="M309.36,-333.97C266.35,-323.21 202.26,-307.19 165.71,-298.05"/>
<polygon fill="midnightblue" stroke="midnightblue" points="308.72,-337.41 319.27,-336.44 310.42,-330.62 308.72,-337.41"/>
</g>
<!-- Node12&#45;&gt;Node21 -->
<g id="edge23" class="edge">
<title>Node12&#45;&gt;Node21</title>
<path fill="none" stroke="midnightblue" d="M303.98,-340.77C273.78,-335.67 236.5,-324.48 212.5,-300 181.05,-267.92 176.88,-209.63 176.47,-187.67"/>
<polygon fill="midnightblue" stroke="midnightblue" points="303.51,-344.23 313.92,-342.27 304.56,-337.31 303.51,-344.23"/>
</g>
<!-- Node23 -->
<g id="node23" class="node">
<title>Node23</title>
<g id="a_node23"><a xlink:href="spec_2packet__io__types_8h.html" target="_top" xlink:title=" ">
<polygon fill="white" stroke="black" points="221.5,-280.5 221.5,-299.5 325.5,-299.5 325.5,-280.5 221.5,-280.5"/>
<text text-anchor="middle" x="273.5" y="-287.5" font-family="Helvetica,sans-Serif" font-size="10.00">packet_io_types.h</text>
</a>
</g>
</g>
<!-- Node12&#45;&gt;Node23 -->
<g id="edge25" class="edge">
<title>Node12&#45;&gt;Node23</title>
<path fill="none" stroke="midnightblue" d="M332.2,-330.62C317.58,-320.76 298.67,-307.99 286.32,-299.65"/>
<polygon fill="midnightblue" stroke="midnightblue" points="330.4,-333.63 340.65,-336.32 334.32,-327.83 330.4,-333.63"/>
</g>
<!-- Node27 -->
<g id="node27" class="node">
<title>Node27</title>
<g id="a_node27"><a xlink:href="spec_2pool_8h.html" target="_top" xlink:title=" ">
<polygon fill="white" stroke="black" points="382,-280.5 382,-299.5 429,-299.5 429,-280.5 382,-280.5"/>
<text text-anchor="middle" x="405.5" y="-287.5" font-family="Helvetica,sans-Serif" font-size="10.00">pool.h</text>
</a>
</g>
</g>
<!-- Node12&#45;&gt;Node27 -->
<g id="edge34" class="edge">
<title>Node12&#45;&gt;Node27</title>
<path fill="none" stroke="midnightblue" d="M369.18,-328.72C378.34,-319.2 389.55,-307.56 397.07,-299.75"/>
<polygon fill="midnightblue" stroke="midnightblue" points="366.5,-326.45 362.09,-336.08 371.54,-331.31 366.5,-326.45"/>
</g>
<!-- Node12&#45;&gt;Node30 -->
<g id="edge37" class="edge">
<title>Node12&#45;&gt;Node30</title>
<path fill="none" stroke="midnightblue" d="M392.33,-333.61C428.27,-323.06 480.71,-307.67 511.75,-298.56"/>
<polygon fill="midnightblue" stroke="midnightblue" points="391.27,-330.27 382.66,-336.44 393.24,-336.99 391.27,-330.27"/>
</g>
<!-- Node14 -->
<g id="node14" class="node">
<title>Node14</title>
<g id="a_node14"><a xlink:href="classification_8h.html" target="_top" xlink:title=" ">
<polygon fill="white" stroke="black" points="402,-112.5 402,-131.5 491,-131.5 491,-112.5 402,-112.5"/>
<text text-anchor="middle" x="446.5" y="-119.5" font-family="Helvetica,sans-Serif" font-size="10.00">classification.h</text>
</a>
</g>
</g>
<!-- Node13&#45;&gt;Node14 -->
<g id="edge14" class="edge">
<title>Node13&#45;&gt;Node14</title>
<path fill="none" stroke="midnightblue" d="M446.5,-157.8C446.5,-148.91 446.5,-138.78 446.5,-131.75"/>
<polygon fill="midnightblue" stroke="midnightblue" points="443,-158.08 446.5,-168.08 450,-158.08 443,-158.08"/>
</g>
<!-- Node15 -->
<g id="node15" class="node">
<title>Node15</title>
<g id="a_node15"><a xlink:href="spec_2ipsec_8h.html" target="_top" xlink:title=" ">
<polygon fill="white" stroke="black" points="238,-56.5 238,-75.5 289,-75.5 289,-56.5 238,-56.5"/>
<text text-anchor="middle" x="263.5" y="-63.5" font-family="Helvetica,sans-Serif" font-size="10.00">ipsec.h</text>
</a>
</g>
</g>
<!-- Node14&#45;&gt;Node15 -->
<g id="edge15" class="edge">
<title>Node14&#45;&gt;Node15</title>
<path fill="none" stroke="midnightblue" d="M407.89,-109.61C372.13,-99.06 319.98,-83.67 289.11,-74.56"/>
<polygon fill="midnightblue" stroke="midnightblue" points="406.92,-112.97 417.5,-112.44 408.9,-106.26 406.92,-112.97"/>
</g>
<!-- Node17 -->
<g id="node17" class="node">
<title>Node17</title>
<g id="a_node17"><a xlink:href="spec_2packet__io_8h.html" target="_top" xlink:title=" ">
<polygon fill="white" stroke="black" points="373.5,-56.5 373.5,-75.5 445.5,-75.5 445.5,-56.5 373.5,-56.5"/>
<text text-anchor="middle" x="409.5" y="-63.5" font-family="Helvetica,sans-Serif" font-size="10.00">packet_io.h</text>
</a>
</g>
</g>
<!-- Node14&#45;&gt;Node17 -->
<g id="edge17" class="edge">
<title>Node14&#45;&gt;Node17</title>
<path fill="none" stroke="midnightblue" d="M434.55,-103.57C428.19,-94.27 420.63,-83.25 415.5,-75.75"/>
<polygon fill="midnightblue" stroke="midnightblue" points="431.85,-105.81 440.39,-112.08 437.63,-101.86 431.85,-105.81"/>
</g>
<!-- Node16 -->
<g id="node16" class="node">
<title>Node16</title>
<g id="a_node16"><a xlink:href="ipsec_8h.html" target="_top" xlink:title=" ">
<polygon fill="white" stroke="black" points="238,-0.5 238,-19.5 289,-19.5 289,-0.5 238,-0.5"/>
<text text-anchor="middle" x="263.5" y="-7.5" font-family="Helvetica,sans-Serif" font-size="10.00">ipsec.h</text>
</a>
</g>
</g>
<!-- Node15&#45;&gt;Node16 -->
<g id="edge16" class="edge">
<title>Node15&#45;&gt;Node16</title>
<path fill="none" stroke="midnightblue" d="M263.5,-45.8C263.5,-36.91 263.5,-26.78 263.5,-19.75"/>
<polygon fill="midnightblue" stroke="midnightblue" points="260,-46.08 263.5,-56.08 267,-46.08 260,-46.08"/>
</g>
<!-- Node18 -->
<g id="node18" class="node">
<title>Node18</title>
<g id="a_node18"><a xlink:href="packet__io_8h.html" target="_top" xlink:title=" ">
<polygon fill="white" stroke="black" points="373.5,-0.5 373.5,-19.5 445.5,-19.5 445.5,-0.5 373.5,-0.5"/>
<text text-anchor="middle" x="409.5" y="-7.5" font-family="Helvetica,sans-Serif" font-size="10.00">packet_io.h</text>
</a>
</g>
</g>
<!-- Node17&#45;&gt;Node18 -->
<g id="edge18" class="edge">
<title>Node17&#45;&gt;Node18</title>
<path fill="none" stroke="midnightblue" d="M409.5,-45.8C409.5,-36.91 409.5,-26.78 409.5,-19.75"/>
<polygon fill="midnightblue" stroke="midnightblue" points="406,-46.08 409.5,-56.08 413,-46.08 406,-46.08"/>
</g>
<!-- Node20 -->
<g id="node20" class="node">
<title>Node20</title>
<g id="a_node20"><a xlink:href="crypto_8h.html" target="_top" xlink:title=" ">
<polygon fill="white" stroke="black" points="73.5,-112.5 73.5,-131.5 129.5,-131.5 129.5,-112.5 73.5,-112.5"/>
<text text-anchor="middle" x="101.5" y="-119.5" font-family="Helvetica,sans-Serif" font-size="10.00">crypto.h</text>
</a>
</g>
</g>
<!-- Node19&#45;&gt;Node20 -->
<g id="edge20" class="edge">
<title>Node19&#45;&gt;Node20</title>
<path fill="none" stroke="midnightblue" d="M133.36,-269.93C125.56,-233.92 108.92,-157.23 103.36,-131.57"/>
<polygon fill="midnightblue" stroke="midnightblue" points="130.02,-271.04 135.56,-280.08 136.87,-269.56 130.02,-271.04"/>
</g>
<!-- Node20&#45;&gt;Node15 -->
<g id="edge21" class="edge">
<title>Node20&#45;&gt;Node15</title>
<path fill="none" stroke="midnightblue" d="M136.98,-109.17C167.49,-99 210.74,-84.59 237.95,-75.52"/>
<polygon fill="midnightblue" stroke="midnightblue" points="135.55,-105.96 127.17,-112.44 137.76,-112.6 135.55,-105.96"/>
</g>
<!-- Node22 -->
<g id="node22" class="node">
<title>Node22</title>
<g id="a_node22"><a xlink:href="packet_8h.html" target="_top" xlink:title=" ">
<polygon fill="white" stroke="black" points="147.5,-112.5 147.5,-131.5 205.5,-131.5 205.5,-112.5 147.5,-112.5"/>
<text text-anchor="middle" x="176.5" y="-119.5" font-family="Helvetica,sans-Serif" font-size="10.00">packet.h</text>
</a>
</g>
</g>
<!-- Node21&#45;&gt;Node22 -->
<g id="edge24" class="edge">
<title>Node21&#45;&gt;Node22</title>
<path fill="none" stroke="midnightblue" d="M176.5,-157.8C176.5,-148.91 176.5,-138.78 176.5,-131.75"/>
<polygon fill="midnightblue" stroke="midnightblue" points="173,-158.08 176.5,-168.08 180,-158.08 173,-158.08"/>
</g>
<!-- Node24 -->
<g id="node24" class="node">
<title>Node24</title>
<g id="a_node24"><a xlink:href="packet__io__types_8h.html" target="_top" xlink:title=" ">
<polygon fill="white" stroke="black" points="221.5,-224.5 221.5,-243.5 325.5,-243.5 325.5,-224.5 221.5,-224.5"/>
<text text-anchor="middle" x="273.5" y="-231.5" font-family="Helvetica,sans-Serif" font-size="10.00">packet_io_types.h</text>
</a>
</g>
</g>
<!-- Node23&#45;&gt;Node24 -->
<g id="edge26" class="edge">
<title>Node23&#45;&gt;Node24</title>
<path fill="none" stroke="midnightblue" d="M273.5,-269.8C273.5,-260.91 273.5,-250.78 273.5,-243.75"/>
<polygon fill="midnightblue" stroke="midnightblue" points="270,-270.08 273.5,-280.08 277,-270.08 270,-270.08"/>
</g>
<!-- Node24&#45;&gt;Node13 -->
<g id="edge27" class="edge">
<title>Node24&#45;&gt;Node13</title>
<path fill="none" stroke="midnightblue" d="M310.55,-221.44C343.16,-211.26 389.91,-196.66 419.22,-187.52"/>
<polygon fill="midnightblue" stroke="midnightblue" points="309.42,-218.12 300.91,-224.44 311.5,-224.8 309.42,-218.12"/>
</g>
<!-- Node24&#45;&gt;Node15 -->
<g id="edge28" class="edge">
<title>Node24&#45;&gt;Node15</title>
<path fill="none" stroke="midnightblue" d="M263.22,-215.63C259.01,-207.52 254.62,-197.57 252.5,-188 245.18,-155.02 248.46,-145.54 252.5,-112 254.06,-99.06 258.05,-84.48 260.77,-75.51"/>
<polygon fill="midnightblue" stroke="midnightblue" points="260.2,-217.4 268.12,-224.44 266.32,-214 260.2,-217.4"/>
</g>
<!-- Node24&#45;&gt;Node17 -->
<g id="edge30" class="edge">
<title>Node24&#45;&gt;Node17</title>
<path fill="none" stroke="midnightblue" d="M307.01,-220.27C323.03,-212.83 341.49,-202.1 354.5,-188 370.93,-170.19 397.41,-100.18 406.4,-75.59"/>
<polygon fill="midnightblue" stroke="midnightblue" points="305.18,-217.25 297.43,-224.47 307.99,-223.66 305.18,-217.25"/>
</g>
<!-- Node24&#45;&gt;Node21 -->
<g id="edge29" class="edge">
<title>Node24&#45;&gt;Node21</title>
<path fill="none" stroke="midnightblue" d="M249.16,-219.45C231.26,-209.48 207.45,-196.23 192.05,-187.65"/>
<polygon fill="midnightblue" stroke="midnightblue" points="247.48,-222.52 257.92,-224.32 250.88,-216.4 247.48,-222.52"/>
</g>
<!-- Node25 -->
<g id="node25" class="node">
<title>Node25</title>
<g id="a_node25"><a xlink:href="spec_2traffic__mngr_8h.html" target="_top" xlink:title=" ">
<polygon fill="white" stroke="black" points="261.5,-168.5 261.5,-187.5 345.5,-187.5 345.5,-168.5 261.5,-168.5"/>
<text text-anchor="middle" x="303.5" y="-175.5" font-family="Helvetica,sans-Serif" font-size="10.00">traffic_mngr.h</text>
</a>
</g>
</g>
<!-- Node24&#45;&gt;Node25 -->
<g id="edge31" class="edge">
<title>Node24&#45;&gt;Node25</title>
<path fill="none" stroke="midnightblue" d="M283.35,-215.27C288.47,-206.05 294.52,-195.17 298.64,-187.75"/>
<polygon fill="midnightblue" stroke="midnightblue" points="280.25,-213.64 278.45,-224.08 286.37,-217.04 280.25,-213.64"/>
</g>
<!-- Node26 -->
<g id="node26" class="node">
<title>Node26</title>
<g id="a_node26"><a xlink:href="traffic__mngr_8h.html" target="_top" xlink:title=" ">
<polygon fill="white" stroke="black" points="261.5,-112.5 261.5,-131.5 345.5,-131.5 345.5,-112.5 261.5,-112.5"/>
<text text-anchor="middle" x="303.5" y="-119.5" font-family="Helvetica,sans-Serif" font-size="10.00">traffic_mngr.h</text>
</a>
</g>
</g>
<!-- Node25&#45;&gt;Node26 -->
<g id="edge32" class="edge">
<title>Node25&#45;&gt;Node26</title>
<path fill="none" stroke="midnightblue" d="M303.5,-157.8C303.5,-148.91 303.5,-138.78 303.5,-131.75"/>
<polygon fill="midnightblue" stroke="midnightblue" points="300,-158.08 303.5,-168.08 307,-158.08 300,-158.08"/>
</g>
<!-- Node26&#45;&gt;Node15 -->
<g id="edge33" class="edge">
<title>Node26&#45;&gt;Node15</title>
<path fill="none" stroke="midnightblue" d="M290.8,-103.86C283.87,-94.5 275.59,-83.33 269.98,-75.75"/>
<polygon fill="midnightblue" stroke="midnightblue" points="288.13,-106.13 296.89,-112.08 293.75,-101.96 288.13,-106.13"/>
</g>
<!-- Node28 -->
<g id="node28" class="node">
<title>Node28</title>
<g id="a_node28"><a xlink:href="pool_8h.html" target="_top" xlink:title=" ">
<polygon fill="white" stroke="black" points="382,-224.5 382,-243.5 429,-243.5 429,-224.5 382,-224.5"/>
<text text-anchor="middle" x="405.5" y="-231.5" font-family="Helvetica,sans-Serif" font-size="10.00">pool.h</text>
</a>
</g>
</g>
<!-- Node27&#45;&gt;Node28 -->
<g id="edge35" class="edge">
<title>Node27&#45;&gt;Node28</title>
<path fill="none" stroke="midnightblue" d="M405.5,-269.8C405.5,-260.91 405.5,-250.78 405.5,-243.75"/>
<polygon fill="midnightblue" stroke="midnightblue" points="402,-270.08 405.5,-280.08 409,-270.08 402,-270.08"/>
</g>
<!-- Node29 -->
<g id="node29" class="node">
<title>Node29</title>
<g id="a_node29"><a xlink:href="packet__inlines_8h.html" target="_top" xlink:title=" ">
<polygon fill="white" stroke="black" points="509,-168.5 509,-187.5 604,-187.5 604,-168.5 509,-168.5"/>
<text text-anchor="middle" x="556.5" y="-175.5" font-family="Helvetica,sans-Serif" font-size="10.00">packet_inlines.h</text>
</a>
</g>
</g>
<!-- Node28&#45;&gt;Node29 -->
<g id="edge36" class="edge">
<title>Node28&#45;&gt;Node29</title>
<path fill="none" stroke="midnightblue" d="M438.6,-221.16C466.99,-211.01 507.22,-196.63 532.57,-187.56"/>
<polygon fill="midnightblue" stroke="midnightblue" points="437.33,-217.9 429.09,-224.56 439.69,-224.49 437.33,-217.9"/>
</g>
<!-- Node31 -->
<g id="node31" class="node">
<title>Node31</title>
<g id="a_node31"><a xlink:href="timer_8h.html" target="_top" xlink:title=" ">
<polygon fill="white" stroke="black" points="512,-224.5 512,-243.5 563,-243.5 563,-224.5 512,-224.5"/>
<text text-anchor="middle" x="537.5" y="-231.5" font-family="Helvetica,sans-Serif" font-size="10.00">timer.h</text>
</a>
</g>
</g>
<!-- Node30&#45;&gt;Node31 -->
<g id="edge38" class="edge">
<title>Node30&#45;&gt;Node31</title>
<path fill="none" stroke="midnightblue" d="M537.5,-269.8C537.5,-260.91 537.5,-250.78 537.5,-243.75"/>
<polygon fill="midnightblue" stroke="midnightblue" points="534,-270.08 537.5,-280.08 541,-270.08 534,-270.08"/>
</g>
<!-- Node33 -->
<g id="node33" class="node">
<title>Node33</title>
<g id="a_node33"><a xlink:href="event_8h.html" target="_top" xlink:title=" ">
<polygon fill="white" stroke="black" points="595,-448.5 595,-467.5 648,-467.5 648,-448.5 595,-448.5"/>
<text text-anchor="middle" x="621.5" y="-455.5" font-family="Helvetica,sans-Serif" font-size="10.00">event.h</text>
</a>
</g>
</g>
<!-- Node32&#45;&gt;Node33 -->
<g id="edge40" class="edge">
<title>Node32&#45;&gt;Node33</title>
<path fill="none" stroke="midnightblue" d="M621.5,-493.8C621.5,-484.91 621.5,-474.78 621.5,-467.75"/>
<polygon fill="midnightblue" stroke="midnightblue" points="618,-494.08 621.5,-504.08 625,-494.08 618,-494.08"/>
</g>
<!-- Node34 -->
<g id="node34" class="node">
<title>Node34</title>
<g id="a_node34"><a xlink:href="timer__inlines_8h_source.html" target="_top" xlink:title=" ">
<polygon fill="white" stroke="black" points="571,-392.5 571,-411.5 660,-411.5 660,-392.5 571,-392.5"/>
<text text-anchor="middle" x="615.5" y="-399.5" font-family="Helvetica,sans-Serif" font-size="10.00">timer_inlines.h</text>
</a>
</g>
</g>
<!-- Node33&#45;&gt;Node34 -->
<g id="edge41" class="edge">
<title>Node33&#45;&gt;Node34</title>
<path fill="none" stroke="midnightblue" d="M619.4,-438.1C618.4,-429.14 617.26,-418.86 616.47,-411.75"/>
<polygon fill="midnightblue" stroke="midnightblue" points="615.93,-438.53 620.51,-448.08 622.88,-437.76 615.93,-438.53"/>
</g>
<!-- Node36 -->
<g id="node36" class="node">
<title>Node36</title>
<g id="a_node36"><a xlink:href="queue_8h.html" target="_top" xlink:title=" ">
<polygon fill="white" stroke="black" points="737.5,-448.5 737.5,-467.5 793.5,-467.5 793.5,-448.5 737.5,-448.5"/>
<text text-anchor="middle" x="765.5" y="-455.5" font-family="Helvetica,sans-Serif" font-size="10.00">queue.h</text>
</a>
</g>
</g>
<!-- Node35&#45;&gt;Node36 -->
<g id="edge44" class="edge">
<title>Node35&#45;&gt;Node36</title>
<path fill="none" stroke="midnightblue" d="M765.5,-493.8C765.5,-484.91 765.5,-474.78 765.5,-467.75"/>
<polygon fill="midnightblue" stroke="midnightblue" points="762,-494.08 765.5,-504.08 769,-494.08 762,-494.08"/>
</g>
<!-- Node38 -->
<g id="node38" class="node">
<title>Node38</title>
<g id="a_node38"><a xlink:href="schedule_8h.html" target="_top" xlink:title=" ">
<polygon fill="white" stroke="black" points="812,-448.5 812,-467.5 881,-467.5 881,-448.5 812,-448.5"/>
<text text-anchor="middle" x="846.5" y="-455.5" font-family="Helvetica,sans-Serif" font-size="10.00">schedule.h</text>
</a>
</g>
</g>
<!-- Node37&#45;&gt;Node38 -->
<g id="edge46" class="edge">
<title>Node37&#45;&gt;Node38</title>
<path fill="none" stroke="midnightblue" d="M846.5,-493.8C846.5,-484.91 846.5,-474.78 846.5,-467.75"/>
<polygon fill="midnightblue" stroke="midnightblue" points="843,-494.08 846.5,-504.08 850,-494.08 843,-494.08"/>
</g>
<!-- Node40 -->
<g id="node40" class="node">
<title>Node40</title>
<g id="a_node40"><a xlink:href="timer__types_8h.html" target="_top" xlink:title=" ">
<polygon fill="white" stroke="black" points="493.5,-448.5 493.5,-467.5 577.5,-467.5 577.5,-448.5 493.5,-448.5"/>
<text text-anchor="middle" x="535.5" y="-455.5" font-family="Helvetica,sans-Serif" font-size="10.00">timer_types.h</text>
</a>
</g>
</g>
<!-- Node39&#45;&gt;Node40 -->
<g id="edge49" class="edge">
<title>Node39&#45;&gt;Node40</title>
<path fill="none" stroke="midnightblue" d="M535.5,-493.8C535.5,-484.91 535.5,-474.78 535.5,-467.75"/>
<polygon fill="midnightblue" stroke="midnightblue" points="532,-494.08 535.5,-504.08 539,-494.08 532,-494.08"/>
</g>
<!-- Node40&#45;&gt;Node30 -->
<g id="edge50" class="edge">
<title>Node40&#45;&gt;Node30</title>
<path fill="none" stroke="midnightblue" d="M535.73,-437.93C536.16,-401.92 537.09,-325.23 537.4,-299.57"/>
<polygon fill="midnightblue" stroke="midnightblue" points="532.23,-438.03 535.61,-448.08 539.23,-438.12 532.23,-438.03"/>
</g>
<!-- Node40&#45;&gt;Node34 -->
<g id="edge51" class="edge">
<title>Node40&#45;&gt;Node34</title>
<path fill="none" stroke="midnightblue" d="M556.8,-442.62C571.42,-432.76 590.33,-419.99 602.68,-411.65"/>
<polygon fill="midnightblue" stroke="midnightblue" points="554.68,-439.83 548.35,-448.32 558.6,-445.63 554.68,-439.83"/>
</g>
<!-- Node42 -->
<g id="node42" class="node">
<title>Node42</title>
<g id="a_node42"><a xlink:href="queue__inlines_8h_source.html" target="_top" xlink:title=" ">
<polygon fill="white" stroke="black" points="913,-448.5 913,-467.5 1006,-467.5 1006,-448.5 913,-448.5"/>
<text text-anchor="middle" x="959.5" y="-455.5" font-family="Helvetica,sans-Serif" font-size="10.00">queue_inlines.h</text>
</a>
</g>
</g>
<!-- Node41&#45;&gt;Node42 -->
<g id="edge53" class="edge">
<title>Node41&#45;&gt;Node42</title>
<path fill="none" stroke="midnightblue" d="M959.5,-493.8C959.5,-484.91 959.5,-474.78 959.5,-467.75"/>
<polygon fill="midnightblue" stroke="midnightblue" points="956,-494.08 959.5,-504.08 963,-494.08 956,-494.08"/>
</g>
</g>
</svg>
