<?xml version="1.0" encoding="UTF-8" standalone="no"?>
<!DOCTYPE svg PUBLIC "-//W3C//DTD SVG 1.1//EN"
 "http://www.w3.org/Graphics/SVG/1.1/DTD/svg11.dtd">
<!-- Generated by graphviz version 2.43.0 (0)
 -->
<!-- Title: align.h Pages: 1 -->
<svg width="3814pt" height="364pt"
 viewBox="0.00 0.00 3813.50 364.00" xmlns="http://www.w3.org/2000/svg" xmlns:xlink="http://www.w3.org/1999/xlink">
<g id="graph0" class="graph" transform="scale(1 1) rotate(0) translate(4 360)">
<title>align.h</title>
<polygon fill="white" stroke="transparent" points="-4,4 -4,-360 3809.5,-360 3809.5,4 -4,4"/>
<!-- Node1 -->
<g id="node1" class="node">
<title>Node1</title>
<g id="a_node1"><a xlink:title=" ">
<polygon fill="#bfbfbf" stroke="black" points="119.5,-336.5 119.5,-355.5 169.5,-355.5 169.5,-336.5 119.5,-336.5"/>
<text text-anchor="middle" x="144.5" y="-343.5" font-family="Helvetica,sans-Serif" font-size="10.00">align.h</text>
</a>
</g>
</g>
<!-- Node2 -->
<g id="node2" class="node">
<title>Node2</title>
<g id="a_node2"><a xlink:href="align_8h.html" target="_top" xlink:title=" ">
<polygon fill="white" stroke="black" points="119.5,-280.5 119.5,-299.5 169.5,-299.5 169.5,-280.5 119.5,-280.5"/>
<text text-anchor="middle" x="144.5" y="-287.5" font-family="Helvetica,sans-Serif" font-size="10.00">align.h</text>
</a>
</g>
</g>
<!-- Node1&#45;&gt;Node2 -->
<g id="edge1" class="edge">
<title>Node1&#45;&gt;Node2</title>
<path fill="none" stroke="midnightblue" d="M144.5,-325.8C144.5,-316.91 144.5,-306.78 144.5,-299.75"/>
<polygon fill="midnightblue" stroke="midnightblue" points="141,-326.08 144.5,-336.08 148,-326.08 141,-326.08"/>
</g>
<!-- Node3 -->
<g id="node3" class="node">
<title>Node3</title>
<g id="a_node3"><a xlink:href="abi-default_2atomic_8h.html" target="_top" xlink:title=" ">
<polygon fill="white" stroke="black" points="0,-112.5 0,-131.5 59,-131.5 59,-112.5 0,-112.5"/>
<text text-anchor="middle" x="29.5" y="-119.5" font-family="Helvetica,sans-Serif" font-size="10.00">atomic.h</text>
</a>
</g>
</g>
<!-- Node2&#45;&gt;Node3 -->
<g id="edge2" class="edge">
<title>Node2&#45;&gt;Node3</title>
<path fill="none" stroke="midnightblue" d="M132.56,-271.76C108.19,-236.59 53.52,-157.68 35.44,-131.57"/>
<polygon fill="midnightblue" stroke="midnightblue" points="129.75,-273.85 138.32,-280.08 135.5,-269.86 129.75,-273.85"/>
</g>
<!-- Node4 -->
<g id="node4" class="node">
<title>Node4</title>
<g id="a_node4"><a xlink:href="abi-default_2cpumask_8h.html" target="_top" xlink:title=" ">
<polygon fill="white" stroke="black" points="77.5,-112.5 77.5,-131.5 147.5,-131.5 147.5,-112.5 77.5,-112.5"/>
<text text-anchor="middle" x="112.5" y="-119.5" font-family="Helvetica,sans-Serif" font-size="10.00">cpumask.h</text>
</a>
</g>
</g>
<!-- Node2&#45;&gt;Node4 -->
<g id="edge3" class="edge">
<title>Node2&#45;&gt;Node4</title>
<path fill="none" stroke="midnightblue" d="M138.7,-270.88C136.24,-262.73 133.49,-252.94 131.5,-244 122.24,-202.27 115.81,-151.48 113.47,-131.58"/>
<polygon fill="midnightblue" stroke="midnightblue" points="135.37,-271.95 141.68,-280.46 142.05,-269.87 135.37,-271.95"/>
</g>
<!-- Node5 -->
<g id="node5" class="node">
<title>Node5</title>
<g id="a_node5"><a xlink:href="spec_2std__types_8h.html" target="_top" xlink:title=" ">
<polygon fill="white" stroke="black" points="141,-224.5 141,-243.5 214,-243.5 214,-224.5 141,-224.5"/>
<text text-anchor="middle" x="177.5" y="-231.5" font-family="Helvetica,sans-Serif" font-size="10.00">std_types.h</text>
</a>
</g>
</g>
<!-- Node2&#45;&gt;Node5 -->
<g id="edge4" class="edge">
<title>Node2&#45;&gt;Node5</title>
<path fill="none" stroke="midnightblue" d="M155.33,-271.27C160.97,-262.05 167.62,-251.17 172.15,-243.75"/>
<polygon fill="midnightblue" stroke="midnightblue" points="152.18,-269.73 149.95,-280.08 158.15,-273.38 152.18,-269.73"/>
</g>
<!-- Node100 -->
<g id="node50" class="node">
<title>Node100</title>
<g id="a_node50"><a xlink:href="time__inlines_8h_source.html" target="_top" xlink:title=" ">
<polygon fill="white" stroke="black" points="232.5,-224.5 232.5,-243.5 318.5,-243.5 318.5,-224.5 232.5,-224.5"/>
<text text-anchor="middle" x="275.5" y="-231.5" font-family="Helvetica,sans-Serif" font-size="10.00">time_inlines.h</text>
</a>
</g>
</g>
<!-- Node2&#45;&gt;Node100 -->
<g id="edge56" class="edge">
<title>Node2&#45;&gt;Node100</title>
<path fill="none" stroke="midnightblue" d="M174.82,-276.5C199.38,-266.38 233.32,-252.39 254.84,-243.52"/>
<polygon fill="midnightblue" stroke="midnightblue" points="173.17,-273.4 165.26,-280.44 175.84,-279.87 173.17,-273.4"/>
</g>
<!-- Node6 -->
<g id="node6" class="node">
<title>Node6</title>
<g id="a_node6"><a xlink:href="std__types_8h.html" target="_top" xlink:title=" ">
<polygon fill="white" stroke="red" points="1638,-168.5 1638,-187.5 1711,-187.5 1711,-168.5 1638,-168.5"/>
<text text-anchor="middle" x="1674.5" y="-175.5" font-family="Helvetica,sans-Serif" font-size="10.00">std_types.h</text>
</a>
</g>
</g>
<!-- Node5&#45;&gt;Node6 -->
<g id="edge5" class="edge">
<title>Node5&#45;&gt;Node6</title>
<path fill="none" stroke="midnightblue" d="M224.27,-224.17C530.46,-191.55 1443.19,-181.21 1637.77,-179.33"/>
<polygon fill="midnightblue" stroke="midnightblue" points="223.63,-220.72 214.08,-225.29 224.4,-227.68 223.63,-220.72"/>
</g>
<!-- Node6&#45;&gt;Node3 -->
<g id="edge6" class="edge">
<title>Node6&#45;&gt;Node3</title>
<path fill="none" stroke="midnightblue" d="M1627.6,-176.94C1396.97,-176.47 381.68,-172.12 68.5,-132 65.47,-131.61 62.33,-131.09 59.2,-130.49"/>
<polygon fill="midnightblue" stroke="midnightblue" points="1627.67,-180.44 1637.67,-176.96 1627.68,-173.44 1627.67,-180.44"/>
</g>
<!-- Node6&#45;&gt;Node4 -->
<g id="edge9" class="edge">
<title>Node6&#45;&gt;Node4</title>
<path fill="none" stroke="midnightblue" d="M1627.7,-176.7C1405.08,-175.1 451.85,-166.32 156.5,-132 153.71,-131.68 150.84,-131.27 147.96,-130.8"/>
<polygon fill="midnightblue" stroke="midnightblue" points="1627.72,-180.2 1637.74,-176.77 1627.77,-173.2 1627.72,-180.2"/>
</g>
<!-- Node7 -->
<g id="node7" class="node">
<title>Node7</title>
<g id="a_node7"><a xlink:href="abi-default_2barrier_8h.html" target="_top" xlink:title=" ">
<polygon fill="white" stroke="black" points="3281,-112.5 3281,-131.5 3338,-131.5 3338,-112.5 3281,-112.5"/>
<text text-anchor="middle" x="3309.5" y="-119.5" font-family="Helvetica,sans-Serif" font-size="10.00">barrier.h</text>
</a>
</g>
</g>
<!-- Node6&#45;&gt;Node7 -->
<g id="edge7" class="edge">
<title>Node6&#45;&gt;Node7</title>
<path fill="none" stroke="midnightblue" d="M1721.14,-176.97C1950.5,-176.63 2960.19,-172.81 3271.5,-132 3274.59,-131.59 3277.8,-131.04 3280.98,-130.41"/>
<polygon fill="midnightblue" stroke="midnightblue" points="1721.12,-173.47 1711.12,-176.98 1721.13,-180.47 1721.12,-173.47"/>
</g>
<!-- Node8 -->
<g id="node8" class="node">
<title>Node8</title>
<g id="a_node8"><a xlink:href="abi-default_2byteorder_8h.html" target="_top" xlink:title=" ">
<polygon fill="white" stroke="black" points="3356.5,-112.5 3356.5,-131.5 3428.5,-131.5 3428.5,-112.5 3356.5,-112.5"/>
<text text-anchor="middle" x="3392.5" y="-119.5" font-family="Helvetica,sans-Serif" font-size="10.00">byteorder.h</text>
</a>
</g>
</g>
<!-- Node6&#45;&gt;Node8 -->
<g id="edge8" class="edge">
<title>Node6&#45;&gt;Node8</title>
<path fill="none" stroke="midnightblue" d="M1721.39,-176.82C1957.72,-175.74 3019.77,-168.91 3347.5,-132 3350.35,-131.68 3353.29,-131.27 3356.23,-130.8"/>
<polygon fill="midnightblue" stroke="midnightblue" points="1721.07,-173.32 1711.09,-176.86 1721.1,-180.32 1721.07,-173.32"/>
</g>
<!-- Node9 -->
<g id="node9" class="node">
<title>Node9</title>
<g id="a_node9"><a xlink:href="abi-default_2init_8h.html" target="_top" xlink:title=" ">
<polygon fill="white" stroke="black" points="3447,-112.5 3447,-131.5 3488,-131.5 3488,-112.5 3447,-112.5"/>
<text text-anchor="middle" x="3467.5" y="-119.5" font-family="Helvetica,sans-Serif" font-size="10.00">init.h</text>
</a>
</g>
</g>
<!-- Node6&#45;&gt;Node9 -->
<g id="edge10" class="edge">
<title>Node6&#45;&gt;Node9</title>
<path fill="none" stroke="midnightblue" d="M1721.45,-176.55C1983.93,-173.91 3263.98,-159.73 3437.5,-132 3440.51,-131.52 3443.63,-130.82 3446.68,-130.02"/>
<polygon fill="midnightblue" stroke="midnightblue" points="1721.1,-173.05 1711.13,-176.65 1721.17,-180.05 1721.1,-173.05"/>
</g>
<!-- Node10 -->
<g id="node10" class="node">
<title>Node10</title>
<g id="a_node10"><a xlink:href="abi-default_2ipsec_8h.html" target="_top" xlink:title=" ">
<polygon fill="white" stroke="black" points="3506,-112.5 3506,-131.5 3557,-131.5 3557,-112.5 3506,-112.5"/>
<text text-anchor="middle" x="3531.5" y="-119.5" font-family="Helvetica,sans-Serif" font-size="10.00">ipsec.h</text>
</a>
</g>
</g>
<!-- Node6&#45;&gt;Node10 -->
<g id="edge11" class="edge">
<title>Node6&#45;&gt;Node10</title>
<path fill="none" stroke="midnightblue" d="M1721.34,-176.5C1988.79,-173.55 3317.25,-157.72 3497.5,-132 3500.16,-131.62 3502.91,-131.11 3505.64,-130.51"/>
<polygon fill="midnightblue" stroke="midnightblue" points="1721.15,-173 1711.19,-176.61 1721.23,-180 1721.15,-173"/>
</g>
<!-- Node11 -->
<g id="node11" class="node">
<title>Node11</title>
<g id="a_node11"><a xlink:href="abi-default_2packet__io__types_8h.html" target="_top" xlink:title=" ">
<polygon fill="white" stroke="black" points="3575.5,-112.5 3575.5,-131.5 3679.5,-131.5 3679.5,-112.5 3575.5,-112.5"/>
<text text-anchor="middle" x="3627.5" y="-119.5" font-family="Helvetica,sans-Serif" font-size="10.00">packet_io_types.h</text>
</a>
</g>
</g>
<!-- Node6&#45;&gt;Node11 -->
<g id="edge12" class="edge">
<title>Node6&#45;&gt;Node11</title>
<path fill="none" stroke="midnightblue" d="M1721.26,-176.67C1975.31,-174.74 3191.94,-163.96 3566.5,-132 3569.38,-131.75 3572.33,-131.46 3575.31,-131.13"/>
<polygon fill="midnightblue" stroke="midnightblue" points="1721.23,-173.17 1711.26,-176.74 1721.28,-180.17 1721.23,-173.17"/>
</g>
<!-- Node12 -->
<g id="node12" class="node">
<title>Node12</title>
<g id="a_node12"><a xlink:href="abi-default_2rwlock__recursive_8h.html" target="_top" xlink:title=" ">
<polygon fill="white" stroke="black" points="3697.5,-112.5 3697.5,-131.5 3805.5,-131.5 3805.5,-112.5 3697.5,-112.5"/>
<text text-anchor="middle" x="3751.5" y="-119.5" font-family="Helvetica,sans-Serif" font-size="10.00">rwlock_recursive.h</text>
</a>
</g>
</g>
<!-- Node6&#45;&gt;Node12 -->
<g id="edge13" class="edge">
<title>Node6&#45;&gt;Node12</title>
<path fill="none" stroke="midnightblue" d="M1721.29,-176.72C1985.01,-175 3288.21,-164.95 3688.5,-132 3691.36,-131.76 3694.29,-131.48 3697.25,-131.17"/>
<polygon fill="midnightblue" stroke="midnightblue" points="1721.26,-173.22 1711.28,-176.78 1721.3,-180.22 1721.26,-173.22"/>
</g>
<!-- Node13 -->
<g id="node13" class="node">
<title>Node13</title>
<g id="a_node13"><a xlink:href="abi-default_2schedule_8h.html" target="_top" xlink:title=" ">
<polygon fill="white" stroke="black" points="166,-112.5 166,-131.5 235,-131.5 235,-112.5 166,-112.5"/>
<text text-anchor="middle" x="200.5" y="-119.5" font-family="Helvetica,sans-Serif" font-size="10.00">schedule.h</text>
</a>
</g>
</g>
<!-- Node6&#45;&gt;Node13 -->
<g id="edge14" class="edge">
<title>Node6&#45;&gt;Node13</title>
<path fill="none" stroke="midnightblue" d="M1627.69,-176.6C1413.05,-174.6 521.52,-164.45 244.5,-132 241.56,-131.66 238.52,-131.21 235.48,-130.71"/>
<polygon fill="midnightblue" stroke="midnightblue" points="1627.95,-180.1 1637.98,-176.69 1628.01,-173.1 1627.95,-180.1"/>
</g>
<!-- Node14 -->
<g id="node14" class="node">
<title>Node14</title>
<g id="a_node14"><a xlink:href="abi-default_2spinlock__recursive_8h.html" target="_top" xlink:title=" ">
<polygon fill="white" stroke="black" points="253.5,-112.5 253.5,-131.5 369.5,-131.5 369.5,-112.5 253.5,-112.5"/>
<text text-anchor="middle" x="311.5" y="-119.5" font-family="Helvetica,sans-Serif" font-size="10.00">spinlock_recursive.h</text>
</a>
</g>
</g>
<!-- Node6&#45;&gt;Node14 -->
<g id="edge15" class="edge">
<title>Node6&#45;&gt;Node14</title>
<path fill="none" stroke="midnightblue" d="M1627.8,-177.04C1459.14,-176.85 865.77,-173.09 378.5,-132 375.58,-131.75 372.58,-131.47 369.57,-131.16"/>
<polygon fill="midnightblue" stroke="midnightblue" points="1627.82,-180.54 1637.83,-177.05 1627.83,-173.54 1627.82,-180.54"/>
</g>
<!-- Node15 -->
<g id="node15" class="node">
<title>Node15</title>
<g id="a_node15"><a xlink:href="abi-default_2traffic__mngr_8h.html" target="_top" xlink:title=" ">
<polygon fill="white" stroke="black" points="387.5,-112.5 387.5,-131.5 471.5,-131.5 471.5,-112.5 387.5,-112.5"/>
<text text-anchor="middle" x="429.5" y="-119.5" font-family="Helvetica,sans-Serif" font-size="10.00">traffic_mngr.h</text>
</a>
</g>
</g>
<!-- Node6&#45;&gt;Node15 -->
<g id="edge16" class="edge">
<title>Node6&#45;&gt;Node15</title>
<path fill="none" stroke="midnightblue" d="M1627.72,-177.53C1467.33,-178.88 925.05,-179.38 480.5,-132 477.64,-131.7 474.7,-131.33 471.74,-130.91"/>
<polygon fill="midnightblue" stroke="midnightblue" points="1627.76,-181.03 1637.73,-177.45 1627.7,-174.03 1627.76,-181.03"/>
</g>
<!-- Node16 -->
<g id="node16" class="node">
<title>Node16</title>
<g id="a_node16"><a xlink:href="barrier_8h.html" target="_top" xlink:title=" ">
<polygon fill="white" stroke="black" points="490,-112.5 490,-131.5 547,-131.5 547,-112.5 490,-112.5"/>
<text text-anchor="middle" x="518.5" y="-119.5" font-family="Helvetica,sans-Serif" font-size="10.00">barrier.h</text>
</a>
</g>
</g>
<!-- Node6&#45;&gt;Node16 -->
<g id="edge17" class="edge">
<title>Node6&#45;&gt;Node16</title>
<path fill="none" stroke="midnightblue" d="M1627.75,-176.14C1444.22,-172.63 772.82,-158.2 561.5,-132 556.81,-131.42 551.87,-130.59 547.07,-129.67"/>
<polygon fill="midnightblue" stroke="midnightblue" points="1627.81,-179.65 1637.88,-176.34 1627.95,-172.65 1627.81,-179.65"/>
</g>
<!-- Node17 -->
<g id="node17" class="node">
<title>Node17</title>
<g id="a_node17"><a xlink:href="classification_8h.html" target="_top" xlink:title=" ">
<polygon fill="white" stroke="red" points="614,-56.5 614,-75.5 703,-75.5 703,-56.5 614,-56.5"/>
<text text-anchor="middle" x="658.5" y="-63.5" font-family="Helvetica,sans-Serif" font-size="10.00">classification.h</text>
</a>
</g>
</g>
<!-- Node6&#45;&gt;Node17 -->
<g id="edge18" class="edge">
<title>Node6&#45;&gt;Node17</title>
<path fill="none" stroke="midnightblue" d="M1627.81,-176.76C1429.72,-175.52 667.36,-168.39 632.5,-132 617.03,-115.85 637.23,-89.34 649.82,-75.7"/>
<polygon fill="midnightblue" stroke="midnightblue" points="1627.87,-180.26 1637.89,-176.82 1627.91,-173.26 1627.87,-180.26"/>
</g>
<!-- Node18 -->
<g id="node18" class="node">
<title>Node18</title>
<g id="a_node18"><a xlink:href="spec_2ipsec_8h.html" target="_top" xlink:title=" ">
<polygon fill="white" stroke="red" points="633,-0.5 633,-19.5 684,-19.5 684,-0.5 633,-0.5"/>
<text text-anchor="middle" x="658.5" y="-7.5" font-family="Helvetica,sans-Serif" font-size="10.00">ipsec.h</text>
</a>
</g>
</g>
<!-- Node6&#45;&gt;Node18 -->
<g id="edge34" class="edge">
<title>Node6&#45;&gt;Node18</title>
<path fill="none" stroke="midnightblue" d="M1627.68,-176.46C1429.04,-173.98 664.17,-162.49 623.5,-132 595.64,-111.12 589.73,-87.53 604.5,-56 612.16,-39.64 629.01,-27.16 641.87,-19.54"/>
<polygon fill="midnightblue" stroke="midnightblue" points="1627.75,-179.96 1637.8,-176.58 1627.84,-172.96 1627.75,-179.96"/>
</g>
<!-- Node22 -->
<g id="node19" class="node">
<title>Node22</title>
<g id="a_node19"><a xlink:href="crypto_8h.html" target="_top" xlink:title=" ">
<polygon fill="white" stroke="black" points="731.5,-56.5 731.5,-75.5 787.5,-75.5 787.5,-56.5 731.5,-56.5"/>
<text text-anchor="middle" x="759.5" y="-63.5" font-family="Helvetica,sans-Serif" font-size="10.00">crypto.h</text>
</a>
</g>
</g>
<!-- Node6&#45;&gt;Node22 -->
<g id="edge20" class="edge">
<title>Node6&#45;&gt;Node22</title>
<path fill="none" stroke="midnightblue" d="M1627.7,-176.14C1448.21,-172.67 812.08,-158.51 778.5,-132 761.34,-118.45 759.08,-90.28 759.14,-75.88"/>
<polygon fill="midnightblue" stroke="midnightblue" points="1627.81,-179.65 1637.88,-176.34 1627.95,-172.65 1627.81,-179.65"/>
</g>
<!-- Node23 -->
<g id="node20" class="node">
<title>Node23</title>
<g id="a_node20"><a xlink:href="proto__stats_8h.html" target="_top" xlink:title=" ">
<polygon fill="white" stroke="black" points="861.5,-112.5 861.5,-131.5 941.5,-131.5 941.5,-112.5 861.5,-112.5"/>
<text text-anchor="middle" x="901.5" y="-119.5" font-family="Helvetica,sans-Serif" font-size="10.00">proto_stats.h</text>
</a>
</g>
</g>
<!-- Node6&#45;&gt;Node23 -->
<g id="edge22" class="edge">
<title>Node6&#45;&gt;Node23</title>
<path fill="none" stroke="midnightblue" d="M1627.64,-175.96C1512.28,-173 1205.46,-162.65 951.5,-132 948.26,-131.61 944.91,-131.14 941.56,-130.63"/>
<polygon fill="midnightblue" stroke="midnightblue" points="1627.79,-179.47 1637.88,-176.22 1627.97,-172.47 1627.79,-179.47"/>
</g>
<!-- Node24 -->
<g id="node21" class="node">
<title>Node24</title>
<g id="a_node21"><a xlink:href="spec_2buffer_8h.html" target="_top" xlink:title=" ">
<polygon fill="white" stroke="red" points="960,-112.5 960,-131.5 1013,-131.5 1013,-112.5 960,-112.5"/>
<text text-anchor="middle" x="986.5" y="-119.5" font-family="Helvetica,sans-Serif" font-size="10.00">buffer.h</text>
</a>
</g>
</g>
<!-- Node6&#45;&gt;Node24 -->
<g id="edge23" class="edge">
<title>Node6&#45;&gt;Node24</title>
<path fill="none" stroke="midnightblue" d="M1627.65,-176.59C1520.06,-175.03 1247.28,-167.57 1022.5,-132 1019.45,-131.52 1016.27,-130.9 1013.13,-130.21"/>
<polygon fill="midnightblue" stroke="midnightblue" points="1627.8,-180.09 1637.84,-176.72 1627.89,-173.09 1627.8,-180.09"/>
</g>
<!-- Node26 -->
<g id="node22" class="node">
<title>Node26</title>
<g id="a_node22"><a xlink:href="spec_2chksum_8h.html" target="_top" xlink:title=" ">
<polygon fill="white" stroke="red" points="1031.5,-112.5 1031.5,-131.5 1095.5,-131.5 1095.5,-112.5 1031.5,-112.5"/>
<text text-anchor="middle" x="1063.5" y="-119.5" font-family="Helvetica,sans-Serif" font-size="10.00">chksum.h</text>
</a>
</g>
</g>
<!-- Node6&#45;&gt;Node26 -->
<g id="edge24" class="edge">
<title>Node6&#45;&gt;Node26</title>
<path fill="none" stroke="midnightblue" d="M1627.57,-175.39C1529.94,-171.57 1298.02,-160.11 1105.5,-132 1102.25,-131.53 1098.88,-130.95 1095.52,-130.32"/>
<polygon fill="midnightblue" stroke="midnightblue" points="1627.57,-178.89 1637.7,-175.78 1627.84,-171.9 1627.57,-178.89"/>
</g>
<!-- Node28 -->
<g id="node23" class="node">
<title>Node28</title>
<g id="a_node23"><a xlink:href="spec_2classification_8h.html" target="_top" xlink:title=" ">
<polygon fill="white" stroke="black" points="642,-112.5 642,-131.5 731,-131.5 731,-112.5 642,-112.5"/>
<text text-anchor="middle" x="686.5" y="-119.5" font-family="Helvetica,sans-Serif" font-size="10.00">classification.h</text>
</a>
</g>
</g>
<!-- Node6&#45;&gt;Node28 -->
<g id="edge25" class="edge">
<title>Node6&#45;&gt;Node28</title>
<path fill="none" stroke="midnightblue" d="M1627.56,-176.43C1491.05,-174.42 1082.56,-165.78 745.5,-132 740.86,-131.54 736.03,-130.96 731.22,-130.32"/>
<polygon fill="midnightblue" stroke="midnightblue" points="1627.62,-179.93 1637.67,-176.58 1627.72,-172.93 1627.62,-179.93"/>
</g>
<!-- Node29 -->
<g id="node24" class="node">
<title>Node29</title>
<g id="a_node24"><a xlink:href="spec_2comp_8h.html" target="_top" xlink:title=" ">
<polygon fill="white" stroke="red" points="1114,-112.5 1114,-131.5 1167,-131.5 1167,-112.5 1114,-112.5"/>
<text text-anchor="middle" x="1140.5" y="-119.5" font-family="Helvetica,sans-Serif" font-size="10.00">comp.h</text>
</a>
</g>
</g>
<!-- Node6&#45;&gt;Node29 -->
<g id="edge27" class="edge">
<title>Node6&#45;&gt;Node29</title>
<path fill="none" stroke="midnightblue" d="M1627.7,-175.19C1539.09,-171.23 1340.96,-159.82 1176.5,-132 1173.45,-131.48 1170.28,-130.85 1167.14,-130.15"/>
<polygon fill="midnightblue" stroke="midnightblue" points="1627.56,-178.69 1637.7,-175.63 1627.86,-171.69 1627.56,-178.69"/>
</g>
<!-- Node31 -->
<g id="node25" class="node">
<title>Node31</title>
<g id="a_node25"><a xlink:href="spec_2cpu_8h.html" target="_top" xlink:title=" ">
<polygon fill="white" stroke="red" points="1185,-112.5 1185,-131.5 1228,-131.5 1228,-112.5 1185,-112.5"/>
<text text-anchor="middle" x="1206.5" y="-119.5" font-family="Helvetica,sans-Serif" font-size="10.00">cpu.h</text>
</a>
</g>
</g>
<!-- Node6&#45;&gt;Node31 -->
<g id="edge28" class="edge">
<title>Node6&#45;&gt;Node31</title>
<path fill="none" stroke="midnightblue" d="M1627.63,-174.94C1547.18,-170.8 1377.92,-159.38 1237.5,-132 1234.42,-131.4 1231.2,-130.63 1228.06,-129.8"/>
<polygon fill="midnightblue" stroke="midnightblue" points="1627.75,-178.45 1637.92,-175.46 1628.1,-171.46 1627.75,-178.45"/>
</g>
<!-- Node34 -->
<g id="node26" class="node">
<title>Node34</title>
<g id="a_node26"><a xlink:href="spec_2crypto_8h.html" target="_top" xlink:title=" ">
<polygon fill="white" stroke="black" points="787.5,-112.5 787.5,-131.5 843.5,-131.5 843.5,-112.5 787.5,-112.5"/>
<text text-anchor="middle" x="815.5" y="-119.5" font-family="Helvetica,sans-Serif" font-size="10.00">crypto.h</text>
</a>
</g>
</g>
<!-- Node6&#45;&gt;Node34 -->
<g id="edge29" class="edge">
<title>Node6&#45;&gt;Node34</title>
<path fill="none" stroke="midnightblue" d="M1627.73,-177.44C1501.75,-177.97 1145.08,-175.22 852.5,-132 849.62,-131.57 846.64,-131.03 843.68,-130.42"/>
<polygon fill="midnightblue" stroke="midnightblue" points="1627.82,-180.94 1637.8,-177.39 1627.78,-173.94 1627.82,-180.94"/>
</g>
<!-- Node35 -->
<g id="node27" class="node">
<title>Node35</title>
<g id="a_node27"><a xlink:href="spec_2dma__types_8h.html" target="_top" xlink:title=" ">
<polygon fill="white" stroke="red" points="1246.5,-112.5 1246.5,-131.5 1326.5,-131.5 1326.5,-112.5 1246.5,-112.5"/>
<text text-anchor="middle" x="1286.5" y="-119.5" font-family="Helvetica,sans-Serif" font-size="10.00">dma_types.h</text>
</a>
</g>
</g>
<!-- Node6&#45;&gt;Node35 -->
<g id="edge31" class="edge">
<title>Node6&#45;&gt;Node35</title>
<path fill="none" stroke="midnightblue" d="M1627.93,-171.48C1562.66,-163.6 1440.32,-148.25 1336.5,-132 1333.28,-131.5 1329.94,-130.95 1326.59,-130.38"/>
<polygon fill="midnightblue" stroke="midnightblue" points="1627.56,-174.96 1637.91,-172.68 1628.4,-168.01 1627.56,-174.96"/>
</g>
<!-- Node52 -->
<g id="node28" class="node">
<title>Node52</title>
<g id="a_node28"><a xlink:href="spec_2hash_8h.html" target="_top" xlink:title=" ">
<polygon fill="white" stroke="red" points="1345,-112.5 1345,-131.5 1394,-131.5 1394,-112.5 1345,-112.5"/>
<text text-anchor="middle" x="1369.5" y="-119.5" font-family="Helvetica,sans-Serif" font-size="10.00">hash.h</text>
</a>
</g>
</g>
<!-- Node6&#45;&gt;Node52 -->
<g id="edge32" class="edge">
<title>Node6&#45;&gt;Node52</title>
<path fill="none" stroke="midnightblue" d="M1627.92,-170.63C1573.73,-162.9 1481.69,-148.8 1403.5,-132 1400.52,-131.36 1397.4,-130.62 1394.32,-129.86"/>
<polygon fill="midnightblue" stroke="midnightblue" points="1627.52,-174.11 1637.91,-172.04 1628.5,-167.18 1627.52,-174.11"/>
</g>
<!-- Node54 -->
<g id="node29" class="node">
<title>Node54</title>
<g id="a_node29"><a xlink:href="spec_2init_8h.html" target="_top" xlink:title=" ">
<polygon fill="white" stroke="red" points="1412,-112.5 1412,-131.5 1453,-131.5 1453,-112.5 1412,-112.5"/>
<text text-anchor="middle" x="1432.5" y="-119.5" font-family="Helvetica,sans-Serif" font-size="10.00">init.h</text>
</a>
</g>
</g>
<!-- Node6&#45;&gt;Node54 -->
<g id="edge33" class="edge">
<title>Node6&#45;&gt;Node54</title>
<path fill="none" stroke="midnightblue" d="M1627.98,-168.27C1584.86,-159.91 1519.03,-146.45 1462.5,-132 1459.44,-131.22 1456.23,-130.33 1453.09,-129.42"/>
<polygon fill="midnightblue" stroke="midnightblue" points="1627.42,-171.73 1637.9,-170.18 1628.74,-164.85 1627.42,-171.73"/>
</g>
<!-- Node41 -->
<g id="node30" class="node">
<title>Node41</title>
<g id="a_node30"><a xlink:href="spec_2packet_8h.html" target="_top" xlink:title=" ">
<polygon fill="white" stroke="red" points="1492.5,-56.5 1492.5,-75.5 1550.5,-75.5 1550.5,-56.5 1492.5,-56.5"/>
<text text-anchor="middle" x="1521.5" y="-63.5" font-family="Helvetica,sans-Serif" font-size="10.00">packet.h</text>
</a>
</g>
</g>
<!-- Node6&#45;&gt;Node41 -->
<g id="edge35" class="edge">
<title>Node6&#45;&gt;Node41</title>
<path fill="none" stroke="midnightblue" d="M1631.03,-165.21C1610.01,-158.02 1585.32,-147.22 1566.5,-132 1546.86,-116.12 1532.21,-89.49 1525.52,-75.76"/>
<polygon fill="midnightblue" stroke="midnightblue" points="1630.12,-168.6 1640.71,-168.37 1632.28,-161.94 1630.12,-168.6"/>
</g>
<!-- Node59 -->
<g id="node31" class="node">
<title>Node59</title>
<g id="a_node31"><a xlink:href="spec_2packet__flags_8h.html" target="_top" xlink:title=" ">
<polygon fill="white" stroke="red" points="1575.5,-112.5 1575.5,-131.5 1661.5,-131.5 1661.5,-112.5 1575.5,-112.5"/>
<text text-anchor="middle" x="1618.5" y="-119.5" font-family="Helvetica,sans-Serif" font-size="10.00">packet_flags.h</text>
</a>
</g>
</g>
<!-- Node6&#45;&gt;Node59 -->
<g id="edge36" class="edge">
<title>Node6&#45;&gt;Node59</title>
<path fill="none" stroke="midnightblue" d="M1658.17,-161.25C1648.24,-151.67 1635.91,-139.79 1627.66,-131.83"/>
<polygon fill="midnightblue" stroke="midnightblue" points="1655.87,-163.9 1665.5,-168.32 1660.73,-158.86 1655.87,-163.9"/>
</g>
<!-- Node43 -->
<g id="node32" class="node">
<title>Node43</title>
<g id="a_node32"><a xlink:href="spec_2packet__io__types_8h.html" target="_top" xlink:title=" ">
<polygon fill="white" stroke="red" points="1679.5,-112.5 1679.5,-131.5 1783.5,-131.5 1783.5,-112.5 1679.5,-112.5"/>
<text text-anchor="middle" x="1731.5" y="-119.5" font-family="Helvetica,sans-Serif" font-size="10.00">packet_io_types.h</text>
</a>
</g>
</g>
<!-- Node6&#45;&gt;Node43 -->
<g id="edge37" class="edge">
<title>Node6&#45;&gt;Node43</title>
<path fill="none" stroke="midnightblue" d="M1691.12,-161.25C1701.23,-151.67 1713.78,-139.79 1722.18,-131.83"/>
<polygon fill="midnightblue" stroke="midnightblue" points="1688.51,-158.91 1683.66,-168.32 1693.32,-163.99 1688.51,-158.91"/>
</g>
<!-- Node47 -->
<g id="node33" class="node">
<title>Node47</title>
<g id="a_node33"><a xlink:href="spec_2pool_8h.html" target="_top" xlink:title=" ">
<polygon fill="white" stroke="red" points="1802,-112.5 1802,-131.5 1849,-131.5 1849,-112.5 1802,-112.5"/>
<text text-anchor="middle" x="1825.5" y="-119.5" font-family="Helvetica,sans-Serif" font-size="10.00">pool.h</text>
</a>
</g>
</g>
<!-- Node6&#45;&gt;Node47 -->
<g id="edge38" class="edge">
<title>Node6&#45;&gt;Node47</title>
<path fill="none" stroke="midnightblue" d="M1707.95,-165.04C1736.36,-154.88 1776.44,-140.55 1801.69,-131.52"/>
<polygon fill="midnightblue" stroke="midnightblue" points="1706.66,-161.78 1698.43,-168.44 1709.02,-168.37 1706.66,-161.78"/>
</g>
<!-- Node39 -->
<g id="node34" class="node">
<title>Node39</title>
<g id="a_node34"><a xlink:href="spec_2pool__types_8h.html" target="_top" xlink:title=" ">
<polygon fill="white" stroke="red" points="1867,-112.5 1867,-131.5 1946,-131.5 1946,-112.5 1867,-112.5"/>
<text text-anchor="middle" x="1906.5" y="-119.5" font-family="Helvetica,sans-Serif" font-size="10.00">pool_types.h</text>
</a>
</g>
</g>
<!-- Node6&#45;&gt;Node39 -->
<g id="edge39" class="edge">
<title>Node6&#45;&gt;Node39</title>
<path fill="none" stroke="midnightblue" d="M1720.84,-166.21C1764.64,-156.02 1829.51,-140.92 1869.82,-131.54"/>
<polygon fill="midnightblue" stroke="midnightblue" points="1719.95,-162.83 1711.01,-168.5 1721.54,-169.64 1719.95,-162.83"/>
</g>
<!-- Node61 -->
<g id="node35" class="node">
<title>Node61</title>
<g id="a_node35"><a xlink:href="spec_2proto__stats__types_8h.html" target="_top" xlink:title=" ">
<polygon fill="white" stroke="red" points="1964,-112.5 1964,-131.5 2077,-131.5 2077,-112.5 1964,-112.5"/>
<text text-anchor="middle" x="2020.5" y="-119.5" font-family="Helvetica,sans-Serif" font-size="10.00">proto_stats_types.h</text>
</a>
</g>
</g>
<!-- Node6&#45;&gt;Node61 -->
<g id="edge40" class="edge">
<title>Node6&#45;&gt;Node61</title>
<path fill="none" stroke="midnightblue" d="M1721.34,-169.69C1784.93,-159.77 1898.36,-142.06 1965.79,-131.54"/>
<polygon fill="midnightblue" stroke="midnightblue" points="1720.54,-166.27 1711.2,-171.27 1721.62,-173.19 1720.54,-166.27"/>
</g>
<!-- Node69 -->
<g id="node36" class="node">
<title>Node69</title>
<g id="a_node36"><a xlink:href="spec_2queue_8h.html" target="_top" xlink:title=" ">
<polygon fill="white" stroke="red" points="2095.5,-112.5 2095.5,-131.5 2151.5,-131.5 2151.5,-112.5 2095.5,-112.5"/>
<text text-anchor="middle" x="2123.5" y="-119.5" font-family="Helvetica,sans-Serif" font-size="10.00">queue.h</text>
</a>
</g>
</g>
<!-- Node6&#45;&gt;Node69 -->
<g id="edge41" class="edge">
<title>Node6&#45;&gt;Node69</title>
<path fill="none" stroke="midnightblue" d="M1721.38,-173.87C1798.13,-168.3 1955.19,-155.04 2086.5,-132 2089.37,-131.5 2092.34,-130.9 2095.3,-130.26"/>
<polygon fill="midnightblue" stroke="midnightblue" points="1720.82,-170.4 1711.1,-174.61 1721.32,-177.38 1720.82,-170.4"/>
</g>
<!-- Node71 -->
<g id="node37" class="node">
<title>Node71</title>
<g id="a_node37"><a xlink:href="spec_2random_8h.html" target="_top" xlink:title=" ">
<polygon fill="white" stroke="red" points="2170,-112.5 2170,-131.5 2233,-131.5 2233,-112.5 2170,-112.5"/>
<text text-anchor="middle" x="2201.5" y="-119.5" font-family="Helvetica,sans-Serif" font-size="10.00">random.h</text>
</a>
</g>
</g>
<!-- Node6&#45;&gt;Node71 -->
<g id="edge42" class="edge">
<title>Node6&#45;&gt;Node71</title>
<path fill="none" stroke="midnightblue" d="M1721.34,-174.6C1808.3,-169.7 2000.39,-156.89 2160.5,-132 2163.52,-131.53 2166.66,-130.97 2169.79,-130.37"/>
<polygon fill="midnightblue" stroke="midnightblue" points="1721.06,-171.11 1711.27,-175.15 1721.45,-178.09 1721.06,-171.11"/>
</g>
<!-- Node73 -->
<g id="node38" class="node">
<title>Node73</title>
<g id="a_node38"><a xlink:href="spec_2random__types_8h.html" target="_top" xlink:title=" ">
<polygon fill="white" stroke="red" points="2251,-112.5 2251,-131.5 2346,-131.5 2346,-112.5 2251,-112.5"/>
<text text-anchor="middle" x="2298.5" y="-119.5" font-family="Helvetica,sans-Serif" font-size="10.00">random_types.h</text>
</a>
</g>
</g>
<!-- Node6&#45;&gt;Node73 -->
<g id="edge43" class="edge">
<title>Node6&#45;&gt;Node73</title>
<path fill="none" stroke="midnightblue" d="M1721.24,-174.57C1818.5,-169.24 2049.65,-155.1 2242.5,-132 2245.24,-131.67 2248.05,-131.31 2250.88,-130.92"/>
<polygon fill="midnightblue" stroke="midnightblue" points="1720.94,-171.08 1711.15,-175.12 1721.32,-178.07 1720.94,-171.08"/>
</g>
<!-- Node75 -->
<g id="node39" class="node">
<title>Node75</title>
<g id="a_node39"><a xlink:href="spec_2reassembly_8h.html" target="_top" xlink:title=" ">
<polygon fill="white" stroke="red" points="2364,-112.5 2364,-131.5 2445,-131.5 2445,-112.5 2364,-112.5"/>
<text text-anchor="middle" x="2404.5" y="-119.5" font-family="Helvetica,sans-Serif" font-size="10.00">reassembly.h</text>
</a>
</g>
</g>
<!-- Node6&#45;&gt;Node75 -->
<g id="edge44" class="edge">
<title>Node6&#45;&gt;Node75</title>
<path fill="none" stroke="midnightblue" d="M1721.34,-175.77C1832.03,-172.46 2118.29,-161.52 2355.5,-132 2358.25,-131.66 2361.07,-131.26 2363.91,-130.83"/>
<polygon fill="midnightblue" stroke="midnightblue" points="1721.08,-172.28 1711.18,-176.07 1721.28,-179.27 1721.08,-172.28"/>
</g>
<!-- Node77 -->
<g id="node40" class="node">
<title>Node77</title>
<g id="a_node40"><a xlink:href="spec_2schedule_8h.html" target="_top" xlink:title=" ">
<polygon fill="white" stroke="red" points="2463,-112.5 2463,-131.5 2532,-131.5 2532,-112.5 2463,-112.5"/>
<text text-anchor="middle" x="2497.5" y="-119.5" font-family="Helvetica,sans-Serif" font-size="10.00">schedule.h</text>
</a>
</g>
</g>
<!-- Node6&#45;&gt;Node77 -->
<g id="edge45" class="edge">
<title>Node6&#45;&gt;Node77</title>
<path fill="none" stroke="midnightblue" d="M1721.31,-176.72C1842.83,-175.47 2178.17,-168.68 2454.5,-132 2457.22,-131.64 2460.03,-131.2 2462.84,-130.72"/>
<polygon fill="midnightblue" stroke="midnightblue" points="1721.2,-173.22 1711.23,-176.82 1721.27,-180.22 1721.2,-173.22"/>
</g>
<!-- Node79 -->
<g id="node41" class="node">
<title>Node79</title>
<g id="a_node41"><a xlink:href="spec_2schedule__types_8h.html" target="_top" xlink:title=" ">
<polygon fill="white" stroke="red" points="2550,-112.5 2550,-131.5 2651,-131.5 2651,-112.5 2550,-112.5"/>
<text text-anchor="middle" x="2600.5" y="-119.5" font-family="Helvetica,sans-Serif" font-size="10.00">schedule_types.h</text>
</a>
</g>
</g>
<!-- Node6&#45;&gt;Node79 -->
<g id="edge46" class="edge">
<title>Node6&#45;&gt;Node79</title>
<path fill="none" stroke="midnightblue" d="M1721.4,-176.21C1851.77,-173.64 2229.44,-163.82 2541.5,-132 2544.18,-131.73 2546.92,-131.42 2549.69,-131.08"/>
<polygon fill="midnightblue" stroke="midnightblue" points="1721.29,-172.71 1711.36,-176.4 1721.43,-179.71 1721.29,-172.71"/>
</g>
<!-- Node87 -->
<g id="node42" class="node">
<title>Node87</title>
<g id="a_node42"><a xlink:href="spec_2stash_8h.html" target="_top" xlink:title=" ">
<polygon fill="white" stroke="red" points="2669.5,-112.5 2669.5,-131.5 2721.5,-131.5 2721.5,-112.5 2669.5,-112.5"/>
<text text-anchor="middle" x="2695.5" y="-119.5" font-family="Helvetica,sans-Serif" font-size="10.00">stash.h</text>
</a>
</g>
</g>
<!-- Node6&#45;&gt;Node87 -->
<g id="edge47" class="edge">
<title>Node6&#45;&gt;Node87</title>
<path fill="none" stroke="midnightblue" d="M1721.16,-176.15C1890.99,-172.84 2475.83,-159.65 2660.5,-132 2663.35,-131.57 2666.31,-131.01 2669.25,-130.37"/>
<polygon fill="midnightblue" stroke="midnightblue" points="1720.98,-172.65 1711.05,-176.34 1721.11,-179.65 1720.98,-172.65"/>
</g>
<!-- Node89 -->
<g id="node43" class="node">
<title>Node89</title>
<g id="a_node43"><a xlink:href="spec_2std_8h.html" target="_top" xlink:title=" ">
<polygon fill="white" stroke="red" points="2740,-112.5 2740,-131.5 2781,-131.5 2781,-112.5 2740,-112.5"/>
<text text-anchor="middle" x="2760.5" y="-119.5" font-family="Helvetica,sans-Serif" font-size="10.00">std.h</text>
</a>
</g>
</g>
<!-- Node6&#45;&gt;Node89 -->
<g id="edge48" class="edge">
<title>Node6&#45;&gt;Node89</title>
<path fill="none" stroke="midnightblue" d="M1721.26,-176.55C1898.93,-174.61 2532.13,-165.44 2730.5,-132 2733.5,-131.49 2736.63,-130.78 2739.68,-129.97"/>
<polygon fill="midnightblue" stroke="midnightblue" points="1721.15,-173.05 1711.19,-176.66 1721.22,-180.05 1721.15,-173.05"/>
</g>
<!-- Node91 -->
<g id="node44" class="node">
<title>Node91</title>
<g id="a_node44"><a xlink:href="spec_2threshold_8h.html" target="_top" xlink:title=" ">
<polygon fill="white" stroke="red" points="2799,-112.5 2799,-131.5 2870,-131.5 2870,-112.5 2799,-112.5"/>
<text text-anchor="middle" x="2834.5" y="-119.5" font-family="Helvetica,sans-Serif" font-size="10.00">threshold.h</text>
</a>
</g>
</g>
<!-- Node6&#45;&gt;Node91 -->
<g id="edge49" class="edge">
<title>Node6&#45;&gt;Node91</title>
<path fill="none" stroke="midnightblue" d="M1721.37,-176.12C1905.38,-172.51 2578.55,-157.78 2790.5,-132 2793.13,-131.68 2795.84,-131.29 2798.56,-130.84"/>
<polygon fill="midnightblue" stroke="midnightblue" points="1721.15,-172.62 1711.22,-176.32 1721.28,-179.62 1721.15,-172.62"/>
</g>
<!-- Node93 -->
<g id="node45" class="node">
<title>Node93</title>
<g id="a_node45"><a xlink:href="spec_2thrmask_8h.html" target="_top" xlink:title=" ">
<polygon fill="white" stroke="red" points="2888.5,-112.5 2888.5,-131.5 2954.5,-131.5 2954.5,-112.5 2888.5,-112.5"/>
<text text-anchor="middle" x="2921.5" y="-119.5" font-family="Helvetica,sans-Serif" font-size="10.00">thrmask.h</text>
</a>
</g>
</g>
<!-- Node6&#45;&gt;Node93 -->
<g id="edge50" class="edge">
<title>Node6&#45;&gt;Node93</title>
<path fill="none" stroke="midnightblue" d="M1721.27,-176.34C1914.25,-173.45 2649.26,-160.75 2879.5,-132 2882.31,-131.65 2885.21,-131.2 2888.12,-130.7"/>
<polygon fill="midnightblue" stroke="midnightblue" points="1721.12,-172.84 1711.18,-176.49 1721.23,-179.84 1721.12,-172.84"/>
</g>
<!-- Node95 -->
<g id="node46" class="node">
<title>Node95</title>
<g id="a_node46"><a xlink:href="spec_2timer__types_8h.html" target="_top" xlink:title=" ">
<polygon fill="white" stroke="red" points="2972.5,-112.5 2972.5,-131.5 3056.5,-131.5 3056.5,-112.5 2972.5,-112.5"/>
<text text-anchor="middle" x="3014.5" y="-119.5" font-family="Helvetica,sans-Serif" font-size="10.00">timer_types.h</text>
</a>
</g>
</g>
<!-- Node6&#45;&gt;Node95 -->
<g id="edge51" class="edge">
<title>Node6&#45;&gt;Node95</title>
<path fill="none" stroke="midnightblue" d="M1721.5,-176.24C1923.06,-172.85 2715.46,-158.09 2963.5,-132 2966.36,-131.7 2969.3,-131.33 2972.26,-130.92"/>
<polygon fill="midnightblue" stroke="midnightblue" points="1721.19,-172.75 1711.25,-176.41 1721.31,-179.74 1721.19,-172.75"/>
</g>
<!-- Node45 -->
<g id="node47" class="node">
<title>Node45</title>
<g id="a_node47"><a xlink:href="spec_2traffic__mngr_8h.html" target="_top" xlink:title=" ">
<polygon fill="white" stroke="red" points="3074.5,-112.5 3074.5,-131.5 3158.5,-131.5 3158.5,-112.5 3074.5,-112.5"/>
<text text-anchor="middle" x="3116.5" y="-119.5" font-family="Helvetica,sans-Serif" font-size="10.00">traffic_mngr.h</text>
</a>
</g>
</g>
<!-- Node6&#45;&gt;Node45 -->
<g id="edge52" class="edge">
<title>Node6&#45;&gt;Node45</title>
<path fill="none" stroke="midnightblue" d="M1721.39,-176.38C1932.52,-173.45 2796.22,-159.97 3065.5,-132 3068.36,-131.7 3071.3,-131.34 3074.26,-130.93"/>
<polygon fill="midnightblue" stroke="midnightblue" points="1721.21,-172.88 1711.26,-176.52 1721.31,-179.88 1721.21,-172.88"/>
</g>
<!-- Node97 -->
<g id="node48" class="node">
<title>Node97</title>
<g id="a_node48"><a xlink:href="system__info_8h.html" target="_top" xlink:title=" ">
<polygon fill="white" stroke="black" points="3176.5,-112.5 3176.5,-131.5 3262.5,-131.5 3262.5,-112.5 3176.5,-112.5"/>
<text text-anchor="middle" x="3219.5" y="-119.5" font-family="Helvetica,sans-Serif" font-size="10.00">system_info.h</text>
</a>
</g>
</g>
<!-- Node6&#45;&gt;Node97 -->
<g id="edge53" class="edge">
<title>Node6&#45;&gt;Node97</title>
<path fill="none" stroke="midnightblue" d="M1721.56,-176.48C1942.34,-173.89 2877,-161.37 3167.5,-132 3170.42,-131.71 3173.42,-131.34 3176.43,-130.94"/>
<polygon fill="midnightblue" stroke="midnightblue" points="1721.25,-172.98 1711.29,-176.6 1721.33,-179.98 1721.25,-172.98"/>
</g>
<!-- Node98 -->
<g id="node49" class="node">
<title>Node98</title>
<g id="a_node49"><a xlink:href="time_8h.html" target="_top" xlink:title=" ">
<polygon fill="white" stroke="red" points="1471.5,-112.5 1471.5,-131.5 1519.5,-131.5 1519.5,-112.5 1471.5,-112.5"/>
<text text-anchor="middle" x="1495.5" y="-119.5" font-family="Helvetica,sans-Serif" font-size="10.00">time.h</text>
</a>
</g>
</g>
<!-- Node6&#45;&gt;Node98 -->
<g id="edge54" class="edge">
<title>Node6&#45;&gt;Node98</title>
<path fill="none" stroke="midnightblue" d="M1636.19,-165.44C1600.91,-154.8 1549.63,-139.33 1519.71,-130.3"/>
<polygon fill="midnightblue" stroke="midnightblue" points="1635.55,-168.91 1646.14,-168.44 1637.57,-162.2 1635.55,-168.91"/>
</g>
<!-- Node17&#45;&gt;Node18 -->
<g id="edge19" class="edge">
<title>Node17&#45;&gt;Node18</title>
<path fill="none" stroke="midnightblue" d="M658.5,-45.8C658.5,-36.91 658.5,-26.78 658.5,-19.75"/>
<polygon fill="midnightblue" stroke="midnightblue" points="655,-46.08 658.5,-56.08 662,-46.08 655,-46.08"/>
</g>
<!-- Node22&#45;&gt;Node18 -->
<g id="edge21" class="edge">
<title>Node22&#45;&gt;Node18</title>
<path fill="none" stroke="midnightblue" d="M734.42,-51.59C715.74,-41.61 690.8,-28.27 674.69,-19.65"/>
<polygon fill="midnightblue" stroke="midnightblue" points="732.8,-54.7 743.27,-56.32 736.1,-48.52 732.8,-54.7"/>
</g>
<!-- Node28&#45;&gt;Node17 -->
<g id="edge26" class="edge">
<title>Node28&#45;&gt;Node17</title>
<path fill="none" stroke="midnightblue" d="M677.16,-102.98C672.41,-93.82 666.84,-83.09 663.04,-75.75"/>
<polygon fill="midnightblue" stroke="midnightblue" points="674.17,-104.82 681.88,-112.08 680.38,-101.59 674.17,-104.82"/>
</g>
<!-- Node34&#45;&gt;Node22 -->
<g id="edge30" class="edge">
<title>Node34&#45;&gt;Node22</title>
<path fill="none" stroke="midnightblue" d="M799.17,-105.25C789.24,-95.67 776.91,-83.79 768.66,-75.83"/>
<polygon fill="midnightblue" stroke="midnightblue" points="796.87,-107.9 806.5,-112.32 801.73,-102.86 796.87,-107.9"/>
</g>
<!-- Node98&#45;&gt;Node41 -->
<g id="edge55" class="edge">
<title>Node98&#45;&gt;Node41</title>
<path fill="none" stroke="midnightblue" d="M1504.17,-102.98C1508.59,-93.82 1513.75,-83.09 1517.29,-75.75"/>
<polygon fill="midnightblue" stroke="midnightblue" points="1500.98,-101.55 1499.79,-112.08 1507.29,-104.59 1500.98,-101.55"/>
</g>
</g>
</svg>
