<?xml version="1.0" encoding="UTF-8" standalone="no"?>
<!DOCTYPE svg PUBLIC "-//W3C//DTD SVG 1.1//EN"
 "http://www.w3.org/Graphics/SVG/1.1/DTD/svg11.dtd">
<!-- Generated by graphviz version 2.43.0 (0)
 -->
<!-- Title: packet_io_types.h Pages: 1 -->
<svg width="1487pt" height="923pt"
 viewBox="0.00 0.00 1487.00 923.00" xmlns="http://www.w3.org/2000/svg" xmlns:xlink="http://www.w3.org/1999/xlink">
<g id="graph0" class="graph" transform="scale(1 1) rotate(0) translate(4 919)">
<title>packet_io_types.h</title>
<polygon fill="white" stroke="transparent" points="-4,4 -4,-919 1483,-919 1483,4 -4,4"/>
<!-- Node1 -->
<g id="node1" class="node">
<title>Node1</title>
<g id="a_node1"><a xlink:title=" ">
<polygon fill="#bfbfbf" stroke="black" points="480,-895.5 480,-914.5 584,-914.5 584,-895.5 480,-895.5"/>
<text text-anchor="middle" x="532" y="-902.5" font-family="Helvetica,sans-Serif" font-size="10.00">packet_io_types.h</text>
</a>
</g>
</g>
<!-- Node2 -->
<g id="node2" class="node">
<title>Node2</title>
<g id="a_node2"><a xlink:title=" ">
<polygon fill="white" stroke="#bfbfbf" points="230.5,-0.5 230.5,-19.5 351.5,-19.5 351.5,-0.5 230.5,-0.5"/>
<text text-anchor="middle" x="291" y="-7.5" font-family="Helvetica,sans-Serif" font-size="10.00">odp/visibility_begin.h</text>
</a>
</g>
</g>
<!-- Node1&#45;&gt;Node2 -->
<g id="edge1" class="edge">
<title>Node1&#45;&gt;Node2</title>
<path fill="none" stroke="midnightblue" d="M479.53,-904.17C345.32,-903.2 0,-891.26 0,-794 0,-794 0,-794 0,-132 0,-36.87 134.23,-15.15 220.36,-11"/>
<polygon fill="midnightblue" stroke="midnightblue" points="220.5,-14.49 230.35,-10.58 220.21,-7.5 220.5,-14.49"/>
</g>
<!-- Node3 -->
<g id="node3" class="node">
<title>Node3</title>
<g id="a_node3"><a xlink:href="deprecated_8h.html" target="_top" xlink:title=" ">
<polygon fill="white" stroke="black" points="142.5,-492.5 142.5,-511.5 261.5,-511.5 261.5,-492.5 142.5,-492.5"/>
<text text-anchor="middle" x="202" y="-499.5" font-family="Helvetica,sans-Serif" font-size="10.00">odp/api/deprecated.h</text>
</a>
</g>
</g>
<!-- Node1&#45;&gt;Node3 -->
<g id="edge2" class="edge">
<title>Node1&#45;&gt;Node3</title>
<path fill="none" stroke="midnightblue" d="M479.69,-902.36C359.91,-897.19 76,-876.25 76,-794 76,-794 76,-794 76,-624 76,-571.24 134.18,-534.31 171.47,-516.06"/>
<polygon fill="midnightblue" stroke="midnightblue" points="173.35,-519.04 180.91,-511.62 170.37,-512.71 173.35,-519.04"/>
</g>
<!-- Node5 -->
<g id="node5" class="node">
<title>Node5</title>
<g id="a_node5"><a xlink:title=" ">
<polygon fill="white" stroke="#bfbfbf" points="976,-0.5 976,-19.5 1088,-19.5 1088,-0.5 976,-0.5"/>
<text text-anchor="middle" x="1032" y="-7.5" font-family="Helvetica,sans-Serif" font-size="10.00">odp/visibility_end.h</text>
</a>
</g>
</g>
<!-- Node1&#45;&gt;Node5 -->
<g id="edge72" class="edge">
<title>Node1&#45;&gt;Node5</title>
<path fill="none" stroke="midnightblue" d="M584.24,-903.59C738.93,-901.97 1192.7,-894.26 1336,-859 1403.79,-842.32 1479,-863.81 1479,-794 1479,-794 1479,-794 1479,-132 1479,-85.47 1448.57,-76.9 1407,-56 1354.42,-29.56 1191.17,-18.07 1098.33,-13.57"/>
<polygon fill="midnightblue" stroke="midnightblue" points="1098.35,-10.07 1088.2,-13.09 1098.02,-17.06 1098.35,-10.07"/>
</g>
<!-- Node6 -->
<g id="node6" class="node">
<title>Node6</title>
<g id="a_node6"><a xlink:href="packet__types_8h.html" target="_top" xlink:title=" ">
<polygon fill="white" stroke="black" points="374.5,-615.5 374.5,-634.5 503.5,-634.5 503.5,-615.5 374.5,-615.5"/>
<text text-anchor="middle" x="439" y="-622.5" font-family="Helvetica,sans-Serif" font-size="10.00">odp/api/packet_types.h</text>
</a>
</g>
</g>
<!-- Node1&#45;&gt;Node6 -->
<g id="edge6" class="edge">
<title>Node1&#45;&gt;Node6</title>
<path fill="none" stroke="midnightblue" d="M522.41,-895.34C504.33,-878.02 467,-837.03 467,-794 467,-794 467,-794 467,-736 467,-702.79 454.87,-665.63 446.57,-644.12"/>
<polygon fill="midnightblue" stroke="midnightblue" points="449.75,-642.63 442.78,-634.65 443.25,-645.23 449.75,-642.63"/>
</g>
<!-- Node13 -->
<g id="node13" class="node">
<title>Node13</title>
<g id="a_node13"><a xlink:href="std__types_8h.html" target="_top" xlink:title=" ">
<polygon fill="white" stroke="black" points="1055,-235.5 1055,-254.5 1167,-254.5 1167,-235.5 1055,-235.5"/>
<text text-anchor="middle" x="1111" y="-242.5" font-family="Helvetica,sans-Serif" font-size="10.00">odp/api/std_types.h</text>
</a>
</g>
</g>
<!-- Node1&#45;&gt;Node13 -->
<g id="edge71" class="edge">
<title>Node1&#45;&gt;Node13</title>
<path fill="none" stroke="midnightblue" d="M584.07,-900.57C737.15,-889.82 1175,-853.81 1175,-794 1175,-794 1175,-794 1175,-372.5 1175,-329.07 1144.59,-285.41 1125.7,-262.47"/>
<polygon fill="midnightblue" stroke="midnightblue" points="1128.26,-260.08 1119.11,-254.74 1122.93,-264.62 1128.26,-260.08"/>
</g>
<!-- Node20 -->
<g id="node20" class="node">
<title>Node20</title>
<g id="a_node20"><a xlink:href="queue__types_8h.html" target="_top" xlink:title=" ">
<polygon fill="white" stroke="black" points="318.5,-492.5 318.5,-511.5 445.5,-511.5 445.5,-492.5 318.5,-492.5"/>
<text text-anchor="middle" x="382" y="-499.5" font-family="Helvetica,sans-Serif" font-size="10.00">odp/api/queue_types.h</text>
</a>
</g>
</g>
<!-- Node1&#45;&gt;Node20 -->
<g id="edge65" class="edge">
<title>Node1&#45;&gt;Node20</title>
<path fill="none" stroke="midnightblue" d="M532,-895.44C532,-876.94 532,-831.81 532,-794 532,-794 532,-794 532,-624 532,-589.18 536.54,-573.65 513,-548 497.77,-531.41 476.15,-520.93 454.86,-514.32"/>
<polygon fill="midnightblue" stroke="midnightblue" points="455.7,-510.92 445.12,-511.54 453.78,-517.65 455.7,-510.92"/>
</g>
<!-- Node26 -->
<g id="node26" class="node">
<title>Node26</title>
<g id="a_node26"><a xlink:href="packet__io__stats_8h.html" target="_top" xlink:title=" ">
<polygon fill="white" stroke="black" points="216,-615.5 216,-634.5 356,-634.5 356,-615.5 216,-615.5"/>
<text text-anchor="middle" x="286" y="-622.5" font-family="Helvetica,sans-Serif" font-size="10.00">odp/api/packet_io_stats.h</text>
</a>
</g>
</g>
<!-- Node1&#45;&gt;Node26 -->
<g id="edge39" class="edge">
<title>Node1&#45;&gt;Node26</title>
<path fill="none" stroke="midnightblue" d="M479.63,-896.26C424,-884.72 344,-857.15 344,-794 344,-794 344,-794 344,-736 344,-699.16 318.23,-662.57 301.05,-642.25"/>
<polygon fill="midnightblue" stroke="midnightblue" points="303.54,-639.79 294.31,-634.59 298.29,-644.41 303.54,-639.79"/>
</g>
<!-- Node28 -->
<g id="node28" class="node">
<title>Node28</title>
<g id="a_node28"><a xlink:href="pool__types_8h.html" target="_top" xlink:title=" ">
<polygon fill="white" stroke="black" points="726,-839.5 726,-858.5 844,-858.5 844,-839.5 726,-839.5"/>
<text text-anchor="middle" x="785" y="-846.5" font-family="Helvetica,sans-Serif" font-size="10.00">odp/api/pool_types.h</text>
</a>
</g>
</g>
<!-- Node1&#45;&gt;Node28 -->
<g id="edge46" class="edge">
<title>Node1&#45;&gt;Node28</title>
<path fill="none" stroke="midnightblue" d="M572.09,-895.44C616.32,-886 687.54,-870.8 735.28,-860.61"/>
<polygon fill="midnightblue" stroke="midnightblue" points="736.05,-864.03 745.1,-858.52 734.59,-857.18 736.05,-864.03"/>
</g>
<!-- Node37 -->
<g id="node37" class="node">
<title>Node37</title>
<g id="a_node37"><a xlink:href="reassembly_8h.html" target="_top" xlink:title=" ">
<polygon fill="white" stroke="black" points="1207,-839.5 1207,-858.5 1327,-858.5 1327,-839.5 1207,-839.5"/>
<text text-anchor="middle" x="1267" y="-846.5" font-family="Helvetica,sans-Serif" font-size="10.00">odp/api/reassembly.h</text>
</a>
</g>
</g>
<!-- Node1&#45;&gt;Node37 -->
<g id="edge66" class="edge">
<title>Node1&#45;&gt;Node37</title>
<path fill="none" stroke="midnightblue" d="M584.02,-901.26C695.2,-895.23 964.15,-879.66 1189,-859 1191.55,-858.77 1194.15,-858.52 1196.78,-858.26"/>
<polygon fill="midnightblue" stroke="midnightblue" points="1197.39,-861.71 1206.99,-857.21 1196.68,-854.75 1197.39,-861.71"/>
</g>
<!-- Node4 -->
<g id="node4" class="node">
<title>Node4</title>
<g id="a_node4"><a xlink:href="spec_2deprecated_8h.html" target="_top" xlink:title=" ">
<polygon fill="white" stroke="black" points="218.5,-62 218.5,-81 363.5,-81 363.5,-62 218.5,-62"/>
<text text-anchor="middle" x="291" y="-69" font-family="Helvetica,sans-Serif" font-size="10.00">odp/api/spec/deprecated.h</text>
</a>
</g>
</g>
<!-- Node3&#45;&gt;Node4 -->
<g id="edge3" class="edge">
<title>Node3&#45;&gt;Node4</title>
<path fill="none" stroke="midnightblue" d="M202.23,-492.41C202.75,-471.98 204,-418.87 204,-374.5 204,-374.5 204,-374.5 204,-188 204,-144.47 243.91,-106.92 269.67,-87.22"/>
<polygon fill="midnightblue" stroke="midnightblue" points="271.81,-89.99 277.79,-81.24 267.66,-84.35 271.81,-89.99"/>
</g>
<!-- Node4&#45;&gt;Node2 -->
<g id="edge4" class="edge">
<title>Node4&#45;&gt;Node2</title>
<path fill="none" stroke="midnightblue" d="M291,-61.98C291,-53.58 291,-40.48 291,-29.66"/>
<polygon fill="midnightblue" stroke="midnightblue" points="294.5,-29.51 291,-19.51 287.5,-29.51 294.5,-29.51"/>
</g>
<!-- Node4&#45;&gt;Node5 -->
<g id="edge5" class="edge">
<title>Node4&#45;&gt;Node5</title>
<path fill="none" stroke="midnightblue" d="M363.74,-64.66C507.81,-53.09 827.49,-27.42 965.94,-16.3"/>
<polygon fill="midnightblue" stroke="midnightblue" points="966.3,-19.79 975.99,-15.5 965.74,-12.81 966.3,-19.79"/>
</g>
<!-- Node7 -->
<g id="node7" class="node">
<title>Node7</title>
<g id="a_node7"><a xlink:title=" ">
<polygon fill="white" stroke="#bfbfbf" points="274,-548.5 274,-578.5 380,-578.5 380,-548.5 274,-548.5"/>
<text text-anchor="start" x="282" y="-566.5" font-family="Helvetica,sans-Serif" font-size="10.00">odp/api/abi/packet</text>
<text text-anchor="middle" x="327" y="-555.5" font-family="Helvetica,sans-Serif" font-size="10.00">_io_types.h</text>
</a>
</g>
</g>
<!-- Node6&#45;&gt;Node7 -->
<g id="edge7" class="edge">
<title>Node6&#45;&gt;Node7</title>
<path fill="none" stroke="midnightblue" d="M422.95,-615.48C407.22,-607.12 382.7,-594.09 362.39,-583.3"/>
<polygon fill="midnightblue" stroke="midnightblue" points="363.87,-580.12 353.4,-578.52 360.59,-586.31 363.87,-580.12"/>
</g>
<!-- Node8 -->
<g id="node8" class="node">
<title>Node8</title>
<g id="a_node8"><a xlink:title=" ">
<polygon fill="white" stroke="#bfbfbf" points="398,-548.5 398,-578.5 504,-578.5 504,-548.5 398,-548.5"/>
<text text-anchor="start" x="406" y="-566.5" font-family="Helvetica,sans-Serif" font-size="10.00">odp/api/abi/packet</text>
<text text-anchor="middle" x="451" y="-555.5" font-family="Helvetica,sans-Serif" font-size="10.00">_types.h</text>
</a>
</g>
</g>
<!-- Node6&#45;&gt;Node8 -->
<g id="edge8" class="edge">
<title>Node6&#45;&gt;Node8</title>
<path fill="none" stroke="midnightblue" d="M440.72,-615.48C442.15,-608.4 444.25,-597.97 446.18,-588.39"/>
<polygon fill="midnightblue" stroke="midnightblue" points="449.63,-589.02 448.17,-578.52 442.76,-587.63 449.63,-589.02"/>
</g>
<!-- Node9 -->
<g id="node9" class="node">
<title>Node9</title>
<g id="a_node9"><a xlink:href="spec_2packet__types_8h.html" target="_top" xlink:title=" ">
<polygon fill="white" stroke="black" points="598.5,-548.5 598.5,-578.5 711.5,-578.5 711.5,-548.5 598.5,-548.5"/>
<text text-anchor="start" x="606.5" y="-566.5" font-family="Helvetica,sans-Serif" font-size="10.00">odp/api/spec/packet</text>
<text text-anchor="middle" x="655" y="-555.5" font-family="Helvetica,sans-Serif" font-size="10.00">_types.h</text>
</a>
</g>
</g>
<!-- Node6&#45;&gt;Node9 -->
<g id="edge9" class="edge">
<title>Node6&#45;&gt;Node9</title>
<path fill="none" stroke="midnightblue" d="M469.95,-615.48C502.28,-606.57 553.83,-592.37 594.32,-581.22"/>
<polygon fill="midnightblue" stroke="midnightblue" points="595.38,-584.55 604.09,-578.52 593.52,-577.8 595.38,-584.55"/>
</g>
<!-- Node9&#45;&gt;Node2 -->
<g id="edge10" class="edge">
<title>Node9&#45;&gt;Node2</title>
<path fill="none" stroke="midnightblue" d="M628.21,-548.49C591.88,-529.15 525.42,-492.49 472,-456 453.72,-443.51 451.6,-437.01 433,-425 403.61,-406.02 391.23,-409.66 363,-389 321.79,-358.84 282,-358.57 282,-307.5 282,-307.5 282,-307.5 282,-244 282,-153.02 153.17,-133.39 201,-56 210.67,-40.35 227.62,-29.96 244.22,-23.15"/>
<polygon fill="midnightblue" stroke="midnightblue" points="245.75,-26.32 253.9,-19.54 243.31,-19.76 245.75,-26.32"/>
</g>
<!-- Node9&#45;&gt;Node5 -->
<g id="edge38" class="edge">
<title>Node9&#45;&gt;Node5</title>
<path fill="none" stroke="midnightblue" d="M711.73,-553.69C806.08,-537.43 985,-499.01 985,-441.5 985,-441.5 985,-441.5 985,-244 985,-213.2 992.61,-205.07 1009,-179 1039.28,-130.84 1076.67,-139.74 1098,-87 1103.17,-74.23 1104.44,-68.18 1098,-56 1090.58,-41.95 1076.58,-31.47 1063.38,-24.17"/>
<polygon fill="midnightblue" stroke="midnightblue" points="1064.96,-21.04 1054.46,-19.62 1061.78,-27.28 1064.96,-21.04"/>
</g>
<!-- Node10 -->
<g id="node10" class="node">
<title>Node10</title>
<g id="a_node10"><a xlink:href="proto__stats__types_8h.html" target="_top" xlink:title=" ">
<polygon fill="white" stroke="black" points="712,-358.5 712,-388.5 822,-388.5 822,-358.5 712,-358.5"/>
<text text-anchor="start" x="720" y="-376.5" font-family="Helvetica,sans-Serif" font-size="10.00">odp/api/proto_stats</text>
<text text-anchor="middle" x="767" y="-365.5" font-family="Helvetica,sans-Serif" font-size="10.00">_types.h</text>
</a>
</g>
</g>
<!-- Node9&#45;&gt;Node10 -->
<g id="edge11" class="edge">
<title>Node9&#45;&gt;Node10</title>
<path fill="none" stroke="midnightblue" d="M663.42,-548.37C682.68,-516.04 730.1,-436.43 753.5,-397.16"/>
<polygon fill="midnightblue" stroke="midnightblue" points="756.53,-398.92 758.64,-388.54 750.51,-395.34 756.53,-398.92"/>
</g>
<!-- Node9&#45;&gt;Node20 -->
<g id="edge27" class="edge">
<title>Node9&#45;&gt;Node20</title>
<path fill="none" stroke="midnightblue" d="M598.43,-550.17C549.11,-539.42 478.28,-523.98 431.25,-513.73"/>
<polygon fill="midnightblue" stroke="midnightblue" points="431.81,-510.27 421.3,-511.56 430.32,-517.11 431.81,-510.27"/>
</g>
<!-- Node11 -->
<g id="node11" class="node">
<title>Node11</title>
<g id="a_node11"><a xlink:title=" ">
<polygon fill="white" stroke="#bfbfbf" points="703,-291.5 703,-321.5 831,-321.5 831,-291.5 703,-291.5"/>
<text text-anchor="start" x="711" y="-309.5" font-family="Helvetica,sans-Serif" font-size="10.00">odp/api/abi/proto_stats</text>
<text text-anchor="middle" x="767" y="-298.5" font-family="Helvetica,sans-Serif" font-size="10.00">_types.h</text>
</a>
</g>
</g>
<!-- Node10&#45;&gt;Node11 -->
<g id="edge12" class="edge">
<title>Node10&#45;&gt;Node11</title>
<path fill="none" stroke="midnightblue" d="M767,-358.4C767,-350.64 767,-340.81 767,-331.86"/>
<polygon fill="midnightblue" stroke="midnightblue" points="770.5,-331.58 767,-321.58 763.5,-331.58 770.5,-331.58"/>
</g>
<!-- Node12 -->
<g id="node12" class="node">
<title>Node12</title>
<g id="a_node12"><a xlink:href="spec_2proto__stats__types_8h.html" target="_top" xlink:title=" ">
<polygon fill="white" stroke="black" points="849.5,-291.5 849.5,-321.5 956.5,-321.5 956.5,-291.5 849.5,-291.5"/>
<text text-anchor="start" x="857.5" y="-309.5" font-family="Helvetica,sans-Serif" font-size="10.00">odp/api/spec/proto</text>
<text text-anchor="middle" x="903" y="-298.5" font-family="Helvetica,sans-Serif" font-size="10.00">_stats_types.h</text>
</a>
</g>
</g>
<!-- Node10&#45;&gt;Node12 -->
<g id="edge13" class="edge">
<title>Node10&#45;&gt;Node12</title>
<path fill="none" stroke="midnightblue" d="M796.51,-358.4C816.38,-348.9 842.79,-336.28 864.34,-325.98"/>
<polygon fill="midnightblue" stroke="midnightblue" points="866.03,-329.05 873.55,-321.58 863.02,-322.73 866.03,-329.05"/>
</g>
<!-- Node12&#45;&gt;Node2 -->
<g id="edge14" class="edge">
<title>Node12&#45;&gt;Node2</title>
<path fill="none" stroke="midnightblue" d="M852.32,-291.46C749.01,-262.16 518.37,-193.07 454,-143 417.12,-114.32 430.98,-85.8 395,-56 376.77,-40.9 352.7,-30.06 332.31,-22.8"/>
<polygon fill="midnightblue" stroke="midnightblue" points="333.24,-19.42 322.64,-19.52 330.99,-26.05 333.24,-19.42"/>
</g>
<!-- Node12&#45;&gt;Node5 -->
<g id="edge26" class="edge">
<title>Node12&#45;&gt;Node5</title>
<path fill="none" stroke="midnightblue" d="M912.33,-291.22C925.25,-270.03 947,-228.62 947,-190 947,-190 947,-190 947,-132 947,-97.18 946.09,-84.56 966,-56 975.41,-42.5 990.27,-31.85 1003.51,-24.31"/>
<polygon fill="midnightblue" stroke="midnightblue" points="1005.16,-27.39 1012.33,-19.58 1001.86,-21.22 1005.16,-27.39"/>
</g>
<!-- Node12&#45;&gt;Node13 -->
<g id="edge15" class="edge">
<title>Node12&#45;&gt;Node13</title>
<path fill="none" stroke="midnightblue" d="M952.03,-291.47C988.38,-281.08 1037.31,-267.08 1071.25,-257.37"/>
<polygon fill="midnightblue" stroke="midnightblue" points="1072.61,-260.62 1081.26,-254.51 1070.69,-253.89 1072.61,-260.62"/>
</g>
<!-- Node14 -->
<g id="node14" class="node">
<title>Node14</title>
<g id="a_node14"><a xlink:title=" ">
<polygon fill="white" stroke="#bfbfbf" points="1051,-179.5 1051,-198.5 1181,-198.5 1181,-179.5 1051,-179.5"/>
<text text-anchor="middle" x="1116" y="-186.5" font-family="Helvetica,sans-Serif" font-size="10.00">odp/api/abi/std_types.h</text>
</a>
</g>
</g>
<!-- Node13&#45;&gt;Node14 -->
<g id="edge16" class="edge">
<title>Node13&#45;&gt;Node14</title>
<path fill="none" stroke="midnightblue" d="M1111.83,-235.08C1112.48,-228.01 1113.42,-217.86 1114.24,-208.99"/>
<polygon fill="midnightblue" stroke="midnightblue" points="1117.75,-209.03 1115.19,-198.75 1110.78,-208.39 1117.75,-209.03"/>
</g>
<!-- Node15 -->
<g id="node15" class="node">
<title>Node15</title>
<g id="a_node15"><a xlink:href="spec_2std__types_8h.html" target="_top" xlink:title=" ">
<polygon fill="white" stroke="black" points="1237.5,-179.5 1237.5,-198.5 1374.5,-198.5 1374.5,-179.5 1237.5,-179.5"/>
<text text-anchor="middle" x="1306" y="-186.5" font-family="Helvetica,sans-Serif" font-size="10.00">odp/api/spec/std_types.h</text>
</a>
</g>
</g>
<!-- Node13&#45;&gt;Node15 -->
<g id="edge17" class="edge">
<title>Node13&#45;&gt;Node15</title>
<path fill="none" stroke="midnightblue" d="M1141.9,-235.44C1175.27,-226.2 1228.59,-211.44 1265.35,-201.26"/>
<polygon fill="midnightblue" stroke="midnightblue" points="1266.54,-204.56 1275.25,-198.52 1264.67,-197.81 1266.54,-204.56"/>
</g>
<!-- Node15&#45;&gt;Node2 -->
<g id="edge18" class="edge">
<title>Node15&#45;&gt;Node2</title>
<path fill="none" stroke="midnightblue" d="M1237.18,-180.29C1232.38,-179.83 1227.62,-179.39 1223,-179 1093.89,-168.01 765.49,-178.96 641,-143 563.61,-120.64 557.22,-84.83 482,-56 440.53,-40.11 391.78,-28.73 353.9,-21.39"/>
<polygon fill="midnightblue" stroke="midnightblue" points="354.5,-17.94 344.02,-19.52 353.2,-24.82 354.5,-17.94"/>
</g>
<!-- Node15&#45;&gt;Node5 -->
<g id="edge25" class="edge">
<title>Node15&#45;&gt;Node5</title>
<path fill="none" stroke="midnightblue" d="M1309.6,-179.22C1313.06,-170.28 1318.03,-155.94 1320,-143 1326.04,-103.23 1325.99,-81.66 1295,-56 1265.77,-31.8 1166.23,-20.14 1098.35,-14.89"/>
<polygon fill="midnightblue" stroke="midnightblue" points="1098.39,-11.38 1088.16,-14.13 1097.87,-18.36 1098.39,-11.38"/>
</g>
<!-- Node16 -->
<g id="node16" class="node">
<title>Node16</title>
<g id="a_node16"><a xlink:title=" ">
<polygon fill="white" stroke="#bfbfbf" points="1258.5,-123.5 1258.5,-142.5 1311.5,-142.5 1311.5,-123.5 1258.5,-123.5"/>
<text text-anchor="middle" x="1285" y="-130.5" font-family="Helvetica,sans-Serif" font-size="10.00">stdint.h</text>
</a>
</g>
</g>
<!-- Node15&#45;&gt;Node16 -->
<g id="edge19" class="edge">
<title>Node15&#45;&gt;Node16</title>
<path fill="none" stroke="midnightblue" d="M1302.53,-179.08C1299.69,-171.77 1295.57,-161.18 1292.04,-152.1"/>
<polygon fill="midnightblue" stroke="midnightblue" points="1295.29,-150.8 1288.4,-142.75 1288.77,-153.34 1295.29,-150.8"/>
</g>
<!-- Node17 -->
<g id="node17" class="node">
<title>Node17</title>
<g id="a_node17"><a xlink:href="align_8h.html" target="_top" xlink:title=" ">
<polygon fill="white" stroke="black" points="1112.5,-123.5 1112.5,-142.5 1201.5,-142.5 1201.5,-123.5 1112.5,-123.5"/>
<text text-anchor="middle" x="1157" y="-130.5" font-family="Helvetica,sans-Serif" font-size="10.00">odp/api/align.h</text>
</a>
</g>
</g>
<!-- Node15&#45;&gt;Node17 -->
<g id="edge20" class="edge">
<title>Node15&#45;&gt;Node17</title>
<path fill="none" stroke="midnightblue" d="M1282.39,-179.44C1257.54,-170.44 1218.23,-156.19 1190.25,-146.05"/>
<polygon fill="midnightblue" stroke="midnightblue" points="1191.09,-142.63 1180.5,-142.52 1188.71,-149.21 1191.09,-142.63"/>
</g>
<!-- Node18 -->
<g id="node18" class="node">
<title>Node18</title>
<g id="a_node18"><a xlink:title=" ">
<polygon fill="white" stroke="#bfbfbf" points="1145.5,-62 1145.5,-81 1252.5,-81 1252.5,-62 1145.5,-62"/>
<text text-anchor="middle" x="1199" y="-69" font-family="Helvetica,sans-Serif" font-size="10.00">odp/api/abi/align.h</text>
</a>
</g>
</g>
<!-- Node17&#45;&gt;Node18 -->
<g id="edge21" class="edge">
<title>Node17&#45;&gt;Node18</title>
<path fill="none" stroke="midnightblue" d="M1163.02,-123.48C1169.26,-114.64 1179.17,-100.59 1187.02,-89.48"/>
<polygon fill="midnightblue" stroke="midnightblue" points="1190.09,-91.2 1192.99,-81.01 1184.37,-87.16 1190.09,-91.2"/>
</g>
<!-- Node19 -->
<g id="node19" class="node">
<title>Node19</title>
<g id="a_node19"><a xlink:href="spec_2align_8h.html" target="_top" xlink:title=" ">
<polygon fill="white" stroke="black" points="975,-62 975,-81 1089,-81 1089,-62 975,-62"/>
<text text-anchor="middle" x="1032" y="-69" font-family="Helvetica,sans-Serif" font-size="10.00">odp/api/spec/align.h</text>
</a>
</g>
</g>
<!-- Node17&#45;&gt;Node19 -->
<g id="edge22" class="edge">
<title>Node17&#45;&gt;Node19</title>
<path fill="none" stroke="midnightblue" d="M1139.09,-123.48C1118.11,-113.49 1083.15,-96.85 1058.91,-85.31"/>
<polygon fill="midnightblue" stroke="midnightblue" points="1060.41,-82.15 1049.88,-81.01 1057.4,-88.47 1060.41,-82.15"/>
</g>
<!-- Node19&#45;&gt;Node2 -->
<g id="edge23" class="edge">
<title>Node19&#45;&gt;Node2</title>
<path fill="none" stroke="midnightblue" d="M974.78,-65.91C841.01,-55.16 508.14,-28.44 361.86,-16.69"/>
<polygon fill="midnightblue" stroke="midnightblue" points="361.9,-13.18 351.65,-15.87 361.34,-20.16 361.9,-13.18"/>
</g>
<!-- Node19&#45;&gt;Node5 -->
<g id="edge24" class="edge">
<title>Node19&#45;&gt;Node5</title>
<path fill="none" stroke="midnightblue" d="M1032,-61.98C1032,-53.58 1032,-40.48 1032,-29.66"/>
<polygon fill="midnightblue" stroke="midnightblue" points="1035.5,-29.51 1032,-19.51 1028.5,-29.51 1035.5,-29.51"/>
</g>
<!-- Node21 -->
<g id="node21" class="node">
<title>Node21</title>
<g id="a_node21"><a xlink:title=" ">
<polygon fill="white" stroke="#bfbfbf" points="279.5,-431 279.5,-450 424.5,-450 424.5,-431 279.5,-431"/>
<text text-anchor="middle" x="352" y="-438" font-family="Helvetica,sans-Serif" font-size="10.00">odp/api/abi/queue_types.h</text>
</a>
</g>
</g>
<!-- Node20&#45;&gt;Node21 -->
<g id="edge28" class="edge">
<title>Node20&#45;&gt;Node21</title>
<path fill="none" stroke="midnightblue" d="M377.7,-492.48C373.34,-483.82 366.44,-470.15 360.9,-459.15"/>
<polygon fill="midnightblue" stroke="midnightblue" points="363.92,-457.36 356.29,-450.01 357.67,-460.51 363.92,-457.36"/>
</g>
<!-- Node22 -->
<g id="node22" class="node">
<title>Node22</title>
<g id="a_node22"><a xlink:href="spec_2queue__types_8h.html" target="_top" xlink:title=" ">
<polygon fill="white" stroke="black" points="481.5,-425.5 481.5,-455.5 592.5,-455.5 592.5,-425.5 481.5,-425.5"/>
<text text-anchor="start" x="489.5" y="-443.5" font-family="Helvetica,sans-Serif" font-size="10.00">odp/api/spec/queue</text>
<text text-anchor="middle" x="537" y="-432.5" font-family="Helvetica,sans-Serif" font-size="10.00">_types.h</text>
</a>
</g>
</g>
<!-- Node20&#45;&gt;Node22 -->
<g id="edge29" class="edge">
<title>Node20&#45;&gt;Node22</title>
<path fill="none" stroke="midnightblue" d="M404.21,-492.48C426.77,-483.81 462.38,-470.15 491.04,-459.14"/>
<polygon fill="midnightblue" stroke="midnightblue" points="492.39,-462.37 500.47,-455.52 489.88,-455.84 492.39,-462.37"/>
</g>
<!-- Node22&#45;&gt;Node2 -->
<g id="edge30" class="edge">
<title>Node22&#45;&gt;Node2</title>
<path fill="none" stroke="midnightblue" d="M499.7,-425.48C437.65,-400.98 320,-349.06 320,-307.5 320,-307.5 320,-307.5 320,-244 320,-183.77 300.72,-166.43 259,-123 240.03,-103.25 221.48,-111.37 209,-87 202.72,-74.74 201.98,-67.86 209,-56 217.97,-40.84 234.07,-30.45 249.63,-23.5"/>
<polygon fill="midnightblue" stroke="midnightblue" points="251.25,-26.63 259.19,-19.62 248.61,-20.14 251.25,-26.63"/>
</g>
<!-- Node22&#45;&gt;Node5 -->
<g id="edge37" class="edge">
<title>Node22&#45;&gt;Node5</title>
<path fill="none" stroke="midnightblue" d="M567.39,-425.42C583.49,-416.75 602.64,-404.35 616,-389 647.47,-352.85 631.74,-328.96 661,-291 711.22,-225.85 878.53,-101.58 947,-56 965.13,-43.93 986.84,-32.48 1003.79,-24.15"/>
<polygon fill="midnightblue" stroke="midnightblue" points="1005.67,-27.13 1013.15,-19.63 1002.62,-20.83 1005.67,-27.13"/>
</g>
<!-- Node23 -->
<g id="node23" class="node">
<title>Node23</title>
<g id="a_node23"><a xlink:href="schedule__types_8h.html" target="_top" xlink:title=" ">
<polygon fill="white" stroke="black" points="467,-364 467,-383 607,-383 607,-364 467,-364"/>
<text text-anchor="middle" x="537" y="-371" font-family="Helvetica,sans-Serif" font-size="10.00">odp/api/schedule_types.h</text>
</a>
</g>
</g>
<!-- Node22&#45;&gt;Node23 -->
<g id="edge31" class="edge">
<title>Node22&#45;&gt;Node23</title>
<path fill="none" stroke="midnightblue" d="M537,-425.4C537,-416.06 537,-403.71 537,-393.52"/>
<polygon fill="midnightblue" stroke="midnightblue" points="540.5,-393.19 537,-383.19 533.5,-393.19 540.5,-393.19"/>
</g>
<!-- Node24 -->
<g id="node24" class="node">
<title>Node24</title>
<g id="a_node24"><a xlink:title=" ">
<polygon fill="white" stroke="#bfbfbf" points="348.5,-291.5 348.5,-321.5 465.5,-321.5 465.5,-291.5 348.5,-291.5"/>
<text text-anchor="start" x="356.5" y="-309.5" font-family="Helvetica,sans-Serif" font-size="10.00">odp/api/abi/schedule</text>
<text text-anchor="middle" x="407" y="-298.5" font-family="Helvetica,sans-Serif" font-size="10.00">_types.h</text>
</a>
</g>
</g>
<!-- Node23&#45;&gt;Node24 -->
<g id="edge32" class="edge">
<title>Node23&#45;&gt;Node24</title>
<path fill="none" stroke="midnightblue" d="M519.74,-363.87C500.63,-354.31 469.25,-338.63 444.45,-326.22"/>
<polygon fill="midnightblue" stroke="midnightblue" points="445.81,-322.99 435.3,-321.65 442.68,-329.25 445.81,-322.99"/>
</g>
<!-- Node25 -->
<g id="node25" class="node">
<title>Node25</title>
<g id="a_node25"><a xlink:href="spec_2schedule__types_8h.html" target="_top" xlink:title=" ">
<polygon fill="white" stroke="black" points="483.5,-291.5 483.5,-321.5 608.5,-321.5 608.5,-291.5 483.5,-291.5"/>
<text text-anchor="start" x="491.5" y="-309.5" font-family="Helvetica,sans-Serif" font-size="10.00">odp/api/spec/schedule</text>
<text text-anchor="middle" x="546" y="-298.5" font-family="Helvetica,sans-Serif" font-size="10.00">_types.h</text>
</a>
</g>
</g>
<!-- Node23&#45;&gt;Node25 -->
<g id="edge33" class="edge">
<title>Node23&#45;&gt;Node25</title>
<path fill="none" stroke="midnightblue" d="M538.21,-363.73C539.35,-355.54 541.1,-342.92 542.65,-331.71"/>
<polygon fill="midnightblue" stroke="midnightblue" points="546.14,-331.97 544.05,-321.59 539.21,-331.01 546.14,-331.97"/>
</g>
<!-- Node25&#45;&gt;Node2 -->
<g id="edge34" class="edge">
<title>Node25&#45;&gt;Node2</title>
<path fill="none" stroke="midnightblue" d="M496.85,-291.36C451.78,-275.02 392,-243.31 392,-190 392,-190 392,-190 392,-132 392,-97.07 393.43,-83.58 372,-56 360.64,-41.38 343.12,-30.81 327.27,-23.6"/>
<polygon fill="midnightblue" stroke="midnightblue" points="328.27,-20.22 317.7,-19.54 325.54,-26.67 328.27,-20.22"/>
</g>
<!-- Node25&#45;&gt;Node5 -->
<g id="edge36" class="edge">
<title>Node25&#45;&gt;Node5</title>
<path fill="none" stroke="midnightblue" d="M554.91,-291.4C572.15,-265.26 612.68,-209.22 661,-179 709.29,-148.8 733.34,-169.04 784,-143 839.75,-114.35 839.73,-85.56 895,-56 923.31,-40.86 957.64,-29.59 984.85,-22.12"/>
<polygon fill="midnightblue" stroke="midnightblue" points="985.77,-25.5 994.53,-19.54 983.97,-18.74 985.77,-25.5"/>
</g>
<!-- Node25&#45;&gt;Node13 -->
<g id="edge35" class="edge">
<title>Node25&#45;&gt;Node13</title>
<path fill="none" stroke="midnightblue" d="M608.62,-298.91C716.17,-287.58 934.98,-264.54 1044.88,-252.96"/>
<polygon fill="midnightblue" stroke="midnightblue" points="1045.27,-256.44 1054.85,-251.91 1044.54,-249.48 1045.27,-256.44"/>
</g>
<!-- Node26&#45;&gt;Node7 -->
<g id="edge40" class="edge">
<title>Node26&#45;&gt;Node7</title>
<path fill="none" stroke="midnightblue" d="M291.87,-615.48C297.01,-608.02 304.71,-596.85 311.59,-586.87"/>
<polygon fill="midnightblue" stroke="midnightblue" points="314.55,-588.74 317.34,-578.52 308.78,-584.77 314.55,-588.74"/>
</g>
<!-- Node27 -->
<g id="node27" class="node">
<title>Node27</title>
<g id="a_node27"><a xlink:href="spec_2packet__io__stats_8h.html" target="_top" xlink:title=" ">
<polygon fill="white" stroke="black" points="142.5,-548.5 142.5,-578.5 255.5,-578.5 255.5,-548.5 142.5,-548.5"/>
<text text-anchor="start" x="150.5" y="-566.5" font-family="Helvetica,sans-Serif" font-size="10.00">odp/api/spec/packet</text>
<text text-anchor="middle" x="199" y="-555.5" font-family="Helvetica,sans-Serif" font-size="10.00">_io_stats.h</text>
</a>
</g>
</g>
<!-- Node26&#45;&gt;Node27 -->
<g id="edge41" class="edge">
<title>Node26&#45;&gt;Node27</title>
<path fill="none" stroke="midnightblue" d="M273.54,-615.48C261.64,-607.34 243.29,-594.79 227.77,-584.18"/>
<polygon fill="midnightblue" stroke="midnightblue" points="229.73,-581.28 219.5,-578.52 225.78,-587.06 229.73,-581.28"/>
</g>
<!-- Node27&#45;&gt;Node2 -->
<g id="edge42" class="edge">
<title>Node27&#45;&gt;Node2</title>
<path fill="none" stroke="midnightblue" d="M173.06,-548.34C159.27,-539.57 143.12,-527.1 133,-512 114.93,-485.04 114,-473.95 114,-441.5 114,-441.5 114,-441.5 114,-132 114,-96.58 112.71,-80.8 138,-56 159.93,-34.5 191.58,-23.18 220.41,-17.26"/>
<polygon fill="midnightblue" stroke="midnightblue" points="221.28,-20.66 230.47,-15.38 220,-13.78 221.28,-20.66"/>
</g>
<!-- Node27&#45;&gt;Node3 -->
<g id="edge43" class="edge">
<title>Node27&#45;&gt;Node3</title>
<path fill="none" stroke="midnightblue" d="M199.71,-548.4C200.11,-540.47 200.62,-530.46 201.05,-521.86"/>
<polygon fill="midnightblue" stroke="midnightblue" points="204.56,-521.82 201.56,-511.66 197.56,-521.47 204.56,-521.82"/>
</g>
<!-- Node27&#45;&gt;Node5 -->
<g id="edge45" class="edge">
<title>Node27&#45;&gt;Node5</title>
<path fill="none" stroke="midnightblue" d="M231.15,-548.34C245.83,-540.03 261.75,-528 270,-512 274.08,-504.1 270.62,-500.87 270,-492 264.21,-409.39 244,-390.31 244,-307.5 244,-307.5 244,-307.5 244,-244 244,-79.43 406.48,-106.85 563,-56 636.08,-32.26 854.52,-19.13 965.58,-13.82"/>
<polygon fill="midnightblue" stroke="midnightblue" points="965.84,-17.31 975.66,-13.35 965.51,-10.32 965.84,-17.31"/>
</g>
<!-- Node27&#45;&gt;Node20 -->
<g id="edge44" class="edge">
<title>Node27&#45;&gt;Node20</title>
<path fill="none" stroke="midnightblue" d="M242.37,-548.4C273.99,-538.12 316.33,-524.35 346.07,-514.68"/>
<polygon fill="midnightblue" stroke="midnightblue" points="347.21,-517.99 355.64,-511.57 345.05,-511.33 347.21,-517.99"/>
</g>
<!-- Node29 -->
<g id="node29" class="node">
<title>Node29</title>
<g id="a_node29"><a xlink:title=" ">
<polygon fill="white" stroke="#bfbfbf" points="875,-783.5 875,-802.5 1011,-802.5 1011,-783.5 875,-783.5"/>
<text text-anchor="middle" x="943" y="-790.5" font-family="Helvetica,sans-Serif" font-size="10.00">odp/api/abi/pool_types.h</text>
</a>
</g>
</g>
<!-- Node28&#45;&gt;Node29 -->
<g id="edge47" class="edge">
<title>Node28&#45;&gt;Node29</title>
<path fill="none" stroke="midnightblue" d="M810.04,-839.44C836.62,-830.36 878.81,-815.94 908.52,-805.78"/>
<polygon fill="midnightblue" stroke="midnightblue" points="909.75,-809.06 918.08,-802.52 907.49,-802.44 909.75,-809.06"/>
</g>
<!-- Node30 -->
<g id="node30" class="node">
<title>Node30</title>
<g id="a_node30"><a xlink:href="spec_2pool__types_8h.html" target="_top" xlink:title=" ">
<polygon fill="white" stroke="black" points="713.5,-783.5 713.5,-802.5 856.5,-802.5 856.5,-783.5 713.5,-783.5"/>
<text text-anchor="middle" x="785" y="-790.5" font-family="Helvetica,sans-Serif" font-size="10.00">odp/api/spec/pool_types.h</text>
</a>
</g>
</g>
<!-- Node28&#45;&gt;Node30 -->
<g id="edge48" class="edge">
<title>Node28&#45;&gt;Node30</title>
<path fill="none" stroke="midnightblue" d="M785,-839.08C785,-832.01 785,-821.86 785,-812.99"/>
<polygon fill="midnightblue" stroke="midnightblue" points="788.5,-812.75 785,-802.75 781.5,-812.75 788.5,-812.75"/>
</g>
<!-- Node30&#45;&gt;Node2 -->
<g id="edge49" class="edge">
<title>Node30&#45;&gt;Node2</title>
<path fill="none" stroke="midnightblue" d="M713.49,-784C594.12,-768.49 349.03,-727.4 163,-635 90.64,-599.06 38,-583.8 38,-503 38,-503 38,-503 38,-132 38,-92.97 50.44,-78.96 82,-56 121.87,-26.99 176.64,-15.97 220.12,-12.08"/>
<polygon fill="midnightblue" stroke="midnightblue" points="220.64,-15.55 230.34,-11.28 220.1,-8.57 220.64,-15.55"/>
</g>
<!-- Node30&#45;&gt;Node5 -->
<g id="edge64" class="edge">
<title>Node30&#45;&gt;Node5</title>
<path fill="none" stroke="midnightblue" d="M845.47,-783.46C917.65,-773 1030.92,-755.6 1049,-747 1322.39,-617.01 1441,-492.72 1441,-190 1441,-190 1441,-190 1441,-132 1441,-84.23 1407.81,-77.2 1365,-56 1319.46,-33.44 1181.66,-20.75 1098.28,-14.94"/>
<polygon fill="midnightblue" stroke="midnightblue" points="1098.35,-11.43 1088.14,-14.25 1097.88,-18.42 1098.35,-11.43"/>
</g>
<!-- Node30&#45;&gt;Node13 -->
<g id="edge50" class="edge">
<title>Node30&#45;&gt;Node13</title>
<path fill="none" stroke="midnightblue" d="M845.17,-783.46C936.35,-768.81 1099,-735.21 1099,-682 1099,-682 1099,-682 1099,-372.5 1099,-334.03 1104.57,-289.27 1108.12,-264.64"/>
<polygon fill="midnightblue" stroke="midnightblue" points="1111.61,-264.97 1109.62,-254.56 1104.69,-263.94 1111.61,-264.97"/>
</g>
<!-- Node31 -->
<g id="node31" class="node">
<title>Node31</title>
<g id="a_node31"><a xlink:href="dma__types_8h.html" target="_top" xlink:title=" ">
<polygon fill="white" stroke="black" points="725.5,-727.5 725.5,-746.5 844.5,-746.5 844.5,-727.5 725.5,-727.5"/>
<text text-anchor="middle" x="785" y="-734.5" font-family="Helvetica,sans-Serif" font-size="10.00">odp/api/dma_types.h</text>
</a>
</g>
</g>
<!-- Node30&#45;&gt;Node31 -->
<g id="edge51" class="edge">
<title>Node30&#45;&gt;Node31</title>
<path fill="none" stroke="midnightblue" d="M785,-783.08C785,-776.01 785,-765.86 785,-756.99"/>
<polygon fill="midnightblue" stroke="midnightblue" points="788.5,-756.75 785,-746.75 781.5,-756.75 788.5,-756.75"/>
</g>
<!-- Node32 -->
<g id="node32" class="node">
<title>Node32</title>
<g id="a_node32"><a xlink:title=" ">
<polygon fill="white" stroke="#bfbfbf" points="795.5,-671.5 795.5,-690.5 932.5,-690.5 932.5,-671.5 795.5,-671.5"/>
<text text-anchor="middle" x="864" y="-678.5" font-family="Helvetica,sans-Serif" font-size="10.00">odp/api/abi/dma_types.h</text>
</a>
</g>
</g>
<!-- Node31&#45;&gt;Node32 -->
<g id="edge52" class="edge">
<title>Node31&#45;&gt;Node32</title>
<path fill="none" stroke="midnightblue" d="M797.69,-727.32C809.9,-718.98 828.58,-706.21 843,-696.35"/>
<polygon fill="midnightblue" stroke="midnightblue" points="845.06,-699.19 851.34,-690.65 841.11,-693.41 845.06,-699.19"/>
</g>
<!-- Node33 -->
<g id="node33" class="node">
<title>Node33</title>
<g id="a_node33"><a xlink:href="spec_2dma__types_8h.html" target="_top" xlink:title=" ">
<polygon fill="white" stroke="black" points="633,-671.5 633,-690.5 777,-690.5 777,-671.5 633,-671.5"/>
<text text-anchor="middle" x="705" y="-678.5" font-family="Helvetica,sans-Serif" font-size="10.00">odp/api/spec/dma_types.h</text>
</a>
</g>
</g>
<!-- Node31&#45;&gt;Node33 -->
<g id="edge53" class="edge">
<title>Node31&#45;&gt;Node33</title>
<path fill="none" stroke="midnightblue" d="M772.15,-727.32C759.78,-718.98 740.87,-706.21 726.26,-696.35"/>
<polygon fill="midnightblue" stroke="midnightblue" points="728.07,-693.35 717.82,-690.65 724.15,-699.15 728.07,-693.35"/>
</g>
<!-- Node33&#45;&gt;Node2 -->
<g id="edge54" class="edge">
<title>Node33&#45;&gt;Node2</title>
<path fill="none" stroke="midnightblue" d="M632.91,-674.54C499.66,-664.29 226.53,-642.55 207,-635 110.13,-597.54 76,-545.35 76,-441.5 76,-441.5 76,-441.5 76,-132 76,-94.24 84.59,-79.69 114,-56 143.89,-31.92 185.09,-20.56 220.22,-15.26"/>
<polygon fill="midnightblue" stroke="midnightblue" points="220.99,-18.69 230.43,-13.86 220.05,-11.75 220.99,-18.69"/>
</g>
<!-- Node33&#45;&gt;Node5 -->
<g id="edge63" class="edge">
<title>Node33&#45;&gt;Node5</title>
<path fill="none" stroke="midnightblue" d="M761.12,-671.44C852.41,-655.93 1023,-619.57 1023,-564.5 1023,-564.5 1023,-564.5 1023,-244 1023,-213.9 1019.95,-199.49 1042,-179 1097.94,-127.02 1143.79,-181.05 1210,-143 1248.86,-120.67 1289.47,-90.61 1261,-56 1240.71,-31.34 1158.59,-19.99 1098.47,-14.9"/>
<polygon fill="midnightblue" stroke="midnightblue" points="1098.52,-11.4 1088.27,-14.08 1097.96,-18.37 1098.52,-11.4"/>
</g>
<!-- Node33&#45;&gt;Node6 -->
<g id="edge60" class="edge">
<title>Node33&#45;&gt;Node6</title>
<path fill="none" stroke="midnightblue" d="M662.85,-671.44C616.25,-661.98 541.16,-646.74 490.95,-636.55"/>
<polygon fill="midnightblue" stroke="midnightblue" points="491.45,-633.08 480.95,-634.52 490.06,-639.94 491.45,-633.08"/>
</g>
<!-- Node33&#45;&gt;Node13 -->
<g id="edge62" class="edge">
<title>Node33&#45;&gt;Node13</title>
<path fill="none" stroke="midnightblue" d="M774.87,-671.46C870.76,-659.6 1031.96,-639.15 1037,-635 1062.56,-613.96 1061,-597.6 1061,-564.5 1061,-564.5 1061,-564.5 1061,-372.5 1061,-330.99 1084.57,-286.84 1099.35,-263.25"/>
<polygon fill="midnightblue" stroke="midnightblue" points="1102.37,-265.03 1104.87,-254.73 1096.49,-261.22 1102.37,-265.03"/>
</g>
<!-- Node33&#45;&gt;Node20 -->
<g id="edge61" class="edge">
<title>Node33&#45;&gt;Node20</title>
<path fill="none" stroke="midnightblue" d="M694.94,-671.22C662.69,-643.15 563.02,-556.87 546,-548 514.46,-531.57 476.29,-520.63 444.71,-513.66"/>
<polygon fill="midnightblue" stroke="midnightblue" points="445.22,-510.19 434.71,-511.54 443.76,-517.04 445.22,-510.19"/>
</g>
<!-- Node34 -->
<g id="node34" class="node">
<title>Node34</title>
<g id="a_node34"><a xlink:href="event__types_8h.html" target="_top" xlink:title=" ">
<polygon fill="white" stroke="black" points="650.5,-123.5 650.5,-142.5 775.5,-142.5 775.5,-123.5 650.5,-123.5"/>
<text text-anchor="middle" x="713" y="-130.5" font-family="Helvetica,sans-Serif" font-size="10.00">odp/api/event_types.h</text>
</a>
</g>
</g>
<!-- Node33&#45;&gt;Node34 -->
<g id="edge55" class="edge">
<title>Node33&#45;&gt;Node34</title>
<path fill="none" stroke="midnightblue" d="M706.72,-671.4C710.08,-654.03 717.45,-613.47 720,-579 729.47,-450.83 686.27,-419.29 694,-291 697.02,-240.92 705.41,-182.34 709.96,-152.91"/>
<polygon fill="midnightblue" stroke="midnightblue" points="713.46,-153.24 711.55,-142.82 706.54,-152.15 713.46,-153.24"/>
</g>
<!-- Node35 -->
<g id="node35" class="node">
<title>Node35</title>
<g id="a_node35"><a xlink:title=" ">
<polygon fill="white" stroke="#bfbfbf" points="699.5,-62 699.5,-81 842.5,-81 842.5,-62 699.5,-62"/>
<text text-anchor="middle" x="771" y="-69" font-family="Helvetica,sans-Serif" font-size="10.00">odp/api/abi/event_types.h</text>
</a>
</g>
</g>
<!-- Node34&#45;&gt;Node35 -->
<g id="edge56" class="edge">
<title>Node34&#45;&gt;Node35</title>
<path fill="none" stroke="midnightblue" d="M721.31,-123.48C730.18,-114.37 744.45,-99.74 755.42,-88.48"/>
<polygon fill="midnightblue" stroke="midnightblue" points="758.23,-90.61 762.71,-81.01 753.22,-85.73 758.23,-90.61"/>
</g>
<!-- Node36 -->
<g id="node36" class="node">
<title>Node36</title>
<g id="a_node36"><a xlink:href="spec_2event__types_8h.html" target="_top" xlink:title=" ">
<polygon fill="white" stroke="black" points="572.5,-56.5 572.5,-86.5 681.5,-86.5 681.5,-56.5 572.5,-56.5"/>
<text text-anchor="start" x="580.5" y="-74.5" font-family="Helvetica,sans-Serif" font-size="10.00">odp/api/spec/event</text>
<text text-anchor="middle" x="627" y="-63.5" font-family="Helvetica,sans-Serif" font-size="10.00">_types.h</text>
</a>
</g>
</g>
<!-- Node34&#45;&gt;Node36 -->
<g id="edge57" class="edge">
<title>Node34&#45;&gt;Node36</title>
<path fill="none" stroke="midnightblue" d="M700.68,-123.48C689.03,-115.42 671.12,-103.02 655.87,-92.47"/>
<polygon fill="midnightblue" stroke="midnightblue" points="657.48,-89.33 647.27,-86.52 653.5,-95.09 657.48,-89.33"/>
</g>
<!-- Node36&#45;&gt;Node2 -->
<g id="edge58" class="edge">
<title>Node36&#45;&gt;Node2</title>
<path fill="none" stroke="midnightblue" d="M572.27,-60.81C510.97,-49.95 412.01,-32.43 349.29,-21.32"/>
<polygon fill="midnightblue" stroke="midnightblue" points="349.63,-17.83 339.17,-19.53 348.41,-24.72 349.63,-17.83"/>
</g>
<!-- Node36&#45;&gt;Node5 -->
<g id="edge59" class="edge">
<title>Node36&#45;&gt;Node5</title>
<path fill="none" stroke="midnightblue" d="M681.57,-57.6C684.42,-57.04 687.24,-56.5 690,-56 785.16,-38.83 896.33,-25.42 965.46,-17.85"/>
<polygon fill="midnightblue" stroke="midnightblue" points="966.2,-21.29 975.76,-16.73 965.44,-14.33 966.2,-21.29"/>
</g>
<!-- Node38 -->
<g id="node38" class="node">
<title>Node38</title>
<g id="a_node38"><a xlink:href="spec_2reassembly_8h.html" target="_top" xlink:title=" ">
<polygon fill="white" stroke="black" points="1203,-297 1203,-316 1349,-316 1349,-297 1203,-297"/>
<text text-anchor="middle" x="1276" y="-304" font-family="Helvetica,sans-Serif" font-size="10.00">odp/api/spec/reassembly.h</text>
</a>
</g>
</g>
<!-- Node37&#45;&gt;Node38 -->
<g id="edge67" class="edge">
<title>Node37&#45;&gt;Node38</title>
<path fill="none" stroke="midnightblue" d="M1267.39,-839.44C1268.21,-820.94 1270,-775.83 1270,-738 1270,-738 1270,-738 1270,-439.5 1270,-399.12 1272.84,-351.85 1274.61,-326.27"/>
<polygon fill="midnightblue" stroke="midnightblue" points="1278.11,-326.37 1275.33,-316.14 1271.13,-325.87 1278.11,-326.37"/>
</g>
<!-- Node38&#45;&gt;Node2 -->
<g id="edge68" class="edge">
<title>Node38&#45;&gt;Node2</title>
<path fill="none" stroke="midnightblue" d="M1273.13,-296.7C1264.78,-272.75 1238.02,-206.29 1190,-179 1073.87,-113 718.82,-178.33 590,-143 508.53,-120.66 498.67,-89.23 421,-56 390.63,-43 355.12,-30.91 328.9,-22.54"/>
<polygon fill="midnightblue" stroke="midnightblue" points="329.92,-19.2 319.33,-19.53 327.81,-25.87 329.92,-19.2"/>
</g>
<!-- Node38&#45;&gt;Node5 -->
<g id="edge70" class="edge">
<title>Node38&#45;&gt;Node5</title>
<path fill="none" stroke="midnightblue" d="M1298.71,-297C1335.23,-281.67 1403,-245.73 1403,-190 1403,-190 1403,-190 1403,-132 1403,-82.31 1365.72,-77.66 1321,-56 1250.15,-21.69 1159.12,-12.43 1098.34,-10.47"/>
<polygon fill="midnightblue" stroke="midnightblue" points="1098.2,-6.96 1088.11,-10.2 1098.01,-13.96 1098.2,-6.96"/>
</g>
<!-- Node38&#45;&gt;Node13 -->
<g id="edge69" class="edge">
<title>Node38&#45;&gt;Node13</title>
<path fill="none" stroke="midnightblue" d="M1252.36,-296.98C1224.06,-286.77 1176.47,-269.61 1144.41,-258.05"/>
<polygon fill="midnightblue" stroke="midnightblue" points="1145.19,-254.61 1134.6,-254.51 1142.82,-261.19 1145.19,-254.61"/>
</g>
</g>
</svg>
