<?xml version="1.0" encoding="UTF-8" standalone="no"?>
<!DOCTYPE svg PUBLIC "-//W3C//DTD SVG 1.1//EN"
 "http://www.w3.org/Graphics/SVG/1.1/DTD/svg11.dtd">
<!-- Generated by graphviz version 2.43.0 (0)
 -->
<!-- Title: std_types.h Pages: 1 -->
<svg width="3919pt" height="252pt"
 viewBox="0.00 0.00 3919.00 252.00" xmlns="http://www.w3.org/2000/svg" xmlns:xlink="http://www.w3.org/1999/xlink">
<g id="graph0" class="graph" transform="scale(1 1) rotate(0) translate(4 248)">
<title>std_types.h</title>
<polygon fill="white" stroke="transparent" points="-4,4 -4,-248 3915,-248 3915,4 -4,4"/>
<!-- Node1 -->
<g id="node1" class="node">
<title>Node1</title>
<g id="a_node1"><a xlink:title=" ">
<polygon fill="#bfbfbf" stroke="black" points="1832,-224.5 1832,-243.5 1905,-243.5 1905,-224.5 1832,-224.5"/>
<text text-anchor="middle" x="1868.5" y="-231.5" font-family="Helvetica,sans-Serif" font-size="10.00">std_types.h</text>
</a>
</g>
</g>
<!-- Node2 -->
<g id="node2" class="node">
<title>Node2</title>
<g id="a_node2"><a xlink:href="std__types_8h.html" target="_top" xlink:title=" ">
<polygon fill="white" stroke="black" points="1832,-168.5 1832,-187.5 1905,-187.5 1905,-168.5 1832,-168.5"/>
<text text-anchor="middle" x="1868.5" y="-175.5" font-family="Helvetica,sans-Serif" font-size="10.00">std_types.h</text>
</a>
</g>
</g>
<!-- Node1&#45;&gt;Node2 -->
<g id="edge1" class="edge">
<title>Node1&#45;&gt;Node2</title>
<path fill="none" stroke="midnightblue" d="M1868.5,-213.8C1868.5,-204.91 1868.5,-194.78 1868.5,-187.75"/>
<polygon fill="midnightblue" stroke="midnightblue" points="1865,-214.08 1868.5,-224.08 1872,-214.08 1865,-214.08"/>
</g>
<!-- Node3 -->
<g id="node3" class="node">
<title>Node3</title>
<g id="a_node3"><a xlink:href="abi-default_2atomic_8h.html" target="_top" xlink:title=" ">
<polygon fill="white" stroke="black" points="0,-112.5 0,-131.5 59,-131.5 59,-112.5 0,-112.5"/>
<text text-anchor="middle" x="29.5" y="-119.5" font-family="Helvetica,sans-Serif" font-size="10.00">atomic.h</text>
</a>
</g>
</g>
<!-- Node2&#45;&gt;Node3 -->
<g id="edge2" class="edge">
<title>Node2&#45;&gt;Node3</title>
<path fill="none" stroke="midnightblue" d="M1821.59,-177.15C1574.43,-177.71 421.26,-177.81 67.5,-132 64.81,-131.65 62.03,-131.19 59.26,-130.67"/>
<polygon fill="midnightblue" stroke="midnightblue" points="1821.68,-180.65 1831.67,-177.12 1821.67,-173.65 1821.68,-180.65"/>
</g>
<!-- Node4 -->
<g id="node4" class="node">
<title>Node4</title>
<g id="a_node4"><a xlink:href="abi-default_2barrier_8h.html" target="_top" xlink:title=" ">
<polygon fill="white" stroke="black" points="77,-112.5 77,-131.5 134,-131.5 134,-112.5 77,-112.5"/>
<text text-anchor="middle" x="105.5" y="-119.5" font-family="Helvetica,sans-Serif" font-size="10.00">barrier.h</text>
</a>
</g>
</g>
<!-- Node2&#45;&gt;Node4 -->
<g id="edge3" class="edge">
<title>Node2&#45;&gt;Node4</title>
<path fill="none" stroke="midnightblue" d="M1821.66,-177.09C1580.97,-177.32 481.42,-175.94 143.5,-132 140.41,-131.6 137.2,-131.05 134.02,-130.42"/>
<polygon fill="midnightblue" stroke="midnightblue" points="1821.83,-180.58 1831.82,-177.07 1821.82,-173.58 1821.83,-180.58"/>
</g>
<!-- Node5 -->
<g id="node5" class="node">
<title>Node5</title>
<g id="a_node5"><a xlink:href="abi-default_2byteorder_8h.html" target="_top" xlink:title=" ">
<polygon fill="white" stroke="black" points="152.5,-112.5 152.5,-131.5 224.5,-131.5 224.5,-112.5 152.5,-112.5"/>
<text text-anchor="middle" x="188.5" y="-119.5" font-family="Helvetica,sans-Serif" font-size="10.00">byteorder.h</text>
</a>
</g>
</g>
<!-- Node2&#45;&gt;Node5 -->
<g id="edge4" class="edge">
<title>Node2&#45;&gt;Node5</title>
<path fill="none" stroke="midnightblue" d="M1821.54,-176.79C1588.34,-175.55 553.26,-168.11 233.5,-132 230.65,-131.68 227.71,-131.27 224.77,-130.8"/>
<polygon fill="midnightblue" stroke="midnightblue" points="1821.7,-180.29 1831.72,-176.84 1821.74,-173.29 1821.7,-180.29"/>
</g>
<!-- Node6 -->
<g id="node6" class="node">
<title>Node6</title>
<g id="a_node6"><a xlink:href="abi-default_2cpumask_8h.html" target="_top" xlink:title=" ">
<polygon fill="white" stroke="black" points="242.5,-112.5 242.5,-131.5 312.5,-131.5 312.5,-112.5 242.5,-112.5"/>
<text text-anchor="middle" x="277.5" y="-119.5" font-family="Helvetica,sans-Serif" font-size="10.00">cpumask.h</text>
</a>
</g>
</g>
<!-- Node2&#45;&gt;Node6 -->
<g id="edge5" class="edge">
<title>Node2&#45;&gt;Node6</title>
<path fill="none" stroke="midnightblue" d="M1821.55,-176.73C1596.05,-175.25 622.82,-166.93 321.5,-132 318.71,-131.68 315.84,-131.27 312.96,-130.8"/>
<polygon fill="midnightblue" stroke="midnightblue" points="1821.69,-180.23 1831.71,-176.79 1821.74,-173.23 1821.69,-180.23"/>
</g>
<!-- Node7 -->
<g id="node7" class="node">
<title>Node7</title>
<g id="a_node7"><a xlink:href="abi-default_2init_8h.html" target="_top" xlink:title=" ">
<polygon fill="white" stroke="black" points="331,-112.5 331,-131.5 372,-131.5 372,-112.5 331,-112.5"/>
<text text-anchor="middle" x="351.5" y="-119.5" font-family="Helvetica,sans-Serif" font-size="10.00">init.h</text>
</a>
</g>
</g>
<!-- Node2&#45;&gt;Node7 -->
<g id="edge6" class="edge">
<title>Node2&#45;&gt;Node7</title>
<path fill="none" stroke="midnightblue" d="M1821.49,-177.29C1600.95,-178.37 667.52,-179.96 380.5,-132 377.8,-131.55 374.99,-130.91 372.25,-130.18"/>
<polygon fill="midnightblue" stroke="midnightblue" points="1821.77,-180.78 1831.75,-177.23 1821.73,-173.78 1821.77,-180.78"/>
</g>
<!-- Node8 -->
<g id="node8" class="node">
<title>Node8</title>
<g id="a_node8"><a xlink:href="abi-default_2ipsec_8h.html" target="_top" xlink:title=" ">
<polygon fill="white" stroke="black" points="390,-112.5 390,-131.5 441,-131.5 441,-112.5 390,-112.5"/>
<text text-anchor="middle" x="415.5" y="-119.5" font-family="Helvetica,sans-Serif" font-size="10.00">ipsec.h</text>
</a>
</g>
</g>
<!-- Node2&#45;&gt;Node8 -->
<g id="edge7" class="edge">
<title>Node2&#45;&gt;Node8</title>
<path fill="none" stroke="midnightblue" d="M1821.7,-176.9C1608.06,-176.21 724.16,-171.04 450.5,-132 447.52,-131.57 444.42,-130.99 441.37,-130.33"/>
<polygon fill="midnightblue" stroke="midnightblue" points="1821.93,-180.4 1831.94,-176.93 1821.95,-173.4 1821.93,-180.4"/>
</g>
<!-- Node9 -->
<g id="node9" class="node">
<title>Node9</title>
<g id="a_node9"><a xlink:href="abi-default_2packet__io__types_8h.html" target="_top" xlink:title=" ">
<polygon fill="white" stroke="black" points="459.5,-112.5 459.5,-131.5 563.5,-131.5 563.5,-112.5 459.5,-112.5"/>
<text text-anchor="middle" x="511.5" y="-119.5" font-family="Helvetica,sans-Serif" font-size="10.00">packet_io_types.h</text>
</a>
</g>
</g>
<!-- Node2&#45;&gt;Node9 -->
<g id="edge8" class="edge">
<title>Node2&#45;&gt;Node9</title>
<path fill="none" stroke="midnightblue" d="M1821.78,-177.26C1653.05,-177.8 1059.49,-176.24 572.5,-132 569.62,-131.74 566.67,-131.43 563.7,-131.09"/>
<polygon fill="midnightblue" stroke="midnightblue" points="1821.83,-180.76 1831.81,-177.22 1821.8,-173.76 1821.83,-180.76"/>
</g>
<!-- Node10 -->
<g id="node10" class="node">
<title>Node10</title>
<g id="a_node10"><a xlink:href="abi-default_2rwlock__recursive_8h.html" target="_top" xlink:title=" ">
<polygon fill="white" stroke="black" points="581.5,-112.5 581.5,-131.5 689.5,-131.5 689.5,-112.5 581.5,-112.5"/>
<text text-anchor="middle" x="635.5" y="-119.5" font-family="Helvetica,sans-Serif" font-size="10.00">rwlock_recursive.h</text>
</a>
</g>
</g>
<!-- Node2&#45;&gt;Node10 -->
<g id="edge9" class="edge">
<title>Node2&#45;&gt;Node10</title>
<path fill="none" stroke="midnightblue" d="M1821.16,-176.93C1662.25,-176.34 1133.39,-171.32 698.5,-132 695.64,-131.74 692.71,-131.44 689.75,-131.11"/>
<polygon fill="midnightblue" stroke="midnightblue" points="1821.51,-180.43 1831.53,-176.97 1821.54,-173.43 1821.51,-180.43"/>
</g>
<!-- Node11 -->
<g id="node11" class="node">
<title>Node11</title>
<g id="a_node11"><a xlink:href="abi-default_2schedule_8h.html" target="_top" xlink:title=" ">
<polygon fill="white" stroke="black" points="708,-112.5 708,-131.5 777,-131.5 777,-112.5 708,-112.5"/>
<text text-anchor="middle" x="742.5" y="-119.5" font-family="Helvetica,sans-Serif" font-size="10.00">schedule.h</text>
</a>
</g>
</g>
<!-- Node2&#45;&gt;Node11 -->
<g id="edge10" class="edge">
<title>Node2&#45;&gt;Node11</title>
<path fill="none" stroke="midnightblue" d="M1821.59,-176.05C1641.1,-172.24 991.43,-157.06 786.5,-132 783.4,-131.62 780.2,-131.14 777,-130.6"/>
<polygon fill="midnightblue" stroke="midnightblue" points="1821.73,-179.55 1831.81,-176.26 1821.88,-172.56 1821.73,-179.55"/>
</g>
<!-- Node12 -->
<g id="node12" class="node">
<title>Node12</title>
<g id="a_node12"><a xlink:href="abi-default_2spinlock__recursive_8h.html" target="_top" xlink:title=" ">
<polygon fill="white" stroke="black" points="795.5,-112.5 795.5,-131.5 911.5,-131.5 911.5,-112.5 795.5,-112.5"/>
<text text-anchor="middle" x="853.5" y="-119.5" font-family="Helvetica,sans-Serif" font-size="10.00">spinlock_recursive.h</text>
</a>
</g>
</g>
<!-- Node2&#45;&gt;Node12 -->
<g id="edge11" class="edge">
<title>Node2&#45;&gt;Node12</title>
<path fill="none" stroke="midnightblue" d="M1821.59,-176.2C1683.34,-173.54 1265.55,-163.31 920.5,-132 917.58,-131.73 914.59,-131.44 911.57,-131.11"/>
<polygon fill="midnightblue" stroke="midnightblue" points="1821.76,-179.71 1831.82,-176.39 1821.89,-172.71 1821.76,-179.71"/>
</g>
<!-- Node13 -->
<g id="node13" class="node">
<title>Node13</title>
<g id="a_node13"><a xlink:href="abi-default_2traffic__mngr_8h.html" target="_top" xlink:title=" ">
<polygon fill="white" stroke="black" points="929.5,-112.5 929.5,-131.5 1013.5,-131.5 1013.5,-112.5 929.5,-112.5"/>
<text text-anchor="middle" x="971.5" y="-119.5" font-family="Helvetica,sans-Serif" font-size="10.00">traffic_mngr.h</text>
</a>
</g>
</g>
<!-- Node2&#45;&gt;Node13 -->
<g id="edge12" class="edge">
<title>Node2&#45;&gt;Node13</title>
<path fill="none" stroke="midnightblue" d="M1821.41,-176.5C1692.91,-174.7 1325.6,-166.68 1022.5,-132 1019.64,-131.67 1016.7,-131.29 1013.74,-130.86"/>
<polygon fill="midnightblue" stroke="midnightblue" points="1821.63,-180 1831.67,-176.64 1821.72,-173 1821.63,-180"/>
</g>
<!-- Node14 -->
<g id="node14" class="node">
<title>Node14</title>
<g id="a_node14"><a xlink:href="barrier_8h.html" target="_top" xlink:title=" ">
<polygon fill="white" stroke="black" points="1032,-112.5 1032,-131.5 1089,-131.5 1089,-112.5 1032,-112.5"/>
<text text-anchor="middle" x="1060.5" y="-119.5" font-family="Helvetica,sans-Serif" font-size="10.00">barrier.h</text>
</a>
</g>
</g>
<!-- Node2&#45;&gt;Node14 -->
<g id="edge13" class="edge">
<title>Node2&#45;&gt;Node14</title>
<path fill="none" stroke="midnightblue" d="M1821.38,-176.64C1701.19,-175.2 1373.6,-168.01 1103.5,-132 1098.81,-131.38 1093.87,-130.52 1089.08,-129.6"/>
<polygon fill="midnightblue" stroke="midnightblue" points="1821.65,-180.14 1831.69,-176.76 1821.73,-173.14 1821.65,-180.14"/>
</g>
<!-- Node15 -->
<g id="node15" class="node">
<title>Node15</title>
<g id="a_node15"><a xlink:href="classification_8h.html" target="_top" xlink:title=" ">
<polygon fill="white" stroke="black" points="1577,-56.5 1577,-75.5 1666,-75.5 1666,-56.5 1577,-56.5"/>
<text text-anchor="middle" x="1621.5" y="-63.5" font-family="Helvetica,sans-Serif" font-size="10.00">classification.h</text>
</a>
</g>
</g>
<!-- Node2&#45;&gt;Node15 -->
<g id="edge14" class="edge">
<title>Node2&#45;&gt;Node15</title>
<path fill="none" stroke="midnightblue" d="M1821.82,-177.8C1739.91,-178.08 1575.57,-173.34 1539.5,-132 1518.78,-108.25 1563.81,-86.84 1594.98,-75.5"/>
<polygon fill="midnightblue" stroke="midnightblue" points="1821.88,-181.3 1831.86,-177.73 1821.83,-174.3 1821.88,-181.3"/>
</g>
<!-- Node16 -->
<g id="node16" class="node">
<title>Node16</title>
<g id="a_node16"><a xlink:href="spec_2ipsec_8h.html" target="_top" xlink:title=" ">
<polygon fill="white" stroke="red" points="1204,-0.5 1204,-19.5 1255,-19.5 1255,-0.5 1204,-0.5"/>
<text text-anchor="middle" x="1229.5" y="-7.5" font-family="Helvetica,sans-Serif" font-size="10.00">ipsec.h</text>
</a>
</g>
</g>
<!-- Node2&#45;&gt;Node16 -->
<g id="edge32" class="edge">
<title>Node2&#45;&gt;Node16</title>
<path fill="none" stroke="midnightblue" d="M1821.65,-176.89C1684.43,-176.12 1290.4,-170.54 1248.5,-132 1216.26,-102.34 1223.6,-42.06 1227.7,-19.65"/>
<polygon fill="midnightblue" stroke="midnightblue" points="1821.83,-180.39 1831.84,-176.94 1821.86,-173.39 1821.83,-180.39"/>
</g>
<!-- Node20 -->
<g id="node18" class="node">
<title>Node20</title>
<g id="a_node18"><a xlink:href="crypto_8h.html" target="_top" xlink:title=" ">
<polygon fill="white" stroke="black" points="1145.5,-56.5 1145.5,-75.5 1201.5,-75.5 1201.5,-56.5 1145.5,-56.5"/>
<text text-anchor="middle" x="1173.5" y="-63.5" font-family="Helvetica,sans-Serif" font-size="10.00">crypto.h</text>
</a>
</g>
</g>
<!-- Node2&#45;&gt;Node20 -->
<g id="edge17" class="edge">
<title>Node2&#45;&gt;Node20</title>
<path fill="none" stroke="midnightblue" d="M1821.2,-175.86C1662.87,-171.8 1160,-156.99 1136.5,-132 1120.22,-114.69 1146.12,-88.91 1162.22,-75.62"/>
<polygon fill="midnightblue" stroke="midnightblue" points="1821.48,-179.36 1831.56,-176.12 1821.65,-172.37 1821.48,-179.36"/>
</g>
<!-- Node21 -->
<g id="node19" class="node">
<title>Node21</title>
<g id="a_node19"><a xlink:href="proto__stats_8h.html" target="_top" xlink:title=" ">
<polygon fill="white" stroke="black" points="1257.5,-112.5 1257.5,-131.5 1337.5,-131.5 1337.5,-112.5 1257.5,-112.5"/>
<text text-anchor="middle" x="1297.5" y="-119.5" font-family="Helvetica,sans-Serif" font-size="10.00">proto_stats.h</text>
</a>
</g>
</g>
<!-- Node2&#45;&gt;Node21 -->
<g id="edge19" class="edge">
<title>Node2&#45;&gt;Node21</title>
<path fill="none" stroke="midnightblue" d="M1821.94,-174.49C1730.51,-169.22 1521.19,-155.52 1346.5,-132 1343.59,-131.61 1340.58,-131.16 1337.56,-130.68"/>
<polygon fill="midnightblue" stroke="midnightblue" points="1821.8,-177.98 1831.98,-175.06 1822.19,-170.99 1821.8,-177.98"/>
</g>
<!-- Node22 -->
<g id="node20" class="node">
<title>Node22</title>
<g id="a_node20"><a xlink:href="spec_2buffer_8h.html" target="_top" xlink:title=" ">
<polygon fill="white" stroke="black" points="1356,-112.5 1356,-131.5 1409,-131.5 1409,-112.5 1356,-112.5"/>
<text text-anchor="middle" x="1382.5" y="-119.5" font-family="Helvetica,sans-Serif" font-size="10.00">buffer.h</text>
</a>
</g>
</g>
<!-- Node2&#45;&gt;Node22 -->
<g id="edge20" class="edge">
<title>Node2&#45;&gt;Node22</title>
<path fill="none" stroke="midnightblue" d="M1821.79,-174.57C1739.71,-169.8 1564.45,-157.4 1418.5,-132 1415.45,-131.47 1412.28,-130.82 1409.14,-130.12"/>
<polygon fill="midnightblue" stroke="midnightblue" points="1821.62,-178.07 1831.8,-175.14 1822.01,-171.08 1821.62,-178.07"/>
</g>
<!-- Node24 -->
<g id="node22" class="node">
<title>Node24</title>
<g id="a_node22"><a xlink:href="spec_2chksum_8h.html" target="_top" xlink:title=" ">
<polygon fill="white" stroke="red" points="1427.5,-112.5 1427.5,-131.5 1491.5,-131.5 1491.5,-112.5 1427.5,-112.5"/>
<text text-anchor="middle" x="1459.5" y="-119.5" font-family="Helvetica,sans-Serif" font-size="10.00">chksum.h</text>
</a>
</g>
</g>
<!-- Node2&#45;&gt;Node24 -->
<g id="edge22" class="edge">
<title>Node2&#45;&gt;Node24</title>
<path fill="none" stroke="midnightblue" d="M1821.65,-172.25C1752.35,-164.99 1618.53,-150.04 1505.5,-132 1501,-131.28 1496.27,-130.45 1491.62,-129.58"/>
<polygon fill="midnightblue" stroke="midnightblue" points="1821.49,-175.75 1831.8,-173.31 1822.21,-168.79 1821.49,-175.75"/>
</g>
<!-- Node26 -->
<g id="node23" class="node">
<title>Node26</title>
<g id="a_node23"><a xlink:href="spec_2classification_8h.html" target="_top" xlink:title=" ">
<polygon fill="white" stroke="black" points="1680,-112.5 1680,-131.5 1769,-131.5 1769,-112.5 1680,-112.5"/>
<text text-anchor="middle" x="1724.5" y="-119.5" font-family="Helvetica,sans-Serif" font-size="10.00">classification.h</text>
</a>
</g>
</g>
<!-- Node2&#45;&gt;Node26 -->
<g id="edge23" class="edge">
<title>Node2&#45;&gt;Node26</title>
<path fill="none" stroke="midnightblue" d="M1836.25,-164.91C1809.18,-154.75 1771.18,-140.51 1747.21,-131.52"/>
<polygon fill="midnightblue" stroke="midnightblue" points="1835.09,-168.21 1845.68,-168.44 1837.55,-161.66 1835.09,-168.21"/>
</g>
<!-- Node27 -->
<g id="node24" class="node">
<title>Node27</title>
<g id="a_node24"><a xlink:href="spec_2comp_8h.html" target="_top" xlink:title=" ">
<polygon fill="white" stroke="red" points="1548,-112.5 1548,-131.5 1601,-131.5 1601,-112.5 1548,-112.5"/>
<text text-anchor="middle" x="1574.5" y="-119.5" font-family="Helvetica,sans-Serif" font-size="10.00">comp.h</text>
</a>
</g>
</g>
<!-- Node2&#45;&gt;Node27 -->
<g id="edge25" class="edge">
<title>Node2&#45;&gt;Node27</title>
<path fill="none" stroke="midnightblue" d="M1821.7,-169.88C1769.86,-161.75 1683.89,-147.55 1610.5,-132 1607.47,-131.36 1604.32,-130.64 1601.19,-129.9"/>
<polygon fill="midnightblue" stroke="midnightblue" points="1821.18,-173.34 1831.6,-171.42 1822.25,-166.42 1821.18,-173.34"/>
</g>
<!-- Node29 -->
<g id="node25" class="node">
<title>Node29</title>
<g id="a_node25"><a xlink:href="spec_2cpu_8h.html" target="_top" xlink:title=" ">
<polygon fill="white" stroke="red" points="1619,-112.5 1619,-131.5 1662,-131.5 1662,-112.5 1619,-112.5"/>
<text text-anchor="middle" x="1640.5" y="-119.5" font-family="Helvetica,sans-Serif" font-size="10.00">cpu.h</text>
</a>
</g>
</g>
<!-- Node2&#45;&gt;Node29 -->
<g id="edge26" class="edge">
<title>Node2&#45;&gt;Node29</title>
<path fill="none" stroke="midnightblue" d="M1821.67,-167.1C1781.64,-158.45 1722.58,-145.24 1671.5,-132 1668.46,-131.21 1665.27,-130.34 1662.14,-129.45"/>
<polygon fill="midnightblue" stroke="midnightblue" points="1821.16,-170.57 1831.67,-169.26 1822.63,-163.73 1821.16,-170.57"/>
</g>
<!-- Node32 -->
<g id="node26" class="node">
<title>Node32</title>
<g id="a_node26"><a xlink:href="spec_2crypto_8h.html" target="_top" xlink:title=" ">
<polygon fill="white" stroke="black" points="1145.5,-112.5 1145.5,-131.5 1201.5,-131.5 1201.5,-112.5 1145.5,-112.5"/>
<text text-anchor="middle" x="1173.5" y="-119.5" font-family="Helvetica,sans-Serif" font-size="10.00">crypto.h</text>
</a>
</g>
</g>
<!-- Node2&#45;&gt;Node32 -->
<g id="edge27" class="edge">
<title>Node2&#45;&gt;Node32</title>
<path fill="none" stroke="midnightblue" d="M1821.66,-176.06C1714.07,-173.39 1441.19,-163.79 1215.5,-132 1211.07,-131.38 1206.41,-130.55 1201.87,-129.65"/>
<polygon fill="midnightblue" stroke="midnightblue" points="1821.77,-179.56 1831.85,-176.3 1821.94,-172.56 1821.77,-179.56"/>
</g>
<!-- Node33 -->
<g id="node27" class="node">
<title>Node33</title>
<g id="a_node27"><a xlink:href="spec_2dma__types_8h.html" target="_top" xlink:title=" ">
<polygon fill="white" stroke="red" points="1787.5,-112.5 1787.5,-131.5 1867.5,-131.5 1867.5,-112.5 1787.5,-112.5"/>
<text text-anchor="middle" x="1827.5" y="-119.5" font-family="Helvetica,sans-Serif" font-size="10.00">dma_types.h</text>
</a>
</g>
</g>
<!-- Node2&#45;&gt;Node33 -->
<g id="edge29" class="edge">
<title>Node2&#45;&gt;Node33</title>
<path fill="none" stroke="midnightblue" d="M1855.48,-159.86C1848.38,-150.5 1839.9,-139.33 1834.14,-131.75"/>
<polygon fill="midnightblue" stroke="midnightblue" points="1852.89,-162.24 1861.73,-168.08 1858.47,-158 1852.89,-162.24"/>
</g>
<!-- Node50 -->
<g id="node28" class="node">
<title>Node50</title>
<g id="a_node28"><a xlink:href="spec_2hash_8h.html" target="_top" xlink:title=" ">
<polygon fill="white" stroke="red" points="1886,-112.5 1886,-131.5 1935,-131.5 1935,-112.5 1886,-112.5"/>
<text text-anchor="middle" x="1910.5" y="-119.5" font-family="Helvetica,sans-Serif" font-size="10.00">hash.h</text>
</a>
</g>
</g>
<!-- Node2&#45;&gt;Node50 -->
<g id="edge30" class="edge">
<title>Node2&#45;&gt;Node50</title>
<path fill="none" stroke="midnightblue" d="M1881.61,-160.14C1888.93,-150.74 1897.74,-139.4 1903.69,-131.75"/>
<polygon fill="midnightblue" stroke="midnightblue" points="1878.81,-158.04 1875.44,-168.08 1884.34,-162.34 1878.81,-158.04"/>
</g>
<!-- Node52 -->
<g id="node29" class="node">
<title>Node52</title>
<g id="a_node29"><a xlink:href="spec_2init_8h.html" target="_top" xlink:title=" ">
<polygon fill="white" stroke="red" points="1953,-112.5 1953,-131.5 1994,-131.5 1994,-112.5 1953,-112.5"/>
<text text-anchor="middle" x="1973.5" y="-119.5" font-family="Helvetica,sans-Serif" font-size="10.00">init.h</text>
</a>
</g>
</g>
<!-- Node2&#45;&gt;Node52 -->
<g id="edge31" class="edge">
<title>Node2&#45;&gt;Node52</title>
<path fill="none" stroke="midnightblue" d="M1894.31,-163.73C1913.75,-153.73 1939.85,-140.31 1956.67,-131.65"/>
<polygon fill="midnightblue" stroke="midnightblue" points="1892.66,-160.64 1885.37,-168.32 1895.86,-166.86 1892.66,-160.64"/>
</g>
<!-- Node39 -->
<g id="node30" class="node">
<title>Node39</title>
<g id="a_node30"><a xlink:href="spec_2packet_8h.html" target="_top" xlink:title=" ">
<polygon fill="white" stroke="red" points="2418.5,-56.5 2418.5,-75.5 2476.5,-75.5 2476.5,-56.5 2418.5,-56.5"/>
<text text-anchor="middle" x="2447.5" y="-63.5" font-family="Helvetica,sans-Serif" font-size="10.00">packet.h</text>
</a>
</g>
</g>
<!-- Node2&#45;&gt;Node39 -->
<g id="edge33" class="edge">
<title>Node2&#45;&gt;Node39</title>
<path fill="none" stroke="midnightblue" d="M1908.71,-165.48C1935.89,-157.23 1972.37,-145.28 2003.5,-132 2021.06,-124.51 2023.25,-117.59 2041.5,-112 2177.96,-70.17 2350.78,-66.3 2418.46,-66.56"/>
<polygon fill="midnightblue" stroke="midnightblue" points="1907.36,-162.23 1898.78,-168.45 1909.36,-168.93 1907.36,-162.23"/>
</g>
<!-- Node57 -->
<g id="node31" class="node">
<title>Node57</title>
<g id="a_node31"><a xlink:href="spec_2packet__flags_8h.html" target="_top" xlink:title=" ">
<polygon fill="white" stroke="red" points="2050.5,-112.5 2050.5,-131.5 2136.5,-131.5 2136.5,-112.5 2050.5,-112.5"/>
<text text-anchor="middle" x="2093.5" y="-119.5" font-family="Helvetica,sans-Serif" font-size="10.00">packet_flags.h</text>
</a>
</g>
</g>
<!-- Node2&#45;&gt;Node57 -->
<g id="edge34" class="edge">
<title>Node2&#45;&gt;Node57</title>
<path fill="none" stroke="midnightblue" d="M1913.97,-166.09C1956.47,-155.89 2019.08,-140.86 2058.01,-131.52"/>
<polygon fill="midnightblue" stroke="midnightblue" points="1913.06,-162.71 1904.15,-168.44 1914.69,-169.51 1913.06,-162.71"/>
</g>
<!-- Node41 -->
<g id="node32" class="node">
<title>Node41</title>
<g id="a_node32"><a xlink:href="spec_2packet__io__types_8h.html" target="_top" xlink:title=" ">
<polygon fill="white" stroke="red" points="2154.5,-112.5 2154.5,-131.5 2258.5,-131.5 2258.5,-112.5 2154.5,-112.5"/>
<text text-anchor="middle" x="2206.5" y="-119.5" font-family="Helvetica,sans-Serif" font-size="10.00">packet_io_types.h</text>
</a>
</g>
</g>
<!-- Node2&#45;&gt;Node41 -->
<g id="edge35" class="edge">
<title>Node2&#45;&gt;Node41</title>
<path fill="none" stroke="midnightblue" d="M1915.32,-169.52C1978.03,-159.5 2088.95,-141.78 2154.29,-131.34"/>
<polygon fill="midnightblue" stroke="midnightblue" points="1914.64,-166.08 1905.32,-171.12 1915.74,-173 1914.64,-166.08"/>
</g>
<!-- Node45 -->
<g id="node33" class="node">
<title>Node45</title>
<g id="a_node33"><a xlink:href="spec_2pool_8h.html" target="_top" xlink:title=" ">
<polygon fill="white" stroke="red" points="2277,-112.5 2277,-131.5 2324,-131.5 2324,-112.5 2277,-112.5"/>
<text text-anchor="middle" x="2300.5" y="-119.5" font-family="Helvetica,sans-Serif" font-size="10.00">pool.h</text>
</a>
</g>
</g>
<!-- Node2&#45;&gt;Node45 -->
<g id="edge36" class="edge">
<title>Node2&#45;&gt;Node45</title>
<path fill="none" stroke="midnightblue" d="M1915.13,-174.08C1989.97,-168.87 2141.3,-156.18 2267.5,-132 2270.53,-131.42 2273.7,-130.7 2276.81,-129.93"/>
<polygon fill="midnightblue" stroke="midnightblue" points="1914.83,-170.59 1905.09,-174.76 1915.31,-177.57 1914.83,-170.59"/>
</g>
<!-- Node37 -->
<g id="node34" class="node">
<title>Node37</title>
<g id="a_node34"><a xlink:href="spec_2pool__types_8h.html" target="_top" xlink:title=" ">
<polygon fill="white" stroke="red" points="2342,-112.5 2342,-131.5 2421,-131.5 2421,-112.5 2342,-112.5"/>
<text text-anchor="middle" x="2381.5" y="-119.5" font-family="Helvetica,sans-Serif" font-size="10.00">pool_types.h</text>
</a>
</g>
</g>
<!-- Node2&#45;&gt;Node37 -->
<g id="edge37" class="edge">
<title>Node2&#45;&gt;Node37</title>
<path fill="none" stroke="midnightblue" d="M1915.08,-173.87C1999.01,-167.92 2181.06,-153.62 2333.5,-132 2336.27,-131.61 2339.12,-131.17 2341.99,-130.7"/>
<polygon fill="midnightblue" stroke="midnightblue" points="1914.83,-170.38 1905.1,-174.57 1915.32,-177.36 1914.83,-170.38"/>
</g>
<!-- Node59 -->
<g id="node35" class="node">
<title>Node59</title>
<g id="a_node35"><a xlink:href="spec_2proto__stats__types_8h.html" target="_top" xlink:title=" ">
<polygon fill="white" stroke="red" points="2439,-112.5 2439,-131.5 2552,-131.5 2552,-112.5 2439,-112.5"/>
<text text-anchor="middle" x="2495.5" y="-119.5" font-family="Helvetica,sans-Serif" font-size="10.00">proto_stats_types.h</text>
</a>
</g>
</g>
<!-- Node2&#45;&gt;Node59 -->
<g id="edge38" class="edge">
<title>Node2&#45;&gt;Node59</title>
<path fill="none" stroke="midnightblue" d="M1915.06,-174.18C2011.43,-168.15 2239.68,-152.83 2430.5,-132 2433.22,-131.7 2436,-131.38 2438.8,-131.05"/>
<polygon fill="midnightblue" stroke="midnightblue" points="1914.82,-170.69 1905.06,-174.81 1915.26,-177.68 1914.82,-170.69"/>
</g>
<!-- Node67 -->
<g id="node36" class="node">
<title>Node67</title>
<g id="a_node36"><a xlink:href="spec_2queue_8h.html" target="_top" xlink:title=" ">
<polygon fill="white" stroke="red" points="2570.5,-112.5 2570.5,-131.5 2626.5,-131.5 2626.5,-112.5 2570.5,-112.5"/>
<text text-anchor="middle" x="2598.5" y="-119.5" font-family="Helvetica,sans-Serif" font-size="10.00">queue.h</text>
</a>
</g>
</g>
<!-- Node2&#45;&gt;Node67 -->
<g id="edge39" class="edge">
<title>Node2&#45;&gt;Node67</title>
<path fill="none" stroke="midnightblue" d="M1915.48,-176.76C2027.8,-175.56 2320.48,-168.85 2561.5,-132 2564.38,-131.56 2567.36,-131.01 2570.32,-130.39"/>
<polygon fill="midnightblue" stroke="midnightblue" points="1915.15,-173.26 1905.18,-176.85 1915.22,-180.26 1915.15,-173.26"/>
</g>
<!-- Node69 -->
<g id="node37" class="node">
<title>Node69</title>
<g id="a_node37"><a xlink:href="spec_2random_8h.html" target="_top" xlink:title=" ">
<polygon fill="white" stroke="red" points="2645,-112.5 2645,-131.5 2708,-131.5 2708,-112.5 2645,-112.5"/>
<text text-anchor="middle" x="2676.5" y="-119.5" font-family="Helvetica,sans-Serif" font-size="10.00">random.h</text>
</a>
</g>
</g>
<!-- Node2&#45;&gt;Node69 -->
<g id="edge40" class="edge">
<title>Node2&#45;&gt;Node69</title>
<path fill="none" stroke="midnightblue" d="M1915.34,-176.81C2035.54,-175.78 2364.55,-169.45 2635.5,-132 2638.53,-131.58 2641.67,-131.06 2644.8,-130.47"/>
<polygon fill="midnightblue" stroke="midnightblue" points="1915,-173.31 1905.03,-176.89 1915.06,-180.31 1915,-173.31"/>
</g>
<!-- Node71 -->
<g id="node38" class="node">
<title>Node71</title>
<g id="a_node38"><a xlink:href="spec_2random__types_8h.html" target="_top" xlink:title=" ">
<polygon fill="white" stroke="red" points="2726,-112.5 2726,-131.5 2821,-131.5 2821,-112.5 2726,-112.5"/>
<text text-anchor="middle" x="2773.5" y="-119.5" font-family="Helvetica,sans-Serif" font-size="10.00">random_types.h</text>
</a>
</g>
</g>
<!-- Node2&#45;&gt;Node71 -->
<g id="edge41" class="edge">
<title>Node2&#45;&gt;Node71</title>
<path fill="none" stroke="midnightblue" d="M1915.28,-176.27C2043.75,-173.87 2412.71,-164.48 2717.5,-132 2720.24,-131.71 2723.05,-131.37 2725.89,-131.01"/>
<polygon fill="midnightblue" stroke="midnightblue" points="1914.95,-172.77 1905.02,-176.45 1915.08,-179.77 1914.95,-172.77"/>
</g>
<!-- Node73 -->
<g id="node39" class="node">
<title>Node73</title>
<g id="a_node39"><a xlink:href="spec_2reassembly_8h.html" target="_top" xlink:title=" ">
<polygon fill="white" stroke="red" points="2839,-112.5 2839,-131.5 2920,-131.5 2920,-112.5 2839,-112.5"/>
<text text-anchor="middle" x="2879.5" y="-119.5" font-family="Helvetica,sans-Serif" font-size="10.00">reassembly.h</text>
</a>
</g>
</g>
<!-- Node2&#45;&gt;Node73 -->
<g id="edge42" class="edge">
<title>Node2&#45;&gt;Node73</title>
<path fill="none" stroke="midnightblue" d="M1915.7,-177.04C2055.72,-176.68 2480.82,-172.11 2830.5,-132 2833.25,-131.68 2836.08,-131.31 2838.92,-130.89"/>
<polygon fill="midnightblue" stroke="midnightblue" points="1915.33,-173.54 1905.34,-177.06 1915.35,-180.54 1915.33,-173.54"/>
</g>
<!-- Node75 -->
<g id="node40" class="node">
<title>Node75</title>
<g id="a_node40"><a xlink:href="spec_2schedule_8h.html" target="_top" xlink:title=" ">
<polygon fill="white" stroke="red" points="2938,-112.5 2938,-131.5 3007,-131.5 3007,-112.5 2938,-112.5"/>
<text text-anchor="middle" x="2972.5" y="-119.5" font-family="Helvetica,sans-Serif" font-size="10.00">schedule.h</text>
</a>
</g>
</g>
<!-- Node2&#45;&gt;Node75 -->
<g id="edge43" class="edge">
<title>Node2&#45;&gt;Node75</title>
<path fill="none" stroke="midnightblue" d="M1915.1,-176.04C2092.92,-172.22 2728.83,-157.08 2929.5,-132 2932.22,-131.66 2935.03,-131.24 2937.85,-130.76"/>
<polygon fill="midnightblue" stroke="midnightblue" points="1914.95,-172.54 1905.03,-176.26 1915.1,-179.54 1914.95,-172.54"/>
</g>
<!-- Node77 -->
<g id="node41" class="node">
<title>Node77</title>
<g id="a_node41"><a xlink:href="spec_2schedule__types_8h.html" target="_top" xlink:title=" ">
<polygon fill="white" stroke="red" points="3025,-112.5 3025,-131.5 3126,-131.5 3126,-112.5 3025,-112.5"/>
<text text-anchor="middle" x="3075.5" y="-119.5" font-family="Helvetica,sans-Serif" font-size="10.00">schedule_types.h</text>
</a>
</g>
</g>
<!-- Node2&#45;&gt;Node77 -->
<g id="edge44" class="edge">
<title>Node2&#45;&gt;Node77</title>
<path fill="none" stroke="midnightblue" d="M1915.49,-177.04C2072.11,-176.79 2590.46,-172.71 3016.5,-132 3019.18,-131.74 3021.93,-131.45 3024.7,-131.12"/>
<polygon fill="midnightblue" stroke="midnightblue" points="1915.27,-173.54 1905.28,-177.06 1915.28,-180.54 1915.27,-173.54"/>
</g>
<!-- Node85 -->
<g id="node42" class="node">
<title>Node85</title>
<g id="a_node42"><a xlink:href="spec_2stash_8h.html" target="_top" xlink:title=" ">
<polygon fill="white" stroke="red" points="3144.5,-112.5 3144.5,-131.5 3196.5,-131.5 3196.5,-112.5 3144.5,-112.5"/>
<text text-anchor="middle" x="3170.5" y="-119.5" font-family="Helvetica,sans-Serif" font-size="10.00">stash.h</text>
</a>
</g>
</g>
<!-- Node2&#45;&gt;Node85 -->
<g id="edge45" class="edge">
<title>Node2&#45;&gt;Node85</title>
<path fill="none" stroke="midnightblue" d="M1915.41,-176.69C2114.85,-175.17 2893.13,-167.04 3135.5,-132 3138.36,-131.59 3141.32,-131.03 3144.25,-130.4"/>
<polygon fill="midnightblue" stroke="midnightblue" points="1915.24,-173.19 1905.27,-176.77 1915.29,-180.19 1915.24,-173.19"/>
</g>
<!-- Node87 -->
<g id="node43" class="node">
<title>Node87</title>
<g id="a_node43"><a xlink:href="spec_2std_8h.html" target="_top" xlink:title=" ">
<polygon fill="white" stroke="red" points="3215,-112.5 3215,-131.5 3256,-131.5 3256,-112.5 3215,-112.5"/>
<text text-anchor="middle" x="3235.5" y="-119.5" font-family="Helvetica,sans-Serif" font-size="10.00">std.h</text>
</a>
</g>
</g>
<!-- Node2&#45;&gt;Node87 -->
<g id="edge46" class="edge">
<title>Node2&#45;&gt;Node87</title>
<path fill="none" stroke="midnightblue" d="M1915.32,-177.04C2121.47,-176.96 2949.39,-174 3205.5,-132 3208.5,-131.51 3211.63,-130.8 3214.68,-129.99"/>
<polygon fill="midnightblue" stroke="midnightblue" points="1915.14,-173.54 1905.14,-177.04 1915.14,-180.54 1915.14,-173.54"/>
</g>
<!-- Node89 -->
<g id="node44" class="node">
<title>Node89</title>
<g id="a_node44"><a xlink:href="spec_2threshold_8h.html" target="_top" xlink:title=" ">
<polygon fill="white" stroke="red" points="3274,-112.5 3274,-131.5 3345,-131.5 3345,-112.5 3274,-112.5"/>
<text text-anchor="middle" x="3309.5" y="-119.5" font-family="Helvetica,sans-Serif" font-size="10.00">threshold.h</text>
</a>
</g>
</g>
<!-- Node2&#45;&gt;Node89 -->
<g id="edge47" class="edge">
<title>Node2&#45;&gt;Node89</title>
<path fill="none" stroke="midnightblue" d="M1915.26,-176.56C2126.78,-174.4 2995.32,-163.75 3265.5,-132 3268.13,-131.69 3270.84,-131.3 3273.56,-130.87"/>
<polygon fill="midnightblue" stroke="midnightblue" points="1915.08,-173.06 1905.12,-176.66 1915.16,-180.06 1915.08,-173.06"/>
</g>
<!-- Node91 -->
<g id="node45" class="node">
<title>Node91</title>
<g id="a_node45"><a xlink:href="spec_2thrmask_8h.html" target="_top" xlink:title=" ">
<polygon fill="white" stroke="red" points="3363.5,-112.5 3363.5,-131.5 3429.5,-131.5 3429.5,-112.5 3363.5,-112.5"/>
<text text-anchor="middle" x="3396.5" y="-119.5" font-family="Helvetica,sans-Serif" font-size="10.00">thrmask.h</text>
</a>
</g>
</g>
<!-- Node2&#45;&gt;Node91 -->
<g id="edge48" class="edge">
<title>Node2&#45;&gt;Node91</title>
<path fill="none" stroke="midnightblue" d="M1915.36,-176.72C2135.24,-175.24 3066,-166.99 3354.5,-132 3357.31,-131.66 3360.22,-131.22 3363.12,-130.72"/>
<polygon fill="midnightblue" stroke="midnightblue" points="1915.11,-173.22 1905.14,-176.79 1915.16,-180.22 1915.11,-173.22"/>
</g>
<!-- Node93 -->
<g id="node46" class="node">
<title>Node93</title>
<g id="a_node46"><a xlink:href="spec_2timer__types_8h.html" target="_top" xlink:title=" ">
<polygon fill="white" stroke="red" points="3447.5,-112.5 3447.5,-131.5 3531.5,-131.5 3531.5,-112.5 3447.5,-112.5"/>
<text text-anchor="middle" x="3489.5" y="-119.5" font-family="Helvetica,sans-Serif" font-size="10.00">timer_types.h</text>
</a>
</g>
</g>
<!-- Node2&#45;&gt;Node93 -->
<g id="edge49" class="edge">
<title>Node2&#45;&gt;Node93</title>
<path fill="none" stroke="midnightblue" d="M1915.39,-176.58C2142.74,-174.4 3131.91,-163.28 3438.5,-132 3441.36,-131.71 3444.31,-131.35 3447.27,-130.94"/>
<polygon fill="midnightblue" stroke="midnightblue" points="1915.11,-173.08 1905.14,-176.68 1915.18,-180.08 1915.11,-173.08"/>
</g>
<!-- Node43 -->
<g id="node47" class="node">
<title>Node43</title>
<g id="a_node47"><a xlink:href="spec_2traffic__mngr_8h.html" target="_top" xlink:title=" ">
<polygon fill="white" stroke="red" points="3549.5,-112.5 3549.5,-131.5 3633.5,-131.5 3633.5,-112.5 3549.5,-112.5"/>
<text text-anchor="middle" x="3591.5" y="-119.5" font-family="Helvetica,sans-Serif" font-size="10.00">traffic_mngr.h</text>
</a>
</g>
</g>
<!-- Node2&#45;&gt;Node43 -->
<g id="edge50" class="edge">
<title>Node2&#45;&gt;Node43</title>
<path fill="none" stroke="midnightblue" d="M1915.35,-176.68C2151.46,-174.9 3212.57,-165.16 3540.5,-132 3543.36,-131.71 3546.31,-131.35 3549.27,-130.95"/>
<polygon fill="midnightblue" stroke="midnightblue" points="1915.03,-173.18 1905.05,-176.75 1915.08,-180.18 1915.03,-173.18"/>
</g>
<!-- Node95 -->
<g id="node48" class="node">
<title>Node95</title>
<g id="a_node48"><a xlink:href="system__info_8h.html" target="_top" xlink:title=" ">
<polygon fill="white" stroke="black" points="3651.5,-112.5 3651.5,-131.5 3737.5,-131.5 3737.5,-112.5 3651.5,-112.5"/>
<text text-anchor="middle" x="3694.5" y="-119.5" font-family="Helvetica,sans-Serif" font-size="10.00">system_info.h</text>
</a>
</g>
</g>
<!-- Node2&#45;&gt;Node95 -->
<g id="edge51" class="edge">
<title>Node2&#45;&gt;Node95</title>
<path fill="none" stroke="midnightblue" d="M1915.42,-176.74C2160.25,-175.23 3293.19,-166.47 3642.5,-132 3645.42,-131.71 3648.42,-131.36 3651.44,-130.95"/>
<polygon fill="midnightblue" stroke="midnightblue" points="1915.08,-173.24 1905.1,-176.8 1915.12,-180.24 1915.08,-173.24"/>
</g>
<!-- Node96 -->
<g id="node49" class="node">
<title>Node96</title>
<g id="a_node49"><a xlink:href="time_8h.html" target="_top" xlink:title=" ">
<polygon fill="white" stroke="red" points="3755.5,-112.5 3755.5,-131.5 3803.5,-131.5 3803.5,-112.5 3755.5,-112.5"/>
<text text-anchor="middle" x="3779.5" y="-119.5" font-family="Helvetica,sans-Serif" font-size="10.00">time.h</text>
</a>
</g>
</g>
<!-- Node2&#45;&gt;Node96 -->
<g id="edge52" class="edge">
<title>Node2&#45;&gt;Node96</title>
<path fill="none" stroke="midnightblue" d="M1915.43,-176.56C2187.89,-173.89 3560.6,-159.17 3746.5,-132 3749.44,-131.57 3752.49,-130.97 3755.49,-130.27"/>
<polygon fill="midnightblue" stroke="midnightblue" points="1915.07,-173.06 1905.11,-176.66 1915.14,-180.06 1915.07,-173.06"/>
</g>
<!-- Node97 -->
<g id="node50" class="node">
<title>Node97</title>
<g id="a_node50"><a xlink:href="strong__types_8h.html" target="_top" xlink:title=" ">
<polygon fill="white" stroke="black" points="3822,-112.5 3822,-131.5 3911,-131.5 3911,-112.5 3822,-112.5"/>
<text text-anchor="middle" x="3866.5" y="-119.5" font-family="Helvetica,sans-Serif" font-size="10.00">strong_types.h</text>
</a>
</g>
</g>
<!-- Node2&#45;&gt;Node97 -->
<g id="edge55" class="edge">
<title>Node2&#45;&gt;Node97</title>
<path fill="none" stroke="midnightblue" d="M1915.3,-176.82C2173.6,-175.69 3427.34,-168.37 3812.5,-132 3815.53,-131.71 3818.64,-131.36 3821.78,-130.96"/>
<polygon fill="midnightblue" stroke="midnightblue" points="1915.12,-173.32 1905.14,-176.86 1915.15,-180.32 1915.12,-173.32"/>
</g>
<!-- Node15&#45;&gt;Node16 -->
<g id="edge15" class="edge">
<title>Node15&#45;&gt;Node16</title>
<path fill="none" stroke="midnightblue" d="M1566.84,-57.47C1481.02,-45.65 1317.95,-23.18 1255.1,-14.53"/>
<polygon fill="midnightblue" stroke="midnightblue" points="1566.53,-60.96 1576.91,-58.86 1567.49,-54.03 1566.53,-60.96"/>
</g>
<!-- Node18 -->
<g id="node17" class="node">
<title>Node18</title>
<g id="a_node17"><a xlink:href="spec_2packet__io_8h.html" target="_top" xlink:title=" ">
<polygon fill="white" stroke="red" points="2239.5,-0.5 2239.5,-19.5 2311.5,-19.5 2311.5,-0.5 2239.5,-0.5"/>
<text text-anchor="middle" x="2275.5" y="-7.5" font-family="Helvetica,sans-Serif" font-size="10.00">packet_io.h</text>
</a>
</g>
</g>
<!-- Node15&#45;&gt;Node18 -->
<g id="edge16" class="edge">
<title>Node15&#45;&gt;Node18</title>
<path fill="none" stroke="midnightblue" d="M1676.32,-60.47C1806.33,-49.74 2130.57,-22.97 2239.3,-13.99"/>
<polygon fill="midnightblue" stroke="midnightblue" points="1675.87,-57 1666.19,-61.31 1676.45,-63.97 1675.87,-57"/>
</g>
<!-- Node20&#45;&gt;Node16 -->
<g id="edge18" class="edge">
<title>Node20&#45;&gt;Node16</title>
<path fill="none" stroke="midnightblue" d="M1189.83,-49.25C1199.76,-39.67 1212.09,-27.79 1220.34,-19.83"/>
<polygon fill="midnightblue" stroke="midnightblue" points="1187.27,-46.86 1182.5,-56.32 1192.13,-51.9 1187.27,-46.86"/>
</g>
<!-- Node23 -->
<g id="node21" class="node">
<title>Node23</title>
<g id="a_node21"><a xlink:href="buffer_8h.html" target="_top" xlink:title=" ">
<polygon fill="white" stroke="black" points="1356,-56.5 1356,-75.5 1409,-75.5 1409,-56.5 1356,-56.5"/>
<text text-anchor="middle" x="1382.5" y="-63.5" font-family="Helvetica,sans-Serif" font-size="10.00">buffer.h</text>
</a>
</g>
</g>
<!-- Node22&#45;&gt;Node23 -->
<g id="edge21" class="edge">
<title>Node22&#45;&gt;Node23</title>
<path fill="none" stroke="midnightblue" d="M1382.5,-101.8C1382.5,-92.91 1382.5,-82.78 1382.5,-75.75"/>
<polygon fill="midnightblue" stroke="midnightblue" points="1379,-102.08 1382.5,-112.08 1386,-102.08 1379,-102.08"/>
</g>
<!-- Node26&#45;&gt;Node15 -->
<g id="edge24" class="edge">
<title>Node26&#45;&gt;Node15</title>
<path fill="none" stroke="midnightblue" d="M1698.92,-107.59C1679.88,-97.61 1654.44,-84.27 1638.01,-75.65"/>
<polygon fill="midnightblue" stroke="midnightblue" points="1697.47,-110.78 1707.95,-112.32 1700.72,-104.58 1697.47,-110.78"/>
</g>
<!-- Node32&#45;&gt;Node20 -->
<g id="edge28" class="edge">
<title>Node32&#45;&gt;Node20</title>
<path fill="none" stroke="midnightblue" d="M1173.5,-101.8C1173.5,-92.91 1173.5,-82.78 1173.5,-75.75"/>
<polygon fill="midnightblue" stroke="midnightblue" points="1170,-102.08 1173.5,-112.08 1177,-102.08 1170,-102.08"/>
</g>
<!-- Node96&#45;&gt;Node18 -->
<g id="edge54" class="edge">
<title>Node96&#45;&gt;Node18</title>
<path fill="none" stroke="midnightblue" d="M3745.35,-112.15C3172.26,-16.29 2476.38,-10.77 2311.65,-10.86"/>
<polygon fill="midnightblue" stroke="midnightblue" points="3745.03,-115.65 3755.47,-113.86 3746.19,-108.74 3745.03,-115.65"/>
</g>
<!-- Node96&#45;&gt;Node39 -->
<g id="edge53" class="edge">
<title>Node96&#45;&gt;Node39</title>
<path fill="none" stroke="midnightblue" d="M3745.5,-112.29C3469.26,-72.96 2642.87,-67.76 2476.76,-67.09"/>
<polygon fill="midnightblue" stroke="midnightblue" points="3745.08,-115.76 3755.49,-113.76 3746.11,-108.84 3745.08,-115.76"/>
</g>
</g>
</svg>
