<?xml version="1.0" encoding="UTF-8" standalone="no"?>
<!DOCTYPE svg PUBLIC "-//W3C//DTD SVG 1.1//EN"
 "http://www.w3.org/Graphics/SVG/1.1/DTD/svg11.dtd">
<!-- Generated by graphviz version 2.43.0 (0)
 -->
<!-- Title: schedule_types.h Pages: 1 -->
<svg width="1162pt" height="868pt"
 viewBox="0.00 0.00 1161.50 868.00" xmlns="http://www.w3.org/2000/svg" xmlns:xlink="http://www.w3.org/1999/xlink">
<g id="graph0" class="graph" transform="scale(1 1) rotate(0) translate(4 864)">
<title>schedule_types.h</title>
<polygon fill="white" stroke="transparent" points="-4,4 -4,-864 1157.5,-864 1157.5,4 -4,4"/>
<!-- Node1 -->
<g id="node1" class="node">
<title>Node1</title>
<g id="a_node1"><a xlink:title=" ">
<polygon fill="#bfbfbf" stroke="black" points="872.5,-840.5 872.5,-859.5 973.5,-859.5 973.5,-840.5 872.5,-840.5"/>
<text text-anchor="middle" x="923" y="-847.5" font-family="Helvetica,sans-Serif" font-size="10.00">schedule_types.h</text>
</a>
</g>
</g>
<!-- Node2 -->
<g id="node2" class="node">
<title>Node2</title>
<g id="a_node2"><a xlink:href="schedule__types_8h.html" target="_top" xlink:title=" ">
<polygon fill="white" stroke="black" points="872.5,-784.5 872.5,-803.5 973.5,-803.5 973.5,-784.5 872.5,-784.5"/>
<text text-anchor="middle" x="923" y="-791.5" font-family="Helvetica,sans-Serif" font-size="10.00">schedule_types.h</text>
</a>
</g>
</g>
<!-- Node1&#45;&gt;Node2 -->
<g id="edge1" class="edge">
<title>Node1&#45;&gt;Node2</title>
<path fill="none" stroke="midnightblue" d="M923,-829.8C923,-820.91 923,-810.78 923,-803.75"/>
<polygon fill="midnightblue" stroke="midnightblue" points="919.5,-830.08 923,-840.08 926.5,-830.08 919.5,-830.08"/>
</g>
<!-- Node3 -->
<g id="node3" class="node">
<title>Node3</title>
<g id="a_node3"><a xlink:href="spec_2queue__types_8h.html" target="_top" xlink:title=" ">
<polygon fill="white" stroke="black" points="843,-728.5 843,-747.5 931,-747.5 931,-728.5 843,-728.5"/>
<text text-anchor="middle" x="887" y="-735.5" font-family="Helvetica,sans-Serif" font-size="10.00">queue_types.h</text>
</a>
</g>
</g>
<!-- Node2&#45;&gt;Node3 -->
<g id="edge2" class="edge">
<title>Node2&#45;&gt;Node3</title>
<path fill="none" stroke="midnightblue" d="M911.38,-775.57C905.18,-766.27 897.83,-755.25 892.83,-747.75"/>
<polygon fill="midnightblue" stroke="midnightblue" points="908.6,-777.7 917.06,-784.08 914.42,-773.82 908.6,-777.7"/>
</g>
<!-- Node45 -->
<g id="node45" class="node">
<title>Node45</title>
<g id="a_node45"><a xlink:href="spec_2schedule_8h.html" target="_top" xlink:title=" ">
<polygon fill="white" stroke="black" points="1084.5,-616.5 1084.5,-635.5 1153.5,-635.5 1153.5,-616.5 1084.5,-616.5"/>
<text text-anchor="middle" x="1119" y="-623.5" font-family="Helvetica,sans-Serif" font-size="10.00">schedule.h</text>
</a>
</g>
</g>
<!-- Node2&#45;&gt;Node45 -->
<g id="edge67" class="edge">
<title>Node2&#45;&gt;Node45</title>
<path fill="none" stroke="midnightblue" d="M940.95,-777.8C981.15,-743.75 1077.36,-662.27 1108.84,-635.61"/>
<polygon fill="midnightblue" stroke="midnightblue" points="938.63,-775.18 933.26,-784.31 943.15,-780.52 938.63,-775.18"/>
</g>
<!-- Node4 -->
<g id="node4" class="node">
<title>Node4</title>
<g id="a_node4"><a xlink:href="queue__types_8h.html" target="_top" xlink:title=" ">
<polygon fill="white" stroke="black" points="684,-672.5 684,-691.5 772,-691.5 772,-672.5 684,-672.5"/>
<text text-anchor="middle" x="728" y="-679.5" font-family="Helvetica,sans-Serif" font-size="10.00">queue_types.h</text>
</a>
</g>
</g>
<!-- Node3&#45;&gt;Node4 -->
<g id="edge3" class="edge">
<title>Node3&#45;&gt;Node4</title>
<path fill="none" stroke="midnightblue" d="M852.17,-725.17C822.23,-715 779.78,-700.59 753.08,-691.52"/>
<polygon fill="midnightblue" stroke="midnightblue" points="851.21,-728.54 861.81,-728.44 853.46,-721.91 851.21,-728.54"/>
</g>
<!-- Node5 -->
<g id="node5" class="node">
<title>Node5</title>
<g id="a_node5"><a xlink:href="spec_2comp_8h.html" target="_top" xlink:title=" ">
<polygon fill="white" stroke="black" points="974.5,-504.5 974.5,-523.5 1027.5,-523.5 1027.5,-504.5 974.5,-504.5"/>
<text text-anchor="middle" x="1001" y="-511.5" font-family="Helvetica,sans-Serif" font-size="10.00">comp.h</text>
</a>
</g>
</g>
<!-- Node4&#45;&gt;Node5 -->
<g id="edge4" class="edge">
<title>Node4&#45;&gt;Node5</title>
<path fill="none" stroke="midnightblue" d="M782.35,-676.34C819.37,-671.08 868.14,-659.86 905,-636 951.37,-605.98 985.28,-545.92 996.75,-523.61"/>
<polygon fill="midnightblue" stroke="midnightblue" points="781.7,-672.9 772.24,-677.68 782.62,-679.84 781.7,-672.9"/>
</g>
<!-- Node7 -->
<g id="node7" class="node">
<title>Node7</title>
<g id="a_node7"><a xlink:href="spec_2dma__types_8h.html" target="_top" xlink:title=" ">
<polygon fill="white" stroke="black" points="510,-504.5 510,-523.5 590,-523.5 590,-504.5 510,-504.5"/>
<text text-anchor="middle" x="550" y="-511.5" font-family="Helvetica,sans-Serif" font-size="10.00">dma_types.h</text>
</a>
</g>
</g>
<!-- Node4&#45;&gt;Node7 -->
<g id="edge6" class="edge">
<title>Node4&#45;&gt;Node7</title>
<path fill="none" stroke="midnightblue" d="M673.46,-674.82C626.03,-668.19 562.51,-655.84 547,-636 520.6,-602.23 538.18,-545.44 546.41,-523.77"/>
<polygon fill="midnightblue" stroke="midnightblue" points="673.24,-678.32 683.62,-676.19 674.18,-671.38 673.24,-678.32"/>
</g>
<!-- Node19 -->
<g id="node19" class="node">
<title>Node19</title>
<g id="a_node19"><a xlink:href="spec_2packet__io_8h.html" target="_top" xlink:title=" ">
<polygon fill="white" stroke="black" points="334,-56.5 334,-75.5 406,-75.5 406,-56.5 334,-56.5"/>
<text text-anchor="middle" x="370" y="-63.5" font-family="Helvetica,sans-Serif" font-size="10.00">packet_io.h</text>
</a>
</g>
</g>
<!-- Node4&#45;&gt;Node19 -->
<g id="edge40" class="edge">
<title>Node4&#45;&gt;Node19</title>
<path fill="none" stroke="midnightblue" d="M782.34,-674.19C875.55,-660.97 1056,-628.02 1056,-571 1056,-571 1056,-571 1056,-177 1056,-110.58 548.22,-77.03 406.4,-68.95"/>
<polygon fill="midnightblue" stroke="midnightblue" points="781.66,-670.75 772.24,-675.59 782.62,-677.68 781.66,-670.75"/>
</g>
<!-- Node25 -->
<g id="node25" class="node">
<title>Node25</title>
<g id="a_node25"><a xlink:href="spec_2packet__io__types_8h.html" target="_top" xlink:title=" ">
<polygon fill="white" stroke="black" points="102,-280.5 102,-299.5 206,-299.5 206,-280.5 102,-280.5"/>
<text text-anchor="middle" x="154" y="-287.5" font-family="Helvetica,sans-Serif" font-size="10.00">packet_io_types.h</text>
</a>
</g>
</g>
<!-- Node4&#45;&gt;Node25 -->
<g id="edge45" class="edge">
<title>Node4&#45;&gt;Node25</title>
<path fill="none" stroke="midnightblue" d="M673.76,-680.5C560.8,-678.75 304.25,-670.94 225,-636 185.85,-618.74 154,-613.78 154,-571 154,-571 154,-571 154,-401 154,-363.19 154,-318.06 154,-299.56"/>
<polygon fill="midnightblue" stroke="midnightblue" points="673.86,-684 683.91,-680.64 673.96,-677 673.86,-684"/>
</g>
<!-- Node32 -->
<g id="node32" class="node">
<title>Node32</title>
<g id="a_node32"><a xlink:href="spec_2timer_8h.html" target="_top" xlink:title=" ">
<polygon fill="white" stroke="black" points="614.5,-280.5 614.5,-299.5 665.5,-299.5 665.5,-280.5 614.5,-280.5"/>
<text text-anchor="middle" x="640" y="-287.5" font-family="Helvetica,sans-Serif" font-size="10.00">timer.h</text>
</a>
</g>
</g>
<!-- Node4&#45;&gt;Node32 -->
<g id="edge64" class="edge">
<title>Node4&#45;&gt;Node32</title>
<path fill="none" stroke="midnightblue" d="M698.17,-667.65C684.46,-660.14 669.04,-649.53 659,-636 641.06,-611.83 640,-601.1 640,-571 640,-571 640,-571 640,-401 640,-363.19 640,-318.06 640,-299.56"/>
<polygon fill="midnightblue" stroke="midnightblue" points="696.81,-670.88 707.3,-672.35 700.02,-664.66 696.81,-670.88"/>
</g>
<!-- Node34 -->
<g id="node34" class="node">
<title>Node34</title>
<g id="a_node34"><a xlink:href="spec_2packet__io__stats_8h.html" target="_top" xlink:title=" ">
<polygon fill="white" stroke="black" points="230.5,-392.5 230.5,-411.5 331.5,-411.5 331.5,-392.5 230.5,-392.5"/>
<text text-anchor="middle" x="281" y="-399.5" font-family="Helvetica,sans-Serif" font-size="10.00">packet_io_stats.h</text>
</a>
</g>
</g>
<!-- Node4&#45;&gt;Node34 -->
<g id="edge41" class="edge">
<title>Node4&#45;&gt;Node34</title>
<path fill="none" stroke="midnightblue" d="M673.45,-681.24C537.05,-680.38 192,-668.56 192,-571 192,-571 192,-571 192,-513 192,-466.08 241.54,-427.94 266.7,-411.6"/>
<polygon fill="midnightblue" stroke="midnightblue" points="673.67,-684.74 683.68,-681.29 673.7,-677.74 673.67,-684.74"/>
</g>
<!-- Node36 -->
<g id="node36" class="node">
<title>Node36</title>
<g id="a_node36"><a xlink:href="spec_2packet__types_8h.html" target="_top" xlink:title=" ">
<polygon fill="white" stroke="black" points="806,-616.5 806,-635.5 896,-635.5 896,-616.5 806,-616.5"/>
<text text-anchor="middle" x="851" y="-623.5" font-family="Helvetica,sans-Serif" font-size="10.00">packet_types.h</text>
</a>
</g>
</g>
<!-- Node4&#45;&gt;Node36 -->
<g id="edge46" class="edge">
<title>Node4&#45;&gt;Node36</title>
<path fill="none" stroke="midnightblue" d="M756.77,-668.37C779.81,-658.26 811.48,-644.35 831.6,-635.52"/>
<polygon fill="midnightblue" stroke="midnightblue" points="755.24,-665.22 747.49,-672.44 758.05,-671.63 755.24,-665.22"/>
</g>
<!-- Node43 -->
<g id="node43" class="node">
<title>Node43</title>
<g id="a_node43"><a xlink:href="spec_2queue_8h.html" target="_top" xlink:title=" ">
<polygon fill="white" stroke="black" points="556,-616.5 556,-635.5 612,-635.5 612,-616.5 556,-616.5"/>
<text text-anchor="middle" x="584" y="-623.5" font-family="Helvetica,sans-Serif" font-size="10.00">queue.h</text>
</a>
</g>
</g>
<!-- Node4&#45;&gt;Node43 -->
<g id="edge60" class="edge">
<title>Node4&#45;&gt;Node43</title>
<path fill="none" stroke="midnightblue" d="M695.75,-668.91C668.68,-658.75 630.68,-644.51 606.71,-635.52"/>
<polygon fill="midnightblue" stroke="midnightblue" points="694.59,-672.21 705.18,-672.44 697.05,-665.66 694.59,-672.21"/>
</g>
<!-- Node4&#45;&gt;Node45 -->
<g id="edge62" class="edge">
<title>Node4&#45;&gt;Node45</title>
<path fill="none" stroke="midnightblue" d="M782.09,-674.74C849.61,-666.74 968.58,-651.98 1070,-636 1074.61,-635.27 1079.46,-634.45 1084.24,-633.61"/>
<polygon fill="midnightblue" stroke="midnightblue" points="781.62,-671.27 772.1,-675.92 782.44,-678.23 781.62,-671.27"/>
</g>
<!-- Node47 -->
<g id="node47" class="node">
<title>Node47</title>
<g id="a_node47"><a xlink:href="queue__inline__types_8h_source.html" target="_top" xlink:title=" ">
<polygon fill="white" stroke="black" points="668,-616.5 668,-635.5 788,-635.5 788,-616.5 668,-616.5"/>
<text text-anchor="middle" x="728" y="-623.5" font-family="Helvetica,sans-Serif" font-size="10.00">queue_inline_types.h</text>
</a>
</g>
</g>
<!-- Node4&#45;&gt;Node47 -->
<g id="edge65" class="edge">
<title>Node4&#45;&gt;Node47</title>
<path fill="none" stroke="midnightblue" d="M728,-661.8C728,-652.91 728,-642.78 728,-635.75"/>
<polygon fill="midnightblue" stroke="midnightblue" points="724.5,-662.08 728,-672.08 731.5,-662.08 724.5,-662.08"/>
</g>
<!-- Node6 -->
<g id="node6" class="node">
<title>Node6</title>
<g id="a_node6"><a xlink:href="comp_8h.html" target="_top" xlink:title=" ">
<polygon fill="white" stroke="black" points="974.5,-448.5 974.5,-467.5 1027.5,-467.5 1027.5,-448.5 974.5,-448.5"/>
<text text-anchor="middle" x="1001" y="-455.5" font-family="Helvetica,sans-Serif" font-size="10.00">comp.h</text>
</a>
</g>
</g>
<!-- Node5&#45;&gt;Node6 -->
<g id="edge5" class="edge">
<title>Node5&#45;&gt;Node6</title>
<path fill="none" stroke="midnightblue" d="M1001,-493.8C1001,-484.91 1001,-474.78 1001,-467.75"/>
<polygon fill="midnightblue" stroke="midnightblue" points="997.5,-494.08 1001,-504.08 1004.5,-494.08 997.5,-494.08"/>
</g>
<!-- Node8 -->
<g id="node8" class="node">
<title>Node8</title>
<g id="a_node8"><a xlink:href="dma__types_8h.html" target="_top" xlink:title=" ">
<polygon fill="white" stroke="black" points="510,-448.5 510,-467.5 590,-467.5 590,-448.5 510,-448.5"/>
<text text-anchor="middle" x="550" y="-455.5" font-family="Helvetica,sans-Serif" font-size="10.00">dma_types.h</text>
</a>
</g>
</g>
<!-- Node7&#45;&gt;Node8 -->
<g id="edge7" class="edge">
<title>Node7&#45;&gt;Node8</title>
<path fill="none" stroke="midnightblue" d="M550,-493.8C550,-484.91 550,-474.78 550,-467.75"/>
<polygon fill="midnightblue" stroke="midnightblue" points="546.5,-494.08 550,-504.08 553.5,-494.08 546.5,-494.08"/>
</g>
<!-- Node9 -->
<g id="node9" class="node">
<title>Node9</title>
<g id="a_node9"><a xlink:href="spec_2dma_8h.html" target="_top" xlink:title=" ">
<polygon fill="white" stroke="black" points="549.5,-280.5 549.5,-299.5 596.5,-299.5 596.5,-280.5 549.5,-280.5"/>
<text text-anchor="middle" x="573" y="-287.5" font-family="Helvetica,sans-Serif" font-size="10.00">dma.h</text>
</a>
</g>
</g>
<!-- Node8&#45;&gt;Node9 -->
<g id="edge8" class="edge">
<title>Node8&#45;&gt;Node9</title>
<path fill="none" stroke="midnightblue" d="M552.64,-437.93C557.63,-401.92 568.26,-325.23 571.81,-299.57"/>
<polygon fill="midnightblue" stroke="midnightblue" points="549.14,-437.69 551.24,-448.08 556.08,-438.65 549.14,-437.69"/>
</g>
<!-- Node11 -->
<g id="node11" class="node">
<title>Node11</title>
<g id="a_node11"><a xlink:href="spec_2pool__types_8h.html" target="_top" xlink:title=" ">
<polygon fill="white" stroke="black" points="435.5,-392.5 435.5,-411.5 514.5,-411.5 514.5,-392.5 435.5,-392.5"/>
<text text-anchor="middle" x="475" y="-399.5" font-family="Helvetica,sans-Serif" font-size="10.00">pool_types.h</text>
</a>
</g>
</g>
<!-- Node8&#45;&gt;Node11 -->
<g id="edge10" class="edge">
<title>Node8&#45;&gt;Node11</title>
<path fill="none" stroke="midnightblue" d="M529.69,-442.38C516.14,-432.62 498.76,-420.11 487.27,-411.83"/>
<polygon fill="midnightblue" stroke="midnightblue" points="527.79,-445.32 537.95,-448.32 531.88,-439.64 527.79,-445.32"/>
</g>
<!-- Node10 -->
<g id="node10" class="node">
<title>Node10</title>
<g id="a_node10"><a xlink:href="dma_8h.html" target="_top" xlink:title=" ">
<polygon fill="white" stroke="black" points="549.5,-224.5 549.5,-243.5 596.5,-243.5 596.5,-224.5 549.5,-224.5"/>
<text text-anchor="middle" x="573" y="-231.5" font-family="Helvetica,sans-Serif" font-size="10.00">dma.h</text>
</a>
</g>
</g>
<!-- Node9&#45;&gt;Node10 -->
<g id="edge9" class="edge">
<title>Node9&#45;&gt;Node10</title>
<path fill="none" stroke="midnightblue" d="M573,-269.8C573,-260.91 573,-250.78 573,-243.75"/>
<polygon fill="midnightblue" stroke="midnightblue" points="569.5,-270.08 573,-280.08 576.5,-270.08 569.5,-270.08"/>
</g>
<!-- Node12 -->
<g id="node12" class="node">
<title>Node12</title>
<g id="a_node12"><a xlink:href="pool__types_8h.html" target="_top" xlink:title=" ">
<polygon fill="white" stroke="black" points="416.5,-336.5 416.5,-355.5 495.5,-355.5 495.5,-336.5 416.5,-336.5"/>
<text text-anchor="middle" x="456" y="-343.5" font-family="Helvetica,sans-Serif" font-size="10.00">pool_types.h</text>
</a>
</g>
</g>
<!-- Node11&#45;&gt;Node12 -->
<g id="edge11" class="edge">
<title>Node11&#45;&gt;Node12</title>
<path fill="none" stroke="midnightblue" d="M468.45,-382.4C465.28,-373.36 461.61,-362.94 459.08,-355.75"/>
<polygon fill="midnightblue" stroke="midnightblue" points="465.24,-383.81 471.86,-392.08 471.85,-381.49 465.24,-383.81"/>
</g>
<!-- Node12&#45;&gt;Node9 -->
<g id="edge23" class="edge">
<title>Node12&#45;&gt;Node9</title>
<path fill="none" stroke="midnightblue" d="M483.66,-332.23C505.55,-322.13 535.5,-308.31 554.55,-299.52"/>
<polygon fill="midnightblue" stroke="midnightblue" points="482.15,-329.08 474.54,-336.44 485.09,-335.43 482.15,-329.08"/>
</g>
<!-- Node13 -->
<g id="node13" class="node">
<title>Node13</title>
<g id="a_node13"><a xlink:href="spec_2buffer_8h.html" target="_top" xlink:title=" ">
<polygon fill="white" stroke="black" points="374.5,-280.5 374.5,-299.5 427.5,-299.5 427.5,-280.5 374.5,-280.5"/>
<text text-anchor="middle" x="401" y="-287.5" font-family="Helvetica,sans-Serif" font-size="10.00">buffer.h</text>
</a>
</g>
</g>
<!-- Node12&#45;&gt;Node13 -->
<g id="edge12" class="edge">
<title>Node12&#45;&gt;Node13</title>
<path fill="none" stroke="midnightblue" d="M439.71,-329C429.96,-319.43 417.95,-307.64 409.91,-299.75"/>
<polygon fill="midnightblue" stroke="midnightblue" points="437.33,-331.57 446.92,-336.08 442.23,-326.58 437.33,-331.57"/>
</g>
<!-- Node15 -->
<g id="node15" class="node">
<title>Node15</title>
<g id="a_node15"><a xlink:href="spec_2classification_8h.html" target="_top" xlink:title=" ">
<polygon fill="white" stroke="black" points="252.5,-168.5 252.5,-187.5 341.5,-187.5 341.5,-168.5 252.5,-168.5"/>
<text text-anchor="middle" x="297" y="-175.5" font-family="Helvetica,sans-Serif" font-size="10.00">classification.h</text>
</a>
</g>
</g>
<!-- Node12&#45;&gt;Node15 -->
<g id="edge14" class="edge">
<title>Node12&#45;&gt;Node15</title>
<path fill="none" stroke="midnightblue" d="M419.15,-332.68C401.23,-325.32 380.32,-314.53 365,-300 329.34,-266.17 307.33,-209.42 299.86,-187.76"/>
<polygon fill="midnightblue" stroke="midnightblue" points="418.15,-336.05 428.74,-336.42 420.69,-329.53 418.15,-336.05"/>
</g>
<!-- Node21 -->
<g id="node21" class="node">
<title>Node21</title>
<g id="a_node21"><a xlink:href="spec_2crypto_8h.html" target="_top" xlink:title=" ">
<polygon fill="white" stroke="black" points="262,-280.5 262,-299.5 318,-299.5 318,-280.5 262,-280.5"/>
<text text-anchor="middle" x="290" y="-287.5" font-family="Helvetica,sans-Serif" font-size="10.00">crypto.h</text>
</a>
</g>
</g>
<!-- Node12&#45;&gt;Node21 -->
<g id="edge20" class="edge">
<title>Node12&#45;&gt;Node21</title>
<path fill="none" stroke="midnightblue" d="M420.05,-333.3C388.77,-323.13 344.18,-308.62 316.18,-299.52"/>
<polygon fill="midnightblue" stroke="midnightblue" points="419.1,-336.68 429.7,-336.44 421.27,-330.02 419.1,-336.68"/>
</g>
<!-- Node23 -->
<g id="node23" class="node">
<title>Node23</title>
<g id="a_node23"><a xlink:href="spec_2packet_8h.html" target="_top" xlink:title=" ">
<polygon fill="white" stroke="black" points="427,-168.5 427,-187.5 485,-187.5 485,-168.5 427,-168.5"/>
<text text-anchor="middle" x="456" y="-175.5" font-family="Helvetica,sans-Serif" font-size="10.00">packet.h</text>
</a>
</g>
</g>
<!-- Node12&#45;&gt;Node23 -->
<g id="edge24" class="edge">
<title>Node12&#45;&gt;Node23</title>
<path fill="none" stroke="midnightblue" d="M456,-325.93C456,-289.92 456,-213.23 456,-187.57"/>
<polygon fill="midnightblue" stroke="midnightblue" points="452.5,-326.08 456,-336.08 459.5,-326.08 452.5,-326.08"/>
</g>
<!-- Node12&#45;&gt;Node25 -->
<g id="edge26" class="edge">
<title>Node12&#45;&gt;Node25</title>
<path fill="none" stroke="midnightblue" d="M406.04,-336.07C349.29,-325.92 257.35,-309.48 201.6,-299.51"/>
<polygon fill="midnightblue" stroke="midnightblue" points="405.75,-339.57 416.21,-337.88 406.98,-332.68 405.75,-339.57"/>
</g>
<!-- Node29 -->
<g id="node29" class="node">
<title>Node29</title>
<g id="a_node29"><a xlink:href="spec_2pool_8h.html" target="_top" xlink:title=" ">
<polygon fill="white" stroke="black" points="484.5,-280.5 484.5,-299.5 531.5,-299.5 531.5,-280.5 484.5,-280.5"/>
<text text-anchor="middle" x="508" y="-287.5" font-family="Helvetica,sans-Serif" font-size="10.00">pool.h</text>
</a>
</g>
</g>
<!-- Node12&#45;&gt;Node29 -->
<g id="edge35" class="edge">
<title>Node12&#45;&gt;Node29</title>
<path fill="none" stroke="midnightblue" d="M471.68,-328.72C480.84,-319.2 492.05,-307.56 499.57,-299.75"/>
<polygon fill="midnightblue" stroke="midnightblue" points="469,-326.45 464.59,-336.08 474.04,-331.31 469,-326.45"/>
</g>
<!-- Node12&#45;&gt;Node32 -->
<g id="edge38" class="edge">
<title>Node12&#45;&gt;Node32</title>
<path fill="none" stroke="midnightblue" d="M494.83,-333.61C530.77,-323.06 583.21,-307.67 614.25,-298.56"/>
<polygon fill="midnightblue" stroke="midnightblue" points="493.77,-330.27 485.16,-336.44 495.74,-336.99 493.77,-330.27"/>
</g>
<!-- Node14 -->
<g id="node14" class="node">
<title>Node14</title>
<g id="a_node14"><a xlink:href="buffer_8h.html" target="_top" xlink:title=" ">
<polygon fill="white" stroke="black" points="374.5,-224.5 374.5,-243.5 427.5,-243.5 427.5,-224.5 374.5,-224.5"/>
<text text-anchor="middle" x="401" y="-231.5" font-family="Helvetica,sans-Serif" font-size="10.00">buffer.h</text>
</a>
</g>
</g>
<!-- Node13&#45;&gt;Node14 -->
<g id="edge13" class="edge">
<title>Node13&#45;&gt;Node14</title>
<path fill="none" stroke="midnightblue" d="M401,-269.8C401,-260.91 401,-250.78 401,-243.75"/>
<polygon fill="midnightblue" stroke="midnightblue" points="397.5,-270.08 401,-280.08 404.5,-270.08 397.5,-270.08"/>
</g>
<!-- Node16 -->
<g id="node16" class="node">
<title>Node16</title>
<g id="a_node16"><a xlink:href="classification_8h.html" target="_top" xlink:title=" ">
<polygon fill="white" stroke="black" points="252.5,-112.5 252.5,-131.5 341.5,-131.5 341.5,-112.5 252.5,-112.5"/>
<text text-anchor="middle" x="297" y="-119.5" font-family="Helvetica,sans-Serif" font-size="10.00">classification.h</text>
</a>
</g>
</g>
<!-- Node15&#45;&gt;Node16 -->
<g id="edge15" class="edge">
<title>Node15&#45;&gt;Node16</title>
<path fill="none" stroke="midnightblue" d="M297,-157.8C297,-148.91 297,-138.78 297,-131.75"/>
<polygon fill="midnightblue" stroke="midnightblue" points="293.5,-158.08 297,-168.08 300.5,-158.08 293.5,-158.08"/>
</g>
<!-- Node17 -->
<g id="node17" class="node">
<title>Node17</title>
<g id="a_node17"><a xlink:href="spec_2ipsec_8h.html" target="_top" xlink:title=" ">
<polygon fill="white" stroke="black" points="93.5,-56.5 93.5,-75.5 144.5,-75.5 144.5,-56.5 93.5,-56.5"/>
<text text-anchor="middle" x="119" y="-63.5" font-family="Helvetica,sans-Serif" font-size="10.00">ipsec.h</text>
</a>
</g>
</g>
<!-- Node16&#45;&gt;Node17 -->
<g id="edge16" class="edge">
<title>Node16&#45;&gt;Node17</title>
<path fill="none" stroke="midnightblue" d="M259.08,-109.5C224.64,-99.05 174.78,-83.92 144.76,-74.82"/>
<polygon fill="midnightblue" stroke="midnightblue" points="258.21,-112.89 268.8,-112.44 260.24,-106.19 258.21,-112.89"/>
</g>
<!-- Node16&#45;&gt;Node19 -->
<g id="edge18" class="edge">
<title>Node16&#45;&gt;Node19</title>
<path fill="none" stroke="midnightblue" d="M317.14,-106.1C330.28,-96.38 346.98,-84.03 358.06,-75.83"/>
<polygon fill="midnightblue" stroke="midnightblue" points="314.69,-103.56 308.73,-112.32 318.85,-109.19 314.69,-103.56"/>
</g>
<!-- Node18 -->
<g id="node18" class="node">
<title>Node18</title>
<g id="a_node18"><a xlink:href="ipsec_8h.html" target="_top" xlink:title=" ">
<polygon fill="white" stroke="black" points="93.5,-0.5 93.5,-19.5 144.5,-19.5 144.5,-0.5 93.5,-0.5"/>
<text text-anchor="middle" x="119" y="-7.5" font-family="Helvetica,sans-Serif" font-size="10.00">ipsec.h</text>
</a>
</g>
</g>
<!-- Node17&#45;&gt;Node18 -->
<g id="edge17" class="edge">
<title>Node17&#45;&gt;Node18</title>
<path fill="none" stroke="midnightblue" d="M119,-45.8C119,-36.91 119,-26.78 119,-19.75"/>
<polygon fill="midnightblue" stroke="midnightblue" points="115.5,-46.08 119,-56.08 122.5,-46.08 115.5,-46.08"/>
</g>
<!-- Node20 -->
<g id="node20" class="node">
<title>Node20</title>
<g id="a_node20"><a xlink:href="packet__io_8h.html" target="_top" xlink:title=" ">
<polygon fill="white" stroke="black" points="334,-0.5 334,-19.5 406,-19.5 406,-0.5 334,-0.5"/>
<text text-anchor="middle" x="370" y="-7.5" font-family="Helvetica,sans-Serif" font-size="10.00">packet_io.h</text>
</a>
</g>
</g>
<!-- Node19&#45;&gt;Node20 -->
<g id="edge19" class="edge">
<title>Node19&#45;&gt;Node20</title>
<path fill="none" stroke="midnightblue" d="M370,-45.8C370,-36.91 370,-26.78 370,-19.75"/>
<polygon fill="midnightblue" stroke="midnightblue" points="366.5,-46.08 370,-56.08 373.5,-46.08 366.5,-46.08"/>
</g>
<!-- Node22 -->
<g id="node22" class="node">
<title>Node22</title>
<g id="a_node22"><a xlink:href="crypto_8h.html" target="_top" xlink:title=" ">
<polygon fill="white" stroke="black" points="0,-112.5 0,-131.5 56,-131.5 56,-112.5 0,-112.5"/>
<text text-anchor="middle" x="28" y="-119.5" font-family="Helvetica,sans-Serif" font-size="10.00">crypto.h</text>
</a>
</g>
</g>
<!-- Node21&#45;&gt;Node22 -->
<g id="edge21" class="edge">
<title>Node21&#45;&gt;Node22</title>
<path fill="none" stroke="midnightblue" d="M251.61,-284.14C218.41,-278.54 170.17,-266.99 134,-244 85.44,-213.14 46.4,-153.6 32.99,-131.51"/>
<polygon fill="midnightblue" stroke="midnightblue" points="251.41,-287.65 261.83,-285.75 252.5,-280.73 251.41,-287.65"/>
</g>
<!-- Node22&#45;&gt;Node17 -->
<g id="edge22" class="edge">
<title>Node22&#45;&gt;Node17</title>
<path fill="none" stroke="midnightblue" d="M51.29,-107.18C68.04,-97.24 90.1,-84.15 104.42,-75.65"/>
<polygon fill="midnightblue" stroke="midnightblue" points="49.43,-104.21 42.62,-112.32 53.01,-110.23 49.43,-104.21"/>
</g>
<!-- Node24 -->
<g id="node24" class="node">
<title>Node24</title>
<g id="a_node24"><a xlink:href="packet_8h.html" target="_top" xlink:title=" ">
<polygon fill="white" stroke="black" points="427,-112.5 427,-131.5 485,-131.5 485,-112.5 427,-112.5"/>
<text text-anchor="middle" x="456" y="-119.5" font-family="Helvetica,sans-Serif" font-size="10.00">packet.h</text>
</a>
</g>
</g>
<!-- Node23&#45;&gt;Node24 -->
<g id="edge25" class="edge">
<title>Node23&#45;&gt;Node24</title>
<path fill="none" stroke="midnightblue" d="M456,-157.8C456,-148.91 456,-138.78 456,-131.75"/>
<polygon fill="midnightblue" stroke="midnightblue" points="452.5,-158.08 456,-168.08 459.5,-158.08 452.5,-158.08"/>
</g>
<!-- Node26 -->
<g id="node26" class="node">
<title>Node26</title>
<g id="a_node26"><a xlink:href="packet__io__types_8h.html" target="_top" xlink:title=" ">
<polygon fill="white" stroke="black" points="143,-224.5 143,-243.5 247,-243.5 247,-224.5 143,-224.5"/>
<text text-anchor="middle" x="195" y="-231.5" font-family="Helvetica,sans-Serif" font-size="10.00">packet_io_types.h</text>
</a>
</g>
</g>
<!-- Node25&#45;&gt;Node26 -->
<g id="edge27" class="edge">
<title>Node25&#45;&gt;Node26</title>
<path fill="none" stroke="midnightblue" d="M167.02,-271.86C174.12,-262.5 182.6,-251.33 188.36,-243.75"/>
<polygon fill="midnightblue" stroke="midnightblue" points="164.03,-270 160.77,-280.08 169.61,-274.24 164.03,-270"/>
</g>
<!-- Node26&#45;&gt;Node15 -->
<g id="edge28" class="edge">
<title>Node26&#45;&gt;Node15</title>
<path fill="none" stroke="midnightblue" d="M220.33,-219.59C239.19,-209.61 264.38,-196.27 280.65,-187.65"/>
<polygon fill="midnightblue" stroke="midnightblue" points="218.59,-216.55 211.39,-224.32 221.86,-222.74 218.59,-216.55"/>
</g>
<!-- Node26&#45;&gt;Node17 -->
<g id="edge29" class="edge">
<title>Node26&#45;&gt;Node17</title>
<path fill="none" stroke="midnightblue" d="M146.4,-220.77C129.7,-213.99 112.76,-203.64 103,-188 80.23,-151.51 103.63,-96.81 114.3,-75.72"/>
<polygon fill="midnightblue" stroke="midnightblue" points="145.56,-224.19 156.15,-224.36 147.98,-217.62 145.56,-224.19"/>
</g>
<!-- Node26&#45;&gt;Node19 -->
<g id="edge31" class="edge">
<title>Node26&#45;&gt;Node19</title>
<path fill="none" stroke="midnightblue" d="M200.26,-214.58C209.18,-184.49 227.78,-126.66 243,-112 267.68,-88.22 305.7,-76.92 333.72,-71.61"/>
<polygon fill="midnightblue" stroke="midnightblue" points="196.87,-213.7 197.44,-224.28 203.59,-215.66 196.87,-213.7"/>
</g>
<!-- Node26&#45;&gt;Node23 -->
<g id="edge30" class="edge">
<title>Node26&#45;&gt;Node23</title>
<path fill="none" stroke="midnightblue" d="M246.41,-222.36C300.4,-211.19 383.37,-194.03 426.96,-185.01"/>
<polygon fill="midnightblue" stroke="midnightblue" points="245.44,-218.99 236.36,-224.44 246.86,-225.84 245.44,-218.99"/>
</g>
<!-- Node27 -->
<g id="node27" class="node">
<title>Node27</title>
<g id="a_node27"><a xlink:href="spec_2traffic__mngr_8h.html" target="_top" xlink:title=" ">
<polygon fill="white" stroke="black" points="112,-168.5 112,-187.5 196,-187.5 196,-168.5 112,-168.5"/>
<text text-anchor="middle" x="154" y="-175.5" font-family="Helvetica,sans-Serif" font-size="10.00">traffic_mngr.h</text>
</a>
</g>
</g>
<!-- Node26&#45;&gt;Node27 -->
<g id="edge32" class="edge">
<title>Node26&#45;&gt;Node27</title>
<path fill="none" stroke="midnightblue" d="M181.98,-215.86C174.88,-206.5 166.4,-195.33 160.64,-187.75"/>
<polygon fill="midnightblue" stroke="midnightblue" points="179.39,-218.24 188.23,-224.08 184.97,-214 179.39,-218.24"/>
</g>
<!-- Node28 -->
<g id="node28" class="node">
<title>Node28</title>
<g id="a_node28"><a xlink:href="traffic__mngr_8h.html" target="_top" xlink:title=" ">
<polygon fill="white" stroke="black" points="112,-112.5 112,-131.5 196,-131.5 196,-112.5 112,-112.5"/>
<text text-anchor="middle" x="154" y="-119.5" font-family="Helvetica,sans-Serif" font-size="10.00">traffic_mngr.h</text>
</a>
</g>
</g>
<!-- Node27&#45;&gt;Node28 -->
<g id="edge33" class="edge">
<title>Node27&#45;&gt;Node28</title>
<path fill="none" stroke="midnightblue" d="M154,-157.8C154,-148.91 154,-138.78 154,-131.75"/>
<polygon fill="midnightblue" stroke="midnightblue" points="150.5,-158.08 154,-168.08 157.5,-158.08 150.5,-158.08"/>
</g>
<!-- Node28&#45;&gt;Node17 -->
<g id="edge34" class="edge">
<title>Node28&#45;&gt;Node17</title>
<path fill="none" stroke="midnightblue" d="M142.7,-103.57C136.68,-94.27 129.53,-83.25 124.67,-75.75"/>
<polygon fill="midnightblue" stroke="midnightblue" points="139.84,-105.6 148.22,-112.08 145.72,-101.79 139.84,-105.6"/>
</g>
<!-- Node30 -->
<g id="node30" class="node">
<title>Node30</title>
<g id="a_node30"><a xlink:href="pool_8h.html" target="_top" xlink:title=" ">
<polygon fill="white" stroke="black" points="484.5,-224.5 484.5,-243.5 531.5,-243.5 531.5,-224.5 484.5,-224.5"/>
<text text-anchor="middle" x="508" y="-231.5" font-family="Helvetica,sans-Serif" font-size="10.00">pool.h</text>
</a>
</g>
</g>
<!-- Node29&#45;&gt;Node30 -->
<g id="edge36" class="edge">
<title>Node29&#45;&gt;Node30</title>
<path fill="none" stroke="midnightblue" d="M508,-269.8C508,-260.91 508,-250.78 508,-243.75"/>
<polygon fill="midnightblue" stroke="midnightblue" points="504.5,-270.08 508,-280.08 511.5,-270.08 504.5,-270.08"/>
</g>
<!-- Node31 -->
<g id="node31" class="node">
<title>Node31</title>
<g id="a_node31"><a xlink:href="packet__inlines_8h.html" target="_top" xlink:title=" ">
<polygon fill="white" stroke="black" points="594.5,-168.5 594.5,-187.5 689.5,-187.5 689.5,-168.5 594.5,-168.5"/>
<text text-anchor="middle" x="642" y="-175.5" font-family="Helvetica,sans-Serif" font-size="10.00">packet_inlines.h</text>
</a>
</g>
</g>
<!-- Node30&#45;&gt;Node31 -->
<g id="edge37" class="edge">
<title>Node30&#45;&gt;Node31</title>
<path fill="none" stroke="midnightblue" d="M538.68,-220.64C563.82,-210.5 598.75,-196.43 620.87,-187.52"/>
<polygon fill="midnightblue" stroke="midnightblue" points="537.2,-217.46 529.23,-224.44 539.82,-223.95 537.2,-217.46"/>
</g>
<!-- Node33 -->
<g id="node33" class="node">
<title>Node33</title>
<g id="a_node33"><a xlink:href="timer_8h.html" target="_top" xlink:title=" ">
<polygon fill="white" stroke="black" points="614.5,-224.5 614.5,-243.5 665.5,-243.5 665.5,-224.5 614.5,-224.5"/>
<text text-anchor="middle" x="640" y="-231.5" font-family="Helvetica,sans-Serif" font-size="10.00">timer.h</text>
</a>
</g>
</g>
<!-- Node32&#45;&gt;Node33 -->
<g id="edge39" class="edge">
<title>Node32&#45;&gt;Node33</title>
<path fill="none" stroke="midnightblue" d="M640,-269.8C640,-260.91 640,-250.78 640,-243.75"/>
<polygon fill="midnightblue" stroke="midnightblue" points="636.5,-270.08 640,-280.08 643.5,-270.08 636.5,-270.08"/>
</g>
<!-- Node35 -->
<g id="node35" class="node">
<title>Node35</title>
<g id="a_node35"><a xlink:href="packet__io__stats_8h.html" target="_top" xlink:title=" ">
<polygon fill="white" stroke="black" points="230.5,-336.5 230.5,-355.5 331.5,-355.5 331.5,-336.5 230.5,-336.5"/>
<text text-anchor="middle" x="281" y="-343.5" font-family="Helvetica,sans-Serif" font-size="10.00">packet_io_stats.h</text>
</a>
</g>
</g>
<!-- Node34&#45;&gt;Node35 -->
<g id="edge42" class="edge">
<title>Node34&#45;&gt;Node35</title>
<path fill="none" stroke="midnightblue" d="M281,-381.8C281,-372.91 281,-362.78 281,-355.75"/>
<polygon fill="midnightblue" stroke="midnightblue" points="277.5,-382.08 281,-392.08 284.5,-382.08 277.5,-382.08"/>
</g>
<!-- Node35&#45;&gt;Node19 -->
<g id="edge43" class="edge">
<title>Node35&#45;&gt;Node19</title>
<path fill="none" stroke="midnightblue" d="M266.01,-328.44C256.02,-315.31 245.92,-296.48 253,-280 276.46,-225.41 322.15,-240.49 350,-188 370.26,-149.82 370.96,-96.11 370.39,-75.5"/>
<polygon fill="midnightblue" stroke="midnightblue" points="263.32,-330.68 272.38,-336.17 268.72,-326.23 263.32,-330.68"/>
</g>
<!-- Node35&#45;&gt;Node25 -->
<g id="edge44" class="edge">
<title>Node35&#45;&gt;Node25</title>
<path fill="none" stroke="midnightblue" d="M251.61,-332.5C227.8,-322.38 194.89,-308.39 174.03,-299.52"/>
<polygon fill="midnightblue" stroke="midnightblue" points="250.3,-335.75 260.88,-336.44 253.04,-329.31 250.3,-335.75"/>
</g>
<!-- Node37 -->
<g id="node37" class="node">
<title>Node37</title>
<g id="a_node37"><a xlink:href="packet__types_8h.html" target="_top" xlink:title=" ">
<polygon fill="white" stroke="black" points="780,-560.5 780,-579.5 870,-579.5 870,-560.5 780,-560.5"/>
<text text-anchor="middle" x="825" y="-567.5" font-family="Helvetica,sans-Serif" font-size="10.00">packet_types.h</text>
</a>
</g>
</g>
<!-- Node36&#45;&gt;Node37 -->
<g id="edge47" class="edge">
<title>Node36&#45;&gt;Node37</title>
<path fill="none" stroke="midnightblue" d="M842.33,-606.98C837.91,-597.82 832.75,-587.09 829.21,-579.75"/>
<polygon fill="midnightblue" stroke="midnightblue" points="839.21,-608.59 846.71,-616.08 845.52,-605.55 839.21,-608.59"/>
</g>
<!-- Node37&#45;&gt;Node5 -->
<g id="edge48" class="edge">
<title>Node37&#45;&gt;Node5</title>
<path fill="none" stroke="midnightblue" d="M862.81,-557.4C896.42,-547.09 944.7,-532.27 974.39,-523.16"/>
<polygon fill="midnightblue" stroke="midnightblue" points="861.42,-554.16 852.89,-560.44 863.47,-560.86 861.42,-554.16"/>
</g>
<!-- Node37&#45;&gt;Node7 -->
<g id="edge50" class="edge">
<title>Node37&#45;&gt;Node7</title>
<path fill="none" stroke="midnightblue" d="M771.51,-558.5C718.4,-548.07 638.17,-532.31 590.24,-522.9"/>
<polygon fill="midnightblue" stroke="midnightblue" points="770.94,-561.95 781.43,-560.44 772.29,-555.08 770.94,-561.95"/>
</g>
<!-- Node37&#45;&gt;Node19 -->
<g id="edge57" class="edge">
<title>Node37&#45;&gt;Node19</title>
<path fill="none" stroke="midnightblue" d="M873.25,-557.31C892.35,-550.47 913.03,-539.94 927,-524 946.84,-501.37 946,-489.1 946,-459 946,-459 946,-459 946,-177 946,-121.77 532.13,-81.13 406.03,-70.04"/>
<polygon fill="midnightblue" stroke="midnightblue" points="872.14,-554 863.75,-560.47 874.34,-560.64 872.14,-554"/>
</g>
<!-- Node37&#45;&gt;Node21 -->
<g id="edge49" class="edge">
<title>Node37&#45;&gt;Node21</title>
<path fill="none" stroke="midnightblue" d="M769.85,-560C662.82,-546.71 379,-546.06 379,-459 379,-459 379,-459 379,-401 379,-354.08 329.46,-315.94 304.3,-299.6"/>
<polygon fill="midnightblue" stroke="midnightblue" points="769.56,-563.5 779.94,-561.38 770.5,-556.56 769.56,-563.5"/>
</g>
<!-- Node37&#45;&gt;Node23 -->
<g id="edge54" class="edge">
<title>Node37&#45;&gt;Node23</title>
<path fill="none" stroke="midnightblue" d="M789.37,-556.7C750.58,-540.77 694,-508.96 694,-459 694,-459 694,-459 694,-289 694,-258.9 697.13,-244.4 675,-224 647.6,-198.75 538.11,-186.06 485.08,-181.3"/>
<polygon fill="midnightblue" stroke="midnightblue" points="788.22,-560 798.81,-560.41 790.78,-553.49 788.22,-560"/>
</g>
<!-- Node37&#45;&gt;Node25 -->
<g id="edge58" class="edge">
<title>Node37&#45;&gt;Node25</title>
<path fill="none" stroke="midnightblue" d="M769.83,-559.96C610.95,-540.25 562.6,-572.12 414,-524 319.65,-493.45 290.42,-482.83 221,-412 186.71,-377.02 164.53,-320.95 156.93,-299.62"/>
<polygon fill="midnightblue" stroke="midnightblue" points="769.59,-563.46 779.95,-561.27 770.48,-556.52 769.59,-563.46"/>
</g>
<!-- Node37&#45;&gt;Node31 -->
<g id="edge59" class="edge">
<title>Node37&#45;&gt;Node31</title>
<path fill="none" stroke="midnightblue" d="M793.65,-556.01C779.13,-548.56 762.76,-537.91 752,-524 733.51,-500.09 732,-489.23 732,-459 732,-459 732,-459 732,-289 732,-258.2 726.95,-248.27 708,-224 695.37,-207.82 675.28,-195.31 660.58,-187.63"/>
<polygon fill="midnightblue" stroke="midnightblue" points="792.31,-559.25 802.84,-560.43 795.35,-552.94 792.31,-559.25"/>
</g>
<!-- Node38 -->
<g id="node38" class="node">
<title>Node38</title>
<g id="a_node38"><a xlink:href="spec_2event_8h.html" target="_top" xlink:title=" ">
<polygon fill="white" stroke="black" points="760.5,-504.5 760.5,-523.5 813.5,-523.5 813.5,-504.5 760.5,-504.5"/>
<text text-anchor="middle" x="787" y="-511.5" font-family="Helvetica,sans-Serif" font-size="10.00">event.h</text>
</a>
</g>
</g>
<!-- Node37&#45;&gt;Node38 -->
<g id="edge51" class="edge">
<title>Node37&#45;&gt;Node38</title>
<path fill="none" stroke="midnightblue" d="M812.94,-551.86C806.36,-542.5 798.49,-531.33 793.16,-523.75"/>
<polygon fill="midnightblue" stroke="midnightblue" points="810.11,-553.92 818.73,-560.08 815.83,-549.89 810.11,-553.92"/>
</g>
<!-- Node41 -->
<g id="node41" class="node">
<title>Node41</title>
<g id="a_node41"><a xlink:href="spec_2packet__flags_8h.html" target="_top" xlink:title=" ">
<polygon fill="white" stroke="black" points="832,-504.5 832,-523.5 918,-523.5 918,-504.5 832,-504.5"/>
<text text-anchor="middle" x="875" y="-511.5" font-family="Helvetica,sans-Serif" font-size="10.00">packet_flags.h</text>
</a>
</g>
</g>
<!-- Node37&#45;&gt;Node41 -->
<g id="edge55" class="edge">
<title>Node37&#45;&gt;Node41</title>
<path fill="none" stroke="midnightblue" d="M840.08,-552.72C848.89,-543.2 859.67,-531.56 866.9,-523.75"/>
<polygon fill="midnightblue" stroke="midnightblue" points="837.48,-550.37 833.26,-560.08 842.62,-555.12 837.48,-550.37"/>
</g>
<!-- Node39 -->
<g id="node39" class="node">
<title>Node39</title>
<g id="a_node39"><a xlink:href="event_8h.html" target="_top" xlink:title=" ">
<polygon fill="white" stroke="black" points="760.5,-448.5 760.5,-467.5 813.5,-467.5 813.5,-448.5 760.5,-448.5"/>
<text text-anchor="middle" x="787" y="-455.5" font-family="Helvetica,sans-Serif" font-size="10.00">event.h</text>
</a>
</g>
</g>
<!-- Node38&#45;&gt;Node39 -->
<g id="edge52" class="edge">
<title>Node38&#45;&gt;Node39</title>
<path fill="none" stroke="midnightblue" d="M787,-493.8C787,-484.91 787,-474.78 787,-467.75"/>
<polygon fill="midnightblue" stroke="midnightblue" points="783.5,-494.08 787,-504.08 790.5,-494.08 783.5,-494.08"/>
</g>
<!-- Node40 -->
<g id="node40" class="node">
<title>Node40</title>
<g id="a_node40"><a xlink:href="timer__inlines_8h_source.html" target="_top" xlink:title=" ">
<polygon fill="white" stroke="black" points="760.5,-392.5 760.5,-411.5 849.5,-411.5 849.5,-392.5 760.5,-392.5"/>
<text text-anchor="middle" x="805" y="-399.5" font-family="Helvetica,sans-Serif" font-size="10.00">timer_inlines.h</text>
</a>
</g>
</g>
<!-- Node39&#45;&gt;Node40 -->
<g id="edge53" class="edge">
<title>Node39&#45;&gt;Node40</title>
<path fill="none" stroke="midnightblue" d="M793.2,-438.4C796.21,-429.36 799.69,-418.94 802.08,-411.75"/>
<polygon fill="midnightblue" stroke="midnightblue" points="789.81,-437.49 789.97,-448.08 796.46,-439.7 789.81,-437.49"/>
</g>
<!-- Node42 -->
<g id="node42" class="node">
<title>Node42</title>
<g id="a_node42"><a xlink:href="packet__flags_8h.html" target="_top" xlink:title=" ">
<polygon fill="white" stroke="black" points="832,-448.5 832,-467.5 918,-467.5 918,-448.5 832,-448.5"/>
<text text-anchor="middle" x="875" y="-455.5" font-family="Helvetica,sans-Serif" font-size="10.00">packet_flags.h</text>
</a>
</g>
</g>
<!-- Node41&#45;&gt;Node42 -->
<g id="edge56" class="edge">
<title>Node41&#45;&gt;Node42</title>
<path fill="none" stroke="midnightblue" d="M875,-493.8C875,-484.91 875,-474.78 875,-467.75"/>
<polygon fill="midnightblue" stroke="midnightblue" points="871.5,-494.08 875,-504.08 878.5,-494.08 871.5,-494.08"/>
</g>
<!-- Node44 -->
<g id="node44" class="node">
<title>Node44</title>
<g id="a_node44"><a xlink:href="queue_8h.html" target="_top" xlink:title=" ">
<polygon fill="white" stroke="black" points="556,-560.5 556,-579.5 612,-579.5 612,-560.5 556,-560.5"/>
<text text-anchor="middle" x="584" y="-567.5" font-family="Helvetica,sans-Serif" font-size="10.00">queue.h</text>
</a>
</g>
</g>
<!-- Node43&#45;&gt;Node44 -->
<g id="edge61" class="edge">
<title>Node43&#45;&gt;Node44</title>
<path fill="none" stroke="midnightblue" d="M584,-605.8C584,-596.91 584,-586.78 584,-579.75"/>
<polygon fill="midnightblue" stroke="midnightblue" points="580.5,-606.08 584,-616.08 587.5,-606.08 580.5,-606.08"/>
</g>
<!-- Node46 -->
<g id="node46" class="node">
<title>Node46</title>
<g id="a_node46"><a xlink:href="schedule_8h.html" target="_top" xlink:title=" ">
<polygon fill="white" stroke="black" points="1084.5,-560.5 1084.5,-579.5 1153.5,-579.5 1153.5,-560.5 1084.5,-560.5"/>
<text text-anchor="middle" x="1119" y="-567.5" font-family="Helvetica,sans-Serif" font-size="10.00">schedule.h</text>
</a>
</g>
</g>
<!-- Node45&#45;&gt;Node46 -->
<g id="edge63" class="edge">
<title>Node45&#45;&gt;Node46</title>
<path fill="none" stroke="midnightblue" d="M1119,-605.8C1119,-596.91 1119,-586.78 1119,-579.75"/>
<polygon fill="midnightblue" stroke="midnightblue" points="1115.5,-606.08 1119,-616.08 1122.5,-606.08 1115.5,-606.08"/>
</g>
<!-- Node48 -->
<g id="node48" class="node">
<title>Node48</title>
<g id="a_node48"><a xlink:href="queue__inlines_8h_source.html" target="_top" xlink:title=" ">
<polygon fill="white" stroke="black" points="668.5,-560.5 668.5,-579.5 761.5,-579.5 761.5,-560.5 668.5,-560.5"/>
<text text-anchor="middle" x="715" y="-567.5" font-family="Helvetica,sans-Serif" font-size="10.00">queue_inlines.h</text>
</a>
</g>
</g>
<!-- Node47&#45;&gt;Node48 -->
<g id="edge66" class="edge">
<title>Node47&#45;&gt;Node48</title>
<path fill="none" stroke="midnightblue" d="M723.45,-606.1C721.29,-597.14 718.82,-586.86 717.11,-579.75"/>
<polygon fill="midnightblue" stroke="midnightblue" points="720.11,-607.18 725.85,-616.08 726.92,-605.54 720.11,-607.18"/>
</g>
</g>
</svg>
