<?xml version="1.0" encoding="UTF-8" standalone="no"?>
<!DOCTYPE svg PUBLIC "-//W3C//DTD SVG 1.1//EN"
 "http://www.w3.org/Graphics/SVG/1.1/DTD/svg11.dtd">
<!-- Generated by graphviz version 2.43.0 (0)
 -->
<!-- Title: comp.h Pages: 1 -->
<svg width="974pt" height="699pt"
 viewBox="0.00 0.00 974.00 699.00" xmlns="http://www.w3.org/2000/svg" xmlns:xlink="http://www.w3.org/1999/xlink">
<g id="graph0" class="graph" transform="scale(1 1) rotate(0) translate(4 695)">
<title>comp.h</title>
<polygon fill="white" stroke="transparent" points="-4,4 -4,-695 970,-695 970,4 -4,4"/>
<!-- Node1 -->
<g id="node1" class="node">
<title>Node1</title>
<g id="a_node1"><a xlink:title=" ">
<polygon fill="#bfbfbf" stroke="black" points="545.5,-671.5 545.5,-690.5 598.5,-690.5 598.5,-671.5 545.5,-671.5"/>
<text text-anchor="middle" x="572" y="-678.5" font-family="Helvetica,sans-Serif" font-size="10.00">comp.h</text>
</a>
</g>
</g>
<!-- Node2 -->
<g id="node2" class="node">
<title>Node2</title>
<g id="a_node2"><a xlink:title=" ">
<polygon fill="white" stroke="#bfbfbf" points="685.5,-0.5 685.5,-19.5 806.5,-19.5 806.5,-0.5 685.5,-0.5"/>
<text text-anchor="middle" x="746" y="-7.5" font-family="Helvetica,sans-Serif" font-size="10.00">odp/visibility_begin.h</text>
</a>
</g>
</g>
<!-- Node1&#45;&gt;Node2 -->
<g id="edge1" class="edge">
<title>Node1&#45;&gt;Node2</title>
<path fill="none" stroke="midnightblue" d="M598.77,-677.98C687.45,-670.58 966,-641.22 966,-564.5 966,-564.5 966,-564.5 966,-132 966,-62.69 881.14,-32.8 816.83,-20.1"/>
<polygon fill="midnightblue" stroke="midnightblue" points="817.17,-16.6 806.7,-18.21 815.88,-23.49 817.17,-16.6"/>
</g>
<!-- Node3 -->
<g id="node3" class="node">
<title>Node3</title>
<g id="a_node3"><a xlink:href="event__types_8h.html" target="_top" xlink:title=" ">
<polygon fill="white" stroke="black" points="84.5,-123.5 84.5,-142.5 209.5,-142.5 209.5,-123.5 84.5,-123.5"/>
<text text-anchor="middle" x="147" y="-130.5" font-family="Helvetica,sans-Serif" font-size="10.00">odp/api/event_types.h</text>
</a>
</g>
</g>
<!-- Node1&#45;&gt;Node3 -->
<g id="edge2" class="edge">
<title>Node1&#45;&gt;Node3</title>
<path fill="none" stroke="midnightblue" d="M545.22,-678.51C452.23,-672.6 149,-647 149,-564.5 149,-564.5 149,-564.5 149,-244 149,-211.94 148.14,-174.64 147.55,-152.75"/>
<polygon fill="midnightblue" stroke="midnightblue" points="151.04,-152.45 147.26,-142.56 144.04,-152.65 151.04,-152.45"/>
</g>
<!-- Node6 -->
<g id="node6" class="node">
<title>Node6</title>
<g id="a_node6"><a xlink:title=" ">
<polygon fill="white" stroke="#bfbfbf" points="262,-0.5 262,-19.5 374,-19.5 374,-0.5 262,-0.5"/>
<text text-anchor="middle" x="318" y="-7.5" font-family="Helvetica,sans-Serif" font-size="10.00">odp/visibility_end.h</text>
</a>
</g>
</g>
<!-- Node1&#45;&gt;Node6 -->
<g id="edge42" class="edge">
<title>Node1&#45;&gt;Node6</title>
<path fill="none" stroke="midnightblue" d="M545.18,-680.37C432.09,-681.25 0,-677.21 0,-564.5 0,-564.5 0,-564.5 0,-132 0,-91.81 15.43,-78.09 49,-56 81.5,-34.62 183.1,-22.15 251.71,-15.95"/>
<polygon fill="midnightblue" stroke="midnightblue" points="252.34,-19.41 262,-15.05 251.73,-12.44 252.34,-19.41"/>
</g>
<!-- Node7 -->
<g id="node7" class="node">
<title>Node7</title>
<g id="a_node7"><a xlink:href="packet__types_8h.html" target="_top" xlink:title=" ">
<polygon fill="white" stroke="black" points="561.5,-615.5 561.5,-634.5 690.5,-634.5 690.5,-615.5 561.5,-615.5"/>
<text text-anchor="middle" x="626" y="-622.5" font-family="Helvetica,sans-Serif" font-size="10.00">odp/api/packet_types.h</text>
</a>
</g>
</g>
<!-- Node1&#45;&gt;Node7 -->
<g id="edge7" class="edge">
<title>Node1&#45;&gt;Node7</title>
<path fill="none" stroke="midnightblue" d="M580.92,-671.08C588.78,-663.22 600.43,-651.57 609.92,-642.08"/>
<polygon fill="midnightblue" stroke="midnightblue" points="612.65,-644.3 617.25,-634.75 607.7,-639.35 612.65,-644.3"/>
</g>
<!-- Node14 -->
<g id="node14" class="node">
<title>Node14</title>
<g id="a_node14"><a xlink:href="std__types_8h.html" target="_top" xlink:title=" ">
<polygon fill="white" stroke="black" points="741,-235.5 741,-254.5 853,-254.5 853,-235.5 741,-235.5"/>
<text text-anchor="middle" x="797" y="-242.5" font-family="Helvetica,sans-Serif" font-size="10.00">odp/api/std_types.h</text>
</a>
</g>
</g>
<!-- Node1&#45;&gt;Node14 -->
<g id="edge41" class="edge">
<title>Node1&#45;&gt;Node14</title>
<path fill="none" stroke="midnightblue" d="M598.57,-676.21C674.99,-664.57 890,-626.32 890,-564.5 890,-564.5 890,-564.5 890,-372.5 890,-334.61 887.68,-321.35 865,-291 854.95,-277.55 839.61,-266.9 826.04,-259.35"/>
<polygon fill="midnightblue" stroke="midnightblue" points="827.5,-256.16 817.02,-254.62 824.25,-262.36 827.5,-256.16"/>
</g>
<!-- Node21 -->
<g id="node21" class="node">
<title>Node21</title>
<g id="a_node21"><a xlink:href="queue__types_8h.html" target="_top" xlink:title=" ">
<polygon fill="white" stroke="black" points="402.5,-492.5 402.5,-511.5 529.5,-511.5 529.5,-492.5 402.5,-492.5"/>
<text text-anchor="middle" x="466" y="-499.5" font-family="Helvetica,sans-Serif" font-size="10.00">odp/api/queue_types.h</text>
</a>
</g>
</g>
<!-- Node1&#45;&gt;Node21 -->
<g id="edge40" class="edge">
<title>Node1&#45;&gt;Node21</title>
<path fill="none" stroke="midnightblue" d="M562.12,-671.31C544.21,-655.02 506.36,-617.99 486,-579 476.55,-560.9 471.31,-537.99 468.59,-522.07"/>
<polygon fill="midnightblue" stroke="midnightblue" points="472.01,-521.25 467.03,-511.89 465.09,-522.31 472.01,-521.25"/>
</g>
<!-- Node4 -->
<g id="node4" class="node">
<title>Node4</title>
<g id="a_node4"><a xlink:title=" ">
<polygon fill="white" stroke="#bfbfbf" points="66.5,-62 66.5,-81 209.5,-81 209.5,-62 66.5,-62"/>
<text text-anchor="middle" x="138" y="-69" font-family="Helvetica,sans-Serif" font-size="10.00">odp/api/abi/event_types.h</text>
</a>
</g>
</g>
<!-- Node3&#45;&gt;Node4 -->
<g id="edge3" class="edge">
<title>Node3&#45;&gt;Node4</title>
<path fill="none" stroke="midnightblue" d="M145.71,-123.48C144.44,-115.08 142.46,-101.98 140.82,-91.16"/>
<polygon fill="midnightblue" stroke="midnightblue" points="144.24,-90.37 139.29,-81.01 137.32,-91.42 144.24,-90.37"/>
</g>
<!-- Node5 -->
<g id="node5" class="node">
<title>Node5</title>
<g id="a_node5"><a xlink:href="spec_2event__types_8h.html" target="_top" xlink:title=" ">
<polygon fill="white" stroke="black" points="304.5,-56.5 304.5,-86.5 413.5,-86.5 413.5,-56.5 304.5,-56.5"/>
<text text-anchor="start" x="312.5" y="-74.5" font-family="Helvetica,sans-Serif" font-size="10.00">odp/api/spec/event</text>
<text text-anchor="middle" x="359" y="-63.5" font-family="Helvetica,sans-Serif" font-size="10.00">_types.h</text>
</a>
</g>
</g>
<!-- Node3&#45;&gt;Node5 -->
<g id="edge4" class="edge">
<title>Node3&#45;&gt;Node5</title>
<path fill="none" stroke="midnightblue" d="M177.37,-123.48C209.04,-114.59 259.49,-100.43 299.19,-89.29"/>
<polygon fill="midnightblue" stroke="midnightblue" points="300.35,-92.6 309.04,-86.52 298.46,-85.86 300.35,-92.6"/>
</g>
<!-- Node5&#45;&gt;Node2 -->
<g id="edge5" class="edge">
<title>Node5&#45;&gt;Node2</title>
<path fill="none" stroke="midnightblue" d="M413.63,-62.1C483.77,-51.32 605.38,-32.62 680.44,-21.08"/>
<polygon fill="midnightblue" stroke="midnightblue" points="681.36,-24.48 690.71,-19.5 680.3,-17.56 681.36,-24.48"/>
</g>
<!-- Node5&#45;&gt;Node6 -->
<g id="edge6" class="edge">
<title>Node5&#45;&gt;Node6</title>
<path fill="none" stroke="midnightblue" d="M349.28,-56.4C343.45,-47.93 335.98,-37.1 329.81,-28.14"/>
<polygon fill="midnightblue" stroke="midnightblue" points="332.52,-25.91 323.97,-19.66 326.76,-29.88 332.52,-25.91"/>
</g>
<!-- Node8 -->
<g id="node8" class="node">
<title>Node8</title>
<g id="a_node8"><a xlink:title=" ">
<polygon fill="white" stroke="#bfbfbf" points="626,-548.5 626,-578.5 732,-578.5 732,-548.5 626,-548.5"/>
<text text-anchor="start" x="634" y="-566.5" font-family="Helvetica,sans-Serif" font-size="10.00">odp/api/abi/packet</text>
<text text-anchor="middle" x="679" y="-555.5" font-family="Helvetica,sans-Serif" font-size="10.00">_io_types.h</text>
</a>
</g>
</g>
<!-- Node7&#45;&gt;Node8 -->
<g id="edge8" class="edge">
<title>Node7&#45;&gt;Node8</title>
<path fill="none" stroke="midnightblue" d="M633.59,-615.48C640.37,-607.87 650.59,-596.4 659.61,-586.26"/>
<polygon fill="midnightblue" stroke="midnightblue" points="662.47,-588.32 666.51,-578.52 657.24,-583.66 662.47,-588.32"/>
</g>
<!-- Node9 -->
<g id="node9" class="node">
<title>Node9</title>
<g id="a_node9"><a xlink:title=" ">
<polygon fill="white" stroke="#bfbfbf" points="750,-548.5 750,-578.5 856,-578.5 856,-548.5 750,-548.5"/>
<text text-anchor="start" x="758" y="-566.5" font-family="Helvetica,sans-Serif" font-size="10.00">odp/api/abi/packet</text>
<text text-anchor="middle" x="803" y="-555.5" font-family="Helvetica,sans-Serif" font-size="10.00">_types.h</text>
</a>
</g>
</g>
<!-- Node7&#45;&gt;Node9 -->
<g id="edge9" class="edge">
<title>Node7&#45;&gt;Node9</title>
<path fill="none" stroke="midnightblue" d="M651.36,-615.48C677.46,-606.7 718.85,-592.79 751.8,-581.71"/>
<polygon fill="midnightblue" stroke="midnightblue" points="752.92,-585.03 761.28,-578.52 750.69,-578.39 752.92,-585.03"/>
</g>
<!-- Node10 -->
<g id="node10" class="node">
<title>Node10</title>
<g id="a_node10"><a xlink:href="spec_2packet__types_8h.html" target="_top" xlink:title=" ">
<polygon fill="white" stroke="black" points="494.5,-548.5 494.5,-578.5 607.5,-578.5 607.5,-548.5 494.5,-548.5"/>
<text text-anchor="start" x="502.5" y="-566.5" font-family="Helvetica,sans-Serif" font-size="10.00">odp/api/spec/packet</text>
<text text-anchor="middle" x="551" y="-555.5" font-family="Helvetica,sans-Serif" font-size="10.00">_types.h</text>
</a>
</g>
</g>
<!-- Node7&#45;&gt;Node10 -->
<g id="edge10" class="edge">
<title>Node7&#45;&gt;Node10</title>
<path fill="none" stroke="midnightblue" d="M615.25,-615.48C605.19,-607.49 589.77,-595.25 576.55,-584.77"/>
<polygon fill="midnightblue" stroke="midnightblue" points="578.69,-582 568.68,-578.52 574.33,-587.48 578.69,-582"/>
</g>
<!-- Node10&#45;&gt;Node2 -->
<g id="edge11" class="edge">
<title>Node10&#45;&gt;Node2</title>
<path fill="none" stroke="midnightblue" d="M596.48,-548.48C696.75,-514.44 928,-417.34 928,-246 928,-246 928,-246 928,-132 928,-69.31 852.19,-37.14 798.43,-22.21"/>
<polygon fill="midnightblue" stroke="midnightblue" points="799.23,-18.8 788.67,-19.62 797.44,-25.56 799.23,-18.8"/>
</g>
<!-- Node10&#45;&gt;Node6 -->
<g id="edge39" class="edge">
<title>Node10&#45;&gt;Node6</title>
<path fill="none" stroke="midnightblue" d="M494.34,-561.88C421.21,-557.65 296.55,-537.98 239,-456 217.01,-424.67 57.48,-668.4 288,-56 291.8,-45.91 298.22,-35.82 304.15,-27.76"/>
<polygon fill="midnightblue" stroke="midnightblue" points="307.1,-29.67 310.47,-19.63 301.57,-25.38 307.1,-29.67"/>
</g>
<!-- Node11 -->
<g id="node11" class="node">
<title>Node11</title>
<g id="a_node11"><a xlink:href="proto__stats__types_8h.html" target="_top" xlink:title=" ">
<polygon fill="white" stroke="black" points="611,-358.5 611,-388.5 721,-388.5 721,-358.5 611,-358.5"/>
<text text-anchor="start" x="619" y="-376.5" font-family="Helvetica,sans-Serif" font-size="10.00">odp/api/proto_stats</text>
<text text-anchor="middle" x="666" y="-365.5" font-family="Helvetica,sans-Serif" font-size="10.00">_types.h</text>
</a>
</g>
</g>
<!-- Node10&#45;&gt;Node11 -->
<g id="edge12" class="edge">
<title>Node10&#45;&gt;Node11</title>
<path fill="none" stroke="midnightblue" d="M559.64,-548.37C579.42,-516.04 628.12,-436.43 652.14,-397.16"/>
<polygon fill="midnightblue" stroke="midnightblue" points="655.18,-398.9 657.41,-388.54 649.21,-395.24 655.18,-398.9"/>
</g>
<!-- Node10&#45;&gt;Node21 -->
<g id="edge28" class="edge">
<title>Node10&#45;&gt;Node21</title>
<path fill="none" stroke="midnightblue" d="M530.86,-548.4C517.61,-539.13 500.32,-527.03 486.92,-517.65"/>
<polygon fill="midnightblue" stroke="midnightblue" points="488.57,-514.53 478.37,-511.66 484.55,-520.26 488.57,-514.53"/>
</g>
<!-- Node12 -->
<g id="node12" class="node">
<title>Node12</title>
<g id="a_node12"><a xlink:title=" ">
<polygon fill="white" stroke="#bfbfbf" points="602,-291.5 602,-321.5 730,-321.5 730,-291.5 602,-291.5"/>
<text text-anchor="start" x="610" y="-309.5" font-family="Helvetica,sans-Serif" font-size="10.00">odp/api/abi/proto_stats</text>
<text text-anchor="middle" x="666" y="-298.5" font-family="Helvetica,sans-Serif" font-size="10.00">_types.h</text>
</a>
</g>
</g>
<!-- Node11&#45;&gt;Node12 -->
<g id="edge13" class="edge">
<title>Node11&#45;&gt;Node12</title>
<path fill="none" stroke="midnightblue" d="M666,-358.4C666,-350.64 666,-340.81 666,-331.86"/>
<polygon fill="midnightblue" stroke="midnightblue" points="669.5,-331.58 666,-321.58 662.5,-331.58 669.5,-331.58"/>
</g>
<!-- Node13 -->
<g id="node13" class="node">
<title>Node13</title>
<g id="a_node13"><a xlink:href="spec_2proto__stats__types_8h.html" target="_top" xlink:title=" ">
<polygon fill="white" stroke="black" points="748.5,-291.5 748.5,-321.5 855.5,-321.5 855.5,-291.5 748.5,-291.5"/>
<text text-anchor="start" x="756.5" y="-309.5" font-family="Helvetica,sans-Serif" font-size="10.00">odp/api/spec/proto</text>
<text text-anchor="middle" x="802" y="-298.5" font-family="Helvetica,sans-Serif" font-size="10.00">_stats_types.h</text>
</a>
</g>
</g>
<!-- Node11&#45;&gt;Node13 -->
<g id="edge14" class="edge">
<title>Node11&#45;&gt;Node13</title>
<path fill="none" stroke="midnightblue" d="M695.51,-358.4C715.38,-348.9 741.79,-336.28 763.34,-325.98"/>
<polygon fill="midnightblue" stroke="midnightblue" points="765.03,-329.05 772.55,-321.58 762.02,-322.73 765.03,-329.05"/>
</g>
<!-- Node13&#45;&gt;Node2 -->
<g id="edge15" class="edge">
<title>Node13&#45;&gt;Node2</title>
<path fill="none" stroke="midnightblue" d="M822.85,-291.38C848.88,-271.89 890,-234.12 890,-190 890,-190 890,-190 890,-132 890,-93.62 877.24,-81.99 849,-56 832.22,-40.55 809.29,-29.83 789.33,-22.74"/>
<polygon fill="midnightblue" stroke="midnightblue" points="790.4,-19.41 779.81,-19.55 788.17,-26.04 790.4,-19.41"/>
</g>
<!-- Node13&#45;&gt;Node6 -->
<g id="edge27" class="edge">
<title>Node13&#45;&gt;Node6</title>
<path fill="none" stroke="midnightblue" d="M759.96,-291.47C711.24,-274.09 629.77,-241.51 568,-199 493.44,-147.69 498.13,-106.48 423,-56 401.97,-41.87 375.78,-30.63 354.81,-22.92"/>
<polygon fill="midnightblue" stroke="midnightblue" points="355.88,-19.59 345.29,-19.53 353.53,-26.18 355.88,-19.59"/>
</g>
<!-- Node13&#45;&gt;Node14 -->
<g id="edge16" class="edge">
<title>Node13&#45;&gt;Node14</title>
<path fill="none" stroke="midnightblue" d="M800.82,-291.4C800.15,-283.47 799.31,-273.46 798.58,-264.86"/>
<polygon fill="midnightblue" stroke="midnightblue" points="802.05,-264.33 797.73,-254.66 795.08,-264.92 802.05,-264.33"/>
</g>
<!-- Node15 -->
<g id="node15" class="node">
<title>Node15</title>
<g id="a_node15"><a xlink:title=" ">
<polygon fill="white" stroke="#bfbfbf" points="732,-179.5 732,-198.5 862,-198.5 862,-179.5 732,-179.5"/>
<text text-anchor="middle" x="797" y="-186.5" font-family="Helvetica,sans-Serif" font-size="10.00">odp/api/abi/std_types.h</text>
</a>
</g>
</g>
<!-- Node14&#45;&gt;Node15 -->
<g id="edge17" class="edge">
<title>Node14&#45;&gt;Node15</title>
<path fill="none" stroke="midnightblue" d="M797,-235.08C797,-228.01 797,-217.86 797,-208.99"/>
<polygon fill="midnightblue" stroke="midnightblue" points="800.5,-208.75 797,-198.75 793.5,-208.75 800.5,-208.75"/>
</g>
<!-- Node16 -->
<g id="node16" class="node">
<title>Node16</title>
<g id="a_node16"><a xlink:href="spec_2std__types_8h.html" target="_top" xlink:title=" ">
<polygon fill="white" stroke="black" points="576.5,-179.5 576.5,-198.5 713.5,-198.5 713.5,-179.5 576.5,-179.5"/>
<text text-anchor="middle" x="645" y="-186.5" font-family="Helvetica,sans-Serif" font-size="10.00">odp/api/spec/std_types.h</text>
</a>
</g>
</g>
<!-- Node14&#45;&gt;Node16 -->
<g id="edge18" class="edge">
<title>Node14&#45;&gt;Node16</title>
<path fill="none" stroke="midnightblue" d="M772.92,-235.44C747.46,-226.4 707.11,-212.06 678.54,-201.92"/>
<polygon fill="midnightblue" stroke="midnightblue" points="679.57,-198.57 668.97,-198.52 677.22,-205.16 679.57,-198.57"/>
</g>
<!-- Node16&#45;&gt;Node2 -->
<g id="edge19" class="edge">
<title>Node16&#45;&gt;Node2</title>
<path fill="none" stroke="midnightblue" d="M691.44,-179.43C738.5,-167.83 807.83,-141.9 833,-87 838.74,-74.48 840.16,-67.77 833,-56 823.54,-40.46 806.79,-30.05 790.5,-23.19"/>
<polygon fill="midnightblue" stroke="midnightblue" points="791.6,-19.87 781.01,-19.55 789.1,-26.4 791.6,-19.87"/>
</g>
<!-- Node16&#45;&gt;Node6 -->
<g id="edge26" class="edge">
<title>Node16&#45;&gt;Node6</title>
<path fill="none" stroke="midnightblue" d="M635.03,-179.41C607.96,-156.45 530.15,-92.96 456,-56 426.47,-41.28 391.05,-29.85 363.49,-22.19"/>
<polygon fill="midnightblue" stroke="midnightblue" points="364.29,-18.78 353.72,-19.54 362.45,-25.53 364.29,-18.78"/>
</g>
<!-- Node17 -->
<g id="node17" class="node">
<title>Node17</title>
<g id="a_node17"><a xlink:title=" ">
<polygon fill="white" stroke="#bfbfbf" points="705.5,-123.5 705.5,-142.5 758.5,-142.5 758.5,-123.5 705.5,-123.5"/>
<text text-anchor="middle" x="732" y="-130.5" font-family="Helvetica,sans-Serif" font-size="10.00">stdint.h</text>
</a>
</g>
</g>
<!-- Node16&#45;&gt;Node17 -->
<g id="edge20" class="edge">
<title>Node16&#45;&gt;Node17</title>
<path fill="none" stroke="midnightblue" d="M658.98,-179.32C672.55,-170.9 693.38,-157.97 709.32,-148.07"/>
<polygon fill="midnightblue" stroke="midnightblue" points="711.41,-150.9 718.06,-142.65 707.71,-144.95 711.41,-150.9"/>
</g>
<!-- Node18 -->
<g id="node18" class="node">
<title>Node18</title>
<g id="a_node18"><a xlink:href="align_8h.html" target="_top" xlink:title=" ">
<polygon fill="white" stroke="black" points="598.5,-123.5 598.5,-142.5 687.5,-142.5 687.5,-123.5 598.5,-123.5"/>
<text text-anchor="middle" x="643" y="-130.5" font-family="Helvetica,sans-Serif" font-size="10.00">odp/api/align.h</text>
</a>
</g>
</g>
<!-- Node16&#45;&gt;Node18 -->
<g id="edge21" class="edge">
<title>Node16&#45;&gt;Node18</title>
<path fill="none" stroke="midnightblue" d="M644.67,-179.08C644.41,-172.01 644.03,-161.86 643.7,-152.99"/>
<polygon fill="midnightblue" stroke="midnightblue" points="647.19,-152.61 643.32,-142.75 640.2,-152.87 647.19,-152.61"/>
</g>
<!-- Node19 -->
<g id="node19" class="node">
<title>Node19</title>
<g id="a_node19"><a xlink:title=" ">
<polygon fill="white" stroke="#bfbfbf" points="716.5,-62 716.5,-81 823.5,-81 823.5,-62 716.5,-62"/>
<text text-anchor="middle" x="770" y="-69" font-family="Helvetica,sans-Serif" font-size="10.00">odp/api/abi/align.h</text>
</a>
</g>
</g>
<!-- Node18&#45;&gt;Node19 -->
<g id="edge22" class="edge">
<title>Node18&#45;&gt;Node19</title>
<path fill="none" stroke="midnightblue" d="M661.2,-123.48C682.51,-113.49 718.03,-96.85 742.66,-85.31"/>
<polygon fill="midnightblue" stroke="midnightblue" points="744.27,-88.42 751.84,-81.01 741.3,-82.08 744.27,-88.42"/>
</g>
<!-- Node20 -->
<g id="node20" class="node">
<title>Node20</title>
<g id="a_node20"><a xlink:href="spec_2align_8h.html" target="_top" xlink:title=" ">
<polygon fill="white" stroke="black" points="584,-62 584,-81 698,-81 698,-62 584,-62"/>
<text text-anchor="middle" x="641" y="-69" font-family="Helvetica,sans-Serif" font-size="10.00">odp/api/spec/align.h</text>
</a>
</g>
</g>
<!-- Node18&#45;&gt;Node20 -->
<g id="edge23" class="edge">
<title>Node18&#45;&gt;Node20</title>
<path fill="none" stroke="midnightblue" d="M642.71,-123.48C642.43,-115.08 641.99,-101.98 641.63,-91.16"/>
<polygon fill="midnightblue" stroke="midnightblue" points="645.12,-90.89 641.29,-81.01 638.12,-91.12 645.12,-90.89"/>
</g>
<!-- Node20&#45;&gt;Node2 -->
<g id="edge24" class="edge">
<title>Node20&#45;&gt;Node2</title>
<path fill="none" stroke="midnightblue" d="M656.04,-61.98C673.28,-52.21 701.74,-36.08 722.03,-24.58"/>
<polygon fill="midnightblue" stroke="midnightblue" points="724.01,-27.48 730.98,-19.51 720.56,-21.39 724.01,-27.48"/>
</g>
<!-- Node20&#45;&gt;Node6 -->
<g id="edge25" class="edge">
<title>Node20&#45;&gt;Node6</title>
<path fill="none" stroke="midnightblue" d="M600.11,-61.97C590.26,-59.96 579.76,-57.87 570,-56 504.32,-43.43 428.79,-30.09 377.68,-21.23"/>
<polygon fill="midnightblue" stroke="midnightblue" points="378.24,-17.77 367.79,-19.52 377.05,-24.67 378.24,-17.77"/>
</g>
<!-- Node22 -->
<g id="node22" class="node">
<title>Node22</title>
<g id="a_node22"><a xlink:title=" ">
<polygon fill="white" stroke="#bfbfbf" points="247.5,-431 247.5,-450 392.5,-450 392.5,-431 247.5,-431"/>
<text text-anchor="middle" x="320" y="-438" font-family="Helvetica,sans-Serif" font-size="10.00">odp/api/abi/queue_types.h</text>
</a>
</g>
</g>
<!-- Node21&#45;&gt;Node22 -->
<g id="edge29" class="edge">
<title>Node21&#45;&gt;Node22</title>
<path fill="none" stroke="midnightblue" d="M445.08,-492.48C420.25,-482.36 378.66,-465.4 350.31,-453.85"/>
<polygon fill="midnightblue" stroke="midnightblue" points="351.46,-450.54 340.88,-450.01 348.82,-457.02 351.46,-450.54"/>
</g>
<!-- Node23 -->
<g id="node23" class="node">
<title>Node23</title>
<g id="a_node23"><a xlink:href="spec_2queue__types_8h.html" target="_top" xlink:title=" ">
<polygon fill="white" stroke="black" points="410.5,-425.5 410.5,-455.5 521.5,-455.5 521.5,-425.5 410.5,-425.5"/>
<text text-anchor="start" x="418.5" y="-443.5" font-family="Helvetica,sans-Serif" font-size="10.00">odp/api/spec/queue</text>
<text text-anchor="middle" x="466" y="-432.5" font-family="Helvetica,sans-Serif" font-size="10.00">_types.h</text>
</a>
</g>
</g>
<!-- Node21&#45;&gt;Node23 -->
<g id="edge30" class="edge">
<title>Node21&#45;&gt;Node23</title>
<path fill="none" stroke="midnightblue" d="M466,-492.48C466,-485.47 466,-475.19 466,-465.7"/>
<polygon fill="midnightblue" stroke="midnightblue" points="469.5,-465.52 466,-455.52 462.5,-465.52 469.5,-465.52"/>
</g>
<!-- Node23&#45;&gt;Node2 -->
<g id="edge31" class="edge">
<title>Node23&#45;&gt;Node2</title>
<path fill="none" stroke="midnightblue" d="M418.37,-425.44C367.77,-407.22 295,-370.13 295,-307.5 295,-307.5 295,-307.5 295,-244 295,-110.59 408.34,-112.9 529,-56 575.01,-34.3 631.37,-23.02 675.12,-17.17"/>
<polygon fill="midnightblue" stroke="midnightblue" points="675.62,-20.64 685.1,-15.9 674.74,-13.69 675.62,-20.64"/>
</g>
<!-- Node23&#45;&gt;Node6 -->
<g id="edge38" class="edge">
<title>Node23&#45;&gt;Node6</title>
<path fill="none" stroke="midnightblue" d="M410.29,-426.08C359.95,-413.67 292.07,-396.1 281,-389 160.95,-312.04 143.88,-267.87 75,-143 62.37,-120.11 61.05,-112.83 57,-87 54.87,-73.39 48.12,-66.54 57,-56 81.41,-27.02 182.54,-16.71 251.51,-13.03"/>
<polygon fill="midnightblue" stroke="midnightblue" points="252.05,-16.51 261.86,-12.52 251.7,-9.52 252.05,-16.51"/>
</g>
<!-- Node24 -->
<g id="node24" class="node">
<title>Node24</title>
<g id="a_node24"><a xlink:href="schedule__types_8h.html" target="_top" xlink:title=" ">
<polygon fill="white" stroke="black" points="396,-364 396,-383 536,-383 536,-364 396,-364"/>
<text text-anchor="middle" x="466" y="-371" font-family="Helvetica,sans-Serif" font-size="10.00">odp/api/schedule_types.h</text>
</a>
</g>
</g>
<!-- Node23&#45;&gt;Node24 -->
<g id="edge32" class="edge">
<title>Node23&#45;&gt;Node24</title>
<path fill="none" stroke="midnightblue" d="M466,-425.4C466,-416.06 466,-403.71 466,-393.52"/>
<polygon fill="midnightblue" stroke="midnightblue" points="469.5,-393.19 466,-383.19 462.5,-393.19 469.5,-393.19"/>
</g>
<!-- Node25 -->
<g id="node25" class="node">
<title>Node25</title>
<g id="a_node25"><a xlink:title=" ">
<polygon fill="white" stroke="#bfbfbf" points="323.5,-291.5 323.5,-321.5 440.5,-321.5 440.5,-291.5 323.5,-291.5"/>
<text text-anchor="start" x="331.5" y="-309.5" font-family="Helvetica,sans-Serif" font-size="10.00">odp/api/abi/schedule</text>
<text text-anchor="middle" x="382" y="-298.5" font-family="Helvetica,sans-Serif" font-size="10.00">_types.h</text>
</a>
</g>
</g>
<!-- Node24&#45;&gt;Node25 -->
<g id="edge33" class="edge">
<title>Node24&#45;&gt;Node25</title>
<path fill="none" stroke="midnightblue" d="M454.67,-363.73C442.88,-354.61 424,-340 408.44,-327.96"/>
<polygon fill="midnightblue" stroke="midnightblue" points="410.26,-324.94 400.21,-321.59 405.97,-330.48 410.26,-324.94"/>
</g>
<!-- Node26 -->
<g id="node26" class="node">
<title>Node26</title>
<g id="a_node26"><a xlink:href="spec_2schedule__types_8h.html" target="_top" xlink:title=" ">
<polygon fill="white" stroke="black" points="458.5,-291.5 458.5,-321.5 583.5,-321.5 583.5,-291.5 458.5,-291.5"/>
<text text-anchor="start" x="466.5" y="-309.5" font-family="Helvetica,sans-Serif" font-size="10.00">odp/api/spec/schedule</text>
<text text-anchor="middle" x="521" y="-298.5" font-family="Helvetica,sans-Serif" font-size="10.00">_types.h</text>
</a>
</g>
</g>
<!-- Node24&#45;&gt;Node26 -->
<g id="edge34" class="edge">
<title>Node24&#45;&gt;Node26</title>
<path fill="none" stroke="midnightblue" d="M473.42,-363.73C480.85,-354.95 492.59,-341.08 502.54,-329.31"/>
<polygon fill="midnightblue" stroke="midnightblue" points="505.29,-331.48 509.08,-321.59 499.95,-326.96 505.29,-331.48"/>
</g>
<!-- Node26&#45;&gt;Node2 -->
<g id="edge35" class="edge">
<title>Node26&#45;&gt;Node2</title>
<path fill="none" stroke="midnightblue" d="M520.39,-291.28C519.52,-269.48 518,-226.51 518,-190 518,-190 518,-190 518,-132 518,-59.75 608.43,-30.51 675.39,-18.77"/>
<polygon fill="midnightblue" stroke="midnightblue" points="676.2,-22.18 685.5,-17.09 675.06,-15.27 676.2,-22.18"/>
</g>
<!-- Node26&#45;&gt;Node6 -->
<g id="edge37" class="edge">
<title>Node26&#45;&gt;Node6</title>
<path fill="none" stroke="midnightblue" d="M496.56,-291.32C447.37,-261.16 337.56,-185.3 296,-87 287.76,-67.51 297.4,-43.96 306.39,-28.29"/>
<polygon fill="midnightblue" stroke="midnightblue" points="309.44,-30.01 311.73,-19.66 303.49,-26.32 309.44,-30.01"/>
</g>
<!-- Node26&#45;&gt;Node14 -->
<g id="edge36" class="edge">
<title>Node26&#45;&gt;Node14</title>
<path fill="none" stroke="midnightblue" d="M583.63,-292C633.16,-281.32 701.39,-266.61 747.23,-256.73"/>
<polygon fill="midnightblue" stroke="midnightblue" points="748.2,-260.1 757.23,-254.57 746.72,-253.26 748.2,-260.1"/>
</g>
</g>
</svg>
