<?xml version="1.0" encoding="UTF-8" standalone="no"?>
<!DOCTYPE svg PUBLIC "-//W3C//DTD SVG 1.1//EN"
 "http://www.w3.org/Graphics/SVG/1.1/DTD/svg11.dtd">
<!-- Generated by graphviz version 2.43.0 (0)
 -->
<!-- Title: schedule.h Pages: 1 -->
<svg width="900pt" height="565pt"
 viewBox="0.00 0.00 899.70 565.00" xmlns="http://www.w3.org/2000/svg" xmlns:xlink="http://www.w3.org/1999/xlink">
<g id="graph0" class="graph" transform="scale(1 1) rotate(0) translate(4 561)">
<title>schedule.h</title>
<polygon fill="white" stroke="transparent" points="-4,4 -4,-561 895.7,-561 895.7,4 -4,4"/>
<!-- Node1 -->
<g id="node1" class="node">
<title>Node1</title>
<g id="a_node1"><a xlink:title=" ">
<polygon fill="#bfbfbf" stroke="black" points="370.5,-537.5 370.5,-556.5 439.5,-556.5 439.5,-537.5 370.5,-537.5"/>
<text text-anchor="middle" x="405" y="-544.5" font-family="Helvetica,sans-Serif" font-size="10.00">schedule.h</text>
</a>
</g>
</g>
<!-- Node2 -->
<g id="node2" class="node">
<title>Node2</title>
<g id="a_node2"><a xlink:title=" ">
<polygon fill="white" stroke="#bfbfbf" points="53.5,-0.5 53.5,-19.5 174.5,-19.5 174.5,-0.5 53.5,-0.5"/>
<text text-anchor="middle" x="114" y="-7.5" font-family="Helvetica,sans-Serif" font-size="10.00">odp/visibility_begin.h</text>
</a>
</g>
</g>
<!-- Node1&#45;&gt;Node2 -->
<g id="edge1" class="edge">
<title>Node1&#45;&gt;Node2</title>
<path fill="none" stroke="midnightblue" d="M370.47,-543.59C272.53,-535.81 0,-507.27 0,-430.5 0,-430.5 0,-430.5 0,-132 0,-93.62 14.66,-83.91 41,-56 53.49,-42.77 70.7,-31.91 85.26,-24.18"/>
<polygon fill="midnightblue" stroke="midnightblue" points="87.05,-27.2 94.38,-19.56 83.88,-20.96 87.05,-27.2"/>
</g>
<!-- Node3 -->
<g id="node3" class="node">
<title>Node3</title>
<g id="a_node3"><a xlink:href="std__types_8h.html" target="_top" xlink:title=" ">
<polygon fill="white" stroke="black" points="279,-235.5 279,-254.5 391,-254.5 391,-235.5 279,-235.5"/>
<text text-anchor="middle" x="335" y="-242.5" font-family="Helvetica,sans-Serif" font-size="10.00">odp/api/std_types.h</text>
</a>
</g>
</g>
<!-- Node1&#45;&gt;Node3 -->
<g id="edge2" class="edge">
<title>Node1&#45;&gt;Node3</title>
<path fill="none" stroke="midnightblue" d="M394.97,-537.24C375.62,-519.3 335,-476.22 335,-430.5 335,-430.5 335,-430.5 335,-367 335,-330.71 335,-288.31 335,-264.56"/>
<polygon fill="midnightblue" stroke="midnightblue" points="338.5,-264.51 335,-254.51 331.5,-264.51 338.5,-264.51"/>
</g>
<!-- Node10 -->
<g id="node10" class="node">
<title>Node10</title>
<g id="a_node10"><a xlink:title=" ">
<polygon fill="white" stroke="#bfbfbf" points="513,-0.5 513,-19.5 625,-19.5 625,-0.5 513,-0.5"/>
<text text-anchor="middle" x="569" y="-7.5" font-family="Helvetica,sans-Serif" font-size="10.00">odp/visibility_end.h</text>
</a>
</g>
</g>
<!-- Node1&#45;&gt;Node10 -->
<g id="edge36" class="edge">
<title>Node1&#45;&gt;Node10</title>
<path fill="none" stroke="midnightblue" d="M439.88,-545.17C551.09,-541.6 890,-523.12 890,-430.5 890,-430.5 890,-430.5 890,-132 890,-97.18 896.78,-79.4 871,-56 837.42,-25.53 713.86,-15.69 635.58,-12.51"/>
<polygon fill="midnightblue" stroke="midnightblue" points="635.44,-9 625.32,-12.12 635.18,-16 635.44,-9"/>
</g>
<!-- Node11 -->
<g id="node11" class="node">
<title>Node11</title>
<g id="a_node11"><a xlink:href="event__types_8h.html" target="_top" xlink:title=" ">
<polygon fill="white" stroke="black" points="718.5,-123.5 718.5,-142.5 843.5,-142.5 843.5,-123.5 718.5,-123.5"/>
<text text-anchor="middle" x="781" y="-130.5" font-family="Helvetica,sans-Serif" font-size="10.00">odp/api/event_types.h</text>
</a>
</g>
</g>
<!-- Node1&#45;&gt;Node11 -->
<g id="edge13" class="edge">
<title>Node1&#45;&gt;Node11</title>
<path fill="none" stroke="midnightblue" d="M439.81,-542.14C528.87,-531.32 758,-497 758,-430.5 758,-430.5 758,-430.5 758,-244 758,-211.12 767.97,-173.86 774.78,-152.24"/>
<polygon fill="midnightblue" stroke="midnightblue" points="778.11,-153.3 777.9,-142.71 771.46,-151.12 778.11,-153.3"/>
</g>
<!-- Node14 -->
<g id="node14" class="node">
<title>Node14</title>
<g id="a_node14"><a xlink:href="queue__types_8h.html" target="_top" xlink:title=" ">
<polygon fill="white" stroke="black" points="442.5,-481.5 442.5,-500.5 569.5,-500.5 569.5,-481.5 442.5,-481.5"/>
<text text-anchor="middle" x="506" y="-488.5" font-family="Helvetica,sans-Serif" font-size="10.00">odp/api/queue_types.h</text>
</a>
</g>
</g>
<!-- Node1&#45;&gt;Node14 -->
<g id="edge18" class="edge">
<title>Node1&#45;&gt;Node14</title>
<path fill="none" stroke="midnightblue" d="M421.23,-537.32C437.35,-528.7 462.3,-515.36 480.96,-505.39"/>
<polygon fill="midnightblue" stroke="midnightblue" points="482.64,-508.46 489.81,-500.65 479.34,-502.28 482.64,-508.46"/>
</g>
<!-- Node17 -->
<g id="node17" class="node">
<title>Node17</title>
<g id="a_node17"><a xlink:href="schedule__types_8h.html" target="_top" xlink:title=" ">
<polygon fill="white" stroke="black" points="424,-358.5 424,-377.5 564,-377.5 564,-358.5 424,-358.5"/>
<text text-anchor="middle" x="494" y="-365.5" font-family="Helvetica,sans-Serif" font-size="10.00">odp/api/schedule_types.h</text>
</a>
</g>
</g>
<!-- Node1&#45;&gt;Node17 -->
<g id="edge29" class="edge">
<title>Node1&#45;&gt;Node17</title>
<path fill="none" stroke="midnightblue" d="M403.94,-537.45C401.62,-515.15 398.21,-454.12 424,-414 433.01,-399.98 448.12,-389.45 462,-382.12"/>
<polygon fill="midnightblue" stroke="midnightblue" points="463.88,-385.1 471.32,-377.56 460.8,-378.81 463.88,-385.1"/>
</g>
<!-- Node20 -->
<g id="node20" class="node">
<title>Node20</title>
<g id="a_node20"><a xlink:href="thrmask_8h.html" target="_top" xlink:title=" ">
<polygon fill="white" stroke="black" points="192.5,-358.5 192.5,-377.5 297.5,-377.5 297.5,-358.5 192.5,-358.5"/>
<text text-anchor="middle" x="245" y="-365.5" font-family="Helvetica,sans-Serif" font-size="10.00">odp/api/thrmask.h</text>
</a>
</g>
</g>
<!-- Node1&#45;&gt;Node20 -->
<g id="edge30" class="edge">
<title>Node1&#45;&gt;Node20</title>
<path fill="none" stroke="midnightblue" d="M381.03,-537.38C362.88,-529.92 338.22,-517.7 321,-501 286.48,-467.52 262.65,-414.99 251.74,-387.38"/>
<polygon fill="midnightblue" stroke="midnightblue" points="254.93,-385.89 248.09,-377.8 248.39,-388.39 254.93,-385.89"/>
</g>
<!-- Node4 -->
<g id="node4" class="node">
<title>Node4</title>
<g id="a_node4"><a xlink:title=" ">
<polygon fill="white" stroke="#bfbfbf" points="368,-179.5 368,-198.5 498,-198.5 498,-179.5 368,-179.5"/>
<text text-anchor="middle" x="433" y="-186.5" font-family="Helvetica,sans-Serif" font-size="10.00">odp/api/abi/std_types.h</text>
</a>
</g>
</g>
<!-- Node3&#45;&gt;Node4 -->
<g id="edge3" class="edge">
<title>Node3&#45;&gt;Node4</title>
<path fill="none" stroke="midnightblue" d="M350.75,-235.32C366.32,-226.74 390.38,-213.49 408.46,-203.52"/>
<polygon fill="midnightblue" stroke="midnightblue" points="410.22,-206.55 417.29,-198.65 406.85,-200.42 410.22,-206.55"/>
</g>
<!-- Node5 -->
<g id="node5" class="node">
<title>Node5</title>
<g id="a_node5"><a xlink:href="spec_2std__types_8h.html" target="_top" xlink:title=" ">
<polygon fill="white" stroke="black" points="174.5,-179.5 174.5,-198.5 311.5,-198.5 311.5,-179.5 174.5,-179.5"/>
<text text-anchor="middle" x="243" y="-186.5" font-family="Helvetica,sans-Serif" font-size="10.00">odp/api/spec/std_types.h</text>
</a>
</g>
</g>
<!-- Node3&#45;&gt;Node5 -->
<g id="edge4" class="edge">
<title>Node3&#45;&gt;Node5</title>
<path fill="none" stroke="midnightblue" d="M320.22,-235.32C305.73,-226.82 283.43,-213.73 266.51,-203.8"/>
<polygon fill="midnightblue" stroke="midnightblue" points="268.14,-200.7 257.74,-198.65 264.6,-206.74 268.14,-200.7"/>
</g>
<!-- Node5&#45;&gt;Node2 -->
<g id="edge5" class="edge">
<title>Node5&#45;&gt;Node2</title>
<path fill="none" stroke="midnightblue" d="M206.28,-179.43C185.7,-172.8 161.19,-161.51 146,-143 118.91,-109.98 114.13,-57.61 113.66,-29.8"/>
<polygon fill="midnightblue" stroke="midnightblue" points="117.16,-29.51 113.67,-19.51 110.16,-29.51 117.16,-29.51"/>
</g>
<!-- Node6 -->
<g id="node6" class="node">
<title>Node6</title>
<g id="a_node6"><a xlink:title=" ">
<polygon fill="white" stroke="#bfbfbf" points="155.5,-123.5 155.5,-142.5 208.5,-142.5 208.5,-123.5 155.5,-123.5"/>
<text text-anchor="middle" x="182" y="-130.5" font-family="Helvetica,sans-Serif" font-size="10.00">stdint.h</text>
</a>
</g>
</g>
<!-- Node5&#45;&gt;Node6 -->
<g id="edge6" class="edge">
<title>Node5&#45;&gt;Node6</title>
<path fill="none" stroke="midnightblue" d="M233.2,-179.32C224.18,-171.34 210.59,-159.31 199.68,-149.65"/>
<polygon fill="midnightblue" stroke="midnightblue" points="201.79,-146.84 191.98,-142.83 197.15,-152.08 201.79,-146.84"/>
</g>
<!-- Node7 -->
<g id="node7" class="node">
<title>Node7</title>
<g id="a_node7"><a xlink:href="align_8h.html" target="_top" xlink:title=" ">
<polygon fill="white" stroke="black" points="226.5,-123.5 226.5,-142.5 315.5,-142.5 315.5,-123.5 226.5,-123.5"/>
<text text-anchor="middle" x="271" y="-130.5" font-family="Helvetica,sans-Serif" font-size="10.00">odp/api/align.h</text>
</a>
</g>
</g>
<!-- Node5&#45;&gt;Node7 -->
<g id="edge7" class="edge">
<title>Node5&#45;&gt;Node7</title>
<path fill="none" stroke="midnightblue" d="M247.62,-179.08C251.46,-171.69 257.02,-160.95 261.76,-151.81"/>
<polygon fill="midnightblue" stroke="midnightblue" points="264.97,-153.24 266.46,-142.75 258.75,-150.02 264.97,-153.24"/>
</g>
<!-- Node5&#45;&gt;Node10 -->
<g id="edge12" class="edge">
<title>Node5&#45;&gt;Node10</title>
<path fill="none" stroke="midnightblue" d="M258.59,-179.48C274.95,-170.52 301.37,-155.93 324,-143 390.24,-105.14 404.42,-91.43 472,-56 494.36,-44.27 520.35,-32.31 539.79,-23.66"/>
<polygon fill="midnightblue" stroke="midnightblue" points="541.3,-26.82 549.03,-19.58 538.47,-20.42 541.3,-26.82"/>
</g>
<!-- Node8 -->
<g id="node8" class="node">
<title>Node8</title>
<g id="a_node8"><a xlink:title=" ">
<polygon fill="white" stroke="#bfbfbf" points="142.5,-62 142.5,-81 249.5,-81 249.5,-62 142.5,-62"/>
<text text-anchor="middle" x="196" y="-69" font-family="Helvetica,sans-Serif" font-size="10.00">odp/api/abi/align.h</text>
</a>
</g>
</g>
<!-- Node7&#45;&gt;Node8 -->
<g id="edge8" class="edge">
<title>Node7&#45;&gt;Node8</title>
<path fill="none" stroke="midnightblue" d="M260.25,-123.48C248.45,-114.11 229.26,-98.88 214.92,-87.51"/>
<polygon fill="midnightblue" stroke="midnightblue" points="216.74,-84.48 206.73,-81.01 212.38,-89.97 216.74,-84.48"/>
</g>
<!-- Node9 -->
<g id="node9" class="node">
<title>Node9</title>
<g id="a_node9"><a xlink:href="spec_2align_8h.html" target="_top" xlink:title=" ">
<polygon fill="white" stroke="black" points="268,-62 268,-81 382,-81 382,-62 268,-62"/>
<text text-anchor="middle" x="325" y="-69" font-family="Helvetica,sans-Serif" font-size="10.00">odp/api/spec/align.h</text>
</a>
</g>
</g>
<!-- Node7&#45;&gt;Node9 -->
<g id="edge9" class="edge">
<title>Node7&#45;&gt;Node9</title>
<path fill="none" stroke="midnightblue" d="M278.74,-123.48C287,-114.37 300.28,-99.74 310.49,-88.48"/>
<polygon fill="midnightblue" stroke="midnightblue" points="313.15,-90.77 317.28,-81.01 307.97,-86.06 313.15,-90.77"/>
</g>
<!-- Node9&#45;&gt;Node2 -->
<g id="edge10" class="edge">
<title>Node9&#45;&gt;Node2</title>
<path fill="none" stroke="midnightblue" d="M294.77,-61.98C257.71,-51.53 194.81,-33.79 153.84,-22.23"/>
<polygon fill="midnightblue" stroke="midnightblue" points="154.75,-18.85 144.18,-19.51 152.85,-25.59 154.75,-18.85"/>
</g>
<!-- Node9&#45;&gt;Node10 -->
<g id="edge11" class="edge">
<title>Node9&#45;&gt;Node10</title>
<path fill="none" stroke="midnightblue" d="M359.96,-61.98C403.17,-51.44 476.79,-33.49 524.13,-21.94"/>
<polygon fill="midnightblue" stroke="midnightblue" points="525.22,-25.28 534.11,-19.51 523.56,-18.48 525.22,-25.28"/>
</g>
<!-- Node12 -->
<g id="node12" class="node">
<title>Node12</title>
<g id="a_node12"><a xlink:title=" ">
<polygon fill="white" stroke="#bfbfbf" points="718.5,-62 718.5,-81 861.5,-81 861.5,-62 718.5,-62"/>
<text text-anchor="middle" x="790" y="-69" font-family="Helvetica,sans-Serif" font-size="10.00">odp/api/abi/event_types.h</text>
</a>
</g>
</g>
<!-- Node11&#45;&gt;Node12 -->
<g id="edge14" class="edge">
<title>Node11&#45;&gt;Node12</title>
<path fill="none" stroke="midnightblue" d="M782.29,-123.48C783.56,-115.08 785.54,-101.98 787.18,-91.16"/>
<polygon fill="midnightblue" stroke="midnightblue" points="790.68,-91.42 788.71,-81.01 783.76,-90.37 790.68,-91.42"/>
</g>
<!-- Node13 -->
<g id="node13" class="node">
<title>Node13</title>
<g id="a_node13"><a xlink:href="spec_2event__types_8h.html" target="_top" xlink:title=" ">
<polygon fill="white" stroke="black" points="514.5,-56.5 514.5,-86.5 623.5,-86.5 623.5,-56.5 514.5,-56.5"/>
<text text-anchor="start" x="522.5" y="-74.5" font-family="Helvetica,sans-Serif" font-size="10.00">odp/api/spec/event</text>
<text text-anchor="middle" x="569" y="-63.5" font-family="Helvetica,sans-Serif" font-size="10.00">_types.h</text>
</a>
</g>
</g>
<!-- Node11&#45;&gt;Node13 -->
<g id="edge15" class="edge">
<title>Node11&#45;&gt;Node13</title>
<path fill="none" stroke="midnightblue" d="M750.63,-123.48C718.96,-114.59 668.51,-100.43 628.81,-89.29"/>
<polygon fill="midnightblue" stroke="midnightblue" points="629.54,-85.86 618.96,-86.52 627.65,-92.6 629.54,-85.86"/>
</g>
<!-- Node13&#45;&gt;Node2 -->
<g id="edge16" class="edge">
<title>Node13&#45;&gt;Node2</title>
<path fill="none" stroke="midnightblue" d="M514.3,-63.02C497.52,-60.75 479,-58.25 462,-56 366.02,-43.29 255.08,-29.02 184.75,-20.02"/>
<polygon fill="midnightblue" stroke="midnightblue" points="185.04,-16.53 174.68,-18.73 184.16,-23.47 185.04,-16.53"/>
</g>
<!-- Node13&#45;&gt;Node10 -->
<g id="edge17" class="edge">
<title>Node13&#45;&gt;Node10</title>
<path fill="none" stroke="midnightblue" d="M569,-56.4C569,-48.47 569,-38.46 569,-29.86"/>
<polygon fill="midnightblue" stroke="midnightblue" points="572.5,-29.66 569,-19.66 565.5,-29.66 572.5,-29.66"/>
</g>
<!-- Node15 -->
<g id="node15" class="node">
<title>Node15</title>
<g id="a_node15"><a xlink:title=" ">
<polygon fill="white" stroke="#bfbfbf" points="433.5,-420 433.5,-439 578.5,-439 578.5,-420 433.5,-420"/>
<text text-anchor="middle" x="506" y="-427" font-family="Helvetica,sans-Serif" font-size="10.00">odp/api/abi/queue_types.h</text>
</a>
</g>
</g>
<!-- Node14&#45;&gt;Node15 -->
<g id="edge19" class="edge">
<title>Node14&#45;&gt;Node15</title>
<path fill="none" stroke="midnightblue" d="M506,-481.48C506,-473.08 506,-459.98 506,-449.16"/>
<polygon fill="midnightblue" stroke="midnightblue" points="509.5,-449.01 506,-439.01 502.5,-449.01 509.5,-449.01"/>
</g>
<!-- Node16 -->
<g id="node16" class="node">
<title>Node16</title>
<g id="a_node16"><a xlink:href="spec_2queue__types_8h.html" target="_top" xlink:title=" ">
<polygon fill="white" stroke="black" points="596.5,-414.5 596.5,-444.5 707.5,-444.5 707.5,-414.5 596.5,-414.5"/>
<text text-anchor="start" x="604.5" y="-432.5" font-family="Helvetica,sans-Serif" font-size="10.00">odp/api/spec/queue</text>
<text text-anchor="middle" x="652" y="-421.5" font-family="Helvetica,sans-Serif" font-size="10.00">_types.h</text>
</a>
</g>
</g>
<!-- Node14&#45;&gt;Node16 -->
<g id="edge20" class="edge">
<title>Node14&#45;&gt;Node16</title>
<path fill="none" stroke="midnightblue" d="M526.92,-481.48C547.99,-472.89 581.13,-459.38 608.01,-448.43"/>
<polygon fill="midnightblue" stroke="midnightblue" points="609.65,-451.54 617.59,-444.52 607.01,-445.06 609.65,-451.54"/>
</g>
<!-- Node16&#45;&gt;Node2 -->
<g id="edge21" class="edge">
<title>Node16&#45;&gt;Node2</title>
<path fill="none" stroke="midnightblue" d="M652.97,-414.35C654.13,-388.39 653.79,-332.06 633,-291 565.28,-157.24 524.94,-123.35 391,-56 326.22,-23.43 243.15,-13.52 184.95,-10.93"/>
<polygon fill="midnightblue" stroke="midnightblue" points="184.87,-7.43 174.74,-10.54 184.6,-14.42 184.87,-7.43"/>
</g>
<!-- Node16&#45;&gt;Node10 -->
<g id="edge28" class="edge">
<title>Node16&#45;&gt;Node10</title>
<path fill="none" stroke="midnightblue" d="M659.51,-414.42C670.58,-392.31 690,-347.79 690,-307.5 690,-307.5 690,-307.5 690,-132 690,-93.62 675.9,-83.38 649,-56 635.5,-42.26 616.9,-31.46 601.04,-23.89"/>
<polygon fill="midnightblue" stroke="midnightblue" points="602.14,-20.54 591.59,-19.59 599.24,-26.91 602.14,-20.54"/>
</g>
<!-- Node16&#45;&gt;Node17 -->
<g id="edge22" class="edge">
<title>Node16&#45;&gt;Node17</title>
<path fill="none" stroke="midnightblue" d="M614.56,-414.4C587.81,-404.33 552.18,-390.91 526.6,-381.28"/>
<polygon fill="midnightblue" stroke="midnightblue" points="527.58,-377.91 516.99,-377.66 525.12,-384.46 527.58,-377.91"/>
</g>
<!-- Node18 -->
<g id="node18" class="node">
<title>Node18</title>
<g id="a_node18"><a xlink:title=" ">
<polygon fill="white" stroke="#bfbfbf" points="506.5,-291.5 506.5,-321.5 623.5,-321.5 623.5,-291.5 506.5,-291.5"/>
<text text-anchor="start" x="514.5" y="-309.5" font-family="Helvetica,sans-Serif" font-size="10.00">odp/api/abi/schedule</text>
<text text-anchor="middle" x="565" y="-298.5" font-family="Helvetica,sans-Serif" font-size="10.00">_types.h</text>
</a>
</g>
</g>
<!-- Node17&#45;&gt;Node18 -->
<g id="edge23" class="edge">
<title>Node17&#45;&gt;Node18</title>
<path fill="none" stroke="midnightblue" d="M504.17,-358.48C513.61,-350.57 528.03,-338.48 540.46,-328.07"/>
<polygon fill="midnightblue" stroke="midnightblue" points="542.85,-330.63 548.27,-321.52 538.35,-325.26 542.85,-330.63"/>
</g>
<!-- Node19 -->
<g id="node19" class="node">
<title>Node19</title>
<g id="a_node19"><a xlink:href="spec_2schedule__types_8h.html" target="_top" xlink:title=" ">
<polygon fill="white" stroke="black" points="363.5,-291.5 363.5,-321.5 488.5,-321.5 488.5,-291.5 363.5,-291.5"/>
<text text-anchor="start" x="371.5" y="-309.5" font-family="Helvetica,sans-Serif" font-size="10.00">odp/api/spec/schedule</text>
<text text-anchor="middle" x="426" y="-298.5" font-family="Helvetica,sans-Serif" font-size="10.00">_types.h</text>
</a>
</g>
</g>
<!-- Node17&#45;&gt;Node19 -->
<g id="edge24" class="edge">
<title>Node17&#45;&gt;Node19</title>
<path fill="none" stroke="midnightblue" d="M484.26,-358.48C475.31,-350.64 461.67,-338.71 449.85,-328.37"/>
<polygon fill="midnightblue" stroke="midnightblue" points="451.86,-325.47 442.03,-321.52 447.25,-330.74 451.86,-325.47"/>
</g>
<!-- Node19&#45;&gt;Node2 -->
<g id="edge25" class="edge">
<title>Node19&#45;&gt;Node2</title>
<path fill="none" stroke="midnightblue" d="M424.95,-291.44C422.94,-275.2 417.08,-248.94 400,-235 318.16,-168.17 253.26,-257.09 165,-199 108.38,-161.74 110.49,-123.76 112,-56 112.19,-47.39 112.59,-37.86 112.98,-29.8"/>
<polygon fill="midnightblue" stroke="midnightblue" points="116.48,-29.79 113.5,-19.62 109.49,-29.43 116.48,-29.79"/>
</g>
<!-- Node19&#45;&gt;Node3 -->
<g id="edge26" class="edge">
<title>Node19&#45;&gt;Node3</title>
<path fill="none" stroke="midnightblue" d="M404.43,-291.4C390.12,-282.04 371.39,-269.79 356.99,-260.38"/>
<polygon fill="midnightblue" stroke="midnightblue" points="358.53,-257.2 348.24,-254.66 354.7,-263.06 358.53,-257.2"/>
</g>
<!-- Node19&#45;&gt;Node10 -->
<g id="edge27" class="edge">
<title>Node19&#45;&gt;Node10</title>
<path fill="none" stroke="midnightblue" d="M447.84,-291.27C492.85,-260.47 594.89,-182.63 633,-87 638.1,-74.2 639.35,-68.23 633,-56 625.85,-42.23 612.33,-31.78 599.55,-24.44"/>
<polygon fill="midnightblue" stroke="midnightblue" points="600.96,-21.23 590.48,-19.64 597.68,-27.41 600.96,-21.23"/>
</g>
<!-- Node21 -->
<g id="node21" class="node">
<title>Node21</title>
<g id="a_node21"><a xlink:title=" ">
<polygon fill="white" stroke="#bfbfbf" points="183.5,-297 183.5,-316 306.5,-316 306.5,-297 183.5,-297"/>
<text text-anchor="middle" x="245" y="-304" font-family="Helvetica,sans-Serif" font-size="10.00">odp/api/abi/thrmask.h</text>
</a>
</g>
</g>
<!-- Node20&#45;&gt;Node21 -->
<g id="edge31" class="edge">
<title>Node20&#45;&gt;Node21</title>
<path fill="none" stroke="midnightblue" d="M245,-358.48C245,-350.08 245,-336.98 245,-326.16"/>
<polygon fill="midnightblue" stroke="midnightblue" points="248.5,-326.01 245,-316.01 241.5,-326.01 248.5,-326.01"/>
</g>
<!-- Node22 -->
<g id="node22" class="node">
<title>Node22</title>
<g id="a_node22"><a xlink:href="spec_2thrmask_8h.html" target="_top" xlink:title=" ">
<polygon fill="white" stroke="black" points="34.5,-297 34.5,-316 165.5,-316 165.5,-297 34.5,-297"/>
<text text-anchor="middle" x="100" y="-304" font-family="Helvetica,sans-Serif" font-size="10.00">odp/api/spec/thrmask.h</text>
</a>
</g>
</g>
<!-- Node20&#45;&gt;Node22 -->
<g id="edge32" class="edge">
<title>Node20&#45;&gt;Node22</title>
<path fill="none" stroke="midnightblue" d="M224.23,-358.48C199.57,-348.36 158.25,-331.4 130.1,-319.85"/>
<polygon fill="midnightblue" stroke="midnightblue" points="131.32,-316.57 120.74,-316.01 128.66,-323.04 131.32,-316.57"/>
</g>
<!-- Node22&#45;&gt;Node2 -->
<g id="edge33" class="edge">
<title>Node22&#45;&gt;Node2</title>
<path fill="none" stroke="midnightblue" d="M91.38,-296.79C74.34,-278.61 38,-234.61 38,-190 38,-190 38,-190 38,-132 38,-96.58 42.54,-85.6 62,-56 69.79,-44.15 81.54,-33.62 91.9,-25.72"/>
<polygon fill="midnightblue" stroke="midnightblue" points="94.12,-28.44 100.16,-19.74 90.01,-22.77 94.12,-28.44"/>
</g>
<!-- Node22&#45;&gt;Node3 -->
<g id="edge34" class="edge">
<title>Node22&#45;&gt;Node3</title>
<path fill="none" stroke="midnightblue" d="M133.67,-296.98C175.2,-286.46 245.89,-268.56 291.5,-257.01"/>
<polygon fill="midnightblue" stroke="midnightblue" points="292.56,-260.36 301.39,-254.51 290.84,-253.57 292.56,-260.36"/>
</g>
<!-- Node22&#45;&gt;Node10 -->
<g id="edge35" class="edge">
<title>Node22&#45;&gt;Node10</title>
<path fill="none" stroke="midnightblue" d="M121.38,-296.88C161.59,-280.31 250.68,-241.8 320,-199 408.72,-144.22 422.23,-118.09 506,-56 520.08,-45.57 536.15,-34.09 548.54,-25.34"/>
<polygon fill="midnightblue" stroke="midnightblue" points="550.67,-28.12 556.83,-19.5 546.64,-22.4 550.67,-28.12"/>
</g>
</g>
</svg>
