<?xml version="1.0" encoding="UTF-8" standalone="no"?>
<!DOCTYPE svg PUBLIC "-//W3C//DTD SVG 1.1//EN"
 "http://www.w3.org/Graphics/SVG/1.1/DTD/svg11.dtd">
<!-- Generated by graphviz version 2.43.0 (0)
 -->
<!-- Title: shared_memory.h Pages: 1 -->
<svg width="886pt" height="431pt"
 viewBox="0.00 0.00 886.00 431.00" xmlns="http://www.w3.org/2000/svg" xmlns:xlink="http://www.w3.org/1999/xlink">
<g id="graph0" class="graph" transform="scale(1 1) rotate(0) translate(4 427)">
<title>shared_memory.h</title>
<polygon fill="white" stroke="transparent" points="-4,4 -4,-427 882,-427 882,4 -4,4"/>
<!-- Node1 -->
<g id="node1" class="node">
<title>Node1</title>
<g id="a_node1"><a xlink:title=" ">
<polygon fill="#bfbfbf" stroke="black" points="468,-403.5 468,-422.5 572,-422.5 572,-403.5 468,-403.5"/>
<text text-anchor="middle" x="520" y="-410.5" font-family="Helvetica,sans-Serif" font-size="10.00">shared_memory.h</text>
</a>
</g>
</g>
<!-- Node2 -->
<g id="node2" class="node">
<title>Node2</title>
<g id="a_node2"><a xlink:title=" ">
<polygon fill="white" stroke="#bfbfbf" points="121.5,-0.5 121.5,-19.5 242.5,-19.5 242.5,-0.5 121.5,-0.5"/>
<text text-anchor="middle" x="182" y="-7.5" font-family="Helvetica,sans-Serif" font-size="10.00">odp/visibility_begin.h</text>
</a>
</g>
</g>
<!-- Node1&#45;&gt;Node2 -->
<g id="edge1" class="edge">
<title>Node1&#45;&gt;Node2</title>
<path fill="none" stroke="midnightblue" d="M467.76,-411.92C335.89,-410.32 0,-396.93 0,-302 0,-302 0,-302 0,-121 0,-63.42 67.54,-35.17 120.33,-21.89"/>
<polygon fill="midnightblue" stroke="midnightblue" points="121.42,-25.23 130.33,-19.5 119.79,-18.42 121.42,-25.23"/>
</g>
<!-- Node3 -->
<g id="node3" class="node">
<title>Node3</title>
<g id="a_node3"><a xlink:href="init_8h.html" target="_top" xlink:title=" ">
<polygon fill="white" stroke="black" points="480,-347.5 480,-366.5 560,-366.5 560,-347.5 480,-347.5"/>
<text text-anchor="middle" x="520" y="-354.5" font-family="Helvetica,sans-Serif" font-size="10.00">odp/api/init.h</text>
</a>
</g>
</g>
<!-- Node1&#45;&gt;Node3 -->
<g id="edge2" class="edge">
<title>Node1&#45;&gt;Node3</title>
<path fill="none" stroke="midnightblue" d="M520,-403.08C520,-396.01 520,-385.86 520,-376.99"/>
<polygon fill="midnightblue" stroke="midnightblue" points="523.5,-376.75 520,-366.75 516.5,-376.75 523.5,-376.75"/>
</g>
<!-- Node13 -->
<g id="node13" class="node">
<title>Node13</title>
<g id="a_node13"><a xlink:title=" ">
<polygon fill="white" stroke="#bfbfbf" points="495,-0.5 495,-19.5 607,-19.5 607,-0.5 495,-0.5"/>
<text text-anchor="middle" x="551" y="-7.5" font-family="Helvetica,sans-Serif" font-size="10.00">odp/visibility_end.h</text>
</a>
</g>
</g>
<!-- Node1&#45;&gt;Node13 -->
<g id="edge28" class="edge">
<title>Node1&#45;&gt;Node13</title>
<path fill="none" stroke="midnightblue" d="M572.06,-406.95C671.35,-395.88 878,-365.23 878,-302 878,-302 878,-302 878,-121 878,-87.98 869.08,-74.9 842,-56 806.66,-31.34 691.69,-19.65 617.28,-14.53"/>
<polygon fill="midnightblue" stroke="midnightblue" points="617.27,-11.03 607.06,-13.85 616.8,-18.01 617.27,-11.03"/>
</g>
<!-- Node4 -->
<g id="node4" class="node">
<title>Node4</title>
<g id="a_node4"><a xlink:title=" ">
<polygon fill="white" stroke="#bfbfbf" points="411,-291.5 411,-310.5 509,-310.5 509,-291.5 411,-291.5"/>
<text text-anchor="middle" x="460" y="-298.5" font-family="Helvetica,sans-Serif" font-size="10.00">odp/api/abi/init.h</text>
</a>
</g>
</g>
<!-- Node3&#45;&gt;Node4 -->
<g id="edge3" class="edge">
<title>Node3&#45;&gt;Node4</title>
<path fill="none" stroke="midnightblue" d="M510.36,-347.32C501.49,-339.34 488.13,-327.31 477.39,-317.65"/>
<polygon fill="midnightblue" stroke="midnightblue" points="479.59,-314.92 469.82,-310.83 474.91,-320.13 479.59,-314.92"/>
</g>
<!-- Node5 -->
<g id="node5" class="node">
<title>Node5</title>
<g id="a_node5"><a xlink:href="spec_2init_8h.html" target="_top" xlink:title=" ">
<polygon fill="white" stroke="black" points="527,-291.5 527,-310.5 633,-310.5 633,-291.5 527,-291.5"/>
<text text-anchor="middle" x="580" y="-298.5" font-family="Helvetica,sans-Serif" font-size="10.00">odp/api/spec/init.h</text>
</a>
</g>
</g>
<!-- Node3&#45;&gt;Node5 -->
<g id="edge4" class="edge">
<title>Node3&#45;&gt;Node5</title>
<path fill="none" stroke="midnightblue" d="M529.64,-347.32C538.51,-339.34 551.87,-327.31 562.61,-317.65"/>
<polygon fill="midnightblue" stroke="midnightblue" points="565.09,-320.13 570.18,-310.83 560.41,-314.92 565.09,-320.13"/>
</g>
<!-- Node5&#45;&gt;Node2 -->
<g id="edge5" class="edge">
<title>Node5&#45;&gt;Node2</title>
<path fill="none" stroke="midnightblue" d="M529.98,-291.48C395.8,-268.28 38,-204.07 38,-179 38,-179 38,-179 38,-121 38,-68.76 98.59,-38.01 141.17,-22.85"/>
<polygon fill="midnightblue" stroke="midnightblue" points="142.41,-26.12 150.75,-19.58 140.16,-19.49 142.41,-26.12"/>
</g>
<!-- Node6 -->
<g id="node6" class="node">
<title>Node6</title>
<g id="a_node6"><a xlink:href="std__types_8h.html" target="_top" xlink:title=" ">
<polygon fill="white" stroke="black" points="369,-230 369,-249 481,-249 481,-230 369,-230"/>
<text text-anchor="middle" x="425" y="-237" font-family="Helvetica,sans-Serif" font-size="10.00">odp/api/std_types.h</text>
</a>
</g>
</g>
<!-- Node5&#45;&gt;Node6 -->
<g id="edge6" class="edge">
<title>Node5&#45;&gt;Node6</title>
<path fill="none" stroke="midnightblue" d="M557.79,-291.48C531.32,-281.31 486.89,-264.26 456.78,-252.7"/>
<polygon fill="midnightblue" stroke="midnightblue" points="457.76,-249.33 447.17,-249.01 455.25,-255.86 457.76,-249.33"/>
</g>
<!-- Node5&#45;&gt;Node13 -->
<g id="edge27" class="edge">
<title>Node5&#45;&gt;Node13</title>
<path fill="none" stroke="midnightblue" d="M633.24,-298.18C709.31,-292.42 840,-269.36 840,-179 840,-179 840,-179 840,-121 840,-90.9 843.51,-75.98 821,-56 791.57,-29.88 687.23,-18.72 617.21,-14.1"/>
<polygon fill="midnightblue" stroke="midnightblue" points="617.34,-10.6 607.14,-13.47 616.9,-17.59 617.34,-10.6"/>
</g>
<!-- Node14 -->
<g id="node14" class="node">
<title>Node14</title>
<g id="a_node14"><a xlink:href="hints_8h.html" target="_top" xlink:title=" ">
<polygon fill="white" stroke="black" points="499.5,-230 499.5,-249 588.5,-249 588.5,-230 499.5,-230"/>
<text text-anchor="middle" x="544" y="-237" font-family="Helvetica,sans-Serif" font-size="10.00">odp/api/hints.h</text>
</a>
</g>
</g>
<!-- Node5&#45;&gt;Node14 -->
<g id="edge17" class="edge">
<title>Node5&#45;&gt;Node14</title>
<path fill="none" stroke="midnightblue" d="M574.84,-291.48C569.55,-282.73 561.16,-268.87 554.47,-257.81"/>
<polygon fill="midnightblue" stroke="midnightblue" points="557.32,-255.75 549.15,-249.01 551.33,-259.38 557.32,-255.75"/>
</g>
<!-- Node16 -->
<g id="node16" class="node">
<title>Node16</title>
<g id="a_node16"><a xlink:href="thread__types_8h.html" target="_top" xlink:title=" ">
<polygon fill="white" stroke="black" points="645.5,-224.5 645.5,-254.5 758.5,-254.5 758.5,-224.5 645.5,-224.5"/>
<text text-anchor="start" x="653.5" y="-242.5" font-family="Helvetica,sans-Serif" font-size="10.00">odp/api/spec/thread</text>
<text text-anchor="middle" x="702" y="-231.5" font-family="Helvetica,sans-Serif" font-size="10.00">_types.h</text>
</a>
</g>
</g>
<!-- Node5&#45;&gt;Node16 -->
<g id="edge21" class="edge">
<title>Node5&#45;&gt;Node16</title>
<path fill="none" stroke="midnightblue" d="M597.48,-291.48C614.77,-283.04 641.81,-269.86 664.05,-259.01"/>
<polygon fill="midnightblue" stroke="midnightblue" points="665.79,-262.05 673.25,-254.52 662.72,-255.76 665.79,-262.05"/>
</g>
<!-- Node17 -->
<g id="node17" class="node">
<title>Node17</title>
<g id="a_node17"><a xlink:href="cpumask_8h.html" target="_top" xlink:title=" ">
<polygon fill="white" stroke="black" points="570.5,-112.5 570.5,-131.5 679.5,-131.5 679.5,-112.5 570.5,-112.5"/>
<text text-anchor="middle" x="625" y="-119.5" font-family="Helvetica,sans-Serif" font-size="10.00">odp/api/cpumask.h</text>
</a>
</g>
</g>
<!-- Node5&#45;&gt;Node17 -->
<g id="edge22" class="edge">
<title>Node5&#45;&gt;Node17</title>
<path fill="none" stroke="midnightblue" d="M584.07,-291.2C588.07,-282.25 594.14,-267.9 598,-255 609.87,-215.38 618.23,-167.51 622.26,-141.7"/>
<polygon fill="midnightblue" stroke="midnightblue" points="625.72,-142.19 623.76,-131.78 618.8,-141.14 625.72,-142.19"/>
</g>
<!-- Node7 -->
<g id="node7" class="node">
<title>Node7</title>
<g id="a_node7"><a xlink:title=" ">
<polygon fill="white" stroke="#bfbfbf" points="368,-168.5 368,-187.5 498,-187.5 498,-168.5 368,-168.5"/>
<text text-anchor="middle" x="433" y="-175.5" font-family="Helvetica,sans-Serif" font-size="10.00">odp/api/abi/std_types.h</text>
</a>
</g>
</g>
<!-- Node6&#45;&gt;Node7 -->
<g id="edge7" class="edge">
<title>Node6&#45;&gt;Node7</title>
<path fill="none" stroke="midnightblue" d="M426.15,-229.98C427.27,-221.58 429.04,-208.48 430.49,-197.66"/>
<polygon fill="midnightblue" stroke="midnightblue" points="433.99,-197.89 431.86,-187.51 427.05,-196.95 433.99,-197.89"/>
</g>
<!-- Node8 -->
<g id="node8" class="node">
<title>Node8</title>
<g id="a_node8"><a xlink:href="spec_2std__types_8h.html" target="_top" xlink:title=" ">
<polygon fill="white" stroke="black" points="212.5,-168.5 212.5,-187.5 349.5,-187.5 349.5,-168.5 212.5,-168.5"/>
<text text-anchor="middle" x="281" y="-175.5" font-family="Helvetica,sans-Serif" font-size="10.00">odp/api/spec/std_types.h</text>
</a>
</g>
</g>
<!-- Node6&#45;&gt;Node8 -->
<g id="edge8" class="edge">
<title>Node6&#45;&gt;Node8</title>
<path fill="none" stroke="midnightblue" d="M404.37,-229.98C379.88,-219.86 338.85,-202.9 310.89,-191.35"/>
<polygon fill="midnightblue" stroke="midnightblue" points="312.17,-188.09 301.59,-187.51 309.5,-194.56 312.17,-188.09"/>
</g>
<!-- Node8&#45;&gt;Node2 -->
<g id="edge9" class="edge">
<title>Node8&#45;&gt;Node2</title>
<path fill="none" stroke="midnightblue" d="M235.34,-168.44C188.66,-156.8 119.61,-130.81 95,-76 83.81,-51.08 113.16,-33.54 140.75,-23.02"/>
<polygon fill="midnightblue" stroke="midnightblue" points="142.12,-26.24 150.36,-19.59 139.77,-19.65 142.12,-26.24"/>
</g>
<!-- Node9 -->
<g id="node9" class="node">
<title>Node9</title>
<g id="a_node9"><a xlink:title=" ">
<polygon fill="white" stroke="#bfbfbf" points="167.5,-112.5 167.5,-131.5 220.5,-131.5 220.5,-112.5 167.5,-112.5"/>
<text text-anchor="middle" x="194" y="-119.5" font-family="Helvetica,sans-Serif" font-size="10.00">stdint.h</text>
</a>
</g>
</g>
<!-- Node8&#45;&gt;Node9 -->
<g id="edge10" class="edge">
<title>Node8&#45;&gt;Node9</title>
<path fill="none" stroke="midnightblue" d="M267.02,-168.32C253.45,-159.9 232.62,-146.97 216.68,-137.07"/>
<polygon fill="midnightblue" stroke="midnightblue" points="218.29,-133.95 207.94,-131.65 214.59,-139.9 218.29,-133.95"/>
</g>
<!-- Node10 -->
<g id="node10" class="node">
<title>Node10</title>
<g id="a_node10"><a xlink:href="align_8h.html" target="_top" xlink:title=" ">
<polygon fill="white" stroke="black" points="238.5,-112.5 238.5,-131.5 327.5,-131.5 327.5,-112.5 238.5,-112.5"/>
<text text-anchor="middle" x="283" y="-119.5" font-family="Helvetica,sans-Serif" font-size="10.00">odp/api/align.h</text>
</a>
</g>
</g>
<!-- Node8&#45;&gt;Node10 -->
<g id="edge11" class="edge">
<title>Node8&#45;&gt;Node10</title>
<path fill="none" stroke="midnightblue" d="M281.33,-168.08C281.59,-161.01 281.97,-150.86 282.3,-141.99"/>
<polygon fill="midnightblue" stroke="midnightblue" points="285.8,-141.87 282.68,-131.75 278.81,-141.61 285.8,-141.87"/>
</g>
<!-- Node8&#45;&gt;Node13 -->
<g id="edge16" class="edge">
<title>Node8&#45;&gt;Node13</title>
<path fill="none" stroke="midnightblue" d="M304.04,-168.41C343.26,-153.18 424.64,-118.98 485,-76 504.75,-61.94 524.12,-41.91 536.71,-27.8"/>
<polygon fill="midnightblue" stroke="midnightblue" points="539.68,-29.73 543.62,-19.9 534.41,-25.13 539.68,-29.73"/>
</g>
<!-- Node11 -->
<g id="node11" class="node">
<title>Node11</title>
<g id="a_node11"><a xlink:title=" ">
<polygon fill="white" stroke="#bfbfbf" points="104.5,-56.5 104.5,-75.5 211.5,-75.5 211.5,-56.5 104.5,-56.5"/>
<text text-anchor="middle" x="158" y="-63.5" font-family="Helvetica,sans-Serif" font-size="10.00">odp/api/abi/align.h</text>
</a>
</g>
</g>
<!-- Node10&#45;&gt;Node11 -->
<g id="edge12" class="edge">
<title>Node10&#45;&gt;Node11</title>
<path fill="none" stroke="midnightblue" d="M263.19,-112.44C242.71,-103.6 210.52,-89.69 187.14,-79.59"/>
<polygon fill="midnightblue" stroke="midnightblue" points="188.28,-76.27 177.71,-75.52 185.51,-82.7 188.28,-76.27"/>
</g>
<!-- Node12 -->
<g id="node12" class="node">
<title>Node12</title>
<g id="a_node12"><a xlink:href="spec_2align_8h.html" target="_top" xlink:title=" ">
<polygon fill="white" stroke="black" points="230,-56.5 230,-75.5 344,-75.5 344,-56.5 230,-56.5"/>
<text text-anchor="middle" x="287" y="-63.5" font-family="Helvetica,sans-Serif" font-size="10.00">odp/api/spec/align.h</text>
</a>
</g>
</g>
<!-- Node10&#45;&gt;Node12 -->
<g id="edge13" class="edge">
<title>Node10&#45;&gt;Node12</title>
<path fill="none" stroke="midnightblue" d="M283.66,-112.08C284.18,-105.01 284.94,-94.86 285.59,-85.99"/>
<polygon fill="midnightblue" stroke="midnightblue" points="289.1,-85.98 286.35,-75.75 282.12,-85.47 289.1,-85.98"/>
</g>
<!-- Node12&#45;&gt;Node2 -->
<g id="edge14" class="edge">
<title>Node12&#45;&gt;Node2</title>
<path fill="none" stroke="midnightblue" d="M270.13,-56.32C253.29,-47.66 227.19,-34.24 207.76,-24.25"/>
<polygon fill="midnightblue" stroke="midnightblue" points="209.32,-21.12 198.83,-19.65 206.12,-27.34 209.32,-21.12"/>
</g>
<!-- Node12&#45;&gt;Node13 -->
<g id="edge15" class="edge">
<title>Node12&#45;&gt;Node13</title>
<path fill="none" stroke="midnightblue" d="M328.83,-56.44C375.08,-46.98 449.61,-31.74 499.44,-21.55"/>
<polygon fill="midnightblue" stroke="midnightblue" points="500.27,-24.95 509.36,-19.52 498.87,-18.09 500.27,-24.95"/>
</g>
<!-- Node15 -->
<g id="node15" class="node">
<title>Node15</title>
<g id="a_node15"><a xlink:href="spec_2hints_8h.html" target="_top" xlink:title=" ">
<polygon fill="white" stroke="black" points="362,-56.5 362,-75.5 476,-75.5 476,-56.5 362,-56.5"/>
<text text-anchor="middle" x="419" y="-63.5" font-family="Helvetica,sans-Serif" font-size="10.00">odp/api/spec/hints.h</text>
</a>
</g>
</g>
<!-- Node14&#45;&gt;Node15 -->
<g id="edge18" class="edge">
<title>Node14&#45;&gt;Node15</title>
<path fill="none" stroke="midnightblue" d="M540.27,-229.89C534.19,-216.23 521.36,-188.99 507,-168 484.82,-135.59 453.61,-101.99 434.93,-82.87"/>
<polygon fill="midnightblue" stroke="midnightblue" points="437.28,-80.26 427.76,-75.61 432.3,-85.18 437.28,-80.26"/>
</g>
<!-- Node15&#45;&gt;Node2 -->
<g id="edge19" class="edge">
<title>Node15&#45;&gt;Node2</title>
<path fill="none" stroke="midnightblue" d="M381.45,-56.44C340.19,-47.04 273.86,-31.93 229.13,-21.74"/>
<polygon fill="midnightblue" stroke="midnightblue" points="229.91,-18.33 219.38,-19.52 228.35,-25.15 229.91,-18.33"/>
</g>
<!-- Node15&#45;&gt;Node13 -->
<g id="edge20" class="edge">
<title>Node15&#45;&gt;Node13</title>
<path fill="none" stroke="midnightblue" d="M439.92,-56.44C461.74,-47.52 496.15,-33.44 520.89,-23.32"/>
<polygon fill="midnightblue" stroke="midnightblue" points="522.25,-26.54 530.18,-19.52 519.6,-20.06 522.25,-26.54"/>
</g>
<!-- Node18 -->
<g id="node18" class="node">
<title>Node18</title>
<g id="a_node18"><a xlink:title=" ">
<polygon fill="white" stroke="#bfbfbf" points="684.5,-56.5 684.5,-75.5 811.5,-75.5 811.5,-56.5 684.5,-56.5"/>
<text text-anchor="middle" x="748" y="-63.5" font-family="Helvetica,sans-Serif" font-size="10.00">odp/api/abi/cpumask.h</text>
</a>
</g>
</g>
<!-- Node17&#45;&gt;Node18 -->
<g id="edge23" class="edge">
<title>Node17&#45;&gt;Node18</title>
<path fill="none" stroke="midnightblue" d="M644.49,-112.44C664.64,-103.6 696.32,-89.69 719.33,-79.59"/>
<polygon fill="midnightblue" stroke="midnightblue" points="720.85,-82.74 728.6,-75.52 718.04,-76.33 720.85,-82.74"/>
</g>
<!-- Node19 -->
<g id="node19" class="node">
<title>Node19</title>
<g id="a_node19"><a xlink:href="spec_2cpumask_8h.html" target="_top" xlink:title=" ">
<polygon fill="white" stroke="black" points="532,-56.5 532,-75.5 666,-75.5 666,-56.5 532,-56.5"/>
<text text-anchor="middle" x="599" y="-63.5" font-family="Helvetica,sans-Serif" font-size="10.00">odp/api/spec/cpumask.h</text>
</a>
</g>
</g>
<!-- Node17&#45;&gt;Node19 -->
<g id="edge24" class="edge">
<title>Node17&#45;&gt;Node19</title>
<path fill="none" stroke="midnightblue" d="M620.71,-112.08C617.15,-104.69 611.98,-93.95 607.58,-84.81"/>
<polygon fill="midnightblue" stroke="midnightblue" points="610.71,-83.24 603.21,-75.75 604.4,-86.28 610.71,-83.24"/>
</g>
<!-- Node19&#45;&gt;Node2 -->
<g id="edge25" class="edge">
<title>Node19&#45;&gt;Node2</title>
<path fill="none" stroke="midnightblue" d="M532.93,-56.44C456.55,-46.55 331.33,-30.34 252.95,-20.19"/>
<polygon fill="midnightblue" stroke="midnightblue" points="253.05,-16.67 242.68,-18.86 252.15,-23.61 253.05,-16.67"/>
</g>
<!-- Node19&#45;&gt;Node13 -->
<g id="edge26" class="edge">
<title>Node19&#45;&gt;Node13</title>
<path fill="none" stroke="midnightblue" d="M591.07,-56.08C584.15,-48.3 573.93,-36.8 565.55,-27.37"/>
<polygon fill="midnightblue" stroke="midnightblue" points="568.04,-24.9 558.78,-19.75 562.81,-29.55 568.04,-24.9"/>
</g>
</g>
</svg>
