<?xml version="1.0" encoding="UTF-8" standalone="no"?>
<!DOCTYPE svg PUBLIC "-//W3C//DTD SVG 1.1//EN"
 "http://www.w3.org/Graphics/SVG/1.1/DTD/svg11.dtd">
<!-- Generated by graphviz version 2.43.0 (0)
 -->
<!-- Title: packet_types.h Pages: 1 -->
<svg width="890pt" height="644pt"
 viewBox="0.00 0.00 889.50 644.00" xmlns="http://www.w3.org/2000/svg" xmlns:xlink="http://www.w3.org/1999/xlink">
<g id="graph0" class="graph" transform="scale(1 1) rotate(0) translate(4 640)">
<title>packet_types.h</title>
<polygon fill="white" stroke="transparent" points="-4,4 -4,-640 885.5,-640 885.5,4 -4,4"/>
<!-- Node1 -->
<g id="node1" class="node">
<title>Node1</title>
<g id="a_node1"><a xlink:title=" ">
<polygon fill="#bfbfbf" stroke="black" points="421.5,-616.5 421.5,-635.5 511.5,-635.5 511.5,-616.5 421.5,-616.5"/>
<text text-anchor="middle" x="466.5" y="-623.5" font-family="Helvetica,sans-Serif" font-size="10.00">packet_types.h</text>
</a>
</g>
</g>
<!-- Node2 -->
<g id="node2" class="node">
<title>Node2</title>
<g id="a_node2"><a xlink:href="packet__types_8h.html" target="_top" xlink:title=" ">
<polygon fill="white" stroke="black" points="421.5,-560.5 421.5,-579.5 511.5,-579.5 511.5,-560.5 421.5,-560.5"/>
<text text-anchor="middle" x="466.5" y="-567.5" font-family="Helvetica,sans-Serif" font-size="10.00">packet_types.h</text>
</a>
</g>
</g>
<!-- Node1&#45;&gt;Node2 -->
<g id="edge1" class="edge">
<title>Node1&#45;&gt;Node2</title>
<path fill="none" stroke="midnightblue" d="M466.5,-605.8C466.5,-596.91 466.5,-586.78 466.5,-579.75"/>
<polygon fill="midnightblue" stroke="midnightblue" points="463,-606.08 466.5,-616.08 470,-606.08 463,-606.08"/>
</g>
<!-- Node3 -->
<g id="node3" class="node">
<title>Node3</title>
<g id="a_node3"><a xlink:href="spec_2comp_8h.html" target="_top" xlink:title=" ">
<polygon fill="white" stroke="black" points="0,-504.5 0,-523.5 53,-523.5 53,-504.5 0,-504.5"/>
<text text-anchor="middle" x="26.5" y="-511.5" font-family="Helvetica,sans-Serif" font-size="10.00">comp.h</text>
</a>
</g>
</g>
<!-- Node2&#45;&gt;Node3 -->
<g id="edge2" class="edge">
<title>Node2&#45;&gt;Node3</title>
<path fill="none" stroke="midnightblue" d="M411.43,-564.61C334.23,-558.04 189.59,-544.23 67.5,-524 62.9,-523.24 58.04,-522.29 53.33,-521.31"/>
<polygon fill="midnightblue" stroke="midnightblue" points="411.15,-568.1 421.41,-565.45 411.74,-561.12 411.15,-568.1"/>
</g>
<!-- Node5 -->
<g id="node5" class="node">
<title>Node5</title>
<g id="a_node5"><a xlink:href="spec_2crypto_8h.html" target="_top" xlink:title=" ">
<polygon fill="white" stroke="black" points="35.5,-280.5 35.5,-299.5 91.5,-299.5 91.5,-280.5 35.5,-280.5"/>
<text text-anchor="middle" x="63.5" y="-287.5" font-family="Helvetica,sans-Serif" font-size="10.00">crypto.h</text>
</a>
</g>
</g>
<!-- Node2&#45;&gt;Node5 -->
<g id="edge4" class="edge">
<title>Node2&#45;&gt;Node5</title>
<path fill="none" stroke="midnightblue" d="M411.14,-568.94C321.91,-567.75 151.61,-560.57 105.5,-524 81.37,-504.86 81.5,-489.8 81.5,-459 81.5,-459 81.5,-459 81.5,-401 81.5,-362.88 70.84,-318.29 65.93,-299.76"/>
<polygon fill="midnightblue" stroke="midnightblue" points="411.31,-572.44 421.35,-569.06 411.39,-565.44 411.31,-572.44"/>
</g>
<!-- Node9 -->
<g id="node9" class="node">
<title>Node9</title>
<g id="a_node9"><a xlink:href="spec_2dma__types_8h.html" target="_top" xlink:title=" ">
<polygon fill="white" stroke="black" points="329.5,-504.5 329.5,-523.5 409.5,-523.5 409.5,-504.5 329.5,-504.5"/>
<text text-anchor="middle" x="369.5" y="-511.5" font-family="Helvetica,sans-Serif" font-size="10.00">dma_types.h</text>
</a>
</g>
</g>
<!-- Node2&#45;&gt;Node9 -->
<g id="edge8" class="edge">
<title>Node2&#45;&gt;Node9</title>
<path fill="none" stroke="midnightblue" d="M442.16,-555.45C424.26,-545.48 400.45,-532.23 385.05,-523.65"/>
<polygon fill="midnightblue" stroke="midnightblue" points="440.48,-558.52 450.92,-560.32 443.88,-552.4 440.48,-558.52"/>
</g>
<!-- Node19 -->
<g id="node19" class="node">
<title>Node19</title>
<g id="a_node19"><a xlink:href="spec_2packet__io_8h.html" target="_top" xlink:title=" ">
<polygon fill="white" stroke="black" points="586.5,-56.5 586.5,-75.5 658.5,-75.5 658.5,-56.5 586.5,-56.5"/>
<text text-anchor="middle" x="622.5" y="-63.5" font-family="Helvetica,sans-Serif" font-size="10.00">packet_io.h</text>
</a>
</g>
</g>
<!-- Node2&#45;&gt;Node19 -->
<g id="edge45" class="edge">
<title>Node2&#45;&gt;Node19</title>
<path fill="none" stroke="midnightblue" d="M521.86,-566C589.63,-559 695.5,-535.77 695.5,-459 695.5,-459 695.5,-459 695.5,-177 695.5,-146.77 692.13,-137.24 675.5,-112 665.4,-96.68 648.61,-83.69 636.64,-75.66"/>
<polygon fill="midnightblue" stroke="midnightblue" points="521.37,-562.53 511.74,-566.96 522.03,-569.5 521.37,-562.53"/>
</g>
<!-- Node21 -->
<g id="node21" class="node">
<title>Node21</title>
<g id="a_node21"><a xlink:href="spec_2packet_8h.html" target="_top" xlink:title=" ">
<polygon fill="white" stroke="black" points="323.5,-168.5 323.5,-187.5 381.5,-187.5 381.5,-168.5 323.5,-168.5"/>
<text text-anchor="middle" x="352.5" y="-175.5" font-family="Helvetica,sans-Serif" font-size="10.00">packet.h</text>
</a>
</g>
</g>
<!-- Node2&#45;&gt;Node21 -->
<g id="edge42" class="edge">
<title>Node2&#45;&gt;Node21</title>
<path fill="none" stroke="midnightblue" d="M466.5,-550.25C466.5,-528.36 466.5,-491.05 466.5,-459 466.5,-459 466.5,-459 466.5,-289 466.5,-237.71 406,-202.77 373.14,-187.58"/>
<polygon fill="midnightblue" stroke="midnightblue" points="463,-550.44 466.5,-560.44 470,-550.44 463,-550.44"/>
</g>
<!-- Node23 -->
<g id="node23" class="node">
<title>Node23</title>
<g id="a_node23"><a xlink:href="spec_2packet__io__types_8h.html" target="_top" xlink:title=" ">
<polygon fill="white" stroke="black" points="549.5,-280.5 549.5,-299.5 653.5,-299.5 653.5,-280.5 549.5,-280.5"/>
<text text-anchor="middle" x="601.5" y="-287.5" font-family="Helvetica,sans-Serif" font-size="10.00">packet_io_types.h</text>
</a>
</g>
</g>
<!-- Node2&#45;&gt;Node23 -->
<g id="edge46" class="edge">
<title>Node2&#45;&gt;Node23</title>
<path fill="none" stroke="midnightblue" d="M487.36,-554.09C511.36,-535.01 547.5,-499.55 547.5,-459 547.5,-459 547.5,-459 547.5,-401 547.5,-359.52 578.83,-317.41 593.76,-299.69"/>
<polygon fill="midnightblue" stroke="midnightblue" points="484.98,-551.5 479.16,-560.35 489.23,-557.06 484.98,-551.5"/>
</g>
<!-- Node29 -->
<g id="node29" class="node">
<title>Node29</title>
<g id="a_node29"><a xlink:href="packet__inlines_8h.html" target="_top" xlink:title=" ">
<polygon fill="white" stroke="black" points="157,-168.5 157,-187.5 252,-187.5 252,-168.5 157,-168.5"/>
<text text-anchor="middle" x="204.5" y="-175.5" font-family="Helvetica,sans-Serif" font-size="10.00">packet_inlines.h</text>
</a>
</g>
</g>
<!-- Node2&#45;&gt;Node29 -->
<g id="edge47" class="edge">
<title>Node2&#45;&gt;Node29</title>
<path fill="none" stroke="midnightblue" d="M411.48,-563.09C313.62,-551.04 119.5,-519.5 119.5,-459 119.5,-459 119.5,-459 119.5,-289 119.5,-258.9 120.81,-248.35 138.5,-224 150.48,-207.51 170.47,-195.12 185.31,-187.56"/>
<polygon fill="midnightblue" stroke="midnightblue" points="411.14,-566.57 421.49,-564.3 411.98,-559.62 411.14,-566.57"/>
</g>
<!-- Node32 -->
<g id="node32" class="node">
<title>Node32</title>
<g id="a_node32"><a xlink:href="spec_2event_8h.html" target="_top" xlink:title=" ">
<polygon fill="white" stroke="black" points="724,-504.5 724,-523.5 777,-523.5 777,-504.5 724,-504.5"/>
<text text-anchor="middle" x="750.5" y="-511.5" font-family="Helvetica,sans-Serif" font-size="10.00">event.h</text>
</a>
</g>
</g>
<!-- Node2&#45;&gt;Node32 -->
<g id="edge39" class="edge">
<title>Node2&#45;&gt;Node32</title>
<path fill="none" stroke="midnightblue" d="M521.96,-559.27C571.27,-550.48 645.31,-536.99 709.5,-524 714.07,-523.08 718.92,-522.05 723.62,-521.03"/>
<polygon fill="midnightblue" stroke="midnightblue" points="521.05,-555.87 511.82,-561.07 522.28,-562.76 521.05,-555.87"/>
</g>
<!-- Node35 -->
<g id="node35" class="node">
<title>Node35</title>
<g id="a_node35"><a xlink:href="spec_2packet__flags_8h.html" target="_top" xlink:title=" ">
<polygon fill="white" stroke="black" points="795.5,-504.5 795.5,-523.5 881.5,-523.5 881.5,-504.5 795.5,-504.5"/>
<text text-anchor="middle" x="838.5" y="-511.5" font-family="Helvetica,sans-Serif" font-size="10.00">packet_flags.h</text>
</a>
</g>
</g>
<!-- Node2&#45;&gt;Node35 -->
<g id="edge43" class="edge">
<title>Node2&#45;&gt;Node35</title>
<path fill="none" stroke="midnightblue" d="M521.86,-561.76C585.72,-553.28 693.83,-538.53 786.5,-524 789.4,-523.55 792.38,-523.06 795.39,-522.57"/>
<polygon fill="midnightblue" stroke="midnightblue" points="521.07,-558.33 511.61,-563.11 521.99,-565.27 521.07,-558.33"/>
</g>
<!-- Node4 -->
<g id="node4" class="node">
<title>Node4</title>
<g id="a_node4"><a xlink:href="comp_8h.html" target="_top" xlink:title=" ">
<polygon fill="white" stroke="black" points="0,-448.5 0,-467.5 53,-467.5 53,-448.5 0,-448.5"/>
<text text-anchor="middle" x="26.5" y="-455.5" font-family="Helvetica,sans-Serif" font-size="10.00">comp.h</text>
</a>
</g>
</g>
<!-- Node3&#45;&gt;Node4 -->
<g id="edge3" class="edge">
<title>Node3&#45;&gt;Node4</title>
<path fill="none" stroke="midnightblue" d="M26.5,-493.8C26.5,-484.91 26.5,-474.78 26.5,-467.75"/>
<polygon fill="midnightblue" stroke="midnightblue" points="23,-494.08 26.5,-504.08 30,-494.08 23,-494.08"/>
</g>
<!-- Node6 -->
<g id="node6" class="node">
<title>Node6</title>
<g id="a_node6"><a xlink:href="crypto_8h.html" target="_top" xlink:title=" ">
<polygon fill="white" stroke="black" points="148.5,-112.5 148.5,-131.5 204.5,-131.5 204.5,-112.5 148.5,-112.5"/>
<text text-anchor="middle" x="176.5" y="-119.5" font-family="Helvetica,sans-Serif" font-size="10.00">crypto.h</text>
</a>
</g>
</g>
<!-- Node5&#45;&gt;Node6 -->
<g id="edge5" class="edge">
<title>Node5&#45;&gt;Node6</title>
<path fill="none" stroke="midnightblue" d="M74.51,-271.56C82.87,-258.41 94.74,-239.96 105.5,-224 128.86,-189.34 157.83,-148.88 170.31,-131.57"/>
<polygon fill="midnightblue" stroke="midnightblue" points="71.49,-269.78 69.1,-280.1 77.41,-273.52 71.49,-269.78"/>
</g>
<!-- Node7 -->
<g id="node7" class="node">
<title>Node7</title>
<g id="a_node7"><a xlink:href="spec_2ipsec_8h.html" target="_top" xlink:title=" ">
<polygon fill="white" stroke="black" points="451,-56.5 451,-75.5 502,-75.5 502,-56.5 451,-56.5"/>
<text text-anchor="middle" x="476.5" y="-63.5" font-family="Helvetica,sans-Serif" font-size="10.00">ipsec.h</text>
</a>
</g>
</g>
<!-- Node6&#45;&gt;Node7 -->
<g id="edge6" class="edge">
<title>Node6&#45;&gt;Node7</title>
<path fill="none" stroke="midnightblue" d="M214.89,-114.09C276.99,-102.91 397.86,-81.16 450.71,-71.64"/>
<polygon fill="midnightblue" stroke="midnightblue" points="213.95,-110.7 204.72,-115.92 215.19,-117.59 213.95,-110.7"/>
</g>
<!-- Node8 -->
<g id="node8" class="node">
<title>Node8</title>
<g id="a_node8"><a xlink:href="ipsec_8h.html" target="_top" xlink:title=" ">
<polygon fill="white" stroke="black" points="451,-0.5 451,-19.5 502,-19.5 502,-0.5 451,-0.5"/>
<text text-anchor="middle" x="476.5" y="-7.5" font-family="Helvetica,sans-Serif" font-size="10.00">ipsec.h</text>
</a>
</g>
</g>
<!-- Node7&#45;&gt;Node8 -->
<g id="edge7" class="edge">
<title>Node7&#45;&gt;Node8</title>
<path fill="none" stroke="midnightblue" d="M476.5,-45.8C476.5,-36.91 476.5,-26.78 476.5,-19.75"/>
<polygon fill="midnightblue" stroke="midnightblue" points="473,-46.08 476.5,-56.08 480,-46.08 473,-46.08"/>
</g>
<!-- Node10 -->
<g id="node10" class="node">
<title>Node10</title>
<g id="a_node10"><a xlink:href="dma__types_8h.html" target="_top" xlink:title=" ">
<polygon fill="white" stroke="black" points="300.5,-448.5 300.5,-467.5 380.5,-467.5 380.5,-448.5 300.5,-448.5"/>
<text text-anchor="middle" x="340.5" y="-455.5" font-family="Helvetica,sans-Serif" font-size="10.00">dma_types.h</text>
</a>
</g>
</g>
<!-- Node9&#45;&gt;Node10 -->
<g id="edge9" class="edge">
<title>Node9&#45;&gt;Node10</title>
<path fill="none" stroke="midnightblue" d="M359.82,-494.98C354.9,-485.82 349.14,-475.09 345.2,-467.75"/>
<polygon fill="midnightblue" stroke="midnightblue" points="356.9,-496.93 364.71,-504.08 363.06,-493.62 356.9,-496.93"/>
</g>
<!-- Node11 -->
<g id="node11" class="node">
<title>Node11</title>
<g id="a_node11"><a xlink:href="spec_2dma_8h.html" target="_top" xlink:title=" ">
<polygon fill="white" stroke="black" points="148,-280.5 148,-299.5 195,-299.5 195,-280.5 148,-280.5"/>
<text text-anchor="middle" x="171.5" y="-287.5" font-family="Helvetica,sans-Serif" font-size="10.00">dma.h</text>
</a>
</g>
</g>
<!-- Node10&#45;&gt;Node11 -->
<g id="edge10" class="edge">
<title>Node10&#45;&gt;Node11</title>
<path fill="none" stroke="midnightblue" d="M323.03,-441.31C313.59,-432.76 301.8,-421.91 291.5,-412 248.65,-370.76 199.11,-319.69 179.8,-299.65"/>
<polygon fill="midnightblue" stroke="midnightblue" points="320.85,-444.06 330.61,-448.17 325.54,-438.87 320.85,-444.06"/>
</g>
<!-- Node13 -->
<g id="node13" class="node">
<title>Node13</title>
<g id="a_node13"><a xlink:href="spec_2pool__types_8h.html" target="_top" xlink:title=" ">
<polygon fill="white" stroke="black" points="301,-392.5 301,-411.5 380,-411.5 380,-392.5 301,-392.5"/>
<text text-anchor="middle" x="340.5" y="-399.5" font-family="Helvetica,sans-Serif" font-size="10.00">pool_types.h</text>
</a>
</g>
</g>
<!-- Node10&#45;&gt;Node13 -->
<g id="edge12" class="edge">
<title>Node10&#45;&gt;Node13</title>
<path fill="none" stroke="midnightblue" d="M340.5,-437.8C340.5,-428.91 340.5,-418.78 340.5,-411.75"/>
<polygon fill="midnightblue" stroke="midnightblue" points="337,-438.08 340.5,-448.08 344,-438.08 337,-438.08"/>
</g>
<!-- Node12 -->
<g id="node12" class="node">
<title>Node12</title>
<g id="a_node12"><a xlink:href="dma_8h.html" target="_top" xlink:title=" ">
<polygon fill="white" stroke="black" points="148,-224.5 148,-243.5 195,-243.5 195,-224.5 148,-224.5"/>
<text text-anchor="middle" x="171.5" y="-231.5" font-family="Helvetica,sans-Serif" font-size="10.00">dma.h</text>
</a>
</g>
</g>
<!-- Node11&#45;&gt;Node12 -->
<g id="edge11" class="edge">
<title>Node11&#45;&gt;Node12</title>
<path fill="none" stroke="midnightblue" d="M171.5,-269.8C171.5,-260.91 171.5,-250.78 171.5,-243.75"/>
<polygon fill="midnightblue" stroke="midnightblue" points="168,-270.08 171.5,-280.08 175,-270.08 168,-270.08"/>
</g>
<!-- Node14 -->
<g id="node14" class="node">
<title>Node14</title>
<g id="a_node14"><a xlink:href="pool__types_8h.html" target="_top" xlink:title=" ">
<polygon fill="white" stroke="black" points="301,-336.5 301,-355.5 380,-355.5 380,-336.5 301,-336.5"/>
<text text-anchor="middle" x="340.5" y="-343.5" font-family="Helvetica,sans-Serif" font-size="10.00">pool_types.h</text>
</a>
</g>
</g>
<!-- Node13&#45;&gt;Node14 -->
<g id="edge13" class="edge">
<title>Node13&#45;&gt;Node14</title>
<path fill="none" stroke="midnightblue" d="M340.5,-381.8C340.5,-372.91 340.5,-362.78 340.5,-355.75"/>
<polygon fill="midnightblue" stroke="midnightblue" points="337,-382.08 340.5,-392.08 344,-382.08 337,-382.08"/>
</g>
<!-- Node14&#45;&gt;Node5 -->
<g id="edge21" class="edge">
<title>Node14&#45;&gt;Node5</title>
<path fill="none" stroke="midnightblue" d="M290.75,-335.3C232.64,-323.97 138.51,-305.62 91.74,-296.51"/>
<polygon fill="midnightblue" stroke="midnightblue" points="290.33,-338.78 300.81,-337.26 291.67,-331.91 290.33,-338.78"/>
</g>
<!-- Node14&#45;&gt;Node11 -->
<g id="edge22" class="edge">
<title>Node14&#45;&gt;Node11</title>
<path fill="none" stroke="midnightblue" d="M303.99,-333.33C271,-322.79 223.41,-307.59 195.15,-298.56"/>
<polygon fill="midnightblue" stroke="midnightblue" points="303.13,-336.73 313.72,-336.44 305.26,-330.07 303.13,-336.73"/>
</g>
<!-- Node15 -->
<g id="node15" class="node">
<title>Node15</title>
<g id="a_node15"><a xlink:href="spec_2buffer_8h.html" target="_top" xlink:title=" ">
<polygon fill="white" stroke="black" points="347,-280.5 347,-299.5 400,-299.5 400,-280.5 347,-280.5"/>
<text text-anchor="middle" x="373.5" y="-287.5" font-family="Helvetica,sans-Serif" font-size="10.00">buffer.h</text>
</a>
</g>
</g>
<!-- Node14&#45;&gt;Node15 -->
<g id="edge14" class="edge">
<title>Node14&#45;&gt;Node15</title>
<path fill="none" stroke="midnightblue" d="M351.33,-327.27C356.97,-318.05 363.62,-307.17 368.15,-299.75"/>
<polygon fill="midnightblue" stroke="midnightblue" points="348.18,-325.73 345.95,-336.08 354.15,-329.38 348.18,-325.73"/>
</g>
<!-- Node17 -->
<g id="node17" class="node">
<title>Node17</title>
<g id="a_node17"><a xlink:href="spec_2classification_8h.html" target="_top" xlink:title=" ">
<polygon fill="white" stroke="black" points="578,-168.5 578,-187.5 667,-187.5 667,-168.5 578,-168.5"/>
<text text-anchor="middle" x="622.5" y="-175.5" font-family="Helvetica,sans-Serif" font-size="10.00">classification.h</text>
</a>
</g>
</g>
<!-- Node14&#45;&gt;Node17 -->
<g id="edge16" class="edge">
<title>Node14&#45;&gt;Node17</title>
<path fill="none" stroke="midnightblue" d="M377.16,-333.27C446.57,-310.75 591.69,-262.1 607.5,-244 621.52,-227.95 623.13,-201.39 622.93,-187.72"/>
<polygon fill="midnightblue" stroke="midnightblue" points="375.93,-329.99 367.49,-336.39 378.08,-336.65 375.93,-329.99"/>
</g>
<!-- Node14&#45;&gt;Node21 -->
<g id="edge23" class="edge">
<title>Node14&#45;&gt;Node21</title>
<path fill="none" stroke="midnightblue" d="M373.09,-331.9C386.6,-324.65 400.88,-314.18 408.5,-300 424.49,-270.25 423.1,-254.46 408.5,-224 400.58,-207.47 383.29,-195.08 370,-187.54"/>
<polygon fill="midnightblue" stroke="midnightblue" points="371.37,-328.84 363.95,-336.41 374.47,-335.12 371.37,-328.84"/>
</g>
<!-- Node14&#45;&gt;Node23 -->
<g id="edge25" class="edge">
<title>Node14&#45;&gt;Node23</title>
<path fill="none" stroke="midnightblue" d="M389.94,-334.77C439.21,-324.58 514,-309.1 560.19,-299.55"/>
<polygon fill="midnightblue" stroke="midnightblue" points="389.22,-331.35 380.14,-336.8 390.64,-338.2 389.22,-331.35"/>
</g>
<!-- Node27 -->
<g id="node27" class="node">
<title>Node27</title>
<g id="a_node27"><a xlink:href="spec_2pool_8h.html" target="_top" xlink:title=" ">
<polygon fill="white" stroke="black" points="282,-280.5 282,-299.5 329,-299.5 329,-280.5 282,-280.5"/>
<text text-anchor="middle" x="305.5" y="-287.5" font-family="Helvetica,sans-Serif" font-size="10.00">pool.h</text>
</a>
</g>
</g>
<!-- Node14&#45;&gt;Node27 -->
<g id="edge34" class="edge">
<title>Node14&#45;&gt;Node27</title>
<path fill="none" stroke="midnightblue" d="M329.2,-327.57C323.18,-318.27 316.03,-307.25 311.17,-299.75"/>
<polygon fill="midnightblue" stroke="midnightblue" points="326.34,-329.6 334.72,-336.08 332.22,-325.79 326.34,-329.6"/>
</g>
<!-- Node30 -->
<g id="node30" class="node">
<title>Node30</title>
<g id="a_node30"><a xlink:href="spec_2timer_8h.html" target="_top" xlink:title=" ">
<polygon fill="white" stroke="black" points="213,-280.5 213,-299.5 264,-299.5 264,-280.5 213,-280.5"/>
<text text-anchor="middle" x="238.5" y="-287.5" font-family="Helvetica,sans-Serif" font-size="10.00">timer.h</text>
</a>
</g>
</g>
<!-- Node14&#45;&gt;Node30 -->
<g id="edge37" class="edge">
<title>Node14&#45;&gt;Node30</title>
<path fill="none" stroke="midnightblue" d="M315.17,-331.59C296.31,-321.61 271.12,-308.27 254.85,-299.65"/>
<polygon fill="midnightblue" stroke="midnightblue" points="313.64,-334.74 324.11,-336.32 316.91,-328.55 313.64,-334.74"/>
</g>
<!-- Node16 -->
<g id="node16" class="node">
<title>Node16</title>
<g id="a_node16"><a xlink:href="buffer_8h.html" target="_top" xlink:title=" ">
<polygon fill="white" stroke="black" points="347,-224.5 347,-243.5 400,-243.5 400,-224.5 347,-224.5"/>
<text text-anchor="middle" x="373.5" y="-231.5" font-family="Helvetica,sans-Serif" font-size="10.00">buffer.h</text>
</a>
</g>
</g>
<!-- Node15&#45;&gt;Node16 -->
<g id="edge15" class="edge">
<title>Node15&#45;&gt;Node16</title>
<path fill="none" stroke="midnightblue" d="M373.5,-269.8C373.5,-260.91 373.5,-250.78 373.5,-243.75"/>
<polygon fill="midnightblue" stroke="midnightblue" points="370,-270.08 373.5,-280.08 377,-270.08 370,-270.08"/>
</g>
<!-- Node18 -->
<g id="node18" class="node">
<title>Node18</title>
<g id="a_node18"><a xlink:href="classification_8h.html" target="_top" xlink:title=" ">
<polygon fill="white" stroke="black" points="578,-112.5 578,-131.5 667,-131.5 667,-112.5 578,-112.5"/>
<text text-anchor="middle" x="622.5" y="-119.5" font-family="Helvetica,sans-Serif" font-size="10.00">classification.h</text>
</a>
</g>
</g>
<!-- Node17&#45;&gt;Node18 -->
<g id="edge17" class="edge">
<title>Node17&#45;&gt;Node18</title>
<path fill="none" stroke="midnightblue" d="M622.5,-157.8C622.5,-148.91 622.5,-138.78 622.5,-131.75"/>
<polygon fill="midnightblue" stroke="midnightblue" points="619,-158.08 622.5,-168.08 626,-158.08 619,-158.08"/>
</g>
<!-- Node18&#45;&gt;Node7 -->
<g id="edge18" class="edge">
<title>Node18&#45;&gt;Node7</title>
<path fill="none" stroke="midnightblue" d="M589.8,-108.91C562.35,-98.75 523.83,-84.51 499.53,-75.52"/>
<polygon fill="midnightblue" stroke="midnightblue" points="588.77,-112.26 599.37,-112.44 591.2,-105.69 588.77,-112.26"/>
</g>
<!-- Node18&#45;&gt;Node19 -->
<g id="edge19" class="edge">
<title>Node18&#45;&gt;Node19</title>
<path fill="none" stroke="midnightblue" d="M622.5,-101.8C622.5,-92.91 622.5,-82.78 622.5,-75.75"/>
<polygon fill="midnightblue" stroke="midnightblue" points="619,-102.08 622.5,-112.08 626,-102.08 619,-102.08"/>
</g>
<!-- Node20 -->
<g id="node20" class="node">
<title>Node20</title>
<g id="a_node20"><a xlink:href="packet__io_8h.html" target="_top" xlink:title=" ">
<polygon fill="white" stroke="black" points="586.5,-0.5 586.5,-19.5 658.5,-19.5 658.5,-0.5 586.5,-0.5"/>
<text text-anchor="middle" x="622.5" y="-7.5" font-family="Helvetica,sans-Serif" font-size="10.00">packet_io.h</text>
</a>
</g>
</g>
<!-- Node19&#45;&gt;Node20 -->
<g id="edge20" class="edge">
<title>Node19&#45;&gt;Node20</title>
<path fill="none" stroke="midnightblue" d="M622.5,-45.8C622.5,-36.91 622.5,-26.78 622.5,-19.75"/>
<polygon fill="midnightblue" stroke="midnightblue" points="619,-46.08 622.5,-56.08 626,-46.08 619,-46.08"/>
</g>
<!-- Node22 -->
<g id="node22" class="node">
<title>Node22</title>
<g id="a_node22"><a xlink:href="packet_8h.html" target="_top" xlink:title=" ">
<polygon fill="white" stroke="black" points="323.5,-112.5 323.5,-131.5 381.5,-131.5 381.5,-112.5 323.5,-112.5"/>
<text text-anchor="middle" x="352.5" y="-119.5" font-family="Helvetica,sans-Serif" font-size="10.00">packet.h</text>
</a>
</g>
</g>
<!-- Node21&#45;&gt;Node22 -->
<g id="edge24" class="edge">
<title>Node21&#45;&gt;Node22</title>
<path fill="none" stroke="midnightblue" d="M352.5,-157.8C352.5,-148.91 352.5,-138.78 352.5,-131.75"/>
<polygon fill="midnightblue" stroke="midnightblue" points="349,-158.08 352.5,-168.08 356,-158.08 349,-158.08"/>
</g>
<!-- Node24 -->
<g id="node24" class="node">
<title>Node24</title>
<g id="a_node24"><a xlink:href="packet__io__types_8h.html" target="_top" xlink:title=" ">
<polygon fill="white" stroke="black" points="494.5,-224.5 494.5,-243.5 598.5,-243.5 598.5,-224.5 494.5,-224.5"/>
<text text-anchor="middle" x="546.5" y="-231.5" font-family="Helvetica,sans-Serif" font-size="10.00">packet_io_types.h</text>
</a>
</g>
</g>
<!-- Node23&#45;&gt;Node24 -->
<g id="edge26" class="edge">
<title>Node23&#45;&gt;Node24</title>
<path fill="none" stroke="midnightblue" d="M585.21,-273C575.46,-263.43 563.45,-251.64 555.41,-243.75"/>
<polygon fill="midnightblue" stroke="midnightblue" points="582.83,-275.57 592.42,-280.08 587.73,-270.58 582.83,-275.57"/>
</g>
<!-- Node24&#45;&gt;Node7 -->
<g id="edge28" class="edge">
<title>Node24&#45;&gt;Node7</title>
<path fill="none" stroke="midnightblue" d="M538.85,-214.86C523.84,-179.25 491.03,-101.45 480.11,-75.57"/>
<polygon fill="midnightblue" stroke="midnightblue" points="535.63,-216.22 542.74,-224.08 542.08,-213.5 535.63,-216.22"/>
</g>
<!-- Node24&#45;&gt;Node17 -->
<g id="edge27" class="edge">
<title>Node24&#45;&gt;Node17</title>
<path fill="none" stroke="midnightblue" d="M567.08,-218.38C580.81,-208.62 598.43,-196.11 610.07,-187.83"/>
<polygon fill="midnightblue" stroke="midnightblue" points="564.84,-215.68 558.71,-224.32 568.89,-221.38 564.84,-215.68"/>
</g>
<!-- Node24&#45;&gt;Node19 -->
<g id="edge30" class="edge">
<title>Node24&#45;&gt;Node19</title>
<path fill="none" stroke="midnightblue" d="M546.06,-214.12C546.3,-189.09 549.65,-144.32 568.5,-112 577.72,-96.19 594.68,-83.46 607.14,-75.62"/>
<polygon fill="midnightblue" stroke="midnightblue" points="542.56,-214.43 546.13,-224.4 549.56,-214.38 542.56,-214.43"/>
</g>
<!-- Node24&#45;&gt;Node21 -->
<g id="edge29" class="edge">
<title>Node24&#45;&gt;Node21</title>
<path fill="none" stroke="midnightblue" d="M505.75,-221.66C468.55,-211.3 414.49,-196.25 381.51,-187.08"/>
<polygon fill="midnightblue" stroke="midnightblue" points="505.19,-225.13 515.76,-224.44 507.06,-218.39 505.19,-225.13"/>
</g>
<!-- Node25 -->
<g id="node25" class="node">
<title>Node25</title>
<g id="a_node25"><a xlink:href="spec_2traffic__mngr_8h.html" target="_top" xlink:title=" ">
<polygon fill="white" stroke="black" points="399.5,-168.5 399.5,-187.5 483.5,-187.5 483.5,-168.5 399.5,-168.5"/>
<text text-anchor="middle" x="441.5" y="-175.5" font-family="Helvetica,sans-Serif" font-size="10.00">traffic_mngr.h</text>
</a>
</g>
</g>
<!-- Node24&#45;&gt;Node25 -->
<g id="edge31" class="edge">
<title>Node24&#45;&gt;Node25</title>
<path fill="none" stroke="midnightblue" d="M520.69,-219.73C501.25,-209.73 475.15,-196.31 458.33,-187.65"/>
<polygon fill="midnightblue" stroke="midnightblue" points="519.14,-222.86 529.63,-224.32 522.34,-216.64 519.14,-222.86"/>
</g>
<!-- Node26 -->
<g id="node26" class="node">
<title>Node26</title>
<g id="a_node26"><a xlink:href="traffic__mngr_8h.html" target="_top" xlink:title=" ">
<polygon fill="white" stroke="black" points="399.5,-112.5 399.5,-131.5 483.5,-131.5 483.5,-112.5 399.5,-112.5"/>
<text text-anchor="middle" x="441.5" y="-119.5" font-family="Helvetica,sans-Serif" font-size="10.00">traffic_mngr.h</text>
</a>
</g>
</g>
<!-- Node25&#45;&gt;Node26 -->
<g id="edge32" class="edge">
<title>Node25&#45;&gt;Node26</title>
<path fill="none" stroke="midnightblue" d="M441.5,-157.8C441.5,-148.91 441.5,-138.78 441.5,-131.75"/>
<polygon fill="midnightblue" stroke="midnightblue" points="438,-158.08 441.5,-168.08 445,-158.08 438,-158.08"/>
</g>
<!-- Node26&#45;&gt;Node7 -->
<g id="edge33" class="edge">
<title>Node26&#45;&gt;Node7</title>
<path fill="none" stroke="midnightblue" d="M452.8,-103.57C458.82,-94.27 465.97,-83.25 470.83,-75.75"/>
<polygon fill="midnightblue" stroke="midnightblue" points="449.78,-101.79 447.28,-112.08 455.66,-105.6 449.78,-101.79"/>
</g>
<!-- Node28 -->
<g id="node28" class="node">
<title>Node28</title>
<g id="a_node28"><a xlink:href="pool_8h.html" target="_top" xlink:title=" ">
<polygon fill="white" stroke="black" points="282,-224.5 282,-243.5 329,-243.5 329,-224.5 282,-224.5"/>
<text text-anchor="middle" x="305.5" y="-231.5" font-family="Helvetica,sans-Serif" font-size="10.00">pool.h</text>
</a>
</g>
</g>
<!-- Node27&#45;&gt;Node28 -->
<g id="edge35" class="edge">
<title>Node27&#45;&gt;Node28</title>
<path fill="none" stroke="midnightblue" d="M305.5,-269.8C305.5,-260.91 305.5,-250.78 305.5,-243.75"/>
<polygon fill="midnightblue" stroke="midnightblue" points="302,-270.08 305.5,-280.08 309,-270.08 302,-270.08"/>
</g>
<!-- Node28&#45;&gt;Node29 -->
<g id="edge36" class="edge">
<title>Node28&#45;&gt;Node29</title>
<path fill="none" stroke="midnightblue" d="M280.42,-219.59C261.74,-209.61 236.8,-196.27 220.69,-187.65"/>
<polygon fill="midnightblue" stroke="midnightblue" points="278.8,-222.7 289.27,-224.32 282.1,-216.52 278.8,-222.7"/>
</g>
<!-- Node31 -->
<g id="node31" class="node">
<title>Node31</title>
<g id="a_node31"><a xlink:href="timer_8h.html" target="_top" xlink:title=" ">
<polygon fill="white" stroke="black" points="213,-224.5 213,-243.5 264,-243.5 264,-224.5 213,-224.5"/>
<text text-anchor="middle" x="238.5" y="-231.5" font-family="Helvetica,sans-Serif" font-size="10.00">timer.h</text>
</a>
</g>
</g>
<!-- Node30&#45;&gt;Node31 -->
<g id="edge38" class="edge">
<title>Node30&#45;&gt;Node31</title>
<path fill="none" stroke="midnightblue" d="M238.5,-269.8C238.5,-260.91 238.5,-250.78 238.5,-243.75"/>
<polygon fill="midnightblue" stroke="midnightblue" points="235,-270.08 238.5,-280.08 242,-270.08 235,-270.08"/>
</g>
<!-- Node33 -->
<g id="node33" class="node">
<title>Node33</title>
<g id="a_node33"><a xlink:href="event_8h.html" target="_top" xlink:title=" ">
<polygon fill="white" stroke="black" points="724,-448.5 724,-467.5 777,-467.5 777,-448.5 724,-448.5"/>
<text text-anchor="middle" x="750.5" y="-455.5" font-family="Helvetica,sans-Serif" font-size="10.00">event.h</text>
</a>
</g>
</g>
<!-- Node32&#45;&gt;Node33 -->
<g id="edge40" class="edge">
<title>Node32&#45;&gt;Node33</title>
<path fill="none" stroke="midnightblue" d="M750.5,-493.8C750.5,-484.91 750.5,-474.78 750.5,-467.75"/>
<polygon fill="midnightblue" stroke="midnightblue" points="747,-494.08 750.5,-504.08 754,-494.08 747,-494.08"/>
</g>
<!-- Node34 -->
<g id="node34" class="node">
<title>Node34</title>
<g id="a_node34"><a xlink:href="timer__inlines_8h_source.html" target="_top" xlink:title=" ">
<polygon fill="white" stroke="black" points="724,-392.5 724,-411.5 813,-411.5 813,-392.5 724,-392.5"/>
<text text-anchor="middle" x="768.5" y="-399.5" font-family="Helvetica,sans-Serif" font-size="10.00">timer_inlines.h</text>
</a>
</g>
</g>
<!-- Node33&#45;&gt;Node34 -->
<g id="edge41" class="edge">
<title>Node33&#45;&gt;Node34</title>
<path fill="none" stroke="midnightblue" d="M756.7,-438.4C759.71,-429.36 763.19,-418.94 765.58,-411.75"/>
<polygon fill="midnightblue" stroke="midnightblue" points="753.31,-437.49 753.47,-448.08 759.96,-439.7 753.31,-437.49"/>
</g>
<!-- Node36 -->
<g id="node36" class="node">
<title>Node36</title>
<g id="a_node36"><a xlink:href="packet__flags_8h.html" target="_top" xlink:title=" ">
<polygon fill="white" stroke="black" points="795.5,-448.5 795.5,-467.5 881.5,-467.5 881.5,-448.5 795.5,-448.5"/>
<text text-anchor="middle" x="838.5" y="-455.5" font-family="Helvetica,sans-Serif" font-size="10.00">packet_flags.h</text>
</a>
</g>
</g>
<!-- Node35&#45;&gt;Node36 -->
<g id="edge44" class="edge">
<title>Node35&#45;&gt;Node36</title>
<path fill="none" stroke="midnightblue" d="M838.5,-493.8C838.5,-484.91 838.5,-474.78 838.5,-467.75"/>
<polygon fill="midnightblue" stroke="midnightblue" points="835,-494.08 838.5,-504.08 842,-494.08 835,-494.08"/>
</g>
</g>
</svg>
