<?xml version="1.0" encoding="UTF-8" standalone="no"?>
<!DOCTYPE svg PUBLIC "-//W3C//DTD SVG 1.1//EN"
 "http://www.w3.org/Graphics/SVG/1.1/DTD/svg11.dtd">
<!-- Generated by graphviz version 2.43.0 (0)
 -->
<!-- Title: proto_stats_types.h Pages: 1 -->
<svg width="781pt" height="756pt"
 viewBox="0.00 0.00 781.00 756.00" xmlns="http://www.w3.org/2000/svg" xmlns:xlink="http://www.w3.org/1999/xlink">
<g id="graph0" class="graph" transform="scale(1 1) rotate(0) translate(4 752)">
<title>proto_stats_types.h</title>
<polygon fill="white" stroke="transparent" points="-4,4 -4,-752 777,-752 777,4 -4,4"/>
<!-- Node1 -->
<g id="node1" class="node">
<title>Node1</title>
<g id="a_node1"><a xlink:title=" ">
<polygon fill="#bfbfbf" stroke="black" points="371.5,-728.5 371.5,-747.5 484.5,-747.5 484.5,-728.5 371.5,-728.5"/>
<text text-anchor="middle" x="428" y="-735.5" font-family="Helvetica,sans-Serif" font-size="10.00">proto_stats_types.h</text>
</a>
</g>
</g>
<!-- Node2 -->
<g id="node2" class="node">
<title>Node2</title>
<g id="a_node2"><a xlink:href="proto__stats__types_8h.html" target="_top" xlink:title=" ">
<polygon fill="white" stroke="black" points="371.5,-672.5 371.5,-691.5 484.5,-691.5 484.5,-672.5 371.5,-672.5"/>
<text text-anchor="middle" x="428" y="-679.5" font-family="Helvetica,sans-Serif" font-size="10.00">proto_stats_types.h</text>
</a>
</g>
</g>
<!-- Node1&#45;&gt;Node2 -->
<g id="edge1" class="edge">
<title>Node1&#45;&gt;Node2</title>
<path fill="none" stroke="midnightblue" d="M428,-717.8C428,-708.91 428,-698.78 428,-691.75"/>
<polygon fill="midnightblue" stroke="midnightblue" points="424.5,-718.08 428,-728.08 431.5,-718.08 424.5,-718.08"/>
</g>
<!-- Node3 -->
<g id="node3" class="node">
<title>Node3</title>
<g id="a_node3"><a xlink:href="spec_2packet_8h.html" target="_top" xlink:title=" ">
<polygon fill="white" stroke="black" points="401,-168.5 401,-187.5 459,-187.5 459,-168.5 401,-168.5"/>
<text text-anchor="middle" x="430" y="-175.5" font-family="Helvetica,sans-Serif" font-size="10.00">packet.h</text>
</a>
</g>
</g>
<!-- Node2&#45;&gt;Node3 -->
<g id="edge2" class="edge">
<title>Node2&#45;&gt;Node3</title>
<path fill="none" stroke="midnightblue" d="M361.15,-675.94C249.7,-665.64 38,-637.34 38,-571 38,-571 38,-571 38,-289 38,-258.9 34.04,-243.46 57,-224 108.68,-180.18 322.13,-177.85 400.75,-178.52"/>
<polygon fill="midnightblue" stroke="midnightblue" points="361.02,-679.44 371.29,-676.85 361.64,-672.47 361.02,-679.44"/>
</g>
<!-- Node5 -->
<g id="node5" class="node">
<title>Node5</title>
<g id="a_node5"><a xlink:href="spec_2packet__types_8h.html" target="_top" xlink:title=" ">
<polygon fill="white" stroke="black" points="383,-616.5 383,-635.5 473,-635.5 473,-616.5 383,-616.5"/>
<text text-anchor="middle" x="428" y="-623.5" font-family="Helvetica,sans-Serif" font-size="10.00">packet_types.h</text>
</a>
</g>
</g>
<!-- Node2&#45;&gt;Node5 -->
<g id="edge4" class="edge">
<title>Node2&#45;&gt;Node5</title>
<path fill="none" stroke="midnightblue" d="M428,-661.8C428,-652.91 428,-642.78 428,-635.75"/>
<polygon fill="midnightblue" stroke="midnightblue" points="424.5,-662.08 428,-672.08 431.5,-662.08 424.5,-662.08"/>
</g>
<!-- Node39 -->
<g id="node39" class="node">
<title>Node39</title>
<g id="a_node39"><a xlink:href="spec_2proto__stats_8h.html" target="_top" xlink:title=" ">
<polygon fill="white" stroke="black" points="491,-616.5 491,-635.5 571,-635.5 571,-616.5 491,-616.5"/>
<text text-anchor="middle" x="531" y="-623.5" font-family="Helvetica,sans-Serif" font-size="10.00">proto_stats.h</text>
</a>
</g>
</g>
<!-- Node2&#45;&gt;Node39 -->
<g id="edge51" class="edge">
<title>Node2&#45;&gt;Node39</title>
<path fill="none" stroke="midnightblue" d="M453.58,-667.59C472.62,-657.61 498.06,-644.27 514.49,-635.65"/>
<polygon fill="midnightblue" stroke="midnightblue" points="451.78,-664.58 444.55,-672.32 455.03,-670.78 451.78,-664.58"/>
</g>
<!-- Node4 -->
<g id="node4" class="node">
<title>Node4</title>
<g id="a_node4"><a xlink:href="packet_8h.html" target="_top" xlink:title=" ">
<polygon fill="white" stroke="black" points="401,-112.5 401,-131.5 459,-131.5 459,-112.5 401,-112.5"/>
<text text-anchor="middle" x="430" y="-119.5" font-family="Helvetica,sans-Serif" font-size="10.00">packet.h</text>
</a>
</g>
</g>
<!-- Node3&#45;&gt;Node4 -->
<g id="edge3" class="edge">
<title>Node3&#45;&gt;Node4</title>
<path fill="none" stroke="midnightblue" d="M430,-157.8C430,-148.91 430,-138.78 430,-131.75"/>
<polygon fill="midnightblue" stroke="midnightblue" points="426.5,-158.08 430,-168.08 433.5,-158.08 426.5,-158.08"/>
</g>
<!-- Node6 -->
<g id="node6" class="node">
<title>Node6</title>
<g id="a_node6"><a xlink:href="packet__types_8h.html" target="_top" xlink:title=" ">
<polygon fill="white" stroke="black" points="383,-560.5 383,-579.5 473,-579.5 473,-560.5 383,-560.5"/>
<text text-anchor="middle" x="428" y="-567.5" font-family="Helvetica,sans-Serif" font-size="10.00">packet_types.h</text>
</a>
</g>
</g>
<!-- Node5&#45;&gt;Node6 -->
<g id="edge5" class="edge">
<title>Node5&#45;&gt;Node6</title>
<path fill="none" stroke="midnightblue" d="M428,-605.8C428,-596.91 428,-586.78 428,-579.75"/>
<polygon fill="midnightblue" stroke="midnightblue" points="424.5,-606.08 428,-616.08 431.5,-606.08 424.5,-606.08"/>
</g>
<!-- Node6&#45;&gt;Node3 -->
<g id="edge45" class="edge">
<title>Node6&#45;&gt;Node3</title>
<path fill="none" stroke="midnightblue" d="M429.96,-550.27C434.51,-504.25 445.04,-381.97 440,-280 438.31,-245.68 433.39,-205.04 431.14,-187.63"/>
<polygon fill="midnightblue" stroke="midnightblue" points="426.45,-550.18 428.92,-560.49 433.41,-550.89 426.45,-550.18"/>
</g>
<!-- Node7 -->
<g id="node7" class="node">
<title>Node7</title>
<g id="a_node7"><a xlink:href="spec_2comp_8h.html" target="_top" xlink:title=" ">
<polygon fill="white" stroke="black" points="229.5,-504.5 229.5,-523.5 282.5,-523.5 282.5,-504.5 229.5,-504.5"/>
<text text-anchor="middle" x="256" y="-511.5" font-family="Helvetica,sans-Serif" font-size="10.00">comp.h</text>
</a>
</g>
</g>
<!-- Node6&#45;&gt;Node7 -->
<g id="edge6" class="edge">
<title>Node6&#45;&gt;Node7</title>
<path fill="none" stroke="midnightblue" d="M391.11,-557.42C358.47,-547.17 311.64,-532.47 282.56,-523.34"/>
<polygon fill="midnightblue" stroke="midnightblue" points="390.16,-560.79 400.75,-560.44 392.25,-554.11 390.16,-560.79"/>
</g>
<!-- Node9 -->
<g id="node9" class="node">
<title>Node9</title>
<g id="a_node9"><a xlink:href="spec_2crypto_8h.html" target="_top" xlink:title=" ">
<polygon fill="white" stroke="black" points="375,-280.5 375,-299.5 431,-299.5 431,-280.5 375,-280.5"/>
<text text-anchor="middle" x="403" y="-287.5" font-family="Helvetica,sans-Serif" font-size="10.00">crypto.h</text>
</a>
</g>
</g>
<!-- Node6&#45;&gt;Node9 -->
<g id="edge8" class="edge">
<title>Node6&#45;&gt;Node9</title>
<path fill="none" stroke="midnightblue" d="M422.78,-550.39C417.16,-528.65 409,-491.51 409,-459 409,-459 409,-459 409,-401 409,-363.13 405.41,-318.04 403.78,-299.55"/>
<polygon fill="midnightblue" stroke="midnightblue" points="419.46,-551.5 425.44,-560.25 426.22,-549.68 419.46,-551.5"/>
</g>
<!-- Node13 -->
<g id="node13" class="node">
<title>Node13</title>
<g id="a_node13"><a xlink:href="spec_2dma__types_8h.html" target="_top" xlink:title=" ">
<polygon fill="white" stroke="black" points="301,-504.5 301,-523.5 381,-523.5 381,-504.5 301,-504.5"/>
<text text-anchor="middle" x="341" y="-511.5" font-family="Helvetica,sans-Serif" font-size="10.00">dma_types.h</text>
</a>
</g>
</g>
<!-- Node6&#45;&gt;Node13 -->
<g id="edge12" class="edge">
<title>Node6&#45;&gt;Node13</title>
<path fill="none" stroke="midnightblue" d="M405.28,-554.9C389.33,-545 368.5,-532.07 354.94,-523.65"/>
<polygon fill="midnightblue" stroke="midnightblue" points="403.68,-558.02 414.02,-560.32 407.37,-552.08 403.68,-558.02"/>
</g>
<!-- Node23 -->
<g id="node23" class="node">
<title>Node23</title>
<g id="a_node23"><a xlink:href="spec_2packet__io_8h.html" target="_top" xlink:title=" ">
<polygon fill="white" stroke="black" points="699,-56.5 699,-75.5 771,-75.5 771,-56.5 699,-56.5"/>
<text text-anchor="middle" x="735" y="-63.5" font-family="Helvetica,sans-Serif" font-size="10.00">packet_io.h</text>
</a>
</g>
</g>
<!-- Node6&#45;&gt;Node23 -->
<g id="edge48" class="edge">
<title>Node6&#45;&gt;Node23</title>
<path fill="none" stroke="midnightblue" d="M483.18,-559.46C547.28,-548.22 646.4,-530.27 663,-524 716.12,-503.92 773,-515.79 773,-459 773,-459 773,-459 773,-177 773,-137.4 750.73,-93.96 740.28,-75.77"/>
<polygon fill="midnightblue" stroke="midnightblue" points="482.46,-556.03 473.21,-561.2 483.67,-562.93 482.46,-556.03"/>
</g>
<!-- Node25 -->
<g id="node25" class="node">
<title>Node25</title>
<g id="a_node25"><a xlink:href="spec_2packet__io__types_8h.html" target="_top" xlink:title=" ">
<polygon fill="white" stroke="black" points="525,-280.5 525,-299.5 629,-299.5 629,-280.5 525,-280.5"/>
<text text-anchor="middle" x="577" y="-287.5" font-family="Helvetica,sans-Serif" font-size="10.00">packet_io_types.h</text>
</a>
</g>
</g>
<!-- Node6&#45;&gt;Node25 -->
<g id="edge49" class="edge">
<title>Node6&#45;&gt;Node25</title>
<path fill="none" stroke="midnightblue" d="M483.21,-558.85C544.64,-547.33 636.11,-529.45 642,-524 664.09,-503.55 661,-489.1 661,-459 661,-459 661,-459 661,-401 661,-354.86 613.75,-316.06 590.12,-299.54"/>
<polygon fill="midnightblue" stroke="midnightblue" points="482.44,-555.43 473.25,-560.71 483.73,-562.31 482.44,-555.43"/>
</g>
<!-- Node31 -->
<g id="node31" class="node">
<title>Node31</title>
<g id="a_node31"><a xlink:href="packet__inlines_8h.html" target="_top" xlink:title=" ">
<polygon fill="white" stroke="black" points="30.5,-168.5 30.5,-187.5 125.5,-187.5 125.5,-168.5 30.5,-168.5"/>
<text text-anchor="middle" x="78" y="-175.5" font-family="Helvetica,sans-Serif" font-size="10.00">packet_inlines.h</text>
</a>
</g>
</g>
<!-- Node6&#45;&gt;Node31 -->
<g id="edge50" class="edge">
<title>Node6&#45;&gt;Node31</title>
<path fill="none" stroke="midnightblue" d="M372.51,-565.54C256.72,-555.02 0,-512.96 0,-347 0,-347 0,-347 0,-289 0,-258.2 6.24,-249.15 24,-224 34.7,-208.85 51.73,-195.82 63.8,-187.74"/>
<polygon fill="midnightblue" stroke="midnightblue" points="372.34,-569.04 382.6,-566.41 372.94,-562.07 372.34,-569.04"/>
</g>
<!-- Node34 -->
<g id="node34" class="node">
<title>Node34</title>
<g id="a_node34"><a xlink:href="spec_2event_8h.html" target="_top" xlink:title=" ">
<polygon fill="white" stroke="black" points="475.5,-504.5 475.5,-523.5 528.5,-523.5 528.5,-504.5 475.5,-504.5"/>
<text text-anchor="middle" x="502" y="-511.5" font-family="Helvetica,sans-Serif" font-size="10.00">event.h</text>
</a>
</g>
</g>
<!-- Node6&#45;&gt;Node34 -->
<g id="edge42" class="edge">
<title>Node6&#45;&gt;Node34</title>
<path fill="none" stroke="midnightblue" d="M448.03,-554.38C461.41,-544.62 478.56,-532.11 489.89,-523.83"/>
<polygon fill="midnightblue" stroke="midnightblue" points="445.9,-551.6 439.89,-560.32 450.03,-557.26 445.9,-551.6"/>
</g>
<!-- Node37 -->
<g id="node37" class="node">
<title>Node37</title>
<g id="a_node37"><a xlink:href="spec_2packet__flags_8h.html" target="_top" xlink:title=" ">
<polygon fill="white" stroke="black" points="547,-504.5 547,-523.5 633,-523.5 633,-504.5 547,-504.5"/>
<text text-anchor="middle" x="590" y="-511.5" font-family="Helvetica,sans-Serif" font-size="10.00">packet_flags.h</text>
</a>
</g>
</g>
<!-- Node6&#45;&gt;Node37 -->
<g id="edge46" class="edge">
<title>Node6&#45;&gt;Node37</title>
<path fill="none" stroke="midnightblue" d="M463.48,-557.17C493.99,-547 537.24,-532.59 564.45,-523.52"/>
<polygon fill="midnightblue" stroke="midnightblue" points="462.05,-553.96 453.67,-560.44 464.26,-560.6 462.05,-553.96"/>
</g>
<!-- Node8 -->
<g id="node8" class="node">
<title>Node8</title>
<g id="a_node8"><a xlink:href="comp_8h.html" target="_top" xlink:title=" ">
<polygon fill="white" stroke="black" points="229.5,-448.5 229.5,-467.5 282.5,-467.5 282.5,-448.5 229.5,-448.5"/>
<text text-anchor="middle" x="256" y="-455.5" font-family="Helvetica,sans-Serif" font-size="10.00">comp.h</text>
</a>
</g>
</g>
<!-- Node7&#45;&gt;Node8 -->
<g id="edge7" class="edge">
<title>Node7&#45;&gt;Node8</title>
<path fill="none" stroke="midnightblue" d="M256,-493.8C256,-484.91 256,-474.78 256,-467.75"/>
<polygon fill="midnightblue" stroke="midnightblue" points="252.5,-494.08 256,-504.08 259.5,-494.08 252.5,-494.08"/>
</g>
<!-- Node10 -->
<g id="node10" class="node">
<title>Node10</title>
<g id="a_node10"><a xlink:href="crypto_8h.html" target="_top" xlink:title=" ">
<polygon fill="white" stroke="black" points="327,-112.5 327,-131.5 383,-131.5 383,-112.5 327,-112.5"/>
<text text-anchor="middle" x="355" y="-119.5" font-family="Helvetica,sans-Serif" font-size="10.00">crypto.h</text>
</a>
</g>
</g>
<!-- Node9&#45;&gt;Node10 -->
<g id="edge9" class="edge">
<title>Node9&#45;&gt;Node10</title>
<path fill="none" stroke="midnightblue" d="M397.62,-270.39C387.27,-234.59 364.93,-157.34 357.48,-131.57"/>
<polygon fill="midnightblue" stroke="midnightblue" points="394.28,-271.44 400.42,-280.08 401,-269.5 394.28,-271.44"/>
</g>
<!-- Node11 -->
<g id="node11" class="node">
<title>Node11</title>
<g id="a_node11"><a xlink:href="spec_2ipsec_8h.html" target="_top" xlink:title=" ">
<polygon fill="white" stroke="black" points="528.5,-56.5 528.5,-75.5 579.5,-75.5 579.5,-56.5 528.5,-56.5"/>
<text text-anchor="middle" x="554" y="-63.5" font-family="Helvetica,sans-Serif" font-size="10.00">ipsec.h</text>
</a>
</g>
</g>
<!-- Node10&#45;&gt;Node11 -->
<g id="edge10" class="edge">
<title>Node10&#45;&gt;Node11</title>
<path fill="none" stroke="midnightblue" d="M392.93,-110.71C432.63,-99.93 493.86,-83.32 528.26,-73.98"/>
<polygon fill="midnightblue" stroke="midnightblue" points="391.82,-107.38 383.09,-113.38 393.66,-114.14 391.82,-107.38"/>
</g>
<!-- Node12 -->
<g id="node12" class="node">
<title>Node12</title>
<g id="a_node12"><a xlink:href="ipsec_8h.html" target="_top" xlink:title=" ">
<polygon fill="white" stroke="black" points="528.5,-0.5 528.5,-19.5 579.5,-19.5 579.5,-0.5 528.5,-0.5"/>
<text text-anchor="middle" x="554" y="-7.5" font-family="Helvetica,sans-Serif" font-size="10.00">ipsec.h</text>
</a>
</g>
</g>
<!-- Node11&#45;&gt;Node12 -->
<g id="edge11" class="edge">
<title>Node11&#45;&gt;Node12</title>
<path fill="none" stroke="midnightblue" d="M554,-45.8C554,-36.91 554,-26.78 554,-19.75"/>
<polygon fill="midnightblue" stroke="midnightblue" points="550.5,-46.08 554,-56.08 557.5,-46.08 550.5,-46.08"/>
</g>
<!-- Node14 -->
<g id="node14" class="node">
<title>Node14</title>
<g id="a_node14"><a xlink:href="dma__types_8h.html" target="_top" xlink:title=" ">
<polygon fill="white" stroke="black" points="301,-448.5 301,-467.5 381,-467.5 381,-448.5 301,-448.5"/>
<text text-anchor="middle" x="341" y="-455.5" font-family="Helvetica,sans-Serif" font-size="10.00">dma_types.h</text>
</a>
</g>
</g>
<!-- Node13&#45;&gt;Node14 -->
<g id="edge13" class="edge">
<title>Node13&#45;&gt;Node14</title>
<path fill="none" stroke="midnightblue" d="M341,-493.8C341,-484.91 341,-474.78 341,-467.75"/>
<polygon fill="midnightblue" stroke="midnightblue" points="337.5,-494.08 341,-504.08 344.5,-494.08 337.5,-494.08"/>
</g>
<!-- Node15 -->
<g id="node15" class="node">
<title>Node15</title>
<g id="a_node15"><a xlink:href="spec_2dma_8h.html" target="_top" xlink:title=" ">
<polygon fill="white" stroke="black" points="66.5,-280.5 66.5,-299.5 113.5,-299.5 113.5,-280.5 66.5,-280.5"/>
<text text-anchor="middle" x="90" y="-287.5" font-family="Helvetica,sans-Serif" font-size="10.00">dma.h</text>
</a>
</g>
</g>
<!-- Node14&#45;&gt;Node15 -->
<g id="edge14" class="edge">
<title>Node14&#45;&gt;Node15</title>
<path fill="none" stroke="midnightblue" d="M319.29,-442.65C268.61,-409.12 143.66,-326.49 103.01,-299.61"/>
<polygon fill="midnightblue" stroke="midnightblue" points="317.59,-445.71 327.86,-448.31 321.45,-439.87 317.59,-445.71"/>
</g>
<!-- Node17 -->
<g id="node17" class="node">
<title>Node17</title>
<g id="a_node17"><a xlink:href="spec_2pool__types_8h.html" target="_top" xlink:title=" ">
<polygon fill="white" stroke="black" points="301.5,-392.5 301.5,-411.5 380.5,-411.5 380.5,-392.5 301.5,-392.5"/>
<text text-anchor="middle" x="341" y="-399.5" font-family="Helvetica,sans-Serif" font-size="10.00">pool_types.h</text>
</a>
</g>
</g>
<!-- Node14&#45;&gt;Node17 -->
<g id="edge16" class="edge">
<title>Node14&#45;&gt;Node17</title>
<path fill="none" stroke="midnightblue" d="M341,-437.8C341,-428.91 341,-418.78 341,-411.75"/>
<polygon fill="midnightblue" stroke="midnightblue" points="337.5,-438.08 341,-448.08 344.5,-438.08 337.5,-438.08"/>
</g>
<!-- Node16 -->
<g id="node16" class="node">
<title>Node16</title>
<g id="a_node16"><a xlink:href="dma_8h.html" target="_top" xlink:title=" ">
<polygon fill="white" stroke="black" points="66.5,-224.5 66.5,-243.5 113.5,-243.5 113.5,-224.5 66.5,-224.5"/>
<text text-anchor="middle" x="90" y="-231.5" font-family="Helvetica,sans-Serif" font-size="10.00">dma.h</text>
</a>
</g>
</g>
<!-- Node15&#45;&gt;Node16 -->
<g id="edge15" class="edge">
<title>Node15&#45;&gt;Node16</title>
<path fill="none" stroke="midnightblue" d="M90,-269.8C90,-260.91 90,-250.78 90,-243.75"/>
<polygon fill="midnightblue" stroke="midnightblue" points="86.5,-270.08 90,-280.08 93.5,-270.08 86.5,-270.08"/>
</g>
<!-- Node18 -->
<g id="node18" class="node">
<title>Node18</title>
<g id="a_node18"><a xlink:href="pool__types_8h.html" target="_top" xlink:title=" ">
<polygon fill="white" stroke="black" points="301.5,-336.5 301.5,-355.5 380.5,-355.5 380.5,-336.5 301.5,-336.5"/>
<text text-anchor="middle" x="341" y="-343.5" font-family="Helvetica,sans-Serif" font-size="10.00">pool_types.h</text>
</a>
</g>
</g>
<!-- Node17&#45;&gt;Node18 -->
<g id="edge17" class="edge">
<title>Node17&#45;&gt;Node18</title>
<path fill="none" stroke="midnightblue" d="M341,-381.8C341,-372.91 341,-362.78 341,-355.75"/>
<polygon fill="midnightblue" stroke="midnightblue" points="337.5,-382.08 341,-392.08 344.5,-382.08 337.5,-382.08"/>
</g>
<!-- Node18&#45;&gt;Node3 -->
<g id="edge27" class="edge">
<title>Node18&#45;&gt;Node3</title>
<path fill="none" stroke="midnightblue" d="M347,-326.55C351.57,-313.31 358.36,-295.19 366,-280 384.09,-244.02 411.52,-204.57 423.74,-187.57"/>
<polygon fill="midnightblue" stroke="midnightblue" points="343.57,-325.76 343.72,-336.36 350.21,-327.99 343.57,-325.76"/>
</g>
<!-- Node18&#45;&gt;Node9 -->
<g id="edge25" class="edge">
<title>Node18&#45;&gt;Node9</title>
<path fill="none" stroke="midnightblue" d="M358.75,-329.54C369.81,-319.91 383.63,-307.87 392.86,-299.83"/>
<polygon fill="midnightblue" stroke="midnightblue" points="356.2,-327.12 350.96,-336.32 360.8,-332.4 356.2,-327.12"/>
</g>
<!-- Node18&#45;&gt;Node15 -->
<g id="edge26" class="edge">
<title>Node18&#45;&gt;Node15</title>
<path fill="none" stroke="midnightblue" d="M291.26,-335.83C246.73,-327.37 179.74,-314.03 122,-300 119.31,-299.35 116.5,-298.62 113.72,-297.87"/>
<polygon fill="midnightblue" stroke="midnightblue" points="290.77,-339.3 301.25,-337.72 292.07,-332.42 290.77,-339.3"/>
</g>
<!-- Node19 -->
<g id="node19" class="node">
<title>Node19</title>
<g id="a_node19"><a xlink:href="spec_2buffer_8h.html" target="_top" xlink:title=" ">
<polygon fill="white" stroke="black" points="196.5,-280.5 196.5,-299.5 249.5,-299.5 249.5,-280.5 196.5,-280.5"/>
<text text-anchor="middle" x="223" y="-287.5" font-family="Helvetica,sans-Serif" font-size="10.00">buffer.h</text>
</a>
</g>
</g>
<!-- Node18&#45;&gt;Node19 -->
<g id="edge18" class="edge">
<title>Node18&#45;&gt;Node19</title>
<path fill="none" stroke="midnightblue" d="M313.1,-332.23C291.03,-322.13 260.82,-308.31 241.61,-299.52"/>
<polygon fill="midnightblue" stroke="midnightblue" points="311.75,-335.46 322.3,-336.44 314.67,-329.1 311.75,-335.46"/>
</g>
<!-- Node21 -->
<g id="node21" class="node">
<title>Node21</title>
<g id="a_node21"><a xlink:href="spec_2classification_8h.html" target="_top" xlink:title=" ">
<polygon fill="white" stroke="black" points="655.5,-168.5 655.5,-187.5 744.5,-187.5 744.5,-168.5 655.5,-168.5"/>
<text text-anchor="middle" x="700" y="-175.5" font-family="Helvetica,sans-Serif" font-size="10.00">classification.h</text>
</a>
</g>
</g>
<!-- Node18&#45;&gt;Node21 -->
<g id="edge20" class="edge">
<title>Node18&#45;&gt;Node21</title>
<path fill="none" stroke="midnightblue" d="M372.26,-332.65C407.09,-319.06 465.2,-296.91 516,-280 569.64,-262.15 589.74,-273.45 638,-244 662.76,-228.89 684.27,-201.42 694.18,-187.53"/>
<polygon fill="midnightblue" stroke="midnightblue" points="370.69,-329.5 362.66,-336.41 373.24,-336.02 370.69,-329.5"/>
</g>
<!-- Node18&#45;&gt;Node25 -->
<g id="edge28" class="edge">
<title>Node18&#45;&gt;Node25</title>
<path fill="none" stroke="midnightblue" d="M388.41,-334.15C433,-323.95 498.85,-308.88 539.78,-299.52"/>
<polygon fill="midnightblue" stroke="midnightblue" points="387.36,-330.8 378.39,-336.44 388.92,-337.62 387.36,-330.8"/>
</g>
<!-- Node29 -->
<g id="node29" class="node">
<title>Node29</title>
<g id="a_node29"><a xlink:href="spec_2pool_8h.html" target="_top" xlink:title=" ">
<polygon fill="white" stroke="black" points="131.5,-280.5 131.5,-299.5 178.5,-299.5 178.5,-280.5 131.5,-280.5"/>
<text text-anchor="middle" x="155" y="-287.5" font-family="Helvetica,sans-Serif" font-size="10.00">pool.h</text>
</a>
</g>
</g>
<!-- Node18&#45;&gt;Node29 -->
<g id="edge37" class="edge">
<title>Node18&#45;&gt;Node29</title>
<path fill="none" stroke="midnightblue" d="M301.52,-333.54C264.28,-322.73 209.68,-306.88 178.73,-297.89"/>
<polygon fill="midnightblue" stroke="midnightblue" points="300.95,-337.02 311.53,-336.44 302.9,-330.29 300.95,-337.02"/>
</g>
<!-- Node32 -->
<g id="node32" class="node">
<title>Node32</title>
<g id="a_node32"><a xlink:href="spec_2timer_8h.html" target="_top" xlink:title=" ">
<polygon fill="white" stroke="black" points="267.5,-280.5 267.5,-299.5 318.5,-299.5 318.5,-280.5 267.5,-280.5"/>
<text text-anchor="middle" x="293" y="-287.5" font-family="Helvetica,sans-Serif" font-size="10.00">timer.h</text>
</a>
</g>
</g>
<!-- Node18&#45;&gt;Node32 -->
<g id="edge40" class="edge">
<title>Node18&#45;&gt;Node32</title>
<path fill="none" stroke="midnightblue" d="M326.27,-328.43C317.86,-318.97 307.65,-307.48 300.78,-299.75"/>
<polygon fill="midnightblue" stroke="midnightblue" points="323.81,-330.93 333.07,-336.08 329.05,-326.28 323.81,-330.93"/>
</g>
<!-- Node20 -->
<g id="node20" class="node">
<title>Node20</title>
<g id="a_node20"><a xlink:href="buffer_8h.html" target="_top" xlink:title=" ">
<polygon fill="white" stroke="black" points="196.5,-224.5 196.5,-243.5 249.5,-243.5 249.5,-224.5 196.5,-224.5"/>
<text text-anchor="middle" x="223" y="-231.5" font-family="Helvetica,sans-Serif" font-size="10.00">buffer.h</text>
</a>
</g>
</g>
<!-- Node19&#45;&gt;Node20 -->
<g id="edge19" class="edge">
<title>Node19&#45;&gt;Node20</title>
<path fill="none" stroke="midnightblue" d="M223,-269.8C223,-260.91 223,-250.78 223,-243.75"/>
<polygon fill="midnightblue" stroke="midnightblue" points="219.5,-270.08 223,-280.08 226.5,-270.08 219.5,-270.08"/>
</g>
<!-- Node22 -->
<g id="node22" class="node">
<title>Node22</title>
<g id="a_node22"><a xlink:href="classification_8h.html" target="_top" xlink:title=" ">
<polygon fill="white" stroke="black" points="617.5,-112.5 617.5,-131.5 706.5,-131.5 706.5,-112.5 617.5,-112.5"/>
<text text-anchor="middle" x="662" y="-119.5" font-family="Helvetica,sans-Serif" font-size="10.00">classification.h</text>
</a>
</g>
</g>
<!-- Node21&#45;&gt;Node22 -->
<g id="edge21" class="edge">
<title>Node21&#45;&gt;Node22</title>
<path fill="none" stroke="midnightblue" d="M687.94,-159.86C681.36,-150.5 673.49,-139.33 668.16,-131.75"/>
<polygon fill="midnightblue" stroke="midnightblue" points="685.11,-161.92 693.73,-168.08 690.83,-157.89 685.11,-161.92"/>
</g>
<!-- Node22&#45;&gt;Node11 -->
<g id="edge22" class="edge">
<title>Node22&#45;&gt;Node11</title>
<path fill="none" stroke="midnightblue" d="M635.45,-107.73C615.45,-97.73 588.61,-84.31 571.31,-75.65"/>
<polygon fill="midnightblue" stroke="midnightblue" points="634.14,-110.98 644.65,-112.32 637.27,-104.72 634.14,-110.98"/>
</g>
<!-- Node22&#45;&gt;Node23 -->
<g id="edge23" class="edge">
<title>Node22&#45;&gt;Node23</title>
<path fill="none" stroke="midnightblue" d="M682.14,-106.1C695.28,-96.38 711.98,-84.03 723.06,-75.83"/>
<polygon fill="midnightblue" stroke="midnightblue" points="679.69,-103.56 673.73,-112.32 683.85,-109.19 679.69,-103.56"/>
</g>
<!-- Node24 -->
<g id="node24" class="node">
<title>Node24</title>
<g id="a_node24"><a xlink:href="packet__io_8h.html" target="_top" xlink:title=" ">
<polygon fill="white" stroke="black" points="699,-0.5 699,-19.5 771,-19.5 771,-0.5 699,-0.5"/>
<text text-anchor="middle" x="735" y="-7.5" font-family="Helvetica,sans-Serif" font-size="10.00">packet_io.h</text>
</a>
</g>
</g>
<!-- Node23&#45;&gt;Node24 -->
<g id="edge24" class="edge">
<title>Node23&#45;&gt;Node24</title>
<path fill="none" stroke="midnightblue" d="M735,-45.8C735,-36.91 735,-26.78 735,-19.75"/>
<polygon fill="midnightblue" stroke="midnightblue" points="731.5,-46.08 735,-56.08 738.5,-46.08 731.5,-46.08"/>
</g>
<!-- Node26 -->
<g id="node26" class="node">
<title>Node26</title>
<g id="a_node26"><a xlink:href="packet__io__types_8h.html" target="_top" xlink:title=" ">
<polygon fill="white" stroke="black" points="525,-224.5 525,-243.5 629,-243.5 629,-224.5 525,-224.5"/>
<text text-anchor="middle" x="577" y="-231.5" font-family="Helvetica,sans-Serif" font-size="10.00">packet_io_types.h</text>
</a>
</g>
</g>
<!-- Node25&#45;&gt;Node26 -->
<g id="edge29" class="edge">
<title>Node25&#45;&gt;Node26</title>
<path fill="none" stroke="midnightblue" d="M577,-269.8C577,-260.91 577,-250.78 577,-243.75"/>
<polygon fill="midnightblue" stroke="midnightblue" points="573.5,-270.08 577,-280.08 580.5,-270.08 573.5,-270.08"/>
</g>
<!-- Node26&#45;&gt;Node3 -->
<g id="edge32" class="edge">
<title>Node26&#45;&gt;Node3</title>
<path fill="none" stroke="midnightblue" d="M544.08,-220.91C516.44,-210.75 477.66,-196.51 453.18,-187.52"/>
<polygon fill="midnightblue" stroke="midnightblue" points="543.11,-224.28 553.71,-224.44 545.53,-217.71 543.11,-224.28"/>
</g>
<!-- Node26&#45;&gt;Node11 -->
<g id="edge31" class="edge">
<title>Node26&#45;&gt;Node11</title>
<path fill="none" stroke="midnightblue" d="M577.55,-214.23C577.88,-190.26 577.21,-147.62 570,-112 567.37,-99 561.78,-84.67 557.95,-75.75"/>
<polygon fill="midnightblue" stroke="midnightblue" points="574.05,-214.31 577.33,-224.38 581.04,-214.46 574.05,-214.31"/>
</g>
<!-- Node26&#45;&gt;Node21 -->
<g id="edge30" class="edge">
<title>Node26&#45;&gt;Node21</title>
<path fill="none" stroke="midnightblue" d="M605.77,-220.37C628.81,-210.26 660.48,-196.35 680.6,-187.52"/>
<polygon fill="midnightblue" stroke="midnightblue" points="604.24,-217.22 596.49,-224.44 607.05,-223.63 604.24,-217.22"/>
</g>
<!-- Node26&#45;&gt;Node23 -->
<g id="edge33" class="edge">
<title>Node26&#45;&gt;Node23</title>
<path fill="none" stroke="midnightblue" d="M592.04,-216.77C605.55,-202.76 626.39,-182.55 647,-168 675.26,-148.05 694.06,-158.74 716,-132 729.72,-115.28 733.53,-89.01 734.59,-75.56"/>
<polygon fill="midnightblue" stroke="midnightblue" points="589.32,-214.54 584.98,-224.21 594.4,-219.36 589.32,-214.54"/>
</g>
<!-- Node27 -->
<g id="node27" class="node">
<title>Node27</title>
<g id="a_node27"><a xlink:href="spec_2traffic__mngr_8h.html" target="_top" xlink:title=" ">
<polygon fill="white" stroke="black" points="477,-168.5 477,-187.5 561,-187.5 561,-168.5 477,-168.5"/>
<text text-anchor="middle" x="519" y="-175.5" font-family="Helvetica,sans-Serif" font-size="10.00">traffic_mngr.h</text>
</a>
</g>
</g>
<!-- Node26&#45;&gt;Node27 -->
<g id="edge34" class="edge">
<title>Node26&#45;&gt;Node27</title>
<path fill="none" stroke="midnightblue" d="M560.09,-217.25C549.8,-207.67 537.03,-195.79 528.49,-187.83"/>
<polygon fill="midnightblue" stroke="midnightblue" points="557.98,-220.07 567.68,-224.32 562.75,-214.95 557.98,-220.07"/>
</g>
<!-- Node28 -->
<g id="node28" class="node">
<title>Node28</title>
<g id="a_node28"><a xlink:href="traffic__mngr_8h.html" target="_top" xlink:title=" ">
<polygon fill="white" stroke="black" points="477,-112.5 477,-131.5 561,-131.5 561,-112.5 477,-112.5"/>
<text text-anchor="middle" x="519" y="-119.5" font-family="Helvetica,sans-Serif" font-size="10.00">traffic_mngr.h</text>
</a>
</g>
</g>
<!-- Node27&#45;&gt;Node28 -->
<g id="edge35" class="edge">
<title>Node27&#45;&gt;Node28</title>
<path fill="none" stroke="midnightblue" d="M519,-157.8C519,-148.91 519,-138.78 519,-131.75"/>
<polygon fill="midnightblue" stroke="midnightblue" points="515.5,-158.08 519,-168.08 522.5,-158.08 515.5,-158.08"/>
</g>
<!-- Node28&#45;&gt;Node11 -->
<g id="edge36" class="edge">
<title>Node28&#45;&gt;Node11</title>
<path fill="none" stroke="midnightblue" d="M530.3,-103.57C536.32,-94.27 543.47,-83.25 548.33,-75.75"/>
<polygon fill="midnightblue" stroke="midnightblue" points="527.28,-101.79 524.78,-112.08 533.16,-105.6 527.28,-101.79"/>
</g>
<!-- Node30 -->
<g id="node30" class="node">
<title>Node30</title>
<g id="a_node30"><a xlink:href="pool_8h.html" target="_top" xlink:title=" ">
<polygon fill="white" stroke="black" points="131.5,-224.5 131.5,-243.5 178.5,-243.5 178.5,-224.5 131.5,-224.5"/>
<text text-anchor="middle" x="155" y="-231.5" font-family="Helvetica,sans-Serif" font-size="10.00">pool.h</text>
</a>
</g>
</g>
<!-- Node29&#45;&gt;Node30 -->
<g id="edge38" class="edge">
<title>Node29&#45;&gt;Node30</title>
<path fill="none" stroke="midnightblue" d="M155,-269.8C155,-260.91 155,-250.78 155,-243.75"/>
<polygon fill="midnightblue" stroke="midnightblue" points="151.5,-270.08 155,-280.08 158.5,-270.08 151.5,-270.08"/>
</g>
<!-- Node30&#45;&gt;Node31 -->
<g id="edge39" class="edge">
<title>Node30&#45;&gt;Node31</title>
<path fill="none" stroke="midnightblue" d="M134.1,-218.34C120.09,-208.52 102.12,-195.91 90.34,-187.65"/>
<polygon fill="midnightblue" stroke="midnightblue" points="132.43,-221.45 142.63,-224.32 136.45,-215.72 132.43,-221.45"/>
</g>
<!-- Node33 -->
<g id="node33" class="node">
<title>Node33</title>
<g id="a_node33"><a xlink:href="timer_8h.html" target="_top" xlink:title=" ">
<polygon fill="white" stroke="black" points="267.5,-224.5 267.5,-243.5 318.5,-243.5 318.5,-224.5 267.5,-224.5"/>
<text text-anchor="middle" x="293" y="-231.5" font-family="Helvetica,sans-Serif" font-size="10.00">timer.h</text>
</a>
</g>
</g>
<!-- Node32&#45;&gt;Node33 -->
<g id="edge41" class="edge">
<title>Node32&#45;&gt;Node33</title>
<path fill="none" stroke="midnightblue" d="M293,-269.8C293,-260.91 293,-250.78 293,-243.75"/>
<polygon fill="midnightblue" stroke="midnightblue" points="289.5,-270.08 293,-280.08 296.5,-270.08 289.5,-270.08"/>
</g>
<!-- Node35 -->
<g id="node35" class="node">
<title>Node35</title>
<g id="a_node35"><a xlink:href="event_8h.html" target="_top" xlink:title=" ">
<polygon fill="white" stroke="black" points="475.5,-448.5 475.5,-467.5 528.5,-467.5 528.5,-448.5 475.5,-448.5"/>
<text text-anchor="middle" x="502" y="-455.5" font-family="Helvetica,sans-Serif" font-size="10.00">event.h</text>
</a>
</g>
</g>
<!-- Node34&#45;&gt;Node35 -->
<g id="edge43" class="edge">
<title>Node34&#45;&gt;Node35</title>
<path fill="none" stroke="midnightblue" d="M502,-493.8C502,-484.91 502,-474.78 502,-467.75"/>
<polygon fill="midnightblue" stroke="midnightblue" points="498.5,-494.08 502,-504.08 505.5,-494.08 498.5,-494.08"/>
</g>
<!-- Node36 -->
<g id="node36" class="node">
<title>Node36</title>
<g id="a_node36"><a xlink:href="timer__inlines_8h_source.html" target="_top" xlink:title=" ">
<polygon fill="white" stroke="black" points="475.5,-392.5 475.5,-411.5 564.5,-411.5 564.5,-392.5 475.5,-392.5"/>
<text text-anchor="middle" x="520" y="-399.5" font-family="Helvetica,sans-Serif" font-size="10.00">timer_inlines.h</text>
</a>
</g>
</g>
<!-- Node35&#45;&gt;Node36 -->
<g id="edge44" class="edge">
<title>Node35&#45;&gt;Node36</title>
<path fill="none" stroke="midnightblue" d="M508.2,-438.4C511.21,-429.36 514.69,-418.94 517.08,-411.75"/>
<polygon fill="midnightblue" stroke="midnightblue" points="504.81,-437.49 504.97,-448.08 511.46,-439.7 504.81,-437.49"/>
</g>
<!-- Node38 -->
<g id="node38" class="node">
<title>Node38</title>
<g id="a_node38"><a xlink:href="packet__flags_8h.html" target="_top" xlink:title=" ">
<polygon fill="white" stroke="black" points="547,-448.5 547,-467.5 633,-467.5 633,-448.5 547,-448.5"/>
<text text-anchor="middle" x="590" y="-455.5" font-family="Helvetica,sans-Serif" font-size="10.00">packet_flags.h</text>
</a>
</g>
</g>
<!-- Node37&#45;&gt;Node38 -->
<g id="edge47" class="edge">
<title>Node37&#45;&gt;Node38</title>
<path fill="none" stroke="midnightblue" d="M590,-493.8C590,-484.91 590,-474.78 590,-467.75"/>
<polygon fill="midnightblue" stroke="midnightblue" points="586.5,-494.08 590,-504.08 593.5,-494.08 586.5,-494.08"/>
</g>
<!-- Node40 -->
<g id="node40" class="node">
<title>Node40</title>
<g id="a_node40"><a xlink:href="proto__stats_8h.html" target="_top" xlink:title=" ">
<polygon fill="white" stroke="black" points="491,-560.5 491,-579.5 571,-579.5 571,-560.5 491,-560.5"/>
<text text-anchor="middle" x="531" y="-567.5" font-family="Helvetica,sans-Serif" font-size="10.00">proto_stats.h</text>
</a>
</g>
</g>
<!-- Node39&#45;&gt;Node40 -->
<g id="edge52" class="edge">
<title>Node39&#45;&gt;Node40</title>
<path fill="none" stroke="midnightblue" d="M531,-605.8C531,-596.91 531,-586.78 531,-579.75"/>
<polygon fill="midnightblue" stroke="midnightblue" points="527.5,-606.08 531,-616.08 534.5,-606.08 527.5,-606.08"/>
</g>
</g>
</svg>
