<?xml version="1.0" encoding="UTF-8" standalone="no"?>
<!DOCTYPE svg PUBLIC "-//W3C//DTD SVG 1.1//EN"
 "http://www.w3.org/Graphics/SVG/1.1/DTD/svg11.dtd">
<!-- Generated by graphviz version 2.43.0 (0)
 -->
<!-- Title: pool_types.h Pages: 1 -->
<svg width="1050pt" height="811pt"
 viewBox="0.00 0.00 1050.00 811.00" xmlns="http://www.w3.org/2000/svg" xmlns:xlink="http://www.w3.org/1999/xlink">
<g id="graph0" class="graph" transform="scale(1 1) rotate(0) translate(4 807)">
<title>pool_types.h</title>
<polygon fill="white" stroke="transparent" points="-4,4 -4,-807 1046,-807 1046,4 -4,4"/>
<!-- Node1 -->
<g id="node1" class="node">
<title>Node1</title>
<g id="a_node1"><a xlink:title=" ">
<polygon fill="#bfbfbf" stroke="black" points="253.5,-783.5 253.5,-802.5 332.5,-802.5 332.5,-783.5 253.5,-783.5"/>
<text text-anchor="middle" x="293" y="-790.5" font-family="Helvetica,sans-Serif" font-size="10.00">pool_types.h</text>
</a>
</g>
</g>
<!-- Node2 -->
<g id="node2" class="node">
<title>Node2</title>
<g id="a_node2"><a xlink:title=" ">
<polygon fill="white" stroke="#bfbfbf" points="298.5,-0.5 298.5,-19.5 419.5,-19.5 419.5,-0.5 298.5,-0.5"/>
<text text-anchor="middle" x="359" y="-7.5" font-family="Helvetica,sans-Serif" font-size="10.00">odp/visibility_begin.h</text>
</a>
</g>
</g>
<!-- Node1&#45;&gt;Node2 -->
<g id="edge1" class="edge">
<title>Node1&#45;&gt;Node2</title>
<path fill="none" stroke="midnightblue" d="M253.48,-785.69C173.51,-771.81 0,-735.52 0,-682 0,-682 0,-682 0,-132 0,-92.97 11.65,-77.84 44,-56 82.75,-29.84 207.96,-18.6 288.36,-13.99"/>
<polygon fill="midnightblue" stroke="midnightblue" points="288.63,-17.48 298.42,-13.43 288.24,-10.49 288.63,-17.48"/>
</g>
<!-- Node3 -->
<g id="node3" class="node">
<title>Node3</title>
<g id="a_node3"><a xlink:href="std__types_8h.html" target="_top" xlink:title=" ">
<polygon fill="white" stroke="black" points="471,-235.5 471,-254.5 583,-254.5 583,-235.5 471,-235.5"/>
<text text-anchor="middle" x="527" y="-242.5" font-family="Helvetica,sans-Serif" font-size="10.00">odp/api/std_types.h</text>
</a>
</g>
</g>
<!-- Node1&#45;&gt;Node3 -->
<g id="edge2" class="edge">
<title>Node1&#45;&gt;Node3</title>
<path fill="none" stroke="midnightblue" d="M286.58,-783.32C258.99,-745.17 152,-587.77 152,-441.5 152,-441.5 152,-441.5 152,-372.5 152,-308.1 353.07,-270.19 460.74,-254.5"/>
<polygon fill="midnightblue" stroke="midnightblue" points="461.46,-257.93 470.86,-253.05 460.46,-251 461.46,-257.93"/>
</g>
<!-- Node10 -->
<g id="node10" class="node">
<title>Node10</title>
<g id="a_node10"><a xlink:title=" ">
<polygon fill="white" stroke="#bfbfbf" points="834,-0.5 834,-19.5 946,-19.5 946,-0.5 834,-0.5"/>
<text text-anchor="middle" x="890" y="-7.5" font-family="Helvetica,sans-Serif" font-size="10.00">odp/visibility_end.h</text>
</a>
</g>
</g>
<!-- Node1&#45;&gt;Node10 -->
<g id="edge48" class="edge">
<title>Node1&#45;&gt;Node10</title>
<path fill="none" stroke="midnightblue" d="M332.74,-790.4C487.59,-783.63 1042,-754.37 1042,-682 1042,-682 1042,-682 1042,-132 1042,-74.18 973.85,-39.54 928.81,-22.96"/>
<polygon fill="midnightblue" stroke="midnightblue" points="929.9,-19.64 919.31,-19.6 927.57,-26.24 929.9,-19.64"/>
</g>
<!-- Node11 -->
<g id="node11" class="node">
<title>Node11</title>
<g id="a_node11"><a xlink:href="dma__types_8h.html" target="_top" xlink:title=" ">
<polygon fill="white" stroke="black" points="488.5,-727.5 488.5,-746.5 607.5,-746.5 607.5,-727.5 488.5,-727.5"/>
<text text-anchor="middle" x="548" y="-734.5" font-family="Helvetica,sans-Serif" font-size="10.00">odp/api/dma_types.h</text>
</a>
</g>
</g>
<!-- Node1&#45;&gt;Node11 -->
<g id="edge13" class="edge">
<title>Node1&#45;&gt;Node11</title>
<path fill="none" stroke="midnightblue" d="M332.56,-783.62C376.97,-774.22 449.12,-758.94 497.54,-748.68"/>
<polygon fill="midnightblue" stroke="midnightblue" points="498.44,-752.07 507.5,-746.58 496.99,-745.22 498.44,-752.07"/>
</g>
<!-- Node4 -->
<g id="node4" class="node">
<title>Node4</title>
<g id="a_node4"><a xlink:title=" ">
<polygon fill="white" stroke="#bfbfbf" points="664,-179.5 664,-198.5 794,-198.5 794,-179.5 664,-179.5"/>
<text text-anchor="middle" x="729" y="-186.5" font-family="Helvetica,sans-Serif" font-size="10.00">odp/api/abi/std_types.h</text>
</a>
</g>
</g>
<!-- Node3&#45;&gt;Node4 -->
<g id="edge3" class="edge">
<title>Node3&#45;&gt;Node4</title>
<path fill="none" stroke="midnightblue" d="M559.01,-235.44C593.73,-226.16 649.29,-211.31 687.38,-201.13"/>
<polygon fill="midnightblue" stroke="midnightblue" points="688.39,-204.48 697.14,-198.52 686.58,-197.72 688.39,-204.48"/>
</g>
<!-- Node5 -->
<g id="node5" class="node">
<title>Node5</title>
<g id="a_node5"><a xlink:href="spec_2std__types_8h.html" target="_top" xlink:title=" ">
<polygon fill="white" stroke="black" points="508.5,-179.5 508.5,-198.5 645.5,-198.5 645.5,-179.5 508.5,-179.5"/>
<text text-anchor="middle" x="577" y="-186.5" font-family="Helvetica,sans-Serif" font-size="10.00">odp/api/spec/std_types.h</text>
</a>
</g>
</g>
<!-- Node3&#45;&gt;Node5 -->
<g id="edge4" class="edge">
<title>Node3&#45;&gt;Node5</title>
<path fill="none" stroke="midnightblue" d="M535.26,-235.08C542.46,-227.3 553.11,-215.8 561.85,-206.37"/>
<polygon fill="midnightblue" stroke="midnightblue" points="564.67,-208.47 568.9,-198.75 559.53,-203.71 564.67,-208.47"/>
</g>
<!-- Node5&#45;&gt;Node2 -->
<g id="edge5" class="edge">
<title>Node5&#45;&gt;Node2</title>
<path fill="none" stroke="midnightblue" d="M569.08,-179.45C561.18,-170.68 548.97,-156.47 540,-143 515.77,-106.59 527.37,-84.28 494,-56 474.29,-39.29 448.15,-28.73 424.13,-22.07"/>
<polygon fill="midnightblue" stroke="midnightblue" points="424.9,-18.66 414.34,-19.54 423.14,-25.43 424.9,-18.66"/>
</g>
<!-- Node6 -->
<g id="node6" class="node">
<title>Node6</title>
<g id="a_node6"><a xlink:title=" ">
<polygon fill="white" stroke="#bfbfbf" points="548.5,-123.5 548.5,-142.5 601.5,-142.5 601.5,-123.5 548.5,-123.5"/>
<text text-anchor="middle" x="575" y="-130.5" font-family="Helvetica,sans-Serif" font-size="10.00">stdint.h</text>
</a>
</g>
</g>
<!-- Node5&#45;&gt;Node6 -->
<g id="edge6" class="edge">
<title>Node5&#45;&gt;Node6</title>
<path fill="none" stroke="midnightblue" d="M576.67,-179.08C576.41,-172.01 576.03,-161.86 575.7,-152.99"/>
<polygon fill="midnightblue" stroke="midnightblue" points="579.19,-152.61 575.32,-142.75 572.2,-152.87 579.19,-152.61"/>
</g>
<!-- Node7 -->
<g id="node7" class="node">
<title>Node7</title>
<g id="a_node7"><a xlink:href="align_8h.html" target="_top" xlink:title=" ">
<polygon fill="white" stroke="black" points="619.5,-123.5 619.5,-142.5 708.5,-142.5 708.5,-123.5 619.5,-123.5"/>
<text text-anchor="middle" x="664" y="-130.5" font-family="Helvetica,sans-Serif" font-size="10.00">odp/api/align.h</text>
</a>
</g>
</g>
<!-- Node5&#45;&gt;Node7 -->
<g id="edge7" class="edge">
<title>Node5&#45;&gt;Node7</title>
<path fill="none" stroke="midnightblue" d="M590.98,-179.32C604.55,-170.9 625.38,-157.97 641.32,-148.07"/>
<polygon fill="midnightblue" stroke="midnightblue" points="643.41,-150.9 650.06,-142.65 639.71,-144.95 643.41,-150.9"/>
</g>
<!-- Node5&#45;&gt;Node10 -->
<g id="edge12" class="edge">
<title>Node5&#45;&gt;Node10</title>
<path fill="none" stroke="midnightblue" d="M614.79,-179.45C643.94,-172.04 684.76,-159.84 718,-143 750.95,-126.31 834.47,-57.62 871.66,-26.48"/>
<polygon fill="midnightblue" stroke="midnightblue" points="874.25,-28.87 879.66,-19.76 869.75,-23.51 874.25,-28.87"/>
</g>
<!-- Node8 -->
<g id="node8" class="node">
<title>Node8</title>
<g id="a_node8"><a xlink:title=" ">
<polygon fill="white" stroke="#bfbfbf" points="678.5,-62 678.5,-81 785.5,-81 785.5,-62 678.5,-62"/>
<text text-anchor="middle" x="732" y="-69" font-family="Helvetica,sans-Serif" font-size="10.00">odp/api/abi/align.h</text>
</a>
</g>
</g>
<!-- Node7&#45;&gt;Node8 -->
<g id="edge8" class="edge">
<title>Node7&#45;&gt;Node8</title>
<path fill="none" stroke="midnightblue" d="M673.74,-123.48C684.35,-114.2 701.52,-99.17 714.48,-87.83"/>
<polygon fill="midnightblue" stroke="midnightblue" points="717.05,-90.23 722.28,-81.01 712.44,-84.96 717.05,-90.23"/>
</g>
<!-- Node9 -->
<g id="node9" class="node">
<title>Node9</title>
<g id="a_node9"><a xlink:href="spec_2align_8h.html" target="_top" xlink:title=" ">
<polygon fill="white" stroke="black" points="546,-62 546,-81 660,-81 660,-62 546,-62"/>
<text text-anchor="middle" x="603" y="-69" font-family="Helvetica,sans-Serif" font-size="10.00">odp/api/spec/align.h</text>
</a>
</g>
</g>
<!-- Node7&#45;&gt;Node9 -->
<g id="edge9" class="edge">
<title>Node7&#45;&gt;Node9</title>
<path fill="none" stroke="midnightblue" d="M655.26,-123.48C645.84,-114.28 630.64,-99.46 619.05,-88.16"/>
<polygon fill="midnightblue" stroke="midnightblue" points="621.33,-85.49 611.72,-81.01 616.44,-90.5 621.33,-85.49"/>
</g>
<!-- Node9&#45;&gt;Node2 -->
<g id="edge10" class="edge">
<title>Node9&#45;&gt;Node2</title>
<path fill="none" stroke="midnightblue" d="M568.04,-61.98C524.83,-51.44 451.21,-33.49 403.87,-21.94"/>
<polygon fill="midnightblue" stroke="midnightblue" points="404.44,-18.48 393.89,-19.51 402.78,-25.28 404.44,-18.48"/>
</g>
<!-- Node9&#45;&gt;Node10 -->
<g id="edge11" class="edge">
<title>Node9&#45;&gt;Node10</title>
<path fill="none" stroke="midnightblue" d="M641.96,-61.99C651.15,-60 660.92,-57.91 670,-56 727.16,-43.97 792.77,-30.61 837.36,-21.59"/>
<polygon fill="midnightblue" stroke="midnightblue" points="838.27,-24.98 847.38,-19.57 836.89,-18.12 838.27,-24.98"/>
</g>
<!-- Node12 -->
<g id="node12" class="node">
<title>Node12</title>
<g id="a_node12"><a xlink:title=" ">
<polygon fill="white" stroke="#bfbfbf" points="638.5,-671.5 638.5,-690.5 775.5,-690.5 775.5,-671.5 638.5,-671.5"/>
<text text-anchor="middle" x="707" y="-678.5" font-family="Helvetica,sans-Serif" font-size="10.00">odp/api/abi/dma_types.h</text>
</a>
</g>
</g>
<!-- Node11&#45;&gt;Node12 -->
<g id="edge14" class="edge">
<title>Node11&#45;&gt;Node12</title>
<path fill="none" stroke="midnightblue" d="M573.19,-727.44C599.94,-718.36 642.4,-703.94 672.31,-693.78"/>
<polygon fill="midnightblue" stroke="midnightblue" points="673.58,-697.05 681.92,-690.52 671.33,-690.42 673.58,-697.05"/>
</g>
<!-- Node13 -->
<g id="node13" class="node">
<title>Node13</title>
<g id="a_node13"><a xlink:href="spec_2dma__types_8h.html" target="_top" xlink:title=" ">
<polygon fill="white" stroke="black" points="476,-671.5 476,-690.5 620,-690.5 620,-671.5 476,-671.5"/>
<text text-anchor="middle" x="548" y="-678.5" font-family="Helvetica,sans-Serif" font-size="10.00">odp/api/spec/dma_types.h</text>
</a>
</g>
</g>
<!-- Node11&#45;&gt;Node13 -->
<g id="edge15" class="edge">
<title>Node11&#45;&gt;Node13</title>
<path fill="none" stroke="midnightblue" d="M548,-727.08C548,-720.01 548,-709.86 548,-700.99"/>
<polygon fill="midnightblue" stroke="midnightblue" points="551.5,-700.75 548,-690.75 544.5,-700.75 551.5,-700.75"/>
</g>
<!-- Node13&#45;&gt;Node2 -->
<g id="edge16" class="edge">
<title>Node13&#45;&gt;Node2</title>
<path fill="none" stroke="midnightblue" d="M475.66,-677.31C379.96,-672.76 217.15,-661.34 164,-635 148.71,-627.42 38,-511.92 38,-503 38,-503 38,-503 38,-132 38,-93.83 46.99,-78.26 78,-56 110.76,-32.49 215.97,-20.66 287.94,-15.18"/>
<polygon fill="midnightblue" stroke="midnightblue" points="288.58,-18.64 298.3,-14.42 288.07,-11.66 288.58,-18.64"/>
</g>
<!-- Node13&#45;&gt;Node3 -->
<g id="edge46" class="edge">
<title>Node13&#45;&gt;Node3</title>
<path fill="none" stroke="midnightblue" d="M551.87,-671.22C566.84,-637.28 620.11,-516.28 621,-512 635.71,-441.25 715.09,-477.8 598,-291 589.04,-276.7 573.68,-266.13 559.53,-258.85"/>
<polygon fill="midnightblue" stroke="midnightblue" points="561.03,-255.68 550.49,-254.53 558.01,-262 561.03,-255.68"/>
</g>
<!-- Node13&#45;&gt;Node10 -->
<g id="edge47" class="edge">
<title>Node13&#45;&gt;Node10</title>
<path fill="none" stroke="midnightblue" d="M614.44,-671.47C668.37,-663.89 746.17,-651.46 813,-635 891.06,-615.77 913.81,-616.36 985,-579 994.41,-574.06 1004,-575.12 1004,-564.5 1004,-564.5 1004,-564.5 1004,-132 1004,-81.35 950.42,-43.28 916.73,-24.34"/>
<polygon fill="midnightblue" stroke="midnightblue" points="918.27,-21.2 907.81,-19.52 914.94,-27.36 918.27,-21.2"/>
</g>
<!-- Node14 -->
<g id="node14" class="node">
<title>Node14</title>
<g id="a_node14"><a xlink:href="event__types_8h.html" target="_top" xlink:title=" ">
<polygon fill="white" stroke="black" points="113.5,-123.5 113.5,-142.5 238.5,-142.5 238.5,-123.5 113.5,-123.5"/>
<text text-anchor="middle" x="176" y="-130.5" font-family="Helvetica,sans-Serif" font-size="10.00">odp/api/event_types.h</text>
</a>
</g>
</g>
<!-- Node13&#45;&gt;Node14 -->
<g id="edge17" class="edge">
<title>Node13&#45;&gt;Node14</title>
<path fill="none" stroke="midnightblue" d="M475.85,-675.66C352.44,-666.24 114,-638.47 114,-564.5 114,-564.5 114,-564.5 114,-244 114,-206.62 141.5,-170.24 159.87,-150.1"/>
<polygon fill="midnightblue" stroke="midnightblue" points="162.51,-152.41 166.85,-142.75 157.43,-147.59 162.51,-152.41"/>
</g>
<!-- Node17 -->
<g id="node17" class="node">
<title>Node17</title>
<g id="a_node17"><a xlink:href="packet__types_8h.html" target="_top" xlink:title=" ">
<polygon fill="white" stroke="black" points="674.5,-615.5 674.5,-634.5 803.5,-634.5 803.5,-615.5 674.5,-615.5"/>
<text text-anchor="middle" x="739" y="-622.5" font-family="Helvetica,sans-Serif" font-size="10.00">odp/api/packet_types.h</text>
</a>
</g>
</g>
<!-- Node13&#45;&gt;Node17 -->
<g id="edge22" class="edge">
<title>Node13&#45;&gt;Node17</title>
<path fill="none" stroke="midnightblue" d="M578.26,-671.44C610.96,-662.2 663.18,-647.44 699.18,-637.26"/>
<polygon fill="midnightblue" stroke="midnightblue" points="700.21,-640.61 708.88,-634.52 698.3,-633.87 700.21,-640.61"/>
</g>
<!-- Node24 -->
<g id="node24" class="node">
<title>Node24</title>
<g id="a_node24"><a xlink:href="queue__types_8h.html" target="_top" xlink:title=" ">
<polygon fill="white" stroke="black" points="484.5,-492.5 484.5,-511.5 611.5,-511.5 611.5,-492.5 484.5,-492.5"/>
<text text-anchor="middle" x="548" y="-499.5" font-family="Helvetica,sans-Serif" font-size="10.00">odp/api/queue_types.h</text>
</a>
</g>
</g>
<!-- Node13&#45;&gt;Node24 -->
<g id="edge45" class="edge">
<title>Node13&#45;&gt;Node24</title>
<path fill="none" stroke="midnightblue" d="M548,-671.46C548,-644.43 548,-560.24 548,-522.11"/>
<polygon fill="midnightblue" stroke="midnightblue" points="551.5,-521.87 548,-511.87 544.5,-521.87 551.5,-521.87"/>
</g>
<!-- Node15 -->
<g id="node15" class="node">
<title>Node15</title>
<g id="a_node15"><a xlink:title=" ">
<polygon fill="white" stroke="#bfbfbf" points="104.5,-62 104.5,-81 247.5,-81 247.5,-62 104.5,-62"/>
<text text-anchor="middle" x="176" y="-69" font-family="Helvetica,sans-Serif" font-size="10.00">odp/api/abi/event_types.h</text>
</a>
</g>
</g>
<!-- Node14&#45;&gt;Node15 -->
<g id="edge18" class="edge">
<title>Node14&#45;&gt;Node15</title>
<path fill="none" stroke="midnightblue" d="M176,-123.48C176,-115.08 176,-101.98 176,-91.16"/>
<polygon fill="midnightblue" stroke="midnightblue" points="179.5,-91.01 176,-81.01 172.5,-91.01 179.5,-91.01"/>
</g>
<!-- Node16 -->
<g id="node16" class="node">
<title>Node16</title>
<g id="a_node16"><a xlink:href="spec_2event__types_8h.html" target="_top" xlink:title=" ">
<polygon fill="white" stroke="black" points="304.5,-56.5 304.5,-86.5 413.5,-86.5 413.5,-56.5 304.5,-56.5"/>
<text text-anchor="start" x="312.5" y="-74.5" font-family="Helvetica,sans-Serif" font-size="10.00">odp/api/spec/event</text>
<text text-anchor="middle" x="359" y="-63.5" font-family="Helvetica,sans-Serif" font-size="10.00">_types.h</text>
</a>
</g>
</g>
<!-- Node14&#45;&gt;Node16 -->
<g id="edge19" class="edge">
<title>Node14&#45;&gt;Node16</title>
<path fill="none" stroke="midnightblue" d="M202.22,-123.48C229.2,-114.7 272,-100.79 306.06,-89.71"/>
<polygon fill="midnightblue" stroke="midnightblue" points="307.44,-92.94 315.87,-86.52 305.28,-86.29 307.44,-92.94"/>
</g>
<!-- Node16&#45;&gt;Node2 -->
<g id="edge20" class="edge">
<title>Node16&#45;&gt;Node2</title>
<path fill="none" stroke="midnightblue" d="M359,-56.4C359,-48.47 359,-38.46 359,-29.86"/>
<polygon fill="midnightblue" stroke="midnightblue" points="362.5,-29.66 359,-19.66 355.5,-29.66 362.5,-29.66"/>
</g>
<!-- Node16&#45;&gt;Node10 -->
<g id="edge21" class="edge">
<title>Node16&#45;&gt;Node10</title>
<path fill="none" stroke="midnightblue" d="M413.83,-64.36C512.04,-53.35 717.61,-30.32 823.62,-18.44"/>
<polygon fill="midnightblue" stroke="midnightblue" points="824.33,-21.88 833.88,-17.29 823.55,-14.92 824.33,-21.88"/>
</g>
<!-- Node18 -->
<g id="node18" class="node">
<title>Node18</title>
<g id="a_node18"><a xlink:title=" ">
<polygon fill="white" stroke="#bfbfbf" points="870,-548.5 870,-578.5 976,-578.5 976,-548.5 870,-548.5"/>
<text text-anchor="start" x="878" y="-566.5" font-family="Helvetica,sans-Serif" font-size="10.00">odp/api/abi/packet</text>
<text text-anchor="middle" x="923" y="-555.5" font-family="Helvetica,sans-Serif" font-size="10.00">_io_types.h</text>
</a>
</g>
</g>
<!-- Node17&#45;&gt;Node18 -->
<g id="edge23" class="edge">
<title>Node17&#45;&gt;Node18</title>
<path fill="none" stroke="midnightblue" d="M765.36,-615.48C792.5,-606.7 835.52,-592.79 869.77,-581.71"/>
<polygon fill="midnightblue" stroke="midnightblue" points="871.2,-584.93 879.63,-578.52 869.04,-578.27 871.2,-584.93"/>
</g>
<!-- Node19 -->
<g id="node19" class="node">
<title>Node19</title>
<g id="a_node19"><a xlink:title=" ">
<polygon fill="white" stroke="#bfbfbf" points="746,-548.5 746,-578.5 852,-578.5 852,-548.5 746,-548.5"/>
<text text-anchor="start" x="754" y="-566.5" font-family="Helvetica,sans-Serif" font-size="10.00">odp/api/abi/packet</text>
<text text-anchor="middle" x="799" y="-555.5" font-family="Helvetica,sans-Serif" font-size="10.00">_types.h</text>
</a>
</g>
</g>
<!-- Node17&#45;&gt;Node19 -->
<g id="edge24" class="edge">
<title>Node17&#45;&gt;Node19</title>
<path fill="none" stroke="midnightblue" d="M747.6,-615.48C755.42,-607.72 767.29,-595.94 777.66,-585.66"/>
<polygon fill="midnightblue" stroke="midnightblue" points="780.22,-588.05 784.86,-578.52 775.29,-583.08 780.22,-588.05"/>
</g>
<!-- Node20 -->
<g id="node20" class="node">
<title>Node20</title>
<g id="a_node20"><a xlink:href="spec_2packet__types_8h.html" target="_top" xlink:title=" ">
<polygon fill="white" stroke="black" points="614.5,-548.5 614.5,-578.5 727.5,-578.5 727.5,-548.5 614.5,-548.5"/>
<text text-anchor="start" x="622.5" y="-566.5" font-family="Helvetica,sans-Serif" font-size="10.00">odp/api/spec/packet</text>
<text text-anchor="middle" x="671" y="-555.5" font-family="Helvetica,sans-Serif" font-size="10.00">_types.h</text>
</a>
</g>
</g>
<!-- Node17&#45;&gt;Node20 -->
<g id="edge25" class="edge">
<title>Node17&#45;&gt;Node20</title>
<path fill="none" stroke="midnightblue" d="M729.26,-615.48C720.31,-607.64 706.67,-595.71 694.85,-585.37"/>
<polygon fill="midnightblue" stroke="midnightblue" points="696.86,-582.47 687.03,-578.52 692.25,-587.74 696.86,-582.47"/>
</g>
<!-- Node20&#45;&gt;Node2 -->
<g id="edge26" class="edge">
<title>Node20&#45;&gt;Node2</title>
<path fill="none" stroke="midnightblue" d="M614.4,-555.92C510.75,-542.28 301,-506.63 301,-441.5 301,-441.5 301,-441.5 301,-372.5 301,-234.69 390.34,-221.13 422,-87 425.17,-73.59 428.3,-68.25 422,-56 414.92,-42.25 401.48,-31.77 388.82,-24.39"/>
<polygon fill="midnightblue" stroke="midnightblue" points="390.31,-21.22 379.85,-19.57 387,-27.39 390.31,-21.22"/>
</g>
<!-- Node20&#45;&gt;Node10 -->
<g id="edge44" class="edge">
<title>Node20&#45;&gt;Node10</title>
<path fill="none" stroke="midnightblue" d="M717.42,-548.48C800.49,-522.71 966,-468.04 966,-441.5 966,-441.5 966,-441.5 966,-132 966,-88.48 930.3,-47.77 907.84,-26.47"/>
<polygon fill="midnightblue" stroke="midnightblue" points="909.99,-23.7 900.25,-19.53 905.27,-28.86 909.99,-23.7"/>
</g>
<!-- Node21 -->
<g id="node21" class="node">
<title>Node21</title>
<g id="a_node21"><a xlink:href="proto__stats__types_8h.html" target="_top" xlink:title=" ">
<polygon fill="white" stroke="black" points="684,-358.5 684,-388.5 794,-388.5 794,-358.5 684,-358.5"/>
<text text-anchor="start" x="692" y="-376.5" font-family="Helvetica,sans-Serif" font-size="10.00">odp/api/proto_stats</text>
<text text-anchor="middle" x="739" y="-365.5" font-family="Helvetica,sans-Serif" font-size="10.00">_types.h</text>
</a>
</g>
</g>
<!-- Node20&#45;&gt;Node21 -->
<g id="edge27" class="edge">
<title>Node20&#45;&gt;Node21</title>
<path fill="none" stroke="midnightblue" d="M676.11,-548.37C687.71,-516.31 716.11,-437.77 730.44,-398.16"/>
<polygon fill="midnightblue" stroke="midnightblue" points="733.81,-399.13 733.92,-388.54 727.23,-396.75 733.81,-399.13"/>
</g>
<!-- Node20&#45;&gt;Node24 -->
<g id="edge33" class="edge">
<title>Node20&#45;&gt;Node24</title>
<path fill="none" stroke="midnightblue" d="M641.85,-548.4C621.58,-538.59 594.76,-525.62 574.98,-516.05"/>
<polygon fill="midnightblue" stroke="midnightblue" points="576.42,-512.86 565.9,-511.66 573.38,-519.16 576.42,-512.86"/>
</g>
<!-- Node22 -->
<g id="node22" class="node">
<title>Node22</title>
<g id="a_node22"><a xlink:title=" ">
<polygon fill="white" stroke="#bfbfbf" points="810,-291.5 810,-321.5 938,-321.5 938,-291.5 810,-291.5"/>
<text text-anchor="start" x="818" y="-309.5" font-family="Helvetica,sans-Serif" font-size="10.00">odp/api/abi/proto_stats</text>
<text text-anchor="middle" x="874" y="-298.5" font-family="Helvetica,sans-Serif" font-size="10.00">_types.h</text>
</a>
</g>
</g>
<!-- Node21&#45;&gt;Node22 -->
<g id="edge28" class="edge">
<title>Node21&#45;&gt;Node22</title>
<path fill="none" stroke="midnightblue" d="M768.29,-358.4C788.02,-348.9 814.23,-336.28 835.62,-325.98"/>
<polygon fill="midnightblue" stroke="midnightblue" points="837.27,-329.07 844.76,-321.58 834.24,-322.76 837.27,-329.07"/>
</g>
<!-- Node23 -->
<g id="node23" class="node">
<title>Node23</title>
<g id="a_node23"><a xlink:href="spec_2proto__stats__types_8h.html" target="_top" xlink:title=" ">
<polygon fill="white" stroke="black" points="684.5,-291.5 684.5,-321.5 791.5,-321.5 791.5,-291.5 684.5,-291.5"/>
<text text-anchor="start" x="692.5" y="-309.5" font-family="Helvetica,sans-Serif" font-size="10.00">odp/api/spec/proto</text>
<text text-anchor="middle" x="738" y="-298.5" font-family="Helvetica,sans-Serif" font-size="10.00">_stats_types.h</text>
</a>
</g>
</g>
<!-- Node21&#45;&gt;Node23 -->
<g id="edge29" class="edge">
<title>Node21&#45;&gt;Node23</title>
<path fill="none" stroke="midnightblue" d="M738.78,-358.4C738.66,-350.64 738.51,-340.81 738.37,-331.86"/>
<polygon fill="midnightblue" stroke="midnightblue" points="741.87,-331.52 738.22,-321.58 734.87,-331.63 741.87,-331.52"/>
</g>
<!-- Node23&#45;&gt;Node2 -->
<g id="edge30" class="edge">
<title>Node23&#45;&gt;Node2</title>
<path fill="none" stroke="midnightblue" d="M710.59,-291.45C681.48,-276.71 633.96,-253.22 592,-235 551.34,-217.35 529.11,-231.53 499,-199 453.92,-150.29 499.47,-106.15 456,-56 442.5,-40.42 422.46,-29.89 404.09,-22.96"/>
<polygon fill="midnightblue" stroke="midnightblue" points="405,-19.57 394.4,-19.57 402.68,-26.18 405,-19.57"/>
</g>
<!-- Node23&#45;&gt;Node3 -->
<g id="edge31" class="edge">
<title>Node23&#45;&gt;Node3</title>
<path fill="none" stroke="midnightblue" d="M688.26,-291.47C651.23,-281.03 601.32,-266.96 566.88,-257.25"/>
<polygon fill="midnightblue" stroke="midnightblue" points="567.74,-253.85 557.17,-254.51 565.84,-260.59 567.74,-253.85"/>
</g>
<!-- Node23&#45;&gt;Node10 -->
<g id="edge32" class="edge">
<title>Node23&#45;&gt;Node10</title>
<path fill="none" stroke="midnightblue" d="M791.6,-291.74C836.83,-279.72 895.54,-262.98 904,-255 926.4,-233.87 928,-220.8 928,-190 928,-190 928,-190 928,-132 928,-93.81 910.56,-51.83 899.31,-28.72"/>
<polygon fill="midnightblue" stroke="midnightblue" points="902.29,-26.86 894.66,-19.52 896.04,-30.02 902.29,-26.86"/>
</g>
<!-- Node25 -->
<g id="node25" class="node">
<title>Node25</title>
<g id="a_node25"><a xlink:title=" ">
<polygon fill="white" stroke="#bfbfbf" points="329.5,-431 329.5,-450 474.5,-450 474.5,-431 329.5,-431"/>
<text text-anchor="middle" x="402" y="-438" font-family="Helvetica,sans-Serif" font-size="10.00">odp/api/abi/queue_types.h</text>
</a>
</g>
</g>
<!-- Node24&#45;&gt;Node25 -->
<g id="edge34" class="edge">
<title>Node24&#45;&gt;Node25</title>
<path fill="none" stroke="midnightblue" d="M527.08,-492.48C502.25,-482.36 460.66,-465.4 432.31,-453.85"/>
<polygon fill="midnightblue" stroke="midnightblue" points="433.46,-450.54 422.88,-450.01 430.82,-457.02 433.46,-450.54"/>
</g>
<!-- Node26 -->
<g id="node26" class="node">
<title>Node26</title>
<g id="a_node26"><a xlink:href="spec_2queue__types_8h.html" target="_top" xlink:title=" ">
<polygon fill="white" stroke="black" points="492.5,-425.5 492.5,-455.5 603.5,-455.5 603.5,-425.5 492.5,-425.5"/>
<text text-anchor="start" x="500.5" y="-443.5" font-family="Helvetica,sans-Serif" font-size="10.00">odp/api/spec/queue</text>
<text text-anchor="middle" x="548" y="-432.5" font-family="Helvetica,sans-Serif" font-size="10.00">_types.h</text>
</a>
</g>
</g>
<!-- Node24&#45;&gt;Node26 -->
<g id="edge35" class="edge">
<title>Node24&#45;&gt;Node26</title>
<path fill="none" stroke="midnightblue" d="M548,-492.48C548,-485.47 548,-475.19 548,-465.7"/>
<polygon fill="midnightblue" stroke="midnightblue" points="551.5,-465.52 548,-455.52 544.5,-465.52 551.5,-465.52"/>
</g>
<!-- Node26&#45;&gt;Node2 -->
<g id="edge36" class="edge">
<title>Node26&#45;&gt;Node2</title>
<path fill="none" stroke="midnightblue" d="M504.33,-425.4C411.4,-392.8 195.16,-302.55 104,-143 84.72,-109.25 69.93,-85.71 95,-56 119.29,-27.21 218.6,-16.84 288.22,-13.1"/>
<polygon fill="midnightblue" stroke="midnightblue" points="288.46,-16.6 298.27,-12.6 288.1,-9.6 288.46,-16.6"/>
</g>
<!-- Node26&#45;&gt;Node10 -->
<g id="edge43" class="edge">
<title>Node26&#45;&gt;Node10</title>
<path fill="none" stroke="midnightblue" d="M563.22,-425.38C573.63,-415.51 587.56,-401.83 599,-389 635.86,-347.66 632.45,-325.23 676,-291 758.68,-226 890,-295.17 890,-190 890,-190 890,-190 890,-132 890,-95.71 890,-53.31 890,-29.56"/>
<polygon fill="midnightblue" stroke="midnightblue" points="893.5,-29.51 890,-19.51 886.5,-29.51 893.5,-29.51"/>
</g>
<!-- Node27 -->
<g id="node27" class="node">
<title>Node27</title>
<g id="a_node27"><a xlink:href="schedule__types_8h.html" target="_top" xlink:title=" ">
<polygon fill="white" stroke="black" points="450,-364 450,-383 590,-383 590,-364 450,-364"/>
<text text-anchor="middle" x="520" y="-371" font-family="Helvetica,sans-Serif" font-size="10.00">odp/api/schedule_types.h</text>
</a>
</g>
</g>
<!-- Node26&#45;&gt;Node27 -->
<g id="edge37" class="edge">
<title>Node26&#45;&gt;Node27</title>
<path fill="none" stroke="midnightblue" d="M541.92,-425.4C537.77,-415.76 532.24,-402.91 527.77,-392.54"/>
<polygon fill="midnightblue" stroke="midnightblue" points="530.92,-390.99 523.75,-383.19 524.49,-393.76 530.92,-390.99"/>
</g>
<!-- Node28 -->
<g id="node28" class="node">
<title>Node28</title>
<g id="a_node28"><a xlink:title=" ">
<polygon fill="white" stroke="#bfbfbf" points="329.5,-291.5 329.5,-321.5 446.5,-321.5 446.5,-291.5 329.5,-291.5"/>
<text text-anchor="start" x="337.5" y="-309.5" font-family="Helvetica,sans-Serif" font-size="10.00">odp/api/abi/schedule</text>
<text text-anchor="middle" x="388" y="-298.5" font-family="Helvetica,sans-Serif" font-size="10.00">_types.h</text>
</a>
</g>
</g>
<!-- Node27&#45;&gt;Node28 -->
<g id="edge38" class="edge">
<title>Node27&#45;&gt;Node28</title>
<path fill="none" stroke="midnightblue" d="M502.47,-363.87C483.07,-354.31 451.21,-338.63 426.03,-326.22"/>
<polygon fill="midnightblue" stroke="midnightblue" points="427.26,-322.93 416.74,-321.65 424.16,-329.21 427.26,-322.93"/>
</g>
<!-- Node29 -->
<g id="node29" class="node">
<title>Node29</title>
<g id="a_node29"><a xlink:href="spec_2schedule__types_8h.html" target="_top" xlink:title=" ">
<polygon fill="white" stroke="black" points="464.5,-291.5 464.5,-321.5 589.5,-321.5 589.5,-291.5 464.5,-291.5"/>
<text text-anchor="start" x="472.5" y="-309.5" font-family="Helvetica,sans-Serif" font-size="10.00">odp/api/spec/schedule</text>
<text text-anchor="middle" x="527" y="-298.5" font-family="Helvetica,sans-Serif" font-size="10.00">_types.h</text>
</a>
</g>
</g>
<!-- Node27&#45;&gt;Node29 -->
<g id="edge39" class="edge">
<title>Node27&#45;&gt;Node29</title>
<path fill="none" stroke="midnightblue" d="M520.94,-363.73C521.83,-355.54 523.19,-342.92 524.39,-331.71"/>
<polygon fill="midnightblue" stroke="midnightblue" points="527.89,-331.91 525.48,-321.59 520.93,-331.16 527.89,-331.91"/>
</g>
<!-- Node29&#45;&gt;Node2 -->
<g id="edge40" class="edge">
<title>Node29&#45;&gt;Node2</title>
<path fill="none" stroke="midnightblue" d="M470.04,-291.42C395.99,-271.41 276,-232.45 276,-190 276,-190 276,-190 276,-132 276,-97.18 275.3,-84.71 295,-56 304.09,-42.75 318.45,-32.14 331.26,-24.56"/>
<polygon fill="midnightblue" stroke="midnightblue" points="333.18,-27.49 340.22,-19.57 329.78,-21.37 333.18,-27.49"/>
</g>
<!-- Node29&#45;&gt;Node3 -->
<g id="edge41" class="edge">
<title>Node29&#45;&gt;Node3</title>
<path fill="none" stroke="midnightblue" d="M527,-291.4C527,-283.47 527,-273.46 527,-264.86"/>
<polygon fill="midnightblue" stroke="midnightblue" points="530.5,-264.66 527,-254.66 523.5,-264.66 530.5,-264.66"/>
</g>
<!-- Node29&#45;&gt;Node10 -->
<g id="edge42" class="edge">
<title>Node29&#45;&gt;Node10</title>
<path fill="none" stroke="midnightblue" d="M583.24,-291.43C676.26,-267.37 852,-218.18 852,-190 852,-190 852,-190 852,-132 852,-93.81 869.44,-51.83 880.69,-28.72"/>
<polygon fill="midnightblue" stroke="midnightblue" points="883.96,-30.02 885.34,-19.52 877.71,-26.86 883.96,-30.02"/>
</g>
</g>
</svg>
