<?xml version="1.0" encoding="UTF-8" standalone="no"?>
<!DOCTYPE svg PUBLIC "-//W3C//DTD SVG 1.1//EN"
 "http://www.w3.org/Graphics/SVG/1.1/DTD/svg11.dtd">
<!-- Generated by graphviz version 2.43.0 (0)
 -->
<!-- Title: traffic_mngr.h Pages: 1 -->
<svg width="1561pt" height="1046pt"
 viewBox="0.00 0.00 1561.00 1046.00" xmlns="http://www.w3.org/2000/svg" xmlns:xlink="http://www.w3.org/1999/xlink">
<g id="graph0" class="graph" transform="scale(1 1) rotate(0) translate(4 1042)">
<title>traffic_mngr.h</title>
<polygon fill="white" stroke="transparent" points="-4,4 -4,-1042 1557,-1042 1557,4 -4,4"/>
<!-- Node1 -->
<g id="node1" class="node">
<title>Node1</title>
<g id="a_node1"><a xlink:title=" ">
<polygon fill="#bfbfbf" stroke="black" points="1025,-1018.5 1025,-1037.5 1109,-1037.5 1109,-1018.5 1025,-1018.5"/>
<text text-anchor="middle" x="1067" y="-1025.5" font-family="Helvetica,sans-Serif" font-size="10.00">traffic_mngr.h</text>
</a>
</g>
</g>
<!-- Node2 -->
<g id="node2" class="node">
<title>Node2</title>
<g id="a_node2"><a xlink:title=" ">
<polygon fill="white" stroke="#bfbfbf" points="186.5,-0.5 186.5,-19.5 307.5,-19.5 307.5,-0.5 186.5,-0.5"/>
<text text-anchor="middle" x="247" y="-7.5" font-family="Helvetica,sans-Serif" font-size="10.00">odp/visibility_begin.h</text>
</a>
</g>
</g>
<!-- Node1&#45;&gt;Node2 -->
<g id="edge1" class="edge">
<title>Node1&#45;&gt;Node2</title>
<path fill="none" stroke="midnightblue" d="M1024.84,-1026.94C826.98,-1026.14 0,-1016.48 0,-911.5 0,-911.5 0,-911.5 0,-132 0,-92.97 12.51,-79.06 44,-56 82.07,-28.12 134.19,-16.98 176.09,-12.75"/>
<polygon fill="midnightblue" stroke="midnightblue" points="176.58,-16.22 186.23,-11.84 175.96,-9.25 176.58,-16.22"/>
</g>
<!-- Node3 -->
<g id="node3" class="node">
<title>Node3</title>
<g id="a_node3"><a xlink:href="packet__io__types_8h.html" target="_top" xlink:title=" ">
<polygon fill="white" stroke="black" points="635.5,-962.5 635.5,-981.5 778.5,-981.5 778.5,-962.5 635.5,-962.5"/>
<text text-anchor="middle" x="707" y="-969.5" font-family="Helvetica,sans-Serif" font-size="10.00">odp/api/packet_io_types.h</text>
</a>
</g>
</g>
<!-- Node1&#45;&gt;Node3 -->
<g id="edge2" class="edge">
<title>Node1&#45;&gt;Node3</title>
<path fill="none" stroke="midnightblue" d="M1025,-1020.7C963.26,-1011.44 847.4,-994.06 773.88,-983.03"/>
<polygon fill="midnightblue" stroke="midnightblue" points="774.21,-979.54 763.8,-981.52 773.17,-986.46 774.21,-979.54"/>
</g>
<!-- Node8 -->
<g id="node8" class="node">
<title>Node8</title>
<g id="a_node8"><a xlink:title=" ">
<polygon fill="white" stroke="#bfbfbf" points="1010,-0.5 1010,-19.5 1122,-19.5 1122,-0.5 1010,-0.5"/>
<text text-anchor="middle" x="1066" y="-7.5" font-family="Helvetica,sans-Serif" font-size="10.00">odp/visibility_end.h</text>
</a>
</g>
</g>
<!-- Node1&#45;&gt;Node8 -->
<g id="edge78" class="edge">
<title>Node1&#45;&gt;Node8</title>
<path fill="none" stroke="midnightblue" d="M1109.28,-1025.94C1227.52,-1021.85 1553,-1002.34 1553,-911.5 1553,-911.5 1553,-911.5 1553,-132 1553,-85.78 1523.35,-76.67 1482,-56 1422.32,-26.17 1234.1,-15.98 1132.53,-12.6"/>
<polygon fill="midnightblue" stroke="midnightblue" points="1132.49,-9.1 1122.39,-12.28 1132.27,-16.1 1132.49,-9.1"/>
</g>
<!-- Node15 -->
<g id="node15" class="node">
<title>Node15</title>
<g id="a_node15"><a xlink:href="std__types_8h.html" target="_top" xlink:title=" ">
<polygon fill="white" stroke="black" points="1134,-235.5 1134,-254.5 1246,-254.5 1246,-235.5 1134,-235.5"/>
<text text-anchor="middle" x="1190" y="-242.5" font-family="Helvetica,sans-Serif" font-size="10.00">odp/api/std_types.h</text>
</a>
</g>
</g>
<!-- Node1&#45;&gt;Node15 -->
<g id="edge77" class="edge">
<title>Node1&#45;&gt;Node15</title>
<path fill="none" stroke="midnightblue" d="M1109.12,-1022.43C1203.75,-1010.99 1425,-977.22 1425,-911.5 1425,-911.5 1425,-911.5 1425,-736 1425,-620.71 1311,-618.29 1311,-503 1311,-503 1311,-503 1311,-372.5 1311,-318.66 1253.05,-278.75 1217.36,-259.28"/>
<polygon fill="midnightblue" stroke="midnightblue" points="1218.86,-256.12 1208.38,-254.56 1215.6,-262.31 1218.86,-256.12"/>
</g>
<!-- Node4 -->
<g id="node4" class="node">
<title>Node4</title>
<g id="a_node4"><a xlink:title=" ">
<polygon fill="white" stroke="#bfbfbf" points="110,-548.5 110,-578.5 216,-578.5 216,-548.5 110,-548.5"/>
<text text-anchor="start" x="118" y="-566.5" font-family="Helvetica,sans-Serif" font-size="10.00">odp/api/abi/packet</text>
<text text-anchor="middle" x="163" y="-555.5" font-family="Helvetica,sans-Serif" font-size="10.00">_io_types.h</text>
</a>
</g>
</g>
<!-- Node3&#45;&gt;Node4 -->
<g id="edge3" class="edge">
<title>Node3&#45;&gt;Node4</title>
<path fill="none" stroke="midnightblue" d="M635.32,-971.1C478.72,-969.39 120,-954.12 120,-850 120,-850 120,-850 120,-680 120,-646.3 136.28,-610.35 148.8,-587.67"/>
<polygon fill="midnightblue" stroke="midnightblue" points="151.94,-589.23 153.88,-578.81 145.87,-585.75 151.94,-589.23"/>
</g>
<!-- Node5 -->
<g id="node5" class="node">
<title>Node5</title>
<g id="a_node5"><a xlink:href="spec_2packet__io__types_8h.html" target="_top" xlink:title=" ">
<polygon fill="white" stroke="black" points="650.5,-895.5 650.5,-925.5 763.5,-925.5 763.5,-895.5 650.5,-895.5"/>
<text text-anchor="start" x="658.5" y="-913.5" font-family="Helvetica,sans-Serif" font-size="10.00">odp/api/spec/packet</text>
<text text-anchor="middle" x="707" y="-902.5" font-family="Helvetica,sans-Serif" font-size="10.00">_io_types.h</text>
</a>
</g>
</g>
<!-- Node3&#45;&gt;Node5 -->
<g id="edge4" class="edge">
<title>Node3&#45;&gt;Node5</title>
<path fill="none" stroke="midnightblue" d="M707,-962.48C707,-955.47 707,-945.19 707,-935.7"/>
<polygon fill="midnightblue" stroke="midnightblue" points="710.5,-935.52 707,-925.52 703.5,-935.52 710.5,-935.52"/>
</g>
<!-- Node5&#45;&gt;Node2 -->
<g id="edge5" class="edge">
<title>Node5&#45;&gt;Node2</title>
<path fill="none" stroke="midnightblue" d="M650.29,-910.31C521.34,-908.64 207.35,-884.03 78,-691 53.48,-654.42 38,-706.45 38,-374.5 38,-374.5 38,-374.5 38,-132 38,-94.24 46.69,-79.81 76,-56 104.18,-33.11 142.82,-21.76 176.24,-16.18"/>
<polygon fill="midnightblue" stroke="midnightblue" points="177.07,-19.6 186.42,-14.63 176.01,-12.68 177.07,-19.6"/>
</g>
<!-- Node6 -->
<g id="node6" class="node">
<title>Node6</title>
<g id="a_node6"><a xlink:href="deprecated_8h.html" target="_top" xlink:title=" ">
<polygon fill="white" stroke="black" points="180.5,-492.5 180.5,-511.5 299.5,-511.5 299.5,-492.5 180.5,-492.5"/>
<text text-anchor="middle" x="240" y="-499.5" font-family="Helvetica,sans-Serif" font-size="10.00">odp/api/deprecated.h</text>
</a>
</g>
</g>
<!-- Node5&#45;&gt;Node6 -->
<g id="edge6" class="edge">
<title>Node5&#45;&gt;Node6</title>
<path fill="none" stroke="midnightblue" d="M650.33,-906.77C578.53,-899.91 464,-876.09 464,-794 464,-794 464,-794 464,-680 464,-602.19 417.18,-585.5 349,-548 325.04,-534.82 296.42,-523.15 274.52,-514.99"/>
<polygon fill="midnightblue" stroke="midnightblue" points="275.56,-511.65 264.97,-511.5 273.16,-518.22 275.56,-511.65"/>
</g>
<!-- Node5&#45;&gt;Node8 -->
<g id="edge76" class="edge">
<title>Node5&#45;&gt;Node8</title>
<path fill="none" stroke="midnightblue" d="M763.64,-908.81C915.18,-906.45 1321.57,-896.65 1368,-859 1391.38,-840.04 1387,-824.1 1387,-794 1387,-794 1387,-794 1387,-736 1387,-486.75 1515,-439.25 1515,-190 1515,-190 1515,-190 1515,-132 1515,-84.86 1483.26,-76.89 1441,-56 1388.24,-29.92 1225.07,-18.29 1132.28,-13.67"/>
<polygon fill="midnightblue" stroke="midnightblue" points="1132.31,-10.16 1122.15,-13.18 1131.97,-17.16 1132.31,-10.16"/>
</g>
<!-- Node9 -->
<g id="node9" class="node">
<title>Node9</title>
<g id="a_node9"><a xlink:href="packet__types_8h.html" target="_top" xlink:title=" ">
<polygon fill="white" stroke="black" points="306.5,-615.5 306.5,-634.5 435.5,-634.5 435.5,-615.5 306.5,-615.5"/>
<text text-anchor="middle" x="371" y="-622.5" font-family="Helvetica,sans-Serif" font-size="10.00">odp/api/packet_types.h</text>
</a>
</g>
</g>
<!-- Node5&#45;&gt;Node9 -->
<g id="edge10" class="edge">
<title>Node5&#45;&gt;Node9</title>
<path fill="none" stroke="midnightblue" d="M650.3,-909.49C595.33,-907.04 511.45,-896.66 450,-859 418.69,-839.81 399,-830.72 399,-794 399,-794 399,-794 399,-736 399,-702.79 386.87,-665.63 378.57,-644.12"/>
<polygon fill="midnightblue" stroke="midnightblue" points="381.75,-642.63 374.78,-634.65 375.25,-645.23 381.75,-642.63"/>
</g>
<!-- Node5&#45;&gt;Node15 -->
<g id="edge75" class="edge">
<title>Node5&#45;&gt;Node15</title>
<path fill="none" stroke="midnightblue" d="M763.84,-908.38C895.64,-904.26 1211,-884.89 1211,-794 1211,-794 1211,-794 1211,-372.5 1211,-333.5 1201.17,-288.64 1194.96,-264.21"/>
<polygon fill="midnightblue" stroke="midnightblue" points="1198.34,-263.29 1192.41,-254.51 1191.57,-265.07 1198.34,-263.29"/>
</g>
<!-- Node22 -->
<g id="node22" class="node">
<title>Node22</title>
<g id="a_node22"><a xlink:href="queue__types_8h.html" target="_top" xlink:title=" ">
<polygon fill="white" stroke="black" points="638.5,-492.5 638.5,-511.5 765.5,-511.5 765.5,-492.5 638.5,-492.5"/>
<text text-anchor="middle" x="702" y="-499.5" font-family="Helvetica,sans-Serif" font-size="10.00">odp/api/queue_types.h</text>
</a>
</g>
</g>
<!-- Node5&#45;&gt;Node22 -->
<g id="edge69" class="edge">
<title>Node5&#45;&gt;Node22</title>
<path fill="none" stroke="midnightblue" d="M707,-895.28C707,-873.48 707,-830.49 707,-794 707,-794 707,-794 707,-624 707,-587.68 704.72,-545.29 703.24,-521.55"/>
<polygon fill="midnightblue" stroke="midnightblue" points="706.73,-521.26 702.59,-511.5 699.75,-521.71 706.73,-521.26"/>
</g>
<!-- Node28 -->
<g id="node28" class="node">
<title>Node28</title>
<g id="a_node28"><a xlink:href="packet__io__stats_8h.html" target="_top" xlink:title=" ">
<polygon fill="white" stroke="black" points="148,-615.5 148,-634.5 288,-634.5 288,-615.5 148,-615.5"/>
<text text-anchor="middle" x="218" y="-622.5" font-family="Helvetica,sans-Serif" font-size="10.00">odp/api/packet_io_stats.h</text>
</a>
</g>
</g>
<!-- Node5&#45;&gt;Node28 -->
<g id="edge43" class="edge">
<title>Node5&#45;&gt;Node28</title>
<path fill="none" stroke="midnightblue" d="M650.4,-905.18C539.21,-895.14 303,-865.4 303,-794 303,-794 303,-794 303,-736 303,-694.76 265.14,-659.57 239.95,-640.73"/>
<polygon fill="midnightblue" stroke="midnightblue" points="241.82,-637.76 231.66,-634.76 237.73,-643.44 241.82,-637.76"/>
</g>
<!-- Node30 -->
<g id="node30" class="node">
<title>Node30</title>
<g id="a_node30"><a xlink:href="pool__types_8h.html" target="_top" xlink:title=" ">
<polygon fill="white" stroke="black" points="756,-839.5 756,-858.5 874,-858.5 874,-839.5 756,-839.5"/>
<text text-anchor="middle" x="815" y="-846.5" font-family="Helvetica,sans-Serif" font-size="10.00">odp/api/pool_types.h</text>
</a>
</g>
</g>
<!-- Node5&#45;&gt;Node30 -->
<g id="edge50" class="edge">
<title>Node5&#45;&gt;Node30</title>
<path fill="none" stroke="midnightblue" d="M732.59,-895.4C750.07,-885.77 773.09,-873.09 790.36,-863.58"/>
<polygon fill="midnightblue" stroke="midnightblue" points="792.22,-866.55 799.29,-858.66 788.84,-860.42 792.22,-866.55"/>
</g>
<!-- Node39 -->
<g id="node39" class="node">
<title>Node39</title>
<g id="a_node39"><a xlink:href="reassembly_8h.html" target="_top" xlink:title=" ">
<polygon fill="white" stroke="black" points="1239,-839.5 1239,-858.5 1359,-858.5 1359,-839.5 1239,-839.5"/>
<text text-anchor="middle" x="1299" y="-846.5" font-family="Helvetica,sans-Serif" font-size="10.00">odp/api/reassembly.h</text>
</a>
</g>
</g>
<!-- Node5&#45;&gt;Node39 -->
<g id="edge70" class="edge">
<title>Node5&#45;&gt;Node39</title>
<path fill="none" stroke="midnightblue" d="M763.77,-904.41C859.12,-895.77 1057.49,-877.35 1225,-859 1226.27,-858.86 1227.54,-858.72 1228.83,-858.58"/>
<polygon fill="midnightblue" stroke="midnightblue" points="1229.3,-862.05 1238.84,-857.44 1228.51,-855.09 1229.3,-862.05"/>
</g>
<!-- Node7 -->
<g id="node7" class="node">
<title>Node7</title>
<g id="a_node7"><a xlink:href="spec_2deprecated_8h.html" target="_top" xlink:title=" ">
<polygon fill="white" stroke="black" points="408.5,-62 408.5,-81 553.5,-81 553.5,-62 408.5,-62"/>
<text text-anchor="middle" x="481" y="-69" font-family="Helvetica,sans-Serif" font-size="10.00">odp/api/spec/deprecated.h</text>
</a>
</g>
</g>
<!-- Node6&#45;&gt;Node7 -->
<g id="edge7" class="edge">
<title>Node6&#45;&gt;Node7</title>
<path fill="none" stroke="midnightblue" d="M240,-492.41C240,-471.98 240,-418.86 240,-374.5 240,-374.5 240,-374.5 240,-244 240,-150.39 362.19,-103.14 432.56,-83.69"/>
<polygon fill="midnightblue" stroke="midnightblue" points="433.79,-86.98 442.55,-81.02 431.98,-80.22 433.79,-86.98"/>
</g>
<!-- Node7&#45;&gt;Node2 -->
<g id="edge8" class="edge">
<title>Node7&#45;&gt;Node2</title>
<path fill="none" stroke="midnightblue" d="M447.47,-61.98C406.12,-51.46 335.73,-33.56 290.32,-22.01"/>
<polygon fill="midnightblue" stroke="midnightblue" points="291.02,-18.58 280.46,-19.51 289.29,-25.37 291.02,-18.58"/>
</g>
<!-- Node7&#45;&gt;Node8 -->
<g id="edge9" class="edge">
<title>Node7&#45;&gt;Node8</title>
<path fill="none" stroke="midnightblue" d="M528.32,-61.95C541.16,-59.81 555.09,-57.66 568,-56 722.11,-36.22 904.15,-22.1 999.74,-15.4"/>
<polygon fill="midnightblue" stroke="midnightblue" points="1000.1,-18.88 1009.84,-14.7 999.62,-11.9 1000.1,-18.88"/>
</g>
<!-- Node9&#45;&gt;Node4 -->
<g id="edge11" class="edge">
<title>Node9&#45;&gt;Node4</title>
<path fill="none" stroke="midnightblue" d="M341.2,-615.48C310.13,-606.59 260.63,-592.43 221.68,-581.29"/>
<polygon fill="midnightblue" stroke="midnightblue" points="222.6,-577.91 212.02,-578.52 220.67,-584.64 222.6,-577.91"/>
</g>
<!-- Node10 -->
<g id="node10" class="node">
<title>Node10</title>
<g id="a_node10"><a xlink:title=" ">
<polygon fill="white" stroke="#bfbfbf" points="234,-548.5 234,-578.5 340,-578.5 340,-548.5 234,-548.5"/>
<text text-anchor="start" x="242" y="-566.5" font-family="Helvetica,sans-Serif" font-size="10.00">odp/api/abi/packet</text>
<text text-anchor="middle" x="287" y="-555.5" font-family="Helvetica,sans-Serif" font-size="10.00">_types.h</text>
</a>
</g>
</g>
<!-- Node9&#45;&gt;Node10 -->
<g id="edge12" class="edge">
<title>Node9&#45;&gt;Node10</title>
<path fill="none" stroke="midnightblue" d="M358.96,-615.48C347.59,-607.42 330.09,-595.02 315.2,-584.47"/>
<polygon fill="midnightblue" stroke="midnightblue" points="316.98,-581.45 306.8,-578.52 312.93,-587.16 316.98,-581.45"/>
</g>
<!-- Node11 -->
<g id="node11" class="node">
<title>Node11</title>
<g id="a_node11"><a xlink:href="spec_2packet__types_8h.html" target="_top" xlink:title=" ">
<polygon fill="white" stroke="black" points="565.5,-548.5 565.5,-578.5 678.5,-578.5 678.5,-548.5 565.5,-548.5"/>
<text text-anchor="start" x="573.5" y="-566.5" font-family="Helvetica,sans-Serif" font-size="10.00">odp/api/spec/packet</text>
<text text-anchor="middle" x="622" y="-555.5" font-family="Helvetica,sans-Serif" font-size="10.00">_types.h</text>
</a>
</g>
</g>
<!-- Node9&#45;&gt;Node11 -->
<g id="edge13" class="edge">
<title>Node9&#45;&gt;Node11</title>
<path fill="none" stroke="midnightblue" d="M406.96,-615.48C445.56,-606.33 507.74,-591.59 555.33,-580.3"/>
<polygon fill="midnightblue" stroke="midnightblue" points="556.32,-583.67 565.25,-577.95 554.71,-576.85 556.32,-583.67"/>
</g>
<!-- Node11&#45;&gt;Node2 -->
<g id="edge14" class="edge">
<title>Node11&#45;&gt;Node2</title>
<path fill="none" stroke="midnightblue" d="M583.8,-548.46C524.1,-524.66 408.73,-470.82 343,-389 254.71,-279.09 264.4,-226.77 246,-87 243.48,-67.82 244.17,-45.68 245.23,-30.26"/>
<polygon fill="midnightblue" stroke="midnightblue" points="248.74,-30.19 246.06,-19.94 241.77,-29.63 248.74,-30.19"/>
</g>
<!-- Node11&#45;&gt;Node8 -->
<g id="edge42" class="edge">
<title>Node11&#45;&gt;Node8</title>
<path fill="none" stroke="midnightblue" d="M678.74,-553.35C788.9,-532.02 1021,-468.01 1021,-307.5 1021,-307.5 1021,-307.5 1021,-244 1021,-159.87 1018.58,-136.5 1043,-56 1045.9,-46.45 1050.76,-36.5 1055.27,-28.4"/>
<polygon fill="midnightblue" stroke="midnightblue" points="1058.41,-29.97 1060.44,-19.57 1052.37,-26.43 1058.41,-29.97"/>
</g>
<!-- Node12 -->
<g id="node12" class="node">
<title>Node12</title>
<g id="a_node12"><a xlink:href="proto__stats__types_8h.html" target="_top" xlink:title=" ">
<polygon fill="white" stroke="black" points="530,-358.5 530,-388.5 640,-388.5 640,-358.5 530,-358.5"/>
<text text-anchor="start" x="538" y="-376.5" font-family="Helvetica,sans-Serif" font-size="10.00">odp/api/proto_stats</text>
<text text-anchor="middle" x="585" y="-365.5" font-family="Helvetica,sans-Serif" font-size="10.00">_types.h</text>
</a>
</g>
</g>
<!-- Node11&#45;&gt;Node12 -->
<g id="edge15" class="edge">
<title>Node11&#45;&gt;Node12</title>
<path fill="none" stroke="midnightblue" d="M619.22,-548.37C612.92,-516.38 597.52,-438.11 589.71,-398.42"/>
<polygon fill="midnightblue" stroke="midnightblue" points="593.13,-397.67 587.76,-388.54 586.26,-399.03 593.13,-397.67"/>
</g>
<!-- Node11&#45;&gt;Node22 -->
<g id="edge31" class="edge">
<title>Node11&#45;&gt;Node22</title>
<path fill="none" stroke="midnightblue" d="M640.96,-548.4C653.42,-539.13 669.7,-527.03 682.31,-517.65"/>
<polygon fill="midnightblue" stroke="midnightblue" points="684.42,-520.43 690.36,-511.66 680.25,-514.82 684.42,-520.43"/>
</g>
<!-- Node13 -->
<g id="node13" class="node">
<title>Node13</title>
<g id="a_node13"><a xlink:title=" ">
<polygon fill="white" stroke="#bfbfbf" points="385,-291.5 385,-321.5 513,-321.5 513,-291.5 385,-291.5"/>
<text text-anchor="start" x="393" y="-309.5" font-family="Helvetica,sans-Serif" font-size="10.00">odp/api/abi/proto_stats</text>
<text text-anchor="middle" x="449" y="-298.5" font-family="Helvetica,sans-Serif" font-size="10.00">_types.h</text>
</a>
</g>
</g>
<!-- Node12&#45;&gt;Node13 -->
<g id="edge16" class="edge">
<title>Node12&#45;&gt;Node13</title>
<path fill="none" stroke="midnightblue" d="M555.49,-358.4C535.62,-348.9 509.21,-336.28 487.66,-325.98"/>
<polygon fill="midnightblue" stroke="midnightblue" points="488.98,-322.73 478.45,-321.58 485.97,-329.05 488.98,-322.73"/>
</g>
<!-- Node14 -->
<g id="node14" class="node">
<title>Node14</title>
<g id="a_node14"><a xlink:href="spec_2proto__stats__types_8h.html" target="_top" xlink:title=" ">
<polygon fill="white" stroke="black" points="531.5,-291.5 531.5,-321.5 638.5,-321.5 638.5,-291.5 531.5,-291.5"/>
<text text-anchor="start" x="539.5" y="-309.5" font-family="Helvetica,sans-Serif" font-size="10.00">odp/api/spec/proto</text>
<text text-anchor="middle" x="585" y="-298.5" font-family="Helvetica,sans-Serif" font-size="10.00">_stats_types.h</text>
</a>
</g>
</g>
<!-- Node12&#45;&gt;Node14 -->
<g id="edge17" class="edge">
<title>Node12&#45;&gt;Node14</title>
<path fill="none" stroke="midnightblue" d="M585,-358.4C585,-350.64 585,-340.81 585,-331.86"/>
<polygon fill="midnightblue" stroke="midnightblue" points="588.5,-331.58 585,-321.58 581.5,-331.58 588.5,-331.58"/>
</g>
<!-- Node14&#45;&gt;Node2 -->
<g id="edge18" class="edge">
<title>Node14&#45;&gt;Node2</title>
<path fill="none" stroke="midnightblue" d="M531.29,-293.1C473.05,-279.51 387.46,-259.1 381,-255 297.14,-201.77 261.56,-76.74 250.79,-29.51"/>
<polygon fill="midnightblue" stroke="midnightblue" points="254.21,-28.76 248.67,-19.73 247.37,-30.24 254.21,-28.76"/>
</g>
<!-- Node14&#45;&gt;Node8 -->
<g id="edge30" class="edge">
<title>Node14&#45;&gt;Node8</title>
<path fill="none" stroke="midnightblue" d="M638.82,-291.62C686.3,-275.75 748,-244.63 748,-190 748,-190 748,-190 748,-132 748,-97.18 741.23,-79.42 767,-56 800.18,-25.85 922.22,-15.9 999.75,-12.62"/>
<polygon fill="midnightblue" stroke="midnightblue" points="1000.06,-16.11 1009.92,-12.21 999.79,-9.11 1000.06,-16.11"/>
</g>
<!-- Node14&#45;&gt;Node15 -->
<g id="edge19" class="edge">
<title>Node14&#45;&gt;Node15</title>
<path fill="none" stroke="midnightblue" d="M638.67,-292.44C641.48,-291.91 644.27,-291.43 647,-291 817.52,-264.14 1020.84,-252.71 1123.56,-248.36"/>
<polygon fill="midnightblue" stroke="midnightblue" points="1123.94,-251.85 1133.79,-247.93 1123.65,-244.85 1123.94,-251.85"/>
</g>
<!-- Node16 -->
<g id="node16" class="node">
<title>Node16</title>
<g id="a_node16"><a xlink:title=" ">
<polygon fill="white" stroke="#bfbfbf" points="1125,-179.5 1125,-198.5 1255,-198.5 1255,-179.5 1125,-179.5"/>
<text text-anchor="middle" x="1190" y="-186.5" font-family="Helvetica,sans-Serif" font-size="10.00">odp/api/abi/std_types.h</text>
</a>
</g>
</g>
<!-- Node15&#45;&gt;Node16 -->
<g id="edge20" class="edge">
<title>Node15&#45;&gt;Node16</title>
<path fill="none" stroke="midnightblue" d="M1190,-235.08C1190,-228.01 1190,-217.86 1190,-208.99"/>
<polygon fill="midnightblue" stroke="midnightblue" points="1193.5,-208.75 1190,-198.75 1186.5,-208.75 1193.5,-208.75"/>
</g>
<!-- Node17 -->
<g id="node17" class="node">
<title>Node17</title>
<g id="a_node17"><a xlink:href="spec_2std__types_8h.html" target="_top" xlink:title=" ">
<polygon fill="white" stroke="black" points="1311.5,-179.5 1311.5,-198.5 1448.5,-198.5 1448.5,-179.5 1311.5,-179.5"/>
<text text-anchor="middle" x="1380" y="-186.5" font-family="Helvetica,sans-Serif" font-size="10.00">odp/api/spec/std_types.h</text>
</a>
</g>
</g>
<!-- Node15&#45;&gt;Node17 -->
<g id="edge21" class="edge">
<title>Node15&#45;&gt;Node17</title>
<path fill="none" stroke="midnightblue" d="M1220.11,-235.44C1252.63,-226.2 1304.58,-211.44 1340.39,-201.26"/>
<polygon fill="midnightblue" stroke="midnightblue" points="1341.37,-204.62 1350.03,-198.52 1339.46,-197.88 1341.37,-204.62"/>
</g>
<!-- Node17&#45;&gt;Node2 -->
<g id="edge22" class="edge">
<title>Node17&#45;&gt;Node2</title>
<path fill="none" stroke="midnightblue" d="M1311.18,-180.33C1306.38,-179.86 1301.62,-179.41 1297,-179 897.37,-143.54 770.67,-238.06 399,-87 377.17,-78.13 376.58,-67.46 356,-56 332.27,-42.78 303.86,-31.18 281.99,-23.07"/>
<polygon fill="midnightblue" stroke="midnightblue" points="283.04,-19.72 272.45,-19.59 280.64,-26.3 283.04,-19.72"/>
</g>
<!-- Node17&#45;&gt;Node8 -->
<g id="edge29" class="edge">
<title>Node17&#45;&gt;Node8</title>
<path fill="none" stroke="midnightblue" d="M1384.37,-179.31C1388.56,-170.44 1394.6,-156.14 1397,-143 1404.23,-103.42 1403.29,-81.29 1372,-56 1336.23,-27.09 1211.31,-16.72 1132.57,-13.02"/>
<polygon fill="midnightblue" stroke="midnightblue" points="1132.4,-9.51 1122.25,-12.56 1132.09,-16.51 1132.4,-9.51"/>
</g>
<!-- Node18 -->
<g id="node18" class="node">
<title>Node18</title>
<g id="a_node18"><a xlink:title=" ">
<polygon fill="white" stroke="#bfbfbf" points="1334.5,-123.5 1334.5,-142.5 1387.5,-142.5 1387.5,-123.5 1334.5,-123.5"/>
<text text-anchor="middle" x="1361" y="-130.5" font-family="Helvetica,sans-Serif" font-size="10.00">stdint.h</text>
</a>
</g>
</g>
<!-- Node17&#45;&gt;Node18 -->
<g id="edge23" class="edge">
<title>Node17&#45;&gt;Node18</title>
<path fill="none" stroke="midnightblue" d="M1376.86,-179.08C1374.32,-171.85 1370.64,-161.41 1367.47,-152.4"/>
<polygon fill="midnightblue" stroke="midnightblue" points="1370.7,-151.02 1364.08,-142.75 1364.1,-153.35 1370.7,-151.02"/>
</g>
<!-- Node19 -->
<g id="node19" class="node">
<title>Node19</title>
<g id="a_node19"><a xlink:href="align_8h.html" target="_top" xlink:title=" ">
<polygon fill="white" stroke="black" points="1188.5,-123.5 1188.5,-142.5 1277.5,-142.5 1277.5,-123.5 1188.5,-123.5"/>
<text text-anchor="middle" x="1233" y="-130.5" font-family="Helvetica,sans-Serif" font-size="10.00">odp/api/align.h</text>
</a>
</g>
</g>
<!-- Node17&#45;&gt;Node19 -->
<g id="edge24" class="edge">
<title>Node17&#45;&gt;Node19</title>
<path fill="none" stroke="midnightblue" d="M1356.71,-179.44C1332.19,-170.44 1293.4,-156.19 1265.8,-146.05"/>
<polygon fill="midnightblue" stroke="midnightblue" points="1266.78,-142.68 1256.18,-142.52 1264.36,-149.25 1266.78,-142.68"/>
</g>
<!-- Node20 -->
<g id="node20" class="node">
<title>Node20</title>
<g id="a_node20"><a xlink:title=" ">
<polygon fill="white" stroke="#bfbfbf" points="1222.5,-62 1222.5,-81 1329.5,-81 1329.5,-62 1222.5,-62"/>
<text text-anchor="middle" x="1276" y="-69" font-family="Helvetica,sans-Serif" font-size="10.00">odp/api/abi/align.h</text>
</a>
</g>
</g>
<!-- Node19&#45;&gt;Node20 -->
<g id="edge25" class="edge">
<title>Node19&#45;&gt;Node20</title>
<path fill="none" stroke="midnightblue" d="M1239.16,-123.48C1245.61,-114.55 1255.9,-100.31 1263.97,-89.14"/>
<polygon fill="midnightblue" stroke="midnightblue" points="1266.83,-91.16 1269.85,-81.01 1261.16,-87.06 1266.83,-91.16"/>
</g>
<!-- Node21 -->
<g id="node21" class="node">
<title>Node21</title>
<g id="a_node21"><a xlink:href="spec_2align_8h.html" target="_top" xlink:title=" ">
<polygon fill="white" stroke="black" points="1052,-62 1052,-81 1166,-81 1166,-62 1052,-62"/>
<text text-anchor="middle" x="1109" y="-69" font-family="Helvetica,sans-Serif" font-size="10.00">odp/api/spec/align.h</text>
</a>
</g>
</g>
<!-- Node19&#45;&gt;Node21 -->
<g id="edge26" class="edge">
<title>Node19&#45;&gt;Node21</title>
<path fill="none" stroke="midnightblue" d="M1215.23,-123.48C1194.52,-113.53 1160.05,-96.99 1136.01,-85.46"/>
<polygon fill="midnightblue" stroke="midnightblue" points="1137.26,-82.18 1126.73,-81.01 1134.23,-88.49 1137.26,-82.18"/>
</g>
<!-- Node21&#45;&gt;Node2 -->
<g id="edge27" class="edge">
<title>Node21&#45;&gt;Node2</title>
<path fill="none" stroke="midnightblue" d="M1051.95,-65.72C1016.33,-62.79 969.5,-59.03 928,-56 705.3,-39.72 441.44,-23.02 317.7,-15.35"/>
<polygon fill="midnightblue" stroke="midnightblue" points="317.8,-11.85 307.6,-14.72 317.37,-18.83 317.8,-11.85"/>
</g>
<!-- Node21&#45;&gt;Node8 -->
<g id="edge28" class="edge">
<title>Node21&#45;&gt;Node8</title>
<path fill="none" stroke="midnightblue" d="M1102.84,-61.98C1096.39,-53.05 1086.1,-38.81 1078.03,-27.64"/>
<polygon fill="midnightblue" stroke="midnightblue" points="1080.84,-25.56 1072.15,-19.51 1075.17,-29.66 1080.84,-25.56"/>
</g>
<!-- Node23 -->
<g id="node23" class="node">
<title>Node23</title>
<g id="a_node23"><a xlink:title=" ">
<polygon fill="white" stroke="#bfbfbf" points="624.5,-431 624.5,-450 769.5,-450 769.5,-431 624.5,-431"/>
<text text-anchor="middle" x="697" y="-438" font-family="Helvetica,sans-Serif" font-size="10.00">odp/api/abi/queue_types.h</text>
</a>
</g>
</g>
<!-- Node22&#45;&gt;Node23 -->
<g id="edge32" class="edge">
<title>Node22&#45;&gt;Node23</title>
<path fill="none" stroke="midnightblue" d="M701.28,-492.48C700.58,-484.08 699.48,-470.98 698.57,-460.16"/>
<polygon fill="midnightblue" stroke="midnightblue" points="702.04,-459.68 697.72,-450.01 695.06,-460.27 702.04,-459.68"/>
</g>
<!-- Node24 -->
<g id="node24" class="node">
<title>Node24</title>
<g id="a_node24"><a xlink:href="spec_2queue__types_8h.html" target="_top" xlink:title=" ">
<polygon fill="white" stroke="black" points="787.5,-425.5 787.5,-455.5 898.5,-455.5 898.5,-425.5 787.5,-425.5"/>
<text text-anchor="start" x="795.5" y="-443.5" font-family="Helvetica,sans-Serif" font-size="10.00">odp/api/spec/queue</text>
<text text-anchor="middle" x="843" y="-432.5" font-family="Helvetica,sans-Serif" font-size="10.00">_types.h</text>
</a>
</g>
</g>
<!-- Node22&#45;&gt;Node24 -->
<g id="edge33" class="edge">
<title>Node22&#45;&gt;Node24</title>
<path fill="none" stroke="midnightblue" d="M722.2,-492.48C742.55,-483.89 774.56,-470.38 800.51,-459.43"/>
<polygon fill="midnightblue" stroke="midnightblue" points="801.92,-462.64 809.77,-455.52 799.2,-456.19 801.92,-462.64"/>
</g>
<!-- Node24&#45;&gt;Node2 -->
<g id="edge34" class="edge">
<title>Node24&#45;&gt;Node2</title>
<path fill="none" stroke="midnightblue" d="M787.39,-426.79C784.22,-426.16 781.07,-425.56 778,-425 596.52,-392.1 511.04,-447.63 376,-322 289.99,-241.98 283.76,-200.9 255,-87 250.19,-67.93 248.27,-45.47 247.5,-29.93"/>
<polygon fill="midnightblue" stroke="midnightblue" points="250.98,-29.43 247.11,-19.57 243.99,-29.7 250.98,-29.43"/>
</g>
<!-- Node24&#45;&gt;Node8 -->
<g id="edge41" class="edge">
<title>Node24&#45;&gt;Node8</title>
<path fill="none" stroke="midnightblue" d="M876.05,-425.46C892.11,-417.07 910.39,-404.91 922,-389 1012.21,-265.32 926.61,-184.37 1010,-56 1018.1,-43.54 1030.79,-32.93 1042.04,-25.15"/>
<polygon fill="midnightblue" stroke="midnightblue" points="1044.18,-27.93 1050.64,-19.53 1040.36,-22.07 1044.18,-27.93"/>
</g>
<!-- Node25 -->
<g id="node25" class="node">
<title>Node25</title>
<g id="a_node25"><a xlink:href="schedule__types_8h.html" target="_top" xlink:title=" ">
<polygon fill="white" stroke="black" points="773,-364 773,-383 913,-383 913,-364 773,-364"/>
<text text-anchor="middle" x="843" y="-371" font-family="Helvetica,sans-Serif" font-size="10.00">odp/api/schedule_types.h</text>
</a>
</g>
</g>
<!-- Node24&#45;&gt;Node25 -->
<g id="edge35" class="edge">
<title>Node24&#45;&gt;Node25</title>
<path fill="none" stroke="midnightblue" d="M843,-425.4C843,-416.06 843,-403.71 843,-393.52"/>
<polygon fill="midnightblue" stroke="midnightblue" points="846.5,-393.19 843,-383.19 839.5,-393.19 846.5,-393.19"/>
</g>
<!-- Node26 -->
<g id="node26" class="node">
<title>Node26</title>
<g id="a_node26"><a xlink:title=" ">
<polygon fill="white" stroke="#bfbfbf" points="656.5,-291.5 656.5,-321.5 773.5,-321.5 773.5,-291.5 656.5,-291.5"/>
<text text-anchor="start" x="664.5" y="-309.5" font-family="Helvetica,sans-Serif" font-size="10.00">odp/api/abi/schedule</text>
<text text-anchor="middle" x="715" y="-298.5" font-family="Helvetica,sans-Serif" font-size="10.00">_types.h</text>
</a>
</g>
</g>
<!-- Node25&#45;&gt;Node26 -->
<g id="edge36" class="edge">
<title>Node25&#45;&gt;Node26</title>
<path fill="none" stroke="midnightblue" d="M826,-363.87C807.19,-354.31 776.3,-338.63 751.87,-326.22"/>
<polygon fill="midnightblue" stroke="midnightblue" points="753.37,-323.06 742.87,-321.65 750.2,-329.3 753.37,-323.06"/>
</g>
<!-- Node27 -->
<g id="node27" class="node">
<title>Node27</title>
<g id="a_node27"><a xlink:href="spec_2schedule__types_8h.html" target="_top" xlink:title=" ">
<polygon fill="white" stroke="black" points="791.5,-291.5 791.5,-321.5 916.5,-321.5 916.5,-291.5 791.5,-291.5"/>
<text text-anchor="start" x="799.5" y="-309.5" font-family="Helvetica,sans-Serif" font-size="10.00">odp/api/spec/schedule</text>
<text text-anchor="middle" x="854" y="-298.5" font-family="Helvetica,sans-Serif" font-size="10.00">_types.h</text>
</a>
</g>
</g>
<!-- Node25&#45;&gt;Node27 -->
<g id="edge37" class="edge">
<title>Node25&#45;&gt;Node27</title>
<path fill="none" stroke="midnightblue" d="M844.48,-363.73C845.87,-355.54 848.01,-342.92 849.9,-331.71"/>
<polygon fill="midnightblue" stroke="midnightblue" points="853.4,-332.03 851.62,-321.59 846.5,-330.86 853.4,-332.03"/>
</g>
<!-- Node27&#45;&gt;Node2 -->
<g id="edge38" class="edge">
<title>Node27&#45;&gt;Node2</title>
<path fill="none" stroke="midnightblue" d="M800.76,-291.48C690.18,-261.78 439.79,-191.27 366,-143 317.98,-111.59 276.93,-56.15 258.06,-28.17"/>
<polygon fill="midnightblue" stroke="midnightblue" points="260.97,-26.23 252.54,-19.81 255.13,-30.09 260.97,-26.23"/>
</g>
<!-- Node27&#45;&gt;Node8 -->
<g id="edge40" class="edge">
<title>Node27&#45;&gt;Node8</title>
<path fill="none" stroke="midnightblue" d="M859.19,-291.49C876.86,-244.38 935.58,-92.59 972,-56 986.93,-41 1007.84,-30.31 1026.15,-23.13"/>
<polygon fill="midnightblue" stroke="midnightblue" points="1027.56,-26.34 1035.72,-19.59 1025.13,-19.77 1027.56,-26.34"/>
</g>
<!-- Node27&#45;&gt;Node15 -->
<g id="edge39" class="edge">
<title>Node27&#45;&gt;Node15</title>
<path fill="none" stroke="midnightblue" d="M916.8,-294.38C978.48,-283.46 1071.81,-266.93 1131.84,-256.3"/>
<polygon fill="midnightblue" stroke="midnightblue" points="1132.67,-259.71 1141.91,-254.52 1131.45,-252.81 1132.67,-259.71"/>
</g>
<!-- Node28&#45;&gt;Node4 -->
<g id="edge44" class="edge">
<title>Node28&#45;&gt;Node4</title>
<path fill="none" stroke="midnightblue" d="M210.12,-615.48C203.02,-607.79 192.28,-596.17 182.84,-585.96"/>
<polygon fill="midnightblue" stroke="midnightblue" points="185.32,-583.49 175.96,-578.52 180.18,-588.24 185.32,-583.49"/>
</g>
<!-- Node29 -->
<g id="node29" class="node">
<title>Node29</title>
<g id="a_node29"><a xlink:href="spec_2packet__io__stats_8h.html" target="_top" xlink:title=" ">
<polygon fill="white" stroke="black" points="434.5,-548.5 434.5,-578.5 547.5,-578.5 547.5,-548.5 434.5,-548.5"/>
<text text-anchor="start" x="442.5" y="-566.5" font-family="Helvetica,sans-Serif" font-size="10.00">odp/api/spec/packet</text>
<text text-anchor="middle" x="491" y="-555.5" font-family="Helvetica,sans-Serif" font-size="10.00">_io_stats.h</text>
</a>
</g>
</g>
<!-- Node28&#45;&gt;Node29 -->
<g id="edge45" class="edge">
<title>Node28&#45;&gt;Node29</title>
<path fill="none" stroke="midnightblue" d="M257.11,-615.48C300.74,-605.97 372.07,-590.42 424.51,-578.99"/>
<polygon fill="midnightblue" stroke="midnightblue" points="425.37,-582.39 434.4,-576.84 423.88,-575.55 425.37,-582.39"/>
</g>
<!-- Node29&#45;&gt;Node2 -->
<g id="edge46" class="edge">
<title>Node29&#45;&gt;Node2</title>
<path fill="none" stroke="midnightblue" d="M448.54,-548.48C420.77,-538.96 383.85,-525.67 352,-512 344.13,-508.62 76,-383.07 76,-374.5 76,-374.5 76,-374.5 76,-132 76,-96.58 74.84,-80.94 100,-56 120.34,-35.84 149.46,-24.67 176.43,-18.5"/>
<polygon fill="midnightblue" stroke="midnightblue" points="177.17,-21.92 186.24,-16.45 175.74,-15.07 177.17,-21.92"/>
</g>
<!-- Node29&#45;&gt;Node6 -->
<g id="edge47" class="edge">
<title>Node29&#45;&gt;Node6</title>
<path fill="none" stroke="midnightblue" d="M434.36,-549.07C389.48,-538.43 327.58,-523.76 285.79,-513.86"/>
<polygon fill="midnightblue" stroke="midnightblue" points="286.42,-510.41 275.89,-511.51 284.81,-517.22 286.42,-510.41"/>
</g>
<!-- Node29&#45;&gt;Node8 -->
<g id="edge49" class="edge">
<title>Node29&#45;&gt;Node8</title>
<path fill="none" stroke="midnightblue" d="M477.16,-548.38C442.93,-511.87 357,-410.02 357,-307.5 357,-307.5 357,-307.5 357,-244 357,-129.24 471.52,-157.6 562,-87 579.46,-73.38 580.47,-64.3 601,-56 671.64,-27.45 889.06,-16.57 999.76,-12.8"/>
<polygon fill="midnightblue" stroke="midnightblue" points="999.93,-16.3 1009.81,-12.47 999.7,-9.3 999.93,-16.3"/>
</g>
<!-- Node29&#45;&gt;Node22 -->
<g id="edge48" class="edge">
<title>Node29&#45;&gt;Node22</title>
<path fill="none" stroke="midnightblue" d="M540.74,-548.47C577.77,-538.03 627.68,-523.96 662.12,-514.25"/>
<polygon fill="midnightblue" stroke="midnightblue" points="663.16,-517.59 671.83,-511.51 661.26,-510.85 663.16,-517.59"/>
</g>
<!-- Node31 -->
<g id="node31" class="node">
<title>Node31</title>
<g id="a_node31"><a xlink:title=" ">
<polygon fill="white" stroke="#bfbfbf" points="747,-783.5 747,-802.5 883,-802.5 883,-783.5 747,-783.5"/>
<text text-anchor="middle" x="815" y="-790.5" font-family="Helvetica,sans-Serif" font-size="10.00">odp/api/abi/pool_types.h</text>
</a>
</g>
</g>
<!-- Node30&#45;&gt;Node31 -->
<g id="edge51" class="edge">
<title>Node30&#45;&gt;Node31</title>
<path fill="none" stroke="midnightblue" d="M815,-839.08C815,-832.01 815,-821.86 815,-812.99"/>
<polygon fill="midnightblue" stroke="midnightblue" points="818.5,-812.75 815,-802.75 811.5,-812.75 818.5,-812.75"/>
</g>
<!-- Node32 -->
<g id="node32" class="node">
<title>Node32</title>
<g id="a_node32"><a xlink:href="spec_2pool__types_8h.html" target="_top" xlink:title=" ">
<polygon fill="white" stroke="black" points="907.5,-783.5 907.5,-802.5 1050.5,-802.5 1050.5,-783.5 907.5,-783.5"/>
<text text-anchor="middle" x="979" y="-790.5" font-family="Helvetica,sans-Serif" font-size="10.00">odp/api/spec/pool_types.h</text>
</a>
</g>
</g>
<!-- Node30&#45;&gt;Node32 -->
<g id="edge52" class="edge">
<title>Node30&#45;&gt;Node32</title>
<path fill="none" stroke="midnightblue" d="M840.99,-839.44C868.7,-830.32 912.75,-815.81 943.62,-805.65"/>
<polygon fill="midnightblue" stroke="midnightblue" points="944.73,-808.97 953.14,-802.52 942.54,-802.32 944.73,-808.97"/>
</g>
<!-- Node32&#45;&gt;Node2 -->
<g id="edge53" class="edge">
<title>Node32&#45;&gt;Node2</title>
<path fill="none" stroke="midnightblue" d="M907.49,-784.17C694.98,-760.77 82,-692.38 82,-682 82,-682 82,-682 82,-624 82,-512.2 114,-486.3 114,-374.5 114,-374.5 114,-374.5 114,-132 114,-77.75 175.28,-41.4 214.65,-23.64"/>
<polygon fill="midnightblue" stroke="midnightblue" points="216.35,-26.72 224.14,-19.53 213.57,-20.3 216.35,-26.72"/>
</g>
<!-- Node32&#45;&gt;Node8 -->
<g id="edge68" class="edge">
<title>Node32&#45;&gt;Node8</title>
<path fill="none" stroke="midnightblue" d="M1000.92,-783.39C1035.04,-768.37 1097,-733.95 1097,-682 1097,-682 1097,-682 1097,-244 1097,-213.9 1093.93,-199.46 1116,-179 1172.64,-126.5 1218.81,-181.08 1286,-143 1325.19,-120.79 1367.14,-90.35 1338,-56 1312.14,-25.51 1204.23,-15.65 1132.35,-12.48"/>
<polygon fill="midnightblue" stroke="midnightblue" points="1132.15,-8.97 1122.02,-12.06 1131.87,-15.96 1132.15,-8.97"/>
</g>
<!-- Node32&#45;&gt;Node15 -->
<g id="edge54" class="edge">
<title>Node32&#45;&gt;Node15</title>
<path fill="none" stroke="midnightblue" d="M1039.58,-783.5C1096.51,-771.69 1173,-744.24 1173,-682 1173,-682 1173,-682 1173,-372.5 1173,-333.86 1180.89,-289.16 1185.92,-264.59"/>
<polygon fill="midnightblue" stroke="midnightblue" points="1189.4,-265.04 1188.05,-254.54 1182.55,-263.59 1189.4,-265.04"/>
</g>
<!-- Node33 -->
<g id="node33" class="node">
<title>Node33</title>
<g id="a_node33"><a xlink:href="dma__types_8h.html" target="_top" xlink:title=" ">
<polygon fill="white" stroke="black" points="919.5,-727.5 919.5,-746.5 1038.5,-746.5 1038.5,-727.5 919.5,-727.5"/>
<text text-anchor="middle" x="979" y="-734.5" font-family="Helvetica,sans-Serif" font-size="10.00">odp/api/dma_types.h</text>
</a>
</g>
</g>
<!-- Node32&#45;&gt;Node33 -->
<g id="edge55" class="edge">
<title>Node32&#45;&gt;Node33</title>
<path fill="none" stroke="midnightblue" d="M979,-783.08C979,-776.01 979,-765.86 979,-756.99"/>
<polygon fill="midnightblue" stroke="midnightblue" points="982.5,-756.75 979,-746.75 975.5,-756.75 982.5,-756.75"/>
</g>
<!-- Node34 -->
<g id="node34" class="node">
<title>Node34</title>
<g id="a_node34"><a xlink:title=" ">
<polygon fill="white" stroke="#bfbfbf" points="753.5,-671.5 753.5,-690.5 890.5,-690.5 890.5,-671.5 753.5,-671.5"/>
<text text-anchor="middle" x="822" y="-678.5" font-family="Helvetica,sans-Serif" font-size="10.00">odp/api/abi/dma_types.h</text>
</a>
</g>
</g>
<!-- Node33&#45;&gt;Node34 -->
<g id="edge56" class="edge">
<title>Node33&#45;&gt;Node34</title>
<path fill="none" stroke="midnightblue" d="M954.12,-727.44C927.71,-718.36 885.78,-703.94 856.26,-693.78"/>
<polygon fill="midnightblue" stroke="midnightblue" points="857.36,-690.46 846.76,-690.52 855.08,-697.08 857.36,-690.46"/>
</g>
<!-- Node35 -->
<g id="node35" class="node">
<title>Node35</title>
<g id="a_node35"><a xlink:href="spec_2dma__types_8h.html" target="_top" xlink:title=" ">
<polygon fill="white" stroke="black" points="909,-671.5 909,-690.5 1053,-690.5 1053,-671.5 909,-671.5"/>
<text text-anchor="middle" x="981" y="-678.5" font-family="Helvetica,sans-Serif" font-size="10.00">odp/api/spec/dma_types.h</text>
</a>
</g>
</g>
<!-- Node33&#45;&gt;Node35 -->
<g id="edge57" class="edge">
<title>Node33&#45;&gt;Node35</title>
<path fill="none" stroke="midnightblue" d="M979.33,-727.08C979.59,-720.01 979.97,-709.86 980.3,-700.99"/>
<polygon fill="midnightblue" stroke="midnightblue" points="983.8,-700.87 980.68,-690.75 976.81,-700.61 983.8,-700.87"/>
</g>
<!-- Node35&#45;&gt;Node2 -->
<g id="edge58" class="edge">
<title>Node35&#45;&gt;Node2</title>
<path fill="none" stroke="midnightblue" d="M908.81,-671.75C801.69,-658.43 595.02,-628.53 425,-579 389.98,-568.8 383.92,-558.55 349,-548 271.74,-524.66 229.86,-567.23 171,-512 147.33,-489.8 152,-473.95 152,-441.5 152,-441.5 152,-441.5 152,-132 152,-85.25 196.42,-45.86 224.51,-25.62"/>
<polygon fill="midnightblue" stroke="midnightblue" points="226.77,-28.32 232.98,-19.74 222.77,-22.57 226.77,-28.32"/>
</g>
<!-- Node35&#45;&gt;Node8 -->
<g id="edge67" class="edge">
<title>Node35&#45;&gt;Node8</title>
<path fill="none" stroke="midnightblue" d="M992.18,-671.49C1013.74,-654 1059,-611.68 1059,-564.5 1059,-564.5 1059,-564.5 1059,-244 1059,-213.2 1066.39,-204.93 1083,-179 1114.18,-130.3 1152.87,-140.42 1175,-87 1180.27,-74.27 1182.66,-67.45 1175,-56 1164.09,-39.7 1146.09,-29.3 1127.82,-22.66"/>
<polygon fill="midnightblue" stroke="midnightblue" points="1128.87,-19.32 1118.28,-19.52 1126.68,-25.97 1128.87,-19.32"/>
</g>
<!-- Node35&#45;&gt;Node9 -->
<g id="edge64" class="edge">
<title>Node35&#45;&gt;Node9</title>
<path fill="none" stroke="midnightblue" d="M908.57,-671.95C905.34,-671.63 902.14,-671.31 899,-671 737.66,-655.27 548.29,-639.88 445.9,-631.81"/>
<polygon fill="midnightblue" stroke="midnightblue" points="445.91,-628.3 435.66,-631 445.36,-635.28 445.91,-628.3"/>
</g>
<!-- Node35&#45;&gt;Node15 -->
<g id="edge66" class="edge">
<title>Node35&#45;&gt;Node15</title>
<path fill="none" stroke="midnightblue" d="M1013.66,-671.41C1058.86,-657.32 1135,-624.66 1135,-564.5 1135,-564.5 1135,-564.5 1135,-372.5 1135,-334.74 1142.75,-325.09 1159,-291 1163.74,-281.06 1170.55,-270.89 1176.58,-262.74"/>
<polygon fill="midnightblue" stroke="midnightblue" points="1179.37,-264.85 1182.68,-254.79 1173.82,-260.59 1179.37,-264.85"/>
</g>
<!-- Node35&#45;&gt;Node22 -->
<g id="edge65" class="edge">
<title>Node35&#45;&gt;Node22</title>
<path fill="none" stroke="midnightblue" d="M967.54,-671.46C922.99,-643.2 779.96,-552.46 724.38,-517.2"/>
<polygon fill="midnightblue" stroke="midnightblue" points="725.97,-514.06 715.65,-511.66 722.22,-519.97 725.97,-514.06"/>
</g>
<!-- Node36 -->
<g id="node36" class="node">
<title>Node36</title>
<g id="a_node36"><a xlink:href="event__types_8h.html" target="_top" xlink:title=" ">
<polygon fill="white" stroke="black" points="785.5,-123.5 785.5,-142.5 910.5,-142.5 910.5,-123.5 785.5,-123.5"/>
<text text-anchor="middle" x="848" y="-130.5" font-family="Helvetica,sans-Serif" font-size="10.00">odp/api/event_types.h</text>
</a>
</g>
</g>
<!-- Node35&#45;&gt;Node36 -->
<g id="edge59" class="edge">
<title>Node35&#45;&gt;Node36</title>
<path fill="none" stroke="midnightblue" d="M981.25,-671.31C981.79,-652.06 983,-604.41 983,-564.5 983,-564.5 983,-564.5 983,-305.5 983,-233.76 909.17,-174.33 870.7,-148.24"/>
<polygon fill="midnightblue" stroke="midnightblue" points="872.47,-145.21 862.19,-142.62 868.61,-151.05 872.47,-145.21"/>
</g>
<!-- Node37 -->
<g id="node37" class="node">
<title>Node37</title>
<g id="a_node37"><a xlink:title=" ">
<polygon fill="white" stroke="#bfbfbf" points="776.5,-62 776.5,-81 919.5,-81 919.5,-62 776.5,-62"/>
<text text-anchor="middle" x="848" y="-69" font-family="Helvetica,sans-Serif" font-size="10.00">odp/api/abi/event_types.h</text>
</a>
</g>
</g>
<!-- Node36&#45;&gt;Node37 -->
<g id="edge60" class="edge">
<title>Node36&#45;&gt;Node37</title>
<path fill="none" stroke="midnightblue" d="M848,-123.48C848,-115.08 848,-101.98 848,-91.16"/>
<polygon fill="midnightblue" stroke="midnightblue" points="851.5,-91.01 848,-81.01 844.5,-91.01 851.5,-91.01"/>
</g>
<!-- Node38 -->
<g id="node38" class="node">
<title>Node38</title>
<g id="a_node38"><a xlink:href="spec_2event__types_8h.html" target="_top" xlink:title=" ">
<polygon fill="white" stroke="black" points="610.5,-56.5 610.5,-86.5 719.5,-86.5 719.5,-56.5 610.5,-56.5"/>
<text text-anchor="start" x="618.5" y="-74.5" font-family="Helvetica,sans-Serif" font-size="10.00">odp/api/spec/event</text>
<text text-anchor="middle" x="665" y="-63.5" font-family="Helvetica,sans-Serif" font-size="10.00">_types.h</text>
</a>
</g>
</g>
<!-- Node36&#45;&gt;Node38 -->
<g id="edge61" class="edge">
<title>Node36&#45;&gt;Node38</title>
<path fill="none" stroke="midnightblue" d="M821.78,-123.48C794.8,-114.7 752,-100.79 717.94,-89.71"/>
<polygon fill="midnightblue" stroke="midnightblue" points="718.72,-86.29 708.13,-86.52 716.56,-92.94 718.72,-86.29"/>
</g>
<!-- Node38&#45;&gt;Node2 -->
<g id="edge62" class="edge">
<title>Node38&#45;&gt;Node2</title>
<path fill="none" stroke="midnightblue" d="M610.35,-62.72C535.05,-52 399.33,-32.68 316.77,-20.93"/>
<polygon fill="midnightblue" stroke="midnightblue" points="317.12,-17.45 306.73,-19.5 316.13,-24.38 317.12,-17.45"/>
</g>
<!-- Node38&#45;&gt;Node8 -->
<g id="edge63" class="edge">
<title>Node38&#45;&gt;Node8</title>
<path fill="none" stroke="midnightblue" d="M719.54,-58.66C724.42,-57.71 729.3,-56.81 734,-56 825.73,-40.17 932.52,-26.54 999.69,-18.55"/>
<polygon fill="midnightblue" stroke="midnightblue" points="1000.19,-22.02 1009.71,-17.37 999.37,-15.07 1000.19,-22.02"/>
</g>
<!-- Node40 -->
<g id="node40" class="node">
<title>Node40</title>
<g id="a_node40"><a xlink:href="spec_2reassembly_8h.html" target="_top" xlink:title=" ">
<polygon fill="white" stroke="black" points="1339,-297 1339,-316 1485,-316 1485,-297 1339,-297"/>
<text text-anchor="middle" x="1412" y="-304" font-family="Helvetica,sans-Serif" font-size="10.00">odp/api/spec/reassembly.h</text>
</a>
</g>
</g>
<!-- Node39&#45;&gt;Node40 -->
<g id="edge71" class="edge">
<title>Node39&#45;&gt;Node40</title>
<path fill="none" stroke="midnightblue" d="M1305.95,-839.48C1319.69,-821.75 1349,-779.12 1349,-738 1349,-738 1349,-738 1349,-439.5 1349,-394.24 1379.54,-348.02 1398.09,-324.11"/>
<polygon fill="midnightblue" stroke="midnightblue" points="1401,-326.08 1404.53,-316.09 1395.54,-321.7 1401,-326.08"/>
</g>
<!-- Node40&#45;&gt;Node2 -->
<g id="edge72" class="edge">
<title>Node40&#45;&gt;Node2</title>
<path fill="none" stroke="midnightblue" d="M1403.34,-296.74C1376.95,-270.29 1297.31,-192.2 1264,-179 1105.98,-116.4 666.27,-178.26 500,-143 432.82,-128.75 416.59,-119.31 356,-87 322.34,-69.05 286.68,-42.57 265.65,-26.08"/>
<polygon fill="midnightblue" stroke="midnightblue" points="267.59,-23.15 257.58,-19.68 263.24,-28.64 267.59,-23.15"/>
</g>
<!-- Node40&#45;&gt;Node8 -->
<g id="edge74" class="edge">
<title>Node40&#45;&gt;Node8</title>
<path fill="none" stroke="midnightblue" d="M1421.04,-296.87C1438.9,-278.84 1477,-235.1 1477,-190 1477,-190 1477,-190 1477,-132 1477,-83.28 1441.86,-77.21 1398,-56 1352.44,-33.97 1215.45,-21.1 1132.36,-15.11"/>
<polygon fill="midnightblue" stroke="midnightblue" points="1132.47,-11.61 1122.25,-14.4 1131.98,-18.6 1132.47,-11.61"/>
</g>
<!-- Node40&#45;&gt;Node15 -->
<g id="edge73" class="edge">
<title>Node40&#45;&gt;Node15</title>
<path fill="none" stroke="midnightblue" d="M1380.19,-296.98C1341.12,-286.5 1274.74,-268.71 1231.64,-257.16"/>
<polygon fill="midnightblue" stroke="midnightblue" points="1232.31,-253.72 1221.75,-254.51 1230.5,-260.48 1232.31,-253.72"/>
</g>
</g>
</svg>
