<?xml version="1.0" encoding="UTF-8" standalone="no"?>
<!DOCTYPE svg PUBLIC "-//W3C//DTD SVG 1.1//EN"
 "http://www.w3.org/Graphics/SVG/1.1/DTD/svg11.dtd">
<!-- Generated by graphviz version 2.43.0 (0)
 -->
<!-- Title: pool.h Pages: 1 -->
<svg width="1284pt" height="923pt"
 viewBox="0.00 0.00 1284.00 923.00" xmlns="http://www.w3.org/2000/svg" xmlns:xlink="http://www.w3.org/1999/xlink">
<g id="graph0" class="graph" transform="scale(1 1) rotate(0) translate(4 919)">
<title>pool.h</title>
<polygon fill="white" stroke="transparent" points="-4,4 -4,-919 1280,-919 1280,4 -4,4"/>
<!-- Node1 -->
<g id="node1" class="node">
<title>Node1</title>
<g id="a_node1"><a xlink:title=" ">
<polygon fill="#bfbfbf" stroke="black" points="102.5,-895.5 102.5,-914.5 149.5,-914.5 149.5,-895.5 102.5,-895.5"/>
<text text-anchor="middle" x="126" y="-902.5" font-family="Helvetica,sans-Serif" font-size="10.00">pool.h</text>
</a>
</g>
</g>
<!-- Node2 -->
<g id="node2" class="node">
<title>Node2</title>
<g id="a_node2"><a xlink:title=" ">
<polygon fill="white" stroke="#bfbfbf" points="886.5,-0.5 886.5,-19.5 1007.5,-19.5 1007.5,-0.5 886.5,-0.5"/>
<text text-anchor="middle" x="947" y="-7.5" font-family="Helvetica,sans-Serif" font-size="10.00">odp/visibility_begin.h</text>
</a>
</g>
</g>
<!-- Node1&#45;&gt;Node2 -->
<g id="edge1" class="edge">
<title>Node1&#45;&gt;Node2</title>
<path fill="none" stroke="midnightblue" d="M149.76,-904.3C314.14,-906.07 1276,-911.39 1276,-794 1276,-794 1276,-794 1276,-132 1276,-90.82 1257.85,-77.93 1223,-56 1189.71,-35.05 1087.99,-22.59 1017.81,-16.27"/>
<polygon fill="midnightblue" stroke="midnightblue" points="1017.96,-12.77 1007.69,-15.38 1017.35,-19.74 1017.96,-12.77"/>
</g>
<!-- Node3 -->
<g id="node3" class="node">
<title>Node3</title>
<g id="a_node3"><a xlink:href="std__types_8h.html" target="_top" xlink:title=" ">
<polygon fill="white" stroke="black" points="269,-235.5 269,-254.5 381,-254.5 381,-235.5 269,-235.5"/>
<text text-anchor="middle" x="325" y="-242.5" font-family="Helvetica,sans-Serif" font-size="10.00">odp/api/std_types.h</text>
</a>
</g>
</g>
<!-- Node1&#45;&gt;Node3 -->
<g id="edge2" class="edge">
<title>Node1&#45;&gt;Node3</title>
<path fill="none" stroke="midnightblue" d="M119.05,-895.48C105.31,-877.75 76,-835.12 76,-794 76,-794 76,-794 76,-372.5 76,-290.42 184.89,-261.58 258.65,-251.46"/>
<polygon fill="midnightblue" stroke="midnightblue" points="259.34,-254.9 268.81,-250.15 258.44,-247.95 259.34,-254.9"/>
</g>
<!-- Node10 -->
<g id="node10" class="node">
<title>Node10</title>
<g id="a_node10"><a xlink:title=" ">
<polygon fill="white" stroke="#bfbfbf" points="411,-0.5 411,-19.5 523,-19.5 523,-0.5 411,-0.5"/>
<text text-anchor="middle" x="467" y="-7.5" font-family="Helvetica,sans-Serif" font-size="10.00">odp/visibility_end.h</text>
</a>
</g>
</g>
<!-- Node1&#45;&gt;Node10 -->
<g id="edge54" class="edge">
<title>Node1&#45;&gt;Node10</title>
<path fill="none" stroke="midnightblue" d="M102.3,-895.71C65.8,-881.24 0,-847.72 0,-794 0,-794 0,-794 0,-132 0,-92.28 13.39,-77.16 47,-56 104.3,-19.93 297.46,-12.48 400.68,-11.13"/>
<polygon fill="midnightblue" stroke="midnightblue" points="401.02,-14.63 410.98,-11.01 400.94,-7.63 401.02,-14.63"/>
</g>
<!-- Node11 -->
<g id="node11" class="node">
<title>Node11</title>
<g id="a_node11"><a xlink:href="pool__types_8h.html" target="_top" xlink:title=" ">
<polygon fill="white" stroke="black" points="117,-839.5 117,-858.5 235,-858.5 235,-839.5 117,-839.5"/>
<text text-anchor="middle" x="176" y="-846.5" font-family="Helvetica,sans-Serif" font-size="10.00">odp/api/pool_types.h</text>
</a>
</g>
</g>
<!-- Node1&#45;&gt;Node11 -->
<g id="edge13" class="edge">
<title>Node1&#45;&gt;Node11</title>
<path fill="none" stroke="midnightblue" d="M134.26,-895.08C141.46,-887.3 152.11,-875.8 160.85,-866.37"/>
<polygon fill="midnightblue" stroke="midnightblue" points="163.67,-868.47 167.9,-858.75 158.53,-863.71 163.67,-868.47"/>
</g>
<!-- Node4 -->
<g id="node4" class="node">
<title>Node4</title>
<g id="a_node4"><a xlink:title=" ">
<polygon fill="white" stroke="#bfbfbf" points="108,-179.5 108,-198.5 238,-198.5 238,-179.5 108,-179.5"/>
<text text-anchor="middle" x="173" y="-186.5" font-family="Helvetica,sans-Serif" font-size="10.00">odp/api/abi/std_types.h</text>
</a>
</g>
</g>
<!-- Node3&#45;&gt;Node4 -->
<g id="edge3" class="edge">
<title>Node3&#45;&gt;Node4</title>
<path fill="none" stroke="midnightblue" d="M300.92,-235.44C275.46,-226.4 235.11,-212.06 206.54,-201.92"/>
<polygon fill="midnightblue" stroke="midnightblue" points="207.57,-198.57 196.97,-198.52 205.22,-205.16 207.57,-198.57"/>
</g>
<!-- Node5 -->
<g id="node5" class="node">
<title>Node5</title>
<g id="a_node5"><a xlink:href="spec_2std__types_8h.html" target="_top" xlink:title=" ">
<polygon fill="white" stroke="black" points="256.5,-179.5 256.5,-198.5 393.5,-198.5 393.5,-179.5 256.5,-179.5"/>
<text text-anchor="middle" x="325" y="-186.5" font-family="Helvetica,sans-Serif" font-size="10.00">odp/api/spec/std_types.h</text>
</a>
</g>
</g>
<!-- Node3&#45;&gt;Node5 -->
<g id="edge4" class="edge">
<title>Node3&#45;&gt;Node5</title>
<path fill="none" stroke="midnightblue" d="M325,-235.08C325,-228.01 325,-217.86 325,-208.99"/>
<polygon fill="midnightblue" stroke="midnightblue" points="328.5,-208.75 325,-198.75 321.5,-208.75 328.5,-208.75"/>
</g>
<!-- Node5&#45;&gt;Node2 -->
<g id="edge5" class="edge">
<title>Node5&#45;&gt;Node2</title>
<path fill="none" stroke="midnightblue" d="M337.65,-179.41C349.33,-171.06 366.69,-157.52 379,-143 407.98,-108.81 392.11,-79.95 430,-56 466.83,-32.72 743.25,-18.93 876.11,-13.58"/>
<polygon fill="midnightblue" stroke="midnightblue" points="876.34,-17.07 886.19,-13.18 876.06,-10.08 876.34,-17.07"/>
</g>
<!-- Node6 -->
<g id="node6" class="node">
<title>Node6</title>
<g id="a_node6"><a xlink:title=" ">
<polygon fill="white" stroke="#bfbfbf" points="209.5,-123.5 209.5,-142.5 262.5,-142.5 262.5,-123.5 209.5,-123.5"/>
<text text-anchor="middle" x="236" y="-130.5" font-family="Helvetica,sans-Serif" font-size="10.00">stdint.h</text>
</a>
</g>
</g>
<!-- Node5&#45;&gt;Node6 -->
<g id="edge6" class="edge">
<title>Node5&#45;&gt;Node6</title>
<path fill="none" stroke="midnightblue" d="M310.7,-179.32C296.82,-170.9 275.51,-157.97 259.2,-148.07"/>
<polygon fill="midnightblue" stroke="midnightblue" points="260.63,-144.85 250.26,-142.65 257,-150.83 260.63,-144.85"/>
</g>
<!-- Node7 -->
<g id="node7" class="node">
<title>Node7</title>
<g id="a_node7"><a xlink:href="align_8h.html" target="_top" xlink:title=" ">
<polygon fill="white" stroke="black" points="280.5,-123.5 280.5,-142.5 369.5,-142.5 369.5,-123.5 280.5,-123.5"/>
<text text-anchor="middle" x="325" y="-130.5" font-family="Helvetica,sans-Serif" font-size="10.00">odp/api/align.h</text>
</a>
</g>
</g>
<!-- Node5&#45;&gt;Node7 -->
<g id="edge7" class="edge">
<title>Node5&#45;&gt;Node7</title>
<path fill="none" stroke="midnightblue" d="M325,-179.08C325,-172.01 325,-161.86 325,-152.99"/>
<polygon fill="midnightblue" stroke="midnightblue" points="328.5,-152.75 325,-142.75 321.5,-152.75 328.5,-152.75"/>
</g>
<!-- Node5&#45;&gt;Node10 -->
<g id="edge12" class="edge">
<title>Node5&#45;&gt;Node10</title>
<path fill="none" stroke="midnightblue" d="M289.87,-179.45C221.59,-161.26 82.01,-115.49 134,-56 167.93,-17.18 313.75,-10.51 400.78,-10.11"/>
<polygon fill="midnightblue" stroke="midnightblue" points="400.83,-13.61 410.83,-10.09 400.82,-6.61 400.83,-13.61"/>
</g>
<!-- Node8 -->
<g id="node8" class="node">
<title>Node8</title>
<g id="a_node8"><a xlink:title=" ">
<polygon fill="white" stroke="#bfbfbf" points="142.5,-62 142.5,-81 249.5,-81 249.5,-62 142.5,-62"/>
<text text-anchor="middle" x="196" y="-69" font-family="Helvetica,sans-Serif" font-size="10.00">odp/api/abi/align.h</text>
</a>
</g>
</g>
<!-- Node7&#45;&gt;Node8 -->
<g id="edge8" class="edge">
<title>Node7&#45;&gt;Node8</title>
<path fill="none" stroke="midnightblue" d="M306.52,-123.48C284.87,-113.49 248.79,-96.85 223.77,-85.31"/>
<polygon fill="midnightblue" stroke="midnightblue" points="224.99,-82.02 214.45,-81.01 222.06,-88.38 224.99,-82.02"/>
</g>
<!-- Node9 -->
<g id="node9" class="node">
<title>Node9</title>
<g id="a_node9"><a xlink:href="spec_2align_8h.html" target="_top" xlink:title=" ">
<polygon fill="white" stroke="black" points="268,-62 268,-81 382,-81 382,-62 268,-62"/>
<text text-anchor="middle" x="325" y="-69" font-family="Helvetica,sans-Serif" font-size="10.00">odp/api/spec/align.h</text>
</a>
</g>
</g>
<!-- Node7&#45;&gt;Node9 -->
<g id="edge9" class="edge">
<title>Node7&#45;&gt;Node9</title>
<path fill="none" stroke="midnightblue" d="M325,-123.48C325,-115.08 325,-101.98 325,-91.16"/>
<polygon fill="midnightblue" stroke="midnightblue" points="328.5,-91.01 325,-81.01 321.5,-91.01 328.5,-91.01"/>
</g>
<!-- Node9&#45;&gt;Node2 -->
<g id="edge10" class="edge">
<title>Node9&#45;&gt;Node2</title>
<path fill="none" stroke="midnightblue" d="M362.44,-61.98C373.22,-59.76 385.04,-57.56 396,-56 567.5,-31.57 771.06,-19.22 876.23,-14.06"/>
<polygon fill="midnightblue" stroke="midnightblue" points="876.58,-17.55 886.4,-13.57 876.24,-10.56 876.58,-17.55"/>
</g>
<!-- Node9&#45;&gt;Node10 -->
<g id="edge11" class="edge">
<title>Node9&#45;&gt;Node10</title>
<path fill="none" stroke="midnightblue" d="M345.35,-61.98C369.39,-51.9 409.6,-35.05 437.16,-23.5"/>
<polygon fill="midnightblue" stroke="midnightblue" points="438.82,-26.6 446.69,-19.51 436.12,-20.15 438.82,-26.6"/>
</g>
<!-- Node12 -->
<g id="node12" class="node">
<title>Node12</title>
<g id="a_node12"><a xlink:title=" ">
<polygon fill="white" stroke="#bfbfbf" points="266,-783.5 266,-802.5 402,-802.5 402,-783.5 266,-783.5"/>
<text text-anchor="middle" x="334" y="-790.5" font-family="Helvetica,sans-Serif" font-size="10.00">odp/api/abi/pool_types.h</text>
</a>
</g>
</g>
<!-- Node11&#45;&gt;Node12 -->
<g id="edge14" class="edge">
<title>Node11&#45;&gt;Node12</title>
<path fill="none" stroke="midnightblue" d="M201.04,-839.44C227.62,-830.36 269.81,-815.94 299.52,-805.78"/>
<polygon fill="midnightblue" stroke="midnightblue" points="300.75,-809.06 309.08,-802.52 298.49,-802.44 300.75,-809.06"/>
</g>
<!-- Node13 -->
<g id="node13" class="node">
<title>Node13</title>
<g id="a_node13"><a xlink:href="spec_2pool__types_8h.html" target="_top" xlink:title=" ">
<polygon fill="white" stroke="black" points="104.5,-783.5 104.5,-802.5 247.5,-802.5 247.5,-783.5 104.5,-783.5"/>
<text text-anchor="middle" x="176" y="-790.5" font-family="Helvetica,sans-Serif" font-size="10.00">odp/api/spec/pool_types.h</text>
</a>
</g>
</g>
<!-- Node11&#45;&gt;Node13 -->
<g id="edge15" class="edge">
<title>Node11&#45;&gt;Node13</title>
<path fill="none" stroke="midnightblue" d="M176,-839.08C176,-832.01 176,-821.86 176,-812.99"/>
<polygon fill="midnightblue" stroke="midnightblue" points="179.5,-812.75 176,-802.75 172.5,-812.75 179.5,-812.75"/>
</g>
<!-- Node13&#45;&gt;Node2 -->
<g id="edge16" class="edge">
<title>Node13&#45;&gt;Node2</title>
<path fill="none" stroke="midnightblue" d="M247.55,-784.02C250.74,-783.67 253.9,-783.33 257,-783 365.95,-771.34 1238,-791.58 1238,-682 1238,-682 1238,-682 1238,-132 1238,-36.87 1103.77,-15.15 1017.64,-11"/>
<polygon fill="midnightblue" stroke="midnightblue" points="1017.79,-7.5 1007.65,-10.58 1017.5,-14.49 1017.79,-7.5"/>
</g>
<!-- Node13&#45;&gt;Node3 -->
<g id="edge17" class="edge">
<title>Node13&#45;&gt;Node3</title>
<path fill="none" stroke="midnightblue" d="M172.76,-783.3C166.21,-764.89 152,-720.51 152,-682 152,-682 152,-682 152,-372.5 152,-308.84 229.27,-273.77 280.53,-257.51"/>
<polygon fill="midnightblue" stroke="midnightblue" points="281.86,-260.76 290.41,-254.5 279.82,-254.07 281.86,-260.76"/>
</g>
<!-- Node13&#45;&gt;Node10 -->
<g id="edge53" class="edge">
<title>Node13&#45;&gt;Node10</title>
<path fill="none" stroke="midnightblue" d="M166.85,-783.25C149.61,-765.77 114,-724.53 114,-682 114,-682 114,-682 114,-439.5 114,-347.1 38,-338.4 38,-246 38,-246 38,-246 38,-132 38,-91.07 55,-77.21 90,-56 140.74,-25.26 306.51,-15.5 400.47,-12.41"/>
<polygon fill="midnightblue" stroke="midnightblue" points="400.83,-15.9 410.72,-12.1 400.62,-8.91 400.83,-15.9"/>
</g>
<!-- Node14 -->
<g id="node14" class="node">
<title>Node14</title>
<g id="a_node14"><a xlink:href="dma__types_8h.html" target="_top" xlink:title=" ">
<polygon fill="white" stroke="black" points="399.5,-727.5 399.5,-746.5 518.5,-746.5 518.5,-727.5 399.5,-727.5"/>
<text text-anchor="middle" x="459" y="-734.5" font-family="Helvetica,sans-Serif" font-size="10.00">odp/api/dma_types.h</text>
</a>
</g>
</g>
<!-- Node13&#45;&gt;Node14 -->
<g id="edge18" class="edge">
<title>Node13&#45;&gt;Node14</title>
<path fill="none" stroke="midnightblue" d="M220.84,-783.44C270.62,-773.94 350.98,-758.61 404.39,-748.42"/>
<polygon fill="midnightblue" stroke="midnightblue" points="405.2,-751.83 414.37,-746.52 403.89,-744.95 405.2,-751.83"/>
</g>
<!-- Node15 -->
<g id="node15" class="node">
<title>Node15</title>
<g id="a_node15"><a xlink:title=" ">
<polygon fill="white" stroke="#bfbfbf" points="549.5,-671.5 549.5,-690.5 686.5,-690.5 686.5,-671.5 549.5,-671.5"/>
<text text-anchor="middle" x="618" y="-678.5" font-family="Helvetica,sans-Serif" font-size="10.00">odp/api/abi/dma_types.h</text>
</a>
</g>
</g>
<!-- Node14&#45;&gt;Node15 -->
<g id="edge19" class="edge">
<title>Node14&#45;&gt;Node15</title>
<path fill="none" stroke="midnightblue" d="M484.19,-727.44C510.94,-718.36 553.4,-703.94 583.31,-693.78"/>
<polygon fill="midnightblue" stroke="midnightblue" points="584.58,-697.05 592.92,-690.52 582.33,-690.42 584.58,-697.05"/>
</g>
<!-- Node16 -->
<g id="node16" class="node">
<title>Node16</title>
<g id="a_node16"><a xlink:href="spec_2dma__types_8h.html" target="_top" xlink:title=" ">
<polygon fill="white" stroke="black" points="387,-671.5 387,-690.5 531,-690.5 531,-671.5 387,-671.5"/>
<text text-anchor="middle" x="459" y="-678.5" font-family="Helvetica,sans-Serif" font-size="10.00">odp/api/spec/dma_types.h</text>
</a>
</g>
</g>
<!-- Node14&#45;&gt;Node16 -->
<g id="edge20" class="edge">
<title>Node14&#45;&gt;Node16</title>
<path fill="none" stroke="midnightblue" d="M459,-727.08C459,-720.01 459,-709.86 459,-700.99"/>
<polygon fill="midnightblue" stroke="midnightblue" points="462.5,-700.75 459,-690.75 455.5,-700.75 462.5,-700.75"/>
</g>
<!-- Node16&#45;&gt;Node2 -->
<g id="edge21" class="edge">
<title>Node16&#45;&gt;Node2</title>
<path fill="none" stroke="midnightblue" d="M531.43,-671.93C534.66,-671.61 537.86,-671.3 541,-671 688.68,-656.98 1200,-712.84 1200,-564.5 1200,-564.5 1200,-564.5 1200,-132 1200,-50.86 1092.77,-24.08 1017.93,-15.28"/>
<polygon fill="midnightblue" stroke="midnightblue" points="1017.92,-11.75 1007.6,-14.15 1017.16,-18.71 1017.92,-11.75"/>
</g>
<!-- Node16&#45;&gt;Node3 -->
<g id="edge51" class="edge">
<title>Node16&#45;&gt;Node3</title>
<path fill="none" stroke="midnightblue" d="M446.31,-671.49C422.39,-654.32 373,-613 373,-564.5 373,-564.5 373,-564.5 373,-372.5 373,-331.21 350.37,-286.98 336.19,-263.32"/>
<polygon fill="midnightblue" stroke="midnightblue" points="339.13,-261.42 330.89,-254.77 333.18,-265.11 339.13,-261.42"/>
</g>
<!-- Node16&#45;&gt;Node10 -->
<g id="edge52" class="edge">
<title>Node16&#45;&gt;Node10</title>
<path fill="none" stroke="midnightblue" d="M386.91,-678.81C307.23,-673.22 190,-650.39 190,-564.5 190,-564.5 190,-564.5 190,-439.5 190,-266.16 -5.55,-176.56 119,-56 157.99,-18.26 311.22,-11.26 400.82,-10.48"/>
<polygon fill="midnightblue" stroke="midnightblue" points="400.91,-13.98 410.89,-10.42 400.87,-6.98 400.91,-13.98"/>
</g>
<!-- Node17 -->
<g id="node17" class="node">
<title>Node17</title>
<g id="a_node17"><a xlink:href="event__types_8h.html" target="_top" xlink:title=" ">
<polygon fill="white" stroke="black" points="447.5,-123.5 447.5,-142.5 572.5,-142.5 572.5,-123.5 447.5,-123.5"/>
<text text-anchor="middle" x="510" y="-130.5" font-family="Helvetica,sans-Serif" font-size="10.00">odp/api/event_types.h</text>
</a>
</g>
</g>
<!-- Node16&#45;&gt;Node17 -->
<g id="edge22" class="edge">
<title>Node16&#45;&gt;Node17</title>
<path fill="none" stroke="midnightblue" d="M459,-671.31C459,-652.06 459,-604.4 459,-564.5 459,-564.5 459,-564.5 459,-244 459,-208.24 481.45,-171.51 496.56,-150.84"/>
<polygon fill="midnightblue" stroke="midnightblue" points="499.43,-152.85 502.69,-142.77 493.86,-148.61 499.43,-152.85"/>
</g>
<!-- Node20 -->
<g id="node20" class="node">
<title>Node20</title>
<g id="a_node20"><a xlink:href="packet__types_8h.html" target="_top" xlink:title=" ">
<polygon fill="white" stroke="black" points="851.5,-615.5 851.5,-634.5 980.5,-634.5 980.5,-615.5 851.5,-615.5"/>
<text text-anchor="middle" x="916" y="-622.5" font-family="Helvetica,sans-Serif" font-size="10.00">odp/api/packet_types.h</text>
</a>
</g>
</g>
<!-- Node16&#45;&gt;Node20 -->
<g id="edge27" class="edge">
<title>Node16&#45;&gt;Node20</title>
<path fill="none" stroke="midnightblue" d="M531.16,-671.47C615.76,-661.48 755.27,-644.99 841.05,-634.86"/>
<polygon fill="midnightblue" stroke="midnightblue" points="841.72,-638.3 851.24,-633.65 840.9,-631.35 841.72,-638.3"/>
</g>
<!-- Node27 -->
<g id="node27" class="node">
<title>Node27</title>
<g id="a_node27"><a xlink:href="queue__types_8h.html" target="_top" xlink:title=" ">
<polygon fill="white" stroke="black" points="621.5,-492.5 621.5,-511.5 748.5,-511.5 748.5,-492.5 621.5,-492.5"/>
<text text-anchor="middle" x="685" y="-499.5" font-family="Helvetica,sans-Serif" font-size="10.00">odp/api/queue_types.h</text>
</a>
</g>
</g>
<!-- Node16&#45;&gt;Node27 -->
<g id="edge50" class="edge">
<title>Node16&#45;&gt;Node27</title>
<path fill="none" stroke="midnightblue" d="M469.9,-671.46C505.77,-643.37 620.42,-553.58 666.03,-517.86"/>
<polygon fill="midnightblue" stroke="midnightblue" points="668.23,-520.58 673.94,-511.66 663.91,-515.07 668.23,-520.58"/>
</g>
<!-- Node18 -->
<g id="node18" class="node">
<title>Node18</title>
<g id="a_node18"><a xlink:title=" ">
<polygon fill="white" stroke="#bfbfbf" points="438.5,-62 438.5,-81 581.5,-81 581.5,-62 438.5,-62"/>
<text text-anchor="middle" x="510" y="-69" font-family="Helvetica,sans-Serif" font-size="10.00">odp/api/abi/event_types.h</text>
</a>
</g>
</g>
<!-- Node17&#45;&gt;Node18 -->
<g id="edge23" class="edge">
<title>Node17&#45;&gt;Node18</title>
<path fill="none" stroke="midnightblue" d="M510,-123.48C510,-115.08 510,-101.98 510,-91.16"/>
<polygon fill="midnightblue" stroke="midnightblue" points="513.5,-91.01 510,-81.01 506.5,-91.01 513.5,-91.01"/>
</g>
<!-- Node19 -->
<g id="node19" class="node">
<title>Node19</title>
<g id="a_node19"><a xlink:href="spec_2event__types_8h.html" target="_top" xlink:title=" ">
<polygon fill="white" stroke="black" points="676.5,-56.5 676.5,-86.5 785.5,-86.5 785.5,-56.5 676.5,-56.5"/>
<text text-anchor="start" x="684.5" y="-74.5" font-family="Helvetica,sans-Serif" font-size="10.00">odp/api/spec/event</text>
<text text-anchor="middle" x="731" y="-63.5" font-family="Helvetica,sans-Serif" font-size="10.00">_types.h</text>
</a>
</g>
</g>
<!-- Node17&#45;&gt;Node19 -->
<g id="edge24" class="edge">
<title>Node17&#45;&gt;Node19</title>
<path fill="none" stroke="midnightblue" d="M541.66,-123.48C574.81,-114.55 627.71,-100.31 669.18,-89.14"/>
<polygon fill="midnightblue" stroke="midnightblue" points="670.17,-92.5 678.91,-86.52 668.35,-85.74 670.17,-92.5"/>
</g>
<!-- Node19&#45;&gt;Node2 -->
<g id="edge25" class="edge">
<title>Node19&#45;&gt;Node2</title>
<path fill="none" stroke="midnightblue" d="M781.92,-56.47C819.83,-46.03 870.92,-31.96 906.17,-22.25"/>
<polygon fill="midnightblue" stroke="midnightblue" points="907.41,-25.54 916.12,-19.51 905.55,-18.79 907.41,-25.54"/>
</g>
<!-- Node19&#45;&gt;Node10 -->
<g id="edge26" class="edge">
<title>Node19&#45;&gt;Node10</title>
<path fill="none" stroke="midnightblue" d="M676.3,-58.17C628.7,-47.44 560.4,-32.05 514.91,-21.8"/>
<polygon fill="midnightblue" stroke="midnightblue" points="515.53,-18.35 505,-19.56 513.99,-25.18 515.53,-18.35"/>
</g>
<!-- Node21 -->
<g id="node21" class="node">
<title>Node21</title>
<g id="a_node21"><a xlink:title=" ">
<polygon fill="white" stroke="#bfbfbf" points="1051,-548.5 1051,-578.5 1157,-578.5 1157,-548.5 1051,-548.5"/>
<text text-anchor="start" x="1059" y="-566.5" font-family="Helvetica,sans-Serif" font-size="10.00">odp/api/abi/packet</text>
<text text-anchor="middle" x="1104" y="-555.5" font-family="Helvetica,sans-Serif" font-size="10.00">_io_types.h</text>
</a>
</g>
</g>
<!-- Node20&#45;&gt;Node21 -->
<g id="edge28" class="edge">
<title>Node20&#45;&gt;Node21</title>
<path fill="none" stroke="midnightblue" d="M942.94,-615.48C970.78,-606.66 1015,-592.67 1050.07,-581.57"/>
<polygon fill="midnightblue" stroke="midnightblue" points="1051.21,-584.88 1059.69,-578.52 1049.1,-578.2 1051.21,-584.88"/>
</g>
<!-- Node22 -->
<g id="node22" class="node">
<title>Node22</title>
<g id="a_node22"><a xlink:title=" ">
<polygon fill="white" stroke="#bfbfbf" points="927,-548.5 927,-578.5 1033,-578.5 1033,-548.5 927,-548.5"/>
<text text-anchor="start" x="935" y="-566.5" font-family="Helvetica,sans-Serif" font-size="10.00">odp/api/abi/packet</text>
<text text-anchor="middle" x="980" y="-555.5" font-family="Helvetica,sans-Serif" font-size="10.00">_types.h</text>
</a>
</g>
</g>
<!-- Node20&#45;&gt;Node22 -->
<g id="edge29" class="edge">
<title>Node20&#45;&gt;Node22</title>
<path fill="none" stroke="midnightblue" d="M925.17,-615.48C933.59,-607.64 946.42,-595.71 957.56,-585.37"/>
<polygon fill="midnightblue" stroke="midnightblue" points="959.98,-587.9 964.92,-578.52 955.21,-582.77 959.98,-587.9"/>
</g>
<!-- Node23 -->
<g id="node23" class="node">
<title>Node23</title>
<g id="a_node23"><a xlink:href="spec_2packet__types_8h.html" target="_top" xlink:title=" ">
<polygon fill="white" stroke="black" points="795.5,-548.5 795.5,-578.5 908.5,-578.5 908.5,-548.5 795.5,-548.5"/>
<text text-anchor="start" x="803.5" y="-566.5" font-family="Helvetica,sans-Serif" font-size="10.00">odp/api/spec/packet</text>
<text text-anchor="middle" x="852" y="-555.5" font-family="Helvetica,sans-Serif" font-size="10.00">_types.h</text>
</a>
</g>
</g>
<!-- Node20&#45;&gt;Node23 -->
<g id="edge30" class="edge">
<title>Node20&#45;&gt;Node23</title>
<path fill="none" stroke="midnightblue" d="M906.83,-615.48C898.41,-607.64 885.58,-595.71 874.44,-585.37"/>
<polygon fill="midnightblue" stroke="midnightblue" points="876.79,-582.77 867.08,-578.52 872.02,-587.9 876.79,-582.77"/>
</g>
<!-- Node23&#45;&gt;Node2 -->
<g id="edge31" class="edge">
<title>Node23&#45;&gt;Node2</title>
<path fill="none" stroke="midnightblue" d="M901.46,-548.49C988.98,-523.01 1162,-469.12 1162,-441.5 1162,-441.5 1162,-441.5 1162,-132 1162,-64.41 1080.3,-34.17 1017.63,-20.92"/>
<polygon fill="midnightblue" stroke="midnightblue" points="1018.24,-17.47 1007.75,-18.93 1016.86,-24.33 1018.24,-17.47"/>
</g>
<!-- Node23&#45;&gt;Node10 -->
<g id="edge49" class="edge">
<title>Node23&#45;&gt;Node10</title>
<path fill="none" stroke="midnightblue" d="M852,-548.34C852,-525.75 852,-480.15 852,-441.5 852,-441.5 852,-441.5 852,-132 852,-89.78 831.39,-77.41 795,-56 751.9,-30.64 615.87,-18.97 533.14,-14.09"/>
<polygon fill="midnightblue" stroke="midnightblue" points="533.26,-10.59 523.08,-13.51 532.86,-17.58 533.26,-10.59"/>
</g>
<!-- Node24 -->
<g id="node24" class="node">
<title>Node24</title>
<g id="a_node24"><a xlink:href="proto__stats__types_8h.html" target="_top" xlink:title=" ">
<polygon fill="white" stroke="black" points="880,-358.5 880,-388.5 990,-388.5 990,-358.5 880,-358.5"/>
<text text-anchor="start" x="888" y="-376.5" font-family="Helvetica,sans-Serif" font-size="10.00">odp/api/proto_stats</text>
<text text-anchor="middle" x="935" y="-365.5" font-family="Helvetica,sans-Serif" font-size="10.00">_types.h</text>
</a>
</g>
</g>
<!-- Node23&#45;&gt;Node24 -->
<g id="edge32" class="edge">
<title>Node23&#45;&gt;Node24</title>
<path fill="none" stroke="midnightblue" d="M858.24,-548.37C872.42,-516.24 907.21,-437.44 924.66,-397.91"/>
<polygon fill="midnightblue" stroke="midnightblue" points="927.97,-399.1 928.8,-388.54 921.56,-396.27 927.97,-399.1"/>
</g>
<!-- Node23&#45;&gt;Node27 -->
<g id="edge38" class="edge">
<title>Node23&#45;&gt;Node27</title>
<path fill="none" stroke="midnightblue" d="M812.42,-548.4C783.9,-538.24 745.83,-524.67 718.74,-515.02"/>
<polygon fill="midnightblue" stroke="midnightblue" points="719.89,-511.72 709.3,-511.66 717.55,-518.31 719.89,-511.72"/>
</g>
<!-- Node25 -->
<g id="node25" class="node">
<title>Node25</title>
<g id="a_node25"><a xlink:title=" ">
<polygon fill="white" stroke="#bfbfbf" points="1006,-291.5 1006,-321.5 1134,-321.5 1134,-291.5 1006,-291.5"/>
<text text-anchor="start" x="1014" y="-309.5" font-family="Helvetica,sans-Serif" font-size="10.00">odp/api/abi/proto_stats</text>
<text text-anchor="middle" x="1070" y="-298.5" font-family="Helvetica,sans-Serif" font-size="10.00">_types.h</text>
</a>
</g>
</g>
<!-- Node24&#45;&gt;Node25 -->
<g id="edge33" class="edge">
<title>Node24&#45;&gt;Node25</title>
<path fill="none" stroke="midnightblue" d="M964.29,-358.4C984.02,-348.9 1010.23,-336.28 1031.62,-325.98"/>
<polygon fill="midnightblue" stroke="midnightblue" points="1033.27,-329.07 1040.76,-321.58 1030.24,-322.76 1033.27,-329.07"/>
</g>
<!-- Node26 -->
<g id="node26" class="node">
<title>Node26</title>
<g id="a_node26"><a xlink:href="spec_2proto__stats__types_8h.html" target="_top" xlink:title=" ">
<polygon fill="white" stroke="black" points="880.5,-291.5 880.5,-321.5 987.5,-321.5 987.5,-291.5 880.5,-291.5"/>
<text text-anchor="start" x="888.5" y="-309.5" font-family="Helvetica,sans-Serif" font-size="10.00">odp/api/spec/proto</text>
<text text-anchor="middle" x="934" y="-298.5" font-family="Helvetica,sans-Serif" font-size="10.00">_stats_types.h</text>
</a>
</g>
</g>
<!-- Node24&#45;&gt;Node26 -->
<g id="edge34" class="edge">
<title>Node24&#45;&gt;Node26</title>
<path fill="none" stroke="midnightblue" d="M934.78,-358.4C934.66,-350.64 934.51,-340.81 934.37,-331.86"/>
<polygon fill="midnightblue" stroke="midnightblue" points="937.87,-331.52 934.22,-321.58 930.87,-331.63 937.87,-331.52"/>
</g>
<!-- Node26&#45;&gt;Node2 -->
<g id="edge35" class="edge">
<title>Node26&#45;&gt;Node2</title>
<path fill="none" stroke="midnightblue" d="M940.63,-291.27C950,-269.8 966,-227.66 966,-190 966,-190 966,-190 966,-132 966,-95.29 957.36,-53.06 951.73,-29.45"/>
<polygon fill="midnightblue" stroke="midnightblue" points="955.13,-28.6 949.33,-19.73 948.33,-30.28 955.13,-28.6"/>
</g>
<!-- Node26&#45;&gt;Node3 -->
<g id="edge36" class="edge">
<title>Node26&#45;&gt;Node3</title>
<path fill="none" stroke="midnightblue" d="M880.21,-299.78C854.44,-297.07 823.13,-293.81 795,-291 651.08,-276.6 482.27,-260.67 391.26,-252.16"/>
<polygon fill="midnightblue" stroke="midnightblue" points="391.37,-248.66 381.08,-251.21 390.72,-255.63 391.37,-248.66"/>
</g>
<!-- Node26&#45;&gt;Node10 -->
<g id="edge37" class="edge">
<title>Node26&#45;&gt;Node10</title>
<path fill="none" stroke="midnightblue" d="M924.67,-291.22C911.75,-270.03 890,-228.62 890,-190 890,-190 890,-190 890,-132 890,-96.58 893.35,-78.51 866,-56 816.63,-15.37 633.12,-9.86 533.08,-10"/>
<polygon fill="midnightblue" stroke="midnightblue" points="533.06,-6.5 523.07,-10.04 533.09,-13.5 533.06,-6.5"/>
</g>
<!-- Node28 -->
<g id="node28" class="node">
<title>Node28</title>
<g id="a_node28"><a xlink:title=" ">
<polygon fill="white" stroke="#bfbfbf" points="673.5,-431 673.5,-450 818.5,-450 818.5,-431 673.5,-431"/>
<text text-anchor="middle" x="746" y="-438" font-family="Helvetica,sans-Serif" font-size="10.00">odp/api/abi/queue_types.h</text>
</a>
</g>
</g>
<!-- Node27&#45;&gt;Node28 -->
<g id="edge39" class="edge">
<title>Node27&#45;&gt;Node28</title>
<path fill="none" stroke="midnightblue" d="M693.74,-492.48C703.16,-483.28 718.36,-468.46 729.95,-457.16"/>
<polygon fill="midnightblue" stroke="midnightblue" points="732.56,-459.5 737.28,-450.01 727.67,-454.49 732.56,-459.5"/>
</g>
<!-- Node29 -->
<g id="node29" class="node">
<title>Node29</title>
<g id="a_node29"><a xlink:href="spec_2queue__types_8h.html" target="_top" xlink:title=" ">
<polygon fill="white" stroke="black" points="544.5,-425.5 544.5,-455.5 655.5,-455.5 655.5,-425.5 544.5,-425.5"/>
<text text-anchor="start" x="552.5" y="-443.5" font-family="Helvetica,sans-Serif" font-size="10.00">odp/api/spec/queue</text>
<text text-anchor="middle" x="600" y="-432.5" font-family="Helvetica,sans-Serif" font-size="10.00">_types.h</text>
</a>
</g>
</g>
<!-- Node27&#45;&gt;Node29 -->
<g id="edge40" class="edge">
<title>Node27&#45;&gt;Node29</title>
<path fill="none" stroke="midnightblue" d="M672.82,-492.48C661.31,-484.42 643.6,-472.02 628.53,-461.47"/>
<polygon fill="midnightblue" stroke="midnightblue" points="630.23,-458.39 620.03,-455.52 626.22,-464.12 630.23,-458.39"/>
</g>
<!-- Node29&#45;&gt;Node2 -->
<g id="edge41" class="edge">
<title>Node29&#45;&gt;Node2</title>
<path fill="none" stroke="midnightblue" d="M636.79,-425.39C697.97,-400.76 814,-348.64 814,-307.5 814,-307.5 814,-307.5 814,-188 814,-168.39 898.48,-67.61 932.78,-27.5"/>
<polygon fill="midnightblue" stroke="midnightblue" points="935.61,-29.57 939.47,-19.7 930.3,-25.02 935.61,-29.57"/>
</g>
<!-- Node29&#45;&gt;Node10 -->
<g id="edge48" class="edge">
<title>Node29&#45;&gt;Node10</title>
<path fill="none" stroke="midnightblue" d="M563.54,-425.32C547.68,-417.18 530.56,-405.28 521,-389 498.93,-351.41 508.04,-333.66 517,-291 539.5,-183.84 653.85,-145.67 591,-56 577.55,-36.8 555.03,-25.77 532.85,-19.43"/>
<polygon fill="midnightblue" stroke="midnightblue" points="533.61,-16.01 523.05,-16.91 531.86,-22.79 533.61,-16.01"/>
</g>
<!-- Node30 -->
<g id="node30" class="node">
<title>Node30</title>
<g id="a_node30"><a xlink:href="schedule__types_8h.html" target="_top" xlink:title=" ">
<polygon fill="white" stroke="black" points="530,-364 530,-383 670,-383 670,-364 530,-364"/>
<text text-anchor="middle" x="600" y="-371" font-family="Helvetica,sans-Serif" font-size="10.00">odp/api/schedule_types.h</text>
</a>
</g>
</g>
<!-- Node29&#45;&gt;Node30 -->
<g id="edge42" class="edge">
<title>Node29&#45;&gt;Node30</title>
<path fill="none" stroke="midnightblue" d="M600,-425.4C600,-416.06 600,-403.71 600,-393.52"/>
<polygon fill="midnightblue" stroke="midnightblue" points="603.5,-393.19 600,-383.19 596.5,-393.19 603.5,-393.19"/>
</g>
<!-- Node31 -->
<g id="node31" class="node">
<title>Node31</title>
<g id="a_node31"><a xlink:title=" ">
<polygon fill="white" stroke="#bfbfbf" points="668.5,-291.5 668.5,-321.5 785.5,-321.5 785.5,-291.5 668.5,-291.5"/>
<text text-anchor="start" x="676.5" y="-309.5" font-family="Helvetica,sans-Serif" font-size="10.00">odp/api/abi/schedule</text>
<text text-anchor="middle" x="727" y="-298.5" font-family="Helvetica,sans-Serif" font-size="10.00">_types.h</text>
</a>
</g>
</g>
<!-- Node30&#45;&gt;Node31 -->
<g id="edge43" class="edge">
<title>Node30&#45;&gt;Node31</title>
<path fill="none" stroke="midnightblue" d="M616.86,-363.87C635.53,-354.31 666.18,-338.63 690.41,-326.22"/>
<polygon fill="midnightblue" stroke="midnightblue" points="692.04,-329.32 699.35,-321.65 688.85,-323.09 692.04,-329.32"/>
</g>
<!-- Node32 -->
<g id="node32" class="node">
<title>Node32</title>
<g id="a_node32"><a xlink:href="spec_2schedule__types_8h.html" target="_top" xlink:title=" ">
<polygon fill="white" stroke="black" points="525.5,-291.5 525.5,-321.5 650.5,-321.5 650.5,-291.5 525.5,-291.5"/>
<text text-anchor="start" x="533.5" y="-309.5" font-family="Helvetica,sans-Serif" font-size="10.00">odp/api/spec/schedule</text>
<text text-anchor="middle" x="588" y="-298.5" font-family="Helvetica,sans-Serif" font-size="10.00">_types.h</text>
</a>
</g>
</g>
<!-- Node30&#45;&gt;Node32 -->
<g id="edge44" class="edge">
<title>Node30&#45;&gt;Node32</title>
<path fill="none" stroke="midnightblue" d="M598.38,-363.73C596.87,-355.54 594.54,-342.92 592.47,-331.71"/>
<polygon fill="midnightblue" stroke="midnightblue" points="595.86,-330.79 590.6,-321.59 588.97,-332.06 595.86,-330.79"/>
</g>
<!-- Node32&#45;&gt;Node2 -->
<g id="edge45" class="edge">
<title>Node32&#45;&gt;Node2</title>
<path fill="none" stroke="midnightblue" d="M604.16,-291.49C650.22,-251.57 780.19,-139.05 800,-123 844.31,-87.1 897.97,-47.05 926.62,-25.93"/>
<polygon fill="midnightblue" stroke="midnightblue" points="929.02,-28.51 935,-19.76 924.87,-22.87 929.02,-28.51"/>
</g>
<!-- Node32&#45;&gt;Node3 -->
<g id="edge46" class="edge">
<title>Node32&#45;&gt;Node3</title>
<path fill="none" stroke="midnightblue" d="M526.01,-291.47C479.05,-280.85 415.5,-266.47 372.52,-256.75"/>
<polygon fill="midnightblue" stroke="midnightblue" points="373.13,-253.3 362.6,-254.51 371.58,-260.13 373.13,-253.3"/>
</g>
<!-- Node32&#45;&gt;Node10 -->
<g id="edge47" class="edge">
<title>Node32&#45;&gt;Node10</title>
<path fill="none" stroke="midnightblue" d="M601.02,-291.42C618.67,-270.8 648,-230.45 648,-190 648,-190 648,-190 648,-132 648,-96.58 649.38,-80.71 624,-56 599.89,-32.53 564.4,-21.15 533.26,-15.69"/>
<polygon fill="midnightblue" stroke="midnightblue" points="533.75,-12.23 523.33,-14.12 532.66,-19.14 533.75,-12.23"/>
</g>
</g>
</svg>
