<?xml version="1.0" encoding="UTF-8" standalone="no"?>
<!DOCTYPE svg PUBLIC "-//W3C//DTD SVG 1.1//EN"
 "http://www.w3.org/Graphics/SVG/1.1/DTD/svg11.dtd">
<!-- Generated by graphviz version 2.43.0 (0)
 -->
<!-- Title: classification.h Pages: 1 -->
<svg width="1599pt" height="1046pt"
 viewBox="0.00 0.00 1599.00 1046.00" xmlns="http://www.w3.org/2000/svg" xmlns:xlink="http://www.w3.org/1999/xlink">
<g id="graph0" class="graph" transform="scale(1 1) rotate(0) translate(4 1042)">
<title>classification.h</title>
<polygon fill="white" stroke="transparent" points="-4,4 -4,-1042 1595,-1042 1595,4 -4,4"/>
<!-- Node1 -->
<g id="node1" class="node">
<title>Node1</title>
<g id="a_node1"><a xlink:title=" ">
<polygon fill="#bfbfbf" stroke="black" points="1263.5,-1018.5 1263.5,-1037.5 1352.5,-1037.5 1352.5,-1018.5 1263.5,-1018.5"/>
<text text-anchor="middle" x="1308" y="-1025.5" font-family="Helvetica,sans-Serif" font-size="10.00">classification.h</text>
</a>
</g>
</g>
<!-- Node2 -->
<g id="node2" class="node">
<title>Node2</title>
<g id="a_node2"><a xlink:title=" ">
<polygon fill="white" stroke="#bfbfbf" points="211.5,-0.5 211.5,-19.5 332.5,-19.5 332.5,-0.5 211.5,-0.5"/>
<text text-anchor="middle" x="272" y="-7.5" font-family="Helvetica,sans-Serif" font-size="10.00">odp/visibility_begin.h</text>
</a>
</g>
</g>
<!-- Node1&#45;&gt;Node2 -->
<g id="edge1" class="edge">
<title>Node1&#45;&gt;Node2</title>
<path fill="none" stroke="midnightblue" d="M1263.35,-1025.45C1034.11,-1017.19 0,-976.36 0,-911.5 0,-911.5 0,-911.5 0,-132 0,-43.9 120.6,-19.48 201.19,-12.99"/>
<polygon fill="midnightblue" stroke="midnightblue" points="201.58,-16.47 211.3,-12.25 201.07,-9.49 201.58,-16.47"/>
</g>
<!-- Node3 -->
<g id="node3" class="node">
<title>Node3</title>
<g id="a_node3"><a xlink:href="packet__io__types_8h.html" target="_top" xlink:title=" ">
<polygon fill="white" stroke="black" points="676.5,-962.5 676.5,-981.5 819.5,-981.5 819.5,-962.5 676.5,-962.5"/>
<text text-anchor="middle" x="748" y="-969.5" font-family="Helvetica,sans-Serif" font-size="10.00">odp/api/packet_io_types.h</text>
</a>
</g>
</g>
<!-- Node1&#45;&gt;Node3 -->
<g id="edge2" class="edge">
<title>Node1&#45;&gt;Node3</title>
<path fill="none" stroke="midnightblue" d="M1263.12,-1022.67C1169.05,-1013.6 950.04,-992.48 830.11,-980.92"/>
<polygon fill="midnightblue" stroke="midnightblue" points="830.17,-977.41 819.88,-979.93 829.5,-984.37 830.17,-977.41"/>
</g>
<!-- Node8 -->
<g id="node8" class="node">
<title>Node8</title>
<g id="a_node8"><a xlink:title=" ">
<polygon fill="white" stroke="#bfbfbf" points="1107,-0.5 1107,-19.5 1219,-19.5 1219,-0.5 1107,-0.5"/>
<text text-anchor="middle" x="1163" y="-7.5" font-family="Helvetica,sans-Serif" font-size="10.00">odp/visibility_end.h</text>
</a>
</g>
</g>
<!-- Node1&#45;&gt;Node8 -->
<g id="edge84" class="edge">
<title>Node1&#45;&gt;Node8</title>
<path fill="none" stroke="midnightblue" d="M1352.53,-1018.44C1432.23,-1001.84 1591,-962.38 1591,-911.5 1591,-911.5 1591,-911.5 1591,-132 1591,-88.41 1567.16,-77.07 1529,-56 1478.95,-28.37 1320.57,-17.39 1229.39,-13.27"/>
<polygon fill="midnightblue" stroke="midnightblue" points="1229.3,-9.77 1219.16,-12.83 1229,-16.76 1229.3,-9.77"/>
</g>
<!-- Node15 -->
<g id="node15" class="node">
<title>Node15</title>
<g id="a_node15"><a xlink:href="std__types_8h.html" target="_top" xlink:title=" ">
<polygon fill="white" stroke="black" points="1050,-235.5 1050,-254.5 1162,-254.5 1162,-235.5 1050,-235.5"/>
<text text-anchor="middle" x="1106" y="-242.5" font-family="Helvetica,sans-Serif" font-size="10.00">odp/api/std_types.h</text>
</a>
</g>
</g>
<!-- Node1&#45;&gt;Node15 -->
<g id="edge78" class="edge">
<title>Node1&#45;&gt;Node15</title>
<path fill="none" stroke="midnightblue" d="M1312.18,-1018.24C1320.86,-999.26 1340,-952.7 1340,-911.5 1340,-911.5 1340,-911.5 1340,-680 1340,-528.91 1318.78,-480.97 1231,-358 1208.94,-327.1 1206.29,-316.32 1178,-291 1164.12,-278.58 1146.41,-267.46 1132.03,-259.38"/>
<polygon fill="midnightblue" stroke="midnightblue" points="1133.58,-256.24 1123.13,-254.53 1130.23,-262.39 1133.58,-256.24"/>
</g>
<!-- Node30 -->
<g id="node30" class="node">
<title>Node30</title>
<g id="a_node30"><a xlink:href="pool__types_8h.html" target="_top" xlink:title=" ">
<polygon fill="white" stroke="black" points="1090,-839.5 1090,-858.5 1208,-858.5 1208,-839.5 1090,-839.5"/>
<text text-anchor="middle" x="1149" y="-846.5" font-family="Helvetica,sans-Serif" font-size="10.00">odp/api/pool_types.h</text>
</a>
</g>
</g>
<!-- Node1&#45;&gt;Node30 -->
<g id="edge77" class="edge">
<title>Node1&#45;&gt;Node30</title>
<path fill="none" stroke="midnightblue" d="M1300.33,-1018.46C1275.52,-990.85 1197.13,-903.58 1164.01,-866.71"/>
<polygon fill="midnightblue" stroke="midnightblue" points="1166.25,-863.97 1156.97,-858.87 1161.05,-868.65 1166.25,-863.97"/>
</g>
<!-- Node41 -->
<g id="node41" class="node">
<title>Node41</title>
<g id="a_node41"><a xlink:href="threshold_8h.html" target="_top" xlink:title=" ">
<polygon fill="white" stroke="black" points="1370,-962.5 1370,-981.5 1480,-981.5 1480,-962.5 1370,-962.5"/>
<text text-anchor="middle" x="1425" y="-969.5" font-family="Helvetica,sans-Serif" font-size="10.00">odp/api/threshold.h</text>
</a>
</g>
</g>
<!-- Node1&#45;&gt;Node41 -->
<g id="edge79" class="edge">
<title>Node1&#45;&gt;Node41</title>
<path fill="none" stroke="midnightblue" d="M1326.54,-1018.44C1345.62,-1009.64 1375.57,-995.81 1397.44,-985.72"/>
<polygon fill="midnightblue" stroke="midnightblue" points="1398.93,-988.88 1406.55,-981.52 1396,-982.53 1398.93,-988.88"/>
</g>
<!-- Node4 -->
<g id="node4" class="node">
<title>Node4</title>
<g id="a_node4"><a xlink:title=" ">
<polygon fill="white" stroke="#bfbfbf" points="449,-548.5 449,-578.5 555,-578.5 555,-548.5 449,-548.5"/>
<text text-anchor="start" x="457" y="-566.5" font-family="Helvetica,sans-Serif" font-size="10.00">odp/api/abi/packet</text>
<text text-anchor="middle" x="502" y="-555.5" font-family="Helvetica,sans-Serif" font-size="10.00">_io_types.h</text>
</a>
</g>
</g>
<!-- Node3&#45;&gt;Node4 -->
<g id="edge3" class="edge">
<title>Node3&#45;&gt;Node4</title>
<path fill="none" stroke="midnightblue" d="M676.28,-965.16C556.32,-953.4 328,-921.61 328,-850 328,-850 328,-850 328,-680 328,-624.93 389.24,-594.55 439.06,-578.95"/>
<polygon fill="midnightblue" stroke="midnightblue" points="440.27,-582.24 448.85,-576.02 438.27,-575.53 440.27,-582.24"/>
</g>
<!-- Node5 -->
<g id="node5" class="node">
<title>Node5</title>
<g id="a_node5"><a xlink:href="spec_2packet__io__types_8h.html" target="_top" xlink:title=" ">
<polygon fill="white" stroke="black" points="691.5,-895.5 691.5,-925.5 804.5,-925.5 804.5,-895.5 691.5,-895.5"/>
<text text-anchor="start" x="699.5" y="-913.5" font-family="Helvetica,sans-Serif" font-size="10.00">odp/api/spec/packet</text>
<text text-anchor="middle" x="748" y="-902.5" font-family="Helvetica,sans-Serif" font-size="10.00">_io_types.h</text>
</a>
</g>
</g>
<!-- Node3&#45;&gt;Node5 -->
<g id="edge4" class="edge">
<title>Node3&#45;&gt;Node5</title>
<path fill="none" stroke="midnightblue" d="M748,-962.48C748,-955.47 748,-945.19 748,-935.7"/>
<polygon fill="midnightblue" stroke="midnightblue" points="751.5,-935.52 748,-925.52 744.5,-935.52 751.5,-935.52"/>
</g>
<!-- Node5&#45;&gt;Node2 -->
<g id="edge5" class="edge">
<title>Node5&#45;&gt;Node2</title>
<path fill="none" stroke="midnightblue" d="M691.4,-906.25C523.19,-895.83 38,-860.07 38,-794 38,-794 38,-794 38,-132 38,-92.28 52.83,-79.29 85,-56 118.5,-31.75 163.36,-20.43 200.74,-15.21"/>
<polygon fill="midnightblue" stroke="midnightblue" points="201.59,-18.63 211.07,-13.89 200.71,-11.68 201.59,-18.63"/>
</g>
<!-- Node6 -->
<g id="node6" class="node">
<title>Node6</title>
<g id="a_node6"><a xlink:href="deprecated_8h.html" target="_top" xlink:title=" ">
<polygon fill="white" stroke="black" points="233.5,-492.5 233.5,-511.5 352.5,-511.5 352.5,-492.5 233.5,-492.5"/>
<text text-anchor="middle" x="293" y="-499.5" font-family="Helvetica,sans-Serif" font-size="10.00">odp/api/deprecated.h</text>
</a>
</g>
</g>
<!-- Node5&#45;&gt;Node6 -->
<g id="edge6" class="edge">
<title>Node5&#45;&gt;Node6</title>
<path fill="none" stroke="midnightblue" d="M748,-895.28C748,-873.48 748,-830.49 748,-794 748,-794 748,-794 748,-624 748,-587.52 746.21,-569.85 717,-548 655.69,-502.14 455.61,-519.77 362.92,-512.02"/>
<polygon fill="midnightblue" stroke="midnightblue" points="362.99,-508.51 352.69,-511.01 362.3,-515.48 362.99,-508.51"/>
</g>
<!-- Node5&#45;&gt;Node8 -->
<g id="edge76" class="edge">
<title>Node5&#45;&gt;Node8</title>
<path fill="none" stroke="midnightblue" d="M804.64,-910.35C894.24,-910.17 1073.27,-903.56 1217,-859 1406.67,-800.2 1553,-763.08 1553,-564.5 1553,-564.5 1553,-564.5 1553,-132 1553,-88.96 1530.37,-77.35 1493,-56 1449.26,-31.01 1312.2,-19.19 1229.11,-14.19"/>
<polygon fill="midnightblue" stroke="midnightblue" points="1229.19,-10.69 1219,-13.6 1228.78,-17.68 1229.19,-10.69"/>
</g>
<!-- Node9 -->
<g id="node9" class="node">
<title>Node9</title>
<g id="a_node9"><a xlink:href="packet__types_8h.html" target="_top" xlink:title=" ">
<polygon fill="white" stroke="black" points="590.5,-615.5 590.5,-634.5 719.5,-634.5 719.5,-615.5 590.5,-615.5"/>
<text text-anchor="middle" x="655" y="-622.5" font-family="Helvetica,sans-Serif" font-size="10.00">odp/api/packet_types.h</text>
</a>
</g>
</g>
<!-- Node5&#45;&gt;Node9 -->
<g id="edge10" class="edge">
<title>Node5&#45;&gt;Node9</title>
<path fill="none" stroke="midnightblue" d="M727.15,-895.38C701.12,-875.89 660,-838.12 660,-794 660,-794 660,-794 660,-736 660,-703.91 657.85,-666.62 656.37,-644.74"/>
<polygon fill="midnightblue" stroke="midnightblue" points="659.85,-644.28 655.65,-634.55 652.86,-644.77 659.85,-644.28"/>
</g>
<!-- Node5&#45;&gt;Node15 -->
<g id="edge75" class="edge">
<title>Node5&#45;&gt;Node15</title>
<path fill="none" stroke="midnightblue" d="M804.88,-903.13C839.11,-896.79 881.77,-884.15 912,-859 937.07,-838.15 946,-826.6 946,-794 946,-794 946,-794 946,-680 946,-657.57 1067.94,-343.54 1098.91,-264.14"/>
<polygon fill="midnightblue" stroke="midnightblue" points="1102.28,-265.13 1102.66,-254.54 1095.76,-262.59 1102.28,-265.13"/>
</g>
<!-- Node22 -->
<g id="node22" class="node">
<title>Node22</title>
<g id="a_node22"><a xlink:href="queue__types_8h.html" target="_top" xlink:title=" ">
<polygon fill="white" stroke="black" points="370.5,-492.5 370.5,-511.5 497.5,-511.5 497.5,-492.5 370.5,-492.5"/>
<text text-anchor="middle" x="434" y="-499.5" font-family="Helvetica,sans-Serif" font-size="10.00">odp/api/queue_types.h</text>
</a>
</g>
</g>
<!-- Node5&#45;&gt;Node22 -->
<g id="edge69" class="edge">
<title>Node5&#45;&gt;Node22</title>
<path fill="none" stroke="midnightblue" d="M691.12,-903.09C654.82,-896.7 608.31,-884.02 574,-859 476.99,-788.26 458.09,-749.82 423,-635 411,-595.74 421.08,-547.06 428.29,-521.17"/>
<polygon fill="midnightblue" stroke="midnightblue" points="431.65,-522.16 431.13,-511.57 424.93,-520.17 431.65,-522.16"/>
</g>
<!-- Node28 -->
<g id="node28" class="node">
<title>Node28</title>
<g id="a_node28"><a xlink:href="packet__io__stats_8h.html" target="_top" xlink:title=" ">
<polygon fill="white" stroke="black" points="432,-615.5 432,-634.5 572,-634.5 572,-615.5 432,-615.5"/>
<text text-anchor="middle" x="502" y="-622.5" font-family="Helvetica,sans-Serif" font-size="10.00">odp/api/packet_io_stats.h</text>
</a>
</g>
</g>
<!-- Node5&#45;&gt;Node28 -->
<g id="edge43" class="edge">
<title>Node5&#45;&gt;Node28</title>
<path fill="none" stroke="midnightblue" d="M691.44,-899.19C636.71,-885.57 562,-855.67 562,-794 562,-794 562,-794 562,-736 562,-698.88 535.35,-662.38 517.57,-642.16"/>
<polygon fill="midnightblue" stroke="midnightblue" points="519.93,-639.55 510.6,-634.53 514.76,-644.28 519.93,-639.55"/>
</g>
<!-- Node5&#45;&gt;Node30 -->
<g id="edge50" class="edge">
<title>Node5&#45;&gt;Node30</title>
<path fill="none" stroke="midnightblue" d="M804.6,-901.1C877.43,-890.29 1003.81,-871.54 1081.54,-860.01"/>
<polygon fill="midnightblue" stroke="midnightblue" points="1082.33,-863.43 1091.71,-858.5 1081.31,-856.51 1082.33,-863.43"/>
</g>
<!-- Node39 -->
<g id="node39" class="node">
<title>Node39</title>
<g id="a_node39"><a xlink:href="reassembly_8h.html" target="_top" xlink:title=" ">
<polygon fill="white" stroke="black" points="783,-839.5 783,-858.5 903,-858.5 903,-839.5 783,-839.5"/>
<text text-anchor="middle" x="843" y="-846.5" font-family="Helvetica,sans-Serif" font-size="10.00">odp/api/reassembly.h</text>
</a>
</g>
</g>
<!-- Node5&#45;&gt;Node39 -->
<g id="edge70" class="edge">
<title>Node5&#45;&gt;Node39</title>
<path fill="none" stroke="midnightblue" d="M770.51,-895.4C785.6,-885.95 805.39,-873.56 820.47,-864.11"/>
<polygon fill="midnightblue" stroke="midnightblue" points="822.56,-866.93 829.18,-858.66 818.84,-861 822.56,-866.93"/>
</g>
<!-- Node7 -->
<g id="node7" class="node">
<title>Node7</title>
<g id="a_node7"><a xlink:href="spec_2deprecated_8h.html" target="_top" xlink:title=" ">
<polygon fill="white" stroke="black" points="338.5,-62 338.5,-81 483.5,-81 483.5,-62 338.5,-62"/>
<text text-anchor="middle" x="411" y="-69" font-family="Helvetica,sans-Serif" font-size="10.00">odp/api/spec/deprecated.h</text>
</a>
</g>
</g>
<!-- Node6&#45;&gt;Node7 -->
<g id="edge7" class="edge">
<title>Node6&#45;&gt;Node7</title>
<path fill="none" stroke="midnightblue" d="M263.12,-492.39C245.46,-485.59 224.55,-474.15 214,-456 186.07,-407.95 130.81,-464.44 252,-235 286.52,-169.64 355.62,-112.95 390.23,-87.22"/>
<polygon fill="midnightblue" stroke="midnightblue" points="392.63,-89.8 398.64,-81.08 388.5,-84.15 392.63,-89.8"/>
</g>
<!-- Node7&#45;&gt;Node2 -->
<g id="edge8" class="edge">
<title>Node7&#45;&gt;Node2</title>
<path fill="none" stroke="midnightblue" d="M391.08,-61.98C367.55,-51.9 328.19,-35.05 301.21,-23.5"/>
<polygon fill="midnightblue" stroke="midnightblue" points="302.45,-20.23 291.88,-19.51 299.69,-26.66 302.45,-20.23"/>
</g>
<!-- Node7&#45;&gt;Node8 -->
<g id="edge9" class="edge">
<title>Node7&#45;&gt;Node8</title>
<path fill="none" stroke="midnightblue" d="M456.93,-61.98C470.15,-59.77 484.62,-57.56 498,-56 716.33,-30.48 976.81,-18.06 1096.66,-13.34"/>
<polygon fill="midnightblue" stroke="midnightblue" points="1096.92,-16.84 1106.78,-12.95 1096.65,-9.84 1096.92,-16.84"/>
</g>
<!-- Node9&#45;&gt;Node4 -->
<g id="edge11" class="edge">
<title>Node9&#45;&gt;Node4</title>
<path fill="none" stroke="midnightblue" d="M633.08,-615.48C610.9,-606.85 575.96,-593.26 547.73,-582.29"/>
<polygon fill="midnightblue" stroke="midnightblue" points="548.65,-578.89 538.06,-578.52 546.11,-585.41 548.65,-578.89"/>
</g>
<!-- Node10 -->
<g id="node10" class="node">
<title>Node10</title>
<g id="a_node10"><a xlink:title=" ">
<polygon fill="white" stroke="#bfbfbf" points="602,-548.5 602,-578.5 708,-578.5 708,-548.5 602,-548.5"/>
<text text-anchor="start" x="610" y="-566.5" font-family="Helvetica,sans-Serif" font-size="10.00">odp/api/abi/packet</text>
<text text-anchor="middle" x="655" y="-555.5" font-family="Helvetica,sans-Serif" font-size="10.00">_types.h</text>
</a>
</g>
</g>
<!-- Node9&#45;&gt;Node10 -->
<g id="edge12" class="edge">
<title>Node9&#45;&gt;Node10</title>
<path fill="none" stroke="midnightblue" d="M655,-615.48C655,-608.47 655,-598.19 655,-588.7"/>
<polygon fill="midnightblue" stroke="midnightblue" points="658.5,-588.52 655,-578.52 651.5,-588.52 658.5,-588.52"/>
</g>
<!-- Node11 -->
<g id="node11" class="node">
<title>Node11</title>
<g id="a_node11"><a xlink:href="spec_2packet__types_8h.html" target="_top" xlink:title=" ">
<polygon fill="white" stroke="black" points="814.5,-548.5 814.5,-578.5 927.5,-578.5 927.5,-548.5 814.5,-548.5"/>
<text text-anchor="start" x="822.5" y="-566.5" font-family="Helvetica,sans-Serif" font-size="10.00">odp/api/spec/packet</text>
<text text-anchor="middle" x="871" y="-555.5" font-family="Helvetica,sans-Serif" font-size="10.00">_types.h</text>
</a>
</g>
</g>
<!-- Node9&#45;&gt;Node11 -->
<g id="edge13" class="edge">
<title>Node9&#45;&gt;Node11</title>
<path fill="none" stroke="midnightblue" d="M685.95,-615.48C718.28,-606.57 769.83,-592.37 810.32,-581.22"/>
<polygon fill="midnightblue" stroke="midnightblue" points="811.38,-584.55 820.09,-578.52 809.52,-577.8 811.38,-584.55"/>
</g>
<!-- Node11&#45;&gt;Node2 -->
<g id="edge14" class="edge">
<title>Node11&#45;&gt;Node2</title>
<path fill="none" stroke="midnightblue" d="M814.07,-550.64C700.12,-526.68 451.83,-473.34 416,-456 396.07,-446.35 395.53,-437.12 377,-425 348.38,-406.28 334.64,-411.63 309,-389 231.73,-320.82 190,-293.05 190,-190 190,-190 190,-190 190,-132 190,-87.51 228.46,-47.2 252.7,-26.22"/>
<polygon fill="midnightblue" stroke="midnightblue" points="255.17,-28.72 260.6,-19.63 250.68,-23.35 255.17,-28.72"/>
</g>
<!-- Node11&#45;&gt;Node8 -->
<g id="edge42" class="edge">
<title>Node11&#45;&gt;Node8</title>
<path fill="none" stroke="midnightblue" d="M927.54,-557.61C1071.21,-541.78 1439,-478.55 1439,-246 1439,-246 1439,-246 1439,-132 1439,-40.81 1311.06,-17.7 1229.4,-12.24"/>
<polygon fill="midnightblue" stroke="midnightblue" points="1229.38,-8.73 1219.19,-11.63 1228.96,-15.72 1229.38,-8.73"/>
</g>
<!-- Node12 -->
<g id="node12" class="node">
<title>Node12</title>
<g id="a_node12"><a xlink:href="proto__stats__types_8h.html" target="_top" xlink:title=" ">
<polygon fill="white" stroke="black" points="816,-358.5 816,-388.5 926,-388.5 926,-358.5 816,-358.5"/>
<text text-anchor="start" x="824" y="-376.5" font-family="Helvetica,sans-Serif" font-size="10.00">odp/api/proto_stats</text>
<text text-anchor="middle" x="871" y="-365.5" font-family="Helvetica,sans-Serif" font-size="10.00">_types.h</text>
</a>
</g>
</g>
<!-- Node11&#45;&gt;Node12 -->
<g id="edge15" class="edge">
<title>Node11&#45;&gt;Node12</title>
<path fill="none" stroke="midnightblue" d="M871,-548.37C871,-516.44 871,-438.44 871,-398.67"/>
<polygon fill="midnightblue" stroke="midnightblue" points="874.5,-398.54 871,-388.54 867.5,-398.54 874.5,-398.54"/>
</g>
<!-- Node11&#45;&gt;Node22 -->
<g id="edge31" class="edge">
<title>Node11&#45;&gt;Node22</title>
<path fill="none" stroke="midnightblue" d="M814.49,-550.54C809.6,-549.63 804.72,-548.77 800,-548 771.93,-543.42 606.46,-523.51 507.88,-511.77"/>
<polygon fill="midnightblue" stroke="midnightblue" points="508.02,-508.26 497.67,-510.55 507.19,-515.21 508.02,-508.26"/>
</g>
<!-- Node13 -->
<g id="node13" class="node">
<title>Node13</title>
<g id="a_node13"><a xlink:title=" ">
<polygon fill="white" stroke="#bfbfbf" points="649,-291.5 649,-321.5 777,-321.5 777,-291.5 649,-291.5"/>
<text text-anchor="start" x="657" y="-309.5" font-family="Helvetica,sans-Serif" font-size="10.00">odp/api/abi/proto_stats</text>
<text text-anchor="middle" x="713" y="-298.5" font-family="Helvetica,sans-Serif" font-size="10.00">_types.h</text>
</a>
</g>
</g>
<!-- Node12&#45;&gt;Node13 -->
<g id="edge16" class="edge">
<title>Node12&#45;&gt;Node13</title>
<path fill="none" stroke="midnightblue" d="M836.72,-358.4C813.22,-348.73 781.85,-335.82 756.57,-325.43"/>
<polygon fill="midnightblue" stroke="midnightblue" points="757.8,-322.14 747.22,-321.58 755.13,-328.62 757.8,-322.14"/>
</g>
<!-- Node14 -->
<g id="node14" class="node">
<title>Node14</title>
<g id="a_node14"><a xlink:href="spec_2proto__stats__types_8h.html" target="_top" xlink:title=" ">
<polygon fill="white" stroke="black" points="959.5,-291.5 959.5,-321.5 1066.5,-321.5 1066.5,-291.5 959.5,-291.5"/>
<text text-anchor="start" x="967.5" y="-309.5" font-family="Helvetica,sans-Serif" font-size="10.00">odp/api/spec/proto</text>
<text text-anchor="middle" x="1013" y="-298.5" font-family="Helvetica,sans-Serif" font-size="10.00">_stats_types.h</text>
</a>
</g>
</g>
<!-- Node12&#45;&gt;Node14 -->
<g id="edge17" class="edge">
<title>Node12&#45;&gt;Node14</title>
<path fill="none" stroke="midnightblue" d="M901.81,-358.4C922.65,-348.86 950.38,-336.16 972.93,-325.84"/>
<polygon fill="midnightblue" stroke="midnightblue" points="974.61,-328.92 982.25,-321.58 971.7,-322.56 974.61,-328.92"/>
</g>
<!-- Node14&#45;&gt;Node2 -->
<g id="edge18" class="edge">
<title>Node14&#45;&gt;Node2</title>
<path fill="none" stroke="midnightblue" d="M963.78,-291.43C885.64,-268.75 737.01,-224.11 688,-199 592.03,-149.83 590.63,-99.58 492,-56 444.69,-35.1 387.33,-23.77 343.05,-17.72"/>
<polygon fill="midnightblue" stroke="midnightblue" points="343.32,-14.22 332.95,-16.39 342.41,-21.16 343.32,-14.22"/>
</g>
<!-- Node14&#45;&gt;Node8 -->
<g id="edge30" class="edge">
<title>Node14&#45;&gt;Node8</title>
<path fill="none" stroke="midnightblue" d="M1017.58,-291.31C1022.51,-276.76 1031.01,-253.7 1041,-235 1078.65,-164.54 1109.67,-159.6 1143,-87 1151.52,-68.44 1156.91,-45.61 1159.92,-29.84"/>
<polygon fill="midnightblue" stroke="midnightblue" points="1163.41,-30.22 1161.71,-19.77 1156.52,-29 1163.41,-30.22"/>
</g>
<!-- Node14&#45;&gt;Node15 -->
<g id="edge19" class="edge">
<title>Node14&#45;&gt;Node15</title>
<path fill="none" stroke="midnightblue" d="M1035.04,-291.4C1049.81,-281.95 1069.18,-269.56 1083.95,-260.11"/>
<polygon fill="midnightblue" stroke="midnightblue" points="1085.93,-263 1092.47,-254.66 1082.16,-257.1 1085.93,-263"/>
</g>
<!-- Node16 -->
<g id="node16" class="node">
<title>Node16</title>
<g id="a_node16"><a xlink:title=" ">
<polygon fill="white" stroke="#bfbfbf" points="1104,-179.5 1104,-198.5 1234,-198.5 1234,-179.5 1104,-179.5"/>
<text text-anchor="middle" x="1169" y="-186.5" font-family="Helvetica,sans-Serif" font-size="10.00">odp/api/abi/std_types.h</text>
</a>
</g>
</g>
<!-- Node15&#45;&gt;Node16 -->
<g id="edge20" class="edge">
<title>Node15&#45;&gt;Node16</title>
<path fill="none" stroke="midnightblue" d="M1116.12,-235.32C1125.53,-227.26 1139.74,-215.08 1151.07,-205.37"/>
<polygon fill="midnightblue" stroke="midnightblue" points="1153.38,-208 1158.69,-198.83 1148.82,-202.68 1153.38,-208"/>
</g>
<!-- Node17 -->
<g id="node17" class="node">
<title>Node17</title>
<g id="a_node17"><a xlink:href="spec_2std__types_8h.html" target="_top" xlink:title=" ">
<polygon fill="white" stroke="black" points="910.5,-179.5 910.5,-198.5 1047.5,-198.5 1047.5,-179.5 910.5,-179.5"/>
<text text-anchor="middle" x="979" y="-186.5" font-family="Helvetica,sans-Serif" font-size="10.00">odp/api/spec/std_types.h</text>
</a>
</g>
</g>
<!-- Node15&#45;&gt;Node17 -->
<g id="edge21" class="edge">
<title>Node15&#45;&gt;Node17</title>
<path fill="none" stroke="midnightblue" d="M1085.88,-235.44C1064.98,-226.56 1032.07,-212.56 1008.28,-202.45"/>
<polygon fill="midnightblue" stroke="midnightblue" points="1009.6,-199.21 999.03,-198.52 1006.86,-205.65 1009.6,-199.21"/>
</g>
<!-- Node17&#45;&gt;Node2 -->
<g id="edge22" class="edge">
<title>Node17&#45;&gt;Node2</title>
<path fill="none" stroke="midnightblue" d="M960.16,-179.34C898.9,-151.24 707.56,-63.92 678,-56 563.2,-25.24 424.72,-15.47 342.76,-12.39"/>
<polygon fill="midnightblue" stroke="midnightblue" points="342.67,-8.88 332.56,-12.03 342.43,-15.88 342.67,-8.88"/>
</g>
<!-- Node17&#45;&gt;Node8 -->
<g id="edge29" class="edge">
<title>Node17&#45;&gt;Node8</title>
<path fill="none" stroke="midnightblue" d="M1047.88,-181.4C1148.22,-171.48 1323.83,-152.84 1334,-143 1361.94,-115.97 1366.92,-86.64 1343,-56 1328.86,-37.88 1274.55,-25.98 1229.25,-18.99"/>
<polygon fill="midnightblue" stroke="midnightblue" points="1229.55,-15.5 1219.14,-17.49 1228.52,-22.43 1229.55,-15.5"/>
</g>
<!-- Node18 -->
<g id="node18" class="node">
<title>Node18</title>
<g id="a_node18"><a xlink:title=" ">
<polygon fill="white" stroke="#bfbfbf" points="997.5,-123.5 997.5,-142.5 1050.5,-142.5 1050.5,-123.5 997.5,-123.5"/>
<text text-anchor="middle" x="1024" y="-130.5" font-family="Helvetica,sans-Serif" font-size="10.00">stdint.h</text>
</a>
</g>
</g>
<!-- Node17&#45;&gt;Node18 -->
<g id="edge23" class="edge">
<title>Node17&#45;&gt;Node18</title>
<path fill="none" stroke="midnightblue" d="M986.43,-179.08C992.85,-171.38 1002.31,-160.03 1010.12,-150.65"/>
<polygon fill="midnightblue" stroke="midnightblue" points="1012.99,-152.67 1016.71,-142.75 1007.62,-148.19 1012.99,-152.67"/>
</g>
<!-- Node19 -->
<g id="node19" class="node">
<title>Node19</title>
<g id="a_node19"><a xlink:href="align_8h.html" target="_top" xlink:title=" ">
<polygon fill="white" stroke="black" points="890.5,-123.5 890.5,-142.5 979.5,-142.5 979.5,-123.5 890.5,-123.5"/>
<text text-anchor="middle" x="935" y="-130.5" font-family="Helvetica,sans-Serif" font-size="10.00">odp/api/align.h</text>
</a>
</g>
</g>
<!-- Node17&#45;&gt;Node19 -->
<g id="edge24" class="edge">
<title>Node17&#45;&gt;Node19</title>
<path fill="none" stroke="midnightblue" d="M971.73,-179.08C965.46,-171.38 956.21,-160.03 948.57,-150.65"/>
<polygon fill="midnightblue" stroke="midnightblue" points="951.16,-148.29 942.13,-142.75 945.73,-152.71 951.16,-148.29"/>
</g>
<!-- Node20 -->
<g id="node20" class="node">
<title>Node20</title>
<g id="a_node20"><a xlink:title=" ">
<polygon fill="white" stroke="#bfbfbf" points="900.5,-62 900.5,-81 1007.5,-81 1007.5,-62 900.5,-62"/>
<text text-anchor="middle" x="954" y="-69" font-family="Helvetica,sans-Serif" font-size="10.00">odp/api/abi/align.h</text>
</a>
</g>
</g>
<!-- Node19&#45;&gt;Node20 -->
<g id="edge25" class="edge">
<title>Node19&#45;&gt;Node20</title>
<path fill="none" stroke="midnightblue" d="M937.72,-123.48C940.43,-114.99 944.67,-101.7 948.15,-90.82"/>
<polygon fill="midnightblue" stroke="midnightblue" points="951.57,-91.6 951.28,-81.01 944.91,-89.47 951.57,-91.6"/>
</g>
<!-- Node21 -->
<g id="node21" class="node">
<title>Node21</title>
<g id="a_node21"><a xlink:href="spec_2align_8h.html" target="_top" xlink:title=" ">
<polygon fill="white" stroke="black" points="768,-62 768,-81 882,-81 882,-62 768,-62"/>
<text text-anchor="middle" x="825" y="-69" font-family="Helvetica,sans-Serif" font-size="10.00">odp/api/spec/align.h</text>
</a>
</g>
</g>
<!-- Node19&#45;&gt;Node21 -->
<g id="edge26" class="edge">
<title>Node19&#45;&gt;Node21</title>
<path fill="none" stroke="midnightblue" d="M919.24,-123.48C901.02,-113.62 870.83,-97.29 849.53,-85.77"/>
<polygon fill="midnightblue" stroke="midnightblue" points="851.19,-82.69 840.73,-81.01 847.86,-88.85 851.19,-82.69"/>
</g>
<!-- Node21&#45;&gt;Node2 -->
<g id="edge27" class="edge">
<title>Node21&#45;&gt;Node2</title>
<path fill="none" stroke="midnightblue" d="M767.91,-62.56C751.19,-60.33 732.87,-57.98 716,-56 584.43,-40.58 430.55,-25.69 342.85,-17.49"/>
<polygon fill="midnightblue" stroke="midnightblue" points="343.03,-13.99 332.75,-16.55 342.38,-20.96 343.03,-13.99"/>
</g>
<!-- Node21&#45;&gt;Node8 -->
<g id="edge28" class="edge">
<title>Node21&#45;&gt;Node8</title>
<path fill="none" stroke="midnightblue" d="M862.28,-61.95C871.63,-59.91 881.67,-57.8 891,-56 961.02,-42.53 1041.66,-29.49 1096.85,-20.95"/>
<polygon fill="midnightblue" stroke="midnightblue" points="1097.5,-24.39 1106.85,-19.41 1096.43,-17.48 1097.5,-24.39"/>
</g>
<!-- Node23 -->
<g id="node23" class="node">
<title>Node23</title>
<g id="a_node23"><a xlink:title=" ">
<polygon fill="white" stroke="#bfbfbf" points="223.5,-431 223.5,-450 368.5,-450 368.5,-431 223.5,-431"/>
<text text-anchor="middle" x="296" y="-438" font-family="Helvetica,sans-Serif" font-size="10.00">odp/api/abi/queue_types.h</text>
</a>
</g>
</g>
<!-- Node22&#45;&gt;Node23 -->
<g id="edge32" class="edge">
<title>Node22&#45;&gt;Node23</title>
<path fill="none" stroke="midnightblue" d="M414.23,-492.48C390.86,-482.4 351.79,-465.55 325,-454"/>
<polygon fill="midnightblue" stroke="midnightblue" points="326.3,-450.75 315.74,-450.01 323.53,-457.18 326.3,-450.75"/>
</g>
<!-- Node24 -->
<g id="node24" class="node">
<title>Node24</title>
<g id="a_node24"><a xlink:href="spec_2queue__types_8h.html" target="_top" xlink:title=" ">
<polygon fill="white" stroke="black" points="425.5,-425.5 425.5,-455.5 536.5,-455.5 536.5,-425.5 425.5,-425.5"/>
<text text-anchor="start" x="433.5" y="-443.5" font-family="Helvetica,sans-Serif" font-size="10.00">odp/api/spec/queue</text>
<text text-anchor="middle" x="481" y="-432.5" font-family="Helvetica,sans-Serif" font-size="10.00">_types.h</text>
</a>
</g>
</g>
<!-- Node22&#45;&gt;Node24 -->
<g id="edge33" class="edge">
<title>Node22&#45;&gt;Node24</title>
<path fill="none" stroke="midnightblue" d="M440.73,-492.48C446.68,-484.94 455.62,-473.63 463.57,-463.57"/>
<polygon fill="midnightblue" stroke="midnightblue" points="466.47,-465.54 469.92,-455.52 460.98,-461.2 466.47,-465.54"/>
</g>
<!-- Node24&#45;&gt;Node2 -->
<g id="edge34" class="edge">
<title>Node24&#45;&gt;Node2</title>
<path fill="none" stroke="midnightblue" d="M444.04,-425.42C382.57,-400.84 266,-348.78 266,-307.5 266,-307.5 266,-307.5 266,-188 266,-130.49 269.2,-62.54 270.93,-30.1"/>
<polygon fill="midnightblue" stroke="midnightblue" points="274.44,-30.01 271.49,-19.84 267.45,-29.63 274.44,-30.01"/>
</g>
<!-- Node24&#45;&gt;Node8 -->
<g id="edge41" class="edge">
<title>Node24&#45;&gt;Node8</title>
<path fill="none" stroke="midnightblue" d="M515.96,-425.32C531.89,-417.07 549.5,-405.08 560,-389 641.9,-263.58 502.26,-157.96 612,-56 646.81,-23.65 957.52,-14.42 1096.42,-11.9"/>
<polygon fill="midnightblue" stroke="midnightblue" points="1096.58,-15.4 1106.52,-11.72 1096.46,-8.4 1096.58,-15.4"/>
</g>
<!-- Node25 -->
<g id="node25" class="node">
<title>Node25</title>
<g id="a_node25"><a xlink:href="schedule__types_8h.html" target="_top" xlink:title=" ">
<polygon fill="white" stroke="black" points="411,-364 411,-383 551,-383 551,-364 411,-364"/>
<text text-anchor="middle" x="481" y="-371" font-family="Helvetica,sans-Serif" font-size="10.00">odp/api/schedule_types.h</text>
</a>
</g>
</g>
<!-- Node24&#45;&gt;Node25 -->
<g id="edge35" class="edge">
<title>Node24&#45;&gt;Node25</title>
<path fill="none" stroke="midnightblue" d="M481,-425.4C481,-416.06 481,-403.71 481,-393.52"/>
<polygon fill="midnightblue" stroke="midnightblue" points="484.5,-393.19 481,-383.19 477.5,-393.19 484.5,-393.19"/>
</g>
<!-- Node26 -->
<g id="node26" class="node">
<title>Node26</title>
<g id="a_node26"><a xlink:title=" ">
<polygon fill="white" stroke="#bfbfbf" points="294.5,-291.5 294.5,-321.5 411.5,-321.5 411.5,-291.5 294.5,-291.5"/>
<text text-anchor="start" x="302.5" y="-309.5" font-family="Helvetica,sans-Serif" font-size="10.00">odp/api/abi/schedule</text>
<text text-anchor="middle" x="353" y="-298.5" font-family="Helvetica,sans-Serif" font-size="10.00">_types.h</text>
</a>
</g>
</g>
<!-- Node25&#45;&gt;Node26 -->
<g id="edge36" class="edge">
<title>Node25&#45;&gt;Node26</title>
<path fill="none" stroke="midnightblue" d="M464,-363.87C445.19,-354.31 414.3,-338.63 389.87,-326.22"/>
<polygon fill="midnightblue" stroke="midnightblue" points="391.37,-323.06 380.87,-321.65 388.2,-329.3 391.37,-323.06"/>
</g>
<!-- Node27 -->
<g id="node27" class="node">
<title>Node27</title>
<g id="a_node27"><a xlink:href="spec_2schedule__types_8h.html" target="_top" xlink:title=" ">
<polygon fill="white" stroke="black" points="429.5,-291.5 429.5,-321.5 554.5,-321.5 554.5,-291.5 429.5,-291.5"/>
<text text-anchor="start" x="437.5" y="-309.5" font-family="Helvetica,sans-Serif" font-size="10.00">odp/api/spec/schedule</text>
<text text-anchor="middle" x="492" y="-298.5" font-family="Helvetica,sans-Serif" font-size="10.00">_types.h</text>
</a>
</g>
</g>
<!-- Node25&#45;&gt;Node27 -->
<g id="edge37" class="edge">
<title>Node25&#45;&gt;Node27</title>
<path fill="none" stroke="midnightblue" d="M482.48,-363.73C483.87,-355.54 486.01,-342.92 487.9,-331.71"/>
<polygon fill="midnightblue" stroke="midnightblue" points="491.4,-332.03 489.62,-321.59 484.5,-330.86 491.4,-332.03"/>
</g>
<!-- Node27&#45;&gt;Node2 -->
<g id="edge38" class="edge">
<title>Node27&#45;&gt;Node2</title>
<path fill="none" stroke="midnightblue" d="M475.22,-291.42C437.73,-259.09 346.51,-175.52 296,-87 285.74,-69.01 279.27,-46.08 275.67,-30.13"/>
<polygon fill="midnightblue" stroke="midnightblue" points="279.01,-29 273.54,-19.93 272.16,-30.43 279.01,-29"/>
</g>
<!-- Node27&#45;&gt;Node8 -->
<g id="edge40" class="edge">
<title>Node27&#45;&gt;Node8</title>
<path fill="none" stroke="midnightblue" d="M496.05,-291.41C501.89,-269.79 512,-227.04 512,-190 512,-190 512,-190 512,-132 512,-88.41 535.36,-76.18 574,-56 619.41,-32.28 952.81,-18.17 1096.93,-13.12"/>
<polygon fill="midnightblue" stroke="midnightblue" points="1097.1,-16.62 1106.98,-12.77 1096.86,-9.62 1097.1,-16.62"/>
</g>
<!-- Node27&#45;&gt;Node15 -->
<g id="edge39" class="edge">
<title>Node27&#45;&gt;Node15</title>
<path fill="none" stroke="midnightblue" d="M554.65,-299.34C581,-296.76 611.99,-293.72 640,-291 782.35,-277.15 949.18,-261.08 1039.58,-252.38"/>
<polygon fill="midnightblue" stroke="midnightblue" points="1040.07,-255.85 1049.69,-251.41 1039.4,-248.89 1040.07,-255.85"/>
</g>
<!-- Node28&#45;&gt;Node4 -->
<g id="edge44" class="edge">
<title>Node28&#45;&gt;Node4</title>
<path fill="none" stroke="midnightblue" d="M502,-615.48C502,-608.47 502,-598.19 502,-588.7"/>
<polygon fill="midnightblue" stroke="midnightblue" points="505.5,-588.52 502,-578.52 498.5,-588.52 505.5,-588.52"/>
</g>
<!-- Node29 -->
<g id="node29" class="node">
<title>Node29</title>
<g id="a_node29"><a xlink:href="spec_2packet__io__stats_8h.html" target="_top" xlink:title=" ">
<polygon fill="white" stroke="black" points="148.5,-548.5 148.5,-578.5 261.5,-578.5 261.5,-548.5 148.5,-548.5"/>
<text text-anchor="start" x="156.5" y="-566.5" font-family="Helvetica,sans-Serif" font-size="10.00">odp/api/spec/packet</text>
<text text-anchor="middle" x="205" y="-555.5" font-family="Helvetica,sans-Serif" font-size="10.00">_io_stats.h</text>
</a>
</g>
</g>
<!-- Node28&#45;&gt;Node29 -->
<g id="edge45" class="edge">
<title>Node28&#45;&gt;Node29</title>
<path fill="none" stroke="midnightblue" d="M459.45,-615.48C410.42,-605.65 329.25,-589.39 271.79,-577.88"/>
<polygon fill="midnightblue" stroke="midnightblue" points="272.2,-574.39 261.7,-575.86 270.82,-581.26 272.2,-574.39"/>
</g>
<!-- Node29&#45;&gt;Node2 -->
<g id="edge46" class="edge">
<title>Node29&#45;&gt;Node2</title>
<path fill="none" stroke="midnightblue" d="M194.27,-548.48C178.79,-526.79 152,-483.24 152,-441.5 152,-441.5 152,-441.5 152,-132 152,-96.58 152.67,-82.65 176,-56 189.57,-40.5 209.61,-29.96 227.88,-22.99"/>
<polygon fill="midnightblue" stroke="midnightblue" points="229.26,-26.22 237.52,-19.58 226.92,-19.62 229.26,-26.22"/>
</g>
<!-- Node29&#45;&gt;Node6 -->
<g id="edge47" class="edge">
<title>Node29&#45;&gt;Node6</title>
<path fill="none" stroke="midnightblue" d="M225.85,-548.4C239.7,-539.04 257.81,-526.79 271.74,-517.38"/>
<polygon fill="midnightblue" stroke="midnightblue" points="273.87,-520.16 280.2,-511.66 269.95,-514.36 273.87,-520.16"/>
</g>
<!-- Node29&#45;&gt;Node8 -->
<g id="edge49" class="edge">
<title>Node29&#45;&gt;Node8</title>
<path fill="none" stroke="midnightblue" d="M204.46,-548.44C204.67,-532.21 207.75,-505.96 224,-492 332.91,-398.46 425.63,-535.75 545,-456 708.97,-346.46 576.53,-170.61 737,-56 793.15,-15.89 991.74,-10.29 1096.76,-10.24"/>
<polygon fill="midnightblue" stroke="midnightblue" points="1096.93,-13.74 1106.93,-10.25 1096.94,-6.74 1096.93,-13.74"/>
</g>
<!-- Node29&#45;&gt;Node22 -->
<g id="edge48" class="edge">
<title>Node29&#45;&gt;Node22</title>
<path fill="none" stroke="midnightblue" d="M258.98,-548.47C299.35,-537.99 353.8,-523.84 391.19,-514.12"/>
<polygon fill="midnightblue" stroke="midnightblue" points="392.46,-517.41 401.26,-511.51 390.7,-510.63 392.46,-517.41"/>
</g>
<!-- Node31 -->
<g id="node31" class="node">
<title>Node31</title>
<g id="a_node31"><a xlink:title=" ">
<polygon fill="white" stroke="#bfbfbf" points="1176,-783.5 1176,-802.5 1312,-802.5 1312,-783.5 1176,-783.5"/>
<text text-anchor="middle" x="1244" y="-790.5" font-family="Helvetica,sans-Serif" font-size="10.00">odp/api/abi/pool_types.h</text>
</a>
</g>
</g>
<!-- Node30&#45;&gt;Node31 -->
<g id="edge51" class="edge">
<title>Node30&#45;&gt;Node31</title>
<path fill="none" stroke="midnightblue" d="M1164.26,-839.32C1179.22,-830.82 1202.25,-817.73 1219.73,-807.8"/>
<polygon fill="midnightblue" stroke="midnightblue" points="1221.81,-810.64 1228.77,-802.65 1218.35,-804.55 1221.81,-810.64"/>
</g>
<!-- Node32 -->
<g id="node32" class="node">
<title>Node32</title>
<g id="a_node32"><a xlink:href="spec_2pool__types_8h.html" target="_top" xlink:title=" ">
<polygon fill="white" stroke="black" points="1014.5,-783.5 1014.5,-802.5 1157.5,-802.5 1157.5,-783.5 1014.5,-783.5"/>
<text text-anchor="middle" x="1086" y="-790.5" font-family="Helvetica,sans-Serif" font-size="10.00">odp/api/spec/pool_types.h</text>
</a>
</g>
</g>
<!-- Node30&#45;&gt;Node32 -->
<g id="edge52" class="edge">
<title>Node30&#45;&gt;Node32</title>
<path fill="none" stroke="midnightblue" d="M1138.88,-839.32C1129.47,-831.26 1115.26,-819.08 1103.93,-809.37"/>
<polygon fill="midnightblue" stroke="midnightblue" points="1106.18,-806.68 1096.31,-802.83 1101.62,-812 1106.18,-806.68"/>
</g>
<!-- Node32&#45;&gt;Node2 -->
<g id="edge53" class="edge">
<title>Node32&#45;&gt;Node2</title>
<path fill="none" stroke="midnightblue" d="M1014.33,-785.84C812.25,-767.06 244.08,-704.02 113,-579 67.2,-535.32 76,-504.78 76,-441.5 76,-441.5 76,-441.5 76,-132 76,-92.75 90.06,-80.16 121,-56 144.04,-38.01 174.16,-27.2 201.44,-20.7"/>
<polygon fill="midnightblue" stroke="midnightblue" points="202.34,-24.09 211.34,-18.5 200.82,-17.26 202.34,-24.09"/>
</g>
<!-- Node32&#45;&gt;Node8 -->
<g id="edge68" class="edge">
<title>Node32&#45;&gt;Node8</title>
<path fill="none" stroke="midnightblue" d="M1133.06,-783.47C1166.66,-776.34 1212.39,-764.5 1250,-747 1379.66,-686.68 1515,-707.51 1515,-564.5 1515,-564.5 1515,-564.5 1515,-132 1515,-89.78 1494.23,-77.68 1458,-56 1420.48,-33.54 1304.17,-21.14 1229.29,-15.29"/>
<polygon fill="midnightblue" stroke="midnightblue" points="1229.25,-11.78 1219.01,-14.51 1228.72,-18.76 1229.25,-11.78"/>
</g>
<!-- Node32&#45;&gt;Node15 -->
<g id="edge54" class="edge">
<title>Node32&#45;&gt;Node15</title>
<path fill="none" stroke="midnightblue" d="M1129.38,-783.45C1176.33,-771.62 1248.92,-745.26 1282,-691 1376.38,-536.19 1181.94,-321.93 1122.52,-262.09"/>
<polygon fill="midnightblue" stroke="midnightblue" points="1124.64,-259.26 1115.08,-254.69 1119.7,-264.22 1124.64,-259.26"/>
</g>
<!-- Node33 -->
<g id="node33" class="node">
<title>Node33</title>
<g id="a_node33"><a xlink:href="dma__types_8h.html" target="_top" xlink:title=" ">
<polygon fill="white" stroke="black" points="1026.5,-727.5 1026.5,-746.5 1145.5,-746.5 1145.5,-727.5 1026.5,-727.5"/>
<text text-anchor="middle" x="1086" y="-734.5" font-family="Helvetica,sans-Serif" font-size="10.00">odp/api/dma_types.h</text>
</a>
</g>
</g>
<!-- Node32&#45;&gt;Node33 -->
<g id="edge55" class="edge">
<title>Node32&#45;&gt;Node33</title>
<path fill="none" stroke="midnightblue" d="M1086,-783.08C1086,-776.01 1086,-765.86 1086,-756.99"/>
<polygon fill="midnightblue" stroke="midnightblue" points="1089.5,-756.75 1086,-746.75 1082.5,-756.75 1089.5,-756.75"/>
</g>
<!-- Node34 -->
<g id="node34" class="node">
<title>Node34</title>
<g id="a_node34"><a xlink:title=" ">
<polygon fill="white" stroke="#bfbfbf" points="1136.5,-671.5 1136.5,-690.5 1273.5,-690.5 1273.5,-671.5 1136.5,-671.5"/>
<text text-anchor="middle" x="1205" y="-678.5" font-family="Helvetica,sans-Serif" font-size="10.00">odp/api/abi/dma_types.h</text>
</a>
</g>
</g>
<!-- Node33&#45;&gt;Node34 -->
<g id="edge56" class="edge">
<title>Node33&#45;&gt;Node34</title>
<path fill="none" stroke="midnightblue" d="M1104.86,-727.44C1124.27,-718.64 1154.73,-704.81 1176.96,-694.72"/>
<polygon fill="midnightblue" stroke="midnightblue" points="1178.57,-697.84 1186.23,-690.52 1175.68,-691.46 1178.57,-697.84"/>
</g>
<!-- Node35 -->
<g id="node35" class="node">
<title>Node35</title>
<g id="a_node35"><a xlink:href="spec_2dma__types_8h.html" target="_top" xlink:title=" ">
<polygon fill="white" stroke="black" points="974,-671.5 974,-690.5 1118,-690.5 1118,-671.5 974,-671.5"/>
<text text-anchor="middle" x="1046" y="-678.5" font-family="Helvetica,sans-Serif" font-size="10.00">odp/api/spec/dma_types.h</text>
</a>
</g>
</g>
<!-- Node33&#45;&gt;Node35 -->
<g id="edge57" class="edge">
<title>Node33&#45;&gt;Node35</title>
<path fill="none" stroke="midnightblue" d="M1079.39,-727.08C1073.74,-719.46 1065.46,-708.26 1058.55,-698.94"/>
<polygon fill="midnightblue" stroke="midnightblue" points="1061.25,-696.7 1052.48,-690.75 1055.62,-700.87 1061.25,-696.7"/>
</g>
<!-- Node35&#45;&gt;Node2 -->
<g id="edge58" class="edge">
<title>Node35&#45;&gt;Node2</title>
<path fill="none" stroke="midnightblue" d="M973.9,-678.06C832.85,-673.74 525.28,-661.52 423,-635 402.6,-629.71 400.19,-621.06 380,-615 328.14,-599.42 177.89,-616.68 139,-579 94.39,-535.78 114,-503.61 114,-441.5 114,-441.5 114,-441.5 114,-132 114,-94.03 124.69,-81.29 153,-56 171.22,-39.72 195.92,-29.11 218.09,-22.3"/>
<polygon fill="midnightblue" stroke="midnightblue" points="219.1,-25.66 227.74,-19.53 217.16,-18.93 219.1,-25.66"/>
</g>
<!-- Node35&#45;&gt;Node8 -->
<g id="edge67" class="edge">
<title>Node35&#45;&gt;Node8</title>
<path fill="none" stroke="midnightblue" d="M1098.42,-671.47C1213.28,-652.06 1477,-603.28 1477,-564.5 1477,-564.5 1477,-564.5 1477,-132 1477,-91.32 1460.15,-78.11 1426,-56 1394.29,-35.46 1296.2,-22.83 1229.21,-16.36"/>
<polygon fill="midnightblue" stroke="midnightblue" points="1229.43,-12.87 1219.15,-15.42 1228.78,-19.84 1229.43,-12.87"/>
</g>
<!-- Node35&#45;&gt;Node9 -->
<g id="edge64" class="edge">
<title>Node35&#45;&gt;Node9</title>
<path fill="none" stroke="midnightblue" d="M984.04,-671.44C914.12,-661.79 800.53,-646.1 726.8,-635.92"/>
<polygon fill="midnightblue" stroke="midnightblue" points="727.05,-632.42 716.67,-634.52 726.09,-639.35 727.05,-632.42"/>
</g>
<!-- Node35&#45;&gt;Node15 -->
<g id="edge66" class="edge">
<title>Node35&#45;&gt;Node15</title>
<path fill="none" stroke="midnightblue" d="M1059.21,-671.26C1083.55,-653.99 1133,-612.95 1133,-564.5 1133,-564.5 1133,-564.5 1133,-372.5 1133,-333.36 1120.48,-288.87 1112.49,-264.47"/>
<polygon fill="midnightblue" stroke="midnightblue" points="1115.73,-263.1 1109.2,-254.76 1109.1,-265.35 1115.73,-263.1"/>
</g>
<!-- Node35&#45;&gt;Node22 -->
<g id="edge65" class="edge">
<title>Node35&#45;&gt;Node22</title>
<path fill="none" stroke="midnightblue" d="M1020.49,-671.48C975.51,-655.99 879.8,-620.91 805,-579 784.45,-567.48 783.87,-556.75 762,-548 750.3,-543.32 600.72,-523.94 507.65,-512.19"/>
<polygon fill="midnightblue" stroke="midnightblue" points="508.07,-508.71 497.71,-510.94 507.2,-515.66 508.07,-508.71"/>
</g>
<!-- Node36 -->
<g id="node36" class="node">
<title>Node36</title>
<g id="a_node36"><a xlink:href="event__types_8h.html" target="_top" xlink:title=" ">
<polygon fill="white" stroke="black" points="1200.5,-123.5 1200.5,-142.5 1325.5,-142.5 1325.5,-123.5 1200.5,-123.5"/>
<text text-anchor="middle" x="1263" y="-130.5" font-family="Helvetica,sans-Serif" font-size="10.00">odp/api/event_types.h</text>
</a>
</g>
</g>
<!-- Node35&#45;&gt;Node36 -->
<g id="edge59" class="edge">
<title>Node35&#45;&gt;Node36</title>
<path fill="none" stroke="midnightblue" d="M1064.56,-671.41C1080.91,-663.35 1104.87,-650.25 1123,-635 1261.16,-518.75 1321.92,-492.27 1382,-322 1407.14,-250.73 1324.35,-178.59 1283.92,-148.54"/>
<polygon fill="midnightblue" stroke="midnightblue" points="1285.91,-145.66 1275.76,-142.62 1281.8,-151.32 1285.91,-145.66"/>
</g>
<!-- Node37 -->
<g id="node37" class="node">
<title>Node37</title>
<g id="a_node37"><a xlink:title=" ">
<polygon fill="white" stroke="#bfbfbf" points="1191.5,-62 1191.5,-81 1334.5,-81 1334.5,-62 1191.5,-62"/>
<text text-anchor="middle" x="1263" y="-69" font-family="Helvetica,sans-Serif" font-size="10.00">odp/api/abi/event_types.h</text>
</a>
</g>
</g>
<!-- Node36&#45;&gt;Node37 -->
<g id="edge60" class="edge">
<title>Node36&#45;&gt;Node37</title>
<path fill="none" stroke="midnightblue" d="M1263,-123.48C1263,-115.08 1263,-101.98 1263,-91.16"/>
<polygon fill="midnightblue" stroke="midnightblue" points="1266.5,-91.01 1263,-81.01 1259.5,-91.01 1266.5,-91.01"/>
</g>
<!-- Node38 -->
<g id="node38" class="node">
<title>Node38</title>
<g id="a_node38"><a xlink:href="spec_2event__types_8h.html" target="_top" xlink:title=" ">
<polygon fill="white" stroke="black" points="1025.5,-56.5 1025.5,-86.5 1134.5,-86.5 1134.5,-56.5 1025.5,-56.5"/>
<text text-anchor="start" x="1033.5" y="-74.5" font-family="Helvetica,sans-Serif" font-size="10.00">odp/api/spec/event</text>
<text text-anchor="middle" x="1080" y="-63.5" font-family="Helvetica,sans-Serif" font-size="10.00">_types.h</text>
</a>
</g>
</g>
<!-- Node36&#45;&gt;Node38 -->
<g id="edge61" class="edge">
<title>Node36&#45;&gt;Node38</title>
<path fill="none" stroke="midnightblue" d="M1236.78,-123.48C1209.8,-114.7 1167,-100.79 1132.94,-89.71"/>
<polygon fill="midnightblue" stroke="midnightblue" points="1133.72,-86.29 1123.13,-86.52 1131.56,-92.94 1133.72,-86.29"/>
</g>
<!-- Node38&#45;&gt;Node2 -->
<g id="edge62" class="edge">
<title>Node38&#45;&gt;Node2</title>
<path fill="none" stroke="midnightblue" d="M1025.3,-57.49C1022.16,-56.94 1019.05,-56.43 1016,-56 770.35,-20.98 475.27,-13.17 342.64,-11.46"/>
<polygon fill="midnightblue" stroke="midnightblue" points="342.65,-7.96 332.61,-11.34 342.57,-14.96 342.65,-7.96"/>
</g>
<!-- Node38&#45;&gt;Node8 -->
<g id="edge63" class="edge">
<title>Node38&#45;&gt;Node8</title>
<path fill="none" stroke="midnightblue" d="M1099.67,-56.4C1112.6,-47.13 1129.49,-35.03 1142.57,-25.65"/>
<polygon fill="midnightblue" stroke="midnightblue" points="1144.83,-28.33 1150.92,-19.66 1140.76,-22.64 1144.83,-28.33"/>
</g>
<!-- Node40 -->
<g id="node40" class="node">
<title>Node40</title>
<g id="a_node40"><a xlink:href="spec_2reassembly_8h.html" target="_top" xlink:title=" ">
<polygon fill="white" stroke="black" points="795,-297 795,-316 941,-316 941,-297 795,-297"/>
<text text-anchor="middle" x="868" y="-304" font-family="Helvetica,sans-Serif" font-size="10.00">odp/api/spec/reassembly.h</text>
</a>
</g>
</g>
<!-- Node39&#45;&gt;Node40 -->
<g id="edge71" class="edge">
<title>Node39&#45;&gt;Node40</title>
<path fill="none" stroke="midnightblue" d="M852.59,-839.34C870.67,-822.02 908,-781.03 908,-738 908,-738 908,-738 908,-680 908,-598.49 956,-584.51 956,-503 956,-503 956,-503 956,-439.5 956,-402.09 955.77,-389.11 935,-358 924.72,-342.6 908.12,-330.04 894.02,-321.29"/>
<polygon fill="midnightblue" stroke="midnightblue" points="895.6,-318.16 885.2,-316.11 892.05,-324.2 895.6,-318.16"/>
</g>
<!-- Node40&#45;&gt;Node2 -->
<g id="edge72" class="edge">
<title>Node40&#45;&gt;Node2</title>
<path fill="none" stroke="midnightblue" d="M827.39,-296.97C732.17,-275.38 490.4,-211.29 329,-87 308.25,-71.02 291.3,-45.61 281.43,-28.63"/>
<polygon fill="midnightblue" stroke="midnightblue" points="284.4,-26.76 276.46,-19.74 278.29,-30.17 284.4,-26.76"/>
</g>
<!-- Node40&#45;&gt;Node8 -->
<g id="edge74" class="edge">
<title>Node40&#45;&gt;Node8</title>
<path fill="none" stroke="midnightblue" d="M844.82,-296.93C807.93,-281.61 740,-245.82 740,-190 740,-190 740,-190 740,-132 740,-97.18 732.79,-78.92 759,-56 783.87,-34.26 988.42,-20.25 1096.55,-14.29"/>
<polygon fill="midnightblue" stroke="midnightblue" points="1096.91,-17.78 1106.71,-13.74 1096.53,-10.79 1096.91,-17.78"/>
</g>
<!-- Node40&#45;&gt;Node15 -->
<g id="edge73" class="edge">
<title>Node40&#45;&gt;Node15</title>
<path fill="none" stroke="midnightblue" d="M902.1,-296.98C944.25,-286.44 1016.05,-268.49 1062.23,-256.94"/>
<polygon fill="midnightblue" stroke="midnightblue" points="1063.11,-260.33 1071.96,-254.51 1061.41,-253.54 1063.11,-260.33"/>
</g>
<!-- Node42 -->
<g id="node42" class="node">
<title>Node42</title>
<g id="a_node42"><a xlink:href="spec_2threshold_8h.html" target="_top" xlink:title=" ">
<polygon fill="white" stroke="black" points="1237,-297 1237,-316 1373,-316 1373,-297 1237,-297"/>
<text text-anchor="middle" x="1305" y="-304" font-family="Helvetica,sans-Serif" font-size="10.00">odp/api/spec/threshold.h</text>
</a>
</g>
</g>
<!-- Node41&#45;&gt;Node42 -->
<g id="edge80" class="edge">
<title>Node41&#45;&gt;Node42</title>
<path fill="none" stroke="midnightblue" d="M1426.72,-962.23C1430.46,-942.36 1439,-892.29 1439,-850 1439,-850 1439,-850 1439,-439.5 1439,-381.4 1374.27,-340.3 1334.79,-320.63"/>
<polygon fill="midnightblue" stroke="midnightblue" points="1335.88,-317.27 1325.35,-316.1 1332.85,-323.58 1335.88,-317.27"/>
</g>
<!-- Node42&#45;&gt;Node2 -->
<g id="edge81" class="edge">
<title>Node42&#45;&gt;Node2</title>
<path fill="none" stroke="midnightblue" d="M1292.36,-296.88C1269.35,-281.65 1218.59,-250.16 1171,-235 1055.65,-198.25 1018.24,-229.19 901,-199 731.48,-155.34 702.68,-102.83 534,-56 470.29,-38.31 395.83,-26.33 342.61,-19.2"/>
<polygon fill="midnightblue" stroke="midnightblue" points="342.96,-15.72 332.59,-17.89 342.05,-22.66 342.96,-15.72"/>
</g>
<!-- Node42&#45;&gt;Node8 -->
<g id="edge83" class="edge">
<title>Node42&#45;&gt;Node8</title>
<path fill="none" stroke="midnightblue" d="M1311.86,-296.62C1337.93,-261.77 1426.31,-132.47 1365,-56 1348.14,-34.98 1281.69,-23.14 1229.55,-16.94"/>
<polygon fill="midnightblue" stroke="midnightblue" points="1229.66,-13.43 1219.33,-15.78 1228.87,-20.39 1229.66,-13.43"/>
</g>
<!-- Node42&#45;&gt;Node15 -->
<g id="edge82" class="edge">
<title>Node42&#45;&gt;Node15</title>
<path fill="none" stroke="midnightblue" d="M1276.49,-296.98C1241.76,-286.59 1182.96,-269.01 1144.31,-257.45"/>
<polygon fill="midnightblue" stroke="midnightblue" points="1145.04,-254.02 1134.46,-254.51 1143.04,-260.73 1145.04,-254.02"/>
</g>
</g>
</svg>
