<?xml version="1.0" encoding="UTF-8" standalone="no"?>
<!DOCTYPE svg PUBLIC "-//W3C//DTD SVG 1.1//EN"
 "http://www.w3.org/Graphics/SVG/1.1/DTD/svg11.dtd">
<!-- Generated by graphviz version 2.43.0 (0)
 -->
<!-- Title: reassembly.h Pages: 1 -->
<svg width="381pt" height="420pt"
 viewBox="0.00 0.00 380.50 420.00" xmlns="http://www.w3.org/2000/svg" xmlns:xlink="http://www.w3.org/1999/xlink">
<g id="graph0" class="graph" transform="scale(1 1) rotate(0) translate(4 416)">
<title>reassembly.h</title>
<polygon fill="white" stroke="transparent" points="-4,4 -4,-416 376.5,-416 376.5,4 -4,4"/>
<!-- Node1 -->
<g id="node1" class="node">
<title>Node1</title>
<g id="a_node1"><a xlink:title=" ">
<polygon fill="#bfbfbf" stroke="black" points="0,-392.5 0,-411.5 81,-411.5 81,-392.5 0,-392.5"/>
<text text-anchor="middle" x="40.5" y="-399.5" font-family="Helvetica,sans-Serif" font-size="10.00">reassembly.h</text>
</a>
</g>
</g>
<!-- Node2 -->
<g id="node2" class="node">
<title>Node2</title>
<g id="a_node2"><a xlink:href="reassembly_8h.html" target="_top" xlink:title=" ">
<polygon fill="white" stroke="black" points="0,-336.5 0,-355.5 81,-355.5 81,-336.5 0,-336.5"/>
<text text-anchor="middle" x="40.5" y="-343.5" font-family="Helvetica,sans-Serif" font-size="10.00">reassembly.h</text>
</a>
</g>
</g>
<!-- Node1&#45;&gt;Node2 -->
<g id="edge1" class="edge">
<title>Node1&#45;&gt;Node2</title>
<path fill="none" stroke="midnightblue" d="M40.5,-381.8C40.5,-372.91 40.5,-362.78 40.5,-355.75"/>
<polygon fill="midnightblue" stroke="midnightblue" points="37,-382.08 40.5,-392.08 44,-382.08 37,-382.08"/>
</g>
<!-- Node3 -->
<g id="node3" class="node">
<title>Node3</title>
<g id="a_node3"><a xlink:href="spec_2packet__io_8h.html" target="_top" xlink:title=" ">
<polygon fill="white" stroke="black" points="2.5,-56.5 2.5,-75.5 74.5,-75.5 74.5,-56.5 2.5,-56.5"/>
<text text-anchor="middle" x="38.5" y="-63.5" font-family="Helvetica,sans-Serif" font-size="10.00">packet_io.h</text>
</a>
</g>
</g>
<!-- Node2&#45;&gt;Node3 -->
<g id="edge2" class="edge">
<title>Node2&#45;&gt;Node3</title>
<path fill="none" stroke="midnightblue" d="M29.82,-327.5C17.97,-306.37 0.5,-269.38 0.5,-235 0.5,-235 0.5,-235 0.5,-177 0.5,-137.4 22.77,-93.96 33.22,-75.77"/>
<polygon fill="midnightblue" stroke="midnightblue" points="26.88,-329.39 34.94,-336.27 32.92,-325.87 26.88,-329.39"/>
</g>
<!-- Node5 -->
<g id="node5" class="node">
<title>Node5</title>
<g id="a_node5"><a xlink:href="spec_2packet__io__types_8h.html" target="_top" xlink:title=" ">
<polygon fill="white" stroke="black" points="43.5,-280.5 43.5,-299.5 147.5,-299.5 147.5,-280.5 43.5,-280.5"/>
<text text-anchor="middle" x="95.5" y="-287.5" font-family="Helvetica,sans-Serif" font-size="10.00">packet_io_types.h</text>
</a>
</g>
</g>
<!-- Node2&#45;&gt;Node5 -->
<g id="edge4" class="edge">
<title>Node2&#45;&gt;Node5</title>
<path fill="none" stroke="midnightblue" d="M56.79,-329C66.54,-319.43 78.55,-307.64 86.59,-299.75"/>
<polygon fill="midnightblue" stroke="midnightblue" points="54.27,-326.58 49.58,-336.08 59.17,-331.57 54.27,-326.58"/>
</g>
<!-- Node4 -->
<g id="node4" class="node">
<title>Node4</title>
<g id="a_node4"><a xlink:href="packet__io_8h.html" target="_top" xlink:title=" ">
<polygon fill="white" stroke="black" points="2.5,-0.5 2.5,-19.5 74.5,-19.5 74.5,-0.5 2.5,-0.5"/>
<text text-anchor="middle" x="38.5" y="-7.5" font-family="Helvetica,sans-Serif" font-size="10.00">packet_io.h</text>
</a>
</g>
</g>
<!-- Node3&#45;&gt;Node4 -->
<g id="edge3" class="edge">
<title>Node3&#45;&gt;Node4</title>
<path fill="none" stroke="midnightblue" d="M38.5,-45.8C38.5,-36.91 38.5,-26.78 38.5,-19.75"/>
<polygon fill="midnightblue" stroke="midnightblue" points="35,-46.08 38.5,-56.08 42,-46.08 35,-46.08"/>
</g>
<!-- Node6 -->
<g id="node6" class="node">
<title>Node6</title>
<g id="a_node6"><a xlink:href="packet__io__types_8h.html" target="_top" xlink:title=" ">
<polygon fill="white" stroke="black" points="95.5,-224.5 95.5,-243.5 199.5,-243.5 199.5,-224.5 95.5,-224.5"/>
<text text-anchor="middle" x="147.5" y="-231.5" font-family="Helvetica,sans-Serif" font-size="10.00">packet_io_types.h</text>
</a>
</g>
</g>
<!-- Node5&#45;&gt;Node6 -->
<g id="edge5" class="edge">
<title>Node5&#45;&gt;Node6</title>
<path fill="none" stroke="midnightblue" d="M111.18,-272.72C120.34,-263.2 131.55,-251.56 139.07,-243.75"/>
<polygon fill="midnightblue" stroke="midnightblue" points="108.5,-270.45 104.09,-280.08 113.54,-275.31 108.5,-270.45"/>
</g>
<!-- Node6&#45;&gt;Node3 -->
<g id="edge14" class="edge">
<title>Node6&#45;&gt;Node3</title>
<path fill="none" stroke="midnightblue" d="M103.52,-220.67C86.62,-213.75 68.71,-203.32 57.5,-188 31.89,-152.99 35.03,-96.94 37.36,-75.62"/>
<polygon fill="midnightblue" stroke="midnightblue" points="102.71,-224.1 113.3,-224.35 105.17,-217.55 102.71,-224.1"/>
</g>
<!-- Node7 -->
<g id="node7" class="node">
<title>Node7</title>
<g id="a_node7"><a xlink:href="spec_2classification_8h.html" target="_top" xlink:title=" ">
<polygon fill="white" stroke="black" points="67,-168.5 67,-187.5 156,-187.5 156,-168.5 67,-168.5"/>
<text text-anchor="middle" x="111.5" y="-175.5" font-family="Helvetica,sans-Serif" font-size="10.00">classification.h</text>
</a>
</g>
</g>
<!-- Node6&#45;&gt;Node7 -->
<g id="edge6" class="edge">
<title>Node6&#45;&gt;Node7</title>
<path fill="none" stroke="midnightblue" d="M135.88,-215.57C129.68,-206.27 122.33,-195.25 117.33,-187.75"/>
<polygon fill="midnightblue" stroke="midnightblue" points="133.1,-217.7 141.56,-224.08 138.92,-213.82 133.1,-217.7"/>
</g>
<!-- Node9 -->
<g id="node9" class="node">
<title>Node9</title>
<g id="a_node9"><a xlink:href="spec_2ipsec_8h.html" target="_top" xlink:title=" ">
<polygon fill="white" stroke="black" points="159,-56.5 159,-75.5 210,-75.5 210,-56.5 159,-56.5"/>
<text text-anchor="middle" x="184.5" y="-63.5" font-family="Helvetica,sans-Serif" font-size="10.00">ipsec.h</text>
</a>
</g>
</g>
<!-- Node6&#45;&gt;Node9 -->
<g id="edge11" class="edge">
<title>Node6&#45;&gt;Node9</title>
<path fill="none" stroke="midnightblue" d="M155.35,-214.71C158.56,-206.65 162.09,-196.97 164.5,-188 175.61,-146.67 181.6,-95.65 183.67,-75.63"/>
<polygon fill="midnightblue" stroke="midnightblue" points="152.01,-213.63 151.42,-224.21 158.48,-216.31 152.01,-213.63"/>
</g>
<!-- Node11 -->
<g id="node11" class="node">
<title>Node11</title>
<g id="a_node11"><a xlink:href="spec_2packet_8h.html" target="_top" xlink:title=" ">
<polygon fill="white" stroke="black" points="212.5,-168.5 212.5,-187.5 270.5,-187.5 270.5,-168.5 212.5,-168.5"/>
<text text-anchor="middle" x="241.5" y="-175.5" font-family="Helvetica,sans-Serif" font-size="10.00">packet.h</text>
</a>
</g>
</g>
<!-- Node6&#45;&gt;Node11 -->
<g id="edge12" class="edge">
<title>Node6&#45;&gt;Node11</title>
<path fill="none" stroke="midnightblue" d="M171.56,-219.18C188.86,-209.24 211.65,-196.15 226.43,-187.65"/>
<polygon fill="midnightblue" stroke="midnightblue" points="169.53,-216.31 162.6,-224.32 173.02,-222.38 169.53,-216.31"/>
</g>
<!-- Node13 -->
<g id="node13" class="node">
<title>Node13</title>
<g id="a_node13"><a xlink:href="spec_2traffic__mngr_8h.html" target="_top" xlink:title=" ">
<polygon fill="white" stroke="black" points="288.5,-168.5 288.5,-187.5 372.5,-187.5 372.5,-168.5 288.5,-168.5"/>
<text text-anchor="middle" x="330.5" y="-175.5" font-family="Helvetica,sans-Serif" font-size="10.00">traffic_mngr.h</text>
</a>
</g>
</g>
<!-- Node6&#45;&gt;Node13 -->
<g id="edge15" class="edge">
<title>Node6&#45;&gt;Node13</title>
<path fill="none" stroke="midnightblue" d="M186.24,-221.57C220.76,-211.38 270.51,-196.7 301.64,-187.52"/>
<polygon fill="midnightblue" stroke="midnightblue" points="185.1,-218.26 176.5,-224.44 187.08,-224.97 185.1,-218.26"/>
</g>
<!-- Node8 -->
<g id="node8" class="node">
<title>Node8</title>
<g id="a_node8"><a xlink:href="classification_8h.html" target="_top" xlink:title=" ">
<polygon fill="white" stroke="black" points="67,-112.5 67,-131.5 156,-131.5 156,-112.5 67,-112.5"/>
<text text-anchor="middle" x="111.5" y="-119.5" font-family="Helvetica,sans-Serif" font-size="10.00">classification.h</text>
</a>
</g>
</g>
<!-- Node7&#45;&gt;Node8 -->
<g id="edge7" class="edge">
<title>Node7&#45;&gt;Node8</title>
<path fill="none" stroke="midnightblue" d="M111.5,-157.8C111.5,-148.91 111.5,-138.78 111.5,-131.75"/>
<polygon fill="midnightblue" stroke="midnightblue" points="108,-158.08 111.5,-168.08 115,-158.08 108,-158.08"/>
</g>
<!-- Node8&#45;&gt;Node3 -->
<g id="edge10" class="edge">
<title>Node8&#45;&gt;Node3</title>
<path fill="none" stroke="midnightblue" d="M91.36,-106.1C78.22,-96.38 61.52,-84.03 50.44,-75.83"/>
<polygon fill="midnightblue" stroke="midnightblue" points="89.65,-109.19 99.77,-112.32 93.81,-103.56 89.65,-109.19"/>
</g>
<!-- Node8&#45;&gt;Node9 -->
<g id="edge8" class="edge">
<title>Node8&#45;&gt;Node9</title>
<path fill="none" stroke="midnightblue" d="M131.64,-106.1C144.78,-96.38 161.48,-84.03 172.56,-75.83"/>
<polygon fill="midnightblue" stroke="midnightblue" points="129.19,-103.56 123.23,-112.32 133.35,-109.19 129.19,-103.56"/>
</g>
<!-- Node10 -->
<g id="node10" class="node">
<title>Node10</title>
<g id="a_node10"><a xlink:href="ipsec_8h.html" target="_top" xlink:title=" ">
<polygon fill="white" stroke="black" points="159,-0.5 159,-19.5 210,-19.5 210,-0.5 159,-0.5"/>
<text text-anchor="middle" x="184.5" y="-7.5" font-family="Helvetica,sans-Serif" font-size="10.00">ipsec.h</text>
</a>
</g>
</g>
<!-- Node9&#45;&gt;Node10 -->
<g id="edge9" class="edge">
<title>Node9&#45;&gt;Node10</title>
<path fill="none" stroke="midnightblue" d="M184.5,-45.8C184.5,-36.91 184.5,-26.78 184.5,-19.75"/>
<polygon fill="midnightblue" stroke="midnightblue" points="181,-46.08 184.5,-56.08 188,-46.08 181,-46.08"/>
</g>
<!-- Node12 -->
<g id="node12" class="node">
<title>Node12</title>
<g id="a_node12"><a xlink:href="packet_8h.html" target="_top" xlink:title=" ">
<polygon fill="white" stroke="black" points="212.5,-112.5 212.5,-131.5 270.5,-131.5 270.5,-112.5 212.5,-112.5"/>
<text text-anchor="middle" x="241.5" y="-119.5" font-family="Helvetica,sans-Serif" font-size="10.00">packet.h</text>
</a>
</g>
</g>
<!-- Node11&#45;&gt;Node12 -->
<g id="edge13" class="edge">
<title>Node11&#45;&gt;Node12</title>
<path fill="none" stroke="midnightblue" d="M241.5,-157.8C241.5,-148.91 241.5,-138.78 241.5,-131.75"/>
<polygon fill="midnightblue" stroke="midnightblue" points="238,-158.08 241.5,-168.08 245,-158.08 238,-158.08"/>
</g>
<!-- Node14 -->
<g id="node14" class="node">
<title>Node14</title>
<g id="a_node14"><a xlink:href="traffic__mngr_8h.html" target="_top" xlink:title=" ">
<polygon fill="white" stroke="black" points="288.5,-112.5 288.5,-131.5 372.5,-131.5 372.5,-112.5 288.5,-112.5"/>
<text text-anchor="middle" x="330.5" y="-119.5" font-family="Helvetica,sans-Serif" font-size="10.00">traffic_mngr.h</text>
</a>
</g>
</g>
<!-- Node13&#45;&gt;Node14 -->
<g id="edge16" class="edge">
<title>Node13&#45;&gt;Node14</title>
<path fill="none" stroke="midnightblue" d="M330.5,-157.8C330.5,-148.91 330.5,-138.78 330.5,-131.75"/>
<polygon fill="midnightblue" stroke="midnightblue" points="327,-158.08 330.5,-168.08 334,-158.08 327,-158.08"/>
</g>
<!-- Node14&#45;&gt;Node9 -->
<g id="edge17" class="edge">
<title>Node14&#45;&gt;Node9</title>
<path fill="none" stroke="midnightblue" d="M297.8,-108.91C270.35,-98.75 231.83,-84.51 207.53,-75.52"/>
<polygon fill="midnightblue" stroke="midnightblue" points="296.77,-112.26 307.37,-112.44 299.2,-105.69 296.77,-112.26"/>
</g>
</g>
</svg>
