<?xml version="1.0" encoding="UTF-8" standalone="no"?>
<!DOCTYPE svg PUBLIC "-//W3C//DTD SVG 1.1//EN"
 "http://www.w3.org/Graphics/SVG/1.1/DTD/svg11.dtd">
<!-- Generated by graphviz version 2.43.0 (0)
 -->
<!-- Title: pool_types.h Pages: 1 -->
<svg width="551pt" height="420pt"
 viewBox="0.00 0.00 551.00 420.00" xmlns="http://www.w3.org/2000/svg" xmlns:xlink="http://www.w3.org/1999/xlink">
<g id="graph0" class="graph" transform="scale(1 1) rotate(0) translate(4 416)">
<title>pool_types.h</title>
<polygon fill="white" stroke="transparent" points="-4,4 -4,-416 547,-416 547,4 -4,4"/>
<!-- Node1 -->
<g id="node1" class="node">
<title>Node1</title>
<g id="a_node1"><a xlink:title=" ">
<polygon fill="#bfbfbf" stroke="black" points="259,-392.5 259,-411.5 338,-411.5 338,-392.5 259,-392.5"/>
<text text-anchor="middle" x="298.5" y="-399.5" font-family="Helvetica,sans-Serif" font-size="10.00">pool_types.h</text>
</a>
</g>
</g>
<!-- Node2 -->
<g id="node2" class="node">
<title>Node2</title>
<g id="a_node2"><a xlink:href="pool__types_8h.html" target="_top" xlink:title=" ">
<polygon fill="white" stroke="black" points="259,-336.5 259,-355.5 338,-355.5 338,-336.5 259,-336.5"/>
<text text-anchor="middle" x="298.5" y="-343.5" font-family="Helvetica,sans-Serif" font-size="10.00">pool_types.h</text>
</a>
</g>
</g>
<!-- Node1&#45;&gt;Node2 -->
<g id="edge1" class="edge">
<title>Node1&#45;&gt;Node2</title>
<path fill="none" stroke="midnightblue" d="M298.5,-381.8C298.5,-372.91 298.5,-362.78 298.5,-355.75"/>
<polygon fill="midnightblue" stroke="midnightblue" points="295,-382.08 298.5,-392.08 302,-382.08 295,-382.08"/>
</g>
<!-- Node3 -->
<g id="node3" class="node">
<title>Node3</title>
<g id="a_node3"><a xlink:href="spec_2buffer_8h.html" target="_top" xlink:title=" ">
<polygon fill="white" stroke="black" points="17,-280.5 17,-299.5 70,-299.5 70,-280.5 17,-280.5"/>
<text text-anchor="middle" x="43.5" y="-287.5" font-family="Helvetica,sans-Serif" font-size="10.00">buffer.h</text>
</a>
</g>
</g>
<!-- Node2&#45;&gt;Node3 -->
<g id="edge2" class="edge">
<title>Node2&#45;&gt;Node3</title>
<path fill="none" stroke="midnightblue" d="M248.63,-334.64C205.24,-325.6 140.68,-312.07 84.5,-300 79.94,-299.02 75.1,-297.97 70.4,-296.94"/>
<polygon fill="midnightblue" stroke="midnightblue" points="248.14,-338.12 258.64,-336.73 249.57,-331.26 248.14,-338.12"/>
</g>
<!-- Node5 -->
<g id="node5" class="node">
<title>Node5</title>
<g id="a_node5"><a xlink:href="spec_2classification_8h.html" target="_top" xlink:title=" ">
<polygon fill="white" stroke="black" points="0,-168.5 0,-187.5 89,-187.5 89,-168.5 0,-168.5"/>
<text text-anchor="middle" x="44.5" y="-175.5" font-family="Helvetica,sans-Serif" font-size="10.00">classification.h</text>
</a>
</g>
</g>
<!-- Node2&#45;&gt;Node5 -->
<g id="edge4" class="edge">
<title>Node2&#45;&gt;Node5</title>
<path fill="none" stroke="midnightblue" d="M248.56,-343.58C209.19,-340.06 154.89,-329.63 117.5,-300 87.75,-276.42 98.69,-256.15 78.5,-224 70.17,-210.73 58.97,-196.47 51.74,-187.64"/>
<polygon fill="midnightblue" stroke="midnightblue" points="248.49,-347.08 258.73,-344.36 249.03,-340.1 248.49,-347.08"/>
</g>
<!-- Node11 -->
<g id="node11" class="node">
<title>Node11</title>
<g id="a_node11"><a xlink:href="spec_2crypto_8h.html" target="_top" xlink:title=" ">
<polygon fill="white" stroke="black" points="352.5,-280.5 352.5,-299.5 408.5,-299.5 408.5,-280.5 352.5,-280.5"/>
<text text-anchor="middle" x="380.5" y="-287.5" font-family="Helvetica,sans-Serif" font-size="10.00">crypto.h</text>
</a>
</g>
</g>
<!-- Node2&#45;&gt;Node11 -->
<g id="edge10" class="edge">
<title>Node2&#45;&gt;Node11</title>
<path fill="none" stroke="midnightblue" d="M320.33,-330.62C335.31,-320.76 354.7,-307.99 367.36,-299.65"/>
<polygon fill="midnightblue" stroke="midnightblue" points="318.1,-327.9 311.67,-336.32 321.95,-333.75 318.1,-327.9"/>
</g>
<!-- Node13 -->
<g id="node13" class="node">
<title>Node13</title>
<g id="a_node13"><a xlink:href="spec_2dma_8h.html" target="_top" xlink:title=" ">
<polygon fill="white" stroke="black" points="249,-280.5 249,-299.5 296,-299.5 296,-280.5 249,-280.5"/>
<text text-anchor="middle" x="272.5" y="-287.5" font-family="Helvetica,sans-Serif" font-size="10.00">dma.h</text>
</a>
</g>
</g>
<!-- Node2&#45;&gt;Node13 -->
<g id="edge13" class="edge">
<title>Node2&#45;&gt;Node13</title>
<path fill="none" stroke="midnightblue" d="M289.83,-326.98C285.41,-317.82 280.25,-307.09 276.71,-299.75"/>
<polygon fill="midnightblue" stroke="midnightblue" points="286.71,-328.59 294.21,-336.08 293.02,-325.55 286.71,-328.59"/>
</g>
<!-- Node15 -->
<g id="node15" class="node">
<title>Node15</title>
<g id="a_node15"><a xlink:href="spec_2packet_8h.html" target="_top" xlink:title=" ">
<polygon fill="white" stroke="black" points="285.5,-168.5 285.5,-187.5 343.5,-187.5 343.5,-168.5 285.5,-168.5"/>
<text text-anchor="middle" x="314.5" y="-175.5" font-family="Helvetica,sans-Serif" font-size="10.00">packet.h</text>
</a>
</g>
</g>
<!-- Node2&#45;&gt;Node15 -->
<g id="edge15" class="edge">
<title>Node2&#45;&gt;Node15</title>
<path fill="none" stroke="midnightblue" d="M301.22,-326.22C302.33,-318.16 303.57,-308.63 304.5,-300 309.05,-257.88 312.62,-207.31 313.94,-187.52"/>
<polygon fill="midnightblue" stroke="midnightblue" points="297.71,-326 299.78,-336.39 304.65,-326.98 297.71,-326"/>
</g>
<!-- Node17 -->
<g id="node17" class="node">
<title>Node17</title>
<g id="a_node17"><a xlink:href="spec_2packet__io__types_8h.html" target="_top" xlink:title=" ">
<polygon fill="white" stroke="black" points="126.5,-280.5 126.5,-299.5 230.5,-299.5 230.5,-280.5 126.5,-280.5"/>
<text text-anchor="middle" x="178.5" y="-287.5" font-family="Helvetica,sans-Serif" font-size="10.00">packet_io_types.h</text>
</a>
</g>
</g>
<!-- Node2&#45;&gt;Node17 -->
<g id="edge17" class="edge">
<title>Node2&#45;&gt;Node17</title>
<path fill="none" stroke="midnightblue" d="M270.13,-332.23C247.68,-322.13 216.96,-308.31 197.43,-299.52"/>
<polygon fill="midnightblue" stroke="midnightblue" points="268.93,-335.53 279.49,-336.44 271.8,-329.15 268.93,-335.53"/>
</g>
<!-- Node21 -->
<g id="node21" class="node">
<title>Node21</title>
<g id="a_node21"><a xlink:href="spec_2pool_8h.html" target="_top" xlink:title=" ">
<polygon fill="white" stroke="black" points="427,-280.5 427,-299.5 474,-299.5 474,-280.5 427,-280.5"/>
<text text-anchor="middle" x="450.5" y="-287.5" font-family="Helvetica,sans-Serif" font-size="10.00">pool.h</text>
</a>
</g>
</g>
<!-- Node2&#45;&gt;Node21 -->
<g id="edge26" class="edge">
<title>Node2&#45;&gt;Node21</title>
<path fill="none" stroke="midnightblue" d="M332.17,-333.04C360.77,-322.88 401.11,-308.55 426.53,-299.52"/>
<polygon fill="midnightblue" stroke="midnightblue" points="330.84,-329.8 322.58,-336.44 333.18,-336.39 330.84,-329.8"/>
</g>
<!-- Node24 -->
<g id="node24" class="node">
<title>Node24</title>
<g id="a_node24"><a xlink:href="spec_2timer_8h.html" target="_top" xlink:title=" ">
<polygon fill="white" stroke="black" points="492,-280.5 492,-299.5 543,-299.5 543,-280.5 492,-280.5"/>
<text text-anchor="middle" x="517.5" y="-287.5" font-family="Helvetica,sans-Serif" font-size="10.00">timer.h</text>
</a>
</g>
</g>
<!-- Node2&#45;&gt;Node24 -->
<g id="edge29" class="edge">
<title>Node2&#45;&gt;Node24</title>
<path fill="none" stroke="midnightblue" d="M344.82,-334.01C382.28,-325.05 436.35,-311.97 483.5,-300 486.22,-299.31 489.06,-298.58 491.89,-297.84"/>
<polygon fill="midnightblue" stroke="midnightblue" points="343.63,-330.69 334.71,-336.42 345.25,-337.5 343.63,-330.69"/>
</g>
<!-- Node4 -->
<g id="node4" class="node">
<title>Node4</title>
<g id="a_node4"><a xlink:href="buffer_8h.html" target="_top" xlink:title=" ">
<polygon fill="white" stroke="black" points="17,-224.5 17,-243.5 70,-243.5 70,-224.5 17,-224.5"/>
<text text-anchor="middle" x="43.5" y="-231.5" font-family="Helvetica,sans-Serif" font-size="10.00">buffer.h</text>
</a>
</g>
</g>
<!-- Node3&#45;&gt;Node4 -->
<g id="edge3" class="edge">
<title>Node3&#45;&gt;Node4</title>
<path fill="none" stroke="midnightblue" d="M43.5,-269.8C43.5,-260.91 43.5,-250.78 43.5,-243.75"/>
<polygon fill="midnightblue" stroke="midnightblue" points="40,-270.08 43.5,-280.08 47,-270.08 40,-270.08"/>
</g>
<!-- Node6 -->
<g id="node6" class="node">
<title>Node6</title>
<g id="a_node6"><a xlink:href="classification_8h.html" target="_top" xlink:title=" ">
<polygon fill="white" stroke="black" points="0,-112.5 0,-131.5 89,-131.5 89,-112.5 0,-112.5"/>
<text text-anchor="middle" x="44.5" y="-119.5" font-family="Helvetica,sans-Serif" font-size="10.00">classification.h</text>
</a>
</g>
</g>
<!-- Node5&#45;&gt;Node6 -->
<g id="edge5" class="edge">
<title>Node5&#45;&gt;Node6</title>
<path fill="none" stroke="midnightblue" d="M44.5,-157.8C44.5,-148.91 44.5,-138.78 44.5,-131.75"/>
<polygon fill="midnightblue" stroke="midnightblue" points="41,-158.08 44.5,-168.08 48,-158.08 41,-158.08"/>
</g>
<!-- Node7 -->
<g id="node7" class="node">
<title>Node7</title>
<g id="a_node7"><a xlink:href="spec_2ipsec_8h.html" target="_top" xlink:title=" ">
<polygon fill="white" stroke="black" points="182,-56.5 182,-75.5 233,-75.5 233,-56.5 182,-56.5"/>
<text text-anchor="middle" x="207.5" y="-63.5" font-family="Helvetica,sans-Serif" font-size="10.00">ipsec.h</text>
</a>
</g>
</g>
<!-- Node6&#45;&gt;Node7 -->
<g id="edge6" class="edge">
<title>Node6&#45;&gt;Node7</title>
<path fill="none" stroke="midnightblue" d="M80.2,-109.17C110.9,-99 154.42,-84.59 181.79,-75.52"/>
<polygon fill="midnightblue" stroke="midnightblue" points="78.72,-105.98 70.33,-112.44 80.92,-112.62 78.72,-105.98"/>
</g>
<!-- Node9 -->
<g id="node9" class="node">
<title>Node9</title>
<g id="a_node9"><a xlink:href="spec_2packet__io_8h.html" target="_top" xlink:title=" ">
<polygon fill="white" stroke="black" points="60.5,-56.5 60.5,-75.5 132.5,-75.5 132.5,-56.5 60.5,-56.5"/>
<text text-anchor="middle" x="96.5" y="-63.5" font-family="Helvetica,sans-Serif" font-size="10.00">packet_io.h</text>
</a>
</g>
</g>
<!-- Node6&#45;&gt;Node9 -->
<g id="edge8" class="edge">
<title>Node6&#45;&gt;Node9</title>
<path fill="none" stroke="midnightblue" d="M60.18,-104.72C69.34,-95.2 80.55,-83.56 88.07,-75.75"/>
<polygon fill="midnightblue" stroke="midnightblue" points="57.5,-102.45 53.09,-112.08 62.54,-107.31 57.5,-102.45"/>
</g>
<!-- Node8 -->
<g id="node8" class="node">
<title>Node8</title>
<g id="a_node8"><a xlink:href="ipsec_8h.html" target="_top" xlink:title=" ">
<polygon fill="white" stroke="black" points="182,-0.5 182,-19.5 233,-19.5 233,-0.5 182,-0.5"/>
<text text-anchor="middle" x="207.5" y="-7.5" font-family="Helvetica,sans-Serif" font-size="10.00">ipsec.h</text>
</a>
</g>
</g>
<!-- Node7&#45;&gt;Node8 -->
<g id="edge7" class="edge">
<title>Node7&#45;&gt;Node8</title>
<path fill="none" stroke="midnightblue" d="M207.5,-45.8C207.5,-36.91 207.5,-26.78 207.5,-19.75"/>
<polygon fill="midnightblue" stroke="midnightblue" points="204,-46.08 207.5,-56.08 211,-46.08 204,-46.08"/>
</g>
<!-- Node10 -->
<g id="node10" class="node">
<title>Node10</title>
<g id="a_node10"><a xlink:href="packet__io_8h.html" target="_top" xlink:title=" ">
<polygon fill="white" stroke="black" points="60.5,-0.5 60.5,-19.5 132.5,-19.5 132.5,-0.5 60.5,-0.5"/>
<text text-anchor="middle" x="96.5" y="-7.5" font-family="Helvetica,sans-Serif" font-size="10.00">packet_io.h</text>
</a>
</g>
</g>
<!-- Node9&#45;&gt;Node10 -->
<g id="edge9" class="edge">
<title>Node9&#45;&gt;Node10</title>
<path fill="none" stroke="midnightblue" d="M96.5,-45.8C96.5,-36.91 96.5,-26.78 96.5,-19.75"/>
<polygon fill="midnightblue" stroke="midnightblue" points="93,-46.08 96.5,-56.08 100,-46.08 93,-46.08"/>
</g>
<!-- Node12 -->
<g id="node12" class="node">
<title>Node12</title>
<g id="a_node12"><a xlink:href="crypto_8h.html" target="_top" xlink:title=" ">
<polygon fill="white" stroke="black" points="361.5,-112.5 361.5,-131.5 417.5,-131.5 417.5,-112.5 361.5,-112.5"/>
<text text-anchor="middle" x="389.5" y="-119.5" font-family="Helvetica,sans-Serif" font-size="10.00">crypto.h</text>
</a>
</g>
</g>
<!-- Node11&#45;&gt;Node12 -->
<g id="edge11" class="edge">
<title>Node11&#45;&gt;Node12</title>
<path fill="none" stroke="midnightblue" d="M381.53,-269.93C383.49,-233.92 387.64,-157.23 389.04,-131.57"/>
<polygon fill="midnightblue" stroke="midnightblue" points="378.03,-269.9 380.98,-280.08 385.02,-270.28 378.03,-269.9"/>
</g>
<!-- Node12&#45;&gt;Node7 -->
<g id="edge12" class="edge">
<title>Node12&#45;&gt;Node7</title>
<path fill="none" stroke="midnightblue" d="M351.47,-109.72C316,-99.19 264.05,-83.78 233.21,-74.63"/>
<polygon fill="midnightblue" stroke="midnightblue" points="350.88,-113.19 361.46,-112.68 352.87,-106.48 350.88,-113.19"/>
</g>
<!-- Node14 -->
<g id="node14" class="node">
<title>Node14</title>
<g id="a_node14"><a xlink:href="dma_8h.html" target="_top" xlink:title=" ">
<polygon fill="white" stroke="black" points="249,-224.5 249,-243.5 296,-243.5 296,-224.5 249,-224.5"/>
<text text-anchor="middle" x="272.5" y="-231.5" font-family="Helvetica,sans-Serif" font-size="10.00">dma.h</text>
</a>
</g>
</g>
<!-- Node13&#45;&gt;Node14 -->
<g id="edge14" class="edge">
<title>Node13&#45;&gt;Node14</title>
<path fill="none" stroke="midnightblue" d="M272.5,-269.8C272.5,-260.91 272.5,-250.78 272.5,-243.75"/>
<polygon fill="midnightblue" stroke="midnightblue" points="269,-270.08 272.5,-280.08 276,-270.08 269,-270.08"/>
</g>
<!-- Node16 -->
<g id="node16" class="node">
<title>Node16</title>
<g id="a_node16"><a xlink:href="packet_8h.html" target="_top" xlink:title=" ">
<polygon fill="white" stroke="black" points="285.5,-112.5 285.5,-131.5 343.5,-131.5 343.5,-112.5 285.5,-112.5"/>
<text text-anchor="middle" x="314.5" y="-119.5" font-family="Helvetica,sans-Serif" font-size="10.00">packet.h</text>
</a>
</g>
</g>
<!-- Node15&#45;&gt;Node16 -->
<g id="edge16" class="edge">
<title>Node15&#45;&gt;Node16</title>
<path fill="none" stroke="midnightblue" d="M314.5,-157.8C314.5,-148.91 314.5,-138.78 314.5,-131.75"/>
<polygon fill="midnightblue" stroke="midnightblue" points="311,-158.08 314.5,-168.08 318,-158.08 311,-158.08"/>
</g>
<!-- Node18 -->
<g id="node18" class="node">
<title>Node18</title>
<g id="a_node18"><a xlink:href="packet__io__types_8h.html" target="_top" xlink:title=" ">
<polygon fill="white" stroke="black" points="126.5,-224.5 126.5,-243.5 230.5,-243.5 230.5,-224.5 126.5,-224.5"/>
<text text-anchor="middle" x="178.5" y="-231.5" font-family="Helvetica,sans-Serif" font-size="10.00">packet_io_types.h</text>
</a>
</g>
</g>
<!-- Node17&#45;&gt;Node18 -->
<g id="edge18" class="edge">
<title>Node17&#45;&gt;Node18</title>
<path fill="none" stroke="midnightblue" d="M178.5,-269.8C178.5,-260.91 178.5,-250.78 178.5,-243.75"/>
<polygon fill="midnightblue" stroke="midnightblue" points="175,-270.08 178.5,-280.08 182,-270.08 175,-270.08"/>
</g>
<!-- Node18&#45;&gt;Node5 -->
<g id="edge19" class="edge">
<title>Node18&#45;&gt;Node5</title>
<path fill="none" stroke="midnightblue" d="M147.82,-220.64C122.68,-210.5 87.75,-196.43 65.63,-187.52"/>
<polygon fill="midnightblue" stroke="midnightblue" points="146.68,-223.95 157.27,-224.44 149.3,-217.46 146.68,-223.95"/>
</g>
<!-- Node18&#45;&gt;Node7 -->
<g id="edge20" class="edge">
<title>Node18&#45;&gt;Node7</title>
<path fill="none" stroke="midnightblue" d="M206.79,-219.38C218.89,-211.93 231.77,-201.46 238.5,-188 253.61,-157.79 248.53,-144.25 238.5,-112 234.1,-97.87 223.55,-84.25 215.98,-75.77"/>
<polygon fill="midnightblue" stroke="midnightblue" points="204.77,-216.5 197.8,-224.48 208.22,-222.59 204.77,-216.5"/>
</g>
<!-- Node18&#45;&gt;Node9 -->
<g id="edge22" class="edge">
<title>Node18&#45;&gt;Node9</title>
<path fill="none" stroke="midnightblue" d="M160.7,-217.37C152.39,-209.29 142.94,-198.87 136.5,-188 113.71,-149.55 101.98,-96.44 98.05,-75.75"/>
<polygon fill="midnightblue" stroke="midnightblue" points="158.47,-220.08 168.17,-224.33 163.24,-214.95 158.47,-220.08"/>
</g>
<!-- Node18&#45;&gt;Node15 -->
<g id="edge21" class="edge">
<title>Node18&#45;&gt;Node15</title>
<path fill="none" stroke="midnightblue" d="M209.63,-220.64C235.16,-210.5 270.61,-196.43 293.05,-187.52"/>
<polygon fill="midnightblue" stroke="midnightblue" points="208.05,-217.5 200.05,-224.44 210.64,-224.01 208.05,-217.5"/>
</g>
<!-- Node19 -->
<g id="node19" class="node">
<title>Node19</title>
<g id="a_node19"><a xlink:href="spec_2traffic__mngr_8h.html" target="_top" xlink:title=" ">
<polygon fill="white" stroke="black" points="145.5,-168.5 145.5,-187.5 229.5,-187.5 229.5,-168.5 145.5,-168.5"/>
<text text-anchor="middle" x="187.5" y="-175.5" font-family="Helvetica,sans-Serif" font-size="10.00">traffic_mngr.h</text>
</a>
</g>
</g>
<!-- Node18&#45;&gt;Node19 -->
<g id="edge23" class="edge">
<title>Node18&#45;&gt;Node19</title>
<path fill="none" stroke="midnightblue" d="M181.65,-214.1C183.14,-205.14 184.86,-194.86 186.04,-187.75"/>
<polygon fill="midnightblue" stroke="midnightblue" points="178.18,-213.64 179.99,-224.08 185.08,-214.79 178.18,-213.64"/>
</g>
<!-- Node20 -->
<g id="node20" class="node">
<title>Node20</title>
<g id="a_node20"><a xlink:href="traffic__mngr_8h.html" target="_top" xlink:title=" ">
<polygon fill="white" stroke="black" points="145.5,-112.5 145.5,-131.5 229.5,-131.5 229.5,-112.5 145.5,-112.5"/>
<text text-anchor="middle" x="187.5" y="-119.5" font-family="Helvetica,sans-Serif" font-size="10.00">traffic_mngr.h</text>
</a>
</g>
</g>
<!-- Node19&#45;&gt;Node20 -->
<g id="edge24" class="edge">
<title>Node19&#45;&gt;Node20</title>
<path fill="none" stroke="midnightblue" d="M187.5,-157.8C187.5,-148.91 187.5,-138.78 187.5,-131.75"/>
<polygon fill="midnightblue" stroke="midnightblue" points="184,-158.08 187.5,-168.08 191,-158.08 184,-158.08"/>
</g>
<!-- Node20&#45;&gt;Node7 -->
<g id="edge25" class="edge">
<title>Node20&#45;&gt;Node7</title>
<path fill="none" stroke="midnightblue" d="M194.28,-102.69C197.65,-93.59 201.57,-83.01 204.26,-75.75"/>
<polygon fill="midnightblue" stroke="midnightblue" points="190.99,-101.49 190.8,-112.08 197.56,-103.92 190.99,-101.49"/>
</g>
<!-- Node22 -->
<g id="node22" class="node">
<title>Node22</title>
<g id="a_node22"><a xlink:href="pool_8h.html" target="_top" xlink:title=" ">
<polygon fill="white" stroke="black" points="427,-224.5 427,-243.5 474,-243.5 474,-224.5 427,-224.5"/>
<text text-anchor="middle" x="450.5" y="-231.5" font-family="Helvetica,sans-Serif" font-size="10.00">pool.h</text>
</a>
</g>
</g>
<!-- Node21&#45;&gt;Node22 -->
<g id="edge27" class="edge">
<title>Node21&#45;&gt;Node22</title>
<path fill="none" stroke="midnightblue" d="M450.5,-269.8C450.5,-260.91 450.5,-250.78 450.5,-243.75"/>
<polygon fill="midnightblue" stroke="midnightblue" points="447,-270.08 450.5,-280.08 454,-270.08 447,-270.08"/>
</g>
<!-- Node23 -->
<g id="node23" class="node">
<title>Node23</title>
<g id="a_node23"><a xlink:href="packet__inlines_8h.html" target="_top" xlink:title=" ">
<polygon fill="white" stroke="black" points="409,-168.5 409,-187.5 504,-187.5 504,-168.5 409,-168.5"/>
<text text-anchor="middle" x="456.5" y="-175.5" font-family="Helvetica,sans-Serif" font-size="10.00">packet_inlines.h</text>
</a>
</g>
</g>
<!-- Node22&#45;&gt;Node23 -->
<g id="edge28" class="edge">
<title>Node22&#45;&gt;Node23</title>
<path fill="none" stroke="midnightblue" d="M452.6,-214.1C453.6,-205.14 454.74,-194.86 455.53,-187.75"/>
<polygon fill="midnightblue" stroke="midnightblue" points="449.12,-213.76 451.49,-224.08 456.07,-214.53 449.12,-213.76"/>
</g>
<!-- Node25 -->
<g id="node25" class="node">
<title>Node25</title>
<g id="a_node25"><a xlink:href="timer_8h.html" target="_top" xlink:title=" ">
<polygon fill="white" stroke="black" points="492,-224.5 492,-243.5 543,-243.5 543,-224.5 492,-224.5"/>
<text text-anchor="middle" x="517.5" y="-231.5" font-family="Helvetica,sans-Serif" font-size="10.00">timer.h</text>
</a>
</g>
</g>
<!-- Node24&#45;&gt;Node25 -->
<g id="edge30" class="edge">
<title>Node24&#45;&gt;Node25</title>
<path fill="none" stroke="midnightblue" d="M517.5,-269.8C517.5,-260.91 517.5,-250.78 517.5,-243.75"/>
<polygon fill="midnightblue" stroke="midnightblue" points="514,-270.08 517.5,-280.08 521,-270.08 514,-270.08"/>
</g>
</g>
</svg>
