<?xml version="1.0" encoding="UTF-8" standalone="no"?>
<!DOCTYPE svg PUBLIC "-//W3C//DTD SVG 1.1//EN"
 "http://www.w3.org/Graphics/SVG/1.1/DTD/svg11.dtd">
<!-- Generated by graphviz version 2.43.0 (0)
 -->
<!-- Title: deprecated.h Pages: 1 -->
<svg width="576pt" height="532pt"
 viewBox="0.00 0.00 575.50 532.00" xmlns="http://www.w3.org/2000/svg" xmlns:xlink="http://www.w3.org/1999/xlink">
<g id="graph0" class="graph" transform="scale(1 1) rotate(0) translate(4 528)">
<title>deprecated.h</title>
<polygon fill="white" stroke="transparent" points="-4,4 -4,-528 571.5,-528 571.5,4 -4,4"/>
<!-- Node1 -->
<g id="node1" class="node">
<title>Node1</title>
<g id="a_node1"><a xlink:title=" ">
<polygon fill="#bfbfbf" stroke="black" points="168.5,-504.5 168.5,-523.5 248.5,-523.5 248.5,-504.5 168.5,-504.5"/>
<text text-anchor="middle" x="208.5" y="-511.5" font-family="Helvetica,sans-Serif" font-size="10.00">deprecated.h</text>
</a>
</g>
</g>
<!-- Node2 -->
<g id="node2" class="node">
<title>Node2</title>
<g id="a_node2"><a xlink:href="deprecated_8h.html" target="_top" xlink:title=" ">
<polygon fill="white" stroke="black" points="168.5,-448.5 168.5,-467.5 248.5,-467.5 248.5,-448.5 168.5,-448.5"/>
<text text-anchor="middle" x="208.5" y="-455.5" font-family="Helvetica,sans-Serif" font-size="10.00">deprecated.h</text>
</a>
</g>
</g>
<!-- Node1&#45;&gt;Node2 -->
<g id="edge1" class="edge">
<title>Node1&#45;&gt;Node2</title>
<path fill="none" stroke="midnightblue" d="M208.5,-493.8C208.5,-484.91 208.5,-474.78 208.5,-467.75"/>
<polygon fill="midnightblue" stroke="midnightblue" points="205,-494.08 208.5,-504.08 212,-494.08 205,-494.08"/>
</g>
<!-- Node3 -->
<g id="node3" class="node">
<title>Node3</title>
<g id="a_node3"><a xlink:href="abi-default_2schedule__types_8h.html" target="_top" xlink:title=" ">
<polygon fill="white" stroke="black" points="0,-392.5 0,-411.5 101,-411.5 101,-392.5 0,-392.5"/>
<text text-anchor="middle" x="50.5" y="-399.5" font-family="Helvetica,sans-Serif" font-size="10.00">schedule_types.h</text>
</a>
</g>
</g>
<!-- Node2&#45;&gt;Node3 -->
<g id="edge2" class="edge">
<title>Node2&#45;&gt;Node3</title>
<path fill="none" stroke="midnightblue" d="M173.89,-445.17C144.14,-435 101.95,-420.59 75.42,-411.52"/>
<polygon fill="midnightblue" stroke="midnightblue" points="172.87,-448.52 183.46,-448.44 175.13,-441.9 172.87,-448.52"/>
</g>
<!-- Node4 -->
<g id="node4" class="node">
<title>Node4</title>
<g id="a_node4"><a xlink:href="spec_2crypto_8h.html" target="_top" xlink:title=" ">
<polygon fill="white" stroke="black" points="427.5,-392.5 427.5,-411.5 483.5,-411.5 483.5,-392.5 427.5,-392.5"/>
<text text-anchor="middle" x="455.5" y="-399.5" font-family="Helvetica,sans-Serif" font-size="10.00">crypto.h</text>
</a>
</g>
</g>
<!-- Node2&#45;&gt;Node4 -->
<g id="edge3" class="edge">
<title>Node2&#45;&gt;Node4</title>
<path fill="none" stroke="midnightblue" d="M257.42,-446.3C308.22,-435.2 385.94,-418.21 427.3,-409.16"/>
<polygon fill="midnightblue" stroke="midnightblue" points="256.66,-442.89 247.64,-448.44 258.15,-449.73 256.66,-442.89"/>
</g>
<!-- Node8 -->
<g id="node8" class="node">
<title>Node8</title>
<g id="a_node8"><a xlink:href="spec_2packet__io_8h.html" target="_top" xlink:title=" ">
<polygon fill="white" stroke="black" points="150.5,-56.5 150.5,-75.5 222.5,-75.5 222.5,-56.5 150.5,-56.5"/>
<text text-anchor="middle" x="186.5" y="-63.5" font-family="Helvetica,sans-Serif" font-size="10.00">packet_io.h</text>
</a>
</g>
</g>
<!-- Node2&#45;&gt;Node8 -->
<g id="edge7" class="edge">
<title>Node2&#45;&gt;Node8</title>
<path fill="none" stroke="midnightblue" d="M182.84,-443.02C170.85,-435.31 157.3,-424.71 148.5,-412 131.36,-387.26 129.5,-377.1 129.5,-347 129.5,-347 129.5,-347 129.5,-177 129.5,-135.06 162.57,-93.19 178.33,-75.62"/>
<polygon fill="midnightblue" stroke="midnightblue" points="181.24,-446.15 191.61,-448.35 184.88,-440.16 181.24,-446.15"/>
</g>
<!-- Node10 -->
<g id="node10" class="node">
<title>Node10</title>
<g id="a_node10"><a xlink:href="spec_2packet__io__stats_8h.html" target="_top" xlink:title=" ">
<polygon fill="white" stroke="black" points="158,-392.5 158,-411.5 259,-411.5 259,-392.5 158,-392.5"/>
<text text-anchor="middle" x="208.5" y="-399.5" font-family="Helvetica,sans-Serif" font-size="10.00">packet_io_stats.h</text>
</a>
</g>
</g>
<!-- Node2&#45;&gt;Node10 -->
<g id="edge9" class="edge">
<title>Node2&#45;&gt;Node10</title>
<path fill="none" stroke="midnightblue" d="M208.5,-437.8C208.5,-428.91 208.5,-418.78 208.5,-411.75"/>
<polygon fill="midnightblue" stroke="midnightblue" points="205,-438.08 208.5,-448.08 212,-438.08 205,-438.08"/>
</g>
<!-- Node12 -->
<g id="node12" class="node">
<title>Node12</title>
<g id="a_node12"><a xlink:href="spec_2packet__io__types_8h.html" target="_top" xlink:title=" ">
<polygon fill="white" stroke="black" points="235.5,-280.5 235.5,-299.5 339.5,-299.5 339.5,-280.5 235.5,-280.5"/>
<text text-anchor="middle" x="287.5" y="-287.5" font-family="Helvetica,sans-Serif" font-size="10.00">packet_io_types.h</text>
</a>
</g>
</g>
<!-- Node2&#45;&gt;Node12 -->
<g id="edge25" class="edge">
<title>Node2&#45;&gt;Node12</title>
<path fill="none" stroke="midnightblue" d="M234.64,-443.21C246.53,-435.59 259.67,-425.02 267.5,-412 289.78,-374.96 289.3,-320.58 288.15,-299.65"/>
<polygon fill="midnightblue" stroke="midnightblue" points="232.67,-440.31 225.9,-448.45 236.27,-446.31 232.67,-440.31"/>
</g>
<!-- Node5 -->
<g id="node5" class="node">
<title>Node5</title>
<g id="a_node5"><a xlink:href="crypto_8h.html" target="_top" xlink:title=" ">
<polygon fill="white" stroke="black" points="511.5,-280.5 511.5,-299.5 567.5,-299.5 567.5,-280.5 511.5,-280.5"/>
<text text-anchor="middle" x="539.5" y="-287.5" font-family="Helvetica,sans-Serif" font-size="10.00">crypto.h</text>
</a>
</g>
</g>
<!-- Node4&#45;&gt;Node5 -->
<g id="edge4" class="edge">
<title>Node4&#45;&gt;Node5</title>
<path fill="none" stroke="midnightblue" d="M468.27,-384.27C486.43,-360.49 519.04,-317.79 532.94,-299.59"/>
<polygon fill="midnightblue" stroke="midnightblue" points="465.38,-382.3 462.09,-392.37 470.94,-386.54 465.38,-382.3"/>
</g>
<!-- Node6 -->
<g id="node6" class="node">
<title>Node6</title>
<g id="a_node6"><a xlink:href="spec_2ipsec_8h.html" target="_top" xlink:title=" ">
<polygon fill="white" stroke="black" points="437,-56.5 437,-75.5 488,-75.5 488,-56.5 437,-56.5"/>
<text text-anchor="middle" x="462.5" y="-63.5" font-family="Helvetica,sans-Serif" font-size="10.00">ipsec.h</text>
</a>
</g>
</g>
<!-- Node5&#45;&gt;Node6 -->
<g id="edge5" class="edge">
<title>Node5&#45;&gt;Node6</title>
<path fill="none" stroke="midnightblue" d="M546.6,-270.93C558.69,-236.99 579.13,-162.59 548.5,-112 535.5,-90.52 508.5,-78.8 488.2,-72.76"/>
<polygon fill="midnightblue" stroke="midnightblue" points="543.27,-269.85 543.05,-280.44 549.83,-272.3 543.27,-269.85"/>
</g>
<!-- Node7 -->
<g id="node7" class="node">
<title>Node7</title>
<g id="a_node7"><a xlink:href="ipsec_8h.html" target="_top" xlink:title=" ">
<polygon fill="white" stroke="black" points="437,-0.5 437,-19.5 488,-19.5 488,-0.5 437,-0.5"/>
<text text-anchor="middle" x="462.5" y="-7.5" font-family="Helvetica,sans-Serif" font-size="10.00">ipsec.h</text>
</a>
</g>
</g>
<!-- Node6&#45;&gt;Node7 -->
<g id="edge6" class="edge">
<title>Node6&#45;&gt;Node7</title>
<path fill="none" stroke="midnightblue" d="M462.5,-45.8C462.5,-36.91 462.5,-26.78 462.5,-19.75"/>
<polygon fill="midnightblue" stroke="midnightblue" points="459,-46.08 462.5,-56.08 466,-46.08 459,-46.08"/>
</g>
<!-- Node9 -->
<g id="node9" class="node">
<title>Node9</title>
<g id="a_node9"><a xlink:href="packet__io_8h.html" target="_top" xlink:title=" ">
<polygon fill="white" stroke="black" points="150.5,-0.5 150.5,-19.5 222.5,-19.5 222.5,-0.5 150.5,-0.5"/>
<text text-anchor="middle" x="186.5" y="-7.5" font-family="Helvetica,sans-Serif" font-size="10.00">packet_io.h</text>
</a>
</g>
</g>
<!-- Node8&#45;&gt;Node9 -->
<g id="edge8" class="edge">
<title>Node8&#45;&gt;Node9</title>
<path fill="none" stroke="midnightblue" d="M186.5,-45.8C186.5,-36.91 186.5,-26.78 186.5,-19.75"/>
<polygon fill="midnightblue" stroke="midnightblue" points="183,-46.08 186.5,-56.08 190,-46.08 183,-46.08"/>
</g>
<!-- Node11 -->
<g id="node11" class="node">
<title>Node11</title>
<g id="a_node11"><a xlink:href="packet__io__stats_8h.html" target="_top" xlink:title=" ">
<polygon fill="white" stroke="black" points="158,-336.5 158,-355.5 259,-355.5 259,-336.5 158,-336.5"/>
<text text-anchor="middle" x="208.5" y="-343.5" font-family="Helvetica,sans-Serif" font-size="10.00">packet_io_stats.h</text>
</a>
</g>
</g>
<!-- Node10&#45;&gt;Node11 -->
<g id="edge10" class="edge">
<title>Node10&#45;&gt;Node11</title>
<path fill="none" stroke="midnightblue" d="M208.5,-381.8C208.5,-372.91 208.5,-362.78 208.5,-355.75"/>
<polygon fill="midnightblue" stroke="midnightblue" points="205,-382.08 208.5,-392.08 212,-382.08 205,-382.08"/>
</g>
<!-- Node11&#45;&gt;Node8 -->
<g id="edge11" class="edge">
<title>Node11&#45;&gt;Node8</title>
<path fill="none" stroke="midnightblue" d="M197.56,-327.53C185.41,-306.44 167.5,-269.48 167.5,-235 167.5,-235 167.5,-235 167.5,-177 167.5,-138.82 178.75,-94.26 183.94,-75.75"/>
<polygon fill="midnightblue" stroke="midnightblue" points="194.66,-329.51 202.8,-336.29 200.66,-325.91 194.66,-329.51"/>
</g>
<!-- Node11&#45;&gt;Node12 -->
<g id="edge12" class="edge">
<title>Node11&#45;&gt;Node12</title>
<path fill="none" stroke="midnightblue" d="M229.53,-330.62C243.97,-320.76 262.64,-307.99 274.84,-299.65"/>
<polygon fill="midnightblue" stroke="midnightblue" points="227.47,-327.79 221.19,-336.32 231.42,-333.57 227.47,-327.79"/>
</g>
<!-- Node13 -->
<g id="node13" class="node">
<title>Node13</title>
<g id="a_node13"><a xlink:href="packet__io__types_8h.html" target="_top" xlink:title=" ">
<polygon fill="white" stroke="black" points="268.5,-224.5 268.5,-243.5 372.5,-243.5 372.5,-224.5 268.5,-224.5"/>
<text text-anchor="middle" x="320.5" y="-231.5" font-family="Helvetica,sans-Serif" font-size="10.00">packet_io_types.h</text>
</a>
</g>
</g>
<!-- Node12&#45;&gt;Node13 -->
<g id="edge13" class="edge">
<title>Node12&#45;&gt;Node13</title>
<path fill="none" stroke="midnightblue" d="M298.33,-271.27C303.97,-262.05 310.62,-251.17 315.15,-243.75"/>
<polygon fill="midnightblue" stroke="midnightblue" points="295.18,-269.73 292.95,-280.08 301.15,-273.38 295.18,-269.73"/>
</g>
<!-- Node13&#45;&gt;Node6 -->
<g id="edge18" class="edge">
<title>Node13&#45;&gt;Node6</title>
<path fill="none" stroke="midnightblue" d="M357.09,-220.52C374.16,-213.22 393.69,-202.53 407.5,-188 424.19,-170.44 450.51,-100.27 459.43,-75.62"/>
<polygon fill="midnightblue" stroke="midnightblue" points="355.36,-217.45 347.4,-224.44 357.98,-223.94 355.36,-217.45"/>
</g>
<!-- Node13&#45;&gt;Node8 -->
<g id="edge21" class="edge">
<title>Node13&#45;&gt;Node8</title>
<path fill="none" stroke="midnightblue" d="M276.37,-221.02C258.1,-214.05 238.06,-203.51 224.5,-188 194.94,-154.18 188.36,-97.43 186.91,-75.76"/>
<polygon fill="midnightblue" stroke="midnightblue" points="275.41,-224.39 286,-224.43 277.75,-217.79 275.41,-224.39"/>
</g>
<!-- Node14 -->
<g id="node14" class="node">
<title>Node14</title>
<g id="a_node14"><a xlink:href="spec_2classification_8h.html" target="_top" xlink:title=" ">
<polygon fill="white" stroke="black" points="310,-168.5 310,-187.5 399,-187.5 399,-168.5 310,-168.5"/>
<text text-anchor="middle" x="354.5" y="-175.5" font-family="Helvetica,sans-Serif" font-size="10.00">classification.h</text>
</a>
</g>
</g>
<!-- Node13&#45;&gt;Node14 -->
<g id="edge14" class="edge">
<title>Node13&#45;&gt;Node14</title>
<path fill="none" stroke="midnightblue" d="M331.48,-215.57C337.33,-206.27 344.27,-195.25 348.99,-187.75"/>
<polygon fill="midnightblue" stroke="midnightblue" points="328.48,-213.76 326.11,-224.08 334.4,-217.49 328.48,-213.76"/>
</g>
<!-- Node16 -->
<g id="node16" class="node">
<title>Node16</title>
<g id="a_node16"><a xlink:href="spec_2packet_8h.html" target="_top" xlink:title=" ">
<polygon fill="white" stroke="black" points="233.5,-168.5 233.5,-187.5 291.5,-187.5 291.5,-168.5 233.5,-168.5"/>
<text text-anchor="middle" x="262.5" y="-175.5" font-family="Helvetica,sans-Serif" font-size="10.00">packet.h</text>
</a>
</g>
</g>
<!-- Node13&#45;&gt;Node16 -->
<g id="edge19" class="edge">
<title>Node13&#45;&gt;Node16</title>
<path fill="none" stroke="midnightblue" d="M303.59,-217.25C293.3,-207.67 280.53,-195.79 271.99,-187.83"/>
<polygon fill="midnightblue" stroke="midnightblue" points="301.48,-220.07 311.18,-224.32 306.25,-214.95 301.48,-220.07"/>
</g>
<!-- Node18 -->
<g id="node18" class="node">
<title>Node18</title>
<g id="a_node18"><a xlink:href="spec_2traffic__mngr_8h.html" target="_top" xlink:title=" ">
<polygon fill="white" stroke="black" points="455.5,-168.5 455.5,-187.5 539.5,-187.5 539.5,-168.5 455.5,-168.5"/>
<text text-anchor="middle" x="497.5" y="-175.5" font-family="Helvetica,sans-Serif" font-size="10.00">traffic_mngr.h</text>
</a>
</g>
</g>
<!-- Node13&#45;&gt;Node18 -->
<g id="edge22" class="edge">
<title>Node13&#45;&gt;Node18</title>
<path fill="none" stroke="midnightblue" d="M358.4,-221.44C391.78,-211.26 439.6,-196.66 469.59,-187.52"/>
<polygon fill="midnightblue" stroke="midnightblue" points="357.09,-218.18 348.55,-224.44 359.13,-224.87 357.09,-218.18"/>
</g>
<!-- Node15 -->
<g id="node15" class="node">
<title>Node15</title>
<g id="a_node15"><a xlink:href="classification_8h.html" target="_top" xlink:title=" ">
<polygon fill="white" stroke="black" points="310,-112.5 310,-131.5 399,-131.5 399,-112.5 310,-112.5"/>
<text text-anchor="middle" x="354.5" y="-119.5" font-family="Helvetica,sans-Serif" font-size="10.00">classification.h</text>
</a>
</g>
</g>
<!-- Node14&#45;&gt;Node15 -->
<g id="edge15" class="edge">
<title>Node14&#45;&gt;Node15</title>
<path fill="none" stroke="midnightblue" d="M354.5,-157.8C354.5,-148.91 354.5,-138.78 354.5,-131.75"/>
<polygon fill="midnightblue" stroke="midnightblue" points="351,-158.08 354.5,-168.08 358,-158.08 351,-158.08"/>
</g>
<!-- Node15&#45;&gt;Node6 -->
<g id="edge16" class="edge">
<title>Node15&#45;&gt;Node6</title>
<path fill="none" stroke="midnightblue" d="M381.05,-107.73C401.05,-97.73 427.89,-84.31 445.19,-75.65"/>
<polygon fill="midnightblue" stroke="midnightblue" points="379.23,-104.72 371.85,-112.32 382.36,-110.98 379.23,-104.72"/>
</g>
<!-- Node15&#45;&gt;Node8 -->
<g id="edge17" class="edge">
<title>Node15&#45;&gt;Node8</title>
<path fill="none" stroke="midnightblue" d="M318.11,-109.3C286.46,-99.13 241.33,-84.62 213,-75.52"/>
<polygon fill="midnightblue" stroke="midnightblue" points="317.29,-112.72 327.88,-112.44 319.43,-106.05 317.29,-112.72"/>
</g>
<!-- Node17 -->
<g id="node17" class="node">
<title>Node17</title>
<g id="a_node17"><a xlink:href="packet_8h.html" target="_top" xlink:title=" ">
<polygon fill="white" stroke="black" points="233.5,-112.5 233.5,-131.5 291.5,-131.5 291.5,-112.5 233.5,-112.5"/>
<text text-anchor="middle" x="262.5" y="-119.5" font-family="Helvetica,sans-Serif" font-size="10.00">packet.h</text>
</a>
</g>
</g>
<!-- Node16&#45;&gt;Node17 -->
<g id="edge20" class="edge">
<title>Node16&#45;&gt;Node17</title>
<path fill="none" stroke="midnightblue" d="M262.5,-157.8C262.5,-148.91 262.5,-138.78 262.5,-131.75"/>
<polygon fill="midnightblue" stroke="midnightblue" points="259,-158.08 262.5,-168.08 266,-158.08 259,-158.08"/>
</g>
<!-- Node19 -->
<g id="node19" class="node">
<title>Node19</title>
<g id="a_node19"><a xlink:href="traffic__mngr_8h.html" target="_top" xlink:title=" ">
<polygon fill="white" stroke="black" points="455.5,-112.5 455.5,-131.5 539.5,-131.5 539.5,-112.5 455.5,-112.5"/>
<text text-anchor="middle" x="497.5" y="-119.5" font-family="Helvetica,sans-Serif" font-size="10.00">traffic_mngr.h</text>
</a>
</g>
</g>
<!-- Node18&#45;&gt;Node19 -->
<g id="edge23" class="edge">
<title>Node18&#45;&gt;Node19</title>
<path fill="none" stroke="midnightblue" d="M497.5,-157.8C497.5,-148.91 497.5,-138.78 497.5,-131.75"/>
<polygon fill="midnightblue" stroke="midnightblue" points="494,-158.08 497.5,-168.08 501,-158.08 494,-158.08"/>
</g>
<!-- Node19&#45;&gt;Node6 -->
<g id="edge24" class="edge">
<title>Node19&#45;&gt;Node6</title>
<path fill="none" stroke="midnightblue" d="M486.2,-103.57C480.18,-94.27 473.03,-83.25 468.17,-75.75"/>
<polygon fill="midnightblue" stroke="midnightblue" points="483.34,-105.6 491.72,-112.08 489.22,-101.79 483.34,-105.6"/>
</g>
</g>
</svg>
