<?xml version="1.0" encoding="UTF-8" standalone="no"?>
<!DOCTYPE svg PUBLIC "-//W3C//DTD SVG 1.1//EN"
 "http://www.w3.org/Graphics/SVG/1.1/DTD/svg11.dtd">
<!-- Generated by graphviz version 2.43.0 (0)
 -->
<!-- Title: packet_io_stats.h Pages: 1 -->
<svg width="697pt" height="554pt"
 viewBox="0.00 0.00 696.84 554.00" xmlns="http://www.w3.org/2000/svg" xmlns:xlink="http://www.w3.org/1999/xlink">
<g id="graph0" class="graph" transform="scale(1 1) rotate(0) translate(4 550)">
<title>packet_io_stats.h</title>
<polygon fill="white" stroke="transparent" points="-4,4 -4,-550 692.84,-550 692.84,4 -4,4"/>
<!-- Node1 -->
<g id="node1" class="node">
<title>Node1</title>
<g id="a_node1"><a xlink:title=" ">
<polygon fill="#bfbfbf" stroke="black" points="108.34,-526.5 108.34,-545.5 209.34,-545.5 209.34,-526.5 108.34,-526.5"/>
<text text-anchor="middle" x="158.84" y="-533.5" font-family="Helvetica,sans-Serif" font-size="10.00">packet_io_stats.h</text>
</a>
</g>
</g>
<!-- Node2 -->
<g id="node2" class="node">
<title>Node2</title>
<g id="a_node2"><a xlink:title=" ">
<polygon fill="white" stroke="#bfbfbf" points="67.34,-0.5 67.34,-19.5 188.34,-19.5 188.34,-0.5 67.34,-0.5"/>
<text text-anchor="middle" x="127.84" y="-7.5" font-family="Helvetica,sans-Serif" font-size="10.00">odp/visibility_begin.h</text>
</a>
</g>
</g>
<!-- Node1&#45;&gt;Node2 -->
<g id="edge1" class="edge">
<title>Node1&#45;&gt;Node2</title>
<path fill="none" stroke="midnightblue" d="M108.17,-530.51C78.61,-525.29 42.75,-514.07 19.84,-490 -2.53,-466.49 0.84,-451.95 0.84,-419.5 0.84,-419.5 0.84,-419.5 0.84,-121 0.84,-71.87 55.83,-39.77 93.44,-23.56"/>
<polygon fill="midnightblue" stroke="midnightblue" points="95.14,-26.64 103.05,-19.59 92.47,-20.17 95.14,-26.64"/>
</g>
<!-- Node3 -->
<g id="node3" class="node">
<title>Node3</title>
<g id="a_node3"><a xlink:href="deprecated_8h.html" target="_top" xlink:title=" ">
<polygon fill="white" stroke="black" points="29.34,-470.5 29.34,-489.5 148.34,-489.5 148.34,-470.5 29.34,-470.5"/>
<text text-anchor="middle" x="88.84" y="-477.5" font-family="Helvetica,sans-Serif" font-size="10.00">odp/api/deprecated.h</text>
</a>
</g>
</g>
<!-- Node1&#45;&gt;Node3 -->
<g id="edge2" class="edge">
<title>Node1&#45;&gt;Node3</title>
<path fill="none" stroke="midnightblue" d="M147.6,-526.32C137.04,-518.18 121.04,-505.84 108.4,-496.09"/>
<polygon fill="midnightblue" stroke="midnightblue" points="110.35,-493.17 100.29,-489.83 106.07,-498.71 110.35,-493.17"/>
</g>
<!-- Node5 -->
<g id="node5" class="node">
<title>Node5</title>
<g id="a_node5"><a xlink:title=" ">
<polygon fill="white" stroke="#bfbfbf" points="537.84,-0.5 537.84,-19.5 649.84,-19.5 649.84,-0.5 537.84,-0.5"/>
<text text-anchor="middle" x="593.84" y="-7.5" font-family="Helvetica,sans-Serif" font-size="10.00">odp/visibility_end.h</text>
</a>
</g>
</g>
<!-- Node1&#45;&gt;Node5 -->
<g id="edge27" class="edge">
<title>Node1&#45;&gt;Node5</title>
<path fill="none" stroke="midnightblue" d="M209.66,-534.64C342.32,-532.33 688.84,-516.97 688.84,-419.5 688.84,-419.5 688.84,-419.5 688.84,-121 688.84,-77.74 646.23,-43.09 618.09,-24.91"/>
<polygon fill="midnightblue" stroke="midnightblue" points="619.87,-21.9 609.53,-19.6 616.18,-27.85 619.87,-21.9"/>
</g>
<!-- Node6 -->
<g id="node6" class="node">
<title>Node6</title>
<g id="a_node6"><a xlink:href="queue__types_8h.html" target="_top" xlink:title=" ">
<polygon fill="white" stroke="black" points="166.34,-470.5 166.34,-489.5 293.34,-489.5 293.34,-470.5 166.34,-470.5"/>
<text text-anchor="middle" x="229.84" y="-477.5" font-family="Helvetica,sans-Serif" font-size="10.00">odp/api/queue_types.h</text>
</a>
</g>
</g>
<!-- Node1&#45;&gt;Node6 -->
<g id="edge6" class="edge">
<title>Node1&#45;&gt;Node6</title>
<path fill="none" stroke="midnightblue" d="M170.25,-526.32C180.95,-518.18 197.18,-505.84 210,-496.09"/>
<polygon fill="midnightblue" stroke="midnightblue" points="212.39,-498.67 218.23,-489.83 208.15,-493.1 212.39,-498.67"/>
</g>
<!-- Node4 -->
<g id="node4" class="node">
<title>Node4</title>
<g id="a_node4"><a xlink:href="spec_2deprecated_8h.html" target="_top" xlink:title=" ">
<polygon fill="white" stroke="black" points="105.34,-56.5 105.34,-75.5 250.34,-75.5 250.34,-56.5 105.34,-56.5"/>
<text text-anchor="middle" x="177.84" y="-63.5" font-family="Helvetica,sans-Serif" font-size="10.00">odp/api/spec/deprecated.h</text>
</a>
</g>
</g>
<!-- Node3&#45;&gt;Node4 -->
<g id="edge3" class="edge">
<title>Node3&#45;&gt;Node4</title>
<path fill="none" stroke="midnightblue" d="M87.37,-470.22C84.17,-450.32 76.84,-400.22 76.84,-358 76.84,-358 76.84,-358 76.84,-233 76.84,-169.48 131.48,-109.59 160.39,-82.36"/>
<polygon fill="midnightblue" stroke="midnightblue" points="162.79,-84.91 167.79,-75.57 158.05,-79.75 162.79,-84.91"/>
</g>
<!-- Node4&#45;&gt;Node2 -->
<g id="edge4" class="edge">
<title>Node4&#45;&gt;Node2</title>
<path fill="none" stroke="midnightblue" d="M169.59,-56.08C162.38,-48.3 151.73,-36.8 143,-27.37"/>
<polygon fill="midnightblue" stroke="midnightblue" points="145.31,-24.71 135.94,-19.75 140.17,-29.47 145.31,-24.71"/>
</g>
<!-- Node4&#45;&gt;Node5 -->
<g id="edge5" class="edge">
<title>Node4&#45;&gt;Node5</title>
<path fill="none" stroke="midnightblue" d="M243.76,-56.44C321.38,-46.37 449.56,-29.73 527.4,-19.62"/>
<polygon fill="midnightblue" stroke="midnightblue" points="528.11,-23.06 537.57,-18.3 527.21,-16.12 528.11,-23.06"/>
</g>
<!-- Node7 -->
<g id="node7" class="node">
<title>Node7</title>
<g id="a_node7"><a xlink:title=" ">
<polygon fill="white" stroke="#bfbfbf" points="131.34,-409 131.34,-428 276.34,-428 276.34,-409 131.34,-409"/>
<text text-anchor="middle" x="203.84" y="-416" font-family="Helvetica,sans-Serif" font-size="10.00">odp/api/abi/queue_types.h</text>
</a>
</g>
</g>
<!-- Node6&#45;&gt;Node7 -->
<g id="edge7" class="edge">
<title>Node6&#45;&gt;Node7</title>
<path fill="none" stroke="midnightblue" d="M226.12,-470.48C222.37,-461.9 216.48,-448.43 211.7,-437.48"/>
<polygon fill="midnightblue" stroke="midnightblue" points="214.77,-435.77 207.56,-428.01 208.36,-438.57 214.77,-435.77"/>
</g>
<!-- Node8 -->
<g id="node8" class="node">
<title>Node8</title>
<g id="a_node8"><a xlink:href="spec_2queue__types_8h.html" target="_top" xlink:title=" ">
<polygon fill="white" stroke="black" points="294.34,-403.5 294.34,-433.5 405.34,-433.5 405.34,-403.5 294.34,-403.5"/>
<text text-anchor="start" x="302.34" y="-421.5" font-family="Helvetica,sans-Serif" font-size="10.00">odp/api/spec/queue</text>
<text text-anchor="middle" x="349.84" y="-410.5" font-family="Helvetica,sans-Serif" font-size="10.00">_types.h</text>
</a>
</g>
</g>
<!-- Node6&#45;&gt;Node8 -->
<g id="edge8" class="edge">
<title>Node6&#45;&gt;Node8</title>
<path fill="none" stroke="midnightblue" d="M247.03,-470.48C264.05,-462.04 290.64,-448.86 312.51,-438.01"/>
<polygon fill="midnightblue" stroke="midnightblue" points="314.16,-441.1 321.56,-433.52 311.05,-434.83 314.16,-441.1"/>
</g>
<!-- Node8&#45;&gt;Node2 -->
<g id="edge9" class="edge">
<title>Node8&#45;&gt;Node2</title>
<path fill="none" stroke="midnightblue" d="M297.08,-403.47C208.36,-376.31 38.84,-307.6 38.84,-179 38.84,-179 38.84,-179 38.84,-121 38.84,-78.85 78.83,-43.78 105.2,-25.24"/>
<polygon fill="midnightblue" stroke="midnightblue" points="107.22,-28.1 113.54,-19.6 103.3,-22.3 107.22,-28.1"/>
</g>
<!-- Node8&#45;&gt;Node5 -->
<g id="edge26" class="edge">
<title>Node8&#45;&gt;Node5</title>
<path fill="none" stroke="midnightblue" d="M405.4,-406.98C492.37,-388.91 650.84,-348.81 650.84,-296.5 650.84,-296.5 650.84,-296.5 650.84,-121 650.84,-84.3 625.52,-47.66 608.63,-27.3"/>
<polygon fill="midnightblue" stroke="midnightblue" points="611.19,-24.9 602.01,-19.62 605.89,-29.48 611.19,-24.9"/>
</g>
<!-- Node9 -->
<g id="node9" class="node">
<title>Node9</title>
<g id="a_node9"><a xlink:href="schedule__types_8h.html" target="_top" xlink:title=" ">
<polygon fill="white" stroke="black" points="279.84,-347.5 279.84,-366.5 419.84,-366.5 419.84,-347.5 279.84,-347.5"/>
<text text-anchor="middle" x="349.84" y="-354.5" font-family="Helvetica,sans-Serif" font-size="10.00">odp/api/schedule_types.h</text>
</a>
</g>
</g>
<!-- Node8&#45;&gt;Node9 -->
<g id="edge10" class="edge">
<title>Node8&#45;&gt;Node9</title>
<path fill="none" stroke="midnightblue" d="M349.84,-403.4C349.84,-395.47 349.84,-385.46 349.84,-376.86"/>
<polygon fill="midnightblue" stroke="midnightblue" points="353.34,-376.66 349.84,-366.66 346.34,-376.66 353.34,-376.66"/>
</g>
<!-- Node10 -->
<g id="node10" class="node">
<title>Node10</title>
<g id="a_node10"><a xlink:title=" ">
<polygon fill="white" stroke="#bfbfbf" points="231.34,-280.5 231.34,-310.5 348.34,-310.5 348.34,-280.5 231.34,-280.5"/>
<text text-anchor="start" x="239.34" y="-298.5" font-family="Helvetica,sans-Serif" font-size="10.00">odp/api/abi/schedule</text>
<text text-anchor="middle" x="289.84" y="-287.5" font-family="Helvetica,sans-Serif" font-size="10.00">_types.h</text>
</a>
</g>
</g>
<!-- Node9&#45;&gt;Node10 -->
<g id="edge11" class="edge">
<title>Node9&#45;&gt;Node10</title>
<path fill="none" stroke="midnightblue" d="M341.25,-347.48C333.42,-339.72 321.55,-327.94 311.18,-317.66"/>
<polygon fill="midnightblue" stroke="midnightblue" points="313.55,-315.08 303.98,-310.52 308.62,-320.05 313.55,-315.08"/>
</g>
<!-- Node11 -->
<g id="node11" class="node">
<title>Node11</title>
<g id="a_node11"><a xlink:href="spec_2schedule__types_8h.html" target="_top" xlink:title=" ">
<polygon fill="white" stroke="black" points="366.34,-280.5 366.34,-310.5 491.34,-310.5 491.34,-280.5 366.34,-280.5"/>
<text text-anchor="start" x="374.34" y="-298.5" font-family="Helvetica,sans-Serif" font-size="10.00">odp/api/spec/schedule</text>
<text text-anchor="middle" x="428.84" y="-287.5" font-family="Helvetica,sans-Serif" font-size="10.00">_types.h</text>
</a>
</g>
</g>
<!-- Node9&#45;&gt;Node11 -->
<g id="edge12" class="edge">
<title>Node9&#45;&gt;Node11</title>
<path fill="none" stroke="midnightblue" d="M361.16,-347.48C371.76,-339.49 388.01,-327.25 401.93,-316.77"/>
<polygon fill="midnightblue" stroke="midnightblue" points="404.34,-319.33 410.22,-310.52 400.13,-313.74 404.34,-319.33"/>
</g>
<!-- Node11&#45;&gt;Node2 -->
<g id="edge13" class="edge">
<title>Node11&#45;&gt;Node2</title>
<path fill="none" stroke="midnightblue" d="M383.44,-280.4C307.79,-254.16 158.23,-189.89 96.84,-76 88,-59.59 99.96,-40.26 111.5,-26.96"/>
<polygon fill="midnightblue" stroke="midnightblue" points="114.17,-29.24 118.44,-19.55 109.06,-24.46 114.17,-29.24"/>
</g>
<!-- Node11&#45;&gt;Node5 -->
<g id="edge25" class="edge">
<title>Node11&#45;&gt;Node5</title>
<path fill="none" stroke="midnightblue" d="M491.39,-282.26C544.73,-267.76 612.84,-237.74 612.84,-179 612.84,-179 612.84,-179 612.84,-121 612.84,-88.49 604.68,-51.35 599.06,-29.61"/>
<polygon fill="midnightblue" stroke="midnightblue" points="602.38,-28.5 596.4,-19.75 595.62,-30.32 602.38,-28.5"/>
</g>
<!-- Node12 -->
<g id="node12" class="node">
<title>Node12</title>
<g id="a_node12"><a xlink:href="std__types_8h.html" target="_top" xlink:title=" ">
<polygon fill="white" stroke="black" points="372.84,-224.5 372.84,-243.5 484.84,-243.5 484.84,-224.5 372.84,-224.5"/>
<text text-anchor="middle" x="428.84" y="-231.5" font-family="Helvetica,sans-Serif" font-size="10.00">odp/api/std_types.h</text>
</a>
</g>
</g>
<!-- Node11&#45;&gt;Node12 -->
<g id="edge14" class="edge">
<title>Node11&#45;&gt;Node12</title>
<path fill="none" stroke="midnightblue" d="M428.84,-280.4C428.84,-272.47 428.84,-262.46 428.84,-253.86"/>
<polygon fill="midnightblue" stroke="midnightblue" points="432.34,-253.66 428.84,-243.66 425.34,-253.66 432.34,-253.66"/>
</g>
<!-- Node13 -->
<g id="node13" class="node">
<title>Node13</title>
<g id="a_node13"><a xlink:title=" ">
<polygon fill="white" stroke="#bfbfbf" points="452.84,-168.5 452.84,-187.5 582.84,-187.5 582.84,-168.5 452.84,-168.5"/>
<text text-anchor="middle" x="517.84" y="-175.5" font-family="Helvetica,sans-Serif" font-size="10.00">odp/api/abi/std_types.h</text>
</a>
</g>
</g>
<!-- Node12&#45;&gt;Node13 -->
<g id="edge15" class="edge">
<title>Node12&#45;&gt;Node13</title>
<path fill="none" stroke="midnightblue" d="M443.14,-224.32C457.02,-215.9 478.33,-202.97 494.65,-193.07"/>
<polygon fill="midnightblue" stroke="midnightblue" points="496.84,-195.83 503.58,-187.65 493.21,-189.85 496.84,-195.83"/>
</g>
<!-- Node14 -->
<g id="node14" class="node">
<title>Node14</title>
<g id="a_node14"><a xlink:href="spec_2std__types_8h.html" target="_top" xlink:title=" ">
<polygon fill="white" stroke="black" points="297.34,-168.5 297.34,-187.5 434.34,-187.5 434.34,-168.5 297.34,-168.5"/>
<text text-anchor="middle" x="365.84" y="-175.5" font-family="Helvetica,sans-Serif" font-size="10.00">odp/api/spec/std_types.h</text>
</a>
</g>
</g>
<!-- Node12&#45;&gt;Node14 -->
<g id="edge16" class="edge">
<title>Node12&#45;&gt;Node14</title>
<path fill="none" stroke="midnightblue" d="M418.72,-224.32C409.32,-216.26 395.1,-204.08 383.77,-194.37"/>
<polygon fill="midnightblue" stroke="midnightblue" points="386.02,-191.68 376.15,-187.83 381.46,-197 386.02,-191.68"/>
</g>
<!-- Node14&#45;&gt;Node2 -->
<g id="edge17" class="edge">
<title>Node14&#45;&gt;Node2</title>
<path fill="none" stroke="midnightblue" d="M353.42,-168.21C341.9,-159.71 324.65,-146.08 311.84,-132 284.3,-101.72 292.43,-80.76 259.84,-56 238.24,-39.59 210.25,-28.92 185.62,-22.12"/>
<polygon fill="midnightblue" stroke="midnightblue" points="186.21,-18.65 175.65,-19.52 184.44,-25.43 186.21,-18.65"/>
</g>
<!-- Node14&#45;&gt;Node5 -->
<g id="edge24" class="edge">
<title>Node14&#45;&gt;Node5</title>
<path fill="none" stroke="midnightblue" d="M399.1,-168.43C424.91,-160.98 461.02,-148.73 489.84,-132 523.11,-112.69 531.11,-105.47 555.84,-76 568.03,-61.48 578.6,-42.55 585.48,-28.87"/>
<polygon fill="midnightblue" stroke="midnightblue" points="588.77,-30.11 589.99,-19.59 582.47,-27.05 588.77,-30.11"/>
</g>
<!-- Node15 -->
<g id="node15" class="node">
<title>Node15</title>
<g id="a_node15"><a xlink:title=" ">
<polygon fill="white" stroke="#bfbfbf" points="427.34,-112.5 427.34,-131.5 480.34,-131.5 480.34,-112.5 427.34,-112.5"/>
<text text-anchor="middle" x="453.84" y="-119.5" font-family="Helvetica,sans-Serif" font-size="10.00">stdint.h</text>
</a>
</g>
</g>
<!-- Node14&#45;&gt;Node15 -->
<g id="edge18" class="edge">
<title>Node14&#45;&gt;Node15</title>
<path fill="none" stroke="midnightblue" d="M379.98,-168.32C393.71,-159.9 414.78,-146.97 430.91,-137.07"/>
<polygon fill="midnightblue" stroke="midnightblue" points="433.05,-139.87 439.74,-131.65 429.38,-133.9 433.05,-139.87"/>
</g>
<!-- Node16 -->
<g id="node16" class="node">
<title>Node16</title>
<g id="a_node16"><a xlink:href="align_8h.html" target="_top" xlink:title=" ">
<polygon fill="white" stroke="black" points="320.34,-112.5 320.34,-131.5 409.34,-131.5 409.34,-112.5 320.34,-112.5"/>
<text text-anchor="middle" x="364.84" y="-119.5" font-family="Helvetica,sans-Serif" font-size="10.00">odp/api/align.h</text>
</a>
</g>
</g>
<!-- Node14&#45;&gt;Node16 -->
<g id="edge19" class="edge">
<title>Node14&#45;&gt;Node16</title>
<path fill="none" stroke="midnightblue" d="M365.68,-168.08C365.55,-161.01 365.36,-150.86 365.19,-141.99"/>
<polygon fill="midnightblue" stroke="midnightblue" points="368.69,-141.68 365,-131.75 361.69,-141.81 368.69,-141.68"/>
</g>
<!-- Node17 -->
<g id="node17" class="node">
<title>Node17</title>
<g id="a_node17"><a xlink:title=" ">
<polygon fill="white" stroke="#bfbfbf" points="439.34,-56.5 439.34,-75.5 546.34,-75.5 546.34,-56.5 439.34,-56.5"/>
<text text-anchor="middle" x="492.84" y="-63.5" font-family="Helvetica,sans-Serif" font-size="10.00">odp/api/abi/align.h</text>
</a>
</g>
</g>
<!-- Node16&#45;&gt;Node17 -->
<g id="edge20" class="edge">
<title>Node16&#45;&gt;Node17</title>
<path fill="none" stroke="midnightblue" d="M385.12,-112.44C406.19,-103.56 439.36,-89.56 463.33,-79.45"/>
<polygon fill="midnightblue" stroke="midnightblue" points="464.8,-82.63 472.65,-75.52 462.08,-76.18 464.8,-82.63"/>
</g>
<!-- Node18 -->
<g id="node18" class="node">
<title>Node18</title>
<g id="a_node18"><a xlink:href="spec_2align_8h.html" target="_top" xlink:title=" ">
<polygon fill="white" stroke="black" points="306.84,-56.5 306.84,-75.5 420.84,-75.5 420.84,-56.5 306.84,-56.5"/>
<text text-anchor="middle" x="363.84" y="-63.5" font-family="Helvetica,sans-Serif" font-size="10.00">odp/api/spec/align.h</text>
</a>
</g>
</g>
<!-- Node16&#45;&gt;Node18 -->
<g id="edge21" class="edge">
<title>Node16&#45;&gt;Node18</title>
<path fill="none" stroke="midnightblue" d="M364.68,-112.08C364.55,-105.01 364.36,-94.86 364.19,-85.99"/>
<polygon fill="midnightblue" stroke="midnightblue" points="367.69,-85.68 364,-75.75 360.69,-85.81 367.69,-85.68"/>
</g>
<!-- Node18&#45;&gt;Node2 -->
<g id="edge22" class="edge">
<title>Node18&#45;&gt;Node2</title>
<path fill="none" stroke="midnightblue" d="M326.45,-56.44C285.45,-47.06 219.59,-31.99 175.06,-21.8"/>
<polygon fill="midnightblue" stroke="midnightblue" points="175.59,-18.34 165.06,-19.52 174.03,-25.16 175.59,-18.34"/>
</g>
<!-- Node18&#45;&gt;Node5 -->
<g id="edge23" class="edge">
<title>Node18&#45;&gt;Node5</title>
<path fill="none" stroke="midnightblue" d="M400.29,-56.44C440.24,-47.06 504.43,-31.99 547.83,-21.8"/>
<polygon fill="midnightblue" stroke="midnightblue" points="548.63,-25.21 557.57,-19.52 547.03,-18.39 548.63,-25.21"/>
</g>
</g>
</svg>
