<?xml version="1.0" encoding="UTF-8" standalone="no"?>
<!DOCTYPE svg PUBLIC "-//W3C//DTD SVG 1.1//EN"
 "http://www.w3.org/Graphics/SVG/1.1/DTD/svg11.dtd">
<!-- Generated by graphviz version 2.43.0 (0)
 -->
<!-- Title: buffer.h Pages: 1 -->
<svg width="1061pt" height="923pt"
 viewBox="0.00 0.00 1061.00 923.00" xmlns="http://www.w3.org/2000/svg" xmlns:xlink="http://www.w3.org/1999/xlink">
<g id="graph0" class="graph" transform="scale(1 1) rotate(0) translate(4 919)">
<title>buffer.h</title>
<polygon fill="white" stroke="transparent" points="-4,4 -4,-919 1057,-919 1057,4 -4,4"/>
<!-- Node1 -->
<g id="node1" class="node">
<title>Node1</title>
<g id="a_node1"><a xlink:title=" ">
<polygon fill="#bfbfbf" stroke="black" points="672.5,-895.5 672.5,-914.5 725.5,-914.5 725.5,-895.5 672.5,-895.5"/>
<text text-anchor="middle" x="699" y="-902.5" font-family="Helvetica,sans-Serif" font-size="10.00">buffer.h</text>
</a>
</g>
</g>
<!-- Node2 -->
<g id="node2" class="node">
<title>Node2</title>
<g id="a_node2"><a xlink:title=" ">
<polygon fill="white" stroke="#bfbfbf" points="110.5,-0.5 110.5,-19.5 231.5,-19.5 231.5,-0.5 110.5,-0.5"/>
<text text-anchor="middle" x="171" y="-7.5" font-family="Helvetica,sans-Serif" font-size="10.00">odp/visibility_begin.h</text>
</a>
</g>
</g>
<!-- Node1&#45;&gt;Node2 -->
<g id="edge1" class="edge">
<title>Node1&#45;&gt;Node2</title>
<path fill="none" stroke="midnightblue" d="M672.45,-902.68C544.77,-896 0,-863.41 0,-794 0,-794 0,-794 0,-132 0,-70.97 73.48,-37.96 124.1,-22.46"/>
<polygon fill="midnightblue" stroke="midnightblue" points="125.28,-25.76 133.9,-19.59 123.31,-19.04 125.28,-25.76"/>
</g>
<!-- Node3 -->
<g id="node3" class="node">
<title>Node3</title>
<g id="a_node3"><a xlink:href="event__types_8h.html" target="_top" xlink:title=" ">
<polygon fill="white" stroke="black" points="233.5,-615.5 233.5,-634.5 358.5,-634.5 358.5,-615.5 233.5,-615.5"/>
<text text-anchor="middle" x="296" y="-622.5" font-family="Helvetica,sans-Serif" font-size="10.00">odp/api/event_types.h</text>
</a>
</g>
</g>
<!-- Node1&#45;&gt;Node3 -->
<g id="edge2" class="edge">
<title>Node1&#45;&gt;Node3</title>
<path fill="none" stroke="midnightblue" d="M672.38,-900.01C599.48,-888.33 402,-851.39 402,-794 402,-794 402,-794 402,-736 402,-690.81 355.05,-657.05 323.64,-639.52"/>
<polygon fill="midnightblue" stroke="midnightblue" points="324.93,-636.24 314.46,-634.61 321.63,-642.41 324.93,-636.24"/>
</g>
<!-- Node6 -->
<g id="node6" class="node">
<title>Node6</title>
<g id="a_node6"><a xlink:title=" ">
<polygon fill="white" stroke="#bfbfbf" points="666,-0.5 666,-19.5 778,-19.5 778,-0.5 666,-0.5"/>
<text text-anchor="middle" x="722" y="-7.5" font-family="Helvetica,sans-Serif" font-size="10.00">odp/visibility_end.h</text>
</a>
</g>
</g>
<!-- Node1&#45;&gt;Node6 -->
<g id="edge55" class="edge">
<title>Node1&#45;&gt;Node6</title>
<path fill="none" stroke="midnightblue" d="M725.61,-901.53C807.93,-893.18 1053,-862.54 1053,-794 1053,-794 1053,-794 1053,-132 1053,-91.57 1036.96,-77.95 1003,-56 968.49,-33.7 860.22,-21.38 788.59,-15.49"/>
<polygon fill="midnightblue" stroke="midnightblue" points="788.55,-11.97 778.3,-14.66 787.99,-18.95 788.55,-11.97"/>
</g>
<!-- Node7 -->
<g id="node7" class="node">
<title>Node7</title>
<g id="a_node7"><a xlink:href="pool__types_8h.html" target="_top" xlink:title=" ">
<polygon fill="white" stroke="black" points="736,-839.5 736,-858.5 854,-858.5 854,-839.5 736,-839.5"/>
<text text-anchor="middle" x="795" y="-846.5" font-family="Helvetica,sans-Serif" font-size="10.00">odp/api/pool_types.h</text>
</a>
</g>
</g>
<!-- Node1&#45;&gt;Node7 -->
<g id="edge7" class="edge">
<title>Node1&#45;&gt;Node7</title>
<path fill="none" stroke="midnightblue" d="M714.42,-895.32C729.54,-886.82 752.82,-873.73 770.47,-863.8"/>
<polygon fill="midnightblue" stroke="midnightblue" points="772.61,-866.61 779.61,-858.65 769.18,-860.51 772.61,-866.61"/>
</g>
<!-- Node10 -->
<g id="node10" class="node">
<title>Node10</title>
<g id="a_node10"><a xlink:href="std__types_8h.html" target="_top" xlink:title=" ">
<polygon fill="white" stroke="black" points="765,-235.5 765,-254.5 877,-254.5 877,-235.5 765,-235.5"/>
<text text-anchor="middle" x="821" y="-242.5" font-family="Helvetica,sans-Serif" font-size="10.00">odp/api/std_types.h</text>
</a>
</g>
</g>
<!-- Node1&#45;&gt;Node10 -->
<g id="edge54" class="edge">
<title>Node1&#45;&gt;Node10</title>
<path fill="none" stroke="midnightblue" d="M697.47,-895.34C694.12,-873.43 688.63,-815.22 718,-783 761.86,-734.88 814.59,-793.66 860,-747 917.98,-687.42 901,-647.63 901,-564.5 901,-564.5 901,-564.5 901,-372.5 901,-326.48 862.71,-283.58 839.11,-261.52"/>
<polygon fill="midnightblue" stroke="midnightblue" points="841.23,-258.72 831.46,-254.61 836.53,-263.91 841.23,-258.72"/>
</g>
<!-- Node4 -->
<g id="node4" class="node">
<title>Node4</title>
<g id="a_node4"><a xlink:title=" ">
<polygon fill="white" stroke="#bfbfbf" points="104.5,-554 104.5,-573 247.5,-573 247.5,-554 104.5,-554"/>
<text text-anchor="middle" x="176" y="-561" font-family="Helvetica,sans-Serif" font-size="10.00">odp/api/abi/event_types.h</text>
</a>
</g>
</g>
<!-- Node3&#45;&gt;Node4 -->
<g id="edge3" class="edge">
<title>Node3&#45;&gt;Node4</title>
<path fill="none" stroke="midnightblue" d="M278.81,-615.48C258.76,-605.53 225.4,-588.99 202.14,-577.46"/>
<polygon fill="midnightblue" stroke="midnightblue" points="203.68,-574.32 193.16,-573.01 200.57,-580.59 203.68,-574.32"/>
</g>
<!-- Node5 -->
<g id="node5" class="node">
<title>Node5</title>
<g id="a_node5"><a xlink:href="spec_2event__types_8h.html" target="_top" xlink:title=" ">
<polygon fill="white" stroke="black" points="256.5,-56.5 256.5,-86.5 365.5,-86.5 365.5,-56.5 256.5,-56.5"/>
<text text-anchor="start" x="264.5" y="-74.5" font-family="Helvetica,sans-Serif" font-size="10.00">odp/api/spec/event</text>
<text text-anchor="middle" x="311" y="-63.5" font-family="Helvetica,sans-Serif" font-size="10.00">_types.h</text>
</a>
</g>
</g>
<!-- Node3&#45;&gt;Node5 -->
<g id="edge4" class="edge">
<title>Node3&#45;&gt;Node5</title>
<path fill="none" stroke="midnightblue" d="M291.03,-615.18C277.4,-590.65 239,-519.33 217,-456 204.8,-420.87 198,-411.69 198,-374.5 198,-374.5 198,-374.5 198,-305.5 198,-220.65 259.41,-134.28 291.69,-94.74"/>
<polygon fill="midnightblue" stroke="midnightblue" points="294.77,-96.51 298.48,-86.59 289.39,-92.03 294.77,-96.51"/>
</g>
<!-- Node5&#45;&gt;Node2 -->
<g id="edge5" class="edge">
<title>Node5&#45;&gt;Node2</title>
<path fill="none" stroke="midnightblue" d="M277.82,-56.4C254.44,-46.46 223.39,-33.26 200.79,-23.66"/>
<polygon fill="midnightblue" stroke="midnightblue" points="201.94,-20.35 191.37,-19.66 199.21,-26.79 201.94,-20.35"/>
</g>
<!-- Node5&#45;&gt;Node6 -->
<g id="edge6" class="edge">
<title>Node5&#45;&gt;Node6</title>
<path fill="none" stroke="midnightblue" d="M365.58,-62.6C440.54,-51.75 575.23,-32.25 655.84,-20.58"/>
<polygon fill="midnightblue" stroke="midnightblue" points="656.48,-24.02 665.88,-19.12 655.48,-17.09 656.48,-24.02"/>
</g>
<!-- Node8 -->
<g id="node8" class="node">
<title>Node8</title>
<g id="a_node8"><a xlink:title=" ">
<polygon fill="white" stroke="#bfbfbf" points="727,-783.5 727,-802.5 863,-802.5 863,-783.5 727,-783.5"/>
<text text-anchor="middle" x="795" y="-790.5" font-family="Helvetica,sans-Serif" font-size="10.00">odp/api/abi/pool_types.h</text>
</a>
</g>
</g>
<!-- Node7&#45;&gt;Node8 -->
<g id="edge8" class="edge">
<title>Node7&#45;&gt;Node8</title>
<path fill="none" stroke="midnightblue" d="M795,-839.08C795,-832.01 795,-821.86 795,-812.99"/>
<polygon fill="midnightblue" stroke="midnightblue" points="798.5,-812.75 795,-802.75 791.5,-812.75 798.5,-812.75"/>
</g>
<!-- Node9 -->
<g id="node9" class="node">
<title>Node9</title>
<g id="a_node9"><a xlink:href="spec_2pool__types_8h.html" target="_top" xlink:title=" ">
<polygon fill="white" stroke="black" points="881.5,-783.5 881.5,-802.5 1024.5,-802.5 1024.5,-783.5 881.5,-783.5"/>
<text text-anchor="middle" x="953" y="-790.5" font-family="Helvetica,sans-Serif" font-size="10.00">odp/api/spec/pool_types.h</text>
</a>
</g>
</g>
<!-- Node7&#45;&gt;Node9 -->
<g id="edge9" class="edge">
<title>Node7&#45;&gt;Node9</title>
<path fill="none" stroke="midnightblue" d="M820.04,-839.44C846.62,-830.36 888.81,-815.94 918.52,-805.78"/>
<polygon fill="midnightblue" stroke="midnightblue" points="919.75,-809.06 928.08,-802.52 917.49,-802.44 919.75,-809.06"/>
</g>
<!-- Node9&#45;&gt;Node2 -->
<g id="edge10" class="edge">
<title>Node9&#45;&gt;Node2</title>
<path fill="none" stroke="midnightblue" d="M881.2,-783.84C665.5,-759.26 38,-687.3 38,-682 38,-682 38,-682 38,-132 38,-77.75 99.28,-41.4 138.65,-23.64"/>
<polygon fill="midnightblue" stroke="midnightblue" points="140.35,-26.72 148.14,-19.53 137.57,-20.3 140.35,-26.72"/>
</g>
<!-- Node9&#45;&gt;Node6 -->
<g id="edge53" class="edge">
<title>Node9&#45;&gt;Node6</title>
<path fill="none" stroke="midnightblue" d="M962.15,-783.25C979.39,-765.77 1015,-724.53 1015,-682 1015,-682 1015,-682 1015,-132 1015,-34.46 874.57,-13.98 788.15,-10.61"/>
<polygon fill="midnightblue" stroke="midnightblue" points="788.25,-7.12 778.15,-10.29 788.03,-14.11 788.25,-7.12"/>
</g>
<!-- Node9&#45;&gt;Node10 -->
<g id="edge11" class="edge">
<title>Node9&#45;&gt;Node10</title>
<path fill="none" stroke="midnightblue" d="M951.17,-783.49C947.37,-765.07 939,-720.12 939,-682 939,-682 939,-682 939,-372.5 939,-334.74 939.48,-319.75 915,-291 901.94,-275.66 882.45,-265.15 864.6,-258.17"/>
<polygon fill="midnightblue" stroke="midnightblue" points="865.49,-254.77 854.9,-254.65 863.1,-261.35 865.49,-254.77"/>
</g>
<!-- Node17 -->
<g id="node17" class="node">
<title>Node17</title>
<g id="a_node17"><a xlink:href="dma__types_8h.html" target="_top" xlink:title=" ">
<polygon fill="white" stroke="black" points="731.5,-727.5 731.5,-746.5 850.5,-746.5 850.5,-727.5 731.5,-727.5"/>
<text text-anchor="middle" x="791" y="-734.5" font-family="Helvetica,sans-Serif" font-size="10.00">odp/api/dma_types.h</text>
</a>
</g>
</g>
<!-- Node9&#45;&gt;Node17 -->
<g id="edge22" class="edge">
<title>Node9&#45;&gt;Node17</title>
<path fill="none" stroke="midnightblue" d="M927.33,-783.44C900.08,-774.36 856.82,-759.94 826.35,-749.78"/>
<polygon fill="midnightblue" stroke="midnightblue" points="827.14,-746.36 816.55,-746.52 824.93,-753 827.14,-746.36"/>
</g>
<!-- Node11 -->
<g id="node11" class="node">
<title>Node11</title>
<g id="a_node11"><a xlink:title=" ">
<polygon fill="white" stroke="#bfbfbf" points="756,-179.5 756,-198.5 886,-198.5 886,-179.5 756,-179.5"/>
<text text-anchor="middle" x="821" y="-186.5" font-family="Helvetica,sans-Serif" font-size="10.00">odp/api/abi/std_types.h</text>
</a>
</g>
</g>
<!-- Node10&#45;&gt;Node11 -->
<g id="edge12" class="edge">
<title>Node10&#45;&gt;Node11</title>
<path fill="none" stroke="midnightblue" d="M821,-235.08C821,-228.01 821,-217.86 821,-208.99"/>
<polygon fill="midnightblue" stroke="midnightblue" points="824.5,-208.75 821,-198.75 817.5,-208.75 824.5,-208.75"/>
</g>
<!-- Node12 -->
<g id="node12" class="node">
<title>Node12</title>
<g id="a_node12"><a xlink:href="spec_2std__types_8h.html" target="_top" xlink:title=" ">
<polygon fill="white" stroke="black" points="600.5,-179.5 600.5,-198.5 737.5,-198.5 737.5,-179.5 600.5,-179.5"/>
<text text-anchor="middle" x="669" y="-186.5" font-family="Helvetica,sans-Serif" font-size="10.00">odp/api/spec/std_types.h</text>
</a>
</g>
</g>
<!-- Node10&#45;&gt;Node12 -->
<g id="edge13" class="edge">
<title>Node10&#45;&gt;Node12</title>
<path fill="none" stroke="midnightblue" d="M796.92,-235.44C771.46,-226.4 731.11,-212.06 702.54,-201.92"/>
<polygon fill="midnightblue" stroke="midnightblue" points="703.57,-198.57 692.97,-198.52 701.22,-205.16 703.57,-198.57"/>
</g>
<!-- Node12&#45;&gt;Node2 -->
<g id="edge14" class="edge">
<title>Node12&#45;&gt;Node2</title>
<path fill="none" stroke="midnightblue" d="M651.24,-179.48C596.5,-153.31 430.6,-74.72 374,-56 327.71,-40.69 273.77,-29.01 233.12,-21.39"/>
<polygon fill="midnightblue" stroke="midnightblue" points="233.56,-17.91 223.09,-19.54 232.29,-24.8 233.56,-17.91"/>
</g>
<!-- Node12&#45;&gt;Node6 -->
<g id="edge21" class="edge">
<title>Node12&#45;&gt;Node6</title>
<path fill="none" stroke="midnightblue" d="M687.15,-179.41C715.05,-164.97 767.04,-132.86 784,-87 788.78,-74.08 790.26,-68.27 784,-56 777,-42.27 763.63,-31.75 751.1,-24.35"/>
<polygon fill="midnightblue" stroke="midnightblue" points="752.68,-21.22 742.22,-19.51 749.33,-27.37 752.68,-21.22"/>
</g>
<!-- Node13 -->
<g id="node13" class="node">
<title>Node13</title>
<g id="a_node13"><a xlink:title=" ">
<polygon fill="white" stroke="#bfbfbf" points="832.5,-123.5 832.5,-142.5 885.5,-142.5 885.5,-123.5 832.5,-123.5"/>
<text text-anchor="middle" x="859" y="-130.5" font-family="Helvetica,sans-Serif" font-size="10.00">stdint.h</text>
</a>
</g>
</g>
<!-- Node12&#45;&gt;Node13 -->
<g id="edge15" class="edge">
<title>Node12&#45;&gt;Node13</title>
<path fill="none" stroke="midnightblue" d="M699.11,-179.44C732.53,-169.94 786.5,-154.61 822.35,-144.41"/>
<polygon fill="midnightblue" stroke="midnightblue" points="823.74,-147.66 832.41,-141.56 821.83,-140.93 823.74,-147.66"/>
</g>
<!-- Node14 -->
<g id="node14" class="node">
<title>Node14</title>
<g id="a_node14"><a xlink:href="align_8h.html" target="_top" xlink:title=" ">
<polygon fill="white" stroke="black" points="638.5,-123.5 638.5,-142.5 727.5,-142.5 727.5,-123.5 638.5,-123.5"/>
<text text-anchor="middle" x="683" y="-130.5" font-family="Helvetica,sans-Serif" font-size="10.00">odp/api/align.h</text>
</a>
</g>
</g>
<!-- Node12&#45;&gt;Node14 -->
<g id="edge16" class="edge">
<title>Node12&#45;&gt;Node14</title>
<path fill="none" stroke="midnightblue" d="M671.31,-179.08C673.17,-171.93 675.84,-161.64 678.15,-152.69"/>
<polygon fill="midnightblue" stroke="midnightblue" points="681.61,-153.31 680.73,-142.75 674.83,-151.55 681.61,-153.31"/>
</g>
<!-- Node15 -->
<g id="node15" class="node">
<title>Node15</title>
<g id="a_node15"><a xlink:title=" ">
<polygon fill="white" stroke="#bfbfbf" points="668.5,-62 668.5,-81 775.5,-81 775.5,-62 668.5,-62"/>
<text text-anchor="middle" x="722" y="-69" font-family="Helvetica,sans-Serif" font-size="10.00">odp/api/abi/align.h</text>
</a>
</g>
</g>
<!-- Node14&#45;&gt;Node15 -->
<g id="edge17" class="edge">
<title>Node14&#45;&gt;Node15</title>
<path fill="none" stroke="midnightblue" d="M688.59,-123.48C694.38,-114.64 703.59,-100.59 710.87,-89.48"/>
<polygon fill="midnightblue" stroke="midnightblue" points="713.87,-91.29 716.42,-81.01 708.01,-87.45 713.87,-91.29"/>
</g>
<!-- Node16 -->
<g id="node16" class="node">
<title>Node16</title>
<g id="a_node16"><a xlink:href="spec_2align_8h.html" target="_top" xlink:title=" ">
<polygon fill="white" stroke="black" points="460,-62 460,-81 574,-81 574,-62 460,-62"/>
<text text-anchor="middle" x="517" y="-69" font-family="Helvetica,sans-Serif" font-size="10.00">odp/api/spec/align.h</text>
</a>
</g>
</g>
<!-- Node14&#45;&gt;Node16 -->
<g id="edge18" class="edge">
<title>Node14&#45;&gt;Node16</title>
<path fill="none" stroke="midnightblue" d="M659.22,-123.48C630.62,-113.22 582.45,-95.96 550.2,-84.4"/>
<polygon fill="midnightblue" stroke="midnightblue" points="551.33,-81.09 540.74,-81.01 548.97,-87.68 551.33,-81.09"/>
</g>
<!-- Node16&#45;&gt;Node2 -->
<g id="edge19" class="edge">
<title>Node16&#45;&gt;Node2</title>
<path fill="none" stroke="midnightblue" d="M467.43,-61.98C404.86,-51.22 297.36,-32.73 230.45,-21.22"/>
<polygon fill="midnightblue" stroke="midnightblue" points="230.93,-17.75 220.48,-19.51 229.74,-24.65 230.93,-17.75"/>
</g>
<!-- Node16&#45;&gt;Node6 -->
<g id="edge20" class="edge">
<title>Node16&#45;&gt;Node6</title>
<path fill="none" stroke="midnightblue" d="M546.37,-61.98C582.3,-51.55 643.23,-33.86 683.04,-22.31"/>
<polygon fill="midnightblue" stroke="midnightblue" points="684.05,-25.66 692.68,-19.51 682.1,-18.94 684.05,-25.66"/>
</g>
<!-- Node18 -->
<g id="node18" class="node">
<title>Node18</title>
<g id="a_node18"><a xlink:title=" ">
<polygon fill="white" stroke="#bfbfbf" points="722.5,-671.5 722.5,-690.5 859.5,-690.5 859.5,-671.5 722.5,-671.5"/>
<text text-anchor="middle" x="791" y="-678.5" font-family="Helvetica,sans-Serif" font-size="10.00">odp/api/abi/dma_types.h</text>
</a>
</g>
</g>
<!-- Node17&#45;&gt;Node18 -->
<g id="edge23" class="edge">
<title>Node17&#45;&gt;Node18</title>
<path fill="none" stroke="midnightblue" d="M791,-727.08C791,-720.01 791,-709.86 791,-700.99"/>
<polygon fill="midnightblue" stroke="midnightblue" points="794.5,-700.75 791,-690.75 787.5,-700.75 794.5,-700.75"/>
</g>
<!-- Node19 -->
<g id="node19" class="node">
<title>Node19</title>
<g id="a_node19"><a xlink:href="spec_2dma__types_8h.html" target="_top" xlink:title=" ">
<polygon fill="white" stroke="black" points="548,-671.5 548,-690.5 692,-690.5 692,-671.5 548,-671.5"/>
<text text-anchor="middle" x="620" y="-678.5" font-family="Helvetica,sans-Serif" font-size="10.00">odp/api/spec/dma_types.h</text>
</a>
</g>
</g>
<!-- Node17&#45;&gt;Node19 -->
<g id="edge24" class="edge">
<title>Node17&#45;&gt;Node19</title>
<path fill="none" stroke="midnightblue" d="M763.9,-727.44C735.01,-718.32 689.08,-703.81 656.89,-693.65"/>
<polygon fill="midnightblue" stroke="midnightblue" points="657.56,-690.19 646.97,-690.52 655.45,-696.87 657.56,-690.19"/>
</g>
<!-- Node19&#45;&gt;Node2 -->
<g id="edge25" class="edge">
<title>Node19&#45;&gt;Node2</title>
<path fill="none" stroke="midnightblue" d="M547.76,-679.6C399.78,-676.82 76,-659.84 76,-564.5 76,-564.5 76,-564.5 76,-132 76,-85.25 120.42,-45.86 148.51,-25.62"/>
<polygon fill="midnightblue" stroke="midnightblue" points="150.77,-28.32 156.98,-19.74 146.77,-22.57 150.77,-28.32"/>
</g>
<!-- Node19&#45;&gt;Node3 -->
<g id="edge26" class="edge">
<title>Node19&#45;&gt;Node3</title>
<path fill="none" stroke="midnightblue" d="M568.66,-671.44C511.19,-661.87 418.13,-646.36 357,-636.17"/>
<polygon fill="midnightblue" stroke="midnightblue" points="357.54,-632.71 347.1,-634.52 356.39,-639.61 357.54,-632.71"/>
</g>
<!-- Node19&#45;&gt;Node6 -->
<g id="edge52" class="edge">
<title>Node19&#45;&gt;Node6</title>
<path fill="none" stroke="midnightblue" d="M692.3,-674.13C729.25,-668.41 773.56,-657.15 808,-635 841.42,-613.5 863,-604.24 863,-564.5 863,-564.5 863,-564.5 863,-439.5 863,-339.68 977,-345.82 977,-246 977,-246 977,-246 977,-132 977,-48.58 864.23,-22.6 788.67,-14.55"/>
<polygon fill="midnightblue" stroke="midnightblue" points="788.57,-11.03 778.28,-13.53 787.89,-17.99 788.57,-11.03"/>
</g>
<!-- Node19&#45;&gt;Node10 -->
<g id="edge51" class="edge">
<title>Node19&#45;&gt;Node10</title>
<path fill="none" stroke="midnightblue" d="M682.62,-671.49C742.91,-659.35 825,-630.68 825,-564.5 825,-564.5 825,-564.5 825,-439.5 825,-375.5 822.79,-299.62 821.65,-264.97"/>
<polygon fill="midnightblue" stroke="midnightblue" points="825.15,-264.75 821.31,-254.87 818.15,-264.98 825.15,-264.75"/>
</g>
<!-- Node20 -->
<g id="node20" class="node">
<title>Node20</title>
<g id="a_node20"><a xlink:href="packet__types_8h.html" target="_top" xlink:title=" ">
<polygon fill="white" stroke="black" points="555.5,-615.5 555.5,-634.5 684.5,-634.5 684.5,-615.5 555.5,-615.5"/>
<text text-anchor="middle" x="620" y="-622.5" font-family="Helvetica,sans-Serif" font-size="10.00">odp/api/packet_types.h</text>
</a>
</g>
</g>
<!-- Node19&#45;&gt;Node20 -->
<g id="edge27" class="edge">
<title>Node19&#45;&gt;Node20</title>
<path fill="none" stroke="midnightblue" d="M620,-671.08C620,-664.01 620,-653.86 620,-644.99"/>
<polygon fill="midnightblue" stroke="midnightblue" points="623.5,-644.75 620,-634.75 616.5,-644.75 623.5,-644.75"/>
</g>
<!-- Node27 -->
<g id="node27" class="node">
<title>Node27</title>
<g id="a_node27"><a xlink:href="queue__types_8h.html" target="_top" xlink:title=" ">
<polygon fill="white" stroke="black" points="360.5,-492.5 360.5,-511.5 487.5,-511.5 487.5,-492.5 360.5,-492.5"/>
<text text-anchor="middle" x="424" y="-499.5" font-family="Helvetica,sans-Serif" font-size="10.00">odp/api/queue_types.h</text>
</a>
</g>
</g>
<!-- Node19&#45;&gt;Node27 -->
<g id="edge50" class="edge">
<title>Node19&#45;&gt;Node27</title>
<path fill="none" stroke="midnightblue" d="M578.56,-671.47C532.36,-659.53 459.71,-632.94 426,-579 415.32,-561.9 416.67,-538.15 419.5,-521.77"/>
<polygon fill="midnightblue" stroke="midnightblue" points="422.97,-522.29 421.56,-511.78 416.11,-520.87 422.97,-522.29"/>
</g>
<!-- Node21 -->
<g id="node21" class="node">
<title>Node21</title>
<g id="a_node21"><a xlink:title=" ">
<polygon fill="white" stroke="#bfbfbf" points="567,-548.5 567,-578.5 673,-578.5 673,-548.5 567,-548.5"/>
<text text-anchor="start" x="575" y="-566.5" font-family="Helvetica,sans-Serif" font-size="10.00">odp/api/abi/packet</text>
<text text-anchor="middle" x="620" y="-555.5" font-family="Helvetica,sans-Serif" font-size="10.00">_io_types.h</text>
</a>
</g>
</g>
<!-- Node20&#45;&gt;Node21 -->
<g id="edge28" class="edge">
<title>Node20&#45;&gt;Node21</title>
<path fill="none" stroke="midnightblue" d="M620,-615.48C620,-608.47 620,-598.19 620,-588.7"/>
<polygon fill="midnightblue" stroke="midnightblue" points="623.5,-588.52 620,-578.52 616.5,-588.52 623.5,-588.52"/>
</g>
<!-- Node22 -->
<g id="node22" class="node">
<title>Node22</title>
<g id="a_node22"><a xlink:title=" ">
<polygon fill="white" stroke="#bfbfbf" points="691,-548.5 691,-578.5 797,-578.5 797,-548.5 691,-548.5"/>
<text text-anchor="start" x="699" y="-566.5" font-family="Helvetica,sans-Serif" font-size="10.00">odp/api/abi/packet</text>
<text text-anchor="middle" x="744" y="-555.5" font-family="Helvetica,sans-Serif" font-size="10.00">_types.h</text>
</a>
</g>
</g>
<!-- Node20&#45;&gt;Node22 -->
<g id="edge29" class="edge">
<title>Node20&#45;&gt;Node22</title>
<path fill="none" stroke="midnightblue" d="M637.77,-615.48C655.42,-607 683.07,-593.74 705.73,-582.86"/>
<polygon fill="midnightblue" stroke="midnightblue" points="707.27,-586 714.78,-578.52 704.25,-579.69 707.27,-586"/>
</g>
<!-- Node23 -->
<g id="node23" class="node">
<title>Node23</title>
<g id="a_node23"><a xlink:href="spec_2packet__types_8h.html" target="_top" xlink:title=" ">
<polygon fill="white" stroke="black" points="435.5,-548.5 435.5,-578.5 548.5,-578.5 548.5,-548.5 435.5,-548.5"/>
<text text-anchor="start" x="443.5" y="-566.5" font-family="Helvetica,sans-Serif" font-size="10.00">odp/api/spec/packet</text>
<text text-anchor="middle" x="492" y="-555.5" font-family="Helvetica,sans-Serif" font-size="10.00">_types.h</text>
</a>
</g>
</g>
<!-- Node20&#45;&gt;Node23 -->
<g id="edge30" class="edge">
<title>Node20&#45;&gt;Node23</title>
<path fill="none" stroke="midnightblue" d="M601.66,-615.48C583.43,-607 554.9,-593.74 531.5,-582.86"/>
<polygon fill="midnightblue" stroke="midnightblue" points="532.71,-579.56 522.17,-578.52 529.76,-585.91 532.71,-579.56"/>
</g>
<!-- Node23&#45;&gt;Node2 -->
<g id="edge31" class="edge">
<title>Node23&#45;&gt;Node2</title>
<path fill="none" stroke="midnightblue" d="M435.41,-556.31C329.96,-543.18 114,-508.17 114,-441.5 114,-441.5 114,-441.5 114,-132 114,-91.59 140.34,-50.21 157.21,-27.85"/>
<polygon fill="midnightblue" stroke="midnightblue" points="160.15,-29.77 163.55,-19.74 154.63,-25.46 160.15,-29.77"/>
</g>
<!-- Node23&#45;&gt;Node6 -->
<g id="edge49" class="edge">
<title>Node23&#45;&gt;Node6</title>
<path fill="none" stroke="midnightblue" d="M523.91,-548.38C601.27,-512.29 798.8,-408.54 886,-255 915.04,-203.87 921.93,-175.27 895,-123 867.69,-70 802.63,-38.54 760.54,-23.04"/>
<polygon fill="midnightblue" stroke="midnightblue" points="761.48,-19.66 750.89,-19.62 759.14,-26.26 761.48,-19.66"/>
</g>
<!-- Node24 -->
<g id="node24" class="node">
<title>Node24</title>
<g id="a_node24"><a xlink:href="proto__stats__types_8h.html" target="_top" xlink:title=" ">
<polygon fill="white" stroke="black" points="543,-358.5 543,-388.5 653,-388.5 653,-358.5 543,-358.5"/>
<text text-anchor="start" x="551" y="-376.5" font-family="Helvetica,sans-Serif" font-size="10.00">odp/api/proto_stats</text>
<text text-anchor="middle" x="598" y="-365.5" font-family="Helvetica,sans-Serif" font-size="10.00">_types.h</text>
</a>
</g>
</g>
<!-- Node23&#45;&gt;Node24 -->
<g id="edge32" class="edge">
<title>Node23&#45;&gt;Node24</title>
<path fill="none" stroke="midnightblue" d="M499.97,-548.37C518.12,-516.17 562.7,-437.1 584.94,-397.66"/>
<polygon fill="midnightblue" stroke="midnightblue" points="588.22,-398.97 590.08,-388.54 582.12,-395.53 588.22,-398.97"/>
</g>
<!-- Node23&#45;&gt;Node27 -->
<g id="edge38" class="edge">
<title>Node23&#45;&gt;Node27</title>
<path fill="none" stroke="midnightblue" d="M475.88,-548.4C465.6,-539.4 452.25,-527.72 441.67,-518.47"/>
<polygon fill="midnightblue" stroke="midnightblue" points="443.73,-515.61 433.89,-511.66 439.12,-520.88 443.73,-515.61"/>
</g>
<!-- Node25 -->
<g id="node25" class="node">
<title>Node25</title>
<g id="a_node25"><a xlink:title=" ">
<polygon fill="white" stroke="#bfbfbf" points="669,-291.5 669,-321.5 797,-321.5 797,-291.5 669,-291.5"/>
<text text-anchor="start" x="677" y="-309.5" font-family="Helvetica,sans-Serif" font-size="10.00">odp/api/abi/proto_stats</text>
<text text-anchor="middle" x="733" y="-298.5" font-family="Helvetica,sans-Serif" font-size="10.00">_types.h</text>
</a>
</g>
</g>
<!-- Node24&#45;&gt;Node25 -->
<g id="edge33" class="edge">
<title>Node24&#45;&gt;Node25</title>
<path fill="none" stroke="midnightblue" d="M627.29,-358.4C647.02,-348.9 673.23,-336.28 694.62,-325.98"/>
<polygon fill="midnightblue" stroke="midnightblue" points="696.27,-329.07 703.76,-321.58 693.24,-322.76 696.27,-329.07"/>
</g>
<!-- Node26 -->
<g id="node26" class="node">
<title>Node26</title>
<g id="a_node26"><a xlink:href="spec_2proto__stats__types_8h.html" target="_top" xlink:title=" ">
<polygon fill="white" stroke="black" points="543.5,-291.5 543.5,-321.5 650.5,-321.5 650.5,-291.5 543.5,-291.5"/>
<text text-anchor="start" x="551.5" y="-309.5" font-family="Helvetica,sans-Serif" font-size="10.00">odp/api/spec/proto</text>
<text text-anchor="middle" x="597" y="-298.5" font-family="Helvetica,sans-Serif" font-size="10.00">_stats_types.h</text>
</a>
</g>
</g>
<!-- Node24&#45;&gt;Node26 -->
<g id="edge34" class="edge">
<title>Node24&#45;&gt;Node26</title>
<path fill="none" stroke="midnightblue" d="M597.78,-358.4C597.66,-350.64 597.51,-340.81 597.37,-331.86"/>
<polygon fill="midnightblue" stroke="midnightblue" points="600.87,-331.52 597.22,-321.58 593.87,-331.63 600.87,-331.52"/>
</g>
<!-- Node26&#45;&gt;Node2 -->
<g id="edge35" class="edge">
<title>Node26&#45;&gt;Node2</title>
<path fill="none" stroke="midnightblue" d="M569.73,-291.27C508.93,-258.95 358.86,-175.94 247,-87 234.48,-77.04 204.62,-46.32 186.28,-27.12"/>
<polygon fill="midnightblue" stroke="midnightblue" points="188.64,-24.52 179.21,-19.69 183.57,-29.35 188.64,-24.52"/>
</g>
<!-- Node26&#45;&gt;Node6 -->
<g id="edge37" class="edge">
<title>Node26&#45;&gt;Node6</title>
<path fill="none" stroke="midnightblue" d="M593.61,-291.18C588.58,-267.43 580.78,-218.6 591,-179 606.61,-118.52 617.45,-102.64 659,-56 670.01,-43.64 685,-32.76 697.6,-24.8"/>
<polygon fill="midnightblue" stroke="midnightblue" points="699.53,-27.72 706.25,-19.54 695.89,-21.74 699.53,-27.72"/>
</g>
<!-- Node26&#45;&gt;Node10 -->
<g id="edge36" class="edge">
<title>Node26&#45;&gt;Node10</title>
<path fill="none" stroke="midnightblue" d="M649.8,-291.47C689.29,-280.99 742.56,-266.84 779.13,-257.12"/>
<polygon fill="midnightblue" stroke="midnightblue" points="780.21,-260.46 788.98,-254.51 778.41,-253.69 780.21,-260.46"/>
</g>
<!-- Node28 -->
<g id="node28" class="node">
<title>Node28</title>
<g id="a_node28"><a xlink:title=" ">
<polygon fill="white" stroke="#bfbfbf" points="226.5,-431 226.5,-450 371.5,-450 371.5,-431 226.5,-431"/>
<text text-anchor="middle" x="299" y="-438" font-family="Helvetica,sans-Serif" font-size="10.00">odp/api/abi/queue_types.h</text>
</a>
</g>
</g>
<!-- Node27&#45;&gt;Node28 -->
<g id="edge39" class="edge">
<title>Node27&#45;&gt;Node28</title>
<path fill="none" stroke="midnightblue" d="M406.09,-492.48C385.11,-482.49 350.15,-465.85 325.91,-454.31"/>
<polygon fill="midnightblue" stroke="midnightblue" points="327.41,-451.15 316.88,-450.01 324.4,-457.47 327.41,-451.15"/>
</g>
<!-- Node29 -->
<g id="node29" class="node">
<title>Node29</title>
<g id="a_node29"><a xlink:href="spec_2queue__types_8h.html" target="_top" xlink:title=" ">
<polygon fill="white" stroke="black" points="389.5,-425.5 389.5,-455.5 500.5,-455.5 500.5,-425.5 389.5,-425.5"/>
<text text-anchor="start" x="397.5" y="-443.5" font-family="Helvetica,sans-Serif" font-size="10.00">odp/api/spec/queue</text>
<text text-anchor="middle" x="445" y="-432.5" font-family="Helvetica,sans-Serif" font-size="10.00">_types.h</text>
</a>
</g>
</g>
<!-- Node27&#45;&gt;Node29 -->
<g id="edge40" class="edge">
<title>Node27&#45;&gt;Node29</title>
<path fill="none" stroke="midnightblue" d="M427.01,-492.48C429.53,-485.32 433.27,-474.75 436.68,-465.08"/>
<polygon fill="midnightblue" stroke="midnightblue" points="440.02,-466.12 440.05,-455.52 433.42,-463.79 440.02,-466.12"/>
</g>
<!-- Node29&#45;&gt;Node2 -->
<g id="edge41" class="edge">
<title>Node29&#45;&gt;Node2</title>
<path fill="none" stroke="midnightblue" d="M389.2,-426.41C304.19,-404.81 152,-358.97 152,-307.5 152,-307.5 152,-307.5 152,-132 152,-95.29 160.64,-53.06 166.27,-29.45"/>
<polygon fill="midnightblue" stroke="midnightblue" points="169.67,-30.28 168.67,-19.73 162.87,-28.6 169.67,-30.28"/>
</g>
<!-- Node29&#45;&gt;Node6 -->
<g id="edge48" class="edge">
<title>Node29&#45;&gt;Node6</title>
<path fill="none" stroke="midnightblue" d="M462.98,-425.13C473.73,-415.77 487.01,-402.77 496,-389 498.16,-385.69 596.46,-126.64 598,-123 610.77,-92.78 606,-79.4 629,-56 643.64,-41.1 664.2,-30.45 682.27,-23.26"/>
<polygon fill="midnightblue" stroke="midnightblue" points="683.86,-26.4 692,-19.62 681.4,-19.85 683.86,-26.4"/>
</g>
<!-- Node30 -->
<g id="node30" class="node">
<title>Node30</title>
<g id="a_node30"><a xlink:href="schedule__types_8h.html" target="_top" xlink:title=" ">
<polygon fill="white" stroke="black" points="347,-364 347,-383 487,-383 487,-364 347,-364"/>
<text text-anchor="middle" x="417" y="-371" font-family="Helvetica,sans-Serif" font-size="10.00">odp/api/schedule_types.h</text>
</a>
</g>
</g>
<!-- Node29&#45;&gt;Node30 -->
<g id="edge42" class="edge">
<title>Node29&#45;&gt;Node30</title>
<path fill="none" stroke="midnightblue" d="M438.92,-425.4C434.77,-415.76 429.24,-402.91 424.77,-392.54"/>
<polygon fill="midnightblue" stroke="midnightblue" points="427.92,-390.99 420.75,-383.19 421.49,-393.76 427.92,-390.99"/>
</g>
<!-- Node31 -->
<g id="node31" class="node">
<title>Node31</title>
<g id="a_node31"><a xlink:title=" ">
<polygon fill="white" stroke="#bfbfbf" points="226.5,-291.5 226.5,-321.5 343.5,-321.5 343.5,-291.5 226.5,-291.5"/>
<text text-anchor="start" x="234.5" y="-309.5" font-family="Helvetica,sans-Serif" font-size="10.00">odp/api/abi/schedule</text>
<text text-anchor="middle" x="285" y="-298.5" font-family="Helvetica,sans-Serif" font-size="10.00">_types.h</text>
</a>
</g>
</g>
<!-- Node30&#45;&gt;Node31 -->
<g id="edge43" class="edge">
<title>Node30&#45;&gt;Node31</title>
<path fill="none" stroke="midnightblue" d="M399.47,-363.87C380.07,-354.31 348.21,-338.63 323.03,-326.22"/>
<polygon fill="midnightblue" stroke="midnightblue" points="324.26,-322.93 313.74,-321.65 321.16,-329.21 324.26,-322.93"/>
</g>
<!-- Node32 -->
<g id="node32" class="node">
<title>Node32</title>
<g id="a_node32"><a xlink:href="spec_2schedule__types_8h.html" target="_top" xlink:title=" ">
<polygon fill="white" stroke="black" points="361.5,-291.5 361.5,-321.5 486.5,-321.5 486.5,-291.5 361.5,-291.5"/>
<text text-anchor="start" x="369.5" y="-309.5" font-family="Helvetica,sans-Serif" font-size="10.00">odp/api/spec/schedule</text>
<text text-anchor="middle" x="424" y="-298.5" font-family="Helvetica,sans-Serif" font-size="10.00">_types.h</text>
</a>
</g>
</g>
<!-- Node30&#45;&gt;Node32 -->
<g id="edge44" class="edge">
<title>Node30&#45;&gt;Node32</title>
<path fill="none" stroke="midnightblue" d="M417.94,-363.73C418.83,-355.54 420.19,-342.92 421.39,-331.71"/>
<polygon fill="midnightblue" stroke="midnightblue" points="424.89,-331.91 422.48,-321.59 417.93,-331.16 424.89,-331.91"/>
</g>
<!-- Node32&#45;&gt;Node2 -->
<g id="edge45" class="edge">
<title>Node32&#45;&gt;Node2</title>
<path fill="none" stroke="midnightblue" d="M407.83,-291.32C370.6,-258.14 277.17,-171.81 214,-87 200.18,-68.45 187.56,-45.01 179.62,-29.11"/>
<polygon fill="midnightblue" stroke="midnightblue" points="182.64,-27.32 175.11,-19.87 176.35,-30.39 182.64,-27.32"/>
</g>
<!-- Node32&#45;&gt;Node6 -->
<g id="edge47" class="edge">
<title>Node32&#45;&gt;Node6</title>
<path fill="none" stroke="midnightblue" d="M420.36,-291.28C410.46,-248.99 387.87,-122.82 451,-56 478.24,-27.17 584.47,-16.81 655.56,-13.08"/>
<polygon fill="midnightblue" stroke="midnightblue" points="655.96,-16.57 665.78,-12.58 655.62,-9.58 655.96,-16.57"/>
</g>
<!-- Node32&#45;&gt;Node10 -->
<g id="edge46" class="edge">
<title>Node32&#45;&gt;Node10</title>
<path fill="none" stroke="midnightblue" d="M486.91,-296.07C559.99,-285.12 680.06,-267.12 754.6,-255.95"/>
<polygon fill="midnightblue" stroke="midnightblue" points="755.44,-259.37 764.81,-254.42 754.4,-252.44 755.44,-259.37"/>
</g>
</g>
</svg>
