<?xml version="1.0" encoding="UTF-8" standalone="no"?>
<!DOCTYPE svg PUBLIC "-//W3C//DTD SVG 1.1//EN"
 "http://www.w3.org/Graphics/SVG/1.1/DTD/svg11.dtd">
<!-- Generated by graphviz version 2.43.0 (0)
 -->
<!-- Title: std_types.h Pages: 1 -->
<svg width="3919pt" height="196pt"
 viewBox="0.00 0.00 3919.00 196.00" xmlns="http://www.w3.org/2000/svg" xmlns:xlink="http://www.w3.org/1999/xlink">
<g id="graph0" class="graph" transform="scale(1 1) rotate(0) translate(4 192)">
<title>std_types.h</title>
<polygon fill="white" stroke="transparent" points="-4,4 -4,-192 3915,-192 3915,4 -4,4"/>
<!-- Node1 -->
<g id="node1" class="node">
<title>Node1</title>
<g id="a_node1"><a xlink:title=" ">
<polygon fill="#bfbfbf" stroke="black" points="1832,-168.5 1832,-187.5 1905,-187.5 1905,-168.5 1832,-168.5"/>
<text text-anchor="middle" x="1868.5" y="-175.5" font-family="Helvetica,sans-Serif" font-size="10.00">std_types.h</text>
</a>
</g>
</g>
<!-- Node2 -->
<g id="node2" class="node">
<title>Node2</title>
<g id="a_node2"><a xlink:href="abi-default_2atomic_8h.html" target="_top" xlink:title=" ">
<polygon fill="white" stroke="black" points="0,-112.5 0,-131.5 59,-131.5 59,-112.5 0,-112.5"/>
<text text-anchor="middle" x="29.5" y="-119.5" font-family="Helvetica,sans-Serif" font-size="10.00">atomic.h</text>
</a>
</g>
</g>
<!-- Node1&#45;&gt;Node2 -->
<g id="edge1" class="edge">
<title>Node1&#45;&gt;Node2</title>
<path fill="none" stroke="midnightblue" d="M1821.59,-177.15C1574.43,-177.71 421.26,-177.81 67.5,-132 64.81,-131.65 62.03,-131.19 59.26,-130.67"/>
<polygon fill="midnightblue" stroke="midnightblue" points="1821.68,-180.65 1831.67,-177.12 1821.67,-173.65 1821.68,-180.65"/>
</g>
<!-- Node3 -->
<g id="node3" class="node">
<title>Node3</title>
<g id="a_node3"><a xlink:href="abi-default_2barrier_8h.html" target="_top" xlink:title=" ">
<polygon fill="white" stroke="black" points="77,-112.5 77,-131.5 134,-131.5 134,-112.5 77,-112.5"/>
<text text-anchor="middle" x="105.5" y="-119.5" font-family="Helvetica,sans-Serif" font-size="10.00">barrier.h</text>
</a>
</g>
</g>
<!-- Node1&#45;&gt;Node3 -->
<g id="edge2" class="edge">
<title>Node1&#45;&gt;Node3</title>
<path fill="none" stroke="midnightblue" d="M1821.66,-177.09C1580.97,-177.32 481.42,-175.94 143.5,-132 140.41,-131.6 137.2,-131.05 134.02,-130.42"/>
<polygon fill="midnightblue" stroke="midnightblue" points="1821.83,-180.58 1831.82,-177.07 1821.82,-173.58 1821.83,-180.58"/>
</g>
<!-- Node4 -->
<g id="node4" class="node">
<title>Node4</title>
<g id="a_node4"><a xlink:href="abi-default_2byteorder_8h.html" target="_top" xlink:title=" ">
<polygon fill="white" stroke="black" points="152.5,-112.5 152.5,-131.5 224.5,-131.5 224.5,-112.5 152.5,-112.5"/>
<text text-anchor="middle" x="188.5" y="-119.5" font-family="Helvetica,sans-Serif" font-size="10.00">byteorder.h</text>
</a>
</g>
</g>
<!-- Node1&#45;&gt;Node4 -->
<g id="edge3" class="edge">
<title>Node1&#45;&gt;Node4</title>
<path fill="none" stroke="midnightblue" d="M1821.54,-176.79C1588.34,-175.55 553.26,-168.11 233.5,-132 230.65,-131.68 227.71,-131.27 224.77,-130.8"/>
<polygon fill="midnightblue" stroke="midnightblue" points="1821.7,-180.29 1831.72,-176.84 1821.74,-173.29 1821.7,-180.29"/>
</g>
<!-- Node5 -->
<g id="node5" class="node">
<title>Node5</title>
<g id="a_node5"><a xlink:href="abi-default_2cpumask_8h.html" target="_top" xlink:title=" ">
<polygon fill="white" stroke="black" points="242.5,-112.5 242.5,-131.5 312.5,-131.5 312.5,-112.5 242.5,-112.5"/>
<text text-anchor="middle" x="277.5" y="-119.5" font-family="Helvetica,sans-Serif" font-size="10.00">cpumask.h</text>
</a>
</g>
</g>
<!-- Node1&#45;&gt;Node5 -->
<g id="edge4" class="edge">
<title>Node1&#45;&gt;Node5</title>
<path fill="none" stroke="midnightblue" d="M1821.55,-176.73C1596.05,-175.25 622.82,-166.93 321.5,-132 318.71,-131.68 315.84,-131.27 312.96,-130.8"/>
<polygon fill="midnightblue" stroke="midnightblue" points="1821.69,-180.23 1831.71,-176.79 1821.74,-173.23 1821.69,-180.23"/>
</g>
<!-- Node6 -->
<g id="node6" class="node">
<title>Node6</title>
<g id="a_node6"><a xlink:href="abi-default_2init_8h.html" target="_top" xlink:title=" ">
<polygon fill="white" stroke="black" points="331,-112.5 331,-131.5 372,-131.5 372,-112.5 331,-112.5"/>
<text text-anchor="middle" x="351.5" y="-119.5" font-family="Helvetica,sans-Serif" font-size="10.00">init.h</text>
</a>
</g>
</g>
<!-- Node1&#45;&gt;Node6 -->
<g id="edge5" class="edge">
<title>Node1&#45;&gt;Node6</title>
<path fill="none" stroke="midnightblue" d="M1821.49,-177.29C1600.95,-178.37 667.52,-179.96 380.5,-132 377.8,-131.55 374.99,-130.91 372.25,-130.18"/>
<polygon fill="midnightblue" stroke="midnightblue" points="1821.77,-180.78 1831.75,-177.23 1821.73,-173.78 1821.77,-180.78"/>
</g>
<!-- Node7 -->
<g id="node7" class="node">
<title>Node7</title>
<g id="a_node7"><a xlink:href="abi-default_2ipsec_8h.html" target="_top" xlink:title=" ">
<polygon fill="white" stroke="black" points="390,-112.5 390,-131.5 441,-131.5 441,-112.5 390,-112.5"/>
<text text-anchor="middle" x="415.5" y="-119.5" font-family="Helvetica,sans-Serif" font-size="10.00">ipsec.h</text>
</a>
</g>
</g>
<!-- Node1&#45;&gt;Node7 -->
<g id="edge6" class="edge">
<title>Node1&#45;&gt;Node7</title>
<path fill="none" stroke="midnightblue" d="M1821.7,-176.9C1608.06,-176.21 724.16,-171.04 450.5,-132 447.52,-131.57 444.42,-130.99 441.37,-130.33"/>
<polygon fill="midnightblue" stroke="midnightblue" points="1821.93,-180.4 1831.94,-176.93 1821.95,-173.4 1821.93,-180.4"/>
</g>
<!-- Node8 -->
<g id="node8" class="node">
<title>Node8</title>
<g id="a_node8"><a xlink:href="abi-default_2packet__io__types_8h.html" target="_top" xlink:title=" ">
<polygon fill="white" stroke="black" points="459.5,-112.5 459.5,-131.5 563.5,-131.5 563.5,-112.5 459.5,-112.5"/>
<text text-anchor="middle" x="511.5" y="-119.5" font-family="Helvetica,sans-Serif" font-size="10.00">packet_io_types.h</text>
</a>
</g>
</g>
<!-- Node1&#45;&gt;Node8 -->
<g id="edge7" class="edge">
<title>Node1&#45;&gt;Node8</title>
<path fill="none" stroke="midnightblue" d="M1821.78,-177.26C1653.05,-177.8 1059.49,-176.24 572.5,-132 569.62,-131.74 566.67,-131.43 563.7,-131.09"/>
<polygon fill="midnightblue" stroke="midnightblue" points="1821.83,-180.76 1831.81,-177.22 1821.8,-173.76 1821.83,-180.76"/>
</g>
<!-- Node9 -->
<g id="node9" class="node">
<title>Node9</title>
<g id="a_node9"><a xlink:href="abi-default_2rwlock__recursive_8h.html" target="_top" xlink:title=" ">
<polygon fill="white" stroke="black" points="581.5,-112.5 581.5,-131.5 689.5,-131.5 689.5,-112.5 581.5,-112.5"/>
<text text-anchor="middle" x="635.5" y="-119.5" font-family="Helvetica,sans-Serif" font-size="10.00">rwlock_recursive.h</text>
</a>
</g>
</g>
<!-- Node1&#45;&gt;Node9 -->
<g id="edge8" class="edge">
<title>Node1&#45;&gt;Node9</title>
<path fill="none" stroke="midnightblue" d="M1821.16,-176.93C1662.25,-176.34 1133.39,-171.32 698.5,-132 695.64,-131.74 692.71,-131.44 689.75,-131.11"/>
<polygon fill="midnightblue" stroke="midnightblue" points="1821.51,-180.43 1831.53,-176.97 1821.54,-173.43 1821.51,-180.43"/>
</g>
<!-- Node10 -->
<g id="node10" class="node">
<title>Node10</title>
<g id="a_node10"><a xlink:href="abi-default_2schedule_8h.html" target="_top" xlink:title=" ">
<polygon fill="white" stroke="black" points="708,-112.5 708,-131.5 777,-131.5 777,-112.5 708,-112.5"/>
<text text-anchor="middle" x="742.5" y="-119.5" font-family="Helvetica,sans-Serif" font-size="10.00">schedule.h</text>
</a>
</g>
</g>
<!-- Node1&#45;&gt;Node10 -->
<g id="edge9" class="edge">
<title>Node1&#45;&gt;Node10</title>
<path fill="none" stroke="midnightblue" d="M1821.59,-176.05C1641.1,-172.24 991.43,-157.06 786.5,-132 783.4,-131.62 780.2,-131.14 777,-130.6"/>
<polygon fill="midnightblue" stroke="midnightblue" points="1821.73,-179.55 1831.81,-176.26 1821.88,-172.56 1821.73,-179.55"/>
</g>
<!-- Node11 -->
<g id="node11" class="node">
<title>Node11</title>
<g id="a_node11"><a xlink:href="abi-default_2spinlock__recursive_8h.html" target="_top" xlink:title=" ">
<polygon fill="white" stroke="black" points="795.5,-112.5 795.5,-131.5 911.5,-131.5 911.5,-112.5 795.5,-112.5"/>
<text text-anchor="middle" x="853.5" y="-119.5" font-family="Helvetica,sans-Serif" font-size="10.00">spinlock_recursive.h</text>
</a>
</g>
</g>
<!-- Node1&#45;&gt;Node11 -->
<g id="edge10" class="edge">
<title>Node1&#45;&gt;Node11</title>
<path fill="none" stroke="midnightblue" d="M1821.59,-176.2C1683.34,-173.54 1265.55,-163.31 920.5,-132 917.58,-131.73 914.59,-131.44 911.57,-131.11"/>
<polygon fill="midnightblue" stroke="midnightblue" points="1821.76,-179.71 1831.82,-176.39 1821.89,-172.71 1821.76,-179.71"/>
</g>
<!-- Node12 -->
<g id="node12" class="node">
<title>Node12</title>
<g id="a_node12"><a xlink:href="abi-default_2traffic__mngr_8h.html" target="_top" xlink:title=" ">
<polygon fill="white" stroke="black" points="929.5,-112.5 929.5,-131.5 1013.5,-131.5 1013.5,-112.5 929.5,-112.5"/>
<text text-anchor="middle" x="971.5" y="-119.5" font-family="Helvetica,sans-Serif" font-size="10.00">traffic_mngr.h</text>
</a>
</g>
</g>
<!-- Node1&#45;&gt;Node12 -->
<g id="edge11" class="edge">
<title>Node1&#45;&gt;Node12</title>
<path fill="none" stroke="midnightblue" d="M1821.41,-176.5C1692.91,-174.7 1325.6,-166.68 1022.5,-132 1019.64,-131.67 1016.7,-131.29 1013.74,-130.86"/>
<polygon fill="midnightblue" stroke="midnightblue" points="1821.63,-180 1831.67,-176.64 1821.72,-173 1821.63,-180"/>
</g>
<!-- Node13 -->
<g id="node13" class="node">
<title>Node13</title>
<g id="a_node13"><a xlink:href="barrier_8h.html" target="_top" xlink:title=" ">
<polygon fill="white" stroke="black" points="1032,-112.5 1032,-131.5 1089,-131.5 1089,-112.5 1032,-112.5"/>
<text text-anchor="middle" x="1060.5" y="-119.5" font-family="Helvetica,sans-Serif" font-size="10.00">barrier.h</text>
</a>
</g>
</g>
<!-- Node1&#45;&gt;Node13 -->
<g id="edge12" class="edge">
<title>Node1&#45;&gt;Node13</title>
<path fill="none" stroke="midnightblue" d="M1821.38,-176.64C1701.19,-175.2 1373.6,-168.01 1103.5,-132 1098.81,-131.38 1093.87,-130.52 1089.08,-129.6"/>
<polygon fill="midnightblue" stroke="midnightblue" points="1821.65,-180.14 1831.69,-176.76 1821.73,-173.14 1821.65,-180.14"/>
</g>
<!-- Node14 -->
<g id="node14" class="node">
<title>Node14</title>
<g id="a_node14"><a xlink:href="classification_8h.html" target="_top" xlink:title=" ">
<polygon fill="white" stroke="black" points="1446,-56.5 1446,-75.5 1535,-75.5 1535,-56.5 1446,-56.5"/>
<text text-anchor="middle" x="1490.5" y="-63.5" font-family="Helvetica,sans-Serif" font-size="10.00">classification.h</text>
</a>
</g>
</g>
<!-- Node1&#45;&gt;Node14 -->
<g id="edge13" class="edge">
<title>Node1&#45;&gt;Node14</title>
<path fill="none" stroke="midnightblue" d="M1821.62,-175.34C1718.78,-171.2 1480.53,-158.8 1456.5,-132 1441.03,-114.74 1464.74,-89.17 1479.74,-75.83"/>
<polygon fill="midnightblue" stroke="midnightblue" points="1821.6,-178.84 1831.73,-175.73 1821.87,-171.84 1821.6,-178.84"/>
</g>
<!-- Node15 -->
<g id="node15" class="node">
<title>Node15</title>
<g id="a_node15"><a xlink:href="spec_2ipsec_8h.html" target="_top" xlink:title=" ">
<polygon fill="white" stroke="red" points="1167,-0.5 1167,-19.5 1218,-19.5 1218,-0.5 1167,-0.5"/>
<text text-anchor="middle" x="1192.5" y="-7.5" font-family="Helvetica,sans-Serif" font-size="10.00">ipsec.h</text>
</a>
</g>
</g>
<!-- Node1&#45;&gt;Node15 -->
<g id="edge32" class="edge">
<title>Node1&#45;&gt;Node15</title>
<path fill="none" stroke="midnightblue" d="M1821.51,-177.32C1671.79,-177.9 1212.96,-176.04 1164.5,-132 1139.33,-109.12 1144.03,-88.02 1155.5,-56 1160.75,-41.34 1173.08,-28.03 1182.06,-19.76"/>
<polygon fill="midnightblue" stroke="midnightblue" points="1821.76,-180.82 1831.74,-177.28 1821.73,-173.82 1821.76,-180.82"/>
</g>
<!-- Node19 -->
<g id="node17" class="node">
<title>Node19</title>
<g id="a_node17"><a xlink:href="crypto_8h.html" target="_top" xlink:title=" ">
<polygon fill="white" stroke="black" points="1164.5,-56.5 1164.5,-75.5 1220.5,-75.5 1220.5,-56.5 1164.5,-56.5"/>
<text text-anchor="middle" x="1192.5" y="-63.5" font-family="Helvetica,sans-Serif" font-size="10.00">crypto.h</text>
</a>
</g>
</g>
<!-- Node1&#45;&gt;Node19 -->
<g id="edge16" class="edge">
<title>Node1&#45;&gt;Node19</title>
<path fill="none" stroke="midnightblue" d="M1821.37,-177.58C1672.35,-178.91 1218.6,-179.05 1174.5,-132 1159.77,-116.28 1175.51,-89.58 1185.53,-75.8"/>
<polygon fill="midnightblue" stroke="midnightblue" points="1821.6,-181.07 1831.56,-177.48 1821.53,-174.07 1821.6,-181.07"/>
</g>
<!-- Node20 -->
<g id="node18" class="node">
<title>Node20</title>
<g id="a_node18"><a xlink:href="proto__stats_8h.html" target="_top" xlink:title=" ">
<polygon fill="white" stroke="black" points="1257.5,-112.5 1257.5,-131.5 1337.5,-131.5 1337.5,-112.5 1257.5,-112.5"/>
<text text-anchor="middle" x="1297.5" y="-119.5" font-family="Helvetica,sans-Serif" font-size="10.00">proto_stats.h</text>
</a>
</g>
</g>
<!-- Node1&#45;&gt;Node20 -->
<g id="edge18" class="edge">
<title>Node1&#45;&gt;Node20</title>
<path fill="none" stroke="midnightblue" d="M1821.94,-174.49C1730.51,-169.22 1521.19,-155.52 1346.5,-132 1343.59,-131.61 1340.58,-131.16 1337.56,-130.68"/>
<polygon fill="midnightblue" stroke="midnightblue" points="1821.8,-177.98 1831.98,-175.06 1822.19,-170.99 1821.8,-177.98"/>
</g>
<!-- Node21 -->
<g id="node19" class="node">
<title>Node21</title>
<g id="a_node19"><a xlink:href="spec_2buffer_8h.html" target="_top" xlink:title=" ">
<polygon fill="white" stroke="black" points="1356,-112.5 1356,-131.5 1409,-131.5 1409,-112.5 1356,-112.5"/>
<text text-anchor="middle" x="1382.5" y="-119.5" font-family="Helvetica,sans-Serif" font-size="10.00">buffer.h</text>
</a>
</g>
</g>
<!-- Node1&#45;&gt;Node21 -->
<g id="edge19" class="edge">
<title>Node1&#45;&gt;Node21</title>
<path fill="none" stroke="midnightblue" d="M1821.57,-174.04C1740.18,-168.51 1567.7,-155.04 1423.5,-132 1418.89,-131.26 1414.03,-130.33 1409.32,-129.35"/>
<polygon fill="midnightblue" stroke="midnightblue" points="1821.76,-177.56 1831.98,-174.74 1822.23,-170.58 1821.76,-177.56"/>
</g>
<!-- Node23 -->
<g id="node21" class="node">
<title>Node23</title>
<g id="a_node21"><a xlink:href="spec_2chksum_8h.html" target="_top" xlink:title=" ">
<polygon fill="white" stroke="black" points="1705.5,-112.5 1705.5,-131.5 1769.5,-131.5 1769.5,-112.5 1705.5,-112.5"/>
<text text-anchor="middle" x="1737.5" y="-119.5" font-family="Helvetica,sans-Serif" font-size="10.00">chksum.h</text>
</a>
</g>
</g>
<!-- Node1&#45;&gt;Node23 -->
<g id="edge21" class="edge">
<title>Node1&#45;&gt;Node23</title>
<path fill="none" stroke="midnightblue" d="M1838.18,-164.5C1813.62,-154.38 1779.68,-140.39 1758.16,-131.52"/>
<polygon fill="midnightblue" stroke="midnightblue" points="1837.16,-167.87 1847.74,-168.44 1839.83,-161.4 1837.16,-167.87"/>
</g>
<!-- Node25 -->
<g id="node23" class="node">
<title>Node25</title>
<g id="a_node23"><a xlink:href="spec_2classification_8h.html" target="_top" xlink:title=" ">
<polygon fill="white" stroke="black" points="1466,-112.5 1466,-131.5 1555,-131.5 1555,-112.5 1466,-112.5"/>
<text text-anchor="middle" x="1510.5" y="-119.5" font-family="Helvetica,sans-Serif" font-size="10.00">classification.h</text>
</a>
</g>
</g>
<!-- Node1&#45;&gt;Node25 -->
<g id="edge23" class="edge">
<title>Node1&#45;&gt;Node25</title>
<path fill="none" stroke="midnightblue" d="M1821.73,-170.35C1762,-161.79 1655.49,-146.32 1564.5,-132 1561.5,-131.53 1558.4,-131.03 1555.28,-130.53"/>
<polygon fill="midnightblue" stroke="midnightblue" points="1821.57,-173.86 1831.97,-171.81 1822.56,-166.93 1821.57,-173.86"/>
</g>
<!-- Node26 -->
<g id="node24" class="node">
<title>Node26</title>
<g id="a_node24"><a xlink:href="spec_2comp_8h.html" target="_top" xlink:title=" ">
<polygon fill="white" stroke="red" points="1573,-112.5 1573,-131.5 1626,-131.5 1626,-112.5 1573,-112.5"/>
<text text-anchor="middle" x="1599.5" y="-119.5" font-family="Helvetica,sans-Serif" font-size="10.00">comp.h</text>
</a>
</g>
</g>
<!-- Node1&#45;&gt;Node26 -->
<g id="edge25" class="edge">
<title>Node1&#45;&gt;Node26</title>
<path fill="none" stroke="midnightblue" d="M1821.73,-168.74C1774.58,-160.23 1699.77,-146.23 1635.5,-132 1632.48,-131.33 1629.33,-130.6 1626.2,-129.85"/>
<polygon fill="midnightblue" stroke="midnightblue" points="1821.19,-172.2 1831.65,-170.52 1822.43,-165.31 1821.19,-172.2"/>
</g>
<!-- Node28 -->
<g id="node25" class="node">
<title>Node28</title>
<g id="a_node25"><a xlink:href="spec_2cpu_8h.html" target="_top" xlink:title=" ">
<polygon fill="white" stroke="red" points="1644,-112.5 1644,-131.5 1687,-131.5 1687,-112.5 1644,-112.5"/>
<text text-anchor="middle" x="1665.5" y="-119.5" font-family="Helvetica,sans-Serif" font-size="10.00">cpu.h</text>
</a>
</g>
</g>
<!-- Node1&#45;&gt;Node28 -->
<g id="edge26" class="edge">
<title>Node1&#45;&gt;Node28</title>
<path fill="none" stroke="midnightblue" d="M1824.97,-165.95C1790.14,-157.03 1740.1,-144.03 1696.5,-132 1693.47,-131.17 1690.29,-130.27 1687.16,-129.37"/>
<polygon fill="midnightblue" stroke="midnightblue" points="1824.26,-169.38 1834.81,-168.47 1825.99,-162.6 1824.26,-169.38"/>
</g>
<!-- Node31 -->
<g id="node26" class="node">
<title>Node31</title>
<g id="a_node26"><a xlink:href="spec_2crypto_8h.html" target="_top" xlink:title=" ">
<polygon fill="white" stroke="black" points="1183.5,-112.5 1183.5,-131.5 1239.5,-131.5 1239.5,-112.5 1183.5,-112.5"/>
<text text-anchor="middle" x="1211.5" y="-119.5" font-family="Helvetica,sans-Serif" font-size="10.00">crypto.h</text>
</a>
</g>
</g>
<!-- Node1&#45;&gt;Node31 -->
<g id="edge27" class="edge">
<title>Node1&#45;&gt;Node31</title>
<path fill="none" stroke="midnightblue" d="M1821.78,-176.25C1718.04,-174.02 1460.84,-165.29 1248.5,-132 1245.63,-131.55 1242.65,-130.99 1239.68,-130.37"/>
<polygon fill="midnightblue" stroke="midnightblue" points="1821.85,-179.76 1831.92,-176.46 1821.99,-172.76 1821.85,-179.76"/>
</g>
<!-- Node32 -->
<g id="node27" class="node">
<title>Node32</title>
<g id="a_node27"><a xlink:href="spec_2dma__types_8h.html" target="_top" xlink:title=" ">
<polygon fill="white" stroke="red" points="1787.5,-112.5 1787.5,-131.5 1867.5,-131.5 1867.5,-112.5 1787.5,-112.5"/>
<text text-anchor="middle" x="1827.5" y="-119.5" font-family="Helvetica,sans-Serif" font-size="10.00">dma_types.h</text>
</a>
</g>
</g>
<!-- Node1&#45;&gt;Node32 -->
<g id="edge29" class="edge">
<title>Node1&#45;&gt;Node32</title>
<path fill="none" stroke="midnightblue" d="M1855.48,-159.86C1848.38,-150.5 1839.9,-139.33 1834.14,-131.75"/>
<polygon fill="midnightblue" stroke="midnightblue" points="1852.89,-162.24 1861.73,-168.08 1858.47,-158 1852.89,-162.24"/>
</g>
<!-- Node49 -->
<g id="node28" class="node">
<title>Node49</title>
<g id="a_node28"><a xlink:href="spec_2hash_8h.html" target="_top" xlink:title=" ">
<polygon fill="white" stroke="red" points="1886,-112.5 1886,-131.5 1935,-131.5 1935,-112.5 1886,-112.5"/>
<text text-anchor="middle" x="1910.5" y="-119.5" font-family="Helvetica,sans-Serif" font-size="10.00">hash.h</text>
</a>
</g>
</g>
<!-- Node1&#45;&gt;Node49 -->
<g id="edge30" class="edge">
<title>Node1&#45;&gt;Node49</title>
<path fill="none" stroke="midnightblue" d="M1881.61,-160.14C1888.93,-150.74 1897.74,-139.4 1903.69,-131.75"/>
<polygon fill="midnightblue" stroke="midnightblue" points="1878.81,-158.04 1875.44,-168.08 1884.34,-162.34 1878.81,-158.04"/>
</g>
<!-- Node51 -->
<g id="node29" class="node">
<title>Node51</title>
<g id="a_node29"><a xlink:href="spec_2init_8h.html" target="_top" xlink:title=" ">
<polygon fill="white" stroke="red" points="1953,-112.5 1953,-131.5 1994,-131.5 1994,-112.5 1953,-112.5"/>
<text text-anchor="middle" x="1973.5" y="-119.5" font-family="Helvetica,sans-Serif" font-size="10.00">init.h</text>
</a>
</g>
</g>
<!-- Node1&#45;&gt;Node51 -->
<g id="edge31" class="edge">
<title>Node1&#45;&gt;Node51</title>
<path fill="none" stroke="midnightblue" d="M1894.31,-163.73C1913.75,-153.73 1939.85,-140.31 1956.67,-131.65"/>
<polygon fill="midnightblue" stroke="midnightblue" points="1892.66,-160.64 1885.37,-168.32 1895.86,-166.86 1892.66,-160.64"/>
</g>
<!-- Node38 -->
<g id="node30" class="node">
<title>Node38</title>
<g id="a_node30"><a xlink:href="spec_2packet_8h.html" target="_top" xlink:title=" ">
<polygon fill="white" stroke="red" points="2418.5,-56.5 2418.5,-75.5 2476.5,-75.5 2476.5,-56.5 2418.5,-56.5"/>
<text text-anchor="middle" x="2447.5" y="-63.5" font-family="Helvetica,sans-Serif" font-size="10.00">packet.h</text>
</a>
</g>
</g>
<!-- Node1&#45;&gt;Node38 -->
<g id="edge33" class="edge">
<title>Node1&#45;&gt;Node38</title>
<path fill="none" stroke="midnightblue" d="M1908.71,-165.48C1935.89,-157.23 1972.37,-145.28 2003.5,-132 2021.06,-124.51 2023.25,-117.59 2041.5,-112 2177.96,-70.17 2350.78,-66.3 2418.46,-66.56"/>
<polygon fill="midnightblue" stroke="midnightblue" points="1907.36,-162.23 1898.78,-168.45 1909.36,-168.93 1907.36,-162.23"/>
</g>
<!-- Node56 -->
<g id="node31" class="node">
<title>Node56</title>
<g id="a_node31"><a xlink:href="spec_2packet__flags_8h.html" target="_top" xlink:title=" ">
<polygon fill="white" stroke="red" points="2050.5,-112.5 2050.5,-131.5 2136.5,-131.5 2136.5,-112.5 2050.5,-112.5"/>
<text text-anchor="middle" x="2093.5" y="-119.5" font-family="Helvetica,sans-Serif" font-size="10.00">packet_flags.h</text>
</a>
</g>
</g>
<!-- Node1&#45;&gt;Node56 -->
<g id="edge34" class="edge">
<title>Node1&#45;&gt;Node56</title>
<path fill="none" stroke="midnightblue" d="M1913.97,-166.09C1956.47,-155.89 2019.08,-140.86 2058.01,-131.52"/>
<polygon fill="midnightblue" stroke="midnightblue" points="1913.06,-162.71 1904.15,-168.44 1914.69,-169.51 1913.06,-162.71"/>
</g>
<!-- Node40 -->
<g id="node32" class="node">
<title>Node40</title>
<g id="a_node32"><a xlink:href="spec_2packet__io__types_8h.html" target="_top" xlink:title=" ">
<polygon fill="white" stroke="red" points="2154.5,-112.5 2154.5,-131.5 2258.5,-131.5 2258.5,-112.5 2154.5,-112.5"/>
<text text-anchor="middle" x="2206.5" y="-119.5" font-family="Helvetica,sans-Serif" font-size="10.00">packet_io_types.h</text>
</a>
</g>
</g>
<!-- Node1&#45;&gt;Node40 -->
<g id="edge35" class="edge">
<title>Node1&#45;&gt;Node40</title>
<path fill="none" stroke="midnightblue" d="M1915.32,-169.52C1978.03,-159.5 2088.95,-141.78 2154.29,-131.34"/>
<polygon fill="midnightblue" stroke="midnightblue" points="1914.64,-166.08 1905.32,-171.12 1915.74,-173 1914.64,-166.08"/>
</g>
<!-- Node44 -->
<g id="node33" class="node">
<title>Node44</title>
<g id="a_node33"><a xlink:href="spec_2pool_8h.html" target="_top" xlink:title=" ">
<polygon fill="white" stroke="red" points="2277,-112.5 2277,-131.5 2324,-131.5 2324,-112.5 2277,-112.5"/>
<text text-anchor="middle" x="2300.5" y="-119.5" font-family="Helvetica,sans-Serif" font-size="10.00">pool.h</text>
</a>
</g>
</g>
<!-- Node1&#45;&gt;Node44 -->
<g id="edge36" class="edge">
<title>Node1&#45;&gt;Node44</title>
<path fill="none" stroke="midnightblue" d="M1915.13,-174.08C1989.97,-168.87 2141.3,-156.18 2267.5,-132 2270.53,-131.42 2273.7,-130.7 2276.81,-129.93"/>
<polygon fill="midnightblue" stroke="midnightblue" points="1914.83,-170.59 1905.09,-174.76 1915.31,-177.57 1914.83,-170.59"/>
</g>
<!-- Node36 -->
<g id="node34" class="node">
<title>Node36</title>
<g id="a_node34"><a xlink:href="spec_2pool__types_8h.html" target="_top" xlink:title=" ">
<polygon fill="white" stroke="red" points="2342,-112.5 2342,-131.5 2421,-131.5 2421,-112.5 2342,-112.5"/>
<text text-anchor="middle" x="2381.5" y="-119.5" font-family="Helvetica,sans-Serif" font-size="10.00">pool_types.h</text>
</a>
</g>
</g>
<!-- Node1&#45;&gt;Node36 -->
<g id="edge37" class="edge">
<title>Node1&#45;&gt;Node36</title>
<path fill="none" stroke="midnightblue" d="M1915.08,-173.87C1999.01,-167.92 2181.06,-153.62 2333.5,-132 2336.27,-131.61 2339.12,-131.17 2341.99,-130.7"/>
<polygon fill="midnightblue" stroke="midnightblue" points="1914.83,-170.38 1905.1,-174.57 1915.32,-177.36 1914.83,-170.38"/>
</g>
<!-- Node58 -->
<g id="node35" class="node">
<title>Node58</title>
<g id="a_node35"><a xlink:href="spec_2proto__stats__types_8h.html" target="_top" xlink:title=" ">
<polygon fill="white" stroke="red" points="2439,-112.5 2439,-131.5 2552,-131.5 2552,-112.5 2439,-112.5"/>
<text text-anchor="middle" x="2495.5" y="-119.5" font-family="Helvetica,sans-Serif" font-size="10.00">proto_stats_types.h</text>
</a>
</g>
</g>
<!-- Node1&#45;&gt;Node58 -->
<g id="edge38" class="edge">
<title>Node1&#45;&gt;Node58</title>
<path fill="none" stroke="midnightblue" d="M1915.06,-174.18C2011.43,-168.15 2239.68,-152.83 2430.5,-132 2433.22,-131.7 2436,-131.38 2438.8,-131.05"/>
<polygon fill="midnightblue" stroke="midnightblue" points="1914.82,-170.69 1905.06,-174.81 1915.26,-177.68 1914.82,-170.69"/>
</g>
<!-- Node66 -->
<g id="node36" class="node">
<title>Node66</title>
<g id="a_node36"><a xlink:href="spec_2queue_8h.html" target="_top" xlink:title=" ">
<polygon fill="white" stroke="red" points="2570.5,-112.5 2570.5,-131.5 2626.5,-131.5 2626.5,-112.5 2570.5,-112.5"/>
<text text-anchor="middle" x="2598.5" y="-119.5" font-family="Helvetica,sans-Serif" font-size="10.00">queue.h</text>
</a>
</g>
</g>
<!-- Node1&#45;&gt;Node66 -->
<g id="edge39" class="edge">
<title>Node1&#45;&gt;Node66</title>
<path fill="none" stroke="midnightblue" d="M1915.48,-176.76C2027.8,-175.56 2320.48,-168.85 2561.5,-132 2564.38,-131.56 2567.36,-131.01 2570.32,-130.39"/>
<polygon fill="midnightblue" stroke="midnightblue" points="1915.15,-173.26 1905.18,-176.85 1915.22,-180.26 1915.15,-173.26"/>
</g>
<!-- Node68 -->
<g id="node37" class="node">
<title>Node68</title>
<g id="a_node37"><a xlink:href="spec_2random_8h.html" target="_top" xlink:title=" ">
<polygon fill="white" stroke="red" points="2645,-112.5 2645,-131.5 2708,-131.5 2708,-112.5 2645,-112.5"/>
<text text-anchor="middle" x="2676.5" y="-119.5" font-family="Helvetica,sans-Serif" font-size="10.00">random.h</text>
</a>
</g>
</g>
<!-- Node1&#45;&gt;Node68 -->
<g id="edge40" class="edge">
<title>Node1&#45;&gt;Node68</title>
<path fill="none" stroke="midnightblue" d="M1915.34,-176.81C2035.54,-175.78 2364.55,-169.45 2635.5,-132 2638.53,-131.58 2641.67,-131.06 2644.8,-130.47"/>
<polygon fill="midnightblue" stroke="midnightblue" points="1915,-173.31 1905.03,-176.89 1915.06,-180.31 1915,-173.31"/>
</g>
<!-- Node70 -->
<g id="node38" class="node">
<title>Node70</title>
<g id="a_node38"><a xlink:href="spec_2random__types_8h.html" target="_top" xlink:title=" ">
<polygon fill="white" stroke="red" points="2726,-112.5 2726,-131.5 2821,-131.5 2821,-112.5 2726,-112.5"/>
<text text-anchor="middle" x="2773.5" y="-119.5" font-family="Helvetica,sans-Serif" font-size="10.00">random_types.h</text>
</a>
</g>
</g>
<!-- Node1&#45;&gt;Node70 -->
<g id="edge41" class="edge">
<title>Node1&#45;&gt;Node70</title>
<path fill="none" stroke="midnightblue" d="M1915.28,-176.27C2043.75,-173.87 2412.71,-164.48 2717.5,-132 2720.24,-131.71 2723.05,-131.37 2725.89,-131.01"/>
<polygon fill="midnightblue" stroke="midnightblue" points="1914.95,-172.77 1905.02,-176.45 1915.08,-179.77 1914.95,-172.77"/>
</g>
<!-- Node72 -->
<g id="node39" class="node">
<title>Node72</title>
<g id="a_node39"><a xlink:href="spec_2reassembly_8h.html" target="_top" xlink:title=" ">
<polygon fill="white" stroke="red" points="2839,-112.5 2839,-131.5 2920,-131.5 2920,-112.5 2839,-112.5"/>
<text text-anchor="middle" x="2879.5" y="-119.5" font-family="Helvetica,sans-Serif" font-size="10.00">reassembly.h</text>
</a>
</g>
</g>
<!-- Node1&#45;&gt;Node72 -->
<g id="edge42" class="edge">
<title>Node1&#45;&gt;Node72</title>
<path fill="none" stroke="midnightblue" d="M1915.7,-177.04C2055.72,-176.68 2480.82,-172.11 2830.5,-132 2833.25,-131.68 2836.08,-131.31 2838.92,-130.89"/>
<polygon fill="midnightblue" stroke="midnightblue" points="1915.33,-173.54 1905.34,-177.06 1915.35,-180.54 1915.33,-173.54"/>
</g>
<!-- Node74 -->
<g id="node40" class="node">
<title>Node74</title>
<g id="a_node40"><a xlink:href="spec_2schedule_8h.html" target="_top" xlink:title=" ">
<polygon fill="white" stroke="red" points="2938,-112.5 2938,-131.5 3007,-131.5 3007,-112.5 2938,-112.5"/>
<text text-anchor="middle" x="2972.5" y="-119.5" font-family="Helvetica,sans-Serif" font-size="10.00">schedule.h</text>
</a>
</g>
</g>
<!-- Node1&#45;&gt;Node74 -->
<g id="edge43" class="edge">
<title>Node1&#45;&gt;Node74</title>
<path fill="none" stroke="midnightblue" d="M1915.1,-176.04C2092.92,-172.22 2728.83,-157.08 2929.5,-132 2932.22,-131.66 2935.03,-131.24 2937.85,-130.76"/>
<polygon fill="midnightblue" stroke="midnightblue" points="1914.95,-172.54 1905.03,-176.26 1915.1,-179.54 1914.95,-172.54"/>
</g>
<!-- Node76 -->
<g id="node41" class="node">
<title>Node76</title>
<g id="a_node41"><a xlink:href="spec_2schedule__types_8h.html" target="_top" xlink:title=" ">
<polygon fill="white" stroke="red" points="3025,-112.5 3025,-131.5 3126,-131.5 3126,-112.5 3025,-112.5"/>
<text text-anchor="middle" x="3075.5" y="-119.5" font-family="Helvetica,sans-Serif" font-size="10.00">schedule_types.h</text>
</a>
</g>
</g>
<!-- Node1&#45;&gt;Node76 -->
<g id="edge44" class="edge">
<title>Node1&#45;&gt;Node76</title>
<path fill="none" stroke="midnightblue" d="M1915.49,-177.04C2072.11,-176.79 2590.46,-172.71 3016.5,-132 3019.18,-131.74 3021.93,-131.45 3024.7,-131.12"/>
<polygon fill="midnightblue" stroke="midnightblue" points="1915.27,-173.54 1905.28,-177.06 1915.28,-180.54 1915.27,-173.54"/>
</g>
<!-- Node84 -->
<g id="node42" class="node">
<title>Node84</title>
<g id="a_node42"><a xlink:href="spec_2stash_8h.html" target="_top" xlink:title=" ">
<polygon fill="white" stroke="red" points="3144.5,-112.5 3144.5,-131.5 3196.5,-131.5 3196.5,-112.5 3144.5,-112.5"/>
<text text-anchor="middle" x="3170.5" y="-119.5" font-family="Helvetica,sans-Serif" font-size="10.00">stash.h</text>
</a>
</g>
</g>
<!-- Node1&#45;&gt;Node84 -->
<g id="edge45" class="edge">
<title>Node1&#45;&gt;Node84</title>
<path fill="none" stroke="midnightblue" d="M1915.41,-176.69C2114.85,-175.17 2893.13,-167.04 3135.5,-132 3138.36,-131.59 3141.32,-131.03 3144.25,-130.4"/>
<polygon fill="midnightblue" stroke="midnightblue" points="1915.24,-173.19 1905.27,-176.77 1915.29,-180.19 1915.24,-173.19"/>
</g>
<!-- Node86 -->
<g id="node43" class="node">
<title>Node86</title>
<g id="a_node43"><a xlink:href="spec_2std_8h.html" target="_top" xlink:title=" ">
<polygon fill="white" stroke="red" points="3215,-112.5 3215,-131.5 3256,-131.5 3256,-112.5 3215,-112.5"/>
<text text-anchor="middle" x="3235.5" y="-119.5" font-family="Helvetica,sans-Serif" font-size="10.00">std.h</text>
</a>
</g>
</g>
<!-- Node1&#45;&gt;Node86 -->
<g id="edge46" class="edge">
<title>Node1&#45;&gt;Node86</title>
<path fill="none" stroke="midnightblue" d="M1915.32,-177.04C2121.47,-176.96 2949.39,-174 3205.5,-132 3208.5,-131.51 3211.63,-130.8 3214.68,-129.99"/>
<polygon fill="midnightblue" stroke="midnightblue" points="1915.14,-173.54 1905.14,-177.04 1915.14,-180.54 1915.14,-173.54"/>
</g>
<!-- Node88 -->
<g id="node44" class="node">
<title>Node88</title>
<g id="a_node44"><a xlink:href="spec_2threshold_8h.html" target="_top" xlink:title=" ">
<polygon fill="white" stroke="red" points="3274,-112.5 3274,-131.5 3345,-131.5 3345,-112.5 3274,-112.5"/>
<text text-anchor="middle" x="3309.5" y="-119.5" font-family="Helvetica,sans-Serif" font-size="10.00">threshold.h</text>
</a>
</g>
</g>
<!-- Node1&#45;&gt;Node88 -->
<g id="edge47" class="edge">
<title>Node1&#45;&gt;Node88</title>
<path fill="none" stroke="midnightblue" d="M1915.26,-176.56C2126.78,-174.4 2995.32,-163.75 3265.5,-132 3268.13,-131.69 3270.84,-131.3 3273.56,-130.87"/>
<polygon fill="midnightblue" stroke="midnightblue" points="1915.08,-173.06 1905.12,-176.66 1915.16,-180.06 1915.08,-173.06"/>
</g>
<!-- Node90 -->
<g id="node45" class="node">
<title>Node90</title>
<g id="a_node45"><a xlink:href="spec_2thrmask_8h.html" target="_top" xlink:title=" ">
<polygon fill="white" stroke="red" points="3363.5,-112.5 3363.5,-131.5 3429.5,-131.5 3429.5,-112.5 3363.5,-112.5"/>
<text text-anchor="middle" x="3396.5" y="-119.5" font-family="Helvetica,sans-Serif" font-size="10.00">thrmask.h</text>
</a>
</g>
</g>
<!-- Node1&#45;&gt;Node90 -->
<g id="edge48" class="edge">
<title>Node1&#45;&gt;Node90</title>
<path fill="none" stroke="midnightblue" d="M1915.36,-176.72C2135.24,-175.24 3066,-166.99 3354.5,-132 3357.31,-131.66 3360.22,-131.22 3363.12,-130.72"/>
<polygon fill="midnightblue" stroke="midnightblue" points="1915.11,-173.22 1905.14,-176.79 1915.16,-180.22 1915.11,-173.22"/>
</g>
<!-- Node92 -->
<g id="node46" class="node">
<title>Node92</title>
<g id="a_node46"><a xlink:href="spec_2timer__types_8h.html" target="_top" xlink:title=" ">
<polygon fill="white" stroke="red" points="3447.5,-112.5 3447.5,-131.5 3531.5,-131.5 3531.5,-112.5 3447.5,-112.5"/>
<text text-anchor="middle" x="3489.5" y="-119.5" font-family="Helvetica,sans-Serif" font-size="10.00">timer_types.h</text>
</a>
</g>
</g>
<!-- Node1&#45;&gt;Node92 -->
<g id="edge49" class="edge">
<title>Node1&#45;&gt;Node92</title>
<path fill="none" stroke="midnightblue" d="M1915.39,-176.58C2142.74,-174.4 3131.91,-163.28 3438.5,-132 3441.36,-131.71 3444.31,-131.35 3447.27,-130.94"/>
<polygon fill="midnightblue" stroke="midnightblue" points="1915.11,-173.08 1905.14,-176.68 1915.18,-180.08 1915.11,-173.08"/>
</g>
<!-- Node42 -->
<g id="node47" class="node">
<title>Node42</title>
<g id="a_node47"><a xlink:href="spec_2traffic__mngr_8h.html" target="_top" xlink:title=" ">
<polygon fill="white" stroke="red" points="3549.5,-112.5 3549.5,-131.5 3633.5,-131.5 3633.5,-112.5 3549.5,-112.5"/>
<text text-anchor="middle" x="3591.5" y="-119.5" font-family="Helvetica,sans-Serif" font-size="10.00">traffic_mngr.h</text>
</a>
</g>
</g>
<!-- Node1&#45;&gt;Node42 -->
<g id="edge50" class="edge">
<title>Node1&#45;&gt;Node42</title>
<path fill="none" stroke="midnightblue" d="M1915.35,-176.68C2151.46,-174.9 3212.57,-165.16 3540.5,-132 3543.36,-131.71 3546.31,-131.35 3549.27,-130.95"/>
<polygon fill="midnightblue" stroke="midnightblue" points="1915.03,-173.18 1905.05,-176.75 1915.08,-180.18 1915.03,-173.18"/>
</g>
<!-- Node94 -->
<g id="node48" class="node">
<title>Node94</title>
<g id="a_node48"><a xlink:href="system__info_8h.html" target="_top" xlink:title=" ">
<polygon fill="white" stroke="black" points="3651.5,-112.5 3651.5,-131.5 3737.5,-131.5 3737.5,-112.5 3651.5,-112.5"/>
<text text-anchor="middle" x="3694.5" y="-119.5" font-family="Helvetica,sans-Serif" font-size="10.00">system_info.h</text>
</a>
</g>
</g>
<!-- Node1&#45;&gt;Node94 -->
<g id="edge51" class="edge">
<title>Node1&#45;&gt;Node94</title>
<path fill="none" stroke="midnightblue" d="M1915.42,-176.74C2160.25,-175.23 3293.19,-166.47 3642.5,-132 3645.42,-131.71 3648.42,-131.36 3651.44,-130.95"/>
<polygon fill="midnightblue" stroke="midnightblue" points="1915.08,-173.24 1905.1,-176.8 1915.12,-180.24 1915.08,-173.24"/>
</g>
<!-- Node95 -->
<g id="node49" class="node">
<title>Node95</title>
<g id="a_node49"><a xlink:href="time_8h.html" target="_top" xlink:title=" ">
<polygon fill="white" stroke="red" points="3755.5,-112.5 3755.5,-131.5 3803.5,-131.5 3803.5,-112.5 3755.5,-112.5"/>
<text text-anchor="middle" x="3779.5" y="-119.5" font-family="Helvetica,sans-Serif" font-size="10.00">time.h</text>
</a>
</g>
</g>
<!-- Node1&#45;&gt;Node95 -->
<g id="edge52" class="edge">
<title>Node1&#45;&gt;Node95</title>
<path fill="none" stroke="midnightblue" d="M1915.43,-176.56C2187.89,-173.89 3560.6,-159.17 3746.5,-132 3749.44,-131.57 3752.49,-130.97 3755.49,-130.27"/>
<polygon fill="midnightblue" stroke="midnightblue" points="1915.07,-173.06 1905.11,-176.66 1915.14,-180.06 1915.07,-173.06"/>
</g>
<!-- Node96 -->
<g id="node50" class="node">
<title>Node96</title>
<g id="a_node50"><a xlink:href="strong__types_8h.html" target="_top" xlink:title=" ">
<polygon fill="white" stroke="black" points="3822,-112.5 3822,-131.5 3911,-131.5 3911,-112.5 3822,-112.5"/>
<text text-anchor="middle" x="3866.5" y="-119.5" font-family="Helvetica,sans-Serif" font-size="10.00">strong_types.h</text>
</a>
</g>
</g>
<!-- Node1&#45;&gt;Node96 -->
<g id="edge55" class="edge">
<title>Node1&#45;&gt;Node96</title>
<path fill="none" stroke="midnightblue" d="M1915.3,-176.82C2173.6,-175.69 3427.34,-168.37 3812.5,-132 3815.53,-131.71 3818.64,-131.36 3821.78,-130.96"/>
<polygon fill="midnightblue" stroke="midnightblue" points="1915.12,-173.32 1905.14,-176.86 1915.15,-180.32 1915.12,-173.32"/>
</g>
<!-- Node14&#45;&gt;Node15 -->
<g id="edge14" class="edge">
<title>Node14&#45;&gt;Node15</title>
<path fill="none" stroke="midnightblue" d="M1435.86,-55.1C1371.16,-43.37 1266.12,-24.34 1218.02,-15.62"/>
<polygon fill="midnightblue" stroke="midnightblue" points="1435.42,-58.58 1445.89,-56.92 1436.67,-51.69 1435.42,-58.58"/>
</g>
<!-- Node17 -->
<g id="node16" class="node">
<title>Node17</title>
<g id="a_node16"><a xlink:href="spec_2packet__io_8h.html" target="_top" xlink:title=" ">
<polygon fill="white" stroke="red" points="2173.5,-0.5 2173.5,-19.5 2245.5,-19.5 2245.5,-0.5 2173.5,-0.5"/>
<text text-anchor="middle" x="2209.5" y="-7.5" font-family="Helvetica,sans-Serif" font-size="10.00">packet_io.h</text>
</a>
</g>
</g>
<!-- Node14&#45;&gt;Node17 -->
<g id="edge15" class="edge">
<title>Node14&#45;&gt;Node17</title>
<path fill="none" stroke="midnightblue" d="M1545.31,-60.88C1685.82,-50.33 2056,-22.53 2173.3,-13.72"/>
<polygon fill="midnightblue" stroke="midnightblue" points="1544.91,-57.4 1535.21,-61.64 1545.44,-64.38 1544.91,-57.4"/>
</g>
<!-- Node19&#45;&gt;Node15 -->
<g id="edge17" class="edge">
<title>Node19&#45;&gt;Node15</title>
<path fill="none" stroke="midnightblue" d="M1192.5,-45.8C1192.5,-36.91 1192.5,-26.78 1192.5,-19.75"/>
<polygon fill="midnightblue" stroke="midnightblue" points="1189,-46.08 1192.5,-56.08 1196,-46.08 1189,-46.08"/>
</g>
<!-- Node22 -->
<g id="node20" class="node">
<title>Node22</title>
<g id="a_node20"><a xlink:href="buffer_8h.html" target="_top" xlink:title=" ">
<polygon fill="white" stroke="black" points="1356,-56.5 1356,-75.5 1409,-75.5 1409,-56.5 1356,-56.5"/>
<text text-anchor="middle" x="1382.5" y="-63.5" font-family="Helvetica,sans-Serif" font-size="10.00">buffer.h</text>
</a>
</g>
</g>
<!-- Node21&#45;&gt;Node22 -->
<g id="edge20" class="edge">
<title>Node21&#45;&gt;Node22</title>
<path fill="none" stroke="midnightblue" d="M1382.5,-101.8C1382.5,-92.91 1382.5,-82.78 1382.5,-75.75"/>
<polygon fill="midnightblue" stroke="midnightblue" points="1379,-102.08 1382.5,-112.08 1386,-102.08 1379,-102.08"/>
</g>
<!-- Node24 -->
<g id="node22" class="node">
<title>Node24</title>
<g id="a_node22"><a xlink:href="chksum_8h.html" target="_top" xlink:title=" ">
<polygon fill="white" stroke="black" points="1705.5,-56.5 1705.5,-75.5 1769.5,-75.5 1769.5,-56.5 1705.5,-56.5"/>
<text text-anchor="middle" x="1737.5" y="-63.5" font-family="Helvetica,sans-Serif" font-size="10.00">chksum.h</text>
</a>
</g>
</g>
<!-- Node23&#45;&gt;Node24 -->
<g id="edge22" class="edge">
<title>Node23&#45;&gt;Node24</title>
<path fill="none" stroke="midnightblue" d="M1737.5,-101.8C1737.5,-92.91 1737.5,-82.78 1737.5,-75.75"/>
<polygon fill="midnightblue" stroke="midnightblue" points="1734,-102.08 1737.5,-112.08 1741,-102.08 1734,-102.08"/>
</g>
<!-- Node25&#45;&gt;Node14 -->
<g id="edge24" class="edge">
<title>Node25&#45;&gt;Node14</title>
<path fill="none" stroke="midnightblue" d="M1503.72,-102.69C1500.35,-93.59 1496.43,-83.01 1493.74,-75.75"/>
<polygon fill="midnightblue" stroke="midnightblue" points="1500.44,-103.92 1507.2,-112.08 1507.01,-101.49 1500.44,-103.92"/>
</g>
<!-- Node31&#45;&gt;Node19 -->
<g id="edge28" class="edge">
<title>Node31&#45;&gt;Node19</title>
<path fill="none" stroke="midnightblue" d="M1204.95,-102.4C1201.78,-93.36 1198.11,-82.94 1195.58,-75.75"/>
<polygon fill="midnightblue" stroke="midnightblue" points="1201.74,-103.81 1208.36,-112.08 1208.35,-101.49 1201.74,-103.81"/>
</g>
<!-- Node95&#45;&gt;Node17 -->
<g id="edge54" class="edge">
<title>Node95&#45;&gt;Node17</title>
<path fill="none" stroke="midnightblue" d="M3745.31,-112.15C3144.81,-12.59 2414.53,-9.92 2245.55,-10.71"/>
<polygon fill="midnightblue" stroke="midnightblue" points="3745.03,-115.65 3755.47,-113.85 3746.19,-108.75 3745.03,-115.65"/>
</g>
<!-- Node95&#45;&gt;Node38 -->
<g id="edge53" class="edge">
<title>Node95&#45;&gt;Node38</title>
<path fill="none" stroke="midnightblue" d="M3745.5,-112.29C3469.26,-72.96 2642.87,-67.76 2476.76,-67.09"/>
<polygon fill="midnightblue" stroke="midnightblue" points="3745.08,-115.76 3755.49,-113.76 3746.11,-108.84 3745.08,-115.76"/>
</g>
</g>
</svg>
