<?xml version="1.0" encoding="UTF-8" standalone="no"?>
<!DOCTYPE svg PUBLIC "-//W3C//DTD SVG 1.1//EN"
 "http://www.w3.org/Graphics/SVG/1.1/DTD/svg11.dtd">
<!-- Generated by graphviz version 2.43.0 (0)
 -->
<!-- Title: odp_ipsec_sa_info_t Pages: 1 -->
<svg width="825pt" height="237pt"
 viewBox="0.00 0.00 825.00 237.00" xmlns="http://www.w3.org/2000/svg" xmlns:xlink="http://www.w3.org/1999/xlink">
<g id="graph0" class="graph" transform="scale(1 1) rotate(0) translate(4 233)">
<title>odp_ipsec_sa_info_t</title>
<polygon fill="white" stroke="transparent" points="-4,4 -4,-233 821,-233 821,4 -4,4"/>
<!-- Node1 -->
<g id="node1" class="node">
<title>Node1</title>
<g id="a_node1"><a xlink:title="IPSEC SA information.">
<polygon fill="#bfbfbf" stroke="black" points="702,-116.5 702,-135.5 817,-135.5 817,-116.5 702,-116.5"/>
<text text-anchor="middle" x="759.5" y="-123.5" font-family="Helvetica,sans-Serif" font-size="10.00">odp_ipsec_sa_info_t</text>
</a>
</g>
</g>
<!-- Node2 -->
<g id="node2" class="node">
<title>Node2</title>
<g id="a_node2"><a xlink:href="structodp__ipsec__sa__param__t.html" target="_top" xlink:title="IPSEC Security Association (SA) parameters.">
<polygon fill="white" stroke="black" points="503,-116.5 503,-135.5 631,-135.5 631,-116.5 503,-116.5"/>
<text text-anchor="middle" x="567" y="-123.5" font-family="Helvetica,sans-Serif" font-size="10.00">odp_ipsec_sa_param_t</text>
</a>
</g>
</g>
<!-- Node2&#45;&gt;Node1 -->
<g id="edge1" class="edge">
<title>Node2&#45;&gt;Node1</title>
<path fill="none" stroke="#9a32cd" stroke-dasharray="5,2" d="M641.23,-126C661.36,-126 682.88,-126 701.92,-126"/>
<polygon fill="#9a32cd" stroke="#9a32cd" points="641.17,-122.5 631.17,-126 641.17,-129.5 641.17,-122.5"/>
<text text-anchor="middle" x="666.5" y="-129" font-family="Helvetica,sans-Serif" font-size="10.00"> param</text>
</g>
<!-- Node3 -->
<g id="node3" class="node">
<title>Node3</title>
<g id="a_node3"><a xlink:href="struct__odp__abi__cos__t.html" target="_top" xlink:title=" ">
<polygon fill="white" stroke="black" points="288,-209.5 288,-228.5 379,-228.5 379,-209.5 288,-209.5"/>
<text text-anchor="middle" x="333.5" y="-216.5" font-family="Helvetica,sans-Serif" font-size="10.00">_odp_abi_cos_t</text>
</a>
</g>
</g>
<!-- Node3&#45;&gt;Node2 -->
<g id="edge2" class="edge">
<title>Node3&#45;&gt;Node2</title>
<path fill="none" stroke="#9a32cd" stroke-dasharray="5,2" d="M380.7,-206.94C389.44,-204.65 398.5,-202.26 407,-200 441.7,-190.78 452.24,-193.68 485,-179 511.38,-167.18 538.88,-147.32 554.08,-135.56"/>
<polygon fill="#9a32cd" stroke="#9a32cd" points="379.81,-203.56 371.02,-209.48 381.58,-210.33 379.81,-203.56"/>
<text text-anchor="middle" x="455" y="-198" font-family="Helvetica,sans-Serif" font-size="10.00"> dest_cos</text>
</g>
<!-- Node4 -->
<g id="node4" class="node">
<title>Node4</title>
<g id="a_node4"><a xlink:href="structodp__ipsec__lifetime__t.html" target="_top" xlink:title="IPSEC SA lifetime limits.">
<polygon fill="white" stroke="black" points="274.5,-171.5 274.5,-190.5 392.5,-190.5 392.5,-171.5 274.5,-171.5"/>
<text text-anchor="middle" x="333.5" y="-178.5" font-family="Helvetica,sans-Serif" font-size="10.00">odp_ipsec_lifetime_t</text>
</a>
</g>
</g>
<!-- Node4&#45;&gt;Node2 -->
<g id="edge3" class="edge">
<title>Node4&#45;&gt;Node2</title>
<path fill="none" stroke="#9a32cd" stroke-dasharray="5,2" d="M399.47,-169.56C426.11,-164.48 457.17,-158.05 485,-151 502.69,-146.52 522.25,-140.51 537.71,-135.51"/>
<polygon fill="#9a32cd" stroke="#9a32cd" points="398.67,-166.15 389.49,-171.44 399.97,-173.03 398.67,-166.15"/>
<text text-anchor="middle" x="455" y="-167" font-family="Helvetica,sans-Serif" font-size="10.00"> lifetime</text>
</g>
<!-- Node5 -->
<g id="node5" class="node">
<title>Node5</title>
<g id="a_node5"><a xlink:href="struct__odp__abi__queue__t.html" target="_top" xlink:title=" ">
<polygon fill="white" stroke="black" points="281.5,-133.5 281.5,-152.5 385.5,-152.5 385.5,-133.5 281.5,-133.5"/>
<text text-anchor="middle" x="333.5" y="-140.5" font-family="Helvetica,sans-Serif" font-size="10.00">_odp_abi_queue_t</text>
</a>
</g>
</g>
<!-- Node5&#45;&gt;Node2 -->
<g id="edge4" class="edge">
<title>Node5&#45;&gt;Node2</title>
<path fill="none" stroke="#9a32cd" stroke-dasharray="5,2" d="M395.57,-138.52C428.58,-136.09 469.29,-133.1 502.64,-130.65"/>
<polygon fill="#9a32cd" stroke="#9a32cd" points="395.31,-135.03 385.59,-139.25 395.82,-142.01 395.31,-135.03"/>
<text text-anchor="middle" x="455" y="-139" font-family="Helvetica,sans-Serif" font-size="10.00"> dest_queue</text>
</g>
<!-- Node6 -->
<g id="node6" class="node">
<title>Node6</title>
<g id="a_node6"><a xlink:href="structodp__ipsec__crypto__param__t.html" target="_top" xlink:title="IPSEC crypto parameters.">
<polygon fill="white" stroke="black" points="260,-95.5 260,-114.5 407,-114.5 407,-95.5 260,-95.5"/>
<text text-anchor="middle" x="333.5" y="-102.5" font-family="Helvetica,sans-Serif" font-size="10.00">odp_ipsec_crypto_param_t</text>
</a>
</g>
</g>
<!-- Node6&#45;&gt;Node2 -->
<g id="edge5" class="edge">
<title>Node6&#45;&gt;Node2</title>
<path fill="none" stroke="#9a32cd" stroke-dasharray="5,2" d="M417.27,-110.3C439.3,-111.92 463.07,-113.85 485,-116 490.78,-116.57 496.79,-117.21 502.8,-117.89"/>
<polygon fill="#9a32cd" stroke="#9a32cd" points="417.51,-106.81 407.28,-109.58 417.01,-113.79 417.51,-106.81"/>
<text text-anchor="middle" x="455" y="-119" font-family="Helvetica,sans-Serif" font-size="10.00"> crypto</text>
</g>
<!-- Node7 -->
<g id="node7" class="node">
<title>Node7</title>
<g id="a_node7"><a xlink:href="structodp__crypto__key.html" target="_top" xlink:title="Crypto API key structure.">
<polygon fill="white" stroke="black" points="22,-95.5 22,-114.5 115,-114.5 115,-95.5 22,-95.5"/>
<text text-anchor="middle" x="68.5" y="-102.5" font-family="Helvetica,sans-Serif" font-size="10.00">odp_crypto_key</text>
</a>
</g>
</g>
<!-- Node7&#45;&gt;Node6 -->
<g id="edge6" class="edge">
<title>Node7&#45;&gt;Node6</title>
<path fill="none" stroke="#9a32cd" stroke-dasharray="5,2" d="M125.18,-105C164.38,-105 217.25,-105 259.78,-105"/>
<polygon fill="#9a32cd" stroke="#9a32cd" points="125.01,-101.5 115.01,-105 125.01,-108.5 125.01,-101.5"/>
<text text-anchor="middle" x="198.5" y="-141" font-family="Helvetica,sans-Serif" font-size="10.00"> cipher_key_extra</text>
<text text-anchor="middle" x="198.5" y="-130" font-family="Helvetica,sans-Serif" font-size="10.00">auth_key</text>
<text text-anchor="middle" x="198.5" y="-119" font-family="Helvetica,sans-Serif" font-size="10.00">cipher_key</text>
<text text-anchor="middle" x="198.5" y="-108" font-family="Helvetica,sans-Serif" font-size="10.00">auth_key_extra</text>
</g>
<!-- Node8 -->
<g id="node8" class="node">
<title>Node8</title>
<g id="a_node8"><a xlink:href="structodp__ipsec__sa__opt__t.html" target="_top" xlink:title="IPSEC SA option flags.">
<polygon fill="white" stroke="black" points="277.5,-57.5 277.5,-76.5 389.5,-76.5 389.5,-57.5 277.5,-57.5"/>
<text text-anchor="middle" x="333.5" y="-64.5" font-family="Helvetica,sans-Serif" font-size="10.00">odp_ipsec_sa_opt_t</text>
</a>
</g>
</g>
<!-- Node8&#45;&gt;Node2 -->
<g id="edge7" class="edge">
<title>Node8&#45;&gt;Node2</title>
<path fill="none" stroke="#9a32cd" stroke-dasharray="5,2" d="M399.69,-77.15C426.36,-81.93 457.39,-88.28 485,-96 505.08,-101.61 527.23,-109.97 543.29,-116.44"/>
<polygon fill="#9a32cd" stroke="#9a32cd" points="400.15,-73.68 389.69,-75.4 398.94,-80.57 400.15,-73.68"/>
<text text-anchor="middle" x="455" y="-99" font-family="Helvetica,sans-Serif" font-size="10.00"> opt</text>
</g>
<!-- Node9 -->
<g id="node9" class="node">
<title>Node9</title>
<g id="a_node9"><a xlink:href="structodp__ipsec__tunnel__param__t.html" target="_top" xlink:title="IPSEC tunnel parameters.">
<polygon fill="white" stroke="black" points="260,-19.5 260,-38.5 407,-38.5 407,-19.5 260,-19.5"/>
<text text-anchor="middle" x="333.5" y="-26.5" font-family="Helvetica,sans-Serif" font-size="10.00">odp_ipsec_tunnel_param_t</text>
</a>
</g>
</g>
<!-- Node9&#45;&gt;Node2 -->
<g id="edge8" class="edge">
<title>Node9&#45;&gt;Node2</title>
<path fill="none" stroke="#9a32cd" stroke-dasharray="5,2" d="M403.69,-40.67C429.92,-46.57 459.58,-55.08 485,-67 512.72,-80 540.61,-103.01 555.34,-116.12"/>
<polygon fill="#9a32cd" stroke="#9a32cd" points="404.33,-37.22 393.81,-38.53 402.85,-44.07 404.33,-37.22"/>
<text text-anchor="middle" x="455" y="-70" font-family="Helvetica,sans-Serif" font-size="10.00"> tunnel</text>
</g>
<!-- Node10 -->
<g id="node10" class="node">
<title>Node10</title>
<g id="a_node10"><a xlink:href="structodp__ipsec__ipv4__param__t.html" target="_top" xlink:title="IPv4 header parameters.">
<polygon fill="white" stroke="black" points="0,-38.5 0,-57.5 137,-57.5 137,-38.5 0,-38.5"/>
<text text-anchor="middle" x="68.5" y="-45.5" font-family="Helvetica,sans-Serif" font-size="10.00">odp_ipsec_ipv4_param_t</text>
</a>
</g>
</g>
<!-- Node10&#45;&gt;Node9 -->
<g id="edge9" class="edge">
<title>Node10&#45;&gt;Node9</title>
<path fill="none" stroke="#9a32cd" stroke-dasharray="5,2" d="M147.57,-42.36C183.16,-39.79 225.03,-36.76 259.93,-34.24"/>
<polygon fill="#9a32cd" stroke="#9a32cd" points="146.95,-38.9 137.23,-43.11 147.46,-45.88 146.95,-38.9"/>
<text text-anchor="middle" x="198.5" y="-44" font-family="Helvetica,sans-Serif" font-size="10.00"> ipv4</text>
</g>
<!-- Node11 -->
<g id="node11" class="node">
<title>Node11</title>
<g id="a_node11"><a xlink:href="structodp__ipsec__ipv6__param__t.html" target="_top" xlink:title="IPv6 header parameters.">
<polygon fill="white" stroke="black" points="0,-0.5 0,-19.5 137,-19.5 137,-0.5 0,-0.5"/>
<text text-anchor="middle" x="68.5" y="-7.5" font-family="Helvetica,sans-Serif" font-size="10.00">odp_ipsec_ipv6_param_t</text>
</a>
</g>
</g>
<!-- Node11&#45;&gt;Node9 -->
<g id="edge10" class="edge">
<title>Node11&#45;&gt;Node9</title>
<path fill="none" stroke="#9a32cd" stroke-dasharray="5,2" d="M147.42,-13.83C177.05,-15.47 211.1,-17.57 242,-20 247.82,-20.46 253.86,-20.97 259.91,-21.52"/>
<polygon fill="#9a32cd" stroke="#9a32cd" points="147.31,-10.32 137.13,-13.27 146.93,-17.31 147.31,-10.32"/>
<text text-anchor="middle" x="198.5" y="-23" font-family="Helvetica,sans-Serif" font-size="10.00"> ipv6</text>
</g>
</g>
</svg>
