<?xml version="1.0" encoding="UTF-8" standalone="no"?>
<!DOCTYPE svg PUBLIC "-//W3C//DTD SVG 1.1//EN"
 "http://www.w3.org/Graphics/SVG/1.1/DTD/svg11.dtd">
<!-- Generated by graphviz version 2.43.0 (0)
 -->
<!-- Title: thread.h Pages: 1 -->
<svg width="456pt" height="151pt"
 viewBox="0.00 0.00 455.50 151.00" xmlns="http://www.w3.org/2000/svg" xmlns:xlink="http://www.w3.org/1999/xlink">
<g id="graph0" class="graph" transform="scale(1 1) rotate(0) translate(4 147)">
<title>thread.h</title>
<polygon fill="white" stroke="transparent" points="-4,4 -4,-147 451.5,-147 451.5,4 -4,4"/>
<!-- Node1 -->
<g id="node1" class="node">
<title>Node1</title>
<g id="a_node1"><a xlink:title=" ">
<polygon fill="#bfbfbf" stroke="black" points="160,-123.5 160,-142.5 217,-142.5 217,-123.5 160,-123.5"/>
<text text-anchor="middle" x="188.5" y="-130.5" font-family="Helvetica,sans-Serif" font-size="10.00">thread.h</text>
</a>
</g>
</g>
<!-- Node2 -->
<g id="node2" class="node">
<title>Node2</title>
<g id="a_node2"><a xlink:href="thread__types_8h.html" target="_top" xlink:title=" ">
<polygon fill="white" stroke="black" points="0,-56.5 0,-86.5 113,-86.5 113,-56.5 0,-56.5"/>
<text text-anchor="start" x="8" y="-74.5" font-family="Helvetica,sans-Serif" font-size="10.00">odp/api/spec/thread</text>
<text text-anchor="middle" x="56.5" y="-63.5" font-family="Helvetica,sans-Serif" font-size="10.00">_types.h</text>
</a>
</g>
</g>
<!-- Node1&#45;&gt;Node2 -->
<g id="edge1" class="edge">
<title>Node1&#45;&gt;Node2</title>
<path fill="none" stroke="midnightblue" d="M169.59,-123.48C150.71,-114.96 121.1,-101.62 96.92,-90.72"/>
<polygon fill="midnightblue" stroke="midnightblue" points="98.16,-87.44 87.61,-86.52 95.29,-93.82 98.16,-87.44"/>
</g>
<!-- Node3 -->
<g id="node3" class="node">
<title>Node3</title>
<g id="a_node3"><a xlink:title=" ">
<polygon fill="white" stroke="#bfbfbf" points="131.5,-62 131.5,-81 245.5,-81 245.5,-62 131.5,-62"/>
<text text-anchor="middle" x="188.5" y="-69" font-family="Helvetica,sans-Serif" font-size="10.00">odp/api/abi/thread.h</text>
</a>
</g>
</g>
<!-- Node1&#45;&gt;Node3 -->
<g id="edge2" class="edge">
<title>Node1&#45;&gt;Node3</title>
<path fill="none" stroke="midnightblue" d="M188.5,-123.48C188.5,-115.08 188.5,-101.98 188.5,-91.16"/>
<polygon fill="midnightblue" stroke="midnightblue" points="192,-91.01 188.5,-81.01 185,-91.01 192,-91.01"/>
</g>
<!-- Node4 -->
<g id="node4" class="node">
<title>Node4</title>
<g id="a_node4"><a xlink:href="spec_2thread_8h.html" target="_top" xlink:title=" ">
<polygon fill="white" stroke="black" points="263.5,-62 263.5,-81 385.5,-81 385.5,-62 263.5,-62"/>
<text text-anchor="middle" x="324.5" y="-69" font-family="Helvetica,sans-Serif" font-size="10.00">odp/api/spec/thread.h</text>
</a>
</g>
</g>
<!-- Node1&#45;&gt;Node4 -->
<g id="edge3" class="edge">
<title>Node1&#45;&gt;Node4</title>
<path fill="none" stroke="midnightblue" d="M207.99,-123.48C230.91,-113.45 269.19,-96.7 295.58,-85.15"/>
<polygon fill="midnightblue" stroke="midnightblue" points="297.29,-88.22 305.05,-81.01 294.49,-81.81 297.29,-88.22"/>
</g>
<!-- Node5 -->
<g id="node5" class="node">
<title>Node5</title>
<g id="a_node5"><a xlink:title=" ">
<polygon fill="white" stroke="#bfbfbf" points="196,-0.5 196,-19.5 317,-19.5 317,-0.5 196,-0.5"/>
<text text-anchor="middle" x="256.5" y="-7.5" font-family="Helvetica,sans-Serif" font-size="10.00">odp/visibility_begin.h</text>
</a>
</g>
</g>
<!-- Node4&#45;&gt;Node5 -->
<g id="edge4" class="edge">
<title>Node4&#45;&gt;Node5</title>
<path fill="none" stroke="midnightblue" d="M314.76,-61.98C304.15,-52.7 286.98,-37.67 274.02,-26.33"/>
<polygon fill="midnightblue" stroke="midnightblue" points="276.06,-23.46 266.22,-19.51 271.45,-28.73 276.06,-23.46"/>
</g>
<!-- Node6 -->
<g id="node6" class="node">
<title>Node6</title>
<g id="a_node6"><a xlink:title=" ">
<polygon fill="white" stroke="#bfbfbf" points="335.5,-0.5 335.5,-19.5 447.5,-19.5 447.5,-0.5 335.5,-0.5"/>
<text text-anchor="middle" x="391.5" y="-7.5" font-family="Helvetica,sans-Serif" font-size="10.00">odp/visibility_end.h</text>
</a>
</g>
</g>
<!-- Node4&#45;&gt;Node6 -->
<g id="edge5" class="edge">
<title>Node4&#45;&gt;Node6</title>
<path fill="none" stroke="midnightblue" d="M334.1,-61.98C344.55,-52.7 361.47,-37.67 374.24,-26.33"/>
<polygon fill="midnightblue" stroke="midnightblue" points="376.77,-28.77 381.92,-19.51 372.12,-23.53 376.77,-28.77"/>
</g>
</g>
</svg>
