<?xml version="1.0" encoding="UTF-8" standalone="no"?>
<!DOCTYPE svg PUBLIC "-//W3C//DTD SVG 1.1//EN"
 "http://www.w3.org/Graphics/SVG/1.1/DTD/svg11.dtd">
<!-- Generated by graphviz version 2.43.0 (0)
 -->
<!-- Title: timer.h Pages: 1 -->
<svg width="1339pt" height="979pt"
 viewBox="0.00 0.00 1339.00 979.00" xmlns="http://www.w3.org/2000/svg" xmlns:xlink="http://www.w3.org/1999/xlink">
<g id="graph0" class="graph" transform="scale(1 1) rotate(0) translate(4 975)">
<title>timer.h</title>
<polygon fill="white" stroke="transparent" points="-4,4 -4,-975 1335,-975 1335,4 -4,4"/>
<!-- Node1 -->
<g id="node1" class="node">
<title>Node1</title>
<g id="a_node1"><a xlink:title=" ">
<polygon fill="#bfbfbf" stroke="black" points="103.5,-951.5 103.5,-970.5 154.5,-970.5 154.5,-951.5 103.5,-951.5"/>
<text text-anchor="middle" x="129" y="-958.5" font-family="Helvetica,sans-Serif" font-size="10.00">timer.h</text>
</a>
</g>
</g>
<!-- Node2 -->
<g id="node2" class="node">
<title>Node2</title>
<g id="a_node2"><a xlink:title=" ">
<polygon fill="white" stroke="#bfbfbf" points="10,-895.5 10,-914.5 118,-914.5 118,-895.5 10,-895.5"/>
<text text-anchor="middle" x="64" y="-902.5" font-family="Helvetica,sans-Serif" font-size="10.00">odp/api/abi/timer.h</text>
</a>
</g>
</g>
<!-- Node1&#45;&gt;Node2 -->
<g id="edge1" class="edge">
<title>Node1&#45;&gt;Node2</title>
<path fill="none" stroke="midnightblue" d="M118.56,-951.32C108.85,-943.26 94.18,-931.08 82.5,-921.37"/>
<polygon fill="midnightblue" stroke="midnightblue" points="84.56,-918.53 74.63,-914.83 80.09,-923.92 84.56,-918.53"/>
</g>
<!-- Node3 -->
<g id="node3" class="node">
<title>Node3</title>
<g id="a_node3"><a xlink:href="spec_2timer_8h.html" target="_top" xlink:title=" ">
<polygon fill="white" stroke="black" points="136,-895.5 136,-914.5 252,-914.5 252,-895.5 136,-895.5"/>
<text text-anchor="middle" x="194" y="-902.5" font-family="Helvetica,sans-Serif" font-size="10.00">odp/api/spec/timer.h</text>
</a>
</g>
</g>
<!-- Node1&#45;&gt;Node3 -->
<g id="edge2" class="edge">
<title>Node1&#45;&gt;Node3</title>
<path fill="none" stroke="midnightblue" d="M139.44,-951.32C149.15,-943.26 163.82,-931.08 175.5,-921.37"/>
<polygon fill="midnightblue" stroke="midnightblue" points="177.91,-923.92 183.37,-914.83 173.44,-918.53 177.91,-923.92"/>
</g>
<!-- Node4 -->
<g id="node4" class="node">
<title>Node4</title>
<g id="a_node4"><a xlink:title=" ">
<polygon fill="white" stroke="#bfbfbf" points="1080.5,-0.5 1080.5,-19.5 1201.5,-19.5 1201.5,-0.5 1080.5,-0.5"/>
<text text-anchor="middle" x="1141" y="-7.5" font-family="Helvetica,sans-Serif" font-size="10.00">odp/visibility_begin.h</text>
</a>
</g>
</g>
<!-- Node3&#45;&gt;Node4 -->
<g id="edge3" class="edge">
<title>Node3&#45;&gt;Node4</title>
<path fill="none" stroke="midnightblue" d="M252.34,-904.54C484.6,-905.94 1331,-903.51 1331,-794 1331,-794 1331,-794 1331,-132 1331,-68.18 1253.78,-36.55 1197.8,-22.01"/>
<polygon fill="midnightblue" stroke="midnightblue" points="1198.51,-18.58 1187.97,-19.57 1196.83,-25.38 1198.51,-18.58"/>
</g>
<!-- Node5 -->
<g id="node5" class="node">
<title>Node5</title>
<g id="a_node5"><a xlink:href="timer__types_8h.html" target="_top" xlink:title=" ">
<polygon fill="white" stroke="black" points="113.5,-364 113.5,-383 236.5,-383 236.5,-364 113.5,-364"/>
<text text-anchor="middle" x="175" y="-371" font-family="Helvetica,sans-Serif" font-size="10.00">odp/api/timer_types.h</text>
</a>
</g>
</g>
<!-- Node3&#45;&gt;Node5 -->
<g id="edge4" class="edge">
<title>Node3&#45;&gt;Node5</title>
<path fill="none" stroke="midnightblue" d="M188.16,-895.31C176.62,-877.26 152,-834.07 152,-794 152,-794 152,-794 152,-501 152,-462.09 162.66,-417.52 169.47,-393.04"/>
<polygon fill="midnightblue" stroke="midnightblue" points="172.87,-393.87 172.27,-383.3 166.14,-391.94 172.87,-393.87"/>
</g>
<!-- Node15 -->
<g id="node15" class="node">
<title>Node15</title>
<g id="a_node15"><a xlink:title=" ">
<polygon fill="white" stroke="#bfbfbf" points="433,-0.5 433,-19.5 545,-19.5 545,-0.5 433,-0.5"/>
<text text-anchor="middle" x="489" y="-7.5" font-family="Helvetica,sans-Serif" font-size="10.00">odp/visibility_end.h</text>
</a>
</g>
</g>
<!-- Node3&#45;&gt;Node15 -->
<g id="edge64" class="edge">
<title>Node3&#45;&gt;Node15</title>
<path fill="none" stroke="midnightblue" d="M135.79,-895.98C78.65,-884.45 0,-857.11 0,-794 0,-794 0,-794 0,-132 0,-85.16 30.96,-76.65 73,-56 132.88,-26.58 321.01,-16.21 422.51,-12.7"/>
<polygon fill="midnightblue" stroke="midnightblue" points="422.78,-16.19 432.66,-12.36 422.55,-9.2 422.78,-16.19"/>
</g>
<!-- Node16 -->
<g id="node16" class="node">
<title>Node16</title>
<g id="a_node16"><a xlink:href="event__types_8h.html" target="_top" xlink:title=" ">
<polygon fill="white" stroke="black" points="257.5,-235.5 257.5,-254.5 382.5,-254.5 382.5,-235.5 257.5,-235.5"/>
<text text-anchor="middle" x="320" y="-242.5" font-family="Helvetica,sans-Serif" font-size="10.00">odp/api/event_types.h</text>
</a>
</g>
</g>
<!-- Node3&#45;&gt;Node16 -->
<g id="edge25" class="edge">
<title>Node3&#45;&gt;Node16</title>
<path fill="none" stroke="midnightblue" d="M172.08,-895.39C137.96,-880.37 76,-845.95 76,-794 76,-794 76,-794 76,-372.5 76,-335.31 68.29,-316.88 95,-291 116.46,-270.21 190.01,-258.34 247.25,-252.06"/>
<polygon fill="midnightblue" stroke="midnightblue" points="247.79,-255.53 257.37,-250.99 247.05,-248.57 247.79,-255.53"/>
</g>
<!-- Node19 -->
<g id="node19" class="node">
<title>Node19</title>
<g id="a_node19"><a xlink:href="pool__types_8h.html" target="_top" xlink:title=" ">
<polygon fill="white" stroke="black" points="394,-839.5 394,-858.5 512,-858.5 512,-839.5 394,-839.5"/>
<text text-anchor="middle" x="453" y="-846.5" font-family="Helvetica,sans-Serif" font-size="10.00">odp/api/pool_types.h</text>
</a>
</g>
</g>
<!-- Node3&#45;&gt;Node19 -->
<g id="edge26" class="edge">
<title>Node3&#45;&gt;Node19</title>
<path fill="none" stroke="midnightblue" d="M235.04,-895.44C280.32,-886 353.23,-870.8 402.11,-860.61"/>
<polygon fill="midnightblue" stroke="midnightblue" points="403.08,-863.98 412.15,-858.52 401.65,-857.13 403.08,-863.98"/>
</g>
<!-- Node32 -->
<g id="node32" class="node">
<title>Node32</title>
<g id="a_node32"><a xlink:href="queue__types_8h.html" target="_top" xlink:title=" ">
<polygon fill="white" stroke="black" points="393.5,-492.5 393.5,-511.5 520.5,-511.5 520.5,-492.5 393.5,-492.5"/>
<text text-anchor="middle" x="457" y="-499.5" font-family="Helvetica,sans-Serif" font-size="10.00">odp/api/queue_types.h</text>
</a>
</g>
</g>
<!-- Node3&#45;&gt;Node32 -->
<g id="edge63" class="edge">
<title>Node3&#45;&gt;Node32</title>
<path fill="none" stroke="midnightblue" d="M199.84,-895.31C211.38,-877.26 236,-834.07 236,-794 236,-794 236,-794 236,-680 236,-588.31 353.32,-536.27 417,-514.78"/>
<polygon fill="midnightblue" stroke="midnightblue" points="418.32,-518.03 426.73,-511.59 416.14,-511.37 418.32,-518.03"/>
</g>
<!-- Node6 -->
<g id="node6" class="node">
<title>Node6</title>
<g id="a_node6"><a xlink:title=" ">
<polygon fill="white" stroke="#bfbfbf" points="104.5,-297 104.5,-316 245.5,-316 245.5,-297 104.5,-297"/>
<text text-anchor="middle" x="175" y="-304" font-family="Helvetica,sans-Serif" font-size="10.00">odp/api/abi/timer_types.h</text>
</a>
</g>
</g>
<!-- Node5&#45;&gt;Node6 -->
<g id="edge5" class="edge">
<title>Node5&#45;&gt;Node6</title>
<path fill="none" stroke="midnightblue" d="M175,-363.73C175,-354.18 175,-338.62 175,-326.28"/>
<polygon fill="midnightblue" stroke="midnightblue" points="178.5,-326.13 175,-316.13 171.5,-326.13 178.5,-326.13"/>
</g>
<!-- Node7 -->
<g id="node7" class="node">
<title>Node7</title>
<g id="a_node7"><a xlink:href="spec_2timer__types_8h.html" target="_top" xlink:title=" ">
<polygon fill="white" stroke="black" points="340.5,-291.5 340.5,-321.5 447.5,-321.5 447.5,-291.5 340.5,-291.5"/>
<text text-anchor="start" x="348.5" y="-309.5" font-family="Helvetica,sans-Serif" font-size="10.00">odp/api/spec/timer</text>
<text text-anchor="middle" x="394" y="-298.5" font-family="Helvetica,sans-Serif" font-size="10.00">_types.h</text>
</a>
</g>
</g>
<!-- Node5&#45;&gt;Node7 -->
<g id="edge6" class="edge">
<title>Node5&#45;&gt;Node7</title>
<path fill="none" stroke="midnightblue" d="M204.08,-363.87C237.87,-353.84 294.42,-337.06 337.05,-324.4"/>
<polygon fill="midnightblue" stroke="midnightblue" points="338.15,-327.73 346.74,-321.53 336.15,-321.02 338.15,-327.73"/>
</g>
<!-- Node7&#45;&gt;Node4 -->
<g id="edge7" class="edge">
<title>Node7&#45;&gt;Node4</title>
<path fill="none" stroke="midnightblue" d="M410.24,-291.39C461.51,-247.72 626.13,-114.29 788,-56 881.63,-22.28 997.19,-13.18 1070.01,-11.07"/>
<polygon fill="midnightblue" stroke="midnightblue" points="1070.53,-14.55 1080.44,-10.8 1070.35,-7.56 1070.53,-14.55"/>
</g>
<!-- Node8 -->
<g id="node8" class="node">
<title>Node8</title>
<g id="a_node8"><a xlink:href="std__types_8h.html" target="_top" xlink:title=" ">
<polygon fill="white" stroke="black" points="824,-235.5 824,-254.5 936,-254.5 936,-235.5 824,-235.5"/>
<text text-anchor="middle" x="880" y="-242.5" font-family="Helvetica,sans-Serif" font-size="10.00">odp/api/std_types.h</text>
</a>
</g>
</g>
<!-- Node7&#45;&gt;Node8 -->
<g id="edge8" class="edge">
<title>Node7&#45;&gt;Node8</title>
<path fill="none" stroke="midnightblue" d="M447.7,-297.61C463.27,-295.4 480.3,-293.04 496,-291 607.48,-276.55 737.45,-261.74 814,-253.24"/>
<polygon fill="midnightblue" stroke="midnightblue" points="814.43,-256.71 823.98,-252.13 813.66,-249.75 814.43,-256.71"/>
</g>
<!-- Node7&#45;&gt;Node15 -->
<g id="edge24" class="edge">
<title>Node7&#45;&gt;Node15</title>
<path fill="none" stroke="midnightblue" d="M395.2,-291.19C399.3,-244.47 413.82,-97.05 437,-56 443.88,-43.82 455.36,-33.36 465.78,-25.6"/>
<polygon fill="midnightblue" stroke="midnightblue" points="467.98,-28.33 474.17,-19.74 463.97,-22.6 467.98,-28.33"/>
</g>
<!-- Node7&#45;&gt;Node16 -->
<g id="edge19" class="edge">
<title>Node7&#45;&gt;Node16</title>
<path fill="none" stroke="midnightblue" d="M376.46,-291.4C365.16,-282.31 350.46,-270.49 338.89,-261.19"/>
<polygon fill="midnightblue" stroke="midnightblue" points="340.75,-258.2 330.77,-254.66 336.37,-263.65 340.75,-258.2"/>
</g>
<!-- Node9 -->
<g id="node9" class="node">
<title>Node9</title>
<g id="a_node9"><a xlink:title=" ">
<polygon fill="white" stroke="#bfbfbf" points="967,-179.5 967,-198.5 1097,-198.5 1097,-179.5 967,-179.5"/>
<text text-anchor="middle" x="1032" y="-186.5" font-family="Helvetica,sans-Serif" font-size="10.00">odp/api/abi/std_types.h</text>
</a>
</g>
</g>
<!-- Node8&#45;&gt;Node9 -->
<g id="edge9" class="edge">
<title>Node8&#45;&gt;Node9</title>
<path fill="none" stroke="midnightblue" d="M904.08,-235.44C929.54,-226.4 969.89,-212.06 998.46,-201.92"/>
<polygon fill="midnightblue" stroke="midnightblue" points="999.78,-205.16 1008.03,-198.52 997.43,-198.57 999.78,-205.16"/>
</g>
<!-- Node10 -->
<g id="node10" class="node">
<title>Node10</title>
<g id="a_node10"><a xlink:href="spec_2std__types_8h.html" target="_top" xlink:title=" ">
<polygon fill="white" stroke="black" points="811.5,-179.5 811.5,-198.5 948.5,-198.5 948.5,-179.5 811.5,-179.5"/>
<text text-anchor="middle" x="880" y="-186.5" font-family="Helvetica,sans-Serif" font-size="10.00">odp/api/spec/std_types.h</text>
</a>
</g>
</g>
<!-- Node8&#45;&gt;Node10 -->
<g id="edge10" class="edge">
<title>Node8&#45;&gt;Node10</title>
<path fill="none" stroke="midnightblue" d="M880,-235.08C880,-228.01 880,-217.86 880,-208.99"/>
<polygon fill="midnightblue" stroke="midnightblue" points="883.5,-208.75 880,-198.75 876.5,-208.75 883.5,-208.75"/>
</g>
<!-- Node10&#45;&gt;Node4 -->
<g id="edge11" class="edge">
<title>Node10&#45;&gt;Node4</title>
<path fill="none" stroke="midnightblue" d="M910.77,-179.48C936.69,-171.71 974.33,-159.01 1005,-143 1043.15,-123.08 1053.16,-117.02 1084,-87 1102.57,-68.92 1119.82,-44.4 1130.38,-28.15"/>
<polygon fill="midnightblue" stroke="midnightblue" points="1133.36,-29.98 1135.77,-19.66 1127.46,-26.22 1133.36,-29.98"/>
</g>
<!-- Node11 -->
<g id="node11" class="node">
<title>Node11</title>
<g id="a_node11"><a xlink:title=" ">
<polygon fill="white" stroke="#bfbfbf" points="942.5,-123.5 942.5,-142.5 995.5,-142.5 995.5,-123.5 942.5,-123.5"/>
<text text-anchor="middle" x="969" y="-130.5" font-family="Helvetica,sans-Serif" font-size="10.00">stdint.h</text>
</a>
</g>
</g>
<!-- Node10&#45;&gt;Node11 -->
<g id="edge12" class="edge">
<title>Node10&#45;&gt;Node11</title>
<path fill="none" stroke="midnightblue" d="M894.3,-179.32C908.18,-170.9 929.49,-157.97 945.8,-148.07"/>
<polygon fill="midnightblue" stroke="midnightblue" points="948,-150.83 954.74,-142.65 944.37,-144.85 948,-150.83"/>
</g>
<!-- Node12 -->
<g id="node12" class="node">
<title>Node12</title>
<g id="a_node12"><a xlink:href="align_8h.html" target="_top" xlink:title=" ">
<polygon fill="white" stroke="black" points="835.5,-123.5 835.5,-142.5 924.5,-142.5 924.5,-123.5 835.5,-123.5"/>
<text text-anchor="middle" x="880" y="-130.5" font-family="Helvetica,sans-Serif" font-size="10.00">odp/api/align.h</text>
</a>
</g>
</g>
<!-- Node10&#45;&gt;Node12 -->
<g id="edge13" class="edge">
<title>Node10&#45;&gt;Node12</title>
<path fill="none" stroke="midnightblue" d="M880,-179.08C880,-172.01 880,-161.86 880,-152.99"/>
<polygon fill="midnightblue" stroke="midnightblue" points="883.5,-152.75 880,-142.75 876.5,-152.75 883.5,-152.75"/>
</g>
<!-- Node10&#45;&gt;Node15 -->
<g id="edge18" class="edge">
<title>Node10&#45;&gt;Node15</title>
<path fill="none" stroke="midnightblue" d="M869.14,-179.37C858.21,-170.55 841.01,-156.3 827,-143 788.47,-106.42 791.77,-81.22 745,-56 686.04,-24.21 609.39,-14.16 555.38,-11.32"/>
<polygon fill="midnightblue" stroke="midnightblue" points="555.38,-7.82 545.23,-10.86 555.06,-14.81 555.38,-7.82"/>
</g>
<!-- Node13 -->
<g id="node13" class="node">
<title>Node13</title>
<g id="a_node13"><a xlink:title=" ">
<polygon fill="white" stroke="#bfbfbf" points="967.5,-62 967.5,-81 1074.5,-81 1074.5,-62 967.5,-62"/>
<text text-anchor="middle" x="1021" y="-69" font-family="Helvetica,sans-Serif" font-size="10.00">odp/api/abi/align.h</text>
</a>
</g>
</g>
<!-- Node12&#45;&gt;Node13 -->
<g id="edge14" class="edge">
<title>Node12&#45;&gt;Node13</title>
<path fill="none" stroke="midnightblue" d="M900.2,-123.48C924.07,-113.4 964,-96.55 991.37,-85"/>
<polygon fill="midnightblue" stroke="midnightblue" points="992.98,-88.12 1000.84,-81.01 990.26,-81.67 992.98,-88.12"/>
</g>
<!-- Node14 -->
<g id="node14" class="node">
<title>Node14</title>
<g id="a_node14"><a xlink:href="spec_2align_8h.html" target="_top" xlink:title=" ">
<polygon fill="white" stroke="black" points="797,-62 797,-81 911,-81 911,-62 797,-62"/>
<text text-anchor="middle" x="854" y="-69" font-family="Helvetica,sans-Serif" font-size="10.00">odp/api/spec/align.h</text>
</a>
</g>
</g>
<!-- Node12&#45;&gt;Node14 -->
<g id="edge15" class="edge">
<title>Node12&#45;&gt;Node14</title>
<path fill="none" stroke="midnightblue" d="M876.27,-123.48C872.53,-114.9 866.64,-101.43 861.86,-90.48"/>
<polygon fill="midnightblue" stroke="midnightblue" points="864.93,-88.77 857.72,-81.01 858.52,-91.57 864.93,-88.77"/>
</g>
<!-- Node14&#45;&gt;Node4 -->
<g id="edge16" class="edge">
<title>Node14&#45;&gt;Node4</title>
<path fill="none" stroke="midnightblue" d="M895.12,-61.98C946.48,-51.33 1034.36,-33.11 1089.96,-21.58"/>
<polygon fill="midnightblue" stroke="midnightblue" points="1090.87,-24.97 1099.96,-19.51 1089.45,-18.11 1090.87,-24.97"/>
</g>
<!-- Node14&#45;&gt;Node15 -->
<g id="edge17" class="edge">
<title>Node14&#45;&gt;Node15</title>
<path fill="none" stroke="midnightblue" d="M813.89,-61.95C803.82,-59.9 793.03,-57.79 783,-56 705.03,-42.08 614.96,-28.69 555.27,-20.19"/>
<polygon fill="midnightblue" stroke="midnightblue" points="555.62,-16.7 545.22,-18.76 554.63,-23.63 555.62,-16.7"/>
</g>
<!-- Node17 -->
<g id="node17" class="node">
<title>Node17</title>
<g id="a_node17"><a xlink:title=" ">
<polygon fill="white" stroke="#bfbfbf" points="248.5,-179.5 248.5,-198.5 391.5,-198.5 391.5,-179.5 248.5,-179.5"/>
<text text-anchor="middle" x="320" y="-186.5" font-family="Helvetica,sans-Serif" font-size="10.00">odp/api/abi/event_types.h</text>
</a>
</g>
</g>
<!-- Node16&#45;&gt;Node17 -->
<g id="edge20" class="edge">
<title>Node16&#45;&gt;Node17</title>
<path fill="none" stroke="midnightblue" d="M320,-235.08C320,-228.01 320,-217.86 320,-208.99"/>
<polygon fill="midnightblue" stroke="midnightblue" points="323.5,-208.75 320,-198.75 316.5,-208.75 323.5,-208.75"/>
</g>
<!-- Node18 -->
<g id="node18" class="node">
<title>Node18</title>
<g id="a_node18"><a xlink:href="spec_2event__types_8h.html" target="_top" xlink:title=" ">
<polygon fill="white" stroke="black" points="517.5,-56.5 517.5,-86.5 626.5,-86.5 626.5,-56.5 517.5,-56.5"/>
<text text-anchor="start" x="525.5" y="-74.5" font-family="Helvetica,sans-Serif" font-size="10.00">odp/api/spec/event</text>
<text text-anchor="middle" x="572" y="-63.5" font-family="Helvetica,sans-Serif" font-size="10.00">_types.h</text>
</a>
</g>
</g>
<!-- Node16&#45;&gt;Node18 -->
<g id="edge21" class="edge">
<title>Node16&#45;&gt;Node18</title>
<path fill="none" stroke="midnightblue" d="M336.81,-235.48C353.46,-226.85 379.49,-212.85 401,-199 454.58,-164.5 513.63,-119.03 546.43,-93.05"/>
<polygon fill="midnightblue" stroke="midnightblue" points="548.92,-95.54 554.57,-86.58 544.56,-90.07 548.92,-95.54"/>
</g>
<!-- Node18&#45;&gt;Node4 -->
<g id="edge22" class="edge">
<title>Node18&#45;&gt;Node4</title>
<path fill="none" stroke="midnightblue" d="M626.66,-62.69C643.43,-60.4 661.96,-57.98 679,-56 817.35,-39.89 979.48,-25.02 1070.21,-17.06"/>
<polygon fill="midnightblue" stroke="midnightblue" points="1070.72,-20.53 1080.38,-16.17 1070.11,-13.56 1070.72,-20.53"/>
</g>
<!-- Node18&#45;&gt;Node15 -->
<g id="edge23" class="edge">
<title>Node18&#45;&gt;Node15</title>
<path fill="none" stroke="midnightblue" d="M552.33,-56.4C539.4,-47.13 522.51,-35.03 509.43,-25.65"/>
<polygon fill="midnightblue" stroke="midnightblue" points="511.24,-22.64 501.08,-19.66 507.17,-28.33 511.24,-22.64"/>
</g>
<!-- Node20 -->
<g id="node20" class="node">
<title>Node20</title>
<g id="a_node20"><a xlink:title=" ">
<polygon fill="white" stroke="#bfbfbf" points="543,-783.5 543,-802.5 679,-802.5 679,-783.5 543,-783.5"/>
<text text-anchor="middle" x="611" y="-790.5" font-family="Helvetica,sans-Serif" font-size="10.00">odp/api/abi/pool_types.h</text>
</a>
</g>
</g>
<!-- Node19&#45;&gt;Node20 -->
<g id="edge27" class="edge">
<title>Node19&#45;&gt;Node20</title>
<path fill="none" stroke="midnightblue" d="M478.04,-839.44C504.62,-830.36 546.81,-815.94 576.52,-805.78"/>
<polygon fill="midnightblue" stroke="midnightblue" points="577.75,-809.06 586.08,-802.52 575.49,-802.44 577.75,-809.06"/>
</g>
<!-- Node21 -->
<g id="node21" class="node">
<title>Node21</title>
<g id="a_node21"><a xlink:href="spec_2pool__types_8h.html" target="_top" xlink:title=" ">
<polygon fill="white" stroke="black" points="381.5,-783.5 381.5,-802.5 524.5,-802.5 524.5,-783.5 381.5,-783.5"/>
<text text-anchor="middle" x="453" y="-790.5" font-family="Helvetica,sans-Serif" font-size="10.00">odp/api/spec/pool_types.h</text>
</a>
</g>
</g>
<!-- Node19&#45;&gt;Node21 -->
<g id="edge28" class="edge">
<title>Node19&#45;&gt;Node21</title>
<path fill="none" stroke="midnightblue" d="M453,-839.08C453,-832.01 453,-821.86 453,-812.99"/>
<polygon fill="midnightblue" stroke="midnightblue" points="456.5,-812.75 453,-802.75 449.5,-812.75 456.5,-812.75"/>
</g>
<!-- Node21&#45;&gt;Node4 -->
<g id="edge29" class="edge">
<title>Node21&#45;&gt;Node4</title>
<path fill="none" stroke="midnightblue" d="M524.55,-784C527.74,-783.66 530.9,-783.32 534,-783 618.62,-774.19 1293,-767.08 1293,-682 1293,-682 1293,-682 1293,-132 1293,-74.18 1224.85,-39.54 1179.81,-22.96"/>
<polygon fill="midnightblue" stroke="midnightblue" points="1180.9,-19.64 1170.31,-19.6 1178.57,-26.24 1180.9,-19.64"/>
</g>
<!-- Node21&#45;&gt;Node8 -->
<g id="edge30" class="edge">
<title>Node21&#45;&gt;Node8</title>
<path fill="none" stroke="midnightblue" d="M524.53,-783.56C714.46,-760.93 1217,-699.39 1217,-682 1217,-682 1217,-682 1217,-501 1217,-398.38 1203.14,-352.52 1121,-291 1093.97,-270.76 1007.87,-258.32 946.3,-251.79"/>
<polygon fill="midnightblue" stroke="midnightblue" points="946.57,-248.3 936.26,-250.75 945.85,-255.26 946.57,-248.3"/>
</g>
<!-- Node21&#45;&gt;Node15 -->
<g id="edge62" class="edge">
<title>Node21&#45;&gt;Node15</title>
<path fill="none" stroke="midnightblue" d="M381.48,-791.44C303.6,-786.6 190,-765.27 190,-682 190,-682 190,-682 190,-562.5 190,-430.56 38,-439.44 38,-307.5 38,-307.5 38,-307.5 38,-132 38,-53.35 297.12,-24.41 422.54,-15.01"/>
<polygon fill="midnightblue" stroke="midnightblue" points="423.07,-18.48 432.79,-14.26 422.56,-11.5 423.07,-18.48"/>
</g>
<!-- Node22 -->
<g id="node22" class="node">
<title>Node22</title>
<g id="a_node22"><a xlink:href="dma__types_8h.html" target="_top" xlink:title=" ">
<polygon fill="white" stroke="black" points="393.5,-727.5 393.5,-746.5 512.5,-746.5 512.5,-727.5 393.5,-727.5"/>
<text text-anchor="middle" x="453" y="-734.5" font-family="Helvetica,sans-Serif" font-size="10.00">odp/api/dma_types.h</text>
</a>
</g>
</g>
<!-- Node21&#45;&gt;Node22 -->
<g id="edge31" class="edge">
<title>Node21&#45;&gt;Node22</title>
<path fill="none" stroke="midnightblue" d="M453,-783.08C453,-776.01 453,-765.86 453,-756.99"/>
<polygon fill="midnightblue" stroke="midnightblue" points="456.5,-756.75 453,-746.75 449.5,-756.75 456.5,-756.75"/>
</g>
<!-- Node23 -->
<g id="node23" class="node">
<title>Node23</title>
<g id="a_node23"><a xlink:title=" ">
<polygon fill="white" stroke="#bfbfbf" points="304.5,-671.5 304.5,-690.5 441.5,-690.5 441.5,-671.5 304.5,-671.5"/>
<text text-anchor="middle" x="373" y="-678.5" font-family="Helvetica,sans-Serif" font-size="10.00">odp/api/abi/dma_types.h</text>
</a>
</g>
</g>
<!-- Node22&#45;&gt;Node23 -->
<g id="edge32" class="edge">
<title>Node22&#45;&gt;Node23</title>
<path fill="none" stroke="midnightblue" d="M440.15,-727.32C427.78,-718.98 408.87,-706.21 394.26,-696.35"/>
<polygon fill="midnightblue" stroke="midnightblue" points="396.07,-693.35 385.82,-690.65 392.15,-699.15 396.07,-693.35"/>
</g>
<!-- Node24 -->
<g id="node24" class="node">
<title>Node24</title>
<g id="a_node24"><a xlink:href="spec_2dma__types_8h.html" target="_top" xlink:title=" ">
<polygon fill="white" stroke="black" points="460,-671.5 460,-690.5 604,-690.5 604,-671.5 460,-671.5"/>
<text text-anchor="middle" x="532" y="-678.5" font-family="Helvetica,sans-Serif" font-size="10.00">odp/api/spec/dma_types.h</text>
</a>
</g>
</g>
<!-- Node22&#45;&gt;Node24 -->
<g id="edge33" class="edge">
<title>Node22&#45;&gt;Node24</title>
<path fill="none" stroke="midnightblue" d="M465.69,-727.32C477.9,-718.98 496.58,-706.21 511,-696.35"/>
<polygon fill="midnightblue" stroke="midnightblue" points="513.06,-699.19 519.34,-690.65 509.11,-693.41 513.06,-699.19"/>
</g>
<!-- Node24&#45;&gt;Node4 -->
<g id="edge34" class="edge">
<title>Node24&#45;&gt;Node4</title>
<path fill="none" stroke="midnightblue" d="M604.05,-678.12C694.8,-674.56 855.05,-664.32 989,-635 1076.99,-615.74 1179,-654.57 1179,-564.5 1179,-564.5 1179,-564.5 1179,-501 1179,-382.74 1255,-364.26 1255,-246 1255,-246 1255,-246 1255,-132 1255,-81.35 1201.42,-43.28 1167.73,-24.34"/>
<polygon fill="midnightblue" stroke="midnightblue" points="1169.27,-21.2 1158.81,-19.52 1165.94,-27.36 1169.27,-21.2"/>
</g>
<!-- Node24&#45;&gt;Node8 -->
<g id="edge60" class="edge">
<title>Node24&#45;&gt;Node8</title>
<path fill="none" stroke="midnightblue" d="M604.25,-673.79C765.57,-658.94 1141,-618.58 1141,-564.5 1141,-564.5 1141,-564.5 1141,-372.5 1141,-286.12 1023.8,-258.7 946.47,-250.01"/>
<polygon fill="midnightblue" stroke="midnightblue" points="946.62,-246.51 936.31,-248.95 945.89,-253.47 946.62,-246.51"/>
</g>
<!-- Node24&#45;&gt;Node15 -->
<g id="edge61" class="edge">
<title>Node24&#45;&gt;Node15</title>
<path fill="none" stroke="midnightblue" d="M474,-671.49C423.12,-663.24 353.68,-649.82 330,-635 296.08,-613.77 274,-604.52 274,-564.5 274,-564.5 274,-564.5 274,-372.5 274,-350.67 229.79,-198.29 240,-179 285.1,-93.83 394.85,-44.08 452.4,-22.99"/>
<polygon fill="midnightblue" stroke="midnightblue" points="453.61,-26.28 461.85,-19.62 451.25,-19.69 453.61,-26.28"/>
</g>
<!-- Node24&#45;&gt;Node16 -->
<g id="edge35" class="edge">
<title>Node24&#45;&gt;Node16</title>
<path fill="none" stroke="midnightblue" d="M459.96,-672.15C395.8,-660.68 312,-632.66 312,-564.5 312,-564.5 312,-564.5 312,-372.5 312,-334.13 315.71,-289.33 318.08,-264.67"/>
<polygon fill="midnightblue" stroke="midnightblue" points="321.58,-264.87 319.08,-254.58 314.61,-264.18 321.58,-264.87"/>
</g>
<!-- Node25 -->
<g id="node25" class="node">
<title>Node25</title>
<g id="a_node25"><a xlink:href="packet__types_8h.html" target="_top" xlink:title=" ">
<polygon fill="white" stroke="black" points="541.5,-615.5 541.5,-634.5 670.5,-634.5 670.5,-615.5 541.5,-615.5"/>
<text text-anchor="middle" x="606" y="-622.5" font-family="Helvetica,sans-Serif" font-size="10.00">odp/api/packet_types.h</text>
</a>
</g>
</g>
<!-- Node24&#45;&gt;Node25 -->
<g id="edge36" class="edge">
<title>Node24&#45;&gt;Node25</title>
<path fill="none" stroke="midnightblue" d="M543.89,-671.32C555.15,-663.11 572.29,-650.6 585.71,-640.81"/>
<polygon fill="midnightblue" stroke="midnightblue" points="587.88,-643.56 593.89,-634.83 583.75,-637.9 587.88,-643.56"/>
</g>
<!-- Node24&#45;&gt;Node32 -->
<g id="edge59" class="edge">
<title>Node24&#45;&gt;Node32</title>
<path fill="none" stroke="midnightblue" d="M526.25,-671.46C515.07,-654.53 490.27,-615.18 476,-579 468.53,-560.06 463.3,-537.29 460.25,-521.64"/>
<polygon fill="midnightblue" stroke="midnightblue" points="463.66,-520.86 458.4,-511.66 456.78,-522.13 463.66,-520.86"/>
</g>
<!-- Node26 -->
<g id="node26" class="node">
<title>Node26</title>
<g id="a_node26"><a xlink:title=" ">
<polygon fill="white" stroke="#bfbfbf" points="609,-548.5 609,-578.5 715,-578.5 715,-548.5 609,-548.5"/>
<text text-anchor="start" x="617" y="-566.5" font-family="Helvetica,sans-Serif" font-size="10.00">odp/api/abi/packet</text>
<text text-anchor="middle" x="662" y="-555.5" font-family="Helvetica,sans-Serif" font-size="10.00">_io_types.h</text>
</a>
</g>
</g>
<!-- Node25&#45;&gt;Node26 -->
<g id="edge37" class="edge">
<title>Node25&#45;&gt;Node26</title>
<path fill="none" stroke="midnightblue" d="M614.02,-615.48C621.25,-607.79 632.19,-596.17 641.8,-585.96"/>
<polygon fill="midnightblue" stroke="midnightblue" points="644.5,-588.2 648.8,-578.52 639.4,-583.41 644.5,-588.2"/>
</g>
<!-- Node27 -->
<g id="node27" class="node">
<title>Node27</title>
<g id="a_node27"><a xlink:title=" ">
<polygon fill="white" stroke="#bfbfbf" points="485,-548.5 485,-578.5 591,-578.5 591,-548.5 485,-548.5"/>
<text text-anchor="start" x="493" y="-566.5" font-family="Helvetica,sans-Serif" font-size="10.00">odp/api/abi/packet</text>
<text text-anchor="middle" x="538" y="-555.5" font-family="Helvetica,sans-Serif" font-size="10.00">_types.h</text>
</a>
</g>
</g>
<!-- Node25&#45;&gt;Node27 -->
<g id="edge38" class="edge">
<title>Node25&#45;&gt;Node27</title>
<path fill="none" stroke="midnightblue" d="M596.26,-615.48C587.31,-607.64 573.67,-595.71 561.85,-585.37"/>
<polygon fill="midnightblue" stroke="midnightblue" points="563.86,-582.47 554.03,-578.52 559.25,-587.74 563.86,-582.47"/>
</g>
<!-- Node28 -->
<g id="node28" class="node">
<title>Node28</title>
<g id="a_node28"><a xlink:href="spec_2packet__types_8h.html" target="_top" xlink:title=" ">
<polygon fill="white" stroke="black" points="733.5,-548.5 733.5,-578.5 846.5,-578.5 846.5,-548.5 733.5,-548.5"/>
<text text-anchor="start" x="741.5" y="-566.5" font-family="Helvetica,sans-Serif" font-size="10.00">odp/api/spec/packet</text>
<text text-anchor="middle" x="790" y="-555.5" font-family="Helvetica,sans-Serif" font-size="10.00">_types.h</text>
</a>
</g>
</g>
<!-- Node25&#45;&gt;Node28 -->
<g id="edge39" class="edge">
<title>Node25&#45;&gt;Node28</title>
<path fill="none" stroke="midnightblue" d="M632.36,-615.48C659.5,-606.7 702.52,-592.79 736.77,-581.71"/>
<polygon fill="midnightblue" stroke="midnightblue" points="738.2,-584.93 746.63,-578.52 736.04,-578.27 738.2,-584.93"/>
</g>
<!-- Node28&#45;&gt;Node4 -->
<g id="edge40" class="edge">
<title>Node28&#45;&gt;Node4</title>
<path fill="none" stroke="midnightblue" d="M846.7,-549.02C962.85,-517.67 1217,-428.24 1217,-246 1217,-246 1217,-246 1217,-132 1217,-88.48 1181.3,-47.77 1158.84,-26.47"/>
<polygon fill="midnightblue" stroke="midnightblue" points="1160.99,-23.7 1151.25,-19.53 1156.27,-28.86 1160.99,-23.7"/>
</g>
<!-- Node28&#45;&gt;Node15 -->
<g id="edge58" class="edge">
<title>Node28&#45;&gt;Node15</title>
<path fill="none" stroke="midnightblue" d="M781.77,-548.34C758.33,-508.04 689.14,-389.25 631,-291 577.19,-200.09 549.96,-184.38 509,-87 501.08,-68.18 495.59,-45.39 492.39,-29.7"/>
<polygon fill="midnightblue" stroke="midnightblue" points="495.79,-28.85 490.46,-19.69 488.91,-30.17 495.79,-28.85"/>
</g>
<!-- Node29 -->
<g id="node29" class="node">
<title>Node29</title>
<g id="a_node29"><a xlink:href="proto__stats__types_8h.html" target="_top" xlink:title=" ">
<polygon fill="white" stroke="black" points="820,-358.5 820,-388.5 930,-388.5 930,-358.5 820,-358.5"/>
<text text-anchor="start" x="828" y="-376.5" font-family="Helvetica,sans-Serif" font-size="10.00">odp/api/proto_stats</text>
<text text-anchor="middle" x="875" y="-365.5" font-family="Helvetica,sans-Serif" font-size="10.00">_types.h</text>
</a>
</g>
</g>
<!-- Node28&#45;&gt;Node29 -->
<g id="edge41" class="edge">
<title>Node28&#45;&gt;Node29</title>
<path fill="none" stroke="midnightblue" d="M796.39,-548.37C810.95,-516.17 846.69,-437.1 864.53,-397.66"/>
<polygon fill="midnightblue" stroke="midnightblue" points="867.72,-399.09 868.65,-388.54 861.34,-396.21 867.72,-399.09"/>
</g>
<!-- Node28&#45;&gt;Node32 -->
<g id="edge47" class="edge">
<title>Node28&#45;&gt;Node32</title>
<path fill="none" stroke="midnightblue" d="M733.16,-549.83C730.06,-549.19 726.99,-548.58 724,-548 655.5,-534.71 576.67,-521.7 522.52,-513.12"/>
<polygon fill="midnightblue" stroke="midnightblue" points="522.79,-509.62 512.37,-511.52 521.7,-516.53 522.79,-509.62"/>
</g>
<!-- Node30 -->
<g id="node30" class="node">
<title>Node30</title>
<g id="a_node30"><a xlink:title=" ">
<polygon fill="white" stroke="#bfbfbf" points="947,-291.5 947,-321.5 1075,-321.5 1075,-291.5 947,-291.5"/>
<text text-anchor="start" x="955" y="-309.5" font-family="Helvetica,sans-Serif" font-size="10.00">odp/api/abi/proto_stats</text>
<text text-anchor="middle" x="1011" y="-298.5" font-family="Helvetica,sans-Serif" font-size="10.00">_types.h</text>
</a>
</g>
</g>
<!-- Node29&#45;&gt;Node30 -->
<g id="edge42" class="edge">
<title>Node29&#45;&gt;Node30</title>
<path fill="none" stroke="midnightblue" d="M904.51,-358.4C924.38,-348.9 950.79,-336.28 972.34,-325.98"/>
<polygon fill="midnightblue" stroke="midnightblue" points="974.03,-329.05 981.55,-321.58 971.02,-322.73 974.03,-329.05"/>
</g>
<!-- Node31 -->
<g id="node31" class="node">
<title>Node31</title>
<g id="a_node31"><a xlink:href="spec_2proto__stats__types_8h.html" target="_top" xlink:title=" ">
<polygon fill="white" stroke="black" points="821.5,-291.5 821.5,-321.5 928.5,-321.5 928.5,-291.5 821.5,-291.5"/>
<text text-anchor="start" x="829.5" y="-309.5" font-family="Helvetica,sans-Serif" font-size="10.00">odp/api/spec/proto</text>
<text text-anchor="middle" x="875" y="-298.5" font-family="Helvetica,sans-Serif" font-size="10.00">_stats_types.h</text>
</a>
</g>
</g>
<!-- Node29&#45;&gt;Node31 -->
<g id="edge43" class="edge">
<title>Node29&#45;&gt;Node31</title>
<path fill="none" stroke="midnightblue" d="M875,-358.4C875,-350.64 875,-340.81 875,-331.86"/>
<polygon fill="midnightblue" stroke="midnightblue" points="878.5,-331.58 875,-321.58 871.5,-331.58 878.5,-331.58"/>
</g>
<!-- Node31&#45;&gt;Node4 -->
<g id="edge44" class="edge">
<title>Node31&#45;&gt;Node4</title>
<path fill="none" stroke="midnightblue" d="M918.03,-291.49C993.32,-266.36 1141,-214.01 1141,-190 1141,-190 1141,-190 1141,-132 1141,-95.71 1141,-53.31 1141,-29.56"/>
<polygon fill="midnightblue" stroke="midnightblue" points="1144.5,-29.51 1141,-19.51 1137.5,-29.51 1144.5,-29.51"/>
</g>
<!-- Node31&#45;&gt;Node8 -->
<g id="edge45" class="edge">
<title>Node31&#45;&gt;Node8</title>
<path fill="none" stroke="midnightblue" d="M876.18,-291.4C876.85,-283.47 877.69,-273.46 878.42,-264.86"/>
<polygon fill="midnightblue" stroke="midnightblue" points="881.92,-264.92 879.27,-254.66 874.95,-264.33 881.92,-264.92"/>
</g>
<!-- Node31&#45;&gt;Node15 -->
<g id="edge46" class="edge">
<title>Node31&#45;&gt;Node15</title>
<path fill="none" stroke="midnightblue" d="M831.4,-291.37C789.02,-274.58 731,-242.08 731,-190 731,-190 731,-190 731,-132 731,-53.2 627.09,-25.72 555.45,-16.13"/>
<polygon fill="midnightblue" stroke="midnightblue" points="555.48,-12.61 545.13,-14.84 554.62,-19.56 555.48,-12.61"/>
</g>
<!-- Node33 -->
<g id="node33" class="node">
<title>Node33</title>
<g id="a_node33"><a xlink:title=" ">
<polygon fill="white" stroke="#bfbfbf" points="355.5,-431 355.5,-450 500.5,-450 500.5,-431 355.5,-431"/>
<text text-anchor="middle" x="428" y="-438" font-family="Helvetica,sans-Serif" font-size="10.00">odp/api/abi/queue_types.h</text>
</a>
</g>
</g>
<!-- Node32&#45;&gt;Node33 -->
<g id="edge48" class="edge">
<title>Node32&#45;&gt;Node33</title>
<path fill="none" stroke="midnightblue" d="M452.85,-492.48C448.62,-483.82 441.96,-470.15 436.6,-459.15"/>
<polygon fill="midnightblue" stroke="midnightblue" points="439.67,-457.46 432.15,-450.01 433.38,-460.53 439.67,-457.46"/>
</g>
<!-- Node34 -->
<g id="node34" class="node">
<title>Node34</title>
<g id="a_node34"><a xlink:href="spec_2queue__types_8h.html" target="_top" xlink:title=" ">
<polygon fill="white" stroke="black" points="518.5,-425.5 518.5,-455.5 629.5,-455.5 629.5,-425.5 518.5,-425.5"/>
<text text-anchor="start" x="526.5" y="-443.5" font-family="Helvetica,sans-Serif" font-size="10.00">odp/api/spec/queue</text>
<text text-anchor="middle" x="574" y="-432.5" font-family="Helvetica,sans-Serif" font-size="10.00">_types.h</text>
</a>
</g>
</g>
<!-- Node32&#45;&gt;Node34 -->
<g id="edge49" class="edge">
<title>Node32&#45;&gt;Node34</title>
<path fill="none" stroke="midnightblue" d="M473.76,-492.48C490.28,-484.08 516.05,-470.97 537.32,-460.15"/>
<polygon fill="midnightblue" stroke="midnightblue" points="539.1,-463.18 546.43,-455.52 535.93,-456.94 539.1,-463.18"/>
</g>
<!-- Node34&#45;&gt;Node4 -->
<g id="edge50" class="edge">
<title>Node34&#45;&gt;Node4</title>
<path fill="none" stroke="midnightblue" d="M629.79,-436.89C702.32,-432.36 832.34,-420.27 939,-389 1007.12,-369.03 1029.24,-367.18 1084,-322 1139.75,-276 1179,-262.28 1179,-190 1179,-190 1179,-190 1179,-132 1179,-93.81 1161.56,-51.83 1150.31,-28.72"/>
<polygon fill="midnightblue" stroke="midnightblue" points="1153.29,-26.86 1145.66,-19.52 1147.04,-30.02 1153.29,-26.86"/>
</g>
<!-- Node34&#45;&gt;Node15 -->
<g id="edge57" class="edge">
<title>Node34&#45;&gt;Node15</title>
<path fill="none" stroke="midnightblue" d="M537.59,-425.29C521.73,-417.15 504.61,-405.25 495,-389 426.53,-273.22 479.45,-221.44 475,-87 474.54,-73.23 472.93,-69.62 475,-56 476.37,-47 479.19,-37.33 481.95,-29.26"/>
<polygon fill="midnightblue" stroke="midnightblue" points="485.27,-30.37 485.4,-19.78 478.69,-27.98 485.27,-30.37"/>
</g>
<!-- Node35 -->
<g id="node35" class="node">
<title>Node35</title>
<g id="a_node35"><a xlink:href="schedule__types_8h.html" target="_top" xlink:title=" ">
<polygon fill="white" stroke="black" points="504,-364 504,-383 644,-383 644,-364 504,-364"/>
<text text-anchor="middle" x="574" y="-371" font-family="Helvetica,sans-Serif" font-size="10.00">odp/api/schedule_types.h</text>
</a>
</g>
</g>
<!-- Node34&#45;&gt;Node35 -->
<g id="edge51" class="edge">
<title>Node34&#45;&gt;Node35</title>
<path fill="none" stroke="midnightblue" d="M574,-425.4C574,-416.06 574,-403.71 574,-393.52"/>
<polygon fill="midnightblue" stroke="midnightblue" points="577.5,-393.19 574,-383.19 570.5,-393.19 577.5,-393.19"/>
</g>
<!-- Node36 -->
<g id="node36" class="node">
<title>Node36</title>
<g id="a_node36"><a xlink:title=" ">
<polygon fill="white" stroke="#bfbfbf" points="504.5,-291.5 504.5,-321.5 621.5,-321.5 621.5,-291.5 504.5,-291.5"/>
<text text-anchor="start" x="512.5" y="-309.5" font-family="Helvetica,sans-Serif" font-size="10.00">odp/api/abi/schedule</text>
<text text-anchor="middle" x="563" y="-298.5" font-family="Helvetica,sans-Serif" font-size="10.00">_types.h</text>
</a>
</g>
</g>
<!-- Node35&#45;&gt;Node36 -->
<g id="edge52" class="edge">
<title>Node35&#45;&gt;Node36</title>
<path fill="none" stroke="midnightblue" d="M572.52,-363.73C571.13,-355.54 568.99,-342.92 567.1,-331.71"/>
<polygon fill="midnightblue" stroke="midnightblue" points="570.5,-330.86 565.38,-321.59 563.6,-332.03 570.5,-330.86"/>
</g>
<!-- Node37 -->
<g id="node37" class="node">
<title>Node37</title>
<g id="a_node37"><a xlink:href="spec_2schedule__types_8h.html" target="_top" xlink:title=" ">
<polygon fill="white" stroke="black" points="678.5,-291.5 678.5,-321.5 803.5,-321.5 803.5,-291.5 678.5,-291.5"/>
<text text-anchor="start" x="686.5" y="-309.5" font-family="Helvetica,sans-Serif" font-size="10.00">odp/api/spec/schedule</text>
<text text-anchor="middle" x="741" y="-298.5" font-family="Helvetica,sans-Serif" font-size="10.00">_types.h</text>
</a>
</g>
</g>
<!-- Node35&#45;&gt;Node37 -->
<g id="edge53" class="edge">
<title>Node35&#45;&gt;Node37</title>
<path fill="none" stroke="midnightblue" d="M596.18,-363.87C621.34,-354.07 663.08,-337.83 695.29,-325.29"/>
<polygon fill="midnightblue" stroke="midnightblue" points="696.91,-328.42 704.96,-321.53 694.37,-321.89 696.91,-328.42"/>
</g>
<!-- Node37&#45;&gt;Node4 -->
<g id="edge54" class="edge">
<title>Node37&#45;&gt;Node4</title>
<path fill="none" stroke="midnightblue" d="M743.9,-291.25C751.5,-257.4 775.1,-171.34 827,-123 859.43,-92.79 881.55,-109.04 920,-87 939.21,-75.99 939.13,-65.77 959,-56 993.69,-38.94 1035.37,-28.02 1070.08,-21.22"/>
<polygon fill="midnightblue" stroke="midnightblue" points="1070.97,-24.62 1080.15,-19.33 1069.67,-17.74 1070.97,-24.62"/>
</g>
<!-- Node37&#45;&gt;Node8 -->
<g id="edge55" class="edge">
<title>Node37&#45;&gt;Node8</title>
<path fill="none" stroke="midnightblue" d="M773.94,-291.4C797.16,-281.46 827.99,-268.26 850.42,-258.66"/>
<polygon fill="midnightblue" stroke="midnightblue" points="851.96,-261.81 859.77,-254.66 849.2,-255.38 851.96,-261.81"/>
</g>
<!-- Node37&#45;&gt;Node15 -->
<g id="edge56" class="edge">
<title>Node37&#45;&gt;Node15</title>
<path fill="none" stroke="midnightblue" d="M734.06,-291.45C729.14,-281.37 722.48,-267.44 717,-255 678.49,-167.62 706.47,-120.43 636,-56 613.9,-35.79 582.92,-24.65 555.11,-18.51"/>
<polygon fill="midnightblue" stroke="midnightblue" points="555.52,-15.03 545.02,-16.47 554.13,-21.89 555.52,-15.03"/>
</g>
</g>
</svg>
