<?xml version="1.0" encoding="UTF-8" standalone="no"?>
<!DOCTYPE svg PUBLIC "-//W3C//DTD SVG 1.1//EN"
 "http://www.w3.org/Graphics/SVG/1.1/DTD/svg11.dtd">
<!-- Generated by graphviz version 2.43.0 (0)
 -->
<!-- Title: linux.h Pages: 1 -->
<svg width="561pt" height="263pt"
 viewBox="0.00 0.00 561.00 263.00" xmlns="http://www.w3.org/2000/svg" xmlns:xlink="http://www.w3.org/1999/xlink">
<g id="graph0" class="graph" transform="scale(1 1) rotate(0) translate(4 259)">
<title>linux.h</title>
<polygon fill="white" stroke="transparent" points="-4,4 -4,-259 557,-259 557,4 -4,4"/>
<!-- Node1 -->
<g id="node1" class="node">
<title>Node1</title>
<g id="a_node1"><a xlink:title=" ">
<polygon fill="#bfbfbf" stroke="black" points="97.5,-235.5 97.5,-254.5 147.5,-254.5 147.5,-235.5 97.5,-235.5"/>
<text text-anchor="middle" x="122.5" y="-242.5" font-family="Helvetica,sans-Serif" font-size="10.00">linux.h</text>
</a>
</g>
</g>
<!-- Node2 -->
<g id="node2" class="node">
<title>Node2</title>
<g id="a_node2"><a xlink:href="process_8h.html" target="_top" xlink:title=" ">
<polygon fill="white" stroke="black" points="0,-179.5 0,-198.5 145,-198.5 145,-179.5 0,-179.5"/>
<text text-anchor="middle" x="72.5" y="-186.5" font-family="Helvetica,sans-Serif" font-size="10.00">odp/helper/linux/process.h</text>
</a>
</g>
</g>
<!-- Node1&#45;&gt;Node2 -->
<g id="edge1" class="edge">
<title>Node1&#45;&gt;Node2</title>
<path fill="none" stroke="midnightblue" d="M114.24,-235.08C107.04,-227.3 96.39,-215.8 87.65,-206.37"/>
<polygon fill="midnightblue" stroke="midnightblue" points="89.97,-203.71 80.6,-198.75 84.83,-208.47 89.97,-203.71"/>
</g>
<!-- Node7 -->
<g id="node7" class="node">
<title>Node7</title>
<g id="a_node7"><a xlink:href="pthread_8h.html" target="_top" xlink:title=" ">
<polygon fill="white" stroke="black" points="132,-67.5 132,-86.5 195,-86.5 195,-67.5 132,-67.5"/>
<text text-anchor="middle" x="163.5" y="-74.5" font-family="Helvetica,sans-Serif" font-size="10.00">pthread.h</text>
</a>
</g>
</g>
<!-- Node1&#45;&gt;Node7 -->
<g id="edge12" class="edge">
<title>Node1&#45;&gt;Node7</title>
<path fill="none" stroke="midnightblue" d="M130.44,-235.47C137.83,-226.95 148.46,-213.12 153.5,-199 165.8,-164.54 166.02,-121.18 164.88,-96.83"/>
<polygon fill="midnightblue" stroke="midnightblue" points="168.36,-96.3 164.26,-86.53 161.37,-96.72 168.36,-96.3"/>
</g>
<!-- Node3 -->
<g id="node3" class="node">
<title>Node3</title>
<g id="a_node3"><a xlink:href="threads_8h.html" target="_top" xlink:title=" ">
<polygon fill="white" stroke="black" points="202,-123.5 202,-142.5 319,-142.5 319,-123.5 202,-123.5"/>
<text text-anchor="middle" x="260.5" y="-130.5" font-family="Helvetica,sans-Serif" font-size="10.00">odp/helper/threads.h</text>
</a>
</g>
</g>
<!-- Node2&#45;&gt;Node3 -->
<g id="edge2" class="edge">
<title>Node2&#45;&gt;Node3</title>
<path fill="none" stroke="midnightblue" d="M102.29,-179.44C134.33,-170.24 185.43,-155.56 220.85,-145.39"/>
<polygon fill="midnightblue" stroke="midnightblue" points="222.21,-148.64 230.85,-142.52 220.27,-141.91 222.21,-148.64"/>
</g>
<!-- Node6 -->
<g id="node6" class="node">
<title>Node6</title>
<g id="a_node6"><a xlink:title=" ">
<polygon fill="white" stroke="#bfbfbf" points="131.5,-6 131.5,-25 195.5,-25 195.5,-6 131.5,-6"/>
<text text-anchor="middle" x="163.5" y="-13" font-family="Helvetica,sans-Serif" font-size="10.00">odp_api.h</text>
</a>
</g>
</g>
<!-- Node2&#45;&gt;Node6 -->
<g id="edge11" class="edge">
<title>Node2&#45;&gt;Node6</title>
<path fill="none" stroke="midnightblue" d="M75.1,-179.39C81.46,-158.98 99.02,-106.45 122.5,-67 129.83,-54.69 139.96,-42.18 148.32,-32.69"/>
<polygon fill="midnightblue" stroke="midnightblue" points="150.97,-34.97 155.09,-25.21 145.78,-30.28 150.97,-34.97"/>
</g>
<!-- Node4 -->
<g id="node4" class="node">
<title>Node4</title>
<g id="a_node4"><a xlink:href="deprecated_8h.html" target="_top" xlink:title=" ">
<polygon fill="white" stroke="black" points="418,-67.5 418,-86.5 553,-86.5 553,-67.5 418,-67.5"/>
<text text-anchor="middle" x="485.5" y="-74.5" font-family="Helvetica,sans-Serif" font-size="10.00">odp/helper/deprecated.h</text>
</a>
</g>
</g>
<!-- Node3&#45;&gt;Node4 -->
<g id="edge3" class="edge">
<title>Node3&#45;&gt;Node4</title>
<path fill="none" stroke="midnightblue" d="M296.15,-123.44C335.16,-114.08 397.77,-99.06 440.22,-88.87"/>
<polygon fill="midnightblue" stroke="midnightblue" points="441.11,-92.25 450.01,-86.52 439.47,-85.45 441.11,-92.25"/>
</g>
<!-- Node3&#45;&gt;Node6 -->
<g id="edge5" class="edge">
<title>Node3&#45;&gt;Node6</title>
<path fill="none" stroke="midnightblue" d="M253.21,-123.32C237.13,-104.17 198.39,-58.04 177.47,-33.13"/>
<polygon fill="midnightblue" stroke="midnightblue" points="179.99,-30.69 170.88,-25.28 174.63,-35.19 179.99,-30.69"/>
</g>
<!-- Node3&#45;&gt;Node7 -->
<g id="edge6" class="edge">
<title>Node3&#45;&gt;Node7</title>
<path fill="none" stroke="midnightblue" d="M239.8,-123.32C222.85,-114.9 199.32,-101.97 182.77,-92.07"/>
<polygon fill="midnightblue" stroke="midnightblue" points="184.29,-88.9 173.94,-86.65 180.63,-94.87 184.29,-88.9"/>
</g>
<!-- Node8 -->
<g id="node8" class="node">
<title>Node8</title>
<g id="a_node8"><a xlink:title=" ">
<polygon fill="white" stroke="#bfbfbf" points="252,-67.5 252,-86.5 309,-86.5 309,-67.5 252,-67.5"/>
<text text-anchor="middle" x="280.5" y="-74.5" font-family="Helvetica,sans-Serif" font-size="10.00">getopt.h</text>
</a>
</g>
</g>
<!-- Node3&#45;&gt;Node8 -->
<g id="edge9" class="edge">
<title>Node3&#45;&gt;Node8</title>
<path fill="none" stroke="midnightblue" d="M263.8,-123.08C266.48,-115.85 270.35,-105.41 273.69,-96.4"/>
<polygon fill="midnightblue" stroke="midnightblue" points="277.07,-97.34 277.26,-86.75 270.5,-94.91 277.07,-97.34"/>
</g>
<!-- Node9 -->
<g id="node9" class="node">
<title>Node9</title>
<g id="a_node9"><a xlink:title=" ">
<polygon fill="white" stroke="#bfbfbf" points="327.5,-67.5 327.5,-86.5 399.5,-86.5 399.5,-67.5 327.5,-67.5"/>
<text text-anchor="middle" x="363.5" y="-74.5" font-family="Helvetica,sans-Serif" font-size="10.00">sys/types.h</text>
</a>
</g>
</g>
<!-- Node3&#45;&gt;Node9 -->
<g id="edge10" class="edge">
<title>Node3&#45;&gt;Node9</title>
<path fill="none" stroke="midnightblue" d="M277.05,-123.32C293.49,-114.7 318.93,-101.36 337.97,-91.39"/>
<polygon fill="midnightblue" stroke="midnightblue" points="339.76,-94.4 346.99,-86.65 336.51,-88.2 339.76,-94.4"/>
</g>
<!-- Node5 -->
<g id="node5" class="node">
<title>Node5</title>
<g id="a_node5"><a xlink:href="autoheader__external_8h_source.html" target="_top" xlink:title=" ">
<polygon fill="white" stroke="black" points="422,-0.5 422,-30.5 549,-30.5 549,-0.5 422,-0.5"/>
<text text-anchor="start" x="430" y="-18.5" font-family="Helvetica,sans-Serif" font-size="10.00">odp/helper/autoheader</text>
<text text-anchor="middle" x="485.5" y="-7.5" font-family="Helvetica,sans-Serif" font-size="10.00">_external.h</text>
</a>
</g>
</g>
<!-- Node4&#45;&gt;Node5 -->
<g id="edge4" class="edge">
<title>Node4&#45;&gt;Node5</title>
<path fill="none" stroke="midnightblue" d="M485.5,-67.48C485.5,-60.47 485.5,-50.19 485.5,-40.7"/>
<polygon fill="midnightblue" stroke="midnightblue" points="489,-40.52 485.5,-30.52 482,-40.52 489,-40.52"/>
</g>
<!-- Node7&#45;&gt;Node3 -->
<g id="edge7" class="edge">
<title>Node7&#45;&gt;Node3</title>
<path fill="none" stroke="midnightblue" d="M184.16,-86.65C201.1,-95.07 224.62,-108 241.19,-117.9"/>
<polygon fill="midnightblue" stroke="midnightblue" points="239.68,-121.08 250.03,-123.32 243.33,-115.11 239.68,-121.08"/>
</g>
<!-- Node7&#45;&gt;Node6 -->
<g id="edge8" class="edge">
<title>Node7&#45;&gt;Node6</title>
<path fill="none" stroke="midnightblue" d="M163.5,-67.48C163.5,-59.08 163.5,-45.98 163.5,-35.16"/>
<polygon fill="midnightblue" stroke="midnightblue" points="167,-35.01 163.5,-25.01 160,-35.01 167,-35.01"/>
</g>
</g>
</svg>
