<?xml version="1.0" encoding="UTF-8" standalone="no"?>
<!DOCTYPE svg PUBLIC "-//W3C//DTD SVG 1.1//EN"
 "http://www.w3.org/Graphics/SVG/1.1/DTD/svg11.dtd">
<!-- Generated by graphviz version 2.43.0 (0)
 -->
<!-- Title: odph_api.h Pages: 1 -->
<svg width="2231pt" height="207pt"
 viewBox="0.00 0.00 2230.50 207.00" xmlns="http://www.w3.org/2000/svg" xmlns:xlink="http://www.w3.org/1999/xlink">
<g id="graph0" class="graph" transform="scale(1 1) rotate(0) translate(4 203)">
<title>odph_api.h</title>
<polygon fill="white" stroke="transparent" points="-4,4 -4,-203 2226.5,-203 2226.5,4 -4,4"/>
<!-- Node1 -->
<g id="node1" class="node">
<title>Node1</title>
<g id="a_node1"><a xlink:title=" ">
<polygon fill="#bfbfbf" stroke="black" points="892.5,-179.5 892.5,-198.5 962.5,-198.5 962.5,-179.5 892.5,-179.5"/>
<text text-anchor="middle" x="927.5" y="-186.5" font-family="Helvetica,sans-Serif" font-size="10.00">odph_api.h</text>
</a>
</g>
</g>
<!-- Node2 -->
<g id="node2" class="node">
<title>Node2</title>
<g id="a_node2"><a xlink:href="autoheader__external_8h_source.html" target="_top" xlink:title=" ">
<polygon fill="white" stroke="black" points="129,-0.5 129,-30.5 256,-30.5 256,-0.5 129,-0.5"/>
<text text-anchor="start" x="137" y="-18.5" font-family="Helvetica,sans-Serif" font-size="10.00">odp/helper/autoheader</text>
<text text-anchor="middle" x="192.5" y="-7.5" font-family="Helvetica,sans-Serif" font-size="10.00">_external.h</text>
</a>
</g>
</g>
<!-- Node1&#45;&gt;Node2 -->
<g id="edge1" class="edge">
<title>Node1&#45;&gt;Node2</title>
<path fill="none" stroke="midnightblue" d="M892.47,-188.32C755.6,-189.26 262.04,-189.36 211.5,-143 183.64,-117.44 184.43,-69.93 188.09,-40.97"/>
<polygon fill="midnightblue" stroke="midnightblue" points="191.58,-41.26 189.58,-30.86 184.66,-40.24 191.58,-41.26"/>
</g>
<!-- Node3 -->
<g id="node3" class="node">
<title>Node3</title>
<g id="a_node3"><a xlink:href="odph__debug_8h.html" target="_top" xlink:title=" ">
<polygon fill="white" stroke="black" points="24.5,-123.5 24.5,-142.5 164.5,-142.5 164.5,-123.5 24.5,-123.5"/>
<text text-anchor="middle" x="94.5" y="-130.5" font-family="Helvetica,sans-Serif" font-size="10.00">odp/helper/odph_debug.h</text>
</a>
</g>
</g>
<!-- Node1&#45;&gt;Node3 -->
<g id="edge2" class="edge">
<title>Node1&#45;&gt;Node3</title>
<path fill="none" stroke="midnightblue" d="M892.36,-186.47C785.19,-181.69 453.06,-165.94 178.5,-143 177.23,-142.89 175.94,-142.78 174.65,-142.67"/>
<polygon fill="midnightblue" stroke="midnightblue" points="174.88,-139.18 164.6,-141.76 174.25,-146.15 174.88,-139.18"/>
</g>
<!-- Node6 -->
<g id="node6" class="node">
<title>Node6</title>
<g id="a_node6"><a xlink:href="chksum_8h.html" target="_top" xlink:title=" ">
<polygon fill="white" stroke="black" points="310,-67.5 310,-86.5 429,-86.5 429,-67.5 310,-67.5"/>
<text text-anchor="middle" x="369.5" y="-74.5" font-family="Helvetica,sans-Serif" font-size="10.00">odp/helper/chksum.h</text>
</a>
</g>
</g>
<!-- Node1&#45;&gt;Node6 -->
<g id="edge6" class="edge">
<title>Node1&#45;&gt;Node6</title>
<path fill="none" stroke="midnightblue" d="M892.33,-186.42C800.66,-182.01 556.19,-168.15 479.5,-143 470.23,-139.96 421.74,-110.39 392.32,-92.2"/>
<polygon fill="midnightblue" stroke="midnightblue" points="393.85,-89.03 383.51,-86.74 390.17,-94.98 393.85,-89.03"/>
</g>
<!-- Node8 -->
<g id="node8" class="node">
<title>Node8</title>
<g id="a_node8"><a xlink:href="odph__cuckootable_8h.html" target="_top" xlink:title=" ">
<polygon fill="white" stroke="black" points="1512.5,-123.5 1512.5,-142.5 1680.5,-142.5 1680.5,-123.5 1512.5,-123.5"/>
<text text-anchor="middle" x="1596.5" y="-130.5" font-family="Helvetica,sans-Serif" font-size="10.00">odp/helper/odph_cuckootable.h</text>
</a>
</g>
</g>
<!-- Node1&#45;&gt;Node8 -->
<g id="edge8" class="edge">
<title>Node1&#45;&gt;Node8</title>
<path fill="none" stroke="midnightblue" d="M962.6,-185.39C1052.01,-178.72 1295.64,-160.31 1498.5,-143 1499.77,-142.89 1501.05,-142.78 1502.33,-142.67"/>
<polygon fill="midnightblue" stroke="midnightblue" points="1502.65,-146.16 1512.31,-141.8 1502.04,-139.18 1502.65,-146.16"/>
</g>
<!-- Node9 -->
<g id="node9" class="node">
<title>Node9</title>
<g id="a_node9"><a xlink:href="table_8h.html" target="_top" xlink:title=" ">
<polygon fill="white" stroke="black" points="1584,-67.5 1584,-86.5 1689,-86.5 1689,-67.5 1584,-67.5"/>
<text text-anchor="middle" x="1636.5" y="-74.5" font-family="Helvetica,sans-Serif" font-size="10.00">odp/helper/table.h</text>
</a>
</g>
</g>
<!-- Node1&#45;&gt;Node9 -->
<g id="edge38" class="edge">
<title>Node1&#45;&gt;Node9</title>
<path fill="none" stroke="midnightblue" d="M962.73,-186.89C1066.65,-183.31 1370.58,-170.7 1465.5,-143 1483.82,-137.65 1485.96,-130.53 1503.5,-123 1534.29,-109.79 1570.35,-97.79 1597.15,-89.51"/>
<polygon fill="midnightblue" stroke="midnightblue" points="1598.4,-92.79 1606.94,-86.53 1596.36,-86.1 1598.4,-92.79"/>
</g>
<!-- Node11 -->
<g id="node11" class="node">
<title>Node11</title>
<g id="a_node11"><a xlink:href="strong__types_8h.html" target="_top" xlink:title=" ">
<polygon fill="white" stroke="black" points="1823,-6 1823,-25 1966,-25 1966,-6 1823,-6"/>
<text text-anchor="middle" x="1894.5" y="-13" font-family="Helvetica,sans-Serif" font-size="10.00">odp/helper/strong_types.h</text>
</a>
</g>
</g>
<!-- Node1&#45;&gt;Node11 -->
<g id="edge35" class="edge">
<title>Node1&#45;&gt;Node11</title>
<path fill="none" stroke="midnightblue" d="M962.53,-187.96C1149.28,-187.55 2020.57,-183.5 2059.5,-143 2106.51,-94.09 1995.56,-48.81 1933.25,-28.2"/>
<polygon fill="midnightblue" stroke="midnightblue" points="1934.29,-24.85 1923.7,-25.1 1932.13,-31.51 1934.29,-24.85"/>
</g>
<!-- Node12 -->
<g id="node12" class="node">
<title>Node12</title>
<g id="a_node12"><a xlink:href="eth_8h.html" target="_top" xlink:title=" ">
<polygon fill="white" stroke="black" points="557.5,-67.5 557.5,-86.5 653.5,-86.5 653.5,-67.5 557.5,-67.5"/>
<text text-anchor="middle" x="605.5" y="-74.5" font-family="Helvetica,sans-Serif" font-size="10.00">odp/helper/eth.h</text>
</a>
</g>
</g>
<!-- Node1&#45;&gt;Node12 -->
<g id="edge12" class="edge">
<title>Node1&#45;&gt;Node12</title>
<path fill="none" stroke="midnightblue" d="M902.5,-179.46C845.56,-160.01 706.07,-112.36 640.56,-89.98"/>
<polygon fill="midnightblue" stroke="midnightblue" points="641.3,-86.53 630.7,-86.61 639.04,-93.16 641.3,-86.53"/>
</g>
<!-- Node13 -->
<g id="node13" class="node">
<title>Node13</title>
<g id="a_node13"><a xlink:href="gtp_8h.html" target="_top" xlink:title=" ">
<polygon fill="white" stroke="black" points="671.5,-67.5 671.5,-86.5 767.5,-86.5 767.5,-67.5 671.5,-67.5"/>
<text text-anchor="middle" x="719.5" y="-74.5" font-family="Helvetica,sans-Serif" font-size="10.00">odp/helper/gtp.h</text>
</a>
</g>
</g>
<!-- Node1&#45;&gt;Node13 -->
<g id="edge14" class="edge">
<title>Node1&#45;&gt;Node13</title>
<path fill="none" stroke="midnightblue" d="M911.18,-179.37C875.03,-160.25 788.01,-114.23 744.76,-91.36"/>
<polygon fill="midnightblue" stroke="midnightblue" points="746.22,-88.17 735.75,-86.59 742.95,-94.36 746.22,-88.17"/>
</g>
<!-- Node14 -->
<g id="node14" class="node">
<title>Node14</title>
<g id="a_node14"><a xlink:href="odph__hashtable_8h.html" target="_top" xlink:title=" ">
<polygon fill="white" stroke="black" points="1698.5,-123.5 1698.5,-142.5 1856.5,-142.5 1856.5,-123.5 1698.5,-123.5"/>
<text text-anchor="middle" x="1777.5" y="-130.5" font-family="Helvetica,sans-Serif" font-size="10.00">odp/helper/odph_hashtable.h</text>
</a>
</g>
</g>
<!-- Node1&#45;&gt;Node14 -->
<g id="edge16" class="edge">
<title>Node1&#45;&gt;Node14</title>
<path fill="none" stroke="midnightblue" d="M962.86,-186.45C1070.19,-181.64 1401.89,-165.93 1688.2,-143.07"/>
<polygon fill="midnightblue" stroke="midnightblue" points="1688.67,-146.54 1698.36,-142.26 1688.11,-139.57 1688.67,-146.54"/>
</g>
<!-- Node15 -->
<g id="node15" class="node">
<title>Node15</title>
<g id="a_node15"><a xlink:href="icmp_8h.html" target="_top" xlink:title=" ">
<polygon fill="white" stroke="black" points="785.5,-67.5 785.5,-86.5 889.5,-86.5 889.5,-67.5 785.5,-67.5"/>
<text text-anchor="middle" x="837.5" y="-74.5" font-family="Helvetica,sans-Serif" font-size="10.00">odp/helper/icmp.h</text>
</a>
</g>
</g>
<!-- Node1&#45;&gt;Node15 -->
<g id="edge18" class="edge">
<title>Node1&#45;&gt;Node15</title>
<path fill="none" stroke="midnightblue" d="M920.44,-179.37C905.45,-161.05 870.27,-118.05 850.89,-94.36"/>
<polygon fill="midnightblue" stroke="midnightblue" points="853.57,-92.11 844.53,-86.59 848.15,-96.55 853.57,-92.11"/>
</g>
<!-- Node16 -->
<g id="node16" class="node">
<title>Node16</title>
<g id="a_node16"><a xlink:href="igmp_8h.html" target="_top" xlink:title=" ">
<polygon fill="white" stroke="black" points="908,-67.5 908,-86.5 1013,-86.5 1013,-67.5 908,-67.5"/>
<text text-anchor="middle" x="960.5" y="-74.5" font-family="Helvetica,sans-Serif" font-size="10.00">odp/helper/igmp.h</text>
</a>
</g>
</g>
<!-- Node1&#45;&gt;Node16 -->
<g id="edge20" class="edge">
<title>Node1&#45;&gt;Node16</title>
<path fill="none" stroke="midnightblue" d="M920.65,-179.33C911.51,-166.61 897.45,-142.33 906.5,-123 912.54,-110.09 924.31,-99.6 935.32,-92"/>
<polygon fill="midnightblue" stroke="midnightblue" points="937.33,-94.87 943.87,-86.54 933.56,-88.97 937.33,-94.87"/>
</g>
<!-- Node17 -->
<g id="node17" class="node">
<title>Node17</title>
<g id="a_node17"><a xlink:href="ip_8h.html" target="_top" xlink:title=" ">
<polygon fill="white" stroke="black" points="489,-123.5 489,-142.5 578,-142.5 578,-123.5 489,-123.5"/>
<text text-anchor="middle" x="533.5" y="-130.5" font-family="Helvetica,sans-Serif" font-size="10.00">odp/helper/ip.h</text>
</a>
</g>
</g>
<!-- Node1&#45;&gt;Node17 -->
<g id="edge22" class="edge">
<title>Node1&#45;&gt;Node17</title>
<path fill="none" stroke="midnightblue" d="M892.19,-183.16C823.27,-173.71 670.4,-152.76 588.25,-141.5"/>
<polygon fill="midnightblue" stroke="midnightblue" points="588.49,-138 578.11,-140.11 587.54,-144.94 588.49,-138"/>
</g>
<!-- Node19 -->
<g id="node19" class="node">
<title>Node19</title>
<g id="a_node19"><a xlink:href="ipsec_8h.html" target="_top" xlink:title=" ">
<polygon fill="white" stroke="black" points="915.5,-123.5 915.5,-142.5 1021.5,-142.5 1021.5,-123.5 915.5,-123.5"/>
<text text-anchor="middle" x="968.5" y="-130.5" font-family="Helvetica,sans-Serif" font-size="10.00">odp/helper/ipsec.h</text>
</a>
</g>
</g>
<!-- Node1&#45;&gt;Node19 -->
<g id="edge26" class="edge">
<title>Node1&#45;&gt;Node19</title>
<path fill="none" stroke="midnightblue" d="M934.27,-179.08C940.06,-171.46 948.56,-160.26 955.64,-150.94"/>
<polygon fill="midnightblue" stroke="midnightblue" points="958.6,-152.83 961.86,-142.75 953.02,-148.6 958.6,-152.83"/>
</g>
<!-- Node20 -->
<g id="node20" class="node">
<title>Node20</title>
<g id="a_node20"><a xlink:href="odph__lineartable_8h.html" target="_top" xlink:title=" ">
<polygon fill="white" stroke="black" points="1294.5,-123.5 1294.5,-142.5 1456.5,-142.5 1456.5,-123.5 1294.5,-123.5"/>
<text text-anchor="middle" x="1375.5" y="-130.5" font-family="Helvetica,sans-Serif" font-size="10.00">odp/helper/odph_lineartable.h</text>
</a>
</g>
</g>
<!-- Node1&#45;&gt;Node20 -->
<g id="edge28" class="edge">
<title>Node1&#45;&gt;Node20</title>
<path fill="none" stroke="midnightblue" d="M962.65,-183.76C1033.68,-175.2 1195.88,-155.65 1294.51,-143.76"/>
<polygon fill="midnightblue" stroke="midnightblue" points="1295.23,-147.2 1304.74,-142.53 1294.39,-140.25 1295.23,-147.2"/>
</g>
<!-- Node21 -->
<g id="node21" class="node">
<title>Node21</title>
<g id="a_node21"><a xlink:href="odph__iplookuptable_8h.html" target="_top" xlink:title=" ">
<polygon fill="white" stroke="black" points="1874.5,-123.5 1874.5,-142.5 2050.5,-142.5 2050.5,-123.5 1874.5,-123.5"/>
<text text-anchor="middle" x="1962.5" y="-130.5" font-family="Helvetica,sans-Serif" font-size="10.00">odp/helper/odph_iplookuptable.h</text>
</a>
</g>
</g>
<!-- Node1&#45;&gt;Node21 -->
<g id="edge31" class="edge">
<title>Node1&#45;&gt;Node21</title>
<path fill="none" stroke="midnightblue" d="M962.88,-186.87C1085.81,-182.83 1505.91,-168.02 1864.43,-143.04"/>
<polygon fill="midnightblue" stroke="midnightblue" points="1864.75,-146.53 1874.49,-142.34 1864.27,-139.55 1864.75,-146.53"/>
</g>
<!-- Node22 -->
<g id="node22" class="node">
<title>Node22</title>
<g id="a_node22"><a xlink:href="sctp_8h.html" target="_top" xlink:title=" ">
<polygon fill="white" stroke="black" points="1175,-123.5 1175,-142.5 1276,-142.5 1276,-123.5 1175,-123.5"/>
<text text-anchor="middle" x="1225.5" y="-130.5" font-family="Helvetica,sans-Serif" font-size="10.00">odp/helper/sctp.h</text>
</a>
</g>
</g>
<!-- Node1&#45;&gt;Node22 -->
<g id="edge33" class="edge">
<title>Node1&#45;&gt;Node22</title>
<path fill="none" stroke="midnightblue" d="M962.56,-181.65C1013.25,-172.46 1107.57,-155.37 1168.38,-144.35"/>
<polygon fill="midnightblue" stroke="midnightblue" points="1169.37,-147.73 1178.59,-142.5 1168.12,-140.84 1169.37,-147.73"/>
</g>
<!-- Node23 -->
<g id="node23" class="node">
<title>Node23</title>
<g id="a_node23"><a xlink:href="tcp_8h.html" target="_top" xlink:title=" ">
<polygon fill="white" stroke="black" points="221,-123.5 221,-142.5 316,-142.5 316,-123.5 221,-123.5"/>
<text text-anchor="middle" x="268.5" y="-130.5" font-family="Helvetica,sans-Serif" font-size="10.00">odp/helper/tcp.h</text>
</a>
</g>
</g>
<!-- Node1&#45;&gt;Node23 -->
<g id="edge36" class="edge">
<title>Node1&#45;&gt;Node23</title>
<path fill="none" stroke="midnightblue" d="M892.46,-186.39C801.11,-181.97 548.04,-168.35 326.25,-142.98"/>
<polygon fill="midnightblue" stroke="midnightblue" points="326.38,-139.48 316.05,-141.81 325.58,-146.43 326.38,-139.48"/>
</g>
<!-- Node24 -->
<g id="node24" class="node">
<title>Node24</title>
<g id="a_node24"><a xlink:href="threads_8h.html" target="_top" xlink:title=" ">
<polygon fill="white" stroke="black" points="1040,-123.5 1040,-142.5 1157,-142.5 1157,-123.5 1040,-123.5"/>
<text text-anchor="middle" x="1098.5" y="-130.5" font-family="Helvetica,sans-Serif" font-size="10.00">odp/helper/threads.h</text>
</a>
</g>
</g>
<!-- Node1&#45;&gt;Node24 -->
<g id="edge39" class="edge">
<title>Node1&#45;&gt;Node24</title>
<path fill="none" stroke="midnightblue" d="M954.6,-179.44C983.49,-170.32 1029.42,-155.81 1061.61,-145.65"/>
<polygon fill="midnightblue" stroke="midnightblue" points="1063.05,-148.87 1071.53,-142.52 1060.94,-142.19 1063.05,-148.87"/>
</g>
<!-- Node29 -->
<g id="node29" class="node">
<title>Node29</title>
<g id="a_node29"><a xlink:href="udp_8h.html" target="_top" xlink:title=" ">
<polygon fill="white" stroke="black" points="334.5,-123.5 334.5,-142.5 432.5,-142.5 432.5,-123.5 334.5,-123.5"/>
<text text-anchor="middle" x="383.5" y="-130.5" font-family="Helvetica,sans-Serif" font-size="10.00">odp/helper/udp.h</text>
</a>
</g>
</g>
<!-- Node1&#45;&gt;Node29 -->
<g id="edge48" class="edge">
<title>Node1&#45;&gt;Node29</title>
<path fill="none" stroke="midnightblue" d="M892.43,-185.31C812.96,-179.08 613.08,-162.68 446.5,-143 445.23,-142.85 443.96,-142.7 442.67,-142.54"/>
<polygon fill="midnightblue" stroke="midnightblue" points="443.01,-139.05 432.65,-141.26 442.13,-146 443.01,-139.05"/>
</g>
<!-- Node30 -->
<g id="node30" class="node">
<title>Node30</title>
<g id="a_node30"><a xlink:href="version_8h.html" target="_top" xlink:title=" ">
<polygon fill="white" stroke="black" points="2106.5,-123.5 2106.5,-142.5 2222.5,-142.5 2222.5,-123.5 2106.5,-123.5"/>
<text text-anchor="middle" x="2164.5" y="-130.5" font-family="Helvetica,sans-Serif" font-size="10.00">odp/helper/version.h</text>
</a>
</g>
</g>
<!-- Node1&#45;&gt;Node30 -->
<g id="edge51" class="edge">
<title>Node1&#45;&gt;Node30</title>
<path fill="none" stroke="midnightblue" d="M962.83,-187.74C1104.83,-186.46 1647.67,-179.33 2092.5,-143 2093.77,-142.9 2095.05,-142.79 2096.35,-142.67"/>
<polygon fill="midnightblue" stroke="midnightblue" points="2096.77,-146.15 2106.39,-141.7 2096.09,-139.18 2096.77,-146.15"/>
</g>
<!-- Node3&#45;&gt;Node2 -->
<g id="edge3" class="edge">
<title>Node3&#45;&gt;Node2</title>
<path fill="none" stroke="midnightblue" d="M101.87,-123.32C117.05,-105.42 152.23,-63.97 174.02,-38.28"/>
<polygon fill="midnightblue" stroke="midnightblue" points="176.78,-40.43 180.58,-30.55 171.44,-35.91 176.78,-40.43"/>
</g>
<!-- Node4 -->
<g id="node4" class="node">
<title>Node4</title>
<g id="a_node4"><a xlink:title=" ">
<polygon fill="white" stroke="#bfbfbf" points="71.5,-67.5 71.5,-86.5 121.5,-86.5 121.5,-67.5 71.5,-67.5"/>
<text text-anchor="middle" x="96.5" y="-74.5" font-family="Helvetica,sans-Serif" font-size="10.00">stdio.h</text>
</a>
</g>
</g>
<!-- Node3&#45;&gt;Node4 -->
<g id="edge4" class="edge">
<title>Node3&#45;&gt;Node4</title>
<path fill="none" stroke="midnightblue" d="M94.83,-123.08C95.09,-116.01 95.47,-105.86 95.8,-96.99"/>
<polygon fill="midnightblue" stroke="midnightblue" points="99.3,-96.87 96.18,-86.75 92.31,-96.61 99.3,-96.87"/>
</g>
<!-- Node5 -->
<g id="node5" class="node">
<title>Node5</title>
<g id="a_node5"><a xlink:title=" ">
<polygon fill="white" stroke="#bfbfbf" points="0,-67.5 0,-86.5 53,-86.5 53,-67.5 0,-67.5"/>
<text text-anchor="middle" x="26.5" y="-74.5" font-family="Helvetica,sans-Serif" font-size="10.00">stdlib.h</text>
</a>
</g>
</g>
<!-- Node3&#45;&gt;Node5 -->
<g id="edge5" class="edge">
<title>Node3&#45;&gt;Node5</title>
<path fill="none" stroke="midnightblue" d="M83.57,-123.32C73.33,-115.18 57.78,-102.84 45.5,-93.09"/>
<polygon fill="midnightblue" stroke="midnightblue" points="47.63,-90.31 37.62,-86.83 43.28,-95.79 47.63,-90.31"/>
</g>
<!-- Node7 -->
<g id="node7" class="node">
<title>Node7</title>
<g id="a_node7"><a xlink:title=" ">
<polygon fill="white" stroke="#bfbfbf" points="746.5,-6 746.5,-25 810.5,-25 810.5,-6 746.5,-6"/>
<text text-anchor="middle" x="778.5" y="-13" font-family="Helvetica,sans-Serif" font-size="10.00">odp_api.h</text>
</a>
</g>
</g>
<!-- Node6&#45;&gt;Node7 -->
<g id="edge7" class="edge">
<title>Node6&#45;&gt;Node7</title>
<path fill="none" stroke="midnightblue" d="M428.1,-67.48C511.57,-55.33 662.72,-33.34 736.17,-22.66"/>
<polygon fill="midnightblue" stroke="midnightblue" points="737.03,-26.07 746.42,-21.17 736.02,-19.14 737.03,-26.07"/>
</g>
<!-- Node8&#45;&gt;Node9 -->
<g id="edge9" class="edge">
<title>Node8&#45;&gt;Node9</title>
<path fill="none" stroke="midnightblue" d="M1603.11,-123.08C1608.76,-115.46 1617.04,-104.26 1623.95,-94.94"/>
<polygon fill="midnightblue" stroke="midnightblue" points="1626.88,-96.87 1630.02,-86.75 1621.25,-92.7 1626.88,-96.87"/>
</g>
<!-- Node10 -->
<g id="node10" class="node">
<title>Node10</title>
<g id="a_node10"><a xlink:title=" ">
<polygon fill="white" stroke="#bfbfbf" points="1569,-6 1569,-25 1622,-25 1622,-6 1569,-6"/>
<text text-anchor="middle" x="1595.5" y="-13" font-family="Helvetica,sans-Serif" font-size="10.00">stdint.h</text>
</a>
</g>
</g>
<!-- Node9&#45;&gt;Node10 -->
<g id="edge10" class="edge">
<title>Node9&#45;&gt;Node10</title>
<path fill="none" stroke="midnightblue" d="M1630.63,-67.48C1624.54,-58.64 1614.86,-44.59 1607.2,-33.48"/>
<polygon fill="midnightblue" stroke="midnightblue" points="1609.92,-31.26 1601.36,-25.01 1604.16,-35.23 1609.92,-31.26"/>
</g>
<!-- Node9&#45;&gt;Node11 -->
<g id="edge11" class="edge">
<title>Node9&#45;&gt;Node11</title>
<path fill="none" stroke="midnightblue" d="M1673.47,-67.48C1719.35,-56.89 1797.65,-38.84 1847.68,-27.3"/>
<polygon fill="midnightblue" stroke="midnightblue" points="1848.65,-30.67 1857.6,-25.01 1847.07,-23.85 1848.65,-30.67"/>
</g>
<!-- Node12&#45;&gt;Node7 -->
<g id="edge13" class="edge">
<title>Node12&#45;&gt;Node7</title>
<path fill="none" stroke="midnightblue" d="M630.29,-67.48C660.09,-57.22 710.29,-39.96 743.9,-28.4"/>
<polygon fill="midnightblue" stroke="midnightblue" points="745.44,-31.57 753.76,-25.01 743.16,-24.95 745.44,-31.57"/>
</g>
<!-- Node13&#45;&gt;Node7 -->
<g id="edge15" class="edge">
<title>Node13&#45;&gt;Node7</title>
<path fill="none" stroke="midnightblue" d="M727.95,-67.48C737.07,-58.28 751.77,-43.46 762.98,-32.16"/>
<polygon fill="midnightblue" stroke="midnightblue" points="765.51,-34.57 770.06,-25.01 760.54,-29.65 765.51,-34.57"/>
</g>
<!-- Node14&#45;&gt;Node9 -->
<g id="edge17" class="edge">
<title>Node14&#45;&gt;Node9</title>
<path fill="none" stroke="midnightblue" d="M1755.16,-123.44C1731.75,-114.48 1694.76,-100.31 1668.31,-90.18"/>
<polygon fill="midnightblue" stroke="midnightblue" points="1669.33,-86.82 1658.74,-86.52 1666.82,-93.36 1669.33,-86.82"/>
</g>
<!-- Node15&#45;&gt;Node7 -->
<g id="edge19" class="edge">
<title>Node15&#45;&gt;Node7</title>
<path fill="none" stroke="midnightblue" d="M829.05,-67.48C819.93,-58.28 805.23,-43.46 794.02,-32.16"/>
<polygon fill="midnightblue" stroke="midnightblue" points="796.46,-29.65 786.94,-25.01 791.49,-34.57 796.46,-29.65"/>
</g>
<!-- Node16&#45;&gt;Node7 -->
<g id="edge21" class="edge">
<title>Node16&#45;&gt;Node7</title>
<path fill="none" stroke="midnightblue" d="M934.42,-67.48C902.93,-57.18 849.8,-39.81 814.44,-28.25"/>
<polygon fill="midnightblue" stroke="midnightblue" points="815.12,-24.79 804.53,-25.01 812.95,-31.44 815.12,-24.79"/>
</g>
<!-- Node17&#45;&gt;Node6 -->
<g id="edge24" class="edge">
<title>Node17&#45;&gt;Node6</title>
<path fill="none" stroke="midnightblue" d="M507.51,-123.44C479.8,-114.32 435.75,-99.81 404.88,-89.65"/>
<polygon fill="midnightblue" stroke="midnightblue" points="405.96,-86.32 395.36,-86.52 403.77,-92.97 405.96,-86.32"/>
</g>
<!-- Node17&#45;&gt;Node7 -->
<g id="edge23" class="edge">
<title>Node17&#45;&gt;Node7</title>
<path fill="none" stroke="midnightblue" d="M516.42,-123.46C493.92,-111.11 459.14,-87.5 476.5,-67 509.31,-28.25 661.29,-19.21 736.34,-17.12"/>
<polygon fill="midnightblue" stroke="midnightblue" points="736.49,-20.62 746.4,-16.87 736.32,-13.62 736.49,-20.62"/>
</g>
<!-- Node18 -->
<g id="node18" class="node">
<title>Node18</title>
<g id="a_node18"><a xlink:title=" ">
<polygon fill="white" stroke="#bfbfbf" points="486,-67.5 486,-86.5 539,-86.5 539,-67.5 486,-67.5"/>
<text text-anchor="middle" x="512.5" y="-74.5" font-family="Helvetica,sans-Serif" font-size="10.00">string.h</text>
</a>
</g>
</g>
<!-- Node17&#45;&gt;Node18 -->
<g id="edge25" class="edge">
<title>Node17&#45;&gt;Node18</title>
<path fill="none" stroke="midnightblue" d="M530.03,-123.08C527.19,-115.77 523.07,-105.18 519.54,-96.1"/>
<polygon fill="midnightblue" stroke="midnightblue" points="522.79,-94.8 515.9,-86.75 516.27,-97.34 522.79,-94.8"/>
</g>
<!-- Node19&#45;&gt;Node7 -->
<g id="edge27" class="edge">
<title>Node19&#45;&gt;Node7</title>
<path fill="none" stroke="midnightblue" d="M984.46,-123.38C1005.48,-110.94 1037.95,-87.22 1021.5,-67 996.64,-36.45 883.36,-23.78 820.62,-19.03"/>
<polygon fill="midnightblue" stroke="midnightblue" points="820.86,-15.54 810.64,-18.31 820.36,-22.52 820.86,-15.54"/>
</g>
<!-- Node20&#45;&gt;Node9 -->
<g id="edge30" class="edge">
<title>Node20&#45;&gt;Node9</title>
<path fill="none" stroke="midnightblue" d="M1416.86,-123.44C1462.58,-113.98 1536.26,-98.74 1585.52,-88.55"/>
<polygon fill="midnightblue" stroke="midnightblue" points="1586.25,-91.97 1595.34,-86.52 1584.84,-85.12 1586.25,-91.97"/>
</g>
<!-- Node20&#45;&gt;Node10 -->
<g id="edge29" class="edge">
<title>Node20&#45;&gt;Node10</title>
<path fill="none" stroke="midnightblue" d="M1432.38,-123.43C1463.4,-116.89 1501.48,-105.71 1531.5,-87 1553.55,-73.26 1572.65,-49.82 1584.11,-33.77"/>
<polygon fill="midnightblue" stroke="midnightblue" points="1587.15,-35.52 1589.94,-25.3 1581.38,-31.55 1587.15,-35.52"/>
</g>
<!-- Node21&#45;&gt;Node9 -->
<g id="edge32" class="edge">
<title>Node21&#45;&gt;Node9</title>
<path fill="none" stroke="midnightblue" d="M1910.84,-123.44C1853.02,-113.87 1759.39,-98.36 1697.88,-88.17"/>
<polygon fill="midnightblue" stroke="midnightblue" points="1698.35,-84.7 1687.91,-86.52 1697.21,-91.6 1698.35,-84.7"/>
</g>
<!-- Node22&#45;&gt;Node7 -->
<g id="edge34" class="edge">
<title>Node22&#45;&gt;Node7</title>
<path fill="none" stroke="midnightblue" d="M1276.28,-123.77C1348.95,-111.87 1474.26,-90.87 1477.5,-87 1483.21,-80.18 1483.55,-73.51 1477.5,-67 1432.73,-18.88 965.49,-16.01 820.9,-16.29"/>
<polygon fill="midnightblue" stroke="midnightblue" points="820.65,-12.79 810.66,-16.32 820.67,-19.79 820.65,-12.79"/>
</g>
<!-- Node23&#45;&gt;Node7 -->
<g id="edge37" class="edge">
<title>Node23&#45;&gt;Node7</title>
<path fill="none" stroke="midnightblue" d="M268.79,-123.17C269.79,-108.85 274.01,-80.77 291.5,-67 326.11,-39.75 624.04,-23.52 736.11,-18.33"/>
<polygon fill="midnightblue" stroke="midnightblue" points="736.53,-21.81 746.36,-17.86 736.21,-14.82 736.53,-21.81"/>
</g>
<!-- Node24&#45;&gt;Node7 -->
<g id="edge42" class="edge">
<title>Node24&#45;&gt;Node7</title>
<path fill="none" stroke="midnightblue" d="M1157.32,-124.06C1160.09,-123.7 1162.82,-123.34 1165.5,-123 1231.01,-114.6 1416.72,-136.45 1460.5,-87 1466.39,-80.34 1466.55,-73.51 1460.5,-67 1416.95,-20.11 963.01,-16.38 820.83,-16.37"/>
<polygon fill="midnightblue" stroke="midnightblue" points="820.75,-12.87 810.75,-16.38 820.76,-19.87 820.75,-12.87"/>
</g>
<!-- Node25 -->
<g id="node25" class="node">
<title>Node25</title>
<g id="a_node25"><a xlink:href="deprecated_8h.html" target="_top" xlink:title=" ">
<polygon fill="white" stroke="black" points="1145,-67.5 1145,-86.5 1280,-86.5 1280,-67.5 1145,-67.5"/>
<text text-anchor="middle" x="1212.5" y="-74.5" font-family="Helvetica,sans-Serif" font-size="10.00">odp/helper/deprecated.h</text>
</a>
</g>
</g>
<!-- Node24&#45;&gt;Node25 -->
<g id="edge40" class="edge">
<title>Node24&#45;&gt;Node25</title>
<path fill="none" stroke="midnightblue" d="M1116.56,-123.44C1135.07,-114.68 1164.08,-100.94 1185.36,-90.86"/>
<polygon fill="midnightblue" stroke="midnightblue" points="1186.98,-93.96 1194.52,-86.52 1183.99,-87.63 1186.98,-93.96"/>
</g>
<!-- Node26 -->
<g id="node26" class="node">
<title>Node26</title>
<g id="a_node26"><a xlink:href="pthread_8h.html" target="_top" xlink:title=" ">
<polygon fill="white" stroke="black" points="1298,-67.5 1298,-86.5 1361,-86.5 1361,-67.5 1298,-67.5"/>
<text text-anchor="middle" x="1329.5" y="-74.5" font-family="Helvetica,sans-Serif" font-size="10.00">pthread.h</text>
</a>
</g>
</g>
<!-- Node24&#45;&gt;Node26 -->
<g id="edge43" class="edge">
<title>Node24&#45;&gt;Node26</title>
<path fill="none" stroke="midnightblue" d="M1130.01,-123.44C1171.08,-113.32 1242.7,-96.58 1288.1,-86.49"/>
<polygon fill="midnightblue" stroke="midnightblue" points="1288.91,-89.9 1297.92,-84.32 1287.4,-83.06 1288.91,-89.9"/>
</g>
<!-- Node27 -->
<g id="node27" class="node">
<title>Node27</title>
<g id="a_node27"><a xlink:title=" ">
<polygon fill="white" stroke="#bfbfbf" points="1070,-67.5 1070,-86.5 1127,-86.5 1127,-67.5 1070,-67.5"/>
<text text-anchor="middle" x="1098.5" y="-74.5" font-family="Helvetica,sans-Serif" font-size="10.00">getopt.h</text>
</a>
</g>
</g>
<!-- Node24&#45;&gt;Node27 -->
<g id="edge46" class="edge">
<title>Node24&#45;&gt;Node27</title>
<path fill="none" stroke="midnightblue" d="M1098.5,-123.08C1098.5,-116.01 1098.5,-105.86 1098.5,-96.99"/>
<polygon fill="midnightblue" stroke="midnightblue" points="1102,-96.75 1098.5,-86.75 1095,-96.75 1102,-96.75"/>
</g>
<!-- Node28 -->
<g id="node28" class="node">
<title>Node28</title>
<g id="a_node28"><a xlink:title=" ">
<polygon fill="white" stroke="#bfbfbf" points="1379.5,-67.5 1379.5,-86.5 1451.5,-86.5 1451.5,-67.5 1379.5,-67.5"/>
<text text-anchor="middle" x="1415.5" y="-74.5" font-family="Helvetica,sans-Serif" font-size="10.00">sys/types.h</text>
</a>
</g>
</g>
<!-- Node24&#45;&gt;Node28 -->
<g id="edge47" class="edge">
<title>Node24&#45;&gt;Node28</title>
<path fill="none" stroke="midnightblue" d="M1152.57,-123.49C1207.32,-114.76 1294.41,-100.58 1369.5,-87 1369.6,-86.98 1369.7,-86.96 1369.8,-86.95"/>
<polygon fill="midnightblue" stroke="midnightblue" points="1370.17,-90.44 1379.36,-85.17 1368.89,-83.56 1370.17,-90.44"/>
</g>
<!-- Node25&#45;&gt;Node2 -->
<g id="edge41" class="edge">
<title>Node25&#45;&gt;Node2</title>
<path fill="none" stroke="midnightblue" d="M1144.92,-67.86C1141.74,-67.55 1138.58,-67.26 1135.5,-67 812.2,-39.48 425.2,-24.33 266.2,-18.87"/>
<polygon fill="midnightblue" stroke="midnightblue" points="266.17,-15.37 256.06,-18.52 265.94,-22.36 266.17,-15.37"/>
</g>
<!-- Node26&#45;&gt;Node7 -->
<g id="edge45" class="edge">
<title>Node26&#45;&gt;Node7</title>
<path fill="none" stroke="midnightblue" d="M1297.79,-68.65C1294.66,-68.04 1291.52,-67.48 1288.5,-67 1116.03,-39.63 908.24,-24.54 820.67,-18.99"/>
<polygon fill="midnightblue" stroke="midnightblue" points="820.79,-15.5 810.59,-18.36 820.35,-22.48 820.79,-15.5"/>
</g>
<!-- Node26&#45;&gt;Node24 -->
<g id="edge44" class="edge">
<title>Node26&#45;&gt;Node24</title>
<path fill="none" stroke="midnightblue" d="M1298.15,-86.52C1260.07,-95.9 1195.57,-111.01 1150.15,-121.22"/>
<polygon fill="midnightblue" stroke="midnightblue" points="1149.19,-117.85 1140.19,-123.44 1150.71,-124.68 1149.19,-117.85"/>
</g>
<!-- Node29&#45;&gt;Node6 -->
<g id="edge50" class="edge">
<title>Node29&#45;&gt;Node6</title>
<path fill="none" stroke="midnightblue" d="M381.19,-123.08C379.33,-115.93 376.66,-105.64 374.35,-96.69"/>
<polygon fill="midnightblue" stroke="midnightblue" points="377.67,-95.55 371.77,-86.75 370.89,-97.31 377.67,-95.55"/>
</g>
<!-- Node29&#45;&gt;Node7 -->
<g id="edge49" class="edge">
<title>Node29&#45;&gt;Node7</title>
<path fill="none" stroke="midnightblue" d="M356.58,-123.45C324.93,-112.07 279.26,-90.6 300.5,-67 329.4,-34.89 624.29,-21.68 735.96,-17.81"/>
<polygon fill="midnightblue" stroke="midnightblue" points="736.3,-21.3 746.18,-17.46 736.06,-14.3 736.3,-21.3"/>
</g>
</g>
</svg>
