<?xml version="1.0" encoding="UTF-8" standalone="no"?>
<!DOCTYPE svg PUBLIC "-//W3C//DTD SVG 1.1//EN"
 "http://www.w3.org/Graphics/SVG/1.1/DTD/svg11.dtd">
<!-- Generated by graphviz version 2.43.0 (0)
 -->
<!-- Title: process.h Pages: 1 -->
<svg width="446pt" height="207pt"
 viewBox="0.00 0.00 446.02 207.00" xmlns="http://www.w3.org/2000/svg" xmlns:xlink="http://www.w3.org/1999/xlink">
<g id="graph0" class="graph" transform="scale(1 1) rotate(0) translate(4 203)">
<title>process.h</title>
<polygon fill="white" stroke="transparent" points="-4,4 -4,-203 442.02,-203 442.02,4 -4,4"/>
<!-- Node1 -->
<g id="node1" class="node">
<title>Node1</title>
<g id="a_node1"><a xlink:title=" ">
<polygon fill="#bfbfbf" stroke="black" points="304,-179.5 304,-198.5 367,-198.5 367,-179.5 304,-179.5"/>
<text text-anchor="middle" x="335.5" y="-186.5" font-family="Helvetica,sans-Serif" font-size="10.00">process.h</text>
</a>
</g>
</g>
<!-- Node2 -->
<g id="node2" class="node">
<title>Node2</title>
<g id="a_node2"><a xlink:href="threads_8h.html" target="_top" xlink:title=" ">
<polygon fill="white" stroke="black" points="165,-123.5 165,-142.5 282,-142.5 282,-123.5 165,-123.5"/>
<text text-anchor="middle" x="223.5" y="-130.5" font-family="Helvetica,sans-Serif" font-size="10.00">odp/helper/threads.h</text>
</a>
</g>
</g>
<!-- Node1&#45;&gt;Node2 -->
<g id="edge1" class="edge">
<title>Node1&#45;&gt;Node2</title>
<path fill="none" stroke="midnightblue" d="M317.51,-179.32C299.46,-170.62 271.45,-157.12 250.7,-147.11"/>
<polygon fill="midnightblue" stroke="midnightblue" points="251.98,-143.84 241.45,-142.65 248.94,-150.15 251.98,-143.84"/>
</g>
<!-- Node5 -->
<g id="node5" class="node">
<title>Node5</title>
<g id="a_node5"><a xlink:title=" ">
<polygon fill="white" stroke="#bfbfbf" points="191.5,-6 191.5,-25 255.5,-25 255.5,-6 191.5,-6"/>
<text text-anchor="middle" x="223.5" y="-13" font-family="Helvetica,sans-Serif" font-size="10.00">odp_api.h</text>
</a>
</g>
</g>
<!-- Node1&#45;&gt;Node5 -->
<g id="edge10" class="edge">
<title>Node1&#45;&gt;Node5</title>
<path fill="none" stroke="midnightblue" d="M351.22,-179.47C385.73,-159.67 462.5,-109.07 429.5,-67 409.54,-41.55 319.96,-27.25 265.72,-20.78"/>
<polygon fill="midnightblue" stroke="midnightblue" points="266.03,-17.29 255.7,-19.62 265.23,-24.25 266.03,-17.29"/>
</g>
<!-- Node3 -->
<g id="node3" class="node">
<title>Node3</title>
<g id="a_node3"><a xlink:href="deprecated_8h.html" target="_top" xlink:title=" ">
<polygon fill="white" stroke="black" points="0,-67.5 0,-86.5 135,-86.5 135,-67.5 0,-67.5"/>
<text text-anchor="middle" x="67.5" y="-74.5" font-family="Helvetica,sans-Serif" font-size="10.00">odp/helper/deprecated.h</text>
</a>
</g>
</g>
<!-- Node2&#45;&gt;Node3 -->
<g id="edge2" class="edge">
<title>Node2&#45;&gt;Node3</title>
<path fill="none" stroke="midnightblue" d="M198.78,-123.44C172.65,-114.4 131.24,-100.06 101.92,-89.92"/>
<polygon fill="midnightblue" stroke="midnightblue" points="102.7,-86.48 92.1,-86.52 100.41,-93.1 102.7,-86.48"/>
</g>
<!-- Node2&#45;&gt;Node5 -->
<g id="edge4" class="edge">
<title>Node2&#45;&gt;Node5</title>
<path fill="none" stroke="midnightblue" d="M211.96,-123.49C202.02,-115.38 188.38,-102.18 182.5,-87 179.29,-78.71 179.53,-75.38 182.5,-67 187.17,-53.83 196.91,-41.59 205.72,-32.46"/>
<polygon fill="midnightblue" stroke="midnightblue" points="208.36,-34.78 213.08,-25.29 203.47,-29.77 208.36,-34.78"/>
</g>
<!-- Node6 -->
<g id="node6" class="node">
<title>Node6</title>
<g id="a_node6"><a xlink:href="pthread_8h.html" target="_top" xlink:title=" ">
<polygon fill="white" stroke="black" points="192,-67.5 192,-86.5 255,-86.5 255,-67.5 192,-67.5"/>
<text text-anchor="middle" x="223.5" y="-74.5" font-family="Helvetica,sans-Serif" font-size="10.00">pthread.h</text>
</a>
</g>
</g>
<!-- Node2&#45;&gt;Node6 -->
<g id="edge5" class="edge">
<title>Node2&#45;&gt;Node6</title>
<path fill="none" stroke="midnightblue" d="M218.33,-123.08C216.82,-115.93 216.39,-105.64 217.04,-96.69"/>
<polygon fill="midnightblue" stroke="midnightblue" points="220.52,-97.13 218.37,-86.75 213.58,-96.2 220.52,-97.13"/>
</g>
<!-- Node7 -->
<g id="node7" class="node">
<title>Node7</title>
<g id="a_node7"><a xlink:title=" ">
<polygon fill="white" stroke="#bfbfbf" points="273,-67.5 273,-86.5 330,-86.5 330,-67.5 273,-67.5"/>
<text text-anchor="middle" x="301.5" y="-74.5" font-family="Helvetica,sans-Serif" font-size="10.00">getopt.h</text>
</a>
</g>
</g>
<!-- Node2&#45;&gt;Node7 -->
<g id="edge8" class="edge">
<title>Node2&#45;&gt;Node7</title>
<path fill="none" stroke="midnightblue" d="M236.03,-123.32C248.09,-114.98 266.53,-102.21 280.77,-92.35"/>
<polygon fill="midnightblue" stroke="midnightblue" points="282.77,-95.22 289,-86.65 278.78,-89.47 282.77,-95.22"/>
</g>
<!-- Node8 -->
<g id="node8" class="node">
<title>Node8</title>
<g id="a_node8"><a xlink:title=" ">
<polygon fill="white" stroke="#bfbfbf" points="348.5,-67.5 348.5,-86.5 420.5,-86.5 420.5,-67.5 348.5,-67.5"/>
<text text-anchor="middle" x="384.5" y="-74.5" font-family="Helvetica,sans-Serif" font-size="10.00">sys/types.h</text>
</a>
</g>
</g>
<!-- Node2&#45;&gt;Node8 -->
<g id="edge9" class="edge">
<title>Node2&#45;&gt;Node8</title>
<path fill="none" stroke="midnightblue" d="M249.01,-123.44C276.1,-114.36 319.09,-99.94 349.37,-89.78"/>
<polygon fill="midnightblue" stroke="midnightblue" points="350.74,-93.01 359.11,-86.52 348.51,-86.38 350.74,-93.01"/>
</g>
<!-- Node4 -->
<g id="node4" class="node">
<title>Node4</title>
<g id="a_node4"><a xlink:href="autoheader__external_8h_source.html" target="_top" xlink:title=" ">
<polygon fill="white" stroke="black" points="4,-0.5 4,-30.5 131,-30.5 131,-0.5 4,-0.5"/>
<text text-anchor="start" x="12" y="-18.5" font-family="Helvetica,sans-Serif" font-size="10.00">odp/helper/autoheader</text>
<text text-anchor="middle" x="67.5" y="-7.5" font-family="Helvetica,sans-Serif" font-size="10.00">_external.h</text>
</a>
</g>
</g>
<!-- Node3&#45;&gt;Node4 -->
<g id="edge3" class="edge">
<title>Node3&#45;&gt;Node4</title>
<path fill="none" stroke="midnightblue" d="M67.5,-67.48C67.5,-60.47 67.5,-50.19 67.5,-40.7"/>
<polygon fill="midnightblue" stroke="midnightblue" points="71,-40.52 67.5,-30.52 64,-40.52 71,-40.52"/>
</g>
<!-- Node6&#45;&gt;Node2 -->
<g id="edge6" class="edge">
<title>Node6&#45;&gt;Node2</title>
<path fill="none" stroke="midnightblue" d="M228.63,-86.75C230.16,-93.86 230.6,-104.14 229.97,-113.1"/>
<polygon fill="midnightblue" stroke="midnightblue" points="226.49,-112.71 228.67,-123.08 233.43,-113.62 226.49,-112.71"/>
</g>
<!-- Node6&#45;&gt;Node5 -->
<g id="edge7" class="edge">
<title>Node6&#45;&gt;Node5</title>
<path fill="none" stroke="midnightblue" d="M223.5,-67.48C223.5,-59.08 223.5,-45.98 223.5,-35.16"/>
<polygon fill="midnightblue" stroke="midnightblue" points="227,-35.01 223.5,-25.01 220,-35.01 227,-35.01"/>
</g>
</g>
</svg>
