<?xml version="1.0" encoding="UTF-8" standalone="no"?>
<!DOCTYPE svg PUBLIC "-//W3C//DTD SVG 1.1//EN"
 "http://www.w3.org/Graphics/SVG/1.1/DTD/svg11.dtd">
<!-- Generated by graphviz version 2.43.0 (0)
 -->
<!-- Title: pthread.h Pages: 1 -->
<svg width="391pt" height="207pt"
 viewBox="0.00 0.00 391.00 207.00" xmlns="http://www.w3.org/2000/svg" xmlns:xlink="http://www.w3.org/1999/xlink">
<g id="graph0" class="graph" transform="scale(1 1) rotate(0) translate(4 203)">
<title>pthread.h</title>
<polygon fill="white" stroke="transparent" points="-4,4 -4,-203 387,-203 387,4 -4,4"/>
<!-- Node1 -->
<g id="node1" class="node">
<title>Node1</title>
<g id="a_node1"><a xlink:title=" ">
<polygon fill="#bfbfbf" stroke="black" points="118.5,-179.5 118.5,-198.5 181.5,-198.5 181.5,-179.5 118.5,-179.5"/>
<text text-anchor="middle" x="150" y="-186.5" font-family="Helvetica,sans-Serif" font-size="10.00">pthread.h</text>
</a>
</g>
</g>
<!-- Node2 -->
<g id="node2" class="node">
<title>Node2</title>
<g id="a_node2"><a xlink:href="threads_8h.html" target="_top" xlink:title=" ">
<polygon fill="white" stroke="black" points="91.5,-123.5 91.5,-142.5 208.5,-142.5 208.5,-123.5 91.5,-123.5"/>
<text text-anchor="middle" x="150" y="-130.5" font-family="Helvetica,sans-Serif" font-size="10.00">odp/helper/threads.h</text>
</a>
</g>
</g>
<!-- Node1&#45;&gt;Node2 -->
<g id="edge1" class="edge">
<title>Node1&#45;&gt;Node2</title>
<path fill="none" stroke="midnightblue" d="M144.83,-179.08C143.32,-171.93 142.89,-161.64 143.54,-152.69"/>
<polygon fill="midnightblue" stroke="midnightblue" points="147.02,-153.13 144.87,-142.75 140.08,-152.2 147.02,-153.13"/>
</g>
<!-- Node5 -->
<g id="node5" class="node">
<title>Node5</title>
<g id="a_node5"><a xlink:title=" ">
<polygon fill="white" stroke="#bfbfbf" points="0,-67.5 0,-86.5 64,-86.5 64,-67.5 0,-67.5"/>
<text text-anchor="middle" x="32" y="-74.5" font-family="Helvetica,sans-Serif" font-size="10.00">odp_api.h</text>
</a>
</g>
</g>
<!-- Node1&#45;&gt;Node5 -->
<g id="edge8" class="edge">
<title>Node1&#45;&gt;Node5</title>
<path fill="none" stroke="midnightblue" d="M134.1,-179.5C119.6,-171.3 98.06,-157.95 82,-143 66.59,-128.65 52.3,-109.19 42.98,-95.31"/>
<polygon fill="midnightblue" stroke="midnightblue" points="45.77,-93.18 37.37,-86.73 39.91,-97.01 45.77,-93.18"/>
</g>
<!-- Node2&#45;&gt;Node1 -->
<g id="edge5" class="edge">
<title>Node2&#45;&gt;Node1</title>
<path fill="none" stroke="midnightblue" d="M155.13,-142.75C156.66,-149.86 157.1,-160.14 156.47,-169.1"/>
<polygon fill="midnightblue" stroke="midnightblue" points="152.99,-168.71 155.17,-179.08 159.93,-169.62 152.99,-168.71"/>
</g>
<!-- Node3 -->
<g id="node3" class="node">
<title>Node3</title>
<g id="a_node3"><a xlink:href="deprecated_8h.html" target="_top" xlink:title=" ">
<polygon fill="white" stroke="black" points="82.5,-67.5 82.5,-86.5 217.5,-86.5 217.5,-67.5 82.5,-67.5"/>
<text text-anchor="middle" x="150" y="-74.5" font-family="Helvetica,sans-Serif" font-size="10.00">odp/helper/deprecated.h</text>
</a>
</g>
</g>
<!-- Node2&#45;&gt;Node3 -->
<g id="edge2" class="edge">
<title>Node2&#45;&gt;Node3</title>
<path fill="none" stroke="midnightblue" d="M150,-123.08C150,-116.01 150,-105.86 150,-96.99"/>
<polygon fill="midnightblue" stroke="midnightblue" points="153.5,-96.75 150,-86.75 146.5,-96.75 153.5,-96.75"/>
</g>
<!-- Node2&#45;&gt;Node5 -->
<g id="edge4" class="edge">
<title>Node2&#45;&gt;Node5</title>
<path fill="none" stroke="midnightblue" d="M131.3,-123.44C112.06,-114.64 81.85,-100.81 59.8,-90.72"/>
<polygon fill="midnightblue" stroke="midnightblue" points="61.16,-87.5 50.61,-86.52 58.25,-93.86 61.16,-87.5"/>
</g>
<!-- Node6 -->
<g id="node6" class="node">
<title>Node6</title>
<g id="a_node6"><a xlink:title=" ">
<polygon fill="white" stroke="#bfbfbf" points="235.5,-67.5 235.5,-86.5 292.5,-86.5 292.5,-67.5 235.5,-67.5"/>
<text text-anchor="middle" x="264" y="-74.5" font-family="Helvetica,sans-Serif" font-size="10.00">getopt.h</text>
</a>
</g>
</g>
<!-- Node2&#45;&gt;Node6 -->
<g id="edge6" class="edge">
<title>Node2&#45;&gt;Node6</title>
<path fill="none" stroke="midnightblue" d="M168.06,-123.44C186.57,-114.68 215.58,-100.94 236.86,-90.86"/>
<polygon fill="midnightblue" stroke="midnightblue" points="238.48,-93.96 246.02,-86.52 235.49,-87.63 238.48,-93.96"/>
</g>
<!-- Node7 -->
<g id="node7" class="node">
<title>Node7</title>
<g id="a_node7"><a xlink:title=" ">
<polygon fill="white" stroke="#bfbfbf" points="311,-67.5 311,-86.5 383,-86.5 383,-67.5 311,-67.5"/>
<text text-anchor="middle" x="347" y="-74.5" font-family="Helvetica,sans-Serif" font-size="10.00">sys/types.h</text>
</a>
</g>
</g>
<!-- Node2&#45;&gt;Node7 -->
<g id="edge7" class="edge">
<title>Node2&#45;&gt;Node7</title>
<path fill="none" stroke="midnightblue" d="M181.22,-123.44C214.93,-114.2 268.8,-99.44 305.93,-89.26"/>
<polygon fill="midnightblue" stroke="midnightblue" points="307.21,-92.54 315.93,-86.52 305.36,-85.78 307.21,-92.54"/>
</g>
<!-- Node4 -->
<g id="node4" class="node">
<title>Node4</title>
<g id="a_node4"><a xlink:href="autoheader__external_8h_source.html" target="_top" xlink:title=" ">
<polygon fill="white" stroke="black" points="86.5,-0.5 86.5,-30.5 213.5,-30.5 213.5,-0.5 86.5,-0.5"/>
<text text-anchor="start" x="94.5" y="-18.5" font-family="Helvetica,sans-Serif" font-size="10.00">odp/helper/autoheader</text>
<text text-anchor="middle" x="150" y="-7.5" font-family="Helvetica,sans-Serif" font-size="10.00">_external.h</text>
</a>
</g>
</g>
<!-- Node3&#45;&gt;Node4 -->
<g id="edge3" class="edge">
<title>Node3&#45;&gt;Node4</title>
<path fill="none" stroke="midnightblue" d="M150,-67.48C150,-60.47 150,-50.19 150,-40.7"/>
<polygon fill="midnightblue" stroke="midnightblue" points="153.5,-40.52 150,-30.52 146.5,-40.52 153.5,-40.52"/>
</g>
</g>
</svg>
